<?xml version="1.0" encoding="UTF-8" standalone="no"?>
<!DOCTYPE svg PUBLIC "-//W3C//DTD SVG 1.1//EN"
 "http://www.w3.org/Graphics/SVG/1.1/DTD/svg11.dtd">
<!-- Generated by graphviz version 2.26.3 (20100126.1600)
 -->
<!-- Title: G Pages: 1 -->
<!--zoomable 88 -->
<svg id="main" version="1.1" xmlns="http://www.w3.org/2000/svg" xmlns:xlink="http://www.w3.org/1999/xlink" xml:space="preserve" onload="init(evt)">
        <defs>
                <circle id="rim" cx="0" cy="0" r="7"/>
                <circle id="rim2" cx="0" cy="0" r="3.5"/>
                <g id="zoomPlus">
                        <use xlink:href="#rim" fill="#404040">
                                <set attributeName="fill" to="#808080" begin="zoomplus.mouseover" end="zoomplus.mouseout"/>
                        </use>
                        <path d="M-4,0h8M0,-4v8" fill="none" stroke="white" stroke-width="1.5" pointer-events="none"/>
                </g>
                <g id="zoomMin">
                        <use xlink:href="#rim" fill="#404040">
                                <set attributeName="fill" to="#808080" begin="zoomminus.mouseover" end="zoomminus.mouseout"/>
                        </use>
                        <path d="M-4,0h8" fill="none" stroke="white" stroke-width="1.5" pointer-events="none"/>
                </g>
                <g id="dirArrow">
                        <path fill="none" stroke="white" stroke-width="1.5" d="M0,-3.0v7 M-2.5,-0.5L0,-3.0L2.5,-0.5"/>
                </g>
               <g id="resetDef">
                       <use xlink:href="#rim2" fill="#404040">
                               <set attributeName="fill" to="#808080" begin="reset.mouseover" end="reset.mouseout"/>
                       </use>
               </g>
        </defs>

<script type="text/javascript">
var viewWidth = 3200;
var viewHeight = 88;
var sectionId = 'dynsection-1';
</script>
<script xlink:href="svgpan.js"/>
<svg id="graph" class="graph">
<g id="viewport">
<title>G</title>
<polygon fill="white" stroke="white" points="-4,5 -4,-84 3197,-84 3197,5 -4,5"/>
<!-- Node1 -->
<g id="node1" class="node"><title>Node1</title>
<polygon fill="#bfbfbf" stroke="black" points="1555,-58.5 1555,-79.5 1737,-79.5 1737,-58.5 1555,-58.5"/>
<text text-anchor="middle" x="1646" y="-66.5" font-family="Helvetica,sans-Serif" font-size="10.00">source/main/gameplay/BeamEngine.h</text>
</g>
<!-- Node2 -->
<g id="node3" class="node"><title>Node2</title>
<a xlink:href="_aircraft_simulation_8cpp.html" target="_top" xlink:title="source/main/gameplay/AircraftSimulation.cpp">
<polygon fill="white" stroke="black" points="0,-0.5 0,-21.5 214,-21.5 214,-0.5 0,-0.5"/>
<text text-anchor="middle" x="107" y="-8.5" font-family="Helvetica,sans-Serif" font-size="10.00">source/main/gameplay/AircraftSimulation.cpp</text>
</a>
</g>
<!-- Node1&#45;&gt;Node2 -->
<g id="edge2" class="edge"><title>Node1&#45;&gt;Node2</title>
<path fill="none" stroke="midnightblue" d="M1544.59,-67.7917C1311.17,-64.5422 717.946,-53.6109 223,-22 220.073,-21.813 217.105,-21.612 214.111,-21.399"/>
<polygon fill="midnightblue" stroke="midnightblue" points="1544.71,-71.2936 1554.76,-67.9316 1544.81,-64.2943 1544.71,-71.2936"/>
</g>
<!-- Node3 -->
<g id="node5" class="node"><title>Node3</title>
<a xlink:href="_beam_engine_8cpp.html" target="_top" xlink:title="source/main/gameplay/BeamEngine.cpp">
<polygon fill="white" stroke="black" points="232,-0.5 232,-21.5 424,-21.5 424,-0.5 232,-0.5"/>
<text text-anchor="middle" x="328" y="-8.5" font-family="Helvetica,sans-Serif" font-size="10.00">source/main/gameplay/BeamEngine.cpp</text>
</a>
</g>
<!-- Node1&#45;&gt;Node3 -->
<g id="edge4" class="edge"><title>Node1&#45;&gt;Node3</title>
<path fill="none" stroke="midnightblue" d="M1544.97,-67.3265C1336.75,-63.3833 844.834,-51.5189 433,-22 430.075,-21.7903 427.105,-21.5639 424.108,-21.3236"/>
<polygon fill="midnightblue" stroke="midnightblue" points="1544.9,-70.8258 1554.97,-67.5139 1545.04,-63.827 1544.9,-70.8258"/>
</g>
<!-- Node4 -->
<g id="node7" class="node"><title>Node4</title>
<a xlink:href="_land_vehicle_simulation_8cpp.html" target="_top" xlink:title="source/main/gameplay/LandVehicleSimulation.cpp">
<polygon fill="white" stroke="black" points="442,-0.5 442,-21.5 678,-21.5 678,-0.5 442,-0.5"/>
<text text-anchor="middle" x="560" y="-8.5" font-family="Helvetica,sans-Serif" font-size="10.00">source/main/gameplay/LandVehicleSimulation.cpp</text>
</a>
</g>
<!-- Node1&#45;&gt;Node4 -->
<g id="edge6" class="edge"><title>Node1&#45;&gt;Node4</title>
<path fill="none" stroke="midnightblue" d="M1544.47,-65.2739C1369.35,-58.5678 999.266,-43.1678 687,-22 684.13,-21.8054 681.223,-21.6022 678.292,-21.3918"/>
<polygon fill="midnightblue" stroke="midnightblue" points="1544.57,-68.7803 1554.7,-65.6642 1544.84,-61.7854 1544.57,-68.7803"/>
</g>
<!-- Node5 -->
<g id="node9" class="node"><title>Node5</title>
<a xlink:href="_out_protocol_8cpp.html" target="_top" xlink:title="source/main/gameplay/OutProtocol.cpp">
<polygon fill="white" stroke="black" points="696,-0.5 696,-21.5 884,-21.5 884,-0.5 696,-0.5"/>
<text text-anchor="middle" x="790" y="-8.5" font-family="Helvetica,sans-Serif" font-size="10.00">source/main/gameplay/OutProtocol.cpp</text>
</a>
</g>
<!-- Node1&#45;&gt;Node5 -->
<g id="edge8" class="edge"><title>Node1&#45;&gt;Node5</title>
<path fill="none" stroke="midnightblue" d="M1544.73,-64.0984C1400.05,-56.7735 1125.93,-41.6978 893,-22 890.043,-21.75 887.04,-21.4865 884.008,-21.2123"/>
<polygon fill="midnightblue" stroke="midnightblue" points="1544.75,-67.6041 1554.92,-64.6123 1545.1,-60.613 1544.75,-67.6041"/>
</g>
<!-- Node6 -->
<g id="node11" class="node"><title>Node6</title>
<a xlink:href="_ro_r_frame_listener_8cpp.html" target="_top" xlink:title="source/main/gameplay/RoRFrameListener.cpp">
<polygon fill="white" stroke="black" points="901.5,-0.5 901.5,-21.5 1120.5,-21.5 1120.5,-0.5 901.5,-0.5"/>
<text text-anchor="middle" x="1011" y="-8.5" font-family="Helvetica,sans-Serif" font-size="10.00">source/main/gameplay/RoRFrameListener.cpp</text>
</a>
</g>
<!-- Node1&#45;&gt;Node6 -->
<g id="edge10" class="edge"><title>Node1&#45;&gt;Node6</title>
<path fill="none" stroke="midnightblue" d="M1544.74,-59.8634C1440.5,-50.4424 1273.4,-35.2938 1129,-22 1126.23,-21.7454 1123.43,-21.487 1120.6,-21.226"/>
<polygon fill="midnightblue" stroke="midnightblue" points="1544.66,-63.3709 1554.94,-60.7852 1545.29,-56.3993 1544.66,-63.3709"/>
</g>
<!-- Node7 -->
<g id="node13" class="node"><title>Node7</title>
<a xlink:href="_two_d_replay_8cpp.html" target="_top" xlink:title="source/main/gameplay/TwoDReplay.cpp">
<polygon fill="white" stroke="black" points="1138,-0.5 1138,-21.5 1332,-21.5 1332,-0.5 1138,-0.5"/>
<text text-anchor="middle" x="1235" y="-8.5" font-family="Helvetica,sans-Serif" font-size="10.00">source/main/gameplay/TwoDReplay.cpp</text>
</a>
</g>
<!-- Node1&#45;&gt;Node7 -->
<g id="edge12" class="edge"><title>Node1&#45;&gt;Node7</title>
<path fill="none" stroke="midnightblue" d="M1561.33,-57.052C1487.2,-46.5906 1380.54,-31.5378 1309.57,-21.5231"/>
<polygon fill="midnightblue" stroke="midnightblue" points="1561.18,-60.5649 1571.57,-58.4966 1562.16,-53.6335 1561.18,-60.5649"/>
</g>
<!-- Node8 -->
<g id="node15" class="node"><title>Node8</title>
<a xlink:href="_overlay_wrapper_8cpp.html" target="_top" xlink:title="source/main/gui/OverlayWrapper.cpp">
<polygon fill="white" stroke="black" points="1350,-0.5 1350,-21.5 1528,-21.5 1528,-0.5 1350,-0.5"/>
<text text-anchor="middle" x="1439" y="-8.5" font-family="Helvetica,sans-Serif" font-size="10.00">source/main/gui/OverlayWrapper.cpp</text>
</a>
</g>
<!-- Node1&#45;&gt;Node8 -->
<g id="edge14" class="edge"><title>Node1&#45;&gt;Node8</title>
<path fill="none" stroke="midnightblue" d="M1598.46,-55.6795C1561.44,-45.307 1510.76,-31.1078 1476.56,-21.5231"/>
<polygon fill="midnightblue" stroke="midnightblue" points="1597.94,-59.1687 1608.51,-58.4966 1599.83,-52.4283 1597.94,-59.1687"/>
</g>
<!-- Node9 -->
<g id="node17" class="node"><title>Node9</title>
<a xlink:href="_g_u_i___sim_utils_8cpp.html" target="_top" xlink:title="source/main/gui/panels/GUI_SimUtils.cpp">
<polygon fill="white" stroke="black" points="1546,-0.5 1546,-21.5 1746,-21.5 1746,-0.5 1546,-0.5"/>
<text text-anchor="middle" x="1646" y="-8.5" font-family="Helvetica,sans-Serif" font-size="10.00">source/main/gui/panels/GUI_SimUtils.cpp</text>
</a>
</g>
<!-- Node1&#45;&gt;Node9 -->
<g id="edge16" class="edge"><title>Node1&#45;&gt;Node9</title>
<path fill="none" stroke="midnightblue" d="M1646,-48.1906C1646,-39.1684 1646,-28.9941 1646,-21.5707"/>
<polygon fill="midnightblue" stroke="midnightblue" points="1642.5,-48.3619 1646,-58.3619 1649.5,-48.3619 1642.5,-48.3619"/>
</g>
<!-- Node10 -->
<g id="node19" class="node"><title>Node10</title>
<a xlink:href="_truck_h_u_d_8cpp.html" target="_top" xlink:title="source/main/gui/TruckHUD.cpp">
<polygon fill="white" stroke="black" points="1763.5,-0.5 1763.5,-21.5 1918.5,-21.5 1918.5,-0.5 1763.5,-0.5"/>
<text text-anchor="middle" x="1841" y="-8.5" font-family="Helvetica,sans-Serif" font-size="10.00">source/main/gui/TruckHUD.cpp</text>
</a>
</g>
<!-- Node1&#45;&gt;Node10 -->
<g id="edge18" class="edge"><title>Node1&#45;&gt;Node10</title>
<path fill="none" stroke="midnightblue" d="M1691.23,-55.5464C1726.07,-45.1857 1773.53,-31.0668 1805.62,-21.5231"/>
<polygon fill="midnightblue" stroke="midnightblue" points="1689.9,-52.2909 1681.31,-58.4966 1691.9,-59.0004 1689.9,-52.2909"/>
</g>
<!-- Node11 -->
<g id="node21" class="node"><title>Node11</title>
<a xlink:href="_beam_8cpp.html" target="_top" xlink:title="source/main/physics/Beam.cpp">
<polygon fill="white" stroke="black" points="1936,-0.5 1936,-21.5 2090,-21.5 2090,-0.5 1936,-0.5"/>
<text text-anchor="middle" x="2013" y="-8.5" font-family="Helvetica,sans-Serif" font-size="10.00">source/main/physics/Beam.cpp</text>
</a>
</g>
<!-- Node1&#45;&gt;Node11 -->
<g id="edge20" class="edge"><title>Node1&#45;&gt;Node11</title>
<path fill="none" stroke="midnightblue" d="M1722.42,-56.9234C1788.58,-46.4675 1883.3,-31.4969 1946.41,-21.5231"/>
<polygon fill="midnightblue" stroke="midnightblue" points="1721.79,-53.4785 1712.46,-58.4966 1722.88,-60.3926 1721.79,-53.4785"/>
</g>
<!-- Node12 -->
<g id="node23" class="node"><title>Node12</title>
<a xlink:href="_beam_factory_8cpp.html" target="_top" xlink:title="source/main/physics/BeamFactory.cpp">
<polygon fill="white" stroke="black" points="2107.5,-0.5 2107.5,-21.5 2294.5,-21.5 2294.5,-0.5 2107.5,-0.5"/>
<text text-anchor="middle" x="2201" y="-8.5" font-family="Helvetica,sans-Serif" font-size="10.00">source/main/physics/BeamFactory.cpp</text>
</a>
</g>
<!-- Node1&#45;&gt;Node12 -->
<g id="edge22" class="edge"><title>Node1&#45;&gt;Node12</title>
<path fill="none" stroke="midnightblue" d="M1747.24,-58.6145C1839.05,-49.1677 1978.12,-34.789 2099,-22 2101.75,-21.7095 2104.53,-21.4139 2107.35,-21.1149"/>
<polygon fill="midnightblue" stroke="midnightblue" points="1746.71,-55.1508 1737.12,-59.6558 1747.42,-62.1141 1746.71,-55.1508"/>
</g>
<!-- Node13 -->
<g id="node25" class="node"><title>Node13</title>
<a xlink:href="_beam_forces_euler_8cpp.html" target="_top" xlink:title="source/main/physics/BeamForcesEuler.cpp">
<polygon fill="white" stroke="black" points="2312,-0.5 2312,-21.5 2518,-21.5 2518,-0.5 2312,-0.5"/>
<text text-anchor="middle" x="2415" y="-8.5" font-family="Helvetica,sans-Serif" font-size="10.00">source/main/physics/BeamForcesEuler.cpp</text>
</a>
</g>
<!-- Node1&#45;&gt;Node13 -->
<g id="edge24" class="edge"><title>Node1&#45;&gt;Node13</title>
<path fill="none" stroke="midnightblue" d="M1747.46,-62.5781C1876.59,-54.2129 2106.5,-38.6754 2303,-22 2305.92,-21.7522 2308.88,-21.4957 2311.87,-21.2323"/>
<polygon fill="midnightblue" stroke="midnightblue" points="1746.95,-59.1039 1737.2,-63.2419 1747.4,-66.0893 1746.95,-59.1039"/>
</g>
<!-- Node14 -->
<g id="node27" class="node"><title>Node14</title>
<a xlink:href="_rig_spawner_8cpp.html" target="_top" xlink:title="Vehicle spawning logic.">
<polygon fill="white" stroke="black" points="2536,-0.5 2536,-21.5 2774,-21.5 2774,-0.5 2536,-0.5"/>
<text text-anchor="middle" x="2655" y="-8.5" font-family="Helvetica,sans-Serif" font-size="10.00">source/main/physics/input_output/RigSpawner.cpp</text>
</a>
</g>
<!-- Node1&#45;&gt;Node14 -->
<g id="edge26" class="edge"><title>Node1&#45;&gt;Node14</title>
<path fill="none" stroke="midnightblue" d="M1747.13,-64.6727C1910.99,-57.4204 2244.69,-41.6555 2527,-22 2529.89,-21.7986 2532.82,-21.5893 2535.78,-21.3734"/>
<polygon fill="midnightblue" stroke="midnightblue" points="1746.89,-61.1794 1737.06,-65.117 1747.2,-68.1726 1746.89,-61.1794"/>
</g>
<!-- Node15 -->
<g id="node29" class="node"><title>Node15</title>
<a xlink:href="_cache_system_8cpp.html" target="_top" xlink:title="source/main/resources/CacheSystem.cpp">
<polygon fill="white" stroke="black" points="2792,-0.5 2792,-21.5 2992,-21.5 2992,-0.5 2792,-0.5"/>
<text text-anchor="middle" x="2892" y="-8.5" font-family="Helvetica,sans-Serif" font-size="10.00">source/main/resources/CacheSystem.cpp</text>
</a>
</g>
<!-- Node1&#45;&gt;Node15 -->
<g id="edge28" class="edge"><title>Node1&#45;&gt;Node15</title>
<path fill="none" stroke="midnightblue" d="M1747.24,-66.828C1946.01,-62.1183 2401.17,-49.1345 2783,-22 2785.94,-21.791 2788.92,-21.567 2791.94,-21.3306"/>
<polygon fill="midnightblue" stroke="midnightblue" points="1747.03,-63.332 1737.11,-67.0662 1747.19,-70.3301 1747.03,-63.332"/>
</g>
<!-- Node16 -->
<g id="node31" class="node"><title>Node16</title>
<a xlink:href="_game_script_8cpp.html" target="_top" xlink:title="source/main/scripting/GameScript.cpp">
<polygon fill="white" stroke="black" points="3009.5,-0.5 3009.5,-21.5 3192.5,-21.5 3192.5,-0.5 3009.5,-0.5"/>
<text text-anchor="middle" x="3101" y="-8.5" font-family="Helvetica,sans-Serif" font-size="10.00">source/main/scripting/GameScript.cpp</text>
</a>
</g>
<!-- Node1&#45;&gt;Node16 -->
<g id="edge30" class="edge"><title>Node1&#45;&gt;Node16</title>
<path fill="none" stroke="midnightblue" d="M1747.48,-68.0746C1973.11,-65.4484 2533.36,-55.7829 3001,-22 3003.79,-21.7986 3006.62,-21.5795 3009.47,-21.3455"/>
<polygon fill="midnightblue" stroke="midnightblue" points="1747.28,-64.5766 1737.32,-68.1907 1747.36,-71.5762 1747.28,-64.5766"/>
</g>
</g>
</svg>
        <g id="navigator" transform="translate(0 0)" fill="#404254">
                <rect fill="#f2f5e9" fill-opacity="0.5" stroke="#606060" stroke-width=".5" x="0" y="0" width="60" height="60"/>
                <use id="zoomplus" xlink:href="#zoomPlus" x="17" y="9" onmousedown="handleZoom(evt,'in')"/>
                <use id="zoomminus" xlink:href="#zoomMin" x="42" y="9" onmousedown="handleZoom(evt,'out')"/>
                <use id="reset" xlink:href="#resetDef" x="30" y="36" onmousedown="handleReset()"/>
                <g id="arrowUp" xlink:href="#dirArrow" transform="translate(30 24)" onmousedown="handlePan(0,-1)">
                  <use xlink:href="#rim" fill="#404040">
                        <set attributeName="fill" to="#808080" begin="arrowUp.mouseover" end="arrowUp.mouseout"/>
                  </use>
                  <path fill="none" stroke="white" stroke-width="1.5" d="M0,-3.0v7 M-2.5,-0.5L0,-3.0L2.5,-0.5"/>
                </g>
                <g id="arrowRight" xlink:href="#dirArrow" transform="rotate(90) translate(36 -43)" onmousedown="handlePan(1,0)">
                  <use xlink:href="#rim" fill="#404040">
                        <set attributeName="fill" to="#808080" begin="arrowRight.mouseover" end="arrowRight.mouseout"/>
                  </use>
                  <path fill="none" stroke="white" stroke-width="1.5" d="M0,-3.0v7 M-2.5,-0.5L0,-3.0L2.5,-0.5"/>
                </g>
                <g id="arrowDown" xlink:href="#dirArrow" transform="rotate(180) translate(-30 -48)" onmousedown="handlePan(0,1)">
                  <use xlink:href="#rim" fill="#404040">
                        <set attributeName="fill" to="#808080" begin="arrowDown.mouseover" end="arrowDown.mouseout"/>
                  </use>
                  <path fill="none" stroke="white" stroke-width="1.5" d="M0,-3.0v7 M-2.5,-0.5L0,-3.0L2.5,-0.5"/>
                </g>
                <g id="arrowLeft" xlink:href="#dirArrow" transform="rotate(270) translate(-36 17)" onmousedown="handlePan(-1,0)">
                  <use xlink:href="#rim" fill="#404040">
                        <set attributeName="fill" to="#808080" begin="arrowLeft.mouseover" end="arrowLeft.mouseout"/>
                  </use>
                  <path fill="none" stroke="white" stroke-width="1.5" d="M0,-3.0v7 M-2.5,-0.5L0,-3.0L2.5,-0.5"/>
                </g>
        </g>
</svg>
