<?xml version="1.0" encoding="UTF-8" standalone="no"?>
<!DOCTYPE svg PUBLIC "-//W3C//DTD SVG 1.1//EN"
 "http://www.w3.org/Graphics/SVG/1.1/DTD/svg11.dtd">
<!-- Generated by graphviz version 2.26.3 (20100126.1600)
 -->
<!-- Title: source/main/resources/CacheSystem.h Pages: 1 -->
<!--zoomable 116 -->
<svg id="main" version="1.1" xmlns="http://www.w3.org/2000/svg" xmlns:xlink="http://www.w3.org/1999/xlink" xml:space="preserve" onload="init(evt)">
<style type="text/css"><![CDATA[
.edge:hover path { stroke: red; }
.edge:hover polygon { stroke: red; fill: red; }
]]></style>
<script type="text/javascript"><![CDATA[
var edges = document.getElementsByTagName('g');
if (edges && edges.length) {
  for (var i=0;i<edges.length;i++) {
    if (edges[i].id.substr(0,4)=='edge') {
      edges[i].setAttribute('class','edge');
    }
  }
}
]]></script>
        <defs>
                <circle id="rim" cx="0" cy="0" r="7"/>
                <circle id="rim2" cx="0" cy="0" r="3.5"/>
                <g id="zoomPlus">
                        <use xlink:href="#rim" fill="#404040">
                                <set attributeName="fill" to="#808080" begin="zoomplus.mouseover" end="zoomplus.mouseout"/>
                        </use>
                        <path d="M-4,0h8M0,-4v8" fill="none" stroke="white" stroke-width="1.5" pointer-events="none"/>
                </g>
                <g id="zoomMin">
                        <use xlink:href="#rim" fill="#404040">
                                <set attributeName="fill" to="#808080" begin="zoomminus.mouseover" end="zoomminus.mouseout"/>
                        </use>
                        <path d="M-4,0h8" fill="none" stroke="white" stroke-width="1.5" pointer-events="none"/>
                </g>
                <g id="dirArrow">
                        <path fill="none" stroke="white" stroke-width="1.5" d="M0,-3.0v7 M-2.5,-0.5L0,-3.0L2.5,-0.5"/>
                </g>
               <g id="resetDef">
                       <use xlink:href="#rim2" fill="#404040">
                               <set attributeName="fill" to="#808080" begin="reset.mouseover" end="reset.mouseout"/>
                       </use>
               </g>
        </defs>

<script type="text/javascript">
var viewWidth = 1484;
var viewHeight = 116;
var sectionId = 'dynsection-1';
</script>
<script xlink:href="svgpan.js"/>
<svg id="graph" class="graph">
<g id="viewport">
<title>source/main/resources/CacheSystem.h</title>
<polygon fill="white" stroke="white" points="-4,5 -4,-112 1481,-112 1481,5 -4,5"/>
<!-- Node1 -->
<g id="node1" class="node"><title>Node1</title>
<polygon fill="#bfbfbf" stroke="black" points="691,-73 691,-107 807,-107 807,-73 691,-73"/>
<text text-anchor="start" x="699" y="-94" font-family="Helvetica,sans-Serif" font-size="10.00">source/main/resources</text>
<text text-anchor="middle" x="749" y="-81" font-family="Helvetica,sans-Serif" font-size="10.00">/CacheSystem.h</text>
</g>
<!-- Node2 -->
<g id="node3" class="node"><title>Node2</title>
<a xlink:href="_application_8cpp.html" target="_top" xlink:title="source/main/Application.cpp">
<polygon fill="white" stroke="black" points="0,-7.5 0,-28.5 140,-28.5 140,-7.5 0,-7.5"/>
<text text-anchor="middle" x="70" y="-15.5" font-family="Helvetica,sans-Serif" font-size="10.00">source/main/Application.cpp</text>
</a>
</g>
<!-- Node1&#45;&gt;Node2 -->
<g id="edge2" class="edge"><title>Node1&#45;&gt;Node2</title>
<path fill="none" stroke="midnightblue" d="M680.64,-86.8399C568.883,-81.0045 340.336,-66.2676 149,-36 136.773,-34.0658 123.617,-31.3345 111.616,-28.5825"/>
<polygon fill="midnightblue" stroke="midnightblue" points="680.594,-90.3421 690.76,-87.3606 680.953,-83.3513 680.594,-90.3421"/>
</g>
<!-- Node3 -->
<g id="node5" class="node"><title>Node3</title>
<a xlink:href="_ro_r_frame_listener_8cpp.html" target="_top" xlink:title="source/main/gameplay\l/RoRFrameListener.cpp">
<polygon fill="white" stroke="black" points="157.5,-1 157.5,-35 278.5,-35 278.5,-1 157.5,-1"/>
<text text-anchor="start" x="165.5" y="-22" font-family="Helvetica,sans-Serif" font-size="10.00">source/main/gameplay</text>
<text text-anchor="middle" x="218" y="-9" font-family="Helvetica,sans-Serif" font-size="10.00">/RoRFrameListener.cpp</text>
</a>
</g>
<!-- Node1&#45;&gt;Node3 -->
<g id="edge4" class="edge"><title>Node1&#45;&gt;Node3</title>
<path fill="none" stroke="midnightblue" d="M680.861,-85.0128C590.34,-77.7099 425.702,-62.067 287,-36 284.323,-35.4969 281.597,-34.9474 278.849,-34.3631"/>
<polygon fill="midnightblue" stroke="midnightblue" points="680.744,-88.5145 690.991,-85.8201 681.3,-81.5366 680.744,-88.5145"/>
</g>
<!-- Node4 -->
<g id="node7" class="node"><title>Node4</title>
<a xlink:href="_skin_8cpp.html" target="_top" xlink:title="source/main/gameplay\l/Skin.cpp">
<polygon fill="white" stroke="black" points="295.5,-1 295.5,-35 410.5,-35 410.5,-1 295.5,-1"/>
<text text-anchor="start" x="303.5" y="-22" font-family="Helvetica,sans-Serif" font-size="10.00">source/main/gameplay</text>
<text text-anchor="middle" x="353" y="-9" font-family="Helvetica,sans-Serif" font-size="10.00">/Skin.cpp</text>
</a>
</g>
<!-- Node1&#45;&gt;Node4 -->
<g id="edge6" class="edge"><title>Node1&#45;&gt;Node4</title>
<path fill="none" stroke="midnightblue" d="M680.82,-80.9571C613.816,-71.5742 508.838,-55.5455 419,-36 416.215,-35.394 413.372,-34.7435 410.506,-34.062"/>
<polygon fill="midnightblue" stroke="midnightblue" points="680.445,-84.4385 690.831,-82.3491 681.409,-77.5052 680.445,-84.4385"/>
</g>
<!-- Node5 -->
<g id="node9" class="node"><title>Node5</title>
<a xlink:href="_g_u_i___main_selector_8cpp.html" target="_top" xlink:title="source/main/gui/panels\l/GUI_MainSelector.cpp">
<polygon fill="white" stroke="black" points="427.5,-1 427.5,-35 546.5,-35 546.5,-1 427.5,-1"/>
<text text-anchor="start" x="435.5" y="-22" font-family="Helvetica,sans-Serif" font-size="10.00">source/main/gui/panels</text>
<text text-anchor="middle" x="487" y="-9" font-family="Helvetica,sans-Serif" font-size="10.00">/GUI_MainSelector.cpp</text>
</a>
</g>
<!-- Node1&#45;&gt;Node5 -->
<g id="edge8" class="edge"><title>Node1&#45;&gt;Node5</title>
<path fill="none" stroke="midnightblue" d="M681.081,-71.3354C639.506,-59.9099 586.794,-45.4243 546.8,-34.4336"/>
<polygon fill="midnightblue" stroke="midnightblue" points="680.284,-74.7458 690.854,-74.0209 682.139,-67.9961 680.284,-74.7458"/>
</g>
<!-- Node6 -->
<g id="node11" class="node"><title>Node6</title>
<a xlink:href="_main_thread_8cpp.html" target="_top" xlink:title="source/main/main_sim\l/MainThread.cpp">
<polygon fill="white" stroke="black" points="563.5,-1 563.5,-35 678.5,-35 678.5,-1 563.5,-1"/>
<text text-anchor="start" x="571.5" y="-22" font-family="Helvetica,sans-Serif" font-size="10.00">source/main/main_sim</text>
<text text-anchor="middle" x="621" y="-9" font-family="Helvetica,sans-Serif" font-size="10.00">/MainThread.cpp</text>
</a>
</g>
<!-- Node1&#45;&gt;Node6 -->
<g id="edge10" class="edge"><title>Node1&#45;&gt;Node6</title>
<path fill="none" stroke="midnightblue" d="M709.782,-67.9398C691.067,-57.4125 669.008,-45.0044 651.56,-35.19"/>
<polygon fill="midnightblue" stroke="midnightblue" points="708.234,-71.0849 718.666,-72.937 711.666,-64.9838 708.234,-71.0849"/>
</g>
<!-- Node7 -->
<g id="node13" class="node"><title>Node7</title>
<a xlink:href="_beam_8cpp.html" target="_top" xlink:title="source/main/physics\l/Beam.cpp">
<polygon fill="white" stroke="black" points="695.5,-1 695.5,-35 802.5,-35 802.5,-1 695.5,-1"/>
<text text-anchor="start" x="703.5" y="-22" font-family="Helvetica,sans-Serif" font-size="10.00">source/main/physics</text>
<text text-anchor="middle" x="749" y="-9" font-family="Helvetica,sans-Serif" font-size="10.00">/Beam.cpp</text>
</a>
</g>
<!-- Node1&#45;&gt;Node7 -->
<g id="edge12" class="edge"><title>Node1&#45;&gt;Node7</title>
<path fill="none" stroke="midnightblue" d="M749,-62.7193C749,-53.572 749,-43.6255 749,-35.4407"/>
<polygon fill="midnightblue" stroke="midnightblue" points="745.5,-62.937 749,-72.937 752.5,-62.937 745.5,-62.937"/>
</g>
<!-- Node8 -->
<g id="node15" class="node"><title>Node8</title>
<a xlink:href="_beam_factory_8cpp.html" target="_top" xlink:title="source/main/physics\l/BeamFactory.cpp">
<polygon fill="white" stroke="black" points="819.5,-1 819.5,-35 926.5,-35 926.5,-1 819.5,-1"/>
<text text-anchor="start" x="827.5" y="-22" font-family="Helvetica,sans-Serif" font-size="10.00">source/main/physics</text>
<text text-anchor="middle" x="873" y="-9" font-family="Helvetica,sans-Serif" font-size="10.00">/BeamFactory.cpp</text>
</a>
</g>
<!-- Node1&#45;&gt;Node8 -->
<g id="edge14" class="edge"><title>Node1&#45;&gt;Node8</title>
<path fill="none" stroke="midnightblue" d="M787.488,-67.6522C805.511,-57.1871 826.646,-44.9152 843.395,-35.19"/>
<polygon fill="midnightblue" stroke="midnightblue" points="785.277,-64.8888 778.386,-72.937 788.792,-70.9424 785.277,-64.8888"/>
</g>
<!-- Node9 -->
<g id="node17" class="node"><title>Node9</title>
<a xlink:href="_cache_system_8cpp.html" target="_top" xlink:title="source/main/resources\l/CacheSystem.cpp">
<polygon fill="white" stroke="black" points="944,-1 944,-35 1060,-35 1060,-1 944,-1"/>
<text text-anchor="start" x="952" y="-22" font-family="Helvetica,sans-Serif" font-size="10.00">source/main/resources</text>
<text text-anchor="middle" x="1002" y="-9" font-family="Helvetica,sans-Serif" font-size="10.00">/CacheSystem.cpp</text>
</a>
</g>
<!-- Node1&#45;&gt;Node9 -->
<g id="edge16" class="edge"><title>Node1&#45;&gt;Node9</title>
<path fill="none" stroke="midnightblue" d="M816.89,-70.6796C856.504,-59.406 905.963,-45.3306 943.789,-34.5659"/>
<polygon fill="midnightblue" stroke="midnightblue" points="815.703,-67.3782 807.043,-73.4817 817.619,-74.1108 815.703,-67.3782"/>
</g>
<!-- Node10 -->
<g id="node19" class="node"><title>Node10</title>
<a xlink:href="_content_manager_8cpp.html" target="_top" xlink:title="source/main/resources\l/ContentManager.cpp">
<polygon fill="white" stroke="black" points="1078,-1 1078,-35 1194,-35 1194,-1 1078,-1"/>
<text text-anchor="start" x="1086" y="-22" font-family="Helvetica,sans-Serif" font-size="10.00">source/main/resources</text>
<text text-anchor="middle" x="1136" y="-9" font-family="Helvetica,sans-Serif" font-size="10.00">/ContentManager.cpp</text>
</a>
</g>
<!-- Node1&#45;&gt;Node10 -->
<g id="edge18" class="edge"><title>Node1&#45;&gt;Node10</title>
<path fill="none" stroke="midnightblue" d="M817.253,-80.4091C882.288,-70.8166 982.786,-54.8104 1069,-36 1071.94,-35.3581 1074.95,-34.67 1077.98,-33.9507"/>
<polygon fill="midnightblue" stroke="midnightblue" points="816.514,-76.9799 807.127,-81.893 817.529,-83.9059 816.514,-76.9799"/>
</g>
<!-- Node11 -->
<g id="node21" class="node"><title>Node11</title>
<a xlink:href="_rig_editor___main_8cpp.html" target="_top" xlink:title="source/main/rig_editor\l/RigEditor_Main.cpp">
<polygon fill="white" stroke="black" points="1211.5,-1 1211.5,-35 1324.5,-35 1324.5,-1 1211.5,-1"/>
<text text-anchor="start" x="1219.5" y="-22" font-family="Helvetica,sans-Serif" font-size="10.00">source/main/rig_editor</text>
<text text-anchor="middle" x="1268" y="-9" font-family="Helvetica,sans-Serif" font-size="10.00">/RigEditor_Main.cpp</text>
</a>
</g>
<!-- Node1&#45;&gt;Node11 -->
<g id="edge20" class="edge"><title>Node1&#45;&gt;Node11</title>
<path fill="none" stroke="midnightblue" d="M817.124,-85.1401C906.371,-78.0349 1067.45,-62.6692 1203,-36 1205.76,-35.4575 1208.57,-34.8585 1211.4,-34.2184"/>
<polygon fill="midnightblue" stroke="midnightblue" points="816.826,-81.6526 807.131,-85.9249 817.374,-88.6311 816.826,-81.6526"/>
</g>
<!-- Node12 -->
<g id="node23" class="node"><title>Node12</title>
<a xlink:href="_terrain_object_manager_8cpp.html" target="_top" xlink:title="source/main/terrain\l/TerrainObjectManager.cpp">
<polygon fill="white" stroke="black" points="1342,-1 1342,-35 1476,-35 1476,-1 1342,-1"/>
<text text-anchor="start" x="1350" y="-22" font-family="Helvetica,sans-Serif" font-size="10.00">source/main/terrain</text>
<text text-anchor="middle" x="1409" y="-9" font-family="Helvetica,sans-Serif" font-size="10.00">/TerrainObjectManager.cpp</text>
</a>
</g>
<!-- Node1&#45;&gt;Node12 -->
<g id="edge22" class="edge"><title>Node1&#45;&gt;Node12</title>
<path fill="none" stroke="midnightblue" d="M817.615,-86.7818C927.156,-80.9438 1148.05,-66.2989 1333,-36 1335.94,-35.5177 1338.94,-34.9854 1341.97,-34.4152"/>
<polygon fill="midnightblue" stroke="midnightblue" points="817.17,-83.3003 807.367,-87.3196 817.536,-90.2907 817.17,-83.3003"/>
</g>
</g>
</svg>
        <g id="navigator" transform="translate(0 0)" fill="#404254">
                <rect fill="#f2f5e9" fill-opacity="0.5" stroke="#606060" stroke-width=".5" x="0" y="0" width="60" height="60"/>
                <use id="zoomplus" xlink:href="#zoomPlus" x="17" y="9" onmousedown="handleZoom(evt,'in')"/>
                <use id="zoomminus" xlink:href="#zoomMin" x="42" y="9" onmousedown="handleZoom(evt,'out')"/>
                <use id="reset" xlink:href="#resetDef" x="30" y="36" onmousedown="handleReset()"/>
                <g id="arrowUp" xlink:href="#dirArrow" transform="translate(30 24)" onmousedown="handlePan(0,-1)">
                  <use xlink:href="#rim" fill="#404040">
                        <set attributeName="fill" to="#808080" begin="arrowUp.mouseover" end="arrowUp.mouseout"/>
                  </use>
                  <path fill="none" stroke="white" stroke-width="1.5" d="M0,-3.0v7 M-2.5,-0.5L0,-3.0L2.5,-0.5"/>
                </g>
                <g id="arrowRight" xlink:href="#dirArrow" transform="rotate(90) translate(36 -43)" onmousedown="handlePan(1,0)">
                  <use xlink:href="#rim" fill="#404040">
                        <set attributeName="fill" to="#808080" begin="arrowRight.mouseover" end="arrowRight.mouseout"/>
                  </use>
                  <path fill="none" stroke="white" stroke-width="1.5" d="M0,-3.0v7 M-2.5,-0.5L0,-3.0L2.5,-0.5"/>
                </g>
                <g id="arrowDown" xlink:href="#dirArrow" transform="rotate(180) translate(-30 -48)" onmousedown="handlePan(0,1)">
                  <use xlink:href="#rim" fill="#404040">
                        <set attributeName="fill" to="#808080" begin="arrowDown.mouseover" end="arrowDown.mouseout"/>
                  </use>
                  <path fill="none" stroke="white" stroke-width="1.5" d="M0,-3.0v7 M-2.5,-0.5L0,-3.0L2.5,-0.5"/>
                </g>
                <g id="arrowLeft" xlink:href="#dirArrow" transform="rotate(270) translate(-36 17)" onmousedown="handlePan(-1,0)">
                  <use xlink:href="#rim" fill="#404040">
                        <set attributeName="fill" to="#808080" begin="arrowLeft.mouseover" end="arrowLeft.mouseout"/>
                  </use>
                  <path fill="none" stroke="white" stroke-width="1.5" d="M0,-3.0v7 M-2.5,-0.5L0,-3.0L2.5,-0.5"/>
                </g>
        </g>
        <svg viewBox="0 0 15 15" width="100%" height="30px" preserveAspectRatio="xMaxYMin meet">
         <g id="arrow_out" transform="scale(0.3 0.3)">
          <a xlink:href="_cache_system_8h__dep__incl_org.svg" target="_base">
           <rect id="button" ry="5" rx="5" y="6" x="6" height="38" width="38"
                fill="#f2f5e9" fill-opacity="0.5" stroke="#606060" stroke-width="1.0"/>
           <path id="arrow"
             d="M 11.500037,31.436501 C 11.940474,20.09759 22.043105,11.32322 32.158766,21.979434 L 37.068811,17.246167 C 37.068811,17.246167 37.088388,32 37.088388,32 L 22.160133,31.978069 C 22.160133,31.978069 26.997745,27.140456 26.997745,27.140456 C 18.528582,18.264221 13.291696,25.230495 11.500037,31.436501 z"
             style="fill:#404040;"/>
          </a>
         </g>
        </svg>
</svg>
