<?xml version="1.0" encoding="UTF-8" standalone="no"?>
<!DOCTYPE svg PUBLIC "-//W3C//DTD SVG 1.1//EN"
 "http://www.w3.org/Graphics/SVG/1.1/DTD/svg11.dtd">
<!-- Generated by graphviz version 2.26.3 (20100126.1600)
 -->
<!-- Title: G Pages: 1 -->
<!--zoomable 146 -->
<svg id="main" version="1.1" xmlns="http://www.w3.org/2000/svg" xmlns:xlink="http://www.w3.org/1999/xlink" xml:space="preserve" onload="init(evt)">
        <defs>
                <circle id="rim" cx="0" cy="0" r="7"/>
                <circle id="rim2" cx="0" cy="0" r="3.5"/>
                <g id="zoomPlus">
                        <use xlink:href="#rim" fill="#404040">
                                <set attributeName="fill" to="#808080" begin="zoomplus.mouseover" end="zoomplus.mouseout"/>
                        </use>
                        <path d="M-4,0h8M0,-4v8" fill="none" stroke="white" stroke-width="1.5" pointer-events="none"/>
                </g>
                <g id="zoomMin">
                        <use xlink:href="#rim" fill="#404040">
                                <set attributeName="fill" to="#808080" begin="zoomminus.mouseover" end="zoomminus.mouseout"/>
                        </use>
                        <path d="M-4,0h8" fill="none" stroke="white" stroke-width="1.5" pointer-events="none"/>
                </g>
                <g id="dirArrow">
                        <path fill="none" stroke="white" stroke-width="1.5" d="M0,-3.0v7 M-2.5,-0.5L0,-3.0L2.5,-0.5"/>
                </g>
               <g id="resetDef">
                       <use xlink:href="#rim2" fill="#404040">
                               <set attributeName="fill" to="#808080" begin="reset.mouseover" end="reset.mouseout"/>
                       </use>
               </g>
        </defs>

<script type="text/javascript">
var viewWidth = 1010;
var viewHeight = 146;
var sectionId = 'dynsection-0';
</script>
<script xlink:href="svgpan.js"/>
<svg id="graph" class="graph">
<g id="viewport">
<title>G</title>
<polygon fill="white" stroke="white" points="-4,5 -4,-142 1007,-142 1007,5 -4,5"/>
<!-- Node1 -->
<g id="node1" class="node"><title>Node1</title>
<polygon fill="#bfbfbf" stroke="black" points="312,-116.5 312,-137.5 494,-137.5 494,-116.5 312,-116.5"/>
<text text-anchor="middle" x="403" y="-124.5" font-family="Helvetica,sans-Serif" font-size="10.00">source/OgreCanvas/CanvasTexture.h</text>
</g>
<!-- Node2 -->
<g id="node3" class="node"><title>Node2</title>
<a xlink:href="_dynamic_texture_8h.html" target="_top" xlink:title="DynamicTexture.h">
<polygon fill="white" stroke="black" points="149.5,-58.5 149.5,-79.5 246.5,-79.5 246.5,-58.5 149.5,-58.5"/>
<text text-anchor="middle" x="198" y="-66.5" font-family="Helvetica,sans-Serif" font-size="10.00">DynamicTexture.h</text>
</a>
</g>
<!-- Node1&#45;&gt;Node2 -->
<g id="edge2" class="edge"><title>Node1&#45;&gt;Node2</title>
<path fill="none" stroke="midnightblue" d="M365.876,-116.497C332.021,-106.918 281.836,-92.7196 245.156,-82.3418"/>
<polygon fill="midnightblue" stroke="midnightblue" points="245.769,-78.8777 235.194,-79.5231 243.863,-85.6133 245.769,-78.8777"/>
</g>
<!-- Node7 -->
<g id="node13" class="node"><title>Node7</title>
<a xlink:href="_canvas_context_8h.html" target="_top" xlink:title="CanvasContext.h">
<polygon fill="white" stroke="black" points="561.5,-58.5 561.5,-79.5 654.5,-79.5 654.5,-58.5 561.5,-58.5"/>
<text text-anchor="middle" x="608" y="-66.5" font-family="Helvetica,sans-Serif" font-size="10.00">CanvasContext.h</text>
</a>
</g>
<!-- Node1&#45;&gt;Node7 -->
<g id="edge12" class="edge"><title>Node1&#45;&gt;Node7</title>
<path fill="none" stroke="midnightblue" d="M440.124,-116.497C473.979,-106.918 524.164,-92.7196 560.844,-82.3418"/>
<polygon fill="midnightblue" stroke="midnightblue" points="562.137,-85.6133 570.806,-79.5231 560.231,-78.8777 562.137,-85.6133"/>
</g>
<!-- Node3 -->
<g id="node5" class="node"><title>Node3</title>
<polygon fill="white" stroke="#bfbfbf" points="-0.5,-0.5 -0.5,-21.5 40.5,-21.5 40.5,-0.5 -0.5,-0.5"/>
<text text-anchor="middle" x="20" y="-8.5" font-family="Helvetica,sans-Serif" font-size="10.00">string</text>
</g>
<!-- Node2&#45;&gt;Node3 -->
<g id="edge4" class="edge"><title>Node2&#45;&gt;Node3</title>
<path fill="none" stroke="midnightblue" d="M162.591,-58.4519C134.355,-49.903 93.6121,-37.2617 50.1496,-22.29"/>
<polygon fill="midnightblue" stroke="midnightblue" points="51.1371,-18.928 40.5423,-18.9574 48.843,-25.5414 51.1371,-18.928"/>
</g>
<!-- Node4 -->
<g id="node7" class="node"><title>Node4</title>
<polygon fill="white" stroke="#bfbfbf" points="57.5,-0.5 57.5,-21.5 136.5,-21.5 136.5,-0.5 57.5,-0.5"/>
<text text-anchor="middle" x="97" y="-8.5" font-family="Helvetica,sans-Serif" font-size="10.00">OgreTexture.h</text>
</g>
<!-- Node2&#45;&gt;Node4 -->
<g id="edge6" class="edge"><title>Node2&#45;&gt;Node4</title>
<path fill="none" stroke="midnightblue" d="M179.475,-58.3619C164.099,-49.532 142.004,-36.844 124.553,-26.8224"/>
<polygon fill="midnightblue" stroke="midnightblue" points="125.822,-23.5154 115.408,-21.5707 122.336,-29.5857 125.822,-23.5154"/>
</g>
<!-- Node5 -->
<g id="node9" class="node"><title>Node5</title>
<polygon fill="white" stroke="#bfbfbf" points="154,-0.5 154,-21.5 242,-21.5 242,-0.5 154,-0.5"/>
<text text-anchor="middle" x="198" y="-8.5" font-family="Helvetica,sans-Serif" font-size="10.00">OgreResource.h</text>
</g>
<!-- Node2&#45;&gt;Node5 -->
<g id="edge8" class="edge"><title>Node2&#45;&gt;Node5</title>
<path fill="none" stroke="midnightblue" d="M198,-58.3619C198,-50.9219 198,-40.7427 198,-31.7276"/>
<polygon fill="midnightblue" stroke="midnightblue" points="201.5,-31.5706 198,-21.5707 194.5,-31.5707 201.5,-31.5706"/>
</g>
<!-- Node6 -->
<g id="node11" class="node"><title>Node6</title>
<a xlink:href="_canvas_prerequisites_8h.html" target="_top" xlink:title="CanvasPrerequisites.h">
<polygon fill="white" stroke="black" points="260,-0.5 260,-21.5 376,-21.5 376,-0.5 260,-0.5"/>
<text text-anchor="middle" x="318" y="-8.5" font-family="Helvetica,sans-Serif" font-size="10.00">CanvasPrerequisites.h</text>
</a>
</g>
<!-- Node2&#45;&gt;Node6 -->
<g id="edge10" class="edge"><title>Node2&#45;&gt;Node6</title>
<path fill="none" stroke="midnightblue" d="M219.731,-58.4966C238.474,-49.4378 265.767,-36.2462 286.836,-26.0628"/>
<polygon fill="midnightblue" stroke="midnightblue" points="288.545,-29.1242 296.025,-21.6212 285.498,-22.8217 288.545,-29.1242"/>
</g>
<!-- Node7&#45;&gt;Node6 -->
<g id="edge16" class="edge"><title>Node7&#45;&gt;Node6</title>
<path fill="none" stroke="midnightblue" d="M561.406,-59.6813C512.344,-49.8689 434.822,-34.3645 380.48,-23.4961"/>
<polygon fill="midnightblue" stroke="midnightblue" points="381.108,-20.0523 370.615,-21.5231 379.735,-26.9163 381.108,-20.0523"/>
</g>
<!-- Node8 -->
<g id="node15" class="node"><title>Node8</title>
<polygon fill="white" stroke="#bfbfbf" points="394,-0.5 394,-21.5 440,-21.5 440,-0.5 394,-0.5"/>
<text text-anchor="middle" x="417" y="-8.5" font-family="Helvetica,sans-Serif" font-size="10.00">Ogre.h</text>
</g>
<!-- Node7&#45;&gt;Node8 -->
<g id="edge14" class="edge"><title>Node7&#45;&gt;Node8</title>
<path fill="none" stroke="midnightblue" d="M570.593,-58.4421C540.365,-49.7991 496.51,-37.0104 449.737,-22.1515"/>
<polygon fill="midnightblue" stroke="midnightblue" points="450.623,-18.7602 440.032,-19.0517 448.493,-25.4284 450.623,-18.7602"/>
</g>
<!-- Node9 -->
<g id="node18" class="node"><title>Node9</title>
<polygon fill="white" stroke="#bfbfbf" points="457.5,-0.5 457.5,-21.5 546.5,-21.5 546.5,-0.5 457.5,-0.5"/>
<text text-anchor="middle" x="502" y="-8.5" font-family="Helvetica,sans-Serif" font-size="10.00">core/SkBitmap.h</text>
</g>
<!-- Node7&#45;&gt;Node9 -->
<g id="edge18" class="edge"><title>Node7&#45;&gt;Node9</title>
<path fill="none" stroke="midnightblue" d="M588.558,-58.3619C572.196,-49.4094 548.587,-36.4908 530.157,-26.4064"/>
<polygon fill="midnightblue" stroke="midnightblue" points="531.771,-23.3004 521.319,-21.5707 528.411,-29.4412 531.771,-23.3004"/>
</g>
<!-- Node10 -->
<g id="node20" class="node"><title>Node10</title>
<polygon fill="white" stroke="#bfbfbf" points="563.5,-0.5 563.5,-21.5 652.5,-21.5 652.5,-0.5 563.5,-0.5"/>
<text text-anchor="middle" x="608" y="-8.5" font-family="Helvetica,sans-Serif" font-size="10.00">core/SkDevice.h</text>
</g>
<!-- Node7&#45;&gt;Node10 -->
<g id="edge20" class="edge"><title>Node7&#45;&gt;Node10</title>
<path fill="none" stroke="midnightblue" d="M608,-58.3619C608,-50.9219 608,-40.7427 608,-31.7276"/>
<polygon fill="midnightblue" stroke="midnightblue" points="611.5,-31.5706 608,-21.5707 604.5,-31.5707 611.5,-31.5706"/>
</g>
<!-- Node11 -->
<g id="node22" class="node"><title>Node11</title>
<polygon fill="white" stroke="#bfbfbf" points="669.5,-0.5 669.5,-21.5 750.5,-21.5 750.5,-0.5 669.5,-0.5"/>
<text text-anchor="middle" x="710" y="-8.5" font-family="Helvetica,sans-Serif" font-size="10.00">core/SkPaint.h</text>
</g>
<!-- Node7&#45;&gt;Node11 -->
<g id="edge22" class="edge"><title>Node7&#45;&gt;Node11</title>
<path fill="none" stroke="midnightblue" d="M626.708,-58.3619C642.381,-49.4502 664.964,-36.6087 682.663,-26.5447"/>
<polygon fill="midnightblue" stroke="midnightblue" points="684.447,-29.5562 691.41,-21.5707 680.987,-23.4712 684.447,-29.5562"/>
</g>
<!-- Node12 -->
<g id="node24" class="node"><title>Node12</title>
<polygon fill="white" stroke="#bfbfbf" points="768,-0.5 768,-21.5 848,-21.5 848,-0.5 768,-0.5"/>
<text text-anchor="middle" x="808" y="-8.5" font-family="Helvetica,sans-Serif" font-size="10.00">core/SkRect.h</text>
</g>
<!-- Node7&#45;&gt;Node12 -->
<g id="edge24" class="edge"><title>Node7&#45;&gt;Node12</title>
<path fill="none" stroke="midnightblue" d="M644.218,-58.4966C677.247,-48.9183 726.208,-34.7196 761.994,-24.3418"/>
<polygon fill="midnightblue" stroke="midnightblue" points="763.084,-27.6699 771.714,-21.5231 761.134,-20.9469 763.084,-27.6699"/>
</g>
<!-- Node13 -->
<g id="node26" class="node"><title>Node13</title>
<polygon fill="white" stroke="#bfbfbf" points="865.5,-0.5 865.5,-21.5 944.5,-21.5 944.5,-0.5 865.5,-0.5"/>
<text text-anchor="middle" x="905" y="-8.5" font-family="Helvetica,sans-Serif" font-size="10.00">core/SkPath.h</text>
</g>
<!-- Node7&#45;&gt;Node13 -->
<g id="edge26" class="edge"><title>Node7&#45;&gt;Node13</title>
<path fill="none" stroke="midnightblue" d="M654.917,-60.7034C702.899,-52.0936 779.84,-37.9436 855.319,-22.3012"/>
<polygon fill="midnightblue" stroke="midnightblue" points="856.398,-25.6516 865.474,-20.1856 854.97,-18.7988 856.398,-25.6516"/>
</g>
<!-- Node14 -->
<g id="node28" class="node"><title>Node14</title>
<polygon fill="white" stroke="#bfbfbf" points="961.5,-0.5 961.5,-21.5 1002.5,-21.5 1002.5,-0.5 961.5,-0.5"/>
<text text-anchor="middle" x="982" y="-8.5" font-family="Helvetica,sans-Serif" font-size="10.00">stack</text>
</g>
<!-- Node7&#45;&gt;Node14 -->
<g id="edge28" class="edge"><title>Node7&#45;&gt;Node14</title>
<path fill="none" stroke="midnightblue" d="M654.678,-66.017C719.637,-61.1305 840.907,-49.3428 951.309,-22.0246"/>
<polygon fill="midnightblue" stroke="midnightblue" points="952.434,-25.3502 961.273,-19.5084 950.721,-18.5633 952.434,-25.3502"/>
</g>
</g>
</svg>
        <g id="navigator" transform="translate(0 0)" fill="#404254">
                <rect fill="#f2f5e9" fill-opacity="0.5" stroke="#606060" stroke-width=".5" x="0" y="0" width="60" height="60"/>
                <use id="zoomplus" xlink:href="#zoomPlus" x="17" y="9" onmousedown="handleZoom(evt,'in')"/>
                <use id="zoomminus" xlink:href="#zoomMin" x="42" y="9" onmousedown="handleZoom(evt,'out')"/>
                <use id="reset" xlink:href="#resetDef" x="30" y="36" onmousedown="handleReset()"/>
                <g id="arrowUp" xlink:href="#dirArrow" transform="translate(30 24)" onmousedown="handlePan(0,-1)">
                  <use xlink:href="#rim" fill="#404040">
                        <set attributeName="fill" to="#808080" begin="arrowUp.mouseover" end="arrowUp.mouseout"/>
                  </use>
                  <path fill="none" stroke="white" stroke-width="1.5" d="M0,-3.0v7 M-2.5,-0.5L0,-3.0L2.5,-0.5"/>
                </g>
                <g id="arrowRight" xlink:href="#dirArrow" transform="rotate(90) translate(36 -43)" onmousedown="handlePan(1,0)">
                  <use xlink:href="#rim" fill="#404040">
                        <set attributeName="fill" to="#808080" begin="arrowRight.mouseover" end="arrowRight.mouseout"/>
                  </use>
                  <path fill="none" stroke="white" stroke-width="1.5" d="M0,-3.0v7 M-2.5,-0.5L0,-3.0L2.5,-0.5"/>
                </g>
                <g id="arrowDown" xlink:href="#dirArrow" transform="rotate(180) translate(-30 -48)" onmousedown="handlePan(0,1)">
                  <use xlink:href="#rim" fill="#404040">
                        <set attributeName="fill" to="#808080" begin="arrowDown.mouseover" end="arrowDown.mouseout"/>
                  </use>
                  <path fill="none" stroke="white" stroke-width="1.5" d="M0,-3.0v7 M-2.5,-0.5L0,-3.0L2.5,-0.5"/>
                </g>
                <g id="arrowLeft" xlink:href="#dirArrow" transform="rotate(270) translate(-36 17)" onmousedown="handlePan(-1,0)">
                  <use xlink:href="#rim" fill="#404040">
                        <set attributeName="fill" to="#808080" begin="arrowLeft.mouseover" end="arrowLeft.mouseout"/>
                  </use>
                  <path fill="none" stroke="white" stroke-width="1.5" d="M0,-3.0v7 M-2.5,-0.5L0,-3.0L2.5,-0.5"/>
                </g>
        </g>
</svg>
