<?xml version="1.0" encoding="UTF-8" standalone="no"?>
<!DOCTYPE svg PUBLIC "-//W3C//DTD SVG 1.1//EN"
 "http://www.w3.org/Graphics/SVG/1.1/DTD/svg11.dtd">
<!-- Generated by graphviz version 2.26.3 (20100126.1600)
 -->
<!-- Title: G Pages: 1 -->
<!--zoomable 146 -->
<svg id="main" version="1.1" xmlns="http://www.w3.org/2000/svg" xmlns:xlink="http://www.w3.org/1999/xlink" xml:space="preserve" onload="init(evt)">
        <defs>
                <circle id="rim" cx="0" cy="0" r="7"/>
                <circle id="rim2" cx="0" cy="0" r="3.5"/>
                <g id="zoomPlus">
                        <use xlink:href="#rim" fill="#404040">
                                <set attributeName="fill" to="#808080" begin="zoomplus.mouseover" end="zoomplus.mouseout"/>
                        </use>
                        <path d="M-4,0h8M0,-4v8" fill="none" stroke="white" stroke-width="1.5" pointer-events="none"/>
                </g>
                <g id="zoomMin">
                        <use xlink:href="#rim" fill="#404040">
                                <set attributeName="fill" to="#808080" begin="zoomminus.mouseover" end="zoomminus.mouseout"/>
                        </use>
                        <path d="M-4,0h8" fill="none" stroke="white" stroke-width="1.5" pointer-events="none"/>
                </g>
                <g id="dirArrow">
                        <path fill="none" stroke="white" stroke-width="1.5" d="M0,-3.0v7 M-2.5,-0.5L0,-3.0L2.5,-0.5"/>
                </g>
               <g id="resetDef">
                       <use xlink:href="#rim2" fill="#404040">
                               <set attributeName="fill" to="#808080" begin="reset.mouseover" end="reset.mouseout"/>
                       </use>
               </g>
        </defs>

<script type="text/javascript">
var viewWidth = 1948;
var viewHeight = 146;
var sectionId = 'dynsection-1';
</script>
<script xlink:href="svgpan.js"/>
<svg id="graph" class="graph">
<g id="viewport">
<title>G</title>
<polygon fill="white" stroke="white" points="-4,5 -4,-142 1945,-142 1945,5 -4,5"/>
<!-- Node1 -->
<g id="node1" class="node"><title>Node1</title>
<polygon fill="#bfbfbf" stroke="black" points="586.5,-116.5 586.5,-137.5 755.5,-137.5 755.5,-116.5 586.5,-116.5"/>
<text text-anchor="middle" x="671" y="-124.5" font-family="Helvetica,sans-Serif" font-size="10.00">source/main/gameplay/Character.h</text>
</g>
<!-- Node2 -->
<g id="node3" class="node"><title>Node2</title>
<a xlink:href="_character_8cpp.html" target="_top" xlink:title="source/main/gameplay/Character.cpp">
<polygon fill="white" stroke="black" points="11.5,-58.5 11.5,-79.5 190.5,-79.5 190.5,-58.5 11.5,-58.5"/>
<text text-anchor="middle" x="101" y="-66.5" font-family="Helvetica,sans-Serif" font-size="10.00">source/main/gameplay/Character.cpp</text>
</a>
</g>
<!-- Node1&#45;&gt;Node2 -->
<g id="edge2" class="edge"><title>Node1&#45;&gt;Node2</title>
<path fill="none" stroke="midnightblue" d="M576.099,-117.62C481.73,-108.252 332.837,-93.3628 204,-80 199.618,-79.5455 195.13,-79.0772 190.599,-78.6019"/>
<polygon fill="midnightblue" stroke="midnightblue" points="575.897,-121.117 586.194,-118.621 576.588,-114.151 575.897,-121.117"/>
</g>
<!-- Node3 -->
<g id="node5" class="node"><title>Node3</title>
<a xlink:href="_character_factory_8h.html" target="_top" xlink:title="source/main/gameplay/CharacterFactory.h">
<polygon fill="white" stroke="black" points="284,-58.5 284,-79.5 486,-79.5 486,-58.5 284,-58.5"/>
<text text-anchor="middle" x="385" y="-66.5" font-family="Helvetica,sans-Serif" font-size="10.00">source/main/gameplay/CharacterFactory.h</text>
</a>
</g>
<!-- Node1&#45;&gt;Node3 -->
<g id="edge4" class="edge"><title>Node1&#45;&gt;Node3</title>
<path fill="none" stroke="midnightblue" d="M609.213,-114.47C557.775,-104.038 485.364,-89.3535 436.89,-79.5231"/>
<polygon fill="midnightblue" stroke="midnightblue" points="608.711,-117.939 619.208,-116.497 610.103,-111.079 608.711,-117.939"/>
</g>
<!-- Node4 -->
<g id="node7" class="node"><title>Node4</title>
<a xlink:href="_character_factory_8cpp.html" target="_top" xlink:title="source/main/gameplay/CharacterFactory.cpp">
<polygon fill="white" stroke="black" points="0,-0.5 0,-21.5 212,-21.5 212,-0.5 0,-0.5"/>
<text text-anchor="middle" x="106" y="-8.5" font-family="Helvetica,sans-Serif" font-size="10.00">source/main/gameplay/CharacterFactory.cpp</text>
</a>
</g>
<!-- Node1&#45;&gt;Node4 -->
<g id="edge12" class="edge"><title>Node1&#45;&gt;Node4</title>
<path fill="none" stroke="midnightblue" d="M576.035,-119.251C474.897,-110.422 321.73,-95.2338 265,-80 212.398,-65.8747 154.696,-37.2308 125.4,-21.6597"/>
<polygon fill="midnightblue" stroke="midnightblue" points="576,-122.761 586.265,-120.138 576.605,-115.787 576,-122.761"/>
</g>
<!-- Node5 -->
<g id="node9" class="node"><title>Node5</title>
<a xlink:href="_ro_r_frame_listener_8cpp.html" target="_top" xlink:title="source/main/gameplay/RoRFrameListener.cpp">
<polygon fill="white" stroke="black" points="229.5,-0.5 229.5,-21.5 448.5,-21.5 448.5,-0.5 229.5,-0.5"/>
<text text-anchor="middle" x="339" y="-8.5" font-family="Helvetica,sans-Serif" font-size="10.00">source/main/gameplay/RoRFrameListener.cpp</text>
</a>
</g>
<!-- Node1&#45;&gt;Node5 -->
<g id="edge14" class="edge"><title>Node1&#45;&gt;Node5</title>
<path fill="none" stroke="midnightblue" d="M576.296,-122.26C465.536,-115.728 294.702,-102.179 275,-80 256.336,-58.9899 291.642,-35.0644 316.822,-21.6254"/>
<polygon fill="midnightblue" stroke="midnightblue" points="576.301,-125.766 586.487,-122.852 576.707,-118.778 576.301,-125.766"/>
</g>
<!-- Node6 -->
<g id="node11" class="node"><title>Node6</title>
<a xlink:href="_main_thread_8cpp.html" target="_top" xlink:title="source/main/main_sim/MainThread.cpp">
<polygon fill="white" stroke="black" points="466,-0.5 466,-21.5 654,-21.5 654,-0.5 466,-0.5"/>
<text text-anchor="middle" x="560" y="-8.5" font-family="Helvetica,sans-Serif" font-size="10.00">source/main/main_sim/MainThread.cpp</text>
</a>
</g>
<!-- Node1&#45;&gt;Node6 -->
<g id="edge26" class="edge"><title>Node1&#45;&gt;Node6</title>
<path fill="none" stroke="midnightblue" d="M611.292,-113.959C578.534,-105.463 542.646,-93.4753 533,-80 519.822,-61.5905 537.525,-35.8808 549.877,-21.61"/>
<polygon fill="midnightblue" stroke="midnightblue" points="610.774,-117.437 621.325,-116.481 612.48,-110.648 610.774,-117.437"/>
</g>
<!-- Node7 -->
<g id="node15" class="node"><title>Node7</title>
<a xlink:href="_camera_behavior_character_8cpp.html" target="_top" xlink:title="source/main/gfx/camera/CameraBehaviorCharacter.cpp">
<polygon fill="white" stroke="black" points="541.5,-58.5 541.5,-79.5 800.5,-79.5 800.5,-58.5 541.5,-58.5"/>
<text text-anchor="middle" x="671" y="-66.5" font-family="Helvetica,sans-Serif" font-size="10.00">source/main/gfx/camera/CameraBehaviorCharacter.cpp</text>
</a>
</g>
<!-- Node1&#45;&gt;Node7 -->
<g id="edge16" class="edge"><title>Node1&#45;&gt;Node7</title>
<path fill="none" stroke="midnightblue" d="M671,-106.191C671,-97.1684 671,-86.9941 671,-79.5707"/>
<polygon fill="midnightblue" stroke="midnightblue" points="667.5,-106.362 671,-116.362 674.5,-106.362 667.5,-106.362"/>
</g>
<!-- Node8 -->
<g id="node17" class="node"><title>Node8</title>
<a xlink:href="_camera_behavior_static_8cpp.html" target="_top" xlink:title="source/main/gfx/camera/CameraBehaviorStatic.cpp">
<polygon fill="white" stroke="black" points="818,-58.5 818,-79.5 1060,-79.5 1060,-58.5 818,-58.5"/>
<text text-anchor="middle" x="939" y="-66.5" font-family="Helvetica,sans-Serif" font-size="10.00">source/main/gfx/camera/CameraBehaviorStatic.cpp</text>
</a>
</g>
<!-- Node1&#45;&gt;Node8 -->
<g id="edge18" class="edge"><title>Node1&#45;&gt;Node8</title>
<path fill="none" stroke="midnightblue" d="M729.502,-114.339C777.664,-103.916 845.142,-89.3126 890.376,-79.5231"/>
<polygon fill="midnightblue" stroke="midnightblue" points="728.566,-110.961 719.533,-116.497 730.047,-117.802 728.566,-110.961"/>
</g>
<!-- Node9 -->
<g id="node19" class="node"><title>Node9</title>
<a xlink:href="_depth_of_field_effect_8cpp.html" target="_top" xlink:title="source/main/gfx/dof/DepthOfFieldEffect.cpp">
<polygon fill="white" stroke="black" points="1077.5,-58.5 1077.5,-79.5 1286.5,-79.5 1286.5,-58.5 1077.5,-58.5"/>
<text text-anchor="middle" x="1182" y="-66.5" font-family="Helvetica,sans-Serif" font-size="10.00">source/main/gfx/dof/DepthOfFieldEffect.cpp</text>
</a>
</g>
<!-- Node1&#45;&gt;Node9 -->
<g id="edge20" class="edge"><title>Node1&#45;&gt;Node9</title>
<path fill="none" stroke="midnightblue" d="M765.854,-116.234C858.237,-105.748 997.767,-89.911 1089.38,-79.5126"/>
<polygon fill="midnightblue" stroke="midnightblue" points="765.209,-112.784 755.668,-117.39 765.999,-119.74 765.209,-112.784"/>
</g>
<!-- Node10 -->
<g id="node21" class="node"><title>Node10</title>
<a xlink:href="_overlay_wrapper_8cpp.html" target="_top" xlink:title="source/main/gui/OverlayWrapper.cpp">
<polygon fill="white" stroke="black" points="1304,-58.5 1304,-79.5 1482,-79.5 1482,-58.5 1304,-58.5"/>
<text text-anchor="middle" x="1393" y="-66.5" font-family="Helvetica,sans-Serif" font-size="10.00">source/main/gui/OverlayWrapper.cpp</text>
</a>
</g>
<!-- Node1&#45;&gt;Node10 -->
<g id="edge22" class="edge"><title>Node1&#45;&gt;Node10</title>
<path fill="none" stroke="midnightblue" d="M765.697,-120.95C888.047,-112.885 1107.6,-97.5691 1295,-80 1297.9,-79.7283 1300.84,-79.4442 1303.82,-79.1506"/>
<polygon fill="midnightblue" stroke="midnightblue" points="765.36,-117.464 755.611,-121.613 765.819,-124.449 765.36,-117.464"/>
</g>
<!-- Node11 -->
<g id="node23" class="node"><title>Node11</title>
<a xlink:href="_g_u_i___game_pause_menu_8cpp.html" target="_top" xlink:title="source/main/gui/panels/GUI_GamePauseMenu.cpp">
<polygon fill="white" stroke="black" points="1500,-58.5 1500,-79.5 1740,-79.5 1740,-58.5 1500,-58.5"/>
<text text-anchor="middle" x="1620" y="-66.5" font-family="Helvetica,sans-Serif" font-size="10.00">source/main/gui/panels/GUI_GamePauseMenu.cpp</text>
</a>
</g>
<!-- Node1&#45;&gt;Node11 -->
<g id="edge24" class="edge"><title>Node1&#45;&gt;Node11</title>
<path fill="none" stroke="midnightblue" d="M766.031,-122.413C918.87,-114.842 1228.74,-98.6942 1491,-80 1493.91,-79.7922 1496.87,-79.5772 1499.84,-79.3562"/>
<polygon fill="midnightblue" stroke="midnightblue" points="765.562,-118.932 755.747,-122.921 765.908,-125.923 765.562,-118.932"/>
</g>
<!-- Node12 -->
<g id="node26" class="node"><title>Node12</title>
<a xlink:href="_game_script_8cpp.html" target="_top" xlink:title="source/main/scripting/GameScript.cpp">
<polygon fill="white" stroke="black" points="1757.5,-58.5 1757.5,-79.5 1940.5,-79.5 1940.5,-58.5 1757.5,-58.5"/>
<text text-anchor="middle" x="1849" y="-66.5" font-family="Helvetica,sans-Serif" font-size="10.00">source/main/scripting/GameScript.cpp</text>
</a>
</g>
<!-- Node1&#45;&gt;Node12 -->
<g id="edge28" class="edge"><title>Node1&#45;&gt;Node12</title>
<path fill="none" stroke="midnightblue" d="M765.785,-124.969C953.62,-120.479 1386.31,-107.824 1749,-80 1751.79,-79.7862 1754.62,-79.5562 1757.47,-79.3129"/>
<polygon fill="midnightblue" stroke="midnightblue" points="765.583,-121.473 755.668,-125.208 765.748,-128.471 765.583,-121.473"/>
</g>
<!-- Node3&#45;&gt;Node4 -->
<g id="edge6" class="edge"><title>Node3&#45;&gt;Node4</title>
<path fill="none" stroke="midnightblue" d="M324.411,-56.4045C274.252,-45.977 203.809,-31.333 156.62,-21.5231"/>
<polygon fill="midnightblue" stroke="midnightblue" points="323.972,-59.888 334.475,-58.4966 325.397,-53.0345 323.972,-59.888"/>
</g>
<!-- Node3&#45;&gt;Node5 -->
<g id="edge8" class="edge"><title>Node3&#45;&gt;Node5</title>
<path fill="none" stroke="midnightblue" d="M370.13,-50.2504C362.595,-40.75 353.724,-29.5651 347.384,-21.5707"/>
<polygon fill="midnightblue" stroke="midnightblue" points="367.607,-52.7018 376.563,-58.3619 373.091,-48.352 367.607,-52.7018"/>
</g>
<!-- Node3&#45;&gt;Node6 -->
<g id="edge10" class="edge"><title>Node3&#45;&gt;Node6</title>
<path fill="none" stroke="midnightblue" d="M426.4,-55.2787C457.584,-44.9437 499.701,-30.9849 528.249,-21.5231"/>
<polygon fill="midnightblue" stroke="midnightblue" points="425.082,-52.0283 416.691,-58.4966 427.285,-58.6729 425.082,-52.0283"/>
</g>
</g>
</svg>
        <g id="navigator" transform="translate(0 0)" fill="#404254">
                <rect fill="#f2f5e9" fill-opacity="0.5" stroke="#606060" stroke-width=".5" x="0" y="0" width="60" height="60"/>
                <use id="zoomplus" xlink:href="#zoomPlus" x="17" y="9" onmousedown="handleZoom(evt,'in')"/>
                <use id="zoomminus" xlink:href="#zoomMin" x="42" y="9" onmousedown="handleZoom(evt,'out')"/>
                <use id="reset" xlink:href="#resetDef" x="30" y="36" onmousedown="handleReset()"/>
                <g id="arrowUp" xlink:href="#dirArrow" transform="translate(30 24)" onmousedown="handlePan(0,-1)">
                  <use xlink:href="#rim" fill="#404040">
                        <set attributeName="fill" to="#808080" begin="arrowUp.mouseover" end="arrowUp.mouseout"/>
                  </use>
                  <path fill="none" stroke="white" stroke-width="1.5" d="M0,-3.0v7 M-2.5,-0.5L0,-3.0L2.5,-0.5"/>
                </g>
                <g id="arrowRight" xlink:href="#dirArrow" transform="rotate(90) translate(36 -43)" onmousedown="handlePan(1,0)">
                  <use xlink:href="#rim" fill="#404040">
                        <set attributeName="fill" to="#808080" begin="arrowRight.mouseover" end="arrowRight.mouseout"/>
                  </use>
                  <path fill="none" stroke="white" stroke-width="1.5" d="M0,-3.0v7 M-2.5,-0.5L0,-3.0L2.5,-0.5"/>
                </g>
                <g id="arrowDown" xlink:href="#dirArrow" transform="rotate(180) translate(-30 -48)" onmousedown="handlePan(0,1)">
                  <use xlink:href="#rim" fill="#404040">
                        <set attributeName="fill" to="#808080" begin="arrowDown.mouseover" end="arrowDown.mouseout"/>
                  </use>
                  <path fill="none" stroke="white" stroke-width="1.5" d="M0,-3.0v7 M-2.5,-0.5L0,-3.0L2.5,-0.5"/>
                </g>
                <g id="arrowLeft" xlink:href="#dirArrow" transform="rotate(270) translate(-36 17)" onmousedown="handlePan(-1,0)">
                  <use xlink:href="#rim" fill="#404040">
                        <set attributeName="fill" to="#808080" begin="arrowLeft.mouseover" end="arrowLeft.mouseout"/>
                  </use>
                  <path fill="none" stroke="white" stroke-width="1.5" d="M0,-3.0v7 M-2.5,-0.5L0,-3.0L2.5,-0.5"/>
                </g>
        </g>
</svg>
