<?xml version="1.0" encoding="UTF-8" standalone="no"?>
<!DOCTYPE svg PUBLIC "-//W3C//DTD SVG 1.1//EN"
 "http://www.w3.org/Graphics/SVG/1.1/DTD/svg11.dtd">
<!-- Generated by graphviz version 2.26.3 (20100126.1600)
 -->
<!-- Title: source/main/resources/ContentManager.cpp Pages: 1 -->
<!--zoomable 420 -->
<svg id="main" version="1.1" xmlns="http://www.w3.org/2000/svg" xmlns:xlink="http://www.w3.org/1999/xlink" xml:space="preserve" onload="init(evt)">
<style type="text/css"><![CDATA[
.edge:hover path { stroke: red; }
.edge:hover polygon { stroke: red; fill: red; }
]]></style>
<script type="text/javascript"><![CDATA[
var edges = document.getElementsByTagName('g');
if (edges && edges.length) {
  for (var i=0;i<edges.length;i++) {
    if (edges[i].id.substr(0,4)=='edge') {
      edges[i].setAttribute('class','edge');
    }
  }
}
]]></script>
        <defs>
                <circle id="rim" cx="0" cy="0" r="7"/>
                <circle id="rim2" cx="0" cy="0" r="3.5"/>
                <g id="zoomPlus">
                        <use xlink:href="#rim" fill="#404040">
                                <set attributeName="fill" to="#808080" begin="zoomplus.mouseover" end="zoomplus.mouseout"/>
                        </use>
                        <path d="M-4,0h8M0,-4v8" fill="none" stroke="white" stroke-width="1.5" pointer-events="none"/>
                </g>
                <g id="zoomMin">
                        <use xlink:href="#rim" fill="#404040">
                                <set attributeName="fill" to="#808080" begin="zoomminus.mouseover" end="zoomminus.mouseout"/>
                        </use>
                        <path d="M-4,0h8" fill="none" stroke="white" stroke-width="1.5" pointer-events="none"/>
                </g>
                <g id="dirArrow">
                        <path fill="none" stroke="white" stroke-width="1.5" d="M0,-3.0v7 M-2.5,-0.5L0,-3.0L2.5,-0.5"/>
                </g>
               <g id="resetDef">
                       <use xlink:href="#rim2" fill="#404040">
                               <set attributeName="fill" to="#808080" begin="reset.mouseover" end="reset.mouseout"/>
                       </use>
               </g>
        </defs>

<script type="text/javascript">
var viewWidth = 1908;
var viewHeight = 420;
var sectionId = 'dynsection-0';
</script>
<script xlink:href="svgpan.js"/>
<svg id="graph" class="graph">
<g id="viewport">
<title>source/main/resources/ContentManager.cpp</title>
<polygon fill="white" stroke="white" points="-4,5 -4,-416 1905,-416 1905,5 -4,5"/>
<!-- Node1 -->
<g id="node1" class="node"><title>Node1</title>
<polygon fill="#bfbfbf" stroke="black" points="804,-377 804,-411 920,-411 920,-377 804,-377"/>
<text text-anchor="start" x="812" y="-398" font-family="Helvetica,sans-Serif" font-size="10.00">source/main/resources</text>
<text text-anchor="middle" x="862" y="-385" font-family="Helvetica,sans-Serif" font-size="10.00">/ContentManager.cpp</text>
</g>
<!-- Node2 -->
<g id="node3" class="node"><title>Node2</title>
<a xlink:href="_content_manager_8h.html" target="_top" xlink:title="ContentManager.h">
<polygon fill="white" stroke="black" points="689.5,-239.5 689.5,-260.5 786.5,-260.5 786.5,-239.5 689.5,-239.5"/>
<text text-anchor="middle" x="738" y="-247.5" font-family="Helvetica,sans-Serif" font-size="10.00">ContentManager.h</text>
</a>
</g>
<!-- Node1&#45;&gt;Node2 -->
<g id="edge2" class="edge"><title>Node1&#45;&gt;Node2</title>
<path fill="none" stroke="midnightblue" d="M830.837,-376.941C815.65,-367.513 797.923,-354.727 785,-340 766.571,-318.998 752.945,-289.499 745.239,-270.077"/>
<polygon fill="midnightblue" stroke="midnightblue" points="748.494,-268.79 741.664,-260.69 741.952,-271.281 748.494,-268.79"/>
</g>
<!-- Node24 -->
<g id="node50" class="node"><title>Node24</title>
<polygon fill="white" stroke="#bfbfbf" points="307.5,-305 307.5,-339 438.5,-339 438.5,-305 307.5,-305"/>
<text text-anchor="start" x="315.5" y="-326" font-family="Helvetica,sans-Serif" font-size="10.00">Plugins/ParticleFX</text>
<text text-anchor="middle" x="373" y="-313" font-family="Helvetica,sans-Serif" font-size="10.00">/OgreBoxEmitterFactory.h</text>
</g>
<!-- Node1&#45;&gt;Node24 -->
<g id="edge52" class="edge"><title>Node1&#45;&gt;Node24</title>
<path fill="none" stroke="midnightblue" d="M803.95,-388.469C725.385,-380.535 580.713,-364.345 448.582,-340.2"/>
<polygon fill="midnightblue" stroke="midnightblue" points="449.157,-336.747 438.687,-338.372 447.885,-343.63 449.157,-336.747"/>
</g>
<!-- Node25 -->
<g id="node52" class="node"><title>Node25</title>
<polygon fill="white" stroke="#bfbfbf" points="456,-311.5 456,-332.5 610,-332.5 610,-311.5 456,-311.5"/>
<text text-anchor="middle" x="533" y="-319.5" font-family="Helvetica,sans-Serif" font-size="10.00">Overlay/OgreOverlayManager.h</text>
</g>
<!-- Node1&#45;&gt;Node25 -->
<g id="edge54" class="edge"><title>Node1&#45;&gt;Node25</title>
<path fill="none" stroke="midnightblue" d="M803.939,-381.294C744.038,-368.185 651.139,-347.854 591.191,-334.735"/>
<polygon fill="midnightblue" stroke="midnightblue" points="591.648,-331.252 581.13,-332.533 590.151,-338.09 591.648,-331.252"/>
</g>
<!-- Node26 -->
<g id="node54" class="node"><title>Node26</title>
<a xlink:href="_application_8h.html" target="_top" xlink:title="Central object manager and communications hub. ">
<polygon fill="white" stroke="black" points="937.5,-311.5 937.5,-332.5 1010.5,-332.5 1010.5,-311.5 937.5,-311.5"/>
<text text-anchor="middle" x="974" y="-319.5" font-family="Helvetica,sans-Serif" font-size="10.00">Application.h</text>
</a>
</g>
<!-- Node1&#45;&gt;Node26 -->
<g id="edge56" class="edge"><title>Node1&#45;&gt;Node26</title>
<path fill="none" stroke="midnightblue" d="M888.542,-376.937C906.721,-365.251 930.688,-349.843 948.614,-338.32"/>
<polygon fill="midnightblue" stroke="midnightblue" points="950.855,-341.04 957.374,-332.688 947.07,-335.152 950.855,-341.04"/>
</g>
<!-- Node27 -->
<g id="node57" class="node"><title>Node27</title>
<a xlink:href="_settings_8h.html" target="_top" xlink:title="Settings.h">
<polygon fill="white" stroke="black" points="857.5,-239.5 857.5,-260.5 918.5,-260.5 918.5,-239.5 857.5,-239.5"/>
<text text-anchor="middle" x="888" y="-247.5" font-family="Helvetica,sans-Serif" font-size="10.00">Settings.h</text>
</a>
</g>
<!-- Node1&#45;&gt;Node27 -->
<g id="edge66" class="edge"><title>Node1&#45;&gt;Node27</title>
<path fill="none" stroke="midnightblue" d="M829.81,-376.769C816.44,-367.752 802.35,-355.364 795,-340 788.095,-325.567 787.017,-317.866 795,-304 806.447,-284.116 828.335,-270.878 848.002,-262.488"/>
<polygon fill="midnightblue" stroke="midnightblue" points="849.418,-265.692 857.423,-258.751 846.837,-259.185 849.418,-265.692"/>
</g>
<!-- Node28 -->
<g id="node62" class="node"><title>Node28</title>
<a xlink:href="_colored_text_area_overlay_element_factory_8h.html" target="_top" xlink:title="ColoredTextAreaOverlayElement\lFactory.h">
<polygon fill="white" stroke="black" points="202,-233 202,-267 362,-267 362,-233 202,-233"/>
<text text-anchor="start" x="210" y="-254" font-family="Helvetica,sans-Serif" font-size="10.00">ColoredTextAreaOverlayElement</text>
<text text-anchor="middle" x="282" y="-241" font-family="Helvetica,sans-Serif" font-size="10.00">Factory.h</text>
</a>
</g>
<!-- Node1&#45;&gt;Node28 -->
<g id="edge68" class="edge"><title>Node1&#45;&gt;Node28</title>
<path fill="none" stroke="midnightblue" d="M803.827,-392.318C667.435,-387.831 335.759,-373.555 299,-340 281.977,-324.461 278.781,-297.665 279.212,-277.342"/>
<polygon fill="midnightblue" stroke="midnightblue" points="282.719,-277.28 279.736,-267.114 275.729,-276.922 282.719,-277.28"/>
</g>
<!-- Node34 -->
<g id="node77" class="node"><title>Node34</title>
<a xlink:href="_sound_script_manager_8h.html" target="_top" xlink:title="SoundScriptManager.h">
<polygon fill="white" stroke="black" points="804,-311.5 804,-332.5 920,-332.5 920,-311.5 804,-311.5"/>
<text text-anchor="middle" x="862" y="-319.5" font-family="Helvetica,sans-Serif" font-size="10.00">SoundScriptManager.h</text>
</a>
</g>
<!-- Node1&#45;&gt;Node34 -->
<g id="edge86" class="edge"><title>Node1&#45;&gt;Node34</title>
<path fill="none" stroke="midnightblue" d="M862,-376.937C862,-366.814 862,-353.898 862,-343.133"/>
<polygon fill="midnightblue" stroke="midnightblue" points="865.5,-342.901 862,-332.901 858.5,-342.901 865.5,-342.901"/>
</g>
<!-- Node35 -->
<g id="node79" class="node"><title>Node35</title>
<a xlink:href="_skin_manager_8h.html" target="_top" xlink:title="SkinManager.h">
<polygon fill="white" stroke="black" points="1192,-239.5 1192,-260.5 1274,-260.5 1274,-239.5 1192,-239.5"/>
<text text-anchor="middle" x="1233" y="-247.5" font-family="Helvetica,sans-Serif" font-size="10.00">SkinManager.h</text>
</a>
</g>
<!-- Node1&#45;&gt;Node35 -->
<g id="edge88" class="edge"><title>Node1&#45;&gt;Node35</title>
<path fill="none" stroke="midnightblue" d="M920.242,-387.064C991.374,-377.878 1106.93,-360.431 1145,-340 1177.04,-322.806 1204.6,-289.946 1219.97,-269.046"/>
<polygon fill="midnightblue" stroke="midnightblue" points="1223.01,-270.815 1225.97,-260.642 1217.32,-266.748 1223.01,-270.815"/>
</g>
<!-- Node39 -->
<g id="node90" class="node"><title>Node39</title>
<a xlink:href="_language_8h.html" target="_top" xlink:title="Language.h">
<polygon fill="white" stroke="black" points="1107.5,-239.5 1107.5,-260.5 1174.5,-260.5 1174.5,-239.5 1107.5,-239.5"/>
<text text-anchor="middle" x="1141" y="-247.5" font-family="Helvetica,sans-Serif" font-size="10.00">Language.h</text>
</a>
</g>
<!-- Node1&#45;&gt;Node39 -->
<g id="edge102" class="edge"><title>Node1&#45;&gt;Node39</title>
<path fill="none" stroke="midnightblue" d="M920.291,-389.347C988.344,-382.69 1095.16,-368.026 1123,-340 1141,-321.877 1143.52,-291.159 1142.88,-270.726"/>
<polygon fill="midnightblue" stroke="midnightblue" points="1146.37,-270.355 1142.28,-260.579 1139.38,-270.768 1146.37,-270.355"/>
</g>
<!-- Node42 -->
<g id="node98" class="node"><title>Node42</title>
<a xlink:href="_platform_utils_8h.html" target="_top" xlink:title="Platform&#45;specific utilities. ">
<polygon fill="white" stroke="black" points="628,-311.5 628,-332.5 710,-332.5 710,-311.5 628,-311.5"/>
<text text-anchor="middle" x="669" y="-319.5" font-family="Helvetica,sans-Serif" font-size="10.00">PlatformUtils.h</text>
</a>
</g>
<!-- Node1&#45;&gt;Node42 -->
<g id="edge112" class="edge"><title>Node1&#45;&gt;Node42</title>
<path fill="none" stroke="midnightblue" d="M816.262,-376.937C782.968,-364.517 738.405,-347.892 707.051,-336.195"/>
<polygon fill="midnightblue" stroke="midnightblue" points="707.959,-332.798 697.366,-332.582 705.512,-339.357 707.959,-332.798"/>
</g>
<!-- Node44 -->
<g id="node103" class="node"><title>Node44</title>
<a xlink:href="_cache_system_8h.html" target="_top" xlink:title="Caches information about installed mods (vehicles, terrains...) ">
<polygon fill="white" stroke="black" points="1027.5,-311.5 1027.5,-332.5 1114.5,-332.5 1114.5,-311.5 1027.5,-311.5"/>
<text text-anchor="middle" x="1071" y="-319.5" font-family="Helvetica,sans-Serif" font-size="10.00">CacheSystem.h</text>
</a>
</g>
<!-- Node1&#45;&gt;Node44 -->
<g id="edge118" class="edge"><title>Node1&#45;&gt;Node44</title>
<path fill="none" stroke="midnightblue" d="M911.858,-376.88C942.723,-366.274 983.169,-352.363 1019,-340 1022.8,-338.688 1026.76,-337.32 1030.72,-335.951"/>
<polygon fill="midnightblue" stroke="midnightblue" points="1032.18,-339.152 1040.48,-332.575 1029.89,-332.536 1032.18,-339.152"/>
</g>
<!-- Node46 -->
<g id="node108" class="node"><title>Node46</title>
<a xlink:href="_ogre_shader_particle_renderer_8h.html" target="_top" xlink:title="OgreShaderParticleRenderer.h">
<polygon fill="white" stroke="black" points="1293.5,-311.5 1293.5,-332.5 1442.5,-332.5 1442.5,-311.5 1293.5,-311.5"/>
<text text-anchor="middle" x="1368" y="-319.5" font-family="Helvetica,sans-Serif" font-size="10.00">OgreShaderParticleRenderer.h</text>
</a>
</g>
<!-- Node1&#45;&gt;Node46 -->
<g id="edge124" class="edge"><title>Node1&#45;&gt;Node46</title>
<path fill="none" stroke="midnightblue" d="M920.045,-385.741C1009.35,-373.033 1180.9,-348.622 1283.84,-333.975"/>
<polygon fill="midnightblue" stroke="midnightblue" points="1284.49,-337.419 1293.89,-332.545 1283.5,-330.488 1284.49,-337.419"/>
</g>
<!-- Node48 -->
<g id="node113" class="node"><title>Node48</title>
<a xlink:href="_utils_8h.html" target="_top" xlink:title="Utils.h">
<polygon fill="white" stroke="black" points="1526.5,-311.5 1526.5,-332.5 1571.5,-332.5 1571.5,-311.5 1526.5,-311.5"/>
<text text-anchor="middle" x="1549" y="-319.5" font-family="Helvetica,sans-Serif" font-size="10.00">Utils.h</text>
</a>
</g>
<!-- Node1&#45;&gt;Node48 -->
<g id="edge130" class="edge"><title>Node1&#45;&gt;Node48</title>
<path fill="none" stroke="midnightblue" d="M920.301,-390.406C1026.28,-383.483 1257.46,-366.591 1451,-340 1472.83,-337 1497.21,-332.528 1516.19,-328.792"/>
<polygon fill="midnightblue" stroke="midnightblue" points="1517,-332.198 1526.12,-326.806 1515.63,-325.333 1517,-332.198"/>
</g>
<!-- Node3 -->
<g id="node5" class="node"><title>Node3</title>
<a xlink:href="_bit_flags_8h.html" target="_top" xlink:title="BitFlags.h">
<polygon fill="white" stroke="black" points="87.5,-58.5 87.5,-79.5 148.5,-79.5 148.5,-58.5 87.5,-58.5"/>
<text text-anchor="middle" x="118" y="-66.5" font-family="Helvetica,sans-Serif" font-size="10.00">BitFlags.h</text>
</a>
</g>
<!-- Node2&#45;&gt;Node3 -->
<g id="edge4" class="edge"><title>Node2&#45;&gt;Node3</title>
<path fill="none" stroke="midnightblue" d="M711.64,-239.455C689.155,-229.832 656.512,-214.34 631,-196 589.916,-166.466 595.88,-137.335 550,-116 393.908,-43.4152 331.781,-109.397 158.481,-79.9574"/>
<polygon fill="midnightblue" stroke="midnightblue" points="158.991,-76.4931 148.532,-78.1838 157.762,-83.3845 158.991,-76.4931"/>
</g>
<!-- Node5 -->
<g id="node9" class="node"><title>Node5</title>
<a xlink:href="_ro_r_prerequisites_8h.html" target="_top" xlink:title="RoRPrerequisites.h">
<polygon fill="white" stroke="black" points="897,-116.5 897,-137.5 999,-137.5 999,-116.5 897,-116.5"/>
<text text-anchor="middle" x="948" y="-124.5" font-family="Helvetica,sans-Serif" font-size="10.00">RoRPrerequisites.h</text>
</a>
</g>
<!-- Node2&#45;&gt;Node5 -->
<g id="edge8" class="edge"><title>Node2&#45;&gt;Node5</title>
<path fill="none" stroke="midnightblue" d="M755.925,-239.389C780.819,-224.664 827.282,-197.223 867,-174 884.951,-163.504 905.183,-151.765 920.936,-142.644"/>
<polygon fill="midnightblue" stroke="midnightblue" points="922.741,-145.643 929.643,-137.605 919.235,-139.585 922.741,-145.643"/>
</g>
<!-- Node22 -->
<g id="node45" class="node"><title>Node22</title>
<a xlink:href="_singleton_8h.html" target="_top" xlink:title="Singleton.h">
<polygon fill="white" stroke="black" points="885.5,-174.5 885.5,-195.5 950.5,-195.5 950.5,-174.5 885.5,-174.5"/>
<text text-anchor="middle" x="918" y="-182.5" font-family="Helvetica,sans-Serif" font-size="10.00">Singleton.h</text>
</a>
</g>
<!-- Node2&#45;&gt;Node22 -->
<g id="edge46" class="edge"><title>Node2&#45;&gt;Node22</title>
<path fill="none" stroke="midnightblue" d="M767.321,-239.412C797.786,-228.411 845.613,-211.14 879.194,-199.013"/>
<polygon fill="midnightblue" stroke="midnightblue" points="880.475,-202.272 888.692,-195.584 878.098,-195.688 880.475,-202.272"/>
</g>
<!-- Node23 -->
<g id="node48" class="node"><title>Node23</title>
<polygon fill="white" stroke="#bfbfbf" points="640,-174.5 640,-195.5 792,-195.5 792,-174.5 640,-174.5"/>
<text text-anchor="middle" x="716" y="-182.5" font-family="Helvetica,sans-Serif" font-size="10.00">OgreResourceGroupManager.h</text>
</g>
<!-- Node2&#45;&gt;Node23 -->
<g id="edge50" class="edge"><title>Node2&#45;&gt;Node23</title>
<path fill="none" stroke="midnightblue" d="M734.367,-239.267C731.228,-229.991 726.606,-216.336 722.785,-205.045"/>
<polygon fill="midnightblue" stroke="midnightblue" points="726.087,-203.884 719.565,-195.534 719.456,-206.128 726.087,-203.884"/>
</g>
<!-- Node4 -->
<g id="node7" class="node"><title>Node4</title>
<polygon fill="white" stroke="#bfbfbf" points="95,-0.5 95,-21.5 141,-21.5 141,-0.5 95,-0.5"/>
<text text-anchor="middle" x="118" y="-8.5" font-family="Helvetica,sans-Serif" font-size="10.00">cstdint</text>
</g>
<!-- Node3&#45;&gt;Node4 -->
<g id="edge6" class="edge"><title>Node3&#45;&gt;Node4</title>
<path fill="none" stroke="midnightblue" d="M118,-58.3619C118,-50.9219 118,-40.7427 118,-31.7276"/>
<polygon fill="midnightblue" stroke="midnightblue" points="121.5,-31.5706 118,-21.5707 114.5,-31.5707 121.5,-31.5706"/>
</g>
<!-- Node5&#45;&gt;Node3 -->
<g id="edge42" class="edge"><title>Node5&#45;&gt;Node3</title>
<path fill="none" stroke="midnightblue" d="M896.805,-125.401C748.452,-120.543 319.183,-104.852 158.692,-79.9332"/>
<polygon fill="midnightblue" stroke="midnightblue" points="158.947,-76.4288 148.515,-78.2785 157.824,-83.3381 158.947,-76.4288"/>
</g>
<!-- Node6 -->
<g id="node11" class="node"><title>Node6</title>
<polygon fill="white" stroke="#bfbfbf" points="1451.5,-58.5 1451.5,-79.5 1566.5,-79.5 1566.5,-58.5 1451.5,-58.5"/>
<text text-anchor="middle" x="1509" y="-66.5" font-family="Helvetica,sans-Serif" font-size="10.00">OgreAxisAlignedBox.h</text>
</g>
<!-- Node5&#45;&gt;Node6 -->
<g id="edge10" class="edge"><title>Node5&#45;&gt;Node6</title>
<path fill="none" stroke="midnightblue" d="M999.083,-123.344C1087.27,-116.77 1273.96,-101.711 1441.46,-80.1353"/>
<polygon fill="midnightblue" stroke="midnightblue" points="1441.98,-83.5973 1451.44,-78.8383 1441.08,-76.6556 1441.98,-83.5973"/>
</g>
<!-- Node7 -->
<g id="node13" class="node"><title>Node7</title>
<polygon fill="white" stroke="#bfbfbf" points="1583.5,-58.5 1583.5,-79.5 1682.5,-79.5 1682.5,-58.5 1583.5,-58.5"/>
<text text-anchor="middle" x="1633" y="-66.5" font-family="Helvetica,sans-Serif" font-size="10.00">OgreColourValue.h</text>
</g>
<!-- Node5&#45;&gt;Node7 -->
<g id="edge12" class="edge"><title>Node5&#45;&gt;Node7</title>
<path fill="none" stroke="midnightblue" d="M999.404,-125.108C1105.11,-120.794 1354.64,-108.428 1573.32,-80.1073"/>
<polygon fill="midnightblue" stroke="midnightblue" points="1573.92,-83.5588 1583.39,-78.7902 1573.02,-76.618 1573.92,-83.5588"/>
</g>
<!-- Node8 -->
<g id="node15" class="node"><title>Node8</title>
<polygon fill="white" stroke="#bfbfbf" points="165.5,-58.5 165.5,-79.5 268.5,-79.5 268.5,-58.5 165.5,-58.5"/>
<text text-anchor="middle" x="217" y="-66.5" font-family="Helvetica,sans-Serif" font-size="10.00">OgreHeaderPrefix.h</text>
</g>
<!-- Node5&#45;&gt;Node8 -->
<g id="edge14" class="edge"><title>Node5&#45;&gt;Node8</title>
<path fill="none" stroke="midnightblue" d="M896.884,-125.363C786.026,-121.393 515.085,-109.426 278.813,-80.1208"/>
<polygon fill="midnightblue" stroke="midnightblue" points="279.012,-76.6184 268.654,-78.8472 278.141,-83.564 279.012,-76.6184"/>
</g>
<!-- Node9 -->
<g id="node17" class="node"><title>Node9</title>
<polygon fill="white" stroke="#bfbfbf" points="285.5,-58.5 285.5,-79.5 384.5,-79.5 384.5,-58.5 285.5,-58.5"/>
<text text-anchor="middle" x="335" y="-66.5" font-family="Helvetica,sans-Serif" font-size="10.00">OgreLogManager.h</text>
</g>
<!-- Node5&#45;&gt;Node9 -->
<g id="edge16" class="edge"><title>Node5&#45;&gt;Node9</title>
<path fill="none" stroke="midnightblue" d="M896.922,-124.437C800.558,-119.218 585.193,-105.734 394.54,-80.1062"/>
<polygon fill="midnightblue" stroke="midnightblue" points="394.999,-76.6364 384.619,-78.7584 394.057,-83.5727 394.999,-76.6364"/>
</g>
<!-- Node10 -->
<g id="node19" class="node"><title>Node10</title>
<polygon fill="white" stroke="#bfbfbf" points="401.5,-58.5 401.5,-79.5 494.5,-79.5 494.5,-58.5 401.5,-58.5"/>
<text text-anchor="middle" x="448" y="-66.5" font-family="Helvetica,sans-Serif" font-size="10.00">OgreQuaternion.h</text>
</g>
<!-- Node5&#45;&gt;Node10 -->
<g id="edge18" class="edge"><title>Node5&#45;&gt;Node10</title>
<path fill="none" stroke="midnightblue" d="M896.748,-123.132C815.61,-116.67 652.428,-102.299 504.899,-80.1921"/>
<polygon fill="midnightblue" stroke="midnightblue" points="505.167,-76.6929 494.756,-78.656 504.119,-83.614 505.167,-76.6929"/>
</g>
<!-- Node11 -->
<g id="node21" class="node"><title>Node11</title>
<polygon fill="white" stroke="#bfbfbf" points="-0.5,-58.5 -0.5,-79.5 70.5,-79.5 70.5,-58.5 -0.5,-58.5"/>
<text text-anchor="middle" x="35" y="-66.5" font-family="Helvetica,sans-Serif" font-size="10.00">OgreString.h</text>
</g>
<!-- Node5&#45;&gt;Node11 -->
<g id="edge20" class="edge"><title>Node5&#45;&gt;Node11</title>
<path fill="none" stroke="midnightblue" d="M896.721,-125.513C738.281,-120.721 257.105,-104.625 80.8224,-80.0128"/>
<polygon fill="midnightblue" stroke="midnightblue" points="81.3052,-76.5462 70.9054,-78.5698 80.2972,-83.4733 81.3052,-76.5462"/>
</g>
<!-- Node12 -->
<g id="node23" class="node"><title>Node12</title>
<polygon fill="white" stroke="#bfbfbf" points="512,-58.5 512,-79.5 626,-79.5 626,-58.5 512,-58.5"/>
<text text-anchor="middle" x="569" y="-66.5" font-family="Helvetica,sans-Serif" font-size="10.00">OgreStringConverter.h</text>
</g>
<!-- Node5&#45;&gt;Node12 -->
<g id="edge22" class="edge"><title>Node5&#45;&gt;Node12</title>
<path fill="none" stroke="midnightblue" d="M897,-119.599C837.074,-110.846 734.369,-95.6651 636.313,-80.191"/>
<polygon fill="midnightblue" stroke="midnightblue" points="636.652,-76.7013 626.228,-78.5959 635.559,-83.6154 636.652,-76.7013"/>
</g>
<!-- Node13 -->
<g id="node25" class="node"><title>Node13</title>
<polygon fill="white" stroke="#bfbfbf" points="643.5,-58.5 643.5,-79.5 734.5,-79.5 734.5,-58.5 643.5,-58.5"/>
<text text-anchor="middle" x="689" y="-66.5" font-family="Helvetica,sans-Serif" font-size="10.00">OgreUTFString.h</text>
</g>
<!-- Node5&#45;&gt;Node13 -->
<g id="edge24" class="edge"><title>Node5&#45;&gt;Node13</title>
<path fill="none" stroke="midnightblue" d="M901.097,-116.497C857.095,-106.643 791.257,-91.8991 744.623,-81.4562"/>
<polygon fill="midnightblue" stroke="midnightblue" points="745.208,-78.0004 734.685,-79.2305 743.678,-84.8313 745.208,-78.0004"/>
</g>
<!-- Node14 -->
<g id="node27" class="node"><title>Node14</title>
<polygon fill="white" stroke="#bfbfbf" points="1820,-58.5 1820,-79.5 1900,-79.5 1900,-58.5 1820,-58.5"/>
<text text-anchor="middle" x="1860" y="-66.5" font-family="Helvetica,sans-Serif" font-size="10.00">OgreVector2.h</text>
</g>
<!-- Node5&#45;&gt;Node14 -->
<g id="edge26" class="edge"><title>Node5&#45;&gt;Node14</title>
<path fill="none" stroke="midnightblue" d="M999.184,-125.332C1156.75,-120.026 1633.97,-102.616 1810.08,-79.8819"/>
<polygon fill="midnightblue" stroke="midnightblue" points="1810.54,-83.3509 1819.99,-78.552 1809.61,-76.4131 1810.54,-83.3509"/>
</g>
<!-- Node15 -->
<g id="node29" class="node"><title>Node15</title>
<polygon fill="white" stroke="#bfbfbf" points="752,-58.5 752,-79.5 832,-79.5 832,-58.5 752,-58.5"/>
<text text-anchor="middle" x="792" y="-66.5" font-family="Helvetica,sans-Serif" font-size="10.00">OgreVector3.h</text>
</g>
<!-- Node5&#45;&gt;Node15 -->
<g id="edge28" class="edge"><title>Node5&#45;&gt;Node15</title>
<path fill="none" stroke="midnightblue" d="M919.75,-116.497C894.538,-107.123 857.424,-93.3242 829.688,-83.0122"/>
<polygon fill="midnightblue" stroke="midnightblue" points="830.896,-79.7274 820.303,-79.5231 828.457,-86.2886 830.896,-79.7274"/>
</g>
<!-- Node16 -->
<g id="node31" class="node"><title>Node16</title>
<polygon fill="white" stroke="#bfbfbf" points="1699.5,-58.5 1699.5,-79.5 1802.5,-79.5 1802.5,-58.5 1699.5,-58.5"/>
<text text-anchor="middle" x="1751" y="-66.5" font-family="Helvetica,sans-Serif" font-size="10.00">OgrePrerequisites.h</text>
</g>
<!-- Node5&#45;&gt;Node16 -->
<g id="edge30" class="edge"><title>Node5&#45;&gt;Node16</title>
<path fill="none" stroke="midnightblue" d="M999.089,-125.847C1118.31,-122.708 1424.28,-112.073 1689.15,-80.1131"/>
<polygon fill="midnightblue" stroke="midnightblue" points="1689.85,-83.5545 1699.35,-78.8696 1689,-76.6059 1689.85,-83.5545"/>
</g>
<!-- Node17 -->
<g id="node33" class="node"><title>Node17</title>
<polygon fill="white" stroke="#bfbfbf" points="850,-58.5 850,-79.5 1000,-79.5 1000,-58.5 850,-58.5"/>
<text text-anchor="middle" x="925" y="-66.5" font-family="Helvetica,sans-Serif" font-size="10.00">Overlay/OgreOverlaySystem.h</text>
</g>
<!-- Node5&#45;&gt;Node17 -->
<g id="edge32" class="edge"><title>Node5&#45;&gt;Node17</title>
<path fill="none" stroke="midnightblue" d="M943.781,-116.362C940.766,-108.758 936.617,-98.294 932.985,-89.1349"/>
<polygon fill="midnightblue" stroke="midnightblue" points="936.132,-87.5762 929.192,-79.5707 929.625,-90.1567 936.132,-87.5762"/>
</g>
<!-- Node18 -->
<g id="node35" class="node"><title>Node18</title>
<a xlink:href="_forward_declarations_8h.html" target="_top" xlink:title="Global forward declarations. ">
<polygon fill="white" stroke="black" points="1010.5,-0.5 1010.5,-21.5 1125.5,-21.5 1125.5,-0.5 1010.5,-0.5"/>
<text text-anchor="middle" x="1068" y="-8.5" font-family="Helvetica,sans-Serif" font-size="10.00">ForwardDeclarations.h</text>
</a>
</g>
<!-- Node5&#45;&gt;Node18 -->
<g id="edge34" class="edge"><title>Node5&#45;&gt;Node18</title>
<path fill="none" stroke="midnightblue" d="M963.494,-116.423C976.265,-107.393 994.56,-93.7223 1009,-80 1025.46,-64.355 1042.09,-44.4616 1053.47,-30.059"/>
<polygon fill="midnightblue" stroke="midnightblue" points="1056.45,-31.9279 1059.84,-21.888 1050.93,-27.6262 1056.45,-31.9279"/>
</g>
<!-- Node19 -->
<g id="node37" class="node"><title>Node19</title>
<a xlink:href="_global_environment_8h.html" target="_top" xlink:title="GlobalEnvironment.h">
<polygon fill="white" stroke="black" points="1055.5,-58.5 1055.5,-79.5 1162.5,-79.5 1162.5,-58.5 1055.5,-58.5"/>
<text text-anchor="middle" x="1109" y="-66.5" font-family="Helvetica,sans-Serif" font-size="10.00">GlobalEnvironment.h</text>
</a>
</g>
<!-- Node5&#45;&gt;Node19 -->
<g id="edge36" class="edge"><title>Node5&#45;&gt;Node19</title>
<path fill="none" stroke="midnightblue" d="M977.156,-116.497C1003.18,-107.123 1041.48,-93.3242 1070.1,-83.0122"/>
<polygon fill="midnightblue" stroke="midnightblue" points="1071.57,-86.2052 1079.79,-79.5231 1069.2,-79.6195 1071.57,-86.2052"/>
</g>
<!-- Node20 -->
<g id="node40" class="node"><title>Node20</title>
<a xlink:href="_zeroed_memory_allocator_8h.html" target="_top" xlink:title="ZeroedMemoryAllocator.h">
<polygon fill="white" stroke="black" points="1180,-58.5 1180,-79.5 1308,-79.5 1308,-58.5 1180,-58.5"/>
<text text-anchor="middle" x="1244" y="-66.5" font-family="Helvetica,sans-Serif" font-size="10.00">ZeroedMemoryAllocator.h</text>
</a>
</g>
<!-- Node5&#45;&gt;Node20 -->
<g id="edge40" class="edge"><title>Node5&#45;&gt;Node20</title>
<path fill="none" stroke="midnightblue" d="M999.221,-116.963C1049.54,-107.105 1126.42,-92.0387 1180.57,-81.428"/>
<polygon fill="midnightblue" stroke="midnightblue" points="1181.27,-84.8585 1190.41,-79.5009 1179.92,-77.9892 1181.27,-84.8585"/>
</g>
<!-- Node21 -->
<g id="node43" class="node"><title>Node21</title>
<polygon fill="white" stroke="#bfbfbf" points="1325.5,-58.5 1325.5,-79.5 1434.5,-79.5 1434.5,-58.5 1325.5,-58.5"/>
<text text-anchor="middle" x="1380" y="-66.5" font-family="Helvetica,sans-Serif" font-size="10.00">MyGUI_Prerequest.h</text>
</g>
<!-- Node5&#45;&gt;Node21 -->
<g id="edge44" class="edge"><title>Node5&#45;&gt;Node21</title>
<path fill="none" stroke="midnightblue" d="M999.139,-121.243C1068.52,-113.264 1196.57,-97.9474 1315.39,-80.1968"/>
<polygon fill="midnightblue" stroke="midnightblue" points="1316.02,-83.6416 1325.39,-78.6941 1314.98,-76.7193 1316.02,-83.6416"/>
</g>
<!-- Node19&#45;&gt;Node18 -->
<g id="edge38" class="edge"><title>Node19&#45;&gt;Node18</title>
<path fill="none" stroke="midnightblue" d="M1101.48,-58.3619C1095.87,-50.4313 1088.07,-39.3885 1081.4,-29.9606"/>
<polygon fill="midnightblue" stroke="midnightblue" points="1084.1,-27.7161 1075.47,-21.5707 1078.39,-31.7568 1084.1,-27.7161"/>
</g>
<!-- Node22&#45;&gt;Node5 -->
<g id="edge48" class="edge"><title>Node22&#45;&gt;Node5</title>
<path fill="none" stroke="midnightblue" d="M923.502,-174.362C927.52,-166.595 933.081,-155.843 937.89,-146.546"/>
<polygon fill="midnightblue" stroke="midnightblue" points="941.047,-148.061 942.532,-137.571 934.829,-144.845 941.047,-148.061"/>
</g>
<!-- Node26&#45;&gt;Node5 -->
<g id="edge58" class="edge"><title>Node26&#45;&gt;Node5</title>
<path fill="none" stroke="midnightblue" d="M973.382,-311.166C971.877,-286.621 967.507,-224.947 959,-174 957.541,-165.264 955.412,-155.731 953.415,-147.547"/>
<polygon fill="midnightblue" stroke="midnightblue" points="956.781,-146.582 950.933,-137.747 949.995,-148.301 956.781,-146.582"/>
</g>
<!-- Node26&#45;&gt;Node27 -->
<g id="edge60" class="edge"><title>Node26&#45;&gt;Node27</title>
<path fill="none" stroke="midnightblue" d="M961.31,-311.376C947.464,-299.784 925.087,-281.05 908.693,-267.324"/>
<polygon fill="midnightblue" stroke="midnightblue" points="910.656,-264.403 900.742,-260.667 906.162,-269.77 910.656,-264.403"/>
</g>
<!-- Node27&#45;&gt;Node5 -->
<g id="edge62" class="edge"><title>Node27&#45;&gt;Node5</title>
<path fill="none" stroke="midnightblue" d="M882.664,-239.472C875.695,-224.125 865.642,-195.139 877,-174 884.39,-160.246 897.769,-149.84 910.936,-142.362"/>
<polygon fill="midnightblue" stroke="midnightblue" points="912.706,-145.386 919.942,-137.647 909.459,-139.184 912.706,-145.386"/>
</g>
<!-- Node27&#45;&gt;Node22 -->
<g id="edge64" class="edge"><title>Node27&#45;&gt;Node22</title>
<path fill="none" stroke="midnightblue" d="M892.954,-239.267C897.279,-229.896 903.666,-216.057 908.907,-204.7"/>
<polygon fill="midnightblue" stroke="midnightblue" points="912.126,-206.08 913.138,-195.534 905.77,-203.147 912.126,-206.08"/>
</g>
<!-- Node28&#45;&gt;Node5 -->
<g id="edge70" class="edge"><title>Node28&#45;&gt;Node5</title>
<path fill="none" stroke="midnightblue" d="M353.57,-232.938C423.919,-216.517 534.468,-191.646 631,-174 719.575,-157.808 822.852,-143.305 886.841,-134.826"/>
<polygon fill="midnightblue" stroke="midnightblue" points="887.309,-138.295 896.766,-133.518 886.394,-131.355 887.309,-138.295"/>
</g>
<!-- Node28&#45;&gt;Node11 -->
<g id="edge72" class="edge"><title>Node28&#45;&gt;Node11</title>
<path fill="none" stroke="midnightblue" d="M201.922,-243.552C136.782,-236.449 52.2862,-222.353 31,-196 6.52607,-165.701 17.7141,-116.784 27.014,-89.3442"/>
<polygon fill="midnightblue" stroke="midnightblue" points="30.4121,-90.2399 30.5298,-79.6457 23.8312,-87.8542 30.4121,-90.2399"/>
</g>
<!-- Node29 -->
<g id="node66" class="node"><title>Node29</title>
<polygon fill="white" stroke="#bfbfbf" points="226,-174.5 226,-195.5 342,-195.5 342,-174.5 226,-174.5"/>
<text text-anchor="middle" x="284" y="-182.5" font-family="Helvetica,sans-Serif" font-size="10.00">OgreOverlayElement.h</text>
</g>
<!-- Node28&#45;&gt;Node29 -->
<g id="edge74" class="edge"><title>Node28&#45;&gt;Node29</title>
<path fill="none" stroke="midnightblue" d="M282.525,-232.922C282.779,-224.67 283.086,-214.692 283.354,-205.982"/>
<polygon fill="midnightblue" stroke="midnightblue" points="286.857,-205.955 283.666,-195.852 279.86,-205.74 286.857,-205.955"/>
</g>
<!-- Node30 -->
<g id="node68" class="node"><title>Node30</title>
<polygon fill="white" stroke="#bfbfbf" points="359.5,-174.5 359.5,-195.5 508.5,-195.5 508.5,-174.5 359.5,-174.5"/>
<text text-anchor="middle" x="434" y="-182.5" font-family="Helvetica,sans-Serif" font-size="10.00">OgreOverlayElementFactory.h</text>
</g>
<!-- Node28&#45;&gt;Node30 -->
<g id="edge76" class="edge"><title>Node28&#45;&gt;Node30</title>
<path fill="none" stroke="midnightblue" d="M321.936,-232.922C346.103,-222.588 376.603,-209.545 399.68,-199.676"/>
<polygon fill="midnightblue" stroke="midnightblue" points="401.257,-202.808 409.076,-195.658 398.505,-196.372 401.257,-202.808"/>
</g>
<!-- Node31 -->
<g id="node70" class="node"><title>Node31</title>
<a xlink:href="_colored_text_area_overlay_element_8h.html" target="_top" xlink:title="ColoredTextAreaOverlayElement.h">
<polygon fill="white" stroke="black" points="40,-174.5 40,-195.5 208,-195.5 208,-174.5 40,-174.5"/>
<text text-anchor="middle" x="124" y="-182.5" font-family="Helvetica,sans-Serif" font-size="10.00">ColoredTextAreaOverlayElement.h</text>
</a>
</g>
<!-- Node28&#45;&gt;Node31 -->
<g id="edge78" class="edge"><title>Node28&#45;&gt;Node31</title>
<path fill="none" stroke="midnightblue" d="M240.487,-232.922C215.255,-222.541 183.379,-209.428 159.354,-199.544"/>
<polygon fill="midnightblue" stroke="midnightblue" points="160.488,-196.226 149.908,-195.658 157.824,-202.7 160.488,-196.226"/>
</g>
<!-- Node31&#45;&gt;Node5 -->
<g id="edge84" class="edge"><title>Node31&#45;&gt;Node5</title>
<path fill="none" stroke="midnightblue" d="M208.128,-174.845C211.121,-174.549 214.086,-174.266 217,-174 464.906,-151.386 761.089,-135.875 886.778,-129.827"/>
<polygon fill="midnightblue" stroke="midnightblue" points="887.147,-133.313 896.969,-129.339 886.813,-126.321 887.147,-133.313"/>
</g>
<!-- Node32 -->
<g id="node72" class="node"><title>Node32</title>
<polygon fill="white" stroke="#bfbfbf" points="71,-116.5 71,-137.5 115,-137.5 115,-116.5 71,-116.5"/>
<text text-anchor="middle" x="93" y="-124.5" font-family="Helvetica,sans-Serif" font-size="10.00">vector</text>
</g>
<!-- Node31&#45;&gt;Node32 -->
<g id="edge80" class="edge"><title>Node31&#45;&gt;Node32</title>
<path fill="none" stroke="midnightblue" d="M118.314,-174.362C114.163,-166.595 108.416,-155.843 103.447,-146.546"/>
<polygon fill="midnightblue" stroke="midnightblue" points="106.45,-144.74 98.6498,-137.571 100.277,-148.04 106.45,-144.74"/>
</g>
<!-- Node33 -->
<g id="node74" class="node"><title>Node33</title>
<polygon fill="white" stroke="#bfbfbf" points="132.5,-116.5 132.5,-137.5 287.5,-137.5 287.5,-116.5 132.5,-116.5"/>
<text text-anchor="middle" x="210" y="-124.5" font-family="Helvetica,sans-Serif" font-size="10.00">OgreTextAreaOverlayElement.h</text>
</g>
<!-- Node31&#45;&gt;Node33 -->
<g id="edge82" class="edge"><title>Node31&#45;&gt;Node33</title>
<path fill="none" stroke="midnightblue" d="M139.774,-174.362C152.624,-165.696 170.985,-153.313 185.71,-143.382"/>
<polygon fill="midnightblue" stroke="midnightblue" points="187.993,-146.064 194.326,-137.571 184.079,-140.26 187.993,-146.064"/>
</g>
<!-- Node35&#45;&gt;Node5 -->
<g id="edge92" class="edge"><title>Node35&#45;&gt;Node5</title>
<path fill="none" stroke="midnightblue" d="M1232.3,-239.299C1230.6,-222.63 1224.8,-190.655 1205,-174 1176.09,-149.68 1075.98,-137.109 1009.57,-131.295"/>
<polygon fill="midnightblue" stroke="midnightblue" points="1009.48,-127.775 999.22,-130.419 1008.89,-134.75 1009.48,-127.775"/>
</g>
<!-- Node36 -->
<g id="node81" class="node"><title>Node36</title>
<polygon fill="white" stroke="#bfbfbf" points="1251.5,-174.5 1251.5,-195.5 1376.5,-195.5 1376.5,-174.5 1251.5,-174.5"/>
<text text-anchor="middle" x="1314" y="-182.5" font-family="Helvetica,sans-Serif" font-size="10.00">OgreResourceManager.h</text>
</g>
<!-- Node35&#45;&gt;Node36 -->
<g id="edge90" class="edge"><title>Node35&#45;&gt;Node36</title>
<path fill="none" stroke="midnightblue" d="M1246.38,-239.267C1259,-229.139 1278.12,-213.792 1292.82,-202"/>
<polygon fill="midnightblue" stroke="midnightblue" points="1295.26,-204.522 1300.87,-195.534 1290.88,-199.063 1295.26,-204.522"/>
</g>
<!-- Node37 -->
<g id="node84" class="node"><title>Node37</title>
<a xlink:href="_skin_8h.html" target="_top" xlink:title="Skin.h">
<polygon fill="white" stroke="red" points="1432,-174.5 1432,-195.5 1476,-195.5 1476,-174.5 1432,-174.5"/>
<text text-anchor="middle" x="1454" y="-182.5" font-family="Helvetica,sans-Serif" font-size="10.00">Skin.h</text>
</a>
</g>
<!-- Node35&#45;&gt;Node37 -->
<g id="edge94" class="edge"><title>Node35&#45;&gt;Node37</title>
<path fill="none" stroke="midnightblue" d="M1261.16,-239.431C1268.25,-236.889 1275.88,-234.258 1283,-232 1331.01,-216.785 1387.48,-201.825 1422,-193.005"/>
<polygon fill="midnightblue" stroke="midnightblue" points="1423.15,-196.326 1431.98,-190.472 1421.42,-189.541 1423.15,-196.326"/>
</g>
<!-- Node37&#45;&gt;Node5 -->
<g id="edge100" class="edge"><title>Node37&#45;&gt;Node5</title>
<path fill="none" stroke="midnightblue" d="M1431.71,-177.443C1427.21,-176.131 1422.49,-174.9 1418,-174 1273.23,-144.939 1099.59,-133.507 1009.32,-129.282"/>
<polygon fill="midnightblue" stroke="midnightblue" points="1009.41,-125.782 999.259,-128.825 1009.09,-132.775 1009.41,-125.782"/>
</g>
<!-- Node37&#45;&gt;Node16 -->
<g id="edge96" class="edge"><title>Node37&#45;&gt;Node16</title>
<path fill="none" stroke="midnightblue" d="M1433.71,-174.381C1410.22,-160.747 1376.92,-136.412 1395,-116 1437.05,-68.5289 1609.72,-88.0876 1689.2,-79.9506"/>
<polygon fill="midnightblue" stroke="midnightblue" points="1689.84,-83.3983 1699.32,-78.6785 1688.96,-76.4529 1689.84,-83.3983"/>
</g>
<!-- Node38 -->
<g id="node87" class="node"><title>Node38</title>
<polygon fill="white" stroke="#bfbfbf" points="1404,-116.5 1404,-137.5 1492,-137.5 1492,-116.5 1404,-116.5"/>
<text text-anchor="middle" x="1448" y="-124.5" font-family="Helvetica,sans-Serif" font-size="10.00">OgreResource.h</text>
</g>
<!-- Node37&#45;&gt;Node38 -->
<g id="edge98" class="edge"><title>Node37&#45;&gt;Node38</title>
<path fill="none" stroke="midnightblue" d="M1452.9,-174.362C1452.13,-166.922 1451.08,-156.743 1450.14,-147.728"/>
<polygon fill="midnightblue" stroke="midnightblue" points="1453.6,-147.157 1449.09,-137.571 1446.64,-147.878 1453.6,-147.157"/>
</g>
<!-- Node39&#45;&gt;Node5 -->
<g id="edge104" class="edge"><title>Node39&#45;&gt;Node5</title>
<path fill="none" stroke="midnightblue" d="M1126.17,-239.287C1105.12,-224.208 1065.21,-196.097 1030,-174 1012.46,-162.991 992.277,-151.411 976.327,-142.501"/>
<polygon fill="midnightblue" stroke="midnightblue" points="977.918,-139.381 967.476,-137.587 974.52,-145.501 977.918,-139.381"/>
</g>
<!-- Node39&#45;&gt;Node22 -->
<g id="edge106" class="edge"><title>Node39&#45;&gt;Node22</title>
<path fill="none" stroke="midnightblue" d="M1118.14,-239.462C1111.99,-236.835 1105.31,-234.156 1099,-232 1052.53,-216.11 997.775,-202.587 960.756,-194.183"/>
<polygon fill="midnightblue" stroke="midnightblue" points="961.33,-190.725 950.806,-191.951 959.797,-197.555 961.33,-190.725"/>
</g>
<!-- Node40 -->
<g id="node94" class="node"><title>Node40</title>
<polygon fill="white" stroke="#bfbfbf" points="1081.5,-174.5 1081.5,-195.5 1128.5,-195.5 1128.5,-174.5 1081.5,-174.5"/>
<text text-anchor="middle" x="1105" y="-182.5" font-family="Helvetica,sans-Serif" font-size="10.00">libintl.h</text>
</g>
<!-- Node39&#45;&gt;Node40 -->
<g id="edge108" class="edge"><title>Node39&#45;&gt;Node40</title>
<path fill="none" stroke="midnightblue" d="M1135.06,-239.267C1129.81,-229.801 1122.05,-215.777 1115.72,-204.357"/>
<polygon fill="midnightblue" stroke="midnightblue" points="1118.74,-202.586 1110.83,-195.534 1112.62,-205.977 1118.74,-202.586"/>
</g>
<!-- Node41 -->
<g id="node96" class="node"><title>Node41</title>
<polygon fill="white" stroke="#bfbfbf" points="1146,-174.5 1146,-195.5 1196,-195.5 1196,-174.5 1146,-174.5"/>
<text text-anchor="middle" x="1171" y="-182.5" font-family="Helvetica,sans-Serif" font-size="10.00">locale.h</text>
</g>
<!-- Node39&#45;&gt;Node41 -->
<g id="edge110" class="edge"><title>Node39&#45;&gt;Node41</title>
<path fill="none" stroke="midnightblue" d="M1145.95,-239.267C1150.28,-229.896 1156.67,-216.057 1161.91,-204.7"/>
<polygon fill="midnightblue" stroke="midnightblue" points="1165.13,-206.08 1166.14,-195.534 1158.77,-203.147 1165.13,-206.08"/>
</g>
<!-- Node42&#45;&gt;Node11 -->
<g id="edge116" class="edge"><title>Node42&#45;&gt;Node11</title>
<path fill="none" stroke="midnightblue" d="M661.133,-311.142C640.662,-283.706 582.735,-211.147 517,-174 346.54,-77.6737 276.286,-119.034 80.9643,-80.2743"/>
<polygon fill="midnightblue" stroke="midnightblue" points="81.4609,-76.8038 70.9641,-78.2418 80.0666,-83.6635 81.4609,-76.8038"/>
</g>
<!-- Node43 -->
<g id="node100" class="node"><title>Node43</title>
<polygon fill="white" stroke="#bfbfbf" points="425.5,-239.5 425.5,-260.5 508.5,-260.5 508.5,-239.5 425.5,-239.5"/>
<text text-anchor="middle" x="467" y="-247.5" font-family="Helvetica,sans-Serif" font-size="10.00">OgrePlatform.h</text>
</g>
<!-- Node42&#45;&gt;Node43 -->
<g id="edge114" class="edge"><title>Node42&#45;&gt;Node43</title>
<path fill="none" stroke="midnightblue" d="M639.66,-311.414C632.878,-308.974 625.689,-306.392 619,-304 580.692,-290.3 536.912,-274.759 506.207,-263.878"/>
<polygon fill="midnightblue" stroke="midnightblue" points="507.316,-260.558 496.721,-260.517 504.978,-267.156 507.316,-260.558"/>
</g>
<!-- Node44&#45;&gt;Node5 -->
<g id="edge120" class="edge"><title>Node44&#45;&gt;Node5</title>
<path fill="none" stroke="midnightblue" d="M1063.72,-311.315C1056.36,-300.474 1044.73,-283.173 1035,-268 1007.35,-224.904 976.087,-173.565 959.605,-146.285"/>
<polygon fill="midnightblue" stroke="midnightblue" points="962.584,-144.447 954.422,-137.692 956.59,-148.063 962.584,-144.447"/>
</g>
<!-- Node45 -->
<g id="node106" class="node"><title>Node45</title>
<polygon fill="white" stroke="#bfbfbf" points="1044,-239.5 1044,-260.5 1090,-260.5 1090,-239.5 1044,-239.5"/>
<text text-anchor="middle" x="1067" y="-247.5" font-family="Helvetica,sans-Serif" font-size="10.00">Ogre.h</text>
</g>
<!-- Node44&#45;&gt;Node45 -->
<g id="edge122" class="edge"><title>Node44&#45;&gt;Node45</title>
<path fill="none" stroke="midnightblue" d="M1070.41,-311.376C1069.82,-300.741 1068.89,-284.095 1068.16,-270.82"/>
<polygon fill="midnightblue" stroke="midnightblue" points="1071.64,-270.458 1067.59,-260.667 1064.65,-270.846 1071.64,-270.458"/>
</g>
<!-- Node46&#45;&gt;Node14 -->
<g id="edge128" class="edge"><title>Node46&#45;&gt;Node14</title>
<path fill="none" stroke="midnightblue" d="M1386.18,-311.429C1415.83,-294.282 1476.55,-259.548 1529,-232 1637.51,-175.003 1768.73,-112.146 1828.09,-84.0317"/>
<polygon fill="midnightblue" stroke="midnightblue" points="1829.78,-87.1062 1837.32,-79.6665 1826.78,-80.7783 1829.78,-87.1062"/>
</g>
<!-- Node47 -->
<g id="node110" class="node"><title>Node47</title>
<polygon fill="white" stroke="#bfbfbf" points="1292,-239.5 1292,-260.5 1444,-260.5 1444,-239.5 1292,-239.5"/>
<text text-anchor="middle" x="1368" y="-247.5" font-family="Helvetica,sans-Serif" font-size="10.00">OgreParticleSystemRenderer.h</text>
</g>
<!-- Node46&#45;&gt;Node47 -->
<g id="edge126" class="edge"><title>Node46&#45;&gt;Node47</title>
<path fill="none" stroke="midnightblue" d="M1368,-311.376C1368,-300.741 1368,-284.095 1368,-270.82"/>
<polygon fill="midnightblue" stroke="midnightblue" points="1371.5,-270.667 1368,-260.667 1364.5,-270.667 1371.5,-270.667"/>
</g>
<!-- Node48&#45;&gt;Node5 -->
<g id="edge132" class="edge"><title>Node48&#45;&gt;Node5</title>
<path fill="none" stroke="midnightblue" d="M1539.02,-311.372C1509.48,-280.168 1422.16,-190.005 1385,-174 1318.96,-145.557 1113.29,-133.519 1009.39,-129.148"/>
<polygon fill="midnightblue" stroke="midnightblue" points="1009.49,-125.65 999.357,-128.737 1009.21,-132.644 1009.49,-125.65"/>
</g>
<!-- Node49 -->
<g id="node116" class="node"><title>Node49</title>
<polygon fill="white" stroke="#bfbfbf" points="1538,-239.5 1538,-260.5 1636,-260.5 1636,-239.5 1538,-239.5"/>
<text text-anchor="middle" x="1587" y="-247.5" font-family="Helvetica,sans-Serif" font-size="10.00">OgreDataStream.h</text>
</g>
<!-- Node48&#45;&gt;Node49 -->
<g id="edge134" class="edge"><title>Node48&#45;&gt;Node49</title>
<path fill="none" stroke="midnightblue" d="M1554.61,-311.376C1560.39,-300.422 1569.54,-283.09 1576.64,-269.634"/>
<polygon fill="midnightblue" stroke="midnightblue" points="1579.8,-271.145 1581.37,-260.667 1573.61,-267.878 1579.8,-271.145"/>
</g>
<!-- Node50 -->
<g id="node118" class="node"><title>Node50</title>
<polygon fill="white" stroke="#bfbfbf" points="1653.5,-239.5 1653.5,-260.5 1710.5,-260.5 1710.5,-239.5 1653.5,-239.5"/>
<text text-anchor="middle" x="1682" y="-247.5" font-family="Helvetica,sans-Serif" font-size="10.00">pthread.h</text>
</g>
<!-- Node48&#45;&gt;Node50 -->
<g id="edge136" class="edge"><title>Node48&#45;&gt;Node50</title>
<path fill="none" stroke="midnightblue" d="M1568.62,-311.376C1591.02,-299.252 1627.85,-279.316 1653.43,-265.468"/>
<polygon fill="midnightblue" stroke="midnightblue" points="1655.17,-268.506 1662.29,-260.667 1651.83,-262.35 1655.17,-268.506"/>
</g>
</g>
</svg>
        <g id="navigator" transform="translate(0 0)" fill="#404254">
                <rect fill="#f2f5e9" fill-opacity="0.5" stroke="#606060" stroke-width=".5" x="0" y="0" width="60" height="60"/>
                <use id="zoomplus" xlink:href="#zoomPlus" x="17" y="9" onmousedown="handleZoom(evt,'in')"/>
                <use id="zoomminus" xlink:href="#zoomMin" x="42" y="9" onmousedown="handleZoom(evt,'out')"/>
                <use id="reset" xlink:href="#resetDef" x="30" y="36" onmousedown="handleReset()"/>
                <g id="arrowUp" xlink:href="#dirArrow" transform="translate(30 24)" onmousedown="handlePan(0,-1)">
                  <use xlink:href="#rim" fill="#404040">
                        <set attributeName="fill" to="#808080" begin="arrowUp.mouseover" end="arrowUp.mouseout"/>
                  </use>
                  <path fill="none" stroke="white" stroke-width="1.5" d="M0,-3.0v7 M-2.5,-0.5L0,-3.0L2.5,-0.5"/>
                </g>
                <g id="arrowRight" xlink:href="#dirArrow" transform="rotate(90) translate(36 -43)" onmousedown="handlePan(1,0)">
                  <use xlink:href="#rim" fill="#404040">
                        <set attributeName="fill" to="#808080" begin="arrowRight.mouseover" end="arrowRight.mouseout"/>
                  </use>
                  <path fill="none" stroke="white" stroke-width="1.5" d="M0,-3.0v7 M-2.5,-0.5L0,-3.0L2.5,-0.5"/>
                </g>
                <g id="arrowDown" xlink:href="#dirArrow" transform="rotate(180) translate(-30 -48)" onmousedown="handlePan(0,1)">
                  <use xlink:href="#rim" fill="#404040">
                        <set attributeName="fill" to="#808080" begin="arrowDown.mouseover" end="arrowDown.mouseout"/>
                  </use>
                  <path fill="none" stroke="white" stroke-width="1.5" d="M0,-3.0v7 M-2.5,-0.5L0,-3.0L2.5,-0.5"/>
                </g>
                <g id="arrowLeft" xlink:href="#dirArrow" transform="rotate(270) translate(-36 17)" onmousedown="handlePan(-1,0)">
                  <use xlink:href="#rim" fill="#404040">
                        <set attributeName="fill" to="#808080" begin="arrowLeft.mouseover" end="arrowLeft.mouseout"/>
                  </use>
                  <path fill="none" stroke="white" stroke-width="1.5" d="M0,-3.0v7 M-2.5,-0.5L0,-3.0L2.5,-0.5"/>
                </g>
        </g>
        <svg viewBox="0 0 15 15" width="100%" height="30px" preserveAspectRatio="xMaxYMin meet">
         <g id="arrow_out" transform="scale(0.3 0.3)">
          <a xlink:href="_content_manager_8cpp__incl_org.svg" target="_base">
           <rect id="button" ry="5" rx="5" y="6" x="6" height="38" width="38"
                fill="#f2f5e9" fill-opacity="0.5" stroke="#606060" stroke-width="1.0"/>
           <path id="arrow"
             d="M 11.500037,31.436501 C 11.940474,20.09759 22.043105,11.32322 32.158766,21.979434 L 37.068811,17.246167 C 37.068811,17.246167 37.088388,32 37.088388,32 L 22.160133,31.978069 C 22.160133,31.978069 26.997745,27.140456 26.997745,27.140456 C 18.528582,18.264221 13.291696,25.230495 11.500037,31.436501 z"
             style="fill:#404040;"/>
          </a>
         </g>
        </svg>
</svg>
