<?xml version="1.0" encoding="UTF-8" standalone="no"?>
<!DOCTYPE svg PUBLIC "-//W3C//DTD SVG 1.1//EN"
 "http://www.w3.org/Graphics/SVG/1.1/DTD/svg11.dtd">
<!-- Generated by graphviz version 2.26.3 (20100126.1600)
 -->
<!-- Title: G Pages: 1 -->
<!--zoomable 88 -->
<svg id="main" version="1.1" xmlns="http://www.w3.org/2000/svg" xmlns:xlink="http://www.w3.org/1999/xlink" xml:space="preserve" onload="init(evt)">
        <defs>
                <circle id="rim" cx="0" cy="0" r="7"/>
                <circle id="rim2" cx="0" cy="0" r="3.5"/>
                <g id="zoomPlus">
                        <use xlink:href="#rim" fill="#404040">
                                <set attributeName="fill" to="#808080" begin="zoomplus.mouseover" end="zoomplus.mouseout"/>
                        </use>
                        <path d="M-4,0h8M0,-4v8" fill="none" stroke="white" stroke-width="1.5" pointer-events="none"/>
                </g>
                <g id="zoomMin">
                        <use xlink:href="#rim" fill="#404040">
                                <set attributeName="fill" to="#808080" begin="zoomminus.mouseover" end="zoomminus.mouseout"/>
                        </use>
                        <path d="M-4,0h8" fill="none" stroke="white" stroke-width="1.5" pointer-events="none"/>
                </g>
                <g id="dirArrow">
                        <path fill="none" stroke="white" stroke-width="1.5" d="M0,-3.0v7 M-2.5,-0.5L0,-3.0L2.5,-0.5"/>
                </g>
               <g id="resetDef">
                       <use xlink:href="#rim2" fill="#404040">
                               <set attributeName="fill" to="#808080" begin="reset.mouseover" end="reset.mouseout"/>
                       </use>
               </g>
        </defs>

<script type="text/javascript">
var viewWidth = 2992;
var viewHeight = 88;
var sectionId = 'dynsection-1';
</script>
<script xlink:href="svgpan.js"/>
<svg id="graph" class="graph">
<g id="viewport">
<title>G</title>
<polygon fill="white" stroke="white" points="-4,5 -4,-84 2989,-84 2989,5 -4,5"/>
<!-- Node1 -->
<g id="node1" class="node"><title>Node1</title>
<polygon fill="#bfbfbf" stroke="black" points="1413.5,-58.5 1413.5,-79.5 1556.5,-79.5 1556.5,-58.5 1413.5,-58.5"/>
<text text-anchor="middle" x="1485" y="-66.5" font-family="Helvetica,sans-Serif" font-size="10.00">source/main/utils/ErrorUtils.h</text>
</g>
<!-- Node2 -->
<g id="node3" class="node"><title>Node2</title>
<a xlink:href="_landusemap_8cpp.html" target="_top" xlink:title="source/main/gameplay/Landusemap.cpp">
<polygon fill="white" stroke="black" points="0,-0.5 0,-21.5 192,-21.5 192,-0.5 0,-0.5"/>
<text text-anchor="middle" x="96" y="-8.5" font-family="Helvetica,sans-Serif" font-size="10.00">source/main/gameplay/Landusemap.cpp</text>
</a>
</g>
<!-- Node1&#45;&gt;Node2 -->
<g id="edge2" class="edge"><title>Node1&#45;&gt;Node2</title>
<path fill="none" stroke="midnightblue" d="M1403.21,-67.9284C1199.74,-64.8446 654.5,-54.0178 201,-22 198.075,-21.7935 195.105,-21.5698 192.107,-21.3319"/>
<polygon fill="midnightblue" stroke="midnightblue" points="1403.16,-71.4281 1413.22,-68.078 1403.27,-64.4289 1403.16,-71.4281"/>
</g>
<!-- Node3 -->
<g id="node5" class="node"><title>Node3</title>
<a xlink:href="_ro_r_frame_listener_8cpp.html" target="_top" xlink:title="source/main/gameplay/RoRFrameListener.cpp">
<polygon fill="white" stroke="black" points="209.5,-0.5 209.5,-21.5 428.5,-21.5 428.5,-0.5 209.5,-0.5"/>
<text text-anchor="middle" x="319" y="-8.5" font-family="Helvetica,sans-Serif" font-size="10.00">source/main/gameplay/RoRFrameListener.cpp</text>
</a>
</g>
<!-- Node1&#45;&gt;Node3 -->
<g id="edge4" class="edge"><title>Node1&#45;&gt;Node3</title>
<path fill="none" stroke="midnightblue" d="M1403.21,-66.6723C1226.64,-61.3527 796.634,-46.8124 437,-22 434.229,-21.8088 431.422,-21.6072 428.591,-21.3968"/>
<polygon fill="midnightblue" stroke="midnightblue" points="1403.36,-70.1782 1413.46,-66.9793 1403.57,-63.1814 1403.36,-70.1782"/>
</g>
<!-- Node4 -->
<g id="node7" class="node"><title>Node4</title>
<a xlink:href="_ogre_subsystem_8cpp.html" target="_top" xlink:title="source/main/gfx/OgreSubsystem.cpp">
<polygon fill="white" stroke="black" points="445.5,-0.5 445.5,-21.5 624.5,-21.5 624.5,-0.5 445.5,-0.5"/>
<text text-anchor="middle" x="535" y="-8.5" font-family="Helvetica,sans-Serif" font-size="10.00">source/main/gfx/OgreSubsystem.cpp</text>
</a>
</g>
<!-- Node1&#45;&gt;Node4 -->
<g id="edge6" class="edge"><title>Node1&#45;&gt;Node4</title>
<path fill="none" stroke="midnightblue" d="M1403.2,-66.0309C1251.27,-60.1737 915.307,-45.6113 633,-22 630.27,-21.7717 627.499,-21.5289 624.702,-21.2745"/>
<polygon fill="midnightblue" stroke="midnightblue" points="1403.25,-69.5354 1413.37,-66.4209 1403.52,-62.5405 1403.25,-69.5354"/>
</g>
<!-- Node5 -->
<g id="node9" class="node"><title>Node5</title>
<a xlink:href="_overlay_wrapper_8cpp.html" target="_top" xlink:title="source/main/gui/OverlayWrapper.cpp">
<polygon fill="white" stroke="black" points="642,-0.5 642,-21.5 820,-21.5 820,-0.5 642,-0.5"/>
<text text-anchor="middle" x="731" y="-8.5" font-family="Helvetica,sans-Serif" font-size="10.00">source/main/gui/OverlayWrapper.cpp</text>
</a>
</g>
<!-- Node1&#45;&gt;Node5 -->
<g id="edge8" class="edge"><title>Node1&#45;&gt;Node5</title>
<path fill="none" stroke="midnightblue" d="M1402.89,-64.182C1278.59,-56.6471 1035.26,-40.9565 829,-22 826.102,-21.7336 823.156,-21.4541 820.182,-21.1644"/>
<polygon fill="midnightblue" stroke="midnightblue" points="1402.9,-67.6885 1413.09,-64.798 1403.32,-60.7013 1402.9,-67.6885"/>
</g>
<!-- Node6 -->
<g id="node11" class="node"><title>Node6</title>
<a xlink:href="main_2main__sim_2main_8cpp.html" target="_top" xlink:title="source/main/main_sim/main.cpp">
<polygon fill="white" stroke="black" points="838,-0.5 838,-21.5 996,-21.5 996,-0.5 838,-0.5"/>
<text text-anchor="middle" x="917" y="-8.5" font-family="Helvetica,sans-Serif" font-size="10.00">source/main/main_sim/main.cpp</text>
</a>
</g>
<!-- Node1&#45;&gt;Node6 -->
<g id="edge10" class="edge"><title>Node1&#45;&gt;Node6</title>
<path fill="none" stroke="midnightblue" d="M1403.2,-61.6616C1307.61,-52.9307 1144.71,-37.5686 1005,-22 1002.09,-21.676 999.132,-21.3395 996.142,-20.9942"/>
<polygon fill="midnightblue" stroke="midnightblue" points="1403.1,-65.1669 1413.37,-62.5893 1403.73,-58.1958 1403.1,-65.1669"/>
</g>
<!-- Node7 -->
<g id="node13" class="node"><title>Node7</title>
<a xlink:href="_main_thread_8cpp.html" target="_top" xlink:title="source/main/main_sim/MainThread.cpp">
<polygon fill="white" stroke="black" points="1014,-0.5 1014,-21.5 1202,-21.5 1202,-0.5 1014,-0.5"/>
<text text-anchor="middle" x="1108" y="-8.5" font-family="Helvetica,sans-Serif" font-size="10.00">source/main/main_sim/MainThread.cpp</text>
</a>
</g>
<!-- Node1&#45;&gt;Node7 -->
<g id="edge12" class="edge"><title>Node1&#45;&gt;Node7</title>
<path fill="none" stroke="midnightblue" d="M1406.5,-56.9234C1338.54,-46.4675 1241.23,-31.4969 1176.4,-21.5231"/>
<polygon fill="midnightblue" stroke="midnightblue" points="1406.31,-60.4353 1416.73,-58.4966 1407.38,-53.5167 1406.31,-60.4353"/>
</g>
<!-- Node8 -->
<g id="node15" class="node"><title>Node8</title>
<a xlink:href="_beam_8cpp.html" target="_top" xlink:title="source/main/physics/Beam.cpp">
<polygon fill="white" stroke="black" points="1220,-0.5 1220,-21.5 1374,-21.5 1374,-0.5 1220,-0.5"/>
<text text-anchor="middle" x="1297" y="-8.5" font-family="Helvetica,sans-Serif" font-size="10.00">source/main/physics/Beam.cpp</text>
</a>
</g>
<!-- Node1&#45;&gt;Node8 -->
<g id="edge14" class="edge"><title>Node1&#45;&gt;Node8</title>
<path fill="none" stroke="midnightblue" d="M1441.39,-55.5464C1407.81,-45.1857 1362.04,-31.0668 1331.11,-21.5231"/>
<polygon fill="midnightblue" stroke="midnightblue" points="1440.37,-58.893 1450.95,-58.4966 1442.43,-52.2041 1440.37,-58.893"/>
</g>
<!-- Node9 -->
<g id="node17" class="node"><title>Node9</title>
<a xlink:href="_beam_factory_8cpp.html" target="_top" xlink:title="source/main/physics/BeamFactory.cpp">
<polygon fill="white" stroke="black" points="1391.5,-0.5 1391.5,-21.5 1578.5,-21.5 1578.5,-0.5 1391.5,-0.5"/>
<text text-anchor="middle" x="1485" y="-8.5" font-family="Helvetica,sans-Serif" font-size="10.00">source/main/physics/BeamFactory.cpp</text>
</a>
</g>
<!-- Node1&#45;&gt;Node9 -->
<g id="edge16" class="edge"><title>Node1&#45;&gt;Node9</title>
<path fill="none" stroke="midnightblue" d="M1485,-48.1906C1485,-39.1684 1485,-28.9941 1485,-21.5707"/>
<polygon fill="midnightblue" stroke="midnightblue" points="1481.5,-48.3619 1485,-58.3619 1488.5,-48.3619 1481.5,-48.3619"/>
</g>
<!-- Node10 -->
<g id="node19" class="node"><title>Node10</title>
<a xlink:href="_collisions_8cpp.html" target="_top" xlink:title="source/main/physics/collision/Collisions.cpp">
<polygon fill="white" stroke="black" points="1595.5,-0.5 1595.5,-21.5 1804.5,-21.5 1804.5,-0.5 1595.5,-0.5"/>
<text text-anchor="middle" x="1700" y="-8.5" font-family="Helvetica,sans-Serif" font-size="10.00">source/main/physics/collision/Collisions.cpp</text>
</a>
</g>
<!-- Node1&#45;&gt;Node10 -->
<g id="edge18" class="edge"><title>Node1&#45;&gt;Node10</title>
<path fill="none" stroke="midnightblue" d="M1533.89,-55.8123C1572.38,-45.4285 1625.31,-31.1487 1660.99,-21.5231"/>
<polygon fill="midnightblue" stroke="midnightblue" points="1532.68,-52.5128 1523.93,-58.4966 1534.5,-59.2712 1532.68,-52.5128"/>
</g>
<!-- Node11 -->
<g id="node21" class="node"><title>Node11</title>
<a xlink:href="_cache_system_8cpp.html" target="_top" xlink:title="source/main/resources/CacheSystem.cpp">
<polygon fill="white" stroke="black" points="1822,-0.5 1822,-21.5 2022,-21.5 2022,-0.5 1822,-0.5"/>
<text text-anchor="middle" x="1922" y="-8.5" font-family="Helvetica,sans-Serif" font-size="10.00">source/main/resources/CacheSystem.cpp</text>
</a>
</g>
<!-- Node1&#45;&gt;Node11 -->
<g id="edge20" class="edge"><title>Node1&#45;&gt;Node11</title>
<path fill="none" stroke="midnightblue" d="M1567.05,-58.1094C1645.97,-47.6356 1764.47,-31.9074 1842.51,-21.5495"/>
<polygon fill="midnightblue" stroke="midnightblue" points="1566.12,-54.7021 1556.67,-59.4874 1567.05,-61.6412 1566.12,-54.7021"/>
</g>
<!-- Node12 -->
<g id="node23" class="node"><title>Node12</title>
<a xlink:href="_terrain_manager_8cpp.html" target="_top" xlink:title="source/main/terrain/TerrainManager.cpp">
<polygon fill="white" stroke="black" points="2039.5,-0.5 2039.5,-21.5 2228.5,-21.5 2228.5,-0.5 2039.5,-0.5"/>
<text text-anchor="middle" x="2134" y="-8.5" font-family="Helvetica,sans-Serif" font-size="10.00">source/main/terrain/TerrainManager.cpp</text>
</a>
</g>
<!-- Node1&#45;&gt;Node12 -->
<g id="edge22" class="edge"><title>Node1&#45;&gt;Node12</title>
<path fill="none" stroke="midnightblue" d="M1566.65,-62.4972C1673.44,-53.8721 1866.32,-37.8797 2031,-22 2033.77,-21.7325 2036.59,-21.457 2039.43,-21.1755"/>
<polygon fill="midnightblue" stroke="midnightblue" points="1566.28,-59.016 1556.59,-63.3086 1566.84,-65.9934 1566.28,-59.016"/>
</g>
<!-- Node13 -->
<g id="node25" class="node"><title>Node13</title>
<a xlink:href="_terrain_object_manager_8cpp.html" target="_top" xlink:title="source/main/terrain/TerrainObjectManager.cpp">
<polygon fill="white" stroke="black" points="2246,-0.5 2246,-21.5 2464,-21.5 2464,-0.5 2246,-0.5"/>
<text text-anchor="middle" x="2355" y="-8.5" font-family="Helvetica,sans-Serif" font-size="10.00">source/main/terrain/TerrainObjectManager.cpp</text>
</a>
</g>
<!-- Node1&#45;&gt;Node13 -->
<g id="edge24" class="edge"><title>Node1&#45;&gt;Node13</title>
<path fill="none" stroke="midnightblue" d="M1566.68,-64.7138C1704.82,-57.2814 1993.35,-40.9661 2237,-22 2239.87,-21.7765 2242.78,-21.5445 2245.72,-21.3056"/>
<polygon fill="midnightblue" stroke="midnightblue" points="1566.39,-61.2241 1556.59,-65.255 1566.77,-68.214 1566.39,-61.2241"/>
</g>
<!-- Node14 -->
<g id="node27" class="node"><title>Node14</title>
<a xlink:href="_error_utils_8cpp.html" target="_top" xlink:title="source/main/utils/ErrorUtils.cpp">
<polygon fill="white" stroke="black" points="2482,-0.5 2482,-21.5 2636,-21.5 2636,-0.5 2482,-0.5"/>
<text text-anchor="middle" x="2559" y="-8.5" font-family="Helvetica,sans-Serif" font-size="10.00">source/main/utils/ErrorUtils.cpp</text>
</a>
</g>
<!-- Node1&#45;&gt;Node14 -->
<g id="edge26" class="edge"><title>Node1&#45;&gt;Node14</title>
<path fill="none" stroke="midnightblue" d="M1566.82,-67.3123C1736.2,-63.3326 2137.51,-51.3888 2473,-22 2475.85,-21.7504 2478.75,-21.4773 2481.68,-21.1855"/>
<polygon fill="midnightblue" stroke="midnightblue" points="1566.64,-63.8152 1556.73,-67.5463 1566.81,-70.8133 1566.64,-63.8152"/>
</g>
<!-- Node15 -->
<g id="node29" class="node"><title>Node15</title>
<a xlink:href="_input_engine_8cpp.html" target="_top" xlink:title="source/main/utils/InputEngine.cpp">
<polygon fill="white" stroke="black" points="2654,-0.5 2654,-21.5 2818,-21.5 2818,-0.5 2654,-0.5"/>
<text text-anchor="middle" x="2736" y="-8.5" font-family="Helvetica,sans-Serif" font-size="10.00">source/main/utils/InputEngine.cpp</text>
</a>
</g>
<!-- Node1&#45;&gt;Node15 -->
<g id="edge28" class="edge"><title>Node1&#45;&gt;Node15</title>
<path fill="none" stroke="midnightblue" d="M1566.91,-67.926C1756.73,-64.9465 2241.33,-54.5233 2645,-22 2647.86,-21.77 2650.76,-21.5179 2653.69,-21.248"/>
<polygon fill="midnightblue" stroke="midnightblue" points="1566.68,-64.429 1556.73,-68.0829 1566.79,-71.4282 1566.68,-64.429"/>
</g>
<!-- Node16 -->
<g id="node31" class="node"><title>Node16</title>
<a xlink:href="_settings_8cpp.html" target="_top" xlink:title="source/main/utils/Settings.cpp">
<polygon fill="white" stroke="black" points="2835.5,-0.5 2835.5,-21.5 2984.5,-21.5 2984.5,-0.5 2835.5,-0.5"/>
<text text-anchor="middle" x="2910" y="-8.5" font-family="Helvetica,sans-Serif" font-size="10.00">source/main/utils/Settings.cpp</text>
</a>
</g>
<!-- Node1&#45;&gt;Node16 -->
<g id="edge30" class="edge"><title>Node1&#45;&gt;Node16</title>
<path fill="none" stroke="midnightblue" d="M1566.94,-67.1714C1818.93,-61.3833 2580.24,-42.6238 2827,-22 2829.75,-21.77 2832.55,-21.5135 2835.38,-21.2358"/>
<polygon fill="midnightblue" stroke="midnightblue" points="1566.68,-63.6764 1556.76,-67.4046 1566.84,-70.6746 1566.68,-63.6764"/>
</g>
</g>
</svg>
        <g id="navigator" transform="translate(0 0)" fill="#404254">
                <rect fill="#f2f5e9" fill-opacity="0.5" stroke="#606060" stroke-width=".5" x="0" y="0" width="60" height="60"/>
                <use id="zoomplus" xlink:href="#zoomPlus" x="17" y="9" onmousedown="handleZoom(evt,'in')"/>
                <use id="zoomminus" xlink:href="#zoomMin" x="42" y="9" onmousedown="handleZoom(evt,'out')"/>
                <use id="reset" xlink:href="#resetDef" x="30" y="36" onmousedown="handleReset()"/>
                <g id="arrowUp" xlink:href="#dirArrow" transform="translate(30 24)" onmousedown="handlePan(0,-1)">
                  <use xlink:href="#rim" fill="#404040">
                        <set attributeName="fill" to="#808080" begin="arrowUp.mouseover" end="arrowUp.mouseout"/>
                  </use>
                  <path fill="none" stroke="white" stroke-width="1.5" d="M0,-3.0v7 M-2.5,-0.5L0,-3.0L2.5,-0.5"/>
                </g>
                <g id="arrowRight" xlink:href="#dirArrow" transform="rotate(90) translate(36 -43)" onmousedown="handlePan(1,0)">
                  <use xlink:href="#rim" fill="#404040">
                        <set attributeName="fill" to="#808080" begin="arrowRight.mouseover" end="arrowRight.mouseout"/>
                  </use>
                  <path fill="none" stroke="white" stroke-width="1.5" d="M0,-3.0v7 M-2.5,-0.5L0,-3.0L2.5,-0.5"/>
                </g>
                <g id="arrowDown" xlink:href="#dirArrow" transform="rotate(180) translate(-30 -48)" onmousedown="handlePan(0,1)">
                  <use xlink:href="#rim" fill="#404040">
                        <set attributeName="fill" to="#808080" begin="arrowDown.mouseover" end="arrowDown.mouseout"/>
                  </use>
                  <path fill="none" stroke="white" stroke-width="1.5" d="M0,-3.0v7 M-2.5,-0.5L0,-3.0L2.5,-0.5"/>
                </g>
                <g id="arrowLeft" xlink:href="#dirArrow" transform="rotate(270) translate(-36 17)" onmousedown="handlePan(-1,0)">
                  <use xlink:href="#rim" fill="#404040">
                        <set attributeName="fill" to="#808080" begin="arrowLeft.mouseover" end="arrowLeft.mouseout"/>
                  </use>
                  <path fill="none" stroke="white" stroke-width="1.5" d="M0,-3.0v7 M-2.5,-0.5L0,-3.0L2.5,-0.5"/>
                </g>
        </g>
</svg>
