<?xml version="1.0" encoding="UTF-8" standalone="no"?>
<!DOCTYPE svg PUBLIC "-//W3C//DTD SVG 1.1//EN"
 "http://www.w3.org/Graphics/SVG/1.1/DTD/svg11.dtd">
<!-- Generated by graphviz version 2.26.3 (20100126.1600)
 -->
<!-- Title: source/main/physics/flex/FlexMesh.h Pages: 1 -->
<!--zoomable 334 -->
<svg id="main" version="1.1" xmlns="http://www.w3.org/2000/svg" xmlns:xlink="http://www.w3.org/1999/xlink" xml:space="preserve" onload="init(evt)">
<style type="text/css"><![CDATA[
.edge:hover path { stroke: red; }
.edge:hover polygon { stroke: red; fill: red; }
]]></style>
<script type="text/javascript"><![CDATA[
var edges = document.getElementsByTagName('g');
if (edges && edges.length) {
  for (var i=0;i<edges.length;i++) {
    if (edges[i].id.substr(0,4)=='edge') {
      edges[i].setAttribute('class','edge');
    }
  }
}
]]></script>
        <defs>
                <circle id="rim" cx="0" cy="0" r="7"/>
                <circle id="rim2" cx="0" cy="0" r="3.5"/>
                <g id="zoomPlus">
                        <use xlink:href="#rim" fill="#404040">
                                <set attributeName="fill" to="#808080" begin="zoomplus.mouseover" end="zoomplus.mouseout"/>
                        </use>
                        <path d="M-4,0h8M0,-4v8" fill="none" stroke="white" stroke-width="1.5" pointer-events="none"/>
                </g>
                <g id="zoomMin">
                        <use xlink:href="#rim" fill="#404040">
                                <set attributeName="fill" to="#808080" begin="zoomminus.mouseover" end="zoomminus.mouseout"/>
                        </use>
                        <path d="M-4,0h8" fill="none" stroke="white" stroke-width="1.5" pointer-events="none"/>
                </g>
                <g id="dirArrow">
                        <path fill="none" stroke="white" stroke-width="1.5" d="M0,-3.0v7 M-2.5,-0.5L0,-3.0L2.5,-0.5"/>
                </g>
               <g id="resetDef">
                       <use xlink:href="#rim2" fill="#404040">
                               <set attributeName="fill" to="#808080" begin="reset.mouseover" end="reset.mouseout"/>
                       </use>
               </g>
        </defs>

<script type="text/javascript">
var viewWidth = 2021;
var viewHeight = 334;
var sectionId = 'dynsection-0';
</script>
<script xlink:href="svgpan.js"/>
<svg id="graph" class="graph">
<g id="viewport">
<title>source/main/physics/flex/FlexMesh.h</title>
<polygon fill="white" stroke="white" points="-4,5 -4,-330 2018,-330 2018,5 -4,5"/>
<!-- Node1 -->
<g id="node1" class="node"><title>Node1</title>
<polygon fill="#bfbfbf" stroke="black" points="1568.5,-291 1568.5,-325 1675.5,-325 1675.5,-291 1568.5,-291"/>
<text text-anchor="start" x="1576.5" y="-312" font-family="Helvetica,sans-Serif" font-size="10.00">source/main/physics</text>
<text text-anchor="middle" x="1622" y="-299" font-family="Helvetica,sans-Serif" font-size="10.00">/flex/FlexMesh.h</text>
</g>
<!-- Node2 -->
<g id="node3" class="node"><title>Node2</title>
<a xlink:href="_ro_r_prerequisites_8h.html" target="_top" xlink:title="RoRPrerequisites.h">
<polygon fill="white" stroke="black" points="1065,-116.5 1065,-137.5 1167,-137.5 1167,-116.5 1065,-116.5"/>
<text text-anchor="middle" x="1116" y="-124.5" font-family="Helvetica,sans-Serif" font-size="10.00">RoRPrerequisites.h</text>
</a>
</g>
<!-- Node1&#45;&gt;Node2 -->
<g id="edge2" class="edge"><title>Node1&#45;&gt;Node2</title>
<path fill="none" stroke="midnightblue" d="M1568.46,-304.224C1458.15,-296.044 1213.22,-275.67 1182,-254 1145.44,-228.619 1127.73,-176.583 1120.39,-147.616"/>
<polygon fill="midnightblue" stroke="midnightblue" points="1123.77,-146.68 1118.07,-137.748 1116.95,-148.284 1123.77,-146.68"/>
</g>
<!-- Node8 -->
<g id="node15" class="node"><title>Node8</title>
<polygon fill="white" stroke="#bfbfbf" points="1781.5,-58.5 1781.5,-79.5 1852.5,-79.5 1852.5,-58.5 1781.5,-58.5"/>
<text text-anchor="middle" x="1817" y="-66.5" font-family="Helvetica,sans-Serif" font-size="10.00">OgreString.h</text>
</g>
<!-- Node1&#45;&gt;Node8 -->
<g id="edge50" class="edge"><title>Node1&#45;&gt;Node8</title>
<path fill="none" stroke="midnightblue" d="M1602.09,-290.61C1592.53,-280.919 1582.07,-267.999 1577,-254 1556.12,-196.33 1537.74,-163.124 1577,-116 1603.63,-84.0354 1715.01,-88.6308 1770.94,-80.0313"/>
<polygon fill="midnightblue" stroke="midnightblue" points="1771.82,-83.4293 1781.03,-78.1908 1770.56,-76.543 1771.82,-83.4293"/>
</g>
<!-- Node12 -->
<g id="node23" class="node"><title>Node12</title>
<polygon fill="white" stroke="#bfbfbf" points="1870,-58.5 1870,-79.5 1950,-79.5 1950,-58.5 1870,-58.5"/>
<text text-anchor="middle" x="1910" y="-66.5" font-family="Helvetica,sans-Serif" font-size="10.00">OgreVector3.h</text>
</g>
<!-- Node1&#45;&gt;Node12 -->
<g id="edge54" class="edge"><title>Node1&#45;&gt;Node12</title>
<path fill="none" stroke="midnightblue" d="M1613.19,-290.78C1606.22,-274.526 1599.28,-250.025 1610,-232 1639.72,-182.025 1800.09,-112.915 1873.39,-83.3502"/>
<polygon fill="midnightblue" stroke="midnightblue" points="1874.74,-86.5809 1882.72,-79.6125 1872.14,-80.0831 1874.74,-86.5809"/>
</g>
<!-- Node21 -->
<g id="node42" class="node"><title>Node21</title>
<a xlink:href="_flexable_8h.html" target="_top" xlink:title="Flexable.h">
<polygon fill="white" stroke="black" points="1191,-232.5 1191,-253.5 1253,-253.5 1253,-232.5 1191,-232.5"/>
<text text-anchor="middle" x="1222" y="-240.5" font-family="Helvetica,sans-Serif" font-size="10.00">Flexable.h</text>
</a>
</g>
<!-- Node1&#45;&gt;Node21 -->
<g id="edge42" class="edge"><title>Node1&#45;&gt;Node21</title>
<path fill="none" stroke="midnightblue" d="M1568.47,-299.301C1487.61,-286.162 1336.05,-261.533 1263.18,-249.693"/>
<polygon fill="midnightblue" stroke="midnightblue" points="1263.45,-246.191 1253.02,-248.041 1262.33,-253.1 1263.45,-246.191"/>
</g>
<!-- Node23 -->
<g id="node49" class="node"><title>Node23</title>
<polygon fill="white" stroke="#bfbfbf" points="1618.5,-232.5 1618.5,-253.5 1689.5,-253.5 1689.5,-232.5 1618.5,-232.5"/>
<text text-anchor="middle" x="1654" y="-240.5" font-family="Helvetica,sans-Serif" font-size="10.00">OgreEntity.h</text>
</g>
<!-- Node1&#45;&gt;Node23 -->
<g id="edge52" class="edge"><title>Node1&#45;&gt;Node23</title>
<path fill="none" stroke="midnightblue" d="M1630.41,-290.922C1634.65,-282.304 1639.82,-271.802 1644.24,-262.828"/>
<polygon fill="midnightblue" stroke="midnightblue" points="1647.38,-264.37 1648.66,-253.852 1641.1,-261.278 1647.38,-264.37"/>
</g>
<!-- Node24 -->
<g id="node52" class="node"><title>Node24</title>
<polygon fill="white" stroke="#bfbfbf" points="1707,-232.5 1707,-253.5 1777,-253.5 1777,-232.5 1707,-232.5"/>
<text text-anchor="middle" x="1742" y="-240.5" font-family="Helvetica,sans-Serif" font-size="10.00">OgreMesh.h</text>
</g>
<!-- Node1&#45;&gt;Node24 -->
<g id="edge56" class="edge"><title>Node1&#45;&gt;Node24</title>
<path fill="none" stroke="midnightblue" d="M1653.53,-290.922C1672.1,-280.864 1695.4,-268.242 1713.43,-258.476"/>
<polygon fill="midnightblue" stroke="midnightblue" points="1715.2,-261.499 1722.32,-253.658 1711.86,-255.344 1715.2,-261.499"/>
</g>
<!-- Node25 -->
<g id="node54" class="node"><title>Node25</title>
<polygon fill="white" stroke="#bfbfbf" points="1794.5,-232.5 1794.5,-253.5 1881.5,-253.5 1881.5,-232.5 1794.5,-232.5"/>
<text text-anchor="middle" x="1838" y="-240.5" font-family="Helvetica,sans-Serif" font-size="10.00">OgreSubMesh.h</text>
</g>
<!-- Node1&#45;&gt;Node25 -->
<g id="edge58" class="edge"><title>Node1&#45;&gt;Node25</title>
<path fill="none" stroke="midnightblue" d="M1675.67,-291.849C1711.83,-280.967 1758.98,-266.778 1793.14,-256.498"/>
<polygon fill="midnightblue" stroke="midnightblue" points="1794.29,-259.809 1802.86,-253.575 1792.27,-253.105 1794.29,-259.809"/>
</g>
<!-- Node26 -->
<g id="node56" class="node"><title>Node26</title>
<polygon fill="white" stroke="#bfbfbf" points="1899,-232.5 1899,-253.5 2013,-253.5 2013,-232.5 1899,-232.5"/>
<text text-anchor="middle" x="1956" y="-240.5" font-family="Helvetica,sans-Serif" font-size="10.00">OgreHardwareBuffer.h</text>
</g>
<!-- Node1&#45;&gt;Node26 -->
<g id="edge60" class="edge"><title>Node1&#45;&gt;Node26</title>
<path fill="none" stroke="midnightblue" d="M1675.66,-297.557C1734.53,-286.101 1828.97,-267.722 1891.74,-255.506"/>
<polygon fill="midnightblue" stroke="midnightblue" points="1892.77,-258.871 1901.92,-253.525 1891.43,-252 1892.77,-258.871"/>
</g>
<!-- Node3 -->
<g id="node5" class="node"><title>Node3</title>
<polygon fill="white" stroke="#bfbfbf" points="1187.5,-58.5 1187.5,-79.5 1302.5,-79.5 1302.5,-58.5 1187.5,-58.5"/>
<text text-anchor="middle" x="1245" y="-66.5" font-family="Helvetica,sans-Serif" font-size="10.00">OgreAxisAlignedBox.h</text>
</g>
<!-- Node2&#45;&gt;Node3 -->
<g id="edge4" class="edge"><title>Node2&#45;&gt;Node3</title>
<path fill="none" stroke="midnightblue" d="M1139.36,-116.497C1159.69,-107.356 1189.38,-94.0082 1212.11,-83.7883"/>
<polygon fill="midnightblue" stroke="midnightblue" points="1213.69,-86.9142 1221.38,-79.6212 1210.82,-80.5298 1213.69,-86.9142"/>
</g>
<!-- Node4 -->
<g id="node7" class="node"><title>Node4</title>
<polygon fill="white" stroke="#bfbfbf" points="1319.5,-58.5 1319.5,-79.5 1418.5,-79.5 1418.5,-58.5 1319.5,-58.5"/>
<text text-anchor="middle" x="1369" y="-66.5" font-family="Helvetica,sans-Serif" font-size="10.00">OgreColourValue.h</text>
</g>
<!-- Node2&#45;&gt;Node4 -->
<g id="edge6" class="edge"><title>Node2&#45;&gt;Node4</title>
<path fill="none" stroke="midnightblue" d="M1161.82,-116.497C1204.31,-106.755 1267.66,-92.2328 1313.11,-81.813"/>
<polygon fill="midnightblue" stroke="midnightblue" points="1314.13,-85.1692 1323.1,-79.5231 1312.57,-78.3462 1314.13,-85.1692"/>
</g>
<!-- Node5 -->
<g id="node9" class="node"><title>Node5</title>
<polygon fill="white" stroke="#bfbfbf" points="1435.5,-58.5 1435.5,-79.5 1538.5,-79.5 1538.5,-58.5 1435.5,-58.5"/>
<text text-anchor="middle" x="1487" y="-66.5" font-family="Helvetica,sans-Serif" font-size="10.00">OgreHeaderPrefix.h</text>
</g>
<!-- Node2&#45;&gt;Node5 -->
<g id="edge8" class="edge"><title>Node2&#45;&gt;Node5</title>
<path fill="none" stroke="midnightblue" d="M1167.26,-119.756C1226.92,-111.212 1328.67,-96.2947 1425.36,-80.241"/>
<polygon fill="midnightblue" stroke="midnightblue" points="1426.02,-83.6803 1435.31,-78.5832 1424.87,-76.7756 1426.02,-83.6803"/>
</g>
<!-- Node6 -->
<g id="node11" class="node"><title>Node6</title>
<polygon fill="white" stroke="#bfbfbf" points="1555.5,-58.5 1555.5,-79.5 1654.5,-79.5 1654.5,-58.5 1555.5,-58.5"/>
<text text-anchor="middle" x="1605" y="-66.5" font-family="Helvetica,sans-Serif" font-size="10.00">OgreLogManager.h</text>
</g>
<!-- Node2&#45;&gt;Node6 -->
<g id="edge10" class="edge"><title>Node2&#45;&gt;Node6</title>
<path fill="none" stroke="midnightblue" d="M1167.25,-122.728C1246.28,-115.852 1402.83,-101.084 1545.15,-80.1937"/>
<polygon fill="midnightblue" stroke="midnightblue" points="1545.99,-83.6072 1555.37,-78.679 1544.96,-76.6828 1545.99,-83.6072"/>
</g>
<!-- Node7 -->
<g id="node13" class="node"><title>Node7</title>
<polygon fill="white" stroke="#bfbfbf" points="1671.5,-58.5 1671.5,-79.5 1764.5,-79.5 1764.5,-58.5 1671.5,-58.5"/>
<text text-anchor="middle" x="1718" y="-66.5" font-family="Helvetica,sans-Serif" font-size="10.00">OgreQuaternion.h</text>
</g>
<!-- Node2&#45;&gt;Node7 -->
<g id="edge12" class="edge"><title>Node2&#45;&gt;Node7</title>
<path fill="none" stroke="midnightblue" d="M1167.12,-124.517C1262.45,-119.472 1473.98,-106.325 1661.23,-80.1369"/>
<polygon fill="midnightblue" stroke="midnightblue" points="1661.84,-83.5848 1671.25,-78.7186 1660.86,-76.6538 1661.84,-83.5848"/>
</g>
<!-- Node2&#45;&gt;Node8 -->
<g id="edge14" class="edge"><title>Node2&#45;&gt;Node8</title>
<path fill="none" stroke="midnightblue" d="M1167.04,-126.356C1276.35,-124.33 1541.21,-115.965 1770.87,-80.1342"/>
<polygon fill="midnightblue" stroke="midnightblue" points="1771.76,-83.5374 1781.09,-78.518 1770.66,-76.6234 1771.76,-83.5374"/>
</g>
<!-- Node9 -->
<g id="node17" class="node"><title>Node9</title>
<polygon fill="white" stroke="#bfbfbf" points="0,-58.5 0,-79.5 114,-79.5 114,-58.5 0,-58.5"/>
<text text-anchor="middle" x="57" y="-66.5" font-family="Helvetica,sans-Serif" font-size="10.00">OgreStringConverter.h</text>
</g>
<!-- Node2&#45;&gt;Node9 -->
<g id="edge16" class="edge"><title>Node2&#45;&gt;Node9</title>
<path fill="none" stroke="midnightblue" d="M1064.94,-126.703C919.443,-125.406 490.171,-118.44 124.174,-80.0124"/>
<polygon fill="midnightblue" stroke="midnightblue" points="124.494,-76.5268 114.181,-78.9537 123.756,-83.4879 124.494,-76.5268"/>
</g>
<!-- Node10 -->
<g id="node19" class="node"><title>Node10</title>
<polygon fill="white" stroke="#bfbfbf" points="131.5,-58.5 131.5,-79.5 222.5,-79.5 222.5,-58.5 131.5,-58.5"/>
<text text-anchor="middle" x="177" y="-66.5" font-family="Helvetica,sans-Serif" font-size="10.00">OgreUTFString.h</text>
</g>
<!-- Node2&#45;&gt;Node10 -->
<g id="edge18" class="edge"><title>Node2&#45;&gt;Node10</title>
<path fill="none" stroke="midnightblue" d="M1064.97,-125.284C904.934,-119.749 413.328,-101.541 232.746,-80.0356"/>
<polygon fill="midnightblue" stroke="midnightblue" points="232.94,-76.5329 222.586,-78.7795 232.081,-83.4801 232.94,-76.5329"/>
</g>
<!-- Node11 -->
<g id="node21" class="node"><title>Node11</title>
<polygon fill="white" stroke="#bfbfbf" points="240,-58.5 240,-79.5 320,-79.5 320,-58.5 240,-58.5"/>
<text text-anchor="middle" x="280" y="-66.5" font-family="Helvetica,sans-Serif" font-size="10.00">OgreVector2.h</text>
</g>
<!-- Node2&#45;&gt;Node11 -->
<g id="edge20" class="edge"><title>Node2&#45;&gt;Node11</title>
<path fill="none" stroke="midnightblue" d="M1064.85,-125.025C917.149,-119.154 490.84,-100.988 330.205,-79.9261"/>
<polygon fill="midnightblue" stroke="midnightblue" points="330.396,-76.4197 320.015,-78.5346 329.449,-83.3554 330.396,-76.4197"/>
</g>
<!-- Node2&#45;&gt;Node12 -->
<g id="edge22" class="edge"><title>Node2&#45;&gt;Node12</title>
<path fill="none" stroke="midnightblue" d="M1167.32,-126.545C1287.05,-124.886 1594.23,-117.181 1859.76,-79.9735"/>
<polygon fill="midnightblue" stroke="midnightblue" points="1860.57,-83.3934 1869.98,-78.5235 1859.59,-76.4628 1860.57,-83.3934"/>
</g>
<!-- Node13 -->
<g id="node25" class="node"><title>Node13</title>
<polygon fill="white" stroke="#bfbfbf" points="337.5,-58.5 337.5,-79.5 440.5,-79.5 440.5,-58.5 337.5,-58.5"/>
<text text-anchor="middle" x="389" y="-66.5" font-family="Helvetica,sans-Serif" font-size="10.00">OgrePrerequisites.h</text>
</g>
<!-- Node2&#45;&gt;Node13 -->
<g id="edge24" class="edge"><title>Node2&#45;&gt;Node13</title>
<path fill="none" stroke="midnightblue" d="M1064.77,-125.329C954.303,-121.307 685.367,-109.267 450.742,-80.1127"/>
<polygon fill="midnightblue" stroke="midnightblue" points="451.012,-76.6192 440.654,-78.8458 450.14,-83.5647 451.012,-76.6192"/>
</g>
<!-- Node14 -->
<g id="node27" class="node"><title>Node14</title>
<polygon fill="white" stroke="#bfbfbf" points="458,-58.5 458,-79.5 608,-79.5 608,-58.5 458,-58.5"/>
<text text-anchor="middle" x="533" y="-66.5" font-family="Helvetica,sans-Serif" font-size="10.00">Overlay/OgreOverlaySystem.h</text>
</g>
<!-- Node2&#45;&gt;Node14 -->
<g id="edge26" class="edge"><title>Node2&#45;&gt;Node14</title>
<path fill="none" stroke="midnightblue" d="M1064.93,-122.806C976.294,-115.392 787.97,-99.0457 618.211,-80.1053"/>
<polygon fill="midnightblue" stroke="midnightblue" points="618.417,-76.6066 608.089,-78.9704 617.637,-83.563 618.417,-76.6066"/>
</g>
<!-- Node15 -->
<g id="node29" class="node"><title>Node15</title>
<a xlink:href="_forward_declarations_8h.html" target="_top" xlink:title="Global forward declarations. ">
<polygon fill="white" stroke="black" points="662.5,-0.5 662.5,-21.5 777.5,-21.5 777.5,-0.5 662.5,-0.5"/>
<text text-anchor="middle" x="720" y="-8.5" font-family="Helvetica,sans-Serif" font-size="10.00">ForwardDeclarations.h</text>
</a>
</g>
<!-- Node2&#45;&gt;Node15 -->
<g id="edge28" class="edge"><title>Node2&#45;&gt;Node15</title>
<path fill="none" stroke="midnightblue" d="M1065,-124.298C983.252,-119.24 827.187,-106.385 779,-80 757.967,-68.4833 741.096,-46.2851 730.868,-30.169"/>
<polygon fill="midnightblue" stroke="midnightblue" points="733.802,-28.2563 725.632,-21.5097 727.811,-31.8781 733.802,-28.2563"/>
</g>
<!-- Node16 -->
<g id="node31" class="node"><title>Node16</title>
<a xlink:href="_global_environment_8h.html" target="_top" xlink:title="GlobalEnvironment.h">
<polygon fill="white" stroke="black" points="625.5,-58.5 625.5,-79.5 732.5,-79.5 732.5,-58.5 625.5,-58.5"/>
<text text-anchor="middle" x="679" y="-66.5" font-family="Helvetica,sans-Serif" font-size="10.00">GlobalEnvironment.h</text>
</a>
</g>
<!-- Node2&#45;&gt;Node16 -->
<g id="edge30" class="edge"><title>Node2&#45;&gt;Node16</title>
<path fill="none" stroke="midnightblue" d="M1064.75,-121.087C993.252,-112.702 859.577,-96.5315 746,-80 744.921,-79.8429 743.833,-79.6829 742.737,-79.5202"/>
<polygon fill="midnightblue" stroke="midnightblue" points="743.143,-76.0419 732.73,-77.9979 742.09,-82.9622 743.143,-76.0419"/>
</g>
<!-- Node17 -->
<g id="node34" class="node"><title>Node17</title>
<a xlink:href="_zeroed_memory_allocator_8h.html" target="_top" xlink:title="ZeroedMemoryAllocator.h">
<polygon fill="white" stroke="black" points="788,-58.5 788,-79.5 916,-79.5 916,-58.5 788,-58.5"/>
<text text-anchor="middle" x="852" y="-66.5" font-family="Helvetica,sans-Serif" font-size="10.00">ZeroedMemoryAllocator.h</text>
</a>
</g>
<!-- Node2&#45;&gt;Node17 -->
<g id="edge34" class="edge"><title>Node2&#45;&gt;Node17</title>
<path fill="none" stroke="midnightblue" d="M1068.19,-116.497C1023.66,-106.714 957.193,-92.1107 909.724,-81.6819"/>
<polygon fill="midnightblue" stroke="midnightblue" points="910.416,-78.2505 899.898,-79.5231 908.914,-85.0874 910.416,-78.2505"/>
</g>
<!-- Node18 -->
<g id="node36" class="node"><title>Node18</title>
<a xlink:href="_bit_flags_8h.html" target="_top" xlink:title="../common/BitFlags.h">
<polygon fill="white" stroke="black" points="934,-58.5 934,-79.5 1044,-79.5 1044,-58.5 934,-58.5"/>
<text text-anchor="middle" x="989" y="-66.5" font-family="Helvetica,sans-Serif" font-size="10.00">../common/BitFlags.h</text>
</a>
</g>
<!-- Node2&#45;&gt;Node18 -->
<g id="edge36" class="edge"><title>Node2&#45;&gt;Node18</title>
<path fill="none" stroke="midnightblue" d="M1093,-116.497C1072.99,-107.356 1043.76,-94.0082 1021.38,-83.7883"/>
<polygon fill="midnightblue" stroke="midnightblue" points="1022.81,-80.5918 1012.26,-79.6212 1019.9,-86.9592 1022.81,-80.5918"/>
</g>
<!-- Node20 -->
<g id="node40" class="node"><title>Node20</title>
<polygon fill="white" stroke="#bfbfbf" points="1061.5,-58.5 1061.5,-79.5 1170.5,-79.5 1170.5,-58.5 1061.5,-58.5"/>
<text text-anchor="middle" x="1116" y="-66.5" font-family="Helvetica,sans-Serif" font-size="10.00">MyGUI_Prerequest.h</text>
</g>
<!-- Node2&#45;&gt;Node20 -->
<g id="edge40" class="edge"><title>Node2&#45;&gt;Node20</title>
<path fill="none" stroke="midnightblue" d="M1116,-116.362C1116,-108.922 1116,-98.7427 1116,-89.7276"/>
<polygon fill="midnightblue" stroke="midnightblue" points="1119.5,-89.5706 1116,-79.5707 1112.5,-89.5707 1119.5,-89.5706"/>
</g>
<!-- Node16&#45;&gt;Node15 -->
<g id="edge32" class="edge"><title>Node16&#45;&gt;Node15</title>
<path fill="none" stroke="midnightblue" d="M686.52,-58.3619C692.126,-50.4313 699.932,-39.3885 706.597,-29.9606"/>
<polygon fill="midnightblue" stroke="midnightblue" points="709.613,-31.7568 712.528,-21.5707 703.897,-27.7161 709.613,-31.7568"/>
</g>
<!-- Node19 -->
<g id="node38" class="node"><title>Node19</title>
<polygon fill="white" stroke="#bfbfbf" points="966,-0.5 966,-21.5 1012,-21.5 1012,-0.5 966,-0.5"/>
<text text-anchor="middle" x="989" y="-8.5" font-family="Helvetica,sans-Serif" font-size="10.00">cstdint</text>
</g>
<!-- Node18&#45;&gt;Node19 -->
<g id="edge38" class="edge"><title>Node18&#45;&gt;Node19</title>
<path fill="none" stroke="midnightblue" d="M989,-58.3619C989,-50.9219 989,-40.7427 989,-31.7276"/>
<polygon fill="midnightblue" stroke="midnightblue" points="992.5,-31.5706 989,-21.5707 985.5,-31.5707 992.5,-31.5706"/>
</g>
<!-- Node21&#45;&gt;Node2 -->
<g id="edge44" class="edge"><title>Node21&#45;&gt;Node2</title>
<path fill="none" stroke="midnightblue" d="M1209.94,-232.163C1199.79,-222.866 1185.03,-208.957 1173,-196 1157.77,-179.593 1141.62,-159.795 1130.42,-145.622"/>
<polygon fill="midnightblue" stroke="midnightblue" points="1133.06,-143.316 1124.14,-137.605 1127.55,-147.634 1133.06,-143.316"/>
</g>
<!-- Node22 -->
<g id="node45" class="node"><title>Node22</title>
<a xlink:href="_i_thread_task_8h.html" target="_top" xlink:title="IThreadTask.h">
<polygon fill="white" stroke="black" points="1182,-174.5 1182,-195.5 1262,-195.5 1262,-174.5 1182,-174.5"/>
<text text-anchor="middle" x="1222" y="-182.5" font-family="Helvetica,sans-Serif" font-size="10.00">IThreadTask.h</text>
</a>
</g>
<!-- Node21&#45;&gt;Node22 -->
<g id="edge46" class="edge"><title>Node21&#45;&gt;Node22</title>
<path fill="none" stroke="midnightblue" d="M1222,-232.362C1222,-224.922 1222,-214.743 1222,-205.728"/>
<polygon fill="midnightblue" stroke="midnightblue" points="1225.5,-205.571 1222,-195.571 1218.5,-205.571 1225.5,-205.571"/>
</g>
<!-- Node22&#45;&gt;Node2 -->
<g id="edge48" class="edge"><title>Node22&#45;&gt;Node2</title>
<path fill="none" stroke="midnightblue" d="M1202.56,-174.362C1186.2,-165.409 1162.59,-152.491 1144.16,-142.406"/>
<polygon fill="midnightblue" stroke="midnightblue" points="1145.77,-139.3 1135.32,-137.571 1142.41,-145.441 1145.77,-139.3"/>
</g>
</g>
</svg>
        <g id="navigator" transform="translate(0 0)" fill="#404254">
                <rect fill="#f2f5e9" fill-opacity="0.5" stroke="#606060" stroke-width=".5" x="0" y="0" width="60" height="60"/>
                <use id="zoomplus" xlink:href="#zoomPlus" x="17" y="9" onmousedown="handleZoom(evt,'in')"/>
                <use id="zoomminus" xlink:href="#zoomMin" x="42" y="9" onmousedown="handleZoom(evt,'out')"/>
                <use id="reset" xlink:href="#resetDef" x="30" y="36" onmousedown="handleReset()"/>
                <g id="arrowUp" xlink:href="#dirArrow" transform="translate(30 24)" onmousedown="handlePan(0,-1)">
                  <use xlink:href="#rim" fill="#404040">
                        <set attributeName="fill" to="#808080" begin="arrowUp.mouseover" end="arrowUp.mouseout"/>
                  </use>
                  <path fill="none" stroke="white" stroke-width="1.5" d="M0,-3.0v7 M-2.5,-0.5L0,-3.0L2.5,-0.5"/>
                </g>
                <g id="arrowRight" xlink:href="#dirArrow" transform="rotate(90) translate(36 -43)" onmousedown="handlePan(1,0)">
                  <use xlink:href="#rim" fill="#404040">
                        <set attributeName="fill" to="#808080" begin="arrowRight.mouseover" end="arrowRight.mouseout"/>
                  </use>
                  <path fill="none" stroke="white" stroke-width="1.5" d="M0,-3.0v7 M-2.5,-0.5L0,-3.0L2.5,-0.5"/>
                </g>
                <g id="arrowDown" xlink:href="#dirArrow" transform="rotate(180) translate(-30 -48)" onmousedown="handlePan(0,1)">
                  <use xlink:href="#rim" fill="#404040">
                        <set attributeName="fill" to="#808080" begin="arrowDown.mouseover" end="arrowDown.mouseout"/>
                  </use>
                  <path fill="none" stroke="white" stroke-width="1.5" d="M0,-3.0v7 M-2.5,-0.5L0,-3.0L2.5,-0.5"/>
                </g>
                <g id="arrowLeft" xlink:href="#dirArrow" transform="rotate(270) translate(-36 17)" onmousedown="handlePan(-1,0)">
                  <use xlink:href="#rim" fill="#404040">
                        <set attributeName="fill" to="#808080" begin="arrowLeft.mouseover" end="arrowLeft.mouseout"/>
                  </use>
                  <path fill="none" stroke="white" stroke-width="1.5" d="M0,-3.0v7 M-2.5,-0.5L0,-3.0L2.5,-0.5"/>
                </g>
        </g>
        <svg viewBox="0 0 15 15" width="100%" height="30px" preserveAspectRatio="xMaxYMin meet">
         <g id="arrow_out" transform="scale(0.3 0.3)">
          <a xlink:href="_flex_mesh_8h__incl_org.svg" target="_base">
           <rect id="button" ry="5" rx="5" y="6" x="6" height="38" width="38"
                fill="#f2f5e9" fill-opacity="0.5" stroke="#606060" stroke-width="1.0"/>
           <path id="arrow"
             d="M 11.500037,31.436501 C 11.940474,20.09759 22.043105,11.32322 32.158766,21.979434 L 37.068811,17.246167 C 37.068811,17.246167 37.088388,32 37.088388,32 L 22.160133,31.978069 C 22.160133,31.978069 26.997745,27.140456 26.997745,27.140456 C 18.528582,18.264221 13.291696,25.230495 11.500037,31.436501 z"
             style="fill:#404040;"/>
          </a>
         </g>
        </svg>
</svg>
