<?xml version="1.0" encoding="UTF-8" standalone="no"?>
<!DOCTYPE svg PUBLIC "-//W3C//DTD SVG 1.1//EN"
 "http://www.w3.org/Graphics/SVG/1.1/DTD/svg11.dtd">
<!-- Generated by graphviz version 2.26.3 (20100126.1600)
 -->
<!-- Title: source/main/gfx/hydrax/GPUNormalMapManager.cpp Pages: 1 -->
<!--zoomable 566 -->
<svg id="main" version="1.1" xmlns="http://www.w3.org/2000/svg" xmlns:xlink="http://www.w3.org/1999/xlink" xml:space="preserve" onload="init(evt)">
<style type="text/css"><![CDATA[
.edge:hover path { stroke: red; }
.edge:hover polygon { stroke: red; fill: red; }
]]></style>
<script type="text/javascript"><![CDATA[
var edges = document.getElementsByTagName('g');
if (edges && edges.length) {
  for (var i=0;i<edges.length;i++) {
    if (edges[i].id.substr(0,4)=='edge') {
      edges[i].setAttribute('class','edge');
    }
  }
}
]]></script>
        <defs>
                <circle id="rim" cx="0" cy="0" r="7"/>
                <circle id="rim2" cx="0" cy="0" r="3.5"/>
                <g id="zoomPlus">
                        <use xlink:href="#rim" fill="#404040">
                                <set attributeName="fill" to="#808080" begin="zoomplus.mouseover" end="zoomplus.mouseout"/>
                        </use>
                        <path d="M-4,0h8M0,-4v8" fill="none" stroke="white" stroke-width="1.5" pointer-events="none"/>
                </g>
                <g id="zoomMin">
                        <use xlink:href="#rim" fill="#404040">
                                <set attributeName="fill" to="#808080" begin="zoomminus.mouseover" end="zoomminus.mouseout"/>
                        </use>
                        <path d="M-4,0h8" fill="none" stroke="white" stroke-width="1.5" pointer-events="none"/>
                </g>
                <g id="dirArrow">
                        <path fill="none" stroke="white" stroke-width="1.5" d="M0,-3.0v7 M-2.5,-0.5L0,-3.0L2.5,-0.5"/>
                </g>
               <g id="resetDef">
                       <use xlink:href="#rim2" fill="#404040">
                               <set attributeName="fill" to="#808080" begin="reset.mouseover" end="reset.mouseout"/>
                       </use>
               </g>
        </defs>

<script type="text/javascript">
var viewWidth = 2927;
var viewHeight = 566;
var sectionId = 'dynsection-0';
</script>
<script xlink:href="svgpan.js"/>
<svg id="graph" class="graph">
<g id="viewport">
<title>source/main/gfx/hydrax/GPUNormalMapManager.cpp</title>
<polygon fill="white" stroke="white" points="-4,5 -4,-562 2924,-562 2924,5 -4,5"/>
<!-- Node1 -->
<g id="node1" class="node"><title>Node1</title>
<polygon fill="#bfbfbf" stroke="black" points="1152,-523 1152,-557 1300,-557 1300,-523 1152,-523"/>
<text text-anchor="start" x="1160" y="-544" font-family="Helvetica,sans-Serif" font-size="10.00">source/main/gfx/hydrax</text>
<text text-anchor="middle" x="1226" y="-531" font-family="Helvetica,sans-Serif" font-size="10.00">/GPUNormalMapManager.cpp</text>
</g>
<!-- Node2 -->
<g id="node3" class="node"><title>Node2</title>
<a xlink:href="_g_p_u_normal_map_manager_8h.html" target="_top" xlink:title="GPUNormalMapManager.h">
<polygon fill="white" stroke="black" points="31.0048,-232.5 31.0048,-253.5 165.005,-253.5 165.005,-232.5 31.0048,-232.5"/>
<text text-anchor="middle" x="98.0048" y="-240.5" font-family="Helvetica,sans-Serif" font-size="10.00">GPUNormalMapManager.h</text>
</a>
</g>
<!-- Node1&#45;&gt;Node2 -->
<g id="edge2" class="edge"><title>Node1&#45;&gt;Node2</title>
<path fill="none" stroke="midnightblue" d="M1151.85,-536.308C890.218,-522.799 26.0048,-473.872 26.0048,-417 26.0048,-417 26.0048,-417 26.0048,-359 26.0048,-319.313 56.8053,-281.917 78.116,-260.794"/>
<polygon fill="midnightblue" stroke="midnightblue" points="80.6511,-263.212 85.4634,-253.773 75.8153,-258.151 80.6511,-263.212"/>
</g>
<!-- Node8 -->
<g id="node19" class="node"><title>Node8</title>
<a xlink:href="_hydrax_8h.html" target="_top" xlink:title="Hydrax.h">
<polygon fill="white" stroke="black" points="2399,-464.5 2399,-485.5 2455,-485.5 2455,-464.5 2399,-464.5"/>
<text text-anchor="middle" x="2427" y="-472.5" font-family="Helvetica,sans-Serif" font-size="10.00">Hydrax.h</text>
</a>
</g>
<!-- Node1&#45;&gt;Node8 -->
<g id="edge22" class="edge"><title>Node1&#45;&gt;Node8</title>
<path fill="none" stroke="midnightblue" d="M1300.23,-535.983C1529.04,-523.599 2218.36,-486.292 2388.65,-477.076"/>
<polygon fill="midnightblue" stroke="midnightblue" points="2389.09,-480.557 2398.88,-476.522 2388.71,-473.568 2389.09,-480.557"/>
</g>
<!-- Node3 -->
<g id="node5" class="node"><title>Node3</title>
<a xlink:href="_prerequisites_8h.html" target="_top" xlink:title="Prerequisites.h">
<polygon fill="white" stroke="black" points="2367,-58.5 2367,-79.5 2449,-79.5 2449,-58.5 2367,-58.5"/>
<text text-anchor="middle" x="2408" y="-66.5" font-family="Helvetica,sans-Serif" font-size="10.00">Prerequisites.h</text>
</a>
</g>
<!-- Node2&#45;&gt;Node3 -->
<g id="edge4" class="edge"><title>Node2&#45;&gt;Node3</title>
<path fill="none" stroke="midnightblue" d="M101.032,-232.268C108.91,-206.628 132.727,-142.012 179.005,-116 228.057,-88.4292 2028.09,-72.1593 2356.77,-69.4152"/>
<polygon fill="midnightblue" stroke="midnightblue" points="2356.98,-72.9137 2366.95,-69.3306 2356.92,-65.9139 2356.98,-72.9137"/>
</g>
<!-- Node5 -->
<g id="node9" class="node"><title>Node5</title>
<a xlink:href="_enums_8h.html" target="_top" xlink:title="Enums.h">
<polygon fill="white" stroke="black" points="2229,-116.5 2229,-137.5 2285,-137.5 2285,-116.5 2229,-116.5"/>
<text text-anchor="middle" x="2257" y="-124.5" font-family="Helvetica,sans-Serif" font-size="10.00">Enums.h</text>
</a>
</g>
<!-- Node2&#45;&gt;Node5 -->
<g id="edge8" class="edge"><title>Node2&#45;&gt;Node5</title>
<path fill="none" stroke="midnightblue" d="M165.048,-235.238C293.106,-220.724 581.444,-189.54 825.005,-174 1377.62,-138.741 2051.98,-129.263 2218.48,-127.391"/>
<polygon fill="midnightblue" stroke="midnightblue" points="2218.75,-130.888 2228.71,-127.278 2218.67,-123.888 2218.75,-130.888"/>
</g>
<!-- Node6 -->
<g id="node12" class="node"><title>Node6</title>
<a xlink:href="_rtt_manager_8h.html" target="_top" xlink:title="RttManager.h">
<polygon fill="white" stroke="black" points="834.005,-174.5 834.005,-195.5 910.005,-195.5 910.005,-174.5 834.005,-174.5"/>
<text text-anchor="middle" x="872.005" y="-182.5" font-family="Helvetica,sans-Serif" font-size="10.00">RttManager.h</text>
</a>
</g>
<!-- Node2&#45;&gt;Node6 -->
<g id="edge12" class="edge"><title>Node2&#45;&gt;Node6</title>
<path fill="none" stroke="midnightblue" d="M165.01,-236.563C181.969,-235.001 200.152,-233.383 217.005,-232 443.805,-213.383 715.129,-195.224 823.667,-188.127"/>
<polygon fill="midnightblue" stroke="midnightblue" points="824.209,-191.599 833.96,-187.456 823.754,-184.614 824.209,-191.599"/>
</g>
<!-- Node4 -->
<g id="node7" class="node"><title>Node4</title>
<polygon fill="white" stroke="#bfbfbf" points="2385,-0.5 2385,-21.5 2431,-21.5 2431,-0.5 2385,-0.5"/>
<text text-anchor="middle" x="2408" y="-8.5" font-family="Helvetica,sans-Serif" font-size="10.00">Ogre.h</text>
</g>
<!-- Node3&#45;&gt;Node4 -->
<g id="edge6" class="edge"><title>Node3&#45;&gt;Node4</title>
<path fill="none" stroke="midnightblue" d="M2408,-58.3619C2408,-50.9219 2408,-40.7427 2408,-31.7276"/>
<polygon fill="midnightblue" stroke="midnightblue" points="2411.5,-31.5706 2408,-21.5707 2404.5,-31.5707 2411.5,-31.5706"/>
</g>
<!-- Node5&#45;&gt;Node3 -->
<g id="edge10" class="edge"><title>Node5&#45;&gt;Node3</title>
<path fill="none" stroke="midnightblue" d="M2284.35,-116.497C2308.65,-107.164 2344.36,-93.4447 2371.17,-83.1475"/>
<polygon fill="midnightblue" stroke="midnightblue" points="2372.53,-86.376 2380.61,-79.5231 2370.02,-79.8415 2372.53,-86.376"/>
</g>
<!-- Node6&#45;&gt;Node3 -->
<g id="edge14" class="edge"><title>Node6&#45;&gt;Node3</title>
<path fill="none" stroke="midnightblue" d="M910.126,-175.542C913.119,-174.963 916.105,-174.439 919.005,-174 1478.19,-89.3996 2166.08,-72.7337 2356.86,-69.6576"/>
<polygon fill="midnightblue" stroke="midnightblue" points="2356.94,-73.157 2366.88,-69.5013 2356.83,-66.1578 2356.94,-73.157"/>
</g>
<!-- Node6&#45;&gt;Node5 -->
<g id="edge16" class="edge"><title>Node6&#45;&gt;Node5</title>
<path fill="none" stroke="midnightblue" d="M910.109,-175.427C913.107,-174.875 916.097,-174.388 919.005,-174 1180.18,-139.189 2028.14,-129.174 2218.73,-127.338"/>
<polygon fill="midnightblue" stroke="midnightblue" points="2218.86,-130.837 2228.83,-127.242 2218.8,-123.837 2218.86,-130.837"/>
</g>
<!-- Node7 -->
<g id="node16" class="node"><title>Node7</title>
<a xlink:href="_help_8h.html" target="_top" xlink:title="Help.h">
<polygon fill="white" stroke="black" points="2486.5,-116.5 2486.5,-137.5 2531.5,-137.5 2531.5,-116.5 2486.5,-116.5"/>
<text text-anchor="middle" x="2509" y="-124.5" font-family="Helvetica,sans-Serif" font-size="10.00">Help.h</text>
</a>
</g>
<!-- Node6&#45;&gt;Node7 -->
<g id="edge18" class="edge"><title>Node6&#45;&gt;Node7</title>
<path fill="none" stroke="midnightblue" d="M910.105,-175.398C913.104,-174.852 916.096,-174.375 919.005,-174 1222.16,-134.97 1988.57,-149.81 2294,-138 2358.6,-135.503 2434.04,-131.359 2476.19,-128.934"/>
<polygon fill="midnightblue" stroke="midnightblue" points="2476.64,-132.414 2486.42,-128.341 2476.23,-125.426 2476.64,-132.414"/>
</g>
<!-- Node7&#45;&gt;Node3 -->
<g id="edge20" class="edge"><title>Node7&#45;&gt;Node3</title>
<path fill="none" stroke="midnightblue" d="M2490.48,-116.362C2475.1,-107.532 2453.01,-94.844 2435.56,-84.8224"/>
<polygon fill="midnightblue" stroke="midnightblue" points="2436.83,-81.5154 2426.41,-79.5707 2433.34,-87.5857 2436.83,-81.5154"/>
</g>
<!-- Node8&#45;&gt;Node2 -->
<g id="edge120" class="edge"><title>Node8&#45;&gt;Node2</title>
<path fill="none" stroke="midnightblue" d="M2398.86,-474.709C2145.23,-472.046 261.455,-451.495 209.005,-428 141.854,-397.92 112.399,-305.068 102.329,-263.494"/>
<polygon fill="midnightblue" stroke="midnightblue" points="105.721,-262.627 100.081,-253.659 98.8973,-264.187 105.721,-262.627"/>
</g>
<!-- Node8&#45;&gt;Node3 -->
<g id="edge24" class="edge"><title>Node8&#45;&gt;Node3</title>
<path fill="none" stroke="midnightblue" d="M2455.27,-472.348C2542.08,-463.431 2799,-430.963 2799,-359 2799,-359 2799,-359 2799,-185 2799,-114.934 2565.32,-83.8732 2459.27,-73.3848"/>
<polygon fill="midnightblue" stroke="midnightblue" points="2459.4,-69.8815 2449.11,-72.4047 2458.73,-76.8491 2459.4,-69.8815"/>
</g>
<!-- Node8&#45;&gt;Node5 -->
<g id="edge66" class="edge"><title>Node8&#45;&gt;Node5</title>
<path fill="none" stroke="midnightblue" d="M2421.73,-464.203C2397.69,-414.981 2298.27,-211.465 2266.68,-146.81"/>
<polygon fill="midnightblue" stroke="midnightblue" points="2269.75,-145.12 2262.22,-137.671 2263.46,-148.192 2269.75,-145.12"/>
</g>
<!-- Node8&#45;&gt;Node6 -->
<g id="edge90" class="edge"><title>Node8&#45;&gt;Node6</title>
<path fill="none" stroke="midnightblue" d="M2398.86,-474.372C2154.78,-468.648 401.631,-421.797 250.005,-254 243.449,-246.745 243.356,-239.17 250.005,-232 252.446,-229.368 678.04,-198.818 823.74,-188.432"/>
<polygon fill="midnightblue" stroke="midnightblue" points="824.011,-191.921 833.737,-187.719 823.514,-184.939 824.011,-191.921"/>
</g>
<!-- Node8&#45;&gt;Node7 -->
<g id="edge68" class="edge"><title>Node8&#45;&gt;Node7</title>
<path fill="none" stroke="midnightblue" d="M2444.06,-464.493C2470.91,-446.491 2520,-407.01 2520,-359 2520,-359 2520,-359 2520,-301 2520,-245.494 2514.36,-180.226 2511.16,-147.662"/>
<polygon fill="midnightblue" stroke="midnightblue" points="2514.63,-147.176 2510.14,-137.578 2507.66,-147.879 2514.63,-147.176"/>
</g>
<!-- Node9 -->
<g id="node22" class="node"><title>Node9</title>
<a xlink:href="_ro_r_prerequisites_8h.html" target="_top" xlink:title="RoRPrerequisites.h">
<polygon fill="white" stroke="black" points="1248,-290.5 1248,-311.5 1350,-311.5 1350,-290.5 1248,-290.5"/>
<text text-anchor="middle" x="1299" y="-298.5" font-family="Helvetica,sans-Serif" font-size="10.00">RoRPrerequisites.h</text>
</a>
</g>
<!-- Node8&#45;&gt;Node9 -->
<g id="edge26" class="edge"><title>Node8&#45;&gt;Node9</title>
<path fill="none" stroke="midnightblue" d="M2398.69,-470.758C2304.52,-456.636 1993.22,-409.848 1736,-370 1601.8,-349.209 1444.52,-324.222 1360.05,-310.754"/>
<polygon fill="midnightblue" stroke="midnightblue" points="1360.55,-307.288 1350.12,-309.169 1359.44,-314.201 1360.55,-307.288"/>
</g>
<!-- Node28 -->
<g id="node63" class="node"><title>Node28</title>
<a xlink:href="_mesh_8h.html" target="_top" xlink:title="Mesh.h">
<polygon fill="white" stroke="black" points="2440.5,-232.5 2440.5,-253.5 2489.5,-253.5 2489.5,-232.5 2440.5,-232.5"/>
<text text-anchor="middle" x="2465" y="-240.5" font-family="Helvetica,sans-Serif" font-size="10.00">Mesh.h</text>
</a>
</g>
<!-- Node8&#45;&gt;Node28 -->
<g id="edge70" class="edge"><title>Node8&#45;&gt;Node28</title>
<path fill="none" stroke="midnightblue" d="M2430.73,-464.3C2433.88,-454.855 2438.32,-440.659 2441,-428 2453.52,-369.081 2460.52,-298.132 2463.41,-263.727"/>
<polygon fill="midnightblue" stroke="midnightblue" points="2466.92,-263.781 2464.23,-253.531 2459.94,-263.216 2466.92,-263.781"/>
</g>
<!-- Node29 -->
<g id="node67" class="node"><title>Node29</title>
<a xlink:href="_image_8h.html" target="_top" xlink:title="Image.h">
<polygon fill="white" stroke="black" points="2569,-174.5 2569,-195.5 2621,-195.5 2621,-174.5 2569,-174.5"/>
<text text-anchor="middle" x="2595" y="-182.5" font-family="Helvetica,sans-Serif" font-size="10.00">Image.h</text>
</a>
</g>
<!-- Node8&#45;&gt;Node29 -->
<g id="edge82" class="edge"><title>Node8&#45;&gt;Node29</title>
<path fill="none" stroke="midnightblue" d="M2455.36,-467.87C2519.46,-450.92 2670,-406.098 2670,-359 2670,-359 2670,-359 2670,-301 2670,-269.192 2668.19,-258.768 2651,-232 2643.32,-220.032 2631.64,-209.536 2620.93,-201.517"/>
<polygon fill="midnightblue" stroke="midnightblue" points="2622.82,-198.569 2612.64,-195.636 2618.77,-204.278 2622.82,-198.569"/>
</g>
<!-- Node30 -->
<g id="node72" class="node"><title>Node30</title>
<a xlink:href="_material_manager_8h.html" target="_top" xlink:title="MaterialManager.h">
<polygon fill="white" stroke="black" points="2226.5,-290.5 2226.5,-311.5 2323.5,-311.5 2323.5,-290.5 2226.5,-290.5"/>
<text text-anchor="middle" x="2275" y="-298.5" font-family="Helvetica,sans-Serif" font-size="10.00">MaterialManager.h</text>
</a>
</g>
<!-- Node8&#45;&gt;Node30 -->
<g id="edge84" class="edge"><title>Node8&#45;&gt;Node30</title>
<path fill="none" stroke="midnightblue" d="M2417.73,-464.377C2392.66,-435.688 2323.36,-356.348 2291.46,-319.835"/>
<polygon fill="midnightblue" stroke="midnightblue" points="2293.77,-317.156 2284.55,-311.928 2288.49,-321.761 2293.77,-317.156"/>
</g>
<!-- Node31 -->
<g id="node77" class="node"><title>Node31</title>
<a xlink:href="_texture_manager_8h.html" target="_top" xlink:title="TextureManager.h">
<polygon fill="white" stroke="black" points="2547.5,-232.5 2547.5,-253.5 2642.5,-253.5 2642.5,-232.5 2547.5,-232.5"/>
<text text-anchor="middle" x="2595" y="-240.5" font-family="Helvetica,sans-Serif" font-size="10.00">TextureManager.h</text>
</a>
</g>
<!-- Node8&#45;&gt;Node31 -->
<g id="edge92" class="edge"><title>Node8&#45;&gt;Node31</title>
<path fill="none" stroke="midnightblue" d="M2455.36,-469.331C2479.43,-463.112 2513.26,-450.822 2534,-428 2577.29,-380.372 2589.93,-301.317 2593.57,-263.883"/>
<polygon fill="midnightblue" stroke="midnightblue" points="2597.08,-263.942 2594.43,-253.682 2590.1,-263.352 2597.08,-263.942"/>
</g>
<!-- Node32 -->
<g id="node82" class="node"><title>Node32</title>
<a xlink:href="_god_rays_manager_8h.html" target="_top" xlink:title="GodRaysManager.h">
<polygon fill="white" stroke="black" points="2202,-406.5 2202,-427.5 2306,-427.5 2306,-406.5 2202,-406.5"/>
<text text-anchor="middle" x="2254" y="-414.5" font-family="Helvetica,sans-Serif" font-size="10.00">GodRaysManager.h</text>
</a>
</g>
<!-- Node8&#45;&gt;Node32 -->
<g id="edge100" class="edge"><title>Node8&#45;&gt;Node32</title>
<path fill="none" stroke="midnightblue" d="M2398.82,-465.552C2370.62,-456.098 2326.95,-441.454 2294.93,-430.72"/>
<polygon fill="midnightblue" stroke="midnightblue" points="2295.99,-427.384 2285.4,-427.524 2293.76,-434.021 2295.99,-427.384"/>
</g>
<!-- Node36 -->
<g id="node94" class="node"><title>Node36</title>
<a xlink:href="_decals_manager_8h.html" target="_top" xlink:title="DecalsManager.h">
<polygon fill="white" stroke="black" points="2826.5,-406.5 2826.5,-427.5 2919.5,-427.5 2919.5,-406.5 2826.5,-406.5"/>
<text text-anchor="middle" x="2873" y="-414.5" font-family="Helvetica,sans-Serif" font-size="10.00">DecalsManager.h</text>
</a>
</g>
<!-- Node8&#45;&gt;Node36 -->
<g id="edge116" class="edge"><title>Node8&#45;&gt;Node36</title>
<path fill="none" stroke="midnightblue" d="M2455.17,-472.157C2519.01,-465.586 2679.53,-448.343 2813,-428 2814.08,-427.836 2815.16,-427.668 2816.25,-427.496"/>
<polygon fill="midnightblue" stroke="midnightblue" points="2816.91,-430.935 2826.21,-425.86 2815.78,-424.028 2816.91,-430.935"/>
</g>
<!-- Node37 -->
<g id="node98" class="node"><title>Node37</title>
<a xlink:href="_cfg_file_manager_8h.html" target="_top" xlink:title="CfgFileManager.h">
<polygon fill="white" stroke="black" points="2677,-174.5 2677,-195.5 2771,-195.5 2771,-174.5 2677,-174.5"/>
<text text-anchor="middle" x="2724" y="-182.5" font-family="Helvetica,sans-Serif" font-size="10.00">CfgFileManager.h</text>
</a>
</g>
<!-- Node8&#45;&gt;Node37 -->
<g id="edge122" class="edge"><title>Node8&#45;&gt;Node37</title>
<path fill="none" stroke="midnightblue" d="M2455.24,-469.927C2527.96,-456.065 2716,-414.822 2716,-359 2716,-359 2716,-359 2716,-301 2716,-267.518 2719.36,-228.729 2721.73,-205.564"/>
<polygon fill="midnightblue" stroke="midnightblue" points="2725.22,-205.852 2722.79,-195.539 2718.26,-205.115 2725.22,-205.852"/>
</g>
<!-- Node38 -->
<g id="node102" class="node"><title>Node38</title>
<a xlink:href="_module_8h.html" target="_top" xlink:title="Module.h">
<polygon fill="white" stroke="black" points="164.005,-348.5 164.005,-369.5 220.005,-369.5 220.005,-348.5 164.005,-348.5"/>
<text text-anchor="middle" x="192.005" y="-356.5" font-family="Helvetica,sans-Serif" font-size="10.00">Module.h</text>
</a>
</g>
<!-- Node8&#45;&gt;Node38 -->
<g id="edge128" class="edge"><title>Node8&#45;&gt;Node38</title>
<path fill="none" stroke="midnightblue" d="M2398.75,-474.772C2146.1,-472.685 283.216,-456.354 234.005,-428 215.764,-417.49 204.474,-395.58 198.255,-379.253"/>
<polygon fill="midnightblue" stroke="midnightblue" points="201.459,-377.81 194.878,-369.507 194.844,-380.102 201.459,-377.81"/>
</g>
<!-- Node10 -->
<g id="node24" class="node"><title>Node10</title>
<polygon fill="white" stroke="#bfbfbf" points="1544.5,-232.5 1544.5,-253.5 1659.5,-253.5 1659.5,-232.5 1544.5,-232.5"/>
<text text-anchor="middle" x="1602" y="-240.5" font-family="Helvetica,sans-Serif" font-size="10.00">OgreAxisAlignedBox.h</text>
</g>
<!-- Node9&#45;&gt;Node10 -->
<g id="edge28" class="edge"><title>Node9&#45;&gt;Node10</title>
<path fill="none" stroke="midnightblue" d="M1350.06,-291.227C1401.51,-281.379 1481.07,-266.149 1536.99,-255.445"/>
<polygon fill="midnightblue" stroke="midnightblue" points="1537.98,-258.818 1547.15,-253.501 1536.67,-251.943 1537.98,-258.818"/>
</g>
<!-- Node11 -->
<g id="node26" class="node"><title>Node11</title>
<polygon fill="white" stroke="#bfbfbf" points="1676.5,-232.5 1676.5,-253.5 1775.5,-253.5 1775.5,-232.5 1676.5,-232.5"/>
<text text-anchor="middle" x="1726" y="-240.5" font-family="Helvetica,sans-Serif" font-size="10.00">OgreColourValue.h</text>
</g>
<!-- Node9&#45;&gt;Node11 -->
<g id="edge30" class="edge"><title>Node9&#45;&gt;Node11</title>
<path fill="none" stroke="midnightblue" d="M1350.18,-295.476C1419.6,-287.764 1547.7,-272.754 1666.38,-254.193"/>
<polygon fill="midnightblue" stroke="midnightblue" points="1667.03,-257.634 1676.37,-252.62 1665.94,-250.719 1667.03,-257.634"/>
</g>
<!-- Node12 -->
<g id="node28" class="node"><title>Node12</title>
<polygon fill="white" stroke="#bfbfbf" points="1792.5,-232.5 1792.5,-253.5 1895.5,-253.5 1895.5,-232.5 1792.5,-232.5"/>
<text text-anchor="middle" x="1844" y="-240.5" font-family="Helvetica,sans-Serif" font-size="10.00">OgreHeaderPrefix.h</text>
</g>
<!-- Node9&#45;&gt;Node12 -->
<g id="edge32" class="edge"><title>Node9&#45;&gt;Node12</title>
<path fill="none" stroke="midnightblue" d="M1350.15,-297.476C1436.95,-291.182 1618.84,-276.642 1782.11,-254.18"/>
<polygon fill="midnightblue" stroke="midnightblue" points="1782.92,-257.602 1792.34,-252.759 1781.95,-250.669 1782.92,-257.602"/>
</g>
<!-- Node13 -->
<g id="node30" class="node"><title>Node13</title>
<polygon fill="white" stroke="#bfbfbf" points="1912.5,-232.5 1912.5,-253.5 2011.5,-253.5 2011.5,-232.5 1912.5,-232.5"/>
<text text-anchor="middle" x="1962" y="-240.5" font-family="Helvetica,sans-Serif" font-size="10.00">OgreLogManager.h</text>
</g>
<!-- Node9&#45;&gt;Node13 -->
<g id="edge34" class="edge"><title>Node9&#45;&gt;Node13</title>
<path fill="none" stroke="midnightblue" d="M1350.2,-298.924C1453.04,-294.342 1692.22,-281.612 1902.4,-254.102"/>
<polygon fill="midnightblue" stroke="midnightblue" points="1902.93,-257.563 1912.39,-252.781 1902.02,-250.623 1902.93,-257.563"/>
</g>
<!-- Node14 -->
<g id="node32" class="node"><title>Node14</title>
<polygon fill="white" stroke="#bfbfbf" points="2028.5,-232.5 2028.5,-253.5 2121.5,-253.5 2121.5,-232.5 2028.5,-232.5"/>
<text text-anchor="middle" x="2075" y="-240.5" font-family="Helvetica,sans-Serif" font-size="10.00">OgreQuaternion.h</text>
</g>
<!-- Node9&#45;&gt;Node14 -->
<g id="edge36" class="edge"><title>Node9&#45;&gt;Node14</title>
<path fill="none" stroke="midnightblue" d="M1350.37,-299.982C1467.31,-297.165 1762.43,-287.222 2018.04,-254.124"/>
<polygon fill="midnightblue" stroke="midnightblue" points="2018.81,-257.554 2028.27,-252.785 2017.9,-250.613 2018.81,-257.554"/>
</g>
<!-- Node15 -->
<g id="node34" class="node"><title>Node15</title>
<polygon fill="white" stroke="#bfbfbf" points="2138.5,-232.5 2138.5,-253.5 2209.5,-253.5 2209.5,-232.5 2138.5,-232.5"/>
<text text-anchor="middle" x="2174" y="-240.5" font-family="Helvetica,sans-Serif" font-size="10.00">OgreString.h</text>
</g>
<!-- Node9&#45;&gt;Node15 -->
<g id="edge38" class="edge"><title>Node9&#45;&gt;Node15</title>
<path fill="none" stroke="midnightblue" d="M1350.24,-299.369C1503.81,-294.283 1959.64,-277.711 2128.14,-254.023"/>
<polygon fill="midnightblue" stroke="midnightblue" points="2128.71,-257.476 2138.1,-252.562 2127.7,-250.55 2128.71,-257.476"/>
</g>
<!-- Node16 -->
<g id="node36" class="node"><title>Node16</title>
<polygon fill="white" stroke="#bfbfbf" points="259.005,-232.5 259.005,-253.5 373.005,-253.5 373.005,-232.5 259.005,-232.5"/>
<text text-anchor="middle" x="316.005" y="-240.5" font-family="Helvetica,sans-Serif" font-size="10.00">OgreStringConverter.h</text>
</g>
<!-- Node9&#45;&gt;Node16 -->
<g id="edge40" class="edge"><title>Node9&#45;&gt;Node16</title>
<path fill="none" stroke="midnightblue" d="M1247.89,-300.42C1110.01,-298.421 718.783,-289.87 383.587,-254.062"/>
<polygon fill="midnightblue" stroke="midnightblue" points="383.505,-250.533 373.187,-252.94 382.754,-257.492 383.505,-250.533"/>
</g>
<!-- Node17 -->
<g id="node38" class="node"><title>Node17</title>
<polygon fill="white" stroke="#bfbfbf" points="390.505,-232.5 390.505,-253.5 481.505,-253.5 481.505,-232.5 390.505,-232.5"/>
<text text-anchor="middle" x="436.005" y="-240.5" font-family="Helvetica,sans-Serif" font-size="10.00">OgreUTFString.h</text>
</g>
<!-- Node9&#45;&gt;Node17 -->
<g id="edge42" class="edge"><title>Node9&#45;&gt;Node17</title>
<path fill="none" stroke="midnightblue" d="M1247.66,-300.558C1120.85,-298.921 782.656,-291.244 491.915,-254.097"/>
<polygon fill="midnightblue" stroke="midnightblue" points="491.959,-250.574 481.593,-252.763 491.062,-257.516 491.959,-250.574"/>
</g>
<!-- Node18 -->
<g id="node40" class="node"><title>Node18</title>
<polygon fill="white" stroke="#bfbfbf" points="499.005,-232.5 499.005,-253.5 579.005,-253.5 579.005,-232.5 499.005,-232.5"/>
<text text-anchor="middle" x="539.005" y="-240.5" font-family="Helvetica,sans-Serif" font-size="10.00">OgreVector2.h</text>
</g>
<!-- Node9&#45;&gt;Node18 -->
<g id="edge44" class="edge"><title>Node9&#45;&gt;Node18</title>
<path fill="none" stroke="midnightblue" d="M1247.86,-300.329C1132.12,-298.229 841.293,-289.68 589.109,-253.96"/>
<polygon fill="midnightblue" stroke="midnightblue" points="589.418,-250.468 579.022,-252.514 588.424,-257.398 589.418,-250.468"/>
</g>
<!-- Node19 -->
<g id="node42" class="node"><title>Node19</title>
<polygon fill="white" stroke="#bfbfbf" points="597.005,-232.5 597.005,-253.5 677.005,-253.5 677.005,-232.5 597.005,-232.5"/>
<text text-anchor="middle" x="637.005" y="-240.5" font-family="Helvetica,sans-Serif" font-size="10.00">OgreVector3.h</text>
</g>
<!-- Node9&#45;&gt;Node19 -->
<g id="edge46" class="edge"><title>Node9&#45;&gt;Node19</title>
<path fill="none" stroke="midnightblue" d="M1247.86,-299.572C1143.97,-296.131 900.659,-285.333 687.17,-253.987"/>
<polygon fill="midnightblue" stroke="midnightblue" points="687.434,-250.488 677.028,-252.479 686.404,-257.412 687.434,-250.488"/>
</g>
<!-- Node20 -->
<g id="node44" class="node"><title>Node20</title>
<polygon fill="white" stroke="#bfbfbf" points="822.505,-232.5 822.505,-253.5 925.505,-253.5 925.505,-232.5 822.505,-232.5"/>
<text text-anchor="middle" x="874.005" y="-240.5" font-family="Helvetica,sans-Serif" font-size="10.00">OgrePrerequisites.h</text>
</g>
<!-- Node9&#45;&gt;Node20 -->
<g id="edge48" class="edge"><title>Node9&#45;&gt;Node20</title>
<path fill="none" stroke="midnightblue" d="M1247.8,-295.278C1179.08,-287.407 1052.98,-272.287 935.899,-254.241"/>
<polygon fill="midnightblue" stroke="midnightblue" points="936.104,-250.731 925.686,-252.655 935.031,-257.648 936.104,-250.731"/>
</g>
<!-- Node21 -->
<g id="node46" class="node"><title>Node21</title>
<polygon fill="white" stroke="#bfbfbf" points="943.005,-232.5 943.005,-253.5 1093,-253.5 1093,-232.5 943.005,-232.5"/>
<text text-anchor="middle" x="1018" y="-240.5" font-family="Helvetica,sans-Serif" font-size="10.00">Overlay/OgreOverlaySystem.h</text>
</g>
<!-- Node9&#45;&gt;Node21 -->
<g id="edge50" class="edge"><title>Node9&#45;&gt;Node21</title>
<path fill="none" stroke="midnightblue" d="M1248.12,-290.497C1200.52,-280.673 1129.38,-265.988 1078.81,-255.551"/>
<polygon fill="midnightblue" stroke="midnightblue" points="1079.49,-252.117 1068.99,-253.523 1078.07,-258.972 1079.49,-252.117"/>
</g>
<!-- Node22 -->
<g id="node48" class="node"><title>Node22</title>
<a xlink:href="_forward_declarations_8h.html" target="_top" xlink:title="Global forward declarations. ">
<polygon fill="white" stroke="black" points="1220.5,-174.5 1220.5,-195.5 1335.5,-195.5 1335.5,-174.5 1220.5,-174.5"/>
<text text-anchor="middle" x="1278" y="-182.5" font-family="Helvetica,sans-Serif" font-size="10.00">ForwardDeclarations.h</text>
</a>
</g>
<!-- Node9&#45;&gt;Node22 -->
<g id="edge52" class="edge"><title>Node9&#45;&gt;Node22</title>
<path fill="none" stroke="midnightblue" d="M1325.85,-290.321C1352.43,-278.066 1387.13,-256.477 1372,-232 1362.7,-216.95 1346.96,-206.558 1330.99,-199.454"/>
<polygon fill="midnightblue" stroke="midnightblue" points="1332.19,-196.164 1321.61,-195.641 1329.56,-202.649 1332.19,-196.164"/>
</g>
<!-- Node23 -->
<g id="node50" class="node"><title>Node23</title>
<a xlink:href="_global_environment_8h.html" target="_top" xlink:title="GlobalEnvironment.h">
<polygon fill="white" stroke="black" points="1110.5,-232.5 1110.5,-253.5 1217.5,-253.5 1217.5,-232.5 1110.5,-232.5"/>
<text text-anchor="middle" x="1164" y="-240.5" font-family="Helvetica,sans-Serif" font-size="10.00">GlobalEnvironment.h</text>
</a>
</g>
<!-- Node9&#45;&gt;Node23 -->
<g id="edge54" class="edge"><title>Node9&#45;&gt;Node23</title>
<path fill="none" stroke="midnightblue" d="M1274.56,-290.497C1253.19,-281.315 1221.94,-267.889 1198.11,-257.652"/>
<polygon fill="midnightblue" stroke="midnightblue" points="1199.3,-254.353 1188.73,-253.621 1196.53,-260.784 1199.3,-254.353"/>
</g>
<!-- Node24 -->
<g id="node53" class="node"><title>Node24</title>
<a xlink:href="_zeroed_memory_allocator_8h.html" target="_top" xlink:title="ZeroedMemoryAllocator.h">
<polygon fill="white" stroke="black" points="1235,-232.5 1235,-253.5 1363,-253.5 1363,-232.5 1235,-232.5"/>
<text text-anchor="middle" x="1299" y="-240.5" font-family="Helvetica,sans-Serif" font-size="10.00">ZeroedMemoryAllocator.h</text>
</a>
</g>
<!-- Node9&#45;&gt;Node24 -->
<g id="edge58" class="edge"><title>Node9&#45;&gt;Node24</title>
<path fill="none" stroke="midnightblue" d="M1299,-290.362C1299,-282.922 1299,-272.743 1299,-263.728"/>
<polygon fill="midnightblue" stroke="midnightblue" points="1302.5,-263.571 1299,-253.571 1295.5,-263.571 1302.5,-263.571"/>
</g>
<!-- Node25 -->
<g id="node55" class="node"><title>Node25</title>
<a xlink:href="_bit_flags_8h.html" target="_top" xlink:title="../common/BitFlags.h">
<polygon fill="white" stroke="black" points="695.005,-232.5 695.005,-253.5 805.005,-253.5 805.005,-232.5 695.005,-232.5"/>
<text text-anchor="middle" x="750.005" y="-240.5" font-family="Helvetica,sans-Serif" font-size="10.00">../common/BitFlags.h</text>
</a>
</g>
<!-- Node9&#45;&gt;Node25 -->
<g id="edge60" class="edge"><title>Node9&#45;&gt;Node25</title>
<path fill="none" stroke="midnightblue" d="M1247.89,-297.291C1161.12,-290.723 979.288,-275.784 815.393,-254.109"/>
<polygon fill="midnightblue" stroke="midnightblue" points="815.498,-250.592 805.123,-252.738 814.573,-257.53 815.498,-250.592"/>
</g>
<!-- Node27 -->
<g id="node59" class="node"><title>Node27</title>
<polygon fill="white" stroke="#bfbfbf" points="1418.5,-232.5 1418.5,-253.5 1527.5,-253.5 1527.5,-232.5 1418.5,-232.5"/>
<text text-anchor="middle" x="1473" y="-240.5" font-family="Helvetica,sans-Serif" font-size="10.00">MyGUI_Prerequest.h</text>
</g>
<!-- Node9&#45;&gt;Node27 -->
<g id="edge64" class="edge"><title>Node9&#45;&gt;Node27</title>
<path fill="none" stroke="midnightblue" d="M1330.51,-290.497C1358.88,-281.041 1400.76,-267.083 1431.78,-256.743"/>
<polygon fill="midnightblue" stroke="midnightblue" points="1433.06,-260.006 1441.44,-253.523 1430.84,-253.365 1433.06,-260.006"/>
</g>
<!-- Node23&#45;&gt;Node22 -->
<g id="edge56" class="edge"><title>Node23&#45;&gt;Node22</title>
<path fill="none" stroke="midnightblue" d="M1184.65,-232.497C1202.37,-223.479 1228.15,-210.365 1248.13,-200.201"/>
<polygon fill="midnightblue" stroke="midnightblue" points="1249.8,-203.275 1257.13,-195.621 1246.63,-197.036 1249.8,-203.275"/>
</g>
<!-- Node26 -->
<g id="node57" class="node"><title>Node26</title>
<polygon fill="white" stroke="#bfbfbf" points="928.005,-174.5 928.005,-195.5 974.005,-195.5 974.005,-174.5 928.005,-174.5"/>
<text text-anchor="middle" x="951.005" y="-182.5" font-family="Helvetica,sans-Serif" font-size="10.00">cstdint</text>
</g>
<!-- Node25&#45;&gt;Node26 -->
<g id="edge62" class="edge"><title>Node25&#45;&gt;Node26</title>
<path fill="none" stroke="midnightblue" d="M790.496,-232.469C822.709,-223.927 869.128,-211.258 918.151,-196.15"/>
<polygon fill="midnightblue" stroke="midnightblue" points="919.474,-199.404 927.987,-193.097 917.399,-192.719 919.474,-199.404"/>
</g>
<!-- Node28&#45;&gt;Node3 -->
<g id="edge72" class="edge"><title>Node28&#45;&gt;Node3</title>
<path fill="none" stroke="midnightblue" d="M2461.52,-232.377C2452.29,-204.172 2427.01,-127.012 2414.79,-89.7203"/>
<polygon fill="midnightblue" stroke="midnightblue" points="2418.02,-88.3412 2411.58,-79.9277 2411.37,-90.5204 2418.02,-88.3412"/>
</g>
<!-- Node28&#45;&gt;Node7 -->
<g id="edge74" class="edge"><title>Node28&#45;&gt;Node7</title>
<path fill="none" stroke="midnightblue" d="M2469.07,-232.295C2476.4,-212.959 2491.97,-171.923 2501.35,-147.177"/>
<polygon fill="midnightblue" stroke="midnightblue" points="2504.68,-148.27 2504.95,-137.679 2498.13,-145.788 2504.68,-148.27"/>
</g>
<!-- Node28&#45;&gt;Node29 -->
<g id="edge76" class="edge"><title>Node28&#45;&gt;Node29</title>
<path fill="none" stroke="midnightblue" d="M2488.55,-232.497C2509.03,-223.356 2538.95,-210.008 2561.86,-199.788"/>
<polygon fill="midnightblue" stroke="midnightblue" points="2563.49,-202.892 2571.2,-195.621 2560.64,-196.499 2563.49,-202.892"/>
</g>
<!-- Node29&#45;&gt;Node3 -->
<g id="edge78" class="edge"><title>Node29&#45;&gt;Node3</title>
<path fill="none" stroke="midnightblue" d="M2589.13,-174.352C2580.32,-159.318 2562.32,-131.931 2540,-116 2515.86,-98.7683 2484.78,-87.2894 2458.84,-79.9922"/>
<polygon fill="midnightblue" stroke="midnightblue" points="2459.74,-76.61 2449.17,-77.3969 2457.92,-83.3706 2459.74,-76.61"/>
</g>
<!-- Node29&#45;&gt;Node7 -->
<g id="edge80" class="edge"><title>Node29&#45;&gt;Node7</title>
<path fill="none" stroke="midnightblue" d="M2579.23,-174.362C2566.38,-165.696 2548.02,-153.313 2533.3,-143.382"/>
<polygon fill="midnightblue" stroke="midnightblue" points="2534.93,-140.26 2524.68,-137.571 2531.01,-146.064 2534.93,-140.26"/>
</g>
<!-- Node30&#45;&gt;Node3 -->
<g id="edge86" class="edge"><title>Node30&#45;&gt;Node3</title>
<path fill="none" stroke="midnightblue" d="M2280.22,-290.326C2294.41,-261.564 2335.25,-180.277 2375,-116 2380.92,-106.434 2388.03,-96.1717 2394.13,-87.6847"/>
<polygon fill="midnightblue" stroke="midnightblue" points="2396.98,-89.7291 2400.04,-79.5865 2391.32,-85.6056 2396.98,-89.7291"/>
</g>
<!-- Node30&#45;&gt;Node5 -->
<g id="edge88" class="edge"><title>Node30&#45;&gt;Node5</title>
<path fill="none" stroke="midnightblue" d="M2273.91,-290.377C2271,-262.293 2263.07,-185.673 2259.2,-148.203"/>
<polygon fill="midnightblue" stroke="midnightblue" points="2262.65,-147.514 2258.14,-137.928 2255.68,-148.235 2262.65,-147.514"/>
</g>
<!-- Node31&#45;&gt;Node3 -->
<g id="edge94" class="edge"><title>Node31&#45;&gt;Node3</title>
<path fill="none" stroke="midnightblue" d="M2606.89,-232.399C2620.4,-218.985 2639.45,-195.085 2630,-174 2600.88,-108.981 2515.19,-84.1059 2459.19,-74.6701"/>
<polygon fill="midnightblue" stroke="midnightblue" points="2459.52,-71.1792 2449.1,-73.0817 2458.43,-78.0941 2459.52,-71.1792"/>
</g>
<!-- Node31&#45;&gt;Node5 -->
<g id="edge96" class="edge"><title>Node31&#45;&gt;Node5</title>
<path fill="none" stroke="midnightblue" d="M2564.11,-232.398C2502.11,-211.119 2362.67,-163.264 2295.12,-140.081"/>
<polygon fill="midnightblue" stroke="midnightblue" points="2295.9,-136.648 2285.3,-136.712 2293.63,-143.269 2295.9,-136.648"/>
</g>
<!-- Node31&#45;&gt;Node29 -->
<g id="edge98" class="edge"><title>Node31&#45;&gt;Node29</title>
<path fill="none" stroke="midnightblue" d="M2595,-232.362C2595,-224.922 2595,-214.743 2595,-205.728"/>
<polygon fill="midnightblue" stroke="midnightblue" points="2598.5,-205.571 2595,-195.571 2591.5,-205.571 2598.5,-205.571"/>
</g>
<!-- Node32&#45;&gt;Node3 -->
<g id="edge102" class="edge"><title>Node32&#45;&gt;Node3</title>
<path fill="none" stroke="midnightblue" d="M2270.83,-406.461C2307.02,-382.34 2389,-319.277 2389,-243 2389,-243 2389,-243 2389,-185 2389,-151.175 2396.97,-112.523 2402.59,-89.474"/>
<polygon fill="midnightblue" stroke="midnightblue" points="2405.98,-90.3312 2405.04,-79.7784 2399.19,-88.6159 2405.98,-90.3312"/>
</g>
<!-- Node32&#45;&gt;Node5 -->
<g id="edge114" class="edge"><title>Node32&#45;&gt;Node5</title>
<path fill="none" stroke="midnightblue" d="M2248.99,-406.275C2240.58,-387.612 2223.96,-347.736 2218,-312 2212.7,-280.198 2238.5,-188.267 2250.79,-147.215"/>
<polygon fill="midnightblue" stroke="midnightblue" points="2254.19,-148.092 2253.73,-137.507 2247.49,-146.064 2254.19,-148.092"/>
</g>
<!-- Node33 -->
<g id="node85" class="node"><title>Node33</title>
<a xlink:href="_perlin_8h.html" target="_top" xlink:title="Perlin.h">
<polygon fill="white" stroke="black" points="1745,-348.5 1745,-369.5 1795,-369.5 1795,-348.5 1745,-348.5"/>
<text text-anchor="middle" x="1770" y="-356.5" font-family="Helvetica,sans-Serif" font-size="10.00">Perlin.h</text>
</a>
</g>
<!-- Node32&#45;&gt;Node33 -->
<g id="edge104" class="edge"><title>Node32&#45;&gt;Node33</title>
<path fill="none" stroke="midnightblue" d="M2201.75,-410.738C2102.59,-398.856 1889.54,-373.325 1805.31,-363.231"/>
<polygon fill="midnightblue" stroke="midnightblue" points="1805.58,-359.738 1795.23,-362.023 1804.75,-366.688 1805.58,-359.738"/>
</g>
<!-- Node34 -->
<g id="node87" class="node"><title>Node34</title>
<a xlink:href="_noise_8h.html" target="_top" xlink:title="Noise.h">
<polygon fill="white" stroke="black" points="168.005,-290.5 168.005,-311.5 218.005,-311.5 218.005,-290.5 168.005,-290.5"/>
<text text-anchor="middle" x="193.005" y="-298.5" font-family="Helvetica,sans-Serif" font-size="10.00">Noise.h</text>
</a>
</g>
<!-- Node33&#45;&gt;Node34 -->
<g id="edge106" class="edge"><title>Node33&#45;&gt;Node34</title>
<path fill="none" stroke="midnightblue" d="M1744.92,-358.077C1562.61,-351.372 442.425,-310.173 228.344,-302.3"/>
<polygon fill="midnightblue" stroke="midnightblue" points="228.408,-298.8 218.286,-301.93 228.15,-305.795 228.408,-298.8"/>
</g>
<!-- Node35 -->
<g id="node91" class="node"><title>Node35</title>
<polygon fill="white" stroke="#bfbfbf" points="1741.5,-290.5 1741.5,-311.5 1798.5,-311.5 1798.5,-290.5 1741.5,-290.5"/>
<text text-anchor="middle" x="1770" y="-298.5" font-family="Helvetica,sans-Serif" font-size="10.00">pthread.h</text>
</g>
<!-- Node33&#45;&gt;Node35 -->
<g id="edge112" class="edge"><title>Node33&#45;&gt;Node35</title>
<path fill="none" stroke="midnightblue" d="M1770,-348.362C1770,-340.922 1770,-330.743 1770,-321.728"/>
<polygon fill="midnightblue" stroke="midnightblue" points="1773.5,-321.571 1770,-311.571 1766.5,-321.571 1773.5,-321.571"/>
</g>
<!-- Node34&#45;&gt;Node2 -->
<g id="edge110" class="edge"><title>Node34&#45;&gt;Node2</title>
<path fill="none" stroke="midnightblue" d="M175.58,-290.362C161.118,-281.532 140.335,-268.844 123.921,-258.822"/>
<polygon fill="midnightblue" stroke="midnightblue" points="125.678,-255.794 115.319,-253.571 122.03,-261.769 125.678,-255.794"/>
</g>
<!-- Node34&#45;&gt;Node3 -->
<g id="edge108" class="edge"><title>Node34&#45;&gt;Node3</title>
<path fill="none" stroke="midnightblue" d="M193.37,-290.405C194.521,-274.917 199.109,-246.378 217.005,-232 559.609,43.2533 760.87,-150.34 1199,-116 1646.48,-80.9273 2189.28,-71.6589 2356.5,-69.5531"/>
<polygon fill="midnightblue" stroke="midnightblue" points="2357.01,-73.0472 2366.97,-69.4246 2356.93,-66.0478 2357.01,-73.0472"/>
</g>
<!-- Node36&#45;&gt;Node3 -->
<g id="edge118" class="edge"><title>Node36&#45;&gt;Node3</title>
<path fill="none" stroke="midnightblue" d="M2870.19,-406.212C2865.13,-385.815 2855,-340.129 2855,-301 2855,-301 2855,-301 2855,-185 2855,-149.099 2843.23,-135.366 2813,-116 2783.76,-97.2651 2561.32,-79.6324 2459.1,-72.4231"/>
<polygon fill="midnightblue" stroke="midnightblue" points="2459.22,-68.9235 2449,-71.7176 2458.74,-75.9064 2459.22,-68.9235"/>
</g>
<!-- Node37&#45;&gt;Node3 -->
<g id="edge124" class="edge"><title>Node37&#45;&gt;Node3</title>
<path fill="none" stroke="midnightblue" d="M2717.85,-174.371C2708.26,-158.838 2688.2,-130.243 2663,-116 2628.95,-96.7446 2523.57,-81.9692 2459.43,-74.4674"/>
<polygon fill="midnightblue" stroke="midnightblue" points="2459.46,-70.9473 2449.13,-73.2827 2458.66,-77.9016 2459.46,-70.9473"/>
</g>
<!-- Node37&#45;&gt;Node7 -->
<g id="edge126" class="edge"><title>Node37&#45;&gt;Node7</title>
<path fill="none" stroke="midnightblue" d="M2685.07,-174.497C2643.97,-163.409 2579.92,-146.13 2541.45,-135.754"/>
<polygon fill="midnightblue" stroke="midnightblue" points="2542.36,-132.372 2531.79,-133.147 2540.53,-139.13 2542.36,-132.372"/>
</g>
<!-- Node38&#45;&gt;Node2 -->
<g id="edge140" class="edge"><title>Node38&#45;&gt;Node2</title>
<path fill="none" stroke="midnightblue" d="M183.33,-348.295C167.311,-328.527 132.915,-286.08 113.032,-261.544"/>
<polygon fill="midnightblue" stroke="midnightblue" points="115.674,-259.245 106.659,-253.679 110.235,-263.652 115.674,-259.245"/>
</g>
<!-- Node38&#45;&gt;Node3 -->
<g id="edge130" class="edge"><title>Node38&#45;&gt;Node3</title>
<path fill="none" stroke="midnightblue" d="M163.994,-351.151C124.109,-338.29 52.4192,-308.533 22.0048,-254 -20.9436,-176.993 -10.2262,-179.688 149.005,-116 254.789,-73.6895 2029.47,-69.4653 2356.44,-69.046"/>
<polygon fill="midnightblue" stroke="midnightblue" points="2356.58,-72.5459 2366.58,-69.0336 2356.58,-65.5459 2356.58,-72.5459"/>
</g>
<!-- Node38&#45;&gt;Node9 -->
<g id="edge132" class="edge"><title>Node38&#45;&gt;Node9</title>
<path fill="none" stroke="midnightblue" d="M220.201,-357.523C365.547,-349.907 1031.31,-315.026 1237.77,-304.208"/>
<polygon fill="midnightblue" stroke="midnightblue" points="1238.03,-307.7 1247.83,-303.681 1237.66,-300.709 1238.03,-307.7"/>
</g>
<!-- Node38&#45;&gt;Node28 -->
<g id="edge136" class="edge"><title>Node38&#45;&gt;Node28</title>
<path fill="none" stroke="midnightblue" d="M220.281,-358.745C465.453,-356.491 2224.84,-339.395 2332,-312 2373.08,-301.5 2415.76,-276.402 2441.36,-259.55"/>
<polygon fill="midnightblue" stroke="midnightblue" points="2443.63,-262.239 2449.98,-253.756 2439.73,-256.429 2443.63,-262.239"/>
</g>
<!-- Node38&#45;&gt;Node30 -->
<g id="edge138" class="edge"><title>Node38&#45;&gt;Node30</title>
<path fill="none" stroke="midnightblue" d="M220.266,-358.213C442.145,-352.035 1903.75,-311.337 2216.27,-302.636"/>
<polygon fill="midnightblue" stroke="midnightblue" points="2216.57,-306.129 2226.47,-302.352 2216.37,-299.131 2216.57,-306.129"/>
</g>
<!-- Node38&#45;&gt;Node34 -->
<g id="edge134" class="edge"><title>Node38&#45;&gt;Node34</title>
<path fill="none" stroke="midnightblue" d="M192.188,-348.362C192.316,-340.922 192.492,-330.743 192.647,-321.728"/>
<polygon fill="midnightblue" stroke="midnightblue" points="196.15,-321.63 192.823,-311.571 189.151,-321.509 196.15,-321.63"/>
</g>
</g>
</svg>
        <g id="navigator" transform="translate(0 0)" fill="#404254">
                <rect fill="#f2f5e9" fill-opacity="0.5" stroke="#606060" stroke-width=".5" x="0" y="0" width="60" height="60"/>
                <use id="zoomplus" xlink:href="#zoomPlus" x="17" y="9" onmousedown="handleZoom(evt,'in')"/>
                <use id="zoomminus" xlink:href="#zoomMin" x="42" y="9" onmousedown="handleZoom(evt,'out')"/>
                <use id="reset" xlink:href="#resetDef" x="30" y="36" onmousedown="handleReset()"/>
                <g id="arrowUp" xlink:href="#dirArrow" transform="translate(30 24)" onmousedown="handlePan(0,-1)">
                  <use xlink:href="#rim" fill="#404040">
                        <set attributeName="fill" to="#808080" begin="arrowUp.mouseover" end="arrowUp.mouseout"/>
                  </use>
                  <path fill="none" stroke="white" stroke-width="1.5" d="M0,-3.0v7 M-2.5,-0.5L0,-3.0L2.5,-0.5"/>
                </g>
                <g id="arrowRight" xlink:href="#dirArrow" transform="rotate(90) translate(36 -43)" onmousedown="handlePan(1,0)">
                  <use xlink:href="#rim" fill="#404040">
                        <set attributeName="fill" to="#808080" begin="arrowRight.mouseover" end="arrowRight.mouseout"/>
                  </use>
                  <path fill="none" stroke="white" stroke-width="1.5" d="M0,-3.0v7 M-2.5,-0.5L0,-3.0L2.5,-0.5"/>
                </g>
                <g id="arrowDown" xlink:href="#dirArrow" transform="rotate(180) translate(-30 -48)" onmousedown="handlePan(0,1)">
                  <use xlink:href="#rim" fill="#404040">
                        <set attributeName="fill" to="#808080" begin="arrowDown.mouseover" end="arrowDown.mouseout"/>
                  </use>
                  <path fill="none" stroke="white" stroke-width="1.5" d="M0,-3.0v7 M-2.5,-0.5L0,-3.0L2.5,-0.5"/>
                </g>
                <g id="arrowLeft" xlink:href="#dirArrow" transform="rotate(270) translate(-36 17)" onmousedown="handlePan(-1,0)">
                  <use xlink:href="#rim" fill="#404040">
                        <set attributeName="fill" to="#808080" begin="arrowLeft.mouseover" end="arrowLeft.mouseout"/>
                  </use>
                  <path fill="none" stroke="white" stroke-width="1.5" d="M0,-3.0v7 M-2.5,-0.5L0,-3.0L2.5,-0.5"/>
                </g>
        </g>
        <svg viewBox="0 0 15 15" width="100%" height="30px" preserveAspectRatio="xMaxYMin meet">
         <g id="arrow_out" transform="scale(0.3 0.3)">
          <a xlink:href="_g_p_u_normal_map_manager_8cpp__incl_org.svg" target="_base">
           <rect id="button" ry="5" rx="5" y="6" x="6" height="38" width="38"
                fill="#f2f5e9" fill-opacity="0.5" stroke="#606060" stroke-width="1.0"/>
           <path id="arrow"
             d="M 11.500037,31.436501 C 11.940474,20.09759 22.043105,11.32322 32.158766,21.979434 L 37.068811,17.246167 C 37.068811,17.246167 37.088388,32 37.088388,32 L 22.160133,31.978069 C 22.160133,31.978069 26.997745,27.140456 26.997745,27.140456 C 18.528582,18.264221 13.291696,25.230495 11.500037,31.436501 z"
             style="fill:#404040;"/>
          </a>
         </g>
        </svg>
</svg>
