<?xml version="1.0" encoding="UTF-8" standalone="no"?>
<!DOCTYPE svg PUBLIC "-//W3C//DTD SVG 1.1//EN"
 "http://www.w3.org/Graphics/SVG/1.1/DTD/svg11.dtd">
<!-- Generated by graphviz version 2.26.3 (20100126.1600)
 -->
<!-- Title: G Pages: 1 -->
<!--zoomable 436 -->
<svg id="main" version="1.1" xmlns="http://www.w3.org/2000/svg" xmlns:xlink="http://www.w3.org/1999/xlink" xml:space="preserve" onload="init(evt)">
        <defs>
                <circle id="rim" cx="0" cy="0" r="7"/>
                <circle id="rim2" cx="0" cy="0" r="3.5"/>
                <g id="zoomPlus">
                        <use xlink:href="#rim" fill="#404040">
                                <set attributeName="fill" to="#808080" begin="zoomplus.mouseover" end="zoomplus.mouseout"/>
                        </use>
                        <path d="M-4,0h8M0,-4v8" fill="none" stroke="white" stroke-width="1.5" pointer-events="none"/>
                </g>
                <g id="zoomMin">
                        <use xlink:href="#rim" fill="#404040">
                                <set attributeName="fill" to="#808080" begin="zoomminus.mouseover" end="zoomminus.mouseout"/>
                        </use>
                        <path d="M-4,0h8" fill="none" stroke="white" stroke-width="1.5" pointer-events="none"/>
                </g>
                <g id="dirArrow">
                        <path fill="none" stroke="white" stroke-width="1.5" d="M0,-3.0v7 M-2.5,-0.5L0,-3.0L2.5,-0.5"/>
                </g>
               <g id="resetDef">
                       <use xlink:href="#rim2" fill="#404040">
                               <set attributeName="fill" to="#808080" begin="reset.mouseover" end="reset.mouseout"/>
                       </use>
               </g>
        </defs>

<script type="text/javascript">
var viewWidth = 2024;
var viewHeight = 436;
var sectionId = 'dynsection-0';
</script>
<script xlink:href="svgpan.js"/>
<svg id="graph" class="graph">
<g id="viewport">
<title>G</title>
<polygon fill="white" stroke="white" points="-4,5 -4,-432.296 2021,-432.296 2021,5 -4,5"/>
<!-- Node1 -->
<g id="node1" class="node"><title>Node1</title>
<polygon fill="#bfbfbf" stroke="black" points="682,-406.5 682,-427.5 896,-427.5 896,-406.5 682,-406.5"/>
<text text-anchor="middle" x="789" y="-414.5" font-family="Helvetica,sans-Serif" font-size="10.00">source/main/gui/panels/GUI_GameSettings.h</text>
</g>
<!-- Node1&#45;&gt;Node1 -->
<g id="edge62" class="edge"><title>Node1&#45;&gt;Node1</title>
<path fill="none" stroke="midnightblue" d="M852.352,-427.508C884.815,-429.084 914,-425.581 914,-417 914,-409.324 890.646,-405.711 862.483,-406.163"/>
<polygon fill="midnightblue" stroke="midnightblue" points="862.233,-402.669 852.352,-406.492 862.46,-409.665 862.233,-402.669"/>
</g>
<!-- Node2 -->
<g id="node3" class="node"><title>Node2</title>
<a xlink:href="_forward_declarations_8h.html" target="_top" xlink:title="Global forward declarations.">
<polygon fill="white" stroke="black" points="629.5,-0.5 629.5,-21.5 744.5,-21.5 744.5,-0.5 629.5,-0.5"/>
<text text-anchor="middle" x="687" y="-8.5" font-family="Helvetica,sans-Serif" font-size="10.00">ForwardDeclarations.h</text>
</a>
</g>
<!-- Node1&#45;&gt;Node2 -->
<g id="edge2" class="edge"><title>Node1&#45;&gt;Node2</title>
<path fill="none" stroke="midnightblue" d="M681.771,-412.179C466.044,-401.042 0,-369.101 0,-301 0,-301 0,-301 0,-127 0,-92.2025 7.80549,-76.9353 37,-58 84.9329,-26.9112 461.866,-15.622 618.798,-12.2421"/>
<polygon fill="midnightblue" stroke="midnightblue" points="619.337,-15.7316 629.261,-12.0215 619.189,-8.73319 619.337,-15.7316"/>
</g>
<!-- Node3 -->
<g id="node5" class="node"><title>Node3</title>
<a xlink:href="_g_u_i___game_settings_layout_8h.html" target="_top" xlink:title="GUI_GameSettingsLayout.h">
<polygon fill="white" stroke="black" points="670,-348.5 670,-369.5 810,-369.5 810,-348.5 670,-348.5"/>
<text text-anchor="middle" x="740" y="-356.5" font-family="Helvetica,sans-Serif" font-size="10.00">GUI_GameSettingsLayout.h</text>
</a>
</g>
<!-- Node1&#45;&gt;Node3 -->
<g id="edge4" class="edge"><title>Node1&#45;&gt;Node3</title>
<path fill="none" stroke="midnightblue" d="M780.013,-406.362C773.175,-398.268 763.598,-386.932 755.528,-377.38"/>
<polygon fill="midnightblue" stroke="midnightblue" points="758.058,-374.951 748.93,-369.571 752.71,-379.468 758.058,-374.951"/>
</g>
<!-- Node26 -->
<g id="node58" class="node"><title>Node26</title>
<a xlink:href="_input_engine_8h.html" target="_top" xlink:title="Input logic.">
<polygon fill="white" stroke="black" points="1241.5,-232.5 1241.5,-253.5 1318.5,-253.5 1318.5,-232.5 1241.5,-232.5"/>
<text text-anchor="middle" x="1280" y="-240.5" font-family="Helvetica,sans-Serif" font-size="10.00">InputEngine.h</text>
</a>
</g>
<!-- Node1&#45;&gt;Node26 -->
<g id="edge64" class="edge"><title>Node1&#45;&gt;Node26</title>
<path fill="none" stroke="midnightblue" d="M796.467,-406.33C807.765,-391.013 830.698,-362.99 857,-348 979.934,-277.938 1148.98,-254.206 1231.17,-246.502"/>
<polygon fill="midnightblue" stroke="midnightblue" points="1231.58,-249.98 1241.23,-245.6 1230.96,-243.008 1231.58,-249.98"/>
</g>
<!-- Node35 -->
<g id="node79" class="node"><title>Node35</title>
<polygon fill="white" stroke="#bfbfbf" points="866,-348.5 866,-369.5 908,-369.5 908,-348.5 866,-348.5"/>
<text text-anchor="middle" x="887" y="-356.5" font-family="Helvetica,sans-Serif" font-size="10.00">OIS.h</text>
</g>
<!-- Node1&#45;&gt;Node35 -->
<g id="edge88" class="edge"><title>Node1&#45;&gt;Node35</title>
<path fill="none" stroke="midnightblue" d="M806.975,-406.362C821.894,-397.532 843.333,-384.844 860.266,-374.822"/>
<polygon fill="midnightblue" stroke="midnightblue" points="862.316,-377.676 869.139,-369.571 858.751,-371.652 862.316,-377.676"/>
</g>
<!-- Node3&#45;&gt;Node2 -->
<g id="edge6" class="edge"><title>Node3&#45;&gt;Node2</title>
<path fill="none" stroke="midnightblue" d="M669.8,-354.712C492.009,-342.919 38,-306.578 38,-243 38,-243 38,-243 38,-127 38,-95.1919 32.4334,-78.2048 57,-58 99.6455,-22.9263 465.019,-13.9497 619.009,-11.7158"/>
<polygon fill="midnightblue" stroke="midnightblue" points="619.332,-15.2117 629.282,-11.5723 619.235,-8.21242 619.332,-15.2117"/>
</g>
<!-- Node4 -->
<g id="node8" class="node"><title>Node4</title>
<a xlink:href="_base_layout_8h.html" target="_top" xlink:title="BaseLayout.h">
<polygon fill="white" stroke="black" points="717.5,-290.5 717.5,-311.5 794.5,-311.5 794.5,-290.5 717.5,-290.5"/>
<text text-anchor="middle" x="756" y="-298.5" font-family="Helvetica,sans-Serif" font-size="10.00">BaseLayout.h</text>
</a>
</g>
<!-- Node3&#45;&gt;Node4 -->
<g id="edge8" class="edge"><title>Node3&#45;&gt;Node4</title>
<path fill="none" stroke="midnightblue" d="M742.935,-348.362C745.01,-340.84 747.857,-330.519 750.364,-321.431"/>
<polygon fill="midnightblue" stroke="midnightblue" points="753.799,-322.141 753.084,-311.571 747.051,-320.28 753.799,-322.141"/>
</g>
<!-- Node5 -->
<g id="node10" class="node"><title>Node5</title>
<a xlink:href="_ro_r_prerequisites_8h.html" target="_top" xlink:title="RoRPrerequisites.h">
<polygon fill="white" stroke="black" points="961,-116.5 961,-137.5 1063,-137.5 1063,-116.5 961,-116.5"/>
<text text-anchor="middle" x="1012" y="-124.5" font-family="Helvetica,sans-Serif" font-size="10.00">RoRPrerequisites.h</text>
</a>
</g>
<!-- Node4&#45;&gt;Node5 -->
<g id="edge10" class="edge"><title>Node4&#45;&gt;Node5</title>
<path fill="none" stroke="midnightblue" d="M749.285,-290.329C735.2,-266.454 706.16,-208.146 735,-174 748.781,-157.684 873.35,-141.695 950.672,-133.222"/>
<polygon fill="midnightblue" stroke="midnightblue" points="951.221,-136.683 960.786,-132.127 950.468,-129.724 951.221,-136.683"/>
</g>
<!-- Node23 -->
<g id="node48" class="node"><title>Node23</title>
<polygon fill="white" stroke="#bfbfbf" points="862,-174.5 862,-195.5 918,-195.5 918,-174.5 862,-174.5"/>
<text text-anchor="middle" x="890" y="-182.5" font-family="Helvetica,sans-Serif" font-size="10.00">MyGUI.h</text>
</g>
<!-- Node4&#45;&gt;Node23 -->
<g id="edge50" class="edge"><title>Node4&#45;&gt;Node23</title>
<path fill="none" stroke="midnightblue" d="M788.003,-290.388C807.638,-282.658 832.32,-270.622 850,-254 864.59,-240.283 875.462,-220.043 882.159,-205.028"/>
<polygon fill="midnightblue" stroke="midnightblue" points="885.469,-206.186 886.124,-195.612 879.018,-203.47 885.469,-206.186"/>
</g>
<!-- Node24 -->
<g id="node50" class="node"><title>Node24</title>
<a xlink:href="_wraps_attribute_8h.html" target="_top" xlink:title="WrapsAttribute.h">
<polygon fill="white" stroke="black" points="751,-232.5 751,-253.5 841,-253.5 841,-232.5 751,-232.5"/>
<text text-anchor="middle" x="796" y="-240.5" font-family="Helvetica,sans-Serif" font-size="10.00">WrapsAttribute.h</text>
</a>
</g>
<!-- Node4&#45;&gt;Node24 -->
<g id="edge52" class="edge"><title>Node4&#45;&gt;Node24</title>
<path fill="none" stroke="midnightblue" d="M763.337,-290.362C768.806,-282.431 776.422,-271.389 782.924,-261.961"/>
<polygon fill="midnightblue" stroke="midnightblue" points="785.914,-263.79 788.71,-253.571 780.151,-259.816 785.914,-263.79"/>
</g>
<!-- Node5&#45;&gt;Node2 -->
<g id="edge36" class="edge"><title>Node5&#45;&gt;Node2</title>
<path fill="none" stroke="midnightblue" d="M1063.05,-124.071C1187.95,-116.661 1499.9,-96.5744 1515,-80 1521.58,-72.7716 1521.72,-65.1071 1515,-58 1489.03,-30.5129 947.905,-16.4849 754.762,-12.3393"/>
<polygon fill="midnightblue" stroke="midnightblue" points="754.806,-8.83957 744.733,-12.1263 754.657,-15.838 754.806,-8.83957"/>
</g>
<!-- Node6 -->
<g id="node12" class="node"><title>Node6</title>
<polygon fill="white" stroke="#bfbfbf" points="1151.5,-58.5 1151.5,-79.5 1266.5,-79.5 1266.5,-58.5 1151.5,-58.5"/>
<text text-anchor="middle" x="1209" y="-66.5" font-family="Helvetica,sans-Serif" font-size="10.00">OgreAxisAlignedBox.h</text>
</g>
<!-- Node5&#45;&gt;Node6 -->
<g id="edge12" class="edge"><title>Node5&#45;&gt;Node6</title>
<path fill="none" stroke="midnightblue" d="M1047.68,-116.497C1080.07,-106.959 1128.02,-92.8408 1163.23,-82.475"/>
<polygon fill="midnightblue" stroke="midnightblue" points="1164.65,-85.7049 1173.26,-79.5231 1162.68,-78.9899 1164.65,-85.7049"/>
</g>
<!-- Node7 -->
<g id="node14" class="node"><title>Node7</title>
<polygon fill="white" stroke="#bfbfbf" points="1407.5,-58.5 1407.5,-79.5 1506.5,-79.5 1506.5,-58.5 1407.5,-58.5"/>
<text text-anchor="middle" x="1457" y="-66.5" font-family="Helvetica,sans-Serif" font-size="10.00">OgreColourValue.h</text>
</g>
<!-- Node5&#45;&gt;Node7 -->
<g id="edge14" class="edge"><title>Node5&#45;&gt;Node7</title>
<path fill="none" stroke="midnightblue" d="M1063.17,-121.882C1135.43,-114.414 1271.69,-99.4427 1397.19,-80.2106"/>
<polygon fill="midnightblue" stroke="midnightblue" points="1398.02,-83.6251 1407.36,-78.6388 1396.95,-76.7072 1398.02,-83.6251"/>
</g>
<!-- Node8 -->
<g id="node16" class="node"><title>Node8</title>
<polygon fill="white" stroke="#bfbfbf" points="1689.5,-58.5 1689.5,-79.5 1792.5,-79.5 1792.5,-58.5 1689.5,-58.5"/>
<text text-anchor="middle" x="1741" y="-66.5" font-family="Helvetica,sans-Serif" font-size="10.00">OgreHeaderPrefix.h</text>
</g>
<!-- Node5&#45;&gt;Node8 -->
<g id="edge16" class="edge"><title>Node5&#45;&gt;Node8</title>
<path fill="none" stroke="midnightblue" d="M1063.01,-124.154C1194.4,-116.709 1543.13,-96.1894 1679.16,-80.0951"/>
<polygon fill="midnightblue" stroke="midnightblue" points="1679.85,-83.5367 1689.35,-78.8465 1678.99,-76.5887 1679.85,-83.5367"/>
</g>
<!-- Node9 -->
<g id="node18" class="node"><title>Node9</title>
<polygon fill="white" stroke="#bfbfbf" points="1809.5,-58.5 1809.5,-79.5 1908.5,-79.5 1908.5,-58.5 1809.5,-58.5"/>
<text text-anchor="middle" x="1859" y="-66.5" font-family="Helvetica,sans-Serif" font-size="10.00">OgreLogManager.h</text>
</g>
<!-- Node5&#45;&gt;Node9 -->
<g id="edge18" class="edge"><title>Node5&#45;&gt;Node9</title>
<path fill="none" stroke="midnightblue" d="M1063.15,-124.335C1220.6,-116.079 1693.32,-90.8935 1799.3,-79.9758"/>
<polygon fill="midnightblue" stroke="midnightblue" points="1799.85,-83.4366 1809.39,-78.8407 1799.06,-76.4805 1799.85,-83.4366"/>
</g>
<!-- Node10 -->
<g id="node20" class="node"><title>Node10</title>
<polygon fill="white" stroke="#bfbfbf" points="65.5,-58.5 65.5,-79.5 158.5,-79.5 158.5,-58.5 65.5,-58.5"/>
<text text-anchor="middle" x="112" y="-66.5" font-family="Helvetica,sans-Serif" font-size="10.00">OgreQuaternion.h</text>
</g>
<!-- Node5&#45;&gt;Node10 -->
<g id="edge20" class="edge"><title>Node5&#45;&gt;Node10</title>
<path fill="none" stroke="midnightblue" d="M960.791,-125.106C805.595,-119.22 341.064,-100.475 168.913,-80.0682"/>
<polygon fill="midnightblue" stroke="midnightblue" points="169.086,-76.5632 158.734,-78.8156 168.231,-83.5108 169.086,-76.5632"/>
</g>
<!-- Node11 -->
<g id="node22" class="node"><title>Node11</title>
<polygon fill="white" stroke="#bfbfbf" points="175.5,-58.5 175.5,-79.5 246.5,-79.5 246.5,-58.5 175.5,-58.5"/>
<text text-anchor="middle" x="211" y="-66.5" font-family="Helvetica,sans-Serif" font-size="10.00">OgreString.h</text>
</g>
<!-- Node5&#45;&gt;Node11 -->
<g id="edge22" class="edge"><title>Node5&#45;&gt;Node11</title>
<path fill="none" stroke="midnightblue" d="M960.956,-125.051C817.301,-119.376 410.547,-101.958 257.08,-80.0623"/>
<polygon fill="midnightblue" stroke="midnightblue" points="257.316,-76.5588 246.909,-78.546 256.284,-83.4823 257.316,-76.5588"/>
</g>
<!-- Node12 -->
<g id="node24" class="node"><title>Node12</title>
<polygon fill="white" stroke="#bfbfbf" points="264,-58.5 264,-79.5 378,-79.5 378,-58.5 264,-58.5"/>
<text text-anchor="middle" x="321" y="-66.5" font-family="Helvetica,sans-Serif" font-size="10.00">OgreStringConverter.h</text>
</g>
<!-- Node5&#45;&gt;Node12 -->
<g id="edge24" class="edge"><title>Node5&#45;&gt;Node12</title>
<path fill="none" stroke="midnightblue" d="M960.809,-124.715C855.529,-119.677 606.953,-106.04 388.254,-80.0624"/>
<polygon fill="midnightblue" stroke="midnightblue" points="388.538,-76.5714 378.192,-78.8558 387.704,-83.5216 388.538,-76.5714"/>
</g>
<!-- Node13 -->
<g id="node26" class="node"><title>Node13</title>
<polygon fill="white" stroke="#bfbfbf" points="1925.5,-58.5 1925.5,-79.5 2016.5,-79.5 2016.5,-58.5 1925.5,-58.5"/>
<text text-anchor="middle" x="1971" y="-66.5" font-family="Helvetica,sans-Serif" font-size="10.00">OgreUTFString.h</text>
</g>
<!-- Node5&#45;&gt;Node13 -->
<g id="edge26" class="edge"><title>Node5&#45;&gt;Node13</title>
<path fill="none" stroke="midnightblue" d="M1063.09,-124.558C1239.97,-116.077 1820.27,-88.0257 1915.45,-79.7896"/>
<polygon fill="midnightblue" stroke="midnightblue" points="1915.82,-83.2705 1925.41,-78.7833 1915.11,-76.306 1915.82,-83.2705"/>
</g>
<!-- Node14 -->
<g id="node28" class="node"><title>Node14</title>
<polygon fill="white" stroke="#bfbfbf" points="396,-58.5 396,-79.5 476,-79.5 476,-58.5 396,-58.5"/>
<text text-anchor="middle" x="436" y="-66.5" font-family="Helvetica,sans-Serif" font-size="10.00">OgreVector2.h</text>
</g>
<!-- Node5&#45;&gt;Node14 -->
<g id="edge28" class="edge"><title>Node5&#45;&gt;Node14</title>
<path fill="none" stroke="midnightblue" d="M960.854,-124.683C868.091,-119.994 665.825,-107.527 485.935,-79.974"/>
<polygon fill="midnightblue" stroke="midnightblue" points="486.447,-76.5117 476.029,-78.4377 485.374,-83.429 486.447,-76.5117"/>
</g>
<!-- Node15 -->
<g id="node30" class="node"><title>Node15</title>
<polygon fill="white" stroke="#bfbfbf" points="494,-58.5 494,-79.5 574,-79.5 574,-58.5 494,-58.5"/>
<text text-anchor="middle" x="534" y="-66.5" font-family="Helvetica,sans-Serif" font-size="10.00">OgreVector3.h</text>
</g>
<!-- Node5&#45;&gt;Node15 -->
<g id="edge30" class="edge"><title>Node5&#45;&gt;Node15</title>
<path fill="none" stroke="midnightblue" d="M960.898,-123.259C882.126,-117.086 726.152,-103.248 584.232,-80.0571"/>
<polygon fill="midnightblue" stroke="midnightblue" points="584.477,-76.55 574.04,-78.3711 583.335,-83.4562 584.477,-76.55"/>
</g>
<!-- Node16 -->
<g id="node32" class="node"><title>Node16</title>
<polygon fill="white" stroke="#bfbfbf" points="591.5,-58.5 591.5,-79.5 694.5,-79.5 694.5,-58.5 591.5,-58.5"/>
<text text-anchor="middle" x="643" y="-66.5" font-family="Helvetica,sans-Serif" font-size="10.00">OgrePrerequisites.h</text>
</g>
<!-- Node5&#45;&gt;Node16 -->
<g id="edge32" class="edge"><title>Node5&#45;&gt;Node16</title>
<path fill="none" stroke="midnightblue" d="M960.802,-119.699C901.486,-111.131 800.557,-96.2193 704.564,-80.2309"/>
<polygon fill="midnightblue" stroke="midnightblue" points="705.133,-76.7776 694.693,-78.58 703.979,-83.6817 705.133,-76.7776"/>
</g>
<!-- Node17 -->
<g id="node34" class="node"><title>Node17</title>
<polygon fill="white" stroke="#bfbfbf" points="712,-58.5 712,-79.5 862,-79.5 862,-58.5 712,-58.5"/>
<text text-anchor="middle" x="787" y="-66.5" font-family="Helvetica,sans-Serif" font-size="10.00">Overlay/OgreOverlaySystem.h</text>
</g>
<!-- Node5&#45;&gt;Node17 -->
<g id="edge34" class="edge"><title>Node5&#45;&gt;Node17</title>
<path fill="none" stroke="midnightblue" d="M971.254,-116.497C933.779,-106.836 878.073,-92.4765 837.728,-82.0765"/>
<polygon fill="midnightblue" stroke="midnightblue" points="838.379,-78.6301 827.822,-79.5231 836.632,-85.4085 838.379,-78.6301"/>
</g>
<!-- Node18 -->
<g id="node37" class="node"><title>Node18</title>
<a xlink:href="_global_environment_8h.html" target="_top" xlink:title="GlobalEnvironment.h">
<polygon fill="white" stroke="black" points="1283.5,-58.5 1283.5,-79.5 1390.5,-79.5 1390.5,-58.5 1283.5,-58.5"/>
<text text-anchor="middle" x="1337" y="-66.5" font-family="Helvetica,sans-Serif" font-size="10.00">GlobalEnvironment.h</text>
</a>
</g>
<!-- Node5&#45;&gt;Node18 -->
<g id="edge38" class="edge"><title>Node5&#45;&gt;Node18</title>
<path fill="none" stroke="midnightblue" d="M1063.14,-117.874C1120.03,-107.72 1212.02,-91.3035 1273.49,-80.3345"/>
<polygon fill="midnightblue" stroke="midnightblue" points="1274.23,-83.7577 1283.46,-78.5552 1273,-76.8666 1274.23,-83.7577"/>
</g>
<!-- Node19 -->
<g id="node40" class="node"><title>Node19</title>
<a xlink:href="_zeroed_memory_allocator_8h.html" target="_top" xlink:title="ZeroedMemoryAllocator.h">
<polygon fill="white" stroke="black" points="880,-58.5 880,-79.5 1008,-79.5 1008,-58.5 880,-58.5"/>
<text text-anchor="middle" x="944" y="-66.5" font-family="Helvetica,sans-Serif" font-size="10.00">ZeroedMemoryAllocator.h</text>
</a>
</g>
<!-- Node5&#45;&gt;Node19 -->
<g id="edge42" class="edge"><title>Node5&#45;&gt;Node19</title>
<path fill="none" stroke="midnightblue" d="M999.528,-116.362C989.655,-107.941 975.667,-96.0105 964.202,-86.2308"/>
<polygon fill="midnightblue" stroke="midnightblue" points="966.273,-83.3972 956.393,-79.5707 961.73,-88.7231 966.273,-83.3972"/>
</g>
<!-- Node20 -->
<g id="node42" class="node"><title>Node20</title>
<a xlink:href="_bit_flags_8h.html" target="_top" xlink:title="../common/BitFlags.h">
<polygon fill="white" stroke="black" points="1562,-58.5 1562,-79.5 1672,-79.5 1672,-58.5 1562,-58.5"/>
<text text-anchor="middle" x="1617" y="-66.5" font-family="Helvetica,sans-Serif" font-size="10.00">../common/BitFlags.h</text>
</a>
</g>
<!-- Node5&#45;&gt;Node20 -->
<g id="edge44" class="edge"><title>Node5&#45;&gt;Node20</title>
<path fill="none" stroke="midnightblue" d="M1063.12,-123.725C1158.61,-117.339 1370.46,-101.908 1548,-80 1549.11,-79.8626 1550.24,-79.7207 1551.37,-79.575"/>
<polygon fill="midnightblue" stroke="midnightblue" points="1552.25,-82.9871 1561.69,-78.1703 1551.31,-76.0511 1552.25,-82.9871"/>
</g>
<!-- Node22 -->
<g id="node46" class="node"><title>Node22</title>
<polygon fill="white" stroke="#bfbfbf" points="1025.5,-58.5 1025.5,-79.5 1134.5,-79.5 1134.5,-58.5 1025.5,-58.5"/>
<text text-anchor="middle" x="1080" y="-66.5" font-family="Helvetica,sans-Serif" font-size="10.00">MyGUI_Prerequest.h</text>
</g>
<!-- Node5&#45;&gt;Node22 -->
<g id="edge48" class="edge"><title>Node5&#45;&gt;Node22</title>
<path fill="none" stroke="midnightblue" d="M1024.47,-116.362C1034.35,-107.941 1048.33,-96.0105 1059.8,-86.2308"/>
<polygon fill="midnightblue" stroke="midnightblue" points="1062.27,-88.7231 1067.61,-79.5707 1057.73,-83.3972 1062.27,-88.7231"/>
</g>
<!-- Node18&#45;&gt;Node2 -->
<g id="edge40" class="edge"><title>Node18&#45;&gt;Node2</title>
<path fill="none" stroke="midnightblue" d="M1283.28,-59.1443C1280.48,-58.7329 1277.71,-58.348 1275,-58 1087.55,-33.9355 864.788,-20.1417 755.042,-14.3164"/>
<polygon fill="midnightblue" stroke="midnightblue" points="754.949,-10.8068 744.779,-13.7774 754.582,-17.7971 754.949,-10.8068"/>
</g>
<!-- Node21 -->
<g id="node44" class="node"><title>Node21</title>
<polygon fill="white" stroke="#bfbfbf" points="1594,-0.5 1594,-21.5 1640,-21.5 1640,-0.5 1594,-0.5"/>
<text text-anchor="middle" x="1617" y="-8.5" font-family="Helvetica,sans-Serif" font-size="10.00">cstdint</text>
</g>
<!-- Node20&#45;&gt;Node21 -->
<g id="edge46" class="edge"><title>Node20&#45;&gt;Node21</title>
<path fill="none" stroke="midnightblue" d="M1617,-58.3619C1617,-50.9219 1617,-40.7427 1617,-31.7276"/>
<polygon fill="midnightblue" stroke="midnightblue" points="1620.5,-31.5706 1617,-21.5707 1613.5,-31.5707 1620.5,-31.5706"/>
</g>
<!-- Node24&#45;&gt;Node5 -->
<g id="edge54" class="edge"><title>Node24&#45;&gt;Node5</title>
<path fill="none" stroke="midnightblue" d="M801.918,-232.443C810.965,-217.267 829.665,-189.418 853,-174 882.256,-154.67 919.671,-143.094 950.856,-136.27"/>
<polygon fill="midnightblue" stroke="midnightblue" points="951.665,-139.676 960.744,-134.217 950.242,-132.823 951.665,-139.676"/>
</g>
<!-- Node24&#45;&gt;Node23 -->
<g id="edge56" class="edge"><title>Node24&#45;&gt;Node23</title>
<path fill="none" stroke="midnightblue" d="M813.241,-232.362C827.552,-223.532 848.115,-210.844 864.357,-200.822"/>
<polygon fill="midnightblue" stroke="midnightblue" points="866.196,-203.8 872.868,-195.571 862.52,-197.843 866.196,-203.8"/>
</g>
<!-- Node25 -->
<g id="node54" class="node"><title>Node25</title>
<a xlink:href="_attribute_8h.html" target="_top" xlink:title="Attribute.h">
<polygon fill="white" stroke="black" points="744,-174.5 744,-195.5 806,-195.5 806,-174.5 744,-174.5"/>
<text text-anchor="middle" x="775" y="-182.5" font-family="Helvetica,sans-Serif" font-size="10.00">Attribute.h</text>
</a>
</g>
<!-- Node24&#45;&gt;Node25 -->
<g id="edge58" class="edge"><title>Node24&#45;&gt;Node25</title>
<path fill="none" stroke="midnightblue" d="M792.148,-232.362C789.395,-224.758 785.606,-214.294 782.29,-205.135"/>
<polygon fill="midnightblue" stroke="midnightblue" points="785.523,-203.782 778.827,-195.571 778.941,-206.165 785.523,-203.782"/>
</g>
<!-- Node25&#45;&gt;Node5 -->
<g id="edge60" class="edge"><title>Node25&#45;&gt;Node5</title>
<path fill="none" stroke="midnightblue" d="M806.472,-177.298C845.301,-167.796 911.913,-151.494 958.756,-140.03"/>
<polygon fill="midnightblue" stroke="midnightblue" points="959.848,-143.366 968.73,-137.589 958.184,-136.567 959.848,-143.366"/>
</g>
<!-- Node26&#45;&gt;Node5 -->
<g id="edge66" class="edge"><title>Node26&#45;&gt;Node5</title>
<path fill="none" stroke="midnightblue" d="M1272.71,-232.28C1261.66,-216.9 1239.16,-188.801 1213,-174 1169.92,-149.626 1114.82,-137.872 1073.21,-132.215"/>
<polygon fill="midnightblue" stroke="midnightblue" points="1073.57,-128.732 1063.21,-130.936 1072.68,-135.676 1073.57,-128.732"/>
</g>
<!-- Node26&#45;&gt;Node13 -->
<g id="edge74" class="edge"><title>Node26&#45;&gt;Node13</title>
<path fill="none" stroke="midnightblue" d="M1318.75,-241.087C1415.23,-236.001 1664.1,-220.814 1743,-196 1824.23,-170.454 1909.07,-113.972 1948.44,-85.7425"/>
<polygon fill="midnightblue" stroke="midnightblue" points="1950.97,-88.2329 1957.01,-79.5283 1946.86,-82.5665 1950.97,-88.2329"/>
</g>
<!-- Node27 -->
<g id="node61" class="node"><title>Node27</title>
<a xlink:href="_ro_r_window_event_utilities_8h.html" target="_top" xlink:title="RoRWindowEventUtilities.h">
<polygon fill="white" stroke="black" points="1259.5,-174.5 1259.5,-195.5 1398.5,-195.5 1398.5,-174.5 1259.5,-174.5"/>
<text text-anchor="middle" x="1329" y="-182.5" font-family="Helvetica,sans-Serif" font-size="10.00">RoRWindowEventUtilities.h</text>
</a>
</g>
<!-- Node26&#45;&gt;Node27 -->
<g id="edge68" class="edge"><title>Node26&#45;&gt;Node27</title>
<path fill="none" stroke="midnightblue" d="M1288.99,-232.362C1295.83,-224.268 1305.4,-212.932 1313.47,-203.38"/>
<polygon fill="midnightblue" stroke="midnightblue" points="1316.29,-205.468 1320.07,-195.571 1310.94,-200.951 1316.29,-205.468"/>
</g>
<!-- Node29 -->
<g id="node67" class="node"><title>Node29</title>
<polygon fill="white" stroke="#bfbfbf" points="1415.5,-174.5 1415.5,-195.5 1488.5,-195.5 1488.5,-174.5 1415.5,-174.5"/>
<text text-anchor="middle" x="1452" y="-182.5" font-family="Helvetica,sans-Serif" font-size="10.00">OISEvents.h</text>
</g>
<!-- Node26&#45;&gt;Node29 -->
<g id="edge76" class="edge"><title>Node26&#45;&gt;Node29</title>
<path fill="none" stroke="midnightblue" d="M1311.15,-232.497C1339.19,-223.041 1380.58,-209.083 1411.25,-198.743"/>
<polygon fill="midnightblue" stroke="midnightblue" points="1412.44,-202.035 1420.79,-195.523 1410.2,-195.402 1412.44,-202.035"/>
</g>
<!-- Node30 -->
<g id="node69" class="node"><title>Node30</title>
<polygon fill="white" stroke="#bfbfbf" points="1506,-174.5 1506,-195.5 1616,-195.5 1616,-174.5 1506,-174.5"/>
<text text-anchor="middle" x="1561" y="-182.5" font-family="Helvetica,sans-Serif" font-size="10.00">OISForceFeedback.h</text>
</g>
<!-- Node26&#45;&gt;Node30 -->
<g id="edge78" class="edge"><title>Node26&#45;&gt;Node30</title>
<path fill="none" stroke="midnightblue" d="M1318.78,-234.996C1365.55,-225.342 1444.74,-208.997 1499.79,-197.634"/>
<polygon fill="midnightblue" stroke="midnightblue" points="1500.69,-201.023 1509.77,-195.574 1499.27,-194.167 1500.69,-201.023"/>
</g>
<!-- Node31 -->
<g id="node71" class="node"><title>Node31</title>
<polygon fill="white" stroke="#bfbfbf" points="1633.5,-174.5 1633.5,-195.5 1734.5,-195.5 1734.5,-174.5 1633.5,-174.5"/>
<text text-anchor="middle" x="1684" y="-182.5" font-family="Helvetica,sans-Serif" font-size="10.00">OISInputManager.h</text>
</g>
<!-- Node26&#45;&gt;Node31 -->
<g id="edge80" class="edge"><title>Node26&#45;&gt;Node31</title>
<path fill="none" stroke="midnightblue" d="M1318.64,-238.363C1380.72,-230.775 1506.75,-214.811 1623.33,-196.216"/>
<polygon fill="midnightblue" stroke="midnightblue" points="1624.18,-199.625 1633.5,-194.584 1623.07,-192.713 1624.18,-199.625"/>
</g>
<!-- Node32 -->
<g id="node73" class="node"><title>Node32</title>
<polygon fill="white" stroke="#bfbfbf" points="936,-174.5 936,-195.5 1016,-195.5 1016,-174.5 936,-174.5"/>
<text text-anchor="middle" x="976" y="-182.5" font-family="Helvetica,sans-Serif" font-size="10.00">OISJoyStick.h</text>
</g>
<!-- Node26&#45;&gt;Node32 -->
<g id="edge82" class="edge"><title>Node26&#45;&gt;Node32</title>
<path fill="none" stroke="midnightblue" d="M1241.46,-236.374C1193.4,-228.006 1108.49,-212.877 1026.11,-196.175"/>
<polygon fill="midnightblue" stroke="midnightblue" points="1026.58,-192.698 1016.08,-194.131 1025.18,-199.557 1026.58,-192.698"/>
</g>
<!-- Node33 -->
<g id="node75" class="node"><title>Node33</title>
<polygon fill="white" stroke="#bfbfbf" points="1033.5,-174.5 1033.5,-195.5 1116.5,-195.5 1116.5,-174.5 1033.5,-174.5"/>
<text text-anchor="middle" x="1075" y="-182.5" font-family="Helvetica,sans-Serif" font-size="10.00">OISKeyboard.h</text>
</g>
<!-- Node26&#45;&gt;Node33 -->
<g id="edge84" class="edge"><title>Node26&#45;&gt;Node33</title>
<path fill="none" stroke="midnightblue" d="M1242.88,-232.497C1209.02,-222.918 1158.84,-208.72 1122.16,-198.342"/>
<polygon fill="midnightblue" stroke="midnightblue" points="1122.77,-194.878 1112.19,-195.523 1120.86,-201.613 1122.77,-194.878"/>
</g>
<!-- Node34 -->
<g id="node77" class="node"><title>Node34</title>
<polygon fill="white" stroke="#bfbfbf" points="1133.5,-174.5 1133.5,-195.5 1204.5,-195.5 1204.5,-174.5 1133.5,-174.5"/>
<text text-anchor="middle" x="1169" y="-182.5" font-family="Helvetica,sans-Serif" font-size="10.00">OISMouse.h</text>
</g>
<!-- Node26&#45;&gt;Node34 -->
<g id="edge86" class="edge"><title>Node26&#45;&gt;Node34</title>
<path fill="none" stroke="midnightblue" d="M1259.9,-232.497C1242.72,-223.519 1217.77,-210.484 1198.36,-200.339"/>
<polygon fill="midnightblue" stroke="midnightblue" points="1199.81,-197.15 1189.33,-195.621 1196.57,-203.354 1199.81,-197.15"/>
</g>
<!-- Node27&#45;&gt;Node5 -->
<g id="edge70" class="edge"><title>Node27&#45;&gt;Node5</title>
<path fill="none" stroke="midnightblue" d="M1271.59,-174.497C1215.55,-164.242 1130.55,-148.691 1073.23,-138.203"/>
<polygon fill="midnightblue" stroke="midnightblue" points="1073.68,-134.728 1063.22,-136.371 1072.42,-141.614 1073.68,-134.728"/>
</g>
<!-- Node28 -->
<g id="node64" class="node"><title>Node28</title>
<polygon fill="white" stroke="#bfbfbf" points="1259,-116.5 1259,-137.5 1399,-137.5 1399,-116.5 1259,-116.5"/>
<text text-anchor="middle" x="1329" y="-124.5" font-family="Helvetica,sans-Serif" font-size="10.00">OgreWindowEventUtilities.h</text>
</g>
<!-- Node27&#45;&gt;Node28 -->
<g id="edge72" class="edge"><title>Node27&#45;&gt;Node28</title>
<path fill="none" stroke="midnightblue" d="M1329,-174.362C1329,-166.922 1329,-156.743 1329,-147.728"/>
<polygon fill="midnightblue" stroke="midnightblue" points="1332.5,-147.571 1329,-137.571 1325.5,-147.571 1332.5,-147.571"/>
</g>
</g>
</svg>
        <g id="navigator" transform="translate(0 0)" fill="#404254">
                <rect fill="#f2f5e9" fill-opacity="0.5" stroke="#606060" stroke-width=".5" x="0" y="0" width="60" height="60"/>
                <use id="zoomplus" xlink:href="#zoomPlus" x="17" y="9" onmousedown="handleZoom(evt,'in')"/>
                <use id="zoomminus" xlink:href="#zoomMin" x="42" y="9" onmousedown="handleZoom(evt,'out')"/>
                <use id="reset" xlink:href="#resetDef" x="30" y="36" onmousedown="handleReset()"/>
                <g id="arrowUp" xlink:href="#dirArrow" transform="translate(30 24)" onmousedown="handlePan(0,-1)">
                  <use xlink:href="#rim" fill="#404040">
                        <set attributeName="fill" to="#808080" begin="arrowUp.mouseover" end="arrowUp.mouseout"/>
                  </use>
                  <path fill="none" stroke="white" stroke-width="1.5" d="M0,-3.0v7 M-2.5,-0.5L0,-3.0L2.5,-0.5"/>
                </g>
                <g id="arrowRight" xlink:href="#dirArrow" transform="rotate(90) translate(36 -43)" onmousedown="handlePan(1,0)">
                  <use xlink:href="#rim" fill="#404040">
                        <set attributeName="fill" to="#808080" begin="arrowRight.mouseover" end="arrowRight.mouseout"/>
                  </use>
                  <path fill="none" stroke="white" stroke-width="1.5" d="M0,-3.0v7 M-2.5,-0.5L0,-3.0L2.5,-0.5"/>
                </g>
                <g id="arrowDown" xlink:href="#dirArrow" transform="rotate(180) translate(-30 -48)" onmousedown="handlePan(0,1)">
                  <use xlink:href="#rim" fill="#404040">
                        <set attributeName="fill" to="#808080" begin="arrowDown.mouseover" end="arrowDown.mouseout"/>
                  </use>
                  <path fill="none" stroke="white" stroke-width="1.5" d="M0,-3.0v7 M-2.5,-0.5L0,-3.0L2.5,-0.5"/>
                </g>
                <g id="arrowLeft" xlink:href="#dirArrow" transform="rotate(270) translate(-36 17)" onmousedown="handlePan(-1,0)">
                  <use xlink:href="#rim" fill="#404040">
                        <set attributeName="fill" to="#808080" begin="arrowLeft.mouseover" end="arrowLeft.mouseout"/>
                  </use>
                  <path fill="none" stroke="white" stroke-width="1.5" d="M0,-3.0v7 M-2.5,-0.5L0,-3.0L2.5,-0.5"/>
                </g>
        </g>
</svg>
