<?xml version="1.0" encoding="UTF-8" standalone="no"?>
<!DOCTYPE svg PUBLIC "-//W3C//DTD SVG 1.1//EN"
 "http://www.w3.org/Graphics/SVG/1.1/DTD/svg11.dtd">
<!-- Generated by graphviz version 2.26.3 (20100126.1600)
 -->
<!-- Title: source/main/gui/panels/GUI_RigEditorDeleteMenuLayout.h Pages: 1 -->
<svg width="434pt" height="188pt"
 viewBox="0.00 0.00 434.00 188.00" xmlns="http://www.w3.org/2000/svg" xmlns:xlink="http://www.w3.org/1999/xlink">
<g id="graph1" class="graph" transform="scale(1 1) rotate(0) translate(4 184)">
<title>source/main/gui/panels/GUI_RigEditorDeleteMenuLayout.h</title>
<polygon fill="white" stroke="white" points="-4,5 -4,-184 431,-184 431,5 -4,5"/>
<!-- Node1 -->
<g id="node1" class="node"><title>Node1</title>
<polygon fill="#bfbfbf" stroke="black" points="156.5,-145 156.5,-179 329.5,-179 329.5,-145 156.5,-145"/>
<text text-anchor="start" x="164.5" y="-166" font-family="Helvetica,sans-Serif" font-size="10.00">source/main/gui/panels</text>
<text text-anchor="middle" x="243" y="-153" font-family="Helvetica,sans-Serif" font-size="10.00">/GUI_RigEditorDeleteMenuLayout.h</text>
</g>
<!-- Node2 -->
<g id="node3" class="node"><title>Node2</title>
<a xlink:href="_g_u_i___rig_editor_delete_menu_8h.html" target="_top" xlink:title="source/main/gui/panels\l/GUI_RigEditorDeleteMenu.h">
<polygon fill="white" stroke="black" points="80,-73 80,-107 224,-107 224,-73 80,-73"/>
<text text-anchor="start" x="88" y="-94" font-family="Helvetica,sans-Serif" font-size="10.00">source/main/gui/panels</text>
<text text-anchor="middle" x="152" y="-81" font-family="Helvetica,sans-Serif" font-size="10.00">/GUI_RigEditorDeleteMenu.h</text>
</a>
</g>
<!-- Node1&#45;&gt;Node2 -->
<g id="edge2" class="edge"><title>Node1&#45;&gt;Node2</title>
<path fill="none" stroke="midnightblue" d="M213.29,-138.493C200.394,-128.29 185.567,-116.558 173.726,-107.19"/>
<polygon fill="midnightblue" stroke="midnightblue" points="211.42,-141.477 221.434,-144.937 215.764,-135.987 211.42,-141.477"/>
</g>
<!-- Node5 -->
<g id="node9" class="node"><title>Node5</title>
<a xlink:href="_g_u_i___rig_editor_delete_menu_layout_8cpp.html" target="_top" xlink:title="source/main/gui/panels\l/GUI_RigEditorDeleteMenuLayout.cpp">
<polygon fill="white" stroke="black" points="242,-73 242,-107 426,-107 426,-73 242,-73"/>
<text text-anchor="start" x="250" y="-94" font-family="Helvetica,sans-Serif" font-size="10.00">source/main/gui/panels</text>
<text text-anchor="middle" x="334" y="-81" font-family="Helvetica,sans-Serif" font-size="10.00">/GUI_RigEditorDeleteMenuLayout.cpp</text>
</a>
</g>
<!-- Node1&#45;&gt;Node5 -->
<g id="edge8" class="edge"><title>Node1&#45;&gt;Node5</title>
<path fill="none" stroke="midnightblue" d="M272.71,-138.493C285.606,-128.29 300.433,-116.558 312.274,-107.19"/>
<polygon fill="midnightblue" stroke="midnightblue" points="270.236,-135.987 264.566,-144.937 274.58,-141.477 270.236,-135.987"/>
</g>
<!-- Node3 -->
<g id="node5" class="node"><title>Node3</title>
<a xlink:href="_g_u_i___rig_editor_delete_menu_8cpp.html" target="_top" xlink:title="source/main/gui/panels\l/GUI_RigEditorDeleteMenu.cpp">
<polygon fill="white" stroke="black" points="-0.5,-1 -0.5,-35 154.5,-35 154.5,-1 -0.5,-1"/>
<text text-anchor="start" x="7.5" y="-22" font-family="Helvetica,sans-Serif" font-size="10.00">source/main/gui/panels</text>
<text text-anchor="middle" x="77" y="-9" font-family="Helvetica,sans-Serif" font-size="10.00">/GUI_RigEditorDeleteMenu.cpp</text>
</a>
</g>
<!-- Node2&#45;&gt;Node3 -->
<g id="edge4" class="edge"><title>Node2&#45;&gt;Node3</title>
<path fill="none" stroke="midnightblue" d="M126.905,-65.9083C116.421,-55.8438 104.479,-44.3799 94.9063,-35.19"/>
<polygon fill="midnightblue" stroke="midnightblue" points="124.588,-68.5365 134.226,-72.937 129.436,-63.4868 124.588,-68.5365"/>
</g>
<!-- Node4 -->
<g id="node7" class="node"><title>Node4</title>
<a xlink:href="_rig_editor___main_8cpp.html" target="_top" xlink:title="source/main/rig_editor\l/RigEditor_Main.cpp">
<polygon fill="white" stroke="black" points="171.5,-1 171.5,-35 284.5,-35 284.5,-1 171.5,-1"/>
<text text-anchor="start" x="179.5" y="-22" font-family="Helvetica,sans-Serif" font-size="10.00">source/main/rig_editor</text>
<text text-anchor="middle" x="228" y="-9" font-family="Helvetica,sans-Serif" font-size="10.00">/RigEditor_Main.cpp</text>
</a>
</g>
<!-- Node2&#45;&gt;Node4 -->
<g id="edge6" class="edge"><title>Node2&#45;&gt;Node4</title>
<path fill="none" stroke="midnightblue" d="M177.43,-65.9083C188.054,-55.8438 200.155,-44.3799 209.855,-35.19"/>
<polygon fill="midnightblue" stroke="midnightblue" points="174.863,-63.5187 170.011,-72.937 179.678,-68.6004 174.863,-63.5187"/>
</g>
</g>
</svg>
