<?xml version="1.0" encoding="UTF-8" standalone="no"?>
<!DOCTYPE svg PUBLIC "-//W3C//DTD SVG 1.1//EN"
 "http://www.w3.org/Graphics/SVG/1.1/DTD/svg11.dtd">
<!-- Generated by graphviz version 2.26.3 (20100126.1600)
 -->
<!-- Title: source/main/gui/panels/GUI_RigEditorShocks2Panel.cpp Pages: 1 -->
<svg width="2647pt" height="550pt"
 viewBox="0.00 0.00 2646.63 550.00" xmlns="http://www.w3.org/2000/svg" xmlns:xlink="http://www.w3.org/1999/xlink">
<g id="graph1" class="graph" transform="scale(1 1) rotate(0) translate(4 546)">
<title>source/main/gui/panels/GUI_RigEditorShocks2Panel.cpp</title>
<polygon fill="white" stroke="white" points="-4,5 -4,-546 2643.63,-546 2643.63,5 -4,5"/>
<!-- Node1 -->
<g id="node1" class="node"><title>Node1</title>
<polygon fill="#bfbfbf" stroke="black" points="1784.13,-507 1784.13,-541 1949.13,-541 1949.13,-507 1784.13,-507"/>
<text text-anchor="start" x="1792.13" y="-528" font-family="Helvetica,sans-Serif" font-size="10.00">source/main/gui/panels</text>
<text text-anchor="middle" x="1866.63" y="-515" font-family="Helvetica,sans-Serif" font-size="10.00">/GUI_RigEditorShocks2Panel.cpp</text>
</g>
<!-- Node2 -->
<g id="node3" class="node"><title>Node2</title>
<a xlink:href="_g_u_i___rig_editor_shocks2_panel_8h.html" target="_top" xlink:title="GUI_RigEditorShocks2Panel.h">
<polygon fill="white" stroke="black" points="1790.63,-448.5 1790.63,-469.5 1942.63,-469.5 1942.63,-448.5 1790.63,-448.5"/>
<text text-anchor="middle" x="1866.63" y="-456.5" font-family="Helvetica,sans-Serif" font-size="10.00">GUI_RigEditorShocks2Panel.h</text>
</a>
</g>
<!-- Node1&#45;&gt;Node2 -->
<g id="edge2" class="edge"><title>Node1&#45;&gt;Node2</title>
<path fill="none" stroke="midnightblue" d="M1866.63,-506.922C1866.63,-498.67 1866.63,-488.692 1866.63,-479.982"/>
<polygon fill="midnightblue" stroke="midnightblue" points="1870.13,-479.852 1866.63,-469.852 1863.13,-479.852 1870.13,-479.852"/>
</g>
<!-- Node24 -->
<g id="node50" class="node"><title>Node24</title>
<polygon fill="white" stroke="#bfbfbf" points="741.634,-181.5 741.634,-202.5 797.634,-202.5 797.634,-181.5 741.634,-181.5"/>
<text text-anchor="middle" x="769.634" y="-189.5" font-family="Helvetica,sans-Serif" font-size="10.00">MyGUI.h</text>
</g>
<!-- Node1&#45;&gt;Node24 -->
<g id="edge142" class="edge"><title>Node1&#45;&gt;Node24</title>
<path fill="none" stroke="midnightblue" d="M1784.06,-522.129C1441.32,-513.831 148.634,-477.028 148.634,-394 148.634,-394 148.634,-394 148.634,-329 148.634,-269.072 595.329,-212.251 731.013,-196.373"/>
<polygon fill="midnightblue" stroke="midnightblue" points="731.807,-199.805 741.337,-195.174 731,-192.851 731.807,-199.805"/>
</g>
<!-- Node34 -->
<g id="node80" class="node"><title>Node34</title>
<a xlink:href="_rig_editor___rig_elements_aggregate_data_8h.html" target="_top" xlink:title="RigEditor_RigElementsAggregate\lData.h">
<polygon fill="white" stroke="black" points="1907.13,-247 1907.13,-281 2070.13,-281 2070.13,-247 1907.13,-247"/>
<text text-anchor="start" x="1915.13" y="-268" font-family="Helvetica,sans-Serif" font-size="10.00">RigEditor_RigElementsAggregate</text>
<text text-anchor="middle" x="1988.63" y="-255" font-family="Helvetica,sans-Serif" font-size="10.00">Data.h</text>
</a>
</g>
<!-- Node1&#45;&gt;Node34 -->
<g id="edge140" class="edge"><title>Node1&#45;&gt;Node34</title>
<path fill="none" stroke="midnightblue" d="M1901.79,-506.946C1918.34,-497.679 1937.5,-485.031 1951.63,-470 1971.8,-448.549 1972.86,-439.4 1983.63,-412 1999.2,-372.412 2006.65,-360.24 2001.63,-318 2000.58,-309.15 1998.6,-299.652 1996.49,-291.127"/>
<polygon fill="midnightblue" stroke="midnightblue" points="1999.84,-290.101 1993.91,-281.32 1993.07,-291.882 1999.84,-290.101"/>
</g>
<!-- Node35 -->
<g id="node84" class="node"><title>Node35</title>
<a xlink:href="_rig_def___file_8h.html" target="_top" xlink:title="Structures which represent a rig&#45;definition file (1:1 match) ">
<polygon fill="white" stroke="black" points="2315.13,-181.5 2315.13,-202.5 2392.13,-202.5 2392.13,-181.5 2315.13,-181.5"/>
<text text-anchor="middle" x="2353.63" y="-189.5" font-family="Helvetica,sans-Serif" font-size="10.00">RigDef_File.h</text>
</a>
</g>
<!-- Node1&#45;&gt;Node35 -->
<g id="edge134" class="edge"><title>Node1&#45;&gt;Node35</title>
<path fill="none" stroke="midnightblue" d="M1949.59,-512.5C2060.86,-494.704 2244.63,-455.937 2244.63,-394 2244.63,-394 2244.63,-394 2244.63,-329 2244.63,-275.936 2295.33,-231.531 2327.57,-208.654"/>
<polygon fill="midnightblue" stroke="midnightblue" points="2329.86,-211.33 2336.12,-202.784 2325.9,-205.56 2329.86,-211.33"/>
</g>
<!-- Node43 -->
<g id="node111" class="node"><title>Node43</title>
<a xlink:href="_rig_editor___config_8h.html" target="_top" xlink:title="RigEditor_Config.h">
<polygon fill="white" stroke="black" points="22.1335,-318.5 22.1335,-339.5 121.134,-339.5 121.134,-318.5 22.1335,-318.5"/>
<text text-anchor="middle" x="71.6335" y="-326.5" font-family="Helvetica,sans-Serif" font-size="10.00">RigEditor_Config.h</text>
</a>
</g>
<!-- Node1&#45;&gt;Node43 -->
<g id="edge136" class="edge"><title>Node1&#45;&gt;Node43</title>
<path fill="none" stroke="midnightblue" d="M1783.94,-523.849C1448.5,-522.926 203.767,-516.377 134.634,-470 93.604,-442.476 78.9993,-381.519 74.0364,-349.522"/>
<polygon fill="midnightblue" stroke="midnightblue" points="77.4896,-348.942 72.6555,-339.514 70.5553,-349.898 77.4896,-348.942"/>
</g>
<!-- Node3 -->
<g id="node5" class="node"><title>Node3</title>
<a xlink:href="_forward_declarations_8h.html" target="_top" xlink:title="Global forward declarations. ">
<polygon fill="white" stroke="black" points="1158.13,-0.5 1158.13,-21.5 1273.13,-21.5 1273.13,-0.5 1158.13,-0.5"/>
<text text-anchor="middle" x="1215.63" y="-8.5" font-family="Helvetica,sans-Serif" font-size="10.00">ForwardDeclarations.h</text>
</a>
</g>
<!-- Node2&#45;&gt;Node3 -->
<g id="edge4" class="edge"><title>Node2&#45;&gt;Node3</title>
<path fill="none" stroke="midnightblue" d="M1861.33,-448.168C1851.1,-426.235 1829.63,-374.758 1829.63,-329 1829.63,-329 1829.63,-329 1829.63,-264 1829.63,-168.128 1959.04,-128.097 1893.63,-58 1873.02,-35.9113 1451.32,-19.0801 1283.58,-13.2347"/>
<polygon fill="midnightblue" stroke="midnightblue" points="1283.5,-9.72992 1273.39,-12.8821 1283.26,-16.7257 1283.5,-9.72992"/>
</g>
<!-- Node4 -->
<g id="node7" class="node"><title>Node4</title>
<a xlink:href="_g_u_i___rig_editor_shocks2_panel_layout_8h.html" target="_top" xlink:title="GUI_RigEditorShocks2Panel\lLayout.h">
<polygon fill="white" stroke="black" points="771.134,-377 771.134,-411 914.134,-411 914.134,-377 771.134,-377"/>
<text text-anchor="start" x="779.134" y="-398" font-family="Helvetica,sans-Serif" font-size="10.00">GUI_RigEditorShocks2Panel</text>
<text text-anchor="middle" x="842.634" y="-385" font-family="Helvetica,sans-Serif" font-size="10.00">Layout.h</text>
</a>
</g>
<!-- Node2&#45;&gt;Node4 -->
<g id="edge6" class="edge"><title>Node2&#45;&gt;Node4</title>
<path fill="none" stroke="midnightblue" d="M1790.5,-454.168C1602.67,-442.244 1118.36,-411.502 924.571,-399.201"/>
<polygon fill="midnightblue" stroke="midnightblue" points="924.652,-395.699 914.451,-398.559 924.209,-402.685 924.652,-395.699"/>
</g>
<!-- Node27 -->
<g id="node59" class="node"><title>Node27</title>
<a xlink:href="_rig_editor___forward_declarations_8h.html" target="_top" xlink:title="RigEditor_ForwardDeclarations.h">
<polygon fill="white" stroke="black" points="1940.13,-116.5 1940.13,-137.5 2101.13,-137.5 2101.13,-116.5 1940.13,-116.5"/>
<text text-anchor="middle" x="2020.63" y="-124.5" font-family="Helvetica,sans-Serif" font-size="10.00">RigEditor_ForwardDeclarations.h</text>
</a>
</g>
<!-- Node2&#45;&gt;Node27 -->
<g id="edge64" class="edge"><title>Node2&#45;&gt;Node27</title>
<path fill="none" stroke="midnightblue" d="M1941.95,-448.466C2009.36,-434.291 2097.63,-401.825 2097.63,-329 2097.63,-329 2097.63,-329 2097.63,-264 2097.63,-216.2 2061.57,-169.661 2038.81,-145.044"/>
<polygon fill="midnightblue" stroke="midnightblue" points="2041.1,-142.382 2031.67,-137.566 2036.04,-147.216 2041.1,-142.382"/>
</g>
<!-- Node28 -->
<g id="node61" class="node"><title>Node28</title>
<a xlink:href="_rig_editor___rig_element_gui_panel_base_8h.html" target="_top" xlink:title="RigEditor_RigElementGuiPanel\lBase.h">
<polygon fill="white" stroke="black" points="1628.13,-175 1628.13,-209 1781.13,-209 1781.13,-175 1628.13,-175"/>
<text text-anchor="start" x="1636.13" y="-196" font-family="Helvetica,sans-Serif" font-size="10.00">RigEditor_RigElementGuiPanel</text>
<text text-anchor="middle" x="1704.63" y="-183" font-family="Helvetica,sans-Serif" font-size="10.00">Base.h</text>
</a>
</g>
<!-- Node2&#45;&gt;Node28 -->
<g id="edge66" class="edge"><title>Node2&#45;&gt;Node28</title>
<path fill="none" stroke="midnightblue" d="M1852.34,-448.195C1841.33,-439.343 1826.23,-426.029 1815.63,-412 1767.9,-348.785 1731.15,-261.928 1714.46,-218.696"/>
<polygon fill="midnightblue" stroke="midnightblue" points="1717.67,-217.277 1710.84,-209.174 1711.13,-219.765 1717.67,-217.277"/>
</g>
<!-- Node33 -->
<g id="node77" class="node"><title>Node33</title>
<a xlink:href="_rig_editor___i_main_8h.html" target="_top" xlink:title="RigEditor_IMain.h">
<polygon fill="white" stroke="black" points="1857.13,-383.5 1857.13,-404.5 1952.13,-404.5 1952.13,-383.5 1857.13,-383.5"/>
<text text-anchor="middle" x="1904.63" y="-391.5" font-family="Helvetica,sans-Serif" font-size="10.00">RigEditor_IMain.h</text>
</a>
</g>
<!-- Node2&#45;&gt;Node33 -->
<g id="edge88" class="edge"><title>Node2&#45;&gt;Node33</title>
<path fill="none" stroke="midnightblue" d="M1872.91,-448.267C1878.44,-438.801 1886.64,-424.777 1893.32,-413.357"/>
<polygon fill="midnightblue" stroke="midnightblue" points="1896.45,-414.933 1898.48,-404.534 1890.41,-411.4 1896.45,-414.933"/>
</g>
<!-- Node2&#45;&gt;Node34 -->
<g id="edge92" class="edge"><title>Node2&#45;&gt;Node34</title>
<path fill="none" stroke="midnightblue" d="M1905.91,-448.447C1925.24,-441.267 1947.21,-429.76 1960.63,-412 1987.29,-376.726 1990.95,-323.493 1990.36,-291.406"/>
<polygon fill="midnightblue" stroke="midnightblue" points="1993.84,-290.878 1990.01,-281.003 1986.85,-291.116 1993.84,-290.878"/>
</g>
<!-- Node4&#45;&gt;Node3 -->
<g id="edge8" class="edge"><title>Node4&#45;&gt;Node3</title>
<path fill="none" stroke="midnightblue" d="M771.01,-378.92C549.781,-330.832 -101.075,-177.281 13.6335,-58 33.4219,-37.4228 896.791,-17.6992 1147.84,-12.3908"/>
<polygon fill="midnightblue" stroke="midnightblue" points="1148,-15.8884 1157.92,-12.1784 1147.85,-8.88992 1148,-15.8884"/>
</g>
<!-- Node5 -->
<g id="node10" class="node"><title>Node5</title>
<a xlink:href="_base_layout_8h.html" target="_top" xlink:title="BaseLayout.h">
<polygon fill="white" stroke="black" points="804.134,-318.5 804.134,-339.5 881.134,-339.5 881.134,-318.5 804.134,-318.5"/>
<text text-anchor="middle" x="842.634" y="-326.5" font-family="Helvetica,sans-Serif" font-size="10.00">BaseLayout.h</text>
</a>
</g>
<!-- Node4&#45;&gt;Node5 -->
<g id="edge10" class="edge"><title>Node4&#45;&gt;Node5</title>
<path fill="none" stroke="midnightblue" d="M842.634,-376.922C842.634,-368.67 842.634,-358.692 842.634,-349.982"/>
<polygon fill="midnightblue" stroke="midnightblue" points="846.134,-349.852 842.634,-339.852 839.134,-349.852 846.134,-349.852"/>
</g>
<!-- Node6 -->
<g id="node12" class="node"><title>Node6</title>
<a xlink:href="_ro_r_prerequisites_8h.html" target="_top" xlink:title="RoRPrerequisites.h">
<polygon fill="white" stroke="black" points="872.634,-116.5 872.634,-137.5 974.634,-137.5 974.634,-116.5 872.634,-116.5"/>
<text text-anchor="middle" x="923.634" y="-124.5" font-family="Helvetica,sans-Serif" font-size="10.00">RoRPrerequisites.h</text>
</a>
</g>
<!-- Node5&#45;&gt;Node6 -->
<g id="edge12" class="edge"><title>Node5&#45;&gt;Node6</title>
<path fill="none" stroke="midnightblue" d="M857.777,-318.336C869.452,-309.562 885.442,-296.283 896.634,-282 918.824,-253.68 925.174,-244.969 933.634,-210 938.7,-189.054 934.526,-164.485 930.126,-147.541"/>
<polygon fill="midnightblue" stroke="midnightblue" points="933.405,-146.279 927.296,-137.623 926.674,-148.199 933.405,-146.279"/>
</g>
<!-- Node5&#45;&gt;Node24 -->
<g id="edge52" class="edge"><title>Node5&#45;&gt;Node24</title>
<path fill="none" stroke="midnightblue" d="M825.365,-318.392C813.212,-310.012 797.576,-297.216 788.634,-282 776.053,-260.593 771.745,-231.99 770.302,-212.828"/>
<polygon fill="midnightblue" stroke="midnightblue" points="773.792,-212.554 769.743,-202.763 766.803,-212.942 773.792,-212.554"/>
</g>
<!-- Node25 -->
<g id="node52" class="node"><title>Node25</title>
<a xlink:href="_wraps_attribute_8h.html" target="_top" xlink:title="WrapsAttribute.h">
<polygon fill="white" stroke="black" points="797.634,-253.5 797.634,-274.5 887.634,-274.5 887.634,-253.5 797.634,-253.5"/>
<text text-anchor="middle" x="842.634" y="-261.5" font-family="Helvetica,sans-Serif" font-size="10.00">WrapsAttribute.h</text>
</a>
</g>
<!-- Node5&#45;&gt;Node25 -->
<g id="edge54" class="edge"><title>Node5&#45;&gt;Node25</title>
<path fill="none" stroke="midnightblue" d="M842.634,-318.267C842.634,-309.18 842.634,-295.892 842.634,-284.74"/>
<polygon fill="midnightblue" stroke="midnightblue" points="846.134,-284.534 842.634,-274.534 839.134,-284.534 846.134,-284.534"/>
</g>
<!-- Node6&#45;&gt;Node3 -->
<g id="edge38" class="edge"><title>Node6&#45;&gt;Node3</title>
<path fill="none" stroke="midnightblue" d="M872.502,-122.644C790.653,-115.147 637.726,-98.7908 621.634,-80 615.273,-72.5735 614.998,-65.1814 621.634,-58 639.284,-38.8982 995.852,-20.8002 1147.9,-13.9195"/>
<polygon fill="midnightblue" stroke="midnightblue" points="1148.21,-17.4088 1158.05,-13.4631 1147.9,-10.4159 1148.21,-17.4088"/>
</g>
<!-- Node7 -->
<g id="node14" class="node"><title>Node7</title>
<polygon fill="white" stroke="#bfbfbf" points="1564.13,-58.5 1564.13,-79.5 1679.13,-79.5 1679.13,-58.5 1564.13,-58.5"/>
<text text-anchor="middle" x="1621.63" y="-66.5" font-family="Helvetica,sans-Serif" font-size="10.00">OgreAxisAlignedBox.h</text>
</g>
<!-- Node6&#45;&gt;Node7 -->
<g id="edge14" class="edge"><title>Node6&#45;&gt;Node7</title>
<path fill="none" stroke="midnightblue" d="M974.987,-124.766C1081.21,-119.803 1332.94,-106.266 1553.92,-80.1223"/>
<polygon fill="midnightblue" stroke="midnightblue" points="1554.57,-83.5693 1564.08,-78.9079 1553.74,-76.6187 1554.57,-83.5693"/>
</g>
<!-- Node8 -->
<g id="node16" class="node"><title>Node8</title>
<polygon fill="white" stroke="#bfbfbf" points="22.1335,-58.5 22.1335,-79.5 121.134,-79.5 121.134,-58.5 22.1335,-58.5"/>
<text text-anchor="middle" x="71.6335" y="-66.5" font-family="Helvetica,sans-Serif" font-size="10.00">OgreColourValue.h</text>
</g>
<!-- Node6&#45;&gt;Node8 -->
<g id="edge16" class="edge"><title>Node6&#45;&gt;Node8</title>
<path fill="none" stroke="midnightblue" d="M872.336,-126.24C747.23,-123.9 416.386,-114.772 131.361,-80.0866"/>
<polygon fill="midnightblue" stroke="midnightblue" points="131.594,-76.5889 121.242,-78.8419 130.74,-83.5366 131.594,-76.5889"/>
</g>
<!-- Node9 -->
<g id="node18" class="node"><title>Node9</title>
<polygon fill="white" stroke="#bfbfbf" points="138.134,-58.5 138.134,-79.5 241.134,-79.5 241.134,-58.5 138.134,-58.5"/>
<text text-anchor="middle" x="189.634" y="-66.5" font-family="Helvetica,sans-Serif" font-size="10.00">OgreHeaderPrefix.h</text>
</g>
<!-- Node6&#45;&gt;Node9 -->
<g id="edge18" class="edge"><title>Node6&#45;&gt;Node9</title>
<path fill="none" stroke="midnightblue" d="M872.289,-125.377C760.935,-121.434 488.782,-109.518 251.49,-80.1256"/>
<polygon fill="midnightblue" stroke="midnightblue" points="251.645,-76.6177 241.287,-78.8482 250.775,-83.5635 251.645,-76.6177"/>
</g>
<!-- Node10 -->
<g id="node20" class="node"><title>Node10</title>
<polygon fill="white" stroke="#bfbfbf" points="258.134,-58.5 258.134,-79.5 357.134,-79.5 357.134,-58.5 258.134,-58.5"/>
<text text-anchor="middle" x="307.634" y="-66.5" font-family="Helvetica,sans-Serif" font-size="10.00">OgreLogManager.h</text>
</g>
<!-- Node6&#45;&gt;Node10 -->
<g id="edge20" class="edge"><title>Node6&#45;&gt;Node10</title>
<path fill="none" stroke="midnightblue" d="M872.279,-124.454C775.394,-119.264 558.864,-105.826 367.225,-80.1123"/>
<polygon fill="midnightblue" stroke="midnightblue" points="367.632,-76.6355 357.252,-78.7599 366.691,-83.572 367.632,-76.6355"/>
</g>
<!-- Node11 -->
<g id="node22" class="node"><title>Node11</title>
<polygon fill="white" stroke="#bfbfbf" points="374.134,-58.5 374.134,-79.5 467.134,-79.5 467.134,-58.5 374.134,-58.5"/>
<text text-anchor="middle" x="420.634" y="-66.5" font-family="Helvetica,sans-Serif" font-size="10.00">OgreQuaternion.h</text>
</g>
<!-- Node6&#45;&gt;Node11 -->
<g id="edge22" class="edge"><title>Node6&#45;&gt;Node11</title>
<path fill="none" stroke="midnightblue" d="M872.374,-123.181C790.806,-116.761 626.272,-102.421 477.61,-80.2023"/>
<polygon fill="midnightblue" stroke="midnightblue" points="477.8,-76.6913 467.389,-78.6583 476.754,-83.6128 477.8,-76.6913"/>
</g>
<!-- Node12 -->
<g id="node24" class="node"><title>Node12</title>
<polygon fill="white" stroke="#bfbfbf" points="1814.13,-58.5 1814.13,-79.5 1885.13,-79.5 1885.13,-58.5 1814.13,-58.5"/>
<text text-anchor="middle" x="1849.63" y="-66.5" font-family="Helvetica,sans-Serif" font-size="10.00">OgreString.h</text>
</g>
<!-- Node6&#45;&gt;Node12 -->
<g id="edge24" class="edge"><title>Node6&#45;&gt;Node12</title>
<path fill="none" stroke="midnightblue" d="M974.818,-125.563C1134.73,-120.874 1624.52,-104.954 1803.65,-80.0337"/>
<polygon fill="midnightblue" stroke="midnightblue" points="1804.33,-83.4714 1813.73,-78.5722 1803.33,-76.5439 1804.33,-83.4714"/>
</g>
<!-- Node13 -->
<g id="node26" class="node"><title>Node13</title>
<polygon fill="white" stroke="#bfbfbf" points="1940.63,-58.5 1940.63,-79.5 2054.63,-79.5 2054.63,-58.5 1940.63,-58.5"/>
<text text-anchor="middle" x="1997.63" y="-66.5" font-family="Helvetica,sans-Serif" font-size="10.00">OgreStringConverter.h</text>
</g>
<!-- Node6&#45;&gt;Node13 -->
<g id="edge26" class="edge"><title>Node6&#45;&gt;Node13</title>
<path fill="none" stroke="midnightblue" d="M974.705,-125.551C1119.12,-121.232 1542.72,-107.037 1893.63,-80 1905.51,-79.0847 1918.14,-77.9158 1930.34,-76.6835"/>
<polygon fill="midnightblue" stroke="midnightblue" points="1930.88,-80.1463 1940.47,-75.6376 1930.16,-73.1834 1930.88,-80.1463"/>
</g>
<!-- Node14 -->
<g id="node28" class="node"><title>Node14</title>
<polygon fill="white" stroke="#bfbfbf" points="484.134,-58.5 484.134,-79.5 575.134,-79.5 575.134,-58.5 484.134,-58.5"/>
<text text-anchor="middle" x="529.634" y="-66.5" font-family="Helvetica,sans-Serif" font-size="10.00">OgreUTFString.h</text>
</g>
<!-- Node6&#45;&gt;Node14 -->
<g id="edge28" class="edge"><title>Node6&#45;&gt;Node14</title>
<path fill="none" stroke="midnightblue" d="M872.446,-120.545C806.643,-112.081 688.907,-96.3732 588.634,-80 587.554,-79.8237 586.463,-79.6433 585.365,-79.4596"/>
<polygon fill="midnightblue" stroke="midnightblue" points="585.785,-75.9805 575.336,-77.7305 584.596,-82.8787 585.785,-75.9805"/>
</g>
<!-- Node15 -->
<g id="node30" class="node"><title>Node15</title>
<polygon fill="white" stroke="#bfbfbf" points="630.634,-58.5 630.634,-79.5 710.634,-79.5 710.634,-58.5 630.634,-58.5"/>
<text text-anchor="middle" x="670.634" y="-66.5" font-family="Helvetica,sans-Serif" font-size="10.00">OgreVector2.h</text>
</g>
<!-- Node6&#45;&gt;Node15 -->
<g id="edge30" class="edge"><title>Node6&#45;&gt;Node15</title>
<path fill="none" stroke="midnightblue" d="M877.817,-116.497C833.468,-106.33 766.412,-90.957 720.683,-80.4738"/>
<polygon fill="midnightblue" stroke="midnightblue" points="721.222,-77.0066 710.693,-78.1835 719.658,-83.8296 721.222,-77.0066"/>
</g>
<!-- Node16 -->
<g id="node32" class="node"><title>Node16</title>
<polygon fill="white" stroke="#bfbfbf" points="2238.63,-58.5 2238.63,-79.5 2318.63,-79.5 2318.63,-58.5 2238.63,-58.5"/>
<text text-anchor="middle" x="2278.63" y="-66.5" font-family="Helvetica,sans-Serif" font-size="10.00">OgreVector3.h</text>
</g>
<!-- Node6&#45;&gt;Node16 -->
<g id="edge32" class="edge"><title>Node6&#45;&gt;Node16</title>
<path fill="none" stroke="midnightblue" d="M974.652,-125.715C1180.31,-120.44 1949.02,-99.7948 2191.63,-80 2203.49,-79.0329 2216.21,-77.6317 2228.16,-76.1515"/>
<polygon fill="midnightblue" stroke="midnightblue" points="2228.95,-79.5789 2238.43,-74.8392 2228.07,-72.6354 2228.95,-79.5789"/>
</g>
<!-- Node17 -->
<g id="node34" class="node"><title>Node17</title>
<polygon fill="white" stroke="#bfbfbf" points="728.134,-58.5 728.134,-79.5 831.134,-79.5 831.134,-58.5 728.134,-58.5"/>
<text text-anchor="middle" x="779.634" y="-66.5" font-family="Helvetica,sans-Serif" font-size="10.00">OgrePrerequisites.h</text>
</g>
<!-- Node6&#45;&gt;Node17 -->
<g id="edge34" class="edge"><title>Node6&#45;&gt;Node17</title>
<path fill="none" stroke="midnightblue" d="M897.556,-116.497C874.559,-107.234 840.833,-93.6499 815.334,-83.3793"/>
<polygon fill="midnightblue" stroke="midnightblue" points="816.587,-80.1108 806.003,-79.6212 813.972,-86.6039 816.587,-80.1108"/>
</g>
<!-- Node18 -->
<g id="node36" class="node"><title>Node18</title>
<polygon fill="white" stroke="#bfbfbf" points="848.634,-58.5 848.634,-79.5 998.634,-79.5 998.634,-58.5 848.634,-58.5"/>
<text text-anchor="middle" x="923.634" y="-66.5" font-family="Helvetica,sans-Serif" font-size="10.00">Overlay/OgreOverlaySystem.h</text>
</g>
<!-- Node6&#45;&gt;Node18 -->
<g id="edge36" class="edge"><title>Node6&#45;&gt;Node18</title>
<path fill="none" stroke="midnightblue" d="M923.634,-116.362C923.634,-108.922 923.634,-98.7427 923.634,-89.7276"/>
<polygon fill="midnightblue" stroke="midnightblue" points="927.134,-89.5706 923.634,-79.5707 920.134,-89.5707 927.134,-89.5706"/>
</g>
<!-- Node19 -->
<g id="node39" class="node"><title>Node19</title>
<a xlink:href="_global_environment_8h.html" target="_top" xlink:title="GlobalEnvironment.h">
<polygon fill="white" stroke="black" points="1162.13,-58.5 1162.13,-79.5 1269.13,-79.5 1269.13,-58.5 1162.13,-58.5"/>
<text text-anchor="middle" x="1215.63" y="-66.5" font-family="Helvetica,sans-Serif" font-size="10.00">GlobalEnvironment.h</text>
</a>
</g>
<!-- Node6&#45;&gt;Node19 -->
<g id="edge40" class="edge"><title>Node6&#45;&gt;Node19</title>
<path fill="none" stroke="midnightblue" d="M974.83,-116.831C1024.31,-107.003 1099.38,-92.0915 1152.53,-81.5343"/>
<polygon fill="midnightblue" stroke="midnightblue" points="1153.39,-84.9311 1162.52,-79.5499 1152.03,-78.0653 1153.39,-84.9311"/>
</g>
<!-- Node20 -->
<g id="node42" class="node"><title>Node20</title>
<a xlink:href="_zeroed_memory_allocator_8h.html" target="_top" xlink:title="ZeroedMemoryAllocator.h">
<polygon fill="white" stroke="black" points="1016.63,-58.5 1016.63,-79.5 1144.63,-79.5 1144.63,-58.5 1016.63,-58.5"/>
<text text-anchor="middle" x="1080.63" y="-66.5" font-family="Helvetica,sans-Serif" font-size="10.00">ZeroedMemoryAllocator.h</text>
</a>
</g>
<!-- Node6&#45;&gt;Node20 -->
<g id="edge44" class="edge"><title>Node6&#45;&gt;Node20</title>
<path fill="none" stroke="midnightblue" d="M952.065,-116.497C977.439,-107.123 1014.79,-93.3242 1042.7,-83.0122"/>
<polygon fill="midnightblue" stroke="midnightblue" points="1043.98,-86.2716 1052.15,-79.5231 1041.56,-79.7054 1043.98,-86.2716"/>
</g>
<!-- Node21 -->
<g id="node44" class="node"><title>Node21</title>
<a xlink:href="_bit_flags_8h.html" target="_top" xlink:title="../common/BitFlags.h">
<polygon fill="white" stroke="black" points="2072.63,-58.5 2072.63,-79.5 2182.63,-79.5 2182.63,-58.5 2072.63,-58.5"/>
<text text-anchor="middle" x="2127.63" y="-66.5" font-family="Helvetica,sans-Serif" font-size="10.00">../common/BitFlags.h</text>
</a>
</g>
<!-- Node6&#45;&gt;Node21 -->
<g id="edge46" class="edge"><title>Node6&#45;&gt;Node21</title>
<path fill="none" stroke="midnightblue" d="M974.674,-125.773C1164.19,-121.081 1828.1,-103.414 2062.38,-79.9825"/>
<polygon fill="midnightblue" stroke="midnightblue" points="2062.95,-83.4421 2072.54,-78.9337 2062.23,-76.479 2062.95,-83.4421"/>
</g>
<!-- Node23 -->
<g id="node48" class="node"><title>Node23</title>
<polygon fill="white" stroke="#bfbfbf" points="1324.13,-58.5 1324.13,-79.5 1433.13,-79.5 1433.13,-58.5 1324.13,-58.5"/>
<text text-anchor="middle" x="1378.63" y="-66.5" font-family="Helvetica,sans-Serif" font-size="10.00">MyGUI_Prerequest.h</text>
</g>
<!-- Node6&#45;&gt;Node23 -->
<g id="edge50" class="edge"><title>Node6&#45;&gt;Node23</title>
<path fill="none" stroke="midnightblue" d="M974.943,-120.459C1058.28,-109.837 1222.87,-88.855 1314.05,-77.233"/>
<polygon fill="midnightblue" stroke="midnightblue" points="1314.51,-80.7029 1323.98,-75.9664 1313.62,-73.7591 1314.51,-80.7029"/>
</g>
<!-- Node19&#45;&gt;Node3 -->
<g id="edge42" class="edge"><title>Node19&#45;&gt;Node3</title>
<path fill="none" stroke="midnightblue" d="M1215.63,-58.3619C1215.63,-50.9219 1215.63,-40.7427 1215.63,-31.7276"/>
<polygon fill="midnightblue" stroke="midnightblue" points="1219.13,-31.5706 1215.63,-21.5707 1212.13,-31.5707 1219.13,-31.5706"/>
</g>
<!-- Node22 -->
<g id="node46" class="node"><title>Node22</title>
<polygon fill="white" stroke="#bfbfbf" points="2145.63,-0.5 2145.63,-21.5 2191.63,-21.5 2191.63,-0.5 2145.63,-0.5"/>
<text text-anchor="middle" x="2168.63" y="-8.5" font-family="Helvetica,sans-Serif" font-size="10.00">cstdint</text>
</g>
<!-- Node21&#45;&gt;Node22 -->
<g id="edge48" class="edge"><title>Node21&#45;&gt;Node22</title>
<path fill="none" stroke="midnightblue" d="M2135.15,-58.3619C2140.76,-50.4313 2148.57,-39.3885 2155.23,-29.9606"/>
<polygon fill="midnightblue" stroke="midnightblue" points="2158.25,-31.7568 2161.16,-21.5707 2152.53,-27.7161 2158.25,-31.7568"/>
</g>
<!-- Node25&#45;&gt;Node6 -->
<g id="edge56" class="edge"><title>Node25&#45;&gt;Node6</title>
<path fill="none" stroke="midnightblue" d="M841.244,-253.377C839.463,-235.546 838.234,-199.086 853.634,-174 861.909,-160.519 875.671,-150.045 888.813,-142.441"/>
<polygon fill="midnightblue" stroke="midnightblue" points="890.593,-145.457 897.737,-137.633 887.273,-139.295 890.593,-145.457"/>
</g>
<!-- Node25&#45;&gt;Node24 -->
<g id="edge58" class="edge"><title>Node25&#45;&gt;Node24</title>
<path fill="none" stroke="midnightblue" d="M831.862,-253.376C820.217,-241.89 801.462,-223.393 787.582,-209.703"/>
<polygon fill="midnightblue" stroke="midnightblue" points="790.027,-207.198 780.449,-202.667 785.111,-212.181 790.027,-207.198"/>
</g>
<!-- Node26 -->
<g id="node56" class="node"><title>Node26</title>
<a xlink:href="_attribute_8h.html" target="_top" xlink:title="Attribute.h">
<polygon fill="white" stroke="black" points="862.634,-181.5 862.634,-202.5 924.634,-202.5 924.634,-181.5 862.634,-181.5"/>
<text text-anchor="middle" x="893.634" y="-189.5" font-family="Helvetica,sans-Serif" font-size="10.00">Attribute.h</text>
</a>
</g>
<!-- Node25&#45;&gt;Node26 -->
<g id="edge60" class="edge"><title>Node25&#45;&gt;Node26</title>
<path fill="none" stroke="midnightblue" d="M850.159,-253.376C858.069,-242.209 870.673,-224.415 880.278,-210.855"/>
<polygon fill="midnightblue" stroke="midnightblue" points="883.153,-212.851 886.077,-202.667 877.441,-208.805 883.153,-212.851"/>
</g>
<!-- Node26&#45;&gt;Node6 -->
<g id="edge62" class="edge"><title>Node26&#45;&gt;Node6</title>
<path fill="none" stroke="midnightblue" d="M898.587,-181.267C902.912,-171.896 909.299,-158.057 914.541,-146.7"/>
<polygon fill="midnightblue" stroke="midnightblue" points="917.759,-148.08 918.772,-137.534 911.403,-145.147 917.759,-148.08"/>
</g>
<!-- Node28&#45;&gt;Node3 -->
<g id="edge68" class="edge"><title>Node28&#45;&gt;Node3</title>
<path fill="none" stroke="midnightblue" d="M1628.12,-179.502C1577.66,-170.31 1510.45,-156.251 1452.63,-138 1389.58,-118.095 1373.59,-111.829 1315.63,-80 1287.13,-64.3446 1256.68,-42.518 1236.98,-27.6325"/>
<polygon fill="midnightblue" stroke="midnightblue" points="1239.05,-24.8094 1228.98,-21.5227 1234.8,-30.3731 1239.05,-24.8094"/>
</g>
<!-- Node28&#45;&gt;Node12 -->
<g id="edge86" class="edge"><title>Node28&#45;&gt;Node12</title>
<path fill="none" stroke="midnightblue" d="M1698.66,-174.835C1694.03,-158.162 1690.26,-132.949 1702.63,-116 1708.87,-107.454 1763.39,-91.5576 1804.22,-80.637"/>
<polygon fill="midnightblue" stroke="midnightblue" points="1805.24,-83.9884 1814.01,-78.0441 1803.45,-77.2219 1805.24,-83.9884"/>
</g>
<!-- Node28&#45;&gt;Node21 -->
<g id="edge70" class="edge"><title>Node28&#45;&gt;Node21</title>
<path fill="none" stroke="midnightblue" d="M1751.65,-174.916C1797.29,-158.649 1868.71,-134.04 1931.63,-116 1977.18,-102.942 2029.38,-90.5492 2068.45,-81.7706"/>
<polygon fill="midnightblue" stroke="midnightblue" points="2069.59,-85.1004 2078.59,-79.5059 2068.07,-78.2686 2069.59,-85.1004"/>
</g>
<!-- Node28&#45;&gt;Node23 -->
<g id="edge82" class="edge"><title>Node28&#45;&gt;Node23</title>
<path fill="none" stroke="midnightblue" d="M1627.81,-175.977C1589.75,-166.885 1543.51,-154.085 1503.63,-138 1467.35,-123.364 1428.29,-100.546 1403.67,-85.1997"/>
<polygon fill="midnightblue" stroke="midnightblue" points="1405.3,-82.0913 1394.98,-79.7163 1401.57,-88.0119 1405.3,-82.0913"/>
</g>
<!-- Node28&#45;&gt;Node27 -->
<g id="edge80" class="edge"><title>Node28&#45;&gt;Node27</title>
<path fill="none" stroke="midnightblue" d="M1781.53,-176.182C1836.17,-164.944 1908.55,-150.054 1959.31,-139.613"/>
<polygon fill="midnightblue" stroke="midnightblue" points="1960.08,-143.03 1969.17,-137.587 1958.67,-136.173 1960.08,-143.03"/>
</g>
<!-- Node29 -->
<g id="node65" class="node"><title>Node29</title>
<a xlink:href="_gui_panel_base_8h.html" target="_top" xlink:title="GuiPanelBase.h">
<polygon fill="white" stroke="black" points="1512.13,-116.5 1512.13,-137.5 1599.13,-137.5 1599.13,-116.5 1512.13,-116.5"/>
<text text-anchor="middle" x="1555.63" y="-124.5" font-family="Helvetica,sans-Serif" font-size="10.00">GuiPanelBase.h</text>
</a>
</g>
<!-- Node28&#45;&gt;Node29 -->
<g id="edge72" class="edge"><title>Node28&#45;&gt;Node29</title>
<path fill="none" stroke="midnightblue" d="M1665.49,-174.922C1641.8,-164.588 1611.9,-151.545 1589.28,-141.676"/>
<polygon fill="midnightblue" stroke="midnightblue" points="1590.63,-138.449 1580.07,-137.658 1587.83,-144.865 1590.63,-138.449"/>
</g>
<!-- Node32 -->
<g id="node74" class="node"><title>Node32</title>
<polygon fill="white" stroke="#bfbfbf" points="1711.63,-116.5 1711.63,-137.5 1801.63,-137.5 1801.63,-116.5 1711.63,-116.5"/>
<text text-anchor="middle" x="1756.63" y="-124.5" font-family="Helvetica,sans-Serif" font-size="10.00">MyGUI_Colour.h</text>
</g>
<!-- Node28&#45;&gt;Node32 -->
<g id="edge84" class="edge"><title>Node28&#45;&gt;Node32</title>
<path fill="none" stroke="midnightblue" d="M1718.3,-174.922C1725.48,-165.937 1734.31,-154.905 1741.68,-145.691"/>
<polygon fill="midnightblue" stroke="midnightblue" points="1744.44,-147.847 1747.95,-137.852 1738.97,-143.474 1744.44,-147.847"/>
</g>
<!-- Node29&#45;&gt;Node23 -->
<g id="edge76" class="edge"><title>Node29&#45;&gt;Node23</title>
<path fill="none" stroke="midnightblue" d="M1523.58,-116.497C1494.72,-107.041 1452.13,-93.0829 1420.57,-82.7428"/>
<polygon fill="midnightblue" stroke="midnightblue" points="1421.34,-79.3111 1410.75,-79.5231 1419.16,-85.963 1421.34,-79.3111"/>
</g>
<!-- Node30 -->
<g id="node67" class="node"><title>Node30</title>
<polygon fill="white" stroke="#bfbfbf" points="1696.13,-58.5 1696.13,-79.5 1797.13,-79.5 1797.13,-58.5 1696.13,-58.5"/>
<text text-anchor="middle" x="1746.63" y="-66.5" font-family="Helvetica,sans-Serif" font-size="10.00">MyGUI_Common.h</text>
</g>
<!-- Node29&#45;&gt;Node30 -->
<g id="edge74" class="edge"><title>Node29&#45;&gt;Node30</title>
<path fill="none" stroke="midnightblue" d="M1590.22,-116.497C1621.63,-106.959 1668.12,-92.8408 1702.26,-82.475"/>
<polygon fill="midnightblue" stroke="midnightblue" points="1703.43,-85.7778 1711.98,-79.5231 1701.39,-79.0798 1703.43,-85.7778"/>
</g>
<!-- Node31 -->
<g id="node70" class="node"><title>Node31</title>
<polygon fill="white" stroke="#bfbfbf" points="1450.13,-58.5 1450.13,-79.5 1547.13,-79.5 1547.13,-58.5 1450.13,-58.5"/>
<text text-anchor="middle" x="1498.63" y="-66.5" font-family="Helvetica,sans-Serif" font-size="10.00">MyGUI_Window.h</text>
</g>
<!-- Node29&#45;&gt;Node31 -->
<g id="edge78" class="edge"><title>Node29&#45;&gt;Node31</title>
<path fill="none" stroke="midnightblue" d="M1545.18,-116.362C1537.06,-108.104 1525.63,-96.4725 1516.13,-86.8029"/>
<polygon fill="midnightblue" stroke="midnightblue" points="1518.53,-84.2497 1509.02,-79.5707 1513.53,-89.1562 1518.53,-84.2497"/>
</g>
<!-- Node33&#45;&gt;Node27 -->
<g id="edge90" class="edge"><title>Node33&#45;&gt;Node27</title>
<path fill="none" stroke="midnightblue" d="M1901.65,-383.112C1892.68,-347.783 1869.84,-235.103 1924.63,-174 1937.8,-159.312 1956.59,-148.718 1974.06,-141.351"/>
<polygon fill="midnightblue" stroke="midnightblue" points="1975.57,-144.516 1983.59,-137.584 1973,-138.007 1975.57,-144.516"/>
</g>
<!-- Node34&#45;&gt;Node6 -->
<g id="edge132" class="edge"><title>Node34&#45;&gt;Node6</title>
<path fill="none" stroke="midnightblue" d="M1906.83,-253.477C1701.26,-227.033 1166.5,-158.242 984.966,-134.89"/>
<polygon fill="midnightblue" stroke="midnightblue" points="985.163,-131.386 974.798,-133.582 984.27,-138.329 985.163,-131.386"/>
</g>
<!-- Node34&#45;&gt;Node7 -->
<g id="edge96" class="edge"><title>Node34&#45;&gt;Node7</title>
<path fill="none" stroke="midnightblue" d="M1968.14,-246.757C1922.3,-208.218 1815.14,-118.281 1810.63,-116 1788.78,-104.937 1731.14,-91.3436 1685.21,-81.6267"/>
<polygon fill="midnightblue" stroke="midnightblue" points="1685.81,-78.177 1675.3,-79.5529 1684.37,-85.0284 1685.81,-78.177"/>
</g>
<!-- Node34&#45;&gt;Node22 -->
<g id="edge94" class="edge"><title>Node34&#45;&gt;Node22</title>
<path fill="none" stroke="midnightblue" d="M2020.79,-246.946C2068.87,-219.346 2157.51,-159.82 2191.63,-80 2198.57,-63.774 2191.08,-44.7011 2182.85,-30.725"/>
<polygon fill="midnightblue" stroke="midnightblue" points="2185.56,-28.469 2177.19,-21.9612 2179.67,-32.2623 2185.56,-28.469"/>
</g>
<!-- Node34&#45;&gt;Node27 -->
<g id="edge128" class="edge"><title>Node34&#45;&gt;Node27</title>
<path fill="none" stroke="midnightblue" d="M2011.85,-246.972C2022.81,-237.468 2034.74,-224.606 2040.63,-210 2049.07,-189.086 2040.41,-163.715 2032,-146.572"/>
<polygon fill="midnightblue" stroke="midnightblue" points="2034.98,-144.723 2027.21,-137.525 2028.8,-148 2034.98,-144.723"/>
</g>
<!-- Node34&#45;&gt;Node35 -->
<g id="edge98" class="edge"><title>Node34&#45;&gt;Node35</title>
<path fill="none" stroke="midnightblue" d="M2070.14,-253.64C2133.76,-244.666 2224.07,-229.974 2301.63,-210 2306.36,-208.783 2311.27,-207.336 2316.1,-205.798"/>
<polygon fill="midnightblue" stroke="midnightblue" points="2317.44,-209.04 2325.82,-202.56 2315.23,-202.399 2317.44,-209.04"/>
</g>
<!-- Node37 -->
<g id="node90" class="node"><title>Node37</title>
<a xlink:href="_rig_def___prerequisites_8h.html" target="_top" xlink:title="RigDef_Prerequisites.h">
<polygon fill="white" stroke="black" points="2336.63,-58.5 2336.63,-79.5 2454.63,-79.5 2454.63,-58.5 2336.63,-58.5"/>
<text text-anchor="middle" x="2395.63" y="-66.5" font-family="Helvetica,sans-Serif" font-size="10.00">RigDef_Prerequisites.h</text>
</a>
</g>
<!-- Node34&#45;&gt;Node37 -->
<g id="edge126" class="edge"><title>Node34&#45;&gt;Node37</title>
<path fill="none" stroke="midnightblue" d="M2048.58,-246.978C2079.34,-237.475 2117.09,-224.612 2149.63,-210 2234.53,-171.879 2328.2,-113.166 2371.38,-85.064"/>
<polygon fill="midnightblue" stroke="midnightblue" points="2373.36,-87.9542 2379.81,-79.5504 2369.52,-82.0965 2373.36,-87.9542"/>
</g>
<!-- Node42 -->
<g id="node107" class="node"><title>Node42</title>
<a xlink:href="_rig_editor___types_8h.html" target="_top" xlink:title="RigEditor_Types.h">
<polygon fill="white" stroke="black" points="1933.63,-181.5 1933.63,-202.5 2031.63,-202.5 2031.63,-181.5 1933.63,-181.5"/>
<text text-anchor="middle" x="1982.63" y="-189.5" font-family="Helvetica,sans-Serif" font-size="10.00">RigEditor_Types.h</text>
</a>
</g>
<!-- Node34&#45;&gt;Node42 -->
<g id="edge130" class="edge"><title>Node34&#45;&gt;Node42</title>
<path fill="none" stroke="midnightblue" d="M1987.21,-246.937C1986.37,-236.814 1985.29,-223.898 1984.39,-213.133"/>
<polygon fill="midnightblue" stroke="midnightblue" points="1987.86,-212.576 1983.54,-202.901 1980.88,-213.157 1987.86,-212.576"/>
</g>
<!-- Node35&#45;&gt;Node12 -->
<g id="edge120" class="edge"><title>Node35&#45;&gt;Node12</title>
<path fill="none" stroke="midnightblue" d="M2321.51,-181.451C2265.15,-163.038 2150.57,-126.035 2109.63,-116 2035.29,-97.7754 1947.39,-83.3394 1895.2,-75.4966"/>
<polygon fill="midnightblue" stroke="midnightblue" points="1895.66,-72.0264 1885.25,-74.0168 1894.63,-78.9502 1895.66,-72.0264"/>
</g>
<!-- Node35&#45;&gt;Node13 -->
<g id="edge124" class="edge"><title>Node35&#45;&gt;Node13</title>
<path fill="none" stroke="midnightblue" d="M2325.72,-181.395C2299.48,-171.155 2259.31,-154.771 2225.63,-138 2208.16,-129.301 2205.73,-123.305 2187.63,-116 2148.17,-100.072 2101.86,-88.4809 2064.83,-80.7947"/>
<polygon fill="midnightblue" stroke="midnightblue" points="2065.14,-77.287 2054.65,-78.7299 2063.75,-84.1474 2065.14,-77.287"/>
</g>
<!-- Node35&#45;&gt;Node16 -->
<g id="edge122" class="edge"><title>Node35&#45;&gt;Node16</title>
<path fill="none" stroke="midnightblue" d="M2346.98,-181.085C2334.27,-160.244 2306.4,-114.537 2290.45,-88.3837"/>
<polygon fill="midnightblue" stroke="midnightblue" points="2293.36,-86.4312 2285.17,-79.7153 2287.39,-90.0755 2293.36,-86.4312"/>
</g>
<!-- Node35&#45;&gt;Node21 -->
<g id="edge100" class="edge"><title>Node35&#45;&gt;Node21</title>
<path fill="none" stroke="midnightblue" d="M2336.93,-181.435C2312.75,-166.291 2266.42,-137.833 2225.63,-116 2204.29,-104.573 2179.72,-92.7923 2160.52,-83.8841"/>
<polygon fill="midnightblue" stroke="midnightblue" points="2161.84,-80.6377 2151.29,-79.6304 2158.91,-86.9949 2161.84,-80.6377"/>
</g>
<!-- Node36 -->
<g id="node87" class="node"><title>Node36</title>
<a xlink:href="_rig_def___node_8h.html" target="_top" xlink:title="RigDef_Node.h">
<polygon fill="white" stroke="black" points="2353.63,-116.5 2353.63,-137.5 2437.63,-137.5 2437.63,-116.5 2353.63,-116.5"/>
<text text-anchor="middle" x="2395.63" y="-124.5" font-family="Helvetica,sans-Serif" font-size="10.00">RigDef_Node.h</text>
</a>
</g>
<!-- Node35&#45;&gt;Node36 -->
<g id="edge102" class="edge"><title>Node35&#45;&gt;Node36</title>
<path fill="none" stroke="midnightblue" d="M2360.57,-181.267C2366.75,-171.707 2375.93,-157.496 2383.35,-146.015"/>
<polygon fill="midnightblue" stroke="midnightblue" points="2386.34,-147.832 2388.83,-137.534 2380.46,-144.033 2386.34,-147.832"/>
</g>
<!-- Node39 -->
<g id="node95" class="node"><title>Node39</title>
<polygon fill="white" stroke="#bfbfbf" points="2530.63,-58.5 2530.63,-79.5 2638.63,-79.5 2638.63,-58.5 2530.63,-58.5"/>
<text text-anchor="middle" x="2584.63" y="-66.5" font-family="Helvetica,sans-Serif" font-size="10.00">boost/shared_ptr.hpp</text>
</g>
<!-- Node35&#45;&gt;Node39 -->
<g id="edge118" class="edge"><title>Node35&#45;&gt;Node39</title>
<path fill="none" stroke="midnightblue" d="M2392.32,-185.712C2443.6,-176.703 2530.42,-158.882 2554.63,-138 2568.96,-125.645 2576.68,-105.182 2580.68,-89.7413"/>
<polygon fill="midnightblue" stroke="midnightblue" points="2584.19,-90.099 2582.98,-79.5735 2577.36,-88.556 2584.19,-90.099"/>
</g>
<!-- Node40 -->
<g id="node97" class="node"><title>Node40</title>
<polygon fill="white" stroke="#bfbfbf" points="2455.13,-116.5 2455.13,-137.5 2484.13,-137.5 2484.13,-116.5 2455.13,-116.5"/>
<text text-anchor="middle" x="2469.63" y="-124.5" font-family="Helvetica,sans-Serif" font-size="10.00">list</text>
</g>
<!-- Node35&#45;&gt;Node40 -->
<g id="edge114" class="edge"><title>Node35&#45;&gt;Node40</title>
<path fill="none" stroke="midnightblue" d="M2372.53,-181.412C2392.55,-170.194 2424.21,-152.455 2445.9,-140.301"/>
<polygon fill="midnightblue" stroke="midnightblue" points="2447.79,-143.253 2454.8,-135.311 2444.37,-137.146 2447.79,-143.253"/>
</g>
<!-- Node41 -->
<g id="node99" class="node"><title>Node41</title>
<polygon fill="white" stroke="#bfbfbf" points="2501.63,-116.5 2501.63,-137.5 2545.63,-137.5 2545.63,-116.5 2501.63,-116.5"/>
<text text-anchor="middle" x="2523.63" y="-124.5" font-family="Helvetica,sans-Serif" font-size="10.00">vector</text>
</g>
<!-- Node35&#45;&gt;Node41 -->
<g id="edge116" class="edge"><title>Node35&#45;&gt;Node41</title>
<path fill="none" stroke="midnightblue" d="M2381.33,-181.412C2411.55,-169.856 2459.87,-151.382 2491.68,-139.219"/>
<polygon fill="midnightblue" stroke="midnightblue" points="2493.29,-142.35 2501.38,-135.509 2490.79,-135.811 2493.29,-142.35"/>
</g>
<!-- Node36&#45;&gt;Node16 -->
<g id="edge108" class="edge"><title>Node36&#45;&gt;Node16</title>
<path fill="none" stroke="midnightblue" d="M2374.45,-116.497C2356.17,-107.438 2329.56,-94.2462 2309.02,-84.0628"/>
<polygon fill="midnightblue" stroke="midnightblue" points="2310.57,-80.9269 2300.06,-79.6212 2307.46,-87.1986 2310.57,-80.9269"/>
</g>
<!-- Node36&#45;&gt;Node21 -->
<g id="edge104" class="edge"><title>Node36&#45;&gt;Node21</title>
<path fill="none" stroke="midnightblue" d="M2353.46,-117.874C2308.41,-108.124 2236.68,-92.5992 2186.17,-81.6681"/>
<polygon fill="midnightblue" stroke="midnightblue" points="2186.88,-78.2407 2176.36,-79.5462 2185.4,-85.0823 2186.88,-78.2407"/>
</g>
<!-- Node36&#45;&gt;Node37 -->
<g id="edge106" class="edge"><title>Node36&#45;&gt;Node37</title>
<path fill="none" stroke="midnightblue" d="M2395.63,-116.362C2395.63,-108.922 2395.63,-98.7427 2395.63,-89.7276"/>
<polygon fill="midnightblue" stroke="midnightblue" points="2399.13,-89.5706 2395.63,-79.5707 2392.13,-89.5707 2399.13,-89.5706"/>
</g>
<!-- Node38 -->
<g id="node93" class="node"><title>Node38</title>
<polygon fill="white" stroke="#bfbfbf" points="2472.13,-58.5 2472.13,-79.5 2513.13,-79.5 2513.13,-58.5 2472.13,-58.5"/>
<text text-anchor="middle" x="2492.63" y="-66.5" font-family="Helvetica,sans-Serif" font-size="10.00">string</text>
</g>
<!-- Node36&#45;&gt;Node38 -->
<g id="edge110" class="edge"><title>Node36&#45;&gt;Node38</title>
<path fill="none" stroke="midnightblue" d="M2413.42,-116.362C2428.19,-107.532 2449.41,-94.844 2466.17,-84.8224"/>
<polygon fill="midnightblue" stroke="midnightblue" points="2468.17,-87.7066 2474.96,-79.5707 2464.58,-81.6987 2468.17,-87.7066"/>
</g>
<!-- Node36&#45;&gt;Node39 -->
<g id="edge112" class="edge"><title>Node36&#45;&gt;Node39</title>
<path fill="none" stroke="midnightblue" d="M2429.86,-116.497C2460.94,-106.959 2506.95,-92.8408 2540.72,-82.475"/>
<polygon fill="midnightblue" stroke="midnightblue" points="2541.81,-85.8029 2550.34,-79.5231 2539.76,-79.1109 2541.81,-85.8029"/>
</g>
<!-- Node43&#45;&gt;Node8 -->
<g id="edge138" class="edge"><title>Node43&#45;&gt;Node8</title>
<path fill="none" stroke="midnightblue" d="M71.6335,-318.486C71.6335,-279.453 71.6335,-142.414 71.6335,-89.7929"/>
<polygon fill="midnightblue" stroke="midnightblue" points="75.1336,-89.6451 71.6335,-79.6452 68.1336,-89.6452 75.1336,-89.6451"/>
</g>
</g>
</svg>
