<?xml version="1.0" encoding="UTF-8" standalone="no"?>
<!DOCTYPE svg PUBLIC "-//W3C//DTD SVG 1.1//EN"
 "http://www.w3.org/Graphics/SVG/1.1/DTD/svg11.dtd">
<!-- Generated by graphviz version 2.26.3 (20100126.1600)
 -->
<!-- Title: source/main/gui/panels/GUI_RigEditorLandVehiclePropertiesWindow.h Pages: 1 -->
<svg width="2344pt" height="476pt"
 viewBox="0.00 0.00 2344.00 476.00" xmlns="http://www.w3.org/2000/svg" xmlns:xlink="http://www.w3.org/1999/xlink">
<g id="graph1" class="graph" transform="scale(1 1) rotate(0) translate(4 472)">
<title>source/main/gui/panels/GUI_RigEditorLandVehiclePropertiesWindow.h</title>
<polygon fill="white" stroke="white" points="-4,5 -4,-472 2341,-472 2341,5 -4,5"/>
<!-- Node1 -->
<g id="node1" class="node"><title>Node1</title>
<polygon fill="#bfbfbf" stroke="black" points="1686.5,-420.5 1686.5,-467.5 1867.5,-467.5 1867.5,-420.5 1686.5,-420.5"/>
<text text-anchor="start" x="1694.5" y="-454.5" font-family="Helvetica,sans-Serif" font-size="10.00">source/main/gui/panels</text>
<text text-anchor="start" x="1694.5" y="-441.5" font-family="Helvetica,sans-Serif" font-size="10.00">/GUI_RigEditorLandVehicleProperties</text>
<text text-anchor="middle" x="1777" y="-428.5" font-family="Helvetica,sans-Serif" font-size="10.00">Window.h</text>
</g>
<!-- Node2 -->
<g id="node3" class="node"><title>Node2</title>
<a xlink:href="_forward_declarations_8h.html" target="_top" xlink:title="Global forward declarations. ">
<polygon fill="white" stroke="black" points="20.5,-0.5 20.5,-21.5 135.5,-21.5 135.5,-0.5 20.5,-0.5"/>
<text text-anchor="middle" x="78" y="-8.5" font-family="Helvetica,sans-Serif" font-size="10.00">ForwardDeclarations.h</text>
</a>
</g>
<!-- Node1&#45;&gt;Node2 -->
<g id="edge2" class="edge"><title>Node1&#45;&gt;Node2</title>
<path fill="none" stroke="midnightblue" d="M1686.44,-441.507C1324.32,-430.95 0,-386.501 0,-301 0,-301 0,-301 0,-127 0,-86.1875 33.6606,-48.9369 56.757,-28.1809"/>
<polygon fill="midnightblue" stroke="midnightblue" points="59.1467,-30.7414 64.4134,-21.5483 54.5634,-25.4505 59.1467,-30.7414"/>
</g>
<!-- Node3 -->
<g id="node5" class="node"><title>Node3</title>
<a xlink:href="_g_u_i___rig_editor_land_vehicle_properties_window_layout_8h.html" target="_top" xlink:title="GUI_RigEditorLandVehicle\lPropertiesWindowLayout.h">
<polygon fill="white" stroke="black" points="905,-349 905,-383 1039,-383 1039,-349 905,-349"/>
<text text-anchor="start" x="913" y="-370" font-family="Helvetica,sans-Serif" font-size="10.00">GUI_RigEditorLandVehicle</text>
<text text-anchor="middle" x="972" y="-357" font-family="Helvetica,sans-Serif" font-size="10.00">PropertiesWindowLayout.h</text>
</a>
</g>
<!-- Node1&#45;&gt;Node3 -->
<g id="edge4" class="edge"><title>Node1&#45;&gt;Node3</title>
<path fill="none" stroke="midnightblue" d="M1686.22,-435.204C1526.65,-419.742 1198.64,-387.96 1049.22,-373.482"/>
<polygon fill="midnightblue" stroke="midnightblue" points="1049.49,-369.992 1039.2,-372.512 1048.82,-376.96 1049.49,-369.992"/>
</g>
<!-- Node26 -->
<g id="node57" class="node"><title>Node26</title>
<a xlink:href="_gui_panel_base_8h.html" target="_top" xlink:title="GuiPanelBase.h">
<polygon fill="white" stroke="black" points="1656.5,-355.5 1656.5,-376.5 1743.5,-376.5 1743.5,-355.5 1656.5,-355.5"/>
<text text-anchor="middle" x="1700" y="-363.5" font-family="Helvetica,sans-Serif" font-size="10.00">GuiPanelBase.h</text>
</a>
</g>
<!-- Node1&#45;&gt;Node26 -->
<g id="edge62" class="edge"><title>Node1&#45;&gt;Node26</title>
<path fill="none" stroke="midnightblue" d="M1753.48,-420.174C1741.95,-408.493 1728.29,-394.661 1717.67,-383.897"/>
<polygon fill="midnightblue" stroke="midnightblue" points="1720.06,-381.335 1710.54,-376.677 1715.07,-386.252 1720.06,-381.335"/>
</g>
<!-- Node29 -->
<g id="node64" class="node"><title>Node29</title>
<a xlink:href="_rig_def___file_8h.html" target="_top" xlink:title="Structures which represent a rig&#45;definition file (1:1 match) ">
<polygon fill="white" stroke="black" points="1825.5,-174.5 1825.5,-195.5 1902.5,-195.5 1902.5,-174.5 1825.5,-174.5"/>
<text text-anchor="middle" x="1864" y="-182.5" font-family="Helvetica,sans-Serif" font-size="10.00">RigDef_File.h</text>
</a>
</g>
<!-- Node1&#45;&gt;Node29 -->
<g id="edge70" class="edge"><title>Node1&#45;&gt;Node29</title>
<path fill="none" stroke="midnightblue" d="M1785.03,-420.098C1802,-369.56 1841.28,-252.63 1857.16,-205.368"/>
<polygon fill="midnightblue" stroke="midnightblue" points="1860.55,-206.25 1860.42,-195.656 1853.92,-204.021 1860.55,-206.25"/>
</g>
<!-- Node31 -->
<g id="node70" class="node"><title>Node31</title>
<a xlink:href="_rig_def___prerequisites_8h.html" target="_top" xlink:title="RigDef_Prerequisites.h">
<polygon fill="white" stroke="black" points="2218,-58.5 2218,-79.5 2336,-79.5 2336,-58.5 2218,-58.5"/>
<text text-anchor="middle" x="2277" y="-66.5" font-family="Helvetica,sans-Serif" font-size="10.00">RigDef_Prerequisites.h</text>
</a>
</g>
<!-- Node1&#45;&gt;Node31 -->
<g id="edge98" class="edge"><title>Node1&#45;&gt;Node31</title>
<path fill="none" stroke="midnightblue" d="M1867.65,-425.826C1971.94,-402.255 2129,-357.397 2129,-301 2129,-301 2129,-301 2129,-185 2129,-132.19 2188.1,-99.8025 2231.6,-83.1148"/>
<polygon fill="midnightblue" stroke="midnightblue" points="2233,-86.3317 2241.17,-79.5959 2230.58,-79.7616 2233,-86.3317"/>
</g>
<!-- Node36 -->
<g id="node86" class="node"><title>Node36</title>
<a xlink:href="_rig_editor___forward_declarations_8h.html" target="_top" xlink:title="RigEditor_ForwardDeclarations.h">
<polygon fill="white" stroke="black" points="2156.5,-355.5 2156.5,-376.5 2317.5,-376.5 2317.5,-355.5 2156.5,-355.5"/>
<text text-anchor="middle" x="2237" y="-363.5" font-family="Helvetica,sans-Serif" font-size="10.00">RigEditor_ForwardDeclarations.h</text>
</a>
</g>
<!-- Node1&#45;&gt;Node36 -->
<g id="edge100" class="edge"><title>Node1&#45;&gt;Node36</title>
<path fill="none" stroke="midnightblue" d="M1867.74,-429.816C1941.87,-418.061 2049.33,-400.643 2143,-384 2152.82,-382.256 2163.19,-380.341 2173.33,-378.43"/>
<polygon fill="midnightblue" stroke="midnightblue" points="2174.19,-381.83 2183.36,-376.528 2172.88,-374.953 2174.19,-381.83"/>
</g>
<!-- Node3&#45;&gt;Node2 -->
<g id="edge6" class="edge"><title>Node3&#45;&gt;Node2</title>
<path fill="none" stroke="midnightblue" d="M904.829,-364.22C690.671,-357.663 38,-330.501 38,-243 38,-243 38,-243 38,-127 38,-91.557 54.8957,-53.1865 66.7255,-30.6646"/>
<polygon fill="midnightblue" stroke="midnightblue" points="69.8617,-32.2238 71.5733,-21.7681 63.7151,-28.8744 69.8617,-32.2238"/>
</g>
<!-- Node4 -->
<g id="node8" class="node"><title>Node4</title>
<a xlink:href="_base_layout_8h.html" target="_top" xlink:title="BaseLayout.h">
<polygon fill="white" stroke="black" points="933.5,-290.5 933.5,-311.5 1010.5,-311.5 1010.5,-290.5 933.5,-290.5"/>
<text text-anchor="middle" x="972" y="-298.5" font-family="Helvetica,sans-Serif" font-size="10.00">BaseLayout.h</text>
</a>
</g>
<!-- Node3&#45;&gt;Node4 -->
<g id="edge8" class="edge"><title>Node3&#45;&gt;Node4</title>
<path fill="none" stroke="midnightblue" d="M972,-348.922C972,-340.67 972,-330.692 972,-321.982"/>
<polygon fill="midnightblue" stroke="midnightblue" points="975.5,-321.852 972,-311.852 968.5,-321.852 975.5,-321.852"/>
</g>
<!-- Node5 -->
<g id="node10" class="node"><title>Node5</title>
<a xlink:href="_ro_r_prerequisites_8h.html" target="_top" xlink:title="RoRPrerequisites.h">
<polygon fill="white" stroke="black" points="998,-116.5 998,-137.5 1100,-137.5 1100,-116.5 998,-116.5"/>
<text text-anchor="middle" x="1049" y="-124.5" font-family="Helvetica,sans-Serif" font-size="10.00">RoRPrerequisites.h</text>
</a>
</g>
<!-- Node4&#45;&gt;Node5 -->
<g id="edge10" class="edge"><title>Node4&#45;&gt;Node5</title>
<path fill="none" stroke="midnightblue" d="M963.268,-290.216C945.672,-267.094 909.706,-211.787 935,-174 947.182,-155.801 967.832,-144.642 988.237,-137.802"/>
<polygon fill="midnightblue" stroke="midnightblue" points="989.332,-141.127 997.879,-134.866 987.293,-134.431 989.332,-141.127"/>
</g>
<!-- Node23 -->
<g id="node48" class="node"><title>Node23</title>
<polygon fill="white" stroke="#bfbfbf" points="944,-174.5 944,-195.5 1000,-195.5 1000,-174.5 944,-174.5"/>
<text text-anchor="middle" x="972" y="-182.5" font-family="Helvetica,sans-Serif" font-size="10.00">MyGUI.h</text>
</g>
<!-- Node4&#45;&gt;Node23 -->
<g id="edge50" class="edge"><title>Node4&#45;&gt;Node23</title>
<path fill="none" stroke="midnightblue" d="M972,-290.295C972,-271.131 972,-230.654 972,-205.843"/>
<polygon fill="midnightblue" stroke="midnightblue" points="975.5,-205.679 972,-195.679 968.5,-205.679 975.5,-205.679"/>
</g>
<!-- Node24 -->
<g id="node50" class="node"><title>Node24</title>
<a xlink:href="_wraps_attribute_8h.html" target="_top" xlink:title="WrapsAttribute.h">
<polygon fill="white" stroke="black" points="1002,-232.5 1002,-253.5 1092,-253.5 1092,-232.5 1002,-232.5"/>
<text text-anchor="middle" x="1047" y="-240.5" font-family="Helvetica,sans-Serif" font-size="10.00">WrapsAttribute.h</text>
</a>
</g>
<!-- Node4&#45;&gt;Node24 -->
<g id="edge52" class="edge"><title>Node4&#45;&gt;Node24</title>
<path fill="none" stroke="midnightblue" d="M985.756,-290.362C996.751,-281.859 1012.37,-269.779 1025.09,-259.947"/>
<polygon fill="midnightblue" stroke="midnightblue" points="1027.56,-262.457 1033.33,-253.571 1023.28,-256.919 1027.56,-262.457"/>
</g>
<!-- Node5&#45;&gt;Node2 -->
<g id="edge36" class="edge"><title>Node5&#45;&gt;Node2</title>
<path fill="none" stroke="midnightblue" d="M997.965,-125.489C828.859,-120.294 293.365,-102.247 219,-80 200.304,-74.4069 198.342,-66.95 181,-58 158.484,-46.3798 132.528,-34.5451 112.305,-25.6582"/>
<polygon fill="midnightblue" stroke="midnightblue" points="113.443,-22.3363 102.878,-21.5462 110.644,-28.7525 113.443,-22.3363"/>
</g>
<!-- Node6 -->
<g id="node12" class="node"><title>Node6</title>
<polygon fill="white" stroke="#bfbfbf" points="867.5,-58.5 867.5,-79.5 982.5,-79.5 982.5,-58.5 867.5,-58.5"/>
<text text-anchor="middle" x="925" y="-66.5" font-family="Helvetica,sans-Serif" font-size="10.00">OgreAxisAlignedBox.h</text>
</g>
<!-- Node5&#45;&gt;Node6 -->
<g id="edge12" class="edge"><title>Node5&#45;&gt;Node6</title>
<path fill="none" stroke="midnightblue" d="M1026.54,-116.497C1007.09,-107.397 978.72,-94.1273 956.909,-83.9253"/>
<polygon fill="midnightblue" stroke="midnightblue" points="958.248,-80.6878 947.707,-79.6212 955.283,-87.0285 958.248,-80.6878"/>
</g>
<!-- Node7 -->
<g id="node14" class="node"><title>Node7</title>
<polygon fill="white" stroke="#bfbfbf" points="999.5,-58.5 999.5,-79.5 1098.5,-79.5 1098.5,-58.5 999.5,-58.5"/>
<text text-anchor="middle" x="1049" y="-66.5" font-family="Helvetica,sans-Serif" font-size="10.00">OgreColourValue.h</text>
</g>
<!-- Node5&#45;&gt;Node7 -->
<g id="edge14" class="edge"><title>Node5&#45;&gt;Node7</title>
<path fill="none" stroke="midnightblue" d="M1049,-116.362C1049,-108.922 1049,-98.7427 1049,-89.7276"/>
<polygon fill="midnightblue" stroke="midnightblue" points="1052.5,-89.5706 1049,-79.5707 1045.5,-89.5707 1052.5,-89.5706"/>
</g>
<!-- Node8 -->
<g id="node16" class="node"><title>Node8</title>
<polygon fill="white" stroke="#bfbfbf" points="1115.5,-58.5 1115.5,-79.5 1218.5,-79.5 1218.5,-58.5 1115.5,-58.5"/>
<text text-anchor="middle" x="1167" y="-66.5" font-family="Helvetica,sans-Serif" font-size="10.00">OgreHeaderPrefix.h</text>
</g>
<!-- Node5&#45;&gt;Node8 -->
<g id="edge16" class="edge"><title>Node5&#45;&gt;Node8</title>
<path fill="none" stroke="midnightblue" d="M1070.37,-116.497C1088.8,-107.438 1115.64,-94.2462 1136.36,-84.0628"/>
<polygon fill="midnightblue" stroke="midnightblue" points="1137.96,-87.1735 1145.39,-79.6212 1134.87,-80.8914 1137.96,-87.1735"/>
</g>
<!-- Node9 -->
<g id="node18" class="node"><title>Node9</title>
<polygon fill="white" stroke="#bfbfbf" points="1235.5,-58.5 1235.5,-79.5 1334.5,-79.5 1334.5,-58.5 1235.5,-58.5"/>
<text text-anchor="middle" x="1285" y="-66.5" font-family="Helvetica,sans-Serif" font-size="10.00">OgreLogManager.h</text>
</g>
<!-- Node5&#45;&gt;Node9 -->
<g id="edge18" class="edge"><title>Node5&#45;&gt;Node9</title>
<path fill="none" stroke="midnightblue" d="M1091.74,-116.497C1131.21,-106.795 1189.97,-92.3547 1232.33,-81.9445"/>
<polygon fill="midnightblue" stroke="midnightblue" points="1233.31,-85.3086 1242.18,-79.5231 1231.64,-78.5109 1233.31,-85.3086"/>
</g>
<!-- Node10 -->
<g id="node20" class="node"><title>Node10</title>
<polygon fill="white" stroke="#bfbfbf" points="1351.5,-58.5 1351.5,-79.5 1444.5,-79.5 1444.5,-58.5 1351.5,-58.5"/>
<text text-anchor="middle" x="1398" y="-66.5" font-family="Helvetica,sans-Serif" font-size="10.00">OgreQuaternion.h</text>
</g>
<!-- Node5&#45;&gt;Node10 -->
<g id="edge20" class="edge"><title>Node5&#45;&gt;Node10</title>
<path fill="none" stroke="midnightblue" d="M1100.09,-119.449C1156.75,-110.936 1251.11,-96.3517 1341.37,-80.2512"/>
<polygon fill="midnightblue" stroke="midnightblue" points="1341.99,-83.6956 1351.22,-78.4855 1340.75,-76.8055 1341.99,-83.6956"/>
</g>
<!-- Node11 -->
<g id="node22" class="node"><title>Node11</title>
<polygon fill="white" stroke="#bfbfbf" points="1719.5,-58.5 1719.5,-79.5 1790.5,-79.5 1790.5,-58.5 1719.5,-58.5"/>
<text text-anchor="middle" x="1755" y="-66.5" font-family="Helvetica,sans-Serif" font-size="10.00">OgreString.h</text>
</g>
<!-- Node5&#45;&gt;Node11 -->
<g id="edge22" class="edge"><title>Node5&#45;&gt;Node11</title>
<path fill="none" stroke="midnightblue" d="M1100.01,-126.396C1209.94,-124.444 1477.42,-116.208 1709.13,-80.0931"/>
<polygon fill="midnightblue" stroke="midnightblue" points="1709.76,-83.537 1719.09,-78.5196 1708.66,-76.6227 1709.76,-83.537"/>
</g>
<!-- Node12 -->
<g id="node24" class="node"><title>Node12</title>
<polygon fill="white" stroke="#bfbfbf" points="1588,-58.5 1588,-79.5 1702,-79.5 1702,-58.5 1588,-58.5"/>
<text text-anchor="middle" x="1645" y="-66.5" font-family="Helvetica,sans-Serif" font-size="10.00">OgreStringConverter.h</text>
</g>
<!-- Node5&#45;&gt;Node12 -->
<g id="edge24" class="edge"><title>Node5&#45;&gt;Node12</title>
<path fill="none" stroke="midnightblue" d="M1100.3,-123.764C1193.38,-117.606 1396.47,-102.858 1577.82,-80.0744"/>
<polygon fill="midnightblue" stroke="midnightblue" points="1578.32,-83.5383 1587.8,-78.8087 1577.44,-76.5939 1578.32,-83.5383"/>
</g>
<!-- Node13 -->
<g id="node26" class="node"><title>Node13</title>
<polygon fill="white" stroke="#bfbfbf" points="227.5,-58.5 227.5,-79.5 318.5,-79.5 318.5,-58.5 227.5,-58.5"/>
<text text-anchor="middle" x="273" y="-66.5" font-family="Helvetica,sans-Serif" font-size="10.00">OgreUTFString.h</text>
</g>
<!-- Node5&#45;&gt;Node13 -->
<g id="edge26" class="edge"><title>Node5&#45;&gt;Node13</title>
<path fill="none" stroke="midnightblue" d="M997.995,-126.059C881.182,-123.394 585.193,-113.735 328.844,-80.1016"/>
<polygon fill="midnightblue" stroke="midnightblue" points="328.965,-76.5871 318.591,-78.7408 328.044,-83.5262 328.965,-76.5871"/>
</g>
<!-- Node14 -->
<g id="node28" class="node"><title>Node14</title>
<polygon fill="white" stroke="#bfbfbf" points="336,-58.5 336,-79.5 416,-79.5 416,-58.5 336,-58.5"/>
<text text-anchor="middle" x="376" y="-66.5" font-family="Helvetica,sans-Serif" font-size="10.00">OgreVector2.h</text>
</g>
<!-- Node5&#45;&gt;Node14 -->
<g id="edge28" class="edge"><title>Node5&#45;&gt;Node14</title>
<path fill="none" stroke="midnightblue" d="M997.762,-125.665C892.414,-122.375 643.819,-111.807 426.041,-79.9665"/>
<polygon fill="midnightblue" stroke="midnightblue" points="426.427,-76.4855 416.022,-78.4833 425.402,-83.4101 426.427,-76.4855"/>
</g>
<!-- Node15 -->
<g id="node30" class="node"><title>Node15</title>
<polygon fill="white" stroke="#bfbfbf" points="1936,-58.5 1936,-79.5 2016,-79.5 2016,-58.5 1936,-58.5"/>
<text text-anchor="middle" x="1976" y="-66.5" font-family="Helvetica,sans-Serif" font-size="10.00">OgreVector3.h</text>
</g>
<!-- Node5&#45;&gt;Node15 -->
<g id="edge30" class="edge"><title>Node5&#45;&gt;Node15</title>
<path fill="none" stroke="midnightblue" d="M1100.21,-125.386C1259.63,-120.188 1746.55,-102.953 1925.9,-79.904"/>
<polygon fill="midnightblue" stroke="midnightblue" points="1926.54,-83.3491 1935.99,-78.5551 1925.61,-76.4108 1926.54,-83.3491"/>
</g>
<!-- Node16 -->
<g id="node32" class="node"><title>Node16</title>
<polygon fill="white" stroke="#bfbfbf" points="433.5,-58.5 433.5,-79.5 536.5,-79.5 536.5,-58.5 433.5,-58.5"/>
<text text-anchor="middle" x="485" y="-66.5" font-family="Helvetica,sans-Serif" font-size="10.00">OgrePrerequisites.h</text>
</g>
<!-- Node5&#45;&gt;Node16 -->
<g id="edge32" class="edge"><title>Node5&#45;&gt;Node16</title>
<path fill="none" stroke="midnightblue" d="M997.676,-123.718C908.091,-117.661 717.2,-103.299 546.577,-80.1303"/>
<polygon fill="midnightblue" stroke="midnightblue" points="547.047,-76.6621 536.664,-78.771 546.096,-83.5972 547.047,-76.6621"/>
</g>
<!-- Node17 -->
<g id="node34" class="node"><title>Node17</title>
<polygon fill="white" stroke="#bfbfbf" points="554,-58.5 554,-79.5 704,-79.5 704,-58.5 554,-58.5"/>
<text text-anchor="middle" x="629" y="-66.5" font-family="Helvetica,sans-Serif" font-size="10.00">Overlay/OgreOverlaySystem.h</text>
</g>
<!-- Node5&#45;&gt;Node17 -->
<g id="edge34" class="edge"><title>Node5&#45;&gt;Node17</title>
<path fill="none" stroke="midnightblue" d="M997.92,-119.946C927.439,-110.213 799.445,-92.5376 714.312,-80.7811"/>
<polygon fill="midnightblue" stroke="midnightblue" points="714.533,-77.2786 704.149,-79.3777 713.576,-84.2128 714.533,-77.2786"/>
</g>
<!-- Node18 -->
<g id="node37" class="node"><title>Node18</title>
<a xlink:href="_global_environment_8h.html" target="_top" xlink:title="GlobalEnvironment.h">
<polygon fill="white" stroke="black" points="65.5,-58.5 65.5,-79.5 172.5,-79.5 172.5,-58.5 65.5,-58.5"/>
<text text-anchor="middle" x="119" y="-66.5" font-family="Helvetica,sans-Serif" font-size="10.00">GlobalEnvironment.h</text>
</a>
</g>
<!-- Node5&#45;&gt;Node18 -->
<g id="edge38" class="edge"><title>Node5&#45;&gt;Node18</title>
<path fill="none" stroke="midnightblue" d="M997.776,-126.145C863.941,-123.492 492.907,-113.452 186,-80 184.916,-79.8819 183.823,-79.7579 182.723,-79.6287"/>
<polygon fill="midnightblue" stroke="midnightblue" points="183.051,-76.1422 172.687,-78.3395 182.159,-83.0851 183.051,-76.1422"/>
</g>
<!-- Node19 -->
<g id="node40" class="node"><title>Node19</title>
<a xlink:href="_zeroed_memory_allocator_8h.html" target="_top" xlink:title="ZeroedMemoryAllocator.h">
<polygon fill="white" stroke="black" points="722,-58.5 722,-79.5 850,-79.5 850,-58.5 722,-58.5"/>
<text text-anchor="middle" x="786" y="-66.5" font-family="Helvetica,sans-Serif" font-size="10.00">ZeroedMemoryAllocator.h</text>
</a>
</g>
<!-- Node5&#45;&gt;Node19 -->
<g id="edge42" class="edge"><title>Node5&#45;&gt;Node19</title>
<path fill="none" stroke="midnightblue" d="M1001.37,-116.497C957.012,-106.714 890.795,-92.1107 843.506,-81.6819"/>
<polygon fill="midnightblue" stroke="midnightblue" points="844.236,-78.2588 833.717,-79.5231 842.728,-85.0946 844.236,-78.2588"/>
</g>
<!-- Node20 -->
<g id="node42" class="node"><title>Node20</title>
<a xlink:href="_bit_flags_8h.html" target="_top" xlink:title="../common/BitFlags.h">
<polygon fill="white" stroke="black" points="1808,-58.5 1808,-79.5 1918,-79.5 1918,-58.5 1808,-58.5"/>
<text text-anchor="middle" x="1863" y="-66.5" font-family="Helvetica,sans-Serif" font-size="10.00">../common/BitFlags.h</text>
</a>
</g>
<!-- Node5&#45;&gt;Node20 -->
<g id="edge44" class="edge"><title>Node5&#45;&gt;Node20</title>
<path fill="none" stroke="midnightblue" d="M1100.09,-125.694C1220.07,-122.22 1529.26,-110.898 1797.57,-80.0577"/>
<polygon fill="midnightblue" stroke="midnightblue" points="1798.37,-83.4885 1807.9,-78.8583 1797.56,-76.5352 1798.37,-83.4885"/>
</g>
<!-- Node22 -->
<g id="node46" class="node"><title>Node22</title>
<polygon fill="white" stroke="#bfbfbf" points="1461.5,-58.5 1461.5,-79.5 1570.5,-79.5 1570.5,-58.5 1461.5,-58.5"/>
<text text-anchor="middle" x="1516" y="-66.5" font-family="Helvetica,sans-Serif" font-size="10.00">MyGUI_Prerequest.h</text>
</g>
<!-- Node5&#45;&gt;Node22 -->
<g id="edge48" class="edge"><title>Node5&#45;&gt;Node22</title>
<path fill="none" stroke="midnightblue" d="M1100.14,-121.995C1175.06,-114.455 1319.26,-99.1542 1451.49,-80.1631"/>
<polygon fill="midnightblue" stroke="midnightblue" points="1452,-83.6262 1461.39,-78.7305 1451,-76.6984 1452,-83.6262"/>
</g>
<!-- Node18&#45;&gt;Node2 -->
<g id="edge40" class="edge"><title>Node18&#45;&gt;Node2</title>
<path fill="none" stroke="midnightblue" d="M111.48,-58.3619C105.874,-50.4313 98.0678,-39.3885 91.4032,-29.9606"/>
<polygon fill="midnightblue" stroke="midnightblue" points="94.1028,-27.7161 85.4724,-21.5707 88.3867,-31.7568 94.1028,-27.7161"/>
</g>
<!-- Node21 -->
<g id="node44" class="node"><title>Node21</title>
<polygon fill="white" stroke="#bfbfbf" points="1840,-0.5 1840,-21.5 1886,-21.5 1886,-0.5 1840,-0.5"/>
<text text-anchor="middle" x="1863" y="-8.5" font-family="Helvetica,sans-Serif" font-size="10.00">cstdint</text>
</g>
<!-- Node20&#45;&gt;Node21 -->
<g id="edge46" class="edge"><title>Node20&#45;&gt;Node21</title>
<path fill="none" stroke="midnightblue" d="M1863,-58.3619C1863,-50.9219 1863,-40.7427 1863,-31.7276"/>
<polygon fill="midnightblue" stroke="midnightblue" points="1866.5,-31.5706 1863,-21.5707 1859.5,-31.5707 1866.5,-31.5706"/>
</g>
<!-- Node24&#45;&gt;Node5 -->
<g id="edge54" class="edge"><title>Node24&#45;&gt;Node5</title>
<path fill="none" stroke="midnightblue" d="M1060.86,-232.337C1070.79,-223.753 1083.38,-210.722 1089,-196 1096.02,-177.617 1082.92,-158.38 1069.87,-144.903"/>
<polygon fill="midnightblue" stroke="midnightblue" points="1071.99,-142.083 1062.35,-137.683 1067.14,-147.133 1071.99,-142.083"/>
</g>
<!-- Node24&#45;&gt;Node23 -->
<g id="edge56" class="edge"><title>Node24&#45;&gt;Node23</title>
<path fill="none" stroke="midnightblue" d="M1033.24,-232.362C1022.25,-223.859 1006.63,-211.779 993.914,-201.947"/>
<polygon fill="midnightblue" stroke="midnightblue" points="995.721,-198.919 985.669,-195.571 991.438,-204.457 995.721,-198.919"/>
</g>
<!-- Node25 -->
<g id="node54" class="node"><title>Node25</title>
<a xlink:href="_attribute_8h.html" target="_top" xlink:title="Attribute.h">
<polygon fill="white" stroke="black" points="1018,-174.5 1018,-195.5 1080,-195.5 1080,-174.5 1018,-174.5"/>
<text text-anchor="middle" x="1049" y="-182.5" font-family="Helvetica,sans-Serif" font-size="10.00">Attribute.h</text>
</a>
</g>
<!-- Node24&#45;&gt;Node25 -->
<g id="edge58" class="edge"><title>Node24&#45;&gt;Node25</title>
<path fill="none" stroke="midnightblue" d="M1047.37,-232.362C1047.62,-224.922 1047.97,-214.743 1048.29,-205.728"/>
<polygon fill="midnightblue" stroke="midnightblue" points="1051.79,-205.685 1048.64,-195.571 1044.79,-205.444 1051.79,-205.685"/>
</g>
<!-- Node25&#45;&gt;Node5 -->
<g id="edge60" class="edge"><title>Node25&#45;&gt;Node5</title>
<path fill="none" stroke="midnightblue" d="M1049,-174.362C1049,-166.922 1049,-156.743 1049,-147.728"/>
<polygon fill="midnightblue" stroke="midnightblue" points="1052.5,-147.571 1049,-137.571 1045.5,-147.571 1052.5,-147.571"/>
</g>
<!-- Node26&#45;&gt;Node22 -->
<g id="edge66" class="edge"><title>Node26&#45;&gt;Node22</title>
<path fill="none" stroke="midnightblue" d="M1656.09,-355.514C1604.55,-340.281 1526,-306.629 1526,-243 1526,-243 1526,-243 1526,-185 1526,-151.474 1521.8,-112.698 1518.85,-89.5479"/>
<polygon fill="midnightblue" stroke="midnightblue" points="1522.3,-88.9834 1517.52,-79.5299 1515.36,-89.9031 1522.3,-88.9834"/>
</g>
<!-- Node27 -->
<g id="node59" class="node"><title>Node27</title>
<polygon fill="white" stroke="#bfbfbf" points="1591.5,-290.5 1591.5,-311.5 1692.5,-311.5 1692.5,-290.5 1591.5,-290.5"/>
<text text-anchor="middle" x="1642" y="-298.5" font-family="Helvetica,sans-Serif" font-size="10.00">MyGUI_Common.h</text>
</g>
<!-- Node26&#45;&gt;Node27 -->
<g id="edge64" class="edge"><title>Node26&#45;&gt;Node27</title>
<path fill="none" stroke="midnightblue" d="M1690.42,-355.267C1681.64,-345.423 1668.46,-330.648 1658.06,-319"/>
<polygon fill="midnightblue" stroke="midnightblue" points="1660.67,-316.665 1651.4,-311.534 1655.45,-321.325 1660.67,-316.665"/>
</g>
<!-- Node28 -->
<g id="node62" class="node"><title>Node28</title>
<polygon fill="white" stroke="#bfbfbf" points="1709.5,-290.5 1709.5,-311.5 1806.5,-311.5 1806.5,-290.5 1709.5,-290.5"/>
<text text-anchor="middle" x="1758" y="-298.5" font-family="Helvetica,sans-Serif" font-size="10.00">MyGUI_Window.h</text>
</g>
<!-- Node26&#45;&gt;Node28 -->
<g id="edge68" class="edge"><title>Node26&#45;&gt;Node28</title>
<path fill="none" stroke="midnightblue" d="M1709.58,-355.267C1718.36,-345.423 1731.54,-330.648 1741.94,-319"/>
<polygon fill="midnightblue" stroke="midnightblue" points="1744.55,-321.325 1748.6,-311.534 1739.33,-316.665 1744.55,-321.325"/>
</g>
<!-- Node29&#45;&gt;Node11 -->
<g id="edge92" class="edge"><title>Node29&#45;&gt;Node11</title>
<path fill="none" stroke="midnightblue" d="M1854.51,-174.082C1842.49,-160.34 1821.06,-136.103 1802,-116 1792.67,-106.155 1781.99,-95.4399 1773.18,-86.7307"/>
<polygon fill="midnightblue" stroke="midnightblue" points="1775.58,-84.1803 1765.99,-79.6655 1770.67,-89.172 1775.58,-84.1803"/>
</g>
<!-- Node29&#45;&gt;Node12 -->
<g id="edge96" class="edge"><title>Node29&#45;&gt;Node12</title>
<path fill="none" stroke="midnightblue" d="M1850.32,-174.365C1828.27,-157.352 1785.68,-125.009 1769,-116 1743.81,-102.393 1713.83,-90.9145 1689.66,-82.7077"/>
<polygon fill="midnightblue" stroke="midnightblue" points="1690.62,-79.3391 1680.03,-79.5049 1688.41,-85.9815 1690.62,-79.3391"/>
</g>
<!-- Node29&#45;&gt;Node15 -->
<g id="edge94" class="edge"><title>Node29&#45;&gt;Node15</title>
<path fill="none" stroke="midnightblue" d="M1872.57,-174.366C1883.89,-160.508 1904.66,-135.718 1924,-116 1933.99,-105.82 1945.73,-95.1114 1955.52,-86.4913"/>
<polygon fill="midnightblue" stroke="midnightblue" points="1957.97,-89.0041 1963.21,-79.799 1953.37,-83.7237 1957.97,-89.0041"/>
</g>
<!-- Node29&#45;&gt;Node20 -->
<g id="edge72" class="edge"><title>Node29&#45;&gt;Node20</title>
<path fill="none" stroke="midnightblue" d="M1863.91,-174.295C1863.74,-155.131 1863.39,-114.654 1863.18,-89.8434"/>
<polygon fill="midnightblue" stroke="midnightblue" points="1866.68,-89.6486 1863.09,-79.6792 1859.68,-89.709 1866.68,-89.6486"/>
</g>
<!-- Node30 -->
<g id="node67" class="node"><title>Node30</title>
<a xlink:href="_rig_def___node_8h.html" target="_top" xlink:title="RigDef_Node.h">
<polygon fill="white" stroke="black" points="1933,-116.5 1933,-137.5 2017,-137.5 2017,-116.5 1933,-116.5"/>
<text text-anchor="middle" x="1975" y="-124.5" font-family="Helvetica,sans-Serif" font-size="10.00">RigDef_Node.h</text>
</a>
</g>
<!-- Node29&#45;&gt;Node30 -->
<g id="edge74" class="edge"><title>Node29&#45;&gt;Node30</title>
<path fill="none" stroke="midnightblue" d="M1884.1,-174.497C1901.28,-165.519 1926.23,-152.484 1945.64,-142.339"/>
<polygon fill="midnightblue" stroke="midnightblue" points="1947.43,-145.354 1954.67,-137.621 1944.19,-139.15 1947.43,-145.354"/>
</g>
<!-- Node33 -->
<g id="node75" class="node"><title>Node33</title>
<polygon fill="white" stroke="#bfbfbf" points="2092,-58.5 2092,-79.5 2200,-79.5 2200,-58.5 2092,-58.5"/>
<text text-anchor="middle" x="2146" y="-66.5" font-family="Helvetica,sans-Serif" font-size="10.00">boost/shared_ptr.hpp</text>
</g>
<!-- Node29&#45;&gt;Node33 -->
<g id="edge90" class="edge"><title>Node29&#45;&gt;Node33</title>
<path fill="none" stroke="midnightblue" d="M1902.55,-176.609C1935.95,-168.685 1985.2,-155.423 2026,-138 2043.95,-130.336 2047.09,-125.741 2064,-116 2082.19,-105.524 2102.67,-93.7847 2118.61,-84.6588"/>
<polygon fill="midnightblue" stroke="midnightblue" points="2120.48,-87.621 2127.42,-79.6169 2117.01,-81.5452 2120.48,-87.621"/>
</g>
<!-- Node34 -->
<g id="node77" class="node"><title>Node34</title>
<polygon fill="white" stroke="#bfbfbf" points="2072.5,-116.5 2072.5,-137.5 2101.5,-137.5 2101.5,-116.5 2072.5,-116.5"/>
<text text-anchor="middle" x="2087" y="-124.5" font-family="Helvetica,sans-Serif" font-size="10.00">list</text>
</g>
<!-- Node29&#45;&gt;Node34 -->
<g id="edge86" class="edge"><title>Node29&#45;&gt;Node34</title>
<path fill="none" stroke="midnightblue" d="M1902.54,-177.352C1942.19,-169.102 2005.53,-154.859 2059,-138 2060.23,-137.611 2061.49,-137.195 2062.75,-136.76"/>
<polygon fill="midnightblue" stroke="midnightblue" points="2064.16,-139.971 2072.31,-133.209 2061.72,-133.409 2064.16,-139.971"/>
</g>
<!-- Node35 -->
<g id="node79" class="node"><title>Node35</title>
<polygon fill="white" stroke="#bfbfbf" points="1716,-116.5 1716,-137.5 1760,-137.5 1760,-116.5 1716,-116.5"/>
<text text-anchor="middle" x="1738" y="-124.5" font-family="Helvetica,sans-Serif" font-size="10.00">vector</text>
</g>
<!-- Node29&#45;&gt;Node35 -->
<g id="edge88" class="edge"><title>Node29&#45;&gt;Node35</title>
<path fill="none" stroke="midnightblue" d="M1841.18,-174.497C1821.17,-165.283 1791.86,-151.795 1769.6,-141.544"/>
<polygon fill="midnightblue" stroke="midnightblue" points="1770.77,-138.233 1760.22,-137.231 1767.85,-144.591 1770.77,-138.233"/>
</g>
<!-- Node30&#45;&gt;Node15 -->
<g id="edge80" class="edge"><title>Node30&#45;&gt;Node15</title>
<path fill="none" stroke="midnightblue" d="M1975.18,-116.362C1975.31,-108.922 1975.49,-98.7427 1975.64,-89.7276"/>
<polygon fill="midnightblue" stroke="midnightblue" points="1979.14,-89.6295 1975.82,-79.5707 1972.15,-89.5088 1979.14,-89.6295"/>
</g>
<!-- Node30&#45;&gt;Node20 -->
<g id="edge76" class="edge"><title>Node30&#45;&gt;Node20</title>
<path fill="none" stroke="midnightblue" d="M1954.72,-116.497C1937.38,-107.519 1912.21,-94.4835 1892.62,-84.3387"/>
<polygon fill="midnightblue" stroke="midnightblue" points="1894,-81.1118 1883.51,-79.6212 1890.78,-87.3278 1894,-81.1118"/>
</g>
<!-- Node30&#45;&gt;Node31 -->
<g id="edge78" class="edge"><title>Node30&#45;&gt;Node31</title>
<path fill="none" stroke="midnightblue" d="M2017.31,-118.874C2067.95,-109.149 2153.29,-92.7597 2212.24,-81.4375"/>
<polygon fill="midnightblue" stroke="midnightblue" points="2213.03,-84.849 2222.19,-79.5257 2211.71,-77.9746 2213.03,-84.849"/>
</g>
<!-- Node32 -->
<g id="node73" class="node"><title>Node32</title>
<polygon fill="white" stroke="#bfbfbf" points="2033.5,-58.5 2033.5,-79.5 2074.5,-79.5 2074.5,-58.5 2033.5,-58.5"/>
<text text-anchor="middle" x="2054" y="-66.5" font-family="Helvetica,sans-Serif" font-size="10.00">string</text>
</g>
<!-- Node30&#45;&gt;Node32 -->
<g id="edge82" class="edge"><title>Node30&#45;&gt;Node32</title>
<path fill="none" stroke="midnightblue" d="M1989.49,-116.362C2001.18,-107.777 2017.84,-95.5459 2031.3,-85.6636"/>
<polygon fill="midnightblue" stroke="midnightblue" points="2033.61,-88.31 2039.6,-79.5707 2029.47,-82.6675 2033.61,-88.31"/>
</g>
<!-- Node30&#45;&gt;Node33 -->
<g id="edge84" class="edge"><title>Node30&#45;&gt;Node33</title>
<path fill="none" stroke="midnightblue" d="M2005.97,-116.497C2033.84,-107.041 2075,-93.0829 2105.48,-82.7428"/>
<polygon fill="midnightblue" stroke="midnightblue" points="2106.63,-86.0497 2114.98,-79.5231 2104.38,-79.4207 2106.63,-86.0497"/>
</g>
</g>
</svg>
