<?xml version="1.0" encoding="UTF-8" standalone="no"?>
<!DOCTYPE svg PUBLIC "-//W3C//DTD SVG 1.1//EN"
 "http://www.w3.org/Graphics/SVG/1.1/DTD/svg11.dtd">
<!-- Generated by graphviz version 2.26.3 (20100126.1600)
 -->
<!-- Title: G Pages: 1 -->
<!--zoomable 436 -->
<svg id="main" version="1.1" xmlns="http://www.w3.org/2000/svg" xmlns:xlink="http://www.w3.org/1999/xlink" xml:space="preserve" onload="init(evt)">
        <defs>
                <circle id="rim" cx="0" cy="0" r="7"/>
                <circle id="rim2" cx="0" cy="0" r="3.5"/>
                <g id="zoomPlus">
                        <use xlink:href="#rim" fill="#404040">
                                <set attributeName="fill" to="#808080" begin="zoomplus.mouseover" end="zoomplus.mouseout"/>
                        </use>
                        <path d="M-4,0h8M0,-4v8" fill="none" stroke="white" stroke-width="1.5" pointer-events="none"/>
                </g>
                <g id="zoomMin">
                        <use xlink:href="#rim" fill="#404040">
                                <set attributeName="fill" to="#808080" begin="zoomminus.mouseover" end="zoomminus.mouseout"/>
                        </use>
                        <path d="M-4,0h8" fill="none" stroke="white" stroke-width="1.5" pointer-events="none"/>
                </g>
                <g id="dirArrow">
                        <path fill="none" stroke="white" stroke-width="1.5" d="M0,-3.0v7 M-2.5,-0.5L0,-3.0L2.5,-0.5"/>
                </g>
               <g id="resetDef">
                       <use xlink:href="#rim2" fill="#404040">
                               <set attributeName="fill" to="#808080" begin="reset.mouseover" end="reset.mouseout"/>
                       </use>
               </g>
        </defs>

<script type="text/javascript">
var viewWidth = 2328;
var viewHeight = 436;
var sectionId = 'dynsection-0';
</script>
<script xlink:href="svgpan.js"/>
<svg id="graph" class="graph">
<g id="viewport">
<title>G</title>
<polygon fill="white" stroke="white" points="-4,5 -4,-432 2325,-432 2325,5 -4,5"/>
<!-- Node1 -->
<g id="node1" class="node"><title>Node1</title>
<polygon fill="#bfbfbf" stroke="black" points="1435,-406.5 1435,-427.5 1659,-427.5 1659,-406.5 1435,-406.5"/>
<text text-anchor="middle" x="1547" y="-414.5" font-family="Helvetica,sans-Serif" font-size="10.00">source/main/gui/panels/GUI_GameSettings.cpp</text>
</g>
<!-- Node2 -->
<g id="node3" class="node"><title>Node2</title>
<a xlink:href="_g_u_i___game_settings_8h.html" target="_top" xlink:title="GUI_GameSettings.h">
<polygon fill="white" stroke="black" points="1810,-232.5 1810,-253.5 1920,-253.5 1920,-232.5 1810,-232.5"/>
<text text-anchor="middle" x="1865" y="-240.5" font-family="Helvetica,sans-Serif" font-size="10.00">GUI_GameSettings.h</text>
</a>
</g>
<!-- Node1&#45;&gt;Node2 -->
<g id="edge2" class="edge"><title>Node1&#45;&gt;Node2</title>
<path fill="none" stroke="midnightblue" d="M1659.21,-409.542C1724.4,-403.022 1798.4,-391.15 1823,-370 1839.23,-356.052 1853.85,-296.381 1860.78,-264.038"/>
<polygon fill="midnightblue" stroke="midnightblue" points="1864.29,-264.36 1862.9,-253.857 1857.43,-262.935 1864.29,-264.36"/>
</g>
<!-- Node6 -->
<g id="node13" class="node"><title>Node6</title>
<a xlink:href="_ro_r_prerequisites_8h.html" target="_top" xlink:title="RoRPrerequisites.h">
<polygon fill="white" stroke="black" points="1063,-116.5 1063,-137.5 1165,-137.5 1165,-116.5 1063,-116.5"/>
<text text-anchor="middle" x="1114" y="-124.5" font-family="Helvetica,sans-Serif" font-size="10.00">RoRPrerequisites.h</text>
</a>
</g>
<!-- Node1&#45;&gt;Node6 -->
<g id="edge56" class="edge"><title>Node1&#45;&gt;Node6</title>
<path fill="none" stroke="midnightblue" d="M1434.85,-411.46C1294.41,-403.876 1062.05,-389.006 978,-370 897.662,-351.834 806,-383.366 806,-301 806,-301 806,-301 806,-243 806,-190.801 962.887,-154.024 1052.72,-137.244"/>
<polygon fill="midnightblue" stroke="midnightblue" points="1053.59,-140.643 1062.79,-135.394 1052.33,-133.758 1053.59,-140.643"/>
</g>
<!-- Node19 -->
<g id="node40" class="node"><title>Node19</title>
<a xlink:href="_global_environment_8h.html" target="_top" xlink:title="GlobalEnvironment.h">
<polygon fill="white" stroke="black" points="1735.5,-58.5 1735.5,-79.5 1842.5,-79.5 1842.5,-58.5 1735.5,-58.5"/>
<text text-anchor="middle" x="1789" y="-66.5" font-family="Helvetica,sans-Serif" font-size="10.00">GlobalEnvironment.h</text>
</a>
</g>
<!-- Node1&#45;&gt;Node19 -->
<g id="edge84" class="edge"><title>Node1&#45;&gt;Node19</title>
<path fill="none" stroke="midnightblue" d="M1587.95,-406.452C1635.06,-391.558 1706,-359.43 1706,-301 1706,-301 1706,-301 1706,-185 1706,-143.396 1741.75,-106.438 1766.32,-85.947"/>
<polygon fill="midnightblue" stroke="midnightblue" points="1768.56,-88.6395 1774.16,-79.6462 1764.17,-83.1838 1768.56,-88.6395"/>
</g>
<!-- Node24 -->
<g id="node53" class="node"><title>Node24</title>
<a xlink:href="_utils_8h.html" target="_top" xlink:title="Utils.h">
<polygon fill="white" stroke="black" points="1123.5,-290.5 1123.5,-311.5 1168.5,-311.5 1168.5,-290.5 1123.5,-290.5"/>
<text text-anchor="middle" x="1146" y="-298.5" font-family="Helvetica,sans-Serif" font-size="10.00">Utils.h</text>
</a>
</g>
<!-- Node1&#45;&gt;Node24 -->
<g id="edge58" class="edge"><title>Node1&#45;&gt;Node24</title>
<path fill="none" stroke="midnightblue" d="M1462.03,-406.456C1417.56,-399.27 1362.78,-387.754 1316,-370 1297.75,-363.075 1295.71,-356.196 1278,-348 1259.99,-339.667 1211.34,-322.87 1178.41,-311.779"/>
<polygon fill="midnightblue" stroke="midnightblue" points="1179.33,-308.399 1168.74,-308.536 1177.11,-315.036 1179.33,-308.399"/>
</g>
<!-- Node27 -->
<g id="node60" class="node"><title>Node27</title>
<a xlink:href="_ro_r_version_8h.html" target="_top" xlink:title="RoRVersion.h">
<polygon fill="white" stroke="black" points="1081,-348.5 1081,-369.5 1159,-369.5 1159,-348.5 1081,-348.5"/>
<text text-anchor="middle" x="1120" y="-356.5" font-family="Helvetica,sans-Serif" font-size="10.00">RoRVersion.h</text>
</a>
</g>
<!-- Node1&#45;&gt;Node27 -->
<g id="edge66" class="edge"><title>Node1&#45;&gt;Node27</title>
<path fill="none" stroke="midnightblue" d="M1438.33,-406.495C1364.85,-398.691 1265.46,-386.779 1169.14,-370.071"/>
<polygon fill="midnightblue" stroke="midnightblue" points="1169.68,-366.612 1159.23,-368.332 1168.47,-373.507 1169.68,-366.612"/>
</g>
<!-- Node28 -->
<g id="node62" class="node"><title>Node28</title>
<a xlink:href="rornet_8h.html" target="_top" xlink:title="rornet.h">
<polygon fill="white" stroke="black" points="1522,-348.5 1522,-369.5 1572,-369.5 1572,-348.5 1522,-348.5"/>
<text text-anchor="middle" x="1547" y="-356.5" font-family="Helvetica,sans-Serif" font-size="10.00">rornet.h</text>
</a>
</g>
<!-- Node1&#45;&gt;Node28 -->
<g id="edge68" class="edge"><title>Node1&#45;&gt;Node28</title>
<path fill="none" stroke="midnightblue" d="M1547,-406.362C1547,-398.922 1547,-388.743 1547,-379.728"/>
<polygon fill="midnightblue" stroke="midnightblue" points="1550.5,-379.571 1547,-369.571 1543.5,-379.571 1550.5,-379.571"/>
</g>
<!-- Node30 -->
<g id="node66" class="node"><title>Node30</title>
<a xlink:href="_language_8h.html" target="_top" xlink:title="Language.h">
<polygon fill="white" stroke="black" points="1487.5,-232.5 1487.5,-253.5 1554.5,-253.5 1554.5,-232.5 1487.5,-232.5"/>
<text text-anchor="middle" x="1521" y="-240.5" font-family="Helvetica,sans-Serif" font-size="10.00">Language.h</text>
</a>
</g>
<!-- Node1&#45;&gt;Node30 -->
<g id="edge72" class="edge"><title>Node1&#45;&gt;Node30</title>
<path fill="none" stroke="midnightblue" d="M1592.72,-406.437C1612.02,-399.473 1632.62,-388.156 1644,-370 1662.88,-339.872 1664.16,-319.287 1644,-290 1634.56,-276.28 1596.01,-262.95 1564.55,-254.012"/>
<polygon fill="midnightblue" stroke="midnightblue" points="1565.2,-250.561 1554.63,-251.269 1563.33,-257.308 1565.2,-250.561"/>
</g>
<!-- Node34 -->
<g id="node77" class="node"><title>Node34</title>
<a xlink:href="_application_8h.html" target="_top" xlink:title="Central object manager and communications hub.">
<polygon fill="white" stroke="black" points="1401.5,-290.5 1401.5,-311.5 1474.5,-311.5 1474.5,-290.5 1401.5,-290.5"/>
<text text-anchor="middle" x="1438" y="-298.5" font-family="Helvetica,sans-Serif" font-size="10.00">Application.h</text>
</a>
</g>
<!-- Node1&#45;&gt;Node34 -->
<g id="edge86" class="edge"><title>Node1&#45;&gt;Node34</title>
<path fill="none" stroke="midnightblue" d="M1536.94,-406.295C1518.28,-386.441 1478.13,-343.709 1455.12,-319.224"/>
<polygon fill="midnightblue" stroke="midnightblue" points="1457.43,-316.57 1448.03,-311.679 1452.33,-321.363 1457.43,-316.57"/>
</g>
<!-- Node35 -->
<g id="node80" class="node"><title>Node35</title>
<a xlink:href="_settings_8h.html" target="_top" xlink:title="Settings.h">
<polygon fill="white" stroke="black" points="1393.5,-232.5 1393.5,-253.5 1454.5,-253.5 1454.5,-232.5 1393.5,-232.5"/>
<text text-anchor="middle" x="1424" y="-240.5" font-family="Helvetica,sans-Serif" font-size="10.00">Settings.h</text>
</a>
</g>
<!-- Node1&#45;&gt;Node35 -->
<g id="edge142" class="edge"><title>Node1&#45;&gt;Node35</title>
<path fill="none" stroke="midnightblue" d="M1560,-406.334C1586.34,-383.441 1641.06,-328.551 1611,-290 1606.43,-284.141 1518.24,-263.8 1464.63,-251.884"/>
<polygon fill="midnightblue" stroke="midnightblue" points="1465.24,-248.436 1454.72,-249.691 1463.73,-255.27 1465.24,-248.436"/>
</g>
<!-- Node36 -->
<g id="node84" class="node"><title>Node36</title>
<a xlink:href="_ro_r_frame_listener_8h.html" target="_top" xlink:title="RoRFrameListener.h">
<polygon fill="white" stroke="black" points="961.5,-290.5 961.5,-311.5 1068.5,-311.5 1068.5,-290.5 961.5,-290.5"/>
<text text-anchor="middle" x="1015" y="-298.5" font-family="Helvetica,sans-Serif" font-size="10.00">RoRFrameListener.h</text>
</a>
</g>
<!-- Node1&#45;&gt;Node36 -->
<g id="edge96" class="edge"><title>Node1&#45;&gt;Node36</title>
<path fill="none" stroke="midnightblue" d="M1434.73,-410.387C1304.4,-402.009 1103.24,-386.644 1072,-370 1051.14,-358.885 1034.94,-336.611 1025.23,-320.368"/>
<polygon fill="midnightblue" stroke="midnightblue" points="1028.25,-318.604 1020.28,-311.63 1022.16,-322.056 1028.25,-318.604"/>
</g>
<!-- Node38 -->
<g id="node90" class="node"><title>Node38</title>
<a xlink:href="_main_thread_8h.html" target="_top" xlink:title="Main thread logic. Manages startup and shutdown etc...">
<polygon fill="white" stroke="black" points="1325,-348.5 1325,-369.5 1401,-369.5 1401,-348.5 1325,-348.5"/>
<text text-anchor="middle" x="1363" y="-356.5" font-family="Helvetica,sans-Serif" font-size="10.00">MainThread.h</text>
</a>
</g>
<!-- Node1&#45;&gt;Node38 -->
<g id="edge104" class="edge"><title>Node1&#45;&gt;Node38</title>
<path fill="none" stroke="midnightblue" d="M1513.68,-406.497C1483.55,-397 1439.02,-382.962 1406.17,-372.609"/>
<polygon fill="midnightblue" stroke="midnightblue" points="1406.97,-369.191 1396.38,-369.523 1404.87,-375.868 1406.97,-369.191"/>
</g>
<!-- Node40 -->
<g id="node97" class="node"><title>Node40</title>
<a xlink:href="_ogre_subsystem_8h.html" target="_top" xlink:title="OGRE engine wrapper.">
<polygon fill="white" stroke="black" points="683.5,-174.5 683.5,-195.5 778.5,-195.5 778.5,-174.5 683.5,-174.5"/>
<text text-anchor="middle" x="731" y="-182.5" font-family="Helvetica,sans-Serif" font-size="10.00">OgreSubsystem.h</text>
</a>
</g>
<!-- Node1&#45;&gt;Node40 -->
<g id="edge114" class="edge"><title>Node1&#45;&gt;Node40</title>
<path fill="none" stroke="midnightblue" d="M1434.91,-413.309C1230.78,-406.131 817.002,-389.294 792,-370 740.339,-330.134 731.9,-245.266 730.877,-205.881"/>
<polygon fill="midnightblue" stroke="midnightblue" points="734.374,-205.593 730.756,-195.635 727.374,-205.675 734.374,-205.593"/>
</g>
<!-- Node41 -->
<g id="node100" class="node"><title>Node41</title>
<a xlink:href="_improved_config_file_8h.html" target="_top" xlink:title="ImprovedConfigFile.h">
<polygon fill="white" stroke="black" points="834,-290.5 834,-311.5 944,-311.5 944,-290.5 834,-290.5"/>
<text text-anchor="middle" x="889" y="-298.5" font-family="Helvetica,sans-Serif" font-size="10.00">ImprovedConfigFile.h</text>
</a>
</g>
<!-- Node1&#45;&gt;Node41 -->
<g id="edge118" class="edge"><title>Node1&#45;&gt;Node41</title>
<path fill="none" stroke="midnightblue" d="M1434.92,-410.887C1309.23,-403.27 1113.62,-388.917 1042,-370 995.733,-357.779 945.863,-332.842 916.053,-316.533"/>
<polygon fill="midnightblue" stroke="midnightblue" points="917.551,-313.362 907.109,-311.568 914.153,-319.482 917.551,-313.362"/>
</g>
<!-- Node42 -->
<g id="node104" class="node"><title>Node42</title>
<a xlink:href="_file_system_info_8h.html" target="_top" xlink:title="FileSystemInfo.h">
<polygon fill="white" stroke="red" points="1907.5,-348.5 1907.5,-369.5 1998.5,-369.5 1998.5,-348.5 1907.5,-348.5"/>
<text text-anchor="middle" x="1953" y="-356.5" font-family="Helvetica,sans-Serif" font-size="10.00">FileSystemInfo.h</text>
</a>
</g>
<!-- Node1&#45;&gt;Node42 -->
<g id="edge124" class="edge"><title>Node1&#45;&gt;Node42</title>
<path fill="none" stroke="midnightblue" d="M1633.81,-406.457C1704.11,-397.628 1805.62,-384.216 1894,-370 1895.08,-369.826 1896.17,-369.648 1897.27,-369.467"/>
<polygon fill="midnightblue" stroke="midnightblue" points="1898.03,-372.887 1907.3,-367.752 1896.85,-365.987 1898.03,-372.887"/>
</g>
<!-- Node43 -->
<g id="node106" class="node"><title>Node43</title>
<polygon fill="white" stroke="#bfbfbf" points="1870,-290.5 1870,-311.5 1926,-311.5 1926,-290.5 1870,-290.5"/>
<text text-anchor="middle" x="1898" y="-298.5" font-family="Helvetica,sans-Serif" font-size="10.00">MyGUI.h</text>
</g>
<!-- Node1&#45;&gt;Node43 -->
<g id="edge148" class="edge"><title>Node1&#45;&gt;Node43</title>
<path fill="none" stroke="midnightblue" d="M1659.17,-409.869C1733.97,-403.265 1824.21,-391.166 1856,-370 1873.33,-358.459 1884.69,-337.095 1891.17,-321.184"/>
<polygon fill="midnightblue" stroke="midnightblue" points="1894.5,-322.266 1894.74,-311.674 1887.95,-319.807 1894.5,-322.266"/>
</g>
<!-- Node47 -->
<g id="node114" class="node"><title>Node47</title>
<a xlink:href="_g_u_i_manager_8h.html" target="_top" xlink:title="GUIManager.h">
<polygon fill="white" stroke="red" points="1734,-348.5 1734,-369.5 1814,-369.5 1814,-348.5 1734,-348.5"/>
<text text-anchor="middle" x="1774" y="-356.5" font-family="Helvetica,sans-Serif" font-size="10.00">GUIManager.h</text>
</a>
</g>
<!-- Node1&#45;&gt;Node47 -->
<g id="edge134" class="edge"><title>Node1&#45;&gt;Node47</title>
<path fill="none" stroke="midnightblue" d="M1588.11,-406.497C1626.35,-396.725 1683.41,-382.146 1724.22,-371.72"/>
<polygon fill="midnightblue" stroke="midnightblue" points="1725.14,-375.097 1733.96,-369.231 1723.4,-368.315 1725.14,-375.097"/>
</g>
<!-- Node48 -->
<g id="node120" class="node"><title>Node48</title>
<a xlink:href="_terrain_manager_8h.html" target="_top" xlink:title="TerrainManager.h">
<polygon fill="white" stroke="red" points="1177,-348.5 1177,-369.5 1269,-369.5 1269,-348.5 1177,-348.5"/>
<text text-anchor="middle" x="1223" y="-356.5" font-family="Helvetica,sans-Serif" font-size="10.00">TerrainManager.h</text>
</a>
</g>
<!-- Node1&#45;&gt;Node48 -->
<g id="edge144" class="edge"><title>Node1&#45;&gt;Node48</title>
<path fill="none" stroke="midnightblue" d="M1487.48,-406.494C1433.97,-397.026 1353.21,-382.685 1283,-370 1281.74,-369.772 1280.46,-369.542 1279.18,-369.309"/>
<polygon fill="midnightblue" stroke="midnightblue" points="1279.65,-365.837 1269.18,-367.492 1278.4,-372.724 1279.65,-365.837"/>
</g>
<!-- Node49 -->
<g id="node124" class="node"><title>Node49</title>
<polygon fill="white" stroke="#bfbfbf" points="2016,-348.5 2016,-369.5 2188,-369.5 2188,-348.5 2016,-348.5"/>
<text text-anchor="middle" x="2102" y="-356.5" font-family="Helvetica,sans-Serif" font-size="10.00">boost/algorithm/string/predicate.hpp</text>
</g>
<!-- Node1&#45;&gt;Node49 -->
<g id="edge150" class="edge"><title>Node1&#45;&gt;Node49</title>
<path fill="none" stroke="midnightblue" d="M1653.93,-406.485C1744.73,-397.462 1878.8,-383.913 2005.51,-370.152"/>
<polygon fill="midnightblue" stroke="midnightblue" points="2006.23,-373.595 2015.79,-369.033 2005.47,-366.636 2006.23,-373.595"/>
</g>
<!-- Node50 -->
<g id="node126" class="node"><title>Node50</title>
<polygon fill="white" stroke="#bfbfbf" points="2206,-348.5 2206,-369.5 2320,-369.5 2320,-348.5 2206,-348.5"/>
<text text-anchor="middle" x="2263" y="-356.5" font-family="Helvetica,sans-Serif" font-size="10.00">boost/lexical_cast.hpp</text>
</g>
<!-- Node1&#45;&gt;Node50 -->
<g id="edge152" class="edge"><title>Node1&#45;&gt;Node50</title>
<path fill="none" stroke="midnightblue" d="M1659.16,-412.062C1786.73,-405.724 2001.47,-392.868 2195.7,-370.064"/>
<polygon fill="midnightblue" stroke="midnightblue" points="2196.29,-373.519 2205.81,-368.866 2195.47,-366.567 2196.29,-373.519"/>
</g>
<!-- Node2&#45;&gt;Node2 -->
<g id="edge10" class="edge"><title>Node2&#45;&gt;Node2</title>
<path fill="none" stroke="midnightblue" d="M1902.19,-253.524C1921.07,-255.061 1938,-251.553 1938,-243 1938,-236.051 1926.82,-232.432 1912.5,-232.144"/>
<polygon fill="midnightblue" stroke="midnightblue" points="1912.07,-228.656 1902.19,-232.476 1912.29,-235.652 1912.07,-228.656"/>
</g>
<!-- Node3 -->
<g id="node5" class="node"><title>Node3</title>
<a xlink:href="_forward_declarations_8h.html" target="_top" xlink:title="Global forward declarations.">
<polygon fill="white" stroke="black" points="1825.5,-0.5 1825.5,-21.5 1940.5,-21.5 1940.5,-0.5 1825.5,-0.5"/>
<text text-anchor="middle" x="1883" y="-8.5" font-family="Helvetica,sans-Serif" font-size="10.00">ForwardDeclarations.h</text>
</a>
</g>
<!-- Node2&#45;&gt;Node3 -->
<g id="edge4" class="edge"><title>Node2&#45;&gt;Node3</title>
<path fill="none" stroke="midnightblue" d="M1892.45,-232.438C1927.01,-217.427 1984.7,-186.264 2008,-138 2024.72,-103.362 2002.8,-84.5781 1975,-58 1960.34,-43.9869 1940.69,-33.184 1923.31,-25.4891"/>
<polygon fill="midnightblue" stroke="midnightblue" points="1924.51,-22.1962 1913.93,-21.5332 1921.78,-28.6456 1924.51,-22.1962"/>
</g>
<!-- Node4 -->
<g id="node7" class="node"><title>Node4</title>
<a xlink:href="_g_u_i___game_settings_layout_8h.html" target="_top" xlink:title="GUI_GameSettingsLayout.h">
<polygon fill="white" stroke="red" points="1859,-116.5 1859,-137.5 1999,-137.5 1999,-116.5 1859,-116.5"/>
<text text-anchor="middle" x="1929" y="-124.5" font-family="Helvetica,sans-Serif" font-size="10.00">GUI_GameSettingsLayout.h</text>
</a>
</g>
<!-- Node2&#45;&gt;Node4 -->
<g id="edge6" class="edge"><title>Node2&#45;&gt;Node4</title>
<path fill="none" stroke="midnightblue" d="M1881.79,-232.342C1893.57,-223.937 1908.65,-211.131 1917,-196 1925.16,-181.214 1927.99,-162.165 1928.88,-147.829"/>
<polygon fill="midnightblue" stroke="midnightblue" points="1932.39,-147.63 1929.24,-137.514 1925.4,-147.385 1932.39,-147.63"/>
</g>
<!-- Node5 -->
<g id="node11" class="node"><title>Node5</title>
<a xlink:href="_input_engine_8h.html" target="_top" xlink:title="Input logic.">
<polygon fill="white" stroke="red" points="1771.5,-174.5 1771.5,-195.5 1848.5,-195.5 1848.5,-174.5 1771.5,-174.5"/>
<text text-anchor="middle" x="1810" y="-182.5" font-family="Helvetica,sans-Serif" font-size="10.00">InputEngine.h</text>
</a>
</g>
<!-- Node2&#45;&gt;Node5 -->
<g id="edge12" class="edge"><title>Node2&#45;&gt;Node5</title>
<path fill="none" stroke="midnightblue" d="M1854.91,-232.362C1847.16,-224.186 1836.27,-212.702 1827.15,-203.091"/>
<polygon fill="midnightblue" stroke="midnightblue" points="1829.44,-200.419 1820.02,-195.571 1824.37,-205.235 1829.44,-200.419"/>
</g>
<!-- Node23 -->
<g id="node50" class="node"><title>Node23</title>
<polygon fill="white" stroke="#bfbfbf" points="1866,-174.5 1866,-195.5 1908,-195.5 1908,-174.5 1866,-174.5"/>
<text text-anchor="middle" x="1887" y="-182.5" font-family="Helvetica,sans-Serif" font-size="10.00">OIS.h</text>
</g>
<!-- Node2&#45;&gt;Node23 -->
<g id="edge54" class="edge"><title>Node2&#45;&gt;Node23</title>
<path fill="none" stroke="midnightblue" d="M1869.04,-232.362C1871.92,-224.758 1875.89,-214.294 1879.36,-205.135"/>
<polygon fill="midnightblue" stroke="midnightblue" points="1882.72,-206.162 1882.99,-195.571 1876.17,-203.679 1882.72,-206.162"/>
</g>
<!-- Node4&#45;&gt;Node3 -->
<g id="edge8" class="edge"><title>Node4&#45;&gt;Node3</title>
<path fill="none" stroke="midnightblue" d="M1939.67,-116.408C1952.23,-102.595 1970.07,-77.8532 1959,-58 1951.13,-43.8826 1937.08,-33.4717 1923.18,-26.0886"/>
<polygon fill="midnightblue" stroke="midnightblue" points="1924.66,-22.9146 1914.14,-21.6655 1921.58,-29.2029 1924.66,-22.9146"/>
</g>
<!-- Node5&#45;&gt;Node6 -->
<g id="edge14" class="edge"><title>Node5&#45;&gt;Node6</title>
<path fill="none" stroke="midnightblue" d="M1771.48,-176.245C1766.95,-175.396 1762.39,-174.621 1758,-174 1545.21,-143.87 1289.96,-132.509 1175.18,-128.703"/>
<polygon fill="midnightblue" stroke="midnightblue" points="1175.28,-125.205 1165.18,-128.379 1175.06,-132.201 1175.28,-125.205"/>
</g>
<!-- Node14 -->
<g id="node29" class="node"><title>Node14</title>
<polygon fill="white" stroke="#bfbfbf" points="1859.5,-58.5 1859.5,-79.5 1950.5,-79.5 1950.5,-58.5 1859.5,-58.5"/>
<text text-anchor="middle" x="1905" y="-66.5" font-family="Helvetica,sans-Serif" font-size="10.00">OgreUTFString.h</text>
</g>
<!-- Node5&#45;&gt;Node14 -->
<g id="edge52" class="edge"><title>Node5&#45;&gt;Node14</title>
<path fill="none" stroke="midnightblue" d="M1814.71,-174.482C1821.35,-160.316 1834.4,-134.725 1850,-116 1859.26,-104.882 1871.32,-94.2525 1881.79,-85.9233"/>
<polygon fill="midnightblue" stroke="midnightblue" points="1883.99,-88.6524 1889.76,-79.7712 1879.71,-83.1112 1883.99,-88.6524"/>
</g>
<!-- Node6&#45;&gt;Node3 -->
<g id="edge40" class="edge"><title>Node6&#45;&gt;Node3</title>
<path fill="none" stroke="midnightblue" d="M1165.26,-125.693C1287.27,-122.121 1591.97,-110.351 1689,-80 1707.63,-74.1737 1709.09,-65.7559 1727,-58 1759.65,-43.8601 1797.87,-32.2689 1828.31,-24.1352"/>
<polygon fill="midnightblue" stroke="midnightblue" points="1829.54,-27.4335 1838.32,-21.5107 1827.76,-20.6625 1829.54,-27.4335"/>
</g>
<!-- Node7 -->
<g id="node15" class="node"><title>Node7</title>
<polygon fill="white" stroke="#bfbfbf" points="1449.5,-58.5 1449.5,-79.5 1564.5,-79.5 1564.5,-58.5 1449.5,-58.5"/>
<text text-anchor="middle" x="1507" y="-66.5" font-family="Helvetica,sans-Serif" font-size="10.00">OgreAxisAlignedBox.h</text>
</g>
<!-- Node6&#45;&gt;Node7 -->
<g id="edge16" class="edge"><title>Node6&#45;&gt;Node7</title>
<path fill="none" stroke="midnightblue" d="M1165.03,-120.026C1227.4,-111.421 1336.43,-96.1213 1439.47,-80.2157"/>
<polygon fill="midnightblue" stroke="midnightblue" points="1440.07,-83.664 1449.42,-78.6748 1439,-76.7464 1440.07,-83.664"/>
</g>
<!-- Node8 -->
<g id="node17" class="node"><title>Node8</title>
<polygon fill="white" stroke="#bfbfbf" points="1581.5,-58.5 1581.5,-79.5 1680.5,-79.5 1680.5,-58.5 1581.5,-58.5"/>
<text text-anchor="middle" x="1631" y="-66.5" font-family="Helvetica,sans-Serif" font-size="10.00">OgreColourValue.h</text>
</g>
<!-- Node6&#45;&gt;Node8 -->
<g id="edge18" class="edge"><title>Node6&#45;&gt;Node8</title>
<path fill="none" stroke="midnightblue" d="M1165.12,-123.2C1248.24,-116.706 1418.07,-102.133 1571.3,-80.1587"/>
<polygon fill="midnightblue" stroke="midnightblue" points="1571.98,-83.5978 1581.37,-78.7006 1570.97,-76.6701 1571.98,-83.5978"/>
</g>
<!-- Node9 -->
<g id="node19" class="node"><title>Node9</title>
<polygon fill="white" stroke="#bfbfbf" points="-0.5,-58.5 -0.5,-79.5 102.5,-79.5 102.5,-58.5 -0.5,-58.5"/>
<text text-anchor="middle" x="51" y="-66.5" font-family="Helvetica,sans-Serif" font-size="10.00">OgreHeaderPrefix.h</text>
</g>
<!-- Node6&#45;&gt;Node9 -->
<g id="edge20" class="edge"><title>Node6&#45;&gt;Node9</title>
<path fill="none" stroke="midnightblue" d="M1062.82,-125.513C888.479,-120.31 317.753,-102.086 112.713,-80.0433"/>
<polygon fill="midnightblue" stroke="midnightblue" points="112.97,-76.5504 102.645,-78.9237 112.197,-83.5076 112.97,-76.5504"/>
</g>
<!-- Node10 -->
<g id="node21" class="node"><title>Node10</title>
<polygon fill="white" stroke="#bfbfbf" points="119.5,-58.5 119.5,-79.5 218.5,-79.5 218.5,-58.5 119.5,-58.5"/>
<text text-anchor="middle" x="169" y="-66.5" font-family="Helvetica,sans-Serif" font-size="10.00">OgreLogManager.h</text>
</g>
<!-- Node6&#45;&gt;Node10 -->
<g id="edge22" class="edge"><title>Node6&#45;&gt;Node10</title>
<path fill="none" stroke="midnightblue" d="M1062.86,-125.197C902.502,-119.401 409.874,-100.499 228.794,-80.0546"/>
<polygon fill="midnightblue" stroke="midnightblue" points="228.945,-76.5484 218.606,-78.8623 228.131,-83.5009 228.945,-76.5484"/>
</g>
<!-- Node11 -->
<g id="node23" class="node"><title>Node11</title>
<polygon fill="white" stroke="#bfbfbf" points="235.5,-58.5 235.5,-79.5 328.5,-79.5 328.5,-58.5 235.5,-58.5"/>
<text text-anchor="middle" x="282" y="-66.5" font-family="Helvetica,sans-Serif" font-size="10.00">OgreQuaternion.h</text>
</g>
<!-- Node6&#45;&gt;Node11 -->
<g id="edge24" class="edge"><title>Node6&#45;&gt;Node11</title>
<path fill="none" stroke="midnightblue" d="M1062.86,-126.325C939.75,-124.182 617.069,-115.482 339.023,-80.1231"/>
<polygon fill="midnightblue" stroke="midnightblue" points="339.1,-76.6043 328.736,-78.8 338.207,-83.5471 339.1,-76.6043"/>
</g>
<!-- Node12 -->
<g id="node25" class="node"><title>Node12</title>
<polygon fill="white" stroke="#bfbfbf" points="345.5,-58.5 345.5,-79.5 416.5,-79.5 416.5,-58.5 345.5,-58.5"/>
<text text-anchor="middle" x="381" y="-66.5" font-family="Helvetica,sans-Serif" font-size="10.00">OgreString.h</text>
</g>
<!-- Node6&#45;&gt;Node12 -->
<g id="edge26" class="edge"><title>Node6&#45;&gt;Node12</title>
<path fill="none" stroke="midnightblue" d="M1062.91,-124.69C928.491,-118.429 566.29,-100.33 426.947,-80.054"/>
<polygon fill="midnightblue" stroke="midnightblue" points="427.324,-76.5712 416.912,-78.5278 426.272,-83.4916 427.324,-76.5712"/>
</g>
<!-- Node13 -->
<g id="node27" class="node"><title>Node13</title>
<polygon fill="white" stroke="#bfbfbf" points="434,-58.5 434,-79.5 548,-79.5 548,-58.5 434,-58.5"/>
<text text-anchor="middle" x="491" y="-66.5" font-family="Helvetica,sans-Serif" font-size="10.00">OgreStringConverter.h</text>
</g>
<!-- Node6&#45;&gt;Node13 -->
<g id="edge28" class="edge"><title>Node6&#45;&gt;Node13</title>
<path fill="none" stroke="midnightblue" d="M1062.79,-124.07C966.159,-118.239 750.15,-103.765 558.186,-80.0681"/>
<polygon fill="midnightblue" stroke="midnightblue" points="558.552,-76.5867 548.196,-78.8237 557.687,-83.533 558.552,-76.5867"/>
</g>
<!-- Node6&#45;&gt;Node14 -->
<g id="edge30" class="edge"><title>Node6&#45;&gt;Node14</title>
<path fill="none" stroke="midnightblue" d="M1165.17,-126.151C1283.84,-123.663 1587.08,-114.326 1849.31,-80.0785"/>
<polygon fill="midnightblue" stroke="midnightblue" points="1849.95,-83.5246 1859.41,-78.745 1849.04,-76.5849 1849.95,-83.5246"/>
</g>
<!-- Node15 -->
<g id="node31" class="node"><title>Node15</title>
<polygon fill="white" stroke="#bfbfbf" points="566,-58.5 566,-79.5 646,-79.5 646,-58.5 566,-58.5"/>
<text text-anchor="middle" x="606" y="-66.5" font-family="Helvetica,sans-Serif" font-size="10.00">OgreVector2.h</text>
</g>
<!-- Node6&#45;&gt;Node15 -->
<g id="edge32" class="edge"><title>Node6&#45;&gt;Node15</title>
<path fill="none" stroke="midnightblue" d="M1062.8,-123.751C979.552,-118.033 809.563,-104.545 656.118,-80.0255"/>
<polygon fill="midnightblue" stroke="midnightblue" points="656.467,-76.5365 646.036,-78.3945 655.349,-83.4466 656.467,-76.5365"/>
</g>
<!-- Node16 -->
<g id="node33" class="node"><title>Node16</title>
<polygon fill="white" stroke="#bfbfbf" points="664,-58.5 664,-79.5 744,-79.5 744,-58.5 664,-58.5"/>
<text text-anchor="middle" x="704" y="-66.5" font-family="Helvetica,sans-Serif" font-size="10.00">OgreVector3.h</text>
</g>
<!-- Node6&#45;&gt;Node16 -->
<g id="edge34" class="edge"><title>Node6&#45;&gt;Node16</title>
<path fill="none" stroke="midnightblue" d="M1062.96,-121.841C994.811,-114.625 870.16,-100.281 754.169,-80.0848"/>
<polygon fill="midnightblue" stroke="midnightblue" points="754.507,-76.5905 744.051,-78.3041 753.293,-83.4845 754.507,-76.5905"/>
</g>
<!-- Node17 -->
<g id="node35" class="node"><title>Node17</title>
<polygon fill="white" stroke="#bfbfbf" points="761.5,-58.5 761.5,-79.5 864.5,-79.5 864.5,-58.5 761.5,-58.5"/>
<text text-anchor="middle" x="813" y="-66.5" font-family="Helvetica,sans-Serif" font-size="10.00">OgrePrerequisites.h</text>
</g>
<!-- Node6&#45;&gt;Node17 -->
<g id="edge36" class="edge"><title>Node6&#45;&gt;Node17</title>
<path fill="none" stroke="midnightblue" d="M1062.94,-117.161C1010.91,-107.136 930.185,-91.5805 874.631,-80.8757"/>
<polygon fill="midnightblue" stroke="midnightblue" points="875.045,-77.3912 864.563,-78.9358 873.72,-84.2647 875.045,-77.3912"/>
</g>
<!-- Node18 -->
<g id="node37" class="node"><title>Node18</title>
<polygon fill="white" stroke="#bfbfbf" points="882,-58.5 882,-79.5 1032,-79.5 1032,-58.5 882,-58.5"/>
<text text-anchor="middle" x="957" y="-66.5" font-family="Helvetica,sans-Serif" font-size="10.00">Overlay/OgreOverlaySystem.h</text>
</g>
<!-- Node6&#45;&gt;Node18 -->
<g id="edge38" class="edge"><title>Node6&#45;&gt;Node18</title>
<path fill="none" stroke="midnightblue" d="M1085.57,-116.497C1060.19,-107.123 1022.84,-93.3242 994.93,-83.0122"/>
<polygon fill="midnightblue" stroke="midnightblue" points="996.078,-79.7054 985.485,-79.5231 993.652,-86.2716 996.078,-79.7054"/>
</g>
<!-- Node6&#45;&gt;Node19 -->
<g id="edge42" class="edge"><title>Node6&#45;&gt;Node19</title>
<path fill="none" stroke="midnightblue" d="M1165.39,-124.515C1270.29,-119.115 1516.51,-104.765 1722,-80 1723.08,-79.8695 1724.17,-79.7341 1725.27,-79.5943"/>
<polygon fill="midnightblue" stroke="midnightblue" points="1725.86,-83.0464 1735.3,-78.2314 1724.92,-76.1102 1725.86,-83.0464"/>
</g>
<!-- Node20 -->
<g id="node43" class="node"><title>Node20</title>
<a xlink:href="_zeroed_memory_allocator_8h.html" target="_top" xlink:title="ZeroedMemoryAllocator.h">
<polygon fill="white" stroke="black" points="1050,-58.5 1050,-79.5 1178,-79.5 1178,-58.5 1050,-58.5"/>
<text text-anchor="middle" x="1114" y="-66.5" font-family="Helvetica,sans-Serif" font-size="10.00">ZeroedMemoryAllocator.h</text>
</a>
</g>
<!-- Node6&#45;&gt;Node20 -->
<g id="edge46" class="edge"><title>Node6&#45;&gt;Node20</title>
<path fill="none" stroke="midnightblue" d="M1114,-116.362C1114,-108.922 1114,-98.7427 1114,-89.7276"/>
<polygon fill="midnightblue" stroke="midnightblue" points="1117.5,-89.5706 1114,-79.5707 1110.5,-89.5707 1117.5,-89.5706"/>
</g>
<!-- Node21 -->
<g id="node45" class="node"><title>Node21</title>
<a xlink:href="_bit_flags_8h.html" target="_top" xlink:title="../common/BitFlags.h">
<polygon fill="white" stroke="red" points="1196,-58.5 1196,-79.5 1306,-79.5 1306,-58.5 1196,-58.5"/>
<text text-anchor="middle" x="1251" y="-66.5" font-family="Helvetica,sans-Serif" font-size="10.00">../common/BitFlags.h</text>
</a>
</g>
<!-- Node6&#45;&gt;Node21 -->
<g id="edge48" class="edge"><title>Node6&#45;&gt;Node21</title>
<path fill="none" stroke="midnightblue" d="M1138.81,-116.497C1160.5,-107.315 1192.21,-93.8889 1216.39,-83.6516"/>
<polygon fill="midnightblue" stroke="midnightblue" points="1218.07,-86.7429 1225.91,-79.6212 1215.34,-80.2968 1218.07,-86.7429"/>
</g>
<!-- Node22 -->
<g id="node47" class="node"><title>Node22</title>
<polygon fill="white" stroke="#bfbfbf" points="1323.5,-58.5 1323.5,-79.5 1432.5,-79.5 1432.5,-58.5 1323.5,-58.5"/>
<text text-anchor="middle" x="1378" y="-66.5" font-family="Helvetica,sans-Serif" font-size="10.00">MyGUI_Prerequest.h</text>
</g>
<!-- Node6&#45;&gt;Node22 -->
<g id="edge50" class="edge"><title>Node6&#45;&gt;Node22</title>
<path fill="none" stroke="midnightblue" d="M1161.81,-116.497C1206.34,-106.714 1272.81,-92.1107 1320.28,-81.6819"/>
<polygon fill="midnightblue" stroke="midnightblue" points="1321.09,-85.0874 1330.1,-79.5231 1319.58,-78.2505 1321.09,-85.0874"/>
</g>
<!-- Node19&#45;&gt;Node3 -->
<g id="edge44" class="edge"><title>Node19&#45;&gt;Node3</title>
<path fill="none" stroke="midnightblue" d="M1806.24,-58.3619C1820.55,-49.532 1841.11,-36.844 1857.36,-26.8224"/>
<polygon fill="midnightblue" stroke="midnightblue" points="1859.2,-29.8004 1865.87,-21.5707 1855.52,-23.8431 1859.2,-29.8004"/>
</g>
<!-- Node24&#45;&gt;Node6 -->
<g id="edge60" class="edge"><title>Node24&#45;&gt;Node6</title>
<path fill="none" stroke="midnightblue" d="M1138.93,-290.316C1133.25,-281.112 1125.63,-267.254 1122,-254 1112.03,-217.622 1111.8,-173.278 1112.75,-147.775"/>
<polygon fill="midnightblue" stroke="midnightblue" points="1116.25,-147.931 1113.23,-137.777 1109.26,-147.6 1116.25,-147.931"/>
</g>
<!-- Node25 -->
<g id="node56" class="node"><title>Node25</title>
<polygon fill="white" stroke="#bfbfbf" points="1131,-232.5 1131,-253.5 1229,-253.5 1229,-232.5 1131,-232.5"/>
<text text-anchor="middle" x="1180" y="-240.5" font-family="Helvetica,sans-Serif" font-size="10.00">OgreDataStream.h</text>
</g>
<!-- Node24&#45;&gt;Node25 -->
<g id="edge62" class="edge"><title>Node24&#45;&gt;Node25</title>
<path fill="none" stroke="midnightblue" d="M1152.24,-290.362C1156.84,-282.513 1163.23,-271.616 1168.71,-262.253"/>
<polygon fill="midnightblue" stroke="midnightblue" points="1171.77,-263.968 1173.8,-253.571 1165.73,-260.428 1171.77,-263.968"/>
</g>
<!-- Node26 -->
<g id="node58" class="node"><title>Node26</title>
<polygon fill="white" stroke="#bfbfbf" points="1018.5,-232.5 1018.5,-253.5 1075.5,-253.5 1075.5,-232.5 1018.5,-232.5"/>
<text text-anchor="middle" x="1047" y="-240.5" font-family="Helvetica,sans-Serif" font-size="10.00">pthread.h</text>
</g>
<!-- Node24&#45;&gt;Node26 -->
<g id="edge64" class="edge"><title>Node24&#45;&gt;Node26</title>
<path fill="none" stroke="midnightblue" d="M1127.84,-290.362C1112.77,-281.532 1091.11,-268.844 1074.01,-258.822"/>
<polygon fill="midnightblue" stroke="midnightblue" points="1075.44,-255.606 1065.04,-253.571 1071.9,-261.646 1075.44,-255.606"/>
</g>
<!-- Node29 -->
<g id="node64" class="node"><title>Node29</title>
<polygon fill="white" stroke="#bfbfbf" points="1492,-290.5 1492,-311.5 1602,-311.5 1602,-290.5 1492,-290.5"/>
<text text-anchor="middle" x="1547" y="-298.5" font-family="Helvetica,sans-Serif" font-size="10.00">../common/BitFlags.h</text>
</g>
<!-- Node28&#45;&gt;Node29 -->
<g id="edge70" class="edge"><title>Node28&#45;&gt;Node29</title>
<path fill="none" stroke="midnightblue" d="M1547,-348.362C1547,-340.922 1547,-330.743 1547,-321.728"/>
<polygon fill="midnightblue" stroke="midnightblue" points="1550.5,-321.571 1547,-311.571 1543.5,-321.571 1550.5,-321.571"/>
</g>
<!-- Node30&#45;&gt;Node6 -->
<g id="edge74" class="edge"><title>Node30&#45;&gt;Node6</title>
<path fill="none" stroke="midnightblue" d="M1513.54,-232.485C1501.78,-216.827 1477.35,-187.756 1449,-174 1401.96,-151.173 1258.27,-137.361 1175.15,-131.068"/>
<polygon fill="midnightblue" stroke="midnightblue" points="1175.31,-127.57 1165.08,-130.32 1174.79,-134.551 1175.31,-127.57"/>
</g>
<!-- Node31 -->
<g id="node69" class="node"><title>Node31</title>
<a xlink:href="_singleton_8h.html" target="_top" xlink:title="Singleton.h">
<polygon fill="white" stroke="black" points="1375.5,-174.5 1375.5,-195.5 1440.5,-195.5 1440.5,-174.5 1375.5,-174.5"/>
<text text-anchor="middle" x="1408" y="-182.5" font-family="Helvetica,sans-Serif" font-size="10.00">Singleton.h</text>
</a>
</g>
<!-- Node30&#45;&gt;Node31 -->
<g id="edge76" class="edge"><title>Node30&#45;&gt;Node31</title>
<path fill="none" stroke="midnightblue" d="M1500.54,-232.497C1482.97,-223.479 1457.42,-210.365 1437.61,-200.201"/>
<polygon fill="midnightblue" stroke="midnightblue" points="1439.19,-197.074 1428.69,-195.621 1435.99,-203.301 1439.19,-197.074"/>
</g>
<!-- Node32 -->
<g id="node72" class="node"><title>Node32</title>
<polygon fill="white" stroke="#bfbfbf" points="1563.5,-174.5 1563.5,-195.5 1610.5,-195.5 1610.5,-174.5 1563.5,-174.5"/>
<text text-anchor="middle" x="1587" y="-182.5" font-family="Helvetica,sans-Serif" font-size="10.00">libintl.h</text>
</g>
<!-- Node30&#45;&gt;Node32 -->
<g id="edge80" class="edge"><title>Node30&#45;&gt;Node32</title>
<path fill="none" stroke="midnightblue" d="M1533.11,-232.362C1542.69,-223.941 1556.26,-212.011 1567.39,-202.231"/>
<polygon fill="midnightblue" stroke="midnightblue" points="1569.77,-204.801 1574.97,-195.571 1565.15,-199.543 1569.77,-204.801"/>
</g>
<!-- Node33 -->
<g id="node74" class="node"><title>Node33</title>
<polygon fill="white" stroke="#bfbfbf" points="1496,-174.5 1496,-195.5 1546,-195.5 1546,-174.5 1496,-174.5"/>
<text text-anchor="middle" x="1521" y="-182.5" font-family="Helvetica,sans-Serif" font-size="10.00">locale.h</text>
</g>
<!-- Node30&#45;&gt;Node33 -->
<g id="edge82" class="edge"><title>Node30&#45;&gt;Node33</title>
<path fill="none" stroke="midnightblue" d="M1521,-232.362C1521,-224.922 1521,-214.743 1521,-205.728"/>
<polygon fill="midnightblue" stroke="midnightblue" points="1524.5,-205.571 1521,-195.571 1517.5,-205.571 1524.5,-205.571"/>
</g>
<!-- Node31&#45;&gt;Node6 -->
<g id="edge78" class="edge"><title>Node31&#45;&gt;Node6</title>
<path fill="none" stroke="midnightblue" d="M1375.48,-177.716C1369.67,-176.451 1363.66,-175.167 1358,-174 1295.74,-161.158 1224.32,-147.529 1174.91,-138.273"/>
<polygon fill="midnightblue" stroke="midnightblue" points="1175.49,-134.821 1165.02,-136.423 1174.2,-141.702 1175.49,-134.821"/>
</g>
<!-- Node34&#45;&gt;Node6 -->
<g id="edge88" class="edge"><title>Node34&#45;&gt;Node6</title>
<path fill="none" stroke="midnightblue" d="M1425.2,-290.305C1392.2,-262.879 1304.44,-191.009 1271,-174 1240.92,-158.703 1205.02,-147.492 1175.14,-139.865"/>
<polygon fill="midnightblue" stroke="midnightblue" points="1175.81,-136.423 1165.26,-137.415 1174.12,-143.218 1175.81,-136.423"/>
</g>
<!-- Node34&#45;&gt;Node35 -->
<g id="edge90" class="edge"><title>Node34&#45;&gt;Node35</title>
<path fill="none" stroke="midnightblue" d="M1435.43,-290.362C1433.62,-282.84 1431.13,-272.519 1428.93,-263.431"/>
<polygon fill="midnightblue" stroke="midnightblue" points="1432.3,-262.47 1426.55,-253.571 1425.5,-264.113 1432.3,-262.47"/>
</g>
<!-- Node35&#45;&gt;Node6 -->
<g id="edge92" class="edge"><title>Node35&#45;&gt;Node6</title>
<path fill="none" stroke="midnightblue" d="M1410.09,-232.26C1389.83,-217.115 1350.5,-189.594 1313,-174 1268.58,-155.53 1215.42,-143.444 1175.23,-136.159"/>
<polygon fill="midnightblue" stroke="midnightblue" points="1175.76,-132.699 1165.3,-134.41 1174.54,-139.592 1175.76,-132.699"/>
</g>
<!-- Node35&#45;&gt;Node31 -->
<g id="edge94" class="edge"><title>Node35&#45;&gt;Node31</title>
<path fill="none" stroke="midnightblue" d="M1421.07,-232.362C1418.99,-224.84 1416.14,-214.519 1413.64,-205.431"/>
<polygon fill="midnightblue" stroke="midnightblue" points="1416.95,-204.28 1410.92,-195.571 1410.2,-206.141 1416.95,-204.28"/>
</g>
<!-- Node36&#45;&gt;Node6 -->
<g id="edge98" class="edge"><title>Node36&#45;&gt;Node6</title>
<path fill="none" stroke="midnightblue" d="M1011.34,-290.246C1007.22,-276.257 1002.05,-251.327 1010,-232 1025.81,-193.582 1063.22,-161.759 1088.59,-143.556"/>
<polygon fill="midnightblue" stroke="midnightblue" points="1090.79,-146.284 1097,-137.697 1086.79,-140.539 1090.79,-146.284"/>
</g>
<!-- Node36&#45;&gt;Node26 -->
<g id="edge102" class="edge"><title>Node36&#45;&gt;Node26</title>
<path fill="none" stroke="midnightblue" d="M1020.87,-290.362C1025.15,-282.595 1031.09,-271.843 1036.22,-262.546"/>
<polygon fill="midnightblue" stroke="midnightblue" points="1039.4,-264.017 1041.17,-253.571 1033.27,-260.636 1039.4,-264.017"/>
</g>
<!-- Node37 -->
<g id="node87" class="node"><title>Node37</title>
<polygon fill="white" stroke="#bfbfbf" points="917,-232.5 917,-253.5 963,-253.5 963,-232.5 917,-232.5"/>
<text text-anchor="middle" x="940" y="-240.5" font-family="Helvetica,sans-Serif" font-size="10.00">Ogre.h</text>
</g>
<!-- Node36&#45;&gt;Node37 -->
<g id="edge100" class="edge"><title>Node36&#45;&gt;Node37</title>
<path fill="none" stroke="midnightblue" d="M1001.24,-290.362C990.249,-281.859 974.627,-269.779 961.914,-259.947"/>
<polygon fill="midnightblue" stroke="midnightblue" points="963.721,-256.919 953.669,-253.571 959.438,-262.457 963.721,-256.919"/>
</g>
<!-- Node38&#45;&gt;Node6 -->
<g id="edge108" class="edge"><title>Node38&#45;&gt;Node6</title>
<path fill="none" stroke="midnightblue" d="M1324.93,-349.396C1283.33,-338.524 1221.69,-321.138 1215,-312 1193.15,-282.142 1253.56,-265.565 1238,-232 1218.86,-190.716 1174.61,-159.769 1144.49,-142.524"/>
<polygon fill="midnightblue" stroke="midnightblue" points="1146.08,-139.405 1135.64,-137.616 1142.69,-145.527 1146.08,-139.405"/>
</g>
<!-- Node38&#45;&gt;Node26 -->
<g id="edge112" class="edge"><title>Node38&#45;&gt;Node26</title>
<path fill="none" stroke="midnightblue" d="M1324.94,-353.07C1260.07,-342.774 1133.29,-321.758 1115,-312 1092.34,-299.912 1072.51,-277.69 1060.21,-261.728"/>
<polygon fill="midnightblue" stroke="midnightblue" points="1062.95,-259.547 1054.17,-253.608 1057.33,-263.722 1062.95,-259.547"/>
</g>
<!-- Node38&#45;&gt;Node34 -->
<g id="edge106" class="edge"><title>Node38&#45;&gt;Node34</title>
<path fill="none" stroke="midnightblue" d="M1376.76,-348.362C1387.75,-339.859 1403.37,-327.779 1416.09,-317.947"/>
<polygon fill="midnightblue" stroke="midnightblue" points="1418.56,-320.457 1424.33,-311.571 1414.28,-314.919 1418.56,-320.457"/>
</g>
<!-- Node39 -->
<g id="node94" class="node"><title>Node39</title>
<a xlink:href="_rig_editor___forward_declarations_8h.html" target="_top" xlink:title="RigEditor_ForwardDeclarations.h">
<polygon fill="white" stroke="black" points="1223.5,-290.5 1223.5,-311.5 1384.5,-311.5 1384.5,-290.5 1223.5,-290.5"/>
<text text-anchor="middle" x="1304" y="-298.5" font-family="Helvetica,sans-Serif" font-size="10.00">RigEditor_ForwardDeclarations.h</text>
</a>
</g>
<!-- Node38&#45;&gt;Node39 -->
<g id="edge110" class="edge"><title>Node38&#45;&gt;Node39</title>
<path fill="none" stroke="midnightblue" d="M1352.18,-348.362C1343.78,-340.104 1331.95,-328.472 1322.11,-318.803"/>
<polygon fill="midnightblue" stroke="midnightblue" points="1324.34,-316.085 1314.75,-311.571 1319.43,-321.077 1324.34,-316.085"/>
</g>
<!-- Node40&#45;&gt;Node6 -->
<g id="edge116" class="edge"><title>Node40&#45;&gt;Node6</title>
<path fill="none" stroke="midnightblue" d="M778.593,-176.259C783.121,-175.475 787.645,-174.71 792,-174 882.637,-159.217 987.998,-144.258 1052.84,-135.306"/>
<polygon fill="midnightblue" stroke="midnightblue" points="1053.46,-138.754 1062.89,-133.922 1052.51,-131.819 1053.46,-138.754"/>
</g>
<!-- Node41&#45;&gt;Node6 -->
<g id="edge120" class="edge"><title>Node41&#45;&gt;Node6</title>
<path fill="none" stroke="midnightblue" d="M889.324,-290.46C890.297,-275.804 894.024,-249.141 908,-232 947.432,-183.641 1014.93,-155.296 1061.87,-140.49"/>
<polygon fill="midnightblue" stroke="midnightblue" points="1063.01,-143.801 1071.56,-137.534 1060.97,-137.105 1063.01,-143.801"/>
</g>
<!-- Node41&#45;&gt;Node37 -->
<g id="edge122" class="edge"><title>Node41&#45;&gt;Node37</title>
<path fill="none" stroke="midnightblue" d="M898.354,-290.362C905.543,-282.186 915.641,-270.702 924.093,-261.091"/>
<polygon fill="midnightblue" stroke="midnightblue" points="926.73,-263.392 930.705,-253.571 921.473,-258.769 926.73,-263.392"/>
</g>
<!-- Node42&#45;&gt;Node43 -->
<g id="edge126" class="edge"><title>Node42&#45;&gt;Node43</title>
<path fill="none" stroke="midnightblue" d="M1942.91,-348.362C1935.16,-340.186 1924.27,-328.702 1915.15,-319.091"/>
<polygon fill="midnightblue" stroke="midnightblue" points="1917.44,-316.419 1908.02,-311.571 1912.37,-321.235 1917.44,-316.419"/>
</g>
<!-- Node44 -->
<g id="node108" class="node"><title>Node44</title>
<polygon fill="white" stroke="#bfbfbf" points="2001.5,-290.5 2001.5,-311.5 2064.5,-311.5 2064.5,-290.5 2001.5,-290.5"/>
<text text-anchor="middle" x="2033" y="-298.5" font-family="Helvetica,sans-Serif" font-size="10.00">windows.h</text>
</g>
<!-- Node42&#45;&gt;Node44 -->
<g id="edge128" class="edge"><title>Node42&#45;&gt;Node44</title>
<path fill="none" stroke="midnightblue" d="M1967.67,-348.362C1979.51,-339.777 1996.39,-327.546 2010.02,-317.664"/>
<polygon fill="midnightblue" stroke="midnightblue" points="2012.38,-320.274 2018.42,-311.571 2008.27,-314.607 2012.38,-320.274"/>
</g>
<!-- Node45 -->
<g id="node110" class="node"><title>Node45</title>
<polygon fill="white" stroke="#bfbfbf" points="2082,-290.5 2082,-311.5 2114,-311.5 2114,-290.5 2082,-290.5"/>
<text text-anchor="middle" x="2098" y="-298.5" font-family="Helvetica,sans-Serif" font-size="10.00">io.h</text>
</g>
<!-- Node42&#45;&gt;Node45 -->
<g id="edge130" class="edge"><title>Node42&#45;&gt;Node45</title>
<path fill="none" stroke="midnightblue" d="M1980.77,-348.494C2003.27,-339.903 2035.98,-327.23 2072.53,-312.098"/>
<polygon fill="midnightblue" stroke="midnightblue" points="2074.02,-315.271 2081.9,-308.199 2071.33,-308.808 2074.02,-315.271"/>
</g>
<!-- Node46 -->
<g id="node112" class="node"><title>Node46</title>
<polygon fill="white" stroke="#bfbfbf" points="1943.5,-290.5 1943.5,-311.5 1984.5,-311.5 1984.5,-290.5 1943.5,-290.5"/>
<text text-anchor="middle" x="1964" y="-298.5" font-family="Helvetica,sans-Serif" font-size="10.00">string</text>
</g>
<!-- Node42&#45;&gt;Node46 -->
<g id="edge132" class="edge"><title>Node42&#45;&gt;Node46</title>
<path fill="none" stroke="midnightblue" d="M1955.02,-348.362C1956.44,-340.84 1958.4,-330.519 1960.13,-321.431"/>
<polygon fill="midnightblue" stroke="midnightblue" points="1963.57,-322.048 1962,-311.571 1956.69,-320.743 1963.57,-322.048"/>
</g>
<!-- Node47&#45;&gt;Node2 -->
<g id="edge140" class="edge"><title>Node47&#45;&gt;Node2</title>
<path fill="none" stroke="midnightblue" d="M1782.41,-348.236C1793.02,-334.654 1811.85,-310.581 1828,-290 1835.31,-280.687 1843.45,-270.349 1850.22,-261.744"/>
<polygon fill="midnightblue" stroke="midnightblue" points="1853.03,-263.841 1856.47,-253.82 1847.53,-259.509 1853.03,-263.841"/>
</g>
<!-- Node47&#45;&gt;Node6 -->
<g id="edge136" class="edge"><title>Node47&#45;&gt;Node6</title>
<path fill="none" stroke="midnightblue" d="M1768.84,-348.074C1752.47,-314.799 1698.05,-214.515 1619,-174 1580.37,-154.2 1301.58,-137.015 1175.56,-130.165"/>
<polygon fill="midnightblue" stroke="midnightblue" points="1175.48,-126.656 1165.3,-129.612 1175.1,-133.646 1175.48,-126.656"/>
</g>
<!-- Node47&#45;&gt;Node43 -->
<g id="edge138" class="edge"><title>Node47&#45;&gt;Node43</title>
<path fill="none" stroke="midnightblue" d="M1796.46,-348.497C1815.91,-339.397 1844.28,-326.127 1866.09,-315.925"/>
<polygon fill="midnightblue" stroke="midnightblue" points="1867.72,-319.028 1875.29,-311.621 1864.75,-312.688 1867.72,-319.028"/>
</g>
<!-- Node48&#45;&gt;Node36 -->
<g id="edge146" class="edge"><title>Node48&#45;&gt;Node36</title>
<path fill="none" stroke="midnightblue" d="M1185.33,-348.497C1150.98,-338.918 1100.06,-324.72 1062.85,-314.342"/>
<polygon fill="midnightblue" stroke="midnightblue" points="1063.31,-310.838 1052.74,-311.523 1061.43,-317.581 1063.31,-310.838"/>
</g>
</g>
</svg>
        <g id="navigator" transform="translate(0 0)" fill="#404254">
                <rect fill="#f2f5e9" fill-opacity="0.5" stroke="#606060" stroke-width=".5" x="0" y="0" width="60" height="60"/>
                <use id="zoomplus" xlink:href="#zoomPlus" x="17" y="9" onmousedown="handleZoom(evt,'in')"/>
                <use id="zoomminus" xlink:href="#zoomMin" x="42" y="9" onmousedown="handleZoom(evt,'out')"/>
                <use id="reset" xlink:href="#resetDef" x="30" y="36" onmousedown="handleReset()"/>
                <g id="arrowUp" xlink:href="#dirArrow" transform="translate(30 24)" onmousedown="handlePan(0,-1)">
                  <use xlink:href="#rim" fill="#404040">
                        <set attributeName="fill" to="#808080" begin="arrowUp.mouseover" end="arrowUp.mouseout"/>
                  </use>
                  <path fill="none" stroke="white" stroke-width="1.5" d="M0,-3.0v7 M-2.5,-0.5L0,-3.0L2.5,-0.5"/>
                </g>
                <g id="arrowRight" xlink:href="#dirArrow" transform="rotate(90) translate(36 -43)" onmousedown="handlePan(1,0)">
                  <use xlink:href="#rim" fill="#404040">
                        <set attributeName="fill" to="#808080" begin="arrowRight.mouseover" end="arrowRight.mouseout"/>
                  </use>
                  <path fill="none" stroke="white" stroke-width="1.5" d="M0,-3.0v7 M-2.5,-0.5L0,-3.0L2.5,-0.5"/>
                </g>
                <g id="arrowDown" xlink:href="#dirArrow" transform="rotate(180) translate(-30 -48)" onmousedown="handlePan(0,1)">
                  <use xlink:href="#rim" fill="#404040">
                        <set attributeName="fill" to="#808080" begin="arrowDown.mouseover" end="arrowDown.mouseout"/>
                  </use>
                  <path fill="none" stroke="white" stroke-width="1.5" d="M0,-3.0v7 M-2.5,-0.5L0,-3.0L2.5,-0.5"/>
                </g>
                <g id="arrowLeft" xlink:href="#dirArrow" transform="rotate(270) translate(-36 17)" onmousedown="handlePan(-1,0)">
                  <use xlink:href="#rim" fill="#404040">
                        <set attributeName="fill" to="#808080" begin="arrowLeft.mouseover" end="arrowLeft.mouseout"/>
                  </use>
                  <path fill="none" stroke="white" stroke-width="1.5" d="M0,-3.0v7 M-2.5,-0.5L0,-3.0L2.5,-0.5"/>
                </g>
        </g>
</svg>
