<?xml version="1.0" encoding="UTF-8" standalone="no"?>
<!DOCTYPE svg PUBLIC "-//W3C//DTD SVG 1.1//EN"
 "http://www.w3.org/Graphics/SVG/1.1/DTD/svg11.dtd">
<!-- Generated by graphviz version 2.26.3 (20100126.1600)
 -->
<!-- Title: source/main/gui/panels/GUI_RigEditorLandVehiclePropertiesWindowLayout.h Pages: 1 -->
<svg width="468pt" height="224pt"
 viewBox="0.00 0.00 468.00 224.00" xmlns="http://www.w3.org/2000/svg" xmlns:xlink="http://www.w3.org/1999/xlink">
<g id="graph1" class="graph" transform="scale(1 1) rotate(0) translate(4 220)">
<title>source/main/gui/panels/GUI_RigEditorLandVehiclePropertiesWindowLayout.h</title>
<polygon fill="white" stroke="white" points="-4,5 -4,-220 465,-220 465,5 -4,5"/>
<!-- Node1 -->
<g id="node1" class="node"><title>Node1</title>
<polygon fill="#bfbfbf" stroke="black" points="180.5,-168.5 180.5,-215.5 361.5,-215.5 361.5,-168.5 180.5,-168.5"/>
<text text-anchor="start" x="188.5" y="-202.5" font-family="Helvetica,sans-Serif" font-size="10.00">source/main/gui/panels</text>
<text text-anchor="start" x="188.5" y="-189.5" font-family="Helvetica,sans-Serif" font-size="10.00">/GUI_RigEditorLandVehicleProperties</text>
<text text-anchor="middle" x="271" y="-176.5" font-family="Helvetica,sans-Serif" font-size="10.00">WindowLayout.h</text>
</g>
<!-- Node2 -->
<g id="node3" class="node"><title>Node2</title>
<a xlink:href="_g_u_i___rig_editor_land_vehicle_properties_window_8h.html" target="_top" xlink:title="source/main/gui/panels\l/GUI_RigEditorLandVehicleProperties\lWindow.h">
<polygon fill="white" stroke="black" points="81.5,-84.5 81.5,-131.5 262.5,-131.5 262.5,-84.5 81.5,-84.5"/>
<text text-anchor="start" x="89.5" y="-118.5" font-family="Helvetica,sans-Serif" font-size="10.00">source/main/gui/panels</text>
<text text-anchor="start" x="89.5" y="-105.5" font-family="Helvetica,sans-Serif" font-size="10.00">/GUI_RigEditorLandVehicleProperties</text>
<text text-anchor="middle" x="172" y="-92.5" font-family="Helvetica,sans-Serif" font-size="10.00">Window.h</text>
</a>
</g>
<!-- Node1&#45;&gt;Node2 -->
<g id="edge2" class="edge"><title>Node1&#45;&gt;Node2</title>
<path fill="none" stroke="midnightblue" d="M235.32,-161.726C223.691,-151.859 210.955,-141.053 199.975,-131.736"/>
<polygon fill="midnightblue" stroke="midnightblue" points="233.27,-164.577 243.16,-168.378 237.799,-159.239 233.27,-164.577"/>
</g>
<!-- Node5 -->
<g id="node9" class="node"><title>Node5</title>
<a xlink:href="_g_u_i___rig_editor_land_vehicle_properties_window_layout_8cpp.html" target="_top" xlink:title="source/main/gui/panels\l/GUI_RigEditorLandVehicleProperties\lWindowLayout.cpp">
<polygon fill="white" stroke="black" points="279.5,-84.5 279.5,-131.5 460.5,-131.5 460.5,-84.5 279.5,-84.5"/>
<text text-anchor="start" x="287.5" y="-118.5" font-family="Helvetica,sans-Serif" font-size="10.00">source/main/gui/panels</text>
<text text-anchor="start" x="287.5" y="-105.5" font-family="Helvetica,sans-Serif" font-size="10.00">/GUI_RigEditorLandVehicleProperties</text>
<text text-anchor="middle" x="370" y="-92.5" font-family="Helvetica,sans-Serif" font-size="10.00">WindowLayout.cpp</text>
</a>
</g>
<!-- Node1&#45;&gt;Node5 -->
<g id="edge8" class="edge"><title>Node1&#45;&gt;Node5</title>
<path fill="none" stroke="midnightblue" d="M306.68,-161.726C318.309,-151.859 331.045,-141.053 342.025,-131.736"/>
<polygon fill="midnightblue" stroke="midnightblue" points="304.201,-159.239 298.84,-168.378 308.73,-164.577 304.201,-159.239"/>
</g>
<!-- Node3 -->
<g id="node5" class="node"><title>Node3</title>
<a xlink:href="_g_u_i___rig_editor_land_vehicle_properties_window_8cpp.html" target="_top" xlink:title="source/main/gui/panels\l/GUI_RigEditorLandVehicleProperties\lWindow.cpp">
<polygon fill="white" stroke="black" points="-0.5,-0.5 -0.5,-47.5 180.5,-47.5 180.5,-0.5 -0.5,-0.5"/>
<text text-anchor="start" x="7.5" y="-34.5" font-family="Helvetica,sans-Serif" font-size="10.00">source/main/gui/panels</text>
<text text-anchor="start" x="7.5" y="-21.5" font-family="Helvetica,sans-Serif" font-size="10.00">/GUI_RigEditorLandVehicleProperties</text>
<text text-anchor="middle" x="90" y="-8.5" font-family="Helvetica,sans-Serif" font-size="10.00">Window.cpp</text>
</a>
</g>
<!-- Node2&#45;&gt;Node3 -->
<g id="edge4" class="edge"><title>Node2&#45;&gt;Node3</title>
<path fill="none" stroke="midnightblue" d="M141.68,-76.94C132.215,-67.2445 121.934,-56.7129 113.053,-47.6152"/>
<polygon fill="midnightblue" stroke="midnightblue" points="139.232,-79.4428 148.721,-84.1537 144.241,-74.553 139.232,-79.4428"/>
</g>
<!-- Node4 -->
<g id="node7" class="node"><title>Node4</title>
<a xlink:href="_rig_editor___main_8cpp.html" target="_top" xlink:title="source/main/rig_editor\l/RigEditor_Main.cpp">
<polygon fill="white" stroke="black" points="197.5,-7 197.5,-41 310.5,-41 310.5,-7 197.5,-7"/>
<text text-anchor="start" x="205.5" y="-28" font-family="Helvetica,sans-Serif" font-size="10.00">source/main/rig_editor</text>
<text text-anchor="middle" x="254" y="-15" font-family="Helvetica,sans-Serif" font-size="10.00">/RigEditor_Main.cpp</text>
</a>
</g>
<!-- Node2&#45;&gt;Node4 -->
<g id="edge6" class="edge"><title>Node2&#45;&gt;Node4</title>
<path fill="none" stroke="midnightblue" d="M202.401,-76.8578C214.159,-64.8123 227.167,-51.4875 237.18,-41.2299"/>
<polygon fill="midnightblue" stroke="midnightblue" points="199.759,-74.553 195.279,-84.1537 204.768,-79.4428 199.759,-74.553"/>
</g>
</g>
</svg>
