<?xml version="1.0" encoding="UTF-8" standalone="no"?>
<!DOCTYPE svg PUBLIC "-//W3C//DTD SVG 1.1//EN"
 "http://www.w3.org/Graphics/SVG/1.1/DTD/svg11.dtd">
<!-- Generated by graphviz version 2.26.3 (20100126.1600)
 -->
<!-- Title: G Pages: 1 -->
<!--zoomable 146 -->
<svg id="main" version="1.1" xmlns="http://www.w3.org/2000/svg" xmlns:xlink="http://www.w3.org/1999/xlink" xml:space="preserve" onload="init(evt)">
        <defs>
                <circle id="rim" cx="0" cy="0" r="7"/>
                <circle id="rim2" cx="0" cy="0" r="3.5"/>
                <g id="zoomPlus">
                        <use xlink:href="#rim" fill="#404040">
                                <set attributeName="fill" to="#808080" begin="zoomplus.mouseover" end="zoomplus.mouseout"/>
                        </use>
                        <path d="M-4,0h8M0,-4v8" fill="none" stroke="white" stroke-width="1.5" pointer-events="none"/>
                </g>
                <g id="zoomMin">
                        <use xlink:href="#rim" fill="#404040">
                                <set attributeName="fill" to="#808080" begin="zoomminus.mouseover" end="zoomminus.mouseout"/>
                        </use>
                        <path d="M-4,0h8" fill="none" stroke="white" stroke-width="1.5" pointer-events="none"/>
                </g>
                <g id="dirArrow">
                        <path fill="none" stroke="white" stroke-width="1.5" d="M0,-3.0v7 M-2.5,-0.5L0,-3.0L2.5,-0.5"/>
                </g>
               <g id="resetDef">
                       <use xlink:href="#rim2" fill="#404040">
                               <set attributeName="fill" to="#808080" begin="reset.mouseover" end="reset.mouseout"/>
                       </use>
               </g>
        </defs>

<script type="text/javascript">
var viewWidth = 6078;
var viewHeight = 146;
var sectionId = 'dynsection-1';
</script>
<script xlink:href="svgpan.js"/>
<svg id="graph" class="graph">
<g id="viewport">
<title>G</title>
<polygon fill="white" stroke="white" points="-4,5 -4,-142 6075,-142 6075,5 -4,5"/>
<!-- Node1 -->
<g id="node1" class="node"><title>Node1</title>
<polygon fill="#bfbfbf" stroke="black" points="2116,-116.5 2116,-137.5 2346,-137.5 2346,-116.5 2116,-116.5"/>
<text text-anchor="middle" x="2231" y="-124.5" font-family="Helvetica,sans-Serif" font-size="10.00">source/main/gui/panels/GUI_GamePauseMenu.h</text>
</g>
<!-- Node2 -->
<g id="node3" class="node"><title>Node2</title>
<a xlink:href="_g_u_i_manager_8h.html" target="_top" xlink:title="source/main/gui/GUIManager.h">
<polygon fill="white" stroke="black" points="2853,-58.5 2853,-79.5 3005,-79.5 3005,-58.5 2853,-58.5"/>
<text text-anchor="middle" x="2929" y="-66.5" font-family="Helvetica,sans-Serif" font-size="10.00">source/main/gui/GUIManager.h</text>
</a>
</g>
<!-- Node1&#45;&gt;Node2 -->
<g id="edge2" class="edge"><title>Node1&#45;&gt;Node2</title>
<path fill="none" stroke="midnightblue" d="M2356.51,-116.571C2500.95,-104.568 2733.57,-85.2392 2852.95,-75.3196"/>
<polygon fill="midnightblue" stroke="midnightblue" points="2355.94,-113.106 2346.26,-117.422 2356.52,-120.082 2355.94,-113.106"/>
</g>
<!-- Node15 -->
<g id="node29" class="node"><title>Node15</title>
<a xlink:href="_g_u_i___game_pause_menu_8cpp.html" target="_top" xlink:title="source/main/gui/panels/GUI_GamePauseMenu.cpp">
<polygon fill="white" stroke="black" points="0,-0.5 0,-21.5 240,-21.5 240,-0.5 0,-0.5"/>
<text text-anchor="middle" x="120" y="-8.5" font-family="Helvetica,sans-Serif" font-size="10.00">source/main/gui/panels/GUI_GamePauseMenu.cpp</text>
</a>
</g>
<!-- Node1&#45;&gt;Node15 -->
<g id="edge58" class="edge"><title>Node1&#45;&gt;Node15</title>
<path fill="none" stroke="midnightblue" d="M2105.85,-121.769C1792.76,-108.377 950.388,-70.4702 249,-22 246.085,-21.7986 243.133,-21.5892 240.156,-21.3733"/>
<polygon fill="midnightblue" stroke="midnightblue" points="2105.72,-125.266 2115.86,-122.196 2106.02,-118.273 2105.72,-125.266"/>
</g>
<!-- Node3 -->
<g id="node5" class="node"><title>Node3</title>
<a xlink:href="_application_8cpp.html" target="_top" xlink:title="source/main/Application.cpp">
<polygon fill="white" stroke="black" points="258,-0.5 258,-21.5 398,-21.5 398,-0.5 258,-0.5"/>
<text text-anchor="middle" x="328" y="-8.5" font-family="Helvetica,sans-Serif" font-size="10.00">source/main/Application.cpp</text>
</a>
</g>
<!-- Node2&#45;&gt;Node3 -->
<g id="edge4" class="edge"><title>Node2&#45;&gt;Node3</title>
<path fill="none" stroke="midnightblue" d="M2842.7,-68.7806C2457.84,-67.5886 895.603,-60.4306 407,-22 404.101,-21.772 401.146,-21.5073 398.164,-21.2136"/>
<polygon fill="midnightblue" stroke="midnightblue" points="2842.92,-72.2812 2852.93,-68.8117 2842.94,-65.2812 2842.92,-72.2812"/>
</g>
<!-- Node4 -->
<g id="node7" class="node"><title>Node4</title>
<a xlink:href="_chat_system_8cpp.html" target="_top" xlink:title="source/main/gameplay/ChatSystem.cpp">
<polygon fill="white" stroke="black" points="415.5,-0.5 415.5,-21.5 606.5,-21.5 606.5,-0.5 415.5,-0.5"/>
<text text-anchor="middle" x="511" y="-8.5" font-family="Helvetica,sans-Serif" font-size="10.00">source/main/gameplay/ChatSystem.cpp</text>
</a>
</g>
<!-- Node2&#45;&gt;Node4 -->
<g id="edge6" class="edge"><title>Node2&#45;&gt;Node4</title>
<path fill="none" stroke="midnightblue" d="M2842.74,-68.2321C2478.02,-64.8332 1060.87,-50.0564 615,-22 612.282,-21.829 609.525,-21.6402 606.744,-21.4364"/>
<polygon fill="midnightblue" stroke="midnightblue" points="2842.93,-71.7339 2852.96,-68.3269 2843,-64.7342 2842.93,-71.7339"/>
</g>
<!-- Node5 -->
<g id="node9" class="node"><title>Node5</title>
<a xlink:href="_land_vehicle_simulation_8cpp.html" target="_top" xlink:title="source/main/gameplay/LandVehicleSimulation.cpp">
<polygon fill="white" stroke="black" points="624,-0.5 624,-21.5 860,-21.5 860,-0.5 624,-0.5"/>
<text text-anchor="middle" x="742" y="-8.5" font-family="Helvetica,sans-Serif" font-size="10.00">source/main/gameplay/LandVehicleSimulation.cpp</text>
</a>
</g>
<!-- Node2&#45;&gt;Node5 -->
<g id="edge8" class="edge"><title>Node2&#45;&gt;Node5</title>
<path fill="none" stroke="midnightblue" d="M2842.82,-67.7657C2503.94,-62.7988 1262.41,-43.5033 869,-22 866.127,-21.843 863.219,-21.6735 860.286,-21.4933"/>
<polygon fill="midnightblue" stroke="midnightblue" points="2842.77,-71.2653 2852.82,-67.912 2842.87,-64.266 2842.77,-71.2653"/>
</g>
<!-- Node6 -->
<g id="node11" class="node"><title>Node6</title>
<a xlink:href="_scene_mouse_8cpp.html" target="_top" xlink:title="source/main/gameplay/SceneMouse.cpp">
<polygon fill="white" stroke="black" points="878,-0.5 878,-21.5 1072,-21.5 1072,-0.5 878,-0.5"/>
<text text-anchor="middle" x="975" y="-8.5" font-family="Helvetica,sans-Serif" font-size="10.00">source/main/gameplay/SceneMouse.cpp</text>
</a>
</g>
<!-- Node2&#45;&gt;Node6 -->
<g id="edge10" class="edge"><title>Node2&#45;&gt;Node6</title>
<path fill="none" stroke="midnightblue" d="M2842.85,-67.7022C2526.67,-62.7999 1430.41,-44.5383 1081,-22 1078.05,-21.8094 1075.05,-21.5997 1072.02,-21.374"/>
<polygon fill="midnightblue" stroke="midnightblue" points="2842.82,-71.2021 2852.87,-67.8572 2842.93,-64.2029 2842.82,-71.2021"/>
</g>
<!-- Node7 -->
<g id="node13" class="node"><title>Node7</title>
<a xlink:href="_camera_behavior_free_8cpp.html" target="_top" xlink:title="source/main/gfx/camera/CameraBehaviorFree.cpp">
<polygon fill="white" stroke="black" points="1090,-0.5 1090,-21.5 1326,-21.5 1326,-0.5 1090,-0.5"/>
<text text-anchor="middle" x="1208" y="-8.5" font-family="Helvetica,sans-Serif" font-size="10.00">source/main/gfx/camera/CameraBehaviorFree.cpp</text>
</a>
</g>
<!-- Node2&#45;&gt;Node7 -->
<g id="edge12" class="edge"><title>Node2&#45;&gt;Node7</title>
<path fill="none" stroke="midnightblue" d="M2842.57,-68.18C2602.96,-65.5331 1909.93,-55.3474 1335,-22 1332.13,-21.8334 1329.22,-21.6554 1326.29,-21.4675"/>
<polygon fill="midnightblue" stroke="midnightblue" points="2842.58,-71.6801 2852.62,-68.2894 2842.65,-64.6806 2842.58,-71.6801"/>
</g>
<!-- Node8 -->
<g id="node15" class="node"><title>Node8</title>
<a xlink:href="_camera_behavior_isometric_8cpp.html" target="_top" xlink:title="source/main/gfx/camera/CameraBehaviorIsometric.cpp">
<polygon fill="white" stroke="black" points="1343.5,-0.5 1343.5,-21.5 1600.5,-21.5 1600.5,-0.5 1343.5,-0.5"/>
<text text-anchor="middle" x="1472" y="-8.5" font-family="Helvetica,sans-Serif" font-size="10.00">source/main/gfx/camera/CameraBehaviorIsometric.cpp</text>
</a>
</g>
<!-- Node2&#45;&gt;Node8 -->
<g id="edge14" class="edge"><title>Node2&#45;&gt;Node8</title>
<path fill="none" stroke="midnightblue" d="M2842.61,-67.2551C2631.71,-62.7056 2073.84,-48.9235 1609,-22 1606.26,-21.8413 1603.49,-21.6747 1600.7,-21.5012"/>
<polygon fill="midnightblue" stroke="midnightblue" points="2842.61,-70.7559 2852.69,-67.4712 2842.76,-63.7576 2842.61,-70.7559"/>
</g>
<!-- Node9 -->
<g id="node17" class="node"><title>Node9</title>
<a xlink:href="_camera_manager_8cpp.html" target="_top" xlink:title="source/main/gfx/camera/CameraManager.cpp">
<polygon fill="white" stroke="black" points="1617.5,-0.5 1617.5,-21.5 1832.5,-21.5 1832.5,-0.5 1617.5,-0.5"/>
<text text-anchor="middle" x="1725" y="-8.5" font-family="Helvetica,sans-Serif" font-size="10.00">source/main/gfx/camera/CameraManager.cpp</text>
</a>
</g>
<!-- Node2&#45;&gt;Node9 -->
<g id="edge16" class="edge"><title>Node2&#45;&gt;Node9</title>
<path fill="none" stroke="midnightblue" d="M2842.58,-66.7753C2658.34,-61.7005 2213.32,-47.6777 1841,-22 1838.28,-21.8121 1835.52,-21.6134 1832.73,-21.4056"/>
<polygon fill="midnightblue" stroke="midnightblue" points="2842.66,-70.2786 2852.75,-67.0536 2842.85,-63.2812 2842.66,-70.2786"/>
</g>
<!-- Node10 -->
<g id="node19" class="node"><title>Node10</title>
<a xlink:href="_video_camera_8cpp.html" target="_top" xlink:title="source/main/gfx/VideoCamera.cpp">
<polygon fill="white" stroke="black" points="1849.5,-0.5 1849.5,-21.5 2016.5,-21.5 2016.5,-0.5 1849.5,-0.5"/>
<text text-anchor="middle" x="1933" y="-8.5" font-family="Helvetica,sans-Serif" font-size="10.00">source/main/gfx/VideoCamera.cpp</text>
</a>
</g>
<!-- Node2&#45;&gt;Node10 -->
<g id="edge18" class="edge"><title>Node2&#45;&gt;Node10</title>
<path fill="none" stroke="midnightblue" d="M2842.67,-66.4392C2681.66,-61.2353 2324.73,-47.6815 2025,-22 2022.28,-21.7666 2019.51,-21.5156 2016.71,-21.2505"/>
<polygon fill="midnightblue" stroke="midnightblue" points="2842.88,-69.9477 2852.99,-66.7699 2843.1,-62.9513 2842.88,-69.9477"/>
</g>
<!-- Node11 -->
<g id="node21" class="node"><title>Node11</title>
<a xlink:href="_g_u_i_manager_8cpp.html" target="_top" xlink:title="source/main/gui/GUIManager.cpp">
<polygon fill="white" stroke="black" points="2033.5,-0.5 2033.5,-21.5 2196.5,-21.5 2196.5,-0.5 2033.5,-0.5"/>
<text text-anchor="middle" x="2115" y="-8.5" font-family="Helvetica,sans-Serif" font-size="10.00">source/main/gui/GUIManager.cpp</text>
</a>
</g>
<!-- Node2&#45;&gt;Node11 -->
<g id="edge20" class="edge"><title>Node2&#45;&gt;Node11</title>
<path fill="none" stroke="midnightblue" d="M2842.45,-64.9734C2706.53,-58.291 2434.79,-43.4837 2205,-22 2202.34,-21.7509 2199.63,-21.4864 2196.9,-21.2096"/>
<polygon fill="midnightblue" stroke="midnightblue" points="2842.64,-68.4866 2852.8,-65.4792 2842.98,-61.4949 2842.64,-68.4866"/>
</g>
<!-- Node12 -->
<g id="node23" class="node"><title>Node12</title>
<a xlink:href="_g_u_i___game_about_8cpp.html" target="_top" xlink:title="source/main/gui/panels/GUI_GameAbout.cpp">
<polygon fill="white" stroke="black" points="2214,-0.5 2214,-21.5 2428,-21.5 2428,-0.5 2214,-0.5"/>
<text text-anchor="middle" x="2321" y="-8.5" font-family="Helvetica,sans-Serif" font-size="10.00">source/main/gui/panels/GUI_GameAbout.cpp</text>
</a>
</g>
<!-- Node2&#45;&gt;Node12 -->
<g id="edge22" class="edge"><title>Node2&#45;&gt;Node12</title>
<path fill="none" stroke="midnightblue" d="M2842.95,-60.7912C2733.99,-50.397 2546.26,-32.4883 2428.12,-21.2192"/>
<polygon fill="midnightblue" stroke="midnightblue" points="2842.63,-64.2767 2852.92,-61.7423 2843.3,-57.3084 2842.63,-64.2767"/>
</g>
<!-- Node13 -->
<g id="node25" class="node"><title>Node13</title>
<a xlink:href="_g_u_i___game_chat_box_8cpp.html" target="_top" xlink:title="source/main/gui/panels/GUI_GameChatBox.cpp">
<polygon fill="white" stroke="black" points="2445.5,-0.5 2445.5,-21.5 2672.5,-21.5 2672.5,-0.5 2445.5,-0.5"/>
<text text-anchor="middle" x="2559" y="-8.5" font-family="Helvetica,sans-Serif" font-size="10.00">source/main/gui/panels/GUI_GameChatBox.cpp</text>
</a>
</g>
<!-- Node2&#45;&gt;Node13 -->
<g id="edge24" class="edge"><title>Node2&#45;&gt;Node13</title>
<path fill="none" stroke="midnightblue" d="M2851.96,-56.9234C2785.26,-46.4675 2689.76,-31.4969 2626.13,-21.5231"/>
<polygon fill="midnightblue" stroke="midnightblue" points="2851.57,-60.4057 2862,-58.4966 2852.66,-53.4901 2851.57,-60.4057"/>
</g>
<!-- Node14 -->
<g id="node27" class="node"><title>Node14</title>
<a xlink:href="_g_u_i___game_main_menu_8cpp.html" target="_top" xlink:title="source/main/gui/panels/GUI_GameMainMenu.cpp">
<polygon fill="white" stroke="black" points="2689.5,-0.5 2689.5,-21.5 2922.5,-21.5 2922.5,-0.5 2689.5,-0.5"/>
<text text-anchor="middle" x="2806" y="-8.5" font-family="Helvetica,sans-Serif" font-size="10.00">source/main/gui/panels/GUI_GameMainMenu.cpp</text>
</a>
</g>
<!-- Node2&#45;&gt;Node14 -->
<g id="edge26" class="edge"><title>Node2&#45;&gt;Node14</title>
<path fill="none" stroke="midnightblue" d="M2897.63,-54.2064C2876.05,-44.031 2847.9,-30.7567 2828.52,-21.6212"/>
<polygon fill="midnightblue" stroke="midnightblue" points="2896.19,-57.3972 2906.73,-58.4966 2899.17,-51.0658 2896.19,-57.3972"/>
</g>
<!-- Node2&#45;&gt;Node15 -->
<g id="edge28" class="edge"><title>Node2&#45;&gt;Node15</title>
<path fill="none" stroke="midnightblue" d="M2842.95,-68.2744C2443.99,-64.7901 771.537,-48.83 249,-22 246.082,-21.8502 243.127,-21.6872 240.148,-21.5128"/>
<polygon fill="midnightblue" stroke="midnightblue" points="2842.95,-71.7745 2852.98,-68.3618 2843.02,-64.7747 2842.95,-71.7745"/>
</g>
<!-- Node16 -->
<g id="node31" class="node"><title>Node16</title>
<a xlink:href="_g_u_i___game_settings_8cpp.html" target="_top" xlink:title="source/main/gui/panels/GUI_GameSettings.cpp">
<polygon fill="white" stroke="black" points="2940,-0.5 2940,-21.5 3164,-21.5 3164,-0.5 2940,-0.5"/>
<text text-anchor="middle" x="3052" y="-8.5" font-family="Helvetica,sans-Serif" font-size="10.00">source/main/gui/panels/GUI_GameSettings.cpp</text>
</a>
</g>
<!-- Node2&#45;&gt;Node16 -->
<g id="edge30" class="edge"><title>Node2&#45;&gt;Node16</title>
<path fill="none" stroke="midnightblue" d="M2960.37,-54.2064C2981.95,-44.031 3010.1,-30.7567 3029.48,-21.6212"/>
<polygon fill="midnightblue" stroke="midnightblue" points="2958.83,-51.0658 2951.27,-58.4966 2961.81,-57.3972 2958.83,-51.0658"/>
</g>
<!-- Node17 -->
<g id="node33" class="node"><title>Node17</title>
<a xlink:href="_g_u_i___main_selector_8cpp.html" target="_top" xlink:title="source/main/gui/panels/GUI_MainSelector.cpp">
<polygon fill="white" stroke="black" points="3181.5,-0.5 3181.5,-21.5 3400.5,-21.5 3400.5,-0.5 3181.5,-0.5"/>
<text text-anchor="middle" x="3291" y="-8.5" font-family="Helvetica,sans-Serif" font-size="10.00">source/main/gui/panels/GUI_MainSelector.cpp</text>
</a>
</g>
<!-- Node2&#45;&gt;Node17 -->
<g id="edge32" class="edge"><title>Node2&#45;&gt;Node17</title>
<path fill="none" stroke="midnightblue" d="M3004.78,-56.8589C3070.02,-46.4061 3163.2,-31.4764 3225.32,-21.5231"/>
<polygon fill="midnightblue" stroke="midnightblue" points="3003.88,-53.4586 2994.56,-58.4966 3004.98,-60.3704 3003.88,-53.4586"/>
</g>
<!-- Node18 -->
<g id="node35" class="node"><title>Node18</title>
<a xlink:href="_g_u_i___message_box_8cpp.html" target="_top" xlink:title="source/main/gui/panels/GUI_MessageBox.cpp">
<polygon fill="white" stroke="black" points="3417.5,-0.5 3417.5,-21.5 3636.5,-21.5 3636.5,-0.5 3417.5,-0.5"/>
<text text-anchor="middle" x="3527" y="-8.5" font-family="Helvetica,sans-Serif" font-size="10.00">source/main/gui/panels/GUI_MessageBox.cpp</text>
</a>
</g>
<!-- Node2&#45;&gt;Node18 -->
<g id="edge34" class="edge"><title>Node2&#45;&gt;Node18</title>
<path fill="none" stroke="midnightblue" d="M3015.1,-60.6488C3121.56,-50.3239 3302.82,-32.7436 3418.63,-21.511"/>
<polygon fill="midnightblue" stroke="midnightblue" points="3014.66,-57.1757 3005.04,-61.6248 3015.33,-64.143 3014.66,-57.1757"/>
</g>
<!-- Node19 -->
<g id="node37" class="node"><title>Node19</title>
<a xlink:href="_g_u_i___multiplayer_selector_8cpp.html" target="_top" xlink:title="source/main/gui/panels/GUI_MultiplayerSelector.cpp">
<polygon fill="white" stroke="black" points="3653.5,-0.5 3653.5,-21.5 3898.5,-21.5 3898.5,-0.5 3653.5,-0.5"/>
<text text-anchor="middle" x="3776" y="-8.5" font-family="Helvetica,sans-Serif" font-size="10.00">source/main/gui/panels/GUI_MultiplayerSelector.cpp</text>
</a>
</g>
<!-- Node2&#45;&gt;Node19 -->
<g id="edge36" class="edge"><title>Node2&#45;&gt;Node19</title>
<path fill="none" stroke="midnightblue" d="M3015.31,-63.8439C3149.88,-55.6896 3417.84,-38.9916 3645,-22 3647.73,-21.7957 3650.49,-21.5864 3653.28,-21.373"/>
<polygon fill="midnightblue" stroke="midnightblue" points="3014.84,-60.366 3005.07,-64.4636 3015.26,-67.3532 3014.84,-60.366"/>
</g>
<!-- Node20 -->
<g id="node39" class="node"><title>Node20</title>
<a xlink:href="_g_u_i___sim_utils_8cpp.html" target="_top" xlink:title="source/main/gui/panels/GUI_SimUtils.cpp">
<polygon fill="white" stroke="black" points="3916,-0.5 3916,-21.5 4116,-21.5 4116,-0.5 3916,-0.5"/>
<text text-anchor="middle" x="4016" y="-8.5" font-family="Helvetica,sans-Serif" font-size="10.00">source/main/gui/panels/GUI_SimUtils.cpp</text>
</a>
</g>
<!-- Node2&#45;&gt;Node20 -->
<g id="edge38" class="edge"><title>Node2&#45;&gt;Node20</title>
<path fill="none" stroke="midnightblue" d="M3015.34,-66.3756C3185.91,-60.8537 3578.07,-46.4839 3907,-22 3909.94,-21.7812 3912.92,-21.5485 3915.93,-21.3045"/>
<polygon fill="midnightblue" stroke="midnightblue" points="3015.05,-62.883 3005.17,-66.7029 3015.28,-69.8794 3015.05,-62.883"/>
</g>
<!-- Node21 -->
<g id="node41" class="node"><title>Node21</title>
<a xlink:href="_g_u_i___vehicle_description_8cpp.html" target="_top" xlink:title="source/main/gui/panels/GUI_VehicleDescription.cpp">
<polygon fill="white" stroke="black" points="4134,-0.5 4134,-21.5 4378,-21.5 4378,-0.5 4134,-0.5"/>
<text text-anchor="middle" x="4256" y="-8.5" font-family="Helvetica,sans-Serif" font-size="10.00">source/main/gui/panels/GUI_VehicleDescription.cpp</text>
</a>
</g>
<!-- Node2&#45;&gt;Node21 -->
<g id="edge40" class="edge"><title>Node2&#45;&gt;Node21</title>
<path fill="none" stroke="midnightblue" d="M3015.61,-66.9179C3212.7,-61.8903 3709.84,-47.5752 4125,-22 4127.96,-21.8176 4130.96,-21.6253 4133.98,-21.4247"/>
<polygon fill="midnightblue" stroke="midnightblue" points="3015.23,-63.4264 3005.32,-67.1789 3015.4,-70.4241 3015.23,-63.4264"/>
</g>
<!-- Node22 -->
<g id="node43" class="node"><title>Node22</title>
<a xlink:href="_main_thread_8cpp.html" target="_top" xlink:title="source/main/main_sim/MainThread.cpp">
<polygon fill="white" stroke="black" points="4396,-0.5 4396,-21.5 4584,-21.5 4584,-0.5 4396,-0.5"/>
<text text-anchor="middle" x="4490" y="-8.5" font-family="Helvetica,sans-Serif" font-size="10.00">source/main/main_sim/MainThread.cpp</text>
</a>
</g>
<!-- Node2&#45;&gt;Node22 -->
<g id="edge42" class="edge"><title>Node2&#45;&gt;Node22</title>
<path fill="none" stroke="midnightblue" d="M3015.51,-68.4484C3241.35,-66.5234 3867.27,-58.0798 4387,-22 4389.87,-21.8007 4392.78,-21.5834 4395.73,-21.3511"/>
<polygon fill="midnightblue" stroke="midnightblue" points="3015.35,-64.9495 3005.38,-68.5326 3015.41,-71.9492 3015.35,-64.9495"/>
</g>
<!-- Node23 -->
<g id="node45" class="node"><title>Node23</title>
<a xlink:href="_beam_8cpp.html" target="_top" xlink:title="source/main/physics/Beam.cpp">
<polygon fill="white" stroke="black" points="4602,-0.5 4602,-21.5 4756,-21.5 4756,-0.5 4602,-0.5"/>
<text text-anchor="middle" x="4679" y="-8.5" font-family="Helvetica,sans-Serif" font-size="10.00">source/main/physics/Beam.cpp</text>
</a>
</g>
<!-- Node2&#45;&gt;Node23 -->
<g id="edge44" class="edge"><title>Node2&#45;&gt;Node23</title>
<path fill="none" stroke="midnightblue" d="M3015.64,-67.6874C3311.67,-63.0243 4281.91,-46.2293 4593,-22 4595.85,-21.7779 4598.75,-21.5282 4601.68,-21.2562"/>
<polygon fill="midnightblue" stroke="midnightblue" points="3015.34,-64.1916 3005.39,-67.8481 3015.45,-71.1907 3015.34,-64.1916"/>
</g>
<!-- Node24 -->
<g id="node47" class="node"><title>Node24</title>
<a xlink:href="_beam_factory_8cpp.html" target="_top" xlink:title="source/main/physics/BeamFactory.cpp">
<polygon fill="white" stroke="black" points="4773.5,-0.5 4773.5,-21.5 4960.5,-21.5 4960.5,-0.5 4773.5,-0.5"/>
<text text-anchor="middle" x="4867" y="-8.5" font-family="Helvetica,sans-Serif" font-size="10.00">source/main/physics/BeamFactory.cpp</text>
</a>
</g>
<!-- Node2&#45;&gt;Node24 -->
<g id="edge46" class="edge"><title>Node2&#45;&gt;Node24</title>
<path fill="none" stroke="midnightblue" d="M3015.59,-67.725C3331.04,-62.9337 4418.28,-45.0948 4765,-22 4767.75,-21.8165 4770.55,-21.6149 4773.37,-21.3981"/>
<polygon fill="midnightblue" stroke="midnightblue" points="3015.09,-64.2321 3005.15,-67.8832 3015.2,-71.2313 3015.09,-64.2321"/>
</g>
<!-- Node25 -->
<g id="node49" class="node"><title>Node25</title>
<a xlink:href="_rig_spawner_8cpp.html" target="_top" xlink:title="Vehicle spawning logic.">
<polygon fill="white" stroke="black" points="4978,-0.5 4978,-21.5 5216,-21.5 5216,-0.5 4978,-0.5"/>
<text text-anchor="middle" x="5097" y="-8.5" font-family="Helvetica,sans-Serif" font-size="10.00">source/main/physics/input_output/RigSpawner.cpp</text>
</a>
</g>
<!-- Node2&#45;&gt;Node25 -->
<g id="edge48" class="edge"><title>Node2&#45;&gt;Node25</title>
<path fill="none" stroke="midnightblue" d="M3015.44,-67.7319C3352.6,-62.6737 4579.83,-43.1843 4969,-22 4971.9,-21.8424 4974.83,-21.6724 4977.78,-21.4918"/>
<polygon fill="midnightblue" stroke="midnightblue" points="3015.2,-64.2351 3005.25,-67.8845 3015.3,-71.2343 3015.2,-64.2351"/>
</g>
<!-- Node26 -->
<g id="node51" class="node"><title>Node26</title>
<a xlink:href="_rig_editor___input_handler_8cpp.html" target="_top" xlink:title="source/main/rig_editor/RigEditor_InputHandler.cpp">
<polygon fill="white" stroke="black" points="5234,-0.5 5234,-21.5 5470,-21.5 5470,-0.5 5234,-0.5"/>
<text text-anchor="middle" x="5352" y="-8.5" font-family="Helvetica,sans-Serif" font-size="10.00">source/main/rig_editor/RigEditor_InputHandler.cpp</text>
</a>
</g>
<!-- Node2&#45;&gt;Node26 -->
<g id="edge50" class="edge"><title>Node2&#45;&gt;Node26</title>
<path fill="none" stroke="midnightblue" d="M3015.18,-67.9978C3377.98,-63.6615 4782.61,-45.661 5225,-22 5227.87,-21.8463 5230.78,-21.6799 5233.71,-21.5024"/>
<polygon fill="midnightblue" stroke="midnightblue" points="3014.97,-64.5001 3005.01,-68.1191 3015.05,-71.4996 3014.97,-64.5001"/>
</g>
<!-- Node27 -->
<g id="node53" class="node"><title>Node27</title>
<a xlink:href="_rig_editor___main_8cpp.html" target="_top" xlink:title="source/main/rig_editor/RigEditor_Main.cpp">
<polygon fill="white" stroke="black" points="5487.5,-0.5 5487.5,-21.5 5688.5,-21.5 5688.5,-0.5 5487.5,-0.5"/>
<text text-anchor="middle" x="5588" y="-8.5" font-family="Helvetica,sans-Serif" font-size="10.00">source/main/rig_editor/RigEditor_Main.cpp</text>
</a>
</g>
<!-- Node2&#45;&gt;Node27 -->
<g id="edge52" class="edge"><title>Node2&#45;&gt;Node27</title>
<path fill="none" stroke="midnightblue" d="M3015.29,-68.3634C3402.7,-65.3589 4983.93,-51.493 5479,-22 5481.75,-21.836 5484.54,-21.6553 5487.36,-21.4603"/>
<polygon fill="midnightblue" stroke="midnightblue" points="3015.24,-64.8636 3005.27,-68.4408 3015.3,-71.8634 3015.24,-64.8636"/>
</g>
<!-- Node28 -->
<g id="node55" class="node"><title>Node28</title>
<a xlink:href="_game_script_8cpp.html" target="_top" xlink:title="source/main/scripting/GameScript.cpp">
<polygon fill="white" stroke="black" points="5705.5,-0.5 5705.5,-21.5 5888.5,-21.5 5888.5,-0.5 5705.5,-0.5"/>
<text text-anchor="middle" x="5797" y="-8.5" font-family="Helvetica,sans-Serif" font-size="10.00">source/main/scripting/GameScript.cpp</text>
</a>
</g>
<!-- Node2&#45;&gt;Node28 -->
<g id="edge54" class="edge"><title>Node2&#45;&gt;Node28</title>
<path fill="none" stroke="midnightblue" d="M3015.52,-68.6115C3423.36,-66.6144 5156.64,-56.2336 5697,-22 5699.79,-21.8233 5702.62,-21.6257 5705.48,-21.4106"/>
<polygon fill="midnightblue" stroke="midnightblue" points="3015.25,-65.1126 3005.27,-68.6613 3015.29,-72.1126 3015.25,-65.1126"/>
</g>
<!-- Node29 -->
<g id="node57" class="node"><title>Node29</title>
<a xlink:href="_input_engine_8cpp.html" target="_top" xlink:title="source/main/utils/InputEngine.cpp">
<polygon fill="white" stroke="black" points="5906,-0.5 5906,-21.5 6070,-21.5 6070,-0.5 5906,-0.5"/>
<text text-anchor="middle" x="5988" y="-8.5" font-family="Helvetica,sans-Serif" font-size="10.00">source/main/utils/InputEngine.cpp</text>
</a>
</g>
<!-- Node2&#45;&gt;Node29 -->
<g id="edge56" class="edge"><title>Node2&#45;&gt;Node29</title>
<path fill="none" stroke="midnightblue" d="M3015.11,-68.8525C3439.87,-67.9388 5314.8,-61.689 5897,-22 5899.86,-21.8052 5902.76,-21.5834 5905.7,-21.3393"/>
<polygon fill="midnightblue" stroke="midnightblue" points="3015.04,-65.3525 3005.05,-68.8737 3015.05,-72.3525 3015.04,-65.3525"/>
</g>
</g>
</svg>
        <g id="navigator" transform="translate(0 0)" fill="#404254">
                <rect fill="#f2f5e9" fill-opacity="0.5" stroke="#606060" stroke-width=".5" x="0" y="0" width="60" height="60"/>
                <use id="zoomplus" xlink:href="#zoomPlus" x="17" y="9" onmousedown="handleZoom(evt,'in')"/>
                <use id="zoomminus" xlink:href="#zoomMin" x="42" y="9" onmousedown="handleZoom(evt,'out')"/>
                <use id="reset" xlink:href="#resetDef" x="30" y="36" onmousedown="handleReset()"/>
                <g id="arrowUp" xlink:href="#dirArrow" transform="translate(30 24)" onmousedown="handlePan(0,-1)">
                  <use xlink:href="#rim" fill="#404040">
                        <set attributeName="fill" to="#808080" begin="arrowUp.mouseover" end="arrowUp.mouseout"/>
                  </use>
                  <path fill="none" stroke="white" stroke-width="1.5" d="M0,-3.0v7 M-2.5,-0.5L0,-3.0L2.5,-0.5"/>
                </g>
                <g id="arrowRight" xlink:href="#dirArrow" transform="rotate(90) translate(36 -43)" onmousedown="handlePan(1,0)">
                  <use xlink:href="#rim" fill="#404040">
                        <set attributeName="fill" to="#808080" begin="arrowRight.mouseover" end="arrowRight.mouseout"/>
                  </use>
                  <path fill="none" stroke="white" stroke-width="1.5" d="M0,-3.0v7 M-2.5,-0.5L0,-3.0L2.5,-0.5"/>
                </g>
                <g id="arrowDown" xlink:href="#dirArrow" transform="rotate(180) translate(-30 -48)" onmousedown="handlePan(0,1)">
                  <use xlink:href="#rim" fill="#404040">
                        <set attributeName="fill" to="#808080" begin="arrowDown.mouseover" end="arrowDown.mouseout"/>
                  </use>
                  <path fill="none" stroke="white" stroke-width="1.5" d="M0,-3.0v7 M-2.5,-0.5L0,-3.0L2.5,-0.5"/>
                </g>
                <g id="arrowLeft" xlink:href="#dirArrow" transform="rotate(270) translate(-36 17)" onmousedown="handlePan(-1,0)">
                  <use xlink:href="#rim" fill="#404040">
                        <set attributeName="fill" to="#808080" begin="arrowLeft.mouseover" end="arrowLeft.mouseout"/>
                  </use>
                  <path fill="none" stroke="white" stroke-width="1.5" d="M0,-3.0v7 M-2.5,-0.5L0,-3.0L2.5,-0.5"/>
                </g>
        </g>
</svg>
