<?xml version="1.0" encoding="UTF-8" standalone="no"?>
<!DOCTYPE svg PUBLIC "-//W3C//DTD SVG 1.1//EN"
 "http://www.w3.org/Graphics/SVG/1.1/DTD/svg11.dtd">
<!-- Generated by graphviz version 2.26.3 (20100126.1600)
 -->
<!-- Title: G Pages: 1 -->
<!--zoomable 204 -->
<svg id="main" version="1.1" xmlns="http://www.w3.org/2000/svg" xmlns:xlink="http://www.w3.org/1999/xlink" xml:space="preserve" onload="init(evt)">
        <defs>
                <circle id="rim" cx="0" cy="0" r="7"/>
                <circle id="rim2" cx="0" cy="0" r="3.5"/>
                <g id="zoomPlus">
                        <use xlink:href="#rim" fill="#404040">
                                <set attributeName="fill" to="#808080" begin="zoomplus.mouseover" end="zoomplus.mouseout"/>
                        </use>
                        <path d="M-4,0h8M0,-4v8" fill="none" stroke="white" stroke-width="1.5" pointer-events="none"/>
                </g>
                <g id="zoomMin">
                        <use xlink:href="#rim" fill="#404040">
                                <set attributeName="fill" to="#808080" begin="zoomminus.mouseover" end="zoomminus.mouseout"/>
                        </use>
                        <path d="M-4,0h8" fill="none" stroke="white" stroke-width="1.5" pointer-events="none"/>
                </g>
                <g id="dirArrow">
                        <path fill="none" stroke="white" stroke-width="1.5" d="M0,-3.0v7 M-2.5,-0.5L0,-3.0L2.5,-0.5"/>
                </g>
               <g id="resetDef">
                       <use xlink:href="#rim2" fill="#404040">
                               <set attributeName="fill" to="#808080" begin="reset.mouseover" end="reset.mouseout"/>
                       </use>
               </g>
        </defs>

<script type="text/javascript">
var viewWidth = 2176;
var viewHeight = 204;
var sectionId = 'dynsection-1';
</script>
<script xlink:href="svgpan.js"/>
<svg id="graph" class="graph">
<g id="viewport">
<title>G</title>
<polygon fill="white" stroke="white" points="-4,5 -4,-200 2173,-200 2173,5 -4,5"/>
<!-- Node1 -->
<g id="node1" class="node"><title>Node1</title>
<polygon fill="#bfbfbf" stroke="black" points="808.5,-174.5 808.5,-195.5 935.5,-195.5 935.5,-174.5 808.5,-174.5"/>
<text text-anchor="middle" x="872" y="-182.5" font-family="Helvetica,sans-Serif" font-size="10.00">source/main/gfx/IWater.h</text>
</g>
<!-- Node2 -->
<g id="node3" class="node"><title>Node2</title>
<a xlink:href="_ro_r_frame_listener_8cpp.html" target="_top" xlink:title="source/main/gameplay/RoRFrameListener.cpp">
<polygon fill="white" stroke="black" points="-0.5,-58.5 -0.5,-79.5 218.5,-79.5 218.5,-58.5 -0.5,-58.5"/>
<text text-anchor="middle" x="109" y="-66.5" font-family="Helvetica,sans-Serif" font-size="10.00">source/main/gameplay/RoRFrameListener.cpp</text>
</a>
</g>
<!-- Node1&#45;&gt;Node2 -->
<g id="edge2" class="edge"><title>Node1&#45;&gt;Node2</title>
<path fill="none" stroke="midnightblue" d="M798.083,-175.023C730.362,-165.782 627.36,-151.472 538,-138 407.648,-118.348 255.358,-93.3737 171.819,-79.5007"/>
<polygon fill="midnightblue" stroke="midnightblue" points="797.846,-178.523 808.227,-176.406 798.791,-171.587 797.846,-178.523"/>
</g>
<!-- Node3 -->
<g id="node5" class="node"><title>Node3</title>
<a xlink:href="_water_8h.html" target="_top" xlink:title="source/main/gfx/Water.h">
<polygon fill="white" stroke="black" points="992,-116.5 992,-137.5 1116,-137.5 1116,-116.5 992,-116.5"/>
<text text-anchor="middle" x="1054" y="-124.5" font-family="Helvetica,sans-Serif" font-size="10.00">source/main/gfx/Water.h</text>
</a>
</g>
<!-- Node1&#45;&gt;Node3 -->
<g id="edge4" class="edge"><title>Node1&#45;&gt;Node3</title>
<path fill="none" stroke="midnightblue" d="M914.636,-171.413C947.108,-161.065 991.16,-147.026 1020.98,-137.523"/>
<polygon fill="midnightblue" stroke="midnightblue" points="913.424,-168.125 904.959,-174.497 915.549,-174.795 913.424,-168.125"/>
</g>
<!-- Node7 -->
<g id="node14" class="node"><title>Node7</title>
<a xlink:href="_hydrax_water_8h.html" target="_top" xlink:title="source/main/gfx/HydraxWater.h">
<polygon fill="white" stroke="black" points="235.5,-58.5 235.5,-79.5 390.5,-79.5 390.5,-58.5 235.5,-58.5"/>
<text text-anchor="middle" x="313" y="-66.5" font-family="Helvetica,sans-Serif" font-size="10.00">source/main/gfx/HydraxWater.h</text>
</a>
</g>
<!-- Node1&#45;&gt;Node7 -->
<g id="edge34" class="edge"><title>Node1&#45;&gt;Node7</title>
<path fill="none" stroke="midnightblue" d="M810.87,-172.315C699.772,-149.26 466.737,-100.903 363.769,-79.5352"/>
<polygon fill="midnightblue" stroke="midnightblue" points="810.408,-175.793 820.911,-174.398 811.83,-168.939 810.408,-175.793"/>
</g>
<!-- Node16 -->
<g id="node34" class="node"><title>Node16</title>
<a xlink:href="_survey_map_texture_creator_8cpp.html" target="_top" xlink:title="source/main/terrain/map/SurveyMapTextureCreator.cpp">
<polygon fill="white" stroke="black" points="1134,-116.5 1134,-137.5 1392,-137.5 1392,-116.5 1134,-116.5"/>
<text text-anchor="middle" x="1263" y="-124.5" font-family="Helvetica,sans-Serif" font-size="10.00">source/main/terrain/map/SurveyMapTextureCreator.cpp</text>
</a>
</g>
<!-- Node1&#45;&gt;Node16 -->
<g id="edge36" class="edge"><title>Node1&#45;&gt;Node16</title>
<path fill="none" stroke="midnightblue" d="M945.853,-174.045C1016.52,-163.562 1122.37,-147.86 1192.05,-137.524"/>
<polygon fill="midnightblue" stroke="midnightblue" points="945.069,-170.623 935.691,-175.552 946.096,-177.547 945.069,-170.623"/>
</g>
<!-- Node3&#45;&gt;Node2 -->
<g id="edge10" class="edge"><title>Node3&#45;&gt;Node2</title>
<path fill="none" stroke="midnightblue" d="M981.946,-123.783C838.251,-117.175 505.863,-100.915 227,-80 224.23,-79.7923 221.424,-79.5758 218.594,-79.3522"/>
<polygon fill="midnightblue" stroke="midnightblue" points="981.813,-127.281 991.963,-124.243 982.134,-120.288 981.813,-127.281"/>
</g>
<!-- Node4 -->
<g id="node7" class="node"><title>Node4</title>
<a xlink:href="_auto_pilot_8cpp.html" target="_top" xlink:title="source/main/gameplay/AutoPilot.cpp">
<polygon fill="white" stroke="black" points="1268,-58.5 1268,-79.5 1444,-79.5 1444,-58.5 1268,-58.5"/>
<text text-anchor="middle" x="1356" y="-66.5" font-family="Helvetica,sans-Serif" font-size="10.00">source/main/gameplay/AutoPilot.cpp</text>
</a>
</g>
<!-- Node3&#45;&gt;Node4 -->
<g id="edge6" class="edge"><title>Node3&#45;&gt;Node4</title>
<path fill="none" stroke="midnightblue" d="M1118.57,-114.6C1172.92,-104.161 1249.81,-89.3945 1301.21,-79.5231"/>
<polygon fill="midnightblue" stroke="midnightblue" points="1117.85,-111.173 1108.69,-116.497 1119.17,-118.048 1117.85,-111.173"/>
</g>
<!-- Node5 -->
<g id="node9" class="node"><title>Node5</title>
<a xlink:href="_character_8cpp.html" target="_top" xlink:title="source/main/gameplay/Character.cpp">
<polygon fill="white" stroke="black" points="1461.5,-58.5 1461.5,-79.5 1640.5,-79.5 1640.5,-58.5 1461.5,-58.5"/>
<text text-anchor="middle" x="1551" y="-66.5" font-family="Helvetica,sans-Serif" font-size="10.00">source/main/gameplay/Character.cpp</text>
</a>
</g>
<!-- Node3&#45;&gt;Node5 -->
<g id="edge8" class="edge"><title>Node3&#45;&gt;Node5</title>
<path fill="none" stroke="midnightblue" d="M1126.52,-115.839C1272.1,-96.7344 1310.52,-95.8158 1453,-80 1455.72,-79.6978 1458.49,-79.3904 1461.28,-79.0796"/>
<polygon fill="midnightblue" stroke="midnightblue" points="1125.77,-112.408 1116.32,-117.185 1126.69,-119.348 1125.77,-112.408"/>
</g>
<!-- Node6 -->
<g id="node12" class="node"><title>Node6</title>
<a xlink:href="_dust_pool_8cpp.html" target="_top" xlink:title="source/main/gfx/DustPool.cpp">
<polygon fill="white" stroke="black" points="1657.5,-58.5 1657.5,-79.5 1806.5,-79.5 1806.5,-58.5 1657.5,-58.5"/>
<text text-anchor="middle" x="1732" y="-66.5" font-family="Helvetica,sans-Serif" font-size="10.00">source/main/gfx/DustPool.cpp</text>
</a>
</g>
<!-- Node3&#45;&gt;Node6 -->
<g id="edge12" class="edge"><title>Node3&#45;&gt;Node6</title>
<path fill="none" stroke="midnightblue" d="M1126.42,-115.921C1358.72,-90.4742 1420.02,-103.016 1649,-80 1651.75,-79.7238 1654.55,-79.428 1657.37,-79.117"/>
<polygon fill="midnightblue" stroke="midnightblue" points="1125.85,-112.462 1116.3,-117.041 1126.62,-119.419 1125.85,-112.462"/>
</g>
<!-- Node3&#45;&gt;Node7 -->
<g id="edge14" class="edge"><title>Node3&#45;&gt;Node7</title>
<path fill="none" stroke="midnightblue" d="M981.342,-123.109C860.371,-116.335 610.094,-101.057 399,-80 396.304,-79.7311 393.562,-79.4456 390.794,-79.1472"/>
<polygon fill="midnightblue" stroke="midnightblue" points="981.407,-126.618 991.586,-123.68 981.796,-119.629 981.407,-126.618"/>
</g>
<!-- Node9 -->
<g id="node18" class="node"><title>Node9</title>
<a xlink:href="_terrain_manager_8cpp.html" target="_top" xlink:title="source/main/terrain/TerrainManager.cpp">
<polygon fill="white" stroke="black" points="1076.5,-0.5 1076.5,-21.5 1265.5,-21.5 1265.5,-0.5 1076.5,-0.5"/>
<text text-anchor="middle" x="1171" y="-8.5" font-family="Helvetica,sans-Serif" font-size="10.00">source/main/terrain/TerrainManager.cpp</text>
</a>
</g>
<!-- Node3&#45;&gt;Node9 -->
<g id="edge32" class="edge"><title>Node3&#45;&gt;Node9</title>
<path fill="none" stroke="midnightblue" d="M1126.29,-116.307C1219.33,-111.62 1789.79,-106.563 1815,-80 1821.73,-72.9082 1821.66,-65.1611 1815,-58 1796.6,-38.2055 1440.37,-21.559 1265.8,-14.5532"/>
<polygon fill="midnightblue" stroke="midnightblue" points="1126.03,-112.816 1116.29,-116.983 1126.51,-119.8 1126.03,-112.816"/>
</g>
<!-- Node10 -->
<g id="node20" class="node"><title>Node10</title>
<a xlink:href="_water_8cpp.html" target="_top" xlink:title="source/main/gfx/Water.cpp">
<polygon fill="white" stroke="black" points="1862,-58.5 1862,-79.5 1996,-79.5 1996,-58.5 1862,-58.5"/>
<text text-anchor="middle" x="1929" y="-66.5" font-family="Helvetica,sans-Serif" font-size="10.00">source/main/gfx/Water.cpp</text>
</a>
</g>
<!-- Node3&#45;&gt;Node10 -->
<g id="edge20" class="edge"><title>Node3&#45;&gt;Node10</title>
<path fill="none" stroke="midnightblue" d="M1126.33,-115.958C1446.79,-83.8613 1530.92,-109.37 1848,-80 1852.52,-79.5811 1857.18,-79.0951 1861.87,-78.5653"/>
<polygon fill="midnightblue" stroke="midnightblue" points="1125.89,-112.485 1116.29,-116.974 1126.59,-119.449 1125.89,-112.485"/>
</g>
<!-- Node11 -->
<g id="node22" class="node"><title>Node11</title>
<a xlink:href="_beam_8cpp.html" target="_top" xlink:title="source/main/physics/Beam.cpp">
<polygon fill="white" stroke="black" points="2014,-58.5 2014,-79.5 2168,-79.5 2168,-58.5 2014,-58.5"/>
<text text-anchor="middle" x="2091" y="-66.5" font-family="Helvetica,sans-Serif" font-size="10.00">source/main/physics/Beam.cpp</text>
</a>
</g>
<!-- Node3&#45;&gt;Node11 -->
<g id="edge22" class="edge"><title>Node3&#45;&gt;Node11</title>
<path fill="none" stroke="midnightblue" d="M1126.43,-115.96C1516.32,-78.5656 1618.28,-112.581 2005,-80 2007.85,-79.7599 2010.75,-79.4949 2013.68,-79.2099"/>
<polygon fill="midnightblue" stroke="midnightblue" points="1125.9,-112.495 1116.29,-116.943 1126.58,-119.462 1125.9,-112.495"/>
</g>
<!-- Node12 -->
<g id="node24" class="node"><title>Node12</title>
<a xlink:href="_beam_forces_euler_8cpp.html" target="_top" xlink:title="source/main/physics/BeamForcesEuler.cpp">
<polygon fill="white" stroke="black" points="408,-58.5 408,-79.5 614,-79.5 614,-58.5 408,-58.5"/>
<text text-anchor="middle" x="511" y="-66.5" font-family="Helvetica,sans-Serif" font-size="10.00">source/main/physics/BeamForcesEuler.cpp</text>
</a>
</g>
<!-- Node3&#45;&gt;Node12 -->
<g id="edge24" class="edge"><title>Node3&#45;&gt;Node12</title>
<path fill="none" stroke="midnightblue" d="M981.823,-119.291C886.215,-109.078 717.172,-91.0221 609.781,-79.5512"/>
<polygon fill="midnightblue" stroke="midnightblue" points="981.66,-122.793 991.976,-120.375 982.404,-115.833 981.66,-122.793"/>
</g>
<!-- Node13 -->
<g id="node26" class="node"><title>Node13</title>
<a xlink:href="_buoyance_8cpp.html" target="_top" xlink:title="source/main/physics/water/Buoyance.cpp">
<polygon fill="white" stroke="black" points="631.5,-58.5 631.5,-79.5 830.5,-79.5 830.5,-58.5 631.5,-58.5"/>
<text text-anchor="middle" x="731" y="-66.5" font-family="Helvetica,sans-Serif" font-size="10.00">source/main/physics/water/Buoyance.cpp</text>
</a>
</g>
<!-- Node3&#45;&gt;Node13 -->
<g id="edge26" class="edge"><title>Node3&#45;&gt;Node13</title>
<path fill="none" stroke="midnightblue" d="M985.306,-114.665C927.15,-104.222 844.69,-89.415 789.603,-79.5231"/>
<polygon fill="midnightblue" stroke="midnightblue" points="985.046,-118.174 995.507,-116.497 986.283,-111.284 985.046,-118.174"/>
</g>
<!-- Node14 -->
<g id="node28" class="node"><title>Node14</title>
<a xlink:href="_screw_prop_8cpp.html" target="_top" xlink:title="source/main/physics/water/ScrewProp.cpp">
<polygon fill="white" stroke="black" points="847.5,-58.5 847.5,-79.5 1050.5,-79.5 1050.5,-58.5 847.5,-58.5"/>
<text text-anchor="middle" x="949" y="-66.5" font-family="Helvetica,sans-Serif" font-size="10.00">source/main/physics/water/ScrewProp.cpp</text>
</a>
</g>
<!-- Node3&#45;&gt;Node14 -->
<g id="edge28" class="edge"><title>Node3&#45;&gt;Node14</title>
<path fill="none" stroke="midnightblue" d="M1025.97,-111.517C1007.69,-101.419 984.308,-88.5032 968.137,-79.5707"/>
<polygon fill="midnightblue" stroke="midnightblue" points="1024.3,-114.59 1034.74,-116.362 1027.68,-108.463 1024.3,-114.59"/>
</g>
<!-- Node15 -->
<g id="node30" class="node"><title>Node15</title>
<a xlink:href="_game_script_8cpp.html" target="_top" xlink:title="source/main/scripting/GameScript.cpp">
<polygon fill="white" stroke="black" points="1067.5,-58.5 1067.5,-79.5 1250.5,-79.5 1250.5,-58.5 1067.5,-58.5"/>
<text text-anchor="middle" x="1159" y="-66.5" font-family="Helvetica,sans-Serif" font-size="10.00">source/main/scripting/GameScript.cpp</text>
</a>
</g>
<!-- Node3&#45;&gt;Node15 -->
<g id="edge30" class="edge"><title>Node3&#45;&gt;Node15</title>
<path fill="none" stroke="midnightblue" d="M1082.03,-111.517C1100.31,-101.419 1123.69,-88.5032 1139.86,-79.5707"/>
<polygon fill="midnightblue" stroke="midnightblue" points="1080.32,-108.463 1073.26,-116.362 1083.7,-114.59 1080.32,-108.463"/>
</g>
<!-- Node8 -->
<g id="node16" class="node"><title>Node8</title>
<a xlink:href="_hydrax_water_8cpp.html" target="_top" xlink:title="source/main/gfx/HydraxWater.cpp">
<polygon fill="white" stroke="black" points="230,-0.5 230,-21.5 396,-21.5 396,-0.5 230,-0.5"/>
<text text-anchor="middle" x="313" y="-8.5" font-family="Helvetica,sans-Serif" font-size="10.00">source/main/gfx/HydraxWater.cpp</text>
</a>
</g>
<!-- Node7&#45;&gt;Node8 -->
<g id="edge16" class="edge"><title>Node7&#45;&gt;Node8</title>
<path fill="none" stroke="midnightblue" d="M313,-48.1906C313,-39.1684 313,-28.9941 313,-21.5707"/>
<polygon fill="midnightblue" stroke="midnightblue" points="309.5,-48.3619 313,-58.3619 316.5,-48.3619 309.5,-48.3619"/>
</g>
<!-- Node7&#45;&gt;Node9 -->
<g id="edge18" class="edge"><title>Node7&#45;&gt;Node9</title>
<path fill="none" stroke="midnightblue" d="M400.769,-57.8792C650.206,-34.6577 932.564,-20.8615 1076.36,-14.735"/>
<polygon fill="midnightblue" stroke="midnightblue" points="400.419,-54.3966 390.79,-58.815 401.073,-61.366 400.419,-54.3966"/>
</g>
</g>
</svg>
        <g id="navigator" transform="translate(0 0)" fill="#404254">
                <rect fill="#f2f5e9" fill-opacity="0.5" stroke="#606060" stroke-width=".5" x="0" y="0" width="60" height="60"/>
                <use id="zoomplus" xlink:href="#zoomPlus" x="17" y="9" onmousedown="handleZoom(evt,'in')"/>
                <use id="zoomminus" xlink:href="#zoomMin" x="42" y="9" onmousedown="handleZoom(evt,'out')"/>
                <use id="reset" xlink:href="#resetDef" x="30" y="36" onmousedown="handleReset()"/>
                <g id="arrowUp" xlink:href="#dirArrow" transform="translate(30 24)" onmousedown="handlePan(0,-1)">
                  <use xlink:href="#rim" fill="#404040">
                        <set attributeName="fill" to="#808080" begin="arrowUp.mouseover" end="arrowUp.mouseout"/>
                  </use>
                  <path fill="none" stroke="white" stroke-width="1.5" d="M0,-3.0v7 M-2.5,-0.5L0,-3.0L2.5,-0.5"/>
                </g>
                <g id="arrowRight" xlink:href="#dirArrow" transform="rotate(90) translate(36 -43)" onmousedown="handlePan(1,0)">
                  <use xlink:href="#rim" fill="#404040">
                        <set attributeName="fill" to="#808080" begin="arrowRight.mouseover" end="arrowRight.mouseout"/>
                  </use>
                  <path fill="none" stroke="white" stroke-width="1.5" d="M0,-3.0v7 M-2.5,-0.5L0,-3.0L2.5,-0.5"/>
                </g>
                <g id="arrowDown" xlink:href="#dirArrow" transform="rotate(180) translate(-30 -48)" onmousedown="handlePan(0,1)">
                  <use xlink:href="#rim" fill="#404040">
                        <set attributeName="fill" to="#808080" begin="arrowDown.mouseover" end="arrowDown.mouseout"/>
                  </use>
                  <path fill="none" stroke="white" stroke-width="1.5" d="M0,-3.0v7 M-2.5,-0.5L0,-3.0L2.5,-0.5"/>
                </g>
                <g id="arrowLeft" xlink:href="#dirArrow" transform="rotate(270) translate(-36 17)" onmousedown="handlePan(-1,0)">
                  <use xlink:href="#rim" fill="#404040">
                        <set attributeName="fill" to="#808080" begin="arrowLeft.mouseover" end="arrowLeft.mouseout"/>
                  </use>
                  <path fill="none" stroke="white" stroke-width="1.5" d="M0,-3.0v7 M-2.5,-0.5L0,-3.0L2.5,-0.5"/>
                </g>
        </g>
</svg>
