<?xml version="1.0" encoding="UTF-8" standalone="no"?>
<!DOCTYPE svg PUBLIC "-//W3C//DTD SVG 1.1//EN"
 "http://www.w3.org/Graphics/SVG/1.1/DTD/svg11.dtd">
<!-- Generated by graphviz version 2.26.3 (20100126.1600)
 -->
<!-- Title: source/main/utils/ImprovedConfigFile.h Pages: 1 -->
<svg width="576pt" height="188pt"
 viewBox="0.00 0.00 576.00 188.00" xmlns="http://www.w3.org/2000/svg" xmlns:xlink="http://www.w3.org/1999/xlink">
<g id="graph1" class="graph" transform="scale(1 1) rotate(0) translate(4 184)">
<title>source/main/utils/ImprovedConfigFile.h</title>
<polygon fill="white" stroke="white" points="-4,5 -4,-184 573,-184 573,5 -4,5"/>
<!-- Node1 -->
<g id="node1" class="node"><title>Node1</title>
<polygon fill="#bfbfbf" stroke="black" points="182,-145 182,-179 316,-179 316,-145 182,-145"/>
<text text-anchor="start" x="190" y="-166" font-family="Helvetica,sans-Serif" font-size="10.00">source/main/utils/Improved</text>
<text text-anchor="middle" x="249" y="-153" font-family="Helvetica,sans-Serif" font-size="10.00">ConfigFile.h</text>
</g>
<!-- Node2 -->
<g id="node3" class="node"><title>Node2</title>
<a xlink:href="_configurator_8cpp.html" target="_top" xlink:title="source/configurator\l/Configurator.cpp">
<polygon fill="white" stroke="black" points="0,-73 0,-107 100,-107 100,-73 0,-73"/>
<text text-anchor="start" x="8" y="-94" font-family="Helvetica,sans-Serif" font-size="10.00">source/configurator</text>
<text text-anchor="middle" x="50" y="-81" font-family="Helvetica,sans-Serif" font-size="10.00">/Configurator.cpp</text>
</a>
</g>
<!-- Node1&#45;&gt;Node2 -->
<g id="edge2" class="edge"><title>Node1&#45;&gt;Node2</title>
<path fill="none" stroke="midnightblue" d="M192.316,-141.491C162.229,-130.606 125.688,-117.385 97.1661,-107.065"/>
<polygon fill="midnightblue" stroke="midnightblue" points="191.246,-144.826 201.84,-144.937 193.627,-138.243 191.246,-144.826"/>
</g>
<!-- Node3 -->
<g id="node5" class="node"><title>Node3</title>
<a xlink:href="_g_u_i___game_settings_8cpp.html" target="_top" xlink:title="source/main/gui/panels\l/GUI_GameSettings.cpp">
<polygon fill="white" stroke="black" points="118,-73 118,-107 242,-107 242,-73 118,-73"/>
<text text-anchor="start" x="126" y="-94" font-family="Helvetica,sans-Serif" font-size="10.00">source/main/gui/panels</text>
<text text-anchor="middle" x="180" y="-81" font-family="Helvetica,sans-Serif" font-size="10.00">/GUI_GameSettings.cpp</text>
</a>
</g>
<!-- Node1&#45;&gt;Node3 -->
<g id="edge4" class="edge"><title>Node1&#45;&gt;Node3</title>
<path fill="none" stroke="midnightblue" d="M225.684,-137.671C216.182,-127.755 205.41,-116.515 196.714,-107.441"/>
<polygon fill="midnightblue" stroke="midnightblue" points="223.202,-140.139 232.648,-144.937 228.256,-135.295 223.202,-140.139"/>
</g>
<!-- Node4 -->
<g id="node7" class="node"><title>Node4</title>
<a xlink:href="_cache_system_8cpp.html" target="_top" xlink:title="source/main/resources\l/CacheSystem.cpp">
<polygon fill="white" stroke="black" points="260,-73 260,-107 376,-107 376,-73 260,-73"/>
<text text-anchor="start" x="268" y="-94" font-family="Helvetica,sans-Serif" font-size="10.00">source/main/resources</text>
<text text-anchor="middle" x="318" y="-81" font-family="Helvetica,sans-Serif" font-size="10.00">/CacheSystem.cpp</text>
</a>
</g>
<!-- Node1&#45;&gt;Node4 -->
<g id="edge6" class="edge"><title>Node1&#45;&gt;Node4</title>
<path fill="none" stroke="midnightblue" d="M272.316,-137.671C281.818,-127.755 292.59,-116.515 301.286,-107.441"/>
<polygon fill="midnightblue" stroke="midnightblue" points="269.744,-135.295 265.352,-144.937 274.798,-140.139 269.744,-135.295"/>
</g>
<!-- Node5 -->
<g id="node9" class="node"><title>Node5</title>
<a xlink:href="_local_storage_8h.html" target="_top" xlink:title="source/main/scripting\l/LocalStorage.h">
<polygon fill="white" stroke="black" points="394,-73 394,-107 504,-107 504,-73 394,-73"/>
<text text-anchor="start" x="402" y="-94" font-family="Helvetica,sans-Serif" font-size="10.00">source/main/scripting</text>
<text text-anchor="middle" x="449" y="-81" font-family="Helvetica,sans-Serif" font-size="10.00">/LocalStorage.h</text>
</a>
</g>
<!-- Node1&#45;&gt;Node5 -->
<g id="edge8" class="edge"><title>Node1&#45;&gt;Node5</title>
<path fill="none" stroke="midnightblue" d="M305.968,-141.491C336.207,-130.606 372.932,-117.385 401.597,-107.065"/>
<polygon fill="midnightblue" stroke="midnightblue" points="304.621,-138.257 296.397,-144.937 306.992,-144.843 304.621,-138.257"/>
</g>
<!-- Node6 -->
<g id="node11" class="node"><title>Node6</title>
<a xlink:href="_local_storage_8cpp.html" target="_top" xlink:title="source/main/scripting\l/LocalStorage.cpp">
<polygon fill="white" stroke="black" points="330,-1 330,-35 440,-35 440,-1 330,-1"/>
<text text-anchor="start" x="338" y="-22" font-family="Helvetica,sans-Serif" font-size="10.00">source/main/scripting</text>
<text text-anchor="middle" x="385" y="-9" font-family="Helvetica,sans-Serif" font-size="10.00">/LocalStorage.cpp</text>
</a>
</g>
<!-- Node5&#45;&gt;Node6 -->
<g id="edge10" class="edge"><title>Node5&#45;&gt;Node6</title>
<path fill="none" stroke="midnightblue" d="M427.114,-65.3785C418.364,-55.5349 408.49,-44.4262 400.503,-35.4407"/>
<polygon fill="midnightblue" stroke="midnightblue" points="424.573,-67.7882 433.833,-72.937 429.805,-63.1376 424.573,-67.7882"/>
</g>
<!-- Node7 -->
<g id="node13" class="node"><title>Node7</title>
<a xlink:href="_script_engine_8cpp.html" target="_top" xlink:title="source/main/scripting\l/ScriptEngine.cpp">
<polygon fill="white" stroke="black" points="458,-1 458,-35 568,-35 568,-1 458,-1"/>
<text text-anchor="start" x="466" y="-22" font-family="Helvetica,sans-Serif" font-size="10.00">source/main/scripting</text>
<text text-anchor="middle" x="513" y="-9" font-family="Helvetica,sans-Serif" font-size="10.00">/ScriptEngine.cpp</text>
</a>
</g>
<!-- Node5&#45;&gt;Node7 -->
<g id="edge12" class="edge"><title>Node5&#45;&gt;Node7</title>
<path fill="none" stroke="midnightblue" d="M470.886,-65.3785C479.636,-55.5349 489.51,-44.4262 497.497,-35.4407"/>
<polygon fill="midnightblue" stroke="midnightblue" points="468.195,-63.1376 464.167,-72.937 473.427,-67.7882 468.195,-63.1376"/>
</g>
</g>
</svg>
