<?xml version="1.0" encoding="UTF-8" standalone="no"?>
<!DOCTYPE svg PUBLIC "-//W3C//DTD SVG 1.1//EN"
 "http://www.w3.org/Graphics/SVG/1.1/DTD/svg11.dtd">
<!-- Generated by graphviz version 2.26.3 (20100126.1600)
 -->
<!-- Title: source/main/gfx/dof/Lens.h Pages: 1 -->
<svg width="250pt" height="116pt"
 viewBox="0.00 0.00 250.00 116.00" xmlns="http://www.w3.org/2000/svg" xmlns:xlink="http://www.w3.org/1999/xlink">
<g id="graph1" class="graph" transform="scale(1 1) rotate(0) translate(4 112)">
<title>source/main/gfx/dof/Lens.h</title>
<polygon fill="white" stroke="white" points="-4,5 -4,-112 247,-112 247,5 -4,5"/>
<!-- Node1 -->
<g id="node1" class="node"><title>Node1</title>
<polygon fill="#bfbfbf" stroke="black" points="74.5,-73 74.5,-107 177.5,-107 177.5,-73 74.5,-73"/>
<text text-anchor="start" x="82.5" y="-94" font-family="Helvetica,sans-Serif" font-size="10.00">source/main/gfx/dof</text>
<text text-anchor="middle" x="126" y="-81" font-family="Helvetica,sans-Serif" font-size="10.00">/Lens.h</text>
</g>
<!-- Node2 -->
<g id="node3" class="node"><title>Node2</title>
<a xlink:href="_depth_of_field_effect_8cpp.html" target="_top" xlink:title="source/main/gfx/dof\l/DepthOfFieldEffect.cpp">
<polygon fill="white" stroke="black" points="0,-1 0,-35 122,-35 122,-1 0,-1"/>
<text text-anchor="start" x="8" y="-22" font-family="Helvetica,sans-Serif" font-size="10.00">source/main/gfx/dof</text>
<text text-anchor="middle" x="61" y="-9" font-family="Helvetica,sans-Serif" font-size="10.00">/DepthOfFieldEffect.cpp</text>
</a>
</g>
<!-- Node1&#45;&gt;Node2 -->
<g id="edge2" class="edge"><title>Node1&#45;&gt;Node2</title>
<path fill="none" stroke="midnightblue" d="M103.772,-65.3785C94.8857,-55.5349 84.8569,-44.4262 76.7451,-35.4407"/>
<polygon fill="midnightblue" stroke="midnightblue" points="101.297,-67.8597 110.596,-72.937 106.493,-63.1689 101.297,-67.8597"/>
</g>
<!-- Node3 -->
<g id="node5" class="node"><title>Node3</title>
<a xlink:href="_lens_8cpp.html" target="_top" xlink:title="source/main/gfx/dof\l/Lens.cpp">
<polygon fill="white" stroke="black" points="139.5,-1 139.5,-35 242.5,-35 242.5,-1 139.5,-1"/>
<text text-anchor="start" x="147.5" y="-22" font-family="Helvetica,sans-Serif" font-size="10.00">source/main/gfx/dof</text>
<text text-anchor="middle" x="191" y="-9" font-family="Helvetica,sans-Serif" font-size="10.00">/Lens.cpp</text>
</a>
</g>
<!-- Node1&#45;&gt;Node3 -->
<g id="edge4" class="edge"><title>Node1&#45;&gt;Node3</title>
<path fill="none" stroke="midnightblue" d="M148.228,-65.3785C157.114,-55.5349 167.143,-44.4262 175.255,-35.4407"/>
<polygon fill="midnightblue" stroke="midnightblue" points="145.507,-63.1689 141.404,-72.937 150.703,-67.8597 145.507,-63.1689"/>
</g>
</g>
</svg>
