<?xml version="1.0" encoding="UTF-8" standalone="no"?>
<!DOCTYPE svg PUBLIC "-//W3C//DTD SVG 1.1//EN"
 "http://www.w3.org/Graphics/SVG/1.1/DTD/svg11.dtd">
<!-- Generated by graphviz version 2.26.3 (20100126.1600)
 -->
<!-- Title: G Pages: 1 -->
<svg width="165pt" height="262pt"
 viewBox="0.00 0.00 165.00 262.00" xmlns="http://www.w3.org/2000/svg" xmlns:xlink="http://www.w3.org/1999/xlink">
<g id="graph1" class="graph" transform="scale(1 1) rotate(0) translate(4 258)">
<title>G</title>
<polygon fill="white" stroke="white" points="-4,5 -4,-258 162,-258 162,5 -4,5"/>
<!-- Node1 -->
<g id="node1" class="node"><title>Node1</title>
<polygon fill="#bfbfbf" stroke="black" points="0,-232.5 0,-253.5 154,-253.5 154,-232.5 0,-232.5"/>
<text text-anchor="middle" x="77" y="-240.5" font-family="Helvetica,sans-Serif" font-size="10.00">source/main/gfx/hydrax/Mesh.h</text>
</g>
<!-- Node2 -->
<g id="node3" class="node"><title>Node2</title>
<a xlink:href="_prerequisites_8h.html" target="_top" xlink:title="Prerequisites.h">
<polygon fill="white" stroke="black" points="44,-58.5 44,-79.5 126,-79.5 126,-58.5 44,-58.5"/>
<text text-anchor="middle" x="85" y="-66.5" font-family="Helvetica,sans-Serif" font-size="10.00">Prerequisites.h</text>
</a>
</g>
<!-- Node1&#45;&gt;Node2 -->
<g id="edge2" class="edge"><title>Node1&#45;&gt;Node2</title>
<path fill="none" stroke="midnightblue" d="M71.7217,-232.273C61.565,-210.163 41.3768,-158.065 54,-116 57.0536,-105.824 63.1021,-95.8172 69.0521,-87.6697"/>
<polygon fill="midnightblue" stroke="midnightblue" points="71.9273,-89.6745 75.3234,-79.6387 66.4101,-85.3662 71.9273,-89.6745"/>
</g>
<!-- Node4 -->
<g id="node7" class="node"><title>Node4</title>
<a xlink:href="_help_8h.html" target="_top" xlink:title="Help.h">
<polygon fill="white" stroke="black" points="62.5,-116.5 62.5,-137.5 107.5,-137.5 107.5,-116.5 62.5,-116.5"/>
<text text-anchor="middle" x="85" y="-124.5" font-family="Helvetica,sans-Serif" font-size="10.00">Help.h</text>
</a>
</g>
<!-- Node1&#45;&gt;Node4 -->
<g id="edge6" class="edge"><title>Node1&#45;&gt;Node4</title>
<path fill="none" stroke="midnightblue" d="M77.7383,-232.295C79.0599,-213.131 81.8515,-172.654 83.5625,-147.843"/>
<polygon fill="midnightblue" stroke="midnightblue" points="87.0671,-147.896 84.2635,-137.679 80.0837,-147.415 87.0671,-147.896"/>
</g>
<!-- Node5 -->
<g id="node10" class="node"><title>Node5</title>
<a xlink:href="_image_8h.html" target="_top" xlink:title="Image.h">
<polygon fill="white" stroke="black" points="105,-174.5 105,-195.5 157,-195.5 157,-174.5 105,-174.5"/>
<text text-anchor="middle" x="131" y="-182.5" font-family="Helvetica,sans-Serif" font-size="10.00">Image.h</text>
</a>
</g>
<!-- Node1&#45;&gt;Node5 -->
<g id="edge10" class="edge"><title>Node1&#45;&gt;Node5</title>
<path fill="none" stroke="midnightblue" d="M86.9044,-232.362C94.5164,-224.186 105.208,-212.702 114.157,-203.091"/>
<polygon fill="midnightblue" stroke="midnightblue" points="116.906,-205.275 121.158,-195.571 111.783,-200.505 116.906,-205.275"/>
</g>
<!-- Node3 -->
<g id="node5" class="node"><title>Node3</title>
<polygon fill="white" stroke="#bfbfbf" points="62,-0.5 62,-21.5 108,-21.5 108,-0.5 62,-0.5"/>
<text text-anchor="middle" x="85" y="-8.5" font-family="Helvetica,sans-Serif" font-size="10.00">Ogre.h</text>
</g>
<!-- Node2&#45;&gt;Node3 -->
<g id="edge4" class="edge"><title>Node2&#45;&gt;Node3</title>
<path fill="none" stroke="midnightblue" d="M85,-58.3619C85,-50.9219 85,-40.7427 85,-31.7276"/>
<polygon fill="midnightblue" stroke="midnightblue" points="88.5001,-31.5706 85,-21.5707 81.5001,-31.5707 88.5001,-31.5706"/>
</g>
<!-- Node4&#45;&gt;Node2 -->
<g id="edge8" class="edge"><title>Node4&#45;&gt;Node2</title>
<path fill="none" stroke="midnightblue" d="M85,-116.362C85,-108.922 85,-98.7427 85,-89.7276"/>
<polygon fill="midnightblue" stroke="midnightblue" points="88.5001,-89.5706 85,-79.5707 81.5001,-89.5707 88.5001,-89.5706"/>
</g>
<!-- Node5&#45;&gt;Node2 -->
<g id="edge12" class="edge"><title>Node5&#45;&gt;Node2</title>
<path fill="none" stroke="midnightblue" d="M129.917,-174.348C128.233,-160.47 124.278,-135.659 116,-116 111.821,-106.076 105.499,-95.9907 99.6513,-87.7198"/>
<polygon fill="midnightblue" stroke="midnightblue" points="102.374,-85.5144 93.6164,-79.5508 96.7433,-89.6737 102.374,-85.5144"/>
</g>
<!-- Node5&#45;&gt;Node4 -->
<g id="edge14" class="edge"><title>Node5&#45;&gt;Node4</title>
<path fill="none" stroke="midnightblue" d="M122.563,-174.362C116.208,-166.35 107.334,-155.161 99.8069,-145.67"/>
<polygon fill="midnightblue" stroke="midnightblue" points="102.34,-143.231 93.3836,-137.571 96.8554,-147.581 102.34,-143.231"/>
</g>
</g>
</svg>
