<?xml version="1.0" encoding="UTF-8" standalone="no"?>
<!DOCTYPE svg PUBLIC "-//W3C//DTD SVG 1.1//EN"
 "http://www.w3.org/Graphics/SVG/1.1/DTD/svg11.dtd">
<!-- Generated by graphviz version 2.26.3 (20100126.1600)
 -->
<!-- Title: source/main/gfx/MovableText.h Pages: 1 -->
<svg width="1316pt" height="246pt"
 viewBox="0.00 0.00 1316.00 246.00" xmlns="http://www.w3.org/2000/svg" xmlns:xlink="http://www.w3.org/1999/xlink">
<g id="graph1" class="graph" transform="scale(1 1) rotate(0) translate(4 242)">
<title>source/main/gfx/MovableText.h</title>
<polygon fill="white" stroke="white" points="-4,5 -4,-242 1313,-242 1313,5 -4,5"/>
<!-- Node1 -->
<g id="node1" class="node"><title>Node1</title>
<polygon fill="#bfbfbf" stroke="black" points="611,-216.5 611,-237.5 765,-237.5 765,-216.5 611,-216.5"/>
<text text-anchor="middle" x="688" y="-224.5" font-family="Helvetica,sans-Serif" font-size="10.00">source/main/gfx/MovableText.h</text>
</g>
<!-- Node2 -->
<g id="node3" class="node"><title>Node2</title>
<a xlink:href="_character_8h.html" target="_top" xlink:title="source/main/gameplay\l/Character.h">
<polygon fill="white" stroke="black" points="397.5,-145 397.5,-179 512.5,-179 512.5,-145 397.5,-145"/>
<text text-anchor="start" x="405.5" y="-166" font-family="Helvetica,sans-Serif" font-size="10.00">source/main/gameplay</text>
<text text-anchor="middle" x="455" y="-153" font-family="Helvetica,sans-Serif" font-size="10.00">/Character.h</text>
</a>
</g>
<!-- Node1&#45;&gt;Node2 -->
<g id="edge2" class="edge"><title>Node1&#45;&gt;Node2</title>
<path fill="none" stroke="midnightblue" d="M640.284,-213.689C603.32,-203.377 551.963,-189.05 512.692,-178.094"/>
<polygon fill="midnightblue" stroke="midnightblue" points="639.733,-217.168 650.306,-216.484 641.614,-210.426 639.733,-217.168"/>
</g>
<!-- Node14 -->
<g id="node30" class="node"><title>Node14</title>
<a xlink:href="_movable_text_8cpp.html" target="_top" xlink:title="source/main/gfx/MovableText.cpp">
<polygon fill="white" stroke="black" points="530,-151.5 530,-172.5 694,-172.5 694,-151.5 530,-151.5"/>
<text text-anchor="middle" x="612" y="-159.5" font-family="Helvetica,sans-Serif" font-size="10.00">source/main/gfx/MovableText.cpp</text>
</a>
</g>
<!-- Node1&#45;&gt;Node14 -->
<g id="edge32" class="edge"><title>Node1&#45;&gt;Node14</title>
<path fill="none" stroke="midnightblue" d="M667.85,-209.767C654.008,-197.928 636.077,-182.592 624.316,-172.534"/>
<polygon fill="midnightblue" stroke="midnightblue" points="665.576,-212.427 675.45,-216.267 670.125,-207.107 665.576,-212.427"/>
</g>
<!-- Node15 -->
<g id="node32" class="node"><title>Node15</title>
<a xlink:href="_beam_8cpp.html" target="_top" xlink:title="source/main/physics\l/Beam.cpp">
<polygon fill="white" stroke="black" points="711.5,-145 711.5,-179 818.5,-179 818.5,-145 711.5,-145"/>
<text text-anchor="start" x="719.5" y="-166" font-family="Helvetica,sans-Serif" font-size="10.00">source/main/physics</text>
<text text-anchor="middle" x="765" y="-153" font-family="Helvetica,sans-Serif" font-size="10.00">/Beam.cpp</text>
</a>
</g>
<!-- Node1&#45;&gt;Node15 -->
<g id="edge34" class="edge"><title>Node1&#45;&gt;Node15</title>
<path fill="none" stroke="midnightblue" d="M708.677,-209.545C719.859,-200.106 733.614,-188.495 744.731,-179.11"/>
<polygon fill="midnightblue" stroke="midnightblue" points="706.099,-207.142 700.715,-216.267 710.614,-212.491 706.099,-207.142"/>
</g>
<!-- Node16 -->
<g id="node34" class="node"><title>Node16</title>
<a xlink:href="_collisions_8cpp.html" target="_top" xlink:title="source/main/physics\l/collision/Collisions.cpp">
<polygon fill="white" stroke="black" points="835.5,-145 835.5,-179 954.5,-179 954.5,-145 835.5,-145"/>
<text text-anchor="start" x="843.5" y="-166" font-family="Helvetica,sans-Serif" font-size="10.00">source/main/physics</text>
<text text-anchor="middle" x="895" y="-153" font-family="Helvetica,sans-Serif" font-size="10.00">/collision/Collisions.cpp</text>
</a>
</g>
<!-- Node1&#45;&gt;Node16 -->
<g id="edge36" class="edge"><title>Node1&#45;&gt;Node16</title>
<path fill="none" stroke="midnightblue" d="M731.606,-213.307C763.383,-203.329 806.644,-189.745 840.669,-179.06"/>
<polygon fill="midnightblue" stroke="midnightblue" points="730.211,-210.077 721.719,-216.412 732.308,-216.755 730.211,-210.077"/>
</g>
<!-- Node3 -->
<g id="node5" class="node"><title>Node3</title>
<a xlink:href="_character_8cpp.html" target="_top" xlink:title="source/main/gameplay\l/Character.cpp">
<polygon fill="white" stroke="black" points="-0.5,-73 -0.5,-107 114.5,-107 114.5,-73 -0.5,-73"/>
<text text-anchor="start" x="7.5" y="-94" font-family="Helvetica,sans-Serif" font-size="10.00">source/main/gameplay</text>
<text text-anchor="middle" x="57" y="-81" font-family="Helvetica,sans-Serif" font-size="10.00">/Character.cpp</text>
</a>
</g>
<!-- Node2&#45;&gt;Node3 -->
<g id="edge4" class="edge"><title>Node2&#45;&gt;Node3</title>
<path fill="none" stroke="midnightblue" d="M387.517,-152.561C321.181,-142.881 217.199,-126.637 128,-108 123.643,-107.09 119.151,-106.092 114.641,-105.047"/>
<polygon fill="midnightblue" stroke="midnightblue" points="387.03,-156.027 397.429,-153.999 388.035,-149.099 387.03,-156.027"/>
</g>
<!-- Node4 -->
<g id="node7" class="node"><title>Node4</title>
<a xlink:href="_character_factory_8h.html" target="_top" xlink:title="source/main/gameplay\l/CharacterFactory.h">
<polygon fill="white" stroke="black" points="207.5,-73 207.5,-107 322.5,-107 322.5,-73 207.5,-73"/>
<text text-anchor="start" x="215.5" y="-94" font-family="Helvetica,sans-Serif" font-size="10.00">source/main/gameplay</text>
<text text-anchor="middle" x="265" y="-81" font-family="Helvetica,sans-Serif" font-size="10.00">/CharacterFactory.h</text>
</a>
</g>
<!-- Node2&#45;&gt;Node4 -->
<g id="edge6" class="edge"><title>Node2&#45;&gt;Node4</title>
<path fill="none" stroke="midnightblue" d="M400.507,-141.35C371.852,-130.491 337.147,-117.34 310.033,-107.065"/>
<polygon fill="midnightblue" stroke="midnightblue" points="399.381,-144.666 409.973,-144.937 401.862,-138.12 399.381,-144.666"/>
</g>
<!-- Node5 -->
<g id="node9" class="node"><title>Node5</title>
<a xlink:href="_character_factory_8cpp.html" target="_top" xlink:title="source/main/gameplay\l/CharacterFactory.cpp">
<polygon fill="white" stroke="black" points="47.5,-1 47.5,-35 162.5,-35 162.5,-1 47.5,-1"/>
<text text-anchor="start" x="55.5" y="-22" font-family="Helvetica,sans-Serif" font-size="10.00">source/main/gameplay</text>
<text text-anchor="middle" x="105" y="-9" font-family="Helvetica,sans-Serif" font-size="10.00">/CharacterFactory.cpp</text>
</a>
</g>
<!-- Node2&#45;&gt;Node5 -->
<g id="edge14" class="edge"><title>Node2&#45;&gt;Node5</title>
<path fill="none" stroke="midnightblue" d="M387.161,-153.137C319.647,-143.46 221.418,-126.811 188,-108 156.327,-90.1711 129.934,-56.0041 115.899,-35.2806"/>
<polygon fill="midnightblue" stroke="midnightblue" points="386.911,-156.636 397.303,-154.571 387.892,-149.705 386.911,-156.636"/>
</g>
<!-- Node6 -->
<g id="node11" class="node"><title>Node6</title>
<a xlink:href="_ro_r_frame_listener_8cpp.html" target="_top" xlink:title="source/main/gameplay\l/RoRFrameListener.cpp">
<polygon fill="white" stroke="black" points="179.5,-1 179.5,-35 300.5,-35 300.5,-1 179.5,-1"/>
<text text-anchor="start" x="187.5" y="-22" font-family="Helvetica,sans-Serif" font-size="10.00">source/main/gameplay</text>
<text text-anchor="middle" x="240" y="-9" font-family="Helvetica,sans-Serif" font-size="10.00">/RoRFrameListener.cpp</text>
</a>
</g>
<!-- Node2&#45;&gt;Node6 -->
<g id="edge16" class="edge"><title>Node2&#45;&gt;Node6</title>
<path fill="none" stroke="midnightblue" d="M387.285,-157.168C319.594,-150.763 222.303,-136.732 199,-108 181.046,-85.8636 203.615,-54.5929 221.704,-35.3417"/>
<polygon fill="midnightblue" stroke="midnightblue" points="387.185,-160.674 397.461,-158.095 387.82,-153.702 387.185,-160.674"/>
</g>
<!-- Node7 -->
<g id="node13" class="node"><title>Node7</title>
<a xlink:href="_main_thread_8cpp.html" target="_top" xlink:title="source/main/main_sim\l/MainThread.cpp">
<polygon fill="white" stroke="black" points="317.5,-1 317.5,-35 432.5,-35 432.5,-1 317.5,-1"/>
<text text-anchor="start" x="325.5" y="-22" font-family="Helvetica,sans-Serif" font-size="10.00">source/main/main_sim</text>
<text text-anchor="middle" x="375" y="-9" font-family="Helvetica,sans-Serif" font-size="10.00">/MainThread.cpp</text>
</a>
</g>
<!-- Node2&#45;&gt;Node7 -->
<g id="edge28" class="edge"><title>Node2&#45;&gt;Node7</title>
<path fill="none" stroke="midnightblue" d="M401.357,-139.777C388.484,-131.747 376.347,-121.288 369,-108 356.422,-85.2505 362.679,-54.1618 368.633,-35.1144"/>
<polygon fill="midnightblue" stroke="midnightblue" points="399.925,-142.991 410.336,-144.952 403.42,-136.926 399.925,-142.991"/>
</g>
<!-- Node8 -->
<g id="node17" class="node"><title>Node8</title>
<a xlink:href="_camera_behavior_character_8cpp.html" target="_top" xlink:title="source/main/gfx/camera\l/CameraBehaviorCharacter.cpp">
<polygon fill="white" stroke="black" points="378,-73 378,-107 532,-107 532,-73 378,-73"/>
<text text-anchor="start" x="386" y="-94" font-family="Helvetica,sans-Serif" font-size="10.00">source/main/gfx/camera</text>
<text text-anchor="middle" x="455" y="-81" font-family="Helvetica,sans-Serif" font-size="10.00">/CameraBehaviorCharacter.cpp</text>
</a>
</g>
<!-- Node2&#45;&gt;Node8 -->
<g id="edge18" class="edge"><title>Node2&#45;&gt;Node8</title>
<path fill="none" stroke="midnightblue" d="M455,-134.719C455,-125.572 455,-115.625 455,-107.441"/>
<polygon fill="midnightblue" stroke="midnightblue" points="451.5,-134.937 455,-144.937 458.5,-134.937 451.5,-134.937"/>
</g>
<!-- Node9 -->
<g id="node19" class="node"><title>Node9</title>
<a xlink:href="_camera_behavior_static_8cpp.html" target="_top" xlink:title="source/main/gfx/camera\l/CameraBehaviorStatic.cpp">
<polygon fill="white" stroke="black" points="549.5,-73 549.5,-107 686.5,-107 686.5,-73 549.5,-73"/>
<text text-anchor="start" x="557.5" y="-94" font-family="Helvetica,sans-Serif" font-size="10.00">source/main/gfx/camera</text>
<text text-anchor="middle" x="618" y="-81" font-family="Helvetica,sans-Serif" font-size="10.00">/CameraBehaviorStatic.cpp</text>
</a>
</g>
<!-- Node2&#45;&gt;Node9 -->
<g id="edge20" class="edge"><title>Node2&#45;&gt;Node9</title>
<path fill="none" stroke="midnightblue" d="M503.037,-140.781C527.366,-130.035 556.51,-117.161 579.366,-107.065"/>
<polygon fill="midnightblue" stroke="midnightblue" points="501.362,-137.695 493.629,-144.937 504.19,-144.098 501.362,-137.695"/>
</g>
<!-- Node10 -->
<g id="node21" class="node"><title>Node10</title>
<a xlink:href="_depth_of_field_effect_8cpp.html" target="_top" xlink:title="source/main/gfx/dof\l/DepthOfFieldEffect.cpp">
<polygon fill="white" stroke="black" points="704,-73 704,-107 826,-107 826,-73 704,-73"/>
<text text-anchor="start" x="712" y="-94" font-family="Helvetica,sans-Serif" font-size="10.00">source/main/gfx/dof</text>
<text text-anchor="middle" x="765" y="-81" font-family="Helvetica,sans-Serif" font-size="10.00">/DepthOfFieldEffect.cpp</text>
</a>
</g>
<!-- Node2&#45;&gt;Node10 -->
<g id="edge22" class="edge"><title>Node2&#45;&gt;Node10</title>
<path fill="none" stroke="midnightblue" d="M522.71,-143.663C599.556,-125.591 621.225,-125.107 695,-108 697.934,-107.32 700.933,-106.609 703.959,-105.879"/>
<polygon fill="midnightblue" stroke="midnightblue" points="521.458,-140.363 512.539,-146.081 523.077,-147.173 521.458,-140.363"/>
</g>
<!-- Node11 -->
<g id="node23" class="node"><title>Node11</title>
<a xlink:href="_overlay_wrapper_8cpp.html" target="_top" xlink:title="source/main/gui/OverlayWrapper.cpp">
<polygon fill="white" stroke="black" points="844,-79.5 844,-100.5 1022,-100.5 1022,-79.5 844,-79.5"/>
<text text-anchor="middle" x="933" y="-87.5" font-family="Helvetica,sans-Serif" font-size="10.00">source/main/gui/OverlayWrapper.cpp</text>
</a>
</g>
<!-- Node2&#45;&gt;Node11 -->
<g id="edge24" class="edge"><title>Node2&#45;&gt;Node11</title>
<path fill="none" stroke="midnightblue" d="M522.927,-143.771C660.733,-117.953 699.32,-128.215 835,-108 849.458,-105.846 865.048,-103.153 879.449,-100.511"/>
<polygon fill="midnightblue" stroke="midnightblue" points="522,-140.385 512.831,-145.693 523.309,-147.261 522,-140.385"/>
</g>
<!-- Node12 -->
<g id="node25" class="node"><title>Node12</title>
<a xlink:href="_g_u_i___game_pause_menu_8cpp.html" target="_top" xlink:title="source/main/gui/panels\l/GUI_GamePauseMenu.cpp">
<polygon fill="white" stroke="black" points="1040,-73 1040,-107 1180,-107 1180,-73 1040,-73"/>
<text text-anchor="start" x="1048" y="-94" font-family="Helvetica,sans-Serif" font-size="10.00">source/main/gui/panels</text>
<text text-anchor="middle" x="1110" y="-81" font-family="Helvetica,sans-Serif" font-size="10.00">/GUI_GamePauseMenu.cpp</text>
</a>
</g>
<!-- Node2&#45;&gt;Node12 -->
<g id="edge26" class="edge"><title>Node2&#45;&gt;Node12</title>
<path fill="none" stroke="midnightblue" d="M522.901,-143.854C746.846,-106.946 809.521,-140.85 1031,-108 1033.92,-107.567 1036.9,-107.083 1039.89,-106.561"/>
<polygon fill="midnightblue" stroke="midnightblue" points="522.088,-140.441 512.805,-145.547 523.246,-147.345 522.088,-140.441"/>
</g>
<!-- Node13 -->
<g id="node28" class="node"><title>Node13</title>
<a xlink:href="_game_script_8cpp.html" target="_top" xlink:title="source/main/scripting\l/GameScript.cpp">
<polygon fill="white" stroke="black" points="1198,-73 1198,-107 1308,-107 1308,-73 1198,-73"/>
<text text-anchor="start" x="1206" y="-94" font-family="Helvetica,sans-Serif" font-size="10.00">source/main/scripting</text>
<text text-anchor="middle" x="1253" y="-81" font-family="Helvetica,sans-Serif" font-size="10.00">/GameScript.cpp</text>
</a>
</g>
<!-- Node2&#45;&gt;Node13 -->
<g id="edge30" class="edge"><title>Node2&#45;&gt;Node13</title>
<path fill="none" stroke="midnightblue" d="M522.878,-143.886C816.369,-97.9503 898.964,-155.998 1189,-108 1191.85,-107.529 1194.75,-106.978 1197.67,-106.368"/>
<polygon fill="midnightblue" stroke="midnightblue" points="522.121,-140.462 512.796,-145.492 523.222,-147.375 522.121,-140.462"/>
</g>
<!-- Node4&#45;&gt;Node5 -->
<g id="edge8" class="edge"><title>Node4&#45;&gt;Node5</title>
<path fill="none" stroke="midnightblue" d="M217.847,-68.7812C193.966,-58.0346 165.358,-45.1612 142.923,-35.0651"/>
<polygon fill="midnightblue" stroke="midnightblue" points="216.527,-72.025 227.082,-72.937 219.399,-65.6416 216.527,-72.025"/>
</g>
<!-- Node4&#45;&gt;Node6 -->
<g id="edge10" class="edge"><title>Node4&#45;&gt;Node6</title>
<path fill="none" stroke="midnightblue" d="M255.734,-63.3147C252.502,-54.0053 248.96,-43.8034 246.056,-35.4407"/>
<polygon fill="midnightblue" stroke="midnightblue" points="252.489,-64.6383 259.075,-72.937 259.102,-62.3422 252.489,-64.6383"/>
</g>
<!-- Node4&#45;&gt;Node7 -->
<g id="edge12" class="edge"><title>Node4&#45;&gt;Node7</title>
<path fill="none" stroke="midnightblue" d="M299.583,-67.3637C315.474,-56.9622 334.016,-44.826 348.737,-35.19"/>
<polygon fill="midnightblue" stroke="midnightblue" points="297.519,-64.5319 291.068,-72.937 301.352,-70.3888 297.519,-64.5319"/>
</g>
</g>
</svg>
