<?xml version="1.0" encoding="UTF-8" standalone="no"?>
<!DOCTYPE svg PUBLIC "-//W3C//DTD SVG 1.1//EN"
 "http://www.w3.org/Graphics/SVG/1.1/DTD/svg11.dtd">
<!-- Generated by graphviz version 2.26.3 (20100126.1600)
 -->
<!-- Title: G Pages: 1 -->
<svg width="420pt" height="88pt"
 viewBox="0.00 0.00 420.00 88.00" xmlns="http://www.w3.org/2000/svg" xmlns:xlink="http://www.w3.org/1999/xlink">
<g id="graph1" class="graph" transform="scale(1 1) rotate(0) translate(4 84)">
<title>G</title>
<polygon fill="white" stroke="white" points="-4,5 -4,-84 417,-84 417,5 -4,5"/>
<!-- Node1 -->
<g id="node1" class="node"><title>Node1</title>
<polygon fill="#bfbfbf" stroke="black" points="112.5,-58.5 112.5,-79.5 309.5,-79.5 309.5,-58.5 112.5,-58.5"/>
<text text-anchor="middle" x="211" y="-66.5" font-family="Helvetica,sans-Serif" font-size="10.00">source/main/scripting/OgreScriptBuilder.h</text>
</g>
<!-- Node2 -->
<g id="node3" class="node"><title>Node2</title>
<a xlink:href="_ogre_script_builder_8cpp.html" target="_top" xlink:title="source/main/scripting/OgreScriptBuilder.cpp">
<polygon fill="white" stroke="black" points="0,-0.5 0,-21.5 208,-21.5 208,-0.5 0,-0.5"/>
<text text-anchor="middle" x="104" y="-8.5" font-family="Helvetica,sans-Serif" font-size="10.00">source/main/scripting/OgreScriptBuilder.cpp</text>
</a>
</g>
<!-- Node1&#45;&gt;Node2 -->
<g id="edge2" class="edge"><title>Node1&#45;&gt;Node2</title>
<path fill="none" stroke="midnightblue" d="M182.437,-53.5175C163.807,-43.4189 139.98,-30.5032 123.501,-21.5707"/>
<polygon fill="midnightblue" stroke="midnightblue" points="180.915,-56.6734 191.375,-58.3619 184.251,-50.5194 180.915,-56.6734"/>
</g>
<!-- Node3 -->
<g id="node5" class="node"><title>Node3</title>
<a xlink:href="_script_engine_8cpp.html" target="_top" xlink:title="source/main/scripting/ScriptEngine.cpp">
<polygon fill="white" stroke="black" points="225.5,-0.5 225.5,-21.5 412.5,-21.5 412.5,-0.5 225.5,-0.5"/>
<text text-anchor="middle" x="319" y="-8.5" font-family="Helvetica,sans-Serif" font-size="10.00">source/main/scripting/ScriptEngine.cpp</text>
</a>
</g>
<!-- Node1&#45;&gt;Node3 -->
<g id="edge4" class="edge"><title>Node1&#45;&gt;Node3</title>
<path fill="none" stroke="midnightblue" d="M239.572,-53.6559C258.378,-43.5561 282.517,-30.5928 299.223,-21.6212"/>
<polygon fill="midnightblue" stroke="midnightblue" points="237.712,-50.6818 230.558,-58.4966 241.024,-56.8488 237.712,-50.6818"/>
</g>
</g>
</svg>
