<?xml version="1.0" encoding="UTF-8" standalone="no"?>
<!DOCTYPE svg PUBLIC "-//W3C//DTD SVG 1.1//EN"
 "http://www.w3.org/Graphics/SVG/1.1/DTD/svg11.dtd">
<!-- Generated by graphviz version 2.26.3 (20100126.1600)
 -->
<!-- Title: source/main/terrain/OgreTerrainPSSMMaterialGenerator.h Pages: 1 -->
<svg width="462pt" height="102pt"
 viewBox="0.00 0.00 462.00 102.00" xmlns="http://www.w3.org/2000/svg" xmlns:xlink="http://www.w3.org/1999/xlink">
<g id="graph1" class="graph" transform="scale(1 1) rotate(0) translate(4 98)">
<title>source/main/terrain/OgreTerrainPSSMMaterialGenerator.h</title>
<polygon fill="white" stroke="white" points="-4,5 -4,-98 459,-98 459,5 -4,5"/>
<!-- Node1 -->
<g id="node1" class="node"><title>Node1</title>
<polygon fill="#bfbfbf" stroke="black" points="133.5,-59 133.5,-93 318.5,-93 318.5,-59 133.5,-59"/>
<text text-anchor="start" x="141.5" y="-80" font-family="Helvetica,sans-Serif" font-size="10.00">source/main/terrain</text>
<text text-anchor="middle" x="226" y="-67" font-family="Helvetica,sans-Serif" font-size="10.00">/OgreTerrainPSSMMaterialGenerator.h</text>
</g>
<!-- Node2 -->
<g id="node3" class="node"><title>Node2</title>
<polygon fill="white" stroke="#bfbfbf" points="-0.5,-0.5 -0.5,-21.5 132.5,-21.5 132.5,-0.5 -0.5,-0.5"/>
<text text-anchor="middle" x="66" y="-8.5" font-family="Helvetica,sans-Serif" font-size="10.00">OgreTerrainPrerequisites.h</text>
</g>
<!-- Node1&#45;&gt;Node2 -->
<g id="edge2" class="edge"><title>Node1&#45;&gt;Node2</title>
<path fill="none" stroke="midnightblue" d="M183.962,-58.922C158.41,-48.5414 126.131,-35.4282 101.801,-25.5443"/>
<polygon fill="midnightblue" stroke="midnightblue" points="102.818,-22.1796 92.236,-21.6584 100.183,-28.6648 102.818,-22.1796"/>
</g>
<!-- Node3 -->
<g id="node5" class="node"><title>Node3</title>
<polygon fill="white" stroke="#bfbfbf" points="149.5,-0.5 149.5,-21.5 302.5,-21.5 302.5,-0.5 149.5,-0.5"/>
<text text-anchor="middle" x="226" y="-8.5" font-family="Helvetica,sans-Serif" font-size="10.00">OgreTerrainMaterialGenerator.h</text>
</g>
<!-- Node1&#45;&gt;Node3 -->
<g id="edge4" class="edge"><title>Node1&#45;&gt;Node3</title>
<path fill="none" stroke="midnightblue" d="M226,-58.922C226,-50.6704 226,-40.6922 226,-31.9818"/>
<polygon fill="midnightblue" stroke="midnightblue" points="229.5,-31.8521 226,-21.8521 222.5,-31.8521 229.5,-31.8521"/>
</g>
<!-- Node4 -->
<g id="node7" class="node"><title>Node4</title>
<polygon fill="white" stroke="#bfbfbf" points="320,-0.5 320,-21.5 454,-21.5 454,-0.5 320,-0.5"/>
<text text-anchor="middle" x="387" y="-8.5" font-family="Helvetica,sans-Serif" font-size="10.00">OgreGpuProgramParams.h</text>
</g>
<!-- Node1&#45;&gt;Node4 -->
<g id="edge6" class="edge"><title>Node1&#45;&gt;Node4</title>
<path fill="none" stroke="midnightblue" d="M268.301,-58.922C294.127,-48.4953 326.782,-35.3116 351.301,-25.4127"/>
<polygon fill="midnightblue" stroke="midnightblue" points="352.638,-28.6476 360.6,-21.6584 350.017,-22.1566 352.638,-28.6476"/>
</g>
</g>
</svg>
