<?xml version="1.0" encoding="UTF-8" standalone="no"?>
<!DOCTYPE svg PUBLIC "-//W3C//DTD SVG 1.1//EN"
 "http://www.w3.org/Graphics/SVG/1.1/DTD/svg11.dtd">
<!-- Generated by graphviz version 2.26.3 (20100126.1600)
 -->
<!-- Title: source/main/utils/PlatformUtils.h Pages: 1 -->
<svg width="178pt" height="102pt"
 viewBox="0.00 0.00 178.00 102.00" xmlns="http://www.w3.org/2000/svg" xmlns:xlink="http://www.w3.org/1999/xlink">
<g id="graph1" class="graph" transform="scale(1 1) rotate(0) translate(4 98)">
<title>source/main/utils/PlatformUtils.h</title>
<polygon fill="white" stroke="white" points="-4,5 -4,-98 175,-98 175,5 -4,5"/>
<!-- Node1 -->
<g id="node1" class="node"><title>Node1</title>
<polygon fill="#bfbfbf" stroke="black" points="22.5,-59 22.5,-93 153.5,-93 153.5,-59 22.5,-59"/>
<text text-anchor="start" x="30.5" y="-80" font-family="Helvetica,sans-Serif" font-size="10.00">source/main/utils/Platform</text>
<text text-anchor="middle" x="88" y="-67" font-family="Helvetica,sans-Serif" font-size="10.00">Utils.h</text>
</g>
<!-- Node2 -->
<g id="node3" class="node"><title>Node2</title>
<polygon fill="white" stroke="#bfbfbf" points="-0.5,-0.5 -0.5,-21.5 82.5,-21.5 82.5,-0.5 -0.5,-0.5"/>
<text text-anchor="middle" x="41" y="-8.5" font-family="Helvetica,sans-Serif" font-size="10.00">OgrePlatform.h</text>
</g>
<!-- Node1&#45;&gt;Node2 -->
<g id="edge2" class="edge"><title>Node1&#45;&gt;Node2</title>
<path fill="none" stroke="midnightblue" d="M75.6513,-58.922C69.2207,-50.0286 61.3399,-39.1296 54.7195,-29.9738"/>
<polygon fill="midnightblue" stroke="midnightblue" points="57.5426,-27.9048 48.8469,-21.8521 51.8702,-32.0064 57.5426,-27.9048"/>
</g>
<!-- Node3 -->
<g id="node5" class="node"><title>Node3</title>
<polygon fill="white" stroke="#bfbfbf" points="99.5,-0.5 99.5,-21.5 170.5,-21.5 170.5,-0.5 99.5,-0.5"/>
<text text-anchor="middle" x="135" y="-8.5" font-family="Helvetica,sans-Serif" font-size="10.00">OgreString.h</text>
</g>
<!-- Node1&#45;&gt;Node3 -->
<g id="edge4" class="edge"><title>Node1&#45;&gt;Node3</title>
<path fill="none" stroke="midnightblue" d="M100.349,-58.922C106.779,-50.0286 114.66,-39.1296 121.28,-29.9738"/>
<polygon fill="midnightblue" stroke="midnightblue" points="124.13,-32.0064 127.153,-21.8521 118.457,-27.9048 124.13,-32.0064"/>
</g>
</g>
</svg>
