<?xml version="1.0" encoding="UTF-8" standalone="no"?>
<!DOCTYPE svg PUBLIC "-//W3C//DTD SVG 1.1//EN"
 "http://www.w3.org/Graphics/SVG/1.1/DTD/svg11.dtd">
<!-- Generated by graphviz version 2.26.3 (20100126.1600)
 -->
<!-- Title: source/main/rig_editor/RigEditor_RigWheelVisuals.h Pages: 1 -->
<svg width="320pt" height="116pt"
 viewBox="0.00 0.00 320.00 116.00" xmlns="http://www.w3.org/2000/svg" xmlns:xlink="http://www.w3.org/1999/xlink">
<g id="graph1" class="graph" transform="scale(1 1) rotate(0) translate(4 112)">
<title>source/main/rig_editor/RigEditor_RigWheelVisuals.h</title>
<polygon fill="white" stroke="white" points="-4,5 -4,-112 317,-112 317,5 -4,5"/>
<!-- Node1 -->
<g id="node1" class="node"><title>Node1</title>
<polygon fill="#bfbfbf" stroke="black" points="75.5,-73 75.5,-107 224.5,-107 224.5,-73 75.5,-73"/>
<text text-anchor="start" x="83.5" y="-94" font-family="Helvetica,sans-Serif" font-size="10.00">source/main/rig_editor</text>
<text text-anchor="middle" x="150" y="-81" font-family="Helvetica,sans-Serif" font-size="10.00">/RigEditor_RigWheelVisuals.h</text>
</g>
<!-- Node2 -->
<g id="node3" class="node"><title>Node2</title>
<a xlink:href="_rig_editor___rig_8cpp.html" target="_top" xlink:title="source/main/rig_editor\l/rig_data/RigEditor_Rig.cpp">
<polygon fill="white" stroke="black" points="-0.5,-1 -0.5,-35 136.5,-35 136.5,-1 -0.5,-1"/>
<text text-anchor="start" x="7.5" y="-22" font-family="Helvetica,sans-Serif" font-size="10.00">source/main/rig_editor</text>
<text text-anchor="middle" x="68" y="-9" font-family="Helvetica,sans-Serif" font-size="10.00">/rig_data/RigEditor_Rig.cpp</text>
</a>
</g>
<!-- Node1&#45;&gt;Node2 -->
<g id="edge2" class="edge"><title>Node1&#45;&gt;Node2</title>
<path fill="none" stroke="midnightblue" d="M122.896,-66.2011C111.354,-56.0666 98.1454,-44.4691 87.5775,-35.19"/>
<polygon fill="midnightblue" stroke="midnightblue" points="120.743,-68.969 130.567,-72.937 125.362,-63.7089 120.743,-68.969"/>
</g>
<!-- Node3 -->
<g id="node5" class="node"><title>Node3</title>
<a xlink:href="_rig_editor___rig_wheel_visuals_8cpp.html" target="_top" xlink:title="source/main/rig_editor\l/RigEditor_RigWheelVisuals.cpp">
<polygon fill="white" stroke="black" points="153.5,-1 153.5,-35 312.5,-35 312.5,-1 153.5,-1"/>
<text text-anchor="start" x="161.5" y="-22" font-family="Helvetica,sans-Serif" font-size="10.00">source/main/rig_editor</text>
<text text-anchor="middle" x="233" y="-9" font-family="Helvetica,sans-Serif" font-size="10.00">/RigEditor_RigWheelVisuals.cpp</text>
</a>
</g>
<!-- Node1&#45;&gt;Node3 -->
<g id="edge4" class="edge"><title>Node1&#45;&gt;Node3</title>
<path fill="none" stroke="midnightblue" d="M177.435,-66.2011C189.118,-56.0666 202.487,-44.4691 213.184,-35.19"/>
<polygon fill="midnightblue" stroke="midnightblue" points="174.93,-63.7403 169.67,-72.937 179.517,-69.0281 174.93,-63.7403"/>
</g>
</g>
</svg>
