<?xml version="1.0" encoding="UTF-8" standalone="no"?>
<!DOCTYPE svg PUBLIC "-//W3C//DTD SVG 1.1//EN"
 "http://www.w3.org/Graphics/SVG/1.1/DTD/svg11.dtd">
<!-- Generated by graphviz version 2.26.3 (20100126.1600)
 -->
<!-- Title: source/rig_file_input_output/RigDef_SequentialImporter.h Pages: 1 -->
<svg width="905pt" height="272pt"
 viewBox="0.00 0.00 905.00 272.00" xmlns="http://www.w3.org/2000/svg" xmlns:xlink="http://www.w3.org/1999/xlink">
<g id="graph1" class="graph" transform="scale(1 1) rotate(0) translate(4 268)">
<title>source/rig_file_input_output/RigDef_SequentialImporter.h</title>
<polygon fill="white" stroke="white" points="-4,5 -4,-268 902,-268 902,5 -4,5"/>
<!-- Node1 -->
<g id="node1" class="node"><title>Node1</title>
<polygon fill="#bfbfbf" stroke="black" points="496,-229 496,-263 674,-263 674,-229 496,-229"/>
<text text-anchor="start" x="504" y="-250" font-family="Helvetica,sans-Serif" font-size="10.00">source/rig_file_input</text>
<text text-anchor="middle" x="585" y="-237" font-family="Helvetica,sans-Serif" font-size="10.00">_output/RigDef_SequentialImporter.h</text>
</g>
<!-- Node2 -->
<g id="node3" class="node"><title>Node2</title>
<a xlink:href="_rig_def___parser_8h.html" target="_top" xlink:title="source/rig_file_input\l_output/RigDef_Parser.h">
<polygon fill="white" stroke="black" points="420.5,-157 420.5,-191 545.5,-191 545.5,-157 420.5,-157"/>
<text text-anchor="start" x="428.5" y="-178" font-family="Helvetica,sans-Serif" font-size="10.00">source/rig_file_input</text>
<text text-anchor="middle" x="483" y="-165" font-family="Helvetica,sans-Serif" font-size="10.00">_output/RigDef_Parser.h</text>
</a>
</g>
<!-- Node1&#45;&gt;Node2 -->
<g id="edge2" class="edge"><title>Node1&#45;&gt;Node2</title>
<path fill="none" stroke="midnightblue" d="M552.522,-223.074C537.878,-212.738 520.877,-200.737 507.353,-191.19"/>
<polygon fill="midnightblue" stroke="midnightblue" points="550.639,-226.03 560.827,-228.937 554.676,-220.311 550.639,-226.03"/>
</g>
<!-- Node11 -->
<g id="node22" class="node"><title>Node11</title>
<a xlink:href="_rig_def___sequential_importer_8cpp.html" target="_top" xlink:title="source/rig_file_input\l_output/RigDef_SequentialImporter.cpp">
<polygon fill="white" stroke="black" points="709,-85 709,-119 897,-119 897,-85 709,-85"/>
<text text-anchor="start" x="717" y="-106" font-family="Helvetica,sans-Serif" font-size="10.00">source/rig_file_input</text>
<text text-anchor="middle" x="803" y="-93" font-family="Helvetica,sans-Serif" font-size="10.00">_output/RigDef_SequentialImporter.cpp</text>
</a>
</g>
<!-- Node1&#45;&gt;Node11 -->
<g id="edge24" class="edge"><title>Node1&#45;&gt;Node11</title>
<path fill="none" stroke="midnightblue" d="M619.459,-223.238C663.275,-194.295 737.939,-144.976 777.17,-119.062"/>
<polygon fill="midnightblue" stroke="midnightblue" points="617.278,-220.484 610.864,-228.916 621.137,-226.325 617.278,-220.484"/>
</g>
<!-- Node3 -->
<g id="node5" class="node"><title>Node3</title>
<a xlink:href="_beam_8cpp.html" target="_top" xlink:title="source/main/physics\l/Beam.cpp">
<polygon fill="white" stroke="black" points="-0.5,-7 -0.5,-41 106.5,-41 106.5,-7 -0.5,-7"/>
<text text-anchor="start" x="7.5" y="-28" font-family="Helvetica,sans-Serif" font-size="10.00">source/main/physics</text>
<text text-anchor="middle" x="53" y="-15" font-family="Helvetica,sans-Serif" font-size="10.00">/Beam.cpp</text>
</a>
</g>
<!-- Node2&#45;&gt;Node3 -->
<g id="edge4" class="edge"><title>Node2&#45;&gt;Node3</title>
<path fill="none" stroke="midnightblue" d="M410.141,-169.083C321.059,-162.01 176.408,-146.775 130,-120 97.614,-101.315 73.5236,-63.3152 61.5211,-41.1389"/>
<polygon fill="midnightblue" stroke="midnightblue" points="409.943,-172.578 420.184,-169.865 410.486,-165.599 409.943,-172.578"/>
</g>
<!-- Node4 -->
<g id="node7" class="node"><title>Node4</title>
<a xlink:href="_rig_spawner_8h.html" target="_top" xlink:title="Vehicle spawning logic. ">
<polygon fill="white" stroke="black" points="138.5,-85 138.5,-119 275.5,-119 275.5,-85 138.5,-85"/>
<text text-anchor="start" x="146.5" y="-106" font-family="Helvetica,sans-Serif" font-size="10.00">source/main/physics</text>
<text text-anchor="middle" x="207" y="-93" font-family="Helvetica,sans-Serif" font-size="10.00">/input_output/RigSpawner.h</text>
</a>
</g>
<!-- Node2&#45;&gt;Node4 -->
<g id="edge6" class="edge"><title>Node2&#45;&gt;Node4</title>
<path fill="none" stroke="midnightblue" d="M410.563,-155.104C367.689,-143.919 313.814,-129.865 272.261,-119.025"/>
<polygon fill="midnightblue" stroke="midnightblue" points="409.812,-158.524 420.371,-157.662 411.579,-151.751 409.812,-158.524"/>
</g>
<!-- Node8 -->
<g id="node16" class="node"><title>Node8</title>
<a xlink:href="_cache_system_8cpp.html" target="_top" xlink:title="source/main/resources\l/CacheSystem.cpp">
<polygon fill="white" stroke="black" points="293,-85 293,-119 409,-119 409,-85 293,-85"/>
<text text-anchor="start" x="301" y="-106" font-family="Helvetica,sans-Serif" font-size="10.00">source/main/resources</text>
<text text-anchor="middle" x="351" y="-93" font-family="Helvetica,sans-Serif" font-size="10.00">/CacheSystem.cpp</text>
</a>
</g>
<!-- Node2&#45;&gt;Node8 -->
<g id="edge16" class="edge"><title>Node2&#45;&gt;Node8</title>
<path fill="none" stroke="midnightblue" d="M442.819,-152.083C423.463,-141.525 400.59,-129.049 382.515,-119.19"/>
<polygon fill="midnightblue" stroke="midnightblue" points="441.263,-155.221 451.718,-156.937 444.615,-149.076 441.263,-155.221"/>
</g>
<!-- Node9 -->
<g id="node18" class="node"><title>Node9</title>
<a xlink:href="_rig_editor___main_8cpp.html" target="_top" xlink:title="source/main/rig_editor\l/RigEditor_Main.cpp">
<polygon fill="white" stroke="black" points="426.5,-85 426.5,-119 539.5,-119 539.5,-85 426.5,-85"/>
<text text-anchor="start" x="434.5" y="-106" font-family="Helvetica,sans-Serif" font-size="10.00">source/main/rig_editor</text>
<text text-anchor="middle" x="483" y="-93" font-family="Helvetica,sans-Serif" font-size="10.00">/RigEditor_Main.cpp</text>
</a>
</g>
<!-- Node2&#45;&gt;Node9 -->
<g id="edge18" class="edge"><title>Node2&#45;&gt;Node9</title>
<path fill="none" stroke="midnightblue" d="M483,-146.719C483,-137.572 483,-127.625 483,-119.441"/>
<polygon fill="midnightblue" stroke="midnightblue" points="479.5,-146.937 483,-156.937 486.5,-146.937 479.5,-146.937"/>
</g>
<!-- Node10 -->
<g id="node20" class="node"><title>Node10</title>
<a xlink:href="_rig_def___parser_8cpp.html" target="_top" xlink:title="source/rig_file_input\l_output/RigDef_Parser.cpp">
<polygon fill="white" stroke="black" points="556.5,-85 556.5,-119 691.5,-119 691.5,-85 556.5,-85"/>
<text text-anchor="start" x="564.5" y="-106" font-family="Helvetica,sans-Serif" font-size="10.00">source/rig_file_input</text>
<text text-anchor="middle" x="624" y="-93" font-family="Helvetica,sans-Serif" font-size="10.00">_output/RigDef_Parser.cpp</text>
</a>
</g>
<!-- Node2&#45;&gt;Node10 -->
<g id="edge20" class="edge"><title>Node2&#45;&gt;Node10</title>
<path fill="none" stroke="midnightblue" d="M525.36,-152.369C546.154,-141.751 570.854,-129.138 590.336,-119.19"/>
<polygon fill="midnightblue" stroke="midnightblue" points="523.729,-149.272 516.415,-156.937 526.913,-155.506 523.729,-149.272"/>
</g>
<!-- Node2&#45;&gt;Node11 -->
<g id="edge22" class="edge"><title>Node2&#45;&gt;Node11</title>
<path fill="none" stroke="midnightblue" d="M555.849,-157.609C607.091,-146.08 675.494,-130.689 727.347,-119.022"/>
<polygon fill="midnightblue" stroke="midnightblue" points="554.828,-154.251 545.84,-159.861 556.364,-161.08 554.828,-154.251"/>
</g>
<!-- Node4&#45;&gt;Node3 -->
<g id="edge10" class="edge"><title>Node4&#45;&gt;Node3</title>
<path fill="none" stroke="midnightblue" d="M164.141,-80.2921C139.685,-67.9054 109.468,-52.6006 86.7171,-41.0775"/>
<polygon fill="midnightblue" stroke="midnightblue" points="162.702,-83.4864 173.204,-84.8826 165.865,-77.2417 162.702,-83.4864"/>
</g>
<!-- Node5 -->
<g id="node9" class="node"><title>Node5</title>
<a xlink:href="_video_camera_8cpp.html" target="_top" xlink:title="source/main/gfx/VideoCamera.cpp">
<polygon fill="white" stroke="black" points="123.5,-13.5 123.5,-34.5 290.5,-34.5 290.5,-13.5 123.5,-13.5"/>
<text text-anchor="middle" x="207" y="-21.5" font-family="Helvetica,sans-Serif" font-size="10.00">source/main/gfx/VideoCamera.cpp</text>
</a>
</g>
<!-- Node4&#45;&gt;Node5 -->
<g id="edge8" class="edge"><title>Node4&#45;&gt;Node5</title>
<path fill="none" stroke="midnightblue" d="M207,-74.3097C207,-60.6456 207,-44.9539 207,-34.779"/>
<polygon fill="midnightblue" stroke="midnightblue" points="203.5,-74.6892 207,-84.6893 210.5,-74.6893 203.5,-74.6892"/>
</g>
<!-- Node6 -->
<g id="node12" class="node"><title>Node6</title>
<a xlink:href="_rig_spawner_8cpp.html" target="_top" xlink:title="Vehicle spawning logic. ">
<polygon fill="white" stroke="black" points="308,-7 308,-41 456,-41 456,-7 308,-7"/>
<text text-anchor="start" x="316" y="-28" font-family="Helvetica,sans-Serif" font-size="10.00">source/main/physics</text>
<text text-anchor="middle" x="382" y="-15" font-family="Helvetica,sans-Serif" font-size="10.00">/input_output/RigSpawner.cpp</text>
</a>
</g>
<!-- Node4&#45;&gt;Node6 -->
<g id="edge12" class="edge"><title>Node4&#45;&gt;Node6</title>
<path fill="none" stroke="midnightblue" d="M254.605,-80.7816C282.585,-68.3105 317.49,-52.7529 343.685,-41.0775"/>
<polygon fill="midnightblue" stroke="midnightblue" points="253.113,-77.6146 245.404,-84.8826 255.963,-84.0083 253.113,-77.6146"/>
</g>
<!-- Node7 -->
<g id="node14" class="node"><title>Node7</title>
<a xlink:href="_rig_spawner___process_control_8cpp.html" target="_top" xlink:title="source/main/physics\l/input_output/RigSpawner\l_ProcessControl.cpp">
<polygon fill="white" stroke="black" points="473.5,-0.5 473.5,-47.5 602.5,-47.5 602.5,-0.5 473.5,-0.5"/>
<text text-anchor="start" x="481.5" y="-34.5" font-family="Helvetica,sans-Serif" font-size="10.00">source/main/physics</text>
<text text-anchor="start" x="481.5" y="-21.5" font-family="Helvetica,sans-Serif" font-size="10.00">/input_output/RigSpawner</text>
<text text-anchor="middle" x="538" y="-8.5" font-family="Helvetica,sans-Serif" font-size="10.00">_ProcessControl.cpp</text>
</a>
</g>
<!-- Node4&#45;&gt;Node7 -->
<g id="edge14" class="edge"><title>Node4&#45;&gt;Node7</title>
<path fill="none" stroke="midnightblue" d="M285.876,-83.6453C365.935,-66.798 388.772,-68.0323 465,-48 467.71,-47.2879 470.466,-46.5312 473.243,-45.7419"/>
<polygon fill="midnightblue" stroke="midnightblue" points="284.87,-80.2811 275.821,-85.7922 286.332,-87.1268 284.87,-80.2811"/>
</g>
</g>
</svg>
