<?xml version="1.0" encoding="UTF-8" standalone="no"?>
<!DOCTYPE svg PUBLIC "-//W3C//DTD SVG 1.1//EN"
 "http://www.w3.org/Graphics/SVG/1.1/DTD/svg11.dtd">
<!-- Generated by graphviz version 2.26.3 (20100126.1600)
 -->
<!-- Title: source/main/rig_editor/RigEditor_Main.h Pages: 1 -->
<!--zoomable 128 -->
<svg id="main" version="1.1" xmlns="http://www.w3.org/2000/svg" xmlns:xlink="http://www.w3.org/1999/xlink" xml:space="preserve" onload="init(evt)">
<style type="text/css"><![CDATA[
.edge:hover path { stroke: red; }
.edge:hover polygon { stroke: red; fill: red; }
]]></style>
<script type="text/javascript"><![CDATA[
var edges = document.getElementsByTagName('g');
if (edges && edges.length) {
  for (var i=0;i<edges.length;i++) {
    if (edges[i].id.substr(0,4)=='edge') {
      edges[i].setAttribute('class','edge');
    }
  }
}
]]></script>
        <defs>
                <circle id="rim" cx="0" cy="0" r="7"/>
                <circle id="rim2" cx="0" cy="0" r="3.5"/>
                <g id="zoomPlus">
                        <use xlink:href="#rim" fill="#404040">
                                <set attributeName="fill" to="#808080" begin="zoomplus.mouseover" end="zoomplus.mouseout"/>
                        </use>
                        <path d="M-4,0h8M0,-4v8" fill="none" stroke="white" stroke-width="1.5" pointer-events="none"/>
                </g>
                <g id="zoomMin">
                        <use xlink:href="#rim" fill="#404040">
                                <set attributeName="fill" to="#808080" begin="zoomminus.mouseover" end="zoomminus.mouseout"/>
                        </use>
                        <path d="M-4,0h8" fill="none" stroke="white" stroke-width="1.5" pointer-events="none"/>
                </g>
                <g id="dirArrow">
                        <path fill="none" stroke="white" stroke-width="1.5" d="M0,-3.0v7 M-2.5,-0.5L0,-3.0L2.5,-0.5"/>
                </g>
               <g id="resetDef">
                       <use xlink:href="#rim2" fill="#404040">
                               <set attributeName="fill" to="#808080" begin="reset.mouseover" end="reset.mouseout"/>
                       </use>
               </g>
        </defs>

<script type="text/javascript">
var viewWidth = 968;
var viewHeight = 128;
var sectionId = 'dynsection-1';
</script>
<script xlink:href="svgpan.js"/>
<svg id="graph" class="graph">
<g id="viewport">
<title>source/main/rig_editor/RigEditor_Main.h</title>
<polygon fill="white" stroke="white" points="-4,5 -4,-124 965,-124 965,5 -4,5"/>
<!-- Node1 -->
<g id="node1" class="node"><title>Node1</title>
<polygon fill="#bfbfbf" stroke="black" points="426.5,-85 426.5,-119 539.5,-119 539.5,-85 426.5,-85"/>
<text text-anchor="start" x="434.5" y="-106" font-family="Helvetica,sans-Serif" font-size="10.00">source/main/rig_editor</text>
<text text-anchor="middle" x="483" y="-93" font-family="Helvetica,sans-Serif" font-size="10.00">/RigEditor_Main.h</text>
</g>
<!-- Node2 -->
<g id="node3" class="node"><title>Node2</title>
<a xlink:href="_g_u_i___rig_editor_land_vehicle_properties_window_8cpp.html" target="_top" xlink:title="source/main/gui/panels\l/GUI_RigEditorLandVehicleProperties\lWindow.cpp">
<polygon fill="white" stroke="black" points="-0.5,-0.5 -0.5,-47.5 180.5,-47.5 180.5,-0.5 -0.5,-0.5"/>
<text text-anchor="start" x="7.5" y="-34.5" font-family="Helvetica,sans-Serif" font-size="10.00">source/main/gui/panels</text>
<text text-anchor="start" x="7.5" y="-21.5" font-family="Helvetica,sans-Serif" font-size="10.00">/GUI_RigEditorLandVehicleProperties</text>
<text text-anchor="middle" x="90" y="-8.5" font-family="Helvetica,sans-Serif" font-size="10.00">Window.cpp</text>
</a>
</g>
<!-- Node1&#45;&gt;Node2 -->
<g id="edge2" class="edge"><title>Node1&#45;&gt;Node2</title>
<path fill="none" stroke="midnightblue" d="M416.398,-90.8663C356.672,-80.6208 266.731,-64.5469 189,-48 186.232,-47.4108 183.424,-46.8016 180.591,-46.177"/>
<polygon fill="midnightblue" stroke="midnightblue" points="416.006,-94.3499 426.452,-92.5849 417.185,-87.45 416.006,-94.3499"/>
</g>
<!-- Node3 -->
<g id="node5" class="node"><title>Node3</title>
<a xlink:href="_main_thread_8cpp.html" target="_top" xlink:title="source/main/main_sim\l/MainThread.cpp">
<polygon fill="white" stroke="black" points="197.5,-7 197.5,-41 312.5,-41 312.5,-7 197.5,-7"/>
<text text-anchor="start" x="205.5" y="-28" font-family="Helvetica,sans-Serif" font-size="10.00">source/main/main_sim</text>
<text text-anchor="middle" x="255" y="-15" font-family="Helvetica,sans-Serif" font-size="10.00">/MainThread.cpp</text>
</a>
</g>
<!-- Node1&#45;&gt;Node3 -->
<g id="edge4" class="edge"><title>Node1&#45;&gt;Node3</title>
<path fill="none" stroke="midnightblue" d="M421.138,-81.8142C390.882,-71.8309 353.967,-59.486 321,-48 314.668,-45.7937 308.01,-43.4276 301.458,-41.0723"/>
<polygon fill="midnightblue" stroke="midnightblue" points="420.121,-85.1641 430.714,-84.9685 422.311,-78.5155 420.121,-85.1641"/>
</g>
<!-- Node4 -->
<g id="node7" class="node"><title>Node4</title>
<a xlink:href="_rig_editor___rig_8cpp.html" target="_top" xlink:title="source/main/rig_editor\l/rig_data/RigEditor_Rig.cpp">
<polygon fill="white" stroke="black" points="329.5,-7 329.5,-41 466.5,-41 466.5,-7 329.5,-7"/>
<text text-anchor="start" x="337.5" y="-28" font-family="Helvetica,sans-Serif" font-size="10.00">source/main/rig_editor</text>
<text text-anchor="middle" x="398" y="-15" font-family="Helvetica,sans-Serif" font-size="10.00">/rig_data/RigEditor_Rig.cpp</text>
</a>
</g>
<!-- Node1&#45;&gt;Node4 -->
<g id="edge6" class="edge"><title>Node1&#45;&gt;Node4</title>
<path fill="none" stroke="midnightblue" d="M456.474,-77.6587C443.612,-65.8559 428.466,-51.957 416.812,-41.2623"/>
<polygon fill="midnightblue" stroke="midnightblue" points="454.401,-80.5069 464.136,-84.6893 459.134,-75.3493 454.401,-80.5069"/>
</g>
<!-- Node5 -->
<g id="node9" class="node"><title>Node5</title>
<a xlink:href="_rig_editor___highlight_boxes_dynamic_mesh_8cpp.html" target="_top" xlink:title="source/main/rig_editor\l/RigEditor_HighlightBoxesDynamic\lMesh.cpp">
<polygon fill="white" stroke="black" points="484,-0.5 484,-47.5 654,-47.5 654,-0.5 484,-0.5"/>
<text text-anchor="start" x="492" y="-34.5" font-family="Helvetica,sans-Serif" font-size="10.00">source/main/rig_editor</text>
<text text-anchor="start" x="492" y="-21.5" font-family="Helvetica,sans-Serif" font-size="10.00">/RigEditor_HighlightBoxesDynamic</text>
<text text-anchor="middle" x="569" y="-8.5" font-family="Helvetica,sans-Serif" font-size="10.00">Mesh.cpp</text>
</a>
</g>
<!-- Node1&#45;&gt;Node5 -->
<g id="edge8" class="edge"><title>Node1&#45;&gt;Node5</title>
<path fill="none" stroke="midnightblue" d="M509.782,-77.7097C520.298,-68.1713 532.332,-57.2574 542.792,-47.77"/>
<polygon fill="midnightblue" stroke="midnightblue" points="507.142,-75.3786 502.086,-84.6893 511.845,-80.5636 507.142,-75.3786"/>
</g>
<!-- Node6 -->
<g id="node11" class="node"><title>Node6</title>
<a xlink:href="_rig_editor___main_8cpp.html" target="_top" xlink:title="source/main/rig_editor\l/RigEditor_Main.cpp">
<polygon fill="white" stroke="black" points="671.5,-7 671.5,-41 784.5,-41 784.5,-7 671.5,-7"/>
<text text-anchor="start" x="679.5" y="-28" font-family="Helvetica,sans-Serif" font-size="10.00">source/main/rig_editor</text>
<text text-anchor="middle" x="728" y="-15" font-family="Helvetica,sans-Serif" font-size="10.00">/RigEditor_Main.cpp</text>
</a>
</g>
<!-- Node1&#45;&gt;Node6 -->
<g id="edge10" class="edge"><title>Node1&#45;&gt;Node6</title>
<path fill="none" stroke="midnightblue" d="M549.482,-83.1283C583.581,-73.1779 625.684,-60.4731 663,-48 669.503,-45.8263 676.333,-43.4308 683.021,-41.0199"/>
<polygon fill="midnightblue" stroke="midnightblue" points="548.256,-79.8396 539.63,-85.9915 550.21,-86.5615 548.256,-79.8396"/>
</g>
<!-- Node7 -->
<g id="node13" class="node"><title>Node7</title>
<a xlink:href="_rig_editor___rig_wheel_visuals_8cpp.html" target="_top" xlink:title="source/main/rig_editor\l/RigEditor_RigWheelVisuals.cpp">
<polygon fill="white" stroke="black" points="801.5,-7 801.5,-41 960.5,-41 960.5,-7 801.5,-7"/>
<text text-anchor="start" x="809.5" y="-28" font-family="Helvetica,sans-Serif" font-size="10.00">source/main/rig_editor</text>
<text text-anchor="middle" x="881" y="-15" font-family="Helvetica,sans-Serif" font-size="10.00">/RigEditor_RigWheelVisuals.cpp</text>
</a>
</g>
<!-- Node1&#45;&gt;Node7 -->
<g id="edge12" class="edge"><title>Node1&#45;&gt;Node7</title>
<path fill="none" stroke="midnightblue" d="M549.8,-92.2187C612.823,-82.553 709.786,-66.552 793,-48 802.274,-45.9325 812.034,-43.5157 821.544,-41.027"/>
<polygon fill="midnightblue" stroke="midnightblue" points="548.956,-88.8067 539.598,-93.7734 550.011,-95.7268 548.956,-88.8067"/>
</g>
</g>
</svg>
        <g id="navigator" transform="translate(0 0)" fill="#404254">
                <rect fill="#f2f5e9" fill-opacity="0.5" stroke="#606060" stroke-width=".5" x="0" y="0" width="60" height="60"/>
                <use id="zoomplus" xlink:href="#zoomPlus" x="17" y="9" onmousedown="handleZoom(evt,'in')"/>
                <use id="zoomminus" xlink:href="#zoomMin" x="42" y="9" onmousedown="handleZoom(evt,'out')"/>
                <use id="reset" xlink:href="#resetDef" x="30" y="36" onmousedown="handleReset()"/>
                <g id="arrowUp" xlink:href="#dirArrow" transform="translate(30 24)" onmousedown="handlePan(0,-1)">
                  <use xlink:href="#rim" fill="#404040">
                        <set attributeName="fill" to="#808080" begin="arrowUp.mouseover" end="arrowUp.mouseout"/>
                  </use>
                  <path fill="none" stroke="white" stroke-width="1.5" d="M0,-3.0v7 M-2.5,-0.5L0,-3.0L2.5,-0.5"/>
                </g>
                <g id="arrowRight" xlink:href="#dirArrow" transform="rotate(90) translate(36 -43)" onmousedown="handlePan(1,0)">
                  <use xlink:href="#rim" fill="#404040">
                        <set attributeName="fill" to="#808080" begin="arrowRight.mouseover" end="arrowRight.mouseout"/>
                  </use>
                  <path fill="none" stroke="white" stroke-width="1.5" d="M0,-3.0v7 M-2.5,-0.5L0,-3.0L2.5,-0.5"/>
                </g>
                <g id="arrowDown" xlink:href="#dirArrow" transform="rotate(180) translate(-30 -48)" onmousedown="handlePan(0,1)">
                  <use xlink:href="#rim" fill="#404040">
                        <set attributeName="fill" to="#808080" begin="arrowDown.mouseover" end="arrowDown.mouseout"/>
                  </use>
                  <path fill="none" stroke="white" stroke-width="1.5" d="M0,-3.0v7 M-2.5,-0.5L0,-3.0L2.5,-0.5"/>
                </g>
                <g id="arrowLeft" xlink:href="#dirArrow" transform="rotate(270) translate(-36 17)" onmousedown="handlePan(-1,0)">
                  <use xlink:href="#rim" fill="#404040">
                        <set attributeName="fill" to="#808080" begin="arrowLeft.mouseover" end="arrowLeft.mouseout"/>
                  </use>
                  <path fill="none" stroke="white" stroke-width="1.5" d="M0,-3.0v7 M-2.5,-0.5L0,-3.0L2.5,-0.5"/>
                </g>
        </g>
        <svg viewBox="0 0 15 15" width="100%" height="30px" preserveAspectRatio="xMaxYMin meet">
         <g id="arrow_out" transform="scale(0.3 0.3)">
          <a xlink:href="_rig_editor___main_8h__dep__incl_org.svg" target="_base">
           <rect id="button" ry="5" rx="5" y="6" x="6" height="38" width="38"
                fill="#f2f5e9" fill-opacity="0.5" stroke="#606060" stroke-width="1.0"/>
           <path id="arrow"
             d="M 11.500037,31.436501 C 11.940474,20.09759 22.043105,11.32322 32.158766,21.979434 L 37.068811,17.246167 C 37.068811,17.246167 37.088388,32 37.088388,32 L 22.160133,31.978069 C 22.160133,31.978069 26.997745,27.140456 26.997745,27.140456 C 18.528582,18.264221 13.291696,25.230495 11.500037,31.436501 z"
             style="fill:#404040;"/>
          </a>
         </g>
        </svg>
</svg>
