<?xml version="1.0" encoding="UTF-8" standalone="no"?>
<!DOCTYPE svg PUBLIC "-//W3C//DTD SVG 1.1//EN"
 "http://www.w3.org/Graphics/SVG/1.1/DTD/svg11.dtd">
<!-- Generated by graphviz version 2.26.3 (20100126.1600)
 -->
<!-- Title: source/main/rig_editor/rig_data/RigEditor_LandVehicleWheel.h Pages: 1 -->
<svg width="1020pt" height="224pt"
 viewBox="0.00 0.00 1020.00 224.00" xmlns="http://www.w3.org/2000/svg" xmlns:xlink="http://www.w3.org/1999/xlink">
<g id="graph1" class="graph" transform="scale(1 1) rotate(0) translate(4 220)">
<title>source/main/rig_editor/rig_data/RigEditor_LandVehicleWheel.h</title>
<polygon fill="white" stroke="white" points="-4,5 -4,-220 1017,-220 1017,5 -4,5"/>
<!-- Node1 -->
<g id="node1" class="node"><title>Node1</title>
<polygon fill="#bfbfbf" stroke="black" points="411,-168.5 411,-215.5 567,-215.5 567,-168.5 411,-168.5"/>
<text text-anchor="start" x="419" y="-202.5" font-family="Helvetica,sans-Serif" font-size="10.00">source/main/rig_editor</text>
<text text-anchor="start" x="419" y="-189.5" font-family="Helvetica,sans-Serif" font-size="10.00">/rig_data/RigEditor_LandVehicle</text>
<text text-anchor="middle" x="489" y="-176.5" font-family="Helvetica,sans-Serif" font-size="10.00">Wheel.h</text>
</g>
<!-- Node2 -->
<g id="node3" class="node"><title>Node2</title>
<a xlink:href="_rig_editor___flex_body_wheel_8h.html" target="_top" xlink:title="source/main/rig_editor\l/rig_data/RigEditor_FlexBody\lWheel.h">
<polygon fill="white" stroke="black" points="114,-84.5 114,-131.5 258,-131.5 258,-84.5 114,-84.5"/>
<text text-anchor="start" x="122" y="-118.5" font-family="Helvetica,sans-Serif" font-size="10.00">source/main/rig_editor</text>
<text text-anchor="start" x="122" y="-105.5" font-family="Helvetica,sans-Serif" font-size="10.00">/rig_data/RigEditor_FlexBody</text>
<text text-anchor="middle" x="186" y="-92.5" font-family="Helvetica,sans-Serif" font-size="10.00">Wheel.h</text>
</a>
</g>
<!-- Node1&#45;&gt;Node2 -->
<g id="edge2" class="edge"><title>Node1&#45;&gt;Node2</title>
<path fill="none" stroke="midnightblue" d="M401.036,-167.729C361.573,-156.828 314.444,-143.79 272,-132 267.519,-130.755 262.908,-129.473 258.258,-128.178"/>
<polygon fill="midnightblue" stroke="midnightblue" points="400.326,-171.164 410.896,-170.453 402.189,-164.417 400.326,-171.164"/>
</g>
<!-- Node5 -->
<g id="node9" class="node"><title>Node5</title>
<a xlink:href="_rig_editor___rig_wheels_aggregate_data_8cpp.html" target="_top" xlink:title="source/main/rig_editor\l/RigEditor_RigWheelsAggregate\lData.cpp">
<polygon fill="white" stroke="black" points="162,-0.5 162,-47.5 320,-47.5 320,-0.5 162,-0.5"/>
<text text-anchor="start" x="170" y="-34.5" font-family="Helvetica,sans-Serif" font-size="10.00">source/main/rig_editor</text>
<text text-anchor="start" x="170" y="-21.5" font-family="Helvetica,sans-Serif" font-size="10.00">/RigEditor_RigWheelsAggregate</text>
<text text-anchor="middle" x="241" y="-8.5" font-family="Helvetica,sans-Serif" font-size="10.00">Data.cpp</text>
</a>
</g>
<!-- Node1&#45;&gt;Node5 -->
<g id="edge30" class="edge"><title>Node1&#45;&gt;Node5</title>
<path fill="none" stroke="midnightblue" d="M400.899,-176.943C368.208,-168.031 332.446,-153.992 305,-132 290.458,-120.348 266.787,-76.0744 252.672,-47.9588"/>
<polygon fill="midnightblue" stroke="midnightblue" points="400.374,-180.423 410.933,-179.548 402.133,-173.648 400.374,-180.423"/>
</g>
<!-- Node6 -->
<g id="node11" class="node"><title>Node6</title>
<a xlink:href="_rig_editor___land_vehicle_wheel_8cpp.html" target="_top" xlink:title="source/main/rig_editor\l/rig_data/RigEditor_LandVehicle\lWheel.cpp">
<polygon fill="white" stroke="black" points="680,-84.5 680,-131.5 836,-131.5 836,-84.5 680,-84.5"/>
<text text-anchor="start" x="688" y="-118.5" font-family="Helvetica,sans-Serif" font-size="10.00">source/main/rig_editor</text>
<text text-anchor="start" x="688" y="-105.5" font-family="Helvetica,sans-Serif" font-size="10.00">/rig_data/RigEditor_LandVehicle</text>
<text text-anchor="middle" x="758" y="-92.5" font-family="Helvetica,sans-Serif" font-size="10.00">Wheel.cpp</text>
</a>
</g>
<!-- Node1&#45;&gt;Node6 -->
<g id="edge10" class="edge"><title>Node1&#45;&gt;Node6</title>
<path fill="none" stroke="midnightblue" d="M573.982,-165.463C608.867,-154.569 648.918,-142.063 682.729,-131.505"/>
<polygon fill="midnightblue" stroke="midnightblue" points="572.791,-162.168 564.289,-168.49 574.878,-168.85 572.791,-162.168"/>
</g>
<!-- Node7 -->
<g id="node13" class="node"><title>Node7</title>
<a xlink:href="_rig_editor___mesh_wheel_8h.html" target="_top" xlink:title="source/main/rig_editor\l/rig_data/RigEditor_MeshWheel.h">
<polygon fill="white" stroke="black" points="499.5,-91 499.5,-125 662.5,-125 662.5,-91 499.5,-91"/>
<text text-anchor="start" x="507.5" y="-112" font-family="Helvetica,sans-Serif" font-size="10.00">source/main/rig_editor</text>
<text text-anchor="middle" x="581" y="-99" font-family="Helvetica,sans-Serif" font-size="10.00">/rig_data/RigEditor_MeshWheel.h</text>
</a>
</g>
<!-- Node1&#45;&gt;Node7 -->
<g id="edge12" class="edge"><title>Node1&#45;&gt;Node7</title>
<path fill="none" stroke="midnightblue" d="M522.735,-161.198C536.025,-149.064 550.789,-135.584 562.129,-125.23"/>
<polygon fill="midnightblue" stroke="midnightblue" points="520.142,-158.826 515.117,-168.154 524.862,-163.996 520.142,-158.826"/>
</g>
<!-- Node10 -->
<g id="node21" class="node"><title>Node10</title>
<a xlink:href="_rig_editor___mesh_wheel2_8h.html" target="_top" xlink:title="source/main/rig_editor\l/rig_data/RigEditor_MeshWheel2.h">
<polygon fill="white" stroke="black" points="314,-91 314,-125 482,-125 482,-91 314,-91"/>
<text text-anchor="start" x="322" y="-112" font-family="Helvetica,sans-Serif" font-size="10.00">source/main/rig_editor</text>
<text text-anchor="middle" x="398" y="-99" font-family="Helvetica,sans-Serif" font-size="10.00">/rig_data/RigEditor_MeshWheel2.h</text>
</a>
</g>
<!-- Node1&#45;&gt;Node10 -->
<g id="edge22" class="edge"><title>Node1&#45;&gt;Node10</title>
<path fill="none" stroke="midnightblue" d="M455.632,-161.198C442.486,-149.064 427.883,-135.584 416.666,-125.23"/>
<polygon fill="midnightblue" stroke="midnightblue" points="453.444,-163.943 463.166,-168.154 458.192,-158.799 453.444,-163.943"/>
</g>
<!-- Node11 -->
<g id="node27" class="node"><title>Node11</title>
<a xlink:href="_rig_editor___rig_wheel_visuals_8cpp.html" target="_top" xlink:title="source/main/rig_editor\l/RigEditor_RigWheelVisuals.cpp">
<polygon fill="white" stroke="black" points="853.5,-91 853.5,-125 1012.5,-125 1012.5,-91 853.5,-91"/>
<text text-anchor="start" x="861.5" y="-112" font-family="Helvetica,sans-Serif" font-size="10.00">source/main/rig_editor</text>
<text text-anchor="middle" x="933" y="-99" font-family="Helvetica,sans-Serif" font-size="10.00">/RigEditor_RigWheelVisuals.cpp</text>
</a>
</g>
<!-- Node1&#45;&gt;Node11 -->
<g id="edge32" class="edge"><title>Node1&#45;&gt;Node11</title>
<path fill="none" stroke="midnightblue" d="M577.195,-179.627C649.523,-168.884 754.383,-151.942 845,-132 854.279,-129.958 864.043,-127.555 873.554,-125.072"/>
<polygon fill="midnightblue" stroke="midnightblue" points="576.591,-176.178 567.21,-181.101 577.614,-183.103 576.591,-176.178"/>
</g>
<!-- Node3 -->
<g id="node5" class="node"><title>Node3</title>
<a xlink:href="_rig_editor___flex_body_wheel_8cpp.html" target="_top" xlink:title="source/main/rig_editor\l/rig_data/RigEditor_FlexBody\lWheel.cpp">
<polygon fill="white" stroke="black" points="0,-0.5 0,-47.5 144,-47.5 144,-0.5 0,-0.5"/>
<text text-anchor="start" x="8" y="-34.5" font-family="Helvetica,sans-Serif" font-size="10.00">source/main/rig_editor</text>
<text text-anchor="start" x="8" y="-21.5" font-family="Helvetica,sans-Serif" font-size="10.00">/rig_data/RigEditor_FlexBody</text>
<text text-anchor="middle" x="72" y="-8.5" font-family="Helvetica,sans-Serif" font-size="10.00">Wheel.cpp</text>
</a>
</g>
<!-- Node2&#45;&gt;Node3 -->
<g id="edge4" class="edge"><title>Node2&#45;&gt;Node3</title>
<path fill="none" stroke="midnightblue" d="M145.685,-78.2946C132.088,-68.2752 117.101,-57.2321 104.213,-47.736"/>
<polygon fill="midnightblue" stroke="midnightblue" points="143.814,-81.2634 153.941,-84.3778 147.967,-75.628 143.814,-81.2634"/>
</g>
<!-- Node4 -->
<g id="node7" class="node"><title>Node4</title>
<a xlink:href="_rig_editor___rig_8cpp.html" target="_top" xlink:title="source/main/rig_editor\l/rig_data/RigEditor_Rig.cpp">
<polygon fill="white" stroke="black" points="337.5,-7 337.5,-41 474.5,-41 474.5,-7 337.5,-7"/>
<text text-anchor="start" x="345.5" y="-28" font-family="Helvetica,sans-Serif" font-size="10.00">source/main/rig_editor</text>
<text text-anchor="middle" x="406" y="-15" font-family="Helvetica,sans-Serif" font-size="10.00">/rig_data/RigEditor_Rig.cpp</text>
</a>
</g>
<!-- Node2&#45;&gt;Node4 -->
<g id="edge6" class="edge"><title>Node2&#45;&gt;Node4</title>
<path fill="none" stroke="midnightblue" d="M257.062,-80.8674C291.286,-67.7998 331.285,-52.5277 361.208,-41.1023"/>
<polygon fill="midnightblue" stroke="midnightblue" points="255.669,-77.6528 247.575,-84.4896 258.165,-84.1923 255.669,-77.6528"/>
</g>
<!-- Node2&#45;&gt;Node5 -->
<g id="edge8" class="edge"><title>Node2&#45;&gt;Node5</title>
<path fill="none" stroke="midnightblue" d="M207.274,-75.5084C213.359,-66.2154 219.873,-56.267 225.538,-47.6152"/>
<polygon fill="midnightblue" stroke="midnightblue" points="204.163,-73.8702 201.614,-84.1537 210.02,-77.7047 204.163,-73.8702"/>
</g>
<!-- Node7&#45;&gt;Node4 -->
<g id="edge18" class="edge"><title>Node7&#45;&gt;Node4</title>
<path fill="none" stroke="midnightblue" d="M535.943,-86.3726C506.556,-72.2667 468.74,-54.1151 441.489,-41.0346"/>
<polygon fill="midnightblue" stroke="midnightblue" points="534.634,-89.6266 545.164,-90.7986 537.663,-83.3159 534.634,-89.6266"/>
</g>
<!-- Node7&#45;&gt;Node5 -->
<g id="edge20" class="edge"><title>Node7&#45;&gt;Node5</title>
<path fill="none" stroke="midnightblue" d="M508.307,-88.3361C502.459,-86.8393 496.636,-85.3769 491,-84 419.351,-66.494 400.599,-65.7083 329,-48 326.079,-47.2776 323.107,-46.5303 320.108,-45.7656"/>
<polygon fill="midnightblue" stroke="midnightblue" points="507.586,-91.7646 518.144,-90.8785 509.338,-84.9873 507.586,-91.7646"/>
</g>
<!-- Node8 -->
<g id="node15" class="node"><title>Node8</title>
<a xlink:href="_rig_editor___mesh_wheel_8cpp.html" target="_top" xlink:title="source/main/rig_editor\l/rig_data/RigEditor_MeshWheel.cpp">
<polygon fill="white" stroke="black" points="687.5,-7 687.5,-41 860.5,-41 860.5,-7 687.5,-7"/>
<text text-anchor="start" x="695.5" y="-28" font-family="Helvetica,sans-Serif" font-size="10.00">source/main/rig_editor</text>
<text text-anchor="middle" x="774" y="-15" font-family="Helvetica,sans-Serif" font-size="10.00">/rig_data/RigEditor_MeshWheel.cpp</text>
</a>
</g>
<!-- Node7&#45;&gt;Node8 -->
<g id="edge14" class="edge"><title>Node7&#45;&gt;Node8</title>
<path fill="none" stroke="midnightblue" d="M629.852,-86.738C662.378,-72.5814 704.547,-54.2283 734.861,-41.0346"/>
<polygon fill="midnightblue" stroke="midnightblue" points="628.295,-83.5986 620.522,-90.7986 631.088,-90.0171 628.295,-83.5986"/>
</g>
<!-- Node9 -->
<g id="node17" class="node"><title>Node9</title>
<a xlink:href="_rig_editor___mesh_wheel2_8cpp.html" target="_top" xlink:title="source/main/rig_editor\l/rig_data/RigEditor_MeshWheel2.cpp">
<polygon fill="white" stroke="black" points="491.5,-7 491.5,-41 670.5,-41 670.5,-7 491.5,-7"/>
<text text-anchor="start" x="499.5" y="-28" font-family="Helvetica,sans-Serif" font-size="10.00">source/main/rig_editor</text>
<text text-anchor="middle" x="581" y="-15" font-family="Helvetica,sans-Serif" font-size="10.00">/rig_data/RigEditor_MeshWheel2.cpp</text>
</a>
</g>
<!-- Node7&#45;&gt;Node9 -->
<g id="edge16" class="edge"><title>Node7&#45;&gt;Node9</title>
<path fill="none" stroke="midnightblue" d="M581,-80.3304C581,-67.3804 581,-52.3652 581,-41.0952"/>
<polygon fill="midnightblue" stroke="midnightblue" points="577.5,-80.5951 581,-90.5951 584.5,-80.5952 577.5,-80.5951"/>
</g>
<!-- Node10&#45;&gt;Node4 -->
<g id="edge26" class="edge"><title>Node10&#45;&gt;Node4</title>
<path fill="none" stroke="midnightblue" d="M400.635,-80.3304C401.869,-67.3804 403.299,-52.3652 404.372,-41.0952"/>
<polygon fill="midnightblue" stroke="midnightblue" points="397.122,-80.3083 399.658,-90.5951 404.09,-80.9721 397.122,-80.3083"/>
</g>
<!-- Node10&#45;&gt;Node5 -->
<g id="edge28" class="edge"><title>Node10&#45;&gt;Node5</title>
<path fill="none" stroke="midnightblue" d="M357.028,-86.0787C334.906,-74.2426 307.584,-59.6244 285.011,-47.5471"/>
<polygon fill="midnightblue" stroke="midnightblue" points="355.381,-89.1671 365.85,-90.7986 358.684,-82.995 355.381,-89.1671"/>
</g>
<!-- Node10&#45;&gt;Node9 -->
<g id="edge24" class="edge"><title>Node10&#45;&gt;Node9</title>
<path fill="none" stroke="midnightblue" d="M444.718,-86.5555C475.505,-72.424 515.269,-54.1717 543.889,-41.0346"/>
<polygon fill="midnightblue" stroke="midnightblue" points="443.103,-83.446 435.474,-90.7986 446.023,-89.8078 443.103,-83.446"/>
</g>
</g>
</svg>
