<?xml version="1.0" encoding="UTF-8" standalone="no"?>
<!DOCTYPE svg PUBLIC "-//W3C//DTD SVG 1.1//EN"
 "http://www.w3.org/Graphics/SVG/1.1/DTD/svg11.dtd">
<!-- Generated by graphviz version 2.26.3 (20100126.1600)
 -->
<!-- Title: G Pages: 1 -->
<!--zoomable 146 -->
<svg id="main" version="1.1" xmlns="http://www.w3.org/2000/svg" xmlns:xlink="http://www.w3.org/1999/xlink" xml:space="preserve" onload="init(evt)">
        <defs>
                <circle id="rim" cx="0" cy="0" r="7"/>
                <circle id="rim2" cx="0" cy="0" r="3.5"/>
                <g id="zoomPlus">
                        <use xlink:href="#rim" fill="#404040">
                                <set attributeName="fill" to="#808080" begin="zoomplus.mouseover" end="zoomplus.mouseout"/>
                        </use>
                        <path d="M-4,0h8M0,-4v8" fill="none" stroke="white" stroke-width="1.5" pointer-events="none"/>
                </g>
                <g id="zoomMin">
                        <use xlink:href="#rim" fill="#404040">
                                <set attributeName="fill" to="#808080" begin="zoomminus.mouseover" end="zoomminus.mouseout"/>
                        </use>
                        <path d="M-4,0h8" fill="none" stroke="white" stroke-width="1.5" pointer-events="none"/>
                </g>
                <g id="dirArrow">
                        <path fill="none" stroke="white" stroke-width="1.5" d="M0,-3.0v7 M-2.5,-0.5L0,-3.0L2.5,-0.5"/>
                </g>
               <g id="resetDef">
                       <use xlink:href="#rim2" fill="#404040">
                               <set attributeName="fill" to="#808080" begin="reset.mouseover" end="reset.mouseout"/>
                       </use>
               </g>
        </defs>

<script type="text/javascript">
var viewWidth = 2675;
var viewHeight = 146;
var sectionId = 'dynsection-1';
</script>
<script xlink:href="svgpan.js"/>
<svg id="graph" class="graph">
<g id="viewport">
<title>G</title>
<polygon fill="white" stroke="white" points="-4,5 -4,-142 2672,-142 2672,5 -4,5"/>
<!-- Node1 -->
<g id="node1" class="node"><title>Node1</title>
<polygon fill="#bfbfbf" stroke="black" points="1278.5,-116.5 1278.5,-137.5 1561.5,-137.5 1561.5,-116.5 1278.5,-116.5"/>
<text text-anchor="middle" x="1420" y="-124.5" font-family="Helvetica,sans-Serif" font-size="10.00">source/main/rig_editor/RigEditor_RigElementGuiPanelBase.h</text>
</g>
<!-- Node2 -->
<g id="node3" class="node"><title>Node2</title>
<a xlink:href="_g_u_i___rig_editor_beams_panel_8h.html" target="_top" xlink:title="source/main/gui/panels/GUI_RigEditorBeamsPanel.h">
<polygon fill="white" stroke="black" points="151,-58.5 151,-79.5 399,-79.5 399,-58.5 151,-58.5"/>
<text text-anchor="middle" x="275" y="-66.5" font-family="Helvetica,sans-Serif" font-size="10.00">source/main/gui/panels/GUI_RigEditorBeamsPanel.h</text>
</a>
</g>
<!-- Node1&#45;&gt;Node2 -->
<g id="edge2" class="edge"><title>Node1&#45;&gt;Node2</title>
<path fill="none" stroke="midnightblue" d="M1268.1,-121.656C1070.05,-114.297 712.927,-99.6841 408,-80 405.11,-79.8134 402.185,-79.6189 399.235,-79.4175"/>
<polygon fill="midnightblue" stroke="midnightblue" points="1268.16,-125.161 1278.29,-122.034 1268.42,-118.166 1268.16,-125.161"/>
</g>
<!-- Node5 -->
<g id="node9" class="node"><title>Node5</title>
<a xlink:href="_g_u_i___rig_editor_commands2_panel_8h.html" target="_top" xlink:title="source/main/gui/panels/GUI_RigEditorCommands2Panel.h">
<polygon fill="white" stroke="black" points="417,-58.5 417,-79.5 689,-79.5 689,-58.5 417,-58.5"/>
<text text-anchor="middle" x="553" y="-66.5" font-family="Helvetica,sans-Serif" font-size="10.00">source/main/gui/panels/GUI_RigEditorCommands2Panel.h</text>
</a>
</g>
<!-- Node1&#45;&gt;Node5 -->
<g id="edge8" class="edge"><title>Node1&#45;&gt;Node5</title>
<path fill="none" stroke="midnightblue" d="M1267.8,-117.567C1121.66,-108.397 894.702,-93.863 698,-80 695.104,-79.7959 692.175,-79.5879 689.223,-79.3768"/>
<polygon fill="midnightblue" stroke="midnightblue" points="1267.98,-121.085 1278.18,-118.218 1268.42,-114.099 1267.98,-121.085"/>
</g>
<!-- Node7 -->
<g id="node14" class="node"><title>Node7</title>
<a xlink:href="_g_u_i___rig_editor_flex_body_wheels_panel_8h.html" target="_top" xlink:title="source/main/gui/panels/GUI_RigEditorFlexBodyWheelsPanel.h">
<polygon fill="white" stroke="black" points="706.5,-58.5 706.5,-79.5 997.5,-79.5 997.5,-58.5 706.5,-58.5"/>
<text text-anchor="middle" x="852" y="-66.5" font-family="Helvetica,sans-Serif" font-size="10.00">source/main/gui/panels/GUI_RigEditorFlexBodyWheelsPanel.h</text>
</a>
</g>
<!-- Node1&#45;&gt;Node7 -->
<g id="edge14" class="edge"><title>Node1&#45;&gt;Node7</title>
<path fill="none" stroke="midnightblue" d="M1307.05,-115.467C1204.47,-104.992 1054.43,-89.671 955.053,-79.5231"/>
<polygon fill="midnightblue" stroke="midnightblue" points="1306.84,-118.963 1317.14,-116.497 1307.55,-111.999 1306.84,-118.963"/>
</g>
<!-- Node9 -->
<g id="node19" class="node"><title>Node9</title>
<a xlink:href="_g_u_i___rig_editor_hydros_panel_8h.html" target="_top" xlink:title="source/main/gui/panels/GUI_RigEditorHydrosPanel.h">
<polygon fill="white" stroke="black" points="1015,-58.5 1015,-79.5 1263,-79.5 1263,-58.5 1015,-58.5"/>
<text text-anchor="middle" x="1139" y="-66.5" font-family="Helvetica,sans-Serif" font-size="10.00">source/main/gui/panels/GUI_RigEditorHydrosPanel.h</text>
</a>
</g>
<!-- Node1&#45;&gt;Node9 -->
<g id="edge20" class="edge"><title>Node1&#45;&gt;Node9</title>
<path fill="none" stroke="midnightblue" d="M1359.29,-114.47C1308.75,-104.038 1237.61,-89.3535 1189.98,-79.5231"/>
<polygon fill="midnightblue" stroke="midnightblue" points="1358.61,-117.903 1369.11,-116.497 1360.03,-111.047 1358.61,-117.903"/>
</g>
<!-- Node11 -->
<g id="node24" class="node"><title>Node11</title>
<a xlink:href="_g_u_i___rig_editor_mesh_wheels2_panel_8h.html" target="_top" xlink:title="source/main/gui/panels/GUI_RigEditorMeshWheels2Panel.h">
<polygon fill="white" stroke="black" points="1280.5,-58.5 1280.5,-79.5 1559.5,-79.5 1559.5,-58.5 1280.5,-58.5"/>
<text text-anchor="middle" x="1420" y="-66.5" font-family="Helvetica,sans-Serif" font-size="10.00">source/main/gui/panels/GUI_RigEditorMeshWheels2Panel.h</text>
</a>
</g>
<!-- Node1&#45;&gt;Node11 -->
<g id="edge26" class="edge"><title>Node1&#45;&gt;Node11</title>
<path fill="none" stroke="midnightblue" d="M1420,-106.191C1420,-97.1684 1420,-86.9941 1420,-79.5707"/>
<polygon fill="midnightblue" stroke="midnightblue" points="1416.5,-106.362 1420,-116.362 1423.5,-106.362 1416.5,-106.362"/>
</g>
<!-- Node13 -->
<g id="node29" class="node"><title>Node13</title>
<a xlink:href="_g_u_i___rig_editor_node_panel_8h.html" target="_top" xlink:title="source/main/gui/panels/GUI_RigEditorNodePanel.h">
<polygon fill="white" stroke="black" points="1577,-58.5 1577,-79.5 1817,-79.5 1817,-58.5 1577,-58.5"/>
<text text-anchor="middle" x="1697" y="-66.5" font-family="Helvetica,sans-Serif" font-size="10.00">source/main/gui/panels/GUI_RigEditorNodePanel.h</text>
</a>
</g>
<!-- Node1&#45;&gt;Node13 -->
<g id="edge32" class="edge"><title>Node1&#45;&gt;Node13</title>
<path fill="none" stroke="midnightblue" d="M1480.15,-114.404C1529.95,-103.977 1599.89,-89.333 1646.74,-79.5231"/>
<polygon fill="midnightblue" stroke="midnightblue" points="1479.23,-111.021 1470.16,-116.497 1480.67,-117.873 1479.23,-111.021"/>
</g>
<!-- Node15 -->
<g id="node34" class="node"><title>Node15</title>
<a xlink:href="_g_u_i___rig_editor_shocks2_panel_8h.html" target="_top" xlink:title="source/main/gui/panels/GUI_RigEditorShocks2Panel.h">
<polygon fill="white" stroke="black" points="1834.5,-58.5 1834.5,-79.5 2089.5,-79.5 2089.5,-58.5 1834.5,-58.5"/>
<text text-anchor="middle" x="1962" y="-66.5" font-family="Helvetica,sans-Serif" font-size="10.00">source/main/gui/panels/GUI_RigEditorShocks2Panel.h</text>
</a>
</g>
<!-- Node1&#45;&gt;Node15 -->
<g id="edge38" class="edge"><title>Node1&#45;&gt;Node15</title>
<path fill="none" stroke="midnightblue" d="M1528.37,-115.403C1626.24,-104.93 1769.02,-89.6505 1863.66,-79.5231"/>
<polygon fill="midnightblue" stroke="midnightblue" points="1527.72,-111.952 1518.15,-116.497 1528.47,-118.913 1527.72,-111.952"/>
</g>
<!-- Node17 -->
<g id="node39" class="node"><title>Node17</title>
<a xlink:href="_g_u_i___rig_editor_shocks_panel_8h.html" target="_top" xlink:title="source/main/gui/panels/GUI_RigEditorShocksPanel.h">
<polygon fill="white" stroke="black" points="2107,-58.5 2107,-79.5 2357,-79.5 2357,-58.5 2107,-58.5"/>
<text text-anchor="middle" x="2232" y="-66.5" font-family="Helvetica,sans-Serif" font-size="10.00">source/main/gui/panels/GUI_RigEditorShocksPanel.h</text>
</a>
</g>
<!-- Node1&#45;&gt;Node17 -->
<g id="edge44" class="edge"><title>Node1&#45;&gt;Node17</title>
<path fill="none" stroke="midnightblue" d="M1571.76,-117.033C1709.2,-107.875 1917.22,-93.6856 2098,-80 2100.91,-79.7797 2103.85,-79.5548 2106.82,-79.3261"/>
<polygon fill="midnightblue" stroke="midnightblue" points="1571.33,-113.554 1561.58,-117.711 1571.79,-120.538 1571.33,-113.554"/>
</g>
<!-- Node19 -->
<g id="node44" class="node"><title>Node19</title>
<a xlink:href="_rig_editor___rig_element_gui_panel_base_8cpp.html" target="_top" xlink:title="source/main/rig_editor/RigEditor_RigElementGuiPanelBase.cpp">
<polygon fill="white" stroke="black" points="2374.5,-58.5 2374.5,-79.5 2667.5,-79.5 2667.5,-58.5 2374.5,-58.5"/>
<text text-anchor="middle" x="2521" y="-66.5" font-family="Helvetica,sans-Serif" font-size="10.00">source/main/rig_editor/RigEditor_RigElementGuiPanelBase.cpp</text>
</a>
</g>
<!-- Node1&#45;&gt;Node19 -->
<g id="edge50" class="edge"><title>Node1&#45;&gt;Node19</title>
<path fill="none" stroke="midnightblue" d="M1572.06,-120.439C1759.01,-112.144 2085.96,-96.8917 2366,-80 2368.69,-79.8376 2371.41,-79.671 2374.15,-79.501"/>
<polygon fill="midnightblue" stroke="midnightblue" points="1571.72,-116.951 1561.89,-120.89 1572.03,-123.944 1571.72,-116.951"/>
</g>
<!-- Node3 -->
<g id="node5" class="node"><title>Node3</title>
<a xlink:href="_g_u_i___rig_editor_beams_panel_8cpp.html" target="_top" xlink:title="source/main/gui/panels/GUI_RigEditorBeamsPanel.cpp">
<polygon fill="white" stroke="black" points="0,-0.5 0,-21.5 258,-21.5 258,-0.5 0,-0.5"/>
<text text-anchor="middle" x="129" y="-8.5" font-family="Helvetica,sans-Serif" font-size="10.00">source/main/gui/panels/GUI_RigEditorBeamsPanel.cpp</text>
</a>
</g>
<!-- Node2&#45;&gt;Node3 -->
<g id="edge4" class="edge"><title>Node2&#45;&gt;Node3</title>
<path fill="none" stroke="midnightblue" d="M239.132,-54.7509C213.349,-44.5086 179.145,-30.9206 155.736,-21.6212"/>
<polygon fill="midnightblue" stroke="midnightblue" points="237.975,-58.0574 248.561,-58.4966 240.559,-51.5519 237.975,-58.0574"/>
</g>
<!-- Node4 -->
<g id="node7" class="node"><title>Node4</title>
<a xlink:href="_rig_editor___main_8cpp.html" target="_top" xlink:title="source/main/rig_editor/RigEditor_Main.cpp">
<polygon fill="white" stroke="black" points="1171.5,-0.5 1171.5,-21.5 1372.5,-21.5 1372.5,-0.5 1171.5,-0.5"/>
<text text-anchor="middle" x="1272" y="-8.5" font-family="Helvetica,sans-Serif" font-size="10.00">source/main/rig_editor/RigEditor_Main.cpp</text>
</a>
</g>
<!-- Node2&#45;&gt;Node4 -->
<g id="edge6" class="edge"><title>Node2&#45;&gt;Node4</title>
<path fill="none" stroke="midnightblue" d="M409.24,-57.9395C744.905,-36.3578 831.257,-46.6311 1163,-22 1165.75,-21.7958 1168.54,-21.5794 1171.35,-21.353"/>
<polygon fill="midnightblue" stroke="midnightblue" points="408.989,-54.4483 399.236,-58.5873 409.441,-61.4337 408.989,-54.4483"/>
</g>
<!-- Node5&#45;&gt;Node4 -->
<g id="edge12" class="edge"><title>Node5&#45;&gt;Node4</title>
<path fill="none" stroke="midnightblue" d="M699.105,-57.8301C872.217,-44.5824 1140.23,-24.0257 1163,-22 1165.75,-21.7556 1168.53,-21.5036 1171.34,-21.2456"/>
<polygon fill="midnightblue" stroke="midnightblue" points="698.837,-54.3403 689.133,-58.5931 699.371,-61.3199 698.837,-54.3403"/>
</g>
<!-- Node6 -->
<g id="node11" class="node"><title>Node6</title>
<a xlink:href="_g_u_i___rig_editor_commands2_panel_8cpp.html" target="_top" xlink:title="source/main/gui/panels/GUI_RigEditorCommands2Panel.cpp">
<polygon fill="white" stroke="black" points="275.5,-0.5 275.5,-21.5 558.5,-21.5 558.5,-0.5 275.5,-0.5"/>
<text text-anchor="middle" x="417" y="-8.5" font-family="Helvetica,sans-Serif" font-size="10.00">source/main/gui/panels/GUI_RigEditorCommands2Panel.cpp</text>
</a>
</g>
<!-- Node5&#45;&gt;Node6 -->
<g id="edge10" class="edge"><title>Node5&#45;&gt;Node6</title>
<path fill="none" stroke="midnightblue" d="M518.952,-54.4794C495.011,-44.2695 463.518,-30.8386 441.905,-21.6212"/>
<polygon fill="midnightblue" stroke="midnightblue" points="517.8,-57.7932 528.371,-58.4966 520.546,-51.3543 517.8,-57.7932"/>
</g>
<!-- Node7&#45;&gt;Node4 -->
<g id="edge18" class="edge"><title>Node7&#45;&gt;Node4</title>
<path fill="none" stroke="midnightblue" d="M938.056,-57.1161C1013.83,-46.6522 1123.13,-31.5583 1195.8,-21.5231"/>
<polygon fill="midnightblue" stroke="midnightblue" points="937.486,-53.6615 928.059,-58.4966 938.444,-60.5957 937.486,-53.6615"/>
</g>
<!-- Node8 -->
<g id="node16" class="node"><title>Node8</title>
<a xlink:href="_g_u_i___rig_editor_flex_body_wheels_panel_8cpp.html" target="_top" xlink:title="source/main/gui/panels/GUI_RigEditorFlexBodyWheelsPanel.cpp">
<polygon fill="white" stroke="black" points="576,-0.5 576,-21.5 878,-21.5 878,-0.5 576,-0.5"/>
<text text-anchor="middle" x="727" y="-8.5" font-family="Helvetica,sans-Serif" font-size="10.00">source/main/gui/panels/GUI_RigEditorFlexBodyWheelsPanel.cpp</text>
</a>
</g>
<!-- Node7&#45;&gt;Node8 -->
<g id="edge16" class="edge"><title>Node7&#45;&gt;Node8</title>
<path fill="none" stroke="midnightblue" d="M820.117,-54.2064C798.188,-44.031 769.579,-30.7567 749.891,-21.6212"/>
<polygon fill="midnightblue" stroke="midnightblue" points="818.819,-57.4625 829.363,-58.4966 821.766,-51.1127 818.819,-57.4625"/>
</g>
<!-- Node9&#45;&gt;Node4 -->
<g id="edge24" class="edge"><title>Node9&#45;&gt;Node4</title>
<path fill="none" stroke="midnightblue" d="M1172.3,-54.4794C1195.71,-44.2695 1226.51,-30.8386 1247.64,-21.6212"/>
<polygon fill="midnightblue" stroke="midnightblue" points="1170.85,-51.291 1163.09,-58.4966 1173.65,-57.7075 1170.85,-51.291"/>
</g>
<!-- Node10 -->
<g id="node21" class="node"><title>Node10</title>
<a xlink:href="_g_u_i___rig_editor_hydros_panel_8cpp.html" target="_top" xlink:title="source/main/gui/panels/GUI_RigEditorHydrosPanel.cpp">
<polygon fill="white" stroke="black" points="895.5,-0.5 895.5,-21.5 1154.5,-21.5 1154.5,-0.5 895.5,-0.5"/>
<text text-anchor="middle" x="1025" y="-8.5" font-family="Helvetica,sans-Serif" font-size="10.00">source/main/gui/panels/GUI_RigEditorHydrosPanel.cpp</text>
</a>
</g>
<!-- Node9&#45;&gt;Node10 -->
<g id="edge22" class="edge"><title>Node9&#45;&gt;Node10</title>
<path fill="none" stroke="midnightblue" d="M1109.38,-53.9319C1089.46,-43.7932 1063.67,-30.6748 1045.88,-21.6212"/>
<polygon fill="midnightblue" stroke="midnightblue" points="1107.86,-57.0815 1118.36,-58.4966 1111.03,-50.8425 1107.86,-57.0815"/>
</g>
<!-- Node11&#45;&gt;Node4 -->
<g id="edge30" class="edge"><title>Node11&#45;&gt;Node4</title>
<path fill="none" stroke="midnightblue" d="M1383.64,-54.7509C1357.5,-44.5086 1322.83,-30.9206 1299.1,-21.6212"/>
<polygon fill="midnightblue" stroke="midnightblue" points="1382.61,-58.1065 1393.2,-58.4966 1385.16,-51.5891 1382.61,-58.1065"/>
</g>
<!-- Node12 -->
<g id="node26" class="node"><title>Node12</title>
<a xlink:href="_g_u_i___rig_editor_mesh_wheels2_panel_8cpp.html" target="_top" xlink:title="source/main/gui/panels/GUI_RigEditorMeshWheels2Panel.cpp">
<polygon fill="white" stroke="black" points="1390,-0.5 1390,-21.5 1680,-21.5 1680,-0.5 1390,-0.5"/>
<text text-anchor="middle" x="1535" y="-8.5" font-family="Helvetica,sans-Serif" font-size="10.00">source/main/gui/panels/GUI_RigEditorMeshWheels2Panel.cpp</text>
</a>
</g>
<!-- Node11&#45;&gt;Node12 -->
<g id="edge28" class="edge"><title>Node11&#45;&gt;Node12</title>
<path fill="none" stroke="midnightblue" d="M1449.88,-53.9319C1469.98,-43.7932 1495.99,-30.6748 1513.94,-21.6212"/>
<polygon fill="midnightblue" stroke="midnightblue" points="1448.18,-50.8684 1440.83,-58.4966 1451.33,-57.1185 1448.18,-50.8684"/>
</g>
<!-- Node13&#45;&gt;Node4 -->
<g id="edge36" class="edge"><title>Node13&#45;&gt;Node4</title>
<path fill="none" stroke="midnightblue" d="M1609.92,-57.1161C1533.24,-46.6522 1422.64,-31.5583 1349.11,-21.5231"/>
<polygon fill="midnightblue" stroke="midnightblue" points="1609.65,-60.6122 1620.04,-58.4966 1610.6,-53.6765 1609.65,-60.6122"/>
</g>
<!-- Node14 -->
<g id="node31" class="node"><title>Node14</title>
<a xlink:href="_g_u_i___rig_editor_node_panel_8cpp.html" target="_top" xlink:title="source/main/gui/panels/GUI_RigEditorNodePanel.cpp">
<polygon fill="white" stroke="black" points="1697.5,-0.5 1697.5,-21.5 1948.5,-21.5 1948.5,-0.5 1697.5,-0.5"/>
<text text-anchor="middle" x="1823" y="-8.5" font-family="Helvetica,sans-Serif" font-size="10.00">source/main/gui/panels/GUI_RigEditorNodePanel.cpp</text>
</a>
</g>
<!-- Node13&#45;&gt;Node14 -->
<g id="edge34" class="edge"><title>Node13&#45;&gt;Node14</title>
<path fill="none" stroke="midnightblue" d="M1729.14,-54.2064C1751.24,-44.031 1780.08,-30.7567 1799.93,-21.6212"/>
<polygon fill="midnightblue" stroke="midnightblue" points="1727.44,-51.1358 1719.82,-58.4966 1730.36,-57.4945 1727.44,-51.1358"/>
</g>
<!-- Node15&#45;&gt;Node4 -->
<g id="edge42" class="edge"><title>Node15&#45;&gt;Node4</title>
<path fill="none" stroke="midnightblue" d="M1824.04,-57.8443C1652.66,-43.9844 1382.38,-22.1251 1381,-22 1378.25,-21.7503 1375.47,-21.4937 1372.66,-21.2316"/>
<polygon fill="midnightblue" stroke="midnightblue" points="1823.92,-61.3452 1834.17,-58.6628 1824.48,-54.368 1823.92,-61.3452"/>
</g>
<!-- Node16 -->
<g id="node36" class="node"><title>Node16</title>
<a xlink:href="_g_u_i___rig_editor_shocks2_panel_8cpp.html" target="_top" xlink:title="source/main/gui/panels/GUI_RigEditorShocks2Panel.cpp">
<polygon fill="white" stroke="black" points="1966,-0.5 1966,-21.5 2232,-21.5 2232,-0.5 1966,-0.5"/>
<text text-anchor="middle" x="2099" y="-8.5" font-family="Helvetica,sans-Serif" font-size="10.00">source/main/gui/panels/GUI_RigEditorShocks2Panel.cpp</text>
</a>
</g>
<!-- Node15&#45;&gt;Node16 -->
<g id="edge40" class="edge"><title>Node15&#45;&gt;Node16</title>
<path fill="none" stroke="midnightblue" d="M1996.3,-54.4794C2020.42,-44.2695 2052.14,-30.8386 2073.91,-21.6212"/>
<polygon fill="midnightblue" stroke="midnightblue" points="1994.65,-51.3749 1986.81,-58.4966 1997.38,-57.821 1994.65,-51.3749"/>
</g>
<!-- Node17&#45;&gt;Node4 -->
<g id="edge48" class="edge"><title>Node17&#45;&gt;Node4</title>
<path fill="none" stroke="midnightblue" d="M2096.84,-57.9422C1777.95,-37.1279 1695.9,-45.7797 1381,-22 1378.25,-21.7923 1375.46,-21.5729 1372.65,-21.3437"/>
<polygon fill="midnightblue" stroke="midnightblue" points="2096.62,-61.4352 2106.83,-58.5987 2097.08,-54.4503 2096.62,-61.4352"/>
</g>
<!-- Node18 -->
<g id="node41" class="node"><title>Node18</title>
<a xlink:href="_g_u_i___rig_editor_shocks_panel_8cpp.html" target="_top" xlink:title="source/main/gui/panels/GUI_RigEditorShocksPanel.cpp">
<polygon fill="white" stroke="black" points="2250,-0.5 2250,-21.5 2510,-21.5 2510,-0.5 2250,-0.5"/>
<text text-anchor="middle" x="2380" y="-8.5" font-family="Helvetica,sans-Serif" font-size="10.00">source/main/gui/panels/GUI_RigEditorShocksPanel.cpp</text>
</a>
</g>
<!-- Node17&#45;&gt;Node18 -->
<g id="edge46" class="edge"><title>Node17&#45;&gt;Node18</title>
<path fill="none" stroke="midnightblue" d="M2268.36,-54.7509C2294.5,-44.5086 2329.17,-30.9206 2352.9,-21.6212"/>
<polygon fill="midnightblue" stroke="midnightblue" points="2266.84,-51.5891 2258.8,-58.4966 2269.39,-58.1065 2266.84,-51.5891"/>
</g>
</g>
</svg>
        <g id="navigator" transform="translate(0 0)" fill="#404254">
                <rect fill="#f2f5e9" fill-opacity="0.5" stroke="#606060" stroke-width=".5" x="0" y="0" width="60" height="60"/>
                <use id="zoomplus" xlink:href="#zoomPlus" x="17" y="9" onmousedown="handleZoom(evt,'in')"/>
                <use id="zoomminus" xlink:href="#zoomMin" x="42" y="9" onmousedown="handleZoom(evt,'out')"/>
                <use id="reset" xlink:href="#resetDef" x="30" y="36" onmousedown="handleReset()"/>
                <g id="arrowUp" xlink:href="#dirArrow" transform="translate(30 24)" onmousedown="handlePan(0,-1)">
                  <use xlink:href="#rim" fill="#404040">
                        <set attributeName="fill" to="#808080" begin="arrowUp.mouseover" end="arrowUp.mouseout"/>
                  </use>
                  <path fill="none" stroke="white" stroke-width="1.5" d="M0,-3.0v7 M-2.5,-0.5L0,-3.0L2.5,-0.5"/>
                </g>
                <g id="arrowRight" xlink:href="#dirArrow" transform="rotate(90) translate(36 -43)" onmousedown="handlePan(1,0)">
                  <use xlink:href="#rim" fill="#404040">
                        <set attributeName="fill" to="#808080" begin="arrowRight.mouseover" end="arrowRight.mouseout"/>
                  </use>
                  <path fill="none" stroke="white" stroke-width="1.5" d="M0,-3.0v7 M-2.5,-0.5L0,-3.0L2.5,-0.5"/>
                </g>
                <g id="arrowDown" xlink:href="#dirArrow" transform="rotate(180) translate(-30 -48)" onmousedown="handlePan(0,1)">
                  <use xlink:href="#rim" fill="#404040">
                        <set attributeName="fill" to="#808080" begin="arrowDown.mouseover" end="arrowDown.mouseout"/>
                  </use>
                  <path fill="none" stroke="white" stroke-width="1.5" d="M0,-3.0v7 M-2.5,-0.5L0,-3.0L2.5,-0.5"/>
                </g>
                <g id="arrowLeft" xlink:href="#dirArrow" transform="rotate(270) translate(-36 17)" onmousedown="handlePan(-1,0)">
                  <use xlink:href="#rim" fill="#404040">
                        <set attributeName="fill" to="#808080" begin="arrowLeft.mouseover" end="arrowLeft.mouseout"/>
                  </use>
                  <path fill="none" stroke="white" stroke-width="1.5" d="M0,-3.0v7 M-2.5,-0.5L0,-3.0L2.5,-0.5"/>
                </g>
        </g>
</svg>
