<?xml version="1.0" encoding="UTF-8" standalone="no"?>
<!DOCTYPE svg PUBLIC "-//W3C//DTD SVG 1.1//EN"
 "http://www.w3.org/Graphics/SVG/1.1/DTD/svg11.dtd">
<!-- Generated by graphviz version 2.26.3 (20100126.1600)
 -->
<!-- Title: source/main/rig_editor/rig_data/RigEditor_RigProperties.h Pages: 1 -->
<!--zoomable 276 -->
<svg id="main" version="1.1" xmlns="http://www.w3.org/2000/svg" xmlns:xlink="http://www.w3.org/1999/xlink" xml:space="preserve" onload="init(evt)">
<style type="text/css"><![CDATA[
.edge:hover path { stroke: red; }
.edge:hover polygon { stroke: red; fill: red; }
]]></style>
<script type="text/javascript"><![CDATA[
var edges = document.getElementsByTagName('g');
if (edges && edges.length) {
  for (var i=0;i<edges.length;i++) {
    if (edges[i].id.substr(0,4)=='edge') {
      edges[i].setAttribute('class','edge');
    }
  }
}
]]></script>
        <defs>
                <circle id="rim" cx="0" cy="0" r="7"/>
                <circle id="rim2" cx="0" cy="0" r="3.5"/>
                <g id="zoomPlus">
                        <use xlink:href="#rim" fill="#404040">
                                <set attributeName="fill" to="#808080" begin="zoomplus.mouseover" end="zoomplus.mouseout"/>
                        </use>
                        <path d="M-4,0h8M0,-4v8" fill="none" stroke="white" stroke-width="1.5" pointer-events="none"/>
                </g>
                <g id="zoomMin">
                        <use xlink:href="#rim" fill="#404040">
                                <set attributeName="fill" to="#808080" begin="zoomminus.mouseover" end="zoomminus.mouseout"/>
                        </use>
                        <path d="M-4,0h8" fill="none" stroke="white" stroke-width="1.5" pointer-events="none"/>
                </g>
                <g id="dirArrow">
                        <path fill="none" stroke="white" stroke-width="1.5" d="M0,-3.0v7 M-2.5,-0.5L0,-3.0L2.5,-0.5"/>
                </g>
               <g id="resetDef">
                       <use xlink:href="#rim2" fill="#404040">
                               <set attributeName="fill" to="#808080" begin="reset.mouseover" end="reset.mouseout"/>
                       </use>
               </g>
        </defs>

<script type="text/javascript">
var viewWidth = 2268;
var viewHeight = 276;
var sectionId = 'dynsection-0';
</script>
<script xlink:href="svgpan.js"/>
<svg id="graph" class="graph">
<g id="viewport">
<title>source/main/rig_editor/rig_data/RigEditor_RigProperties.h</title>
<polygon fill="white" stroke="white" points="-4,5 -4,-272 2265,-272 2265,5 -4,5"/>
<!-- Node1 -->
<g id="node1" class="node"><title>Node1</title>
<polygon fill="#bfbfbf" stroke="black" points="288,-233 288,-267 458,-267 458,-233 288,-233"/>
<text text-anchor="start" x="296" y="-254" font-family="Helvetica,sans-Serif" font-size="10.00">source/main/rig_editor</text>
<text text-anchor="middle" x="373" y="-241" font-family="Helvetica,sans-Serif" font-size="10.00">/rig_data/RigEditor_RigProperties.h</text>
</g>
<!-- Node2 -->
<g id="node3" class="node"><title>Node2</title>
<a xlink:href="_rig_def___file_8h.html" target="_top" xlink:title="Structures which represent a rig&#45;definition file (1:1 match) ">
<polygon fill="white" stroke="black" points="334.5,-174.5 334.5,-195.5 411.5,-195.5 411.5,-174.5 334.5,-174.5"/>
<text text-anchor="middle" x="373" y="-182.5" font-family="Helvetica,sans-Serif" font-size="10.00">RigDef_File.h</text>
</a>
</g>
<!-- Node1&#45;&gt;Node2 -->
<g id="edge2" class="edge"><title>Node1&#45;&gt;Node2</title>
<path fill="none" stroke="midnightblue" d="M373,-232.922C373,-224.67 373,-214.692 373,-205.982"/>
<polygon fill="midnightblue" stroke="midnightblue" points="376.5,-205.852 373,-195.852 369.5,-205.852 376.5,-205.852"/>
</g>
<!-- Node6 -->
<g id="node12" class="node"><title>Node6</title>
<a xlink:href="_rig_def___prerequisites_8h.html" target="_top" xlink:title="RigDef_Prerequisites.h">
<polygon fill="white" stroke="black" points="0,-58.5 0,-79.5 118,-79.5 118,-58.5 0,-58.5"/>
<text text-anchor="middle" x="59" y="-66.5" font-family="Helvetica,sans-Serif" font-size="10.00">RigDef_Prerequisites.h</text>
</a>
</g>
<!-- Node1&#45;&gt;Node6 -->
<g id="edge32" class="edge"><title>Node1&#45;&gt;Node6</title>
<path fill="none" stroke="midnightblue" d="M287.872,-234.978C254.561,-226.713 216.991,-214.294 186,-196 137.298,-167.251 93.8579,-115.491 72.6695,-87.7565"/>
<polygon fill="midnightblue" stroke="midnightblue" points="75.3937,-85.5553 66.5935,-79.6555 69.7937,-89.7555 75.3937,-85.5553"/>
</g>
<!-- Node9 -->
<g id="node18" class="node"><title>Node9</title>
<polygon fill="white" stroke="#bfbfbf" points="136,-58.5 136,-79.5 244,-79.5 244,-58.5 136,-58.5"/>
<text text-anchor="middle" x="190" y="-66.5" font-family="Helvetica,sans-Serif" font-size="10.00">boost/shared_ptr.hpp</text>
</g>
<!-- Node1&#45;&gt;Node9 -->
<g id="edge74" class="edge"><title>Node1&#45;&gt;Node9</title>
<path fill="none" stroke="midnightblue" d="M298.467,-232.99C248.662,-217.33 186.825,-188.598 156,-138 145.894,-121.411 158.248,-101.398 170.802,-87.2075"/>
<polygon fill="midnightblue" stroke="midnightblue" points="173.689,-89.2512 178.048,-79.5949 168.619,-84.4249 173.689,-89.2512"/>
</g>
<!-- Node14 -->
<g id="node31" class="node"><title>Node14</title>
<a xlink:href="_rig_editor___forward_declarations_8h.html" target="_top" xlink:title="RigEditor_ForwardDeclarations.h">
<polygon fill="white" stroke="black" points="1280.5,-174.5 1280.5,-195.5 1441.5,-195.5 1441.5,-174.5 1280.5,-174.5"/>
<text text-anchor="middle" x="1361" y="-182.5" font-family="Helvetica,sans-Serif" font-size="10.00">RigEditor_ForwardDeclarations.h</text>
</a>
</g>
<!-- Node1&#45;&gt;Node14 -->
<g id="edge34" class="edge"><title>Node1&#45;&gt;Node14</title>
<path fill="none" stroke="midnightblue" d="M458.039,-246.679C615.971,-240.119 965.474,-223.763 1270.13,-196.127"/>
<polygon fill="midnightblue" stroke="midnightblue" points="1270.85,-199.575 1280.49,-195.181 1270.22,-192.604 1270.85,-199.575"/>
</g>
<!-- Node15 -->
<g id="node33" class="node"><title>Node15</title>
<a xlink:href="_ro_r_prerequisites_8h.html" target="_top" xlink:title="RoRPrerequisites.h">
<polygon fill="white" stroke="black" points="1161,-174.5 1161,-195.5 1263,-195.5 1263,-174.5 1161,-174.5"/>
<text text-anchor="middle" x="1212" y="-182.5" font-family="Helvetica,sans-Serif" font-size="10.00">RoRPrerequisites.h</text>
</a>
</g>
<!-- Node1&#45;&gt;Node15 -->
<g id="edge36" class="edge"><title>Node1&#45;&gt;Node15</title>
<path fill="none" stroke="midnightblue" d="M458.065,-243.41C627.41,-230.29 1003.09,-201.185 1150.72,-189.747"/>
<polygon fill="midnightblue" stroke="midnightblue" points="1151.25,-193.217 1160.95,-188.955 1150.71,-186.238 1151.25,-193.217"/>
</g>
<!-- Node3 -->
<g id="node5" class="node"><title>Node3</title>
<a xlink:href="_bit_flags_8h.html" target="_top" xlink:title="BitFlags.h">
<polygon fill="white" stroke="black" points="341.5,-58.5 341.5,-79.5 402.5,-79.5 402.5,-58.5 341.5,-58.5"/>
<text text-anchor="middle" x="372" y="-66.5" font-family="Helvetica,sans-Serif" font-size="10.00">BitFlags.h</text>
</a>
</g>
<!-- Node2&#45;&gt;Node3 -->
<g id="edge4" class="edge"><title>Node2&#45;&gt;Node3</title>
<path fill="none" stroke="midnightblue" d="M373.717,-174.243C374.528,-160.668 375.657,-136.602 375,-116 374.728,-107.46 374.178,-98.0606 373.622,-89.9263"/>
<polygon fill="midnightblue" stroke="midnightblue" points="377.103,-89.5375 372.887,-79.8179 370.122,-90.0455 377.103,-89.5375"/>
</g>
<!-- Node5 -->
<g id="node9" class="node"><title>Node5</title>
<a xlink:href="_rig_def___node_8h.html" target="_top" xlink:title="RigDef_Node.h">
<polygon fill="white" stroke="black" points="236,-116.5 236,-137.5 320,-137.5 320,-116.5 236,-116.5"/>
<text text-anchor="middle" x="278" y="-124.5" font-family="Helvetica,sans-Serif" font-size="10.00">RigDef_Node.h</text>
</a>
</g>
<!-- Node2&#45;&gt;Node5 -->
<g id="edge8" class="edge"><title>Node2&#45;&gt;Node5</title>
<path fill="none" stroke="midnightblue" d="M355.576,-174.362C341.113,-165.532 320.331,-152.844 303.916,-142.822"/>
<polygon fill="midnightblue" stroke="midnightblue" points="305.673,-139.794 295.314,-137.571 302.025,-145.769 305.673,-139.794"/>
</g>
<!-- Node7 -->
<g id="node14" class="node"><title>Node7</title>
<polygon fill="white" stroke="#bfbfbf" points="420,-58.5 420,-79.5 500,-79.5 500,-58.5 420,-58.5"/>
<text text-anchor="middle" x="460" y="-66.5" font-family="Helvetica,sans-Serif" font-size="10.00">OgreVector3.h</text>
</g>
<!-- Node2&#45;&gt;Node7 -->
<g id="edge28" class="edge"><title>Node2&#45;&gt;Node7</title>
<path fill="none" stroke="midnightblue" d="M381.029,-174.295C395.79,-154.613 427.412,-112.45 445.85,-87.8668"/>
<polygon fill="midnightblue" stroke="midnightblue" points="448.791,-89.7792 451.991,-79.6792 443.191,-85.5792 448.791,-89.7792"/>
</g>
<!-- Node2&#45;&gt;Node9 -->
<g id="edge24" class="edge"><title>Node2&#45;&gt;Node9</title>
<path fill="none" stroke="midnightblue" d="M334.389,-181.914C280.184,-176.69 185.803,-164.028 165,-138 153.296,-123.357 163.302,-102.755 173.93,-87.8797"/>
<polygon fill="midnightblue" stroke="midnightblue" points="176.769,-89.9292 180.1,-79.8715 171.224,-85.657 176.769,-89.9292"/>
</g>
<!-- Node10 -->
<g id="node20" class="node"><title>Node10</title>
<polygon fill="white" stroke="#bfbfbf" points="337.5,-116.5 337.5,-137.5 366.5,-137.5 366.5,-116.5 337.5,-116.5"/>
<text text-anchor="middle" x="352" y="-124.5" font-family="Helvetica,sans-Serif" font-size="10.00">list</text>
</g>
<!-- Node2&#45;&gt;Node10 -->
<g id="edge20" class="edge"><title>Node2&#45;&gt;Node10</title>
<path fill="none" stroke="midnightblue" d="M369.148,-174.362C366.395,-166.758 362.606,-156.294 359.29,-147.135"/>
<polygon fill="midnightblue" stroke="midnightblue" points="362.523,-145.782 355.827,-137.571 355.941,-148.165 362.523,-145.782"/>
</g>
<!-- Node11 -->
<g id="node22" class="node"><title>Node11</title>
<polygon fill="white" stroke="#bfbfbf" points="174,-116.5 174,-137.5 218,-137.5 218,-116.5 174,-116.5"/>
<text text-anchor="middle" x="196" y="-124.5" font-family="Helvetica,sans-Serif" font-size="10.00">vector</text>
</g>
<!-- Node2&#45;&gt;Node11 -->
<g id="edge22" class="edge"><title>Node2&#45;&gt;Node11</title>
<path fill="none" stroke="midnightblue" d="M339.274,-174.454C311.649,-165.747 271.326,-152.881 227.924,-138.257"/>
<polygon fill="midnightblue" stroke="midnightblue" points="228.918,-134.898 218.324,-135.01 226.675,-141.529 228.918,-134.898"/>
</g>
<!-- Node12 -->
<g id="node25" class="node"><title>Node12</title>
<polygon fill="white" stroke="#bfbfbf" points="459.5,-116.5 459.5,-137.5 530.5,-137.5 530.5,-116.5 459.5,-116.5"/>
<text text-anchor="middle" x="495" y="-124.5" font-family="Helvetica,sans-Serif" font-size="10.00">OgreString.h</text>
</g>
<!-- Node2&#45;&gt;Node12 -->
<g id="edge26" class="edge"><title>Node2&#45;&gt;Node12</title>
<path fill="none" stroke="midnightblue" d="M395.093,-174.497C414.234,-165.397 442.146,-152.127 463.605,-141.925"/>
<polygon fill="midnightblue" stroke="midnightblue" points="465.13,-145.076 472.659,-137.621 462.125,-138.754 465.13,-145.076"/>
</g>
<!-- Node13 -->
<g id="node28" class="node"><title>Node13</title>
<polygon fill="white" stroke="#bfbfbf" points="548,-116.5 548,-137.5 662,-137.5 662,-116.5 548,-116.5"/>
<text text-anchor="middle" x="605" y="-124.5" font-family="Helvetica,sans-Serif" font-size="10.00">OgreStringConverter.h</text>
</g>
<!-- Node2&#45;&gt;Node13 -->
<g id="edge30" class="edge"><title>Node2&#45;&gt;Node13</title>
<path fill="none" stroke="midnightblue" d="M411.571,-175.357C450.219,-165.695 509.971,-150.757 552.836,-140.041"/>
<polygon fill="midnightblue" stroke="midnightblue" points="553.947,-143.371 562.799,-137.55 552.249,-136.58 553.947,-143.371"/>
</g>
<!-- Node4 -->
<g id="node7" class="node"><title>Node4</title>
<polygon fill="white" stroke="#bfbfbf" points="349,-0.5 349,-21.5 395,-21.5 395,-0.5 349,-0.5"/>
<text text-anchor="middle" x="372" y="-8.5" font-family="Helvetica,sans-Serif" font-size="10.00">cstdint</text>
</g>
<!-- Node3&#45;&gt;Node4 -->
<g id="edge6" class="edge"><title>Node3&#45;&gt;Node4</title>
<path fill="none" stroke="midnightblue" d="M372,-58.3619C372,-50.9219 372,-40.7427 372,-31.7276"/>
<polygon fill="midnightblue" stroke="midnightblue" points="375.5,-31.5706 372,-21.5707 368.5,-31.5707 375.5,-31.5706"/>
</g>
<!-- Node5&#45;&gt;Node3 -->
<g id="edge10" class="edge"><title>Node5&#45;&gt;Node3</title>
<path fill="none" stroke="midnightblue" d="M295.241,-116.362C309.552,-107.532 330.115,-94.844 346.357,-84.8224"/>
<polygon fill="midnightblue" stroke="midnightblue" points="348.196,-87.8004 354.868,-79.5707 344.52,-81.8431 348.196,-87.8004"/>
</g>
<!-- Node5&#45;&gt;Node6 -->
<g id="edge12" class="edge"><title>Node5&#45;&gt;Node6</title>
<path fill="none" stroke="midnightblue" d="M238.341,-116.497C201.942,-106.857 147.874,-92.5373 108.625,-82.1427"/>
<polygon fill="midnightblue" stroke="midnightblue" points="109.296,-78.6999 98.7336,-79.5231 107.504,-85.4666 109.296,-78.6999"/>
</g>
<!-- Node5&#45;&gt;Node7 -->
<g id="edge14" class="edge"><title>Node5&#45;&gt;Node7</title>
<path fill="none" stroke="midnightblue" d="M310.959,-116.497C340.758,-107 384.809,-92.9619 417.297,-82.6087"/>
<polygon fill="midnightblue" stroke="midnightblue" points="418.514,-85.8942 426.979,-79.5231 416.389,-79.2247 418.514,-85.8942"/>
</g>
<!-- Node8 -->
<g id="node16" class="node"><title>Node8</title>
<polygon fill="white" stroke="#bfbfbf" points="261.5,-58.5 261.5,-79.5 302.5,-79.5 302.5,-58.5 261.5,-58.5"/>
<text text-anchor="middle" x="282" y="-66.5" font-family="Helvetica,sans-Serif" font-size="10.00">string</text>
</g>
<!-- Node5&#45;&gt;Node8 -->
<g id="edge16" class="edge"><title>Node5&#45;&gt;Node8</title>
<path fill="none" stroke="midnightblue" d="M278.734,-116.362C279.247,-108.922 279.949,-98.7427 280.571,-89.7276"/>
<polygon fill="midnightblue" stroke="midnightblue" points="284.075,-89.7878 281.271,-79.5707 277.091,-89.3061 284.075,-89.7878"/>
</g>
<!-- Node5&#45;&gt;Node9 -->
<g id="edge18" class="edge"><title>Node5&#45;&gt;Node9</title>
<path fill="none" stroke="midnightblue" d="M261.859,-116.362C248.586,-107.614 229.568,-95.0786 214.43,-85.1015"/>
<polygon fill="midnightblue" stroke="midnightblue" points="216.314,-82.1515 206.038,-79.5707 212.462,-87.9962 216.314,-82.1515"/>
</g>
<!-- Node15&#45;&gt;Node3 -->
<g id="edge70" class="edge"><title>Node15&#45;&gt;Node3</title>
<path fill="none" stroke="midnightblue" d="M1160.66,-182.994C1049.97,-178.218 792.136,-164.537 709,-138 690.409,-132.066 689.455,-122.346 671,-116 563.698,-79.1036 527.183,-102.526 412.426,-80.0539"/>
<polygon fill="midnightblue" stroke="midnightblue" points="413.055,-76.6104 402.558,-78.0475 411.661,-83.47 413.055,-76.6104"/>
</g>
<!-- Node15&#45;&gt;Node7 -->
<g id="edge56" class="edge"><title>Node15&#45;&gt;Node7</title>
<path fill="none" stroke="midnightblue" d="M1212.55,-174.358C1212.72,-158.81 1210.44,-130.195 1193,-116 1166.52,-94.4527 671.306,-76.0626 510.189,-70.6284"/>
<polygon fill="midnightblue" stroke="midnightblue" points="510.18,-67.1262 500.068,-70.2893 509.945,-74.1223 510.18,-67.1262"/>
</g>
<!-- Node15&#45;&gt;Node12 -->
<g id="edge48" class="edge"><title>Node15&#45;&gt;Node12</title>
<path fill="none" stroke="midnightblue" d="M1160.57,-184.473C1049.08,-182.67 776.766,-174.708 541.047,-138.117"/>
<polygon fill="midnightblue" stroke="midnightblue" points="541.335,-134.62 530.913,-136.523 540.247,-141.535 541.335,-134.62"/>
</g>
<!-- Node15&#45;&gt;Node13 -->
<g id="edge50" class="edge"><title>Node15&#45;&gt;Node13</title>
<path fill="none" stroke="midnightblue" d="M1160.89,-181.651C1065.42,-175.143 853.586,-159.519 676,-138 674.886,-137.865 673.762,-137.726 672.63,-137.583"/>
<polygon fill="midnightblue" stroke="midnightblue" points="672.68,-134.059 662.306,-136.212 671.758,-140.998 672.68,-134.059"/>
</g>
<!-- Node16 -->
<g id="node35" class="node"><title>Node16</title>
<polygon fill="white" stroke="#bfbfbf" points="717.5,-116.5 717.5,-137.5 832.5,-137.5 832.5,-116.5 717.5,-116.5"/>
<text text-anchor="middle" x="775" y="-124.5" font-family="Helvetica,sans-Serif" font-size="10.00">OgreAxisAlignedBox.h</text>
</g>
<!-- Node15&#45;&gt;Node16 -->
<g id="edge38" class="edge"><title>Node15&#45;&gt;Node16</title>
<path fill="none" stroke="midnightblue" d="M1160.9,-179.168C1091.24,-171.075 962.318,-155.594 842.642,-138.203"/>
<polygon fill="midnightblue" stroke="midnightblue" points="842.973,-134.714 832.572,-136.732 841.961,-141.641 842.973,-134.714"/>
</g>
<!-- Node17 -->
<g id="node37" class="node"><title>Node17</title>
<polygon fill="white" stroke="#bfbfbf" points="849.5,-116.5 849.5,-137.5 948.5,-137.5 948.5,-116.5 849.5,-116.5"/>
<text text-anchor="middle" x="899" y="-124.5" font-family="Helvetica,sans-Serif" font-size="10.00">OgreColourValue.h</text>
</g>
<!-- Node15&#45;&gt;Node17 -->
<g id="edge40" class="edge"><title>Node15&#45;&gt;Node17</title>
<path fill="none" stroke="midnightblue" d="M1160.7,-175.625C1111.41,-166.599 1034.54,-152.475 958.855,-138.341"/>
<polygon fill="midnightblue" stroke="midnightblue" points="959.144,-134.835 948.671,-136.438 957.858,-141.715 959.144,-134.835"/>
</g>
<!-- Node18 -->
<g id="node39" class="node"><title>Node18</title>
<polygon fill="white" stroke="#bfbfbf" points="965.5,-116.5 965.5,-137.5 1068.5,-137.5 1068.5,-116.5 965.5,-116.5"/>
<text text-anchor="middle" x="1017" y="-124.5" font-family="Helvetica,sans-Serif" font-size="10.00">OgreHeaderPrefix.h</text>
</g>
<!-- Node15&#45;&gt;Node18 -->
<g id="edge42" class="edge"><title>Node15&#45;&gt;Node18</title>
<path fill="none" stroke="midnightblue" d="M1176.69,-174.497C1144.62,-164.959 1097.15,-150.841 1062.3,-140.475"/>
<polygon fill="midnightblue" stroke="midnightblue" points="1062.96,-137.019 1052.38,-137.523 1060.97,-143.729 1062.96,-137.019"/>
</g>
<!-- Node19 -->
<g id="node41" class="node"><title>Node19</title>
<polygon fill="white" stroke="#bfbfbf" points="1085.5,-116.5 1085.5,-137.5 1184.5,-137.5 1184.5,-116.5 1085.5,-116.5"/>
<text text-anchor="middle" x="1135" y="-124.5" font-family="Helvetica,sans-Serif" font-size="10.00">OgreLogManager.h</text>
</g>
<!-- Node15&#45;&gt;Node19 -->
<g id="edge44" class="edge"><title>Node15&#45;&gt;Node19</title>
<path fill="none" stroke="midnightblue" d="M1197.88,-174.362C1186.48,-165.777 1170.24,-153.546 1157.12,-143.664"/>
<polygon fill="midnightblue" stroke="midnightblue" points="1159.13,-140.792 1149.03,-137.571 1154.92,-146.383 1159.13,-140.792"/>
</g>
<!-- Node20 -->
<g id="node43" class="node"><title>Node20</title>
<polygon fill="white" stroke="#bfbfbf" points="1239.5,-116.5 1239.5,-137.5 1332.5,-137.5 1332.5,-116.5 1239.5,-116.5"/>
<text text-anchor="middle" x="1286" y="-124.5" font-family="Helvetica,sans-Serif" font-size="10.00">OgreQuaternion.h</text>
</g>
<!-- Node15&#45;&gt;Node20 -->
<g id="edge46" class="edge"><title>Node15&#45;&gt;Node20</title>
<path fill="none" stroke="midnightblue" d="M1225.57,-174.362C1236.42,-165.859 1251.83,-153.779 1264.38,-143.947"/>
<polygon fill="midnightblue" stroke="midnightblue" points="1266.8,-146.494 1272.51,-137.571 1262.48,-140.985 1266.8,-146.494"/>
</g>
<!-- Node21 -->
<g id="node47" class="node"><title>Node21</title>
<polygon fill="white" stroke="#bfbfbf" points="1349.5,-116.5 1349.5,-137.5 1440.5,-137.5 1440.5,-116.5 1349.5,-116.5"/>
<text text-anchor="middle" x="1395" y="-124.5" font-family="Helvetica,sans-Serif" font-size="10.00">OgreUTFString.h</text>
</g>
<!-- Node15&#45;&gt;Node21 -->
<g id="edge52" class="edge"><title>Node15&#45;&gt;Node21</title>
<path fill="none" stroke="midnightblue" d="M1245.14,-174.497C1275.1,-165 1319.4,-150.962 1352.06,-140.609"/>
<polygon fill="midnightblue" stroke="midnightblue" points="1353.32,-143.881 1361.8,-137.523 1351.21,-137.208 1353.32,-143.881"/>
</g>
<!-- Node22 -->
<g id="node49" class="node"><title>Node22</title>
<polygon fill="white" stroke="#bfbfbf" points="1458,-116.5 1458,-137.5 1538,-137.5 1538,-116.5 1458,-116.5"/>
<text text-anchor="middle" x="1498" y="-124.5" font-family="Helvetica,sans-Serif" font-size="10.00">OgreVector2.h</text>
</g>
<!-- Node15&#45;&gt;Node22 -->
<g id="edge54" class="edge"><title>Node15&#45;&gt;Node22</title>
<path fill="none" stroke="midnightblue" d="M1263.39,-175.193C1309.29,-166.348 1378.61,-152.776 1448.1,-138.156"/>
<polygon fill="midnightblue" stroke="midnightblue" points="1448.84,-141.576 1457.91,-136.086 1447.4,-134.727 1448.84,-141.576"/>
</g>
<!-- Node23 -->
<g id="node52" class="node"><title>Node23</title>
<polygon fill="white" stroke="#bfbfbf" points="1555.5,-116.5 1555.5,-137.5 1658.5,-137.5 1658.5,-116.5 1555.5,-116.5"/>
<text text-anchor="middle" x="1607" y="-124.5" font-family="Helvetica,sans-Serif" font-size="10.00">OgrePrerequisites.h</text>
</g>
<!-- Node15&#45;&gt;Node23 -->
<g id="edge58" class="edge"><title>Node15&#45;&gt;Node23</title>
<path fill="none" stroke="midnightblue" d="M1263.03,-175.461C1266.06,-174.951 1269.07,-174.46 1272,-174 1390.56,-155.384 1423.51,-157.017 1545.23,-138.221"/>
<polygon fill="midnightblue" stroke="midnightblue" points="1545.98,-141.647 1555.32,-136.648 1544.9,-134.731 1545.98,-141.647"/>
</g>
<!-- Node24 -->
<g id="node54" class="node"><title>Node24</title>
<polygon fill="white" stroke="#bfbfbf" points="1800,-116.5 1800,-137.5 1950,-137.5 1950,-116.5 1800,-116.5"/>
<text text-anchor="middle" x="1875" y="-124.5" font-family="Helvetica,sans-Serif" font-size="10.00">Overlay/OgreOverlaySystem.h</text>
</g>
<!-- Node15&#45;&gt;Node24 -->
<g id="edge60" class="edge"><title>Node15&#45;&gt;Node24</title>
<path fill="none" stroke="midnightblue" d="M1263,-175.248C1266.04,-174.792 1269.06,-174.371 1272,-174 1498.16,-145.516 1559.21,-160.58 1789.87,-138.056"/>
<polygon fill="midnightblue" stroke="midnightblue" points="1790.31,-141.53 1799.92,-137.062 1789.62,-134.564 1790.31,-141.53"/>
</g>
<!-- Node25 -->
<g id="node56" class="node"><title>Node25</title>
<a xlink:href="_forward_declarations_8h.html" target="_top" xlink:title="Global forward declarations. ">
<polygon fill="white" stroke="black" points="1795.5,-58.5 1795.5,-79.5 1910.5,-79.5 1910.5,-58.5 1795.5,-58.5"/>
<text text-anchor="middle" x="1853" y="-66.5" font-family="Helvetica,sans-Serif" font-size="10.00">ForwardDeclarations.h</text>
</a>
</g>
<!-- Node15&#45;&gt;Node25 -->
<g id="edge62" class="edge"><title>Node15&#45;&gt;Node25</title>
<path fill="none" stroke="midnightblue" d="M1263.32,-175.141C1266.25,-174.719 1269.16,-174.333 1272,-174 1347.92,-165.09 1906.38,-193.446 1959,-138 1981.55,-114.24 1941.83,-94.7422 1904.75,-82.6064"/>
<polygon fill="midnightblue" stroke="midnightblue" points="1905.51,-79.1765 1894.92,-79.5315 1903.42,-85.8573 1905.51,-79.1765"/>
</g>
<!-- Node26 -->
<g id="node58" class="node"><title>Node26</title>
<a xlink:href="_global_environment_8h.html" target="_top" xlink:title="GlobalEnvironment.h">
<polygon fill="white" stroke="black" points="1675.5,-116.5 1675.5,-137.5 1782.5,-137.5 1782.5,-116.5 1675.5,-116.5"/>
<text text-anchor="middle" x="1729" y="-124.5" font-family="Helvetica,sans-Serif" font-size="10.00">GlobalEnvironment.h</text>
</a>
</g>
<!-- Node15&#45;&gt;Node26 -->
<g id="edge64" class="edge"><title>Node15&#45;&gt;Node26</title>
<path fill="none" stroke="midnightblue" d="M1263.01,-175.323C1266.05,-174.848 1269.06,-174.402 1272,-174 1443.41,-150.525 1490.54,-161.01 1665.23,-138.152"/>
<polygon fill="midnightblue" stroke="midnightblue" points="1665.82,-141.604 1675.27,-136.819 1664.9,-134.664 1665.82,-141.604"/>
</g>
<!-- Node27 -->
<g id="node61" class="node"><title>Node27</title>
<a xlink:href="_zeroed_memory_allocator_8h.html" target="_top" xlink:title="ZeroedMemoryAllocator.h">
<polygon fill="white" stroke="black" points="2006,-116.5 2006,-137.5 2134,-137.5 2134,-116.5 2006,-116.5"/>
<text text-anchor="middle" x="2070" y="-124.5" font-family="Helvetica,sans-Serif" font-size="10.00">ZeroedMemoryAllocator.h</text>
</a>
</g>
<!-- Node15&#45;&gt;Node27 -->
<g id="edge68" class="edge"><title>Node15&#45;&gt;Node27</title>
<path fill="none" stroke="midnightblue" d="M1263.32,-175.133C1266.25,-174.713 1269.16,-174.33 1272,-174 1590.26,-137.032 1673.05,-168.402 1992,-138 1993.26,-137.88 1994.54,-137.753 1995.82,-137.622"/>
<polygon fill="midnightblue" stroke="midnightblue" points="1996.23,-141.099 2005.78,-136.524 1995.46,-134.141 1996.23,-141.099"/>
</g>
<!-- Node28 -->
<g id="node64" class="node"><title>Node28</title>
<polygon fill="white" stroke="#bfbfbf" points="2151.5,-116.5 2151.5,-137.5 2260.5,-137.5 2260.5,-116.5 2151.5,-116.5"/>
<text text-anchor="middle" x="2206" y="-124.5" font-family="Helvetica,sans-Serif" font-size="10.00">MyGUI_Prerequest.h</text>
</g>
<!-- Node15&#45;&gt;Node28 -->
<g id="edge72" class="edge"><title>Node15&#45;&gt;Node28</title>
<path fill="none" stroke="midnightblue" d="M1263.32,-175.104C1266.25,-174.691 1269.16,-174.318 1272,-174 1653.75,-131.329 1756.04,-178.588 2141.4,-138.049"/>
<polygon fill="midnightblue" stroke="midnightblue" points="2141.85,-141.52 2151.43,-136.981 2141.11,-134.56 2141.85,-141.52"/>
</g>
<!-- Node26&#45;&gt;Node25 -->
<g id="edge66" class="edge"><title>Node26&#45;&gt;Node25</title>
<path fill="none" stroke="midnightblue" d="M1751.46,-116.497C1770.91,-107.397 1799.28,-94.1273 1821.09,-83.9253"/>
<polygon fill="midnightblue" stroke="midnightblue" points="1822.72,-87.0285 1830.29,-79.6212 1819.75,-80.6878 1822.72,-87.0285"/>
</g>
</g>
</svg>
        <g id="navigator" transform="translate(0 0)" fill="#404254">
                <rect fill="#f2f5e9" fill-opacity="0.5" stroke="#606060" stroke-width=".5" x="0" y="0" width="60" height="60"/>
                <use id="zoomplus" xlink:href="#zoomPlus" x="17" y="9" onmousedown="handleZoom(evt,'in')"/>
                <use id="zoomminus" xlink:href="#zoomMin" x="42" y="9" onmousedown="handleZoom(evt,'out')"/>
                <use id="reset" xlink:href="#resetDef" x="30" y="36" onmousedown="handleReset()"/>
                <g id="arrowUp" xlink:href="#dirArrow" transform="translate(30 24)" onmousedown="handlePan(0,-1)">
                  <use xlink:href="#rim" fill="#404040">
                        <set attributeName="fill" to="#808080" begin="arrowUp.mouseover" end="arrowUp.mouseout"/>
                  </use>
                  <path fill="none" stroke="white" stroke-width="1.5" d="M0,-3.0v7 M-2.5,-0.5L0,-3.0L2.5,-0.5"/>
                </g>
                <g id="arrowRight" xlink:href="#dirArrow" transform="rotate(90) translate(36 -43)" onmousedown="handlePan(1,0)">
                  <use xlink:href="#rim" fill="#404040">
                        <set attributeName="fill" to="#808080" begin="arrowRight.mouseover" end="arrowRight.mouseout"/>
                  </use>
                  <path fill="none" stroke="white" stroke-width="1.5" d="M0,-3.0v7 M-2.5,-0.5L0,-3.0L2.5,-0.5"/>
                </g>
                <g id="arrowDown" xlink:href="#dirArrow" transform="rotate(180) translate(-30 -48)" onmousedown="handlePan(0,1)">
                  <use xlink:href="#rim" fill="#404040">
                        <set attributeName="fill" to="#808080" begin="arrowDown.mouseover" end="arrowDown.mouseout"/>
                  </use>
                  <path fill="none" stroke="white" stroke-width="1.5" d="M0,-3.0v7 M-2.5,-0.5L0,-3.0L2.5,-0.5"/>
                </g>
                <g id="arrowLeft" xlink:href="#dirArrow" transform="rotate(270) translate(-36 17)" onmousedown="handlePan(-1,0)">
                  <use xlink:href="#rim" fill="#404040">
                        <set attributeName="fill" to="#808080" begin="arrowLeft.mouseover" end="arrowLeft.mouseout"/>
                  </use>
                  <path fill="none" stroke="white" stroke-width="1.5" d="M0,-3.0v7 M-2.5,-0.5L0,-3.0L2.5,-0.5"/>
                </g>
        </g>
        <svg viewBox="0 0 15 15" width="100%" height="30px" preserveAspectRatio="xMaxYMin meet">
         <g id="arrow_out" transform="scale(0.3 0.3)">
          <a xlink:href="_rig_editor___rig_properties_8h__incl_org.svg" target="_base">
           <rect id="button" ry="5" rx="5" y="6" x="6" height="38" width="38"
                fill="#f2f5e9" fill-opacity="0.5" stroke="#606060" stroke-width="1.0"/>
           <path id="arrow"
             d="M 11.500037,31.436501 C 11.940474,20.09759 22.043105,11.32322 32.158766,21.979434 L 37.068811,17.246167 C 37.068811,17.246167 37.088388,32 37.088388,32 L 22.160133,31.978069 C 22.160133,31.978069 26.997745,27.140456 26.997745,27.140456 C 18.528582,18.264221 13.291696,25.230495 11.500037,31.436501 z"
             style="fill:#404040;"/>
          </a>
         </g>
        </svg>
</svg>
