<?xml version="1.0" encoding="UTF-8" standalone="no"?>
<!DOCTYPE svg PUBLIC "-//W3C//DTD SVG 1.1//EN"
 "http://www.w3.org/Graphics/SVG/1.1/DTD/svg11.dtd">
<!-- Generated by graphviz version 2.26.3 (20100126.1600)
 -->
<!-- Title: source/main/rig_editor/RigEditor_GuiPopupDynamicListBase.h Pages: 1 -->
<svg width="579pt" height="284pt"
 viewBox="0.00 0.00 579.00 284.00" xmlns="http://www.w3.org/2000/svg" xmlns:xlink="http://www.w3.org/1999/xlink">
<g id="graph1" class="graph" transform="scale(1 1) rotate(0) translate(4 280)">
<title>source/main/rig_editor/RigEditor_GuiPopupDynamicListBase.h</title>
<polygon fill="white" stroke="white" points="-4,5 -4,-280 576,-280 576,5 -4,5"/>
<!-- Node1 -->
<g id="node1" class="node"><title>Node1</title>
<polygon fill="#bfbfbf" stroke="black" points="194.5,-228.5 194.5,-275.5 357.5,-275.5 357.5,-228.5 194.5,-228.5"/>
<text text-anchor="start" x="202.5" y="-262.5" font-family="Helvetica,sans-Serif" font-size="10.00">source/main/rig_editor</text>
<text text-anchor="start" x="202.5" y="-249.5" font-family="Helvetica,sans-Serif" font-size="10.00">/RigEditor_GuiPopupDynamicList</text>
<text text-anchor="middle" x="276" y="-236.5" font-family="Helvetica,sans-Serif" font-size="10.00">Base.h</text>
</g>
<!-- Node2 -->
<g id="node3" class="node"><title>Node2</title>
<a xlink:href="_rig_editor___gui_popup_dynamic_list_base_8cpp.html" target="_top" xlink:title="source/main/rig_editor\l/RigEditor_GuiPopupDynamicList\lBase.cpp">
<polygon fill="white" stroke="black" points="104.5,-144.5 104.5,-191.5 267.5,-191.5 267.5,-144.5 104.5,-144.5"/>
<text text-anchor="start" x="112.5" y="-178.5" font-family="Helvetica,sans-Serif" font-size="10.00">source/main/rig_editor</text>
<text text-anchor="start" x="112.5" y="-165.5" font-family="Helvetica,sans-Serif" font-size="10.00">/RigEditor_GuiPopupDynamicList</text>
<text text-anchor="middle" x="186" y="-152.5" font-family="Helvetica,sans-Serif" font-size="10.00">Base.cpp</text>
</a>
</g>
<!-- Node1&#45;&gt;Node2 -->
<g id="edge2" class="edge"><title>Node1&#45;&gt;Node2</title>
<path fill="none" stroke="midnightblue" d="M243.027,-221.225C232.555,-211.451 221.145,-200.802 211.302,-191.615"/>
<polygon fill="midnightblue" stroke="midnightblue" points="240.752,-223.889 250.45,-228.154 245.528,-218.772 240.752,-223.889"/>
</g>
<!-- Node3 -->
<g id="node5" class="node"><title>Node3</title>
<a xlink:href="_rig_editor___gui_popup_wheels_list_8h.html" target="_top" xlink:title="source/main/rig_editor\l/RigEditor_GuiPopupWheelsList.h">
<polygon fill="white" stroke="black" points="284.5,-151 284.5,-185 449.5,-185 449.5,-151 284.5,-151"/>
<text text-anchor="start" x="292.5" y="-172" font-family="Helvetica,sans-Serif" font-size="10.00">source/main/rig_editor</text>
<text text-anchor="middle" x="367" y="-159" font-family="Helvetica,sans-Serif" font-size="10.00">/RigEditor_GuiPopupWheelsList.h</text>
</a>
</g>
<!-- Node1&#45;&gt;Node3 -->
<g id="edge4" class="edge"><title>Node1&#45;&gt;Node3</title>
<path fill="none" stroke="midnightblue" d="M309.368,-221.198C322.514,-209.064 337.117,-195.584 348.334,-185.23"/>
<polygon fill="midnightblue" stroke="midnightblue" points="306.808,-218.799 301.834,-228.154 311.556,-223.943 306.808,-218.799"/>
</g>
<!-- Node4 -->
<g id="node7" class="node"><title>Node4</title>
<a xlink:href="_g_u_i___rig_editor_menubar_8h.html" target="_top" xlink:title="source/main/gui/panels\l/GUI_RigEditorMenubar.h">
<polygon fill="white" stroke="black" points="184.5,-73 184.5,-107 313.5,-107 313.5,-73 184.5,-73"/>
<text text-anchor="start" x="192.5" y="-94" font-family="Helvetica,sans-Serif" font-size="10.00">source/main/gui/panels</text>
<text text-anchor="middle" x="249" y="-81" font-family="Helvetica,sans-Serif" font-size="10.00">/GUI_RigEditorMenubar.h</text>
</a>
</g>
<!-- Node3&#45;&gt;Node4 -->
<g id="edge6" class="edge"><title>Node3&#45;&gt;Node4</title>
<path fill="none" stroke="midnightblue" d="M332.665,-145.304C314.201,-133.099 291.807,-118.296 274.835,-107.078"/>
<polygon fill="midnightblue" stroke="midnightblue" points="330.832,-148.288 341.104,-150.883 334.692,-142.448 330.832,-148.288"/>
</g>
<!-- Node6 -->
<g id="node11" class="node"><title>Node6</title>
<a xlink:href="_g_u_i___rig_editor_menubar_8cpp.html" target="_top" xlink:title="source/main/gui/panels\l/GUI_RigEditorMenubar.cpp">
<polygon fill="white" stroke="black" points="310,-1 310,-35 450,-35 450,-1 310,-1"/>
<text text-anchor="start" x="318" y="-22" font-family="Helvetica,sans-Serif" font-size="10.00">source/main/gui/panels</text>
<text text-anchor="middle" x="380" y="-9" font-family="Helvetica,sans-Serif" font-size="10.00">/GUI_RigEditorMenubar.cpp</text>
</a>
</g>
<!-- Node3&#45;&gt;Node6 -->
<g id="edge14" class="edge"><title>Node3&#45;&gt;Node6</title>
<path fill="none" stroke="midnightblue" d="M369.363,-140.735C372.032,-109.938 376.293,-60.768 378.526,-35.0062"/>
<polygon fill="midnightblue" stroke="midnightblue" points="365.868,-140.528 368.491,-150.793 372.842,-141.133 365.868,-140.528"/>
</g>
<!-- Node8 -->
<g id="node16" class="node"><title>Node8</title>
<a xlink:href="_rig_editor___gui_popup_wheels_list_8cpp.html" target="_top" xlink:title="source/main/rig_editor\l/RigEditor_GuiPopupWheelsList.cpp">
<polygon fill="white" stroke="black" points="395,-73 395,-107 571,-107 571,-73 395,-73"/>
<text text-anchor="start" x="403" y="-94" font-family="Helvetica,sans-Serif" font-size="10.00">source/main/rig_editor</text>
<text text-anchor="middle" x="483" y="-81" font-family="Helvetica,sans-Serif" font-size="10.00">/RigEditor_GuiPopupWheelsList.cpp</text>
</a>
</g>
<!-- Node3&#45;&gt;Node8 -->
<g id="edge16" class="edge"><title>Node3&#45;&gt;Node8</title>
<path fill="none" stroke="midnightblue" d="M401,-145.138C419.103,-132.965 440.994,-118.245 457.603,-107.078"/>
<polygon fill="midnightblue" stroke="midnightblue" points="398.802,-142.398 392.457,-150.883 402.708,-148.207 398.802,-142.398"/>
</g>
<!-- Node5 -->
<g id="node9" class="node"><title>Node5</title>
<a xlink:href="_g_u_i_manager_8cpp.html" target="_top" xlink:title="source/main/gui/GUIManager.cpp">
<polygon fill="white" stroke="black" points="-0.5,-7.5 -0.5,-28.5 162.5,-28.5 162.5,-7.5 -0.5,-7.5"/>
<text text-anchor="middle" x="81" y="-15.5" font-family="Helvetica,sans-Serif" font-size="10.00">source/main/gui/GUIManager.cpp</text>
</a>
</g>
<!-- Node4&#45;&gt;Node5 -->
<g id="edge8" class="edge"><title>Node4&#45;&gt;Node5</title>
<path fill="none" stroke="midnightblue" d="M199.889,-68.9523C169.064,-55.7418 130.618,-39.2647 105.939,-28.688"/>
<polygon fill="midnightblue" stroke="midnightblue" points="198.616,-72.2148 209.186,-72.937 201.374,-65.7807 198.616,-72.2148"/>
</g>
<!-- Node4&#45;&gt;Node6 -->
<g id="edge10" class="edge"><title>Node4&#45;&gt;Node6</title>
<path fill="none" stroke="midnightblue" d="M288.876,-68.0832C308.086,-57.5254 330.786,-45.049 348.724,-35.19"/>
<polygon fill="midnightblue" stroke="midnightblue" points="287.123,-65.0531 280.045,-72.937 290.495,-71.1876 287.123,-65.0531"/>
</g>
<!-- Node7 -->
<g id="node13" class="node"><title>Node7</title>
<a xlink:href="_rig_editor___main_8cpp.html" target="_top" xlink:title="source/main/rig_editor\l/RigEditor_Main.cpp">
<polygon fill="white" stroke="black" points="179.5,-1 179.5,-35 292.5,-35 292.5,-1 179.5,-1"/>
<text text-anchor="start" x="187.5" y="-22" font-family="Helvetica,sans-Serif" font-size="10.00">source/main/rig_editor</text>
<text text-anchor="middle" x="236" y="-9" font-family="Helvetica,sans-Serif" font-size="10.00">/RigEditor_Main.cpp</text>
</a>
</g>
<!-- Node4&#45;&gt;Node7 -->
<g id="edge12" class="edge"><title>Node4&#45;&gt;Node7</title>
<path fill="none" stroke="midnightblue" d="M244.128,-63.0173C242.462,-53.7884 240.643,-43.7144 239.149,-35.4407"/>
<polygon fill="midnightblue" stroke="midnightblue" points="240.698,-63.718 245.919,-72.937 247.587,-62.4742 240.698,-63.718"/>
</g>
</g>
</svg>
