<?xml version="1.0" encoding="UTF-8" standalone="no"?>
<!DOCTYPE svg PUBLIC "-//W3C//DTD SVG 1.1//EN"
 "http://www.w3.org/Graphics/SVG/1.1/DTD/svg11.dtd">
<!-- Generated by graphviz version 2.26.3 (20100126.1600)
 -->
<!-- Title: source/main/rig_editor/RigEditor_Config.cpp Pages: 1 -->
<svg width="302pt" height="160pt"
 viewBox="0.00 0.00 302.00 160.00" xmlns="http://www.w3.org/2000/svg" xmlns:xlink="http://www.w3.org/1999/xlink">
<g id="graph1" class="graph" transform="scale(1 1) rotate(0) translate(4 156)">
<title>source/main/rig_editor/RigEditor_Config.cpp</title>
<polygon fill="white" stroke="white" points="-4,5 -4,-156 299,-156 299,5 -4,5"/>
<!-- Node1 -->
<g id="node1" class="node"><title>Node1</title>
<polygon fill="#bfbfbf" stroke="black" points="48.5,-117 48.5,-151 161.5,-151 161.5,-117 48.5,-117"/>
<text text-anchor="start" x="56.5" y="-138" font-family="Helvetica,sans-Serif" font-size="10.00">source/main/rig_editor</text>
<text text-anchor="middle" x="105" y="-125" font-family="Helvetica,sans-Serif" font-size="10.00">/RigEditor_Config.cpp</text>
</g>
<!-- Node2 -->
<g id="node3" class="node"><title>Node2</title>
<a xlink:href="_rig_editor___config_8h.html" target="_top" xlink:title="RigEditor_Config.h">
<polygon fill="white" stroke="black" points="2.5,-58.5 2.5,-79.5 101.5,-79.5 101.5,-58.5 2.5,-58.5"/>
<text text-anchor="middle" x="52" y="-66.5" font-family="Helvetica,sans-Serif" font-size="10.00">RigEditor_Config.h</text>
</a>
</g>
<!-- Node1&#45;&gt;Node2 -->
<g id="edge2" class="edge"><title>Node1&#45;&gt;Node2</title>
<path fill="none" stroke="midnightblue" d="M91.0749,-116.922C83.7486,-107.937 74.753,-96.9047 67.2405,-87.6912"/>
<polygon fill="midnightblue" stroke="midnightblue" points="69.8806,-85.3905 60.8486,-79.8521 64.4555,-89.8141 69.8806,-85.3905"/>
</g>
<!-- Node4 -->
<g id="node7" class="node"><title>Node4</title>
<a xlink:href="_config_file_8h.html" target="_top" xlink:title="ConfigFile.h">
<polygon fill="white" stroke="black" points="123.5,-58.5 123.5,-79.5 192.5,-79.5 192.5,-58.5 123.5,-58.5"/>
<text text-anchor="middle" x="158" y="-66.5" font-family="Helvetica,sans-Serif" font-size="10.00">ConfigFile.h</text>
</a>
</g>
<!-- Node1&#45;&gt;Node4 -->
<g id="edge6" class="edge"><title>Node1&#45;&gt;Node4</title>
<path fill="none" stroke="midnightblue" d="M118.925,-116.922C126.251,-107.937 135.247,-96.9047 142.759,-87.6912"/>
<polygon fill="midnightblue" stroke="midnightblue" points="145.545,-89.8141 149.151,-79.8521 140.119,-85.3905 145.545,-89.8141"/>
</g>
<!-- Node3 -->
<g id="node5" class="node"><title>Node3</title>
<polygon fill="white" stroke="#bfbfbf" points="-0.5,-0.5 -0.5,-21.5 98.5,-21.5 98.5,-0.5 -0.5,-0.5"/>
<text text-anchor="middle" x="49" y="-8.5" font-family="Helvetica,sans-Serif" font-size="10.00">OgreColourValue.h</text>
</g>
<!-- Node2&#45;&gt;Node3 -->
<g id="edge4" class="edge"><title>Node2&#45;&gt;Node3</title>
<path fill="none" stroke="midnightblue" d="M51.4498,-58.3619C51.0649,-50.9219 50.5384,-40.7427 50.0721,-31.7276"/>
<polygon fill="midnightblue" stroke="midnightblue" points="53.5587,-31.3765 49.5468,-21.5707 46.5681,-31.7381 53.5587,-31.3765"/>
</g>
<!-- Node4&#45;&gt;Node3 -->
<g id="edge10" class="edge"><title>Node4&#45;&gt;Node3</title>
<path fill="none" stroke="midnightblue" d="M138.261,-58.4966C121.39,-49.5194 96.8915,-36.4835 77.8262,-26.3387"/>
<polygon fill="midnightblue" stroke="midnightblue" points="79.4327,-23.2289 68.9606,-21.6212 76.1445,-29.4086 79.4327,-23.2289"/>
</g>
<!-- Node5 -->
<g id="node9" class="node"><title>Node5</title>
<polygon fill="white" stroke="#bfbfbf" points="116,-0.5 116,-21.5 206,-21.5 206,-0.5 116,-0.5"/>
<text text-anchor="middle" x="161" y="-8.5" font-family="Helvetica,sans-Serif" font-size="10.00">OgreConfigFile.h</text>
</g>
<!-- Node4&#45;&gt;Node5 -->
<g id="edge8" class="edge"><title>Node4&#45;&gt;Node5</title>
<path fill="none" stroke="midnightblue" d="M158.55,-58.3619C158.935,-50.9219 159.462,-40.7427 159.928,-31.7276"/>
<polygon fill="midnightblue" stroke="midnightblue" points="163.432,-31.7381 160.453,-21.5707 156.441,-31.3765 163.432,-31.7381"/>
</g>
<!-- Node6 -->
<g id="node12" class="node"><title>Node6</title>
<polygon fill="white" stroke="#bfbfbf" points="223.5,-0.5 223.5,-21.5 294.5,-21.5 294.5,-0.5 223.5,-0.5"/>
<text text-anchor="middle" x="259" y="-8.5" font-family="Helvetica,sans-Serif" font-size="10.00">OgreString.h</text>
</g>
<!-- Node4&#45;&gt;Node6 -->
<g id="edge12" class="edge"><title>Node4&#45;&gt;Node6</title>
<path fill="none" stroke="midnightblue" d="M176.525,-58.3619C191.901,-49.532 213.996,-36.844 231.447,-26.8224"/>
<polygon fill="midnightblue" stroke="midnightblue" points="233.664,-29.5857 240.592,-21.5707 230.178,-23.5154 233.664,-29.5857"/>
</g>
</g>
</svg>
