<?xml version="1.0" encoding="UTF-8" standalone="no"?>
<!DOCTYPE svg PUBLIC "-//W3C//DTD SVG 1.1//EN"
 "http://www.w3.org/Graphics/SVG/1.1/DTD/svg11.dtd">
<!-- Generated by graphviz version 2.26.3 (20100126.1600)
 -->
<!-- Title: source/main/gameplay/Road2.h Pages: 1 -->
<!--zoomable 116 -->
<svg id="main" version="1.1" xmlns="http://www.w3.org/2000/svg" xmlns:xlink="http://www.w3.org/1999/xlink" xml:space="preserve" onload="init(evt)">
<style type="text/css"><![CDATA[
.edge:hover path { stroke: red; }
.edge:hover polygon { stroke: red; fill: red; }
]]></style>
<script type="text/javascript"><![CDATA[
var edges = document.getElementsByTagName('g');
if (edges && edges.length) {
  for (var i=0;i<edges.length;i++) {
    if (edges[i].id.substr(0,4)=='edge') {
      edges[i].setAttribute('class','edge');
    }
  }
}
]]></script>
        <defs>
                <circle id="rim" cx="0" cy="0" r="7"/>
                <circle id="rim2" cx="0" cy="0" r="3.5"/>
                <g id="zoomPlus">
                        <use xlink:href="#rim" fill="#404040">
                                <set attributeName="fill" to="#808080" begin="zoomplus.mouseover" end="zoomplus.mouseout"/>
                        </use>
                        <path d="M-4,0h8M0,-4v8" fill="none" stroke="white" stroke-width="1.5" pointer-events="none"/>
                </g>
                <g id="zoomMin">
                        <use xlink:href="#rim" fill="#404040">
                                <set attributeName="fill" to="#808080" begin="zoomminus.mouseover" end="zoomminus.mouseout"/>
                        </use>
                        <path d="M-4,0h8" fill="none" stroke="white" stroke-width="1.5" pointer-events="none"/>
                </g>
                <g id="dirArrow">
                        <path fill="none" stroke="white" stroke-width="1.5" d="M0,-3.0v7 M-2.5,-0.5L0,-3.0L2.5,-0.5"/>
                </g>
               <g id="resetDef">
                       <use xlink:href="#rim2" fill="#404040">
                               <set attributeName="fill" to="#808080" begin="reset.mouseover" end="reset.mouseout"/>
                       </use>
               </g>
        </defs>

<script type="text/javascript">
var viewWidth = 552;
var viewHeight = 116;
var sectionId = 'dynsection-1';
</script>
<script xlink:href="svgpan.js"/>
<svg id="graph" class="graph">
<g id="viewport">
<title>source/main/gameplay/Road2.h</title>
<polygon fill="white" stroke="white" points="-4,5 -4,-112 549,-112 549,5 -4,5"/>
<!-- Node1 -->
<g id="node1" class="node"><title>Node1</title>
<polygon fill="#bfbfbf" stroke="black" points="206.5,-73 206.5,-107 321.5,-107 321.5,-73 206.5,-73"/>
<text text-anchor="start" x="214.5" y="-94" font-family="Helvetica,sans-Serif" font-size="10.00">source/main/gameplay</text>
<text text-anchor="middle" x="264" y="-81" font-family="Helvetica,sans-Serif" font-size="10.00">/Road2.h</text>
</g>
<!-- Node2 -->
<g id="node3" class="node"><title>Node2</title>
<a xlink:href="_procedural_manager_8cpp.html" target="_top" xlink:title="source/main/gameplay\l/ProceduralManager.cpp">
<polygon fill="white" stroke="black" points="0,-1 0,-35 122,-35 122,-1 0,-1"/>
<text text-anchor="start" x="8" y="-22" font-family="Helvetica,sans-Serif" font-size="10.00">source/main/gameplay</text>
<text text-anchor="middle" x="61" y="-9" font-family="Helvetica,sans-Serif" font-size="10.00">/ProceduralManager.cpp</text>
</a>
</g>
<!-- Node1&#45;&gt;Node2 -->
<g id="edge2" class="edge"><title>Node1&#45;&gt;Node2</title>
<path fill="none" stroke="midnightblue" d="M206.177,-69.4913C175.485,-58.6055 138.209,-45.3846 109.114,-35.0651"/>
<polygon fill="midnightblue" stroke="midnightblue" points="205.297,-72.8928 215.892,-72.937 207.637,-66.2955 205.297,-72.8928"/>
</g>
<!-- Node3 -->
<g id="node5" class="node"><title>Node3</title>
<a xlink:href="_road2_8cpp.html" target="_top" xlink:title="source/main/gameplay\l/Road2.cpp">
<polygon fill="white" stroke="black" points="139.5,-1 139.5,-35 254.5,-35 254.5,-1 139.5,-1"/>
<text text-anchor="start" x="147.5" y="-22" font-family="Helvetica,sans-Serif" font-size="10.00">source/main/gameplay</text>
<text text-anchor="middle" x="197" y="-9" font-family="Helvetica,sans-Serif" font-size="10.00">/Road2.cpp</text>
</a>
</g>
<!-- Node1&#45;&gt;Node3 -->
<g id="edge4" class="edge"><title>Node1&#45;&gt;Node3</title>
<path fill="none" stroke="midnightblue" d="M241.088,-65.3785C231.928,-55.5349 221.591,-44.4262 213.23,-35.4407"/>
<polygon fill="midnightblue" stroke="midnightblue" points="238.747,-68.0006 248.122,-72.937 243.872,-63.232 238.747,-68.0006"/>
</g>
<!-- Node4 -->
<g id="node7" class="node"><title>Node4</title>
<a xlink:href="_ro_r_frame_listener_8cpp.html" target="_top" xlink:title="source/main/gameplay\l/RoRFrameListener.cpp">
<polygon fill="white" stroke="black" points="271.5,-1 271.5,-35 392.5,-35 392.5,-1 271.5,-1"/>
<text text-anchor="start" x="279.5" y="-22" font-family="Helvetica,sans-Serif" font-size="10.00">source/main/gameplay</text>
<text text-anchor="middle" x="332" y="-9" font-family="Helvetica,sans-Serif" font-size="10.00">/RoRFrameListener.cpp</text>
</a>
</g>
<!-- Node1&#45;&gt;Node4 -->
<g id="edge6" class="edge"><title>Node1&#45;&gt;Node4</title>
<path fill="none" stroke="midnightblue" d="M287.254,-65.3785C296.55,-55.5349 307.042,-44.4262 315.528,-35.4407"/>
<polygon fill="midnightblue" stroke="midnightblue" points="284.437,-63.2637 280.115,-72.937 289.526,-68.07 284.437,-63.2637"/>
</g>
<!-- Node5 -->
<g id="node9" class="node"><title>Node5</title>
<a xlink:href="_terrain_object_manager_8cpp.html" target="_top" xlink:title="source/main/terrain\l/TerrainObjectManager.cpp">
<polygon fill="white" stroke="black" points="410,-1 410,-35 544,-35 544,-1 410,-1"/>
<text text-anchor="start" x="418" y="-22" font-family="Helvetica,sans-Serif" font-size="10.00">source/main/terrain</text>
<text text-anchor="middle" x="477" y="-9" font-family="Helvetica,sans-Serif" font-size="10.00">/TerrainObjectManager.cpp</text>
</a>
</g>
<!-- Node1&#45;&gt;Node5 -->
<g id="edge8" class="edge"><title>Node1&#45;&gt;Node5</title>
<path fill="none" stroke="midnightblue" d="M324.254,-69.6326C356.536,-58.7201 395.855,-45.4292 426.516,-35.0651"/>
<polygon fill="midnightblue" stroke="midnightblue" points="322.831,-66.419 314.478,-72.937 325.072,-73.0504 322.831,-66.419"/>
</g>
</g>
</svg>
        <g id="navigator" transform="translate(0 0)" fill="#404254">
                <rect fill="#f2f5e9" fill-opacity="0.5" stroke="#606060" stroke-width=".5" x="0" y="0" width="60" height="60"/>
                <use id="zoomplus" xlink:href="#zoomPlus" x="17" y="9" onmousedown="handleZoom(evt,'in')"/>
                <use id="zoomminus" xlink:href="#zoomMin" x="42" y="9" onmousedown="handleZoom(evt,'out')"/>
                <use id="reset" xlink:href="#resetDef" x="30" y="36" onmousedown="handleReset()"/>
                <g id="arrowUp" xlink:href="#dirArrow" transform="translate(30 24)" onmousedown="handlePan(0,-1)">
                  <use xlink:href="#rim" fill="#404040">
                        <set attributeName="fill" to="#808080" begin="arrowUp.mouseover" end="arrowUp.mouseout"/>
                  </use>
                  <path fill="none" stroke="white" stroke-width="1.5" d="M0,-3.0v7 M-2.5,-0.5L0,-3.0L2.5,-0.5"/>
                </g>
                <g id="arrowRight" xlink:href="#dirArrow" transform="rotate(90) translate(36 -43)" onmousedown="handlePan(1,0)">
                  <use xlink:href="#rim" fill="#404040">
                        <set attributeName="fill" to="#808080" begin="arrowRight.mouseover" end="arrowRight.mouseout"/>
                  </use>
                  <path fill="none" stroke="white" stroke-width="1.5" d="M0,-3.0v7 M-2.5,-0.5L0,-3.0L2.5,-0.5"/>
                </g>
                <g id="arrowDown" xlink:href="#dirArrow" transform="rotate(180) translate(-30 -48)" onmousedown="handlePan(0,1)">
                  <use xlink:href="#rim" fill="#404040">
                        <set attributeName="fill" to="#808080" begin="arrowDown.mouseover" end="arrowDown.mouseout"/>
                  </use>
                  <path fill="none" stroke="white" stroke-width="1.5" d="M0,-3.0v7 M-2.5,-0.5L0,-3.0L2.5,-0.5"/>
                </g>
                <g id="arrowLeft" xlink:href="#dirArrow" transform="rotate(270) translate(-36 17)" onmousedown="handlePan(-1,0)">
                  <use xlink:href="#rim" fill="#404040">
                        <set attributeName="fill" to="#808080" begin="arrowLeft.mouseover" end="arrowLeft.mouseout"/>
                  </use>
                  <path fill="none" stroke="white" stroke-width="1.5" d="M0,-3.0v7 M-2.5,-0.5L0,-3.0L2.5,-0.5"/>
                </g>
        </g>
        <svg viewBox="0 0 15 15" width="100%" height="30px" preserveAspectRatio="xMaxYMin meet">
         <g id="arrow_out" transform="scale(0.3 0.3)">
          <a xlink:href="_road2_8h__dep__incl_org.svg" target="_base">
           <rect id="button" ry="5" rx="5" y="6" x="6" height="38" width="38"
                fill="#f2f5e9" fill-opacity="0.5" stroke="#606060" stroke-width="1.0"/>
           <path id="arrow"
             d="M 11.500037,31.436501 C 11.940474,20.09759 22.043105,11.32322 32.158766,21.979434 L 37.068811,17.246167 C 37.068811,17.246167 37.088388,32 37.088388,32 L 22.160133,31.978069 C 22.160133,31.978069 26.997745,27.140456 26.997745,27.140456 C 18.528582,18.264221 13.291696,25.230495 11.500037,31.436501 z"
             style="fill:#404040;"/>
          </a>
         </g>
        </svg>
</svg>
