<?xml version="1.0" encoding="UTF-8" standalone="no"?>
<!DOCTYPE svg PUBLIC "-//W3C//DTD SVG 1.1//EN"
 "http://www.w3.org/Graphics/SVG/1.1/DTD/svg11.dtd">
<!-- Generated by graphviz version 2.26.3 (20100126.1600)
 -->
<!-- Title: source/main/gameplay/ScriptEvents.h Pages: 1 -->
<!--zoomable 188 -->
<svg id="main" version="1.1" xmlns="http://www.w3.org/2000/svg" xmlns:xlink="http://www.w3.org/1999/xlink" xml:space="preserve" onload="init(evt)">
<style type="text/css"><![CDATA[
.edge:hover path { stroke: red; }
.edge:hover polygon { stroke: red; fill: red; }
]]></style>
<script type="text/javascript"><![CDATA[
var edges = document.getElementsByTagName('g');
if (edges && edges.length) {
  for (var i=0;i<edges.length;i++) {
    if (edges[i].id.substr(0,4)=='edge') {
      edges[i].setAttribute('class','edge');
    }
  }
}
]]></script>
        <defs>
                <circle id="rim" cx="0" cy="0" r="7"/>
                <circle id="rim2" cx="0" cy="0" r="3.5"/>
                <g id="zoomPlus">
                        <use xlink:href="#rim" fill="#404040">
                                <set attributeName="fill" to="#808080" begin="zoomplus.mouseover" end="zoomplus.mouseout"/>
                        </use>
                        <path d="M-4,0h8M0,-4v8" fill="none" stroke="white" stroke-width="1.5" pointer-events="none"/>
                </g>
                <g id="zoomMin">
                        <use xlink:href="#rim" fill="#404040">
                                <set attributeName="fill" to="#808080" begin="zoomminus.mouseover" end="zoomminus.mouseout"/>
                        </use>
                        <path d="M-4,0h8" fill="none" stroke="white" stroke-width="1.5" pointer-events="none"/>
                </g>
                <g id="dirArrow">
                        <path fill="none" stroke="white" stroke-width="1.5" d="M0,-3.0v7 M-2.5,-0.5L0,-3.0L2.5,-0.5"/>
                </g>
               <g id="resetDef">
                       <use xlink:href="#rim2" fill="#404040">
                               <set attributeName="fill" to="#808080" begin="reset.mouseover" end="reset.mouseout"/>
                       </use>
               </g>
        </defs>

<script type="text/javascript">
var viewWidth = 900;
var viewHeight = 188;
var sectionId = 'dynsection-0';
</script>
<script xlink:href="svgpan.js"/>
<svg id="graph" class="graph">
<g id="viewport">
<title>source/main/gameplay/ScriptEvents.h</title>
<polygon fill="white" stroke="white" points="-4,5 -4,-184 897,-184 897,5 -4,5"/>
<!-- Node1 -->
<g id="node1" class="node"><title>Node1</title>
<polygon fill="#bfbfbf" stroke="black" points="462.5,-145 462.5,-179 577.5,-179 577.5,-145 462.5,-145"/>
<text text-anchor="start" x="470.5" y="-166" font-family="Helvetica,sans-Serif" font-size="10.00">source/main/gameplay</text>
<text text-anchor="middle" x="520" y="-153" font-family="Helvetica,sans-Serif" font-size="10.00">/ScriptEvents.h</text>
</g>
<!-- Node2 -->
<g id="node3" class="node"><title>Node2</title>
<a xlink:href="_scripting_8h.html" target="_top" xlink:title="source/main/gameplay\l/Scripting.h">
<polygon fill="white" stroke="black" points="397.5,-73 397.5,-107 512.5,-107 512.5,-73 397.5,-73"/>
<text text-anchor="start" x="405.5" y="-94" font-family="Helvetica,sans-Serif" font-size="10.00">source/main/gameplay</text>
<text text-anchor="middle" x="455" y="-81" font-family="Helvetica,sans-Serif" font-size="10.00">/Scripting.h</text>
</a>
</g>
<!-- Node1&#45;&gt;Node2 -->
<g id="edge2" class="edge"><title>Node1&#45;&gt;Node2</title>
<path fill="none" stroke="midnightblue" d="M497.772,-137.379C488.886,-127.535 478.857,-116.426 470.745,-107.441"/>
<polygon fill="midnightblue" stroke="midnightblue" points="495.297,-139.86 504.596,-144.937 500.493,-135.169 495.297,-139.86"/>
</g>
<!-- Node10 -->
<g id="node19" class="node"><title>Node10</title>
<a xlink:href="_script_engine_8cpp.html" target="_top" xlink:title="source/main/scripting\l/ScriptEngine.cpp">
<polygon fill="white" stroke="black" points="530,-73 530,-107 640,-107 640,-73 530,-73"/>
<text text-anchor="start" x="538" y="-94" font-family="Helvetica,sans-Serif" font-size="10.00">source/main/scripting</text>
<text text-anchor="middle" x="585" y="-81" font-family="Helvetica,sans-Serif" font-size="10.00">/ScriptEngine.cpp</text>
</a>
</g>
<!-- Node1&#45;&gt;Node10 -->
<g id="edge18" class="edge"><title>Node1&#45;&gt;Node10</title>
<path fill="none" stroke="midnightblue" d="M542.228,-137.379C551.114,-127.535 561.143,-116.426 569.255,-107.441"/>
<polygon fill="midnightblue" stroke="midnightblue" points="539.507,-135.169 535.404,-144.937 544.703,-139.86 539.507,-135.169"/>
</g>
<!-- Node3 -->
<g id="node5" class="node"><title>Node3</title>
<a xlink:href="_beam_engine_8cpp.html" target="_top" xlink:title="source/main/gameplay\l/BeamEngine.cpp">
<polygon fill="white" stroke="black" points="-0.5,-1 -0.5,-35 114.5,-35 114.5,-1 -0.5,-1"/>
<text text-anchor="start" x="7.5" y="-22" font-family="Helvetica,sans-Serif" font-size="10.00">source/main/gameplay</text>
<text text-anchor="middle" x="57" y="-9" font-family="Helvetica,sans-Serif" font-size="10.00">/BeamEngine.cpp</text>
</a>
</g>
<!-- Node2&#45;&gt;Node3 -->
<g id="edge4" class="edge"><title>Node2&#45;&gt;Node3</title>
<path fill="none" stroke="midnightblue" d="M387.313,-81.1146C319.945,-71.7733 213.785,-55.7059 123,-36 120.214,-35.3954 117.371,-34.7459 114.505,-34.0653"/>
<polygon fill="midnightblue" stroke="midnightblue" points="386.99,-84.6031 397.374,-82.4996 387.945,-77.6685 386.99,-84.6031"/>
</g>
<!-- Node4 -->
<g id="node7" class="node"><title>Node4</title>
<a xlink:href="_ro_r_frame_listener_8cpp.html" target="_top" xlink:title="source/main/gameplay\l/RoRFrameListener.cpp">
<polygon fill="white" stroke="black" points="131.5,-1 131.5,-35 252.5,-35 252.5,-1 131.5,-1"/>
<text text-anchor="start" x="139.5" y="-22" font-family="Helvetica,sans-Serif" font-size="10.00">source/main/gameplay</text>
<text text-anchor="middle" x="192" y="-9" font-family="Helvetica,sans-Serif" font-size="10.00">/RoRFrameListener.cpp</text>
</a>
</g>
<!-- Node2&#45;&gt;Node4 -->
<g id="edge6" class="edge"><title>Node2&#45;&gt;Node4</title>
<path fill="none" stroke="midnightblue" d="M387.513,-71.5246C345.933,-60.1414 293.059,-45.6663 252.783,-34.6401"/>
<polygon fill="midnightblue" stroke="midnightblue" points="386.714,-74.9345 397.284,-74.1993 388.563,-68.183 386.714,-74.9345"/>
</g>
<!-- Node5 -->
<g id="node9" class="node"><title>Node5</title>
<a xlink:href="_main_thread_8cpp.html" target="_top" xlink:title="source/main/main_sim\l/MainThread.cpp">
<polygon fill="white" stroke="black" points="269.5,-1 269.5,-35 384.5,-35 384.5,-1 269.5,-1"/>
<text text-anchor="start" x="277.5" y="-22" font-family="Helvetica,sans-Serif" font-size="10.00">source/main/main_sim</text>
<text text-anchor="middle" x="327" y="-9" font-family="Helvetica,sans-Serif" font-size="10.00">/MainThread.cpp</text>
</a>
</g>
<!-- Node2&#45;&gt;Node5 -->
<g id="edge8" class="edge"><title>Node2&#45;&gt;Node5</title>
<path fill="none" stroke="midnightblue" d="M415.782,-67.9398C397.067,-57.4125 375.008,-45.0044 357.56,-35.19"/>
<polygon fill="midnightblue" stroke="midnightblue" points="414.234,-71.0849 424.666,-72.937 417.666,-64.9838 414.234,-71.0849"/>
</g>
<!-- Node6 -->
<g id="node11" class="node"><title>Node6</title>
<a xlink:href="_turbo_prop_8cpp.html" target="_top" xlink:title="source/main/physics\l/air/TurboProp.cpp">
<polygon fill="white" stroke="black" points="401.5,-1 401.5,-35 508.5,-35 508.5,-1 401.5,-1"/>
<text text-anchor="start" x="409.5" y="-22" font-family="Helvetica,sans-Serif" font-size="10.00">source/main/physics</text>
<text text-anchor="middle" x="455" y="-9" font-family="Helvetica,sans-Serif" font-size="10.00">/air/TurboProp.cpp</text>
</a>
</g>
<!-- Node2&#45;&gt;Node6 -->
<g id="edge10" class="edge"><title>Node2&#45;&gt;Node6</title>
<path fill="none" stroke="midnightblue" d="M455,-62.7193C455,-53.572 455,-43.6255 455,-35.4407"/>
<polygon fill="midnightblue" stroke="midnightblue" points="451.5,-62.937 455,-72.937 458.5,-62.937 451.5,-62.937"/>
</g>
<!-- Node7 -->
<g id="node13" class="node"><title>Node7</title>
<a xlink:href="_beam_8cpp.html" target="_top" xlink:title="source/main/physics\l/Beam.cpp">
<polygon fill="white" stroke="black" points="525.5,-1 525.5,-35 632.5,-35 632.5,-1 525.5,-1"/>
<text text-anchor="start" x="533.5" y="-22" font-family="Helvetica,sans-Serif" font-size="10.00">source/main/physics</text>
<text text-anchor="middle" x="579" y="-9" font-family="Helvetica,sans-Serif" font-size="10.00">/Beam.cpp</text>
</a>
</g>
<!-- Node2&#45;&gt;Node7 -->
<g id="edge12" class="edge"><title>Node2&#45;&gt;Node7</title>
<path fill="none" stroke="midnightblue" d="M493.488,-67.6522C511.511,-57.1871 532.646,-44.9152 549.395,-35.19"/>
<polygon fill="midnightblue" stroke="midnightblue" points="491.277,-64.8888 484.386,-72.937 494.792,-70.9424 491.277,-64.8888"/>
</g>
<!-- Node8 -->
<g id="node15" class="node"><title>Node8</title>
<a xlink:href="_collisions_8cpp.html" target="_top" xlink:title="source/main/physics\l/collision/Collisions.cpp">
<polygon fill="white" stroke="black" points="649.5,-1 649.5,-35 768.5,-35 768.5,-1 649.5,-1"/>
<text text-anchor="start" x="657.5" y="-22" font-family="Helvetica,sans-Serif" font-size="10.00">source/main/physics</text>
<text text-anchor="middle" x="709" y="-9" font-family="Helvetica,sans-Serif" font-size="10.00">/collision/Collisions.cpp</text>
</a>
</g>
<!-- Node2&#45;&gt;Node8 -->
<g id="edge14" class="edge"><title>Node2&#45;&gt;Node8</title>
<path fill="none" stroke="midnightblue" d="M522.447,-70.881C561.929,-59.6894 611.337,-45.684 649.386,-34.8986"/>
<polygon fill="midnightblue" stroke="midnightblue" points="521.303,-67.5675 512.637,-73.6621 523.212,-74.3021 521.303,-67.5675"/>
</g>
<!-- Node9 -->
<g id="node17" class="node"><title>Node9</title>
<a xlink:href="_terrain_manager_8cpp.html" target="_top" xlink:title="source/main/terrain\l/TerrainManager.cpp">
<polygon fill="white" stroke="black" points="786,-1 786,-35 892,-35 892,-1 786,-1"/>
<text text-anchor="start" x="794" y="-22" font-family="Helvetica,sans-Serif" font-size="10.00">source/main/terrain</text>
<text text-anchor="middle" x="839" y="-9" font-family="Helvetica,sans-Serif" font-size="10.00">/TerrainManager.cpp</text>
</a>
</g>
<!-- Node2&#45;&gt;Node9 -->
<g id="edge16" class="edge"><title>Node2&#45;&gt;Node9</title>
<path fill="none" stroke="midnightblue" d="M522.891,-71.7448C635.366,-49.4463 667.836,-59.3967 777,-36 779.849,-35.3893 782.76,-34.717 785.689,-34.0018"/>
<polygon fill="midnightblue" stroke="midnightblue" points="521.955,-68.3632 512.848,-73.7783 523.344,-75.2239 521.955,-68.3632"/>
</g>
</g>
</svg>
        <g id="navigator" transform="translate(0 0)" fill="#404254">
                <rect fill="#f2f5e9" fill-opacity="0.5" stroke="#606060" stroke-width=".5" x="0" y="0" width="60" height="60"/>
                <use id="zoomplus" xlink:href="#zoomPlus" x="17" y="9" onmousedown="handleZoom(evt,'in')"/>
                <use id="zoomminus" xlink:href="#zoomMin" x="42" y="9" onmousedown="handleZoom(evt,'out')"/>
                <use id="reset" xlink:href="#resetDef" x="30" y="36" onmousedown="handleReset()"/>
                <g id="arrowUp" xlink:href="#dirArrow" transform="translate(30 24)" onmousedown="handlePan(0,-1)">
                  <use xlink:href="#rim" fill="#404040">
                        <set attributeName="fill" to="#808080" begin="arrowUp.mouseover" end="arrowUp.mouseout"/>
                  </use>
                  <path fill="none" stroke="white" stroke-width="1.5" d="M0,-3.0v7 M-2.5,-0.5L0,-3.0L2.5,-0.5"/>
                </g>
                <g id="arrowRight" xlink:href="#dirArrow" transform="rotate(90) translate(36 -43)" onmousedown="handlePan(1,0)">
                  <use xlink:href="#rim" fill="#404040">
                        <set attributeName="fill" to="#808080" begin="arrowRight.mouseover" end="arrowRight.mouseout"/>
                  </use>
                  <path fill="none" stroke="white" stroke-width="1.5" d="M0,-3.0v7 M-2.5,-0.5L0,-3.0L2.5,-0.5"/>
                </g>
                <g id="arrowDown" xlink:href="#dirArrow" transform="rotate(180) translate(-30 -48)" onmousedown="handlePan(0,1)">
                  <use xlink:href="#rim" fill="#404040">
                        <set attributeName="fill" to="#808080" begin="arrowDown.mouseover" end="arrowDown.mouseout"/>
                  </use>
                  <path fill="none" stroke="white" stroke-width="1.5" d="M0,-3.0v7 M-2.5,-0.5L0,-3.0L2.5,-0.5"/>
                </g>
                <g id="arrowLeft" xlink:href="#dirArrow" transform="rotate(270) translate(-36 17)" onmousedown="handlePan(-1,0)">
                  <use xlink:href="#rim" fill="#404040">
                        <set attributeName="fill" to="#808080" begin="arrowLeft.mouseover" end="arrowLeft.mouseout"/>
                  </use>
                  <path fill="none" stroke="white" stroke-width="1.5" d="M0,-3.0v7 M-2.5,-0.5L0,-3.0L2.5,-0.5"/>
                </g>
        </g>
        <svg viewBox="0 0 15 15" width="100%" height="30px" preserveAspectRatio="xMaxYMin meet">
         <g id="arrow_out" transform="scale(0.3 0.3)">
          <a xlink:href="_script_events_8h__dep__incl_org.svg" target="_base">
           <rect id="button" ry="5" rx="5" y="6" x="6" height="38" width="38"
                fill="#f2f5e9" fill-opacity="0.5" stroke="#606060" stroke-width="1.0"/>
           <path id="arrow"
             d="M 11.500037,31.436501 C 11.940474,20.09759 22.043105,11.32322 32.158766,21.979434 L 37.068811,17.246167 C 37.068811,17.246167 37.088388,32 37.088388,32 L 22.160133,31.978069 C 22.160133,31.978069 26.997745,27.140456 26.997745,27.140456 C 18.528582,18.264221 13.291696,25.230495 11.500037,31.436501 z"
             style="fill:#404040;"/>
          </a>
         </g>
        </svg>
</svg>
