<?xml version="1.0" encoding="UTF-8" standalone="no"?>
<!DOCTYPE svg PUBLIC "-//W3C//DTD SVG 1.1//EN"
 "http://www.w3.org/Graphics/SVG/1.1/DTD/svg11.dtd">
<!-- Generated by graphviz version 2.26.3 (20100126.1600)
 -->
<!-- Title: source/main/gameplay/SkinManager.cpp Pages: 1 -->
<!--zoomable 334 -->
<svg id="main" version="1.1" xmlns="http://www.w3.org/2000/svg" xmlns:xlink="http://www.w3.org/1999/xlink" xml:space="preserve" onload="init(evt)">
<style type="text/css"><![CDATA[
.edge:hover path { stroke: red; }
.edge:hover polygon { stroke: red; fill: red; }
]]></style>
<script type="text/javascript"><![CDATA[
var edges = document.getElementsByTagName('g');
if (edges && edges.length) {
  for (var i=0;i<edges.length;i++) {
    if (edges[i].id.substr(0,4)=='edge') {
      edges[i].setAttribute('class','edge');
    }
  }
}
]]></script>
        <defs>
                <circle id="rim" cx="0" cy="0" r="7"/>
                <circle id="rim2" cx="0" cy="0" r="3.5"/>
                <g id="zoomPlus">
                        <use xlink:href="#rim" fill="#404040">
                                <set attributeName="fill" to="#808080" begin="zoomplus.mouseover" end="zoomplus.mouseout"/>
                        </use>
                        <path d="M-4,0h8M0,-4v8" fill="none" stroke="white" stroke-width="1.5" pointer-events="none"/>
                </g>
                <g id="zoomMin">
                        <use xlink:href="#rim" fill="#404040">
                                <set attributeName="fill" to="#808080" begin="zoomminus.mouseover" end="zoomminus.mouseout"/>
                        </use>
                        <path d="M-4,0h8" fill="none" stroke="white" stroke-width="1.5" pointer-events="none"/>
                </g>
                <g id="dirArrow">
                        <path fill="none" stroke="white" stroke-width="1.5" d="M0,-3.0v7 M-2.5,-0.5L0,-3.0L2.5,-0.5"/>
                </g>
               <g id="resetDef">
                       <use xlink:href="#rim2" fill="#404040">
                               <set attributeName="fill" to="#808080" begin="reset.mouseover" end="reset.mouseout"/>
                       </use>
               </g>
        </defs>

<script type="text/javascript">
var viewWidth = 1958;
var viewHeight = 334;
var sectionId = 'dynsection-0';
</script>
<script xlink:href="svgpan.js"/>
<svg id="graph" class="graph">
<g id="viewport">
<title>source/main/gameplay/SkinManager.cpp</title>
<polygon fill="white" stroke="white" points="-4,5 -4,-330 1955,-330 1955,5 -4,5"/>
<!-- Node1 -->
<g id="node1" class="node"><title>Node1</title>
<polygon fill="#bfbfbf" stroke="black" points="1004.5,-291 1004.5,-325 1119.5,-325 1119.5,-291 1004.5,-291"/>
<text text-anchor="start" x="1012.5" y="-312" font-family="Helvetica,sans-Serif" font-size="10.00">source/main/gameplay</text>
<text text-anchor="middle" x="1062" y="-299" font-family="Helvetica,sans-Serif" font-size="10.00">/SkinManager.cpp</text>
</g>
<!-- Node2 -->
<g id="node3" class="node"><title>Node2</title>
<a xlink:href="_skin_manager_8h.html" target="_top" xlink:title="SkinManager.h">
<polygon fill="white" stroke="black" points="1021,-232.5 1021,-253.5 1103,-253.5 1103,-232.5 1021,-232.5"/>
<text text-anchor="middle" x="1062" y="-240.5" font-family="Helvetica,sans-Serif" font-size="10.00">SkinManager.h</text>
</a>
</g>
<!-- Node1&#45;&gt;Node2 -->
<g id="edge2" class="edge"><title>Node1&#45;&gt;Node2</title>
<path fill="none" stroke="midnightblue" d="M1062,-290.922C1062,-282.67 1062,-272.692 1062,-263.982"/>
<polygon fill="midnightblue" stroke="midnightblue" points="1065.5,-263.852 1062,-253.852 1058.5,-263.852 1065.5,-263.852"/>
</g>
<!-- Node3 -->
<g id="node5" class="node"><title>Node3</title>
<polygon fill="white" stroke="#bfbfbf" points="909.5,-174.5 909.5,-195.5 1034.5,-195.5 1034.5,-174.5 909.5,-174.5"/>
<text text-anchor="middle" x="972" y="-182.5" font-family="Helvetica,sans-Serif" font-size="10.00">OgreResourceManager.h</text>
</g>
<!-- Node2&#45;&gt;Node3 -->
<g id="edge4" class="edge"><title>Node2&#45;&gt;Node3</title>
<path fill="none" stroke="midnightblue" d="M1045.49,-232.362C1031.92,-223.614 1012.47,-211.079 996.985,-201.101"/>
<polygon fill="midnightblue" stroke="midnightblue" points="998.704,-198.046 988.403,-195.571 994.912,-203.93 998.704,-198.046"/>
</g>
<!-- Node4 -->
<g id="node7" class="node"><title>Node4</title>
<a xlink:href="_ro_r_prerequisites_8h.html" target="_top" xlink:title="RoRPrerequisites.h">
<polygon fill="white" stroke="black" points="960,-116.5 960,-137.5 1062,-137.5 1062,-116.5 960,-116.5"/>
<text text-anchor="middle" x="1011" y="-124.5" font-family="Helvetica,sans-Serif" font-size="10.00">RoRPrerequisites.h</text>
</a>
</g>
<!-- Node2&#45;&gt;Node4 -->
<g id="edge6" class="edge"><title>Node2&#45;&gt;Node4</title>
<path fill="none" stroke="midnightblue" d="M1060.19,-232.337C1057.59,-218.447 1052.08,-193.622 1043,-174 1038.44,-164.131 1031.87,-154.052 1025.88,-145.773"/>
<polygon fill="midnightblue" stroke="midnightblue" points="1028.53,-143.473 1019.72,-137.589 1022.94,-147.683 1028.53,-143.473"/>
</g>
<!-- Node23 -->
<g id="node46" class="node"><title>Node23</title>
<a xlink:href="_skin_8h.html" target="_top" xlink:title="Skin.h">
<polygon fill="white" stroke="black" points="1140,-174.5 1140,-195.5 1184,-195.5 1184,-174.5 1140,-174.5"/>
<text text-anchor="middle" x="1162" y="-182.5" font-family="Helvetica,sans-Serif" font-size="10.00">Skin.h</text>
</a>
</g>
<!-- Node2&#45;&gt;Node23 -->
<g id="edge46" class="edge"><title>Node2&#45;&gt;Node23</title>
<path fill="none" stroke="midnightblue" d="M1080.34,-232.362C1095.57,-223.532 1117.44,-210.844 1134.72,-200.822"/>
<polygon fill="midnightblue" stroke="midnightblue" points="1136.88,-203.615 1143.77,-195.571 1133.37,-197.56 1136.88,-203.615"/>
</g>
<!-- Node5 -->
<g id="node9" class="node"><title>Node5</title>
<polygon fill="white" stroke="#bfbfbf" points="-0.5,-58.5 -0.5,-79.5 114.5,-79.5 114.5,-58.5 -0.5,-58.5"/>
<text text-anchor="middle" x="57" y="-66.5" font-family="Helvetica,sans-Serif" font-size="10.00">OgreAxisAlignedBox.h</text>
</g>
<!-- Node4&#45;&gt;Node5 -->
<g id="edge8" class="edge"><title>Node4&#45;&gt;Node5</title>
<path fill="none" stroke="midnightblue" d="M959.783,-126.298C824.747,-124.018 447.745,-114.875 124.567,-80.0708"/>
<polygon fill="midnightblue" stroke="midnightblue" points="124.86,-76.5821 114.54,-78.9807 124.103,-83.5411 124.86,-76.5821"/>
</g>
<!-- Node6 -->
<g id="node11" class="node"><title>Node6</title>
<polygon fill="white" stroke="#bfbfbf" points="131.5,-58.5 131.5,-79.5 230.5,-79.5 230.5,-58.5 131.5,-58.5"/>
<text text-anchor="middle" x="181" y="-66.5" font-family="Helvetica,sans-Serif" font-size="10.00">OgreColourValue.h</text>
</g>
<!-- Node4&#45;&gt;Node6 -->
<g id="edge10" class="edge"><title>Node4&#45;&gt;Node6</title>
<path fill="none" stroke="midnightblue" d="M959.755,-126.12C837.14,-123.534 517.091,-113.942 240.83,-80.1021"/>
<polygon fill="midnightblue" stroke="midnightblue" points="240.963,-76.5919 230.609,-78.8364 240.103,-83.5388 240.963,-76.5919"/>
</g>
<!-- Node7 -->
<g id="node13" class="node"><title>Node7</title>
<polygon fill="white" stroke="#bfbfbf" points="247.5,-58.5 247.5,-79.5 350.5,-79.5 350.5,-58.5 247.5,-58.5"/>
<text text-anchor="middle" x="299" y="-66.5" font-family="Helvetica,sans-Serif" font-size="10.00">OgreHeaderPrefix.h</text>
</g>
<!-- Node4&#45;&gt;Node7 -->
<g id="edge12" class="edge"><title>Node4&#45;&gt;Node7</title>
<path fill="none" stroke="midnightblue" d="M959.671,-125.21C850.974,-121.006 589.436,-108.712 360.828,-80.1262"/>
<polygon fill="midnightblue" stroke="midnightblue" points="361.015,-76.6221 350.655,-78.8405 360.137,-83.5668 361.015,-76.6221"/>
</g>
<!-- Node8 -->
<g id="node15" class="node"><title>Node8</title>
<polygon fill="white" stroke="#bfbfbf" points="367.5,-58.5 367.5,-79.5 466.5,-79.5 466.5,-58.5 367.5,-58.5"/>
<text text-anchor="middle" x="417" y="-66.5" font-family="Helvetica,sans-Serif" font-size="10.00">OgreLogManager.h</text>
</g>
<!-- Node4&#45;&gt;Node8 -->
<g id="edge14" class="edge"><title>Node4&#45;&gt;Node8</title>
<path fill="none" stroke="midnightblue" d="M959.815,-124.22C865.95,-118.751 659.821,-105.018 476.704,-80.1334"/>
<polygon fill="midnightblue" stroke="midnightblue" points="477.004,-76.6419 466.62,-78.7486 476.051,-83.5768 477.004,-76.6419"/>
</g>
<!-- Node9 -->
<g id="node17" class="node"><title>Node9</title>
<polygon fill="white" stroke="#bfbfbf" points="483.5,-58.5 483.5,-79.5 576.5,-79.5 576.5,-58.5 483.5,-58.5"/>
<text text-anchor="middle" x="530" y="-66.5" font-family="Helvetica,sans-Serif" font-size="10.00">OgreQuaternion.h</text>
</g>
<!-- Node4&#45;&gt;Node9 -->
<g id="edge16" class="edge"><title>Node4&#45;&gt;Node9</title>
<path fill="none" stroke="midnightblue" d="M959.99,-122.826C881.743,-116.104 727.207,-101.569 586.839,-80.192"/>
<polygon fill="midnightblue" stroke="midnightblue" points="587.174,-76.7025 576.758,-78.6411 586.11,-83.6211 587.174,-76.7025"/>
</g>
<!-- Node10 -->
<g id="node19" class="node"><title>Node10</title>
<polygon fill="white" stroke="#bfbfbf" points="593.5,-58.5 593.5,-79.5 664.5,-79.5 664.5,-58.5 593.5,-58.5"/>
<text text-anchor="middle" x="629" y="-66.5" font-family="Helvetica,sans-Serif" font-size="10.00">OgreString.h</text>
</g>
<!-- Node4&#45;&gt;Node10 -->
<g id="edge18" class="edge"><title>Node4&#45;&gt;Node10</title>
<path fill="none" stroke="midnightblue" d="M959.756,-121.6C895.303,-114.427 781.09,-100.451 674.871,-80.2314"/>
<polygon fill="midnightblue" stroke="midnightblue" points="675.43,-76.7747 664.949,-78.3195 674.106,-83.6483 675.43,-76.7747"/>
</g>
<!-- Node11 -->
<g id="node21" class="node"><title>Node11</title>
<polygon fill="white" stroke="#bfbfbf" points="682,-58.5 682,-79.5 796,-79.5 796,-58.5 682,-58.5"/>
<text text-anchor="middle" x="739" y="-66.5" font-family="Helvetica,sans-Serif" font-size="10.00">OgreStringConverter.h</text>
</g>
<!-- Node4&#45;&gt;Node11 -->
<g id="edge20" class="edge"><title>Node4&#45;&gt;Node11</title>
<path fill="none" stroke="midnightblue" d="M961.743,-116.497C915.768,-106.693 847.094,-92.0496 798.167,-81.6165"/>
<polygon fill="midnightblue" stroke="midnightblue" points="798.86,-78.1856 788.35,-79.5231 797.4,-85.0317 798.86,-78.1856"/>
</g>
<!-- Node12 -->
<g id="node23" class="node"><title>Node12</title>
<polygon fill="white" stroke="#bfbfbf" points="813.5,-58.5 813.5,-79.5 904.5,-79.5 904.5,-58.5 813.5,-58.5"/>
<text text-anchor="middle" x="859" y="-66.5" font-family="Helvetica,sans-Serif" font-size="10.00">OgreUTFString.h</text>
</g>
<!-- Node4&#45;&gt;Node12 -->
<g id="edge22" class="edge"><title>Node4&#45;&gt;Node12</title>
<path fill="none" stroke="midnightblue" d="M983.474,-116.497C959.016,-107.164 923.062,-93.4447 896.076,-83.1475"/>
<polygon fill="midnightblue" stroke="midnightblue" points="897.168,-79.8182 886.578,-79.5231 894.673,-86.3582 897.168,-79.8182"/>
</g>
<!-- Node13 -->
<g id="node25" class="node"><title>Node13</title>
<polygon fill="white" stroke="#bfbfbf" points="922,-58.5 922,-79.5 1002,-79.5 1002,-58.5 922,-58.5"/>
<text text-anchor="middle" x="962" y="-66.5" font-family="Helvetica,sans-Serif" font-size="10.00">OgreVector2.h</text>
</g>
<!-- Node4&#45;&gt;Node13 -->
<g id="edge24" class="edge"><title>Node4&#45;&gt;Node13</title>
<path fill="none" stroke="midnightblue" d="M1002.01,-116.362C995.175,-108.268 985.598,-96.9318 977.528,-87.3796"/>
<polygon fill="midnightblue" stroke="midnightblue" points="980.058,-84.9508 970.93,-79.5707 974.71,-89.4683 980.058,-84.9508"/>
</g>
<!-- Node14 -->
<g id="node27" class="node"><title>Node14</title>
<polygon fill="white" stroke="#bfbfbf" points="1020,-58.5 1020,-79.5 1100,-79.5 1100,-58.5 1020,-58.5"/>
<text text-anchor="middle" x="1060" y="-66.5" font-family="Helvetica,sans-Serif" font-size="10.00">OgreVector3.h</text>
</g>
<!-- Node4&#45;&gt;Node14 -->
<g id="edge26" class="edge"><title>Node4&#45;&gt;Node14</title>
<path fill="none" stroke="midnightblue" d="M1019.99,-116.362C1026.83,-108.268 1036.4,-96.9318 1044.47,-87.3796"/>
<polygon fill="midnightblue" stroke="midnightblue" points="1047.29,-89.4683 1051.07,-79.5707 1041.94,-84.9508 1047.29,-89.4683"/>
</g>
<!-- Node15 -->
<g id="node29" class="node"><title>Node15</title>
<polygon fill="white" stroke="#bfbfbf" points="1847.5,-58.5 1847.5,-79.5 1950.5,-79.5 1950.5,-58.5 1847.5,-58.5"/>
<text text-anchor="middle" x="1899" y="-66.5" font-family="Helvetica,sans-Serif" font-size="10.00">OgrePrerequisites.h</text>
</g>
<!-- Node4&#45;&gt;Node15 -->
<g id="edge28" class="edge"><title>Node4&#45;&gt;Node15</title>
<path fill="none" stroke="midnightblue" d="M1062.01,-117.77C1066.73,-117.097 1071.45,-116.491 1076,-116 1410.24,-79.9661 1499.98,-117.94 1837.3,-80.0655"/>
<polygon fill="midnightblue" stroke="midnightblue" points="1837.81,-83.5299 1847.36,-78.9226 1837.02,-76.5747 1837.81,-83.5299"/>
</g>
<!-- Node16 -->
<g id="node31" class="node"><title>Node16</title>
<polygon fill="white" stroke="#bfbfbf" points="1118,-58.5 1118,-79.5 1268,-79.5 1268,-58.5 1118,-58.5"/>
<text text-anchor="middle" x="1193" y="-66.5" font-family="Helvetica,sans-Serif" font-size="10.00">Overlay/OgreOverlaySystem.h</text>
</g>
<!-- Node4&#45;&gt;Node16 -->
<g id="edge30" class="edge"><title>Node4&#45;&gt;Node16</title>
<path fill="none" stroke="midnightblue" d="M1043.96,-116.497C1073.76,-107 1117.81,-92.9619 1150.3,-82.6087"/>
<polygon fill="midnightblue" stroke="midnightblue" points="1151.51,-85.8942 1159.98,-79.5231 1149.39,-79.2247 1151.51,-85.8942"/>
</g>
<!-- Node17 -->
<g id="node33" class="node"><title>Node17</title>
<a xlink:href="_forward_declarations_8h.html" target="_top" xlink:title="Global forward declarations. ">
<polygon fill="white" stroke="black" points="1278.5,-0.5 1278.5,-21.5 1393.5,-21.5 1393.5,-0.5 1278.5,-0.5"/>
<text text-anchor="middle" x="1336" y="-8.5" font-family="Helvetica,sans-Serif" font-size="10.00">ForwardDeclarations.h</text>
</a>
</g>
<!-- Node4&#45;&gt;Node17 -->
<g id="edge32" class="edge"><title>Node4&#45;&gt;Node17</title>
<path fill="none" stroke="midnightblue" d="M1062.04,-118.201C1138.64,-104.968 1274.66,-81.336 1277,-80 1297.71,-68.1687 1314.55,-46.2196 1324.86,-30.2456"/>
<polygon fill="midnightblue" stroke="midnightblue" points="1327.89,-32.0018 1330.15,-21.6525 1321.93,-28.329 1327.89,-32.0018"/>
</g>
<!-- Node18 -->
<g id="node35" class="node"><title>Node18</title>
<a xlink:href="_global_environment_8h.html" target="_top" xlink:title="GlobalEnvironment.h">
<polygon fill="white" stroke="black" points="1323.5,-58.5 1323.5,-79.5 1430.5,-79.5 1430.5,-58.5 1323.5,-58.5"/>
<text text-anchor="middle" x="1377" y="-66.5" font-family="Helvetica,sans-Serif" font-size="10.00">GlobalEnvironment.h</text>
</a>
</g>
<!-- Node4&#45;&gt;Node18 -->
<g id="edge34" class="edge"><title>Node4&#45;&gt;Node18</title>
<path fill="none" stroke="midnightblue" d="M1062.08,-118.281C1066.79,-117.5 1071.48,-116.73 1076,-116 1179.88,-99.2208 1206.08,-96.5239 1310,-80 1311.08,-79.8288 1312.16,-79.6556 1313.26,-79.4807"/>
<polygon fill="midnightblue" stroke="midnightblue" points="1313.93,-82.917 1323.25,-77.8734 1312.82,-76.0059 1313.93,-82.917"/>
</g>
<!-- Node19 -->
<g id="node38" class="node"><title>Node19</title>
<a xlink:href="_zeroed_memory_allocator_8h.html" target="_top" xlink:title="ZeroedMemoryAllocator.h">
<polygon fill="white" stroke="black" points="1448,-58.5 1448,-79.5 1576,-79.5 1576,-58.5 1448,-58.5"/>
<text text-anchor="middle" x="1512" y="-66.5" font-family="Helvetica,sans-Serif" font-size="10.00">ZeroedMemoryAllocator.h</text>
</a>
</g>
<!-- Node4&#45;&gt;Node19 -->
<g id="edge38" class="edge"><title>Node4&#45;&gt;Node19</title>
<path fill="none" stroke="midnightblue" d="M1062.04,-118.021C1066.76,-117.295 1071.46,-116.608 1076,-116 1233.39,-94.903 1276.37,-99.8657 1437.64,-80.1155"/>
<polygon fill="midnightblue" stroke="midnightblue" points="1438.44,-83.5442 1447.93,-78.842 1437.58,-76.5972 1438.44,-83.5442"/>
</g>
<!-- Node20 -->
<g id="node40" class="node"><title>Node20</title>
<a xlink:href="_bit_flags_8h.html" target="_top" xlink:title="../common/BitFlags.h">
<polygon fill="white" stroke="black" points="1594,-58.5 1594,-79.5 1704,-79.5 1704,-58.5 1594,-58.5"/>
<text text-anchor="middle" x="1649" y="-66.5" font-family="Helvetica,sans-Serif" font-size="10.00">../common/BitFlags.h</text>
</a>
</g>
<!-- Node4&#45;&gt;Node20 -->
<g id="edge40" class="edge"><title>Node4&#45;&gt;Node20</title>
<path fill="none" stroke="midnightblue" d="M1062.03,-117.884C1066.74,-117.187 1071.45,-116.544 1076,-116 1297.88,-89.4424 1358.1,-106.718 1583.72,-80.0489"/>
<polygon fill="midnightblue" stroke="midnightblue" points="1584.38,-83.4949 1593.89,-78.83 1583.55,-76.5446 1584.38,-83.4949"/>
</g>
<!-- Node22 -->
<g id="node44" class="node"><title>Node22</title>
<polygon fill="white" stroke="#bfbfbf" points="1721.5,-58.5 1721.5,-79.5 1830.5,-79.5 1830.5,-58.5 1721.5,-58.5"/>
<text text-anchor="middle" x="1776" y="-66.5" font-family="Helvetica,sans-Serif" font-size="10.00">MyGUI_Prerequest.h</text>
</g>
<!-- Node4&#45;&gt;Node22 -->
<g id="edge44" class="edge"><title>Node4&#45;&gt;Node22</title>
<path fill="none" stroke="midnightblue" d="M1062.02,-117.815C1066.74,-117.132 1071.45,-116.512 1076,-116 1354.48,-84.6652 1429.55,-111.79 1711.31,-80.083"/>
<polygon fill="midnightblue" stroke="midnightblue" points="1711.88,-83.5406 1721.42,-78.9301 1711.09,-76.5856 1711.88,-83.5406"/>
</g>
<!-- Node18&#45;&gt;Node17 -->
<g id="edge36" class="edge"><title>Node18&#45;&gt;Node17</title>
<path fill="none" stroke="midnightblue" d="M1369.48,-58.3619C1363.87,-50.4313 1356.07,-39.3885 1349.4,-29.9606"/>
<polygon fill="midnightblue" stroke="midnightblue" points="1352.1,-27.7161 1343.47,-21.5707 1346.39,-31.7568 1352.1,-27.7161"/>
</g>
<!-- Node21 -->
<g id="node42" class="node"><title>Node21</title>
<polygon fill="white" stroke="#bfbfbf" points="1626,-0.5 1626,-21.5 1672,-21.5 1672,-0.5 1626,-0.5"/>
<text text-anchor="middle" x="1649" y="-8.5" font-family="Helvetica,sans-Serif" font-size="10.00">cstdint</text>
</g>
<!-- Node20&#45;&gt;Node21 -->
<g id="edge42" class="edge"><title>Node20&#45;&gt;Node21</title>
<path fill="none" stroke="midnightblue" d="M1649,-58.3619C1649,-50.9219 1649,-40.7427 1649,-31.7276"/>
<polygon fill="midnightblue" stroke="midnightblue" points="1652.5,-31.5706 1649,-21.5707 1645.5,-31.5707 1652.5,-31.5706"/>
</g>
<!-- Node23&#45;&gt;Node4 -->
<g id="edge58" class="edge"><title>Node23&#45;&gt;Node4</title>
<path fill="none" stroke="midnightblue" d="M1139.72,-176.442C1115.65,-167.196 1076.9,-152.311 1048.19,-141.285"/>
<polygon fill="midnightblue" stroke="midnightblue" points="1049.09,-137.881 1038.5,-137.562 1046.58,-144.415 1049.09,-137.881"/>
</g>
<!-- Node23&#45;&gt;Node15 -->
<g id="edge48" class="edge"><title>Node23&#45;&gt;Node15</title>
<path fill="none" stroke="midnightblue" d="M1143.97,-174.398C1122.23,-160.36 1090.77,-135.146 1109,-116 1135.74,-87.9106 1740.5,-84.8991 1837.19,-79.6709"/>
<polygon fill="midnightblue" stroke="midnightblue" points="1837.64,-83.1474 1847.35,-78.9156 1837.12,-76.1667 1837.64,-83.1474"/>
</g>
<!-- Node24 -->
<g id="node49" class="node"><title>Node24</title>
<polygon fill="white" stroke="#bfbfbf" points="1118,-116.5 1118,-137.5 1206,-137.5 1206,-116.5 1118,-116.5"/>
<text text-anchor="middle" x="1162" y="-124.5" font-family="Helvetica,sans-Serif" font-size="10.00">OgreResource.h</text>
</g>
<!-- Node23&#45;&gt;Node24 -->
<g id="edge50" class="edge"><title>Node23&#45;&gt;Node24</title>
<path fill="none" stroke="midnightblue" d="M1162,-174.362C1162,-166.922 1162,-156.743 1162,-147.728"/>
<polygon fill="midnightblue" stroke="midnightblue" points="1165.5,-147.571 1162,-137.571 1158.5,-147.571 1165.5,-147.571"/>
</g>
<!-- Node25 -->
<g id="node51" class="node"><title>Node25</title>
<polygon fill="white" stroke="#bfbfbf" points="1223.5,-116.5 1223.5,-137.5 1302.5,-137.5 1302.5,-116.5 1223.5,-116.5"/>
<text text-anchor="middle" x="1263" y="-124.5" font-family="Helvetica,sans-Serif" font-size="10.00">OgreTexture.h</text>
</g>
<!-- Node23&#45;&gt;Node25 -->
<g id="edge52" class="edge"><title>Node23&#45;&gt;Node25</title>
<path fill="none" stroke="midnightblue" d="M1180.52,-174.362C1195.9,-165.532 1218,-152.844 1235.45,-142.822"/>
<polygon fill="midnightblue" stroke="midnightblue" points="1237.66,-145.586 1244.59,-137.571 1234.18,-139.515 1237.66,-145.586"/>
</g>
<!-- Node26 -->
<g id="node53" class="node"><title>Node26</title>
<polygon fill="white" stroke="#bfbfbf" points="1320,-116.5 1320,-137.5 1400,-137.5 1400,-116.5 1320,-116.5"/>
<text text-anchor="middle" x="1360" y="-124.5" font-family="Helvetica,sans-Serif" font-size="10.00">OgreMaterial.h</text>
</g>
<!-- Node23&#45;&gt;Node26 -->
<g id="edge54" class="edge"><title>Node23&#45;&gt;Node26</title>
<path fill="none" stroke="midnightblue" d="M1184.33,-178.459C1215.72,-169.263 1273.62,-152.304 1314.34,-140.374"/>
<polygon fill="midnightblue" stroke="midnightblue" points="1315.43,-143.703 1324.04,-137.533 1313.46,-136.985 1315.43,-143.703"/>
</g>
<!-- Node27 -->
<g id="node55" class="node"><title>Node27</title>
<polygon fill="white" stroke="#bfbfbf" points="1418,-116.5 1418,-137.5 1504,-137.5 1504,-116.5 1418,-116.5"/>
<text text-anchor="middle" x="1461" y="-124.5" font-family="Helvetica,sans-Serif" font-size="10.00">OgreCommon.h</text>
</g>
<!-- Node23&#45;&gt;Node27 -->
<g id="edge56" class="edge"><title>Node23&#45;&gt;Node27</title>
<path fill="none" stroke="midnightblue" d="M1184.17,-180.938C1225.88,-173.263 1319.13,-155.948 1407.92,-138.19"/>
<polygon fill="midnightblue" stroke="midnightblue" points="1408.77,-141.59 1417.88,-136.192 1407.39,-134.726 1408.77,-141.59"/>
</g>
</g>
</svg>
        <g id="navigator" transform="translate(0 0)" fill="#404254">
                <rect fill="#f2f5e9" fill-opacity="0.5" stroke="#606060" stroke-width=".5" x="0" y="0" width="60" height="60"/>
                <use id="zoomplus" xlink:href="#zoomPlus" x="17" y="9" onmousedown="handleZoom(evt,'in')"/>
                <use id="zoomminus" xlink:href="#zoomMin" x="42" y="9" onmousedown="handleZoom(evt,'out')"/>
                <use id="reset" xlink:href="#resetDef" x="30" y="36" onmousedown="handleReset()"/>
                <g id="arrowUp" xlink:href="#dirArrow" transform="translate(30 24)" onmousedown="handlePan(0,-1)">
                  <use xlink:href="#rim" fill="#404040">
                        <set attributeName="fill" to="#808080" begin="arrowUp.mouseover" end="arrowUp.mouseout"/>
                  </use>
                  <path fill="none" stroke="white" stroke-width="1.5" d="M0,-3.0v7 M-2.5,-0.5L0,-3.0L2.5,-0.5"/>
                </g>
                <g id="arrowRight" xlink:href="#dirArrow" transform="rotate(90) translate(36 -43)" onmousedown="handlePan(1,0)">
                  <use xlink:href="#rim" fill="#404040">
                        <set attributeName="fill" to="#808080" begin="arrowRight.mouseover" end="arrowRight.mouseout"/>
                  </use>
                  <path fill="none" stroke="white" stroke-width="1.5" d="M0,-3.0v7 M-2.5,-0.5L0,-3.0L2.5,-0.5"/>
                </g>
                <g id="arrowDown" xlink:href="#dirArrow" transform="rotate(180) translate(-30 -48)" onmousedown="handlePan(0,1)">
                  <use xlink:href="#rim" fill="#404040">
                        <set attributeName="fill" to="#808080" begin="arrowDown.mouseover" end="arrowDown.mouseout"/>
                  </use>
                  <path fill="none" stroke="white" stroke-width="1.5" d="M0,-3.0v7 M-2.5,-0.5L0,-3.0L2.5,-0.5"/>
                </g>
                <g id="arrowLeft" xlink:href="#dirArrow" transform="rotate(270) translate(-36 17)" onmousedown="handlePan(-1,0)">
                  <use xlink:href="#rim" fill="#404040">
                        <set attributeName="fill" to="#808080" begin="arrowLeft.mouseover" end="arrowLeft.mouseout"/>
                  </use>
                  <path fill="none" stroke="white" stroke-width="1.5" d="M0,-3.0v7 M-2.5,-0.5L0,-3.0L2.5,-0.5"/>
                </g>
        </g>
        <svg viewBox="0 0 15 15" width="100%" height="30px" preserveAspectRatio="xMaxYMin meet">
         <g id="arrow_out" transform="scale(0.3 0.3)">
          <a xlink:href="_skin_manager_8cpp__incl_org.svg" target="_base">
           <rect id="button" ry="5" rx="5" y="6" x="6" height="38" width="38"
                fill="#f2f5e9" fill-opacity="0.5" stroke="#606060" stroke-width="1.0"/>
           <path id="arrow"
             d="M 11.500037,31.436501 C 11.940474,20.09759 22.043105,11.32322 32.158766,21.979434 L 37.068811,17.246167 C 37.068811,17.246167 37.088388,32 37.088388,32 L 22.160133,31.978069 C 22.160133,31.978069 26.997745,27.140456 26.997745,27.140456 C 18.528582,18.264221 13.291696,25.230495 11.500037,31.436501 z"
             style="fill:#404040;"/>
          </a>
         </g>
        </svg>
</svg>
