<?xml version="1.0" encoding="UTF-8" standalone="no"?>
<!DOCTYPE svg PUBLIC "-//W3C//DTD SVG 1.1//EN"
 "http://www.w3.org/Graphics/SVG/1.1/DTD/svg11.dtd">
<!-- Generated by graphviz version 2.26.3 (20100126.1600)
 -->
<!-- Title: G Pages: 1 -->
<!--zoomable 204 -->
<svg id="main" version="1.1" xmlns="http://www.w3.org/2000/svg" xmlns:xlink="http://www.w3.org/1999/xlink" xml:space="preserve" onload="init(evt)">
        <defs>
                <circle id="rim" cx="0" cy="0" r="7"/>
                <circle id="rim2" cx="0" cy="0" r="3.5"/>
                <g id="zoomPlus">
                        <use xlink:href="#rim" fill="#404040">
                                <set attributeName="fill" to="#808080" begin="zoomplus.mouseover" end="zoomplus.mouseout"/>
                        </use>
                        <path d="M-4,0h8M0,-4v8" fill="none" stroke="white" stroke-width="1.5" pointer-events="none"/>
                </g>
                <g id="zoomMin">
                        <use xlink:href="#rim" fill="#404040">
                                <set attributeName="fill" to="#808080" begin="zoomminus.mouseover" end="zoomminus.mouseout"/>
                        </use>
                        <path d="M-4,0h8" fill="none" stroke="white" stroke-width="1.5" pointer-events="none"/>
                </g>
                <g id="dirArrow">
                        <path fill="none" stroke="white" stroke-width="1.5" d="M0,-3.0v7 M-2.5,-0.5L0,-3.0L2.5,-0.5"/>
                </g>
               <g id="resetDef">
                       <use xlink:href="#rim2" fill="#404040">
                               <set attributeName="fill" to="#808080" begin="reset.mouseover" end="reset.mouseout"/>
                       </use>
               </g>
        </defs>

<script type="text/javascript">
var viewWidth = 1958;
var viewHeight = 204;
var sectionId = 'dynsection-0';
</script>
<script xlink:href="svgpan.js"/>
<svg id="graph" class="graph">
<g id="viewport">
<title>G</title>
<polygon fill="white" stroke="white" points="-4,5 -4,-200 1955,-200 1955,5 -4,5"/>
<!-- Node1 -->
<g id="node1" class="node"><title>Node1</title>
<polygon fill="#bfbfbf" stroke="black" points="503,-174.5 503,-195.5 649,-195.5 649,-174.5 503,-174.5"/>
<text text-anchor="middle" x="576" y="-182.5" font-family="Helvetica,sans-Serif" font-size="10.00">source/main/gameplay/Skin.h</text>
</g>
<!-- Node2 -->
<g id="node3" class="node"><title>Node2</title>
<polygon fill="white" stroke="#bfbfbf" points="-0.5,-58.5 -0.5,-79.5 102.5,-79.5 102.5,-58.5 -0.5,-58.5"/>
<text text-anchor="middle" x="51" y="-66.5" font-family="Helvetica,sans-Serif" font-size="10.00">OgrePrerequisites.h</text>
</g>
<!-- Node1&#45;&gt;Node2 -->
<g id="edge2" class="edge"><title>Node1&#45;&gt;Node2</title>
<path fill="none" stroke="midnightblue" d="M528.018,-174.398C431.254,-153.018 213.071,-104.81 108.718,-81.7529"/>
<polygon fill="midnightblue" stroke="midnightblue" points="109.2,-78.2751 98.6807,-79.5352 107.69,-85.1103 109.2,-78.2751"/>
</g>
<!-- Node3 -->
<g id="node5" class="node"><title>Node3</title>
<polygon fill="white" stroke="#bfbfbf" points="383,-116.5 383,-137.5 471,-137.5 471,-116.5 383,-116.5"/>
<text text-anchor="middle" x="427" y="-124.5" font-family="Helvetica,sans-Serif" font-size="10.00">OgreResource.h</text>
</g>
<!-- Node1&#45;&gt;Node3 -->
<g id="edge4" class="edge"><title>Node1&#45;&gt;Node3</title>
<path fill="none" stroke="midnightblue" d="M549.017,-174.497C525.147,-165.205 490.106,-151.565 463.693,-141.283"/>
<polygon fill="midnightblue" stroke="midnightblue" points="464.622,-137.889 454.033,-137.523 462.083,-144.412 464.622,-137.889"/>
</g>
<!-- Node4 -->
<g id="node7" class="node"><title>Node4</title>
<polygon fill="white" stroke="#bfbfbf" points="488.5,-116.5 488.5,-137.5 567.5,-137.5 567.5,-116.5 488.5,-116.5"/>
<text text-anchor="middle" x="528" y="-124.5" font-family="Helvetica,sans-Serif" font-size="10.00">OgreTexture.h</text>
</g>
<!-- Node1&#45;&gt;Node4 -->
<g id="edge6" class="edge"><title>Node1&#45;&gt;Node4</title>
<path fill="none" stroke="midnightblue" d="M567.196,-174.362C560.498,-166.268 551.116,-154.932 543.211,-145.38"/>
<polygon fill="midnightblue" stroke="midnightblue" points="545.82,-143.043 536.748,-137.571 540.427,-147.506 545.82,-143.043"/>
</g>
<!-- Node5 -->
<g id="node9" class="node"><title>Node5</title>
<polygon fill="white" stroke="#bfbfbf" points="585,-116.5 585,-137.5 665,-137.5 665,-116.5 585,-116.5"/>
<text text-anchor="middle" x="625" y="-124.5" font-family="Helvetica,sans-Serif" font-size="10.00">OgreMaterial.h</text>
</g>
<!-- Node1&#45;&gt;Node5 -->
<g id="edge8" class="edge"><title>Node1&#45;&gt;Node5</title>
<path fill="none" stroke="midnightblue" d="M584.987,-174.362C591.825,-166.268 601.402,-154.932 609.472,-145.38"/>
<polygon fill="midnightblue" stroke="midnightblue" points="612.29,-147.468 616.07,-137.571 606.942,-142.951 612.29,-147.468"/>
</g>
<!-- Node6 -->
<g id="node11" class="node"><title>Node6</title>
<polygon fill="white" stroke="#bfbfbf" points="683,-116.5 683,-137.5 769,-137.5 769,-116.5 683,-116.5"/>
<text text-anchor="middle" x="726" y="-124.5" font-family="Helvetica,sans-Serif" font-size="10.00">OgreCommon.h</text>
</g>
<!-- Node1&#45;&gt;Node6 -->
<g id="edge10" class="edge"><title>Node1&#45;&gt;Node6</title>
<path fill="none" stroke="midnightblue" d="M603.164,-174.497C627.3,-165.164 662.781,-151.445 689.412,-141.147"/>
<polygon fill="midnightblue" stroke="midnightblue" points="690.72,-144.394 698.785,-137.523 688.196,-137.865 690.72,-144.394"/>
</g>
<!-- Node7 -->
<g id="node13" class="node"><title>Node7</title>
<a xlink:href="_ro_r_prerequisites_8h.html" target="_top" xlink:title="RoRPrerequisites.h">
<polygon fill="white" stroke="black" points="868,-116.5 868,-137.5 970,-137.5 970,-116.5 868,-116.5"/>
<text text-anchor="middle" x="919" y="-124.5" font-family="Helvetica,sans-Serif" font-size="10.00">RoRPrerequisites.h</text>
</a>
</g>
<!-- Node1&#45;&gt;Node7 -->
<g id="edge12" class="edge"><title>Node1&#45;&gt;Node7</title>
<path fill="none" stroke="midnightblue" d="M638.115,-174.497C700.474,-163.952 795.949,-147.807 857.934,-137.326"/>
<polygon fill="midnightblue" stroke="midnightblue" points="858.687,-140.748 867.963,-135.63 857.52,-133.846 858.687,-140.748"/>
</g>
<!-- Node7&#45;&gt;Node2 -->
<g id="edge34" class="edge"><title>Node7&#45;&gt;Node2</title>
<path fill="none" stroke="midnightblue" d="M867.785,-122.708C841.04,-120.542 807.768,-117.964 778,-116 485.095,-96.6729 407.558,-114.43 112.776,-80.0906"/>
<polygon fill="midnightblue" stroke="midnightblue" points="112.988,-76.5914 102.647,-78.9002 112.17,-83.5435 112.988,-76.5914"/>
</g>
<!-- Node8 -->
<g id="node15" class="node"><title>Node8</title>
<polygon fill="white" stroke="#bfbfbf" points="119.5,-58.5 119.5,-79.5 234.5,-79.5 234.5,-58.5 119.5,-58.5"/>
<text text-anchor="middle" x="177" y="-66.5" font-family="Helvetica,sans-Serif" font-size="10.00">OgreAxisAlignedBox.h</text>
</g>
<!-- Node7&#45;&gt;Node8 -->
<g id="edge14" class="edge"><title>Node7&#45;&gt;Node8</title>
<path fill="none" stroke="midnightblue" d="M867.774,-122.871C841.026,-120.749 807.754,-118.162 778,-116 543.561,-98.968 481.399,-107.384 244.499,-80.0878"/>
<polygon fill="midnightblue" stroke="midnightblue" points="244.883,-76.6089 234.546,-78.9319 244.075,-83.5622 244.883,-76.6089"/>
</g>
<!-- Node9 -->
<g id="node17" class="node"><title>Node9</title>
<polygon fill="white" stroke="#bfbfbf" points="251.5,-58.5 251.5,-79.5 350.5,-79.5 350.5,-58.5 251.5,-58.5"/>
<text text-anchor="middle" x="301" y="-66.5" font-family="Helvetica,sans-Serif" font-size="10.00">OgreColourValue.h</text>
</g>
<!-- Node7&#45;&gt;Node9 -->
<g id="edge16" class="edge"><title>Node7&#45;&gt;Node9</title>
<path fill="none" stroke="midnightblue" d="M867.55,-122.989C744.938,-113.388 440.354,-89.2801 361.003,-80.0592"/>
<polygon fill="midnightblue" stroke="midnightblue" points="360.976,-76.5286 350.619,-78.7608 360.107,-83.4745 360.976,-76.5286"/>
</g>
<!-- Node10 -->
<g id="node19" class="node"><title>Node10</title>
<polygon fill="white" stroke="#bfbfbf" points="367.5,-58.5 367.5,-79.5 470.5,-79.5 470.5,-58.5 367.5,-58.5"/>
<text text-anchor="middle" x="419" y="-66.5" font-family="Helvetica,sans-Serif" font-size="10.00">OgreHeaderPrefix.h</text>
</g>
<!-- Node7&#45;&gt;Node10 -->
<g id="edge18" class="edge"><title>Node7&#45;&gt;Node10</title>
<path fill="none" stroke="midnightblue" d="M867.697,-122.776C787.294,-115.88 626.516,-100.983 480.697,-80.1706"/>
<polygon fill="midnightblue" stroke="midnightblue" points="481.067,-76.6879 470.67,-78.7267 480.069,-83.6164 481.067,-76.6879"/>
</g>
<!-- Node11 -->
<g id="node21" class="node"><title>Node11</title>
<polygon fill="white" stroke="#bfbfbf" points="487.5,-58.5 487.5,-79.5 586.5,-79.5 586.5,-58.5 487.5,-58.5"/>
<text text-anchor="middle" x="537" y="-66.5" font-family="Helvetica,sans-Serif" font-size="10.00">OgreLogManager.h</text>
</g>
<!-- Node7&#45;&gt;Node11 -->
<g id="edge20" class="edge"><title>Node7&#45;&gt;Node11</title>
<path fill="none" stroke="midnightblue" d="M867.827,-120.275C805.94,-111.986 698.358,-97.0824 596.775,-80.2505"/>
<polygon fill="midnightblue" stroke="midnightblue" points="597.088,-76.7545 586.649,-78.5628 595.937,-83.6592 597.088,-76.7545"/>
</g>
<!-- Node12 -->
<g id="node23" class="node"><title>Node12</title>
<polygon fill="white" stroke="#bfbfbf" points="603.5,-58.5 603.5,-79.5 696.5,-79.5 696.5,-58.5 603.5,-58.5"/>
<text text-anchor="middle" x="650" y="-66.5" font-family="Helvetica,sans-Serif" font-size="10.00">OgreQuaternion.h</text>
</g>
<!-- Node7&#45;&gt;Node12 -->
<g id="edge22" class="edge"><title>Node7&#45;&gt;Node12</title>
<path fill="none" stroke="midnightblue" d="M870.286,-116.497C824.206,-106.561 755.07,-91.6546 706.572,-81.1976"/>
<polygon fill="midnightblue" stroke="midnightblue" points="707.065,-77.7235 696.552,-79.0371 705.589,-84.5663 707.065,-77.7235"/>
</g>
<!-- Node13 -->
<g id="node25" class="node"><title>Node13</title>
<polygon fill="white" stroke="#bfbfbf" points="713.5,-58.5 713.5,-79.5 784.5,-79.5 784.5,-58.5 713.5,-58.5"/>
<text text-anchor="middle" x="749" y="-66.5" font-family="Helvetica,sans-Serif" font-size="10.00">OgreString.h</text>
</g>
<!-- Node7&#45;&gt;Node13 -->
<g id="edge24" class="edge"><title>Node7&#45;&gt;Node13</title>
<path fill="none" stroke="midnightblue" d="M888.214,-116.497C860.62,-107.082 819.942,-93.2036 789.675,-82.8773"/>
<polygon fill="midnightblue" stroke="midnightblue" points="790.438,-79.4396 779.843,-79.5231 788.178,-86.0646 790.438,-79.4396"/>
</g>
<!-- Node14 -->
<g id="node27" class="node"><title>Node14</title>
<polygon fill="white" stroke="#bfbfbf" points="802,-58.5 802,-79.5 916,-79.5 916,-58.5 802,-58.5"/>
<text text-anchor="middle" x="859" y="-66.5" font-family="Helvetica,sans-Serif" font-size="10.00">OgreStringConverter.h</text>
</g>
<!-- Node7&#45;&gt;Node14 -->
<g id="edge26" class="edge"><title>Node7&#45;&gt;Node14</title>
<path fill="none" stroke="midnightblue" d="M907.995,-116.362C899.453,-108.104 887.42,-96.4725 877.417,-86.8029"/>
<polygon fill="midnightblue" stroke="midnightblue" points="879.558,-84.0044 869.935,-79.5707 874.692,-89.0374 879.558,-84.0044"/>
</g>
<!-- Node15 -->
<g id="node29" class="node"><title>Node15</title>
<polygon fill="white" stroke="#bfbfbf" points="933.5,-58.5 933.5,-79.5 1024.5,-79.5 1024.5,-58.5 933.5,-58.5"/>
<text text-anchor="middle" x="979" y="-66.5" font-family="Helvetica,sans-Serif" font-size="10.00">OgreUTFString.h</text>
</g>
<!-- Node7&#45;&gt;Node15 -->
<g id="edge28" class="edge"><title>Node7&#45;&gt;Node15</title>
<path fill="none" stroke="midnightblue" d="M930.005,-116.362C938.547,-108.104 950.58,-96.4725 960.583,-86.8029"/>
<polygon fill="midnightblue" stroke="midnightblue" points="963.308,-89.0374 968.065,-79.5707 958.442,-84.0044 963.308,-89.0374"/>
</g>
<!-- Node16 -->
<g id="node31" class="node"><title>Node16</title>
<polygon fill="white" stroke="#bfbfbf" points="1042,-58.5 1042,-79.5 1122,-79.5 1122,-58.5 1042,-58.5"/>
<text text-anchor="middle" x="1082" y="-66.5" font-family="Helvetica,sans-Serif" font-size="10.00">OgreVector2.h</text>
</g>
<!-- Node7&#45;&gt;Node16 -->
<g id="edge30" class="edge"><title>Node7&#45;&gt;Node16</title>
<path fill="none" stroke="midnightblue" d="M948.518,-116.497C974.976,-107.082 1013.98,-93.2036 1043,-82.8773"/>
<polygon fill="midnightblue" stroke="midnightblue" points="1044.18,-86.173 1052.43,-79.5231 1041.83,-79.578 1044.18,-86.173"/>
</g>
<!-- Node17 -->
<g id="node33" class="node"><title>Node17</title>
<polygon fill="white" stroke="#bfbfbf" points="1140,-58.5 1140,-79.5 1220,-79.5 1220,-58.5 1140,-58.5"/>
<text text-anchor="middle" x="1180" y="-66.5" font-family="Helvetica,sans-Serif" font-size="10.00">OgreVector3.h</text>
</g>
<!-- Node7&#45;&gt;Node17 -->
<g id="edge32" class="edge"><title>Node7&#45;&gt;Node17</title>
<path fill="none" stroke="midnightblue" d="M966.58,-116.49C1007.37,-107.471 1067.98,-94.0489 1129.94,-80.2333"/>
<polygon fill="midnightblue" stroke="midnightblue" points="1130.89,-83.6065 1139.89,-78.0133 1129.37,-76.7744 1130.89,-83.6065"/>
</g>
<!-- Node18 -->
<g id="node36" class="node"><title>Node18</title>
<polygon fill="white" stroke="#bfbfbf" points="1238,-58.5 1238,-79.5 1388,-79.5 1388,-58.5 1238,-58.5"/>
<text text-anchor="middle" x="1313" y="-66.5" font-family="Helvetica,sans-Serif" font-size="10.00">Overlay/OgreOverlaySystem.h</text>
</g>
<!-- Node7&#45;&gt;Node18 -->
<g id="edge36" class="edge"><title>Node7&#45;&gt;Node18</title>
<path fill="none" stroke="midnightblue" d="M970.105,-119.477C1036.36,-109.723 1152.71,-92.5957 1231.29,-81.0277"/>
<polygon fill="midnightblue" stroke="midnightblue" points="1232.26,-84.4235 1241.64,-79.5043 1231.24,-77.4981 1232.26,-84.4235"/>
</g>
<!-- Node19 -->
<g id="node38" class="node"><title>Node19</title>
<a xlink:href="_forward_declarations_8h.html" target="_top" xlink:title="Global forward declarations.">
<polygon fill="white" stroke="black" points="1398.5,-0.5 1398.5,-21.5 1513.5,-21.5 1513.5,-0.5 1398.5,-0.5"/>
<text text-anchor="middle" x="1456" y="-8.5" font-family="Helvetica,sans-Serif" font-size="10.00">ForwardDeclarations.h</text>
</a>
</g>
<!-- Node7&#45;&gt;Node19 -->
<g id="edge38" class="edge"><title>Node7&#45;&gt;Node19</title>
<path fill="none" stroke="midnightblue" d="M970.134,-124.132C1085.68,-117.344 1359.8,-99.399 1397,-80 1418.26,-68.9122 1435.09,-46.6331 1445.25,-30.3808"/>
<polygon fill="midnightblue" stroke="midnightblue" points="1448.34,-32.0237 1450.44,-21.6383 1442.32,-28.4499 1448.34,-32.0237"/>
</g>
<!-- Node20 -->
<g id="node40" class="node"><title>Node20</title>
<a xlink:href="_global_environment_8h.html" target="_top" xlink:title="GlobalEnvironment.h">
<polygon fill="white" stroke="black" points="1443.5,-58.5 1443.5,-79.5 1550.5,-79.5 1550.5,-58.5 1443.5,-58.5"/>
<text text-anchor="middle" x="1497" y="-66.5" font-family="Helvetica,sans-Serif" font-size="10.00">GlobalEnvironment.h</text>
</a>
</g>
<!-- Node7&#45;&gt;Node20 -->
<g id="edge40" class="edge"><title>Node7&#45;&gt;Node20</title>
<path fill="none" stroke="midnightblue" d="M970.265,-123.496C1062.47,-116.923 1262.32,-101.449 1430,-80 1431.08,-79.8617 1432.17,-79.7189 1433.27,-79.5724"/>
<polygon fill="midnightblue" stroke="midnightblue" points="1433.88,-83.0215 1443.29,-78.1621 1432.9,-76.0898 1433.88,-83.0215"/>
</g>
<!-- Node21 -->
<g id="node43" class="node"><title>Node21</title>
<a xlink:href="_zeroed_memory_allocator_8h.html" target="_top" xlink:title="ZeroedMemoryAllocator.h">
<polygon fill="white" stroke="black" points="1568,-58.5 1568,-79.5 1696,-79.5 1696,-58.5 1568,-58.5"/>
<text text-anchor="middle" x="1632" y="-66.5" font-family="Helvetica,sans-Serif" font-size="10.00">ZeroedMemoryAllocator.h</text>
</a>
</g>
<!-- Node7&#45;&gt;Node21 -->
<g id="edge44" class="edge"><title>Node7&#45;&gt;Node21</title>
<path fill="none" stroke="midnightblue" d="M970.143,-124.571C1077.21,-119.199 1332.97,-104.866 1557.93,-80.0487"/>
<polygon fill="midnightblue" stroke="midnightblue" points="1558.39,-83.5192 1567.94,-78.9349 1557.62,-76.5621 1558.39,-83.5192"/>
</g>
<!-- Node22 -->
<g id="node45" class="node"><title>Node22</title>
<a xlink:href="_bit_flags_8h.html" target="_top" xlink:title="../common/BitFlags.h">
<polygon fill="white" stroke="black" points="1714,-58.5 1714,-79.5 1824,-79.5 1824,-58.5 1714,-58.5"/>
<text text-anchor="middle" x="1769" y="-66.5" font-family="Helvetica,sans-Serif" font-size="10.00">../common/BitFlags.h</text>
</a>
</g>
<!-- Node7&#45;&gt;Node22 -->
<g id="edge46" class="edge"><title>Node7&#45;&gt;Node22</title>
<path fill="none" stroke="midnightblue" d="M970.207,-125.896C1094.33,-122.798 1421.21,-112.127 1703.86,-80.0196"/>
<polygon fill="midnightblue" stroke="midnightblue" points="1704.36,-83.4853 1713.9,-78.8684 1703.56,-76.5309 1704.36,-83.4853"/>
</g>
<!-- Node24 -->
<g id="node49" class="node"><title>Node24</title>
<polygon fill="white" stroke="#bfbfbf" points="1841.5,-58.5 1841.5,-79.5 1950.5,-79.5 1950.5,-58.5 1841.5,-58.5"/>
<text text-anchor="middle" x="1896" y="-66.5" font-family="Helvetica,sans-Serif" font-size="10.00">MyGUI_Prerequest.h</text>
</g>
<!-- Node7&#45;&gt;Node24 -->
<g id="edge50" class="edge"><title>Node7&#45;&gt;Node24</title>
<path fill="none" stroke="midnightblue" d="M970.211,-126.544C1107.9,-124.854 1497.66,-117.007 1831.08,-80.1035"/>
<polygon fill="midnightblue" stroke="midnightblue" points="1831.87,-83.5366 1841.42,-78.9472 1831.1,-76.5799 1831.87,-83.5366"/>
</g>
<!-- Node20&#45;&gt;Node19 -->
<g id="edge42" class="edge"><title>Node20&#45;&gt;Node19</title>
<path fill="none" stroke="midnightblue" d="M1489.48,-58.3619C1483.87,-50.4313 1476.07,-39.3885 1469.4,-29.9606"/>
<polygon fill="midnightblue" stroke="midnightblue" points="1472.1,-27.7161 1463.47,-21.5707 1466.39,-31.7568 1472.1,-27.7161"/>
</g>
<!-- Node23 -->
<g id="node47" class="node"><title>Node23</title>
<polygon fill="white" stroke="#bfbfbf" points="1746,-0.5 1746,-21.5 1792,-21.5 1792,-0.5 1746,-0.5"/>
<text text-anchor="middle" x="1769" y="-8.5" font-family="Helvetica,sans-Serif" font-size="10.00">cstdint</text>
</g>
<!-- Node22&#45;&gt;Node23 -->
<g id="edge48" class="edge"><title>Node22&#45;&gt;Node23</title>
<path fill="none" stroke="midnightblue" d="M1769,-58.3619C1769,-50.9219 1769,-40.7427 1769,-31.7276"/>
<polygon fill="midnightblue" stroke="midnightblue" points="1772.5,-31.5706 1769,-21.5707 1765.5,-31.5707 1772.5,-31.5706"/>
</g>
</g>
</svg>
        <g id="navigator" transform="translate(0 0)" fill="#404254">
                <rect fill="#f2f5e9" fill-opacity="0.5" stroke="#606060" stroke-width=".5" x="0" y="0" width="60" height="60"/>
                <use id="zoomplus" xlink:href="#zoomPlus" x="17" y="9" onmousedown="handleZoom(evt,'in')"/>
                <use id="zoomminus" xlink:href="#zoomMin" x="42" y="9" onmousedown="handleZoom(evt,'out')"/>
                <use id="reset" xlink:href="#resetDef" x="30" y="36" onmousedown="handleReset()"/>
                <g id="arrowUp" xlink:href="#dirArrow" transform="translate(30 24)" onmousedown="handlePan(0,-1)">
                  <use xlink:href="#rim" fill="#404040">
                        <set attributeName="fill" to="#808080" begin="arrowUp.mouseover" end="arrowUp.mouseout"/>
                  </use>
                  <path fill="none" stroke="white" stroke-width="1.5" d="M0,-3.0v7 M-2.5,-0.5L0,-3.0L2.5,-0.5"/>
                </g>
                <g id="arrowRight" xlink:href="#dirArrow" transform="rotate(90) translate(36 -43)" onmousedown="handlePan(1,0)">
                  <use xlink:href="#rim" fill="#404040">
                        <set attributeName="fill" to="#808080" begin="arrowRight.mouseover" end="arrowRight.mouseout"/>
                  </use>
                  <path fill="none" stroke="white" stroke-width="1.5" d="M0,-3.0v7 M-2.5,-0.5L0,-3.0L2.5,-0.5"/>
                </g>
                <g id="arrowDown" xlink:href="#dirArrow" transform="rotate(180) translate(-30 -48)" onmousedown="handlePan(0,1)">
                  <use xlink:href="#rim" fill="#404040">
                        <set attributeName="fill" to="#808080" begin="arrowDown.mouseover" end="arrowDown.mouseout"/>
                  </use>
                  <path fill="none" stroke="white" stroke-width="1.5" d="M0,-3.0v7 M-2.5,-0.5L0,-3.0L2.5,-0.5"/>
                </g>
                <g id="arrowLeft" xlink:href="#dirArrow" transform="rotate(270) translate(-36 17)" onmousedown="handlePan(-1,0)">
                  <use xlink:href="#rim" fill="#404040">
                        <set attributeName="fill" to="#808080" begin="arrowLeft.mouseover" end="arrowLeft.mouseout"/>
                  </use>
                  <path fill="none" stroke="white" stroke-width="1.5" d="M0,-3.0v7 M-2.5,-0.5L0,-3.0L2.5,-0.5"/>
                </g>
        </g>
</svg>
