<?xml version="1.0" encoding="UTF-8" standalone="no"?>
<!DOCTYPE svg PUBLIC "-//W3C//DTD SVG 1.1//EN"
 "http://www.w3.org/Graphics/SVG/1.1/DTD/svg11.dtd">
<!-- Generated by graphviz version 2.26.3 (20100126.1600)
 -->
<!-- Title: G Pages: 1 -->
<svg width="422pt" height="88pt"
 viewBox="0.00 0.00 422.00 88.00" xmlns="http://www.w3.org/2000/svg" xmlns:xlink="http://www.w3.org/1999/xlink">
<g id="graph1" class="graph" transform="scale(1 1) rotate(0) translate(4 84)">
<title>G</title>
<polygon fill="white" stroke="white" points="-4,5 -4,-84 419,-84 419,5 -4,5"/>
<!-- Node1 -->
<g id="node1" class="node"><title>Node1</title>
<polygon fill="#bfbfbf" stroke="black" points="93,-58.5 93,-79.5 301,-79.5 301,-58.5 93,-58.5"/>
<text text-anchor="middle" x="197" y="-66.5" font-family="Helvetica,sans-Serif" font-size="10.00">source/main/terrain/map/SurveyMapEntity.h</text>
</g>
<!-- Node2 -->
<g id="node3" class="node"><title>Node2</title>
<a xlink:href="_character_8cpp.html" target="_top" xlink:title="source/main/gameplay/Character.cpp">
<polygon fill="white" stroke="black" points="-0.5,-0.5 -0.5,-21.5 178.5,-21.5 178.5,-0.5 -0.5,-0.5"/>
<text text-anchor="middle" x="89" y="-8.5" font-family="Helvetica,sans-Serif" font-size="10.00">source/main/gameplay/Character.cpp</text>
</a>
</g>
<!-- Node1&#45;&gt;Node2 -->
<g id="edge2" class="edge"><title>Node1&#45;&gt;Node2</title>
<path fill="none" stroke="midnightblue" d="M168.428,-53.6559C149.622,-43.5561 125.483,-30.5928 108.777,-21.6212"/>
<polygon fill="midnightblue" stroke="midnightblue" points="166.976,-56.8488 177.442,-58.4966 170.288,-50.6818 166.976,-56.8488"/>
</g>
<!-- Node3 -->
<g id="node5" class="node"><title>Node3</title>
<a xlink:href="_terrain_object_manager_8cpp.html" target="_top" xlink:title="source/main/terrain/TerrainObjectManager.cpp">
<polygon fill="white" stroke="black" points="196,-0.5 196,-21.5 414,-21.5 414,-0.5 196,-0.5"/>
<text text-anchor="middle" x="305" y="-8.5" font-family="Helvetica,sans-Serif" font-size="10.00">source/main/terrain/TerrainObjectManager.cpp</text>
</a>
</g>
<!-- Node1&#45;&gt;Node3 -->
<g id="edge4" class="edge"><title>Node1&#45;&gt;Node3</title>
<path fill="none" stroke="midnightblue" d="M225.572,-53.6559C244.378,-43.5561 268.517,-30.5928 285.223,-21.6212"/>
<polygon fill="midnightblue" stroke="midnightblue" points="223.712,-50.6818 216.558,-58.4966 227.024,-56.8488 223.712,-50.6818"/>
</g>
</g>
</svg>
