<?xml version="1.0" encoding="UTF-8" standalone="no"?>
<!DOCTYPE svg PUBLIC "-//W3C//DTD SVG 1.1//EN"
 "http://www.w3.org/Graphics/SVG/1.1/DTD/svg11.dtd">
<!-- Generated by graphviz version 2.26.3 (20100126.1600)
 -->
<!-- Title: getTerrainHeight Pages: 1 -->
<svg width="268pt" height="82pt"
 viewBox="0.00 0.00 268.00 82.00" xmlns="http://www.w3.org/2000/svg" xmlns:xlink="http://www.w3.org/1999/xlink">
<g id="graph1" class="graph" transform="scale(1 1) rotate(0) translate(4 78)">
<title>getTerrainHeight</title>
<polygon fill="white" stroke="white" points="-4,5 -4,-78 265,-78 265,5 -4,5"/>
<!-- Node1 -->
<g id="node1" class="node"><title>Node1</title>
<polygon fill="#bfbfbf" stroke="black" points="0.5,-23.5 0.5,-44.5 89.5,-44.5 89.5,-23.5 0.5,-23.5"/>
<text text-anchor="middle" x="45" y="-31.5" font-family="Helvetica,sans-Serif" font-size="10.00">getTerrainHeight</text>
</g>
<!-- Node2 -->
<g id="node3" class="node"><title>Node2</title>
<a xlink:href="class_terrain_manager.html#ae63cfc0dda4ab62dc7f6d72eb7845628" target="_top" xlink:title="TerrainManager::getHeight\lFinder">
<polygon fill="white" stroke="black" points="127,-40 127,-74 259,-74 259,-40 127,-40"/>
<text text-anchor="start" x="135" y="-61" font-family="Helvetica,sans-Serif" font-size="10.00">TerrainManager::getHeight</text>
<text text-anchor="middle" x="193" y="-48" font-family="Helvetica,sans-Serif" font-size="10.00">Finder</text>
</a>
</g>
<!-- Node1&#45;&gt;Node2 -->
<g id="edge2" class="edge"><title>Node1&#45;&gt;Node2</title>
<path fill="none" stroke="midnightblue" d="M89.8065,-40.9632C98.3662,-42.2934 107.547,-43.7201 116.773,-45.1539"/>
<polygon fill="midnightblue" stroke="midnightblue" points="116.357,-48.6312 126.776,-46.7084 117.432,-41.7142 116.357,-48.6312"/>
</g>
<!-- Node3 -->
<g id="node5" class="node"><title>Node3</title>
<a xlink:href="class_i_height_finder.html#a5757ec3d639bcffc834540067ec8db2e" target="_top" xlink:title="IHeightFinder::getHeightAt">
<polygon fill="white" stroke="black" points="126.5,-0.5 126.5,-21.5 259.5,-21.5 259.5,-0.5 126.5,-0.5"/>
<text text-anchor="middle" x="193" y="-8.5" font-family="Helvetica,sans-Serif" font-size="10.00">IHeightFinder::getHeightAt</text>
</a>
</g>
<!-- Node1&#45;&gt;Node3 -->
<g id="edge4" class="edge"><title>Node1&#45;&gt;Node3</title>
<path fill="none" stroke="midnightblue" d="M89.8065,-27.0368C98.1515,-25.74 107.086,-24.3514 116.079,-22.9539"/>
<polygon fill="midnightblue" stroke="midnightblue" points="116.884,-26.3709 126.228,-21.3767 115.809,-19.454 116.884,-26.3709"/>
</g>
</g>
</svg>
