<?xml version="1.0" encoding="UTF-8" standalone="no"?>
<!DOCTYPE svg PUBLIC "-//W3C//DTD SVG 1.1//EN"
 "http://www.w3.org/Graphics/SVG/1.1/DTD/svg11.dtd">
<!-- Generated by graphviz version 2.26.3 (20100126.1600)
 -->
<!-- Title: source/main/terrain/TerrainObjectManager.h Pages: 1 -->
<!--zoomable 188 -->
<svg id="main" version="1.1" xmlns="http://www.w3.org/2000/svg" xmlns:xlink="http://www.w3.org/1999/xlink" xml:space="preserve" onload="init(evt)">
<style type="text/css"><![CDATA[
.edge:hover path { stroke: red; }
.edge:hover polygon { stroke: red; fill: red; }
]]></style>
<script type="text/javascript"><![CDATA[
var edges = document.getElementsByTagName('g');
if (edges && edges.length) {
  for (var i=0;i<edges.length;i++) {
    if (edges[i].id.substr(0,4)=='edge') {
      edges[i].setAttribute('class','edge');
    }
  }
}
]]></script>
        <defs>
                <circle id="rim" cx="0" cy="0" r="7"/>
                <circle id="rim2" cx="0" cy="0" r="3.5"/>
                <g id="zoomPlus">
                        <use xlink:href="#rim" fill="#404040">
                                <set attributeName="fill" to="#808080" begin="zoomplus.mouseover" end="zoomplus.mouseout"/>
                        </use>
                        <path d="M-4,0h8M0,-4v8" fill="none" stroke="white" stroke-width="1.5" pointer-events="none"/>
                </g>
                <g id="zoomMin">
                        <use xlink:href="#rim" fill="#404040">
                                <set attributeName="fill" to="#808080" begin="zoomminus.mouseover" end="zoomminus.mouseout"/>
                        </use>
                        <path d="M-4,0h8" fill="none" stroke="white" stroke-width="1.5" pointer-events="none"/>
                </g>
                <g id="dirArrow">
                        <path fill="none" stroke="white" stroke-width="1.5" d="M0,-3.0v7 M-2.5,-0.5L0,-3.0L2.5,-0.5"/>
                </g>
               <g id="resetDef">
                       <use xlink:href="#rim2" fill="#404040">
                               <set attributeName="fill" to="#808080" begin="reset.mouseover" end="reset.mouseout"/>
                       </use>
               </g>
        </defs>

<script type="text/javascript">
var viewWidth = 1117;
var viewHeight = 188;
var sectionId = 'dynsection-1';
</script>
<script xlink:href="svgpan.js"/>
<svg id="graph" class="graph">
<g id="viewport">
<title>source/main/terrain/TerrainObjectManager.h</title>
<polygon fill="white" stroke="white" points="-4,5 -4,-184 1114,-184 1114,5 -4,5"/>
<!-- Node1 -->
<g id="node1" class="node"><title>Node1</title>
<polygon fill="#bfbfbf" stroke="black" points="826,-145 826,-179 950,-179 950,-145 826,-145"/>
<text text-anchor="start" x="834" y="-166" font-family="Helvetica,sans-Serif" font-size="10.00">source/main/terrain</text>
<text text-anchor="middle" x="888" y="-153" font-family="Helvetica,sans-Serif" font-size="10.00">/TerrainObjectManager.h</text>
</g>
<!-- Node2 -->
<g id="node3" class="node"><title>Node2</title>
<a xlink:href="_auto_pilot_8h.html" target="_top" xlink:title="source/main/gameplay\l/AutoPilot.h">
<polygon fill="white" stroke="black" points="515.5,-73 515.5,-107 630.5,-107 630.5,-73 515.5,-73"/>
<text text-anchor="start" x="523.5" y="-94" font-family="Helvetica,sans-Serif" font-size="10.00">source/main/gameplay</text>
<text text-anchor="middle" x="573" y="-81" font-family="Helvetica,sans-Serif" font-size="10.00">/AutoPilot.h</text>
</a>
</g>
<!-- Node1&#45;&gt;Node2 -->
<g id="edge2" class="edge"><title>Node1&#45;&gt;Node2</title>
<path fill="none" stroke="midnightblue" d="M815.879,-145.515C759.685,-132.671 682.711,-115.077 630.594,-103.164"/>
<polygon fill="midnightblue" stroke="midnightblue" points="815.238,-148.959 825.766,-147.775 816.797,-142.135 815.238,-148.959"/>
</g>
<!-- Node9 -->
<g id="node17" class="node"><title>Node9</title>
<a xlink:href="_terrain_object_manager_8cpp.html" target="_top" xlink:title="source/main/terrain\l/TerrainObjectManager.cpp">
<polygon fill="white" stroke="black" points="890,-1 890,-35 1024,-35 1024,-1 890,-1"/>
<text text-anchor="start" x="898" y="-22" font-family="Helvetica,sans-Serif" font-size="10.00">source/main/terrain</text>
<text text-anchor="middle" x="957" y="-9" font-family="Helvetica,sans-Serif" font-size="10.00">/TerrainObjectManager.cpp</text>
</a>
</g>
<!-- Node1&#45;&gt;Node9 -->
<g id="edge22" class="edge"><title>Node1&#45;&gt;Node9</title>
<path fill="none" stroke="midnightblue" d="M871.906,-135.824C862.608,-117.064 854.766,-91.7301 866,-72 875.363,-55.5568 891.923,-43.6037 908.372,-35.1894"/>
<polygon fill="midnightblue" stroke="midnightblue" points="868.856,-137.543 876.658,-144.711 875.029,-134.242 868.856,-137.543"/>
</g>
<!-- Node10 -->
<g id="node19" class="node"><title>Node10</title>
<a xlink:href="_game_script_8cpp.html" target="_top" xlink:title="source/main/scripting\l/GameScript.cpp">
<polygon fill="white" stroke="black" points="875,-73 875,-107 985,-107 985,-73 875,-73"/>
<text text-anchor="start" x="883" y="-94" font-family="Helvetica,sans-Serif" font-size="10.00">source/main/scripting</text>
<text text-anchor="middle" x="930" y="-81" font-family="Helvetica,sans-Serif" font-size="10.00">/GameScript.cpp</text>
</a>
</g>
<!-- Node1&#45;&gt;Node10 -->
<g id="edge18" class="edge"><title>Node1&#45;&gt;Node10</title>
<path fill="none" stroke="midnightblue" d="M903.048,-136.203C908.616,-126.658 914.792,-116.07 919.826,-107.441"/>
<polygon fill="midnightblue" stroke="midnightblue" points="899.969,-134.536 897.953,-144.937 906.015,-138.063 899.969,-134.536"/>
</g>
<!-- Node11 -->
<g id="node21" class="node"><title>Node11</title>
<a xlink:href="_terrain_manager_8cpp.html" target="_top" xlink:title="source/main/terrain\l/TerrainManager.cpp">
<polygon fill="white" stroke="black" points="1003,-73 1003,-107 1109,-107 1109,-73 1003,-73"/>
<text text-anchor="start" x="1011" y="-94" font-family="Helvetica,sans-Serif" font-size="10.00">source/main/terrain</text>
<text text-anchor="middle" x="1056" y="-81" font-family="Helvetica,sans-Serif" font-size="10.00">/TerrainManager.cpp</text>
</a>
</g>
<!-- Node1&#45;&gt;Node11 -->
<g id="edge20" class="edge"><title>Node1&#45;&gt;Node11</title>
<path fill="none" stroke="midnightblue" d="M937.178,-140.924C962.32,-130.149 992.52,-117.206 1016.18,-107.065"/>
<polygon fill="midnightblue" stroke="midnightblue" points="935.626,-137.781 927.814,-144.937 938.384,-144.215 935.626,-137.781"/>
</g>
<!-- Node3 -->
<g id="node5" class="node"><title>Node3</title>
<a xlink:href="_aircraft_simulation_8cpp.html" target="_top" xlink:title="source/main/gameplay\l/AircraftSimulation.cpp">
<polygon fill="white" stroke="black" points="0,-1 0,-35 116,-35 116,-1 0,-1"/>
<text text-anchor="start" x="8" y="-22" font-family="Helvetica,sans-Serif" font-size="10.00">source/main/gameplay</text>
<text text-anchor="middle" x="58" y="-9" font-family="Helvetica,sans-Serif" font-size="10.00">/AircraftSimulation.cpp</text>
</a>
</g>
<!-- Node2&#45;&gt;Node3 -->
<g id="edge4" class="edge"><title>Node2&#45;&gt;Node3</title>
<path fill="none" stroke="midnightblue" d="M505.175,-84.8542C417.015,-77.4751 258.541,-61.8499 125,-36 122.162,-35.4506 119.267,-34.8461 116.351,-34.2015"/>
<polygon fill="midnightblue" stroke="midnightblue" points="505.055,-88.3562 515.31,-85.6921 505.632,-81.38 505.055,-88.3562"/>
</g>
<!-- Node4 -->
<g id="node7" class="node"><title>Node4</title>
<a xlink:href="_auto_pilot_8cpp.html" target="_top" xlink:title="source/main/gameplay\l/AutoPilot.cpp">
<polygon fill="white" stroke="black" points="133.5,-1 133.5,-35 248.5,-35 248.5,-1 133.5,-1"/>
<text text-anchor="start" x="141.5" y="-22" font-family="Helvetica,sans-Serif" font-size="10.00">source/main/gameplay</text>
<text text-anchor="middle" x="191" y="-9" font-family="Helvetica,sans-Serif" font-size="10.00">/AutoPilot.cpp</text>
</a>
</g>
<!-- Node2&#45;&gt;Node4 -->
<g id="edge6" class="edge"><title>Node2&#45;&gt;Node4</title>
<path fill="none" stroke="midnightblue" d="M505.297,-80.3751C441.058,-70.7846 341.982,-54.8031 257,-36 254.217,-35.3842 251.376,-34.7257 248.511,-34.0378"/>
<polygon fill="midnightblue" stroke="midnightblue" points="504.895,-83.8536 515.3,-81.8588 505.922,-76.9294 504.895,-83.8536"/>
</g>
<!-- Node5 -->
<g id="node9" class="node"><title>Node5</title>
<a xlink:href="_ro_r_frame_listener_8cpp.html" target="_top" xlink:title="source/main/gameplay\l/RoRFrameListener.cpp">
<polygon fill="white" stroke="black" points="265.5,-1 265.5,-35 386.5,-35 386.5,-1 265.5,-1"/>
<text text-anchor="start" x="273.5" y="-22" font-family="Helvetica,sans-Serif" font-size="10.00">source/main/gameplay</text>
<text text-anchor="middle" x="326" y="-9" font-family="Helvetica,sans-Serif" font-size="10.00">/RoRFrameListener.cpp</text>
</a>
</g>
<!-- Node2&#45;&gt;Node5 -->
<g id="edge8" class="edge"><title>Node2&#45;&gt;Node5</title>
<path fill="none" stroke="midnightblue" d="M505.478,-70.3174C467.615,-59.2805 420.849,-45.6483 384.548,-35.0666"/>
<polygon fill="midnightblue" stroke="midnightblue" points="504.821,-73.7716 515.401,-73.2101 506.78,-67.0513 504.821,-73.7716"/>
</g>
<!-- Node6 -->
<g id="node11" class="node"><title>Node6</title>
<a xlink:href="_overlay_wrapper_8cpp.html" target="_top" xlink:title="source/main/gui/OverlayWrapper.cpp">
<polygon fill="white" stroke="black" points="404,-7.5 404,-28.5 582,-28.5 582,-7.5 404,-7.5"/>
<text text-anchor="middle" x="493" y="-15.5" font-family="Helvetica,sans-Serif" font-size="10.00">source/main/gui/OverlayWrapper.cpp</text>
</a>
</g>
<!-- Node2&#45;&gt;Node6 -->
<g id="edge10" class="edge"><title>Node2&#45;&gt;Node6</title>
<path fill="none" stroke="midnightblue" d="M546.576,-66.2181C532.58,-53.6218 516.068,-38.7613 505.112,-28.901"/>
<polygon fill="midnightblue" stroke="midnightblue" points="544.267,-68.8489 554.041,-72.937 548.95,-63.6458 544.267,-68.8489"/>
</g>
<!-- Node7 -->
<g id="node13" class="node"><title>Node7</title>
<a xlink:href="_beam_8cpp.html" target="_top" xlink:title="source/main/physics\l/Beam.cpp">
<polygon fill="white" stroke="black" points="599.5,-1 599.5,-35 706.5,-35 706.5,-1 599.5,-1"/>
<text text-anchor="start" x="607.5" y="-22" font-family="Helvetica,sans-Serif" font-size="10.00">source/main/physics</text>
<text text-anchor="middle" x="653" y="-9" font-family="Helvetica,sans-Serif" font-size="10.00">/Beam.cpp</text>
</a>
</g>
<!-- Node2&#45;&gt;Node7 -->
<g id="edge12" class="edge"><title>Node2&#45;&gt;Node7</title>
<path fill="none" stroke="midnightblue" d="M599.443,-66.2011C610.704,-56.0666 623.59,-44.4691 633.9,-35.19"/>
<polygon fill="midnightblue" stroke="midnightblue" points="597.05,-63.6458 591.959,-72.937 601.733,-68.8489 597.05,-63.6458"/>
</g>
<!-- Node8 -->
<g id="node15" class="node"><title>Node8</title>
<a xlink:href="_rig_spawner_8cpp.html" target="_top" xlink:title="Vehicle spawning logic. ">
<polygon fill="white" stroke="black" points="724,-1 724,-35 872,-35 872,-1 724,-1"/>
<text text-anchor="start" x="732" y="-22" font-family="Helvetica,sans-Serif" font-size="10.00">source/main/physics</text>
<text text-anchor="middle" x="798" y="-9" font-family="Helvetica,sans-Serif" font-size="10.00">/input_output/RigSpawner.cpp</text>
</a>
</g>
<!-- Node2&#45;&gt;Node8 -->
<g id="edge14" class="edge"><title>Node2&#45;&gt;Node8</title>
<path fill="none" stroke="midnightblue" d="M636.208,-69.7736C670.392,-58.8347 712.144,-45.4739 744.671,-35.0651"/>
<polygon fill="midnightblue" stroke="midnightblue" points="634.779,-66.5557 626.322,-72.937 636.913,-73.2227 634.779,-66.5557"/>
</g>
<!-- Node2&#45;&gt;Node9 -->
<g id="edge16" class="edge"><title>Node2&#45;&gt;Node9</title>
<path fill="none" stroke="midnightblue" d="M640.658,-79.3164C703.208,-69.1604 798.648,-52.9561 881,-36 883.922,-35.3984 886.903,-34.7673 889.911,-34.1161"/>
<polygon fill="midnightblue" stroke="midnightblue" points="639.838,-75.9034 630.525,-80.9554 640.956,-82.8136 639.838,-75.9034"/>
</g>
</g>
</svg>
        <g id="navigator" transform="translate(0 0)" fill="#404254">
                <rect fill="#f2f5e9" fill-opacity="0.5" stroke="#606060" stroke-width=".5" x="0" y="0" width="60" height="60"/>
                <use id="zoomplus" xlink:href="#zoomPlus" x="17" y="9" onmousedown="handleZoom(evt,'in')"/>
                <use id="zoomminus" xlink:href="#zoomMin" x="42" y="9" onmousedown="handleZoom(evt,'out')"/>
                <use id="reset" xlink:href="#resetDef" x="30" y="36" onmousedown="handleReset()"/>
                <g id="arrowUp" xlink:href="#dirArrow" transform="translate(30 24)" onmousedown="handlePan(0,-1)">
                  <use xlink:href="#rim" fill="#404040">
                        <set attributeName="fill" to="#808080" begin="arrowUp.mouseover" end="arrowUp.mouseout"/>
                  </use>
                  <path fill="none" stroke="white" stroke-width="1.5" d="M0,-3.0v7 M-2.5,-0.5L0,-3.0L2.5,-0.5"/>
                </g>
                <g id="arrowRight" xlink:href="#dirArrow" transform="rotate(90) translate(36 -43)" onmousedown="handlePan(1,0)">
                  <use xlink:href="#rim" fill="#404040">
                        <set attributeName="fill" to="#808080" begin="arrowRight.mouseover" end="arrowRight.mouseout"/>
                  </use>
                  <path fill="none" stroke="white" stroke-width="1.5" d="M0,-3.0v7 M-2.5,-0.5L0,-3.0L2.5,-0.5"/>
                </g>
                <g id="arrowDown" xlink:href="#dirArrow" transform="rotate(180) translate(-30 -48)" onmousedown="handlePan(0,1)">
                  <use xlink:href="#rim" fill="#404040">
                        <set attributeName="fill" to="#808080" begin="arrowDown.mouseover" end="arrowDown.mouseout"/>
                  </use>
                  <path fill="none" stroke="white" stroke-width="1.5" d="M0,-3.0v7 M-2.5,-0.5L0,-3.0L2.5,-0.5"/>
                </g>
                <g id="arrowLeft" xlink:href="#dirArrow" transform="rotate(270) translate(-36 17)" onmousedown="handlePan(-1,0)">
                  <use xlink:href="#rim" fill="#404040">
                        <set attributeName="fill" to="#808080" begin="arrowLeft.mouseover" end="arrowLeft.mouseout"/>
                  </use>
                  <path fill="none" stroke="white" stroke-width="1.5" d="M0,-3.0v7 M-2.5,-0.5L0,-3.0L2.5,-0.5"/>
                </g>
        </g>
        <svg viewBox="0 0 15 15" width="100%" height="30px" preserveAspectRatio="xMaxYMin meet">
         <g id="arrow_out" transform="scale(0.3 0.3)">
          <a xlink:href="_terrain_object_manager_8h__dep__incl_org.svg" target="_base">
           <rect id="button" ry="5" rx="5" y="6" x="6" height="38" width="38"
                fill="#f2f5e9" fill-opacity="0.5" stroke="#606060" stroke-width="1.0"/>
           <path id="arrow"
             d="M 11.500037,31.436501 C 11.940474,20.09759 22.043105,11.32322 32.158766,21.979434 L 37.068811,17.246167 C 37.068811,17.246167 37.088388,32 37.088388,32 L 22.160133,31.978069 C 22.160133,31.978069 26.997745,27.140456 26.997745,27.140456 C 18.528582,18.264221 13.291696,25.230495 11.500037,31.436501 z"
             style="fill:#404040;"/>
          </a>
         </g>
        </svg>
</svg>
