<?xml version="1.0" encoding="UTF-8" standalone="no"?>
<!DOCTYPE svg PUBLIC "-//W3C//DTD SVG 1.1//EN"
 "http://www.w3.org/Graphics/SVG/1.1/DTD/svg11.dtd">
<!-- Generated by graphviz version 2.26.3 (20100126.1600)
 -->
<!-- Title: source/main/terrain/TerrainGeometryManager.cpp Pages: 1 -->
<svg width="2622pt" height="334pt"
 viewBox="0.00 0.00 2622.00 334.00" xmlns="http://www.w3.org/2000/svg" xmlns:xlink="http://www.w3.org/1999/xlink">
<g id="graph1" class="graph" transform="scale(1 1) rotate(0) translate(4 330)">
<title>source/main/terrain/TerrainGeometryManager.cpp</title>
<polygon fill="white" stroke="white" points="-4,5 -4,-330 2619,-330 2619,5 -4,5"/>
<!-- Node1 -->
<g id="node1" class="node"><title>Node1</title>
<polygon fill="#bfbfbf" stroke="black" points="1566.5,-291 1566.5,-325 1715.5,-325 1715.5,-291 1566.5,-291"/>
<text text-anchor="start" x="1574.5" y="-312" font-family="Helvetica,sans-Serif" font-size="10.00">source/main/terrain</text>
<text text-anchor="middle" x="1641" y="-299" font-family="Helvetica,sans-Serif" font-size="10.00">/TerrainGeometryManager.cpp</text>
</g>
<!-- Node2 -->
<g id="node3" class="node"><title>Node2</title>
<a xlink:href="_terrain_geometry_manager_8h.html" target="_top" xlink:title="TerrainGeometryManager.h">
<polygon fill="white" stroke="black" points="1384.5,-232.5 1384.5,-253.5 1519.5,-253.5 1519.5,-232.5 1384.5,-232.5"/>
<text text-anchor="middle" x="1452" y="-240.5" font-family="Helvetica,sans-Serif" font-size="10.00">TerrainGeometryManager.h</text>
</a>
</g>
<!-- Node1&#45;&gt;Node2 -->
<g id="edge2" class="edge"><title>Node1&#45;&gt;Node2</title>
<path fill="none" stroke="midnightblue" d="M1591.34,-290.922C1560.52,-280.323 1521.42,-266.876 1492.49,-256.925"/>
<polygon fill="midnightblue" stroke="midnightblue" points="1493.31,-253.505 1482.71,-253.562 1491.03,-260.124 1493.31,-253.505"/>
</g>
<!-- Node31 -->
<g id="node65" class="node"><title>Node31</title>
<a xlink:href="_language_8h.html" target="_top" xlink:title="Language.h">
<polygon fill="white" stroke="black" points="781.5,-232.5 781.5,-253.5 848.5,-253.5 848.5,-232.5 781.5,-232.5"/>
<text text-anchor="middle" x="815" y="-240.5" font-family="Helvetica,sans-Serif" font-size="10.00">Language.h</text>
</a>
</g>
<!-- Node1&#45;&gt;Node31 -->
<g id="edge68" class="edge"><title>Node1&#45;&gt;Node31</title>
<path fill="none" stroke="midnightblue" d="M1566.24,-302.117C1397.85,-288.866 993.133,-257.018 859.01,-246.463"/>
<polygon fill="midnightblue" stroke="midnightblue" points="858.963,-242.949 848.719,-245.653 858.413,-249.927 858.963,-242.949"/>
</g>
<!-- Node35 -->
<g id="node75" class="node"><title>Node35</title>
<a xlink:href="_loading_window_8h.html" target="_top" xlink:title="LoadingWindow.h">
<polygon fill="white" stroke="black" points="1537,-232.5 1537,-253.5 1631,-253.5 1631,-232.5 1537,-232.5"/>
<text text-anchor="middle" x="1584" y="-240.5" font-family="Helvetica,sans-Serif" font-size="10.00">LoadingWindow.h</text>
</a>
</g>
<!-- Node1&#45;&gt;Node35 -->
<g id="edge80" class="edge"><title>Node1&#45;&gt;Node35</title>
<path fill="none" stroke="midnightblue" d="M1626.02,-290.922C1618.06,-281.845 1608.27,-270.679 1600.14,-261.41"/>
<polygon fill="midnightblue" stroke="midnightblue" points="1602.74,-259.063 1593.52,-253.852 1597.48,-263.678 1602.74,-259.063"/>
</g>
<!-- Node36 -->
<g id="node77" class="node"><title>Node36</title>
<a xlink:href="_terrain_manager_8h.html" target="_top" xlink:title="TerrainManager.h">
<polygon fill="white" stroke="black" points="1780,-232.5 1780,-253.5 1872,-253.5 1872,-232.5 1780,-232.5"/>
<text text-anchor="middle" x="1826" y="-240.5" font-family="Helvetica,sans-Serif" font-size="10.00">TerrainManager.h</text>
</a>
</g>
<!-- Node1&#45;&gt;Node36 -->
<g id="edge82" class="edge"><title>Node1&#45;&gt;Node36</title>
<path fill="none" stroke="midnightblue" d="M1689.61,-290.922C1719.77,-280.323 1758.05,-266.876 1786.37,-256.925"/>
<polygon fill="midnightblue" stroke="midnightblue" points="1787.66,-260.179 1795.94,-253.562 1785.34,-253.575 1787.66,-260.179"/>
</g>
<!-- Node40 -->
<g id="node88" class="node"><title>Node40</title>
<a xlink:href="_ogre_terrain_p_s_s_m_material_generator_8h.html" target="_top" xlink:title="OgreTerrainPSSMMaterialGenerator.h">
<polygon fill="white" stroke="black" points="2190,-174.5 2190,-195.5 2372,-195.5 2372,-174.5 2190,-174.5"/>
<text text-anchor="middle" x="2281" y="-182.5" font-family="Helvetica,sans-Serif" font-size="10.00">OgreTerrainPSSMMaterialGenerator.h</text>
</a>
</g>
<!-- Node1&#45;&gt;Node40 -->
<g id="edge116" class="edge"><title>Node1&#45;&gt;Node40</title>
<path fill="none" stroke="midnightblue" d="M1715.67,-293.65C1842.23,-269.327 2096.73,-220.414 2216.23,-197.447"/>
<polygon fill="midnightblue" stroke="midnightblue" points="2217.17,-200.831 2226.33,-195.506 2215.85,-193.957 2217.17,-200.831"/>
</g>
<!-- Node44 -->
<g id="node96" class="node"><title>Node44</title>
<a xlink:href="_shadow_manager_8h.html" target="_top" xlink:title="ShadowManager.h">
<polygon fill="white" stroke="black" points="1649,-232.5 1649,-253.5 1747,-253.5 1747,-232.5 1649,-232.5"/>
<text text-anchor="middle" x="1698" y="-240.5" font-family="Helvetica,sans-Serif" font-size="10.00">ShadowManager.h</text>
</a>
</g>
<!-- Node1&#45;&gt;Node44 -->
<g id="edge104" class="edge"><title>Node1&#45;&gt;Node44</title>
<path fill="none" stroke="midnightblue" d="M1655.98,-290.922C1663.94,-281.845 1673.73,-270.679 1681.86,-261.41"/>
<polygon fill="midnightblue" stroke="midnightblue" points="1684.52,-263.678 1688.48,-253.852 1679.26,-259.063 1684.52,-263.678"/>
</g>
<!-- Node3 -->
<g id="node5" class="node"><title>Node3</title>
<a xlink:href="_config_file_8h.html" target="_top" xlink:title="ConfigFile.h">
<polygon fill="white" stroke="black" points="1791.5,-174.5 1791.5,-195.5 1860.5,-195.5 1860.5,-174.5 1791.5,-174.5"/>
<text text-anchor="middle" x="1826" y="-182.5" font-family="Helvetica,sans-Serif" font-size="10.00">ConfigFile.h</text>
</a>
</g>
<!-- Node2&#45;&gt;Node3 -->
<g id="edge4" class="edge"><title>Node2&#45;&gt;Node3</title>
<path fill="none" stroke="midnightblue" d="M1519.54,-233.212C1522.4,-232.801 1525.23,-232.396 1528,-232 1638.1,-216.261 1668.99,-218.095 1781.31,-196.192"/>
<polygon fill="midnightblue" stroke="midnightblue" points="1782.21,-199.583 1791.34,-194.216 1780.85,-192.715 1782.21,-199.583"/>
</g>
<!-- Node7 -->
<g id="node13" class="node"><title>Node7</title>
<a xlink:href="_i_height_finder_8h.html" target="_top" xlink:title="IHeightFinder.h">
<polygon fill="white" stroke="black" points="895.5,-174.5 895.5,-195.5 978.5,-195.5 978.5,-174.5 895.5,-174.5"/>
<text text-anchor="middle" x="937" y="-182.5" font-family="Helvetica,sans-Serif" font-size="10.00">IHeightFinder.h</text>
</a>
</g>
<!-- Node2&#45;&gt;Node7 -->
<g id="edge12" class="edge"><title>Node2&#45;&gt;Node7</title>
<path fill="none" stroke="midnightblue" d="M1384.3,-238.626C1295.54,-232.342 1134.84,-219.077 988.721,-196.143"/>
<polygon fill="midnightblue" stroke="midnightblue" points="989.098,-192.659 978.673,-194.546 988,-199.572 989.098,-192.659"/>
</g>
<!-- Node25 -->
<g id="node52" class="node"><title>Node25</title>
<a xlink:href="_i_manager_8h.html" target="_top" xlink:title="IManager.h">
<polygon fill="white" stroke="black" points="1709.5,-174.5 1709.5,-195.5 1774.5,-195.5 1774.5,-174.5 1709.5,-174.5"/>
<text text-anchor="middle" x="1742" y="-182.5" font-family="Helvetica,sans-Serif" font-size="10.00">IManager.h</text>
</a>
</g>
<!-- Node2&#45;&gt;Node25 -->
<g id="edge54" class="edge"><title>Node2&#45;&gt;Node25</title>
<path fill="none" stroke="midnightblue" d="M1504.52,-232.497C1560.37,-221.326 1647.64,-203.871 1699.39,-193.522"/>
<polygon fill="midnightblue" stroke="midnightblue" points="1700.13,-196.944 1709.25,-191.551 1698.75,-190.08 1700.13,-196.944"/>
</g>
<!-- Node26 -->
<g id="node55" class="node"><title>Node26</title>
<polygon fill="white" stroke="#bfbfbf" points="1578,-174.5 1578,-195.5 1654,-195.5 1654,-174.5 1578,-174.5"/>
<text text-anchor="middle" x="1616" y="-182.5" font-family="Helvetica,sans-Serif" font-size="10.00">OgreTerrain.h</text>
</g>
<!-- Node2&#45;&gt;Node26 -->
<g id="edge58" class="edge"><title>Node2&#45;&gt;Node26</title>
<path fill="none" stroke="midnightblue" d="M1481.7,-232.497C1508.32,-223.082 1547.56,-209.204 1576.76,-198.877"/>
<polygon fill="midnightblue" stroke="midnightblue" points="1577.98,-202.157 1586.25,-195.523 1575.65,-195.558 1577.98,-202.157"/>
</g>
<!-- Node27 -->
<g id="node57" class="node"><title>Node27</title>
<polygon fill="white" stroke="#bfbfbf" points="1400,-174.5 1400,-195.5 1560,-195.5 1560,-174.5 1400,-174.5"/>
<text text-anchor="middle" x="1480" y="-182.5" font-family="Helvetica,sans-Serif" font-size="10.00">OgreTerrainMaterialGeneratorA.h</text>
</g>
<!-- Node2&#45;&gt;Node27 -->
<g id="edge60" class="edge"><title>Node2&#45;&gt;Node27</title>
<path fill="none" stroke="midnightblue" d="M1457.14,-232.362C1460.85,-224.677 1465.97,-214.069 1470.42,-204.84"/>
<polygon fill="midnightblue" stroke="midnightblue" points="1473.7,-206.098 1474.9,-195.571 1467.4,-203.055 1473.7,-206.098"/>
</g>
<!-- Node28 -->
<g id="node59" class="node"><title>Node28</title>
<polygon fill="white" stroke="#bfbfbf" points="1116,-174.5 1116,-195.5 1222,-195.5 1222,-174.5 1116,-174.5"/>
<text text-anchor="middle" x="1169" y="-182.5" font-family="Helvetica,sans-Serif" font-size="10.00">OgreTerrainPaging.h</text>
</g>
<!-- Node2&#45;&gt;Node28 -->
<g id="edge62" class="edge"><title>Node2&#45;&gt;Node28</title>
<path fill="none" stroke="midnightblue" d="M1400.75,-232.497C1352.82,-222.673 1281.17,-207.988 1230.24,-197.551"/>
<polygon fill="midnightblue" stroke="midnightblue" points="1230.84,-194.102 1220.35,-195.523 1229.44,-200.96 1230.84,-194.102"/>
</g>
<!-- Node29 -->
<g id="node61" class="node"><title>Node29</title>
<polygon fill="white" stroke="#bfbfbf" points="1240,-174.5 1240,-195.5 1382,-195.5 1382,-174.5 1240,-174.5"/>
<text text-anchor="middle" x="1311" y="-182.5" font-family="Helvetica,sans-Serif" font-size="10.00">OgreTerrainQuadTreeNode.h</text>
</g>
<!-- Node2&#45;&gt;Node29 -->
<g id="edge64" class="edge"><title>Node2&#45;&gt;Node29</title>
<path fill="none" stroke="midnightblue" d="M1426.47,-232.497C1404.05,-223.275 1371.22,-209.769 1346.29,-199.515"/>
<polygon fill="midnightblue" stroke="midnightblue" points="1347.4,-196.189 1336.82,-195.621 1344.74,-202.662 1347.4,-196.189"/>
</g>
<!-- Node30 -->
<g id="node63" class="node"><title>Node30</title>
<polygon fill="white" stroke="#bfbfbf" points="996,-174.5 996,-195.5 1098,-195.5 1098,-174.5 996,-174.5"/>
<text text-anchor="middle" x="1047" y="-182.5" font-family="Helvetica,sans-Serif" font-size="10.00">OgreTerrainGroup.h</text>
</g>
<!-- Node2&#45;&gt;Node30 -->
<g id="edge66" class="edge"><title>Node2&#45;&gt;Node30</title>
<path fill="none" stroke="midnightblue" d="M1384.44,-234.727C1317.03,-226.262 1210.26,-212.285 1108.21,-196.141"/>
<polygon fill="midnightblue" stroke="midnightblue" points="1108.46,-192.637 1098.04,-194.521 1107.36,-199.55 1108.46,-192.637"/>
</g>
<!-- Node4 -->
<g id="node7" class="node"><title>Node4</title>
<polygon fill="white" stroke="#bfbfbf" points="1708,-116.5 1708,-137.5 1798,-137.5 1798,-116.5 1708,-116.5"/>
<text text-anchor="middle" x="1753" y="-124.5" font-family="Helvetica,sans-Serif" font-size="10.00">OgreConfigFile.h</text>
</g>
<!-- Node3&#45;&gt;Node4 -->
<g id="edge6" class="edge"><title>Node3&#45;&gt;Node4</title>
<path fill="none" stroke="midnightblue" d="M1812.61,-174.362C1801.91,-165.859 1786.7,-153.779 1774.33,-143.947"/>
<polygon fill="midnightblue" stroke="midnightblue" points="1776.31,-141.051 1766.3,-137.571 1771.96,-146.532 1776.31,-141.051"/>
</g>
<!-- Node5 -->
<g id="node9" class="node"><title>Node5</title>
<polygon fill="white" stroke="#bfbfbf" points="1763.5,-58.5 1763.5,-79.5 1862.5,-79.5 1862.5,-58.5 1763.5,-58.5"/>
<text text-anchor="middle" x="1813" y="-66.5" font-family="Helvetica,sans-Serif" font-size="10.00">OgreColourValue.h</text>
</g>
<!-- Node3&#45;&gt;Node5 -->
<g id="edge8" class="edge"><title>Node3&#45;&gt;Node5</title>
<path fill="none" stroke="midnightblue" d="M1824.8,-174.295C1822.65,-155.131 1818.12,-114.654 1815.34,-89.8434"/>
<polygon fill="midnightblue" stroke="midnightblue" points="1818.79,-89.2272 1814.2,-79.6792 1811.83,-90.0068 1818.79,-89.2272"/>
</g>
<!-- Node6 -->
<g id="node11" class="node"><title>Node6</title>
<polygon fill="white" stroke="#bfbfbf" points="1879.5,-58.5 1879.5,-79.5 1950.5,-79.5 1950.5,-58.5 1879.5,-58.5"/>
<text text-anchor="middle" x="1915" y="-66.5" font-family="Helvetica,sans-Serif" font-size="10.00">OgreString.h</text>
</g>
<!-- Node3&#45;&gt;Node6 -->
<g id="edge10" class="edge"><title>Node3&#45;&gt;Node6</title>
<path fill="none" stroke="midnightblue" d="M1834.21,-174.295C1849.31,-154.613 1881.66,-112.45 1900.52,-87.8668"/>
<polygon fill="midnightblue" stroke="midnightblue" points="1903.5,-89.7436 1906.81,-79.6792 1897.94,-85.4826 1903.5,-89.7436"/>
</g>
<!-- Node8 -->
<g id="node15" class="node"><title>Node8</title>
<a xlink:href="_ro_r_prerequisites_8h.html" target="_top" xlink:title="RoRPrerequisites.h">
<polygon fill="white" stroke="black" points="899,-116.5 899,-137.5 1001,-137.5 1001,-116.5 899,-116.5"/>
<text text-anchor="middle" x="950" y="-124.5" font-family="Helvetica,sans-Serif" font-size="10.00">RoRPrerequisites.h</text>
</a>
</g>
<!-- Node7&#45;&gt;Node8 -->
<g id="edge14" class="edge"><title>Node7&#45;&gt;Node8</title>
<path fill="none" stroke="midnightblue" d="M939.384,-174.362C941.07,-166.84 943.384,-156.519 945.421,-147.431"/>
<polygon fill="midnightblue" stroke="midnightblue" points="948.859,-148.094 947.631,-137.571 942.028,-146.563 948.859,-148.094"/>
</g>
<!-- Node8&#45;&gt;Node5 -->
<g id="edge18" class="edge"><title>Node8&#45;&gt;Node5</title>
<path fill="none" stroke="midnightblue" d="M1001.07,-126.303C1127.18,-124.092 1463.56,-115.215 1753.11,-80.1046"/>
<polygon fill="midnightblue" stroke="midnightblue" points="1753.89,-83.5353 1763.39,-78.8445 1753.04,-76.5873 1753.89,-83.5353"/>
</g>
<!-- Node8&#45;&gt;Node6 -->
<g id="edge26" class="edge"><title>Node8&#45;&gt;Node6</title>
<path fill="none" stroke="midnightblue" d="M1001.08,-125.699C1165.69,-121.305 1681.95,-105.903 1869.1,-80.0183"/>
<polygon fill="midnightblue" stroke="midnightblue" points="1869.7,-83.4691 1879.1,-78.5789 1868.7,-76.5406 1869.7,-83.4691"/>
</g>
<!-- Node9 -->
<g id="node17" class="node"><title>Node9</title>
<polygon fill="white" stroke="#bfbfbf" points="1285.5,-58.5 1285.5,-79.5 1400.5,-79.5 1400.5,-58.5 1285.5,-58.5"/>
<text text-anchor="middle" x="1343" y="-66.5" font-family="Helvetica,sans-Serif" font-size="10.00">OgreAxisAlignedBox.h</text>
</g>
<!-- Node8&#45;&gt;Node9 -->
<g id="edge16" class="edge"><title>Node8&#45;&gt;Node9</title>
<path fill="none" stroke="midnightblue" d="M1001.03,-120.026C1063.4,-111.421 1172.43,-96.1213 1275.47,-80.2157"/>
<polygon fill="midnightblue" stroke="midnightblue" points="1276.07,-83.664 1285.42,-78.6748 1275,-76.7464 1276.07,-83.664"/>
</g>
<!-- Node10 -->
<g id="node20" class="node"><title>Node10</title>
<polygon fill="white" stroke="#bfbfbf" points="1417.5,-58.5 1417.5,-79.5 1520.5,-79.5 1520.5,-58.5 1417.5,-58.5"/>
<text text-anchor="middle" x="1469" y="-66.5" font-family="Helvetica,sans-Serif" font-size="10.00">OgreHeaderPrefix.h</text>
</g>
<!-- Node8&#45;&gt;Node10 -->
<g id="edge20" class="edge"><title>Node8&#45;&gt;Node10</title>
<path fill="none" stroke="midnightblue" d="M1001.1,-123.099C1084.21,-116.462 1254,-101.691 1407.26,-80.1686"/>
<polygon fill="midnightblue" stroke="midnightblue" points="1407.92,-83.61 1417.33,-78.7411 1406.94,-76.6793 1407.92,-83.61"/>
</g>
<!-- Node11 -->
<g id="node22" class="node"><title>Node11</title>
<polygon fill="white" stroke="#bfbfbf" points="1537.5,-58.5 1537.5,-79.5 1636.5,-79.5 1636.5,-58.5 1537.5,-58.5"/>
<text text-anchor="middle" x="1587" y="-66.5" font-family="Helvetica,sans-Serif" font-size="10.00">OgreLogManager.h</text>
</g>
<!-- Node8&#45;&gt;Node11 -->
<g id="edge22" class="edge"><title>Node8&#45;&gt;Node11</title>
<path fill="none" stroke="midnightblue" d="M1001.32,-124.672C1100.89,-119.755 1327.42,-106.626 1527.28,-80.1235"/>
<polygon fill="midnightblue" stroke="midnightblue" points="1527.94,-83.5675 1537.38,-78.7698 1527.01,-76.6296 1527.94,-83.5675"/>
</g>
<!-- Node12 -->
<g id="node24" class="node"><title>Node12</title>
<polygon fill="white" stroke="#bfbfbf" points="1653.5,-58.5 1653.5,-79.5 1746.5,-79.5 1746.5,-58.5 1653.5,-58.5"/>
<text text-anchor="middle" x="1700" y="-66.5" font-family="Helvetica,sans-Serif" font-size="10.00">OgreQuaternion.h</text>
</g>
<!-- Node8&#45;&gt;Node12 -->
<g id="edge24" class="edge"><title>Node8&#45;&gt;Node12</title>
<path fill="none" stroke="midnightblue" d="M1001.24,-125.811C1115.06,-122.679 1397.68,-112.196 1643.08,-80.1233"/>
<polygon fill="midnightblue" stroke="midnightblue" points="1643.81,-83.5577 1653.26,-78.7771 1642.89,-76.618 1643.81,-83.5577"/>
</g>
<!-- Node13 -->
<g id="node27" class="node"><title>Node13</title>
<polygon fill="white" stroke="#bfbfbf" points="0,-58.5 0,-79.5 114,-79.5 114,-58.5 0,-58.5"/>
<text text-anchor="middle" x="57" y="-66.5" font-family="Helvetica,sans-Serif" font-size="10.00">OgreStringConverter.h</text>
</g>
<!-- Node8&#45;&gt;Node13 -->
<g id="edge28" class="edge"><title>Node8&#45;&gt;Node13</title>
<path fill="none" stroke="midnightblue" d="M898.545,-126.013C769.79,-123.127 423.181,-112.8 124.348,-80.0451"/>
<polygon fill="midnightblue" stroke="midnightblue" points="124.509,-76.5416 114.185,-78.9203 123.739,-83.4991 124.509,-76.5416"/>
</g>
<!-- Node14 -->
<g id="node29" class="node"><title>Node14</title>
<polygon fill="white" stroke="#bfbfbf" points="131.5,-58.5 131.5,-79.5 222.5,-79.5 222.5,-58.5 131.5,-58.5"/>
<text text-anchor="middle" x="177" y="-66.5" font-family="Helvetica,sans-Serif" font-size="10.00">OgreUTFString.h</text>
</g>
<!-- Node8&#45;&gt;Node14 -->
<g id="edge30" class="edge"><title>Node8&#45;&gt;Node14</title>
<path fill="none" stroke="midnightblue" d="M898.766,-126.035C782.135,-123.325 487.798,-113.591 232.79,-80.0951"/>
<polygon fill="midnightblue" stroke="midnightblue" points="232.965,-76.5877 222.591,-78.7399 232.043,-83.5267 232.965,-76.5877"/>
</g>
<!-- Node15 -->
<g id="node31" class="node"><title>Node15</title>
<polygon fill="white" stroke="#bfbfbf" points="240,-58.5 240,-79.5 320,-79.5 320,-58.5 240,-58.5"/>
<text text-anchor="middle" x="280" y="-66.5" font-family="Helvetica,sans-Serif" font-size="10.00">OgreVector2.h</text>
</g>
<!-- Node8&#45;&gt;Node15 -->
<g id="edge32" class="edge"><title>Node8&#45;&gt;Node15</title>
<path fill="none" stroke="midnightblue" d="M898.601,-125.634C793.526,-122.296 546.489,-111.657 329.983,-79.9586"/>
<polygon fill="midnightblue" stroke="midnightblue" points="330.427,-76.4863 320.022,-78.4821 329.401,-83.4107 330.427,-76.4863"/>
</g>
<!-- Node16 -->
<g id="node33" class="node"><title>Node16</title>
<polygon fill="white" stroke="#bfbfbf" points="338,-58.5 338,-79.5 418,-79.5 418,-58.5 338,-58.5"/>
<text text-anchor="middle" x="378" y="-66.5" font-family="Helvetica,sans-Serif" font-size="10.00">OgreVector3.h</text>
</g>
<!-- Node8&#45;&gt;Node16 -->
<g id="edge34" class="edge"><title>Node8&#45;&gt;Node16</title>
<path fill="none" stroke="midnightblue" d="M898.874,-124.636C806.693,-119.889 606.417,-107.362 428.117,-80.0031"/>
<polygon fill="midnightblue" stroke="midnightblue" points="428.448,-76.5126 418.029,-78.4355 427.373,-83.4296 428.448,-76.5126"/>
</g>
<!-- Node17 -->
<g id="node35" class="node"><title>Node17</title>
<polygon fill="white" stroke="#bfbfbf" points="435.5,-58.5 435.5,-79.5 538.5,-79.5 538.5,-58.5 435.5,-58.5"/>
<text text-anchor="middle" x="487" y="-66.5" font-family="Helvetica,sans-Serif" font-size="10.00">OgrePrerequisites.h</text>
</g>
<!-- Node8&#45;&gt;Node17 -->
<g id="edge36" class="edge"><title>Node8&#45;&gt;Node17</title>
<path fill="none" stroke="midnightblue" d="M898.965,-122.126C824.282,-114.755 680.621,-99.6808 548.941,-80.2243"/>
<polygon fill="midnightblue" stroke="midnightblue" points="549.082,-76.7067 538.675,-78.6947 548.05,-83.6303 549.082,-76.7067"/>
</g>
<!-- Node18 -->
<g id="node37" class="node"><title>Node18</title>
<polygon fill="white" stroke="#bfbfbf" points="556,-58.5 556,-79.5 706,-79.5 706,-58.5 556,-58.5"/>
<text text-anchor="middle" x="631" y="-66.5" font-family="Helvetica,sans-Serif" font-size="10.00">Overlay/OgreOverlaySystem.h</text>
</g>
<!-- Node8&#45;&gt;Node18 -->
<g id="edge38" class="edge"><title>Node8&#45;&gt;Node18</title>
<path fill="none" stroke="midnightblue" d="M898.747,-117.681C844.555,-107.828 758.797,-92.2357 698.986,-81.361"/>
<polygon fill="midnightblue" stroke="midnightblue" points="699.342,-77.8684 688.877,-79.5231 698.089,-84.7555 699.342,-77.8684"/>
</g>
<!-- Node19 -->
<g id="node39" class="node"><title>Node19</title>
<a xlink:href="_forward_declarations_8h.html" target="_top" xlink:title="Global forward declarations. ">
<polygon fill="white" stroke="black" points="760.5,-0.5 760.5,-21.5 875.5,-21.5 875.5,-0.5 760.5,-0.5"/>
<text text-anchor="middle" x="818" y="-8.5" font-family="Helvetica,sans-Serif" font-size="10.00">ForwardDeclarations.h</text>
</a>
</g>
<!-- Node8&#45;&gt;Node19 -->
<g id="edge40" class="edge"><title>Node8&#45;&gt;Node19</title>
<path fill="none" stroke="midnightblue" d="M930.331,-116.441C914.991,-107.725 893.578,-94.4729 877,-80 859.695,-64.8923 842.97,-44.6214 831.774,-29.9636"/>
<polygon fill="midnightblue" stroke="midnightblue" points="834.354,-27.5699 825.562,-21.6587 828.749,-31.7628 834.354,-27.5699"/>
</g>
<!-- Node20 -->
<g id="node41" class="node"><title>Node20</title>
<a xlink:href="_global_environment_8h.html" target="_top" xlink:title="GlobalEnvironment.h">
<polygon fill="white" stroke="black" points="723.5,-58.5 723.5,-79.5 830.5,-79.5 830.5,-58.5 723.5,-58.5"/>
<text text-anchor="middle" x="777" y="-66.5" font-family="Helvetica,sans-Serif" font-size="10.00">GlobalEnvironment.h</text>
</a>
</g>
<!-- Node8&#45;&gt;Node20 -->
<g id="edge42" class="edge"><title>Node8&#45;&gt;Node20</title>
<path fill="none" stroke="midnightblue" d="M918.671,-116.497C890.467,-107.041 848.833,-93.0829 817.991,-82.7428"/>
<polygon fill="midnightblue" stroke="midnightblue" points="818.982,-79.3834 808.388,-79.5231 816.757,-86.0203 818.982,-79.3834"/>
</g>
<!-- Node21 -->
<g id="node44" class="node"><title>Node21</title>
<a xlink:href="_zeroed_memory_allocator_8h.html" target="_top" xlink:title="ZeroedMemoryAllocator.h">
<polygon fill="white" stroke="black" points="886,-58.5 886,-79.5 1014,-79.5 1014,-58.5 886,-58.5"/>
<text text-anchor="middle" x="950" y="-66.5" font-family="Helvetica,sans-Serif" font-size="10.00">ZeroedMemoryAllocator.h</text>
</a>
</g>
<!-- Node8&#45;&gt;Node21 -->
<g id="edge46" class="edge"><title>Node8&#45;&gt;Node21</title>
<path fill="none" stroke="midnightblue" d="M950,-116.362C950,-108.922 950,-98.7427 950,-89.7276"/>
<polygon fill="midnightblue" stroke="midnightblue" points="953.5,-89.5706 950,-79.5707 946.5,-89.5707 953.5,-89.5706"/>
</g>
<!-- Node22 -->
<g id="node46" class="node"><title>Node22</title>
<a xlink:href="_bit_flags_8h.html" target="_top" xlink:title="../common/BitFlags.h">
<polygon fill="white" stroke="black" points="1032,-58.5 1032,-79.5 1142,-79.5 1142,-58.5 1032,-58.5"/>
<text text-anchor="middle" x="1087" y="-66.5" font-family="Helvetica,sans-Serif" font-size="10.00">../common/BitFlags.h</text>
</a>
</g>
<!-- Node8&#45;&gt;Node22 -->
<g id="edge48" class="edge"><title>Node8&#45;&gt;Node22</title>
<path fill="none" stroke="midnightblue" d="M974.81,-116.497C996.496,-107.315 1028.21,-93.8889 1052.39,-83.6516"/>
<polygon fill="midnightblue" stroke="midnightblue" points="1054.07,-86.7429 1061.91,-79.6212 1051.34,-80.2968 1054.07,-86.7429"/>
</g>
<!-- Node24 -->
<g id="node50" class="node"><title>Node24</title>
<polygon fill="white" stroke="#bfbfbf" points="1159.5,-58.5 1159.5,-79.5 1268.5,-79.5 1268.5,-58.5 1159.5,-58.5"/>
<text text-anchor="middle" x="1214" y="-66.5" font-family="Helvetica,sans-Serif" font-size="10.00">MyGUI_Prerequest.h</text>
</g>
<!-- Node8&#45;&gt;Node24 -->
<g id="edge52" class="edge"><title>Node8&#45;&gt;Node24</title>
<path fill="none" stroke="midnightblue" d="M997.808,-116.497C1042.34,-106.714 1108.81,-92.1107 1156.28,-81.6819"/>
<polygon fill="midnightblue" stroke="midnightblue" points="1157.09,-85.0874 1166.1,-79.5231 1155.58,-78.2505 1157.09,-85.0874"/>
</g>
<!-- Node20&#45;&gt;Node19 -->
<g id="edge44" class="edge"><title>Node20&#45;&gt;Node19</title>
<path fill="none" stroke="midnightblue" d="M784.52,-58.3619C790.126,-50.4313 797.932,-39.3885 804.597,-29.9606"/>
<polygon fill="midnightblue" stroke="midnightblue" points="807.613,-31.7568 810.528,-21.5707 801.897,-27.7161 807.613,-31.7568"/>
</g>
<!-- Node23 -->
<g id="node48" class="node"><title>Node23</title>
<polygon fill="white" stroke="#bfbfbf" points="1064,-0.5 1064,-21.5 1110,-21.5 1110,-0.5 1064,-0.5"/>
<text text-anchor="middle" x="1087" y="-8.5" font-family="Helvetica,sans-Serif" font-size="10.00">cstdint</text>
</g>
<!-- Node22&#45;&gt;Node23 -->
<g id="edge50" class="edge"><title>Node22&#45;&gt;Node23</title>
<path fill="none" stroke="midnightblue" d="M1087,-58.3619C1087,-50.9219 1087,-40.7427 1087,-31.7276"/>
<polygon fill="midnightblue" stroke="midnightblue" points="1090.5,-31.5706 1087,-21.5707 1083.5,-31.5707 1090.5,-31.5706"/>
</g>
<!-- Node25&#45;&gt;Node8 -->
<g id="edge56" class="edge"><title>Node25&#45;&gt;Node8</title>
<path fill="none" stroke="midnightblue" d="M1709.47,-176.49C1704.97,-175.527 1700.39,-174.657 1696,-174 1564.43,-154.274 1165.06,-135.996 1011.28,-129.501"/>
<polygon fill="midnightblue" stroke="midnightblue" points="1011.21,-125.995 1001.07,-129.072 1010.91,-132.989 1011.21,-125.995"/>
</g>
<!-- Node31&#45;&gt;Node8 -->
<g id="edge70" class="edge"><title>Node31&#45;&gt;Node8</title>
<path fill="none" stroke="midnightblue" d="M825.352,-232.289C839.009,-218.346 864.008,-193.466 887,-174 899.655,-163.286 914.489,-152.154 926.584,-143.415"/>
<polygon fill="midnightblue" stroke="midnightblue" points="928.737,-146.178 934.836,-137.515 924.665,-140.484 928.737,-146.178"/>
</g>
<!-- Node32 -->
<g id="node68" class="node"><title>Node32</title>
<a xlink:href="_singleton_8h.html" target="_top" xlink:title="Singleton.h">
<polygon fill="white" stroke="black" points="643.5,-174.5 643.5,-195.5 708.5,-195.5 708.5,-174.5 643.5,-174.5"/>
<text text-anchor="middle" x="676" y="-182.5" font-family="Helvetica,sans-Serif" font-size="10.00">Singleton.h</text>
</a>
</g>
<!-- Node31&#45;&gt;Node32 -->
<g id="edge72" class="edge"><title>Node31&#45;&gt;Node32</title>
<path fill="none" stroke="midnightblue" d="M789.828,-232.497C767.727,-223.275 735.361,-209.769 710.787,-199.515"/>
<polygon fill="midnightblue" stroke="midnightblue" points="712.031,-196.242 701.454,-195.621 709.335,-202.702 712.031,-196.242"/>
</g>
<!-- Node33 -->
<g id="node71" class="node"><title>Node33</title>
<polygon fill="white" stroke="#bfbfbf" points="725.5,-174.5 725.5,-195.5 772.5,-195.5 772.5,-174.5 725.5,-174.5"/>
<text text-anchor="middle" x="749" y="-182.5" font-family="Helvetica,sans-Serif" font-size="10.00">libintl.h</text>
</g>
<!-- Node31&#45;&gt;Node33 -->
<g id="edge76" class="edge"><title>Node31&#45;&gt;Node33</title>
<path fill="none" stroke="midnightblue" d="M802.895,-232.362C793.312,-223.941 779.736,-212.011 768.607,-202.231"/>
<polygon fill="midnightblue" stroke="midnightblue" points="770.851,-199.543 761.029,-195.571 766.23,-204.801 770.851,-199.543"/>
</g>
<!-- Node34 -->
<g id="node73" class="node"><title>Node34</title>
<polygon fill="white" stroke="#bfbfbf" points="790,-174.5 790,-195.5 840,-195.5 840,-174.5 790,-174.5"/>
<text text-anchor="middle" x="815" y="-182.5" font-family="Helvetica,sans-Serif" font-size="10.00">locale.h</text>
</g>
<!-- Node31&#45;&gt;Node34 -->
<g id="edge78" class="edge"><title>Node31&#45;&gt;Node34</title>
<path fill="none" stroke="midnightblue" d="M815,-232.362C815,-224.922 815,-214.743 815,-205.728"/>
<polygon fill="midnightblue" stroke="midnightblue" points="818.5,-205.571 815,-195.571 811.5,-205.571 818.5,-205.571"/>
</g>
<!-- Node32&#45;&gt;Node8 -->
<g id="edge74" class="edge"><title>Node32&#45;&gt;Node8</title>
<path fill="none" stroke="midnightblue" d="M708.627,-176.048C711.453,-175.332 714.274,-174.64 717,-174 775.013,-160.381 841.715,-147.172 888.845,-138.243"/>
<polygon fill="midnightblue" stroke="midnightblue" points="889.714,-141.641 898.892,-136.348 888.417,-134.762 889.714,-141.641"/>
</g>
<!-- Node36&#45;&gt;Node3 -->
<g id="edge84" class="edge"><title>Node36&#45;&gt;Node3</title>
<path fill="none" stroke="midnightblue" d="M1826,-232.362C1826,-224.922 1826,-214.743 1826,-205.728"/>
<polygon fill="midnightblue" stroke="midnightblue" points="1829.5,-205.571 1826,-195.571 1822.5,-205.571 1829.5,-205.571"/>
</g>
<!-- Node36&#45;&gt;Node25 -->
<g id="edge86" class="edge"><title>Node36&#45;&gt;Node25</title>
<path fill="none" stroke="midnightblue" d="M1810.59,-232.362C1798.04,-223.696 1780.11,-211.313 1765.73,-201.382"/>
<polygon fill="midnightblue" stroke="midnightblue" points="1767.53,-198.372 1757.31,-195.571 1763.55,-204.133 1767.53,-198.372"/>
</g>
<!-- Node37 -->
<g id="node81" class="node"><title>Node37</title>
<a xlink:href="_ro_r_frame_listener_8h.html" target="_top" xlink:title="RoRFrameListener.h">
<polygon fill="white" stroke="black" points="2065.5,-174.5 2065.5,-195.5 2172.5,-195.5 2172.5,-174.5 2065.5,-174.5"/>
<text text-anchor="middle" x="2119" y="-182.5" font-family="Helvetica,sans-Serif" font-size="10.00">RoRFrameListener.h</text>
</a>
</g>
<!-- Node36&#45;&gt;Node37 -->
<g id="edge88" class="edge"><title>Node36&#45;&gt;Node37</title>
<path fill="none" stroke="midnightblue" d="M1872.1,-233.874C1921.56,-224.083 2000.44,-208.47 2055.69,-197.532"/>
<polygon fill="midnightblue" stroke="midnightblue" points="2056.59,-200.921 2065.72,-195.546 2055.23,-194.055 2056.59,-200.921"/>
</g>
<!-- Node36&#45;&gt;Node40 -->
<g id="edge96" class="edge"><title>Node36&#45;&gt;Node40</title>
<path fill="none" stroke="midnightblue" d="M1872.13,-237.119C1945.99,-227.704 2092.24,-209.062 2188.31,-196.816"/>
<polygon fill="midnightblue" stroke="midnightblue" points="2188.84,-200.277 2198.31,-195.54 2187.95,-193.333 2188.84,-200.277"/>
</g>
<!-- Node37&#45;&gt;Node8 -->
<g id="edge90" class="edge"><title>Node37&#45;&gt;Node8</title>
<path fill="none" stroke="midnightblue" d="M2065.29,-175.021C2062.49,-174.642 2059.72,-174.297 2057,-174 1851.78,-151.54 1212.48,-133.702 1011.27,-128.525"/>
<polygon fill="midnightblue" stroke="midnightblue" points="1011.26,-125.024 1001.18,-128.267 1011.08,-132.022 1011.26,-125.024"/>
</g>
<!-- Node38 -->
<g id="node84" class="node"><title>Node38</title>
<polygon fill="white" stroke="#bfbfbf" points="2096,-116.5 2096,-137.5 2142,-137.5 2142,-116.5 2096,-116.5"/>
<text text-anchor="middle" x="2119" y="-124.5" font-family="Helvetica,sans-Serif" font-size="10.00">Ogre.h</text>
</g>
<!-- Node37&#45;&gt;Node38 -->
<g id="edge92" class="edge"><title>Node37&#45;&gt;Node38</title>
<path fill="none" stroke="midnightblue" d="M2119,-174.362C2119,-166.922 2119,-156.743 2119,-147.728"/>
<polygon fill="midnightblue" stroke="midnightblue" points="2122.5,-147.571 2119,-137.571 2115.5,-147.571 2122.5,-147.571"/>
</g>
<!-- Node39 -->
<g id="node86" class="node"><title>Node39</title>
<polygon fill="white" stroke="#bfbfbf" points="2021.5,-116.5 2021.5,-137.5 2078.5,-137.5 2078.5,-116.5 2021.5,-116.5"/>
<text text-anchor="middle" x="2050" y="-124.5" font-family="Helvetica,sans-Serif" font-size="10.00">pthread.h</text>
</g>
<!-- Node37&#45;&gt;Node39 -->
<g id="edge94" class="edge"><title>Node37&#45;&gt;Node39</title>
<path fill="none" stroke="midnightblue" d="M2106.34,-174.362C2096.33,-165.941 2082.13,-154.011 2070.5,-144.231"/>
<polygon fill="midnightblue" stroke="midnightblue" points="2072.48,-141.326 2062.58,-137.571 2067.98,-146.684 2072.48,-141.326"/>
</g>
<!-- Node41 -->
<g id="node90" class="node"><title>Node41</title>
<polygon fill="white" stroke="#bfbfbf" points="2159.5,-116.5 2159.5,-137.5 2292.5,-137.5 2292.5,-116.5 2159.5,-116.5"/>
<text text-anchor="middle" x="2226" y="-124.5" font-family="Helvetica,sans-Serif" font-size="10.00">OgreTerrainPrerequisites.h</text>
</g>
<!-- Node40&#45;&gt;Node41 -->
<g id="edge98" class="edge"><title>Node40&#45;&gt;Node41</title>
<path fill="none" stroke="midnightblue" d="M2270.91,-174.362C2263.16,-166.186 2252.27,-154.702 2243.15,-145.091"/>
<polygon fill="midnightblue" stroke="midnightblue" points="2245.44,-142.419 2236.02,-137.571 2240.37,-147.235 2245.44,-142.419"/>
</g>
<!-- Node42 -->
<g id="node92" class="node"><title>Node42</title>
<polygon fill="white" stroke="#bfbfbf" points="2309.5,-116.5 2309.5,-137.5 2462.5,-137.5 2462.5,-116.5 2309.5,-116.5"/>
<text text-anchor="middle" x="2386" y="-124.5" font-family="Helvetica,sans-Serif" font-size="10.00">OgreTerrainMaterialGenerator.h</text>
</g>
<!-- Node40&#45;&gt;Node42 -->
<g id="edge100" class="edge"><title>Node40&#45;&gt;Node42</title>
<path fill="none" stroke="midnightblue" d="M2300.26,-174.362C2316.47,-165.409 2339.85,-152.491 2358.11,-142.406"/>
<polygon fill="midnightblue" stroke="midnightblue" points="2359.8,-145.47 2366.86,-137.571 2356.42,-139.342 2359.8,-145.47"/>
</g>
<!-- Node43 -->
<g id="node94" class="node"><title>Node43</title>
<polygon fill="white" stroke="#bfbfbf" points="2480,-116.5 2480,-137.5 2614,-137.5 2614,-116.5 2480,-116.5"/>
<text text-anchor="middle" x="2547" y="-124.5" font-family="Helvetica,sans-Serif" font-size="10.00">OgreGpuProgramParams.h</text>
</g>
<!-- Node40&#45;&gt;Node43 -->
<g id="edge102" class="edge"><title>Node40&#45;&gt;Node43</title>
<path fill="none" stroke="midnightblue" d="M2329.17,-174.497C2374.04,-164.714 2441.01,-150.111 2488.84,-139.682"/>
<polygon fill="midnightblue" stroke="midnightblue" points="2489.71,-143.073 2498.74,-137.523 2488.22,-136.234 2489.71,-143.073"/>
</g>
<!-- Node44&#45;&gt;Node8 -->
<g id="edge112" class="edge"><title>Node44&#45;&gt;Node8</title>
<path fill="none" stroke="midnightblue" d="M1696.03,-232.414C1692.48,-216.663 1683.4,-187.471 1663,-174 1609.31,-138.549 1174.45,-129.69 1011.42,-127.605"/>
<polygon fill="midnightblue" stroke="midnightblue" points="1011.13,-124.101 1001.09,-127.477 1011.04,-131.101 1011.13,-124.101"/>
</g>
<!-- Node44&#45;&gt;Node26 -->
<g id="edge106" class="edge"><title>Node44&#45;&gt;Node26</title>
<path fill="none" stroke="midnightblue" d="M1682.96,-232.362C1670.71,-223.696 1653.2,-211.313 1639.16,-201.382"/>
<polygon fill="midnightblue" stroke="midnightblue" points="1641.13,-198.488 1630.94,-195.571 1637.09,-204.203 1641.13,-198.488"/>
</g>
<!-- Node44&#45;&gt;Node27 -->
<g id="edge110" class="edge"><title>Node44&#45;&gt;Node27</title>
<path fill="none" stroke="midnightblue" d="M1658.52,-232.497C1622.37,-222.877 1568.7,-208.598 1529.65,-198.209"/>
<polygon fill="midnightblue" stroke="midnightblue" points="1530.12,-194.712 1519.55,-195.523 1528.32,-201.477 1530.12,-194.712"/>
</g>
<!-- Node44&#45;&gt;Node40 -->
<g id="edge114" class="edge"><title>Node44&#45;&gt;Node40</title>
<path fill="none" stroke="midnightblue" d="M1747.03,-235.186C1755.03,-234.033 1763.24,-232.925 1771,-232 1949.36,-210.752 1997.25,-213.878 2179.78,-196.1"/>
<polygon fill="midnightblue" stroke="midnightblue" points="2180.38,-199.557 2189.99,-195.097 2179.7,-192.591 2180.38,-199.557"/>
</g>
<!-- Node45 -->
<g id="node99" class="node"><title>Node45</title>
<polygon fill="white" stroke="#bfbfbf" points="1878,-174.5 1878,-195.5 2048,-195.5 2048,-174.5 1878,-174.5"/>
<text text-anchor="middle" x="1963" y="-182.5" font-family="Helvetica,sans-Serif" font-size="10.00">OgreShadowCameraSetupPSSM.h</text>
</g>
<!-- Node44&#45;&gt;Node45 -->
<g id="edge108" class="edge"><title>Node44&#45;&gt;Node45</title>
<path fill="none" stroke="midnightblue" d="M1745.99,-232.497C1790.69,-222.714 1857.41,-208.111 1905.06,-197.682"/>
<polygon fill="midnightblue" stroke="midnightblue" points="1905.9,-201.08 1914.92,-195.523 1904.4,-194.242 1905.9,-201.08"/>
</g>
</g>
</svg>
