<?xml version="1.0" encoding="UTF-8" standalone="no"?>
<!DOCTYPE svg PUBLIC "-//W3C//DTD SVG 1.1//EN"
 "http://www.w3.org/Graphics/SVG/1.1/DTD/svg11.dtd">
<!-- Generated by graphviz version 2.26.3 (20100126.1600)
 -->
<!-- Title: G Pages: 1 -->
<!--zoomable 270 -->
<svg id="main" version="1.1" xmlns="http://www.w3.org/2000/svg" xmlns:xlink="http://www.w3.org/1999/xlink" xml:space="preserve" onload="init(evt)">
        <defs>
                <circle id="rim" cx="0" cy="0" r="7"/>
                <circle id="rim2" cx="0" cy="0" r="3.5"/>
                <g id="zoomPlus">
                        <use xlink:href="#rim" fill="#404040">
                                <set attributeName="fill" to="#808080" begin="zoomplus.mouseover" end="zoomplus.mouseout"/>
                        </use>
                        <path d="M-4,0h8M0,-4v8" fill="none" stroke="white" stroke-width="1.5" pointer-events="none"/>
                </g>
                <g id="zoomMin">
                        <use xlink:href="#rim" fill="#404040">
                                <set attributeName="fill" to="#808080" begin="zoomminus.mouseover" end="zoomminus.mouseout"/>
                        </use>
                        <path d="M-4,0h8" fill="none" stroke="white" stroke-width="1.5" pointer-events="none"/>
                </g>
                <g id="dirArrow">
                        <path fill="none" stroke="white" stroke-width="1.5" d="M0,-3.0v7 M-2.5,-0.5L0,-3.0L2.5,-0.5"/>
                </g>
               <g id="resetDef">
                       <use xlink:href="#rim2" fill="#404040">
                               <set attributeName="fill" to="#808080" begin="reset.mouseover" end="reset.mouseout"/>
                       </use>
               </g>
        </defs>

<script type="text/javascript">
var viewWidth = 834;
var viewHeight = 270;
var sectionId = 'dynsection-7';
</script>
<script xlink:href="svgpan.js"/>
<svg id="graph" class="graph">
<g id="viewport">
<title>G</title>
<polygon fill="white" stroke="white" points="-4,5 -4,-266 831,-266 831,5 -4,5"/>
<!-- Node1 -->
<g id="node1" class="node"><title>Node1</title>
<polygon fill="#bfbfbf" stroke="black" points="0,-140.5 0,-161.5 306,-161.5 306,-140.5 0,-140.5"/>
<text text-anchor="middle" x="153" y="-148.5" font-family="Helvetica,sans-Serif" font-size="10.00">RoR::RigEditor::Main::CommandCurrentRigDeleteSelectedBeams</text>
</g>
<!-- Node2 -->
<g id="node3" class="node"><title>Node2</title>
<a xlink:href="class_ro_r_1_1_rig_editor_1_1_main.html#a4e9ceeb031f661d90ee6220ffc994377" target="_top" xlink:title="RoR::RigEditor::Main::HideAllNodeBeamGuiPanels">
<polygon fill="white" stroke="black" points="359,-200.5 359,-221.5 601,-221.5 601,-200.5 359,-200.5"/>
<text text-anchor="middle" x="480" y="-208.5" font-family="Helvetica,sans-Serif" font-size="10.00">RoR::RigEditor::Main::HideAllNodeBeamGuiPanels</text>
</a>
</g>
<!-- Node1&#45;&gt;Node2 -->
<g id="edge2" class="edge"><title>Node1&#45;&gt;Node2</title>
<path fill="none" stroke="midnightblue" d="M198.668,-161.53C236.847,-170.125 292.801,-182.238 342,-191 357.79,-193.812 374.649,-196.508 390.967,-198.96"/>
<polygon fill="midnightblue" stroke="midnightblue" points="390.638,-202.449 401.043,-200.454 391.665,-195.525 390.638,-202.449"/>
</g>
<!-- Node3 -->
<g id="node5" class="node"><title>Node3</title>
<a xlink:href="class_ro_r_1_1_rig_editor_1_1_rig.html#aa1d9bda9db234aec6f6efb182ba8e4ab" target="_top" xlink:title="RoR::RigEditor::Rig::DeleteBeamsBetweenSelectedNodes">
<polygon fill="white" stroke="black" points="342.5,-160.5 342.5,-181.5 617.5,-181.5 617.5,-160.5 342.5,-160.5"/>
<text text-anchor="middle" x="480" y="-168.5" font-family="Helvetica,sans-Serif" font-size="10.00">RoR::RigEditor::Rig::DeleteBeamsBetweenSelectedNodes</text>
</a>
</g>
<!-- Node1&#45;&gt;Node3 -->
<g id="edge4" class="edge"><title>Node1&#45;&gt;Node3</title>
<path fill="none" stroke="midnightblue" d="M306.447,-160.385C315.034,-160.91 323.658,-161.438 332.224,-161.962"/>
<polygon fill="midnightblue" stroke="midnightblue" points="332.053,-165.458 342.248,-162.575 332.48,-158.471 332.053,-165.458"/>
</g>
<!-- Node9 -->
<g id="node17" class="node"><title>Node9</title>
<a xlink:href="class_ro_r_1_1_rig_editor_1_1_rig.html#a13ddf0660af7c1c101915c9b1efd2c90" target="_top" xlink:title="RoR::RigEditor::Rig::RefreshBeamsDynamicMesh">
<polygon fill="white" stroke="black" points="360.5,-80.5 360.5,-101.5 599.5,-101.5 599.5,-80.5 360.5,-80.5"/>
<text text-anchor="middle" x="480" y="-88.5" font-family="Helvetica,sans-Serif" font-size="10.00">RoR::RigEditor::Rig::RefreshBeamsDynamicMesh</text>
</a>
</g>
<!-- Node1&#45;&gt;Node9 -->
<g id="edge16" class="edge"><title>Node1&#45;&gt;Node9</title>
<path fill="none" stroke="midnightblue" d="M198.668,-140.47C236.847,-131.875 292.801,-119.762 342,-111 357.79,-108.188 374.649,-105.492 390.967,-103.04"/>
<polygon fill="midnightblue" stroke="midnightblue" points="391.665,-106.475 401.043,-101.546 390.638,-99.5509 391.665,-106.475"/>
</g>
<!-- Node12 -->
<g id="node25" class="node"><title>Node12</title>
<a xlink:href="class_ro_r_1_1_rig_editor_1_1_rig.html#a717b168d21a24ac0338f2c6ae60c881b" target="_top" xlink:title="RoR::RigEditor::Rig::RefreshNodesDynamicMeshes">
<polygon fill="white" stroke="black" points="356.5,-120.5 356.5,-141.5 603.5,-141.5 603.5,-120.5 356.5,-120.5"/>
<text text-anchor="middle" x="480" y="-128.5" font-family="Helvetica,sans-Serif" font-size="10.00">RoR::RigEditor::Rig::RefreshNodesDynamicMeshes</text>
</a>
</g>
<!-- Node1&#45;&gt;Node12 -->
<g id="edge26" class="edge"><title>Node1&#45;&gt;Node12</title>
<path fill="none" stroke="midnightblue" d="M306.447,-141.615C319.802,-140.798 333.247,-139.976 346.424,-139.17"/>
<polygon fill="midnightblue" stroke="midnightblue" points="346.674,-142.661 356.442,-138.557 346.247,-135.674 346.674,-142.661"/>
</g>
<!-- Node4 -->
<g id="node7" class="node"><title>Node4</title>
<a xlink:href="class_ro_r_1_1_rig_editor_1_1_node.html#a96df42eb7849b0a74a0332ca22b71993" target="_top" xlink:title="RoR::RigEditor::Node::IsSelected">
<polygon fill="white" stroke="black" points="657.5,-160.5 657.5,-181.5 822.5,-181.5 822.5,-160.5 657.5,-160.5"/>
<text text-anchor="middle" x="740" y="-168.5" font-family="Helvetica,sans-Serif" font-size="10.00">RoR::RigEditor::Node::IsSelected</text>
</a>
</g>
<!-- Node3&#45;&gt;Node4 -->
<g id="edge6" class="edge"><title>Node3&#45;&gt;Node4</title>
<path fill="none" stroke="midnightblue" d="M617.613,-171C627.543,-171 637.412,-171 646.99,-171"/>
<polygon fill="midnightblue" stroke="midnightblue" points="647.257,-174.5 657.257,-171 647.257,-167.5 647.257,-174.5"/>
</g>
<!-- Node5 -->
<g id="node9" class="node"><title>Node5</title>
<a xlink:href="class_ro_r_1_1_rig_editor_1_1_beam.html#a961667e55f0d41fdacab764270939969" target="_top" xlink:title="RoR::RigEditor::Beam::GetNodeA">
<polygon fill="white" stroke="black" points="656.5,-80.5 656.5,-101.5 823.5,-101.5 823.5,-80.5 656.5,-80.5"/>
<text text-anchor="middle" x="740" y="-88.5" font-family="Helvetica,sans-Serif" font-size="10.00">RoR::RigEditor::Beam::GetNodeA</text>
</a>
</g>
<!-- Node3&#45;&gt;Node5 -->
<g id="edge8" class="edge"><title>Node3&#45;&gt;Node5</title>
<path fill="none" stroke="midnightblue" d="M595.674,-160.485C603.433,-157.894 610.955,-154.766 618,-151 639.093,-139.724 633.403,-123.158 654,-111 657.638,-108.852 661.49,-106.935 665.468,-105.224"/>
<polygon fill="midnightblue" stroke="midnightblue" points="666.85,-108.442 674.934,-101.593 664.343,-101.907 666.85,-108.442"/>
</g>
<!-- Node6 -->
<g id="node11" class="node"><title>Node6</title>
<a xlink:href="class_ro_r_1_1_rig_editor_1_1_beam.html#a9e107c4bb884aeed653419a8fa5f21ba" target="_top" xlink:title="RoR::RigEditor::Beam::GetNodeB">
<polygon fill="white" stroke="black" points="656.5,-120.5 656.5,-141.5 823.5,-141.5 823.5,-120.5 656.5,-120.5"/>
<text text-anchor="middle" x="740" y="-128.5" font-family="Helvetica,sans-Serif" font-size="10.00">RoR::RigEditor::Beam::GetNodeB</text>
</a>
</g>
<!-- Node3&#45;&gt;Node6 -->
<g id="edge10" class="edge"><title>Node3&#45;&gt;Node6</title>
<path fill="none" stroke="midnightblue" d="M554.522,-160.458C575.099,-157.477 597.424,-154.177 618,-151 633.985,-148.532 651.131,-145.783 667.369,-143.134"/>
<polygon fill="midnightblue" stroke="midnightblue" points="668.041,-146.571 677.344,-141.5 666.91,-139.663 668.041,-146.571"/>
</g>
<!-- Node7 -->
<g id="node13" class="node"><title>Node7</title>
<a xlink:href="class_ro_r_1_1_rig_editor_1_1_node.html#afa889e9cb11afbad0efa8de446dff40c" target="_top" xlink:title="RoR::RigEditor::Node::UnlinkBeam">
<polygon fill="white" stroke="black" points="654,-200.5 654,-221.5 826,-221.5 826,-200.5 654,-200.5"/>
<text text-anchor="middle" x="740" y="-208.5" font-family="Helvetica,sans-Serif" font-size="10.00">RoR::RigEditor::Node::UnlinkBeam</text>
</a>
</g>
<!-- Node3&#45;&gt;Node7 -->
<g id="edge12" class="edge"><title>Node3&#45;&gt;Node7</title>
<path fill="none" stroke="midnightblue" d="M554.522,-181.542C575.099,-184.523 597.424,-187.823 618,-191 633.985,-193.468 651.131,-196.217 667.369,-198.866"/>
<polygon fill="midnightblue" stroke="midnightblue" points="666.91,-202.337 677.344,-200.5 668.041,-195.429 666.91,-202.337"/>
</g>
<!-- Node8 -->
<g id="node15" class="node"><title>Node8</title>
<a xlink:href="class_ro_r_1_1_rig_editor_1_1_rig.html#a207d2ac614bc6b07715776729dfa4dbe" target="_top" xlink:title="RoR::RigEditor::Rig::DeleteBeam">
<polygon fill="white" stroke="black" points="658,-240.5 658,-261.5 822,-261.5 822,-240.5 658,-240.5"/>
<text text-anchor="middle" x="740" y="-248.5" font-family="Helvetica,sans-Serif" font-size="10.00">RoR::RigEditor::Rig::DeleteBeam</text>
</a>
</g>
<!-- Node3&#45;&gt;Node8 -->
<g id="edge14" class="edge"><title>Node3&#45;&gt;Node8</title>
<path fill="none" stroke="midnightblue" d="M595.674,-181.515C603.433,-184.106 610.955,-187.234 618,-191 639.093,-202.276 633.403,-218.842 654,-231 657.638,-233.148 661.49,-235.065 665.468,-236.776"/>
<polygon fill="midnightblue" stroke="midnightblue" points="664.343,-240.093 674.934,-240.407 666.85,-233.558 664.343,-240.093"/>
</g>
<!-- Node9&#45;&gt;Node5 -->
<g id="edge18" class="edge"><title>Node9&#45;&gt;Node5</title>
<path fill="none" stroke="midnightblue" d="M599.726,-91C615.211,-91 630.892,-91 645.882,-91"/>
<polygon fill="midnightblue" stroke="midnightblue" points="646.139,-94.5001 656.139,-91 646.139,-87.5001 646.139,-94.5001"/>
</g>
<!-- Node9&#45;&gt;Node6 -->
<g id="edge24" class="edge"><title>Node9&#45;&gt;Node6</title>
<path fill="none" stroke="midnightblue" d="M554.522,-101.542C575.099,-104.523 597.424,-107.823 618,-111 633.985,-113.468 651.131,-116.217 667.369,-118.866"/>
<polygon fill="midnightblue" stroke="midnightblue" points="666.91,-122.337 677.344,-120.5 668.041,-115.429 666.91,-122.337"/>
</g>
<!-- Node10 -->
<g id="node20" class="node"><title>Node10</title>
<a xlink:href="class_ro_r_1_1_rig_editor_1_1_node.html#aefebb9cd1a67bbb2afc980b0f8baab12" target="_top" xlink:title="RoR::RigEditor::Node::GetPosition">
<polygon fill="white" stroke="black" points="655,-40.5 655,-61.5 825,-61.5 825,-40.5 655,-40.5"/>
<text text-anchor="middle" x="740" y="-48.5" font-family="Helvetica,sans-Serif" font-size="10.00">RoR::RigEditor::Node::GetPosition</text>
</a>
</g>
<!-- Node9&#45;&gt;Node10 -->
<g id="edge20" class="edge"><title>Node9&#45;&gt;Node10</title>
<path fill="none" stroke="midnightblue" d="M548.312,-80.4905C583.106,-75.1375 625.575,-68.6038 661.688,-63.048"/>
<polygon fill="midnightblue" stroke="midnightblue" points="662.342,-66.4887 671.693,-61.5087 661.277,-59.5701 662.342,-66.4887"/>
</g>
<!-- Node11 -->
<g id="node22" class="node"><title>Node11</title>
<a xlink:href="class_ro_r_1_1_rig_editor_1_1_beam.html#ad280482e0eea91ada6435db2046e4c13" target="_top" xlink:title="RoR::RigEditor::Beam::GetColor">
<polygon fill="white" stroke="black" points="660,-0.5 660,-21.5 820,-21.5 820,-0.5 660,-0.5"/>
<text text-anchor="middle" x="740" y="-8.5" font-family="Helvetica,sans-Serif" font-size="10.00">RoR::RigEditor::Beam::GetColor</text>
</a>
</g>
<!-- Node9&#45;&gt;Node11 -->
<g id="edge22" class="edge"><title>Node9&#45;&gt;Node11</title>
<path fill="none" stroke="midnightblue" d="M507.742,-80.4356C541.846,-67.6814 601.645,-46.0708 654,-31 662.654,-28.5088 671.866,-26.1077 680.923,-23.8865"/>
<polygon fill="midnightblue" stroke="midnightblue" points="681.749,-27.2877 690.657,-21.5512 680.116,-20.4809 681.749,-27.2877"/>
</g>
<!-- Node12&#45;&gt;Node4 -->
<g id="edge28" class="edge"><title>Node12&#45;&gt;Node4</title>
<path fill="none" stroke="midnightblue" d="M554.522,-141.542C575.099,-144.523 597.424,-147.823 618,-151 633.985,-153.468 651.131,-156.217 667.369,-158.866"/>
<polygon fill="midnightblue" stroke="midnightblue" points="666.91,-162.337 677.344,-160.5 668.041,-155.429 666.91,-162.337"/>
</g>
<!-- Node12&#45;&gt;Node10 -->
<g id="edge30" class="edge"><title>Node12&#45;&gt;Node10</title>
<path fill="none" stroke="midnightblue" d="M595.674,-120.485C603.433,-117.894 610.955,-114.766 618,-111 639.093,-99.7237 633.403,-83.1579 654,-71 657.638,-68.8523 661.49,-66.9352 665.468,-65.224"/>
<polygon fill="midnightblue" stroke="midnightblue" points="666.85,-68.4423 674.934,-61.5932 664.343,-61.9066 666.85,-68.4423"/>
</g>
</g>
</svg>
        <g id="navigator" transform="translate(0 0)" fill="#404254">
                <rect fill="#f2f5e9" fill-opacity="0.5" stroke="#606060" stroke-width=".5" x="0" y="0" width="60" height="60"/>
                <use id="zoomplus" xlink:href="#zoomPlus" x="17" y="9" onmousedown="handleZoom(evt,'in')"/>
                <use id="zoomminus" xlink:href="#zoomMin" x="42" y="9" onmousedown="handleZoom(evt,'out')"/>
                <use id="reset" xlink:href="#resetDef" x="30" y="36" onmousedown="handleReset()"/>
                <g id="arrowUp" xlink:href="#dirArrow" transform="translate(30 24)" onmousedown="handlePan(0,-1)">
                  <use xlink:href="#rim" fill="#404040">
                        <set attributeName="fill" to="#808080" begin="arrowUp.mouseover" end="arrowUp.mouseout"/>
                  </use>
                  <path fill="none" stroke="white" stroke-width="1.5" d="M0,-3.0v7 M-2.5,-0.5L0,-3.0L2.5,-0.5"/>
                </g>
                <g id="arrowRight" xlink:href="#dirArrow" transform="rotate(90) translate(36 -43)" onmousedown="handlePan(1,0)">
                  <use xlink:href="#rim" fill="#404040">
                        <set attributeName="fill" to="#808080" begin="arrowRight.mouseover" end="arrowRight.mouseout"/>
                  </use>
                  <path fill="none" stroke="white" stroke-width="1.5" d="M0,-3.0v7 M-2.5,-0.5L0,-3.0L2.5,-0.5"/>
                </g>
                <g id="arrowDown" xlink:href="#dirArrow" transform="rotate(180) translate(-30 -48)" onmousedown="handlePan(0,1)">
                  <use xlink:href="#rim" fill="#404040">
                        <set attributeName="fill" to="#808080" begin="arrowDown.mouseover" end="arrowDown.mouseout"/>
                  </use>
                  <path fill="none" stroke="white" stroke-width="1.5" d="M0,-3.0v7 M-2.5,-0.5L0,-3.0L2.5,-0.5"/>
                </g>
                <g id="arrowLeft" xlink:href="#dirArrow" transform="rotate(270) translate(-36 17)" onmousedown="handlePan(-1,0)">
                  <use xlink:href="#rim" fill="#404040">
                        <set attributeName="fill" to="#808080" begin="arrowLeft.mouseover" end="arrowLeft.mouseout"/>
                  </use>
                  <path fill="none" stroke="white" stroke-width="1.5" d="M0,-3.0v7 M-2.5,-0.5L0,-3.0L2.5,-0.5"/>
                </g>
        </g>
</svg>
