<?xml version="1.0" encoding="UTF-8" standalone="no"?>
<!DOCTYPE svg PUBLIC "-//W3C//DTD SVG 1.1//EN"
 "http://www.w3.org/Graphics/SVG/1.1/DTD/svg11.dtd">
<!-- Generated by graphviz version 2.26.3 (20100126.1600)
 -->
<!-- Title: RigDef::Serializer::ProcessFileinfo Pages: 1 -->
<svg width="764pt" height="94pt"
 viewBox="0.00 0.00 764.00 94.00" xmlns="http://www.w3.org/2000/svg" xmlns:xlink="http://www.w3.org/1999/xlink">
<g id="graph1" class="graph" transform="scale(1 1) rotate(0) translate(4 90)">
<title>RigDef::Serializer::ProcessFileinfo</title>
<polygon fill="white" stroke="white" points="-4,5 -4,-90 761,-90 761,5 -4,5"/>
<!-- Node1 -->
<g id="node1" class="node"><title>Node1</title>
<polygon fill="#bfbfbf" stroke="black" points="0,-26 0,-60 94,-60 94,-26 0,-26"/>
<text text-anchor="start" x="8" y="-47" font-family="Helvetica,sans-Serif" font-size="10.00">RigDef::Serializer</text>
<text text-anchor="middle" x="47" y="-34" font-family="Helvetica,sans-Serif" font-size="10.00">::ProcessFileinfo</text>
</g>
<!-- Node2 -->
<g id="node3" class="node"><title>Node2</title>
<a xlink:href="class_rig_def_1_1_serializer.html#a0d25ba7124bac77109b3251d0d5014ec" target="_top" xlink:title="RigDef::Serializer\l::Serialize">
<polygon fill="white" stroke="black" points="130,-26 130,-60 224,-60 224,-26 130,-26"/>
<text text-anchor="start" x="138" y="-47" font-family="Helvetica,sans-Serif" font-size="10.00">RigDef::Serializer</text>
<text text-anchor="middle" x="177" y="-34" font-family="Helvetica,sans-Serif" font-size="10.00">::Serialize</text>
</a>
</g>
<!-- Node1&#45;&gt;Node2 -->
<g id="edge2" class="edge"><title>Node1&#45;&gt;Node2</title>
<path fill="none" stroke="midnightblue" d="M104.539,-43C113.034,-43 121.703,-43 129.952,-43"/>
<polygon fill="midnightblue" stroke="midnightblue" points="104.301,-39.5001 94.3007,-43 104.301,-46.5001 104.301,-39.5001"/>
</g>
<!-- Node3 -->
<g id="node5" class="node"><title>Node3</title>
<a xlink:href="class_ro_r_1_1_rig_editor_1_1_main.html#a9e367d1e6cc15d9481e2cf07e178b074" target="_top" xlink:title="RoR::RigEditor::Main\l::SaveRigDefFile">
<polygon fill="white" stroke="black" points="260,-26 260,-60 370,-60 370,-26 260,-26"/>
<text text-anchor="start" x="268" y="-47" font-family="Helvetica,sans-Serif" font-size="10.00">RoR::RigEditor::Main</text>
<text text-anchor="middle" x="315" y="-34" font-family="Helvetica,sans-Serif" font-size="10.00">::SaveRigDefFile</text>
</a>
</g>
<!-- Node2&#45;&gt;Node3 -->
<g id="edge4" class="edge"><title>Node2&#45;&gt;Node3</title>
<path fill="none" stroke="midnightblue" d="M234.18,-43C242.565,-43 251.19,-43 259.54,-43"/>
<polygon fill="midnightblue" stroke="midnightblue" points="234.106,-39.5001 224.106,-43 234.106,-46.5001 234.106,-39.5001"/>
</g>
<!-- Node4 -->
<g id="node7" class="node"><title>Node4</title>
<a xlink:href="class_ro_r_1_1_rig_editor_1_1_main.html#a35a10d6c23920802442d32fab1a8d470" target="_top" xlink:title="RoR::RigEditor::Main\l::NotifyFileSelectorEnded">
<polygon fill="white" stroke="black" points="406,-26 406,-60 534,-60 534,-26 406,-26"/>
<text text-anchor="start" x="414" y="-47" font-family="Helvetica,sans-Serif" font-size="10.00">RoR::RigEditor::Main</text>
<text text-anchor="middle" x="470" y="-34" font-family="Helvetica,sans-Serif" font-size="10.00">::NotifyFileSelectorEnded</text>
</a>
</g>
<!-- Node3&#45;&gt;Node4 -->
<g id="edge6" class="edge"><title>Node3&#45;&gt;Node4</title>
<path fill="none" stroke="midnightblue" d="M380.274,-43C388.733,-43 397.391,-43 405.831,-43"/>
<polygon fill="midnightblue" stroke="midnightblue" points="380.084,-39.5001 370.084,-43 380.084,-46.5001 380.084,-39.5001"/>
</g>
<!-- Node5 -->
<g id="node9" class="node"><title>Node5</title>
<a xlink:href="class_ro_r_1_1_rig_editor_1_1_main.html#a4f73e9dc5632524ca803864460b82bb5" target="_top" xlink:title="RoR::RigEditor::Main\l::CommandShowDialogOpenRigFile">
<polygon fill="white" stroke="black" points="576,-52 576,-86 750,-86 750,-52 576,-52"/>
<text text-anchor="start" x="584" y="-73" font-family="Helvetica,sans-Serif" font-size="10.00">RoR::RigEditor::Main</text>
<text text-anchor="middle" x="663" y="-60" font-family="Helvetica,sans-Serif" font-size="10.00">::CommandShowDialogOpenRigFile</text>
</a>
</g>
<!-- Node4&#45;&gt;Node5 -->
<g id="edge8" class="edge"><title>Node4&#45;&gt;Node5</title>
<path fill="none" stroke="midnightblue" d="M544.456,-53.0303C554.783,-54.4216 565.466,-55.8607 575.997,-57.2794"/>
<polygon fill="midnightblue" stroke="midnightblue" points="544.644,-49.5241 534.266,-51.6576 543.709,-56.4615 544.644,-49.5241"/>
</g>
<!-- Node6 -->
<g id="node11" class="node"><title>Node6</title>
<a xlink:href="class_ro_r_1_1_rig_editor_1_1_main.html#acb4af1361d9233f5ee2fa658536a7658" target="_top" xlink:title="RoR::RigEditor::Main\l::CommandShowDialogSaveRigFileAs">
<polygon fill="white" stroke="black" points="570.5,-0 570.5,-34 755.5,-34 755.5,-0 570.5,-0"/>
<text text-anchor="start" x="578.5" y="-21" font-family="Helvetica,sans-Serif" font-size="10.00">RoR::RigEditor::Main</text>
<text text-anchor="middle" x="663" y="-8" font-family="Helvetica,sans-Serif" font-size="10.00">::CommandShowDialogSaveRigFileAs</text>
</a>
</g>
<!-- Node4&#45;&gt;Node6 -->
<g id="edge10" class="edge"><title>Node4&#45;&gt;Node6</title>
<path fill="none" stroke="midnightblue" d="M544.223,-33.001C552.818,-31.8432 561.662,-30.6518 570.461,-29.4663"/>
<polygon fill="midnightblue" stroke="midnightblue" points="543.709,-29.5385 534.266,-34.3424 544.644,-36.4759 543.709,-29.5385"/>
</g>
</g>
</svg>
