<?xml version="1.0" encoding="UTF-8" standalone="no"?>
<!DOCTYPE svg PUBLIC "-//W3C//DTD SVG 1.1//EN"
 "http://www.w3.org/Graphics/SVG/1.1/DTD/svg11.dtd">
<!-- Generated by graphviz version 2.26.3 (20100126.1600)
 -->
<!-- Title: G Pages: 1 -->
<!--zoomable 580 -->
<svg id="main" version="1.1" xmlns="http://www.w3.org/2000/svg" xmlns:xlink="http://www.w3.org/1999/xlink" xml:space="preserve" onload="init(evt)">
        <defs>
                <circle id="rim" cx="0" cy="0" r="7"/>
                <circle id="rim2" cx="0" cy="0" r="3.5"/>
                <g id="zoomPlus">
                        <use xlink:href="#rim" fill="#404040">
                                <set attributeName="fill" to="#808080" begin="zoomplus.mouseover" end="zoomplus.mouseout"/>
                        </use>
                        <path d="M-4,0h8M0,-4v8" fill="none" stroke="white" stroke-width="1.5" pointer-events="none"/>
                </g>
                <g id="zoomMin">
                        <use xlink:href="#rim" fill="#404040">
                                <set attributeName="fill" to="#808080" begin="zoomminus.mouseover" end="zoomminus.mouseout"/>
                        </use>
                        <path d="M-4,0h8" fill="none" stroke="white" stroke-width="1.5" pointer-events="none"/>
                </g>
                <g id="dirArrow">
                        <path fill="none" stroke="white" stroke-width="1.5" d="M0,-3.0v7 M-2.5,-0.5L0,-3.0L2.5,-0.5"/>
                </g>
               <g id="resetDef">
                       <use xlink:href="#rim2" fill="#404040">
                               <set attributeName="fill" to="#808080" begin="reset.mouseover" end="reset.mouseout"/>
                       </use>
               </g>
        </defs>

<script type="text/javascript">
var viewWidth = 2440;
var viewHeight = 580;
var sectionId = 'dynsection-45';
</script>
<script xlink:href="svgpan.js"/>
<svg id="graph" class="graph">
<g id="viewport">
<title>G</title>
<polygon fill="white" stroke="white" points="-4,5 -4,-576 2437,-576 2437,5 -4,5"/>
<!-- Node1 -->
<g id="node1" class="node"><title>Node1</title>
<polygon fill="#bfbfbf" stroke="black" points="0.5,-410.5 0.5,-431.5 143.5,-431.5 143.5,-410.5 0.5,-410.5"/>
<text text-anchor="middle" x="72" y="-418.5" font-family="Helvetica,sans-Serif" font-size="10.00">Hydrax::Hydrax::getViewport</text>
</g>
<!-- Node2 -->
<g id="node3" class="node"><title>Node2</title>
<a xlink:href="class_hydrax_1_1_material_manager.html#a445098a432e8799d4b65b1a8e7cf5192" target="_top" xlink:title="Hydrax::MaterialManager::_createUnderwaterCompositor">
<polygon fill="white" stroke="black" points="442.5,-538.5 442.5,-559.5 707.5,-559.5 707.5,-538.5 442.5,-538.5"/>
<text text-anchor="middle" x="575" y="-546.5" font-family="Helvetica,sans-Serif" font-size="10.00">Hydrax::MaterialManager::_createUnderwaterCompositor</text>
</a>
</g>
<!-- Node1&#45;&gt;Node2 -->
<g id="edge2" class="edge"><title>Node1&#45;&gt;Node2</title>
<path fill="none" stroke="midnightblue" d="M119.865,-434.285C190.247,-453.682 325.89,-490.539 442,-519 469.818,-525.819 501.052,-532.894 526.258,-538.46"/>
<polygon fill="midnightblue" stroke="midnightblue" points="120.536,-430.84 109.965,-431.553 118.674,-437.587 120.536,-430.84"/>
</g>
<!-- Node13 -->
<g id="node29" class="node"><title>Node13</title>
<a xlink:href="class_hydrax_1_1_material_manager.html#a61bccef34841ce9c0ce6c53ff27f136b" target="_top" xlink:title="Hydrax::MaterialManager::setCompositorEnable">
<polygon fill="white" stroke="black" points="180,-410.5 180,-431.5 406,-431.5 406,-410.5 180,-410.5"/>
<text text-anchor="middle" x="293" y="-418.5" font-family="Helvetica,sans-Serif" font-size="10.00">Hydrax::MaterialManager::setCompositorEnable</text>
</a>
</g>
<!-- Node1&#45;&gt;Node13 -->
<g id="edge32" class="edge"><title>Node1&#45;&gt;Node13</title>
<path fill="none" stroke="midnightblue" d="M153.956,-421C162.432,-421 171.147,-421 179.885,-421"/>
<polygon fill="midnightblue" stroke="midnightblue" points="153.752,-417.5 143.752,-421 153.752,-424.5 153.752,-417.5"/>
</g>
<!-- Node25 -->
<g id="node58" class="node"><title>Node25</title>
<a xlink:href="class_hydrax_1_1_rtt_manager.html#aab5e7c56ec35030e7410e9ca01f737a1" target="_top" xlink:title="Hydrax::RttManager::_initializeRtt">
<polygon fill="white" stroke="black" points="210.5,-294.5 210.5,-315.5 375.5,-315.5 375.5,-294.5 210.5,-294.5"/>
<text text-anchor="middle" x="293" y="-302.5" font-family="Helvetica,sans-Serif" font-size="10.00">Hydrax::RttManager::_initializeRtt</text>
</a>
</g>
<!-- Node1&#45;&gt;Node25 -->
<g id="edge66" class="edge"><title>Node1&#45;&gt;Node25</title>
<path fill="none" stroke="midnightblue" d="M101.49,-405.521C147.176,-381.541 233.865,-336.039 272.973,-315.512"/>
<polygon fill="midnightblue" stroke="midnightblue" points="99.6228,-402.548 92.395,-410.295 102.876,-408.746 99.6228,-402.548"/>
</g>
<!-- Node3 -->
<g id="node5" class="node"><title>Node3</title>
<a xlink:href="class_hydrax_1_1_material_manager.html#a6aa7b0a92b824348577d506f7bcf581b" target="_top" xlink:title="Hydrax::MaterialManager::createMaterials">
<polygon fill="white" stroke="black" points="1032.5,-550.5 1032.5,-571.5 1231.5,-571.5 1231.5,-550.5 1032.5,-550.5"/>
<text text-anchor="middle" x="1132" y="-558.5" font-family="Helvetica,sans-Serif" font-size="10.00">Hydrax::MaterialManager::createMaterials</text>
</a>
</g>
<!-- Node2&#45;&gt;Node3 -->
<g id="edge4" class="edge"><title>Node2&#45;&gt;Node3</title>
<path fill="none" stroke="midnightblue" d="M717.739,-552.075C816.163,-554.196 944.534,-556.961 1032.12,-558.848"/>
<polygon fill="midnightblue" stroke="midnightblue" points="717.781,-548.575 707.708,-551.859 717.63,-555.574 717.781,-548.575"/>
</g>
<!-- Node4 -->
<g id="node7" class="node"><title>Node4</title>
<a xlink:href="class_hydrax_1_1_hydrax.html#aaf840e19208614533a6b344e32965ee2" target="_top" xlink:title="Hydrax::Hydrax::create">
<polygon fill="white" stroke="black" points="1329.5,-372.5 1329.5,-393.5 1448.5,-393.5 1448.5,-372.5 1329.5,-372.5"/>
<text text-anchor="middle" x="1389" y="-380.5" font-family="Helvetica,sans-Serif" font-size="10.00">Hydrax::Hydrax::create</text>
</a>
</g>
<!-- Node3&#45;&gt;Node4 -->
<g id="edge6" class="edge"><title>Node3&#45;&gt;Node4</title>
<path fill="none" stroke="midnightblue" d="M1241.69,-557.965C1252.75,-554.096 1263.15,-548.618 1272,-541 1314.2,-504.679 1271.63,-463.161 1308,-421 1319.06,-408.18 1335.39,-399.388 1350.49,-393.518"/>
<polygon fill="midnightblue" stroke="midnightblue" points="1240.37,-554.708 1231.82,-560.965 1242.41,-561.405 1240.37,-554.708"/>
</g>
<!-- Node7 -->
<g id="node13" class="node"><title>Node7</title>
<a xlink:href="class_hydrax_1_1_hydrax.html#a187619a5f2ea2e1fe65ac3cd35103203" target="_top" xlink:title="Hydrax::Hydrax::setShaderMode">
<polygon fill="white" stroke="black" points="1548,-411.5 1548,-432.5 1708,-432.5 1708,-411.5 1548,-411.5"/>
<text text-anchor="middle" x="1628" y="-419.5" font-family="Helvetica,sans-Serif" font-size="10.00">Hydrax::Hydrax::setShaderMode</text>
</a>
</g>
<!-- Node3&#45;&gt;Node7 -->
<g id="edge12" class="edge"><title>Node3&#45;&gt;Node7</title>
<path fill="none" stroke="midnightblue" d="M1221.68,-548.969C1238.43,-546.5 1255.77,-543.796 1272,-541 1360.47,-525.757 1385.11,-530.219 1470,-501 1523.65,-482.535 1582.27,-449.501 1610.66,-432.598"/>
<polygon fill="midnightblue" stroke="midnightblue" points="1220.74,-545.569 1211.35,-550.474 1221.75,-552.496 1220.74,-545.569"/>
</g>
<!-- Node10 -->
<g id="node21" class="node"><title>Node10</title>
<a xlink:href="class_hydrax_1_1_hydrax.html#a6fbd6d0808443ba1d2d7569ac6b27583" target="_top" xlink:title="Hydrax::Hydrax::setComponents">
<polygon fill="white" stroke="black" points="1308.5,-274.5 1308.5,-295.5 1469.5,-295.5 1469.5,-274.5 1308.5,-274.5"/>
<text text-anchor="middle" x="1389" y="-282.5" font-family="Helvetica,sans-Serif" font-size="10.00">Hydrax::Hydrax::setComponents</text>
</a>
</g>
<!-- Node3&#45;&gt;Node10 -->
<g id="edge22" class="edge"><title>Node3&#45;&gt;Node10</title>
<path fill="none" stroke="midnightblue" d="M1241.39,-559.677C1252.79,-555.573 1263.35,-549.572 1272,-541 1347.38,-466.331 1236.45,-383.35 1308,-305 1311.42,-301.256 1315.42,-298.163 1319.77,-295.611"/>
<polygon fill="midnightblue" stroke="midnightblue" points="1240.16,-556.393 1231.64,-562.693 1242.23,-563.081 1240.16,-556.393"/>
</g>
<!-- Node12 -->
<g id="node26" class="node"><title>Node12</title>
<a xlink:href="class_hydrax_1_1_hydrax.html#a3f678db49fe45320efb237d145ec63e4" target="_top" xlink:title="Hydrax::Hydrax::setModule">
<polygon fill="white" stroke="black" points="1791.5,-499.5 1791.5,-520.5 1928.5,-520.5 1928.5,-499.5 1791.5,-499.5"/>
<text text-anchor="middle" x="1860" y="-507.5" font-family="Helvetica,sans-Serif" font-size="10.00">Hydrax::Hydrax::setModule</text>
</a>
</g>
<!-- Node3&#45;&gt;Node12 -->
<g id="edge28" class="edge"><title>Node3&#45;&gt;Node12</title>
<path fill="none" stroke="midnightblue" d="M1242.01,-553.293C1394.33,-542.622 1664.97,-523.663 1791.38,-514.807"/>
<polygon fill="midnightblue" stroke="midnightblue" points="1241.43,-549.825 1231.7,-554.016 1241.92,-556.808 1241.43,-549.825"/>
</g>
<!-- Node5 -->
<g id="node9" class="node"><title>Node5</title>
<a xlink:href="class_hydrax_water.html#aedfd9537f96021b60a195b2bb6a9ee2d" target="_top" xlink:title="HydraxWater::InitHydrax">
<polygon fill="white" stroke="black" points="2132.5,-391.5 2132.5,-412.5 2257.5,-412.5 2257.5,-391.5 2132.5,-391.5"/>
<text text-anchor="middle" x="2195" y="-399.5" font-family="Helvetica,sans-Serif" font-size="10.00">HydraxWater::InitHydrax</text>
</a>
</g>
<!-- Node4&#45;&gt;Node5 -->
<g id="edge8" class="edge"><title>Node4&#45;&gt;Node5</title>
<path fill="none" stroke="midnightblue" d="M1458.93,-384.649C1613.96,-388.303 1984.44,-397.037 2132.4,-400.524"/>
<polygon fill="midnightblue" stroke="midnightblue" points="1458.67,-381.142 1448.59,-384.405 1458.51,-388.14 1458.67,-381.142"/>
</g>
<!-- Node6 -->
<g id="node11" class="node"><title>Node6</title>
<a xlink:href="class_hydrax_water.html#a20bb0db860124c8e18903f5d640f88db" target="_top" xlink:title="HydraxWater::HydraxWater">
<polygon fill="white" stroke="black" points="2294,-391.5 2294,-412.5 2432,-412.5 2432,-391.5 2294,-391.5"/>
<text text-anchor="middle" x="2363" y="-399.5" font-family="Helvetica,sans-Serif" font-size="10.00">HydraxWater::HydraxWater</text>
</a>
</g>
<!-- Node5&#45;&gt;Node6 -->
<g id="edge10" class="edge"><title>Node5&#45;&gt;Node6</title>
<path fill="none" stroke="midnightblue" d="M2267.68,-402C2276.38,-402 2285.25,-402 2293.9,-402"/>
<polygon fill="midnightblue" stroke="midnightblue" points="2267.56,-398.5 2257.56,-402 2267.56,-405.5 2267.56,-398.5"/>
</g>
<!-- Node7&#45;&gt;Node5 -->
<g id="edge20" class="edge"><title>Node7&#45;&gt;Node5</title>
<path fill="none" stroke="midnightblue" d="M1718.29,-418.815C1834.08,-414.731 2031.9,-407.753 2132.41,-404.208"/>
<polygon fill="midnightblue" stroke="midnightblue" points="1717.91,-415.326 1708.03,-419.177 1718.15,-422.322 1717.91,-415.326"/>
</g>
<!-- Node8 -->
<g id="node15" class="node"><title>Node8</title>
<a xlink:href="class_hydrax_1_1_cfg_file_manager.html#a7d283a6b6b61ad70292c7cb24cd3543c" target="_top" xlink:title="Hydrax::CfgFileManager::load">
<polygon fill="white" stroke="black" points="1786.5,-289.5 1786.5,-310.5 1933.5,-310.5 1933.5,-289.5 1786.5,-289.5"/>
<text text-anchor="middle" x="1860" y="-297.5" font-family="Helvetica,sans-Serif" font-size="10.00">Hydrax::CfgFileManager::load</text>
</a>
</g>
<!-- Node7&#45;&gt;Node8 -->
<g id="edge14" class="edge"><title>Node7&#45;&gt;Node8</title>
<path fill="none" stroke="midnightblue" d="M1657.1,-406.695C1704.94,-381.539 1798.97,-332.092 1840.03,-310.502"/>
<polygon fill="midnightblue" stroke="midnightblue" points="1655.4,-403.635 1648.18,-411.387 1658.66,-409.83 1655.4,-403.635"/>
</g>
<!-- Node9 -->
<g id="node17" class="node"><title>Node9</title>
<a xlink:href="class_hydrax_1_1_hydrax.html#a1a9a011581dc097e3928511632b534da" target="_top" xlink:title="Hydrax::Hydrax::loadCfg">
<polygon fill="white" stroke="black" points="1970.5,-304.5 1970.5,-325.5 2095.5,-325.5 2095.5,-304.5 1970.5,-304.5"/>
<text text-anchor="middle" x="2033" y="-312.5" font-family="Helvetica,sans-Serif" font-size="10.00">Hydrax::Hydrax::loadCfg</text>
</a>
</g>
<!-- Node8&#45;&gt;Node9 -->
<g id="edge16" class="edge"><title>Node8&#45;&gt;Node9</title>
<path fill="none" stroke="midnightblue" d="M1943.71,-307.258C1952.68,-308.036 1961.69,-308.817 1970.36,-309.569"/>
<polygon fill="midnightblue" stroke="midnightblue" points="1943.88,-303.76 1933.62,-306.383 1943.28,-310.734 1943.88,-303.76"/>
</g>
<!-- Node9&#45;&gt;Node5 -->
<g id="edge18" class="edge"><title>Node9&#45;&gt;Node5</title>
<path fill="none" stroke="midnightblue" d="M2061.93,-330.534C2094.6,-348.082 2146.9,-376.17 2175.23,-391.381"/>
<polygon fill="midnightblue" stroke="midnightblue" points="2063.33,-327.316 2052.86,-325.668 2060.02,-333.483 2063.33,-327.316"/>
</g>
<!-- Node11 -->
<g id="node23" class="node"><title>Node11</title>
<a xlink:href="class_hydrax_1_1_cfg_file_manager.html#a6717ef4e731b3c22d71260aaa6d0336a" target="_top" xlink:title="Hydrax::CfgFileManager::_loadComponentsSettings">
<polygon fill="white" stroke="black" points="1506,-274.5 1506,-295.5 1750,-295.5 1750,-274.5 1506,-274.5"/>
<text text-anchor="middle" x="1628" y="-282.5" font-family="Helvetica,sans-Serif" font-size="10.00">Hydrax::CfgFileManager::_loadComponentsSettings</text>
</a>
</g>
<!-- Node10&#45;&gt;Node11 -->
<g id="edge24" class="edge"><title>Node10&#45;&gt;Node11</title>
<path fill="none" stroke="midnightblue" d="M1479.81,-285C1488.3,-285 1496.98,-285 1505.69,-285"/>
<polygon fill="midnightblue" stroke="midnightblue" points="1479.58,-281.5 1469.58,-285 1479.58,-288.5 1479.58,-281.5"/>
</g>
<!-- Node11&#45;&gt;Node8 -->
<g id="edge26" class="edge"><title>Node11&#45;&gt;Node8</title>
<path fill="none" stroke="midnightblue" d="M1760.2,-293.548C1769.1,-294.123 1777.86,-294.689 1786.28,-295.234"/>
<polygon fill="midnightblue" stroke="midnightblue" points="1760.32,-290.048 1750.11,-292.895 1759.87,-297.033 1760.32,-290.048"/>
</g>
<!-- Node12&#45;&gt;Node5 -->
<g id="edge30" class="edge"><title>Node12&#45;&gt;Node5</title>
<path fill="none" stroke="midnightblue" d="M1903.28,-496.445C1950.66,-481.561 2028.83,-456.867 2096,-435 2118.74,-427.597 2144.35,-419.055 2163.83,-412.516"/>
<polygon fill="midnightblue" stroke="midnightblue" points="1902.15,-493.132 1893.66,-499.467 1904.25,-499.811 1902.15,-493.132"/>
</g>
<!-- Node13&#45;&gt;Node10 -->
<g id="edge42" class="edge"><title>Node13&#45;&gt;Node10</title>
<path fill="none" stroke="midnightblue" d="M328.46,-406.812C358.287,-395.437 402.301,-379.944 442,-371 757.053,-300.02 1143.6,-287.301 1308.4,-285.25"/>
<polygon fill="midnightblue" stroke="midnightblue" points="326.984,-403.63 318.915,-410.497 329.504,-410.161 326.984,-403.63"/>
</g>
<!-- Node14 -->
<g id="node31" class="node"><title>Node14</title>
<a xlink:href="class_hydrax_1_1_hydrax.html#a8564eb97a6a5085af5d0475947af1599" target="_top" xlink:title="Hydrax::Hydrax::_checkVisible">
<polygon fill="white" stroke="black" points="1056,-314.5 1056,-335.5 1208,-335.5 1208,-314.5 1056,-314.5"/>
<text text-anchor="middle" x="1132" y="-322.5" font-family="Helvetica,sans-Serif" font-size="10.00">Hydrax::Hydrax::_checkVisible</text>
</a>
</g>
<!-- Node13&#45;&gt;Node14 -->
<g id="edge34" class="edge"><title>Node13&#45;&gt;Node14</title>
<path fill="none" stroke="midnightblue" d="M394.765,-409.356C565.158,-389.859 904.382,-351.044 1055.87,-333.711"/>
<polygon fill="midnightblue" stroke="midnightblue" points="394.323,-405.883 384.786,-410.498 395.119,-412.838 394.323,-405.883"/>
</g>
<!-- Node17 -->
<g id="node39" class="node"><title>Node17</title>
<a xlink:href="class_hydrax_1_1_hydrax.html#a571ddf613078bcaae4b45c22074e53bc" target="_top" xlink:title="Hydrax::Hydrax::_checkUnderwater">
<polygon fill="white" stroke="black" points="763.5,-430.5 763.5,-451.5 936.5,-451.5 936.5,-430.5 763.5,-430.5"/>
<text text-anchor="middle" x="850" y="-438.5" font-family="Helvetica,sans-Serif" font-size="10.00">Hydrax::Hydrax::_checkUnderwater</text>
</a>
</g>
<!-- Node13&#45;&gt;Node17 -->
<g id="edge44" class="edge"><title>Node13&#45;&gt;Node17</title>
<path fill="none" stroke="midnightblue" d="M416.092,-425.42C521.274,-429.197 669.954,-434.535 763.115,-437.88"/>
<polygon fill="midnightblue" stroke="midnightblue" points="416.172,-421.921 406.053,-425.059 415.921,-428.916 416.172,-421.921"/>
</g>
<!-- Node20 -->
<g id="node47" class="node"><title>Node20</title>
<a xlink:href="class_hydrax_1_1_material_manager.html#a160d27bd9ff0fac665ce5ce7c4e013e9" target="_top" xlink:title="Hydrax::MaterialManager::removeCompositor">
<polygon fill="white" stroke="black" points="467.5,-488.5 467.5,-509.5 682.5,-509.5 682.5,-488.5 467.5,-488.5"/>
<text text-anchor="middle" x="575" y="-496.5" font-family="Helvetica,sans-Serif" font-size="10.00">Hydrax::MaterialManager::removeCompositor</text>
</a>
</g>
<!-- Node13&#45;&gt;Node20 -->
<g id="edge54" class="edge"><title>Node13&#45;&gt;Node20</title>
<path fill="none" stroke="midnightblue" d="M340.928,-434.257C396.168,-449.536 485.85,-474.341 536.67,-488.398"/>
<polygon fill="midnightblue" stroke="midnightblue" points="341.603,-430.812 331.032,-431.519 339.737,-437.559 341.603,-430.812"/>
</g>
<!-- Node14&#45;&gt;Node4 -->
<g id="edge36" class="edge"><title>Node14&#45;&gt;Node4</title>
<path fill="none" stroke="midnightblue" d="M1208.51,-337.262C1229.2,-340.959 1251.53,-345.297 1272,-350 1300.18,-356.474 1331.71,-365.469 1354.93,-372.434"/>
<polygon fill="midnightblue" stroke="midnightblue" points="1208.96,-333.787 1198.5,-335.5 1207.74,-340.681 1208.96,-333.787"/>
</g>
<!-- Node15 -->
<g id="node34" class="node"><title>Node15</title>
<a xlink:href="class_hydrax_1_1_hydrax.html#a2c6e89c89098c1ae2f152b0cac0ecfde" target="_top" xlink:title="Hydrax::Hydrax::setVisible">
<polygon fill="white" stroke="black" points="1322,-314.5 1322,-335.5 1456,-335.5 1456,-314.5 1322,-314.5"/>
<text text-anchor="middle" x="1389" y="-322.5" font-family="Helvetica,sans-Serif" font-size="10.00">Hydrax::Hydrax::setVisible</text>
</a>
</g>
<!-- Node14&#45;&gt;Node15 -->
<g id="edge38" class="edge"><title>Node14&#45;&gt;Node15</title>
<path fill="none" stroke="midnightblue" d="M1218.39,-325C1252.13,-325 1290.24,-325 1321.86,-325"/>
<polygon fill="midnightblue" stroke="midnightblue" points="1218.07,-321.5 1208.07,-325 1218.07,-328.5 1218.07,-321.5"/>
</g>
<!-- Node16 -->
<g id="node36" class="node"><title>Node16</title>
<a xlink:href="class_hydrax_water.html#a21b7f14c1cce1f562a596543dc335a4c" target="_top" xlink:title="HydraxWater::setVisible">
<polygon fill="white" stroke="black" points="1566.5,-314.5 1566.5,-335.5 1689.5,-335.5 1689.5,-314.5 1566.5,-314.5"/>
<text text-anchor="middle" x="1628" y="-322.5" font-family="Helvetica,sans-Serif" font-size="10.00">HydraxWater::setVisible</text>
</a>
</g>
<!-- Node15&#45;&gt;Node16 -->
<g id="edge40" class="edge"><title>Node15&#45;&gt;Node16</title>
<path fill="none" stroke="midnightblue" d="M1466.52,-325C1498.81,-325 1535.79,-325 1566.2,-325"/>
<polygon fill="midnightblue" stroke="midnightblue" points="1466.21,-321.5 1456.21,-325 1466.21,-328.5 1466.21,-321.5"/>
</g>
<!-- Node17&#45;&gt;Node4 -->
<g id="edge46" class="edge"><title>Node17&#45;&gt;Node4</title>
<path fill="none" stroke="midnightblue" d="M930.391,-429.042C950.488,-426.228 972.013,-423.363 992,-421 1111.47,-406.876 1251.65,-394.42 1329.39,-387.873"/>
<polygon fill="midnightblue" stroke="midnightblue" points="929.753,-425.598 920.341,-430.462 930.732,-432.529 929.753,-425.598"/>
</g>
<!-- Node17&#45;&gt;Node14 -->
<g id="edge48" class="edge"><title>Node17&#45;&gt;Node14</title>
<path fill="none" stroke="midnightblue" d="M924.5,-427.732C935.33,-424.58 946.141,-420.718 956,-416 974.284,-407.25 974.635,-398.455 992,-388 1028.65,-365.935 1074.37,-346.774 1103.39,-335.549"/>
<polygon fill="midnightblue" stroke="midnightblue" points="923.305,-424.429 914.574,-430.431 925.142,-431.184 923.305,-424.429"/>
</g>
<!-- Node18 -->
<g id="node43" class="node"><title>Node18</title>
<a xlink:href="class_hydrax_1_1_hydrax.html#ac584e30a6cbfb5d8884afb182c29d36a" target="_top" xlink:title="Hydrax::Hydrax::update">
<polygon fill="white" stroke="black" points="1071.5,-430.5 1071.5,-451.5 1192.5,-451.5 1192.5,-430.5 1071.5,-430.5"/>
<text text-anchor="middle" x="1132" y="-438.5" font-family="Helvetica,sans-Serif" font-size="10.00">Hydrax::Hydrax::update</text>
</a>
</g>
<!-- Node17&#45;&gt;Node18 -->
<g id="edge50" class="edge"><title>Node17&#45;&gt;Node18</title>
<path fill="none" stroke="midnightblue" d="M946.612,-441C987.889,-441 1034.82,-441 1071.13,-441"/>
<polygon fill="midnightblue" stroke="midnightblue" points="946.526,-437.5 936.526,-441 946.526,-444.5 946.526,-437.5"/>
</g>
<!-- Node19 -->
<g id="node45" class="node"><title>Node19</title>
<a xlink:href="class_hydrax_water.html#a00888728a3ac027b68807892c1ec614b" target="_top" xlink:title="HydraxWater::framestep">
<polygon fill="white" stroke="black" points="1327,-430.5 1327,-451.5 1451,-451.5 1451,-430.5 1327,-430.5"/>
<text text-anchor="middle" x="1389" y="-438.5" font-family="Helvetica,sans-Serif" font-size="10.00">HydraxWater::framestep</text>
</a>
</g>
<!-- Node18&#45;&gt;Node19 -->
<g id="edge52" class="edge"><title>Node18&#45;&gt;Node19</title>
<path fill="none" stroke="midnightblue" d="M1202.75,-441C1241.54,-441 1289.2,-441 1326.59,-441"/>
<polygon fill="midnightblue" stroke="midnightblue" points="1202.58,-437.5 1192.58,-441 1202.58,-444.5 1202.58,-437.5"/>
</g>
<!-- Node21 -->
<g id="node49" class="node"><title>Node21</title>
<a xlink:href="class_hydrax_1_1_material_manager.html#a93baa6272c91d1be5ec9bef054a9bb0d" target="_top" xlink:title="Hydrax::MaterialManager::removeMaterials">
<polygon fill="white" stroke="black" points="748,-505.5 748,-526.5 952,-526.5 952,-505.5 748,-505.5"/>
<text text-anchor="middle" x="850" y="-513.5" font-family="Helvetica,sans-Serif" font-size="10.00">Hydrax::MaterialManager::removeMaterials</text>
</a>
</g>
<!-- Node20&#45;&gt;Node21 -->
<g id="edge56" class="edge"><title>Node20&#45;&gt;Node21</title>
<path fill="none" stroke="midnightblue" d="M692.669,-506.274C711.07,-507.412 729.956,-508.579 747.97,-509.693"/>
<polygon fill="midnightblue" stroke="midnightblue" points="692.701,-502.769 682.504,-505.646 692.269,-509.756 692.701,-502.769"/>
</g>
<!-- Node21&#45;&gt;Node3 -->
<g id="edge64" class="edge"><title>Node21&#45;&gt;Node3</title>
<path fill="none" stroke="midnightblue" d="M917.192,-528.289C940.814,-532.488 967.558,-537.104 992,-541 1012.49,-544.266 1034.7,-547.555 1055.27,-550.496"/>
<polygon fill="midnightblue" stroke="midnightblue" points="917.735,-524.831 907.275,-526.519 916.505,-531.722 917.735,-524.831"/>
</g>
<!-- Node22 -->
<g id="node51" class="node"><title>Node22</title>
<a xlink:href="class_hydrax_1_1_hydrax.html#a02c9bf8f5576332fc836b4929e738529" target="_top" xlink:title="Hydrax::Hydrax::remove">
<polygon fill="white" stroke="black" points="1070,-470.5 1070,-491.5 1194,-491.5 1194,-470.5 1070,-470.5"/>
<text text-anchor="middle" x="1132" y="-478.5" font-family="Helvetica,sans-Serif" font-size="10.00">Hydrax::Hydrax::remove</text>
</a>
</g>
<!-- Node21&#45;&gt;Node22 -->
<g id="edge58" class="edge"><title>Node21&#45;&gt;Node22</title>
<path fill="none" stroke="midnightblue" d="M944.685,-504.248C985.946,-499.127 1033.16,-493.267 1069.86,-488.712"/>
<polygon fill="midnightblue" stroke="midnightblue" points="944.102,-500.794 934.609,-505.499 944.964,-507.74 944.102,-500.794"/>
</g>
<!-- Node24 -->
<g id="node55" class="node"><title>Node24</title>
<a xlink:href="class_hydrax_1_1_material_manager.html#a071d2479a52e9d36ff25bbab8c09e728" target="_top" xlink:title="Hydrax::MaterialManager::~MaterialManager">
<polygon fill="white" stroke="black" points="1027,-510.5 1027,-531.5 1237,-531.5 1237,-510.5 1027,-510.5"/>
<text text-anchor="middle" x="1132" y="-518.5" font-family="Helvetica,sans-Serif" font-size="10.00">Hydrax::MaterialManager::~MaterialManager</text>
</a>
</g>
<!-- Node21&#45;&gt;Node24 -->
<g id="edge62" class="edge"><title>Node21&#45;&gt;Node24</title>
<path fill="none" stroke="midnightblue" d="M962.248,-517.99C983.545,-518.368 1005.76,-518.762 1026.82,-519.135"/>
<polygon fill="midnightblue" stroke="midnightblue" points="962.268,-514.49 952.207,-517.812 962.144,-521.489 962.268,-514.49"/>
</g>
<!-- Node23 -->
<g id="node53" class="node"><title>Node23</title>
<a xlink:href="class_hydrax_water.html#ac4de588fe8ff6d0df6fec45c19521dd4" target="_top" xlink:title="HydraxWater::~HydraxWater">
<polygon fill="white" stroke="black" points="1317,-470.5 1317,-491.5 1461,-491.5 1461,-470.5 1317,-470.5"/>
<text text-anchor="middle" x="1389" y="-478.5" font-family="Helvetica,sans-Serif" font-size="10.00">HydraxWater::~HydraxWater</text>
</a>
</g>
<!-- Node22&#45;&gt;Node23 -->
<g id="edge60" class="edge"><title>Node22&#45;&gt;Node23</title>
<path fill="none" stroke="midnightblue" d="M1204.41,-481C1239.59,-481 1281.75,-481 1316.89,-481"/>
<polygon fill="midnightblue" stroke="midnightblue" points="1204.21,-477.5 1194.21,-481 1204.21,-484.5 1204.21,-477.5"/>
</g>
<!-- Node26 -->
<g id="node60" class="node"><title>Node26</title>
<a xlink:href="class_hydrax_1_1_rtt_manager.html#a774efa00a79ade65e726ed0774d2ac2e" target="_top" xlink:title="Hydrax::RttManager::initialize">
<polygon fill="white" stroke="black" points="502,-198.5 502,-219.5 648,-219.5 648,-198.5 502,-198.5"/>
<text text-anchor="middle" x="575" y="-206.5" font-family="Helvetica,sans-Serif" font-size="10.00">Hydrax::RttManager::initialize</text>
</a>
</g>
<!-- Node25&#45;&gt;Node26 -->
<g id="edge68" class="edge"><title>Node25&#45;&gt;Node26</title>
<path fill="none" stroke="midnightblue" d="M333.73,-291.134C390.658,-271.755 492.774,-236.992 543.963,-219.566"/>
<polygon fill="midnightblue" stroke="midnightblue" points="332.324,-287.916 323.986,-294.452 334.58,-294.542 332.324,-287.916"/>
</g>
<!-- Node26&#45;&gt;Node4 -->
<g id="edge84" class="edge"><title>Node26&#45;&gt;Node4</title>
<path fill="none" stroke="midnightblue" d="M598.577,-225.304C630.198,-246.369 688.776,-282.628 744,-302 950.071,-374.287 1213.12,-383.573 1329.29,-383.799"/>
<polygon fill="midnightblue" stroke="midnightblue" points="600.278,-222.229 590.03,-219.541 596.364,-228.033 600.278,-222.229"/>
</g>
<!-- Node26&#45;&gt;Node10 -->
<g id="edge88" class="edge"><title>Node26&#45;&gt;Node10</title>
<path fill="none" stroke="midnightblue" d="M595.543,-191.795C625.768,-167.724 685.041,-125.137 744,-109 857.171,-78.0256 1168.59,-53.5675 1272,-109 1289.46,-118.36 1360.75,-237.222 1382.6,-274.138"/>
<polygon fill="midnightblue" stroke="midnightblue" points="593.035,-189.323 587.47,-198.339 597.442,-194.761 593.035,-189.323"/>
</g>
<!-- Node26&#45;&gt;Node14 -->
<g id="edge86" class="edge"><title>Node26&#45;&gt;Node14</title>
<path fill="none" stroke="midnightblue" d="M609.107,-223.363C642.814,-237.017 696.133,-257.172 744,-269 850.541,-295.326 976.805,-310.705 1055.68,-318.484"/>
<polygon fill="midnightblue" stroke="midnightblue" points="610.303,-220.071 599.722,-219.524 607.653,-226.55 610.303,-220.071"/>
</g>
<!-- Node26&#45;&gt;Node17 -->
<g id="edge90" class="edge"><title>Node26&#45;&gt;Node17</title>
<path fill="none" stroke="midnightblue" d="M590.9,-227.725C619.41,-260.616 682.053,-329.841 744,-378 771.38,-399.286 806.555,-418.86 828.695,-430.365"/>
<polygon fill="midnightblue" stroke="midnightblue" points="593.274,-225.117 584.099,-219.818 587.967,-229.682 593.274,-225.117"/>
</g>
<!-- Node27 -->
<g id="node62" class="node"><title>Node27</title>
<a xlink:href="class_hydrax_1_1_g_p_u_normal_map_manager.html#a7398a504e11ea902839868d69bcf956b" target="_top" xlink:title="Hydrax::GPUNormalMapManager::create">
<polygon fill="white" stroke="black" points="751.5,-118.5 751.5,-139.5 948.5,-139.5 948.5,-118.5 751.5,-118.5"/>
<text text-anchor="middle" x="850" y="-126.5" font-family="Helvetica,sans-Serif" font-size="10.00">Hydrax::GPUNormalMapManager::create</text>
</a>
</g>
<!-- Node26&#45;&gt;Node27 -->
<g id="edge70" class="edge"><title>Node26&#45;&gt;Node27</title>
<path fill="none" stroke="midnightblue" d="M610.101,-194.74C643.937,-181.426 696.809,-161.747 744,-149 757.288,-145.411 771.684,-142.234 785.456,-139.528"/>
<polygon fill="midnightblue" stroke="midnightblue" points="608.667,-191.544 600.662,-198.484 611.248,-198.051 608.667,-191.544"/>
</g>
<!-- Node32 -->
<g id="node73" class="node"><title>Node32</title>
<a xlink:href="class_hydrax_1_1_g_p_u_normal_map_manager.html#ac58c786ad6359d8f70b5ecd0bc30464b" target="_top" xlink:title="Hydrax::GPUNormalMapManager::setActive">
<polygon fill="white" stroke="black" points="744.5,-0.5 744.5,-21.5 955.5,-21.5 955.5,-0.5 744.5,-0.5"/>
<text text-anchor="middle" x="850" y="-8.5" font-family="Helvetica,sans-Serif" font-size="10.00">Hydrax::GPUNormalMapManager::setActive</text>
</a>
</g>
<!-- Node26&#45;&gt;Node32 -->
<g id="edge82" class="edge"><title>Node26&#45;&gt;Node32</title>
<path fill="none" stroke="midnightblue" d="M586.967,-189.992C611.468,-152.816 671.215,-70.6592 744,-31 750.989,-27.1918 758.579,-24.0968 766.378,-21.5832"/>
<polygon fill="midnightblue" stroke="midnightblue" points="584.007,-188.125 581.511,-198.421 589.883,-191.928 584.007,-188.125"/>
</g>
<!-- Node33 -->
<g id="node79" class="node"><title>Node33</title>
<a xlink:href="class_hydrax_1_1_rtt_manager.html#abf7d8e05771b9f904efa09fe94ab0907" target="_top" xlink:title="Hydrax::RttManager::setTextureSize">
<polygon fill="white" stroke="black" points="761.5,-40.5 761.5,-61.5 938.5,-61.5 938.5,-40.5 761.5,-40.5"/>
<text text-anchor="middle" x="850" y="-48.5" font-family="Helvetica,sans-Serif" font-size="10.00">Hydrax::RttManager::setTextureSize</text>
</a>
</g>
<!-- Node26&#45;&gt;Node33 -->
<g id="edge92" class="edge"><title>Node26&#45;&gt;Node33</title>
<path fill="none" stroke="midnightblue" d="M592.171,-191.163C620.867,-162.43 681.593,-106.083 744,-76 756.859,-69.8012 771.353,-65.0843 785.399,-61.5143"/>
<polygon fill="midnightblue" stroke="midnightblue" points="589.478,-188.911 584.953,-198.49 594.464,-193.823 589.478,-188.911"/>
</g>
<!-- Node35 -->
<g id="node84" class="node"><title>Node35</title>
<a xlink:href="class_hydrax_1_1_rtt_manager.html#ad54dd87efa7baa4a5037faa2e5241738" target="_top" xlink:title="Hydrax::RttManager::setTexturesSize">
<polygon fill="white" stroke="black" points="759,-238.5 759,-259.5 941,-259.5 941,-238.5 759,-238.5"/>
<text text-anchor="middle" x="850" y="-246.5" font-family="Helvetica,sans-Serif" font-size="10.00">Hydrax::RttManager::setTexturesSize</text>
</a>
</g>
<!-- Node26&#45;&gt;Node35 -->
<g id="edge98" class="edge"><title>Node26&#45;&gt;Node35</title>
<path fill="none" stroke="midnightblue" d="M657.347,-220.978C695.649,-226.549 740.795,-233.116 777.753,-238.491"/>
<polygon fill="midnightblue" stroke="midnightblue" points="657.653,-217.485 647.253,-219.51 656.645,-224.413 657.653,-217.485"/>
</g>
<!-- Node36 -->
<g id="node86" class="node"><title>Node36</title>
<a xlink:href="class_hydrax_1_1_rtt_manager.html#a009e9c7631dad8d588790401cab753b6" target="_top" xlink:title="Hydrax::RttManager::setNumberOfChannels">
<polygon fill="white" stroke="black" points="744.5,-198.5 744.5,-219.5 955.5,-219.5 955.5,-198.5 744.5,-198.5"/>
<text text-anchor="middle" x="850" y="-206.5" font-family="Helvetica,sans-Serif" font-size="10.00">Hydrax::RttManager::setNumberOfChannels</text>
</a>
</g>
<!-- Node26&#45;&gt;Node36 -->
<g id="edge100" class="edge"><title>Node26&#45;&gt;Node36</title>
<path fill="none" stroke="midnightblue" d="M658.521,-209C685.553,-209 715.893,-209 744.315,-209"/>
<polygon fill="midnightblue" stroke="midnightblue" points="658.334,-205.5 648.334,-209 658.334,-212.5 658.334,-205.5"/>
</g>
<!-- Node38 -->
<g id="node91" class="node"><title>Node38</title>
<a xlink:href="class_hydrax_1_1_rtt_manager.html#afe968a7c8f23a6fa9b0d5b499ef09491" target="_top" xlink:title="Hydrax::RttManager::setBitsPerChannel">
<polygon fill="white" stroke="black" points="753.5,-158.5 753.5,-179.5 946.5,-179.5 946.5,-158.5 753.5,-158.5"/>
<text text-anchor="middle" x="850" y="-166.5" font-family="Helvetica,sans-Serif" font-size="10.00">Hydrax::RttManager::setBitsPerChannel</text>
</a>
</g>
<!-- Node26&#45;&gt;Node38 -->
<g id="edge106" class="edge"><title>Node26&#45;&gt;Node38</title>
<path fill="none" stroke="midnightblue" d="M657.347,-197.022C695.649,-191.451 740.795,-184.884 777.753,-179.509"/>
<polygon fill="midnightblue" stroke="midnightblue" points="656.645,-193.587 647.253,-198.49 657.653,-200.515 656.645,-193.587"/>
</g>
<!-- Node27&#45;&gt;Node14 -->
<g id="edge78" class="edge"><title>Node27&#45;&gt;Node14</title>
<path fill="none" stroke="midnightblue" d="M949.458,-144.412C951.722,-145.826 953.908,-147.352 956,-149 986.628,-173.127 966.993,-199.086 992,-229 1025.27,-268.795 1078.96,-299.247 1109.28,-314.393"/>
<polygon fill="midnightblue" stroke="midnightblue" points="950.837,-141.179 940.376,-139.503 947.508,-147.337 950.837,-141.179"/>
</g>
<!-- Node28 -->
<g id="node64" class="node"><title>Node28</title>
<a xlink:href="class_hydrax_1_1_noise_1_1_f_f_t.html#aa8e2b9d2b8307c07be2d2cd9cf115560" target="_top" xlink:title="Hydrax::Noise::FFT::createGPUNormalMapResources">
<polygon fill="white" stroke="black" points="1004,-118.5 1004,-139.5 1260,-139.5 1260,-118.5 1004,-118.5"/>
<text text-anchor="middle" x="1132" y="-126.5" font-family="Helvetica,sans-Serif" font-size="10.00">Hydrax::Noise::FFT::createGPUNormalMapResources</text>
</a>
</g>
<!-- Node27&#45;&gt;Node28 -->
<g id="edge72" class="edge"><title>Node27&#45;&gt;Node28</title>
<path fill="none" stroke="midnightblue" d="M958.732,-129C973.451,-129 988.666,-129 1003.69,-129"/>
<polygon fill="midnightblue" stroke="midnightblue" points="958.63,-125.5 948.63,-129 958.63,-132.5 958.63,-125.5"/>
</g>
<!-- Node31 -->
<g id="node71" class="node"><title>Node31</title>
<a xlink:href="class_hydrax_1_1_noise_1_1_perlin.html#adb347b98692bd7ce6ad7ce76c605d15a" target="_top" xlink:title="Hydrax::Noise::Perlin::createGPUNormalMapResources">
<polygon fill="white" stroke="black" points="1000.5,-158.5 1000.5,-179.5 1263.5,-179.5 1263.5,-158.5 1000.5,-158.5"/>
<text text-anchor="middle" x="1132" y="-166.5" font-family="Helvetica,sans-Serif" font-size="10.00">Hydrax::Noise::Perlin::createGPUNormalMapResources</text>
</a>
</g>
<!-- Node27&#45;&gt;Node31 -->
<g id="edge80" class="edge"><title>Node27&#45;&gt;Node31</title>
<path fill="none" stroke="midnightblue" d="M934.192,-140.942C973.523,-146.521 1019.93,-153.104 1057.91,-158.491"/>
<polygon fill="midnightblue" stroke="midnightblue" points="934.485,-137.449 924.092,-139.51 933.502,-144.379 934.485,-137.449"/>
</g>
<!-- Node29 -->
<g id="node66" class="node"><title>Node29</title>
<a xlink:href="class_hydrax_1_1_noise_1_1_f_f_t.html#a1d7ec06eb11cda608cc8f73256c35be5" target="_top" xlink:title="Hydrax::Noise::FFT::setOptions">
<polygon fill="white" stroke="black" points="1310.5,-118.5 1310.5,-139.5 1467.5,-139.5 1467.5,-118.5 1310.5,-118.5"/>
<text text-anchor="middle" x="1389" y="-126.5" font-family="Helvetica,sans-Serif" font-size="10.00">Hydrax::Noise::FFT::setOptions</text>
</a>
</g>
<!-- Node28&#45;&gt;Node29 -->
<g id="edge74" class="edge"><title>Node28&#45;&gt;Node29</title>
<path fill="none" stroke="midnightblue" d="M1270.13,-129C1283.86,-129 1297.44,-129 1310.24,-129"/>
<polygon fill="midnightblue" stroke="midnightblue" points="1270.12,-125.5 1260.12,-129 1270.12,-132.5 1270.12,-125.5"/>
</g>
<!-- Node30 -->
<g id="node68" class="node"><title>Node30</title>
<a xlink:href="class_hydrax_1_1_noise_1_1_f_f_t.html#a64245b9e56eeb8627ac3f5260dc203dd" target="_top" xlink:title="Hydrax::Noise::FFT::loadCfg">
<polygon fill="white" stroke="black" points="1556.5,-118.5 1556.5,-139.5 1699.5,-139.5 1699.5,-118.5 1556.5,-118.5"/>
<text text-anchor="middle" x="1628" y="-126.5" font-family="Helvetica,sans-Serif" font-size="10.00">Hydrax::Noise::FFT::loadCfg</text>
</a>
</g>
<!-- Node29&#45;&gt;Node30 -->
<g id="edge76" class="edge"><title>Node29&#45;&gt;Node30</title>
<path fill="none" stroke="midnightblue" d="M1477.77,-129C1503.63,-129 1531.55,-129 1556.23,-129"/>
<polygon fill="midnightblue" stroke="midnightblue" points="1477.59,-125.5 1467.59,-129 1477.59,-132.5 1477.59,-125.5"/>
</g>
<!-- Node34 -->
<g id="node81" class="node"><title>Node34</title>
<a xlink:href="class_hydrax_1_1_cfg_file_manager.html#ae2a1a0accf942e528f6ba8a041a674e6" target="_top" xlink:title="Hydrax::CfgFileManager::_loadRttSettings">
<polygon fill="white" stroke="black" points="1527,-59.5 1527,-80.5 1729,-80.5 1729,-59.5 1527,-59.5"/>
<text text-anchor="middle" x="1628" y="-67.5" font-family="Helvetica,sans-Serif" font-size="10.00">Hydrax::CfgFileManager::_loadRttSettings</text>
</a>
</g>
<!-- Node33&#45;&gt;Node34 -->
<g id="edge94" class="edge"><title>Node33&#45;&gt;Node34</title>
<path fill="none" stroke="midnightblue" d="M948.9,-53.4153C1097.5,-57.0443 1376.89,-63.8675 1526.82,-67.529"/>
<polygon fill="midnightblue" stroke="midnightblue" points="948.95,-49.9156 938.867,-53.1703 948.779,-56.9135 948.95,-49.9156"/>
</g>
<!-- Node34&#45;&gt;Node8 -->
<g id="edge96" class="edge"><title>Node34&#45;&gt;Node8</title>
<path fill="none" stroke="midnightblue" d="M1700.09,-83.4601C1717.71,-89.2163 1735.62,-97.3962 1750,-109 1812.84,-159.696 1846.82,-256.576 1856.82,-289.069"/>
<polygon fill="midnightblue" stroke="midnightblue" points="1700.94,-80.0602 1690.36,-80.5052 1698.91,-86.7586 1700.94,-80.0602"/>
</g>
<!-- Node36&#45;&gt;Node10 -->
<g id="edge104" class="edge"><title>Node36&#45;&gt;Node10</title>
<path fill="none" stroke="midnightblue" d="M934.844,-220.963C1039.18,-235.675 1214.65,-260.416 1314.17,-274.449"/>
<polygon fill="midnightblue" stroke="midnightblue" points="935.053,-217.458 924.662,-219.528 934.076,-224.39 935.053,-217.458"/>
</g>
<!-- Node37 -->
<g id="node88" class="node"><title>Node37</title>
<a xlink:href="class_hydrax_1_1_g_p_u_normal_map_manager.html#a9c2a79cec8c9a72e2916587e09c9c83f" target="_top" xlink:title="Hydrax::GPUNormalMapManager::GPUNormalMapManager">
<polygon fill="white" stroke="black" points="992.5,-198.5 992.5,-219.5 1271.5,-219.5 1271.5,-198.5 992.5,-198.5"/>
<text text-anchor="middle" x="1132" y="-206.5" font-family="Helvetica,sans-Serif" font-size="10.00">Hydrax::GPUNormalMapManager::GPUNormalMapManager</text>
</a>
</g>
<!-- Node36&#45;&gt;Node37 -->
<g id="edge102" class="edge"><title>Node36&#45;&gt;Node37</title>
<path fill="none" stroke="midnightblue" d="M965.907,-209C974.567,-209 983.358,-209 992.142,-209"/>
<polygon fill="midnightblue" stroke="midnightblue" points="965.809,-205.5 955.809,-209 965.809,-212.5 965.809,-205.5"/>
</g>
<!-- Node38&#45;&gt;Node37 -->
<g id="edge108" class="edge"><title>Node38&#45;&gt;Node37</title>
<path fill="none" stroke="midnightblue" d="M934.192,-180.942C973.523,-186.521 1019.93,-193.104 1057.91,-198.491"/>
<polygon fill="midnightblue" stroke="midnightblue" points="934.485,-177.449 924.092,-179.51 933.502,-184.379 934.485,-177.449"/>
</g>
</g>
</svg>
        <g id="navigator" transform="translate(0 0)" fill="#404254">
                <rect fill="#f2f5e9" fill-opacity="0.5" stroke="#606060" stroke-width=".5" x="0" y="0" width="60" height="60"/>
                <use id="zoomplus" xlink:href="#zoomPlus" x="17" y="9" onmousedown="handleZoom(evt,'in')"/>
                <use id="zoomminus" xlink:href="#zoomMin" x="42" y="9" onmousedown="handleZoom(evt,'out')"/>
                <use id="reset" xlink:href="#resetDef" x="30" y="36" onmousedown="handleReset()"/>
                <g id="arrowUp" xlink:href="#dirArrow" transform="translate(30 24)" onmousedown="handlePan(0,-1)">
                  <use xlink:href="#rim" fill="#404040">
                        <set attributeName="fill" to="#808080" begin="arrowUp.mouseover" end="arrowUp.mouseout"/>
                  </use>
                  <path fill="none" stroke="white" stroke-width="1.5" d="M0,-3.0v7 M-2.5,-0.5L0,-3.0L2.5,-0.5"/>
                </g>
                <g id="arrowRight" xlink:href="#dirArrow" transform="rotate(90) translate(36 -43)" onmousedown="handlePan(1,0)">
                  <use xlink:href="#rim" fill="#404040">
                        <set attributeName="fill" to="#808080" begin="arrowRight.mouseover" end="arrowRight.mouseout"/>
                  </use>
                  <path fill="none" stroke="white" stroke-width="1.5" d="M0,-3.0v7 M-2.5,-0.5L0,-3.0L2.5,-0.5"/>
                </g>
                <g id="arrowDown" xlink:href="#dirArrow" transform="rotate(180) translate(-30 -48)" onmousedown="handlePan(0,1)">
                  <use xlink:href="#rim" fill="#404040">
                        <set attributeName="fill" to="#808080" begin="arrowDown.mouseover" end="arrowDown.mouseout"/>
                  </use>
                  <path fill="none" stroke="white" stroke-width="1.5" d="M0,-3.0v7 M-2.5,-0.5L0,-3.0L2.5,-0.5"/>
                </g>
                <g id="arrowLeft" xlink:href="#dirArrow" transform="rotate(270) translate(-36 17)" onmousedown="handlePan(-1,0)">
                  <use xlink:href="#rim" fill="#404040">
                        <set attributeName="fill" to="#808080" begin="arrowLeft.mouseover" end="arrowLeft.mouseout"/>
                  </use>
                  <path fill="none" stroke="white" stroke-width="1.5" d="M0,-3.0v7 M-2.5,-0.5L0,-3.0L2.5,-0.5"/>
                </g>
        </g>
</svg>
