<?xml version="1.0" encoding="UTF-8" standalone="no"?>
<!DOCTYPE svg PUBLIC "-//W3C//DTD SVG 1.1//EN"
 "http://www.w3.org/Graphics/SVG/1.1/DTD/svg11.dtd">
<!-- Generated by graphviz version 2.26.3 (20100126.1600)
 -->
<!-- Title: G Pages: 1 -->
<svg width="396pt" height="70pt"
 viewBox="0.00 0.00 396.00 70.00" xmlns="http://www.w3.org/2000/svg" xmlns:xlink="http://www.w3.org/1999/xlink">
<g id="graph1" class="graph" transform="scale(1 1) rotate(0) translate(4 66)">
<title>G</title>
<polygon fill="white" stroke="white" points="-4,5 -4,-66 393,-66 393,5 -4,5"/>
<!-- Node1 -->
<g id="node1" class="node"><title>Node1</title>
<polygon fill="#bfbfbf" stroke="black" points="0,-20.5 0,-41.5 242,-41.5 242,-20.5 0,-20.5"/>
<text text-anchor="middle" x="121" y="-28.5" font-family="Helvetica,sans-Serif" font-size="10.00">CameraManager::SwitchBehaviorOnVehicleChange</text>
</g>
<!-- Node2 -->
<g id="node3" class="node"><title>Node2</title>
<a xlink:href="class_i_behavior.html#a3d874d52e67bb562c26bf7d99ea5d62d" target="_top" xlink:title="IBehavior::deactivate">
<polygon fill="white" stroke="black" points="278.5,-40.5 278.5,-61.5 387.5,-61.5 387.5,-40.5 278.5,-40.5"/>
<text text-anchor="middle" x="333" y="-48.5" font-family="Helvetica,sans-Serif" font-size="10.00">IBehavior::deactivate</text>
</a>
</g>
<!-- Node1&#45;&gt;Node2 -->
<g id="edge2" class="edge"><title>Node1&#45;&gt;Node2</title>
<path fill="none" stroke="midnightblue" d="M232.588,-41.5271C244.731,-42.6727 256.776,-43.8091 268.084,-44.8758"/>
<polygon fill="midnightblue" stroke="midnightblue" points="267.958,-48.3794 278.242,-45.8342 268.615,-41.4103 267.958,-48.3794"/>
</g>
<!-- Node3 -->
<g id="node5" class="node"><title>Node3</title>
<a xlink:href="class_i_behavior.html#a841cc14c0cf10b3434efd66a60d0807a" target="_top" xlink:title="IBehavior::activate">
<polygon fill="white" stroke="black" points="284,-0.5 284,-21.5 382,-21.5 382,-0.5 284,-0.5"/>
<text text-anchor="middle" x="333" y="-8.5" font-family="Helvetica,sans-Serif" font-size="10.00">IBehavior::activate</text>
</a>
</g>
<!-- Node1&#45;&gt;Node3 -->
<g id="edge4" class="edge"><title>Node1&#45;&gt;Node3</title>
<path fill="none" stroke="midnightblue" d="M232.588,-20.4729C246.834,-19.1288 260.946,-17.7975 273.89,-16.5765"/>
<polygon fill="midnightblue" stroke="midnightblue" points="274.373,-20.0465 284,-15.6226 273.715,-13.0774 274.373,-20.0465"/>
</g>
</g>
</svg>
