<?xml version="1.0" encoding="UTF-8" standalone="no"?>
<!DOCTYPE svg PUBLIC "-//W3C//DTD SVG 1.1//EN"
 "http://www.w3.org/Graphics/SVG/1.1/DTD/svg11.dtd">
<!-- Generated by graphviz version 2.26.3 (20100126.1600)
 -->
<!-- Title: Beam::updateTruckPosition Pages: 1 -->
<svg width="644pt" height="70pt"
 viewBox="0.00 0.00 644.00 70.00" xmlns="http://www.w3.org/2000/svg" xmlns:xlink="http://www.w3.org/1999/xlink">
<g id="graph1" class="graph" transform="scale(1 1) rotate(0) translate(4 66)">
<title>Beam::updateTruckPosition</title>
<polygon fill="white" stroke="white" points="-4,5 -4,-66 641,-66 641,5 -4,5"/>
<!-- Node1 -->
<g id="node1" class="node"><title>Node1</title>
<polygon fill="#bfbfbf" stroke="black" points="0.5,-20.5 0.5,-41.5 137.5,-41.5 137.5,-20.5 0.5,-20.5"/>
<text text-anchor="middle" x="69" y="-28.5" font-family="Helvetica,sans-Serif" font-size="10.00">Beam::updateTruckPosition</text>
</g>
<!-- Node2 -->
<g id="node3" class="node"><title>Node2</title>
<a xlink:href="class_beam.html#ac5430b47f97dc513c9e8a0a3caa00cc2" target="_top" xlink:title="Beam::frameStep">
<polygon fill="white" stroke="black" points="174.5,-20.5 174.5,-41.5 267.5,-41.5 267.5,-20.5 174.5,-20.5"/>
<text text-anchor="middle" x="221" y="-28.5" font-family="Helvetica,sans-Serif" font-size="10.00">Beam::frameStep</text>
</a>
</g>
<!-- Node1&#45;&gt;Node2 -->
<g id="edge2" class="edge"><title>Node1&#45;&gt;Node2</title>
<path fill="none" stroke="midnightblue" d="M147.966,-31C156.898,-31 165.775,-31 174.103,-31"/>
<polygon fill="midnightblue" stroke="midnightblue" points="147.884,-27.5001 137.884,-31 147.884,-34.5001 147.884,-27.5001"/>
</g>
<!-- Node3 -->
<g id="node5" class="node"><title>Node3</title>
<a xlink:href="class_beam_factory.html#a6fa954b906b6dc808a34e69ac2d018d3" target="_top" xlink:title="BeamFactory::calcPhysics">
<polygon fill="white" stroke="black" points="304,-20.5 304,-41.5 438,-41.5 438,-20.5 304,-20.5"/>
<text text-anchor="middle" x="371" y="-28.5" font-family="Helvetica,sans-Serif" font-size="10.00">BeamFactory::calcPhysics</text>
</a>
</g>
<!-- Node2&#45;&gt;Node3 -->
<g id="edge4" class="edge"><title>Node2&#45;&gt;Node3</title>
<path fill="none" stroke="midnightblue" d="M277.785,-31C286.263,-31 295.072,-31 303.742,-31"/>
<polygon fill="midnightblue" stroke="midnightblue" points="277.639,-27.5001 267.639,-31 277.639,-34.5001 277.639,-27.5001"/>
</g>
<!-- Node4 -->
<g id="node7" class="node"><title>Node4</title>
<a xlink:href="class_ro_r_frame_listener.html#acd8647e188fb8e838689492965b86faf" target="_top" xlink:title="RoRFrameListener::frameStarted">
<polygon fill="white" stroke="black" points="474.5,-40.5 474.5,-61.5 635.5,-61.5 635.5,-40.5 474.5,-40.5"/>
<text text-anchor="middle" x="555" y="-48.5" font-family="Helvetica,sans-Serif" font-size="10.00">RoRFrameListener::frameStarted</text>
</a>
</g>
<!-- Node3&#45;&gt;Node4 -->
<g id="edge6" class="edge"><title>Node3&#45;&gt;Node4</title>
<path fill="none" stroke="midnightblue" d="M448.203,-39.3916C456.8,-40.3261 465.575,-41.2799 474.216,-42.2192"/>
<polygon fill="midnightblue" stroke="midnightblue" points="448.529,-35.9065 438.209,-38.3054 447.772,-42.8655 448.529,-35.9065"/>
</g>
<!-- Node5 -->
<g id="node9" class="node"><title>Node5</title>
<a xlink:href="class_preview_renderer.html#a5ea6b4611b45965e072266211dc60ba8" target="_top" xlink:title="PreviewRenderer::render">
<polygon fill="white" stroke="black" points="492.5,-0.5 492.5,-21.5 617.5,-21.5 617.5,-0.5 492.5,-0.5"/>
<text text-anchor="middle" x="555" y="-8.5" font-family="Helvetica,sans-Serif" font-size="10.00">PreviewRenderer::render</text>
</a>
</g>
<!-- Node3&#45;&gt;Node5 -->
<g id="edge8" class="edge"><title>Node3&#45;&gt;Node5</title>
<path fill="none" stroke="midnightblue" d="M448.262,-22.602C462.927,-21.0079 478.106,-19.358 492.255,-17.8202"/>
<polygon fill="midnightblue" stroke="midnightblue" points="447.772,-19.1345 438.209,-23.6946 448.529,-26.0935 447.772,-19.1345"/>
</g>
</g>
</svg>
