<?xml version="1.0" encoding="UTF-8" standalone="no"?>
<!DOCTYPE svg PUBLIC "-//W3C//DTD SVG 1.1//EN"
 "http://www.w3.org/Graphics/SVG/1.1/DTD/svg11.dtd">
<!-- Generated by graphviz version 2.26.3 (20100126.1600)
 -->
<!-- Title: OverlayWrapper::HideDirectionOverlay Pages: 1 -->
<!--zoomable 163 -->
<svg id="main" version="1.1" xmlns="http://www.w3.org/2000/svg" xmlns:xlink="http://www.w3.org/1999/xlink" xml:space="preserve" onload="init(evt)">
<style type="text/css"><![CDATA[
.edge:hover path { stroke: red; }
.edge:hover polygon { stroke: red; fill: red; }
]]></style>
<script type="text/javascript"><![CDATA[
var edges = document.getElementsByTagName('g');
if (edges && edges.length) {
  for (var i=0;i<edges.length;i++) {
    if (edges[i].id.substr(0,4)=='edge') {
      edges[i].setAttribute('class','edge');
    }
  }
}
]]></script>
        <defs>
                <circle id="rim" cx="0" cy="0" r="7"/>
                <circle id="rim2" cx="0" cy="0" r="3.5"/>
                <g id="zoomPlus">
                        <use xlink:href="#rim" fill="#404040">
                                <set attributeName="fill" to="#808080" begin="zoomplus.mouseover" end="zoomplus.mouseout"/>
                        </use>
                        <path d="M-4,0h8M0,-4v8" fill="none" stroke="white" stroke-width="1.5" pointer-events="none"/>
                </g>
                <g id="zoomMin">
                        <use xlink:href="#rim" fill="#404040">
                                <set attributeName="fill" to="#808080" begin="zoomminus.mouseover" end="zoomminus.mouseout"/>
                        </use>
                        <path d="M-4,0h8" fill="none" stroke="white" stroke-width="1.5" pointer-events="none"/>
                </g>
                <g id="dirArrow">
                        <path fill="none" stroke="white" stroke-width="1.5" d="M0,-3.0v7 M-2.5,-0.5L0,-3.0L2.5,-0.5"/>
                </g>
               <g id="resetDef">
                       <use xlink:href="#rim2" fill="#404040">
                               <set attributeName="fill" to="#808080" begin="reset.mouseover" end="reset.mouseout"/>
                       </use>
               </g>
        </defs>

<script type="text/javascript">
var viewWidth = 874;
var viewHeight = 163;
var sectionId = 'dynsection-3';
</script>
<script xlink:href="svgpan.js"/>
<svg id="graph" class="graph">
<g id="viewport">
<title>OverlayWrapper::HideDirectionOverlay</title>
<polygon fill="white" stroke="white" points="-4,5 -4,-159 871,-159 871,5 -4,5"/>
<!-- Node1 -->
<g id="node1" class="node"><title>Node1</title>
<polygon fill="#bfbfbf" stroke="black" points="0,-46 0,-80 152,-80 152,-46 0,-46"/>
<text text-anchor="start" x="8" y="-67" font-family="Helvetica,sans-Serif" font-size="10.00">OverlayWrapper::HideDirection</text>
<text text-anchor="middle" x="76" y="-54" font-family="Helvetica,sans-Serif" font-size="10.00">Overlay</text>
</g>
<!-- Node2 -->
<g id="node3" class="node"><title>Node2</title>
<a xlink:href="class_ro_r_frame_listener.html#aeb797acb04a6e1b17e9b9a76eb2eb89f" target="_top" xlink:title="RoRFrameListener::setDirection\lArrow">
<polygon fill="white" stroke="black" points="190,-69 190,-103 348,-103 348,-69 190,-69"/>
<text text-anchor="start" x="198" y="-90" font-family="Helvetica,sans-Serif" font-size="10.00">RoRFrameListener::setDirection</text>
<text text-anchor="middle" x="269" y="-77" font-family="Helvetica,sans-Serif" font-size="10.00">Arrow</text>
</a>
</g>
<!-- Node1&#45;&gt;Node2 -->
<g id="edge2" class="edge"><title>Node1&#45;&gt;Node2</title>
<path fill="none" stroke="midnightblue" d="M162.005,-73.2493C171.287,-74.3554 180.699,-75.4771 189.894,-76.5728"/>
<polygon fill="midnightblue" stroke="midnightblue" points="162.346,-69.7652 152.002,-72.0572 161.517,-76.716 162.346,-69.7652"/>
</g>
<!-- Node5 -->
<g id="node9" class="node"><title>Node5</title>
<a xlink:href="class_ro_r_1_1_main_thread.html#a19637f726d0913e26e0d0548448d8c91" target="_top" xlink:title="RoR::MainThread::UnloadTerrain">
<polygon fill="white" stroke="black" points="188.5,-29.5 188.5,-50.5 349.5,-50.5 349.5,-29.5 188.5,-29.5"/>
<text text-anchor="middle" x="269" y="-37.5" font-family="Helvetica,sans-Serif" font-size="10.00">RoR::MainThread::UnloadTerrain</text>
</a>
</g>
<!-- Node1&#45;&gt;Node5 -->
<g id="edge8" class="edge"><title>Node1&#45;&gt;Node5</title>
<path fill="none" stroke="midnightblue" d="M162.146,-52.7339C170.846,-51.6971 179.66,-50.6468 188.3,-49.6171"/>
<polygon fill="midnightblue" stroke="midnightblue" points="161.517,-49.284 152.002,-53.9428 162.346,-56.2348 161.517,-49.284"/>
</g>
<!-- Node3 -->
<g id="node5" class="node"><title>Node3</title>
<a xlink:href="class_game_script.html#ae54cf00c2a516f4dd893d3ec582b7a27" target="_top" xlink:title="GameScript::setDirection\lArrow">
<polygon fill="white" stroke="black" points="388.5,-121 388.5,-155 515.5,-155 515.5,-121 388.5,-121"/>
<text text-anchor="start" x="396.5" y="-142" font-family="Helvetica,sans-Serif" font-size="10.00">GameScript::setDirection</text>
<text text-anchor="middle" x="452" y="-129" font-family="Helvetica,sans-Serif" font-size="10.00">Arrow</text>
</a>
</g>
<!-- Node2&#45;&gt;Node3 -->
<g id="edge4" class="edge"><title>Node2&#45;&gt;Node3</title>
<path fill="none" stroke="midnightblue" d="M338.554,-105.764C356.139,-110.761 374.873,-116.084 391.944,-120.935"/>
<polygon fill="midnightblue" stroke="midnightblue" points="339.497,-102.393 328.921,-103.027 337.584,-109.127 339.497,-102.393"/>
</g>
<!-- Node4 -->
<g id="node7" class="node"><title>Node4</title>
<a xlink:href="class_game_script.html#ab656935867c0cac45d7b814c8a78a1df" target="_top" xlink:title="GameScript::hideDirection\lArrow">
<polygon fill="white" stroke="black" points="386.5,-69 386.5,-103 517.5,-103 517.5,-69 386.5,-69"/>
<text text-anchor="start" x="394.5" y="-90" font-family="Helvetica,sans-Serif" font-size="10.00">GameScript::hideDirection</text>
<text text-anchor="middle" x="452" y="-77" font-family="Helvetica,sans-Serif" font-size="10.00">Arrow</text>
</a>
</g>
<!-- Node2&#45;&gt;Node4 -->
<g id="edge6" class="edge"><title>Node2&#45;&gt;Node4</title>
<path fill="none" stroke="midnightblue" d="M358.413,-86C367.851,-86 377.318,-86 386.413,-86"/>
<polygon fill="midnightblue" stroke="midnightblue" points="358.202,-82.5001 348.202,-86 358.202,-89.5001 358.202,-82.5001"/>
</g>
<!-- Node6 -->
<g id="node11" class="node"><title>Node6</title>
<a xlink:href="class_ro_r_1_1_main_thread.html#a7e4d0bd23a40e509892883af75ea0dbf" target="_top" xlink:title="RoR::MainThread::Go">
<polygon fill="white" stroke="black" points="395.5,-29.5 395.5,-50.5 508.5,-50.5 508.5,-29.5 395.5,-29.5"/>
<text text-anchor="middle" x="452" y="-37.5" font-family="Helvetica,sans-Serif" font-size="10.00">RoR::MainThread::Go</text>
</a>
</g>
<!-- Node5&#45;&gt;Node6 -->
<g id="edge10" class="edge"><title>Node5&#45;&gt;Node6</title>
<path fill="none" stroke="midnightblue" d="M359.706,-40C371.845,-40 384.003,-40 395.324,-40"/>
<polygon fill="midnightblue" stroke="midnightblue" points="359.533,-36.5001 349.533,-40 359.533,-43.5001 359.533,-36.5001"/>
</g>
<!-- Node7 -->
<g id="node13" class="node"><title>Node7</title>
<a xlink:href="main_2main__sim_2main_8cpp.html#a0ddf1224851353fc92bfbff6f499fa97" target="_top" xlink:title="main">
<polygon fill="white" stroke="black" points="604,-52.5 604,-73.5 642,-73.5 642,-52.5 604,-52.5"/>
<text text-anchor="middle" x="623" y="-60.5" font-family="Helvetica,sans-Serif" font-size="10.00">main</text>
</a>
</g>
<!-- Node6&#45;&gt;Node7 -->
<g id="edge12" class="edge"><title>Node6&#45;&gt;Node7</title>
<path fill="none" stroke="midnightblue" d="M519.119,-49.0277C549.571,-53.1236 583.289,-57.6587 603.812,-60.4192"/>
<polygon fill="midnightblue" stroke="midnightblue" points="519.318,-45.523 508.941,-47.6587 518.385,-52.4605 519.318,-45.523"/>
</g>
<!-- Node9 -->
<g id="node17" class="node"><title>Node9</title>
<a xlink:href="class_ro_r_1_1_main_thread.html#a7a2db954fd2f35d63982d8603d2b9614" target="_top" xlink:title="RoR::MainThread::Request\lRestart">
<polygon fill="white" stroke="black" points="554.5,-0 554.5,-34 691.5,-34 691.5,-0 554.5,-0"/>
<text text-anchor="start" x="562.5" y="-21" font-family="Helvetica,sans-Serif" font-size="10.00">RoR::MainThread::Request</text>
<text text-anchor="middle" x="623" y="-8" font-family="Helvetica,sans-Serif" font-size="10.00">Restart</text>
</a>
</g>
<!-- Node6&#45;&gt;Node9 -->
<g id="edge16" class="edge"><title>Node6&#45;&gt;Node9</title>
<path fill="none" stroke="midnightblue" d="M519.015,-30.9862C530.647,-29.4218 542.757,-27.7929 554.429,-26.223"/>
<polygon fill="midnightblue" stroke="midnightblue" points="518.385,-27.5395 508.941,-32.3413 519.318,-34.477 518.385,-27.5395"/>
</g>
<!-- Node8 -->
<g id="node15" class="node"><title>Node8</title>
<a xlink:href="main_2main__sim_2main_8cpp.html#a2922bc5d5c2d77a3020cfbf9df12aab0" target="_top" xlink:title="WinMain">
<polygon fill="white" stroke="black" points="769.5,-52.5 769.5,-73.5 824.5,-73.5 824.5,-52.5 769.5,-52.5"/>
<text text-anchor="middle" x="797" y="-60.5" font-family="Helvetica,sans-Serif" font-size="10.00">WinMain</text>
</a>
</g>
<!-- Node7&#45;&gt;Node8 -->
<g id="edge14" class="edge"><title>Node7&#45;&gt;Node8</title>
<path fill="none" stroke="midnightblue" d="M652.559,-63C685.23,-63 737.439,-63 769.332,-63"/>
<polygon fill="midnightblue" stroke="midnightblue" points="652.286,-59.5001 642.286,-63 652.286,-66.5001 652.286,-59.5001"/>
</g>
<!-- Node10 -->
<g id="node19" class="node"><title>Node10</title>
<a xlink:href="class_ro_r_frame_listener.html#af2779b96aa0f91920bd100bc30261402" target="_top" xlink:title="RoRFrameListener::Restart">
<polygon fill="white" stroke="black" points="728.5,-6.5 728.5,-27.5 865.5,-27.5 865.5,-6.5 728.5,-6.5"/>
<text text-anchor="middle" x="797" y="-14.5" font-family="Helvetica,sans-Serif" font-size="10.00">RoRFrameListener::Restart</text>
</a>
</g>
<!-- Node9&#45;&gt;Node10 -->
<g id="edge18" class="edge"><title>Node9&#45;&gt;Node10</title>
<path fill="none" stroke="midnightblue" d="M702.043,-17C710.856,-17 719.778,-17 728.445,-17"/>
<polygon fill="midnightblue" stroke="midnightblue" points="701.769,-13.5001 691.769,-17 701.769,-20.5001 701.769,-13.5001"/>
</g>
</g>
</svg>
        <g id="navigator" transform="translate(0 0)" fill="#404254">
                <rect fill="#f2f5e9" fill-opacity="0.5" stroke="#606060" stroke-width=".5" x="0" y="0" width="60" height="60"/>
                <use id="zoomplus" xlink:href="#zoomPlus" x="17" y="9" onmousedown="handleZoom(evt,'in')"/>
                <use id="zoomminus" xlink:href="#zoomMin" x="42" y="9" onmousedown="handleZoom(evt,'out')"/>
                <use id="reset" xlink:href="#resetDef" x="30" y="36" onmousedown="handleReset()"/>
                <g id="arrowUp" xlink:href="#dirArrow" transform="translate(30 24)" onmousedown="handlePan(0,-1)">
                  <use xlink:href="#rim" fill="#404040">
                        <set attributeName="fill" to="#808080" begin="arrowUp.mouseover" end="arrowUp.mouseout"/>
                  </use>
                  <path fill="none" stroke="white" stroke-width="1.5" d="M0,-3.0v7 M-2.5,-0.5L0,-3.0L2.5,-0.5"/>
                </g>
                <g id="arrowRight" xlink:href="#dirArrow" transform="rotate(90) translate(36 -43)" onmousedown="handlePan(1,0)">
                  <use xlink:href="#rim" fill="#404040">
                        <set attributeName="fill" to="#808080" begin="arrowRight.mouseover" end="arrowRight.mouseout"/>
                  </use>
                  <path fill="none" stroke="white" stroke-width="1.5" d="M0,-3.0v7 M-2.5,-0.5L0,-3.0L2.5,-0.5"/>
                </g>
                <g id="arrowDown" xlink:href="#dirArrow" transform="rotate(180) translate(-30 -48)" onmousedown="handlePan(0,1)">
                  <use xlink:href="#rim" fill="#404040">
                        <set attributeName="fill" to="#808080" begin="arrowDown.mouseover" end="arrowDown.mouseout"/>
                  </use>
                  <path fill="none" stroke="white" stroke-width="1.5" d="M0,-3.0v7 M-2.5,-0.5L0,-3.0L2.5,-0.5"/>
                </g>
                <g id="arrowLeft" xlink:href="#dirArrow" transform="rotate(270) translate(-36 17)" onmousedown="handlePan(-1,0)">
                  <use xlink:href="#rim" fill="#404040">
                        <set attributeName="fill" to="#808080" begin="arrowLeft.mouseover" end="arrowLeft.mouseout"/>
                  </use>
                  <path fill="none" stroke="white" stroke-width="1.5" d="M0,-3.0v7 M-2.5,-0.5L0,-3.0L2.5,-0.5"/>
                </g>
        </g>
        <svg viewBox="0 0 15 15" width="100%" height="30px" preserveAspectRatio="xMaxYMin meet">
         <g id="arrow_out" transform="scale(0.3 0.3)">
          <a xlink:href="class_overlay_wrapper_a581b30b171c031156c074e70d697ee20_icgraph_org.svg" target="_base">
           <rect id="button" ry="5" rx="5" y="6" x="6" height="38" width="38"
                fill="#f2f5e9" fill-opacity="0.5" stroke="#606060" stroke-width="1.0"/>
           <path id="arrow"
             d="M 11.500037,31.436501 C 11.940474,20.09759 22.043105,11.32322 32.158766,21.979434 L 37.068811,17.246167 C 37.068811,17.246167 37.088388,32 37.088388,32 L 22.160133,31.978069 C 22.160133,31.978069 26.997745,27.140456 26.997745,27.140456 C 18.528582,18.264221 13.291696,25.230495 11.500037,31.436501 z"
             style="fill:#404040;"/>
          </a>
         </g>
        </svg>
</svg>
