<?xml version="1.0" encoding="UTF-8" standalone="no"?>
<!DOCTYPE svg PUBLIC "-//W3C//DTD SVG 1.1//EN"
 "http://www.w3.org/Graphics/SVG/1.1/DTD/svg11.dtd">
<!-- Generated by graphviz version 2.26.3 (20100126.1600)
 -->
<!-- Title: G Pages: 1 -->
<svg width="452pt" height="70pt"
 viewBox="0.00 0.00 452.00 70.00" xmlns="http://www.w3.org/2000/svg" xmlns:xlink="http://www.w3.org/1999/xlink">
<g id="graph1" class="graph" transform="scale(1 1) rotate(0) translate(4 66)">
<title>G</title>
<polygon fill="white" stroke="white" points="-4,5 -4,-66 449,-66 449,5 -4,5"/>
<!-- Node1 -->
<g id="node1" class="node"><title>Node1</title>
<polygon fill="#bfbfbf" stroke="black" points="0,-20.5 0,-41.5 116,-41.5 116,-20.5 0,-20.5"/>
<text text-anchor="middle" x="58" y="-28.5" font-family="Helvetica,sans-Serif" font-size="10.00">Road2::computePoints</text>
</g>
<!-- Node2 -->
<g id="node3" class="node"><title>Node2</title>
<a xlink:href="class_road2.html#a9a8d8af3d830d58c09b2cea742e42832" target="_top" xlink:title="Road2::finish">
<polygon fill="white" stroke="black" points="161,-40.5 161,-61.5 235,-61.5 235,-40.5 161,-40.5"/>
<text text-anchor="middle" x="198" y="-48.5" font-family="Helvetica,sans-Serif" font-size="10.00">Road2::finish</text>
</a>
</g>
<!-- Node1&#45;&gt;Node2 -->
<g id="edge2" class="edge"><title>Node1&#45;&gt;Node2</title>
<path fill="none" stroke="midnightblue" d="M126.094,-40.7277C137.981,-42.4259 149.942,-44.1346 160.603,-45.6576"/>
<polygon fill="midnightblue" stroke="midnightblue" points="126.551,-37.2575 116.156,-39.308 125.561,-44.1872 126.551,-37.2575"/>
</g>
<!-- Node4 -->
<g id="node7" class="node"><title>Node4</title>
<a xlink:href="class_road2.html#af1ed3f3e7283f49faad7101f0908ad19" target="_top" xlink:title="Road2::addBlock">
<polygon fill="white" stroke="black" points="152,-0.5 152,-21.5 244,-21.5 244,-0.5 152,-0.5"/>
<text text-anchor="middle" x="198" y="-8.5" font-family="Helvetica,sans-Serif" font-size="10.00">Road2::addBlock</text>
</a>
</g>
<!-- Node1&#45;&gt;Node4 -->
<g id="edge6" class="edge"><title>Node1&#45;&gt;Node4</title>
<path fill="none" stroke="midnightblue" d="M126.251,-21.2498C134.891,-20.0155 143.567,-18.7762 151.751,-17.607"/>
<polygon fill="midnightblue" stroke="midnightblue" points="125.561,-17.8128 116.156,-22.692 126.551,-24.7425 125.561,-17.8128"/>
</g>
<!-- Node3 -->
<g id="node5" class="node"><title>Node3</title>
<a xlink:href="class_procedural_manager.html#a63f800c4fe54872d67b0a3e3b1361927" target="_top" xlink:title="ProceduralManager::updateObject">
<polygon fill="white" stroke="black" points="280,-20.5 280,-41.5 444,-41.5 444,-20.5 280,-20.5"/>
<text text-anchor="middle" x="362" y="-28.5" font-family="Helvetica,sans-Serif" font-size="10.00">ProceduralManager::updateObject</text>
</a>
</g>
<!-- Node2&#45;&gt;Node3 -->
<g id="edge4" class="edge"><title>Node2&#45;&gt;Node3</title>
<path fill="none" stroke="midnightblue" d="M245.264,-45.2361C256.097,-43.915 267.922,-42.4729 279.754,-41.03"/>
<polygon fill="midnightblue" stroke="midnightblue" points="244.717,-41.7768 235.214,-46.4617 245.564,-48.7253 244.717,-41.7768"/>
</g>
<!-- Node4&#45;&gt;Node3 -->
<g id="edge8" class="edge"><title>Node4&#45;&gt;Node3</title>
<path fill="none" stroke="midnightblue" d="M254.065,-17.8372C262.403,-18.854 271.14,-19.9195 279.878,-20.9851"/>
<polygon fill="midnightblue" stroke="midnightblue" points="254.47,-14.3607 244.12,-16.6243 253.622,-21.3092 254.47,-14.3607"/>
</g>
</g>
</svg>
