<?xml version="1.0" encoding="UTF-8" standalone="no"?>
<!DOCTYPE svg PUBLIC "-//W3C//DTD SVG 1.1//EN"
 "http://www.w3.org/Graphics/SVG/1.1/DTD/svg11.dtd">
<!-- Generated by graphviz version 2.26.3 (20100126.1600)
 -->
<!-- Title: G Pages: 1 -->
<!--zoomable 110 -->
<svg id="main" version="1.1" xmlns="http://www.w3.org/2000/svg" xmlns:xlink="http://www.w3.org/1999/xlink" xml:space="preserve" onload="init(evt)">
        <defs>
                <circle id="rim" cx="0" cy="0" r="7"/>
                <circle id="rim2" cx="0" cy="0" r="3.5"/>
                <g id="zoomPlus">
                        <use xlink:href="#rim" fill="#404040">
                                <set attributeName="fill" to="#808080" begin="zoomplus.mouseover" end="zoomplus.mouseout"/>
                        </use>
                        <path d="M-4,0h8M0,-4v8" fill="none" stroke="white" stroke-width="1.5" pointer-events="none"/>
                </g>
                <g id="zoomMin">
                        <use xlink:href="#rim" fill="#404040">
                                <set attributeName="fill" to="#808080" begin="zoomminus.mouseover" end="zoomminus.mouseout"/>
                        </use>
                        <path d="M-4,0h8" fill="none" stroke="white" stroke-width="1.5" pointer-events="none"/>
                </g>
                <g id="dirArrow">
                        <path fill="none" stroke="white" stroke-width="1.5" d="M0,-3.0v7 M-2.5,-0.5L0,-3.0L2.5,-0.5"/>
                </g>
               <g id="resetDef">
                       <use xlink:href="#rim2" fill="#404040">
                               <set attributeName="fill" to="#808080" begin="reset.mouseover" end="reset.mouseout"/>
                       </use>
               </g>
        </defs>

<script type="text/javascript">
var viewWidth = 568;
var viewHeight = 110;
var sectionId = 'dynsection-3';
</script>
<script xlink:href="svgpan.js"/>
<svg id="graph" class="graph">
<g id="viewport">
<title>G</title>
<polygon fill="white" stroke="white" points="-4,5 -4,-106 565,-106 565,5 -4,5"/>
<!-- Node1 -->
<g id="node1" class="node"><title>Node1</title>
<polygon fill="#bfbfbf" stroke="black" points="0.5,-40.5 0.5,-61.5 199.5,-61.5 199.5,-40.5 0.5,-40.5"/>
<text text-anchor="middle" x="100" y="-48.5" font-family="Helvetica,sans-Serif" font-size="10.00">NetworkStreamManager::addLocalStream</text>
</g>
<!-- Node2 -->
<g id="node3" class="node"><title>Node2</title>
<a xlink:href="class_character.html#ad3ae7449830cf1a9ba8c991b650ee0c2" target="_top" xlink:title="Character::sendStreamSetup">
<polygon fill="white" stroke="black" points="242.5,-80.5 242.5,-101.5 385.5,-101.5 385.5,-80.5 242.5,-80.5"/>
<text text-anchor="middle" x="314" y="-88.5" font-family="Helvetica,sans-Serif" font-size="10.00">Character::sendStreamSetup</text>
</a>
</g>
<!-- Node1&#45;&gt;Node2 -->
<g id="edge2" class="edge"><title>Node1&#45;&gt;Node2</title>
<path fill="none" stroke="midnightblue" d="M166.374,-63.4063C195.676,-68.8834 229.753,-75.2528 257.778,-80.4913"/>
<polygon fill="midnightblue" stroke="midnightblue" points="166.699,-59.9065 156.226,-61.5095 165.413,-66.7874 166.699,-59.9065"/>
</g>
<!-- Node4 -->
<g id="node7" class="node"><title>Node4</title>
<a xlink:href="class_chat_system.html#ae40cb749a8c233c6e7de1016f4cb4bdc" target="_top" xlink:title="ChatSystem::sendStreamSetup">
<polygon fill="white" stroke="black" points="236.5,-40.5 236.5,-61.5 391.5,-61.5 391.5,-40.5 236.5,-40.5"/>
<text text-anchor="middle" x="314" y="-48.5" font-family="Helvetica,sans-Serif" font-size="10.00">ChatSystem::sendStreamSetup</text>
</a>
</g>
<!-- Node1&#45;&gt;Node4 -->
<g id="edge6" class="edge"><title>Node1&#45;&gt;Node4</title>
<path fill="none" stroke="midnightblue" d="M209.911,-51C218.872,-51 227.806,-51 236.462,-51"/>
<polygon fill="midnightblue" stroke="midnightblue" points="209.795,-47.5001 199.795,-51 209.795,-54.5001 209.795,-47.5001"/>
</g>
<!-- Node6 -->
<g id="node11" class="node"><title>Node6</title>
<a xlink:href="class_beam.html#ab360c65fab0802d8bc2074d7278217da" target="_top" xlink:title="Beam::sendStreamSetup">
<polygon fill="white" stroke="black" points="251,-0.5 251,-21.5 377,-21.5 377,-0.5 251,-0.5"/>
<text text-anchor="middle" x="314" y="-8.5" font-family="Helvetica,sans-Serif" font-size="10.00">Beam::sendStreamSetup</text>
</a>
</g>
<!-- Node1&#45;&gt;Node6 -->
<g id="edge10" class="edge"><title>Node1&#45;&gt;Node6</title>
<path fill="none" stroke="midnightblue" d="M166.374,-38.5937C195.676,-33.1166 229.753,-26.7472 257.778,-21.5087"/>
<polygon fill="midnightblue" stroke="midnightblue" points="165.413,-35.2126 156.226,-40.4905 166.699,-42.0935 165.413,-35.2126"/>
</g>
<!-- Node3 -->
<g id="node5" class="node"><title>Node3</title>
<a xlink:href="class_character.html#a2b381f85738c4ede878be18925e1ce81" target="_top" xlink:title="Character::Character">
<polygon fill="white" stroke="black" points="440,-80.5 440,-101.5 548,-101.5 548,-80.5 440,-80.5"/>
<text text-anchor="middle" x="494" y="-88.5" font-family="Helvetica,sans-Serif" font-size="10.00">Character::Character</text>
</a>
</g>
<!-- Node2&#45;&gt;Node3 -->
<g id="edge4" class="edge"><title>Node2&#45;&gt;Node3</title>
<path fill="none" stroke="midnightblue" d="M395.893,-91C410.775,-91 425.955,-91 439.788,-91"/>
<polygon fill="midnightblue" stroke="midnightblue" points="395.658,-87.5001 385.658,-91 395.658,-94.5001 395.658,-87.5001"/>
</g>
<!-- Node5 -->
<g id="node9" class="node"><title>Node5</title>
<a xlink:href="class_chat_system.html#add474b3d3185ca352a7cba42df56e87f" target="_top" xlink:title="ChatSystem::ChatSystem">
<polygon fill="white" stroke="black" points="428,-40.5 428,-61.5 560,-61.5 560,-40.5 428,-40.5"/>
<text text-anchor="middle" x="494" y="-48.5" font-family="Helvetica,sans-Serif" font-size="10.00">ChatSystem::ChatSystem</text>
</a>
</g>
<!-- Node4&#45;&gt;Node5 -->
<g id="edge8" class="edge"><title>Node4&#45;&gt;Node5</title>
<path fill="none" stroke="midnightblue" d="M401.89,-51C410.647,-51 419.431,-51 427.91,-51"/>
<polygon fill="midnightblue" stroke="midnightblue" points="401.642,-47.5001 391.642,-51 401.642,-54.5001 401.642,-47.5001"/>
</g>
<!-- Node7 -->
<g id="node13" class="node"><title>Node7</title>
<a xlink:href="class_beam.html#ac3b331240d6084f4a5116f6c862b65ad" target="_top" xlink:title="Beam::Beam">
<polygon fill="white" stroke="black" points="457,-0.5 457,-21.5 531,-21.5 531,-0.5 457,-0.5"/>
<text text-anchor="middle" x="494" y="-8.5" font-family="Helvetica,sans-Serif" font-size="10.00">Beam::Beam</text>
</a>
</g>
<!-- Node6&#45;&gt;Node7 -->
<g id="edge12" class="edge"><title>Node6&#45;&gt;Node7</title>
<path fill="none" stroke="midnightblue" d="M387.34,-11C411.261,-11 436.808,-11 456.902,-11"/>
<polygon fill="midnightblue" stroke="midnightblue" points="387.208,-7.5001 377.208,-11 387.208,-14.5001 387.208,-7.5001"/>
</g>
</g>
</svg>
        <g id="navigator" transform="translate(0 0)" fill="#404254">
                <rect fill="#f2f5e9" fill-opacity="0.5" stroke="#606060" stroke-width=".5" x="0" y="0" width="60" height="60"/>
                <use id="zoomplus" xlink:href="#zoomPlus" x="17" y="9" onmousedown="handleZoom(evt,'in')"/>
                <use id="zoomminus" xlink:href="#zoomMin" x="42" y="9" onmousedown="handleZoom(evt,'out')"/>
                <use id="reset" xlink:href="#resetDef" x="30" y="36" onmousedown="handleReset()"/>
                <g id="arrowUp" xlink:href="#dirArrow" transform="translate(30 24)" onmousedown="handlePan(0,-1)">
                  <use xlink:href="#rim" fill="#404040">
                        <set attributeName="fill" to="#808080" begin="arrowUp.mouseover" end="arrowUp.mouseout"/>
                  </use>
                  <path fill="none" stroke="white" stroke-width="1.5" d="M0,-3.0v7 M-2.5,-0.5L0,-3.0L2.5,-0.5"/>
                </g>
                <g id="arrowRight" xlink:href="#dirArrow" transform="rotate(90) translate(36 -43)" onmousedown="handlePan(1,0)">
                  <use xlink:href="#rim" fill="#404040">
                        <set attributeName="fill" to="#808080" begin="arrowRight.mouseover" end="arrowRight.mouseout"/>
                  </use>
                  <path fill="none" stroke="white" stroke-width="1.5" d="M0,-3.0v7 M-2.5,-0.5L0,-3.0L2.5,-0.5"/>
                </g>
                <g id="arrowDown" xlink:href="#dirArrow" transform="rotate(180) translate(-30 -48)" onmousedown="handlePan(0,1)">
                  <use xlink:href="#rim" fill="#404040">
                        <set attributeName="fill" to="#808080" begin="arrowDown.mouseover" end="arrowDown.mouseout"/>
                  </use>
                  <path fill="none" stroke="white" stroke-width="1.5" d="M0,-3.0v7 M-2.5,-0.5L0,-3.0L2.5,-0.5"/>
                </g>
                <g id="arrowLeft" xlink:href="#dirArrow" transform="rotate(270) translate(-36 17)" onmousedown="handlePan(-1,0)">
                  <use xlink:href="#rim" fill="#404040">
                        <set attributeName="fill" to="#808080" begin="arrowLeft.mouseover" end="arrowLeft.mouseout"/>
                  </use>
                  <path fill="none" stroke="white" stroke-width="1.5" d="M0,-3.0v7 M-2.5,-0.5L0,-3.0L2.5,-0.5"/>
                </g>
        </g>
</svg>
