<?xml version="1.0" encoding="UTF-8" standalone="no"?>
<!DOCTYPE svg PUBLIC "-//W3C//DTD SVG 1.1//EN"
 "http://www.w3.org/Graphics/SVG/1.1/DTD/svg11.dtd">
<!-- Generated by graphviz version 2.26.3 (20100126.1600)
 -->
<!-- Title: G Pages: 1 -->
<svg width="196pt" height="174pt"
 viewBox="0.00 0.00 196.00 174.00" xmlns="http://www.w3.org/2000/svg" xmlns:xlink="http://www.w3.org/1999/xlink">
<g id="graph1" class="graph" transform="scale(1 1) rotate(0) translate(4 170)">
<title>G</title>
<polygon fill="white" stroke="white" points="-4,5 -4,-170 193,-170 193,5 -4,5"/>
<!-- Node1 -->
<g id="node1" class="node"><title>Node1</title>
<polygon fill="#bfbfbf" stroke="black" points="64.5,-0.5 64.5,-21.5 127.5,-21.5 127.5,-0.5 64.5,-0.5"/>
<text text-anchor="middle" x="96" y="-8.5" font-family="Helvetica,sans-Serif" font-size="10.00">Screwprop</text>
</g>
<!-- Node2 -->
<g id="node2" class="node"><title>Node2</title>
<a xlink:href="class_zeroed_memory_allocator.html" target="_top" xlink:title="ZeroedMemoryAllocator">
<polygon fill="white" stroke="black" points="0,-144.5 0,-165.5 120,-165.5 120,-144.5 0,-144.5"/>
<text text-anchor="middle" x="60" y="-152.5" font-family="Helvetica,sans-Serif" font-size="10.00">ZeroedMemoryAllocator</text>
</a>
</g>
<!-- Node2&#45;&gt;Node1 -->
<g id="edge2" class="edge"><title>Node2&#45;&gt;Node1</title>
<path fill="none" stroke="midnightblue" d="M57.0171,-133.979C55.6397,-119.688 55.0663,-100.462 59,-84 64.6798,-60.2305 79.4298,-35.4479 88.4979,-21.7435"/>
<polygon fill="midnightblue" stroke="midnightblue" points="53.5791,-134.712 58.2235,-144.234 60.5312,-133.894 53.5791,-134.712"/>
</g>
<!-- Node3 -->
<g id="node4" class="node"><title>Node3</title>
<a xlink:href="class_dust_pool.html" target="_top" xlink:title="DustPool">
<polygon fill="white" stroke="black" points="67.5,-84.5 67.5,-105.5 124.5,-105.5 124.5,-84.5 67.5,-84.5"/>
<text text-anchor="middle" x="96" y="-92.5" font-family="Helvetica,sans-Serif" font-size="10.00">DustPool</text>
</a>
</g>
<!-- Node2&#45;&gt;Node3 -->
<g id="edge6" class="edge"><title>Node2&#45;&gt;Node3</title>
<path fill="none" stroke="midnightblue" d="M71.7199,-135.467C77.671,-125.548 84.6692,-113.885 89.6196,-105.634"/>
<polygon fill="midnightblue" stroke="midnightblue" points="68.5799,-133.898 66.4361,-144.273 74.5823,-137.499 68.5799,-133.898"/>
</g>
<!-- Node3&#45;&gt;Node1 -->
<g id="edge4" class="edge"><title>Node3&#45;&gt;Node1</title>
<path fill="none" stroke="#9a32cd" stroke-dasharray="5,2" d="M96,-73.9452C96,-57.2568 96,-34.6387 96,-21.5523"/>
<polygon fill="#9a32cd" stroke="#9a32cd" points="92.5001,-74.3613 96,-84.3613 99.5001,-74.3614 92.5001,-74.3613"/>
<text text-anchor="middle" x="113" y="-57" font-family="Helvetica,sans-Serif" font-size="10.00"> ripplep</text>
<text text-anchor="middle" x="113" y="-44" font-family="Helvetica,sans-Serif" font-size="10.00">splashp</text>
</g>
<!-- Node4 -->
<g id="node7" class="node"><title>Node4</title>
<a xlink:href="structnode__t.html" target="_top" xlink:title="node_t">
<polygon fill="white" stroke="black" points="142,-84.5 142,-105.5 188,-105.5 188,-84.5 142,-84.5"/>
<text text-anchor="middle" x="165" y="-92.5" font-family="Helvetica,sans-Serif" font-size="10.00">node_t</text>
</a>
</g>
<!-- Node4&#45;&gt;Node1 -->
<g id="edge8" class="edge"><title>Node4&#45;&gt;Node1</title>
<path fill="none" stroke="#9a32cd" stroke-dasharray="5,2" d="M156.291,-75.2017C150.85,-64.1393 143.145,-50.509 134,-40 127.899,-32.9882 119.862,-26.561 112.752,-21.5489"/>
<polygon fill="#9a32cd" stroke="#9a32cd" points="153.222,-76.9 160.628,-84.4758 159.563,-73.9347 153.222,-76.9"/>
<text text-anchor="middle" x="166" y="-50.5" font-family="Helvetica,sans-Serif" font-size="10.00"> nodes</text>
</g>
</g>
</svg>
