<?xml version="1.0" encoding="UTF-8" standalone="no"?>
<!DOCTYPE svg PUBLIC "-//W3C//DTD SVG 1.1//EN"
 "http://www.w3.org/Graphics/SVG/1.1/DTD/svg11.dtd">
<!-- Generated by graphviz version 2.26.3 (20100126.1600)
 -->
<!-- Title: LanguageEngine::setupCodeRanges Pages: 1 -->
<svg width="804pt" height="82pt"
 viewBox="0.00 0.00 804.00 82.00" xmlns="http://www.w3.org/2000/svg" xmlns:xlink="http://www.w3.org/1999/xlink">
<g id="graph1" class="graph" transform="scale(1 1) rotate(0) translate(4 78)">
<title>LanguageEngine::setupCodeRanges</title>
<polygon fill="white" stroke="white" points="-4,5 -4,-78 801,-78 801,5 -4,5"/>
<!-- Node1 -->
<g id="node1" class="node"><title>Node1</title>
<polygon fill="#bfbfbf" stroke="black" points="0,-23 0,-57 142,-57 142,-23 0,-23"/>
<text text-anchor="start" x="8" y="-44" font-family="Helvetica,sans-Serif" font-size="10.00">LanguageEngine::setupCode</text>
<text text-anchor="middle" x="71" y="-31" font-family="Helvetica,sans-Serif" font-size="10.00">Ranges</text>
</g>
<!-- Node2 -->
<g id="node3" class="node"><title>Node2</title>
<a xlink:href="class_language_engine.html#a76cb37a44a39216fd83ab38285eacf94" target="_top" xlink:title="LanguageEngine::setup">
<polygon fill="white" stroke="black" points="178.5,-29.5 178.5,-50.5 297.5,-50.5 297.5,-29.5 178.5,-29.5"/>
<text text-anchor="middle" x="238" y="-37.5" font-family="Helvetica,sans-Serif" font-size="10.00">LanguageEngine::setup</text>
</a>
</g>
<!-- Node1&#45;&gt;Node2 -->
<g id="edge2" class="edge"><title>Node1&#45;&gt;Node2</title>
<path fill="none" stroke="midnightblue" d="M152.54,-40C161.287,-40 170.062,-40 178.483,-40"/>
<polygon fill="midnightblue" stroke="midnightblue" points="152.307,-36.5001 142.307,-40 152.307,-43.5001 152.307,-36.5001"/>
</g>
<!-- Node3 -->
<g id="node5" class="node"><title>Node3</title>
<a xlink:href="class_ro_r_1_1_main_thread.html#a7e4d0bd23a40e509892883af75ea0dbf" target="_top" xlink:title="RoR::MainThread::Go">
<polygon fill="white" stroke="black" points="334.5,-29.5 334.5,-50.5 447.5,-50.5 447.5,-29.5 334.5,-29.5"/>
<text text-anchor="middle" x="391" y="-37.5" font-family="Helvetica,sans-Serif" font-size="10.00">RoR::MainThread::Go</text>
</a>
</g>
<!-- Node2&#45;&gt;Node3 -->
<g id="edge4" class="edge"><title>Node2&#45;&gt;Node3</title>
<path fill="none" stroke="midnightblue" d="M307.61,-40C316.554,-40 325.624,-40 334.327,-40"/>
<polygon fill="midnightblue" stroke="midnightblue" points="307.592,-36.5001 297.592,-40 307.592,-43.5001 307.592,-36.5001"/>
</g>
<!-- Node4 -->
<g id="node7" class="node"><title>Node4</title>
<a xlink:href="main_2main__sim_2main_8cpp.html#a0ddf1224851353fc92bfbff6f499fa97" target="_top" xlink:title="main">
<polygon fill="white" stroke="black" points="534,-52.5 534,-73.5 572,-73.5 572,-52.5 534,-52.5"/>
<text text-anchor="middle" x="553" y="-60.5" font-family="Helvetica,sans-Serif" font-size="10.00">main</text>
</a>
</g>
<!-- Node3&#45;&gt;Node4 -->
<g id="edge6" class="edge"><title>Node3&#45;&gt;Node4</title>
<path fill="none" stroke="midnightblue" d="M457.692,-49.4687C485.272,-53.3843 515.136,-57.6243 533.945,-60.2947"/>
<polygon fill="midnightblue" stroke="midnightblue" points="458.052,-45.9848 447.66,-48.0443 457.068,-52.9153 458.052,-45.9848"/>
</g>
<!-- Node6 -->
<g id="node11" class="node"><title>Node6</title>
<a xlink:href="class_ro_r_1_1_main_thread.html#a7a2db954fd2f35d63982d8603d2b9614" target="_top" xlink:title="RoR::MainThread::Request\lRestart">
<polygon fill="white" stroke="black" points="484.5,-0 484.5,-34 621.5,-34 621.5,-0 484.5,-0"/>
<text text-anchor="start" x="492.5" y="-21" font-family="Helvetica,sans-Serif" font-size="10.00">RoR::MainThread::Request</text>
<text text-anchor="middle" x="553" y="-8" font-family="Helvetica,sans-Serif" font-size="10.00">Restart</text>
</a>
</g>
<!-- Node3&#45;&gt;Node6 -->
<g id="edge10" class="edge"><title>Node3&#45;&gt;Node6</title>
<path fill="none" stroke="midnightblue" d="M457.824,-30.5126C466.595,-29.2674 475.594,-27.9898 484.393,-26.7405"/>
<polygon fill="midnightblue" stroke="midnightblue" points="457.068,-27.0847 447.66,-31.9557 458.052,-34.0152 457.068,-27.0847"/>
</g>
<!-- Node5 -->
<g id="node9" class="node"><title>Node5</title>
<a xlink:href="main_2main__sim_2main_8cpp.html#a2922bc5d5c2d77a3020cfbf9df12aab0" target="_top" xlink:title="WinMain">
<polygon fill="white" stroke="black" points="699.5,-52.5 699.5,-73.5 754.5,-73.5 754.5,-52.5 699.5,-52.5"/>
<text text-anchor="middle" x="727" y="-60.5" font-family="Helvetica,sans-Serif" font-size="10.00">WinMain</text>
</a>
</g>
<!-- Node4&#45;&gt;Node5 -->
<g id="edge8" class="edge"><title>Node4&#45;&gt;Node5</title>
<path fill="none" stroke="midnightblue" d="M582.559,-63C615.23,-63 667.439,-63 699.332,-63"/>
<polygon fill="midnightblue" stroke="midnightblue" points="582.286,-59.5001 572.286,-63 582.286,-66.5001 582.286,-59.5001"/>
</g>
<!-- Node7 -->
<g id="node13" class="node"><title>Node7</title>
<a xlink:href="class_ro_r_frame_listener.html#af2779b96aa0f91920bd100bc30261402" target="_top" xlink:title="RoRFrameListener::Restart">
<polygon fill="white" stroke="black" points="658.5,-6.5 658.5,-27.5 795.5,-27.5 795.5,-6.5 658.5,-6.5"/>
<text text-anchor="middle" x="727" y="-14.5" font-family="Helvetica,sans-Serif" font-size="10.00">RoRFrameListener::Restart</text>
</a>
</g>
<!-- Node6&#45;&gt;Node7 -->
<g id="edge12" class="edge"><title>Node6&#45;&gt;Node7</title>
<path fill="none" stroke="midnightblue" d="M632.043,-17C640.856,-17 649.778,-17 658.445,-17"/>
<polygon fill="midnightblue" stroke="midnightblue" points="631.769,-13.5001 621.769,-17 631.769,-20.5001 631.769,-13.5001"/>
</g>
</g>
</svg>
