<?xml version="1.0" encoding="UTF-8" standalone="no"?>
<!DOCTYPE svg PUBLIC "-//W3C//DTD SVG 1.1//EN"
 "http://www.w3.org/Graphics/SVG/1.1/DTD/svg11.dtd">
<!-- Generated by graphviz version 2.26.3 (20100126.1600)
 -->
<!-- Title: RoR::GUI::MultiplayerSelector Pages: 1 -->
<svg width="158pt" height="160pt"
 viewBox="0.00 0.00 158.00 160.00" xmlns="http://www.w3.org/2000/svg" xmlns:xlink="http://www.w3.org/1999/xlink">
<g id="graph1" class="graph" transform="scale(1 1) rotate(0) translate(4 156)">
<title>RoR::GUI::MultiplayerSelector</title>
<polygon fill="white" stroke="white" points="-4,5 -4,-156 155,-156 155,5 -4,5"/>
<!-- Node1 -->
<g id="node1" class="node"><title>Node1</title>
<polygon fill="#bfbfbf" stroke="black" points="0,-0.5 0,-21.5 150,-21.5 150,-0.5 0,-0.5"/>
<text text-anchor="middle" x="75" y="-8.5" font-family="Helvetica,sans-Serif" font-size="10.00">RoR::GUI::MultiplayerSelector</text>
</g>
<!-- Node2 -->
<g id="node2" class="node"><title>Node2</title>
<a xlink:href="class_ro_r_1_1_g_u_i_1_1_multiplayer_selector_layout.html" target="_top" xlink:title="RoR::GUI::MultiplayerSelector\lLayout">
<polygon fill="white" stroke="black" points="0,-59 0,-93 150,-93 150,-59 0,-59"/>
<text text-anchor="start" x="8" y="-80" font-family="Helvetica,sans-Serif" font-size="10.00">RoR::GUI::MultiplayerSelector</text>
<text text-anchor="middle" x="75" y="-67" font-family="Helvetica,sans-Serif" font-size="10.00">Layout</text>
</a>
</g>
<!-- Node2&#45;&gt;Node1 -->
<g id="edge2" class="edge"><title>Node2&#45;&gt;Node1</title>
<path fill="none" stroke="midnightblue" d="M75,-48.6879C75,-39.2415 75,-29.1949 75,-21.8521"/>
<polygon fill="midnightblue" stroke="midnightblue" points="71.5001,-48.922 75,-58.922 78.5001,-48.922 71.5001,-48.922"/>
</g>
<!-- Node3 -->
<g id="node4" class="node"><title>Node3</title>
<a xlink:href="classwraps_1_1_base_layout.html" target="_top" xlink:title="wraps::BaseLayout">
<polygon fill="white" stroke="black" points="24.5,-130.5 24.5,-151.5 125.5,-151.5 125.5,-130.5 24.5,-130.5"/>
<text text-anchor="middle" x="75" y="-138.5" font-family="Helvetica,sans-Serif" font-size="10.00">wraps::BaseLayout</text>
</a>
</g>
<!-- Node3&#45;&gt;Node2 -->
<g id="edge4" class="edge"><title>Node3&#45;&gt;Node2</title>
<path fill="none" stroke="midnightblue" d="M75,-120.131C75,-111.405 75,-101.391 75,-93.1099"/>
<polygon fill="midnightblue" stroke="midnightblue" points="71.5001,-120.267 75,-130.267 78.5001,-120.267 71.5001,-120.267"/>
</g>
</g>
</svg>
