<?xml version="1.0" encoding="UTF-8" standalone="no"?>
<!DOCTYPE svg PUBLIC "-//W3C//DTD SVG 1.1//EN"
 "http://www.w3.org/Graphics/SVG/1.1/DTD/svg11.dtd">
<!-- Generated by graphviz version 2.26.3 (20100126.1600)
 -->
<!-- Title: CameraBehaviorVehicle::activate Pages: 1 -->
<svg width="690pt" height="172pt"
 viewBox="0.00 0.00 690.00 172.00" xmlns="http://www.w3.org/2000/svg" xmlns:xlink="http://www.w3.org/1999/xlink">
<g id="graph1" class="graph" transform="scale(1 1) rotate(0) translate(4 168)">
<title>CameraBehaviorVehicle::activate</title>
<polygon fill="white" stroke="white" points="-4,5 -4,-168 687,-168 687,5 -4,5"/>
<!-- Node1 -->
<g id="node1" class="node"><title>Node1</title>
<polygon fill="#bfbfbf" stroke="black" points="0,-85 0,-119 122,-119 122,-85 0,-85"/>
<text text-anchor="start" x="8" y="-106" font-family="Helvetica,sans-Serif" font-size="10.00">CameraBehaviorVehicle</text>
<text text-anchor="middle" x="61" y="-93" font-family="Helvetica,sans-Serif" font-size="10.00">::activate</text>
</g>
<!-- Node2 -->
<g id="node3" class="node"><title>Node2</title>
<a xlink:href="class_camera_manager.html#acc8ca4bea6750e8ce6ce1f3710a0ce78" target="_top" xlink:title="CameraManager::switchToNext\lBehavior">
<polygon fill="white" stroke="black" points="158.5,-130 158.5,-164 313.5,-164 313.5,-130 158.5,-130"/>
<text text-anchor="start" x="166.5" y="-151" font-family="Helvetica,sans-Serif" font-size="10.00">CameraManager::switchToNext</text>
<text text-anchor="middle" x="236" y="-138" font-family="Helvetica,sans-Serif" font-size="10.00">Behavior</text>
</a>
</g>
<!-- Node1&#45;&gt;Node2 -->
<g id="edge2" class="edge"><title>Node1&#45;&gt;Node2</title>
<path fill="none" stroke="midnightblue" d="M122.207,-117.739C134.339,-120.859 147.215,-124.17 159.776,-127.4"/>
<polygon fill="midnightblue" stroke="midnightblue" points="159.205,-130.867 169.762,-129.967 160.949,-124.087 159.205,-130.867"/>
</g>
<!-- Node4 -->
<g id="node7" class="node"><title>Node4</title>
<a xlink:href="class_beam.html#a39d38800d5ab3b85b305d94b2c8ea502" target="_top" xlink:title="Beam::GetCameraContext">
<polygon fill="white" stroke="black" points="548.5,-112.5 548.5,-133.5 681.5,-133.5 681.5,-112.5 548.5,-112.5"/>
<text text-anchor="middle" x="615" y="-120.5" font-family="Helvetica,sans-Serif" font-size="10.00">Beam::GetCameraContext</text>
</a>
</g>
<!-- Node1&#45;&gt;Node4 -->
<g id="edge14" class="edge"><title>Node1&#45;&gt;Node4</title>
<path fill="none" stroke="midnightblue" d="M122.138,-104.318C223.651,-108.165 426.782,-115.865 537.946,-120.079"/>
<polygon fill="midnightblue" stroke="midnightblue" points="537.957,-123.582 548.082,-120.463 538.222,-116.587 537.957,-123.582"/>
</g>
<!-- Node5 -->
<g id="node9" class="node"><title>Node5</title>
<a xlink:href="class_camera_behavior_vehicle.html#ae7d045ecadf875c717d7318980228b57" target="_top" xlink:title="CameraBehaviorVehicle\l::reset">
<polygon fill="white" stroke="black" points="175,-40 175,-74 297,-74 297,-40 175,-40"/>
<text text-anchor="start" x="183" y="-61" font-family="Helvetica,sans-Serif" font-size="10.00">CameraBehaviorVehicle</text>
<text text-anchor="middle" x="236" y="-48" font-family="Helvetica,sans-Serif" font-size="10.00">::reset</text>
</a>
</g>
<!-- Node1&#45;&gt;Node5 -->
<g id="edge8" class="edge"><title>Node1&#45;&gt;Node5</title>
<path fill="none" stroke="midnightblue" d="M122.207,-86.2612C136.061,-82.6986 150.885,-78.8867 165.102,-75.2309"/>
<polygon fill="midnightblue" stroke="midnightblue" points="166.015,-78.6101 174.828,-72.7299 164.271,-71.8307 166.015,-78.6101"/>
</g>
<!-- Node3 -->
<g id="node5" class="node"><title>Node3</title>
<a xlink:href="class_camera_manager.html#a6f50a61b22fd1193ec25c5c2dc8f3ae3" target="_top" xlink:title="CameraManager::switchBehavior">
<polygon fill="white" stroke="black" points="350.5,-133.5 350.5,-154.5 511.5,-154.5 511.5,-133.5 350.5,-133.5"/>
<text text-anchor="middle" x="431" y="-141.5" font-family="Helvetica,sans-Serif" font-size="10.00">CameraManager::switchBehavior</text>
</a>
</g>
<!-- Node2&#45;&gt;Node3 -->
<g id="edge4" class="edge"><title>Node2&#45;&gt;Node3</title>
<path fill="none" stroke="midnightblue" d="M313.629,-145.806C322.427,-145.67 331.449,-145.532 340.394,-145.394"/>
<polygon fill="midnightblue" stroke="midnightblue" points="340.499,-148.893 350.444,-145.239 340.391,-141.894 340.499,-148.893"/>
</g>
<!-- Node3&#45;&gt;Node4 -->
<g id="edge6" class="edge"><title>Node3&#45;&gt;Node4</title>
<path fill="none" stroke="midnightblue" d="M511.705,-134.789C520.519,-133.783 529.474,-132.761 538.238,-131.761"/>
<polygon fill="midnightblue" stroke="midnightblue" points="538.882,-135.21 548.42,-130.599 538.088,-128.255 538.882,-135.21"/>
</g>
<!-- Node6 -->
<g id="node11" class="node"><title>Node6</title>
<a xlink:href="class_camera_behavior_orbit.html#ac2c38d7776bb50ffb4a0d267c11acb2c" target="_top" xlink:title="CameraBehaviorOrbit\l::reset">
<polygon fill="white" stroke="black" points="376,-40 376,-74 486,-74 486,-40 376,-40"/>
<text text-anchor="start" x="384" y="-61" font-family="Helvetica,sans-Serif" font-size="10.00">CameraBehaviorOrbit</text>
<text text-anchor="middle" x="431" y="-48" font-family="Helvetica,sans-Serif" font-size="10.00">::reset</text>
</a>
</g>
<!-- Node5&#45;&gt;Node6 -->
<g id="edge10" class="edge"><title>Node5&#45;&gt;Node6</title>
<path fill="none" stroke="midnightblue" d="M297.164,-57C318.859,-57 343.355,-57 365.405,-57"/>
<polygon fill="midnightblue" stroke="midnightblue" points="365.676,-60.5001 375.676,-57 365.676,-53.5001 365.676,-60.5001"/>
</g>
<!-- Node7 -->
<g id="node13" class="node"><title>Node7</title>
<a xlink:href="class_beam.html#a304819ff3ad7dafc09f7f64e0c908d2e" target="_top" xlink:title="Beam::getMinimalCameraRadius">
<polygon fill="white" stroke="black" points="350.5,-0.5 350.5,-21.5 511.5,-21.5 511.5,-0.5 350.5,-0.5"/>
<text text-anchor="middle" x="431" y="-8.5" font-family="Helvetica,sans-Serif" font-size="10.00">Beam::getMinimalCameraRadius</text>
</a>
</g>
<!-- Node5&#45;&gt;Node7 -->
<g id="edge12" class="edge"><title>Node5&#45;&gt;Node7</title>
<path fill="none" stroke="midnightblue" d="M297.164,-42.5715C322.59,-36.5737 351.862,-29.6684 376.535,-23.8481"/>
<polygon fill="midnightblue" stroke="midnightblue" points="377.52,-27.2119 386.449,-21.5094 375.913,-20.3989 377.52,-27.2119"/>
</g>
</g>
</svg>
