<?xml version="1.0" encoding="UTF-8" standalone="no"?>
<!DOCTYPE svg PUBLIC "-//W3C//DTD SVG 1.1//EN"
 "http://www.w3.org/Graphics/SVG/1.1/DTD/svg11.dtd">
<!-- Generated by graphviz version 2.26.3 (20100126.1600)
 -->
<!-- Title: SlideNode::getLenTo Pages: 1 -->
<svg width="414pt" height="30pt"
 viewBox="0.00 0.00 414.00 30.00" xmlns="http://www.w3.org/2000/svg" xmlns:xlink="http://www.w3.org/1999/xlink">
<g id="graph1" class="graph" transform="scale(1 1) rotate(0) translate(4 26)">
<title>SlideNode::getLenTo</title>
<polygon fill="white" stroke="white" points="-4,5 -4,-26 411,-26 411,5 -4,5"/>
<!-- Node1 -->
<g id="node1" class="node"><title>Node1</title>
<polygon fill="#bfbfbf" stroke="black" points="0,-0.5 0,-21.5 108,-21.5 108,-0.5 0,-0.5"/>
<text text-anchor="middle" x="54" y="-8.5" font-family="Helvetica,sans-Serif" font-size="10.00">SlideNode::getLenTo</text>
</g>
<!-- Node2 -->
<g id="node3" class="node"><title>Node2</title>
<a xlink:href="class_slide_node.html#ac5fd218cba138435059c5aec3ce59393" target="_top" xlink:title="SlideNode::getLenTo">
<polygon fill="white" stroke="black" points="144,-0.5 144,-21.5 252,-21.5 252,-0.5 144,-0.5"/>
<text text-anchor="middle" x="198" y="-8.5" font-family="Helvetica,sans-Serif" font-size="10.00">SlideNode::getLenTo</text>
</a>
</g>
<!-- Node1&#45;&gt;Node2 -->
<g id="edge2" class="edge"><title>Node1&#45;&gt;Node2</title>
<path fill="none" stroke="midnightblue" d="M108.03,-11C116.314,-11 124.936,-11 133.42,-11"/>
<polygon fill="midnightblue" stroke="midnightblue" points="133.667,-14.5001 143.667,-11 133.667,-7.5001 133.667,-14.5001"/>
</g>
<!-- Node3 -->
<g id="node5" class="node"><title>Node3</title>
<a xlink:href="class_rail_group.html#a6efe9a33efe24279e5bfc08f1b54ee40" target="_top" xlink:title="RailGroup::getStartRail">
<polygon fill="white" stroke="black" points="288,-0.5 288,-21.5 406,-21.5 406,-0.5 288,-0.5"/>
<text text-anchor="middle" x="347" y="-8.5" font-family="Helvetica,sans-Serif" font-size="10.00">RailGroup::getStartRail</text>
</a>
</g>
<!-- Node2&#45;&gt;Node3 -->
<g id="edge4" class="edge"><title>Node2&#45;&gt;Node3</title>
<path fill="none" stroke="midnightblue" d="M252.214,-11C260.527,-11 269.205,-11 277.789,-11"/>
<polygon fill="midnightblue" stroke="midnightblue" points="277.794,-14.5001 287.794,-11 277.794,-7.5001 277.794,-14.5001"/>
</g>
</g>
</svg>
