<?xml version="1.0" encoding="UTF-8" standalone="no"?>
<!DOCTYPE svg PUBLIC "-//W3C//DTD SVG 1.1//EN"
 "http://www.w3.org/Graphics/SVG/1.1/DTD/svg11.dtd">
<!-- Generated by graphviz version 2.26.3 (20100126.1600)
 -->
<!-- Title: CacheSystem::checkForNewZipsInResourceGroup Pages: 1 -->
<!--zoomable 95 -->
<svg id="main" version="1.1" xmlns="http://www.w3.org/2000/svg" xmlns:xlink="http://www.w3.org/1999/xlink" xml:space="preserve" onload="init(evt)">
<style type="text/css"><![CDATA[
.edge:hover path { stroke: red; }
.edge:hover polygon { stroke: red; fill: red; }
]]></style>
<script type="text/javascript"><![CDATA[
var edges = document.getElementsByTagName('g');
if (edges && edges.length) {
  for (var i=0;i<edges.length;i++) {
    if (edges[i].id.substr(0,4)=='edge') {
      edges[i].setAttribute('class','edge');
    }
  }
}
]]></script>
        <defs>
                <circle id="rim" cx="0" cy="0" r="7"/>
                <circle id="rim2" cx="0" cy="0" r="3.5"/>
                <g id="zoomPlus">
                        <use xlink:href="#rim" fill="#404040">
                                <set attributeName="fill" to="#808080" begin="zoomplus.mouseover" end="zoomplus.mouseout"/>
                        </use>
                        <path d="M-4,0h8M0,-4v8" fill="none" stroke="white" stroke-width="1.5" pointer-events="none"/>
                </g>
                <g id="zoomMin">
                        <use xlink:href="#rim" fill="#404040">
                                <set attributeName="fill" to="#808080" begin="zoomminus.mouseover" end="zoomminus.mouseout"/>
                        </use>
                        <path d="M-4,0h8" fill="none" stroke="white" stroke-width="1.5" pointer-events="none"/>
                </g>
                <g id="dirArrow">
                        <path fill="none" stroke="white" stroke-width="1.5" d="M0,-3.0v7 M-2.5,-0.5L0,-3.0L2.5,-0.5"/>
                </g>
               <g id="resetDef">
                       <use xlink:href="#rim2" fill="#404040">
                               <set attributeName="fill" to="#808080" begin="reset.mouseover" end="reset.mouseout"/>
                       </use>
               </g>
        </defs>

<script type="text/javascript">
var viewWidth = 704;
var viewHeight = 95;
var sectionId = 'dynsection-15';
</script>
<script xlink:href="svgpan.js"/>
<svg id="graph" class="graph">
<g id="viewport">
<title>CacheSystem::checkForNewZipsInResourceGroup</title>
<polygon fill="white" stroke="white" points="-4,5 -4,-91 701,-91 701,5 -4,5"/>
<!-- Node1 -->
<g id="node1" class="node"><title>Node1</title>
<polygon fill="#bfbfbf" stroke="black" points="0,-17 0,-51 146,-51 146,-17 0,-17"/>
<text text-anchor="start" x="8" y="-38" font-family="Helvetica,sans-Serif" font-size="10.00">CacheSystem::checkForNew</text>
<text text-anchor="middle" x="73" y="-25" font-family="Helvetica,sans-Serif" font-size="10.00">ZipsInResourceGroup</text>
</g>
<!-- Node2 -->
<g id="node3" class="node"><title>Node2</title>
<a xlink:href="class_cache_system.html#a68f2404e9bf705e5fbccf6cef95c5f8b" target="_top" xlink:title="CacheSystem::isZipUsedIn\lEntries">
<polygon fill="white" stroke="black" points="185.5,-40 185.5,-74 322.5,-74 322.5,-40 185.5,-40"/>
<text text-anchor="start" x="193.5" y="-61" font-family="Helvetica,sans-Serif" font-size="10.00">CacheSystem::isZipUsedIn</text>
<text text-anchor="middle" x="254" y="-48" font-family="Helvetica,sans-Serif" font-size="10.00">Entries</text>
</a>
</g>
<!-- Node1&#45;&gt;Node2 -->
<g id="edge2" class="edge"><title>Node1&#45;&gt;Node2</title>
<path fill="none" stroke="midnightblue" d="M146.098,-43.2887C155.71,-44.5101 165.594,-45.7661 175.295,-46.9988"/>
<polygon fill="midnightblue" stroke="midnightblue" points="174.956,-50.4838 185.318,-48.2724 175.839,-43.5397 174.956,-50.4838"/>
</g>
<!-- Node5 -->
<g id="node10" class="node"><title>Node5</title>
<a xlink:href="class_cache_system.html#a55bbe62f9e72f77772b79b67e1ed6927" target="_top" xlink:title="CacheSystem::loadSingleZip">
<polygon fill="white" stroke="black" points="182.5,-0.5 182.5,-21.5 325.5,-21.5 325.5,-0.5 182.5,-0.5"/>
<text text-anchor="middle" x="254" y="-8.5" font-family="Helvetica,sans-Serif" font-size="10.00">CacheSystem::loadSingleZip</text>
</a>
</g>
<!-- Node1&#45;&gt;Node5 -->
<g id="edge10" class="edge"><title>Node1&#45;&gt;Node5</title>
<path fill="none" stroke="midnightblue" d="M146.098,-24.7113C154.701,-23.6181 163.523,-22.4971 172.235,-21.39"/>
<polygon fill="midnightblue" stroke="midnightblue" points="172.914,-24.832 182.393,-20.0992 172.031,-17.8878 172.914,-24.832"/>
</g>
<!-- Node3 -->
<g id="node5" class="node"><title>Node3</title>
<a xlink:href="class_cache_system.html#ae7b67f3f823d1ebbf776d83343085469" target="_top" xlink:title="CacheSystem::generateZipList">
<polygon fill="white" stroke="black" points="362,-65.5 362,-86.5 514,-86.5 514,-65.5 362,-65.5"/>
<text text-anchor="middle" x="438" y="-73.5" font-family="Helvetica,sans-Serif" font-size="10.00">CacheSystem::generateZipList</text>
</a>
</g>
<!-- Node2&#45;&gt;Node3 -->
<g id="edge4" class="edge"><title>Node2&#45;&gt;Node3</title>
<path fill="none" stroke="midnightblue" d="M322.515,-64.0749C331.994,-65.0537 341.83,-66.0694 351.581,-67.0763"/>
<polygon fill="midnightblue" stroke="midnightblue" points="351.388,-70.5749 361.695,-68.1207 352.107,-63.6119 351.388,-70.5749"/>
</g>
<!-- Node4 -->
<g id="node7" class="node"><title>Node4</title>
<a xlink:href="class_cache_system.html#a12f05687c63beea66a7d560680d0b9f9" target="_top" xlink:title="CacheSystem::getVirtualPath">
<polygon fill="white" stroke="black" points="550,-45.5 550,-66.5 696,-66.5 696,-45.5 550,-45.5"/>
<text text-anchor="middle" x="623" y="-53.5" font-family="Helvetica,sans-Serif" font-size="10.00">CacheSystem::getVirtualPath</text>
</a>
</g>
<!-- Node2&#45;&gt;Node4 -->
<g id="edge8" class="edge"><title>Node2&#45;&gt;Node4</title>
<path fill="none" stroke="midnightblue" d="M322.559,-56.2697C335.653,-56.1573 349.25,-56.059 362,-56 421.472,-55.7247 488.568,-55.7317 539.837,-55.8039"/>
<polygon fill="midnightblue" stroke="midnightblue" points="539.867,-59.3038 549.873,-55.8191 539.878,-52.3038 539.867,-59.3038"/>
</g>
<!-- Node3&#45;&gt;Node4 -->
<g id="edge6" class="edge"><title>Node3&#45;&gt;Node4</title>
<path fill="none" stroke="midnightblue" d="M514.047,-67.7787C522.571,-66.8571 531.288,-65.9148 539.895,-64.9843"/>
<polygon fill="midnightblue" stroke="midnightblue" points="540.364,-68.4541 549.93,-63.8994 539.612,-61.4946 540.364,-68.4541"/>
</g>
</g>
</svg>
        <g id="navigator" transform="translate(0 0)" fill="#404254">
                <rect fill="#f2f5e9" fill-opacity="0.5" stroke="#606060" stroke-width=".5" x="0" y="0" width="60" height="60"/>
                <use id="zoomplus" xlink:href="#zoomPlus" x="17" y="9" onmousedown="handleZoom(evt,'in')"/>
                <use id="zoomminus" xlink:href="#zoomMin" x="42" y="9" onmousedown="handleZoom(evt,'out')"/>
                <use id="reset" xlink:href="#resetDef" x="30" y="36" onmousedown="handleReset()"/>
                <g id="arrowUp" xlink:href="#dirArrow" transform="translate(30 24)" onmousedown="handlePan(0,-1)">
                  <use xlink:href="#rim" fill="#404040">
                        <set attributeName="fill" to="#808080" begin="arrowUp.mouseover" end="arrowUp.mouseout"/>
                  </use>
                  <path fill="none" stroke="white" stroke-width="1.5" d="M0,-3.0v7 M-2.5,-0.5L0,-3.0L2.5,-0.5"/>
                </g>
                <g id="arrowRight" xlink:href="#dirArrow" transform="rotate(90) translate(36 -43)" onmousedown="handlePan(1,0)">
                  <use xlink:href="#rim" fill="#404040">
                        <set attributeName="fill" to="#808080" begin="arrowRight.mouseover" end="arrowRight.mouseout"/>
                  </use>
                  <path fill="none" stroke="white" stroke-width="1.5" d="M0,-3.0v7 M-2.5,-0.5L0,-3.0L2.5,-0.5"/>
                </g>
                <g id="arrowDown" xlink:href="#dirArrow" transform="rotate(180) translate(-30 -48)" onmousedown="handlePan(0,1)">
                  <use xlink:href="#rim" fill="#404040">
                        <set attributeName="fill" to="#808080" begin="arrowDown.mouseover" end="arrowDown.mouseout"/>
                  </use>
                  <path fill="none" stroke="white" stroke-width="1.5" d="M0,-3.0v7 M-2.5,-0.5L0,-3.0L2.5,-0.5"/>
                </g>
                <g id="arrowLeft" xlink:href="#dirArrow" transform="rotate(270) translate(-36 17)" onmousedown="handlePan(-1,0)">
                  <use xlink:href="#rim" fill="#404040">
                        <set attributeName="fill" to="#808080" begin="arrowLeft.mouseover" end="arrowLeft.mouseout"/>
                  </use>
                  <path fill="none" stroke="white" stroke-width="1.5" d="M0,-3.0v7 M-2.5,-0.5L0,-3.0L2.5,-0.5"/>
                </g>
        </g>
        <svg viewBox="0 0 15 15" width="100%" height="30px" preserveAspectRatio="xMaxYMin meet">
         <g id="arrow_out" transform="scale(0.3 0.3)">
          <a xlink:href="class_cache_system_a89beaf10bee2aa07b474fcc4b9c7782a_cgraph_org.svg" target="_base">
           <rect id="button" ry="5" rx="5" y="6" x="6" height="38" width="38"
                fill="#f2f5e9" fill-opacity="0.5" stroke="#606060" stroke-width="1.0"/>
           <path id="arrow"
             d="M 11.500037,31.436501 C 11.940474,20.09759 22.043105,11.32322 32.158766,21.979434 L 37.068811,17.246167 C 37.068811,17.246167 37.088388,32 37.088388,32 L 22.160133,31.978069 C 22.160133,31.978069 26.997745,27.140456 26.997745,27.140456 C 18.528582,18.264221 13.291696,25.230495 11.500037,31.436501 z"
             style="fill:#404040;"/>
          </a>
         </g>
        </svg>
</svg>
