<?xml version="1.0" encoding="UTF-8" standalone="no"?>
<!DOCTYPE svg PUBLIC "-//W3C//DTD SVG 1.1//EN"
 "http://www.w3.org/Graphics/SVG/1.1/DTD/svg11.dtd">
<!-- Generated by graphviz version 2.26.3 (20100126.1600)
 -->
<!-- Title: RoR::RigEditor::Rig::SelectedNodesCancelPositionUpdates Pages: 1 -->
<svg width="954pt" height="82pt"
 viewBox="0.00 0.00 954.00 82.00" xmlns="http://www.w3.org/2000/svg" xmlns:xlink="http://www.w3.org/1999/xlink">
<g id="graph1" class="graph" transform="scale(1 1) rotate(0) translate(4 78)">
<title>RoR::RigEditor::Rig::SelectedNodesCancelPositionUpdates</title>
<polygon fill="white" stroke="white" points="-4,5 -4,-78 951,-78 951,5 -4,5"/>
<!-- Node1 -->
<g id="node1" class="node"><title>Node1</title>
<polygon fill="#bfbfbf" stroke="black" points="0.5,-16.5 0.5,-63.5 155.5,-63.5 155.5,-16.5 0.5,-16.5"/>
<text text-anchor="start" x="8.5" y="-50.5" font-family="Helvetica,sans-Serif" font-size="10.00">RoR::RigEditor::Rig</text>
<text text-anchor="start" x="8.5" y="-37.5" font-family="Helvetica,sans-Serif" font-size="10.00">::SelectedNodesCancelPosition</text>
<text text-anchor="middle" x="78" y="-24.5" font-family="Helvetica,sans-Serif" font-size="10.00">Updates</text>
</g>
<!-- Node2 -->
<g id="node3" class="node"><title>Node2</title>
<a xlink:href="class_ro_r_1_1_rig_editor_1_1_main.html#abe2179248ae5a8d9fc4a8ed136a18c46" target="_top" xlink:title="RoR::RigEditor::Main\l::UpdateMainLoop">
<polygon fill="white" stroke="black" points="192,-23 192,-57 302,-57 302,-23 192,-23"/>
<text text-anchor="start" x="200" y="-44" font-family="Helvetica,sans-Serif" font-size="10.00">RoR::RigEditor::Main</text>
<text text-anchor="middle" x="247" y="-31" font-family="Helvetica,sans-Serif" font-size="10.00">::UpdateMainLoop</text>
</a>
</g>
<!-- Node1&#45;&gt;Node2 -->
<g id="edge2" class="edge"><title>Node1&#45;&gt;Node2</title>
<path fill="none" stroke="midnightblue" d="M165.848,-40C174.6,-40 183.303,-40 191.583,-40"/>
<polygon fill="midnightblue" stroke="midnightblue" points="165.575,-36.5001 155.575,-40 165.575,-43.5001 165.575,-36.5001"/>
</g>
<!-- Node3 -->
<g id="node5" class="node"><title>Node3</title>
<a xlink:href="class_ro_r_1_1_rig_editor_1_1_main.html#a8cd11f0150b5e247b6d9f00212d42b0d" target="_top" xlink:title="RoR::RigEditor::Main\l::EnterMainLoop">
<polygon fill="white" stroke="black" points="338,-23 338,-57 448,-57 448,-23 338,-23"/>
<text text-anchor="start" x="346" y="-44" font-family="Helvetica,sans-Serif" font-size="10.00">RoR::RigEditor::Main</text>
<text text-anchor="middle" x="393" y="-31" font-family="Helvetica,sans-Serif" font-size="10.00">::EnterMainLoop</text>
</a>
</g>
<!-- Node2&#45;&gt;Node3 -->
<g id="edge4" class="edge"><title>Node2&#45;&gt;Node3</title>
<path fill="none" stroke="midnightblue" d="M312.41,-40C320.865,-40 329.457,-40 337.726,-40"/>
<polygon fill="midnightblue" stroke="midnightblue" points="312.196,-36.5001 302.196,-40 312.196,-43.5001 312.196,-36.5001"/>
</g>
<!-- Node4 -->
<g id="node7" class="node"><title>Node4</title>
<a xlink:href="class_ro_r_1_1_main_thread.html#a7e4d0bd23a40e509892883af75ea0dbf" target="_top" xlink:title="RoR::MainThread::Go">
<polygon fill="white" stroke="black" points="484.5,-29.5 484.5,-50.5 597.5,-50.5 597.5,-29.5 484.5,-29.5"/>
<text text-anchor="middle" x="541" y="-37.5" font-family="Helvetica,sans-Serif" font-size="10.00">RoR::MainThread::Go</text>
</a>
</g>
<!-- Node3&#45;&gt;Node4 -->
<g id="edge6" class="edge"><title>Node3&#45;&gt;Node4</title>
<path fill="none" stroke="midnightblue" d="M458.23,-40C466.94,-40 475.814,-40 484.361,-40"/>
<polygon fill="midnightblue" stroke="midnightblue" points="458.11,-36.5001 448.11,-40 458.11,-43.5001 458.11,-36.5001"/>
</g>
<!-- Node5 -->
<g id="node9" class="node"><title>Node5</title>
<a xlink:href="main_2main__sim_2main_8cpp.html#a0ddf1224851353fc92bfbff6f499fa97" target="_top" xlink:title="main">
<polygon fill="white" stroke="black" points="684,-52.5 684,-73.5 722,-73.5 722,-52.5 684,-52.5"/>
<text text-anchor="middle" x="703" y="-60.5" font-family="Helvetica,sans-Serif" font-size="10.00">main</text>
</a>
</g>
<!-- Node4&#45;&gt;Node5 -->
<g id="edge8" class="edge"><title>Node4&#45;&gt;Node5</title>
<path fill="none" stroke="midnightblue" d="M607.692,-49.4687C635.272,-53.3843 665.136,-57.6243 683.945,-60.2947"/>
<polygon fill="midnightblue" stroke="midnightblue" points="608.052,-45.9848 597.66,-48.0443 607.068,-52.9153 608.052,-45.9848"/>
</g>
<!-- Node7 -->
<g id="node13" class="node"><title>Node7</title>
<a xlink:href="class_ro_r_1_1_main_thread.html#a7a2db954fd2f35d63982d8603d2b9614" target="_top" xlink:title="RoR::MainThread::Request\lRestart">
<polygon fill="white" stroke="black" points="634.5,-0 634.5,-34 771.5,-34 771.5,-0 634.5,-0"/>
<text text-anchor="start" x="642.5" y="-21" font-family="Helvetica,sans-Serif" font-size="10.00">RoR::MainThread::Request</text>
<text text-anchor="middle" x="703" y="-8" font-family="Helvetica,sans-Serif" font-size="10.00">Restart</text>
</a>
</g>
<!-- Node4&#45;&gt;Node7 -->
<g id="edge12" class="edge"><title>Node4&#45;&gt;Node7</title>
<path fill="none" stroke="midnightblue" d="M607.824,-30.5126C616.595,-29.2674 625.594,-27.9898 634.393,-26.7405"/>
<polygon fill="midnightblue" stroke="midnightblue" points="607.068,-27.0847 597.66,-31.9557 608.052,-34.0152 607.068,-27.0847"/>
</g>
<!-- Node6 -->
<g id="node11" class="node"><title>Node6</title>
<a xlink:href="main_2main__sim_2main_8cpp.html#a2922bc5d5c2d77a3020cfbf9df12aab0" target="_top" xlink:title="WinMain">
<polygon fill="white" stroke="black" points="849.5,-52.5 849.5,-73.5 904.5,-73.5 904.5,-52.5 849.5,-52.5"/>
<text text-anchor="middle" x="877" y="-60.5" font-family="Helvetica,sans-Serif" font-size="10.00">WinMain</text>
</a>
</g>
<!-- Node5&#45;&gt;Node6 -->
<g id="edge10" class="edge"><title>Node5&#45;&gt;Node6</title>
<path fill="none" stroke="midnightblue" d="M732.559,-63C765.23,-63 817.439,-63 849.332,-63"/>
<polygon fill="midnightblue" stroke="midnightblue" points="732.286,-59.5001 722.286,-63 732.286,-66.5001 732.286,-59.5001"/>
</g>
<!-- Node8 -->
<g id="node15" class="node"><title>Node8</title>
<a xlink:href="class_ro_r_frame_listener.html#af2779b96aa0f91920bd100bc30261402" target="_top" xlink:title="RoRFrameListener::Restart">
<polygon fill="white" stroke="black" points="808.5,-6.5 808.5,-27.5 945.5,-27.5 945.5,-6.5 808.5,-6.5"/>
<text text-anchor="middle" x="877" y="-14.5" font-family="Helvetica,sans-Serif" font-size="10.00">RoRFrameListener::Restart</text>
</a>
</g>
<!-- Node7&#45;&gt;Node8 -->
<g id="edge14" class="edge"><title>Node7&#45;&gt;Node8</title>
<path fill="none" stroke="midnightblue" d="M782.043,-17C790.856,-17 799.778,-17 808.445,-17"/>
<polygon fill="midnightblue" stroke="midnightblue" points="781.769,-13.5001 771.769,-17 781.769,-20.5001 781.769,-13.5001"/>
</g>
</g>
</svg>
