<?xml version="1.0" encoding="UTF-8" standalone="no"?>
<!DOCTYPE svg PUBLIC "-//W3C//DTD SVG 1.1//EN"
 "http://www.w3.org/Graphics/SVG/1.1/DTD/svg11.dtd">
<!-- Generated by graphviz version 2.26.3 (20100126.1600)
 -->
<!-- Title: RigDef::Parser::ParseSoundsources2 Pages: 1 -->
<!--zoomable 103 -->
<svg id="main" version="1.1" xmlns="http://www.w3.org/2000/svg" xmlns:xlink="http://www.w3.org/1999/xlink" xml:space="preserve" onload="init(evt)">
<style type="text/css"><![CDATA[
.edge:hover path { stroke: red; }
.edge:hover polygon { stroke: red; fill: red; }
]]></style>
<script type="text/javascript"><![CDATA[
var edges = document.getElementsByTagName('g');
if (edges && edges.length) {
  for (var i=0;i<edges.length;i++) {
    if (edges[i].id.substr(0,4)=='edge') {
      edges[i].setAttribute('class','edge');
    }
  }
}
]]></script>
        <defs>
                <circle id="rim" cx="0" cy="0" r="7"/>
                <circle id="rim2" cx="0" cy="0" r="3.5"/>
                <g id="zoomPlus">
                        <use xlink:href="#rim" fill="#404040">
                                <set attributeName="fill" to="#808080" begin="zoomplus.mouseover" end="zoomplus.mouseout"/>
                        </use>
                        <path d="M-4,0h8M0,-4v8" fill="none" stroke="white" stroke-width="1.5" pointer-events="none"/>
                </g>
                <g id="zoomMin">
                        <use xlink:href="#rim" fill="#404040">
                                <set attributeName="fill" to="#808080" begin="zoomminus.mouseover" end="zoomminus.mouseout"/>
                        </use>
                        <path d="M-4,0h8" fill="none" stroke="white" stroke-width="1.5" pointer-events="none"/>
                </g>
                <g id="dirArrow">
                        <path fill="none" stroke="white" stroke-width="1.5" d="M0,-3.0v7 M-2.5,-0.5L0,-3.0L2.5,-0.5"/>
                </g>
               <g id="resetDef">
                       <use xlink:href="#rim2" fill="#404040">
                               <set attributeName="fill" to="#808080" begin="reset.mouseover" end="reset.mouseout"/>
                       </use>
               </g>
        </defs>

<script type="text/javascript">
var viewWidth = 566;
var viewHeight = 103;
var sectionId = 'dynsection-204';
</script>
<script xlink:href="svgpan.js"/>
<svg id="graph" class="graph">
<g id="viewport">
<title>RigDef::Parser::ParseSoundsources2</title>
<polygon fill="white" stroke="white" points="-4,5 -4,-98.8709 563,-98.8709 563,5 -4,5"/>
<!-- Node1 -->
<g id="node1" class="node"><title>Node1</title>
<polygon fill="#bfbfbf" stroke="black" points="0.5,-52.5 0.5,-73.5 181.5,-73.5 181.5,-52.5 0.5,-52.5"/>
<text text-anchor="middle" x="91" y="-60.5" font-family="Helvetica,sans-Serif" font-size="10.00">RigDef::Parser::ParseSoundsources2</text>
</g>
<!-- Node2 -->
<g id="node3" class="node"><title>Node2</title>
<a xlink:href="class_rig_def_1_1_parser.html#a7da949423835fe3241f2ac4c5ac8ebb1" target="_top" xlink:title="RigDef::Parser::AddMessage">
<polygon fill="white" stroke="black" points="412.5,-52.5 412.5,-73.5 557.5,-73.5 557.5,-52.5 412.5,-52.5"/>
<text text-anchor="middle" x="485" y="-60.5" font-family="Helvetica,sans-Serif" font-size="10.00">RigDef::Parser::AddMessage</text>
</a>
</g>
<!-- Node1&#45;&gt;Node2 -->
<g id="edge2" class="edge"><title>Node1&#45;&gt;Node2</title>
<path fill="none" stroke="midnightblue" d="M131.857,-73.5521C156.596,-79.3923 188.891,-86.051 218,-89 287.865,-96.0781 306.259,-97.2027 376,-89 397.389,-86.4843 420.663,-81.2823 440.191,-76.1878"/>
<polygon fill="midnightblue" stroke="midnightblue" points="441.28,-79.5196 450.031,-73.5483 439.466,-72.7586 441.28,-79.5196"/>
</g>
<!-- Node3 -->
<g id="node5" class="node"><title>Node3</title>
<a xlink:href="class_rig_def_1_1_parser.html#a38e4135df406da0cc2f0fc4afb34ddb3" target="_top" xlink:title="RigDef::Parser::_ParseNodeRef">
<polygon fill="white" stroke="black" points="218,-6.5 218,-27.5 376,-27.5 376,-6.5 218,-6.5"/>
<text text-anchor="middle" x="297" y="-14.5" font-family="Helvetica,sans-Serif" font-size="10.00">RigDef::Parser::_ParseNodeRef</text>
</a>
</g>
<!-- Node1&#45;&gt;Node3 -->
<g id="edge4" class="edge"><title>Node1&#45;&gt;Node3</title>
<path fill="none" stroke="midnightblue" d="M138.261,-52.4467C168.487,-45.6971 207.878,-36.9011 239.858,-29.7599"/>
<polygon fill="midnightblue" stroke="midnightblue" points="240.963,-33.0995 249.959,-27.5042 239.437,-26.2678 240.963,-33.0995"/>
</g>
<!-- Node5 -->
<g id="node10" class="node"><title>Node5</title>
<a xlink:href="class_rig_def_1_1_parser.html#ad0e49a337465aa5991a2266361a06838" target="_top" xlink:title="RigDef::Parser::_CheckInvalid\lTrailingText">
<polygon fill="white" stroke="black" points="222,-46 222,-80 372,-80 372,-46 222,-46"/>
<text text-anchor="start" x="230" y="-67" font-family="Helvetica,sans-Serif" font-size="10.00">RigDef::Parser::_CheckInvalid</text>
<text text-anchor="middle" x="297" y="-54" font-family="Helvetica,sans-Serif" font-size="10.00">TrailingText</text>
</a>
</g>
<!-- Node1&#45;&gt;Node5 -->
<g id="edge10" class="edge"><title>Node1&#45;&gt;Node5</title>
<path fill="none" stroke="midnightblue" d="M181.654,-63C191.589,-63 201.678,-63 211.547,-63"/>
<polygon fill="midnightblue" stroke="midnightblue" points="211.734,-66.5001 221.734,-63 211.734,-59.5001 211.734,-66.5001"/>
</g>
<!-- Node3&#45;&gt;Node2 -->
<g id="edge8" class="edge"><title>Node3&#45;&gt;Node2</title>
<path fill="none" stroke="midnightblue" d="M340.131,-27.5533C367.477,-34.2445 403.043,-42.9467 432.091,-50.0542"/>
<polygon fill="midnightblue" stroke="midnightblue" points="431.524,-53.5187 442.07,-52.4958 433.188,-46.7193 431.524,-53.5187"/>
</g>
<!-- Node4 -->
<g id="node7" class="node"><title>Node4</title>
<a xlink:href="class_rig_def_1_1_sequential_importer.html#a04d293d8b1f94b9a722e83715911e547" target="_top" xlink:title="RigDef::SequentialImporter\l::IsEnabled">
<polygon fill="white" stroke="black" points="417.5,-0 417.5,-34 552.5,-34 552.5,-0 417.5,-0"/>
<text text-anchor="start" x="425.5" y="-21" font-family="Helvetica,sans-Serif" font-size="10.00">RigDef::SequentialImporter</text>
<text text-anchor="middle" x="485" y="-8" font-family="Helvetica,sans-Serif" font-size="10.00">::IsEnabled</text>
</a>
</g>
<!-- Node3&#45;&gt;Node4 -->
<g id="edge6" class="edge"><title>Node3&#45;&gt;Node4</title>
<path fill="none" stroke="midnightblue" d="M376.184,-17C386.42,-17 396.896,-17 407.11,-17"/>
<polygon fill="midnightblue" stroke="midnightblue" points="407.219,-20.5001 417.219,-17 407.219,-13.5001 407.219,-20.5001"/>
</g>
<!-- Node5&#45;&gt;Node2 -->
<g id="edge12" class="edge"><title>Node5&#45;&gt;Node2</title>
<path fill="none" stroke="midnightblue" d="M372.113,-63C382.085,-63 392.353,-63 402.442,-63"/>
<polygon fill="midnightblue" stroke="midnightblue" points="402.454,-66.5001 412.454,-63 402.454,-59.5001 402.454,-66.5001"/>
</g>
</g>
</svg>
        <g id="navigator" transform="translate(0 0)" fill="#404254">
                <rect fill="#f2f5e9" fill-opacity="0.5" stroke="#606060" stroke-width=".5" x="0" y="0" width="60" height="60"/>
                <use id="zoomplus" xlink:href="#zoomPlus" x="17" y="9" onmousedown="handleZoom(evt,'in')"/>
                <use id="zoomminus" xlink:href="#zoomMin" x="42" y="9" onmousedown="handleZoom(evt,'out')"/>
                <use id="reset" xlink:href="#resetDef" x="30" y="36" onmousedown="handleReset()"/>
                <g id="arrowUp" xlink:href="#dirArrow" transform="translate(30 24)" onmousedown="handlePan(0,-1)">
                  <use xlink:href="#rim" fill="#404040">
                        <set attributeName="fill" to="#808080" begin="arrowUp.mouseover" end="arrowUp.mouseout"/>
                  </use>
                  <path fill="none" stroke="white" stroke-width="1.5" d="M0,-3.0v7 M-2.5,-0.5L0,-3.0L2.5,-0.5"/>
                </g>
                <g id="arrowRight" xlink:href="#dirArrow" transform="rotate(90) translate(36 -43)" onmousedown="handlePan(1,0)">
                  <use xlink:href="#rim" fill="#404040">
                        <set attributeName="fill" to="#808080" begin="arrowRight.mouseover" end="arrowRight.mouseout"/>
                  </use>
                  <path fill="none" stroke="white" stroke-width="1.5" d="M0,-3.0v7 M-2.5,-0.5L0,-3.0L2.5,-0.5"/>
                </g>
                <g id="arrowDown" xlink:href="#dirArrow" transform="rotate(180) translate(-30 -48)" onmousedown="handlePan(0,1)">
                  <use xlink:href="#rim" fill="#404040">
                        <set attributeName="fill" to="#808080" begin="arrowDown.mouseover" end="arrowDown.mouseout"/>
                  </use>
                  <path fill="none" stroke="white" stroke-width="1.5" d="M0,-3.0v7 M-2.5,-0.5L0,-3.0L2.5,-0.5"/>
                </g>
                <g id="arrowLeft" xlink:href="#dirArrow" transform="rotate(270) translate(-36 17)" onmousedown="handlePan(-1,0)">
                  <use xlink:href="#rim" fill="#404040">
                        <set attributeName="fill" to="#808080" begin="arrowLeft.mouseover" end="arrowLeft.mouseout"/>
                  </use>
                  <path fill="none" stroke="white" stroke-width="1.5" d="M0,-3.0v7 M-2.5,-0.5L0,-3.0L2.5,-0.5"/>
                </g>
        </g>
        <svg viewBox="0 0 15 15" width="100%" height="30px" preserveAspectRatio="xMaxYMin meet">
         <g id="arrow_out" transform="scale(0.3 0.3)">
          <a xlink:href="class_rig_def_1_1_parser_acdcc6e7d9b3ecb18b185e1c2a1d6d159_cgraph_org.svg" target="_base">
           <rect id="button" ry="5" rx="5" y="6" x="6" height="38" width="38"
                fill="#f2f5e9" fill-opacity="0.5" stroke="#606060" stroke-width="1.0"/>
           <path id="arrow"
             d="M 11.500037,31.436501 C 11.940474,20.09759 22.043105,11.32322 32.158766,21.979434 L 37.068811,17.246167 C 37.068811,17.246167 37.088388,32 37.088388,32 L 22.160133,31.978069 C 22.160133,31.978069 26.997745,27.140456 26.997745,27.140456 C 18.528582,18.264221 13.291696,25.230495 11.500037,31.436501 z"
             style="fill:#404040;"/>
          </a>
         </g>
        </svg>
</svg>
