<?xml version="1.0" encoding="UTF-8" standalone="no"?>
<!DOCTYPE svg PUBLIC "-//W3C//DTD SVG 1.1//EN"
 "http://www.w3.org/Graphics/SVG/1.1/DTD/svg11.dtd">
<!-- Generated by graphviz version 2.26.3 (20100126.1600)
 -->
<!-- Title: G Pages: 1 -->
<svg width="332pt" height="70pt"
 viewBox="0.00 0.00 332.00 70.00" xmlns="http://www.w3.org/2000/svg" xmlns:xlink="http://www.w3.org/1999/xlink">
<g id="graph1" class="graph" transform="scale(1 1) rotate(0) translate(4 66)">
<title>G</title>
<polygon fill="white" stroke="white" points="-4,5 -4,-66 329,-66 329,5 -4,5"/>
<!-- Node1 -->
<g id="node1" class="node"><title>Node1</title>
<polygon fill="#bfbfbf" stroke="black" points="0,-20.5 0,-41.5 106,-41.5 106,-20.5 0,-20.5"/>
<text text-anchor="middle" x="53" y="-28.5" font-family="Helvetica,sans-Serif" font-size="10.00">LocalStorage::exists</text>
</g>
<!-- Node2 -->
<g id="node3" class="node"><title>Node2</title>
<a xlink:href="class_local_storage.html#aa18cb1ed34366948bbdd4d01775121a5" target="_top" xlink:title="LocalStorage::parseKey">
<polygon fill="white" stroke="black" points="172.5,-40.5 172.5,-61.5 293.5,-61.5 293.5,-40.5 172.5,-40.5"/>
<text text-anchor="middle" x="233" y="-48.5" font-family="Helvetica,sans-Serif" font-size="10.00">LocalStorage::parseKey</text>
</a>
</g>
<!-- Node1&#45;&gt;Node2 -->
<g id="edge2" class="edge"><title>Node1&#45;&gt;Node2</title>
<path fill="none" stroke="midnightblue" d="M106.032,-36.8925C123.701,-38.8557 143.67,-41.0745 162.453,-43.1614"/>
<polygon fill="midnightblue" stroke="midnightblue" points="162.119,-46.6458 172.444,-44.2716 162.892,-39.6886 162.119,-46.6458"/>
</g>
<!-- Node3 -->
<g id="node5" class="node"><title>Node3</title>
<a xlink:href="class_ogre_1_1_improved_config_file.html#ae1f7f7fbf18b6f3f69442c2dfb510e8a" target="_top" xlink:title="Ogre::ImprovedConfigFile::hasSetting">
<polygon fill="white" stroke="black" points="142.5,-0.5 142.5,-21.5 323.5,-21.5 323.5,-0.5 142.5,-0.5"/>
<text text-anchor="middle" x="233" y="-8.5" font-family="Helvetica,sans-Serif" font-size="10.00">Ogre::ImprovedConfigFile::hasSetting</text>
</a>
</g>
<!-- Node1&#45;&gt;Node3 -->
<g id="edge4" class="edge"><title>Node1&#45;&gt;Node3</title>
<path fill="none" stroke="midnightblue" d="M106.032,-25.1075C114.32,-24.1866 123.115,-23.2095 132.055,-22.2161"/>
<polygon fill="midnightblue" stroke="midnightblue" points="132.64,-25.6727 142.193,-21.0897 131.867,-18.7155 132.64,-25.6727"/>
</g>
</g>
</svg>
