<?xml version="1.0" encoding="UTF-8" standalone="no"?>
<!DOCTYPE svg PUBLIC "-//W3C//DTD SVG 1.1//EN"
 "http://www.w3.org/Graphics/SVG/1.1/DTD/svg11.dtd">
<!-- Generated by graphviz version 2.26.3 (20100126.1600)
 -->
<!-- Title: G Pages: 1 -->
<!--zoomable 467 -->
<svg id="main" version="1.1" xmlns="http://www.w3.org/2000/svg" xmlns:xlink="http://www.w3.org/1999/xlink" xml:space="preserve" onload="init(evt)">
        <defs>
                <circle id="rim" cx="0" cy="0" r="7"/>
                <circle id="rim2" cx="0" cy="0" r="3.5"/>
                <g id="zoomPlus">
                        <use xlink:href="#rim" fill="#404040">
                                <set attributeName="fill" to="#808080" begin="zoomplus.mouseover" end="zoomplus.mouseout"/>
                        </use>
                        <path d="M-4,0h8M0,-4v8" fill="none" stroke="white" stroke-width="1.5" pointer-events="none"/>
                </g>
                <g id="zoomMin">
                        <use xlink:href="#rim" fill="#404040">
                                <set attributeName="fill" to="#808080" begin="zoomminus.mouseover" end="zoomminus.mouseout"/>
                        </use>
                        <path d="M-4,0h8" fill="none" stroke="white" stroke-width="1.5" pointer-events="none"/>
                </g>
                <g id="dirArrow">
                        <path fill="none" stroke="white" stroke-width="1.5" d="M0,-3.0v7 M-2.5,-0.5L0,-3.0L2.5,-0.5"/>
                </g>
               <g id="resetDef">
                       <use xlink:href="#rim2" fill="#404040">
                               <set attributeName="fill" to="#808080" begin="reset.mouseover" end="reset.mouseout"/>
                       </use>
               </g>
        </defs>

<script type="text/javascript">
var viewWidth = 1430;
var viewHeight = 467;
var sectionId = 'dynsection-5';
</script>
<script xlink:href="svgpan.js"/>
<svg id="graph" class="graph">
<g id="viewport">
<title>G</title>
<polygon fill="white" stroke="white" points="-4,5 -4,-462.849 1427,-462.849 1427,5 -4,5"/>
<!-- Node1 -->
<g id="node1" class="node"><title>Node1</title>
<polygon fill="#bfbfbf" stroke="black" points="0.5,-156.5 0.5,-177.5 129.5,-177.5 129.5,-156.5 0.5,-156.5"/>
<text text-anchor="middle" x="65" y="-164.5" font-family="Helvetica,sans-Serif" font-size="10.00">InputEngine::axisLinearity</text>
</g>
<!-- Node2 -->
<g id="node3" class="node"><title>Node2</title>
<a xlink:href="class_input_engine.html#a251be92f16fe445542e240fc121354d8" target="_top" xlink:title="InputEngine::getEventValue">
<polygon fill="white" stroke="black" points="166,-156.5 166,-177.5 304,-177.5 304,-156.5 166,-156.5"/>
<text text-anchor="middle" x="235" y="-164.5" font-family="Helvetica,sans-Serif" font-size="10.00">InputEngine::getEventValue</text>
</a>
</g>
<!-- Node1&#45;&gt;Node2 -->
<g id="edge2" class="edge"><title>Node1&#45;&gt;Node2</title>
<path fill="none" stroke="midnightblue" d="M139.84,-167C148.506,-167 157.314,-167 165.899,-167"/>
<polygon fill="midnightblue" stroke="midnightblue" points="139.755,-163.5 129.755,-167 139.755,-170.5 139.755,-163.5"/>
</g>
<!-- Node3 -->
<g id="node5" class="node"><title>Node3</title>
<a xlink:href="struct_ro_r_1_1_aircraft_simulation.html#a3db164bd65ba10630912b8a76537f69f" target="_top" xlink:title="RoR::AircraftSimulation::UpdateVehicle">
<polygon fill="white" stroke="black" points="821,-330.5 821,-351.5 1011,-351.5 1011,-330.5 821,-330.5"/>
<text text-anchor="middle" x="916" y="-338.5" font-family="Helvetica,sans-Serif" font-size="10.00">RoR::AircraftSimulation::UpdateVehicle</text>
</a>
</g>
<!-- Node2&#45;&gt;Node3 -->
<g id="edge4" class="edge"><title>Node2&#45;&gt;Node3</title>
<path fill="none" stroke="midnightblue" d="M244.677,-186.854C260.536,-217.443 294.861,-276.101 340,-310 413.417,-365.136 443.594,-364.976 534,-381 639.03,-399.616 671.91,-411.91 774,-381 792.405,-375.428 792.064,-363.934 810,-357 815.381,-354.92 821.014,-353.108 826.757,-351.532"/>
<polygon fill="midnightblue" stroke="midnightblue" points="247.652,-184.98 240.018,-177.633 241.404,-188.137 247.652,-184.98"/>
</g>
<!-- Node4 -->
<g id="node7" class="node"><title>Node4</title>
<a xlink:href="class_character.html#a4806a9150eb30673bab3d0b47e05d135" target="_top" xlink:title="Character::update">
<polygon fill="white" stroke="black" points="606.5,-428.5 606.5,-449.5 701.5,-449.5 701.5,-428.5 606.5,-428.5"/>
<text text-anchor="middle" x="654" y="-436.5" font-family="Helvetica,sans-Serif" font-size="10.00">Character::update</text>
</a>
</g>
<!-- Node2&#45;&gt;Node4 -->
<g id="edge6" class="edge"><title>Node2&#45;&gt;Node4</title>
<path fill="none" stroke="midnightblue" d="M236.792,-187.478C242.255,-236.149 263.354,-358.801 340,-414 418.989,-470.887 539.94,-460.752 606.312,-449.295"/>
<polygon fill="midnightblue" stroke="midnightblue" points="240.273,-187.113 235.781,-177.517 233.308,-187.82 240.273,-187.113"/>
</g>
<!-- Node6 -->
<g id="node11" class="node"><title>Node6</title>
<a xlink:href="class_ro_r_frame_listener.html#a6b384193b130f7c1fff95d2e740a370e" target="_top" xlink:title="RoRFrameListener::updateEvents">
<polygon fill="white" stroke="black" points="1058.5,-272.5 1058.5,-293.5 1223.5,-293.5 1223.5,-272.5 1058.5,-272.5"/>
<text text-anchor="middle" x="1141" y="-280.5" font-family="Helvetica,sans-Serif" font-size="10.00">RoRFrameListener::updateEvents</text>
</a>
</g>
<!-- Node2&#45;&gt;Node6 -->
<g id="edge22" class="edge"><title>Node2&#45;&gt;Node6</title>
<path fill="none" stroke="midnightblue" d="M271.733,-153.036C291.623,-146.186 316.808,-138.639 340,-135 639.756,-87.9651 749.658,-32.2246 1022,-166 1074.01,-191.547 1117.39,-248.588 1133.87,-272.321"/>
<polygon fill="midnightblue" stroke="midnightblue" points="270.402,-149.795 262.14,-156.427 272.735,-156.394 270.402,-149.795"/>
</g>
<!-- Node8 -->
<g id="node16" class="node"><title>Node8</title>
<a xlink:href="struct_ro_r_1_1_land_vehicle_simulation.html#a20e0e3bfb3deaa213ffb06d283ae81c8" target="_top" xlink:title="RoR::LandVehicleSimulation::UpdateCruiseControl">
<polygon fill="white" stroke="black" points="534.5,-156.5 534.5,-177.5 773.5,-177.5 773.5,-156.5 534.5,-156.5"/>
<text text-anchor="middle" x="654" y="-164.5" font-family="Helvetica,sans-Serif" font-size="10.00">RoR::LandVehicleSimulation::UpdateCruiseControl</text>
</a>
</g>
<!-- Node2&#45;&gt;Node8 -->
<g id="edge16" class="edge"><title>Node2&#45;&gt;Node8</title>
<path fill="none" stroke="midnightblue" d="M314.312,-167C376.372,-167 463.681,-167 534.243,-167"/>
<polygon fill="midnightblue" stroke="midnightblue" points="314.189,-163.5 304.189,-167 314.189,-170.5 314.189,-163.5"/>
</g>
<!-- Node9 -->
<g id="node18" class="node"><title>Node9</title>
<a xlink:href="struct_ro_r_1_1_land_vehicle_simulation.html#a830e19b0460db3df601abe83096f78d7" target="_top" xlink:title="RoR::LandVehicleSimulation::UpdateVehicle">
<polygon fill="white" stroke="black" points="810,-175.5 810,-196.5 1022,-196.5 1022,-175.5 810,-175.5"/>
<text text-anchor="middle" x="916" y="-183.5" font-family="Helvetica,sans-Serif" font-size="10.00">RoR::LandVehicleSimulation::UpdateVehicle</text>
</a>
</g>
<!-- Node2&#45;&gt;Node9 -->
<g id="edge20" class="edge"><title>Node2&#45;&gt;Node9</title>
<path fill="none" stroke="midnightblue" d="M314.214,-155.652C419.664,-142.462 611.729,-125.121 774,-147 813.778,-152.363 858.174,-165.817 886.563,-175.42"/>
<polygon fill="midnightblue" stroke="midnightblue" points="313.763,-152.181 304.284,-156.914 314.645,-159.125 313.763,-152.181"/>
</g>
<!-- Node10 -->
<g id="node22" class="node"><title>Node10</title>
<a xlink:href="class_camera_behavior_orbit.html#ac2fbf5b905645faf54092ef1c081ef55" target="_top" xlink:title="CameraBehaviorOrbit::update">
<polygon fill="white" stroke="black" points="346,-40.5 346,-61.5 492,-61.5 492,-40.5 346,-40.5"/>
<text text-anchor="middle" x="419" y="-48.5" font-family="Helvetica,sans-Serif" font-size="10.00">CameraBehaviorOrbit::update</text>
</a>
</g>
<!-- Node2&#45;&gt;Node10 -->
<g id="edge24" class="edge"><title>Node2&#45;&gt;Node10</title>
<path fill="none" stroke="midnightblue" d="M251.247,-149.054C270.576,-128.694 304.693,-95.7627 340,-76 350.67,-70.0276 362.964,-65.2651 374.627,-61.5675"/>
<polygon fill="midnightblue" stroke="midnightblue" points="248.623,-146.736 244.364,-156.437 253.743,-151.51 248.623,-146.736"/>
</g>
<!-- Node11 -->
<g id="node24" class="node"><title>Node11</title>
<a xlink:href="class_beam.html#ad0cf39a3ca17cad8a038d8984c6ad11f" target="_top" xlink:title="Beam::calcAnimatedProps">
<polygon fill="white" stroke="black" points="352.5,-0.5 352.5,-21.5 485.5,-21.5 485.5,-0.5 352.5,-0.5"/>
<text text-anchor="middle" x="419" y="-8.5" font-family="Helvetica,sans-Serif" font-size="10.00">Beam::calcAnimatedProps</text>
</a>
</g>
<!-- Node2&#45;&gt;Node11 -->
<g id="edge26" class="edge"><title>Node2&#45;&gt;Node11</title>
<path fill="none" stroke="midnightblue" d="M244.77,-147.132C260.545,-117.192 294.513,-60.8436 340,-31 345.796,-27.1971 352.268,-24.1173 358.944,-21.623"/>
<polygon fill="midnightblue" stroke="midnightblue" points="241.571,-145.701 240.128,-156.197 247.801,-148.892 241.571,-145.701"/>
</g>
<!-- Node12 -->
<g id="node26" class="node"><title>Node12</title>
<a xlink:href="class_input_engine.html#a72145988ab99faec6f618c2a4011d236" target="_top" xlink:title="InputEngine::getEventBoolValue">
<polygon fill="white" stroke="black" points="340,-233.5 340,-254.5 498,-254.5 498,-233.5 340,-233.5"/>
<text text-anchor="middle" x="419" y="-241.5" font-family="Helvetica,sans-Serif" font-size="10.00">InputEngine::getEventBoolValue</text>
</a>
</g>
<!-- Node2&#45;&gt;Node12 -->
<g id="edge28" class="edge"><title>Node2&#45;&gt;Node12</title>
<path fill="none" stroke="midnightblue" d="M269.847,-181.583C306.015,-196.718 361.698,-220.02 393.811,-233.459"/>
<polygon fill="midnightblue" stroke="midnightblue" points="270.775,-178.177 260.199,-177.545 268.072,-184.634 270.775,-178.177"/>
</g>
<!-- Node14 -->
<g id="node38" class="node"><title>Node14</title>
<a xlink:href="class_input_engine.html#af8ebe9d9cb2cc8dd70b73cd3dc20e168" target="_top" xlink:title="InputEngine::isEventAnalog">
<polygon fill="white" stroke="black" points="585.5,-350.5 585.5,-371.5 722.5,-371.5 722.5,-350.5 585.5,-350.5"/>
<text text-anchor="middle" x="654" y="-358.5" font-family="Helvetica,sans-Serif" font-size="10.00">InputEngine::isEventAnalog</text>
</a>
</g>
<!-- Node2&#45;&gt;Node14 -->
<g id="edge48" class="edge"><title>Node2&#45;&gt;Node14</title>
<path fill="none" stroke="midnightblue" d="M250.867,-185.565C270.068,-207.027 304.289,-242.187 340,-264 418.028,-311.66 521.408,-337.661 587.826,-350.444"/>
<polygon fill="midnightblue" stroke="midnightblue" points="253.277,-183.006 244.046,-177.806 248.02,-187.628 253.277,-183.006"/>
</g>
<!-- Node5 -->
<g id="node9" class="node"><title>Node5</title>
<a xlink:href="class_character_factory.html#a70f849028ea8a2372700fe92b44dba7b" target="_top" xlink:title="CharacterFactory::updateCharacters">
<polygon fill="white" stroke="black" points="828,-423.5 828,-444.5 1004,-444.5 1004,-423.5 828,-423.5"/>
<text text-anchor="middle" x="916" y="-431.5" font-family="Helvetica,sans-Serif" font-size="10.00">CharacterFactory::updateCharacters</text>
</a>
</g>
<!-- Node4&#45;&gt;Node5 -->
<g id="edge8" class="edge"><title>Node4&#45;&gt;Node5</title>
<path fill="none" stroke="midnightblue" d="M711.973,-437.894C745.963,-437.245 789.593,-436.412 827.777,-435.684"/>
<polygon fill="midnightblue" stroke="midnightblue" points="711.682,-434.398 701.75,-438.089 711.815,-441.397 711.682,-434.398"/>
</g>
<!-- Node4&#45;&gt;Node6 -->
<g id="edge14" class="edge"><title>Node4&#45;&gt;Node6</title>
<path fill="none" stroke="midnightblue" d="M711.575,-429.49C800.425,-414.362 966.506,-384.161 1022,-361 1064.17,-343.399 1107.54,-310.503 1128.35,-293.61"/>
<polygon fill="midnightblue" stroke="midnightblue" points="710.931,-426.049 701.657,-431.171 712.101,-432.951 710.931,-426.049"/>
</g>
<!-- Node5&#45;&gt;Node6 -->
<g id="edge10" class="edge"><title>Node5&#45;&gt;Node6</title>
<path fill="none" stroke="midnightblue" d="M983.414,-420.594C996.728,-416.403 1010.22,-410.981 1022,-404 1072.7,-373.968 1116.81,-317.008 1133.69,-293.526"/>
<polygon fill="midnightblue" stroke="midnightblue" points="982.38,-417.249 973.776,-423.432 984.357,-423.964 982.38,-417.249"/>
</g>
<!-- Node7 -->
<g id="node13" class="node"><title>Node7</title>
<a xlink:href="class_ro_r_frame_listener.html#acd8647e188fb8e838689492965b86faf" target="_top" xlink:title="RoRFrameListener::frameStarted">
<polygon fill="white" stroke="black" points="1260.5,-272.5 1260.5,-293.5 1421.5,-293.5 1421.5,-272.5 1260.5,-272.5"/>
<text text-anchor="middle" x="1341" y="-280.5" font-family="Helvetica,sans-Serif" font-size="10.00">RoRFrameListener::frameStarted</text>
</a>
</g>
<!-- Node6&#45;&gt;Node7 -->
<g id="edge12" class="edge"><title>Node6&#45;&gt;Node7</title>
<path fill="none" stroke="midnightblue" d="M1233.54,-283C1242.48,-283 1251.49,-283 1260.3,-283"/>
<polygon fill="midnightblue" stroke="midnightblue" points="1233.5,-279.5 1223.5,-283 1233.5,-286.5 1233.5,-279.5"/>
</g>
<!-- Node8&#45;&gt;Node9 -->
<g id="edge18" class="edge"><title>Node8&#45;&gt;Node9</title>
<path fill="none" stroke="midnightblue" d="M784.021,-176.429C792.668,-177.056 801.32,-177.684 809.828,-178.3"/>
<polygon fill="midnightblue" stroke="midnightblue" points="784.109,-172.926 773.882,-175.694 783.603,-179.908 784.109,-172.926"/>
</g>
<!-- Node12&#45;&gt;Node3 -->
<g id="edge30" class="edge"><title>Node12&#45;&gt;Node3</title>
<path fill="none" stroke="midnightblue" d="M443.519,-260.035C466.056,-273.913 500.894,-293.244 534,-303 628.934,-330.977 742.269,-339.283 820.713,-341.325"/>
<polygon fill="midnightblue" stroke="midnightblue" points="445.27,-257.002 434.94,-254.648 441.548,-262.93 445.27,-257.002"/>
</g>
<!-- Node12&#45;&gt;Node4 -->
<g id="edge32" class="edge"><title>Node12&#45;&gt;Node4</title>
<path fill="none" stroke="midnightblue" d="M431.254,-263.267C450.313,-291.997 489.525,-346.386 534,-381 561.482,-402.389 598.125,-418.675 623.66,-428.465"/>
<polygon fill="midnightblue" stroke="midnightblue" points="433.978,-261.037 425.584,-254.573 428.115,-264.861 433.978,-261.037"/>
</g>
<!-- Node12&#45;&gt;Node6 -->
<g id="edge38" class="edge"><title>Node12&#45;&gt;Node6</title>
<path fill="none" stroke="midnightblue" d="M508.667,-248.775C580.442,-252.603 683.685,-258.122 774,-263 871.646,-268.274 983.903,-274.401 1058.28,-278.469"/>
<polygon fill="midnightblue" stroke="midnightblue" points="508.483,-245.26 498.311,-248.223 508.11,-252.25 508.483,-245.26"/>
</g>
<!-- Node12&#45;&gt;Node8 -->
<g id="edge34" class="edge"><title>Node12&#45;&gt;Node8</title>
<path fill="none" stroke="midnightblue" d="M447.957,-228.761C470.797,-217.272 503.74,-201.861 534,-192 552.008,-186.132 571.998,-181.322 590.416,-177.544"/>
<polygon fill="midnightblue" stroke="midnightblue" points="446.143,-225.757 438.824,-233.417 449.323,-231.993 446.143,-225.757"/>
</g>
<!-- Node12&#45;&gt;Node9 -->
<g id="edge36" class="edge"><title>Node12&#45;&gt;Node9</title>
<path fill="none" stroke="midnightblue" d="M508.339,-233.067C517.01,-232.023 525.674,-230.986 534,-230 632.779,-218.299 745.979,-205.313 823.351,-196.502"/>
<polygon fill="midnightblue" stroke="midnightblue" points="507.685,-229.62 498.176,-234.293 508.524,-236.57 507.685,-229.62"/>
</g>
<!-- Node13 -->
<g id="node33" class="node"><title>Node13</title>
<a xlink:href="class_input_engine.html#af2b4c31bf4b64b4b78815142511ab343" target="_top" xlink:title="InputEngine::getEventBoolValueBounce">
<polygon fill="white" stroke="black" points="558.5,-272.5 558.5,-293.5 749.5,-293.5 749.5,-272.5 558.5,-272.5"/>
<text text-anchor="middle" x="654" y="-280.5" font-family="Helvetica,sans-Serif" font-size="10.00">InputEngine::getEventBoolValueBounce</text>
</a>
</g>
<!-- Node12&#45;&gt;Node13 -->
<g id="edge40" class="edge"><title>Node12&#45;&gt;Node13</title>
<path fill="none" stroke="midnightblue" d="M492.325,-256.169C523.827,-261.397 560.288,-267.448 590.602,-272.479"/>
<polygon fill="midnightblue" stroke="midnightblue" points="492.723,-252.687 482.285,-254.503 491.577,-259.593 492.723,-252.687"/>
</g>
<!-- Node13&#45;&gt;Node3 -->
<g id="edge42" class="edge"><title>Node13&#45;&gt;Node3</title>
<path fill="none" stroke="midnightblue" d="M715.646,-295.56C734.403,-299.458 755.063,-303.827 774,-308 806.873,-315.243 843.917,-323.867 871.925,-330.483"/>
<polygon fill="midnightblue" stroke="midnightblue" points="716.24,-292.109 705.738,-293.508 714.821,-298.964 716.24,-292.109"/>
</g>
<!-- Node13&#45;&gt;Node6 -->
<g id="edge46" class="edge"><title>Node13&#45;&gt;Node6</title>
<path fill="none" stroke="midnightblue" d="M759.816,-283C849.34,-283 975.85,-283 1058.15,-283"/>
<polygon fill="midnightblue" stroke="midnightblue" points="759.634,-279.5 749.634,-283 759.634,-286.5 759.634,-279.5"/>
</g>
<!-- Node13&#45;&gt;Node9 -->
<g id="edge44" class="edge"><title>Node13&#45;&gt;Node9</title>
<path fill="none" stroke="midnightblue" d="M691.929,-268.958C744.96,-249.324 840.076,-214.109 887.498,-196.552"/>
<polygon fill="midnightblue" stroke="midnightblue" points="690.7,-265.68 682.537,-272.435 693.13,-272.245 690.7,-265.68"/>
</g>
<!-- Node14&#45;&gt;Node3 -->
<g id="edge50" class="edge"><title>Node14&#45;&gt;Node3</title>
<path fill="none" stroke="midnightblue" d="M732.828,-354.983C760.429,-352.876 791.724,-350.487 820.538,-348.287"/>
<polygon fill="midnightblue" stroke="midnightblue" points="732.542,-351.494 722.837,-355.745 733.075,-358.474 732.542,-351.494"/>
</g>
</g>
</svg>
        <g id="navigator" transform="translate(0 0)" fill="#404254">
                <rect fill="#f2f5e9" fill-opacity="0.5" stroke="#606060" stroke-width=".5" x="0" y="0" width="60" height="60"/>
                <use id="zoomplus" xlink:href="#zoomPlus" x="17" y="9" onmousedown="handleZoom(evt,'in')"/>
                <use id="zoomminus" xlink:href="#zoomMin" x="42" y="9" onmousedown="handleZoom(evt,'out')"/>
                <use id="reset" xlink:href="#resetDef" x="30" y="36" onmousedown="handleReset()"/>
                <g id="arrowUp" xlink:href="#dirArrow" transform="translate(30 24)" onmousedown="handlePan(0,-1)">
                  <use xlink:href="#rim" fill="#404040">
                        <set attributeName="fill" to="#808080" begin="arrowUp.mouseover" end="arrowUp.mouseout"/>
                  </use>
                  <path fill="none" stroke="white" stroke-width="1.5" d="M0,-3.0v7 M-2.5,-0.5L0,-3.0L2.5,-0.5"/>
                </g>
                <g id="arrowRight" xlink:href="#dirArrow" transform="rotate(90) translate(36 -43)" onmousedown="handlePan(1,0)">
                  <use xlink:href="#rim" fill="#404040">
                        <set attributeName="fill" to="#808080" begin="arrowRight.mouseover" end="arrowRight.mouseout"/>
                  </use>
                  <path fill="none" stroke="white" stroke-width="1.5" d="M0,-3.0v7 M-2.5,-0.5L0,-3.0L2.5,-0.5"/>
                </g>
                <g id="arrowDown" xlink:href="#dirArrow" transform="rotate(180) translate(-30 -48)" onmousedown="handlePan(0,1)">
                  <use xlink:href="#rim" fill="#404040">
                        <set attributeName="fill" to="#808080" begin="arrowDown.mouseover" end="arrowDown.mouseout"/>
                  </use>
                  <path fill="none" stroke="white" stroke-width="1.5" d="M0,-3.0v7 M-2.5,-0.5L0,-3.0L2.5,-0.5"/>
                </g>
                <g id="arrowLeft" xlink:href="#dirArrow" transform="rotate(270) translate(-36 17)" onmousedown="handlePan(-1,0)">
                  <use xlink:href="#rim" fill="#404040">
                        <set attributeName="fill" to="#808080" begin="arrowLeft.mouseover" end="arrowLeft.mouseout"/>
                  </use>
                  <path fill="none" stroke="white" stroke-width="1.5" d="M0,-3.0v7 M-2.5,-0.5L0,-3.0L2.5,-0.5"/>
                </g>
        </g>
</svg>
