<?xml version="1.0" encoding="UTF-8" standalone="no"?>
<!DOCTYPE svg PUBLIC "-//W3C//DTD SVG 1.1//EN"
 "http://www.w3.org/Graphics/SVG/1.1/DTD/svg11.dtd">
<!-- Generated by graphviz version 2.26.3 (20100126.1600)
 -->
<!-- Title: G Pages: 1 -->
<svg width="456pt" height="110pt"
 viewBox="0.00 0.00 456.00 110.00" xmlns="http://www.w3.org/2000/svg" xmlns:xlink="http://www.w3.org/1999/xlink">
<g id="graph1" class="graph" transform="scale(1 1) rotate(0) translate(4 106)">
<title>G</title>
<polygon fill="white" stroke="white" points="-4,5 -4,-106 453,-106 453,5 -4,5"/>
<!-- Node1 -->
<g id="node1" class="node"><title>Node1</title>
<polygon fill="#bfbfbf" stroke="black" points="0,-40.5 0,-61.5 218,-61.5 218,-40.5 0,-40.5"/>
<text text-anchor="middle" x="109" y="-48.5" font-family="Helvetica,sans-Serif" font-size="10.00">Hydrax::Module::RadialGrid::_createGeometry</text>
</g>
<!-- Node2 -->
<g id="node3" class="node"><title>Node2</title>
<a xlink:href="class_hydrax_1_1_mesh.html#a2eca9f2fe7879fd541163a5b21b17323" target="_top" xlink:title="Hydrax::Mesh::getSubMesh">
<polygon fill="white" stroke="black" points="281.5,-80.5 281.5,-101.5 420.5,-101.5 420.5,-80.5 281.5,-80.5"/>
<text text-anchor="middle" x="351" y="-88.5" font-family="Helvetica,sans-Serif" font-size="10.00">Hydrax::Mesh::getSubMesh</text>
</a>
</g>
<!-- Node1&#45;&gt;Node2 -->
<g id="edge2" class="edge"><title>Node1&#45;&gt;Node2</title>
<path fill="none" stroke="midnightblue" d="M172.583,-61.5095C204.691,-66.8167 243.822,-73.2846 277.246,-78.8093"/>
<polygon fill="midnightblue" stroke="midnightblue" points="276.985,-82.3136 287.422,-80.4913 278.127,-75.4073 276.985,-82.3136"/>
</g>
<!-- Node3 -->
<g id="node5" class="node"><title>Node3</title>
<a xlink:href="class_hydrax_1_1_mesh.html#a429bf7b9c15604e6a2e3a988b2473484" target="_top" xlink:title="Hydrax::Mesh::getHardwareVertexBuffer">
<polygon fill="white" stroke="black" points="254,-40.5 254,-61.5 448,-61.5 448,-40.5 254,-40.5"/>
<text text-anchor="middle" x="351" y="-48.5" font-family="Helvetica,sans-Serif" font-size="10.00">Hydrax::Mesh::getHardwareVertexBuffer</text>
</a>
</g>
<!-- Node1&#45;&gt;Node3 -->
<g id="edge4" class="edge"><title>Node1&#45;&gt;Node3</title>
<path fill="none" stroke="midnightblue" d="M218.318,-51C226.689,-51 235.135,-51 243.494,-51"/>
<polygon fill="midnightblue" stroke="midnightblue" points="243.636,-54.5001 253.636,-51 243.636,-47.5001 243.636,-54.5001"/>
</g>
<!-- Node4 -->
<g id="node7" class="node"><title>Node4</title>
<a xlink:href="class_hydrax_1_1_mesh.html#ab7eee5c0eafda96c493533ae26e73c65" target="_top" xlink:title="Hydrax::Mesh::getHardwareIndexBuffer">
<polygon fill="white" stroke="black" points="256,-0.5 256,-21.5 446,-21.5 446,-0.5 256,-0.5"/>
<text text-anchor="middle" x="351" y="-8.5" font-family="Helvetica,sans-Serif" font-size="10.00">Hydrax::Mesh::getHardwareIndexBuffer</text>
</a>
</g>
<!-- Node1&#45;&gt;Node4 -->
<g id="edge6" class="edge"><title>Node1&#45;&gt;Node4</title>
<path fill="none" stroke="midnightblue" d="M172.583,-40.4905C204.691,-35.1833 243.822,-28.7154 277.246,-23.1907"/>
<polygon fill="midnightblue" stroke="midnightblue" points="278.127,-26.5927 287.422,-21.5087 276.985,-19.6864 278.127,-26.5927"/>
</g>
</g>
</svg>
