<?xml version="1.0" encoding="UTF-8" standalone="no"?>
<!DOCTYPE svg PUBLIC "-//W3C//DTD SVG 1.1//EN"
 "http://www.w3.org/Graphics/SVG/1.1/DTD/svg11.dtd">
<!-- Generated by graphviz version 2.26.3 (20100126.1600)
 -->
<!-- Title: G Pages: 1 -->
<svg width="498pt" height="70pt"
 viewBox="0.00 0.00 498.00 70.00" xmlns="http://www.w3.org/2000/svg" xmlns:xlink="http://www.w3.org/1999/xlink">
<g id="graph1" class="graph" transform="scale(1 1) rotate(0) translate(4 66)">
<title>G</title>
<polygon fill="white" stroke="white" points="-4,5 -4,-66 495,-66 495,5 -4,5"/>
<!-- Node1 -->
<g id="node1" class="node"><title>Node1</title>
<polygon fill="#bfbfbf" stroke="black" points="0.5,-20.5 0.5,-41.5 89.5,-41.5 89.5,-20.5 0.5,-20.5"/>
<text text-anchor="middle" x="45" y="-28.5" font-family="Helvetica,sans-Serif" font-size="10.00">Character::move</text>
</g>
<!-- Node2 -->
<g id="node3" class="node"><title>Node2</title>
<a xlink:href="class_ro_r_frame_listener.html#a6b384193b130f7c1fff95d2e740a370e" target="_top" xlink:title="RoRFrameListener::updateEvents">
<polygon fill="white" stroke="black" points="126.5,-40.5 126.5,-61.5 291.5,-61.5 291.5,-40.5 126.5,-40.5"/>
<text text-anchor="middle" x="209" y="-48.5" font-family="Helvetica,sans-Serif" font-size="10.00">RoRFrameListener::updateEvents</text>
</a>
</g>
<!-- Node1&#45;&gt;Node2 -->
<g id="edge2" class="edge"><title>Node1&#45;&gt;Node2</title>
<path fill="none" stroke="midnightblue" d="M99.958,-37.7022C108.476,-38.741 117.433,-39.8333 126.399,-40.9268"/>
<polygon fill="midnightblue" stroke="midnightblue" points="100.164,-34.2015 89.8137,-36.4651 99.3165,-41.15 100.164,-34.2015"/>
</g>
<!-- Node4 -->
<g id="node7" class="node"><title>Node4</title>
<a xlink:href="class_game_script.html#a192de8fb4f34efda8c64768e1503ad4f" target="_top" xlink:title="GameScript::movePerson">
<polygon fill="white" stroke="black" points="144.5,-0.5 144.5,-21.5 273.5,-21.5 273.5,-0.5 144.5,-0.5"/>
<text text-anchor="middle" x="209" y="-8.5" font-family="Helvetica,sans-Serif" font-size="10.00">GameScript::movePerson</text>
</a>
</g>
<!-- Node1&#45;&gt;Node4 -->
<g id="edge6" class="edge"><title>Node1&#45;&gt;Node4</title>
<path fill="none" stroke="midnightblue" d="M99.9229,-24.3021C114.142,-22.568 129.585,-20.6847 144.256,-18.8956"/>
<polygon fill="midnightblue" stroke="midnightblue" points="99.3165,-20.85 89.8137,-25.5349 100.164,-27.7985 99.3165,-20.85"/>
</g>
<!-- Node3 -->
<g id="node5" class="node"><title>Node3</title>
<a xlink:href="class_ro_r_frame_listener.html#acd8647e188fb8e838689492965b86faf" target="_top" xlink:title="RoRFrameListener::frameStarted">
<polygon fill="white" stroke="black" points="328.5,-40.5 328.5,-61.5 489.5,-61.5 489.5,-40.5 328.5,-40.5"/>
<text text-anchor="middle" x="409" y="-48.5" font-family="Helvetica,sans-Serif" font-size="10.00">RoRFrameListener::frameStarted</text>
</a>
</g>
<!-- Node2&#45;&gt;Node3 -->
<g id="edge4" class="edge"><title>Node2&#45;&gt;Node3</title>
<path fill="none" stroke="midnightblue" d="M301.541,-51C310.476,-51 319.491,-51 328.299,-51"/>
<polygon fill="midnightblue" stroke="midnightblue" points="301.502,-47.5001 291.502,-51 301.502,-54.5001 301.502,-47.5001"/>
</g>
</g>
</svg>
