<?xml version="1.0" encoding="UTF-8" standalone="no"?>
<!DOCTYPE svg PUBLIC "-//W3C//DTD SVG 1.1//EN"
 "http://www.w3.org/Graphics/SVG/1.1/DTD/svg11.dtd">
<!-- Generated by graphviz version 2.26.3 (20100126.1600)
 -->
<!-- Title: Ogre::MovableText::_updateRenderQueue Pages: 1 -->
<svg width="404pt" height="65pt"
 viewBox="0.00 0.00 404.00 65.00" xmlns="http://www.w3.org/2000/svg" xmlns:xlink="http://www.w3.org/1999/xlink">
<g id="graph1" class="graph" transform="scale(1 1) rotate(0) translate(4 61)">
<title>Ogre::MovableText::_updateRenderQueue</title>
<polygon fill="white" stroke="white" points="-4,5 -4,-61 401,-61 401,5 -4,5"/>
<!-- Node1 -->
<g id="node1" class="node"><title>Node1</title>
<polygon fill="#bfbfbf" stroke="black" points="0.5,-0 0.5,-34 111.5,-34 111.5,-0 0.5,-0"/>
<text text-anchor="start" x="8.5" y="-21" font-family="Helvetica,sans-Serif" font-size="10.00">Ogre::MovableText::</text>
<text text-anchor="middle" x="56" y="-8" font-family="Helvetica,sans-Serif" font-size="10.00">_updateRenderQueue</text>
</g>
<!-- Node2 -->
<g id="node3" class="node"><title>Node2</title>
<a xlink:href="class_ogre_1_1_movable_text.html#a1414bbe8133feca96a3a425c94e6f063" target="_top" xlink:title="Ogre::MovableText::\l_setupGeometry">
<polygon fill="white" stroke="black" points="148,-23 148,-57 254,-57 254,-23 148,-23"/>
<text text-anchor="start" x="156" y="-44" font-family="Helvetica,sans-Serif" font-size="10.00">Ogre::MovableText::</text>
<text text-anchor="middle" x="201" y="-31" font-family="Helvetica,sans-Serif" font-size="10.00">_setupGeometry</text>
</a>
</g>
<!-- Node1&#45;&gt;Node2 -->
<g id="edge2" class="edge"><title>Node1&#45;&gt;Node2</title>
<path fill="none" stroke="midnightblue" d="M111.646,-25.8266C120.142,-27.1742 128.964,-28.5736 137.611,-29.9452"/>
<polygon fill="midnightblue" stroke="midnightblue" points="137.226,-33.4278 147.651,-31.5377 138.323,-26.5142 137.226,-33.4278"/>
</g>
<!-- Node3 -->
<g id="node5" class="node"><title>Node3</title>
<a xlink:href="class_ogre_1_1_movable_text.html#af39ecbbae96d642b5e4a1a2889d3cb87" target="_top" xlink:title="Ogre::MovableText::\l_updateColors">
<polygon fill="white" stroke="black" points="290,-0 290,-34 396,-34 396,-0 290,-0"/>
<text text-anchor="start" x="298" y="-21" font-family="Helvetica,sans-Serif" font-size="10.00">Ogre::MovableText::</text>
<text text-anchor="middle" x="343" y="-8" font-family="Helvetica,sans-Serif" font-size="10.00">_updateColors</text>
</a>
</g>
<!-- Node1&#45;&gt;Node3 -->
<g id="edge6" class="edge"><title>Node1&#45;&gt;Node3</title>
<path fill="none" stroke="midnightblue" d="M111.942,-14.8842C123.843,-14.5158 136.336,-14.1901 148,-14 195.105,-13.2322 206.896,-13.2063 254,-14 262.333,-14.1404 271.103,-14.3547 279.756,-14.6055"/>
<polygon fill="midnightblue" stroke="midnightblue" points="279.725,-18.1061 289.827,-14.9145 279.939,-11.1094 279.725,-18.1061"/>
</g>
<!-- Node2&#45;&gt;Node3 -->
<g id="edge4" class="edge"><title>Node2&#45;&gt;Node3</title>
<path fill="none" stroke="midnightblue" d="M254.28,-31.3702C262.651,-30.0143 271.374,-28.6015 279.94,-27.2139"/>
<polygon fill="midnightblue" stroke="midnightblue" points="280.582,-30.6556 289.894,-25.6017 279.463,-23.7457 280.582,-30.6556"/>
</g>
</g>
</svg>
