<?xml version="1.0" encoding="UTF-8" standalone="no"?>
<!DOCTYPE svg PUBLIC "-//W3C//DTD SVG 1.1//EN"
 "http://www.w3.org/Graphics/SVG/1.1/DTD/svg11.dtd">
<!-- Generated by graphviz version 2.26.3 (20100126.1600)
 -->
<!-- Title: TerrainManager::initScripting Pages: 1 -->
<!--zoomable 146 -->
<svg id="main" version="1.1" xmlns="http://www.w3.org/2000/svg" xmlns:xlink="http://www.w3.org/1999/xlink" xml:space="preserve" onload="init(evt)">
<style type="text/css"><![CDATA[
.edge:hover path { stroke: red; }
.edge:hover polygon { stroke: red; fill: red; }
]]></style>
<script type="text/javascript"><![CDATA[
var edges = document.getElementsByTagName('g');
if (edges && edges.length) {
  for (var i=0;i<edges.length;i++) {
    if (edges[i].id.substr(0,4)=='edge') {
      edges[i].setAttribute('class','edge');
    }
  }
}
]]></script>
        <defs>
                <circle id="rim" cx="0" cy="0" r="7"/>
                <circle id="rim2" cx="0" cy="0" r="3.5"/>
                <g id="zoomPlus">
                        <use xlink:href="#rim" fill="#404040">
                                <set attributeName="fill" to="#808080" begin="zoomplus.mouseover" end="zoomplus.mouseout"/>
                        </use>
                        <path d="M-4,0h8M0,-4v8" fill="none" stroke="white" stroke-width="1.5" pointer-events="none"/>
                </g>
                <g id="zoomMin">
                        <use xlink:href="#rim" fill="#404040">
                                <set attributeName="fill" to="#808080" begin="zoomminus.mouseover" end="zoomminus.mouseout"/>
                        </use>
                        <path d="M-4,0h8" fill="none" stroke="white" stroke-width="1.5" pointer-events="none"/>
                </g>
                <g id="dirArrow">
                        <path fill="none" stroke="white" stroke-width="1.5" d="M0,-3.0v7 M-2.5,-0.5L0,-3.0L2.5,-0.5"/>
                </g>
               <g id="resetDef">
                       <use xlink:href="#rim2" fill="#404040">
                               <set attributeName="fill" to="#808080" begin="reset.mouseover" end="reset.mouseout"/>
                       </use>
               </g>
        </defs>

<script type="text/javascript">
var viewWidth = 506;
var viewHeight = 146;
var sectionId = 'dynsection-37';
</script>
<script xlink:href="svgpan.js"/>
<svg id="graph" class="graph">
<g id="viewport">
<title>TerrainManager::initScripting</title>
<polygon fill="white" stroke="white" points="-4,5 -4,-142 503,-142 503,5 -4,5"/>
<!-- Node1 -->
<g id="node1" class="node"><title>Node1</title>
<polygon fill="#bfbfbf" stroke="black" points="0.5,-58.5 0.5,-79.5 141.5,-79.5 141.5,-58.5 0.5,-58.5"/>
<text text-anchor="middle" x="71" y="-66.5" font-family="Helvetica,sans-Serif" font-size="10.00">TerrainManager::initScripting</text>
</g>
<!-- Node2 -->
<g id="node3" class="node"><title>Node2</title>
<a xlink:href="class_ro_r_singleton_no_creation.html#a5e7a47f4b2d6d0abaa3a1ea5ca1f216a" target="_top" xlink:title="RoRSingletonNoCreation\l\&lt; ScriptEngine \&gt;::getSingleton">
<polygon fill="white" stroke="black" points="178,-98 178,-132 328,-132 328,-98 178,-98"/>
<text text-anchor="start" x="186" y="-119" font-family="Helvetica,sans-Serif" font-size="10.00">RoRSingletonNoCreation</text>
<text text-anchor="middle" x="253" y="-106" font-family="Helvetica,sans-Serif" font-size="10.00">&lt; ScriptEngine &gt;::getSingleton</text>
</a>
</g>
<!-- Node1&#45;&gt;Node2 -->
<g id="edge2" class="edge"><title>Node1&#45;&gt;Node2</title>
<path fill="none" stroke="midnightblue" d="M112.754,-79.5533C131.411,-84.2688 154.02,-89.983 175.587,-95.434"/>
<polygon fill="midnightblue" stroke="midnightblue" points="174.852,-98.8583 185.405,-97.9155 176.567,-92.0717 174.852,-98.8583"/>
</g>
<!-- Node3 -->
<g id="node5" class="node"><title>Node3</title>
<a xlink:href="class_script_engine.html#ac68e1af1ce392aae7b8f76619c431fdd" target="_top" xlink:title="ScriptEngine::loadScript">
<polygon fill="white" stroke="black" points="192,-58.5 192,-79.5 314,-79.5 314,-58.5 192,-58.5"/>
<text text-anchor="middle" x="253" y="-66.5" font-family="Helvetica,sans-Serif" font-size="10.00">ScriptEngine::loadScript</text>
</a>
</g>
<!-- Node1&#45;&gt;Node3 -->
<g id="edge4" class="edge"><title>Node1&#45;&gt;Node3</title>
<path fill="none" stroke="midnightblue" d="M141.626,-69C154.714,-69 168.395,-69 181.508,-69"/>
<polygon fill="midnightblue" stroke="midnightblue" points="181.881,-72.5001 191.881,-69 181.881,-65.5001 181.881,-72.5001"/>
</g>
<!-- Node7 -->
<g id="node13" class="node"><title>Node7</title>
<a xlink:href="class_script_engine.html#a8192bd23d49d9e4fef0977b68d1a3c97" target="_top" xlink:title="ScriptEngine::activateLogging">
<polygon fill="white" stroke="black" points="180,-18.5 180,-39.5 326,-39.5 326,-18.5 180,-18.5"/>
<text text-anchor="middle" x="253" y="-26.5" font-family="Helvetica,sans-Serif" font-size="10.00">ScriptEngine::activateLogging</text>
</a>
</g>
<!-- Node1&#45;&gt;Node7 -->
<g id="edge12" class="edge"><title>Node1&#45;&gt;Node7</title>
<path fill="none" stroke="midnightblue" d="M118.818,-58.4905C142.237,-53.3434 170.624,-47.1046 195.246,-41.6933"/>
<polygon fill="midnightblue" stroke="midnightblue" points="196.17,-45.0738 205.185,-39.5087 194.667,-38.2369 196.17,-45.0738"/>
</g>
<!-- Node4 -->
<g id="node7" class="node"><title>Node4</title>
<a xlink:href="class_ogre_script_builder.html#af37a183ce273f5e63e7efc2360accbdc" target="_top" xlink:title="OgreScriptBuilder::\lgetHash">
<polygon fill="white" stroke="black" points="381.5,-104 381.5,-138 480.5,-138 480.5,-104 381.5,-104"/>
<text text-anchor="start" x="389.5" y="-125" font-family="Helvetica,sans-Serif" font-size="10.00">OgreScriptBuilder::</text>
<text text-anchor="middle" x="431" y="-112" font-family="Helvetica,sans-Serif" font-size="10.00">getHash</text>
</a>
</g>
<!-- Node3&#45;&gt;Node4 -->
<g id="edge6" class="edge"><title>Node3&#45;&gt;Node4</title>
<path fill="none" stroke="midnightblue" d="M293.954,-79.5989C305.029,-82.5527 316.995,-85.8244 328,-89 342.179,-93.0913 357.39,-97.6965 371.654,-102.111"/>
<polygon fill="midnightblue" stroke="midnightblue" points="370.764,-105.5 381.353,-105.129 372.844,-98.816 370.764,-105.5"/>
</g>
<!-- Node5 -->
<g id="node9" class="node"><title>Node5</title>
<a xlink:href="class_ro_r_1_1_application.html#a5082701abd55926b3c6eb4b0c933eca5" target="_top" xlink:title="RoR::Application::GetOgre\lSubsystem">
<polygon fill="white" stroke="black" points="364,-52 364,-86 498,-86 498,-52 364,-52"/>
<text text-anchor="start" x="372" y="-73" font-family="Helvetica,sans-Serif" font-size="10.00">RoR::Application::GetOgre</text>
<text text-anchor="middle" x="431" y="-60" font-family="Helvetica,sans-Serif" font-size="10.00">Subsystem</text>
</a>
</g>
<!-- Node3&#45;&gt;Node5 -->
<g id="edge8" class="edge"><title>Node3&#45;&gt;Node5</title>
<path fill="none" stroke="midnightblue" d="M314.258,-69C326.999,-69 340.584,-69 353.814,-69"/>
<polygon fill="midnightblue" stroke="midnightblue" points="353.843,-72.5001 363.843,-69 353.843,-65.5001 353.843,-72.5001"/>
</g>
<!-- Node6 -->
<g id="node11" class="node"><title>Node6</title>
<a xlink:href="class_ro_r_1_1_ogre_subsystem.html#a5ad78edb253dc8c811dee7195df3463e" target="_top" xlink:title="RoR::OgreSubsystem\l::GetTimeSinceStartup">
<polygon fill="white" stroke="black" points="373,-0 373,-34 489,-34 489,-0 373,-0"/>
<text text-anchor="start" x="381" y="-21" font-family="Helvetica,sans-Serif" font-size="10.00">RoR::OgreSubsystem</text>
<text text-anchor="middle" x="431" y="-8" font-family="Helvetica,sans-Serif" font-size="10.00">::GetTimeSinceStartup</text>
</a>
</g>
<!-- Node3&#45;&gt;Node6 -->
<g id="edge10" class="edge"><title>Node3&#45;&gt;Node6</title>
<path fill="none" stroke="midnightblue" d="M293.954,-58.4011C305.029,-55.4473 316.995,-52.1756 328,-49 340.903,-45.2769 354.66,-41.1284 367.781,-37.085"/>
<polygon fill="midnightblue" stroke="midnightblue" points="369.149,-40.3252 377.665,-34.0222 367.077,-33.6389 369.149,-40.3252"/>
</g>
</g>
</svg>
        <g id="navigator" transform="translate(0 0)" fill="#404254">
                <rect fill="#f2f5e9" fill-opacity="0.5" stroke="#606060" stroke-width=".5" x="0" y="0" width="60" height="60"/>
                <use id="zoomplus" xlink:href="#zoomPlus" x="17" y="9" onmousedown="handleZoom(evt,'in')"/>
                <use id="zoomminus" xlink:href="#zoomMin" x="42" y="9" onmousedown="handleZoom(evt,'out')"/>
                <use id="reset" xlink:href="#resetDef" x="30" y="36" onmousedown="handleReset()"/>
                <g id="arrowUp" xlink:href="#dirArrow" transform="translate(30 24)" onmousedown="handlePan(0,-1)">
                  <use xlink:href="#rim" fill="#404040">
                        <set attributeName="fill" to="#808080" begin="arrowUp.mouseover" end="arrowUp.mouseout"/>
                  </use>
                  <path fill="none" stroke="white" stroke-width="1.5" d="M0,-3.0v7 M-2.5,-0.5L0,-3.0L2.5,-0.5"/>
                </g>
                <g id="arrowRight" xlink:href="#dirArrow" transform="rotate(90) translate(36 -43)" onmousedown="handlePan(1,0)">
                  <use xlink:href="#rim" fill="#404040">
                        <set attributeName="fill" to="#808080" begin="arrowRight.mouseover" end="arrowRight.mouseout"/>
                  </use>
                  <path fill="none" stroke="white" stroke-width="1.5" d="M0,-3.0v7 M-2.5,-0.5L0,-3.0L2.5,-0.5"/>
                </g>
                <g id="arrowDown" xlink:href="#dirArrow" transform="rotate(180) translate(-30 -48)" onmousedown="handlePan(0,1)">
                  <use xlink:href="#rim" fill="#404040">
                        <set attributeName="fill" to="#808080" begin="arrowDown.mouseover" end="arrowDown.mouseout"/>
                  </use>
                  <path fill="none" stroke="white" stroke-width="1.5" d="M0,-3.0v7 M-2.5,-0.5L0,-3.0L2.5,-0.5"/>
                </g>
                <g id="arrowLeft" xlink:href="#dirArrow" transform="rotate(270) translate(-36 17)" onmousedown="handlePan(-1,0)">
                  <use xlink:href="#rim" fill="#404040">
                        <set attributeName="fill" to="#808080" begin="arrowLeft.mouseover" end="arrowLeft.mouseout"/>
                  </use>
                  <path fill="none" stroke="white" stroke-width="1.5" d="M0,-3.0v7 M-2.5,-0.5L0,-3.0L2.5,-0.5"/>
                </g>
        </g>
        <svg viewBox="0 0 15 15" width="100%" height="30px" preserveAspectRatio="xMaxYMin meet">
         <g id="arrow_out" transform="scale(0.3 0.3)">
          <a xlink:href="class_terrain_manager_aab929f1c780a2f8351025987b7930a6d_cgraph_org.svg" target="_base">
           <rect id="button" ry="5" rx="5" y="6" x="6" height="38" width="38"
                fill="#f2f5e9" fill-opacity="0.5" stroke="#606060" stroke-width="1.0"/>
           <path id="arrow"
             d="M 11.500037,31.436501 C 11.940474,20.09759 22.043105,11.32322 32.158766,21.979434 L 37.068811,17.246167 C 37.068811,17.246167 37.088388,32 37.088388,32 L 22.160133,31.978069 C 22.160133,31.978069 26.997745,27.140456 26.997745,27.140456 C 18.528582,18.264221 13.291696,25.230495 11.500037,31.436501 z"
             style="fill:#404040;"/>
          </a>
         </g>
        </svg>
</svg>
