<?xml version="1.0" encoding="UTF-8" standalone="no"?>
<!DOCTYPE svg PUBLIC "-//W3C//DTD SVG 1.1//EN"
 "http://www.w3.org/Graphics/SVG/1.1/DTD/svg11.dtd">
<!-- Generated by graphviz version 2.26.3 (20100126.1600)
 -->
<!-- Title: BeamFactory::findTruckInsideBox Pages: 1 -->
<svg width="898pt" height="122pt"
 viewBox="0.00 0.00 898.00 122.00" xmlns="http://www.w3.org/2000/svg" xmlns:xlink="http://www.w3.org/1999/xlink">
<g id="graph1" class="graph" transform="scale(1 1) rotate(0) translate(4 118)">
<title>BeamFactory::findTruckInsideBox</title>
<polygon fill="white" stroke="white" points="-4,5 -4,-118 895,-118 895,5 -4,5"/>
<!-- Node1 -->
<g id="node1" class="node"><title>Node1</title>
<polygon fill="#bfbfbf" stroke="black" points="0.5,-67.5 0.5,-88.5 165.5,-88.5 165.5,-67.5 0.5,-67.5"/>
<text text-anchor="middle" x="83" y="-75.5" font-family="Helvetica,sans-Serif" font-size="10.00">BeamFactory::findTruckInsideBox</text>
</g>
<!-- Node2 -->
<g id="node3" class="node"><title>Node2</title>
<a xlink:href="class_beam_factory.html#a508cb7a834236ed7786f780bbe6f84f6" target="_top" xlink:title="BeamFactory::repairTruck">
<polygon fill="white" stroke="black" points="206,-89.5 206,-110.5 336,-110.5 336,-89.5 206,-89.5"/>
<text text-anchor="middle" x="271" y="-97.5" font-family="Helvetica,sans-Serif" font-size="10.00">BeamFactory::repairTruck</text>
</a>
</g>
<!-- Node1&#45;&gt;Node2 -->
<g id="edge2" class="edge"><title>Node1&#45;&gt;Node2</title>
<path fill="none" stroke="midnightblue" d="M175.822,-88.8622C185.934,-90.0455 196.065,-91.231 205.746,-92.3638"/>
<polygon fill="midnightblue" stroke="midnightblue" points="176.072,-85.3676 165.733,-87.6815 175.259,-92.3202 176.072,-85.3676"/>
</g>
<!-- Node4 -->
<g id="node7" class="node"><title>Node4</title>
<a xlink:href="class_beam_factory.html#ac8a9a6f08309a8a30f714e0480eaded6" target="_top" xlink:title="BeamFactory::removeTruck">
<polygon fill="white" stroke="black" points="202,-46.5 202,-67.5 340,-67.5 340,-46.5 202,-46.5"/>
<text text-anchor="middle" x="271" y="-54.5" font-family="Helvetica,sans-Serif" font-size="10.00">BeamFactory::removeTruck</text>
</a>
</g>
<!-- Node1&#45;&gt;Node4 -->
<g id="edge6" class="edge"><title>Node1&#45;&gt;Node4</title>
<path fill="none" stroke="midnightblue" d="M175.915,-67.6212C184.609,-66.6501 193.314,-65.6776 201.735,-64.737"/>
<polygon fill="midnightblue" stroke="midnightblue" points="175.283,-64.17 165.733,-68.7585 176.06,-71.1267 175.283,-64.17"/>
</g>
<!-- Node3 -->
<g id="node5" class="node"><title>Node3</title>
<a xlink:href="class_game_script.html#ae03ec6ab884db49101677f34621651b7" target="_top" xlink:title="GameScript::repairVehicle">
<polygon fill="white" stroke="black" points="383.5,-92.5 383.5,-113.5 514.5,-113.5 514.5,-92.5 383.5,-92.5"/>
<text text-anchor="middle" x="449" y="-100.5" font-family="Helvetica,sans-Serif" font-size="10.00">GameScript::repairVehicle</text>
</a>
</g>
<!-- Node2&#45;&gt;Node3 -->
<g id="edge4" class="edge"><title>Node2&#45;&gt;Node3</title>
<path fill="none" stroke="midnightblue" d="M346.247,-101.268C358.55,-101.476 371.213,-101.689 383.264,-101.892"/>
<polygon fill="midnightblue" stroke="midnightblue" points="346.075,-97.7649 336.018,-101.096 345.957,-104.764 346.075,-97.7649"/>
</g>
<!-- Node5 -->
<g id="node9" class="node"><title>Node5</title>
<a xlink:href="class_beam_factory.html#afa248b1ef2e676da82dc5aa71a572d32" target="_top" xlink:title="BeamFactory::removeCurrent\lTruck">
<polygon fill="white" stroke="black" points="376,-40 376,-74 522,-74 522,-40 376,-40"/>
<text text-anchor="start" x="384" y="-61" font-family="Helvetica,sans-Serif" font-size="10.00">BeamFactory::removeCurrent</text>
<text text-anchor="middle" x="449" y="-48" font-family="Helvetica,sans-Serif" font-size="10.00">Truck</text>
</a>
</g>
<!-- Node4&#45;&gt;Node5 -->
<g id="edge8" class="edge"><title>Node4&#45;&gt;Node5</title>
<path fill="none" stroke="midnightblue" d="M350.344,-57C358.83,-57 367.433,-57 375.842,-57"/>
<polygon fill="midnightblue" stroke="midnightblue" points="350.074,-53.5001 340.074,-57 350.074,-60.5001 350.074,-53.5001"/>
</g>
<!-- Node8 -->
<g id="node15" class="node"><title>Node8</title>
<a xlink:href="class_game_script.html#ab2bdcdd885e42e7d5db9c648721708b5" target="_top" xlink:title="GameScript::removeVehicle">
<polygon fill="white" stroke="black" points="379.5,-0.5 379.5,-21.5 518.5,-21.5 518.5,-0.5 379.5,-0.5"/>
<text text-anchor="middle" x="449" y="-8.5" font-family="Helvetica,sans-Serif" font-size="10.00">GameScript::removeVehicle</text>
</a>
</g>
<!-- Node4&#45;&gt;Node8 -->
<g id="edge14" class="edge"><title>Node4&#45;&gt;Node8</title>
<path fill="none" stroke="midnightblue" d="M321.658,-43.9087C349.124,-36.8108 382.613,-28.1563 408.353,-21.5042"/>
<polygon fill="midnightblue" stroke="midnightblue" points="320.643,-40.5559 311.837,-46.4467 322.394,-47.3332 320.643,-40.5559"/>
</g>
<!-- Node6 -->
<g id="node11" class="node"><title>Node6</title>
<a xlink:href="class_ro_r_frame_listener.html#a6b384193b130f7c1fff95d2e740a370e" target="_top" xlink:title="RoRFrameListener::update\lEvents">
<polygon fill="white" stroke="black" points="558,-40 558,-74 692,-74 692,-40 558,-40"/>
<text text-anchor="start" x="566" y="-61" font-family="Helvetica,sans-Serif" font-size="10.00">RoRFrameListener::update</text>
<text text-anchor="middle" x="625" y="-48" font-family="Helvetica,sans-Serif" font-size="10.00">Events</text>
</a>
</g>
<!-- Node5&#45;&gt;Node6 -->
<g id="edge10" class="edge"><title>Node5&#45;&gt;Node6</title>
<path fill="none" stroke="midnightblue" d="M532.14,-57C540.723,-57 549.369,-57 557.749,-57"/>
<polygon fill="midnightblue" stroke="midnightblue" points="532.111,-53.5001 522.111,-57 532.111,-60.5001 532.111,-53.5001"/>
</g>
<!-- Node7 -->
<g id="node13" class="node"><title>Node7</title>
<a xlink:href="class_ro_r_frame_listener.html#acd8647e188fb8e838689492965b86faf" target="_top" xlink:title="RoRFrameListener::frameStarted">
<polygon fill="white" stroke="black" points="728.5,-46.5 728.5,-67.5 889.5,-67.5 889.5,-46.5 728.5,-46.5"/>
<text text-anchor="middle" x="809" y="-54.5" font-family="Helvetica,sans-Serif" font-size="10.00">RoRFrameListener::frameStarted</text>
</a>
</g>
<!-- Node6&#45;&gt;Node7 -->
<g id="edge12" class="edge"><title>Node6&#45;&gt;Node7</title>
<path fill="none" stroke="midnightblue" d="M702.483,-57C710.991,-57 719.669,-57 728.216,-57"/>
<polygon fill="midnightblue" stroke="midnightblue" points="702.209,-53.5001 692.209,-57 702.209,-60.5001 702.209,-53.5001"/>
</g>
</g>
</svg>
