<?xml version="1.0" encoding="UTF-8" standalone="no"?>
<!DOCTYPE svg PUBLIC "-//W3C//DTD SVG 1.1//EN"
 "http://www.w3.org/Graphics/SVG/1.1/DTD/svg11.dtd">
<!-- Generated by graphviz version 2.26.3 (20100126.1600)
 -->
<!-- Title: RoRFrameListener::showLoad Pages: 1 -->
<!--zoomable 508 -->
<svg id="main" version="1.1" xmlns="http://www.w3.org/2000/svg" xmlns:xlink="http://www.w3.org/1999/xlink" xml:space="preserve" onload="init(evt)">
<style type="text/css"><![CDATA[
.edge:hover path { stroke: red; }
.edge:hover polygon { stroke: red; fill: red; }
]]></style>
<script type="text/javascript"><![CDATA[
var edges = document.getElementsByTagName('g');
if (edges && edges.length) {
  for (var i=0;i<edges.length;i++) {
    if (edges[i].id.substr(0,4)=='edge') {
      edges[i].setAttribute('class','edge');
    }
  }
}
]]></script>
        <defs>
                <circle id="rim" cx="0" cy="0" r="7"/>
                <circle id="rim2" cx="0" cy="0" r="3.5"/>
                <g id="zoomPlus">
                        <use xlink:href="#rim" fill="#404040">
                                <set attributeName="fill" to="#808080" begin="zoomplus.mouseover" end="zoomplus.mouseout"/>
                        </use>
                        <path d="M-4,0h8M0,-4v8" fill="none" stroke="white" stroke-width="1.5" pointer-events="none"/>
                </g>
                <g id="zoomMin">
                        <use xlink:href="#rim" fill="#404040">
                                <set attributeName="fill" to="#808080" begin="zoomminus.mouseover" end="zoomminus.mouseout"/>
                        </use>
                        <path d="M-4,0h8" fill="none" stroke="white" stroke-width="1.5" pointer-events="none"/>
                </g>
                <g id="dirArrow">
                        <path fill="none" stroke="white" stroke-width="1.5" d="M0,-3.0v7 M-2.5,-0.5L0,-3.0L2.5,-0.5"/>
                </g>
               <g id="resetDef">
                       <use xlink:href="#rim2" fill="#404040">
                               <set attributeName="fill" to="#808080" begin="reset.mouseover" end="reset.mouseout"/>
                       </use>
               </g>
        </defs>

<script type="text/javascript">
var viewWidth = 370;
var viewHeight = 508;
var sectionId = 'dynsection-19';
</script>
<script xlink:href="svgpan.js"/>
<svg id="graph" class="graph">
<g id="viewport">
<title>RoRFrameListener::showLoad</title>
<polygon fill="white" stroke="white" points="-4,5 -4,-504 367,-504 367,5 -4,5"/>
<!-- Node1 -->
<g id="node1" class="node"><title>Node1</title>
<polygon fill="#bfbfbf" stroke="black" points="0.5,-229.5 0.5,-250.5 149.5,-250.5 149.5,-229.5 0.5,-229.5"/>
<text text-anchor="middle" x="75" y="-237.5" font-family="Helvetica,sans-Serif" font-size="10.00">RoRFrameListener::showLoad</text>
</g>
<!-- Node2 -->
<g id="node3" class="node"><title>Node2</title>
<a xlink:href="class_streamable_factory.html#a233cafcf6f87f5779b1a26a5a48d8f6d" target="_top" xlink:title="StreamableFactory\&lt;\l BeamFactory, Beam \&gt;\l::getSingleton">
<polygon fill="white" stroke="black" points="214.5,-452.5 214.5,-499.5 333.5,-499.5 333.5,-452.5 214.5,-452.5"/>
<text text-anchor="start" x="222.5" y="-486.5" font-family="Helvetica,sans-Serif" font-size="10.00">StreamableFactory&lt;</text>
<text text-anchor="start" x="222.5" y="-473.5" font-family="Helvetica,sans-Serif" font-size="10.00"> BeamFactory, Beam &gt;</text>
<text text-anchor="middle" x="274" y="-460.5" font-family="Helvetica,sans-Serif" font-size="10.00">::getSingleton</text>
</a>
</g>
<!-- Node1&#45;&gt;Node2 -->
<g id="edge2" class="edge"><title>Node1&#45;&gt;Node2</title>
<path fill="none" stroke="midnightblue" d="M77.873,-250.513C87.4469,-283.633 121.374,-386.934 186,-443 191.677,-447.925 198.16,-452.146 204.976,-455.758"/>
<polygon fill="midnightblue" stroke="midnightblue" points="203.903,-459.125 214.431,-460.312 206.941,-452.819 203.903,-459.125"/>
</g>
<!-- Node3 -->
<g id="node5" class="node"><title>Node3</title>
<a xlink:href="class_beam_factory.html#a5f3755f8cd44e6972e463cc6aaa9f181" target="_top" xlink:title="BeamFactory::getTruckCount">
<polygon fill="white" stroke="black" points="201,-412.5 201,-433.5 347,-433.5 347,-412.5 201,-412.5"/>
<text text-anchor="middle" x="274" y="-420.5" font-family="Helvetica,sans-Serif" font-size="10.00">BeamFactory::getTruckCount</text>
</a>
</g>
<!-- Node1&#45;&gt;Node3 -->
<g id="edge4" class="edge"><title>Node1&#45;&gt;Node3</title>
<path fill="none" stroke="midnightblue" d="M79.0372,-250.813C90.6552,-280.355 127.154,-362.895 186,-403 188.784,-404.897 191.72,-406.616 194.765,-408.175"/>
<polygon fill="midnightblue" stroke="midnightblue" points="193.618,-411.496 204.176,-412.383 196.476,-405.106 193.618,-411.496"/>
</g>
<!-- Node4 -->
<g id="node7" class="node"><title>Node4</title>
<a xlink:href="class_beam_factory.html#aa7c42481b46a78459831fa0900ab8d67" target="_top" xlink:title="BeamFactory::getTrucks">
<polygon fill="white" stroke="black" points="211.5,-372.5 211.5,-393.5 336.5,-393.5 336.5,-372.5 211.5,-372.5"/>
<text text-anchor="middle" x="274" y="-380.5" font-family="Helvetica,sans-Serif" font-size="10.00">BeamFactory::getTrucks</text>
</a>
</g>
<!-- Node1&#45;&gt;Node4 -->
<g id="edge6" class="edge"><title>Node1&#45;&gt;Node4</title>
<path fill="none" stroke="midnightblue" d="M81.2617,-250.545C96.1381,-274.614 136.118,-333.77 186,-363 190.816,-365.822 195.995,-368.246 201.344,-370.328"/>
<polygon fill="midnightblue" stroke="midnightblue" points="200.518,-373.746 211.113,-373.718 202.813,-367.133 200.518,-373.746"/>
</g>
<!-- Node5 -->
<g id="node9" class="node"><title>Node5</title>
<a xlink:href="class_collisions.html#a0994fca40d7b1d9d2bf81b2dc2dda8f3" target="_top" xlink:title="Collisions::getBox">
<polygon fill="white" stroke="black" points="226,-332.5 226,-353.5 322,-353.5 322,-332.5 226,-332.5"/>
<text text-anchor="middle" x="274" y="-340.5" font-family="Helvetica,sans-Serif" font-size="10.00">Collisions::getBox</text>
</a>
</g>
<!-- Node1&#45;&gt;Node5 -->
<g id="edge8" class="edge"><title>Node1&#45;&gt;Node5</title>
<path fill="none" stroke="midnightblue" d="M85.942,-250.726C104.752,-268.54 145.151,-304.129 186,-323 195.377,-327.332 205.761,-330.759 216.011,-333.46"/>
<polygon fill="midnightblue" stroke="midnightblue" points="215.216,-336.869 225.76,-335.833 216.872,-330.068 215.216,-336.869"/>
</g>
<!-- Node6 -->
<g id="node11" class="node"><title>Node6</title>
<a xlink:href="class_collisions.html#af4afe6b0f900dcf87cb6bd70e98be890" target="_top" xlink:title="Collisions::isInside">
<polygon fill="white" stroke="black" points="224.5,-292.5 224.5,-313.5 323.5,-313.5 323.5,-292.5 224.5,-292.5"/>
<text text-anchor="middle" x="274" y="-300.5" font-family="Helvetica,sans-Serif" font-size="10.00">Collisions::isInside</text>
</a>
</g>
<!-- Node1&#45;&gt;Node6 -->
<g id="edge10" class="edge"><title>Node1&#45;&gt;Node6</title>
<path fill="none" stroke="midnightblue" d="M99.3265,-250.61C121.577,-260.029 155.563,-273.7 186,-283 195.119,-285.786 204.876,-288.378 214.451,-290.71"/>
<polygon fill="midnightblue" stroke="midnightblue" points="213.794,-294.151 224.331,-293.044 215.403,-287.339 213.794,-294.151"/>
</g>
<!-- Node7 -->
<g id="node13" class="node"><title>Node7</title>
<a xlink:href="class_ro_r_1_1_application.html#ad66b6a7000f93454d75f1150d6959141" target="_top" xlink:title="RoR::Application::GetConsole">
<polygon fill="white" stroke="black" points="199.5,-252.5 199.5,-273.5 348.5,-273.5 348.5,-252.5 199.5,-252.5"/>
<text text-anchor="middle" x="274" y="-260.5" font-family="Helvetica,sans-Serif" font-size="10.00">RoR::Application::GetConsole</text>
</a>
</g>
<!-- Node1&#45;&gt;Node7 -->
<g id="edge12" class="edge"><title>Node1&#45;&gt;Node7</title>
<path fill="none" stroke="midnightblue" d="M149.666,-248.63C162.586,-250.123 176.101,-251.685 189.265,-253.206"/>
<polygon fill="midnightblue" stroke="midnightblue" points="188.91,-256.689 199.246,-254.36 189.714,-249.735 188.91,-256.689"/>
</g>
<!-- Node8 -->
<g id="node15" class="node"><title>Node8</title>
<a xlink:href="class_ro_r_1_1_application.html#a3db1b8c7dc6bf465f5ed653ef4a8ce9a" target="_top" xlink:title="RoR::Application::GetGui\lManager">
<polygon fill="white" stroke="black" points="210,-200 210,-234 338,-234 338,-200 210,-200"/>
<text text-anchor="start" x="218" y="-221" font-family="Helvetica,sans-Serif" font-size="10.00">RoR::Application::GetGui</text>
<text text-anchor="middle" x="274" y="-208" font-family="Helvetica,sans-Serif" font-size="10.00">Manager</text>
</a>
</g>
<!-- Node1&#45;&gt;Node8 -->
<g id="edge14" class="edge"><title>Node1&#45;&gt;Node8</title>
<path fill="none" stroke="midnightblue" d="M149.666,-231.37C166.015,-229.481 183.319,-227.481 199.654,-225.593"/>
<polygon fill="midnightblue" stroke="midnightblue" points="200.151,-229.059 209.683,-224.434 199.348,-222.105 200.151,-229.059"/>
</g>
<!-- Node9 -->
<g id="node17" class="node"><title>Node9</title>
<a xlink:href="class_ro_r_1_1_g_u_i_manager.html#ae4edd69226416a7be139959fd71319ea" target="_top" xlink:title="RoR::GUIManager::PushNotification">
<polygon fill="white" stroke="black" points="186,-160.5 186,-181.5 362,-181.5 362,-160.5 186,-160.5"/>
<text text-anchor="middle" x="274" y="-168.5" font-family="Helvetica,sans-Serif" font-size="10.00">RoR::GUIManager::PushNotification</text>
</a>
</g>
<!-- Node1&#45;&gt;Node9 -->
<g id="edge16" class="edge"><title>Node1&#45;&gt;Node9</title>
<path fill="none" stroke="midnightblue" d="M95.8028,-229.369C117.758,-218.496 153.603,-201.722 186,-191 193.719,-188.445 201.926,-186.105 210.104,-183.996"/>
<polygon fill="midnightblue" stroke="midnightblue" points="211.165,-187.339 220.031,-181.54 209.483,-180.544 211.165,-187.339"/>
</g>
<!-- Node10 -->
<g id="node19" class="node"><title>Node10</title>
<a xlink:href="class_collisions.html#ad12c4976773ee3a8034b02fe1cd0212d" target="_top" xlink:title="Collisions::clearEventCache">
<polygon fill="white" stroke="black" points="204,-120.5 204,-141.5 344,-141.5 344,-120.5 204,-120.5"/>
<text text-anchor="middle" x="274" y="-128.5" font-family="Helvetica,sans-Serif" font-size="10.00">Collisions::clearEventCache</text>
</a>
</g>
<!-- Node1&#45;&gt;Node10 -->
<g id="edge18" class="edge"><title>Node1&#45;&gt;Node10</title>
<path fill="none" stroke="midnightblue" d="M84.9015,-229.371C103.063,-210.543 143.734,-171.399 186,-151 190.938,-148.617 196.172,-146.511 201.526,-144.652"/>
<polygon fill="midnightblue" stroke="midnightblue" points="202.785,-147.924 211.259,-141.565 200.669,-141.252 202.785,-147.924"/>
</g>
<!-- Node11 -->
<g id="node21" class="node"><title>Node11</title>
<a xlink:href="class_collisions.html#a3a6b7172dd9d63a46d03ecd9ee61a1fe" target="_top" xlink:title="Collisions::getPosition">
<polygon fill="white" stroke="black" points="217,-80.5 217,-101.5 331,-101.5 331,-80.5 217,-80.5"/>
<text text-anchor="middle" x="274" y="-88.5" font-family="Helvetica,sans-Serif" font-size="10.00">Collisions::getPosition</text>
</a>
</g>
<!-- Node1&#45;&gt;Node11 -->
<g id="edge20" class="edge"><title>Node1&#45;&gt;Node11</title>
<path fill="none" stroke="midnightblue" d="M80.9078,-229.311C95.3178,-204.303 134.868,-141.78 186,-111 192.368,-107.167 199.397,-104.068 206.624,-101.562"/>
<polygon fill="midnightblue" stroke="midnightblue" points="208.033,-104.79 216.559,-98.4996 205.971,-98.1007 208.033,-104.79"/>
</g>
<!-- Node12 -->
<g id="node23" class="node"><title>Node12</title>
<a xlink:href="class_collisions.html#a4241fcc92d9a9deccd5ff450059ad0f1" target="_top" xlink:title="Collisions::getDirection">
<polygon fill="white" stroke="black" points="215,-40.5 215,-61.5 333,-61.5 333,-40.5 215,-40.5"/>
<text text-anchor="middle" x="274" y="-48.5" font-family="Helvetica,sans-Serif" font-size="10.00">Collisions::getDirection</text>
</a>
</g>
<!-- Node1&#45;&gt;Node12 -->
<g id="edge22" class="edge"><title>Node1&#45;&gt;Node12</title>
<path fill="none" stroke="midnightblue" d="M78.7552,-229.231C89.8832,-198.998 125.722,-112.822 186,-71 191.708,-67.0396 198.079,-63.8511 204.712,-61.286"/>
<polygon fill="midnightblue" stroke="midnightblue" points="206.217,-64.4722 214.571,-57.9565 203.977,-57.8402 206.217,-64.4722"/>
</g>
<!-- Node13 -->
<g id="node25" class="node"><title>Node13</title>
<a xlink:href="class_ro_r_frame_listener.html#ac3781516d790b1076e5af2278e996596" target="_top" xlink:title="RoRFrameListener::hideMap">
<polygon fill="white" stroke="black" points="203,-0.5 203,-21.5 345,-21.5 345,-0.5 203,-0.5"/>
<text text-anchor="middle" x="274" y="-8.5" font-family="Helvetica,sans-Serif" font-size="10.00">RoRFrameListener::hideMap</text>
</a>
</g>
<!-- Node1&#45;&gt;Node13 -->
<g id="edge24" class="edge"><title>Node1&#45;&gt;Node13</title>
<path fill="none" stroke="midnightblue" d="M77.344,-229.283C85.5208,-194.576 116.169,-84.4203 186,-31 188.471,-29.1095 191.089,-27.392 193.815,-25.8319"/>
<polygon fill="midnightblue" stroke="midnightblue" points="195.432,-28.9368 202.844,-21.3666 192.329,-22.6621 195.432,-28.9368"/>
</g>
</g>
</svg>
        <g id="navigator" transform="translate(0 0)" fill="#404254">
                <rect fill="#f2f5e9" fill-opacity="0.5" stroke="#606060" stroke-width=".5" x="0" y="0" width="60" height="60"/>
                <use id="zoomplus" xlink:href="#zoomPlus" x="17" y="9" onmousedown="handleZoom(evt,'in')"/>
                <use id="zoomminus" xlink:href="#zoomMin" x="42" y="9" onmousedown="handleZoom(evt,'out')"/>
                <use id="reset" xlink:href="#resetDef" x="30" y="36" onmousedown="handleReset()"/>
                <g id="arrowUp" xlink:href="#dirArrow" transform="translate(30 24)" onmousedown="handlePan(0,-1)">
                  <use xlink:href="#rim" fill="#404040">
                        <set attributeName="fill" to="#808080" begin="arrowUp.mouseover" end="arrowUp.mouseout"/>
                  </use>
                  <path fill="none" stroke="white" stroke-width="1.5" d="M0,-3.0v7 M-2.5,-0.5L0,-3.0L2.5,-0.5"/>
                </g>
                <g id="arrowRight" xlink:href="#dirArrow" transform="rotate(90) translate(36 -43)" onmousedown="handlePan(1,0)">
                  <use xlink:href="#rim" fill="#404040">
                        <set attributeName="fill" to="#808080" begin="arrowRight.mouseover" end="arrowRight.mouseout"/>
                  </use>
                  <path fill="none" stroke="white" stroke-width="1.5" d="M0,-3.0v7 M-2.5,-0.5L0,-3.0L2.5,-0.5"/>
                </g>
                <g id="arrowDown" xlink:href="#dirArrow" transform="rotate(180) translate(-30 -48)" onmousedown="handlePan(0,1)">
                  <use xlink:href="#rim" fill="#404040">
                        <set attributeName="fill" to="#808080" begin="arrowDown.mouseover" end="arrowDown.mouseout"/>
                  </use>
                  <path fill="none" stroke="white" stroke-width="1.5" d="M0,-3.0v7 M-2.5,-0.5L0,-3.0L2.5,-0.5"/>
                </g>
                <g id="arrowLeft" xlink:href="#dirArrow" transform="rotate(270) translate(-36 17)" onmousedown="handlePan(-1,0)">
                  <use xlink:href="#rim" fill="#404040">
                        <set attributeName="fill" to="#808080" begin="arrowLeft.mouseover" end="arrowLeft.mouseout"/>
                  </use>
                  <path fill="none" stroke="white" stroke-width="1.5" d="M0,-3.0v7 M-2.5,-0.5L0,-3.0L2.5,-0.5"/>
                </g>
        </g>
        <svg viewBox="0 0 15 15" width="100%" height="30px" preserveAspectRatio="xMaxYMin meet">
         <g id="arrow_out" transform="scale(0.3 0.3)">
          <a xlink:href="class_ro_r_frame_listener_a5f0e897e268eb585d665235fad6c85cd_cgraph_org.svg" target="_base">
           <rect id="button" ry="5" rx="5" y="6" x="6" height="38" width="38"
                fill="#f2f5e9" fill-opacity="0.5" stroke="#606060" stroke-width="1.0"/>
           <path id="arrow"
             d="M 11.500037,31.436501 C 11.940474,20.09759 22.043105,11.32322 32.158766,21.979434 L 37.068811,17.246167 C 37.068811,17.246167 37.088388,32 37.088388,32 L 22.160133,31.978069 C 22.160133,31.978069 26.997745,27.140456 26.997745,27.140456 C 18.528582,18.264221 13.291696,25.230495 11.500037,31.436501 z"
             style="fill:#404040;"/>
          </a>
         </g>
        </svg>
</svg>
