<?xml version="1.0" encoding="UTF-8" standalone="no"?>
<!DOCTYPE svg PUBLIC "-//W3C//DTD SVG 1.1//EN"
 "http://www.w3.org/Graphics/SVG/1.1/DTD/svg11.dtd">
<!-- Generated by graphviz version 2.26.3 (20100126.1600)
 -->
<!-- Title: ProceduralManager::updateObject Pages: 1 -->
<!--zoomable 231 -->
<svg id="main" version="1.1" xmlns="http://www.w3.org/2000/svg" xmlns:xlink="http://www.w3.org/1999/xlink" xml:space="preserve" onload="init(evt)">
<style type="text/css"><![CDATA[
.edge:hover path { stroke: red; }
.edge:hover polygon { stroke: red; fill: red; }
]]></style>
<script type="text/javascript"><![CDATA[
var edges = document.getElementsByTagName('g');
if (edges && edges.length) {
  for (var i=0;i<edges.length;i++) {
    if (edges[i].id.substr(0,4)=='edge') {
      edges[i].setAttribute('class','edge');
    }
  }
}
]]></script>
        <defs>
                <circle id="rim" cx="0" cy="0" r="7"/>
                <circle id="rim2" cx="0" cy="0" r="3.5"/>
                <g id="zoomPlus">
                        <use xlink:href="#rim" fill="#404040">
                                <set attributeName="fill" to="#808080" begin="zoomplus.mouseover" end="zoomplus.mouseout"/>
                        </use>
                        <path d="M-4,0h8M0,-4v8" fill="none" stroke="white" stroke-width="1.5" pointer-events="none"/>
                </g>
                <g id="zoomMin">
                        <use xlink:href="#rim" fill="#404040">
                                <set attributeName="fill" to="#808080" begin="zoomminus.mouseover" end="zoomminus.mouseout"/>
                        </use>
                        <path d="M-4,0h8" fill="none" stroke="white" stroke-width="1.5" pointer-events="none"/>
                </g>
                <g id="dirArrow">
                        <path fill="none" stroke="white" stroke-width="1.5" d="M0,-3.0v7 M-2.5,-0.5L0,-3.0L2.5,-0.5"/>
                </g>
               <g id="resetDef">
                       <use xlink:href="#rim2" fill="#404040">
                               <set attributeName="fill" to="#808080" begin="reset.mouseover" end="reset.mouseout"/>
                       </use>
               </g>
        </defs>

<script type="text/javascript">
var viewWidth = 1026;
var viewHeight = 231;
var sectionId = 'dynsection-3';
</script>
<script xlink:href="svgpan.js"/>
<svg id="graph" class="graph">
<g id="viewport">
<title>ProceduralManager::updateObject</title>
<polygon fill="white" stroke="white" points="-4,5 -4,-227 1023,-227 1023,5 -4,5"/>
<!-- Node1 -->
<g id="node1" class="node"><title>Node1</title>
<polygon fill="#bfbfbf" stroke="black" points="0.5,-106 0.5,-140 107.5,-140 107.5,-106 0.5,-106"/>
<text text-anchor="start" x="8.5" y="-127" font-family="Helvetica,sans-Serif" font-size="10.00">ProceduralManager::</text>
<text text-anchor="middle" x="54" y="-114" font-family="Helvetica,sans-Serif" font-size="10.00">updateObject</text>
</g>
<!-- Node2 -->
<g id="node3" class="node"><title>Node2</title>
<a xlink:href="class_road2.html#af1ed3f3e7283f49faad7101f0908ad19" target="_top" xlink:title="Road2::addBlock">
<polygon fill="white" stroke="black" points="144,-132.5 144,-153.5 236,-153.5 236,-132.5 144,-132.5"/>
<text text-anchor="middle" x="190" y="-140.5" font-family="Helvetica,sans-Serif" font-size="10.00">Road2::addBlock</text>
</a>
</g>
<!-- Node1&#45;&gt;Node2 -->
<g id="edge2" class="edge"><title>Node1&#45;&gt;Node2</title>
<path fill="none" stroke="midnightblue" d="M107.751,-130.905C116.289,-132.16 125.141,-133.462 133.736,-134.726"/>
<polygon fill="midnightblue" stroke="midnightblue" points="133.269,-138.195 143.672,-136.187 134.288,-131.269 133.269,-138.195"/>
</g>
<!-- Node14 -->
<g id="node29" class="node"><title>Node14</title>
<a xlink:href="class_road2.html#a9a8d8af3d830d58c09b2cea742e42832" target="_top" xlink:title="Road2::finish">
<polygon fill="white" stroke="black" points="153,-92.5 153,-113.5 227,-113.5 227,-92.5 153,-92.5"/>
<text text-anchor="middle" x="190" y="-100.5" font-family="Helvetica,sans-Serif" font-size="10.00">Road2::finish</text>
</a>
</g>
<!-- Node1&#45;&gt;Node14 -->
<g id="edge30" class="edge"><title>Node1&#45;&gt;Node14</title>
<path fill="none" stroke="midnightblue" d="M107.751,-115.095C119.347,-113.39 131.522,-111.6 142.844,-109.935"/>
<polygon fill="midnightblue" stroke="midnightblue" points="143.577,-113.365 152.961,-108.447 142.558,-106.439 143.577,-113.365"/>
</g>
<!-- Node3 -->
<g id="node5" class="node"><title>Node3</title>
<a xlink:href="class_terrain_manager.html#ae63cfc0dda4ab62dc7f6d72eb7845628" target="_top" xlink:title="TerrainManager::getHeight\lFinder">
<polygon fill="white" stroke="black" points="599,-134 599,-168 731,-168 731,-134 599,-134"/>
<text text-anchor="start" x="607" y="-155" font-family="Helvetica,sans-Serif" font-size="10.00">TerrainManager::getHeight</text>
<text text-anchor="middle" x="665" y="-142" font-family="Helvetica,sans-Serif" font-size="10.00">Finder</text>
</a>
</g>
<!-- Node2&#45;&gt;Node3 -->
<g id="edge4" class="edge"><title>Node2&#45;&gt;Node3</title>
<path fill="none" stroke="midnightblue" d="M225.179,-153.537C239.554,-157.328 256.433,-161.129 272,-163 399.968,-178.38 433.328,-170.47 562,-163 570.684,-162.496 579.759,-161.755 588.768,-160.884"/>
<polygon fill="midnightblue" stroke="midnightblue" points="589.294,-164.348 598.887,-159.851 588.583,-157.384 589.294,-164.348"/>
</g>
<!-- Node4 -->
<g id="node7" class="node"><title>Node4</title>
<a xlink:href="class_i_height_finder.html#a5757ec3d639bcffc834540067ec8db2e" target="_top" xlink:title="IHeightFinder::getHeightAt">
<polygon fill="white" stroke="black" points="598.5,-201.5 598.5,-222.5 731.5,-222.5 731.5,-201.5 598.5,-201.5"/>
<text text-anchor="middle" x="665" y="-209.5" font-family="Helvetica,sans-Serif" font-size="10.00">IHeightFinder::getHeightAt</text>
</a>
</g>
<!-- Node2&#45;&gt;Node4 -->
<g id="edge6" class="edge"><title>Node2&#45;&gt;Node4</title>
<path fill="none" stroke="midnightblue" d="M207.863,-153.549C224.024,-162.529 248.778,-174.913 272,-181 379.297,-209.123 508.249,-214.062 588.434,-213.901"/>
<polygon fill="midnightblue" stroke="midnightblue" points="588.466,-217.401 598.45,-213.853 588.433,-210.401 588.466,-217.401"/>
</g>
<!-- Node5 -->
<g id="node9" class="node"><title>Node5</title>
<a xlink:href="class_road2.html#a9d8724ad4d80b364282df601d120e32d" target="_top" xlink:title="Road2::computePoints">
<polygon fill="white" stroke="black" points="272,-132.5 272,-153.5 388,-153.5 388,-132.5 272,-132.5"/>
<text text-anchor="middle" x="330" y="-140.5" font-family="Helvetica,sans-Serif" font-size="10.00">Road2::computePoints</text>
</a>
</g>
<!-- Node2&#45;&gt;Node5 -->
<g id="edge8" class="edge"><title>Node2&#45;&gt;Node5</title>
<path fill="none" stroke="midnightblue" d="M236.229,-143C244.358,-143 252.972,-143 261.555,-143"/>
<polygon fill="midnightblue" stroke="midnightblue" points="261.586,-146.5 271.586,-143 261.586,-139.5 261.586,-146.5"/>
</g>
<!-- Node7 -->
<g id="node15" class="node"><title>Node7</title>
<a xlink:href="class_road2.html#a27a9cf5803361dbd84862a241ac2b9bb" target="_top" xlink:title="Road2::addQuad">
<polygon fill="white" stroke="black" points="285,-92.5 285,-113.5 375,-113.5 375,-92.5 285,-92.5"/>
<text text-anchor="middle" x="330" y="-100.5" font-family="Helvetica,sans-Serif" font-size="10.00">Road2::addQuad</text>
</a>
</g>
<!-- Node2&#45;&gt;Node7 -->
<g id="edge16" class="edge"><title>Node2&#45;&gt;Node7</title>
<path fill="none" stroke="midnightblue" d="M226.783,-132.49C244.089,-127.546 264.92,-121.594 283.324,-116.336"/>
<polygon fill="midnightblue" stroke="midnightblue" points="284.323,-119.691 292.976,-113.578 282.399,-112.96 284.323,-119.691"/>
</g>
<!-- Node6 -->
<g id="node11" class="node"><title>Node6</title>
<a xlink:href="class_road2.html#aef616e475fae2504b50ad65a1ba3b3cb" target="_top" xlink:title="Road2::baseOf">
<polygon fill="white" stroke="black" points="451.5,-132.5 451.5,-153.5 534.5,-153.5 534.5,-132.5 451.5,-132.5"/>
<text text-anchor="middle" x="493" y="-140.5" font-family="Helvetica,sans-Serif" font-size="10.00">Road2::baseOf</text>
</a>
</g>
<!-- Node5&#45;&gt;Node6 -->
<g id="edge10" class="edge"><title>Node5&#45;&gt;Node6</title>
<path fill="none" stroke="midnightblue" d="M388.386,-143C405.634,-143 424.388,-143 441.191,-143"/>
<polygon fill="midnightblue" stroke="midnightblue" points="441.371,-146.5 451.371,-143 441.371,-139.5 441.371,-146.5"/>
</g>
<!-- Node6&#45;&gt;Node3 -->
<g id="edge12" class="edge"><title>Node6&#45;&gt;Node3</title>
<path fill="none" stroke="midnightblue" d="M534.636,-144.937C550.91,-145.694 570.103,-146.586 588.685,-147.45"/>
<polygon fill="midnightblue" stroke="midnightblue" points="588.771,-150.958 598.923,-147.927 589.097,-143.966 588.771,-150.958"/>
</g>
<!-- Node6&#45;&gt;Node4 -->
<g id="edge14" class="edge"><title>Node6&#45;&gt;Node4</title>
<path fill="none" stroke="midnightblue" d="M519.498,-153.63C548.875,-165.415 596.422,-184.489 629.12,-197.606"/>
<polygon fill="midnightblue" stroke="midnightblue" points="628.17,-200.996 638.754,-201.471 630.776,-194.499 628.17,-200.996"/>
</g>
<!-- Node8 -->
<g id="node17" class="node"><title>Node8</title>
<a xlink:href="class_road2.html#aa511f1f1ee168547950f505271f10f3b" target="_top" xlink:title="Road2::textureFit">
<polygon fill="white" stroke="black" points="447,-92.5 447,-113.5 539,-113.5 539,-92.5 447,-92.5"/>
<text text-anchor="middle" x="493" y="-100.5" font-family="Helvetica,sans-Serif" font-size="10.00">Road2::textureFit</text>
</a>
</g>
<!-- Node7&#45;&gt;Node8 -->
<g id="edge18" class="edge"><title>Node7&#45;&gt;Node8</title>
<path fill="none" stroke="midnightblue" d="M375.405,-103C394.416,-103 416.711,-103 436.748,-103"/>
<polygon fill="midnightblue" stroke="midnightblue" points="436.99,-106.5 446.99,-103 436.99,-99.5001 436.99,-106.5"/>
</g>
<!-- Node9 -->
<g id="node19" class="node"><title>Node9</title>
<a xlink:href="class_collisions.html#a7840c7d5b2b56b4cc8f41778c0edb7a7" target="_top" xlink:title="Collisions::getGroundModel\lByString">
<polygon fill="white" stroke="black" points="424.5,-40 424.5,-74 561.5,-74 561.5,-40 424.5,-40"/>
<text text-anchor="start" x="432.5" y="-61" font-family="Helvetica,sans-Serif" font-size="10.00">Collisions::getGroundModel</text>
<text text-anchor="middle" x="493" y="-48" font-family="Helvetica,sans-Serif" font-size="10.00">ByString</text>
</a>
</g>
<!-- Node7&#45;&gt;Node9 -->
<g id="edge20" class="edge"><title>Node7&#45;&gt;Node9</title>
<path fill="none" stroke="midnightblue" d="M367.395,-92.4467C383.803,-87.8162 403.624,-82.2226 422.623,-76.8609"/>
<polygon fill="midnightblue" stroke="midnightblue" points="423.788,-80.169 432.461,-74.0845 421.887,-73.4322 423.788,-80.169"/>
</g>
<!-- Node10 -->
<g id="node21" class="node"><title>Node10</title>
<a xlink:href="class_road2.html#ade752b3c6e9e9251bbea2833eb6e4731" target="_top" xlink:title="Road2::addCollisionQuad">
<polygon fill="white" stroke="black" points="429,-0.5 429,-21.5 557,-21.5 557,-0.5 429,-0.5"/>
<text text-anchor="middle" x="493" y="-8.5" font-family="Helvetica,sans-Serif" font-size="10.00">Road2::addCollisionQuad</text>
</a>
</g>
<!-- Node7&#45;&gt;Node10 -->
<g id="edge22" class="edge"><title>Node7&#45;&gt;Node10</title>
<path fill="none" stroke="midnightblue" d="M371.281,-92.4418C377.212,-89.9052 382.992,-86.7964 388,-83 410.4,-66.0188 401.183,-47.4166 424,-31 426.683,-29.0697 429.55,-27.3247 432.534,-25.7474"/>
<polygon fill="midnightblue" stroke="midnightblue" points="434.146,-28.8581 441.77,-21.5006 431.222,-22.4982 434.146,-28.8581"/>
</g>
<!-- Node11 -->
<g id="node23" class="node"><title>Node11</title>
<a xlink:href="class_collisions.html#a44e7f403a680e597a54209b2873b6e28" target="_top" xlink:title="Collisions::addCollisionTri">
<polygon fill="white" stroke="black" points="600,-0.5 600,-21.5 730,-21.5 730,-0.5 600,-0.5"/>
<text text-anchor="middle" x="665" y="-8.5" font-family="Helvetica,sans-Serif" font-size="10.00">Collisions::addCollisionTri</text>
</a>
</g>
<!-- Node10&#45;&gt;Node11 -->
<g id="edge24" class="edge"><title>Node10&#45;&gt;Node11</title>
<path fill="none" stroke="midnightblue" d="M557.046,-11C567.614,-11 578.655,-11 589.472,-11"/>
<polygon fill="midnightblue" stroke="midnightblue" points="589.752,-14.5001 599.752,-11 589.752,-7.5001 589.752,-14.5001"/>
</g>
<!-- Node12 -->
<g id="node25" class="node"><title>Node12</title>
<a xlink:href="class_collisions.html#ab8dc3b86fee4e2aa47927bfeabe2ddfe" target="_top" xlink:title="Collisions::hash_add">
<polygon fill="white" stroke="black" points="768.5,-0.5 768.5,-21.5 875.5,-21.5 875.5,-0.5 768.5,-0.5"/>
<text text-anchor="middle" x="822" y="-8.5" font-family="Helvetica,sans-Serif" font-size="10.00">Collisions::hash_add</text>
</a>
</g>
<!-- Node11&#45;&gt;Node12 -->
<g id="edge26" class="edge"><title>Node11&#45;&gt;Node12</title>
<path fill="none" stroke="midnightblue" d="M730.218,-11C739.4,-11 748.832,-11 757.99,-11"/>
<polygon fill="midnightblue" stroke="midnightblue" points="758.187,-14.5001 768.187,-11 758.187,-7.5001 758.187,-14.5001"/>
</g>
<!-- Node13 -->
<g id="node27" class="node"><title>Node13</title>
<a xlink:href="class_collisions.html#a7e21c069d16d661d211d0cb896577edf" target="_top" xlink:title="Collisions::hashfunc">
<polygon fill="white" stroke="black" points="912.5,-0.5 912.5,-21.5 1017.5,-21.5 1017.5,-0.5 912.5,-0.5"/>
<text text-anchor="middle" x="965" y="-8.5" font-family="Helvetica,sans-Serif" font-size="10.00">Collisions::hashfunc</text>
</a>
</g>
<!-- Node12&#45;&gt;Node13 -->
<g id="edge28" class="edge"><title>Node12&#45;&gt;Node13</title>
<path fill="none" stroke="midnightblue" d="M875.655,-11C884.313,-11 893.344,-11 902.195,-11"/>
<polygon fill="midnightblue" stroke="midnightblue" points="902.469,-14.5001 912.469,-11 902.469,-7.5001 902.469,-14.5001"/>
</g>
<!-- Node14&#45;&gt;Node5 -->
<g id="edge32" class="edge"><title>Node14&#45;&gt;Node5</title>
<path fill="none" stroke="midnightblue" d="M226.783,-113.51C244.089,-118.454 264.92,-124.406 283.324,-129.664"/>
<polygon fill="midnightblue" stroke="midnightblue" points="282.399,-133.04 292.976,-132.422 284.323,-126.309 282.399,-133.04"/>
</g>
<!-- Node14&#45;&gt;Node7 -->
<g id="edge34" class="edge"><title>Node14&#45;&gt;Node7</title>
<path fill="none" stroke="midnightblue" d="M227.15,-103C241.703,-103 258.705,-103 274.647,-103"/>
<polygon fill="midnightblue" stroke="midnightblue" points="274.933,-106.5 284.933,-103 274.933,-99.5001 274.933,-106.5"/>
</g>
<!-- Node15 -->
<g id="node33" class="node"><title>Node15</title>
<a xlink:href="class_road2.html#a19a04c18574f9543104b7a874b68fe90" target="_top" xlink:title="Road2::createMesh">
<polygon fill="white" stroke="black" points="279,-52.5 279,-73.5 381,-73.5 381,-52.5 279,-52.5"/>
<text text-anchor="middle" x="330" y="-60.5" font-family="Helvetica,sans-Serif" font-size="10.00">Road2::createMesh</text>
</a>
</g>
<!-- Node14&#45;&gt;Node15 -->
<g id="edge36" class="edge"><title>Node14&#45;&gt;Node15</title>
<path fill="none" stroke="midnightblue" d="M226.783,-92.4905C244.089,-87.546 264.92,-81.5942 283.324,-76.3361"/>
<polygon fill="midnightblue" stroke="midnightblue" points="284.323,-79.6908 292.976,-73.5782 282.399,-72.9602 284.323,-79.6908"/>
</g>
</g>
</svg>
        <g id="navigator" transform="translate(0 0)" fill="#404254">
                <rect fill="#f2f5e9" fill-opacity="0.5" stroke="#606060" stroke-width=".5" x="0" y="0" width="60" height="60"/>
                <use id="zoomplus" xlink:href="#zoomPlus" x="17" y="9" onmousedown="handleZoom(evt,'in')"/>
                <use id="zoomminus" xlink:href="#zoomMin" x="42" y="9" onmousedown="handleZoom(evt,'out')"/>
                <use id="reset" xlink:href="#resetDef" x="30" y="36" onmousedown="handleReset()"/>
                <g id="arrowUp" xlink:href="#dirArrow" transform="translate(30 24)" onmousedown="handlePan(0,-1)">
                  <use xlink:href="#rim" fill="#404040">
                        <set attributeName="fill" to="#808080" begin="arrowUp.mouseover" end="arrowUp.mouseout"/>
                  </use>
                  <path fill="none" stroke="white" stroke-width="1.5" d="M0,-3.0v7 M-2.5,-0.5L0,-3.0L2.5,-0.5"/>
                </g>
                <g id="arrowRight" xlink:href="#dirArrow" transform="rotate(90) translate(36 -43)" onmousedown="handlePan(1,0)">
                  <use xlink:href="#rim" fill="#404040">
                        <set attributeName="fill" to="#808080" begin="arrowRight.mouseover" end="arrowRight.mouseout"/>
                  </use>
                  <path fill="none" stroke="white" stroke-width="1.5" d="M0,-3.0v7 M-2.5,-0.5L0,-3.0L2.5,-0.5"/>
                </g>
                <g id="arrowDown" xlink:href="#dirArrow" transform="rotate(180) translate(-30 -48)" onmousedown="handlePan(0,1)">
                  <use xlink:href="#rim" fill="#404040">
                        <set attributeName="fill" to="#808080" begin="arrowDown.mouseover" end="arrowDown.mouseout"/>
                  </use>
                  <path fill="none" stroke="white" stroke-width="1.5" d="M0,-3.0v7 M-2.5,-0.5L0,-3.0L2.5,-0.5"/>
                </g>
                <g id="arrowLeft" xlink:href="#dirArrow" transform="rotate(270) translate(-36 17)" onmousedown="handlePan(-1,0)">
                  <use xlink:href="#rim" fill="#404040">
                        <set attributeName="fill" to="#808080" begin="arrowLeft.mouseover" end="arrowLeft.mouseout"/>
                  </use>
                  <path fill="none" stroke="white" stroke-width="1.5" d="M0,-3.0v7 M-2.5,-0.5L0,-3.0L2.5,-0.5"/>
                </g>
        </g>
        <svg viewBox="0 0 15 15" width="100%" height="30px" preserveAspectRatio="xMaxYMin meet">
         <g id="arrow_out" transform="scale(0.3 0.3)">
          <a xlink:href="class_procedural_manager_a63f800c4fe54872d67b0a3e3b1361927_cgraph_org.svg" target="_base">
           <rect id="button" ry="5" rx="5" y="6" x="6" height="38" width="38"
                fill="#f2f5e9" fill-opacity="0.5" stroke="#606060" stroke-width="1.0"/>
           <path id="arrow"
             d="M 11.500037,31.436501 C 11.940474,20.09759 22.043105,11.32322 32.158766,21.979434 L 37.068811,17.246167 C 37.068811,17.246167 37.088388,32 37.088388,32 L 22.160133,31.978069 C 22.160133,31.978069 26.997745,27.140456 26.997745,27.140456 C 18.528582,18.264221 13.291696,25.230495 11.500037,31.436501 z"
             style="fill:#404040;"/>
          </a>
         </g>
        </svg>
</svg>
