<?xml version="1.0" encoding="UTF-8" standalone="no"?>
<!DOCTYPE svg PUBLIC "-//W3C//DTD SVG 1.1//EN"
 "http://www.w3.org/Graphics/SVG/1.1/DTD/svg11.dtd">
<!-- Generated by graphviz version 2.26.3 (20100126.1600)
 -->
<!-- Title: Axle Pages: 1 -->
<svg width="242pt" height="102pt"
 viewBox="0.00 0.00 242.00 102.00" xmlns="http://www.w3.org/2000/svg" xmlns:xlink="http://www.w3.org/1999/xlink">
<g id="graph1" class="graph" transform="scale(1 1) rotate(0) translate(4 98)">
<title>Axle</title>
<polygon fill="white" stroke="white" points="-4,5 -4,-98 239,-98 239,5 -4,5"/>
<!-- Node1 -->
<g id="node1" class="node"><title>Node1</title>
<polygon fill="#bfbfbf" stroke="black" points="104,-0.5 104,-21.5 140,-21.5 140,-0.5 104,-0.5"/>
<text text-anchor="middle" x="122" y="-8.5" font-family="Helvetica,sans-Serif" font-size="10.00">Axle</text>
</g>
<!-- Node2 -->
<g id="node2" class="node"><title>Node2</title>
<a xlink:href="class_zeroed_memory_allocator.html" target="_top" xlink:title="ZeroedMemoryAllocator">
<polygon fill="white" stroke="black" points="0,-72.5 0,-93.5 120,-93.5 120,-72.5 0,-72.5"/>
<text text-anchor="middle" x="60" y="-80.5" font-family="Helvetica,sans-Serif" font-size="10.00">ZeroedMemoryAllocator</text>
</a>
</g>
<!-- Node2&#45;&gt;Node1 -->
<g id="edge2" class="edge"><title>Node2&#45;&gt;Node1</title>
<path fill="none" stroke="midnightblue" d="M75.8581,-64.5841C87.5654,-50.9886 103.092,-32.9579 112.814,-21.6674"/>
<polygon fill="midnightblue" stroke="midnightblue" points="73.0214,-62.5146 69.1483,-72.3762 78.3258,-67.0823 73.0214,-62.5146"/>
</g>
<!-- Node3 -->
<g id="node4" class="node"><title>Node3</title>
<a xlink:href="structdifferential__data__t.html" target="_top" xlink:title="differential_data_t">
<polygon fill="white" stroke="black" points="138,-72.5 138,-93.5 232,-93.5 232,-72.5 138,-72.5"/>
<text text-anchor="middle" x="185" y="-80.5" font-family="Helvetica,sans-Serif" font-size="10.00">differential_data_t</text>
</a>
</g>
<!-- Node3&#45;&gt;Node1 -->
<g id="edge4" class="edge"><title>Node3&#45;&gt;Node1</title>
<path fill="none" stroke="#9a32cd" stroke-dasharray="5,2" d="M168.886,-64.5841C156.99,-50.9886 141.213,-32.9579 131.334,-21.6674"/>
<polygon fill="#9a32cd" stroke="#9a32cd" points="166.485,-67.1551 175.704,-72.3762 171.753,-62.5456 166.485,-67.1551"/>
<text text-anchor="middle" x="196.5" y="-44.5" font-family="Helvetica,sans-Serif" font-size="10.00"> current_callback</text>
</g>
</g>
</svg>
