<?xml version="1.0" encoding="UTF-8" standalone="no"?>
<!DOCTYPE svg PUBLIC "-//W3C//DTD SVG 1.1//EN"
 "http://www.w3.org/Graphics/SVG/1.1/DTD/svg11.dtd">
<!-- Generated by graphviz version 2.26.3 (20100126.1600)
 -->
<!-- Title: StreamableFactory::unlockStreams Pages: 1 -->
<svg width="344pt" height="644pt"
 viewBox="0.00 0.00 344.00 644.00" xmlns="http://www.w3.org/2000/svg" xmlns:xlink="http://www.w3.org/1999/xlink">
<g id="graph1" class="graph" transform="scale(1 1) rotate(0) translate(4 640)">
<title>StreamableFactory::unlockStreams</title>
<polygon fill="white" stroke="white" points="-4,5 -4,-640 341,-640 341,5 -4,5"/>
<!-- Node1 -->
<g id="node1" class="node"><title>Node1</title>
<polygon fill="#bfbfbf" stroke="black" points="0.5,-325 0.5,-359 105.5,-359 105.5,-325 0.5,-325"/>
<text text-anchor="start" x="8.5" y="-346" font-family="Helvetica,sans-Serif" font-size="10.00">StreamableFactory::</text>
<text text-anchor="middle" x="53" y="-333" font-family="Helvetica,sans-Serif" font-size="10.00">unlockStreams</text>
</g>
<!-- Node2 -->
<g id="node3" class="node"><title>Node2</title>
<a xlink:href="class_streamable_factory.html#a0e021c1b7f7b1678028588a4cfdfd4c3" target="_top" xlink:title="StreamableFactory\&lt;\l ChatSystemFactory,\l ChatSystem \&gt;::createRemote">
<polygon fill="white" stroke="black" points="163.5,-588.5 163.5,-635.5 314.5,-635.5 314.5,-588.5 163.5,-588.5"/>
<text text-anchor="start" x="171.5" y="-622.5" font-family="Helvetica,sans-Serif" font-size="10.00">StreamableFactory&lt;</text>
<text text-anchor="start" x="171.5" y="-609.5" font-family="Helvetica,sans-Serif" font-size="10.00"> ChatSystemFactory,</text>
<text text-anchor="middle" x="239" y="-596.5" font-family="Helvetica,sans-Serif" font-size="10.00"> ChatSystem &gt;::createRemote</text>
</a>
</g>
<!-- Node1&#45;&gt;Node2 -->
<g id="edge2" class="edge"><title>Node1&#45;&gt;Node2</title>
<path fill="none" stroke="midnightblue" d="M55.6812,-369.096C61.9322,-417.852 81.8491,-520.704 142,-579 148.131,-584.942 155.373,-589.816 163.094,-593.814"/>
<polygon fill="midnightblue" stroke="midnightblue" points="59.1379,-368.523 54.4859,-359.005 52.1865,-369.347 59.1379,-368.523"/>
</g>
<!-- Node3 -->
<g id="node5" class="node"><title>Node3</title>
<a xlink:href="class_streamable_factory.html#a3a07971eaf14dc5bec86eceaf87e4bf5" target="_top" xlink:title="StreamableFactory\&lt;\l ChatSystemFactory,\l ChatSystem \&gt;::deleteRemote">
<polygon fill="white" stroke="black" points="164,-522.5 164,-569.5 314,-569.5 314,-522.5 164,-522.5"/>
<text text-anchor="start" x="172" y="-556.5" font-family="Helvetica,sans-Serif" font-size="10.00">StreamableFactory&lt;</text>
<text text-anchor="start" x="172" y="-543.5" font-family="Helvetica,sans-Serif" font-size="10.00"> ChatSystemFactory,</text>
<text text-anchor="middle" x="239" y="-530.5" font-family="Helvetica,sans-Serif" font-size="10.00"> ChatSystem &gt;::deleteRemote</text>
</a>
</g>
<!-- Node1&#45;&gt;Node3 -->
<g id="edge4" class="edge"><title>Node1&#45;&gt;Node3</title>
<path fill="none" stroke="midnightblue" d="M60.1176,-368.99C71.3592,-406.498 96.7382,-474.142 142,-513 148.478,-518.562 155.938,-523.198 163.782,-527.06"/>
<polygon fill="midnightblue" stroke="midnightblue" points="63.4463,-367.901 57.3171,-359.259 56.7194,-369.837 63.4463,-367.901"/>
</g>
<!-- Node4 -->
<g id="node7" class="node"><title>Node4</title>
<a xlink:href="class_streamable_factory.html#af84f305857e0e20a5ac32de9bd095cd6" target="_top" xlink:title="StreamableFactory\&lt;\l ChatSystemFactory,\l ChatSystem \&gt;::syncRemoteStreams">
<polygon fill="white" stroke="black" points="148,-456.5 148,-503.5 330,-503.5 330,-456.5 148,-456.5"/>
<text text-anchor="start" x="156" y="-490.5" font-family="Helvetica,sans-Serif" font-size="10.00">StreamableFactory&lt;</text>
<text text-anchor="start" x="156" y="-477.5" font-family="Helvetica,sans-Serif" font-size="10.00"> ChatSystemFactory,</text>
<text text-anchor="middle" x="239" y="-464.5" font-family="Helvetica,sans-Serif" font-size="10.00"> ChatSystem &gt;::syncRemoteStreams</text>
</a>
</g>
<!-- Node1&#45;&gt;Node4 -->
<g id="edge6" class="edge"><title>Node1&#45;&gt;Node4</title>
<path fill="none" stroke="midnightblue" d="M68.7378,-367.513C84.5578,-391.199 110.999,-425.891 142,-447 146.999,-450.404 152.381,-453.486 157.957,-456.271"/>
<polygon fill="midnightblue" stroke="midnightblue" points="71.599,-365.493 63.2073,-359.025 65.7342,-369.314 71.599,-365.493"/>
</g>
<!-- Node5 -->
<g id="node9" class="node"><title>Node5</title>
<a xlink:href="class_streamable_factory.html#abd513efc55dd1ac6e88967d7ea2dcb59" target="_top" xlink:title="StreamableFactory\&lt;\l ChatSystemFactory,\l ChatSystem \&gt;::checkStreamsOK">
<polygon fill="white" stroke="black" points="155.5,-390.5 155.5,-437.5 322.5,-437.5 322.5,-390.5 155.5,-390.5"/>
<text text-anchor="start" x="163.5" y="-424.5" font-family="Helvetica,sans-Serif" font-size="10.00">StreamableFactory&lt;</text>
<text text-anchor="start" x="163.5" y="-411.5" font-family="Helvetica,sans-Serif" font-size="10.00"> ChatSystemFactory,</text>
<text text-anchor="middle" x="239" y="-398.5" font-family="Helvetica,sans-Serif" font-size="10.00"> ChatSystem &gt;::checkStreamsOK</text>
</a>
</g>
<!-- Node1&#45;&gt;Node5 -->
<g id="edge8" class="edge"><title>Node1&#45;&gt;Node5</title>
<path fill="none" stroke="midnightblue" d="M99.1686,-363.121C112.857,-369.141 127.945,-375.541 142,-381 150.208,-384.188 158.868,-387.377 167.499,-390.447"/>
<polygon fill="midnightblue" stroke="midnightblue" points="100.506,-359.885 89.9461,-359.031 97.6684,-366.284 100.506,-359.885"/>
</g>
<!-- Node6 -->
<g id="node11" class="node"><title>Node6</title>
<a xlink:href="class_streamable_factory.html#a2c4d43eeba1a574e36b132559050629e" target="_top" xlink:title="StreamableFactory\&lt;\l ChatSystemFactory,\l ChatSystem \&gt;::checkStreams\lResultsChanged">
<polygon fill="white" stroke="black" points="163,-312 163,-372 315,-372 315,-312 163,-312"/>
<text text-anchor="start" x="171" y="-359" font-family="Helvetica,sans-Serif" font-size="10.00">StreamableFactory&lt;</text>
<text text-anchor="start" x="171" y="-346" font-family="Helvetica,sans-Serif" font-size="10.00"> ChatSystemFactory,</text>
<text text-anchor="start" x="171" y="-333" font-family="Helvetica,sans-Serif" font-size="10.00"> ChatSystem &gt;::checkStreams</text>
<text text-anchor="middle" x="239" y="-320" font-family="Helvetica,sans-Serif" font-size="10.00">ResultsChanged</text>
</a>
</g>
<!-- Node1&#45;&gt;Node6 -->
<g id="edge10" class="edge"><title>Node1&#45;&gt;Node6</title>
<path fill="none" stroke="midnightblue" d="M116.003,-342C131.039,-342 147.247,-342 162.806,-342"/>
<polygon fill="midnightblue" stroke="midnightblue" points="115.803,-338.5 105.803,-342 115.803,-345.5 115.803,-338.5"/>
</g>
<!-- Node7 -->
<g id="node13" class="node"><title>Node7</title>
<a xlink:href="class_streamable_factory.html#ac5a1d3863a3962d7067fe0bb880e5cfc" target="_top" xlink:title="StreamableFactory\&lt;\l ChatSystemFactory,\l ChatSystem \&gt;::checkStreams\lRemoteOK">
<polygon fill="white" stroke="black" points="163,-234 163,-294 315,-294 315,-234 163,-234"/>
<text text-anchor="start" x="171" y="-281" font-family="Helvetica,sans-Serif" font-size="10.00">StreamableFactory&lt;</text>
<text text-anchor="start" x="171" y="-268" font-family="Helvetica,sans-Serif" font-size="10.00"> ChatSystemFactory,</text>
<text text-anchor="start" x="171" y="-255" font-family="Helvetica,sans-Serif" font-size="10.00"> ChatSystem &gt;::checkStreams</text>
<text text-anchor="middle" x="239" y="-242" font-family="Helvetica,sans-Serif" font-size="10.00">RemoteOK</text>
</a>
</g>
<!-- Node1&#45;&gt;Node7 -->
<g id="edge12" class="edge"><title>Node1&#45;&gt;Node7</title>
<path fill="none" stroke="midnightblue" d="M100.874,-320.7C114.157,-314.878 128.608,-308.625 142,-303 149.028,-300.048 156.362,-297.015 163.71,-294.007"/>
<polygon fill="midnightblue" stroke="midnightblue" points="99.185,-317.619 91.4397,-324.848 102.003,-324.027 99.185,-317.619"/>
</g>
<!-- Node8 -->
<g id="node15" class="node"><title>Node8</title>
<a xlink:href="class_streamable_factory.html#a835dd4f3c0e0210be695a2b2b3834903" target="_top" xlink:title="StreamableFactory\&lt;\l ChatSystemFactory,\l ChatSystem \&gt;::clearStreamRegistration\lResults">
<polygon fill="white" stroke="black" points="142,-156 142,-216 336,-216 336,-156 142,-156"/>
<text text-anchor="start" x="150" y="-203" font-family="Helvetica,sans-Serif" font-size="10.00">StreamableFactory&lt;</text>
<text text-anchor="start" x="150" y="-190" font-family="Helvetica,sans-Serif" font-size="10.00"> ChatSystemFactory,</text>
<text text-anchor="start" x="150" y="-177" font-family="Helvetica,sans-Serif" font-size="10.00"> ChatSystem &gt;::clearStreamRegistration</text>
<text text-anchor="middle" x="239" y="-164" font-family="Helvetica,sans-Serif" font-size="10.00">Results</text>
</a>
</g>
<!-- Node1&#45;&gt;Node8 -->
<g id="edge14" class="edge"><title>Node1&#45;&gt;Node8</title>
<path fill="none" stroke="midnightblue" d="M67.1146,-316.013C82.4791,-289.866 109.283,-249.944 142,-225 146.186,-221.809 150.668,-218.84 155.326,-216.084"/>
<polygon fill="midnightblue" stroke="midnightblue" points="63.9174,-314.553 61.9818,-324.969 69.9908,-318.033 63.9174,-314.553"/>
</g>
<!-- Node9 -->
<g id="node17" class="node"><title>Node9</title>
<a xlink:href="class_streamable_factory.html#aa52c4159e9084dc42415d8ccc1f07e98" target="_top" xlink:title="StreamableFactory\&lt;\l ChatSystemFactory,\l ChatSystem \&gt;::getStreamRegistration\lResults">
<polygon fill="white" stroke="black" points="145.5,-78 145.5,-138 332.5,-138 332.5,-78 145.5,-78"/>
<text text-anchor="start" x="153.5" y="-125" font-family="Helvetica,sans-Serif" font-size="10.00">StreamableFactory&lt;</text>
<text text-anchor="start" x="153.5" y="-112" font-family="Helvetica,sans-Serif" font-size="10.00"> ChatSystemFactory,</text>
<text text-anchor="start" x="153.5" y="-99" font-family="Helvetica,sans-Serif" font-size="10.00"> ChatSystem &gt;::getStreamRegistration</text>
<text text-anchor="middle" x="239" y="-86" font-family="Helvetica,sans-Serif" font-size="10.00">Results</text>
</a>
</g>
<!-- Node1&#45;&gt;Node9 -->
<g id="edge16" class="edge"><title>Node1&#45;&gt;Node9</title>
<path fill="none" stroke="midnightblue" d="M58.5598,-314.992C68.4177,-273.527 92.736,-194.054 142,-147 145.281,-143.866 148.847,-140.972 152.61,-138.301"/>
<polygon fill="midnightblue" stroke="midnightblue" points="55.109,-314.384 56.3072,-324.91 61.9351,-315.934 55.109,-314.384"/>
</g>
<!-- Node10 -->
<g id="node19" class="node"><title>Node10</title>
<a xlink:href="class_streamable_factory.html#a943ef96883db21c42ca0b02c8aaeb39f" target="_top" xlink:title="StreamableFactory\&lt;\l ChatSystemFactory,\l ChatSystem \&gt;::addStreamRegistration\lResults">
<polygon fill="white" stroke="black" points="144.5,-0 144.5,-60 333.5,-60 333.5,-0 144.5,-0"/>
<text text-anchor="start" x="152.5" y="-47" font-family="Helvetica,sans-Serif" font-size="10.00">StreamableFactory&lt;</text>
<text text-anchor="start" x="152.5" y="-34" font-family="Helvetica,sans-Serif" font-size="10.00"> ChatSystemFactory,</text>
<text text-anchor="start" x="152.5" y="-21" font-family="Helvetica,sans-Serif" font-size="10.00"> ChatSystem &gt;::addStreamRegistration</text>
<text text-anchor="middle" x="239" y="-8" font-family="Helvetica,sans-Serif" font-size="10.00">Results</text>
</a>
</g>
<!-- Node1&#45;&gt;Node10 -->
<g id="edge18" class="edge"><title>Node1&#45;&gt;Node10</title>
<path fill="none" stroke="midnightblue" d="M54.4697,-314.644C58.7917,-260.733 75.7468,-139.858 142,-69 144.975,-65.8181 148.245,-62.8901 151.728,-60.1962"/>
<polygon fill="midnightblue" stroke="midnightblue" points="50.9661,-314.57 53.7443,-324.794 57.9483,-315.069 50.9661,-314.57"/>
</g>
</g>
</svg>
