<?xml version="1.0" encoding="UTF-8" standalone="no"?>
<!DOCTYPE svg PUBLIC "-//W3C//DTD SVG 1.1//EN"
 "http://www.w3.org/Graphics/SVG/1.1/DTD/svg11.dtd">
<!-- Generated by graphviz version 2.26.3 (20100126.1600)
 -->
<!-- Title: RigDef::Parser::ParseCollisionBox Pages: 1 -->
<svg width="552pt" height="82pt"
 viewBox="0.00 0.00 552.00 82.00" xmlns="http://www.w3.org/2000/svg" xmlns:xlink="http://www.w3.org/1999/xlink">
<g id="graph1" class="graph" transform="scale(1 1) rotate(0) translate(4 78)">
<title>RigDef::Parser::ParseCollisionBox</title>
<polygon fill="white" stroke="white" points="-4,5 -4,-78 549,-78 549,5 -4,5"/>
<!-- Node1 -->
<g id="node1" class="node"><title>Node1</title>
<polygon fill="#bfbfbf" stroke="black" points="0,-32.5 0,-53.5 168,-53.5 168,-32.5 0,-32.5"/>
<text text-anchor="middle" x="84" y="-40.5" font-family="Helvetica,sans-Serif" font-size="10.00">RigDef::Parser::ParseCollisionBox</text>
</g>
<!-- Node2 -->
<g id="node3" class="node"><title>Node2</title>
<a xlink:href="class_rig_def_1_1_parser.html#a7da949423835fe3241f2ac4c5ac8ebb1" target="_top" xlink:title="RigDef::Parser::AddMessage">
<polygon fill="white" stroke="black" points="398.5,-52.5 398.5,-73.5 543.5,-73.5 543.5,-52.5 398.5,-52.5"/>
<text text-anchor="middle" x="471" y="-60.5" font-family="Helvetica,sans-Serif" font-size="10.00">RigDef::Parser::AddMessage</text>
</a>
</g>
<!-- Node1&#45;&gt;Node2 -->
<g id="edge2" class="edge"><title>Node1&#45;&gt;Node2</title>
<path fill="none" stroke="midnightblue" d="M168.451,-47.3644C233.683,-50.7356 323.467,-55.3755 388.264,-58.7242"/>
<polygon fill="midnightblue" stroke="midnightblue" points="388.274,-62.2293 398.442,-59.2502 388.636,-55.2387 388.274,-62.2293"/>
</g>
<!-- Node3 -->
<g id="node5" class="node"><title>Node3</title>
<a xlink:href="class_rig_def_1_1_parser.html#a38e4135df406da0cc2f0fc4afb34ddb3" target="_top" xlink:title="RigDef::Parser::_ParseNodeRef">
<polygon fill="white" stroke="black" points="204,-13.5 204,-34.5 362,-34.5 362,-13.5 204,-13.5"/>
<text text-anchor="middle" x="283" y="-21.5" font-family="Helvetica,sans-Serif" font-size="10.00">RigDef::Parser::_ParseNodeRef</text>
</a>
</g>
<!-- Node1&#45;&gt;Node3 -->
<g id="edge4" class="edge"><title>Node1&#45;&gt;Node3</title>
<path fill="none" stroke="midnightblue" d="M168.105,-34.9698C176.645,-34.1545 185.339,-33.3244 193.928,-32.5043"/>
<polygon fill="midnightblue" stroke="midnightblue" points="194.326,-35.9824 203.948,-31.5477 193.661,-29.0141 194.326,-35.9824"/>
</g>
<!-- Node3&#45;&gt;Node2 -->
<g id="edge8" class="edge"><title>Node3&#45;&gt;Node2</title>
<path fill="none" stroke="midnightblue" d="M333.876,-34.554C357.387,-39.4314 385.494,-45.2621 410.123,-50.3713"/>
<polygon fill="midnightblue" stroke="midnightblue" points="409.581,-53.8333 420.084,-52.4376 411.003,-46.9793 409.581,-53.8333"/>
</g>
<!-- Node4 -->
<g id="node7" class="node"><title>Node4</title>
<a xlink:href="class_rig_def_1_1_sequential_importer.html#a04d293d8b1f94b9a722e83715911e547" target="_top" xlink:title="RigDef::SequentialImporter\l::IsEnabled">
<polygon fill="white" stroke="black" points="403.5,-0 403.5,-34 538.5,-34 538.5,-0 403.5,-0"/>
<text text-anchor="start" x="411.5" y="-21" font-family="Helvetica,sans-Serif" font-size="10.00">RigDef::SequentialImporter</text>
<text text-anchor="middle" x="471" y="-8" font-family="Helvetica,sans-Serif" font-size="10.00">::IsEnabled</text>
</a>
</g>
<!-- Node3&#45;&gt;Node4 -->
<g id="edge6" class="edge"><title>Node3&#45;&gt;Node4</title>
<path fill="none" stroke="midnightblue" d="M362.184,-21.0517C372.42,-20.6705 382.896,-20.2805 393.11,-19.9001"/>
<polygon fill="midnightblue" stroke="midnightblue" points="393.356,-23.3935 403.219,-19.5238 393.096,-16.3984 393.356,-23.3935"/>
</g>
</g>
</svg>
