<?xml version="1.0" encoding="UTF-8" standalone="no"?>
<!DOCTYPE svg PUBLIC "-//W3C//DTD SVG 1.1//EN"
 "http://www.w3.org/Graphics/SVG/1.1/DTD/svg11.dtd">
<!-- Generated by graphviz version 2.26.3 (20100126.1600)
 -->
<!-- Title: RigDef::Serializer::ProcessPropsAndAnimations Pages: 1 -->
<svg width="820pt" height="94pt"
 viewBox="0.00 0.00 820.00 94.00" xmlns="http://www.w3.org/2000/svg" xmlns:xlink="http://www.w3.org/1999/xlink">
<g id="graph1" class="graph" transform="scale(1 1) rotate(0) translate(4 90)">
<title>RigDef::Serializer::ProcessPropsAndAnimations</title>
<polygon fill="white" stroke="white" points="-4,5 -4,-90 817,-90 817,5 -4,5"/>
<!-- Node1 -->
<g id="node1" class="node"><title>Node1</title>
<polygon fill="#bfbfbf" stroke="black" points="0,-26 0,-60 150,-60 150,-26 0,-26"/>
<text text-anchor="start" x="8" y="-47" font-family="Helvetica,sans-Serif" font-size="10.00">RigDef::Serializer</text>
<text text-anchor="middle" x="75" y="-34" font-family="Helvetica,sans-Serif" font-size="10.00">::ProcessPropsAndAnimations</text>
</g>
<!-- Node2 -->
<g id="node3" class="node"><title>Node2</title>
<a xlink:href="class_rig_def_1_1_serializer.html#a0d25ba7124bac77109b3251d0d5014ec" target="_top" xlink:title="RigDef::Serializer\l::Serialize">
<polygon fill="white" stroke="black" points="186,-26 186,-60 280,-60 280,-26 186,-26"/>
<text text-anchor="start" x="194" y="-47" font-family="Helvetica,sans-Serif" font-size="10.00">RigDef::Serializer</text>
<text text-anchor="middle" x="233" y="-34" font-family="Helvetica,sans-Serif" font-size="10.00">::Serialize</text>
</a>
</g>
<!-- Node1&#45;&gt;Node2 -->
<g id="edge2" class="edge"><title>Node1&#45;&gt;Node2</title>
<path fill="none" stroke="midnightblue" d="M160.494,-43C169.16,-43 177.72,-43 185.755,-43"/>
<polygon fill="midnightblue" stroke="midnightblue" points="160.298,-39.5001 150.298,-43 160.298,-46.5001 160.298,-39.5001"/>
</g>
<!-- Node3 -->
<g id="node5" class="node"><title>Node3</title>
<a xlink:href="class_ro_r_1_1_rig_editor_1_1_main.html#a9e367d1e6cc15d9481e2cf07e178b074" target="_top" xlink:title="RoR::RigEditor::Main\l::SaveRigDefFile">
<polygon fill="white" stroke="black" points="316,-26 316,-60 426,-60 426,-26 316,-26"/>
<text text-anchor="start" x="324" y="-47" font-family="Helvetica,sans-Serif" font-size="10.00">RoR::RigEditor::Main</text>
<text text-anchor="middle" x="371" y="-34" font-family="Helvetica,sans-Serif" font-size="10.00">::SaveRigDefFile</text>
</a>
</g>
<!-- Node2&#45;&gt;Node3 -->
<g id="edge4" class="edge"><title>Node2&#45;&gt;Node3</title>
<path fill="none" stroke="midnightblue" d="M290.18,-43C298.565,-43 307.19,-43 315.54,-43"/>
<polygon fill="midnightblue" stroke="midnightblue" points="290.106,-39.5001 280.106,-43 290.106,-46.5001 290.106,-39.5001"/>
</g>
<!-- Node4 -->
<g id="node7" class="node"><title>Node4</title>
<a xlink:href="class_ro_r_1_1_rig_editor_1_1_main.html#a35a10d6c23920802442d32fab1a8d470" target="_top" xlink:title="RoR::RigEditor::Main\l::NotifyFileSelectorEnded">
<polygon fill="white" stroke="black" points="462,-26 462,-60 590,-60 590,-26 462,-26"/>
<text text-anchor="start" x="470" y="-47" font-family="Helvetica,sans-Serif" font-size="10.00">RoR::RigEditor::Main</text>
<text text-anchor="middle" x="526" y="-34" font-family="Helvetica,sans-Serif" font-size="10.00">::NotifyFileSelectorEnded</text>
</a>
</g>
<!-- Node3&#45;&gt;Node4 -->
<g id="edge6" class="edge"><title>Node3&#45;&gt;Node4</title>
<path fill="none" stroke="midnightblue" d="M436.274,-43C444.733,-43 453.391,-43 461.831,-43"/>
<polygon fill="midnightblue" stroke="midnightblue" points="436.084,-39.5001 426.084,-43 436.084,-46.5001 436.084,-39.5001"/>
</g>
<!-- Node5 -->
<g id="node9" class="node"><title>Node5</title>
<a xlink:href="class_ro_r_1_1_rig_editor_1_1_main.html#a4f73e9dc5632524ca803864460b82bb5" target="_top" xlink:title="RoR::RigEditor::Main\l::CommandShowDialogOpenRigFile">
<polygon fill="white" stroke="black" points="632,-52 632,-86 806,-86 806,-52 632,-52"/>
<text text-anchor="start" x="640" y="-73" font-family="Helvetica,sans-Serif" font-size="10.00">RoR::RigEditor::Main</text>
<text text-anchor="middle" x="719" y="-60" font-family="Helvetica,sans-Serif" font-size="10.00">::CommandShowDialogOpenRigFile</text>
</a>
</g>
<!-- Node4&#45;&gt;Node5 -->
<g id="edge8" class="edge"><title>Node4&#45;&gt;Node5</title>
<path fill="none" stroke="midnightblue" d="M600.456,-53.0303C610.783,-54.4216 621.466,-55.8607 631.997,-57.2794"/>
<polygon fill="midnightblue" stroke="midnightblue" points="600.644,-49.5241 590.266,-51.6576 599.709,-56.4615 600.644,-49.5241"/>
</g>
<!-- Node6 -->
<g id="node11" class="node"><title>Node6</title>
<a xlink:href="class_ro_r_1_1_rig_editor_1_1_main.html#acb4af1361d9233f5ee2fa658536a7658" target="_top" xlink:title="RoR::RigEditor::Main\l::CommandShowDialogSaveRigFileAs">
<polygon fill="white" stroke="black" points="626.5,-0 626.5,-34 811.5,-34 811.5,-0 626.5,-0"/>
<text text-anchor="start" x="634.5" y="-21" font-family="Helvetica,sans-Serif" font-size="10.00">RoR::RigEditor::Main</text>
<text text-anchor="middle" x="719" y="-8" font-family="Helvetica,sans-Serif" font-size="10.00">::CommandShowDialogSaveRigFileAs</text>
</a>
</g>
<!-- Node4&#45;&gt;Node6 -->
<g id="edge10" class="edge"><title>Node4&#45;&gt;Node6</title>
<path fill="none" stroke="midnightblue" d="M600.223,-33.001C608.818,-31.8432 617.662,-30.6518 626.461,-29.4663"/>
<polygon fill="midnightblue" stroke="midnightblue" points="599.709,-29.5385 590.266,-34.3424 600.644,-36.4759 599.709,-29.5385"/>
</g>
</g>
</svg>
