<?xml version="1.0" encoding="UTF-8" standalone="no"?>
<!DOCTYPE svg PUBLIC "-//W3C//DTD SVG 1.1//EN"
 "http://www.w3.org/Graphics/SVG/1.1/DTD/svg11.dtd">
<!-- Generated by graphviz version 2.26.3 (20100126.1600)
 -->
<!-- Title: G Pages: 1 -->
<svg width="444pt" height="110pt"
 viewBox="0.00 0.00 444.00 110.00" xmlns="http://www.w3.org/2000/svg" xmlns:xlink="http://www.w3.org/1999/xlink">
<g id="graph1" class="graph" transform="scale(1 1) rotate(0) translate(4 106)">
<title>G</title>
<polygon fill="white" stroke="white" points="-4,5 -4,-106 441,-106 441,5 -4,5"/>
<!-- Node1 -->
<g id="node1" class="node"><title>Node1</title>
<polygon fill="#bfbfbf" stroke="black" points="0.5,-40.5 0.5,-61.5 131.5,-61.5 131.5,-40.5 0.5,-40.5"/>
<text text-anchor="middle" x="66" y="-48.5" font-family="Helvetica,sans-Serif" font-size="10.00">Beam::forwardCommands</text>
</g>
<!-- Node2 -->
<g id="node3" class="node"><title>Node2</title>
<a xlink:href="class_streamable_factory.html#a233cafcf6f87f5779b1a26a5a48d8f6d" target="_top" xlink:title="StreamableFactory\&lt; BeamFactory, Beam \&gt;::getSingleton">
<polygon fill="white" stroke="black" points="168.5,-80.5 168.5,-101.5 435.5,-101.5 435.5,-80.5 168.5,-80.5"/>
<text text-anchor="middle" x="302" y="-88.5" font-family="Helvetica,sans-Serif" font-size="10.00">StreamableFactory&lt; BeamFactory, Beam &gt;::getSingleton</text>
</a>
</g>
<!-- Node1&#45;&gt;Node2 -->
<g id="edge2" class="edge"><title>Node1&#45;&gt;Node2</title>
<path fill="none" stroke="midnightblue" d="M117.283,-61.5282C133.479,-64.7261 151.462,-68.146 168,-71 183.932,-73.7494 200.968,-76.4642 217.368,-78.9648"/>
<polygon fill="midnightblue" stroke="midnightblue" points="217.071,-82.4595 227.481,-80.4925 218.116,-75.538 217.071,-82.4595"/>
</g>
<!-- Node3 -->
<g id="node5" class="node"><title>Node3</title>
<a xlink:href="class_beam_factory.html#aa7c42481b46a78459831fa0900ab8d67" target="_top" xlink:title="BeamFactory::getTrucks">
<polygon fill="white" stroke="black" points="239.5,-40.5 239.5,-61.5 364.5,-61.5 364.5,-40.5 239.5,-40.5"/>
<text text-anchor="middle" x="302" y="-48.5" font-family="Helvetica,sans-Serif" font-size="10.00">BeamFactory::getTrucks</text>
</a>
</g>
<!-- Node1&#45;&gt;Node3 -->
<g id="edge4" class="edge"><title>Node1&#45;&gt;Node3</title>
<path fill="none" stroke="midnightblue" d="M131.739,-51C162.005,-51 198.02,-51 229.115,-51"/>
<polygon fill="midnightblue" stroke="midnightblue" points="229.456,-54.5001 239.456,-51 229.456,-47.5001 229.456,-54.5001"/>
</g>
<!-- Node4 -->
<g id="node7" class="node"><title>Node4</title>
<a xlink:href="class_beam_factory.html#a5f3755f8cd44e6972e463cc6aaa9f181" target="_top" xlink:title="BeamFactory::getTruckCount">
<polygon fill="white" stroke="black" points="229,-0.5 229,-21.5 375,-21.5 375,-0.5 229,-0.5"/>
<text text-anchor="middle" x="302" y="-8.5" font-family="Helvetica,sans-Serif" font-size="10.00">BeamFactory::getTruckCount</text>
</a>
</g>
<!-- Node1&#45;&gt;Node4 -->
<g id="edge6" class="edge"><title>Node1&#45;&gt;Node4</title>
<path fill="none" stroke="midnightblue" d="M117.283,-40.4718C133.479,-37.2739 151.462,-33.854 168,-31 184.316,-28.1843 201.79,-25.4049 218.552,-22.8548"/>
<polygon fill="midnightblue" stroke="midnightblue" points="219.514,-26.2495 228.881,-21.2983 218.471,-19.3277 219.514,-26.2495"/>
</g>
</g>
</svg>
