<?xml version="1.0" encoding="UTF-8" standalone="no"?>
<!DOCTYPE svg PUBLIC "-//W3C//DTD SVG 1.1//EN"
 "http://www.w3.org/Graphics/SVG/1.1/DTD/svg11.dtd">
<!-- Generated by graphviz version 2.26.3 (20100126.1600)
 -->
<!-- Title: RoR::SceneMouse::releaseMousePick Pages: 1 -->
<svg width="310pt" height="42pt"
 viewBox="0.00 0.00 310.00 42.00" xmlns="http://www.w3.org/2000/svg" xmlns:xlink="http://www.w3.org/1999/xlink">
<g id="graph1" class="graph" transform="scale(1 1) rotate(0) translate(4 38)">
<title>RoR::SceneMouse::releaseMousePick</title>
<polygon fill="white" stroke="white" points="-4,5 -4,-38 307,-38 307,5 -4,5"/>
<!-- Node1 -->
<g id="node1" class="node"><title>Node1</title>
<polygon fill="#bfbfbf" stroke="black" points="0.5,-0 0.5,-34 137.5,-34 137.5,-0 0.5,-0"/>
<text text-anchor="start" x="8.5" y="-21" font-family="Helvetica,sans-Serif" font-size="10.00">RoR::SceneMouse::release</text>
<text text-anchor="middle" x="69" y="-8" font-family="Helvetica,sans-Serif" font-size="10.00">MousePick</text>
</g>
<!-- Node2 -->
<g id="node3" class="node"><title>Node2</title>
<a xlink:href="class_ro_r_1_1_application.html#a3db1b8c7dc6bf465f5ed653ef4a8ce9a" target="_top" xlink:title="RoR::Application::GetGui\lManager">
<polygon fill="white" stroke="black" points="174,-0 174,-34 302,-34 302,-0 174,-0"/>
<text text-anchor="start" x="182" y="-21" font-family="Helvetica,sans-Serif" font-size="10.00">RoR::Application::GetGui</text>
<text text-anchor="middle" x="238" y="-8" font-family="Helvetica,sans-Serif" font-size="10.00">Manager</text>
</a>
</g>
<!-- Node1&#45;&gt;Node2 -->
<g id="edge2" class="edge"><title>Node1&#45;&gt;Node2</title>
<path fill="none" stroke="midnightblue" d="M137.739,-17C146.343,-17 155.174,-17 163.856,-17"/>
<polygon fill="midnightblue" stroke="midnightblue" points="163.958,-20.5001 173.958,-17 163.958,-13.5001 163.958,-20.5001"/>
</g>
</g>
</svg>
