<?xml version="1.0" encoding="UTF-8" standalone="no"?>
<!DOCTYPE svg PUBLIC "-//W3C//DTD SVG 1.1//EN"
 "http://www.w3.org/Graphics/SVG/1.1/DTD/svg11.dtd">
<!-- Generated by graphviz version 2.26.3 (20100126.1600)
 -->
<!-- Title: TerrainObjectManager::proceduralTests Pages: 1 -->
<svg width="430pt" height="42pt"
 viewBox="0.00 0.00 430.00 42.00" xmlns="http://www.w3.org/2000/svg" xmlns:xlink="http://www.w3.org/1999/xlink">
<g id="graph1" class="graph" transform="scale(1 1) rotate(0) translate(4 38)">
<title>TerrainObjectManager::proceduralTests</title>
<polygon fill="white" stroke="white" points="-4,5 -4,-38 427,-38 427,5 -4,5"/>
<!-- Node1 -->
<g id="node1" class="node"><title>Node1</title>
<polygon fill="#bfbfbf" stroke="black" points="0.5,-0 0.5,-34 113.5,-34 113.5,-0 0.5,-0"/>
<text text-anchor="start" x="8.5" y="-21" font-family="Helvetica,sans-Serif" font-size="10.00">TerrainObjectManager</text>
<text text-anchor="middle" x="57" y="-8" font-family="Helvetica,sans-Serif" font-size="10.00">::proceduralTests</text>
</g>
<!-- Node2 -->
<g id="node3" class="node"><title>Node2</title>
<a xlink:href="struct_error_utils.html#aec73b03c7829838888bbecf9acda1b98" target="_top" xlink:title="ErrorUtils::ShowError">
<polygon fill="white" stroke="black" points="150,-6.5 150,-27.5 260,-27.5 260,-6.5 150,-6.5"/>
<text text-anchor="middle" x="205" y="-14.5" font-family="Helvetica,sans-Serif" font-size="10.00">ErrorUtils::ShowError</text>
</a>
</g>
<!-- Node1&#45;&gt;Node2 -->
<g id="edge2" class="edge"><title>Node1&#45;&gt;Node2</title>
<path fill="none" stroke="midnightblue" d="M113.797,-17C122.143,-17 130.797,-17 139.303,-17"/>
<polygon fill="midnightblue" stroke="midnightblue" points="139.575,-20.5001 149.575,-17 139.574,-13.5001 139.575,-20.5001"/>
</g>
<!-- Node3 -->
<g id="node5" class="node"><title>Node3</title>
<a xlink:href="struct_error_utils.html#a3250a36825c8b55b26d1565addb7e922" target="_top" xlink:title="ErrorUtils::ShowMsgBox">
<polygon fill="white" stroke="black" points="296.5,-6.5 296.5,-27.5 421.5,-27.5 421.5,-6.5 296.5,-6.5"/>
<text text-anchor="middle" x="359" y="-14.5" font-family="Helvetica,sans-Serif" font-size="10.00">ErrorUtils::ShowMsgBox</text>
</a>
</g>
<!-- Node2&#45;&gt;Node3 -->
<g id="edge4" class="edge"><title>Node2&#45;&gt;Node3</title>
<path fill="none" stroke="midnightblue" d="M260.163,-17C268.599,-17 277.417,-17 286.163,-17"/>
<polygon fill="midnightblue" stroke="midnightblue" points="286.369,-20.5001 296.369,-17 286.369,-13.5001 286.369,-20.5001"/>
</g>
</g>
</svg>
