<?xml version="1.0" encoding="UTF-8" standalone="no"?>
<!DOCTYPE svg PUBLIC "-//W3C//DTD SVG 1.1//EN"
 "http://www.w3.org/Graphics/SVG/1.1/DTD/svg11.dtd">
<!-- Generated by graphviz version 2.26.3 (20100126.1600)
 -->
<!-- Title: RoR::GUI::RigEditorMenubar::RigEditorMenubar Pages: 1 -->
<svg width="590pt" height="420pt"
 viewBox="0.00 0.00 590.00 420.00" xmlns="http://www.w3.org/2000/svg" xmlns:xlink="http://www.w3.org/1999/xlink">
<g id="graph1" class="graph" transform="scale(1 1) rotate(0) translate(4 416)">
<title>RoR::GUI::RigEditorMenubar::RigEditorMenubar</title>
<polygon fill="white" stroke="white" points="-4,5 -4,-416 587,-416 587,5 -4,5"/>
<!-- Node1 -->
<g id="node1" class="node"><title>Node1</title>
<polygon fill="#bfbfbf" stroke="black" points="0.5,-190 0.5,-224 145.5,-224 145.5,-190 0.5,-190"/>
<text text-anchor="start" x="8.5" y="-211" font-family="Helvetica,sans-Serif" font-size="10.00">RoR::GUI::RigEditorMenubar</text>
<text text-anchor="middle" x="73" y="-198" font-family="Helvetica,sans-Serif" font-size="10.00">::RigEditorMenubar</text>
</g>
<!-- Node2 -->
<g id="node3" class="node"><title>Node2</title>
<a xlink:href="class_ro_r_1_1_g_u_i_1_1_rig_editor_menubar.html#a81d4233780f90ac4349a6e3fafab2fd3" target="_top" xlink:title="RoR::GUI::RigEditorMenubar\l::OpenFileItemClicked">
<polygon fill="white" stroke="black" points="196.5,-377 196.5,-411 341.5,-411 341.5,-377 196.5,-377"/>
<text text-anchor="start" x="204.5" y="-398" font-family="Helvetica,sans-Serif" font-size="10.00">RoR::GUI::RigEditorMenubar</text>
<text text-anchor="middle" x="269" y="-385" font-family="Helvetica,sans-Serif" font-size="10.00">::OpenFileItemClicked</text>
</a>
</g>
<!-- Node1&#45;&gt;Node2 -->
<g id="edge2" class="edge"><title>Node1&#45;&gt;Node2</title>
<path fill="none" stroke="midnightblue" d="M79.9021,-224.194C94.013,-257.15 129.34,-329.36 182,-368 183.859,-369.364 185.789,-370.657 187.777,-371.882"/>
<polygon fill="midnightblue" stroke="midnightblue" points="186.363,-375.099 196.815,-376.836 189.728,-368.961 186.363,-375.099"/>
</g>
<!-- Node4 -->
<g id="node7" class="node"><title>Node4</title>
<a xlink:href="class_ro_r_1_1_g_u_i_1_1_rig_editor_menubar.html#a872cc90cc313d9d15146118313e493e7" target="_top" xlink:title="RoR::GUI::RigEditorMenubar\l::CloseRigItemClicked">
<polygon fill="white" stroke="black" points="196.5,-325 196.5,-359 341.5,-359 341.5,-325 196.5,-325"/>
<text text-anchor="start" x="204.5" y="-346" font-family="Helvetica,sans-Serif" font-size="10.00">RoR::GUI::RigEditorMenubar</text>
<text text-anchor="middle" x="269" y="-333" font-family="Helvetica,sans-Serif" font-size="10.00">::CloseRigItemClicked</text>
</a>
</g>
<!-- Node1&#45;&gt;Node4 -->
<g id="edge6" class="edge"><title>Node1&#45;&gt;Node4</title>
<path fill="none" stroke="midnightblue" d="M85.8694,-224.169C104.532,-247.909 141.35,-290.586 182,-315 185.411,-317.048 188.991,-318.955 192.675,-320.728"/>
<polygon fill="midnightblue" stroke="midnightblue" points="191.447,-324.012 202.007,-324.863 194.283,-317.612 191.447,-324.012"/>
</g>
<!-- Node6 -->
<g id="node11" class="node"><title>Node6</title>
<a xlink:href="class_ro_r_1_1_g_u_i_1_1_rig_editor_menubar.html#ab1ea2f2f8550d6639bc189594c772a03" target="_top" xlink:title="RoR::GUI::RigEditorMenubar\l::QuitEditorItemClicked">
<polygon fill="white" stroke="black" points="196.5,-272 196.5,-306 341.5,-306 341.5,-272 196.5,-272"/>
<text text-anchor="start" x="204.5" y="-293" font-family="Helvetica,sans-Serif" font-size="10.00">RoR::GUI::RigEditorMenubar</text>
<text text-anchor="middle" x="269" y="-280" font-family="Helvetica,sans-Serif" font-size="10.00">::QuitEditorItemClicked</text>
</a>
</g>
<!-- Node1&#45;&gt;Node6 -->
<g id="edge10" class="edge"><title>Node1&#45;&gt;Node6</title>
<path fill="none" stroke="midnightblue" d="M104.384,-224.102C125.861,-235.416 155.193,-250.116 182,-261 188.57,-263.667 195.497,-266.257 202.457,-268.714"/>
<polygon fill="midnightblue" stroke="midnightblue" points="201.342,-272.032 211.936,-271.978 203.621,-265.413 201.342,-272.032"/>
</g>
<!-- Node8 -->
<g id="node15" class="node"><title>Node8</title>
<a xlink:href="class_ro_r_1_1_g_u_i_1_1_rig_editor_menubar.html#afbf67c6fb8969147a0e0756f4b5605b4" target="_top" xlink:title="RoR::GUI::RigEditorMenubar\l::RigPropertiesItemClicked">
<polygon fill="white" stroke="black" points="196.5,-218 196.5,-252 341.5,-252 341.5,-218 196.5,-218"/>
<text text-anchor="start" x="204.5" y="-239" font-family="Helvetica,sans-Serif" font-size="10.00">RoR::GUI::RigEditorMenubar</text>
<text text-anchor="middle" x="269" y="-226" font-family="Helvetica,sans-Serif" font-size="10.00">::RigPropertiesItemClicked</text>
</a>
</g>
<!-- Node1&#45;&gt;Node8 -->
<g id="edge14" class="edge"><title>Node1&#45;&gt;Node8</title>
<path fill="none" stroke="midnightblue" d="M145.705,-217.386C158.901,-219.272 172.753,-221.25 186.214,-223.173"/>
<polygon fill="midnightblue" stroke="midnightblue" points="186.018,-226.681 196.413,-224.63 187.008,-219.751 186.018,-226.681"/>
</g>
<!-- Node10 -->
<g id="node19" class="node"><title>Node10</title>
<a xlink:href="class_ro_r_1_1_g_u_i_1_1_rig_editor_menubar.html#a332ab9d1d1870b1624bf766d4963b967" target="_top" xlink:title="RoR::GUI::RigEditorMenubar\l::LandVehiclePropertiesItemClicked">
<polygon fill="white" stroke="black" points="182.5,-163 182.5,-197 355.5,-197 355.5,-163 182.5,-163"/>
<text text-anchor="start" x="190.5" y="-184" font-family="Helvetica,sans-Serif" font-size="10.00">RoR::GUI::RigEditorMenubar</text>
<text text-anchor="middle" x="269" y="-171" font-family="Helvetica,sans-Serif" font-size="10.00">::LandVehiclePropertiesItemClicked</text>
</a>
</g>
<!-- Node1&#45;&gt;Node10 -->
<g id="edge18" class="edge"><title>Node1&#45;&gt;Node10</title>
<path fill="none" stroke="midnightblue" d="M145.705,-196.985C154.412,-195.785 163.405,-194.546 172.382,-193.31"/>
<polygon fill="midnightblue" stroke="midnightblue" points="173.067,-196.748 182.496,-191.916 172.111,-189.814 173.067,-196.748"/>
</g>
<!-- Node12 -->
<g id="node23" class="node"><title>Node12</title>
<a xlink:href="class_ro_r_1_1_g_u_i_1_1_rig_editor_menubar.html#a675cc1a635fbb6291485c8da961f89a0" target="_top" xlink:title="RoR::GUI::RigEditorMenubar\l::SaveFileAsItemClicked">
<polygon fill="white" stroke="black" points="196.5,-110 196.5,-144 341.5,-144 341.5,-110 196.5,-110"/>
<text text-anchor="start" x="204.5" y="-131" font-family="Helvetica,sans-Serif" font-size="10.00">RoR::GUI::RigEditorMenubar</text>
<text text-anchor="middle" x="269" y="-118" font-family="Helvetica,sans-Serif" font-size="10.00">::SaveFileAsItemClicked</text>
</a>
</g>
<!-- Node1&#45;&gt;Node12 -->
<g id="edge22" class="edge"><title>Node1&#45;&gt;Node12</title>
<path fill="none" stroke="midnightblue" d="M104.856,-189.921C126.29,-178.828 155.39,-164.528 182,-154 187.79,-151.709 193.858,-149.484 199.98,-147.359"/>
<polygon fill="midnightblue" stroke="midnightblue" points="201.258,-150.622 209.613,-144.107 199.019,-143.989 201.258,-150.622"/>
</g>
<!-- Node14 -->
<g id="node27" class="node"><title>Node14</title>
<a xlink:href="class_ro_r_1_1_g_u_i_1_1_rig_editor_menubar.html#a5c79ec7ab983e35de5fff149c61364df" target="_top" xlink:title="RoR::GUI::RigEditorMenubar\l::CreateEmptyRigItemClicked">
<polygon fill="white" stroke="black" points="195,-56 195,-90 343,-90 343,-56 195,-56"/>
<text text-anchor="start" x="203" y="-77" font-family="Helvetica,sans-Serif" font-size="10.00">RoR::GUI::RigEditorMenubar</text>
<text text-anchor="middle" x="269" y="-64" font-family="Helvetica,sans-Serif" font-size="10.00">::CreateEmptyRigItemClicked</text>
</a>
</g>
<!-- Node1&#45;&gt;Node14 -->
<g id="edge26" class="edge"><title>Node1&#45;&gt;Node14</title>
<path fill="none" stroke="midnightblue" d="M86.2949,-189.826C105.181,-166.533 141.96,-125.078 182,-101 186.118,-98.5239 190.478,-96.2418 194.967,-94.1425"/>
<polygon fill="midnightblue" stroke="midnightblue" points="196.541,-97.275 204.324,-90.0864 193.757,-90.8525 196.541,-97.275"/>
</g>
<!-- Node16 -->
<g id="node31" class="node"><title>Node16</title>
<a xlink:href="class_ro_r_1_1_g_u_i_1_1_rig_editor_menubar.html#a88354fe073fb811f7a331b3a068a7072" target="_top" xlink:title="RoR::GUI::RigEditorMenubar\l::MenubarItemHelpClicked">
<polygon fill="white" stroke="black" points="196.5,-1 196.5,-35 341.5,-35 341.5,-1 196.5,-1"/>
<text text-anchor="start" x="204.5" y="-22" font-family="Helvetica,sans-Serif" font-size="10.00">RoR::GUI::RigEditorMenubar</text>
<text text-anchor="middle" x="269" y="-9" font-family="Helvetica,sans-Serif" font-size="10.00">::MenubarItemHelpClicked</text>
</a>
</g>
<!-- Node1&#45;&gt;Node16 -->
<g id="edge30" class="edge"><title>Node1&#45;&gt;Node16</title>
<path fill="none" stroke="midnightblue" d="M80.1527,-189.806C94.577,-157.193 130.251,-86.1164 182,-47 185.429,-44.4079 189.103,-42.0399 192.931,-39.8777"/>
<polygon fill="midnightblue" stroke="midnightblue" points="194.786,-42.8604 202.103,-35.1973 191.605,-36.6254 194.786,-42.8604"/>
</g>
<!-- Node3 -->
<g id="node5" class="node"><title>Node3</title>
<a xlink:href="class_ro_r_1_1_rig_editor_1_1_i_main.html#a48f66e32a245bba72495c479308de5b7" target="_top" xlink:title="RoR::RigEditor::IMain\l::CommandShowDialogOpenRigFile">
<polygon fill="white" stroke="black" points="400,-378 400,-412 574,-412 574,-378 400,-378"/>
<text text-anchor="start" x="408" y="-399" font-family="Helvetica,sans-Serif" font-size="10.00">RoR::RigEditor::IMain</text>
<text text-anchor="middle" x="487" y="-386" font-family="Helvetica,sans-Serif" font-size="10.00">::CommandShowDialogOpenRigFile</text>
</a>
</g>
<!-- Node2&#45;&gt;Node3 -->
<g id="edge4" class="edge"><title>Node2&#45;&gt;Node3</title>
<path fill="none" stroke="midnightblue" d="M341.591,-394.333C357.079,-394.404 373.676,-394.48 389.915,-394.555"/>
<polygon fill="midnightblue" stroke="midnightblue" points="389.951,-398.055 399.967,-394.601 389.983,-391.055 389.951,-398.055"/>
</g>
<!-- Node5 -->
<g id="node9" class="node"><title>Node5</title>
<a xlink:href="class_ro_r_1_1_rig_editor_1_1_i_main.html#a0eb260f1a19003868807cec4fd6b7eb5" target="_top" xlink:title="RoR::RigEditor::IMain\l::CommandCloseCurrentRig">
<polygon fill="white" stroke="black" points="417,-326 417,-360 557,-360 557,-326 417,-326"/>
<text text-anchor="start" x="425" y="-347" font-family="Helvetica,sans-Serif" font-size="10.00">RoR::RigEditor::IMain</text>
<text text-anchor="middle" x="487" y="-334" font-family="Helvetica,sans-Serif" font-size="10.00">::CommandCloseCurrentRig</text>
</a>
</g>
<!-- Node4&#45;&gt;Node5 -->
<g id="edge8" class="edge"><title>Node4&#45;&gt;Node5</title>
<path fill="none" stroke="midnightblue" d="M341.591,-342.333C362.548,-342.429 385.535,-342.535 406.92,-342.633"/>
<polygon fill="midnightblue" stroke="midnightblue" points="406.93,-346.133 416.946,-342.679 406.962,-339.133 406.93,-346.133"/>
</g>
<!-- Node7 -->
<g id="node13" class="node"><title>Node7</title>
<a xlink:href="class_ro_r_1_1_rig_editor_1_1_i_main.html#abc449215b06691171f461257cda2b932" target="_top" xlink:title="RoR::RigEditor::IMain\l::CommandQuitRigEditor">
<polygon fill="white" stroke="black" points="424,-274 424,-308 550,-308 550,-274 424,-274"/>
<text text-anchor="start" x="432" y="-295" font-family="Helvetica,sans-Serif" font-size="10.00">RoR::RigEditor::IMain</text>
<text text-anchor="middle" x="487" y="-282" font-family="Helvetica,sans-Serif" font-size="10.00">::CommandQuitRigEditor</text>
</a>
</g>
<!-- Node6&#45;&gt;Node7 -->
<g id="edge12" class="edge"><title>Node6&#45;&gt;Node7</title>
<path fill="none" stroke="midnightblue" d="M341.591,-289.666C364.788,-289.879 390.471,-290.114 413.717,-290.328"/>
<polygon fill="midnightblue" stroke="midnightblue" points="413.829,-293.829 423.861,-290.421 413.893,-286.829 413.829,-293.829"/>
</g>
<!-- Node9 -->
<g id="node17" class="node"><title>Node9</title>
<a xlink:href="class_ro_r_1_1_rig_editor_1_1_i_main.html#a59a8a56c5d9ee744ef39178f5f985c3d" target="_top" xlink:title="RoR::RigEditor::IMain\l::CommandShowRigPropertiesWindow">
<polygon fill="white" stroke="black" points="393.5,-222 393.5,-256 580.5,-256 580.5,-222 393.5,-222"/>
<text text-anchor="start" x="401.5" y="-243" font-family="Helvetica,sans-Serif" font-size="10.00">RoR::RigEditor::IMain</text>
<text text-anchor="middle" x="487" y="-230" font-family="Helvetica,sans-Serif" font-size="10.00">::CommandShowRigPropertiesWindow</text>
</a>
</g>
<!-- Node8&#45;&gt;Node9 -->
<g id="edge16" class="edge"><title>Node8&#45;&gt;Node9</title>
<path fill="none" stroke="midnightblue" d="M341.591,-236.332C354.946,-236.577 369.126,-236.837 383.19,-237.095"/>
<polygon fill="midnightblue" stroke="midnightblue" points="383.334,-240.598 393.397,-237.283 383.463,-233.6 383.334,-240.598"/>
</g>
<!-- Node11 -->
<g id="node21" class="node"><title>Node11</title>
<a xlink:href="class_ro_r_1_1_rig_editor_1_1_i_main.html#ab9b0893feb5058486f5542be0b35eab2" target="_top" xlink:title="RoR::RigEditor::IMain\l::CommandShowLandVehicleProperties\lWindow">
<polygon fill="white" stroke="black" points="392,-156.5 392,-203.5 582,-203.5 582,-156.5 392,-156.5"/>
<text text-anchor="start" x="400" y="-190.5" font-family="Helvetica,sans-Serif" font-size="10.00">RoR::RigEditor::IMain</text>
<text text-anchor="start" x="400" y="-177.5" font-family="Helvetica,sans-Serif" font-size="10.00">::CommandShowLandVehicleProperties</text>
<text text-anchor="middle" x="487" y="-164.5" font-family="Helvetica,sans-Serif" font-size="10.00">Window</text>
</a>
</g>
<!-- Node10&#45;&gt;Node11 -->
<g id="edge20" class="edge"><title>Node10&#45;&gt;Node11</title>
<path fill="none" stroke="midnightblue" d="M355.786,-180C364.32,-180 373.044,-180 381.736,-180"/>
<polygon fill="midnightblue" stroke="midnightblue" points="381.912,-183.5 391.912,-180 381.912,-176.5 381.912,-183.5"/>
</g>
<!-- Node13 -->
<g id="node25" class="node"><title>Node13</title>
<a xlink:href="class_ro_r_1_1_rig_editor_1_1_i_main.html#ad5a251ff135475725160f55a8889dfe5" target="_top" xlink:title="RoR::RigEditor::IMain\l::CommandShowDialogSaveRigFileAs">
<polygon fill="white" stroke="black" points="394.5,-104 394.5,-138 579.5,-138 579.5,-104 394.5,-104"/>
<text text-anchor="start" x="402.5" y="-125" font-family="Helvetica,sans-Serif" font-size="10.00">RoR::RigEditor::IMain</text>
<text text-anchor="middle" x="487" y="-112" font-family="Helvetica,sans-Serif" font-size="10.00">::CommandShowDialogSaveRigFileAs</text>
</a>
</g>
<!-- Node12&#45;&gt;Node13 -->
<g id="edge24" class="edge"><title>Node12&#45;&gt;Node13</title>
<path fill="none" stroke="midnightblue" d="M341.591,-125.002C355.146,-124.629 369.549,-124.233 383.82,-123.84"/>
<polygon fill="midnightblue" stroke="midnightblue" points="384.273,-127.329 394.173,-123.555 384.08,-120.331 384.273,-127.329"/>
</g>
<!-- Node15 -->
<g id="node29" class="node"><title>Node15</title>
<a xlink:href="class_ro_r_1_1_rig_editor_1_1_i_main.html#ad44437af0c02d795882f5ee6ca182c41" target="_top" xlink:title="RoR::RigEditor::IMain\l::CommandCreateNewEmptyRig">
<polygon fill="white" stroke="black" points="406.5,-52 406.5,-86 567.5,-86 567.5,-52 406.5,-52"/>
<text text-anchor="start" x="414.5" y="-73" font-family="Helvetica,sans-Serif" font-size="10.00">RoR::RigEditor::IMain</text>
<text text-anchor="middle" x="487" y="-60" font-family="Helvetica,sans-Serif" font-size="10.00">::CommandCreateNewEmptyRig</text>
</a>
</g>
<!-- Node14&#45;&gt;Node15 -->
<g id="edge28" class="edge"><title>Node14&#45;&gt;Node15</title>
<path fill="none" stroke="midnightblue" d="M343.109,-71.6402C360.134,-71.3278 378.429,-70.9921 396.074,-70.6684"/>
<polygon fill="midnightblue" stroke="midnightblue" points="396.439,-74.1623 406.373,-70.4794 396.311,-67.1635 396.439,-74.1623"/>
</g>
<!-- Node17 -->
<g id="node33" class="node"><title>Node17</title>
<a xlink:href="class_ro_r_1_1_rig_editor_1_1_i_main.html#a15f7ad10b3f070edb50d6c219fede08c" target="_top" xlink:title="RoR::RigEditor::IMain\l::CommandShowHelpWindow">
<polygon fill="white" stroke="black" points="413,-0 413,-34 561,-34 561,-0 413,-0"/>
<text text-anchor="start" x="421" y="-21" font-family="Helvetica,sans-Serif" font-size="10.00">RoR::RigEditor::IMain</text>
<text text-anchor="middle" x="487" y="-8" font-family="Helvetica,sans-Serif" font-size="10.00">::CommandShowHelpWindow</text>
</a>
</g>
<!-- Node16&#45;&gt;Node17 -->
<g id="edge32" class="edge"><title>Node16&#45;&gt;Node17</title>
<path fill="none" stroke="midnightblue" d="M341.591,-17.667C361.193,-17.5771 382.57,-17.479 402.752,-17.3865"/>
<polygon fill="midnightblue" stroke="midnightblue" points="402.881,-20.886 412.865,-17.3401 402.849,-13.8861 402.881,-20.886"/>
</g>
</g>
</svg>
