<?xml version="1.0" encoding="UTF-8" standalone="no"?>
<!DOCTYPE svg PUBLIC "-//W3C//DTD SVG 1.1//EN"
 "http://www.w3.org/Graphics/SVG/1.1/DTD/svg11.dtd">
<!-- Generated by graphviz version 2.26.3 (20100126.1600)
 -->
<!-- Title: G Pages: 1 -->
<svg width="354pt" height="48pt"
 viewBox="0.00 0.00 354.00 48.00" xmlns="http://www.w3.org/2000/svg" xmlns:xlink="http://www.w3.org/1999/xlink">
<g id="graph1" class="graph" transform="scale(1 1) rotate(0) translate(4 44)">
<title>G</title>
<polygon fill="white" stroke="white" points="-4,5 -4,-44 351,-44 351,5 -4,5"/>
<!-- Node1 -->
<g id="node1" class="node"><title>Node1</title>
<polygon fill="#bfbfbf" stroke="black" points="0,-0.5 0,-21.5 168,-21.5 168,-0.5 0,-0.5"/>
<text text-anchor="middle" x="84" y="-8.5" font-family="Helvetica,sans-Serif" font-size="10.00">CSerializedValue::RestoreHandles</text>
</g>
<!-- Node2 -->
<g id="node3" class="node"><title>Node2</title>
<a xlink:href="class_c_serialized_value.html#ad48ee62b7f146e6cbbbe01a4307f10da" target="_top" xlink:title="CSerializedValue::FindByPtr">
<polygon fill="white" stroke="black" points="204.5,-0.5 204.5,-21.5 345.5,-21.5 345.5,-0.5 204.5,-0.5"/>
<text text-anchor="middle" x="275" y="-8.5" font-family="Helvetica,sans-Serif" font-size="10.00">CSerializedValue::FindByPtr</text>
</a>
</g>
<!-- Node1&#45;&gt;Node2 -->
<g id="edge2" class="edge"><title>Node1&#45;&gt;Node2</title>
<path fill="none" stroke="midnightblue" d="M168.053,-11C176.758,-11 185.59,-11 194.257,-11"/>
<polygon fill="midnightblue" stroke="midnightblue" points="194.337,-14.5001 204.337,-11 194.337,-7.5001 194.337,-14.5001"/>
</g>
<!-- Node2&#45;&gt;Node2 -->
<g id="edge4" class="edge"><title>Node2&#45;&gt;Node2</title>
<path fill="none" stroke="midnightblue" d="M244.811,-21.7079C231.91,-30.6531 241.973,-40 275,-40 297.19,-40 309.014,-35.7807 310.471,-30.2987"/>
<polygon fill="midnightblue" stroke="midnightblue" points="313.408,-28.3931 305.189,-21.7079 307.445,-32.0596 313.408,-28.3931"/>
</g>
</g>
</svg>
