<?xml version="1.0" encoding="UTF-8" standalone="no"?>
<!DOCTYPE svg PUBLIC "-//W3C//DTD SVG 1.1//EN"
 "http://www.w3.org/Graphics/SVG/1.1/DTD/svg11.dtd">
<!-- Generated by graphviz version 2.26.3 (20100126.1600)
 -->
<!-- Title: Ogre::ShaderParticleRenderer::setVertexFormatTimeFragmentInv Pages: 1 -->
<svg width="406pt" height="42pt"
 viewBox="0.00 0.00 406.00 42.00" xmlns="http://www.w3.org/2000/svg" xmlns:xlink="http://www.w3.org/1999/xlink">
<g id="graph1" class="graph" transform="scale(1 1) rotate(0) translate(4 38)">
<title>Ogre::ShaderParticleRenderer::setVertexFormatTimeFragmentInv</title>
<polygon fill="white" stroke="white" points="-4,5 -4,-38 403,-38 403,5 -4,5"/>
<!-- Node1 -->
<g id="node1" class="node"><title>Node1</title>
<polygon fill="#bfbfbf" stroke="black" points="0,-0 0,-34 172,-34 172,-0 0,-0"/>
<text text-anchor="start" x="8" y="-21" font-family="Helvetica,sans-Serif" font-size="10.00">Ogre::ShaderParticleRenderer</text>
<text text-anchor="middle" x="86" y="-8" font-family="Helvetica,sans-Serif" font-size="10.00">::setVertexFormatTimeFragmentInv</text>
</g>
<!-- Node2 -->
<g id="node3" class="node"><title>Node2</title>
<a xlink:href="class_ogre_1_1_shader_particle_renderer_1_1_cmd_vertex_format_time_frag_inv.html#aa8176ff6326ee559395699995fa436bb" target="_top" xlink:title="Ogre::ShaderParticleRenderer\l::CmdVertexFormatTimeFragInv::doSet">
<polygon fill="white" stroke="black" points="208.5,-0 208.5,-34 397.5,-34 397.5,-0 208.5,-0"/>
<text text-anchor="start" x="216.5" y="-21" font-family="Helvetica,sans-Serif" font-size="10.00">Ogre::ShaderParticleRenderer</text>
<text text-anchor="middle" x="303" y="-8" font-family="Helvetica,sans-Serif" font-size="10.00">::CmdVertexFormatTimeFragInv::doSet</text>
</a>
</g>
<!-- Node1&#45;&gt;Node2 -->
<g id="edge2" class="edge"><title>Node1&#45;&gt;Node2</title>
<path fill="none" stroke="midnightblue" d="M182.236,-17C190.945,-17 199.76,-17 208.454,-17"/>
<polygon fill="midnightblue" stroke="midnightblue" points="182.076,-13.5001 172.076,-17 182.076,-20.5001 182.076,-13.5001"/>
</g>
</g>
</svg>
