<?xml version="1.0" encoding="UTF-8" standalone="no"?>
<!DOCTYPE svg PUBLIC "-//W3C//DTD SVG 1.1//EN"
 "http://www.w3.org/Graphics/SVG/1.1/DTD/svg11.dtd">
<!-- Generated by graphviz version 2.26.3 (20100126.1600)
 -->
<!-- Title: Collisions::hashfunc Pages: 1 -->
<svg width="2250pt" height="378pt"
 viewBox="0.00 0.00 2250.00 377.88" xmlns="http://www.w3.org/2000/svg" xmlns:xlink="http://www.w3.org/1999/xlink">
<g id="graph1" class="graph" transform="scale(1 1) rotate(0) translate(4 373.884)">
<title>Collisions::hashfunc</title>
<polygon fill="white" stroke="white" points="-4,5 -4,-373.884 2247,-373.884 2247,5 -4,5"/>
<!-- Node1 -->
<g id="node1" class="node"><title>Node1</title>
<polygon fill="#bfbfbf" stroke="black" points="0.5,-208.384 0.5,-229.384 105.5,-229.384 105.5,-208.384 0.5,-208.384"/>
<text text-anchor="middle" x="53" y="-216.384" font-family="Helvetica,sans-Serif" font-size="10.00">Collisions::hashfunc</text>
</g>
<!-- Node2 -->
<g id="node3" class="node"><title>Node2</title>
<a xlink:href="class_collisions.html#a5daaefbf4b30949f1d68ba5ae38d9b9b" target="_top" xlink:title="Collisions::hash_free">
<polygon fill="white" stroke="black" points="142,-268.384 142,-289.384 250,-289.384 250,-268.384 142,-268.384"/>
<text text-anchor="middle" x="196" y="-276.384" font-family="Helvetica,sans-Serif" font-size="10.00">Collisions::hash_free</text>
</a>
</g>
<!-- Node1&#45;&gt;Node2 -->
<g id="edge2" class="edge"><title>Node1&#45;&gt;Node2</title>
<path fill="none" stroke="midnightblue" d="M87.5733,-233.39C113.154,-244.123 147.425,-258.503 170.535,-268.199"/>
<polygon fill="midnightblue" stroke="midnightblue" points="88.8117,-230.114 78.2364,-229.473 86.1034,-236.569 88.8117,-230.114"/>
</g>
<!-- Node10 -->
<g id="node20" class="node"><title>Node10</title>
<a xlink:href="class_collisions.html#ab8dc3b86fee4e2aa47927bfeabe2ddfe" target="_top" xlink:title="Collisions::hash_add">
<polygon fill="white" stroke="black" points="142.5,-208.384 142.5,-229.384 249.5,-229.384 249.5,-208.384 142.5,-208.384"/>
<text text-anchor="middle" x="196" y="-216.384" font-family="Helvetica,sans-Serif" font-size="10.00">Collisions::hash_add</text>
</a>
</g>
<!-- Node1&#45;&gt;Node10 -->
<g id="edge20" class="edge"><title>Node1&#45;&gt;Node10</title>
<path fill="none" stroke="midnightblue" d="M116.056,-218.884C124.852,-218.884 133.821,-218.884 142.42,-218.884"/>
<polygon fill="midnightblue" stroke="midnightblue" points="115.842,-215.384 105.842,-218.884 115.842,-222.384 115.842,-215.384"/>
</g>
<!-- Node32 -->
<g id="node67" class="node"><title>Node32</title>
<a xlink:href="class_collisions.html#a4d438eb211fe0953343dc39f478e14e0" target="_top" xlink:title="Collisions::hash_find">
<polygon fill="white" stroke="black" points="142.5,-46.3838 142.5,-67.3838 249.5,-67.3838 249.5,-46.3838 142.5,-46.3838"/>
<text text-anchor="middle" x="196" y="-54.3838" font-family="Helvetica,sans-Serif" font-size="10.00">Collisions::hash_find</text>
</a>
</g>
<!-- Node1&#45;&gt;Node32 -->
<g id="edge70" class="edge"><title>Node1&#45;&gt;Node32</title>
<path fill="none" stroke="midnightblue" d="M69.243,-200.483C99.2091,-166.535 162.324,-95.0341 186.395,-67.7647"/>
<polygon fill="midnightblue" stroke="midnightblue" points="66.3764,-198.441 62.3826,-208.255 71.6244,-203.074 66.3764,-198.441"/>
</g>
<!-- Node3 -->
<g id="node5" class="node"><title>Node3</title>
<a xlink:href="class_collisions.html#ac9796300989b7f75868f6b4707f4dec0" target="_top" xlink:title="Collisions::removeCollisionTri">
<polygon fill="white" stroke="black" points="289,-308.384 289,-329.384 435,-329.384 435,-308.384 289,-308.384"/>
<text text-anchor="middle" x="362" y="-316.384" font-family="Helvetica,sans-Serif" font-size="10.00">Collisions::removeCollisionTri</text>
</a>
</g>
<!-- Node2&#45;&gt;Node3 -->
<g id="edge4" class="edge"><title>Node2&#45;&gt;Node3</title>
<path fill="none" stroke="midnightblue" d="M249.581,-291.795C271.828,-297.156 297.314,-303.297 318.389,-308.375"/>
<polygon fill="midnightblue" stroke="midnightblue" points="250.156,-288.333 239.615,-289.393 248.516,-295.139 250.156,-288.333"/>
</g>
<!-- Node8 -->
<g id="node15" class="node"><title>Node8</title>
<a xlink:href="class_collisions.html#a2b717349889d16df812225582f8ac943" target="_top" xlink:title="Collisions::removeCollisionBox">
<polygon fill="white" stroke="black" points="286,-268.384 286,-289.384 438,-289.384 438,-268.384 286,-268.384"/>
<text text-anchor="middle" x="362" y="-276.384" font-family="Helvetica,sans-Serif" font-size="10.00">Collisions::removeCollisionBox</text>
</a>
</g>
<!-- Node2&#45;&gt;Node8 -->
<g id="edge14" class="edge"><title>Node2&#45;&gt;Node8</title>
<path fill="none" stroke="midnightblue" d="M260.374,-278.884C268.716,-278.884 277.322,-278.884 285.832,-278.884"/>
<polygon fill="midnightblue" stroke="midnightblue" points="260.355,-275.384 250.355,-278.884 260.355,-282.384 260.355,-275.384"/>
</g>
<!-- Node4 -->
<g id="node7" class="node"><title>Node4</title>
<a xlink:href="class_road2.html#ac9acc1c075562fdf4f6078b4fc867858" target="_top" xlink:title="Road2::~Road2">
<polygon fill="white" stroke="black" points="503,-348.384 503,-369.384 589,-369.384 589,-348.384 503,-348.384"/>
<text text-anchor="middle" x="546" y="-356.384" font-family="Helvetica,sans-Serif" font-size="10.00">Road2::~Road2</text>
</a>
</g>
<!-- Node3&#45;&gt;Node4 -->
<g id="edge6" class="edge"><title>Node3&#45;&gt;Node4</title>
<path fill="none" stroke="midnightblue" d="M420.376,-331.574C447.176,-337.4 478.389,-344.186 502.998,-349.536"/>
<polygon fill="midnightblue" stroke="midnightblue" points="420.859,-328.098 410.344,-329.393 419.372,-334.938 420.859,-328.098"/>
</g>
<!-- Node5 -->
<g id="node9" class="node"><title>Node5</title>
<a xlink:href="_terrain_object_manager_8cpp.html#a10b3ef92e6788c5d406f238715b3de93" target="_top" xlink:title="removeCollisionTri">
<polygon fill="white" stroke="black" points="497,-308.384 497,-329.384 595,-329.384 595,-308.384 497,-308.384"/>
<text text-anchor="middle" x="546" y="-316.384" font-family="Helvetica,sans-Serif" font-size="10.00">removeCollisionTri</text>
</a>
</g>
<!-- Node3&#45;&gt;Node5 -->
<g id="edge8" class="edge"><title>Node3&#45;&gt;Node5</title>
<path fill="none" stroke="midnightblue" d="M445.498,-318.884C463.018,-318.884 480.952,-318.884 496.731,-318.884"/>
<polygon fill="midnightblue" stroke="midnightblue" points="445.25,-315.384 435.25,-318.884 445.25,-322.384 445.25,-315.384"/>
</g>
<!-- Node6 -->
<g id="node11" class="node"><title>Node6</title>
<a xlink:href="class_terrain_object_manager.html#a810b822abfbab9dd498a884f1787512c" target="_top" xlink:title="TerrainObjectManager\l::unloadObject">
<polygon fill="white" stroke="black" points="662.5,-289.884 662.5,-323.884 775.5,-323.884 775.5,-289.884 662.5,-289.884"/>
<text text-anchor="start" x="670.5" y="-310.884" font-family="Helvetica,sans-Serif" font-size="10.00">TerrainObjectManager</text>
<text text-anchor="middle" x="719" y="-297.884" font-family="Helvetica,sans-Serif" font-size="10.00">::unloadObject</text>
</a>
</g>
<!-- Node5&#45;&gt;Node6 -->
<g id="edge10" class="edge"><title>Node5&#45;&gt;Node6</title>
<path fill="none" stroke="midnightblue" d="M605.187,-314.778C623.711,-313.493 644.097,-312.079 662.436,-310.807"/>
<polygon fill="midnightblue" stroke="midnightblue" points="604.846,-311.294 595.112,-315.477 605.33,-318.277 604.846,-311.294"/>
</g>
<!-- Node7 -->
<g id="node13" class="node"><title>Node7</title>
<a xlink:href="class_game_script.html#ac9ef8b95e5fd759b73ef414e9ae9a6a8" target="_top" xlink:title="GameScript::destroyObject">
<polygon fill="white" stroke="black" points="820.5,-296.384 820.5,-317.384 955.5,-317.384 955.5,-296.384 820.5,-296.384"/>
<text text-anchor="middle" x="888" y="-304.384" font-family="Helvetica,sans-Serif" font-size="10.00">GameScript::destroyObject</text>
</a>
</g>
<!-- Node6&#45;&gt;Node7 -->
<g id="edge12" class="edge"><title>Node6&#45;&gt;Node7</title>
<path fill="none" stroke="midnightblue" d="M785.963,-306.884C797.249,-306.884 808.972,-306.884 820.278,-306.884"/>
<polygon fill="midnightblue" stroke="midnightblue" points="785.745,-303.384 775.745,-306.884 785.745,-310.384 785.745,-303.384"/>
</g>
<!-- Node9 -->
<g id="node17" class="node"><title>Node9</title>
<a xlink:href="_terrain_object_manager_8cpp.html#ab40142c48f4c5880d436b03abc7e6f26" target="_top" xlink:title="removeCollisionBox">
<polygon fill="white" stroke="black" points="494,-268.384 494,-289.384 598,-289.384 598,-268.384 494,-268.384"/>
<text text-anchor="middle" x="546" y="-276.384" font-family="Helvetica,sans-Serif" font-size="10.00">removeCollisionBox</text>
</a>
</g>
<!-- Node8&#45;&gt;Node9 -->
<g id="edge16" class="edge"><title>Node8&#45;&gt;Node9</title>
<path fill="none" stroke="midnightblue" d="M448.363,-278.884C463.954,-278.884 479.761,-278.884 493.985,-278.884"/>
<polygon fill="midnightblue" stroke="midnightblue" points="448.168,-275.384 438.168,-278.884 448.168,-282.384 448.168,-275.384"/>
</g>
<!-- Node9&#45;&gt;Node6 -->
<g id="edge18" class="edge"><title>Node9&#45;&gt;Node6</title>
<path fill="none" stroke="midnightblue" d="M608.526,-289.004C626.088,-291.846 645.082,-294.92 662.285,-297.705"/>
<polygon fill="midnightblue" stroke="midnightblue" points="608.806,-285.503 598.375,-287.361 607.688,-292.414 608.806,-285.503"/>
</g>
<!-- Node11 -->
<g id="node22" class="node"><title>Node11</title>
<a xlink:href="class_collisions.html#a50cf1fc86be3b7e69b687256f6d5d1f3" target="_top" xlink:title="Collisions::addCollisionBox">
<polygon fill="white" stroke="black" points="294,-228.384 294,-249.384 430,-249.384 430,-228.384 294,-228.384"/>
<text text-anchor="middle" x="362" y="-236.384" font-family="Helvetica,sans-Serif" font-size="10.00">Collisions::addCollisionBox</text>
</a>
</g>
<!-- Node10&#45;&gt;Node11 -->
<g id="edge22" class="edge"><title>Node10&#45;&gt;Node11</title>
<path fill="none" stroke="midnightblue" d="M259.931,-226.586C271.033,-227.924 282.616,-229.32 293.826,-230.67"/>
<polygon fill="midnightblue" stroke="midnightblue" points="260.242,-223.099 249.895,-225.377 259.405,-230.048 260.242,-223.099"/>
</g>
<!-- Node25 -->
<g id="node50" class="node"><title>Node25</title>
<a xlink:href="class_collisions.html#a44e7f403a680e597a54209b2873b6e28" target="_top" xlink:title="Collisions::addCollisionTri">
<polygon fill="white" stroke="black" points="297,-188.384 297,-209.384 427,-209.384 427,-188.384 297,-188.384"/>
<text text-anchor="middle" x="362" y="-196.384" font-family="Helvetica,sans-Serif" font-size="10.00">Collisions::addCollisionTri</text>
</a>
</g>
<!-- Node10&#45;&gt;Node25 -->
<g id="edge50" class="edge"><title>Node10&#45;&gt;Node25</title>
<path fill="none" stroke="midnightblue" d="M259.895,-211.186C271.987,-209.729 284.652,-208.203 296.785,-206.741"/>
<polygon fill="midnightblue" stroke="midnightblue" points="259.405,-207.719 249.895,-212.39 260.242,-214.669 259.405,-207.719"/>
</g>
<!-- Node12 -->
<g id="node24" class="node"><title>Node12</title>
<a xlink:href="class_terrain_object_manager.html#a62a108ad201e16585ab3115befedae60" target="_top" xlink:title="TerrainObjectManager\l::loadObject">
<polygon fill="white" stroke="black" points="662.5,-226.884 662.5,-260.884 775.5,-260.884 775.5,-226.884 662.5,-226.884"/>
<text text-anchor="start" x="670.5" y="-247.884" font-family="Helvetica,sans-Serif" font-size="10.00">TerrainObjectManager</text>
<text text-anchor="middle" x="719" y="-234.884" font-family="Helvetica,sans-Serif" font-size="10.00">::loadObject</text>
</a>
</g>
<!-- Node11&#45;&gt;Node12 -->
<g id="edge24" class="edge"><title>Node11&#45;&gt;Node12</title>
<path fill="none" stroke="midnightblue" d="M440.509,-239.983C507.559,-240.922 602.396,-242.251 662.282,-243.089"/>
<polygon fill="midnightblue" stroke="midnightblue" points="440.459,-236.482 430.411,-239.842 440.361,-243.482 440.459,-236.482"/>
</g>
<!-- Node13 -->
<g id="node26" class="node"><title>Node13</title>
<a xlink:href="class_game_script.html#adc155d46516906fb9bfddde649c02ee6" target="_top" xlink:title="GameScript::spawnObject">
<polygon fill="white" stroke="black" points="822.5,-238.384 822.5,-259.384 953.5,-259.384 953.5,-238.384 822.5,-238.384"/>
<text text-anchor="middle" x="888" y="-246.384" font-family="Helvetica,sans-Serif" font-size="10.00">GameScript::spawnObject</text>
</a>
</g>
<!-- Node12&#45;&gt;Node13 -->
<g id="edge26" class="edge"><title>Node12&#45;&gt;Node13</title>
<path fill="none" stroke="midnightblue" d="M786.088,-245.869C798.028,-246.222 810.454,-246.59 822.354,-246.942"/>
<polygon fill="midnightblue" stroke="midnightblue" points="785.844,-242.36 775.745,-245.563 785.637,-249.357 785.844,-242.36"/>
</g>
<!-- Node14 -->
<g id="node28" class="node"><title>Node14</title>
<a xlink:href="class_terrain_object_manager.html#a45ccbf51f9c0ecac68927fed5e52eaa4" target="_top" xlink:title="TerrainObjectManager\l::loadObjectConfigFile">
<polygon fill="white" stroke="black" points="831.5,-185.884 831.5,-219.884 944.5,-219.884 944.5,-185.884 831.5,-185.884"/>
<text text-anchor="start" x="839.5" y="-206.884" font-family="Helvetica,sans-Serif" font-size="10.00">TerrainObjectManager</text>
<text text-anchor="middle" x="888" y="-193.884" font-family="Helvetica,sans-Serif" font-size="10.00">::loadObjectConfigFile</text>
</a>
</g>
<!-- Node12&#45;&gt;Node14 -->
<g id="edge28" class="edge"><title>Node12&#45;&gt;Node14</title>
<path fill="none" stroke="midnightblue" d="M785.571,-227.734C800.734,-224.055 816.704,-220.18 831.405,-216.614"/>
<polygon fill="midnightblue" stroke="midnightblue" points="784.638,-224.358 775.745,-230.117 786.288,-231.161 784.638,-224.358"/>
</g>
<!-- Node15 -->
<g id="node30" class="node"><title>Node15</title>
<a xlink:href="class_terrain_manager.html#a4ad87b973cb6af52daaf530a5feff167" target="_top" xlink:title="TerrainManager::loadTerrain\lObjects">
<polygon fill="white" stroke="black" points="1004,-176.884 1004,-210.884 1142,-210.884 1142,-176.884 1004,-176.884"/>
<text text-anchor="start" x="1012" y="-197.884" font-family="Helvetica,sans-Serif" font-size="10.00">TerrainManager::loadTerrain</text>
<text text-anchor="middle" x="1073" y="-184.884" font-family="Helvetica,sans-Serif" font-size="10.00">Objects</text>
</a>
</g>
<!-- Node14&#45;&gt;Node15 -->
<g id="edge30" class="edge"><title>Node14&#45;&gt;Node15</title>
<path fill="none" stroke="midnightblue" d="M954.796,-199.634C970.722,-198.86 987.752,-198.031 1003.78,-197.251"/>
<polygon fill="midnightblue" stroke="midnightblue" points="954.329,-196.153 944.511,-200.135 954.67,-203.144 954.329,-196.153"/>
</g>
<!-- Node16 -->
<g id="node32" class="node"><title>Node16</title>
<a xlink:href="class_terrain_manager.html#a9a04c837bf2ea6528c465b27ca62f730" target="_top" xlink:title="TerrainManager::loadTerrain">
<polygon fill="white" stroke="black" points="1190,-98.3838 1190,-119.384 1328,-119.384 1328,-98.3838 1190,-98.3838"/>
<text text-anchor="middle" x="1259" y="-106.384" font-family="Helvetica,sans-Serif" font-size="10.00">TerrainManager::loadTerrain</text>
</a>
</g>
<!-- Node15&#45;&gt;Node16 -->
<g id="edge32" class="edge"><title>Node15&#45;&gt;Node16</title>
<path fill="none" stroke="midnightblue" d="M1124.19,-172.898C1134.12,-168.685 1144.42,-164.218 1154,-159.884 1183.36,-146.604 1216.75,-130.147 1237.84,-119.582"/>
<polygon fill="midnightblue" stroke="midnightblue" points="1122.67,-169.739 1114.81,-176.846 1125.39,-176.19 1122.67,-169.739"/>
</g>
<!-- Node17 -->
<g id="node34" class="node"><title>Node17</title>
<a xlink:href="class_ro_r_1_1_main_thread.html#a60603be78a54ae5a24ca1c00509aca1f" target="_top" xlink:title="RoR::MainThread::LoadTerrain">
<polygon fill="white" stroke="black" points="1364.5,-98.3838 1364.5,-119.384 1515.5,-119.384 1515.5,-98.3838 1364.5,-98.3838"/>
<text text-anchor="middle" x="1440" y="-106.384" font-family="Helvetica,sans-Serif" font-size="10.00">RoR::MainThread::LoadTerrain</text>
</a>
</g>
<!-- Node16&#45;&gt;Node17 -->
<g id="edge34" class="edge"><title>Node16&#45;&gt;Node17</title>
<path fill="none" stroke="midnightblue" d="M1338.24,-108.884C1346.86,-108.884 1355.62,-108.884 1364.2,-108.884"/>
<polygon fill="midnightblue" stroke="midnightblue" points="1338.2,-105.384 1328.2,-108.884 1338.2,-112.384 1338.2,-105.384"/>
</g>
<!-- Node18 -->
<g id="node36" class="node"><title>Node18</title>
<a xlink:href="class_ro_r_1_1_main_thread.html#aa3feeebda7f3f4c31a6cb96ea60c09e0" target="_top" xlink:title="RoR::MainThread::SetupGameplayLoop">
<polygon fill="white" stroke="black" points="1552.5,-118.384 1552.5,-139.384 1743.5,-139.384 1743.5,-118.384 1552.5,-118.384"/>
<text text-anchor="middle" x="1648" y="-126.384" font-family="Helvetica,sans-Serif" font-size="10.00">RoR::MainThread::SetupGameplayLoop</text>
</a>
</g>
<!-- Node17&#45;&gt;Node18 -->
<g id="edge36" class="edge"><title>Node17&#45;&gt;Node18</title>
<path fill="none" stroke="midnightblue" d="M1525.89,-117.142C1534.67,-117.986 1543.62,-118.848 1552.5,-119.701"/>
<polygon fill="midnightblue" stroke="midnightblue" points="1525.97,-113.634 1515.68,-116.161 1525.3,-120.602 1525.97,-113.634"/>
</g>
<!-- Node24 -->
<g id="node48" class="node"><title>Node24</title>
<a xlink:href="class_game_script.html#ac1cba3fc83facbad8281ff80d4ab0f0b" target="_top" xlink:title="GameScript::loadTerrain">
<polygon fill="white" stroke="black" points="1587,-78.3838 1587,-99.3838 1709,-99.3838 1709,-78.3838 1587,-78.3838"/>
<text text-anchor="middle" x="1648" y="-86.3838" font-family="Helvetica,sans-Serif" font-size="10.00">GameScript::loadTerrain</text>
</a>
</g>
<!-- Node17&#45;&gt;Node24 -->
<g id="edge48" class="edge"><title>Node17&#45;&gt;Node24</title>
<path fill="none" stroke="midnightblue" d="M1525.64,-100.649C1546.11,-98.6807 1567.57,-96.6178 1586.69,-94.779"/>
<polygon fill="midnightblue" stroke="midnightblue" points="1525.3,-97.1657 1515.68,-101.607 1525.97,-104.134 1525.3,-97.1657"/>
</g>
<!-- Node19 -->
<g id="node38" class="node"><title>Node19</title>
<a xlink:href="class_ro_r_1_1_main_thread.html#a7e4d0bd23a40e509892883af75ea0dbf" target="_top" xlink:title="RoR::MainThread::Go">
<polygon fill="white" stroke="black" points="1780.5,-118.384 1780.5,-139.384 1893.5,-139.384 1893.5,-118.384 1780.5,-118.384"/>
<text text-anchor="middle" x="1837" y="-126.384" font-family="Helvetica,sans-Serif" font-size="10.00">RoR::MainThread::Go</text>
</a>
</g>
<!-- Node18&#45;&gt;Node19 -->
<g id="edge38" class="edge"><title>Node18&#45;&gt;Node19</title>
<path fill="none" stroke="midnightblue" d="M1753.87,-128.884C1762.93,-128.884 1771.84,-128.884 1780.28,-128.884"/>
<polygon fill="midnightblue" stroke="midnightblue" points="1753.61,-125.384 1743.61,-128.884 1753.61,-132.384 1753.61,-125.384"/>
</g>
<!-- Node20 -->
<g id="node40" class="node"><title>Node20</title>
<a xlink:href="main_2main__sim_2main_8cpp.html#a0ddf1224851353fc92bfbff6f499fa97" target="_top" xlink:title="main">
<polygon fill="white" stroke="black" points="1980,-141.384 1980,-162.384 2018,-162.384 2018,-141.384 1980,-141.384"/>
<text text-anchor="middle" x="1999" y="-149.384" font-family="Helvetica,sans-Serif" font-size="10.00">main</text>
</a>
</g>
<!-- Node19&#45;&gt;Node20 -->
<g id="edge40" class="edge"><title>Node19&#45;&gt;Node20</title>
<path fill="none" stroke="midnightblue" d="M1903.69,-138.353C1931.27,-142.268 1961.14,-146.508 1979.95,-149.179"/>
<polygon fill="midnightblue" stroke="midnightblue" points="1904.05,-134.869 1893.66,-136.928 1903.07,-141.799 1904.05,-134.869"/>
</g>
<!-- Node22 -->
<g id="node44" class="node"><title>Node22</title>
<a xlink:href="class_ro_r_1_1_main_thread.html#a7a2db954fd2f35d63982d8603d2b9614" target="_top" xlink:title="RoR::MainThread::Request\lRestart">
<polygon fill="white" stroke="black" points="1930.5,-88.8838 1930.5,-122.884 2067.5,-122.884 2067.5,-88.8838 1930.5,-88.8838"/>
<text text-anchor="start" x="1938.5" y="-109.884" font-family="Helvetica,sans-Serif" font-size="10.00">RoR::MainThread::Request</text>
<text text-anchor="middle" x="1999" y="-96.8838" font-family="Helvetica,sans-Serif" font-size="10.00">Restart</text>
</a>
</g>
<!-- Node19&#45;&gt;Node22 -->
<g id="edge44" class="edge"><title>Node19&#45;&gt;Node22</title>
<path fill="none" stroke="midnightblue" d="M1903.82,-119.396C1912.59,-118.151 1921.59,-116.874 1930.39,-115.624"/>
<polygon fill="midnightblue" stroke="midnightblue" points="1903.07,-115.969 1893.66,-120.84 1904.05,-122.899 1903.07,-115.969"/>
</g>
<!-- Node21 -->
<g id="node42" class="node"><title>Node21</title>
<a xlink:href="main_2main__sim_2main_8cpp.html#a2922bc5d5c2d77a3020cfbf9df12aab0" target="_top" xlink:title="WinMain">
<polygon fill="white" stroke="black" points="2145.5,-141.384 2145.5,-162.384 2200.5,-162.384 2200.5,-141.384 2145.5,-141.384"/>
<text text-anchor="middle" x="2173" y="-149.384" font-family="Helvetica,sans-Serif" font-size="10.00">WinMain</text>
</a>
</g>
<!-- Node20&#45;&gt;Node21 -->
<g id="edge42" class="edge"><title>Node20&#45;&gt;Node21</title>
<path fill="none" stroke="midnightblue" d="M2028.56,-151.884C2061.23,-151.884 2113.44,-151.884 2145.33,-151.884"/>
<polygon fill="midnightblue" stroke="midnightblue" points="2028.29,-148.384 2018.29,-151.884 2028.29,-155.384 2028.29,-148.384"/>
</g>
<!-- Node23 -->
<g id="node46" class="node"><title>Node23</title>
<a xlink:href="class_ro_r_frame_listener.html#af2779b96aa0f91920bd100bc30261402" target="_top" xlink:title="RoRFrameListener::Restart">
<polygon fill="white" stroke="black" points="2104.5,-95.3838 2104.5,-116.384 2241.5,-116.384 2241.5,-95.3838 2104.5,-95.3838"/>
<text text-anchor="middle" x="2173" y="-103.384" font-family="Helvetica,sans-Serif" font-size="10.00">RoRFrameListener::Restart</text>
</a>
</g>
<!-- Node22&#45;&gt;Node23 -->
<g id="edge46" class="edge"><title>Node22&#45;&gt;Node23</title>
<path fill="none" stroke="midnightblue" d="M2078.04,-105.884C2086.86,-105.884 2095.78,-105.884 2104.45,-105.884"/>
<polygon fill="midnightblue" stroke="midnightblue" points="2077.77,-102.384 2067.77,-105.884 2077.77,-109.384 2077.77,-102.384"/>
</g>
<!-- Node26 -->
<g id="node52" class="node"><title>Node26</title>
<a xlink:href="class_road2.html#ade752b3c6e9e9251bbea2833eb6e4731" target="_top" xlink:title="Road2::addCollisionQuad">
<polygon fill="white" stroke="black" points="482,-149.384 482,-170.384 610,-170.384 610,-149.384 482,-149.384"/>
<text text-anchor="middle" x="546" y="-157.384" font-family="Helvetica,sans-Serif" font-size="10.00">Road2::addCollisionQuad</text>
</a>
</g>
<!-- Node25&#45;&gt;Node26 -->
<g id="edge52" class="edge"><title>Node25&#45;&gt;Node26</title>
<path fill="none" stroke="midnightblue" d="M421.861,-186.196C445.885,-181.104 473.253,-175.303 496.167,-170.446"/>
<polygon fill="midnightblue" stroke="midnightblue" points="420.85,-182.832 411.793,-188.33 422.301,-189.68 420.85,-182.832"/>
</g>
<!-- Node31 -->
<g id="node63" class="node"><title>Node31</title>
<a xlink:href="class_collisions.html#a285399f2b679c1d0b649b71aa805d5f3" target="_top" xlink:title="Collisions::addCollisionMesh">
<polygon fill="white" stroke="black" points="474.5,-189.384 474.5,-210.384 617.5,-210.384 617.5,-189.384 474.5,-189.384"/>
<text text-anchor="middle" x="546" y="-197.384" font-family="Helvetica,sans-Serif" font-size="10.00">Collisions::addCollisionMesh</text>
</a>
</g>
<!-- Node25&#45;&gt;Node31 -->
<g id="edge64" class="edge"><title>Node25&#45;&gt;Node31</title>
<path fill="none" stroke="midnightblue" d="M437.307,-199.293C449.561,-199.36 462.223,-199.429 474.385,-199.495"/>
<polygon fill="midnightblue" stroke="midnightblue" points="437.149,-195.792 427.13,-199.238 437.111,-202.792 437.149,-195.792"/>
</g>
<!-- Node27 -->
<g id="node54" class="node"><title>Node27</title>
<a xlink:href="class_road2.html#a27a9cf5803361dbd84862a241ac2b9bb" target="_top" xlink:title="Road2::addQuad">
<polygon fill="white" stroke="black" points="674,-149.384 674,-170.384 764,-170.384 764,-149.384 674,-149.384"/>
<text text-anchor="middle" x="719" y="-157.384" font-family="Helvetica,sans-Serif" font-size="10.00">Road2::addQuad</text>
</a>
</g>
<!-- Node26&#45;&gt;Node27 -->
<g id="edge54" class="edge"><title>Node26&#45;&gt;Node27</title>
<path fill="none" stroke="midnightblue" d="M620.443,-159.884C638.658,-159.884 657.602,-159.884 673.956,-159.884"/>
<polygon fill="midnightblue" stroke="midnightblue" points="620.419,-156.384 610.419,-159.884 620.419,-163.384 620.419,-156.384"/>
</g>
<!-- Node28 -->
<g id="node56" class="node"><title>Node28</title>
<a xlink:href="class_road2.html#a9a8d8af3d830d58c09b2cea742e42832" target="_top" xlink:title="Road2::finish">
<polygon fill="white" stroke="black" points="851,-146.384 851,-167.384 925,-167.384 925,-146.384 851,-146.384"/>
<text text-anchor="middle" x="888" y="-154.384" font-family="Helvetica,sans-Serif" font-size="10.00">Road2::finish</text>
</a>
</g>
<!-- Node27&#45;&gt;Node28 -->
<g id="edge56" class="edge"><title>Node27&#45;&gt;Node28</title>
<path fill="none" stroke="midnightblue" d="M774.404,-158.9C799.479,-158.455 828.448,-157.941 850.855,-157.543"/>
<polygon fill="midnightblue" stroke="midnightblue" points="774.225,-155.403 764.289,-159.08 774.349,-162.402 774.225,-155.403"/>
</g>
<!-- Node30 -->
<g id="node60" class="node"><title>Node30</title>
<a xlink:href="class_road2.html#af1ed3f3e7283f49faad7101f0908ad19" target="_top" xlink:title="Road2::addBlock">
<polygon fill="white" stroke="black" points="842,-106.384 842,-127.384 934,-127.384 934,-106.384 842,-106.384"/>
<text text-anchor="middle" x="888" y="-114.384" font-family="Helvetica,sans-Serif" font-size="10.00">Road2::addBlock</text>
</a>
</g>
<!-- Node27&#45;&gt;Node30 -->
<g id="edge60" class="edge"><title>Node27&#45;&gt;Node30</title>
<path fill="none" stroke="midnightblue" d="M770.162,-146.866C794.594,-140.65 823.455,-133.307 846.499,-127.443"/>
<polygon fill="midnightblue" stroke="midnightblue" points="769.17,-143.507 760.342,-149.365 770.896,-150.291 769.17,-143.507"/>
</g>
<!-- Node29 -->
<g id="node58" class="node"><title>Node29</title>
<a xlink:href="class_procedural_manager.html#a63f800c4fe54872d67b0a3e3b1361927" target="_top" xlink:title="ProceduralManager::\lupdateObject">
<polygon fill="white" stroke="black" points="1019.5,-116.884 1019.5,-150.884 1126.5,-150.884 1126.5,-116.884 1019.5,-116.884"/>
<text text-anchor="start" x="1027.5" y="-137.884" font-family="Helvetica,sans-Serif" font-size="10.00">ProceduralManager::</text>
<text text-anchor="middle" x="1073" y="-124.884" font-family="Helvetica,sans-Serif" font-size="10.00">updateObject</text>
</a>
</g>
<!-- Node28&#45;&gt;Node29 -->
<g id="edge58" class="edge"><title>Node28&#45;&gt;Node29</title>
<path fill="none" stroke="midnightblue" d="M935.661,-150.958C961.302,-147.771 993.006,-143.829 1019.49,-140.536"/>
<polygon fill="midnightblue" stroke="midnightblue" points="934.929,-147.522 925.438,-152.229 935.793,-154.469 934.929,-147.522"/>
</g>
<!-- Node30&#45;&gt;Node29 -->
<g id="edge62" class="edge"><title>Node30&#45;&gt;Node29</title>
<path fill="none" stroke="midnightblue" d="M944.478,-122.074C968.228,-124.256 995.732,-126.784 1019.19,-128.939"/>
<polygon fill="midnightblue" stroke="midnightblue" points="944.484,-118.56 934.206,-121.13 943.844,-125.53 944.484,-118.56"/>
</g>
<!-- Node31&#45;&gt;Node12 -->
<g id="edge68" class="edge"><title>Node31&#45;&gt;Node12</title>
<path fill="none" stroke="midnightblue" d="M597.19,-212.903C617.628,-218.101 641.24,-224.107 662.204,-229.439"/>
<polygon fill="midnightblue" stroke="midnightblue" points="597.992,-209.496 587.438,-210.423 596.267,-216.28 597.992,-209.496"/>
</g>
<!-- Node31&#45;&gt;Node14 -->
<g id="edge66" class="edge"><title>Node31&#45;&gt;Node14</title>
<path fill="none" stroke="midnightblue" d="M627.975,-200.603C690.82,-201.154 775.913,-201.901 831.371,-202.387"/>
<polygon fill="midnightblue" stroke="midnightblue" points="627.725,-197.101 617.694,-200.513 627.663,-204.1 627.725,-197.101"/>
</g>
<!-- Node33 -->
<g id="node69" class="node"><title>Node33</title>
<a xlink:href="class_collisions.html#a76f3fda7383ac14c38f2f31f3ba9e691" target="_top" xlink:title="Collisions::collisionCorrect">
<polygon fill="white" stroke="black" points="295.5,-66.3838 295.5,-87.3838 428.5,-87.3838 428.5,-66.3838 295.5,-66.3838"/>
<text text-anchor="middle" x="362" y="-74.3838" font-family="Helvetica,sans-Serif" font-size="10.00">Collisions::collisionCorrect</text>
</a>
</g>
<!-- Node32&#45;&gt;Node33 -->
<g id="edge72" class="edge"><title>Node32&#45;&gt;Node33</title>
<path fill="none" stroke="midnightblue" d="M259.924,-64.5856C271.518,-65.9824 283.637,-67.4425 295.308,-68.8487"/>
<polygon fill="midnightblue" stroke="midnightblue" points="260.242,-61.0986 249.895,-63.3773 259.405,-68.0484 260.242,-61.0986"/>
</g>
<!-- Node39 -->
<g id="node82" class="node"><title>Node39</title>
<a xlink:href="class_collisions.html#a7d672022c769ed5db3ea6aaf08117212" target="_top" xlink:title="Collisions::nodeCollision">
<polygon fill="white" stroke="black" points="300,-26.3838 300,-47.3838 424,-47.3838 424,-26.3838 300,-26.3838"/>
<text text-anchor="middle" x="362" y="-34.3838" font-family="Helvetica,sans-Serif" font-size="10.00">Collisions::nodeCollision</text>
</a>
</g>
<!-- Node32&#45;&gt;Node39 -->
<g id="edge86" class="edge"><title>Node32&#45;&gt;Node39</title>
<path fill="none" stroke="midnightblue" d="M260.152,-49.1547C273.147,-47.589 286.793,-45.9449 299.723,-44.3871"/>
<polygon fill="midnightblue" stroke="midnightblue" points="259.405,-45.7193 249.895,-50.3904 260.242,-52.669 259.405,-45.7193"/>
</g>
<!-- Node41 -->
<g id="node86" class="node"><title>Node41</title>
<a xlink:href="class_collisions.html#a671f48109ee3e019d5eb10cc93ea3383" target="_top" xlink:title="Collisions::createCollision\lDebugVisualization">
<polygon fill="white" stroke="black" points="654,-4.88383 654,-38.8838 784,-38.8838 784,-4.88383 654,-4.88383"/>
<text text-anchor="start" x="662" y="-25.8838" font-family="Helvetica,sans-Serif" font-size="10.00">Collisions::createCollision</text>
<text text-anchor="middle" x="719" y="-12.8838" font-family="Helvetica,sans-Serif" font-size="10.00">DebugVisualization</text>
</a>
</g>
<!-- Node32&#45;&gt;Node41 -->
<g id="edge90" class="edge"><title>Node32&#45;&gt;Node41</title>
<path fill="none" stroke="midnightblue" d="M222.836,-41.3887C240.221,-32.2667 263.702,-21.6158 286,-16.8838 414.145,10.3104 568.453,-1.83216 653.938,-12.3604"/>
<polygon fill="midnightblue" stroke="midnightblue" points="220.979,-38.4138 213.851,-46.2519 224.311,-44.5699 220.979,-38.4138"/>
</g>
<!-- Node34 -->
<g id="node71" class="node"><title>Node34</title>
<a xlink:href="class_character.html#a4806a9150eb30673bab3d0b47e05d135" target="_top" xlink:title="Character::update">
<polygon fill="white" stroke="black" points="498.5,-106.384 498.5,-127.384 593.5,-127.384 593.5,-106.384 498.5,-106.384"/>
<text text-anchor="middle" x="546" y="-114.384" font-family="Helvetica,sans-Serif" font-size="10.00">Character::update</text>
</a>
</g>
<!-- Node33&#45;&gt;Node34 -->
<g id="edge74" class="edge"><title>Node33&#45;&gt;Node34</title>
<path fill="none" stroke="midnightblue" d="M420.14,-89.523C445.315,-94.9957 474.421,-101.323 498.298,-106.514"/>
<polygon fill="midnightblue" stroke="midnightblue" points="420.859,-86.0976 410.344,-87.3934 419.372,-92.9379 420.859,-86.0976"/>
</g>
<!-- Node38 -->
<g id="node80" class="node"><title>Node38</title>
<a xlink:href="class_beam.html#af9a3fa1db5b9d76b667a7edf83a1b8ab" target="_top" xlink:title="Beam::resetPosition">
<polygon fill="white" stroke="black" points="493.5,-66.3838 493.5,-87.3838 598.5,-87.3838 598.5,-66.3838 493.5,-66.3838"/>
<text text-anchor="middle" x="546" y="-74.3838" font-family="Helvetica,sans-Serif" font-size="10.00">Beam::resetPosition</text>
</a>
</g>
<!-- Node33&#45;&gt;Node38 -->
<g id="edge84" class="edge"><title>Node33&#45;&gt;Node38</title>
<path fill="none" stroke="midnightblue" d="M438.792,-76.8838C457.168,-76.8838 476.376,-76.8838 493.374,-76.8838"/>
<polygon fill="midnightblue" stroke="midnightblue" points="438.688,-73.3839 428.688,-76.8838 438.688,-80.3839 438.688,-73.3839"/>
</g>
<!-- Node35 -->
<g id="node73" class="node"><title>Node35</title>
<a xlink:href="class_character_factory.html#a70f849028ea8a2372700fe92b44dba7b" target="_top" xlink:title="CharacterFactory::update\lCharacters">
<polygon fill="white" stroke="black" points="655,-96.8838 655,-130.884 783,-130.884 783,-96.8838 655,-96.8838"/>
<text text-anchor="start" x="663" y="-117.884" font-family="Helvetica,sans-Serif" font-size="10.00">CharacterFactory::update</text>
<text text-anchor="middle" x="719" y="-104.884" font-family="Helvetica,sans-Serif" font-size="10.00">Characters</text>
</a>
</g>
<!-- Node34&#45;&gt;Node35 -->
<g id="edge76" class="edge"><title>Node34&#45;&gt;Node35</title>
<path fill="none" stroke="midnightblue" d="M604.194,-115.875C620.489,-115.592 638.29,-115.283 654.907,-114.995"/>
<polygon fill="midnightblue" stroke="midnightblue" points="603.669,-112.383 593.731,-116.056 603.79,-119.382 603.669,-112.383"/>
</g>
<!-- Node36 -->
<g id="node75" class="node"><title>Node36</title>
<a xlink:href="class_ro_r_frame_listener.html#a6b384193b130f7c1fff95d2e740a370e" target="_top" xlink:title="RoRFrameListener::update\lEvents">
<polygon fill="white" stroke="black" points="821,-53.8838 821,-87.8838 955,-87.8838 955,-53.8838 821,-53.8838"/>
<text text-anchor="start" x="829" y="-74.8838" font-family="Helvetica,sans-Serif" font-size="10.00">RoRFrameListener::update</text>
<text text-anchor="middle" x="888" y="-61.8838" font-family="Helvetica,sans-Serif" font-size="10.00">Events</text>
</a>
</g>
<!-- Node34&#45;&gt;Node36 -->
<g id="edge82" class="edge"><title>Node34&#45;&gt;Node36</title>
<path fill="none" stroke="midnightblue" d="M593.742,-103.617C619.687,-96.4882 647.741,-88.9417 654,-87.8838 709.725,-78.4658 773.784,-74.2629 820.773,-72.3886"/>
<polygon fill="midnightblue" stroke="midnightblue" points="592.663,-100.284 583.952,-106.315 594.522,-107.033 592.663,-100.284"/>
</g>
<!-- Node35&#45;&gt;Node36 -->
<g id="edge78" class="edge"><title>Node35&#45;&gt;Node36</title>
<path fill="none" stroke="midnightblue" d="M793.293,-94.981C802.513,-92.6351 811.897,-90.2473 820.998,-87.9316"/>
<polygon fill="midnightblue" stroke="midnightblue" points="792.202,-91.6469 783.374,-97.5047 793.928,-98.4308 792.202,-91.6469"/>
</g>
<!-- Node37 -->
<g id="node77" class="node"><title>Node37</title>
<a xlink:href="class_ro_r_frame_listener.html#acd8647e188fb8e838689492965b86faf" target="_top" xlink:title="RoRFrameListener::frameStarted">
<polygon fill="white" stroke="black" points="992.5,-60.3838 992.5,-81.3838 1153.5,-81.3838 1153.5,-60.3838 992.5,-60.3838"/>
<text text-anchor="middle" x="1073" y="-68.3838" font-family="Helvetica,sans-Serif" font-size="10.00">RoRFrameListener::frameStarted</text>
</a>
</g>
<!-- Node36&#45;&gt;Node37 -->
<g id="edge80" class="edge"><title>Node36&#45;&gt;Node37</title>
<path fill="none" stroke="midnightblue" d="M965.098,-70.8838C974.088,-70.8838 983.279,-70.8838 992.316,-70.8838"/>
<polygon fill="midnightblue" stroke="midnightblue" points="965.051,-67.3839 955.051,-70.8838 965.051,-74.3839 965.051,-67.3839"/>
</g>
<!-- Node40 -->
<g id="node84" class="node"><title>Node40</title>
<a xlink:href="class_beam.html#a406010888acacc4e279c04312d386d2c" target="_top" xlink:title="Beam::calcNodes">
<polygon fill="white" stroke="black" points="498.5,-26.3838 498.5,-47.3838 593.5,-47.3838 593.5,-26.3838 498.5,-26.3838"/>
<text text-anchor="middle" x="546" y="-34.3838" font-family="Helvetica,sans-Serif" font-size="10.00">Beam::calcNodes</text>
</a>
</g>
<!-- Node39&#45;&gt;Node40 -->
<g id="edge88" class="edge"><title>Node39&#45;&gt;Node40</title>
<path fill="none" stroke="midnightblue" d="M434.164,-36.8838C455.761,-36.8838 478.89,-36.8838 498.478,-36.8838"/>
<polygon fill="midnightblue" stroke="midnightblue" points="434.038,-33.3839 424.037,-36.8838 434.037,-40.3839 434.038,-33.3839"/>
</g>
<!-- Node42 -->
<g id="node88" class="node"><title>Node42</title>
<a xlink:href="class_collisions.html#ae63812137037d5a0e4da7cfb6d3b9ed0" target="_top" xlink:title="Collisions::finishLoading\lTerrain">
<polygon fill="white" stroke="black" points="1012,-6.88383 1012,-40.8838 1134,-40.8838 1134,-6.88383 1012,-6.88383"/>
<text text-anchor="start" x="1020" y="-27.8838" font-family="Helvetica,sans-Serif" font-size="10.00">Collisions::finishLoading</text>
<text text-anchor="middle" x="1073" y="-14.8838" font-family="Helvetica,sans-Serif" font-size="10.00">Terrain</text>
</a>
</g>
<!-- Node41&#45;&gt;Node42 -->
<g id="edge92" class="edge"><title>Node41&#45;&gt;Node42</title>
<path fill="none" stroke="midnightblue" d="M794.502,-22.3104C859.334,-22.6767 951.607,-23.198 1011.89,-23.5386"/>
<polygon fill="midnightblue" stroke="midnightblue" points="794.361,-18.8096 784.342,-22.253 794.322,-25.8095 794.361,-18.8096"/>
</g>
<!-- Node42&#45;&gt;Node16 -->
<g id="edge94" class="edge"><title>Node42&#45;&gt;Node16</title>
<path fill="none" stroke="midnightblue" d="M1138.44,-44.5402C1143.75,-46.5662 1148.99,-48.6889 1154,-50.8838 1186.23,-65.0164 1221.67,-85.7663 1242.03,-98.2376"/>
<polygon fill="midnightblue" stroke="midnightblue" points="1139.44,-41.179 1128.85,-41.0036 1137.02,-47.7468 1139.44,-41.179"/>
</g>
</g>
</svg>
