<?xml version="1.0" encoding="UTF-8" standalone="no"?>
<!DOCTYPE svg PUBLIC "-//W3C//DTD SVG 1.1//EN"
 "http://www.w3.org/Graphics/SVG/1.1/DTD/svg11.dtd">
<!-- Generated by graphviz version 2.26.3 (20100126.1600)
 -->
<!-- Title: Hydrax::Hydrax::getDepthLimit Pages: 1 -->
<svg width="1814pt" height="419pt"
 viewBox="0.00 0.00 1814.00 419.00" xmlns="http://www.w3.org/2000/svg" xmlns:xlink="http://www.w3.org/1999/xlink">
<g id="graph1" class="graph" transform="scale(1 1) rotate(0) translate(4 415)">
<title>Hydrax::Hydrax::getDepthLimit</title>
<polygon fill="white" stroke="white" points="-4,5 -4,-415 1811,-415 1811,5 -4,5"/>
<!-- Node1 -->
<g id="node1" class="node"><title>Node1</title>
<polygon fill="#bfbfbf" stroke="black" points="0.5,-261 0.5,-295 131.5,-295 131.5,-261 0.5,-261"/>
<text text-anchor="start" x="8.5" y="-282" font-family="Helvetica,sans-Serif" font-size="10.00">Hydrax::Hydrax::getDepth</text>
<text text-anchor="middle" x="66" y="-269" font-family="Helvetica,sans-Serif" font-size="10.00">Limit</text>
</g>
<!-- Node2 -->
<g id="node3" class="node"><title>Node2</title>
<a xlink:href="class_hydrax_1_1_cfg_file_manager.html#a4397ab1deeabca41d9743e52b295e51d" target="_top" xlink:title="Hydrax::CfgFileManager\l::_getComponentsCfgString">
<polygon fill="white" stroke="black" points="171,-377 171,-411 309,-411 309,-377 171,-377"/>
<text text-anchor="start" x="179" y="-398" font-family="Helvetica,sans-Serif" font-size="10.00">Hydrax::CfgFileManager</text>
<text text-anchor="middle" x="240" y="-385" font-family="Helvetica,sans-Serif" font-size="10.00">::_getComponentsCfgString</text>
</a>
</g>
<!-- Node1&#45;&gt;Node2 -->
<g id="edge2" class="edge"><title>Node1&#45;&gt;Node2</title>
<path fill="none" stroke="midnightblue" d="M90.564,-301.967C110.311,-320.336 139.386,-345.431 168,-363 176.35,-368.127 185.699,-372.822 194.824,-376.923"/>
<polygon fill="midnightblue" stroke="midnightblue" points="92.8937,-299.354 83.216,-295.041 88.0923,-304.447 92.8937,-299.354"/>
</g>
<!-- Node4 -->
<g id="node7" class="node"><title>Node4</title>
<a xlink:href="class_hydrax_1_1_material_manager.html#adb84a2034180ce0434b02d8f1b4aac85" target="_top" xlink:title="Hydrax::MaterialManager\l::_createDepthMaterial">
<polygon fill="white" stroke="black" points="177,-287 177,-321 303,-321 303,-287 177,-287"/>
<text text-anchor="start" x="185" y="-308" font-family="Helvetica,sans-Serif" font-size="10.00">Hydrax::MaterialManager</text>
<text text-anchor="middle" x="240" y="-295" font-family="Helvetica,sans-Serif" font-size="10.00">::_createDepthMaterial</text>
</a>
</g>
<!-- Node1&#45;&gt;Node4 -->
<g id="edge6" class="edge"><title>Node1&#45;&gt;Node4</title>
<path fill="none" stroke="midnightblue" d="M141.902,-289.342C153.52,-291.078 165.407,-292.854 176.715,-294.544"/>
<polygon fill="midnightblue" stroke="midnightblue" points="142.189,-285.846 131.782,-287.829 141.155,-292.769 142.189,-285.846"/>
</g>
<!-- Node6 -->
<g id="node11" class="node"><title>Node6</title>
<a xlink:href="class_hydrax_1_1_material_manager.html#ab70527e20f62a739a738773173c7966f" target="_top" xlink:title="Hydrax::MaterialManager\l::addDepthTechnique">
<polygon fill="white" stroke="black" points="367,-322 367,-356 493,-356 493,-322 367,-322"/>
<text text-anchor="start" x="375" y="-343" font-family="Helvetica,sans-Serif" font-size="10.00">Hydrax::MaterialManager</text>
<text text-anchor="middle" x="430" y="-330" font-family="Helvetica,sans-Serif" font-size="10.00">::addDepthTechnique</text>
</a>
</g>
<!-- Node1&#45;&gt;Node6 -->
<g id="edge60" class="edge"><title>Node1&#45;&gt;Node6</title>
<path fill="none" stroke="midnightblue" d="M100.212,-300.215C119.336,-311.378 144.077,-323.817 168,-330 234.318,-347.139 313.212,-347.237 366.975,-344.407"/>
<polygon fill="midnightblue" stroke="midnightblue" points="101.951,-297.177 91.5745,-295.038 98.3523,-303.181 101.951,-297.177"/>
</g>
<!-- Node17 -->
<g id="node34" class="node"><title>Node17</title>
<a xlink:href="class_hydrax_1_1_material_manager.html#a23043949a092bd6b806ad5bd7619cfe7" target="_top" xlink:title="Hydrax::MaterialManager\l::_createUnderwaterMaterial">
<polygon fill="white" stroke="black" points="170,-183 170,-217 310,-217 310,-183 170,-183"/>
<text text-anchor="start" x="178" y="-204" font-family="Helvetica,sans-Serif" font-size="10.00">Hydrax::MaterialManager</text>
<text text-anchor="middle" x="240" y="-191" font-family="Helvetica,sans-Serif" font-size="10.00">::_createUnderwaterMaterial</text>
</a>
</g>
<!-- Node1&#45;&gt;Node17 -->
<g id="edge34" class="edge"><title>Node1&#45;&gt;Node17</title>
<path fill="none" stroke="midnightblue" d="M106.252,-256.012C124.796,-246.265 147.25,-234.994 168,-226 175.072,-222.935 182.636,-219.923 190.105,-217.1"/>
<polygon fill="midnightblue" stroke="midnightblue" points="104.41,-253.027 97.215,-260.804 107.69,-259.212 104.41,-253.027"/>
</g>
<!-- Node18 -->
<g id="node37" class="node"><title>Node18</title>
<a xlink:href="class_hydrax_1_1_material_manager.html#a2961836553f7a30a8baffb9e82f7216e" target="_top" xlink:title="Hydrax::MaterialManager\l::reload">
<polygon fill="white" stroke="black" points="177,-104 177,-138 303,-138 303,-104 177,-104"/>
<text text-anchor="start" x="185" y="-125" font-family="Helvetica,sans-Serif" font-size="10.00">Hydrax::MaterialManager</text>
<text text-anchor="middle" x="240" y="-112" font-family="Helvetica,sans-Serif" font-size="10.00">::reload</text>
</a>
</g>
<!-- Node1&#45;&gt;Node18 -->
<g id="edge38" class="edge"><title>Node1&#45;&gt;Node18</title>
<path fill="none" stroke="midnightblue" d="M87.9838,-253.438C107.977,-231.637 138.742,-199.394 168,-174 182.77,-161.181 200.442,-148.141 214.582,-138.204"/>
<polygon fill="midnightblue" stroke="midnightblue" points="85.2738,-251.216 81.1282,-260.966 90.4492,-255.929 85.2738,-251.216"/>
</g>
<!-- Node29 -->
<g id="node60" class="node"><title>Node29</title>
<a xlink:href="class_hydrax_1_1_material_manager.html#a0ee548c5ba041a7e26a1561dbac28ae4" target="_top" xlink:title="Hydrax::MaterialManager\l::addDepthTextureTechnique">
<polygon fill="white" stroke="black" points="168.5,-235 168.5,-269 311.5,-269 311.5,-235 168.5,-235"/>
<text text-anchor="start" x="176.5" y="-256" font-family="Helvetica,sans-Serif" font-size="10.00">Hydrax::MaterialManager</text>
<text text-anchor="middle" x="240" y="-243" font-family="Helvetica,sans-Serif" font-size="10.00">::addDepthTextureTechnique</text>
</a>
</g>
<!-- Node1&#45;&gt;Node29 -->
<g id="edge62" class="edge"><title>Node1&#45;&gt;Node29</title>
<path fill="none" stroke="midnightblue" d="M141.678,-266.692C150.521,-265.37 159.523,-264.025 168.309,-262.712"/>
<polygon fill="midnightblue" stroke="midnightblue" points="141.155,-263.231 131.782,-268.171 142.189,-270.154 141.155,-263.231"/>
</g>
<!-- Node3 -->
<g id="node5" class="node"><title>Node3</title>
<a xlink:href="class_hydrax_1_1_cfg_file_manager.html#a5bdea43e50f5a1662e2dc80e68e0d8a6" target="_top" xlink:title="Hydrax::CfgFileManager\l::save">
<polygon fill="white" stroke="black" points="368.5,-377 368.5,-411 491.5,-411 491.5,-377 368.5,-377"/>
<text text-anchor="start" x="376.5" y="-398" font-family="Helvetica,sans-Serif" font-size="10.00">Hydrax::CfgFileManager</text>
<text text-anchor="middle" x="430" y="-385" font-family="Helvetica,sans-Serif" font-size="10.00">::save</text>
</a>
</g>
<!-- Node2&#45;&gt;Node3 -->
<g id="edge4" class="edge"><title>Node2&#45;&gt;Node3</title>
<path fill="none" stroke="midnightblue" d="M319.264,-394C335.7,-394 352.783,-394 368.469,-394"/>
<polygon fill="midnightblue" stroke="midnightblue" points="319.132,-390.5 309.132,-394 319.132,-397.5 319.132,-390.5"/>
</g>
<!-- Node5 -->
<g id="node9" class="node"><title>Node5</title>
<a xlink:href="class_hydrax_1_1_material_manager.html#a6aa7b0a92b824348577d506f7bcf581b" target="_top" xlink:title="Hydrax::MaterialManager\l::createMaterials">
<polygon fill="white" stroke="black" points="570,-257 570,-291 696,-291 696,-257 570,-257"/>
<text text-anchor="start" x="578" y="-278" font-family="Helvetica,sans-Serif" font-size="10.00">Hydrax::MaterialManager</text>
<text text-anchor="middle" x="633" y="-265" font-family="Helvetica,sans-Serif" font-size="10.00">::createMaterials</text>
</a>
</g>
<!-- Node4&#45;&gt;Node5 -->
<g id="edge8" class="edge"><title>Node4&#45;&gt;Node5</title>
<path fill="none" stroke="midnightblue" d="M313.286,-298.406C387.06,-292.774 499.68,-284.177 569.689,-278.833"/>
<polygon fill="midnightblue" stroke="midnightblue" points="312.847,-294.929 303.142,-299.18 313.38,-301.909 312.847,-294.929"/>
</g>
<!-- Node4&#45;&gt;Node6 -->
<g id="edge10" class="edge"><title>Node4&#45;&gt;Node6</title>
<path fill="none" stroke="midnightblue" d="M313.267,-317.497C330.942,-320.752 349.677,-324.204 366.843,-327.366"/>
<polygon fill="midnightblue" stroke="midnightblue" points="313.472,-313.975 303.003,-315.606 312.204,-320.86 313.472,-313.975"/>
</g>
<!-- Node6&#45;&gt;Node5 -->
<g id="edge12" class="edge"><title>Node6&#45;&gt;Node5</title>
<path fill="none" stroke="midnightblue" d="M492.962,-318.84C520.758,-309.939 553.083,-299.589 579.668,-291.077"/>
<polygon fill="midnightblue" stroke="midnightblue" points="491.792,-315.539 483.336,-321.922 493.927,-322.206 491.792,-315.539"/>
</g>
<!-- Node7 -->
<g id="node14" class="node"><title>Node7</title>
<a xlink:href="class_terrain_manager.html#aa7c9434ece63d1313c840b632a3b0430" target="_top" xlink:title="TerrainManager::initWater">
<polygon fill="white" stroke="black" points="568.5,-328.5 568.5,-349.5 697.5,-349.5 697.5,-328.5 568.5,-328.5"/>
<text text-anchor="middle" x="633" y="-336.5" font-family="Helvetica,sans-Serif" font-size="10.00">TerrainManager::initWater</text>
</a>
</g>
<!-- Node6&#45;&gt;Node7 -->
<g id="edge14" class="edge"><title>Node6&#45;&gt;Node7</title>
<path fill="none" stroke="midnightblue" d="M503.362,-339C524.559,-339 547.533,-339 568.17,-339"/>
<polygon fill="midnightblue" stroke="midnightblue" points="503.118,-335.5 493.118,-339 503.118,-342.5 503.118,-335.5"/>
</g>
<!-- Node8 -->
<g id="node16" class="node"><title>Node8</title>
<a xlink:href="class_terrain_manager.html#a9a04c837bf2ea6528c465b27ca62f730" target="_top" xlink:title="TerrainManager::loadTerrain">
<polygon fill="white" stroke="black" points="754,-328.5 754,-349.5 892,-349.5 892,-328.5 754,-328.5"/>
<text text-anchor="middle" x="823" y="-336.5" font-family="Helvetica,sans-Serif" font-size="10.00">TerrainManager::loadTerrain</text>
</a>
</g>
<!-- Node7&#45;&gt;Node8 -->
<g id="edge16" class="edge"><title>Node7&#45;&gt;Node8</title>
<path fill="none" stroke="midnightblue" d="M707.91,-339C723.009,-339 738.817,-339 753.713,-339"/>
<polygon fill="midnightblue" stroke="midnightblue" points="707.59,-335.5 697.59,-339 707.59,-342.5 707.59,-335.5"/>
</g>
<!-- Node9 -->
<g id="node18" class="node"><title>Node9</title>
<a xlink:href="class_ro_r_1_1_main_thread.html#a60603be78a54ae5a24ca1c00509aca1f" target="_top" xlink:title="RoR::MainThread::LoadTerrain">
<polygon fill="white" stroke="black" points="928.5,-328.5 928.5,-349.5 1079.5,-349.5 1079.5,-328.5 928.5,-328.5"/>
<text text-anchor="middle" x="1004" y="-336.5" font-family="Helvetica,sans-Serif" font-size="10.00">RoR::MainThread::LoadTerrain</text>
</a>
</g>
<!-- Node8&#45;&gt;Node9 -->
<g id="edge18" class="edge"><title>Node8&#45;&gt;Node9</title>
<path fill="none" stroke="midnightblue" d="M902.241,-339C910.863,-339 919.623,-339 928.201,-339"/>
<polygon fill="midnightblue" stroke="midnightblue" points="902.203,-335.5 892.203,-339 902.203,-342.5 902.203,-335.5"/>
</g>
<!-- Node10 -->
<g id="node20" class="node"><title>Node10</title>
<a xlink:href="class_ro_r_1_1_main_thread.html#aa3feeebda7f3f4c31a6cb96ea60c09e0" target="_top" xlink:title="RoR::MainThread::SetupGameplayLoop">
<polygon fill="white" stroke="black" points="1116.5,-348.5 1116.5,-369.5 1307.5,-369.5 1307.5,-348.5 1116.5,-348.5"/>
<text text-anchor="middle" x="1212" y="-356.5" font-family="Helvetica,sans-Serif" font-size="10.00">RoR::MainThread::SetupGameplayLoop</text>
</a>
</g>
<!-- Node9&#45;&gt;Node10 -->
<g id="edge20" class="edge"><title>Node9&#45;&gt;Node10</title>
<path fill="none" stroke="midnightblue" d="M1089.89,-347.259C1098.67,-348.103 1107.62,-348.964 1116.5,-349.817"/>
<polygon fill="midnightblue" stroke="midnightblue" points="1089.97,-343.75 1079.68,-346.277 1089.3,-350.718 1089.97,-343.75"/>
</g>
<!-- Node16 -->
<g id="node32" class="node"><title>Node16</title>
<a xlink:href="class_game_script.html#ac1cba3fc83facbad8281ff80d4ab0f0b" target="_top" xlink:title="GameScript::loadTerrain">
<polygon fill="white" stroke="black" points="1151,-308.5 1151,-329.5 1273,-329.5 1273,-308.5 1151,-308.5"/>
<text text-anchor="middle" x="1212" y="-316.5" font-family="Helvetica,sans-Serif" font-size="10.00">GameScript::loadTerrain</text>
</a>
</g>
<!-- Node9&#45;&gt;Node16 -->
<g id="edge32" class="edge"><title>Node9&#45;&gt;Node16</title>
<path fill="none" stroke="midnightblue" d="M1089.64,-330.766C1110.11,-328.797 1131.57,-326.734 1150.69,-324.895"/>
<polygon fill="midnightblue" stroke="midnightblue" points="1089.3,-327.282 1079.68,-331.723 1089.97,-334.25 1089.3,-327.282"/>
</g>
<!-- Node11 -->
<g id="node22" class="node"><title>Node11</title>
<a xlink:href="class_ro_r_1_1_main_thread.html#a7e4d0bd23a40e509892883af75ea0dbf" target="_top" xlink:title="RoR::MainThread::Go">
<polygon fill="white" stroke="black" points="1344.5,-348.5 1344.5,-369.5 1457.5,-369.5 1457.5,-348.5 1344.5,-348.5"/>
<text text-anchor="middle" x="1401" y="-356.5" font-family="Helvetica,sans-Serif" font-size="10.00">RoR::MainThread::Go</text>
</a>
</g>
<!-- Node10&#45;&gt;Node11 -->
<g id="edge22" class="edge"><title>Node10&#45;&gt;Node11</title>
<path fill="none" stroke="midnightblue" d="M1317.87,-359C1326.93,-359 1335.84,-359 1344.28,-359"/>
<polygon fill="midnightblue" stroke="midnightblue" points="1317.61,-355.5 1307.61,-359 1317.61,-362.5 1317.61,-355.5"/>
</g>
<!-- Node12 -->
<g id="node24" class="node"><title>Node12</title>
<a xlink:href="main_2main__sim_2main_8cpp.html#a0ddf1224851353fc92bfbff6f499fa97" target="_top" xlink:title="main">
<polygon fill="white" stroke="black" points="1544,-371.5 1544,-392.5 1582,-392.5 1582,-371.5 1544,-371.5"/>
<text text-anchor="middle" x="1563" y="-379.5" font-family="Helvetica,sans-Serif" font-size="10.00">main</text>
</a>
</g>
<!-- Node11&#45;&gt;Node12 -->
<g id="edge24" class="edge"><title>Node11&#45;&gt;Node12</title>
<path fill="none" stroke="midnightblue" d="M1467.69,-368.469C1495.27,-372.384 1525.14,-376.624 1543.95,-379.295"/>
<polygon fill="midnightblue" stroke="midnightblue" points="1468.05,-364.985 1457.66,-367.044 1467.07,-371.915 1468.05,-364.985"/>
</g>
<!-- Node14 -->
<g id="node28" class="node"><title>Node14</title>
<a xlink:href="class_ro_r_1_1_main_thread.html#a7a2db954fd2f35d63982d8603d2b9614" target="_top" xlink:title="RoR::MainThread::Request\lRestart">
<polygon fill="white" stroke="black" points="1494.5,-319 1494.5,-353 1631.5,-353 1631.5,-319 1494.5,-319"/>
<text text-anchor="start" x="1502.5" y="-340" font-family="Helvetica,sans-Serif" font-size="10.00">RoR::MainThread::Request</text>
<text text-anchor="middle" x="1563" y="-327" font-family="Helvetica,sans-Serif" font-size="10.00">Restart</text>
</a>
</g>
<!-- Node11&#45;&gt;Node14 -->
<g id="edge28" class="edge"><title>Node11&#45;&gt;Node14</title>
<path fill="none" stroke="midnightblue" d="M1467.82,-349.513C1476.59,-348.267 1485.59,-346.99 1494.39,-345.741"/>
<polygon fill="midnightblue" stroke="midnightblue" points="1467.07,-346.085 1457.66,-350.956 1468.05,-353.015 1467.07,-346.085"/>
</g>
<!-- Node13 -->
<g id="node26" class="node"><title>Node13</title>
<a xlink:href="main_2main__sim_2main_8cpp.html#a2922bc5d5c2d77a3020cfbf9df12aab0" target="_top" xlink:title="WinMain">
<polygon fill="white" stroke="black" points="1709.5,-371.5 1709.5,-392.5 1764.5,-392.5 1764.5,-371.5 1709.5,-371.5"/>
<text text-anchor="middle" x="1737" y="-379.5" font-family="Helvetica,sans-Serif" font-size="10.00">WinMain</text>
</a>
</g>
<!-- Node12&#45;&gt;Node13 -->
<g id="edge26" class="edge"><title>Node12&#45;&gt;Node13</title>
<path fill="none" stroke="midnightblue" d="M1592.56,-382C1625.23,-382 1677.44,-382 1709.33,-382"/>
<polygon fill="midnightblue" stroke="midnightblue" points="1592.29,-378.5 1582.29,-382 1592.29,-385.5 1592.29,-378.5"/>
</g>
<!-- Node15 -->
<g id="node30" class="node"><title>Node15</title>
<a xlink:href="class_ro_r_frame_listener.html#af2779b96aa0f91920bd100bc30261402" target="_top" xlink:title="RoRFrameListener::Restart">
<polygon fill="white" stroke="black" points="1668.5,-325.5 1668.5,-346.5 1805.5,-346.5 1805.5,-325.5 1668.5,-325.5"/>
<text text-anchor="middle" x="1737" y="-333.5" font-family="Helvetica,sans-Serif" font-size="10.00">RoRFrameListener::Restart</text>
</a>
</g>
<!-- Node14&#45;&gt;Node15 -->
<g id="edge30" class="edge"><title>Node14&#45;&gt;Node15</title>
<path fill="none" stroke="midnightblue" d="M1642.04,-336C1650.86,-336 1659.78,-336 1668.45,-336"/>
<polygon fill="midnightblue" stroke="midnightblue" points="1641.77,-332.5 1631.77,-336 1641.77,-339.5 1641.77,-332.5"/>
</g>
<!-- Node17&#45;&gt;Node5 -->
<g id="edge36" class="edge"><title>Node17&#45;&gt;Node5</title>
<path fill="none" stroke="midnightblue" d="M320.44,-215.146C394.234,-229.042 502.064,-249.345 569.837,-262.107"/>
<polygon fill="midnightblue" stroke="midnightblue" points="320.736,-211.641 310.261,-213.23 319.44,-218.52 320.736,-211.641"/>
</g>
<!-- Node19 -->
<g id="node39" class="node"><title>Node19</title>
<a xlink:href="class_hydrax_1_1_g_p_u_normal_map_manager.html#a7398a504e11ea902839868d69bcf956b" target="_top" xlink:title="Hydrax::GPUNormalMapManager\l::create">
<polygon fill="white" stroke="black" points="348,-104 348,-138 512,-138 512,-104 348,-104"/>
<text text-anchor="start" x="356" y="-125" font-family="Helvetica,sans-Serif" font-size="10.00">Hydrax::GPUNormalMapManager</text>
<text text-anchor="middle" x="430" y="-112" font-family="Helvetica,sans-Serif" font-size="10.00">::create</text>
</a>
</g>
<!-- Node18&#45;&gt;Node19 -->
<g id="edge40" class="edge"><title>Node18&#45;&gt;Node19</title>
<path fill="none" stroke="midnightblue" d="M313.267,-121C324.599,-121 336.366,-121 347.877,-121"/>
<polygon fill="midnightblue" stroke="midnightblue" points="313.003,-117.5 303.003,-121 313.003,-124.5 313.003,-117.5"/>
</g>
<!-- Node24 -->
<g id="node49" class="node"><title>Node24</title>
<a xlink:href="class_hydrax_1_1_rtt_manager.html#abf7d8e05771b9f904efa09fe94ab0907" target="_top" xlink:title="Hydrax::RttManager\l::setTextureSize">
<polygon fill="white" stroke="black" points="377.5,-0 377.5,-34 482.5,-34 482.5,-0 377.5,-0"/>
<text text-anchor="start" x="385.5" y="-21" font-family="Helvetica,sans-Serif" font-size="10.00">Hydrax::RttManager</text>
<text text-anchor="middle" x="430" y="-8" font-family="Helvetica,sans-Serif" font-size="10.00">::setTextureSize</text>
</a>
</g>
<!-- Node18&#45;&gt;Node24 -->
<g id="edge50" class="edge"><title>Node18&#45;&gt;Node24</title>
<path fill="none" stroke="midnightblue" d="M267.276,-97.5206C288.213,-80.4692 318.453,-57.8702 348,-43 357.205,-38.3674 367.405,-34.3433 377.395,-30.9361"/>
<polygon fill="midnightblue" stroke="midnightblue" points="264.931,-94.9179 259.453,-103.987 269.391,-100.313 264.931,-94.9179"/>
</g>
<!-- Node27 -->
<g id="node55" class="node"><title>Node27</title>
<a xlink:href="class_hydrax_1_1_rtt_manager.html#ad54dd87efa7baa4a5037faa2e5241738" target="_top" xlink:title="Hydrax::RttManager\l::setTexturesSize">
<polygon fill="white" stroke="black" points="377.5,-52 377.5,-86 482.5,-86 482.5,-52 377.5,-52"/>
<text text-anchor="start" x="385.5" y="-73" font-family="Helvetica,sans-Serif" font-size="10.00">Hydrax::RttManager</text>
<text text-anchor="middle" x="430" y="-60" font-family="Helvetica,sans-Serif" font-size="10.00">::setTexturesSize</text>
</a>
</g>
<!-- Node18&#45;&gt;Node27 -->
<g id="edge56" class="edge"><title>Node18&#45;&gt;Node27</title>
<path fill="none" stroke="midnightblue" d="M312.027,-101.287C333.683,-95.3604 357.034,-88.9696 377.201,-83.4504"/>
<polygon fill="midnightblue" stroke="midnightblue" points="310.934,-97.9576 302.213,-103.973 312.782,-104.709 310.934,-97.9576"/>
</g>
<!-- Node28 -->
<g id="node57" class="node"><title>Node28</title>
<a xlink:href="class_hydrax_1_1_texture_manager.html#a30bfb59332540e897c43193474b4aa19" target="_top" xlink:title="Hydrax::TextureManager\l::create">
<polygon fill="white" stroke="black" points="367.5,-156 367.5,-190 492.5,-190 492.5,-156 367.5,-156"/>
<text text-anchor="start" x="375.5" y="-177" font-family="Helvetica,sans-Serif" font-size="10.00">Hydrax::TextureManager</text>
<text text-anchor="middle" x="430" y="-164" font-family="Helvetica,sans-Serif" font-size="10.00">::create</text>
</a>
</g>
<!-- Node18&#45;&gt;Node28 -->
<g id="edge58" class="edge"><title>Node18&#45;&gt;Node28</title>
<path fill="none" stroke="midnightblue" d="M311.961,-140.695C330.292,-145.712 349.841,-151.062 367.647,-155.935"/>
<polygon fill="midnightblue" stroke="midnightblue" points="312.782,-137.291 302.213,-138.027 310.934,-144.042 312.782,-137.291"/>
</g>
<!-- Node20 -->
<g id="node41" class="node"><title>Node20</title>
<a xlink:href="class_hydrax_1_1_noise_1_1_f_f_t.html#aa8e2b9d2b8307c07be2d2cd9cf115560" target="_top" xlink:title="Hydrax::Noise::FFT\l::createGPUNormalMapResources">
<polygon fill="white" stroke="black" points="548.5,-78 548.5,-112 717.5,-112 717.5,-78 548.5,-78"/>
<text text-anchor="start" x="556.5" y="-99" font-family="Helvetica,sans-Serif" font-size="10.00">Hydrax::Noise::FFT</text>
<text text-anchor="middle" x="633" y="-86" font-family="Helvetica,sans-Serif" font-size="10.00">::createGPUNormalMapResources</text>
</a>
</g>
<!-- Node19&#45;&gt;Node20 -->
<g id="edge42" class="edge"><title>Node19&#45;&gt;Node20</title>
<path fill="none" stroke="midnightblue" d="M522.362,-109.17C531.001,-108.064 539.73,-106.946 548.295,-105.849"/>
<polygon fill="midnightblue" stroke="midnightblue" points="521.75,-105.72 512.275,-110.462 522.639,-112.663 521.75,-105.72"/>
</g>
<!-- Node23 -->
<g id="node47" class="node"><title>Node23</title>
<a xlink:href="class_hydrax_1_1_noise_1_1_perlin.html#adb347b98692bd7ce6ad7ce76c605d15a" target="_top" xlink:title="Hydrax::Noise::Perlin\l::createGPUNormalMapResources">
<polygon fill="white" stroke="black" points="548.5,-130 548.5,-164 717.5,-164 717.5,-130 548.5,-130"/>
<text text-anchor="start" x="556.5" y="-151" font-family="Helvetica,sans-Serif" font-size="10.00">Hydrax::Noise::Perlin</text>
<text text-anchor="middle" x="633" y="-138" font-family="Helvetica,sans-Serif" font-size="10.00">::createGPUNormalMapResources</text>
</a>
</g>
<!-- Node19&#45;&gt;Node23 -->
<g id="edge48" class="edge"><title>Node19&#45;&gt;Node23</title>
<path fill="none" stroke="midnightblue" d="M522.362,-132.83C531.001,-133.936 539.73,-135.054 548.295,-136.151"/>
<polygon fill="midnightblue" stroke="midnightblue" points="522.639,-129.337 512.275,-131.538 521.75,-136.28 522.639,-129.337"/>
</g>
<!-- Node21 -->
<g id="node43" class="node"><title>Node21</title>
<a xlink:href="class_hydrax_1_1_noise_1_1_f_f_t.html#a1d7ec06eb11cda608cc8f73256c35be5" target="_top" xlink:title="Hydrax::Noise::FFT\l::setOptions">
<polygon fill="white" stroke="black" points="771,-78 771,-112 875,-112 875,-78 771,-78"/>
<text text-anchor="start" x="779" y="-99" font-family="Helvetica,sans-Serif" font-size="10.00">Hydrax::Noise::FFT</text>
<text text-anchor="middle" x="823" y="-86" font-family="Helvetica,sans-Serif" font-size="10.00">::setOptions</text>
</a>
</g>
<!-- Node20&#45;&gt;Node21 -->
<g id="edge44" class="edge"><title>Node20&#45;&gt;Node21</title>
<path fill="none" stroke="midnightblue" d="M727.942,-95C742.733,-95 757.526,-95 770.887,-95"/>
<polygon fill="midnightblue" stroke="midnightblue" points="727.72,-91.5001 717.72,-95 727.72,-98.5001 727.72,-91.5001"/>
</g>
<!-- Node22 -->
<g id="node45" class="node"><title>Node22</title>
<a xlink:href="class_hydrax_1_1_noise_1_1_f_f_t.html#a64245b9e56eeb8627ac3f5260dc203dd" target="_top" xlink:title="Hydrax::Noise::FFT\l::loadCfg">
<polygon fill="white" stroke="black" points="952,-78 952,-112 1056,-112 1056,-78 952,-78"/>
<text text-anchor="start" x="960" y="-99" font-family="Helvetica,sans-Serif" font-size="10.00">Hydrax::Noise::FFT</text>
<text text-anchor="middle" x="1004" y="-86" font-family="Helvetica,sans-Serif" font-size="10.00">::loadCfg</text>
</a>
</g>
<!-- Node21&#45;&gt;Node22 -->
<g id="edge46" class="edge"><title>Node21&#45;&gt;Node22</title>
<path fill="none" stroke="midnightblue" d="M885.425,-95C907.049,-95 931.047,-95 951.765,-95"/>
<polygon fill="midnightblue" stroke="midnightblue" points="885.353,-91.5001 875.353,-95 885.353,-98.5001 885.353,-91.5001"/>
</g>
<!-- Node25 -->
<g id="node51" class="node"><title>Node25</title>
<a xlink:href="class_hydrax_1_1_cfg_file_manager.html#ae2a1a0accf942e528f6ba8a041a674e6" target="_top" xlink:title="Hydrax::CfgFileManager\l::_loadRttSettings">
<polygon fill="white" stroke="black" points="571.5,-0 571.5,-34 694.5,-34 694.5,-0 571.5,-0"/>
<text text-anchor="start" x="579.5" y="-21" font-family="Helvetica,sans-Serif" font-size="10.00">Hydrax::CfgFileManager</text>
<text text-anchor="middle" x="633" y="-8" font-family="Helvetica,sans-Serif" font-size="10.00">::_loadRttSettings</text>
</a>
</g>
<!-- Node24&#45;&gt;Node25 -->
<g id="edge52" class="edge"><title>Node24&#45;&gt;Node25</title>
<path fill="none" stroke="midnightblue" d="M492.65,-17C517.666,-17 546.389,-17 571.308,-17"/>
<polygon fill="midnightblue" stroke="midnightblue" points="492.542,-13.5001 482.542,-17 492.542,-20.5001 492.542,-13.5001"/>
</g>
<!-- Node26 -->
<g id="node53" class="node"><title>Node26</title>
<a xlink:href="class_hydrax_1_1_cfg_file_manager.html#a7d283a6b6b61ad70292c7cb24cd3543c" target="_top" xlink:title="Hydrax::CfgFileManager\l::load">
<polygon fill="white" stroke="black" points="761.5,-0 761.5,-34 884.5,-34 884.5,-0 761.5,-0"/>
<text text-anchor="start" x="769.5" y="-21" font-family="Helvetica,sans-Serif" font-size="10.00">Hydrax::CfgFileManager</text>
<text text-anchor="middle" x="823" y="-8" font-family="Helvetica,sans-Serif" font-size="10.00">::load</text>
</a>
</g>
<!-- Node25&#45;&gt;Node26 -->
<g id="edge54" class="edge"><title>Node25&#45;&gt;Node26</title>
<path fill="none" stroke="midnightblue" d="M704.862,-17C723.445,-17 743.285,-17 761.297,-17"/>
<polygon fill="midnightblue" stroke="midnightblue" points="704.688,-13.5001 694.688,-17 704.688,-20.5001 704.688,-13.5001"/>
</g>
<!-- Node29&#45;&gt;Node5 -->
<g id="edge64" class="edge"><title>Node29&#45;&gt;Node5</title>
<path fill="none" stroke="midnightblue" d="M321.811,-256.58C395.615,-260.711 502.628,-266.702 569.975,-270.472"/>
<polygon fill="midnightblue" stroke="midnightblue" points="321.805,-253.074 311.625,-256.01 321.414,-260.063 321.805,-253.074"/>
</g>
</g>
</svg>
