<?xml version="1.0" encoding="UTF-8" standalone="no"?>
<!DOCTYPE svg PUBLIC "-//W3C//DTD SVG 1.1//EN"
 "http://www.w3.org/Graphics/SVG/1.1/DTD/svg11.dtd">
<!-- Generated by graphviz version 2.26.3 (20100126.1600)
 -->
<!-- Title: Screwprop::Screwprop Pages: 1 -->
<svg width="466pt" height="122pt"
 viewBox="0.00 0.00 466.00 122.00" xmlns="http://www.w3.org/2000/svg" xmlns:xlink="http://www.w3.org/1999/xlink">
<g id="graph1" class="graph" transform="scale(1 1) rotate(0) translate(4 118)">
<title>Screwprop::Screwprop</title>
<polygon fill="white" stroke="white" points="-4,5 -4,-118 463,-118 463,5 -4,5"/>
<!-- Node1 -->
<g id="node1" class="node"><title>Node1</title>
<polygon fill="#bfbfbf" stroke="black" points="0,-40.5 0,-61.5 116,-61.5 116,-40.5 0,-40.5"/>
<text text-anchor="middle" x="58" y="-48.5" font-family="Helvetica,sans-Serif" font-size="10.00">Screwprop::Screwprop</text>
</g>
<!-- Node2 -->
<g id="node3" class="node"><title>Node2</title>
<a xlink:href="class_ro_r_singleton_no_creation.html#a5e7a47f4b2d6d0abaa3a1ea5ca1f216a" target="_top" xlink:title="RoRSingletonNoCreation\l\&lt; DustManager \&gt;::getSingleton">
<polygon fill="white" stroke="black" points="152.5,-80 152.5,-114 305.5,-114 305.5,-80 152.5,-80"/>
<text text-anchor="start" x="160.5" y="-101" font-family="Helvetica,sans-Serif" font-size="10.00">RoRSingletonNoCreation</text>
<text text-anchor="middle" x="229" y="-88" font-family="Helvetica,sans-Serif" font-size="10.00">&lt; DustManager &gt;::getSingleton</text>
</a>
</g>
<!-- Node1&#45;&gt;Node2 -->
<g id="edge2" class="edge"><title>Node1&#45;&gt;Node2</title>
<path fill="none" stroke="midnightblue" d="M97.2309,-61.5533C114.602,-66.2263 135.62,-71.8801 155.718,-77.2866"/>
<polygon fill="midnightblue" stroke="midnightblue" points="154.924,-80.6975 165.49,-79.9155 156.743,-73.9378 154.924,-80.6975"/>
</g>
<!-- Node3 -->
<g id="node5" class="node"><title>Node3</title>
<a xlink:href="class_dust_manager.html#a01145e464e1e5fb0fd2d90b115504640" target="_top" xlink:title="DustManager::getDustPool">
<polygon fill="white" stroke="black" points="161.5,-40.5 161.5,-61.5 296.5,-61.5 296.5,-40.5 161.5,-40.5"/>
<text text-anchor="middle" x="229" y="-48.5" font-family="Helvetica,sans-Serif" font-size="10.00">DustManager::getDustPool</text>
</a>
</g>
<!-- Node1&#45;&gt;Node3 -->
<g id="edge4" class="edge"><title>Node1&#45;&gt;Node3</title>
<path fill="none" stroke="midnightblue" d="M116.37,-51C127.595,-51 139.516,-51 151.241,-51"/>
<polygon fill="midnightblue" stroke="midnightblue" points="151.472,-54.5001 161.472,-51 151.472,-47.5001 151.472,-54.5001"/>
</g>
<!-- Node4 -->
<g id="node7" class="node"><title>Node4</title>
<a xlink:href="class_screwprop.html#ac01b2113dead1f9ca6278ebdaa4606e6" target="_top" xlink:title="Screwprop::reset">
<polygon fill="white" stroke="black" points="183.5,-0.5 183.5,-21.5 274.5,-21.5 274.5,-0.5 183.5,-0.5"/>
<text text-anchor="middle" x="229" y="-8.5" font-family="Helvetica,sans-Serif" font-size="10.00">Screwprop::reset</text>
</a>
</g>
<!-- Node1&#45;&gt;Node4 -->
<g id="edge6" class="edge"><title>Node1&#45;&gt;Node4</title>
<path fill="none" stroke="midnightblue" d="M102.928,-40.4905C124.736,-35.3892 151.129,-29.2155 174.119,-23.8378"/>
<polygon fill="midnightblue" stroke="midnightblue" points="175.135,-27.1945 184.075,-21.5087 173.541,-20.3785 175.135,-27.1945"/>
</g>
<!-- Node5 -->
<g id="node9" class="node"><title>Node5</title>
<a xlink:href="class_screwprop.html#afa9775809712b41f1d8389db15f1e257" target="_top" xlink:title="Screwprop::setThrottle">
<polygon fill="white" stroke="black" points="342,-0.5 342,-21.5 458,-21.5 458,-0.5 342,-0.5"/>
<text text-anchor="middle" x="400" y="-8.5" font-family="Helvetica,sans-Serif" font-size="10.00">Screwprop::setThrottle</text>
</a>
</g>
<!-- Node4&#45;&gt;Node5 -->
<g id="edge8" class="edge"><title>Node4&#45;&gt;Node5</title>
<path fill="none" stroke="midnightblue" d="M274.825,-11C292.267,-11 312.541,-11 331.627,-11"/>
<polygon fill="midnightblue" stroke="midnightblue" points="331.779,-14.5001 341.779,-11 331.779,-7.5001 331.779,-14.5001"/>
</g>
</g>
</svg>
