<?xml version="1.0" encoding="UTF-8" standalone="no"?>
<!DOCTYPE svg PUBLIC "-//W3C//DTD SVG 1.1//EN"
 "http://www.w3.org/Graphics/SVG/1.1/DTD/svg11.dtd">
<!-- Generated by graphviz version 2.26.3 (20100126.1600)
 -->
<!-- Title: G Pages: 1 -->
<!--zoomable 129 -->
<svg id="main" version="1.1" xmlns="http://www.w3.org/2000/svg" xmlns:xlink="http://www.w3.org/1999/xlink" xml:space="preserve" onload="init(evt)">
        <defs>
                <circle id="rim" cx="0" cy="0" r="7"/>
                <circle id="rim2" cx="0" cy="0" r="3.5"/>
                <g id="zoomPlus">
                        <use xlink:href="#rim" fill="#404040">
                                <set attributeName="fill" to="#808080" begin="zoomplus.mouseover" end="zoomplus.mouseout"/>
                        </use>
                        <path d="M-4,0h8M0,-4v8" fill="none" stroke="white" stroke-width="1.5" pointer-events="none"/>
                </g>
                <g id="zoomMin">
                        <use xlink:href="#rim" fill="#404040">
                                <set attributeName="fill" to="#808080" begin="zoomminus.mouseover" end="zoomminus.mouseout"/>
                        </use>
                        <path d="M-4,0h8" fill="none" stroke="white" stroke-width="1.5" pointer-events="none"/>
                </g>
                <g id="dirArrow">
                        <path fill="none" stroke="white" stroke-width="1.5" d="M0,-3.0v7 M-2.5,-0.5L0,-3.0L2.5,-0.5"/>
                </g>
               <g id="resetDef">
                       <use xlink:href="#rim2" fill="#404040">
                               <set attributeName="fill" to="#808080" begin="reset.mouseover" end="reset.mouseout"/>
                       </use>
               </g>
        </defs>

<script type="text/javascript">
var viewWidth = 862;
var viewHeight = 129;
var sectionId = 'dynsection-9';
</script>
<script xlink:href="svgpan.js"/>
<svg id="graph" class="graph">
<g id="viewport">
<title>G</title>
<polygon fill="white" stroke="white" points="-4,5 -4,-125 859,-125 859,5 -4,5"/>
<!-- Node1 -->
<g id="node1" class="node"><title>Node1</title>
<polygon fill="#bfbfbf" stroke="black" points="0.5,-99.5 0.5,-120.5 155.5,-120.5 155.5,-99.5 0.5,-99.5"/>
<text text-anchor="middle" x="78" y="-107.5" font-family="Helvetica,sans-Serif" font-size="10.00">ChatSystem::sendStreamSetup</text>
</g>
<!-- Node2 -->
<g id="node3" class="node"><title>Node2</title>
<a xlink:href="class_ro_r_singleton.html#a18a797fc35bd8cfa8a2affdd197cbfee" target="_top" xlink:title="RoRSingleton\&lt; NetworkStreamManager \&gt;::getSingleton">
<polygon fill="white" stroke="black" points="592.5,-79.5 592.5,-100.5 853.5,-100.5 853.5,-79.5 592.5,-79.5"/>
<text text-anchor="middle" x="723" y="-87.5" font-family="Helvetica,sans-Serif" font-size="10.00">RoRSingleton&lt; NetworkStreamManager &gt;::getSingleton</text>
</a>
</g>
<!-- Node1&#45;&gt;Node2 -->
<g id="edge2" class="edge"><title>Node1&#45;&gt;Node2</title>
<path fill="none" stroke="midnightblue" d="M155.502,-113.234C250.127,-116.474 414.992,-119.831 556,-111 585.091,-109.178 616.867,-105.588 644.818,-101.883"/>
<polygon fill="midnightblue" stroke="midnightblue" points="645.489,-105.325 654.931,-100.517 644.552,-98.3877 645.489,-105.325"/>
</g>
<!-- Node3 -->
<g id="node5" class="node"><title>Node3</title>
<a xlink:href="class_network_stream_manager.html#a207f01cb8d1f1e1114e66d6f4215f6a8" target="_top" xlink:title="NetworkStreamManager::addLocalStream">
<polygon fill="white" stroke="black" points="192.5,-60.5 192.5,-81.5 391.5,-81.5 391.5,-60.5 192.5,-60.5"/>
<text text-anchor="middle" x="292" y="-68.5" font-family="Helvetica,sans-Serif" font-size="10.00">NetworkStreamManager::addLocalStream</text>
</a>
</g>
<!-- Node1&#45;&gt;Node3 -->
<g id="edge4" class="edge"><title>Node1&#45;&gt;Node3</title>
<path fill="none" stroke="midnightblue" d="M135.63,-99.4974C162.982,-94.5126 195.848,-88.5231 224.374,-83.3243"/>
<polygon fill="midnightblue" stroke="midnightblue" points="225.057,-86.7576 234.268,-81.5213 223.802,-79.871 225.057,-86.7576"/>
</g>
<!-- Node4 -->
<g id="node7" class="node"><title>Node4</title>
<a xlink:href="class_streamable.html#a81648886f431e81940e48b698974b577" target="_top" xlink:title="Streamable::setSourceID">
<polygon fill="white" stroke="black" points="428.5,-80.5 428.5,-101.5 555.5,-101.5 555.5,-80.5 428.5,-80.5"/>
<text text-anchor="middle" x="492" y="-88.5" font-family="Helvetica,sans-Serif" font-size="10.00">Streamable::setSourceID</text>
</a>
</g>
<!-- Node3&#45;&gt;Node4 -->
<g id="edge6" class="edge"><title>Node3&#45;&gt;Node4</title>
<path fill="none" stroke="midnightblue" d="M391.707,-80.9707C400.639,-81.8639 409.573,-82.7573 418.226,-83.6226"/>
<polygon fill="midnightblue" stroke="midnightblue" points="417.938,-87.1112 428.237,-84.6237 418.635,-80.146 417.938,-87.1112"/>
</g>
<!-- Node5 -->
<g id="node9" class="node"><title>Node5</title>
<a xlink:href="class_streamable.html#acc7ac6e8f91db534af9bdc4a3e8d7245" target="_top" xlink:title="Streamable::setStreamID">
<polygon fill="white" stroke="black" points="428,-40.5 428,-61.5 556,-61.5 556,-40.5 428,-40.5"/>
<text text-anchor="middle" x="492" y="-48.5" font-family="Helvetica,sans-Serif" font-size="10.00">Streamable::setStreamID</text>
</a>
</g>
<!-- Node3&#45;&gt;Node5 -->
<g id="edge8" class="edge"><title>Node3&#45;&gt;Node5</title>
<path fill="none" stroke="midnightblue" d="M391.707,-61.0293C400.472,-60.1528 409.24,-59.276 417.741,-58.4259"/>
<polygon fill="midnightblue" stroke="midnightblue" points="418.359,-61.8816 427.961,-57.4039 417.663,-54.9164 418.359,-61.8816"/>
</g>
<!-- Node6 -->
<g id="node11" class="node"><title>Node6</title>
<a xlink:href="class_streamable.html#ad3380f9c932381bb9a862f40177aa58c" target="_top" xlink:title="Streamable::addPacket">
<polygon fill="white" stroke="black" points="432.5,-0.5 432.5,-21.5 551.5,-21.5 551.5,-0.5 432.5,-0.5"/>
<text text-anchor="middle" x="492" y="-8.5" font-family="Helvetica,sans-Serif" font-size="10.00">Streamable::addPacket</text>
</a>
</g>
<!-- Node3&#45;&gt;Node6 -->
<g id="edge10" class="edge"><title>Node3&#45;&gt;Node6</title>
<path fill="none" stroke="midnightblue" d="M327.296,-60.4113C360.609,-50.4172 410.712,-35.3863 446.907,-24.5279"/>
<polygon fill="midnightblue" stroke="midnightblue" points="448.149,-27.8095 456.721,-21.5836 446.137,-21.1047 448.149,-27.8095"/>
</g>
<!-- Node6&#45;&gt;Node2 -->
<g id="edge12" class="edge"><title>Node6&#45;&gt;Node2</title>
<path fill="none" stroke="midnightblue" d="M526.618,-21.5634C536.161,-24.5447 546.501,-27.839 556,-31 600.347,-45.7574 650.904,-63.7895 684.664,-76.0055"/>
<polygon fill="midnightblue" stroke="midnightblue" points="683.554,-79.326 694.148,-79.4444 685.94,-72.7452 683.554,-79.326"/>
</g>
<!-- Node7 -->
<g id="node14" class="node"><title>Node7</title>
<a xlink:href="class_network_stream_manager.html#a35a0f97374d09e9269ac1650932a1e07" target="_top" xlink:title="NetworkStreamManager::triggerSend">
<polygon fill="white" stroke="black" points="634,-0.5 634,-21.5 812,-21.5 812,-0.5 634,-0.5"/>
<text text-anchor="middle" x="723" y="-8.5" font-family="Helvetica,sans-Serif" font-size="10.00">NetworkStreamManager::triggerSend</text>
</a>
</g>
<!-- Node6&#45;&gt;Node7 -->
<g id="edge14" class="edge"><title>Node6&#45;&gt;Node7</title>
<path fill="none" stroke="midnightblue" d="M551.789,-11C573.76,-11 599.268,-11 623.778,-11"/>
<polygon fill="midnightblue" stroke="midnightblue" points="623.84,-14.5001 633.84,-11 623.84,-7.5001 623.84,-14.5001"/>
</g>
</g>
</svg>
        <g id="navigator" transform="translate(0 0)" fill="#404254">
                <rect fill="#f2f5e9" fill-opacity="0.5" stroke="#606060" stroke-width=".5" x="0" y="0" width="60" height="60"/>
                <use id="zoomplus" xlink:href="#zoomPlus" x="17" y="9" onmousedown="handleZoom(evt,'in')"/>
                <use id="zoomminus" xlink:href="#zoomMin" x="42" y="9" onmousedown="handleZoom(evt,'out')"/>
                <use id="reset" xlink:href="#resetDef" x="30" y="36" onmousedown="handleReset()"/>
                <g id="arrowUp" xlink:href="#dirArrow" transform="translate(30 24)" onmousedown="handlePan(0,-1)">
                  <use xlink:href="#rim" fill="#404040">
                        <set attributeName="fill" to="#808080" begin="arrowUp.mouseover" end="arrowUp.mouseout"/>
                  </use>
                  <path fill="none" stroke="white" stroke-width="1.5" d="M0,-3.0v7 M-2.5,-0.5L0,-3.0L2.5,-0.5"/>
                </g>
                <g id="arrowRight" xlink:href="#dirArrow" transform="rotate(90) translate(36 -43)" onmousedown="handlePan(1,0)">
                  <use xlink:href="#rim" fill="#404040">
                        <set attributeName="fill" to="#808080" begin="arrowRight.mouseover" end="arrowRight.mouseout"/>
                  </use>
                  <path fill="none" stroke="white" stroke-width="1.5" d="M0,-3.0v7 M-2.5,-0.5L0,-3.0L2.5,-0.5"/>
                </g>
                <g id="arrowDown" xlink:href="#dirArrow" transform="rotate(180) translate(-30 -48)" onmousedown="handlePan(0,1)">
                  <use xlink:href="#rim" fill="#404040">
                        <set attributeName="fill" to="#808080" begin="arrowDown.mouseover" end="arrowDown.mouseout"/>
                  </use>
                  <path fill="none" stroke="white" stroke-width="1.5" d="M0,-3.0v7 M-2.5,-0.5L0,-3.0L2.5,-0.5"/>
                </g>
                <g id="arrowLeft" xlink:href="#dirArrow" transform="rotate(270) translate(-36 17)" onmousedown="handlePan(-1,0)">
                  <use xlink:href="#rim" fill="#404040">
                        <set attributeName="fill" to="#808080" begin="arrowLeft.mouseover" end="arrowLeft.mouseout"/>
                  </use>
                  <path fill="none" stroke="white" stroke-width="1.5" d="M0,-3.0v7 M-2.5,-0.5L0,-3.0L2.5,-0.5"/>
                </g>
        </g>
</svg>
