<?xml version="1.0" encoding="UTF-8" standalone="no"?>
<!DOCTYPE svg PUBLIC "-//W3C//DTD SVG 1.1//EN"
 "http://www.w3.org/Graphics/SVG/1.1/DTD/svg11.dtd">
<!-- Generated by graphviz version 2.26.3 (20100126.1600)
 -->
<!-- Title: G Pages: 1 -->
<!--zoomable 512 -->
<svg id="main" version="1.1" xmlns="http://www.w3.org/2000/svg" xmlns:xlink="http://www.w3.org/1999/xlink" xml:space="preserve" onload="init(evt)">
        <defs>
                <circle id="rim" cx="0" cy="0" r="7"/>
                <circle id="rim2" cx="0" cy="0" r="3.5"/>
                <g id="zoomPlus">
                        <use xlink:href="#rim" fill="#404040">
                                <set attributeName="fill" to="#808080" begin="zoomplus.mouseover" end="zoomplus.mouseout"/>
                        </use>
                        <path d="M-4,0h8M0,-4v8" fill="none" stroke="white" stroke-width="1.5" pointer-events="none"/>
                </g>
                <g id="zoomMin">
                        <use xlink:href="#rim" fill="#404040">
                                <set attributeName="fill" to="#808080" begin="zoomminus.mouseover" end="zoomminus.mouseout"/>
                        </use>
                        <path d="M-4,0h8" fill="none" stroke="white" stroke-width="1.5" pointer-events="none"/>
                </g>
                <g id="dirArrow">
                        <path fill="none" stroke="white" stroke-width="1.5" d="M0,-3.0v7 M-2.5,-0.5L0,-3.0L2.5,-0.5"/>
                </g>
               <g id="resetDef">
                       <use xlink:href="#rim2" fill="#404040">
                               <set attributeName="fill" to="#808080" begin="reset.mouseover" end="reset.mouseout"/>
                       </use>
               </g>
        </defs>

<script type="text/javascript">
var viewWidth = 2310;
var viewHeight = 512;
var sectionId = 'dynsection-6';
</script>
<script xlink:href="svgpan.js"/>
<svg id="graph" class="graph">
<g id="viewport">
<title>G</title>
<polygon fill="white" stroke="white" points="-4,5 -4,-507.655 2307,-507.655 2307,5 -4,5"/>
<!-- Node1 -->
<g id="node1" class="node"><title>Node1</title>
<polygon fill="#bfbfbf" stroke="black" points="0,-283.155 0,-304.155 170,-304.155 170,-283.155 0,-283.155"/>
<text text-anchor="middle" x="85" y="-291.155" font-family="Helvetica,sans-Serif" font-size="10.00">RoR::RigEditor::Node::GetPosition</text>
</g>
<!-- Node2 -->
<g id="node3" class="node"><title>Node2</title>
<a xlink:href="class_ro_r_1_1_rig_editor_1_1_flex_body_wheel.html#ab1ff2e879ea0279ea16c53041df1e1c7" target="_top" xlink:title="RoR::RigEditor::FlexBodyWheel::ReGenerateMeshData">
<polygon fill="white" stroke="black" points="235,-482.155 235,-503.155 497,-503.155 497,-482.155 235,-482.155"/>
<text text-anchor="middle" x="366" y="-490.155" font-family="Helvetica,sans-Serif" font-size="10.00">RoR::RigEditor::FlexBodyWheel::ReGenerateMeshData</text>
</a>
</g>
<!-- Node1&#45;&gt;Node2 -->
<g id="edge2" class="edge"><title>Node1&#45;&gt;Node2</title>
<path fill="none" stroke="midnightblue" d="M92.1967,-314.041C106.908,-352.394 144.338,-434.818 206,-472.655 214.948,-478.145 224.707,-482.456 234.848,-485.815"/>
<polygon fill="midnightblue" stroke="midnightblue" points="95.4053,-312.627 88.6486,-304.466 88.8414,-315.059 95.4053,-312.627"/>
</g>
<!-- Node3 -->
<g id="node5" class="node"><title>Node3</title>
<a xlink:href="class_ro_r_1_1_rig_editor_1_1_land_vehicle_wheel.html#aa8e456fc63971b8ebdd6ca8ff247f4d5" target="_top" xlink:title="Find out where to connect rigidity node.">
<polygon fill="white" stroke="black" points="206.5,-442.155 206.5,-463.155 525.5,-463.155 525.5,-442.155 206.5,-442.155"/>
<text text-anchor="middle" x="366" y="-450.155" font-family="Helvetica,sans-Serif" font-size="10.00">RoR::RigEditor::LandVehicleWheel::RigidityNodeUpdateConnectivity</text>
</a>
</g>
<!-- Node1&#45;&gt;Node3 -->
<g id="edge4" class="edge"><title>Node1&#45;&gt;Node3</title>
<path fill="none" stroke="midnightblue" d="M95.7099,-313.388C113.841,-344.642 153.765,-404.831 206,-432.655 212.918,-436.34 220.237,-439.458 227.786,-442.089"/>
<polygon fill="midnightblue" stroke="midnightblue" points="98.5639,-311.324 90.601,-304.335 92.4677,-314.765 98.5639,-311.324"/>
</g>
<!-- Node5 -->
<g id="node9" class="node"><title>Node5</title>
<a xlink:href="class_ro_r_1_1_rig_editor_1_1_mesh_wheel.html#a8509201ad50e022bde0f880dad07be07" target="_top" xlink:title="RoR::RigEditor::MeshWheel::ReGenerateMeshData">
<polygon fill="white" stroke="black" points="243.5,-402.155 243.5,-423.155 488.5,-423.155 488.5,-402.155 243.5,-402.155"/>
<text text-anchor="middle" x="366" y="-410.155" font-family="Helvetica,sans-Serif" font-size="10.00">RoR::RigEditor::MeshWheel::ReGenerateMeshData</text>
</a>
</g>
<!-- Node1&#45;&gt;Node5 -->
<g id="edge8" class="edge"><title>Node1&#45;&gt;Node5</title>
<path fill="none" stroke="midnightblue" d="M100.771,-311.719C122.093,-334.802 162.486,-373.998 206,-392.655 217.707,-397.674 230.306,-401.541 243.112,-404.506"/>
<polygon fill="midnightblue" stroke="midnightblue" points="103.353,-309.357 94.0505,-304.287 98.1611,-314.052 103.353,-309.357"/>
</g>
<!-- Node6 -->
<g id="node11" class="node"><title>Node6</title>
<a xlink:href="class_ro_r_1_1_rig_editor_1_1_mesh_wheel2.html#a044057d8983e99182097c3a6d06a3fc0" target="_top" xlink:title="RoR::RigEditor::MeshWheel2::ReGenerateMeshData">
<polygon fill="white" stroke="black" points="241,-362.155 241,-383.155 491,-383.155 491,-362.155 241,-362.155"/>
<text text-anchor="middle" x="366" y="-370.155" font-family="Helvetica,sans-Serif" font-size="10.00">RoR::RigEditor::MeshWheel2::ReGenerateMeshData</text>
</a>
</g>
<!-- Node1&#45;&gt;Node6 -->
<g id="edge10" class="edge"><title>Node1&#45;&gt;Node6</title>
<path fill="none" stroke="midnightblue" d="M111.071,-309.509C134.908,-323.227 171.589,-342.423 206,-352.655 218.88,-356.485 232.555,-359.581 246.274,-362.085"/>
<polygon fill="midnightblue" stroke="midnightblue" points="112.691,-306.402 102.293,-304.37 109.154,-312.443 112.691,-306.402"/>
</g>
<!-- Node7 -->
<g id="node13" class="node"><title>Node7</title>
<a xlink:href="class_ro_r_1_1_rig_editor_1_1_rig.html#a313a85e2e173bd3d0ea38e5135f68e1b" target="_top" xlink:title="RoR::RigEditor::Rig::Build">
<polygon fill="white" stroke="black" points="1251,-294.155 1251,-315.155 1383,-315.155 1383,-294.155 1251,-294.155"/>
<text text-anchor="middle" x="1317" y="-302.155" font-family="Helvetica,sans-Serif" font-size="10.00">RoR::RigEditor::Rig::Build</text>
</a>
</g>
<!-- Node1&#45;&gt;Node7 -->
<g id="edge12" class="edge"><title>Node1&#45;&gt;Node7</title>
<path fill="none" stroke="midnightblue" d="M180.272,-294.506C420.381,-296.649 1045.73,-302.233 1250.81,-304.064"/>
<polygon fill="midnightblue" stroke="midnightblue" points="180.197,-291.005 170.166,-294.415 180.135,-298.005 180.197,-291.005"/>
</g>
<!-- Node13 -->
<g id="node25" class="node"><title>Node13</title>
<a xlink:href="class_ro_r_1_1_rig_editor_1_1_rig.html#a7ddf6f38d4e9a8c4f36a8bc7c859538d" target="_top" xlink:title="RoR::RigEditor::Rig::GetWheelAxisNodes">
<polygon fill="white" stroke="black" points="265,-322.155 265,-343.155 467,-343.155 467,-322.155 265,-322.155"/>
<text text-anchor="middle" x="366" y="-330.155" font-family="Helvetica,sans-Serif" font-size="10.00">RoR::RigEditor::Rig::GetWheelAxisNodes</text>
</a>
</g>
<!-- Node1&#45;&gt;Node13 -->
<g id="edge24" class="edge"><title>Node1&#45;&gt;Node13</title>
<path fill="none" stroke="midnightblue" d="M170.726,-305.553C208.834,-310.842 253.316,-317.016 290.192,-322.134"/>
<polygon fill="midnightblue" stroke="midnightblue" points="171.059,-302.065 160.672,-304.157 170.096,-308.999 171.059,-302.065"/>
</g>
<!-- Node16 -->
<g id="node32" class="node"><title>Node16</title>
<a xlink:href="class_ro_r_1_1_rig_editor_1_1_rig.html#ae0f2af92699b413199c31438dd41b84b" target="_top" xlink:title="RoR::RigEditor::Rig::RefreshNodeScreenPosition">
<polygon fill="white" stroke="black" points="249,-225.155 249,-246.155 483,-246.155 483,-225.155 249,-225.155"/>
<text text-anchor="middle" x="366" y="-233.155" font-family="Helvetica,sans-Serif" font-size="10.00">RoR::RigEditor::Rig::RefreshNodeScreenPosition</text>
</a>
</g>
<!-- Node1&#45;&gt;Node16 -->
<g id="edge32" class="edge"><title>Node1&#45;&gt;Node16</title>
<path fill="none" stroke="midnightblue" d="M145.707,-281.125C196.246,-270.693 267.391,-256.008 315.018,-246.178"/>
<polygon fill="midnightblue" stroke="midnightblue" points="144.973,-277.702 135.887,-283.152 146.388,-284.558 144.973,-277.702"/>
</g>
<!-- Node26 -->
<g id="node56" class="node"><title>Node26</title>
<a xlink:href="class_ro_r_1_1_rig_editor_1_1_rig.html#a717b168d21a24ac0338f2c6ae60c881b" target="_top" xlink:title="RoR::RigEditor::Rig::RefreshNodesDynamicMeshes">
<polygon fill="white" stroke="black" points="566.5,-58.1549 566.5,-79.1549 813.5,-79.1549 813.5,-58.1549 566.5,-58.1549"/>
<text text-anchor="middle" x="690" y="-66.1549" font-family="Helvetica,sans-Serif" font-size="10.00">RoR::RigEditor::Rig::RefreshNodesDynamicMeshes</text>
</a>
</g>
<!-- Node1&#45;&gt;Node26 -->
<g id="edge60" class="edge"><title>Node1&#45;&gt;Node26</title>
<path fill="none" stroke="midnightblue" d="M91.514,-273.06C105.338,-233.172 141.728,-145.939 206,-107.655 264.755,-72.6569 443.451,-66.3557 566.452,-66.4342"/>
<polygon fill="midnightblue" stroke="midnightblue" points="88.1214,-272.17 88.2764,-282.764 94.7616,-274.386 88.1214,-272.17"/>
</g>
<!-- Node29 -->
<g id="node64" class="node"><title>Node29</title>
<a xlink:href="class_ro_r_1_1_rig_editor_1_1_rig.html#a13ddf0660af7c1c101915c9b1efd2c90" target="_top" xlink:title="RoR::RigEditor::Rig::RefreshBeamsDynamicMesh">
<polygon fill="white" stroke="black" points="570.5,-18.1549 570.5,-39.1549 809.5,-39.1549 809.5,-18.1549 570.5,-18.1549"/>
<text text-anchor="middle" x="690" y="-26.1549" font-family="Helvetica,sans-Serif" font-size="10.00">RoR::RigEditor::Rig::RefreshBeamsDynamicMesh</text>
</a>
</g>
<!-- Node1&#45;&gt;Node29 -->
<g id="edge70" class="edge"><title>Node1&#45;&gt;Node29</title>
<path fill="none" stroke="midnightblue" d="M88.8622,-273.17C98.8305,-226.658 130.149,-113.279 206,-63.6549 342.946,25.9394 550.734,-0.281005 643.008,-18.1431"/>
<polygon fill="midnightblue" stroke="midnightblue" points="85.4263,-272.503 86.8645,-282.999 92.2861,-273.897 85.4263,-272.503"/>
</g>
<!-- Node30 -->
<g id="node69" class="node"><title>Node30</title>
<a xlink:href="class_ro_r_1_1_rig_editor_1_1_rig.html#a3c57ce426944230414c3b6bc6afad637" target="_top" xlink:title="RoR::RigEditor::Rig::ExtrudeSelectedNodes">
<polygon fill="white" stroke="black" points="584.5,-136.155 584.5,-157.155 795.5,-157.155 795.5,-136.155 584.5,-136.155"/>
<text text-anchor="middle" x="690" y="-144.155" font-family="Helvetica,sans-Serif" font-size="10.00">RoR::RigEditor::Rig::ExtrudeSelectedNodes</text>
</a>
</g>
<!-- Node1&#45;&gt;Node30 -->
<g id="edge78" class="edge"><title>Node1&#45;&gt;Node30</title>
<path fill="none" stroke="midnightblue" d="M105.381,-276.535C128.299,-258.282 167.379,-230.064 206,-215.655 330.652,-169.148 484.114,-153.725 584.371,-148.756"/>
<polygon fill="midnightblue" stroke="midnightblue" points="102.983,-273.974 97.4237,-282.993 107.394,-279.409 102.983,-273.974"/>
</g>
<!-- Node31 -->
<g id="node72" class="node"><title>Node31</title>
<a xlink:href="class_ro_r_1_1_rig_editor_1_1_rig.html#a4d3922eb1fb33cc1e653d863f241c04c" target="_top" xlink:title="RoR::RigEditor::Rig::SelectedNodesCommitPositionUpdates">
<polygon fill="white" stroke="black" points="224,-117.155 224,-138.155 508,-138.155 508,-117.155 224,-117.155"/>
<text text-anchor="middle" x="366" y="-125.155" font-family="Helvetica,sans-Serif" font-size="10.00">RoR::RigEditor::Rig::SelectedNodesCommitPositionUpdates</text>
</a>
</g>
<!-- Node1&#45;&gt;Node31 -->
<g id="edge82" class="edge"><title>Node1&#45;&gt;Node31</title>
<path fill="none" stroke="midnightblue" d="M96.8576,-274.727C116.053,-245.763 156.79,-190.844 206,-162.655 226.109,-151.136 249.63,-143.404 272.353,-138.215"/>
<polygon fill="midnightblue" stroke="midnightblue" points="93.8991,-272.856 91.399,-283.152 99.7738,-276.663 93.8991,-272.856"/>
</g>
<!-- Node4 -->
<g id="node7" class="node"><title>Node4</title>
<a xlink:href="class_ro_r_1_1_rig_editor_1_1_land_vehicle_wheel.html#a309cc93304ae431b131da52627900ba4" target="_top" xlink:title="RoR::RigEditor::LandVehicleWheel::SetRigidityNode">
<polygon fill="white" stroke="black" points="566,-442.155 566,-463.155 814,-463.155 814,-442.155 566,-442.155"/>
<text text-anchor="middle" x="690" y="-450.155" font-family="Helvetica,sans-Serif" font-size="10.00">RoR::RigEditor::LandVehicleWheel::SetRigidityNode</text>
</a>
</g>
<!-- Node3&#45;&gt;Node4 -->
<g id="edge6" class="edge"><title>Node3&#45;&gt;Node4</title>
<path fill="none" stroke="midnightblue" d="M535.689,-452.655C545.743,-452.655 555.757,-452.655 565.577,-452.655"/>
<polygon fill="midnightblue" stroke="midnightblue" points="535.627,-449.155 525.627,-452.655 535.627,-456.155 535.627,-449.155"/>
</g>
<!-- Node8 -->
<g id="node15" class="node"><title>Node8</title>
<a xlink:href="class_ro_r_1_1_rig_editor_1_1_main.html#a0ae39993d636eacc5dfe567c5f5ac4b9" target="_top" xlink:title="RoR::RigEditor::Main::LoadRigDefFile">
<polygon fill="white" stroke="black" points="1509,-254.155 1509,-275.155 1693,-275.155 1693,-254.155 1509,-254.155"/>
<text text-anchor="middle" x="1601" y="-262.155" font-family="Helvetica,sans-Serif" font-size="10.00">RoR::RigEditor::Main::LoadRigDefFile</text>
</a>
</g>
<!-- Node7&#45;&gt;Node8 -->
<g id="edge14" class="edge"><title>Node7&#45;&gt;Node8</title>
<path fill="none" stroke="midnightblue" d="M1393.24,-293.917C1434.54,-288.101 1485.36,-280.942 1526.4,-275.162"/>
<polygon fill="midnightblue" stroke="midnightblue" points="1392.64,-290.467 1383.23,-295.327 1393.62,-297.398 1392.64,-290.467"/>
</g>
<!-- Node12 -->
<g id="node23" class="node"><title>Node12</title>
<a xlink:href="class_ro_r_1_1_rig_editor_1_1_main.html#ad136bb804b1accbfed00705895f86362" target="_top" xlink:title="RoR::RigEditor::Main::CommandCreateNewEmptyRig">
<polygon fill="white" stroke="black" points="1474,-294.155 1474,-315.155 1728,-315.155 1728,-294.155 1474,-294.155"/>
<text text-anchor="middle" x="1601" y="-302.155" font-family="Helvetica,sans-Serif" font-size="10.00">RoR::RigEditor::Main::CommandCreateNewEmptyRig</text>
</a>
</g>
<!-- Node7&#45;&gt;Node12 -->
<g id="edge22" class="edge"><title>Node7&#45;&gt;Node12</title>
<path fill="none" stroke="midnightblue" d="M1393.27,-304.655C1418.06,-304.655 1446.29,-304.655 1473.77,-304.655"/>
<polygon fill="midnightblue" stroke="midnightblue" points="1393.23,-301.155 1383.23,-304.655 1393.23,-308.155 1393.23,-301.155"/>
</g>
<!-- Node9 -->
<g id="node17" class="node"><title>Node9</title>
<a xlink:href="class_ro_r_1_1_rig_editor_1_1_main.html#a35a10d6c23920802442d32fab1a8d470" target="_top" xlink:title="RoR::RigEditor::Main::NotifyFileSelectorEnded">
<polygon fill="white" stroke="black" points="1764,-254.155 1764,-275.155 1986,-275.155 1986,-254.155 1764,-254.155"/>
<text text-anchor="middle" x="1875" y="-262.155" font-family="Helvetica,sans-Serif" font-size="10.00">RoR::RigEditor::Main::NotifyFileSelectorEnded</text>
</a>
</g>
<!-- Node8&#45;&gt;Node9 -->
<g id="edge16" class="edge"><title>Node8&#45;&gt;Node9</title>
<path fill="none" stroke="midnightblue" d="M1703.22,-264.655C1722.96,-264.655 1743.74,-264.655 1763.75,-264.655"/>
<polygon fill="midnightblue" stroke="midnightblue" points="1703,-261.155 1693,-264.655 1703,-268.155 1703,-261.155"/>
</g>
<!-- Node10 -->
<g id="node19" class="node"><title>Node10</title>
<a xlink:href="class_ro_r_1_1_rig_editor_1_1_main.html#a4f73e9dc5632524ca803864460b82bb5" target="_top" xlink:title="RoR::RigEditor::Main::CommandShowDialogOpenRigFile">
<polygon fill="white" stroke="black" points="2028,-215.155 2028,-236.155 2296,-236.155 2296,-215.155 2028,-215.155"/>
<text text-anchor="middle" x="2162" y="-223.155" font-family="Helvetica,sans-Serif" font-size="10.00">RoR::RigEditor::Main::CommandShowDialogOpenRigFile</text>
</a>
</g>
<!-- Node9&#45;&gt;Node10 -->
<g id="edge18" class="edge"><title>Node9&#45;&gt;Node10</title>
<path fill="none" stroke="midnightblue" d="M1962.56,-252.757C2001.48,-247.468 2046.91,-241.294 2084.57,-236.176"/>
<polygon fill="midnightblue" stroke="midnightblue" points="1961.73,-249.338 1952.29,-254.152 1962.67,-256.274 1961.73,-249.338"/>
</g>
<!-- Node11 -->
<g id="node21" class="node"><title>Node11</title>
<a xlink:href="class_ro_r_1_1_rig_editor_1_1_main.html#acb4af1361d9233f5ee2fa658536a7658" target="_top" xlink:title="RoR::RigEditor::Main::CommandShowDialogSaveRigFileAs">
<polygon fill="white" stroke="black" points="2022.5,-255.155 2022.5,-276.155 2301.5,-276.155 2301.5,-255.155 2022.5,-255.155"/>
<text text-anchor="middle" x="2162" y="-263.155" font-family="Helvetica,sans-Serif" font-size="10.00">RoR::RigEditor::Main::CommandShowDialogSaveRigFileAs</text>
</a>
</g>
<!-- Node9&#45;&gt;Node11 -->
<g id="edge20" class="edge"><title>Node9&#45;&gt;Node11</title>
<path fill="none" stroke="midnightblue" d="M1996.41,-265.078C2005.01,-265.108 2013.71,-265.138 2022.4,-265.168"/>
<polygon fill="midnightblue" stroke="midnightblue" points="1996.38,-261.578 1986.37,-265.043 1996.36,-268.578 1996.38,-261.578"/>
</g>
<!-- Node14 -->
<g id="node27" class="node"><title>Node14</title>
<a xlink:href="class_ro_r_1_1_rig_editor_1_1_rig.html#a17da4731c9ac80ccae4a1f275173d611" target="_top" xlink:title="RoR::RigEditor::Rig::GetWheelDefinitionNodes">
<polygon fill="white" stroke="black" points="578,-332.155 578,-353.155 802,-353.155 802,-332.155 578,-332.155"/>
<text text-anchor="middle" x="690" y="-340.155" font-family="Helvetica,sans-Serif" font-size="10.00">RoR::RigEditor::Rig::GetWheelDefinitionNodes</text>
</a>
</g>
<!-- Node13&#45;&gt;Node14 -->
<g id="edge26" class="edge"><title>Node13&#45;&gt;Node14</title>
<path fill="none" stroke="midnightblue" d="M477.584,-336.099C509.965,-337.098 545.331,-338.19 577.752,-339.19"/>
<polygon fill="midnightblue" stroke="midnightblue" points="477.286,-332.588 467.183,-335.778 477.07,-339.585 477.286,-332.588"/>
</g>
<!-- Node15 -->
<g id="node29" class="node"><title>Node15</title>
<a xlink:href="class_ro_r_1_1_rig_editor_1_1_rig.html#af6175dd6ee639e86fa8784742819ef1e" target="_top" xlink:title="RoR::RigEditor::Rig::BuildFromModule">
<polygon fill="white" stroke="black" points="914,-332.155 914,-353.155 1100,-353.155 1100,-332.155 914,-332.155"/>
<text text-anchor="middle" x="1007" y="-340.155" font-family="Helvetica,sans-Serif" font-size="10.00">RoR::RigEditor::Rig::BuildFromModule</text>
</a>
</g>
<!-- Node14&#45;&gt;Node15 -->
<g id="edge28" class="edge"><title>Node14&#45;&gt;Node15</title>
<path fill="none" stroke="midnightblue" d="M812.565,-342.655C846.195,-342.655 882.103,-342.655 913.792,-342.655"/>
<polygon fill="midnightblue" stroke="midnightblue" points="812.208,-339.155 802.208,-342.655 812.208,-346.155 812.208,-339.155"/>
</g>
<!-- Node15&#45;&gt;Node7 -->
<g id="edge30" class="edge"><title>Node15&#45;&gt;Node7</title>
<path fill="none" stroke="midnightblue" d="M1103.01,-330.885C1150.89,-325.017 1207.59,-318.067 1250.59,-312.795"/>
<polygon fill="midnightblue" stroke="midnightblue" points="1102.44,-327.429 1092.94,-332.12 1103.29,-334.377 1102.44,-327.429"/>
</g>
<!-- Node17 -->
<g id="node34" class="node"><title>Node17</title>
<a xlink:href="class_ro_r_1_1_rig_editor_1_1_rig.html#a0a03055933371812797a04a1353479f1" target="_top" xlink:title="RoR::RigEditor::Rig::RefreshAllNodesScreenPositions">
<polygon fill="white" stroke="black" points="562,-254.155 562,-275.155 818,-275.155 818,-254.155 562,-254.155"/>
<text text-anchor="middle" x="690" y="-262.155" font-family="Helvetica,sans-Serif" font-size="10.00">RoR::RigEditor::Rig::RefreshAllNodesScreenPositions</text>
</a>
</g>
<!-- Node16&#45;&gt;Node17 -->
<g id="edge34" class="edge"><title>Node16&#45;&gt;Node17</title>
<path fill="none" stroke="midnightblue" d="M493.695,-247.084C519.652,-249.408 546.841,-251.841 572.427,-254.131"/>
<polygon fill="midnightblue" stroke="midnightblue" points="493.702,-243.571 483.43,-246.166 493.078,-250.543 493.702,-243.571"/>
</g>
<!-- Node18 -->
<g id="node36" class="node"><title>Node18</title>
<a xlink:href="class_ro_r_1_1_rig_editor_1_1_main.html#abe2179248ae5a8d9fc4a8ed136a18c46" target="_top" xlink:title="RoR::RigEditor::Main::UpdateMainLoop">
<polygon fill="white" stroke="black" points="912,-136.155 912,-157.155 1102,-157.155 1102,-136.155 912,-136.155"/>
<text text-anchor="middle" x="1007" y="-144.155" font-family="Helvetica,sans-Serif" font-size="10.00">RoR::RigEditor::Main::UpdateMainLoop</text>
</a>
</g>
<!-- Node16&#45;&gt;Node18 -->
<g id="edge58" class="edge"><title>Node16&#45;&gt;Node18</title>
<path fill="none" stroke="midnightblue" d="M493.195,-235.72C584.335,-233.775 709.619,-227.02 818,-206.655 877.717,-195.434 944.93,-171.165 980.917,-157.174"/>
<polygon fill="midnightblue" stroke="midnightblue" points="493.021,-232.223 483.092,-235.919 493.159,-239.222 493.021,-232.223"/>
</g>
<!-- Node25 -->
<g id="node52" class="node"><title>Node25</title>
<a xlink:href="class_ro_r_1_1_rig_editor_1_1_rig.html#a62c070427e93976b8fc5a11b09b6076d" target="_top" xlink:title="RoR::RigEditor::Rig::TranslateSelectedNodes">
<polygon fill="white" stroke="black" points="581,-176.155 581,-197.155 799,-197.155 799,-176.155 581,-176.155"/>
<text text-anchor="middle" x="690" y="-184.155" font-family="Helvetica,sans-Serif" font-size="10.00">RoR::RigEditor::Rig::TranslateSelectedNodes</text>
</a>
</g>
<!-- Node16&#45;&gt;Node25 -->
<g id="edge54" class="edge"><title>Node16&#45;&gt;Node25</title>
<path fill="none" stroke="midnightblue" d="M445.641,-223.61C499.162,-215.516 569.021,-204.951 620.33,-197.191"/>
<polygon fill="midnightblue" stroke="midnightblue" points="444.87,-220.187 435.506,-225.143 445.917,-227.108 444.87,-220.187"/>
</g>
<!-- Node17&#45;&gt;Node18 -->
<g id="edge36" class="edge"><title>Node17&#45;&gt;Node18</title>
<path fill="none" stroke="midnightblue" d="M771.76,-252.038C787.308,-248.701 803.303,-244.608 818,-239.655 884.19,-217.346 956.82,-176.557 989.435,-157.282"/>
<polygon fill="midnightblue" stroke="midnightblue" points="770.716,-248.68 761.626,-254.124 772.127,-255.536 770.716,-248.68"/>
</g>
<!-- Node24 -->
<g id="node48" class="node"><title>Node24</title>
<a xlink:href="class_ro_r_1_1_rig_editor_1_1_main.html#a7043ad34e928efff290d0b9f2192a613" target="_top" xlink:title="RoR::RigEditor::Main::OnNewRigCreatedOrLoaded">
<polygon fill="white" stroke="black" points="1196.5,-254.155 1196.5,-275.155 1437.5,-275.155 1437.5,-254.155 1196.5,-254.155"/>
<text text-anchor="middle" x="1317" y="-262.155" font-family="Helvetica,sans-Serif" font-size="10.00">RoR::RigEditor::Main::OnNewRigCreatedOrLoaded</text>
</a>
</g>
<!-- Node17&#45;&gt;Node24 -->
<g id="edge48" class="edge"><title>Node17&#45;&gt;Node24</title>
<path fill="none" stroke="midnightblue" d="M828.206,-264.655C938.361,-264.655 1091.07,-264.655 1196.34,-264.655"/>
<polygon fill="midnightblue" stroke="midnightblue" points="828.017,-261.155 818.017,-264.655 828.017,-268.155 828.017,-261.155"/>
</g>
<!-- Node19 -->
<g id="node38" class="node"><title>Node19</title>
<a xlink:href="class_ro_r_1_1_rig_editor_1_1_main.html#a8cd11f0150b5e247b6d9f00212d42b0d" target="_top" xlink:title="RoR::RigEditor::Main::EnterMainLoop">
<polygon fill="white" stroke="black" points="1226,-136.155 1226,-157.155 1408,-157.155 1408,-136.155 1226,-136.155"/>
<text text-anchor="middle" x="1317" y="-144.155" font-family="Helvetica,sans-Serif" font-size="10.00">RoR::RigEditor::Main::EnterMainLoop</text>
</a>
</g>
<!-- Node18&#45;&gt;Node19 -->
<g id="edge38" class="edge"><title>Node18&#45;&gt;Node19</title>
<path fill="none" stroke="midnightblue" d="M1112.38,-146.655C1149.21,-146.655 1190.21,-146.655 1225.78,-146.655"/>
<polygon fill="midnightblue" stroke="midnightblue" points="1112.12,-143.155 1102.12,-146.655 1112.12,-150.155 1112.12,-143.155"/>
</g>
<!-- Node20 -->
<g id="node40" class="node"><title>Node20</title>
<a xlink:href="class_ro_r_1_1_main_thread.html#a7e4d0bd23a40e509892883af75ea0dbf" target="_top" xlink:title="RoR::MainThread::Go">
<polygon fill="white" stroke="black" points="1544.5,-136.155 1544.5,-157.155 1657.5,-157.155 1657.5,-136.155 1544.5,-136.155"/>
<text text-anchor="middle" x="1601" y="-144.155" font-family="Helvetica,sans-Serif" font-size="10.00">RoR::MainThread::Go</text>
</a>
</g>
<!-- Node19&#45;&gt;Node20 -->
<g id="edge40" class="edge"><title>Node19&#45;&gt;Node20</title>
<path fill="none" stroke="midnightblue" d="M1418.12,-146.655C1460.54,-146.655 1508.28,-146.655 1544.34,-146.655"/>
<polygon fill="midnightblue" stroke="midnightblue" points="1418.03,-143.155 1408.03,-146.655 1418.03,-150.155 1418.03,-143.155"/>
</g>
<!-- Node21 -->
<g id="node42" class="node"><title>Node21</title>
<a xlink:href="main_2main__sim_2main_8cpp.html#a0ddf1224851353fc92bfbff6f499fa97" target="_top" xlink:title="main">
<polygon fill="white" stroke="black" points="1856,-116.155 1856,-137.155 1894,-137.155 1894,-116.155 1856,-116.155"/>
<text text-anchor="middle" x="1875" y="-124.155" font-family="Helvetica,sans-Serif" font-size="10.00">main</text>
</a>
</g>
<!-- Node20&#45;&gt;Node21 -->
<g id="edge42" class="edge"><title>Node20&#45;&gt;Node21</title>
<path fill="none" stroke="midnightblue" d="M1667.84,-141.776C1729.63,-137.266 1817.5,-130.852 1855.85,-128.052"/>
<polygon fill="midnightblue" stroke="midnightblue" points="1667.49,-138.292 1657.77,-142.511 1668,-145.273 1667.49,-138.292"/>
</g>
<!-- Node22 -->
<g id="node44" class="node"><title>Node22</title>
<a xlink:href="class_ro_r_1_1_main_thread.html#a7a2db954fd2f35d63982d8603d2b9614" target="_top" xlink:title="RoR::MainThread::RequestRestart">
<polygon fill="white" stroke="black" points="1790.5,-156.155 1790.5,-177.155 1959.5,-177.155 1959.5,-156.155 1790.5,-156.155"/>
<text text-anchor="middle" x="1875" y="-164.155" font-family="Helvetica,sans-Serif" font-size="10.00">RoR::MainThread::RequestRestart</text>
</a>
</g>
<!-- Node20&#45;&gt;Node22 -->
<g id="edge44" class="edge"><title>Node20&#45;&gt;Node22</title>
<path fill="none" stroke="midnightblue" d="M1667.93,-151.54C1704.85,-154.235 1751.06,-157.608 1790.46,-160.484"/>
<polygon fill="midnightblue" stroke="midnightblue" points="1668,-148.036 1657.77,-150.799 1667.49,-155.018 1668,-148.036"/>
</g>
<!-- Node23 -->
<g id="node46" class="node"><title>Node23</title>
<a xlink:href="class_ro_r_frame_listener.html#af2779b96aa0f91920bd100bc30261402" target="_top" xlink:title="RoRFrameListener::Restart">
<polygon fill="white" stroke="black" points="2093.5,-156.155 2093.5,-177.155 2230.5,-177.155 2230.5,-156.155 2093.5,-156.155"/>
<text text-anchor="middle" x="2162" y="-164.155" font-family="Helvetica,sans-Serif" font-size="10.00">RoRFrameListener::Restart</text>
</a>
</g>
<!-- Node22&#45;&gt;Node23 -->
<g id="edge46" class="edge"><title>Node22&#45;&gt;Node23</title>
<path fill="none" stroke="midnightblue" d="M1969.7,-166.655C2010.13,-166.655 2056.43,-166.655 2093.46,-166.655"/>
<polygon fill="midnightblue" stroke="midnightblue" points="1969.56,-163.155 1959.56,-166.655 1969.56,-170.155 1969.56,-163.155"/>
</g>
<!-- Node24&#45;&gt;Node8 -->
<g id="edge50" class="edge"><title>Node24&#45;&gt;Node8</title>
<path fill="none" stroke="midnightblue" d="M1447.89,-264.655C1468.41,-264.655 1489.24,-264.655 1508.65,-264.655"/>
<polygon fill="midnightblue" stroke="midnightblue" points="1447.85,-261.155 1437.85,-264.655 1447.85,-268.155 1447.85,-261.155"/>
</g>
<!-- Node24&#45;&gt;Node12 -->
<g id="edge52" class="edge"><title>Node24&#45;&gt;Node12</title>
<path fill="none" stroke="midnightblue" d="M1401.54,-276.561C1441.2,-282.148 1488.06,-288.748 1526.39,-294.146"/>
<polygon fill="midnightblue" stroke="midnightblue" points="1402.01,-273.093 1391.62,-275.164 1401.03,-280.025 1402.01,-273.093"/>
</g>
<!-- Node25&#45;&gt;Node18 -->
<g id="edge56" class="edge"><title>Node25&#45;&gt;Node18</title>
<path fill="none" stroke="midnightblue" d="M783.236,-174.89C827.745,-169.274 880.572,-162.608 923.718,-157.164"/>
<polygon fill="midnightblue" stroke="midnightblue" points="782.771,-171.421 773.288,-176.145 783.648,-178.366 782.771,-171.421"/>
</g>
<!-- Node26&#45;&gt;Node18 -->
<g id="edge62" class="edge"><title>Node26&#45;&gt;Node18</title>
<path fill="none" stroke="midnightblue" d="M783.917,-81.6997C795.66,-84.8598 807.293,-88.7836 818,-93.6549 836.45,-102.049 835.422,-113.547 854,-121.655 872.008,-129.514 892.186,-134.923 911.834,-138.642"/>
<polygon fill="midnightblue" stroke="midnightblue" points="784.598,-78.2619 774.046,-79.2207 782.893,-85.0511 784.598,-78.2619"/>
</g>
<!-- Node26&#45;&gt;Node24 -->
<g id="edge64" class="edge"><title>Node26&#45;&gt;Node24</title>
<path fill="none" stroke="midnightblue" d="M786.076,-80.4065C923.255,-97.2002 1158.97,-126.116 1160,-126.655 1181.21,-137.708 1178.65,-150.188 1196,-166.655 1232.07,-200.899 1278.8,-236.544 1302.23,-253.886"/>
<polygon fill="midnightblue" stroke="midnightblue" points="786.319,-76.9102 775.968,-79.1691 785.468,-83.8583 786.319,-76.9102"/>
</g>
<!-- Node27 -->
<g id="node60" class="node"><title>Node27</title>
<a xlink:href="class_ro_r_1_1_rig_editor_1_1_main.html#a1c1f2d324278f4ba5e485881cdb384f1" target="_top" xlink:title="RoR::RigEditor::Main::CommandCurrentRigDeleteSelectedNodes">
<polygon fill="white" stroke="black" points="855,-18.1549 855,-39.1549 1159,-39.1549 1159,-18.1549 855,-18.1549"/>
<text text-anchor="middle" x="1007" y="-26.1549" font-family="Helvetica,sans-Serif" font-size="10.00">RoR::RigEditor::Main::CommandCurrentRigDeleteSelectedNodes</text>
</a>
</g>
<!-- Node26&#45;&gt;Node27 -->
<g id="edge66" class="edge"><title>Node26&#45;&gt;Node27</title>
<path fill="none" stroke="midnightblue" d="M783.236,-56.8901C827.745,-51.2738 880.572,-44.6079 923.718,-39.1636"/>
<polygon fill="midnightblue" stroke="midnightblue" points="782.771,-53.4209 773.288,-58.1453 783.648,-60.3658 782.771,-53.4209"/>
</g>
<!-- Node28 -->
<g id="node62" class="node"><title>Node28</title>
<a xlink:href="class_ro_r_1_1_rig_editor_1_1_main.html#ae35ae0a10dd9ccbe9f6aa3270d61c2fb" target="_top" xlink:title="RoR::RigEditor::Main::CommandCurrentRigDeleteSelectedBeams">
<polygon fill="white" stroke="black" points="854,-58.1549 854,-79.1549 1160,-79.1549 1160,-58.1549 854,-58.1549"/>
<text text-anchor="middle" x="1007" y="-66.1549" font-family="Helvetica,sans-Serif" font-size="10.00">RoR::RigEditor::Main::CommandCurrentRigDeleteSelectedBeams</text>
</a>
</g>
<!-- Node26&#45;&gt;Node28 -->
<g id="edge68" class="edge"><title>Node26&#45;&gt;Node28</title>
<path fill="none" stroke="midnightblue" d="M824.122,-68.6549C833.961,-68.6549 843.928,-68.6549 853.867,-68.6549"/>
<polygon fill="midnightblue" stroke="midnightblue" points="823.922,-65.155 813.922,-68.6549 823.922,-72.155 823.922,-65.155"/>
</g>
<!-- Node29&#45;&gt;Node18 -->
<g id="edge72" class="edge"><title>Node29&#45;&gt;Node18</title>
<path fill="none" stroke="midnightblue" d="M805.545,-42.7836C809.83,-44.5369 813.998,-46.487 818,-48.6549 839.03,-60.0478 834.262,-75.1468 854,-88.6549 887.523,-111.597 931.335,-127.006 963.481,-136.139"/>
<polygon fill="midnightblue" stroke="midnightblue" points="806.594,-39.4399 796.001,-39.2518 804.165,-46.0049 806.594,-39.4399"/>
</g>
<!-- Node29&#45;&gt;Node27 -->
<g id="edge74" class="edge"><title>Node29&#45;&gt;Node27</title>
<path fill="none" stroke="midnightblue" d="M819.921,-28.6549C831.456,-28.6549 843.2,-28.6549 854.898,-28.6549"/>
<polygon fill="midnightblue" stroke="midnightblue" points="819.844,-25.155 809.844,-28.6549 819.844,-32.155 819.844,-25.155"/>
</g>
<!-- Node29&#45;&gt;Node28 -->
<g id="edge76" class="edge"><title>Node29&#45;&gt;Node28</title>
<path fill="none" stroke="midnightblue" d="M783.236,-40.4197C827.745,-46.0359 880.572,-52.7018 923.718,-58.1462"/>
<polygon fill="midnightblue" stroke="midnightblue" points="783.648,-36.9439 773.288,-39.1644 782.771,-43.8888 783.648,-36.9439"/>
</g>
<!-- Node30&#45;&gt;Node18 -->
<g id="edge80" class="edge"><title>Node30&#45;&gt;Node18</title>
<path fill="none" stroke="midnightblue" d="M805.779,-146.655C840.618,-146.655 878.433,-146.655 911.777,-146.655"/>
<polygon fill="midnightblue" stroke="midnightblue" points="805.556,-143.155 795.556,-146.655 805.556,-150.155 805.556,-143.155"/>
</g>
<!-- Node31&#45;&gt;Node18 -->
<g id="edge84" class="edge"><title>Node31&#45;&gt;Node18</title>
<path fill="none" stroke="midnightblue" d="M518.128,-123.161C605.856,-121.61 718.21,-121.39 818,-126.655 853.256,-128.515 892.059,-132.314 925.283,-136.107"/>
<polygon fill="midnightblue" stroke="midnightblue" points="518.031,-119.663 508.097,-123.346 518.16,-126.661 518.031,-119.663"/>
</g>
</g>
</svg>
        <g id="navigator" transform="translate(0 0)" fill="#404254">
                <rect fill="#f2f5e9" fill-opacity="0.5" stroke="#606060" stroke-width=".5" x="0" y="0" width="60" height="60"/>
                <use id="zoomplus" xlink:href="#zoomPlus" x="17" y="9" onmousedown="handleZoom(evt,'in')"/>
                <use id="zoomminus" xlink:href="#zoomMin" x="42" y="9" onmousedown="handleZoom(evt,'out')"/>
                <use id="reset" xlink:href="#resetDef" x="30" y="36" onmousedown="handleReset()"/>
                <g id="arrowUp" xlink:href="#dirArrow" transform="translate(30 24)" onmousedown="handlePan(0,-1)">
                  <use xlink:href="#rim" fill="#404040">
                        <set attributeName="fill" to="#808080" begin="arrowUp.mouseover" end="arrowUp.mouseout"/>
                  </use>
                  <path fill="none" stroke="white" stroke-width="1.5" d="M0,-3.0v7 M-2.5,-0.5L0,-3.0L2.5,-0.5"/>
                </g>
                <g id="arrowRight" xlink:href="#dirArrow" transform="rotate(90) translate(36 -43)" onmousedown="handlePan(1,0)">
                  <use xlink:href="#rim" fill="#404040">
                        <set attributeName="fill" to="#808080" begin="arrowRight.mouseover" end="arrowRight.mouseout"/>
                  </use>
                  <path fill="none" stroke="white" stroke-width="1.5" d="M0,-3.0v7 M-2.5,-0.5L0,-3.0L2.5,-0.5"/>
                </g>
                <g id="arrowDown" xlink:href="#dirArrow" transform="rotate(180) translate(-30 -48)" onmousedown="handlePan(0,1)">
                  <use xlink:href="#rim" fill="#404040">
                        <set attributeName="fill" to="#808080" begin="arrowDown.mouseover" end="arrowDown.mouseout"/>
                  </use>
                  <path fill="none" stroke="white" stroke-width="1.5" d="M0,-3.0v7 M-2.5,-0.5L0,-3.0L2.5,-0.5"/>
                </g>
                <g id="arrowLeft" xlink:href="#dirArrow" transform="rotate(270) translate(-36 17)" onmousedown="handlePan(-1,0)">
                  <use xlink:href="#rim" fill="#404040">
                        <set attributeName="fill" to="#808080" begin="arrowLeft.mouseover" end="arrowLeft.mouseout"/>
                  </use>
                  <path fill="none" stroke="white" stroke-width="1.5" d="M0,-3.0v7 M-2.5,-0.5L0,-3.0L2.5,-0.5"/>
                </g>
        </g>
</svg>
