<?xml version="1.0" encoding="UTF-8" standalone="no"?>
<!DOCTYPE svg PUBLIC "-//W3C//DTD SVG 1.1//EN"
 "http://www.w3.org/Graphics/SVG/1.1/DTD/svg11.dtd">
<!-- Generated by graphviz version 2.26.3 (20100126.1600)
 -->
<!-- Title: Collisions::addCollisionMesh Pages: 1 -->
<svg width="626pt" height="434pt"
 viewBox="0.00 0.00 626.00 434.00" xmlns="http://www.w3.org/2000/svg" xmlns:xlink="http://www.w3.org/1999/xlink">
<g id="graph1" class="graph" transform="scale(1 1) rotate(0) translate(4 430)">
<title>Collisions::addCollisionMesh</title>
<polygon fill="white" stroke="white" points="-4,5 -4,-430 623,-430 623,5 -4,5"/>
<!-- Node1 -->
<g id="node1" class="node"><title>Node1</title>
<polygon fill="#bfbfbf" stroke="black" points="0.5,-214.5 0.5,-235.5 143.5,-235.5 143.5,-214.5 0.5,-214.5"/>
<text text-anchor="middle" x="72" y="-222.5" font-family="Helvetica,sans-Serif" font-size="10.00">Collisions::addCollisionMesh</text>
</g>
<!-- Node2 -->
<g id="node3" class="node"><title>Node2</title>
<a xlink:href="class_collisions.html#a7840c7d5b2b56b4cc8f41778c0edb7a7" target="_top" xlink:title="Collisions::getGroundModel\lByString">
<polygon fill="white" stroke="black" points="187.5,-392 187.5,-426 324.5,-426 324.5,-392 187.5,-392"/>
<text text-anchor="start" x="195.5" y="-413" font-family="Helvetica,sans-Serif" font-size="10.00">Collisions::getGroundModel</text>
<text text-anchor="middle" x="256" y="-400" font-family="Helvetica,sans-Serif" font-size="10.00">ByString</text>
</a>
</g>
<!-- Node1&#45;&gt;Node2 -->
<g id="edge2" class="edge"><title>Node1&#45;&gt;Node2</title>
<path fill="none" stroke="midnightblue" d="M76.3395,-235.572C88.4332,-263.753 125.263,-341.353 180,-383 181.803,-384.372 183.684,-385.675 185.625,-386.911"/>
<polygon fill="midnightblue" stroke="midnightblue" points="184.041,-390.037 194.468,-391.92 187.491,-383.946 184.041,-390.037"/>
</g>
<!-- Node3 -->
<g id="node5" class="node"><title>Node3</title>
<a xlink:href="class_collisions.html#a2ef942fa770bd57c5638465d58bed210" target="_top" xlink:title="Collisions::getMeshInformation">
<polygon fill="white" stroke="black" points="180,-352.5 180,-373.5 332,-373.5 332,-352.5 180,-352.5"/>
<text text-anchor="middle" x="256" y="-360.5" font-family="Helvetica,sans-Serif" font-size="10.00">Collisions::getMeshInformation</text>
</a>
</g>
<!-- Node1&#45;&gt;Node3 -->
<g id="edge4" class="edge"><title>Node1&#45;&gt;Node3</title>
<path fill="none" stroke="midnightblue" d="M78.6431,-235.694C93.6753,-258.971 132.698,-314.422 180,-343 183.449,-345.084 187.113,-346.952 190.897,-348.629"/>
<polygon fill="midnightblue" stroke="midnightblue" points="189.91,-352.001 200.497,-352.411 192.476,-345.489 189.91,-352.001"/>
</g>
<!-- Node4 -->
<g id="node7" class="node"><title>Node4</title>
<a xlink:href="class_collisions.html#a44e7f403a680e597a54209b2873b6e28" target="_top" xlink:title="Collisions::addCollisionTri">
<polygon fill="white" stroke="black" points="191,-312.5 191,-333.5 321,-333.5 321,-312.5 191,-312.5"/>
<text text-anchor="middle" x="256" y="-320.5" font-family="Helvetica,sans-Serif" font-size="10.00">Collisions::addCollisionTri</text>
</a>
</g>
<!-- Node1&#45;&gt;Node4 -->
<g id="edge6" class="edge"><title>Node1&#45;&gt;Node4</title>
<path fill="none" stroke="midnightblue" d="M83.6925,-235.725C102.563,-252.478 141.522,-284.819 180,-303 184.934,-305.331 190.182,-307.423 195.525,-309.292"/>
<polygon fill="midnightblue" stroke="midnightblue" points="194.606,-312.673 205.198,-312.42 196.76,-306.013 194.606,-312.673"/>
</g>
<!-- Node7 -->
<g id="node13" class="node"><title>Node7</title>
<a xlink:href="class_ogre_1_1_movable_text.html#aed27a49ecadb3905afb7b5de4409d799" target="_top" xlink:title="Ogre::MovableText::\lsetFontName">
<polygon fill="white" stroke="black" points="203,-260 203,-294 309,-294 309,-260 203,-260"/>
<text text-anchor="start" x="211" y="-281" font-family="Helvetica,sans-Serif" font-size="10.00">Ogre::MovableText::</text>
<text text-anchor="middle" x="256" y="-268" font-family="Helvetica,sans-Serif" font-size="10.00">setFontName</text>
</a>
</g>
<!-- Node1&#45;&gt;Node7 -->
<g id="edge12" class="edge"><title>Node1&#45;&gt;Node7</title>
<path fill="none" stroke="midnightblue" d="M109.235,-235.523C133.283,-242.319 165.179,-251.333 193.092,-259.222"/>
<polygon fill="midnightblue" stroke="midnightblue" points="192.205,-262.608 202.78,-261.959 194.108,-255.872 192.205,-262.608"/>
</g>
<!-- Node8 -->
<g id="node15" class="node"><title>Node8</title>
<a xlink:href="class_ogre_1_1_movable_text.html#a8fc0b2d13ba89695e53152ad1c435306" target="_top" xlink:title="Ogre::MovableText::\lsetTextAlignment">
<polygon fill="white" stroke="black" points="203,-208 203,-242 309,-242 309,-208 203,-208"/>
<text text-anchor="start" x="211" y="-229" font-family="Helvetica,sans-Serif" font-size="10.00">Ogre::MovableText::</text>
<text text-anchor="middle" x="256" y="-216" font-family="Helvetica,sans-Serif" font-size="10.00">setTextAlignment</text>
</a>
</g>
<!-- Node1&#45;&gt;Node8 -->
<g id="edge14" class="edge"><title>Node1&#45;&gt;Node8</title>
<path fill="none" stroke="midnightblue" d="M143.666,-225C159.807,-225 176.827,-225 192.602,-225"/>
<polygon fill="midnightblue" stroke="midnightblue" points="192.766,-228.5 202.766,-225 192.766,-221.5 192.766,-228.5"/>
</g>
<!-- Node9 -->
<g id="node17" class="node"><title>Node9</title>
<a xlink:href="class_ogre_1_1_movable_text.html#a0e4f2340efd854e591e07fb4bebcbeaa" target="_top" xlink:title="Ogre::MovableText::\lsetAdditionalHeight">
<polygon fill="white" stroke="black" points="203,-156 203,-190 309,-190 309,-156 203,-156"/>
<text text-anchor="start" x="211" y="-177" font-family="Helvetica,sans-Serif" font-size="10.00">Ogre::MovableText::</text>
<text text-anchor="middle" x="256" y="-164" font-family="Helvetica,sans-Serif" font-size="10.00">setAdditionalHeight</text>
</a>
</g>
<!-- Node1&#45;&gt;Node9 -->
<g id="edge16" class="edge"><title>Node1&#45;&gt;Node9</title>
<path fill="none" stroke="midnightblue" d="M109.235,-214.477C133.283,-207.681 165.179,-198.667 193.092,-190.778"/>
<polygon fill="midnightblue" stroke="midnightblue" points="194.108,-194.128 202.78,-188.041 192.205,-187.392 194.108,-194.128"/>
</g>
<!-- Node10 -->
<g id="node19" class="node"><title>Node10</title>
<a xlink:href="class_ogre_1_1_movable_text.html#a88bb2321dd352795dfeff306928e48bc" target="_top" xlink:title="Ogre::MovableText::\lshowOnTop">
<polygon fill="white" stroke="black" points="203,-104 203,-138 309,-138 309,-104 203,-104"/>
<text text-anchor="start" x="211" y="-125" font-family="Helvetica,sans-Serif" font-size="10.00">Ogre::MovableText::</text>
<text text-anchor="middle" x="256" y="-112" font-family="Helvetica,sans-Serif" font-size="10.00">showOnTop</text>
</a>
</g>
<!-- Node1&#45;&gt;Node10 -->
<g id="edge18" class="edge"><title>Node1&#45;&gt;Node10</title>
<path fill="none" stroke="midnightblue" d="M84.1675,-214.335C103.374,-197.953 142.41,-166.453 180,-147 184.265,-144.793 188.758,-142.709 193.34,-140.755"/>
<polygon fill="midnightblue" stroke="midnightblue" points="194.862,-143.916 202.827,-136.93 192.244,-137.424 194.862,-143.916"/>
</g>
<!-- Node11 -->
<g id="node21" class="node"><title>Node11</title>
<a xlink:href="class_ogre_1_1_movable_text.html#a0562e7c4341e263ae6e9d55f91643ade" target="_top" xlink:title="Ogre::MovableText::\lsetCharacterHeight">
<polygon fill="white" stroke="black" points="203,-52 203,-86 309,-86 309,-52 203,-52"/>
<text text-anchor="start" x="211" y="-73" font-family="Helvetica,sans-Serif" font-size="10.00">Ogre::MovableText::</text>
<text text-anchor="middle" x="256" y="-60" font-family="Helvetica,sans-Serif" font-size="10.00">setCharacterHeight</text>
</a>
</g>
<!-- Node1&#45;&gt;Node11 -->
<g id="edge20" class="edge"><title>Node1&#45;&gt;Node11</title>
<path fill="none" stroke="midnightblue" d="M78.0894,-214.212C92.5574,-189.525 131.444,-128.476 180,-95 184.198,-92.1059 188.747,-89.5082 193.461,-87.1811"/>
<polygon fill="midnightblue" stroke="midnightblue" points="194.998,-90.3277 202.681,-83.033 192.126,-83.9439 194.998,-90.3277"/>
</g>
<!-- Node12 -->
<g id="node23" class="node"><title>Node12</title>
<a xlink:href="class_ogre_1_1_movable_text.html#a7ed5e440d32fee6180e6eaa7094b3f5c" target="_top" xlink:title="Ogre::MovableText::\lsetColor">
<polygon fill="white" stroke="black" points="203,-0 203,-34 309,-34 309,-0 203,-0"/>
<text text-anchor="start" x="211" y="-21" font-family="Helvetica,sans-Serif" font-size="10.00">Ogre::MovableText::</text>
<text text-anchor="middle" x="256" y="-8" font-family="Helvetica,sans-Serif" font-size="10.00">setColor</text>
</a>
</g>
<!-- Node1&#45;&gt;Node12 -->
<g id="edge22" class="edge"><title>Node1&#45;&gt;Node12</title>
<path fill="none" stroke="midnightblue" d="M75.4081,-214.196C85.807,-182.958 120.123,-91.6618 180,-43 184.089,-39.6771 188.626,-36.7688 193.39,-34.2249"/>
<polygon fill="midnightblue" stroke="midnightblue" points="195.242,-37.2203 202.774,-29.7692 192.239,-30.897 195.242,-37.2203"/>
</g>
<!-- Node5 -->
<g id="node9" class="node"><title>Node5</title>
<a xlink:href="class_collisions.html#ab8dc3b86fee4e2aa47927bfeabe2ddfe" target="_top" xlink:title="Collisions::hash_add">
<polygon fill="white" stroke="black" points="368.5,-312.5 368.5,-333.5 475.5,-333.5 475.5,-312.5 368.5,-312.5"/>
<text text-anchor="middle" x="422" y="-320.5" font-family="Helvetica,sans-Serif" font-size="10.00">Collisions::hash_add</text>
</a>
</g>
<!-- Node4&#45;&gt;Node5 -->
<g id="edge8" class="edge"><title>Node4&#45;&gt;Node5</title>
<path fill="none" stroke="midnightblue" d="M321.131,-323C333.337,-323 346.083,-323 358.247,-323"/>
<polygon fill="midnightblue" stroke="midnightblue" points="358.302,-326.5 368.302,-323 358.302,-319.5 358.302,-326.5"/>
</g>
<!-- Node6 -->
<g id="node11" class="node"><title>Node6</title>
<a xlink:href="class_collisions.html#a7e21c069d16d661d211d0cb896577edf" target="_top" xlink:title="Collisions::hashfunc">
<polygon fill="white" stroke="black" points="512.5,-312.5 512.5,-333.5 617.5,-333.5 617.5,-312.5 512.5,-312.5"/>
<text text-anchor="middle" x="565" y="-320.5" font-family="Helvetica,sans-Serif" font-size="10.00">Collisions::hashfunc</text>
</a>
</g>
<!-- Node5&#45;&gt;Node6 -->
<g id="edge10" class="edge"><title>Node5&#45;&gt;Node6</title>
<path fill="none" stroke="midnightblue" d="M475.655,-323C484.313,-323 493.344,-323 502.195,-323"/>
<polygon fill="midnightblue" stroke="midnightblue" points="502.469,-326.5 512.469,-323 502.469,-319.5 502.469,-326.5"/>
</g>
</g>
</svg>
