<?xml version="1.0" encoding="UTF-8" standalone="no"?>
<!DOCTYPE svg PUBLIC "-//W3C//DTD SVG 1.1//EN"
 "http://www.w3.org/Graphics/SVG/1.1/DTD/svg11.dtd">
<!-- Generated by graphviz version 2.26.3 (20100126.1600)
 -->
<!-- Title: MeshObject::setCastShadows Pages: 1 -->
<svg width="484pt" height="30pt"
 viewBox="0.00 0.00 484.00 30.00" xmlns="http://www.w3.org/2000/svg" xmlns:xlink="http://www.w3.org/1999/xlink">
<g id="graph1" class="graph" transform="scale(1 1) rotate(0) translate(4 26)">
<title>MeshObject::setCastShadows</title>
<polygon fill="white" stroke="white" points="-4,5 -4,-26 481,-26 481,5 -4,5"/>
<!-- Node1 -->
<g id="node1" class="node"><title>Node1</title>
<polygon fill="#bfbfbf" stroke="black" points="0,-0.5 0,-21.5 150,-21.5 150,-0.5 0,-0.5"/>
<text text-anchor="middle" x="75" y="-8.5" font-family="Helvetica,sans-Serif" font-size="10.00">MeshObject::setCastShadows</text>
</g>
<!-- Node2 -->
<g id="node3" class="node"><title>Node2</title>
<a xlink:href="class_rig_spawner.html#a3111af9b13e45b26f7942a7707e6a57e" target="_top" xlink:title="RigSpawner::ProcessProp">
<polygon fill="white" stroke="black" points="186,-0.5 186,-21.5 318,-21.5 318,-0.5 186,-0.5"/>
<text text-anchor="middle" x="252" y="-8.5" font-family="Helvetica,sans-Serif" font-size="10.00">RigSpawner::ProcessProp</text>
</a>
</g>
<!-- Node1&#45;&gt;Node2 -->
<g id="edge2" class="edge"><title>Node1&#45;&gt;Node2</title>
<path fill="none" stroke="midnightblue" d="M160.14,-11C168.756,-11 177.415,-11 185.789,-11"/>
<polygon fill="midnightblue" stroke="midnightblue" points="160.064,-7.5001 150.064,-11 160.064,-14.5001 160.064,-7.5001"/>
</g>
<!-- Node3 -->
<g id="node5" class="node"><title>Node3</title>
<a xlink:href="class_rig_spawner.html#a67da85dd09bd864df9dc924f6f2a7d49" target="_top" xlink:title="RigSpawner::SpawnRig">
<polygon fill="white" stroke="black" points="354.5,-0.5 354.5,-21.5 475.5,-21.5 475.5,-0.5 354.5,-0.5"/>
<text text-anchor="middle" x="415" y="-8.5" font-family="Helvetica,sans-Serif" font-size="10.00">RigSpawner::SpawnRig</text>
</a>
</g>
<!-- Node2&#45;&gt;Node3 -->
<g id="edge4" class="edge"><title>Node2&#45;&gt;Node3</title>
<path fill="none" stroke="midnightblue" d="M328.421,-11C337.094,-11 345.844,-11 354.276,-11"/>
<polygon fill="midnightblue" stroke="midnightblue" points="328.298,-7.5001 318.298,-11 328.298,-14.5001 328.298,-7.5001"/>
</g>
</g>
</svg>
