<?xml version="1.0" encoding="UTF-8" standalone="no"?>
<!DOCTYPE svg PUBLIC "-//W3C//DTD SVG 1.1//EN"
 "http://www.w3.org/Graphics/SVG/1.1/DTD/svg11.dtd">
<!-- Generated by graphviz version 2.26.3 (20100126.1600)
 -->
<!-- Title: CameraManager::gameControlsLocked Pages: 1 -->
<svg width="828pt" height="106pt"
 viewBox="0.00 0.00 828.00 106.00" xmlns="http://www.w3.org/2000/svg" xmlns:xlink="http://www.w3.org/1999/xlink">
<g id="graph1" class="graph" transform="scale(1 1) rotate(0) translate(4 102)">
<title>CameraManager::gameControlsLocked</title>
<polygon fill="white" stroke="white" points="-4,5 -4,-102 825,-102 825,5 -4,5"/>
<!-- Node1 -->
<g id="node1" class="node"><title>Node1</title>
<polygon fill="#bfbfbf" stroke="black" points="0.5,-0 0.5,-34 155.5,-34 155.5,-0 0.5,-0"/>
<text text-anchor="start" x="8.5" y="-21" font-family="Helvetica,sans-Serif" font-size="10.00">CameraManager::gameControls</text>
<text text-anchor="middle" x="78" y="-8" font-family="Helvetica,sans-Serif" font-size="10.00">Locked</text>
</g>
<!-- Node2 -->
<g id="node3" class="node"><title>Node2</title>
<a xlink:href="class_character.html#a4806a9150eb30673bab3d0b47e05d135" target="_top" xlink:title="Character::update">
<polygon fill="white" stroke="black" points="192.5,-26.5 192.5,-47.5 287.5,-47.5 287.5,-26.5 192.5,-26.5"/>
<text text-anchor="middle" x="240" y="-34.5" font-family="Helvetica,sans-Serif" font-size="10.00">Character::update</text>
</a>
</g>
<!-- Node1&#45;&gt;Node2 -->
<g id="edge2" class="edge"><title>Node1&#45;&gt;Node2</title>
<path fill="none" stroke="midnightblue" d="M165.644,-27.8202C174.807,-28.9514 183.856,-30.0686 192.317,-31.1132"/>
<polygon fill="midnightblue" stroke="midnightblue" points="166.032,-24.3417 155.679,-26.5899 165.174,-31.2889 166.032,-24.3417"/>
</g>
<!-- Node4 -->
<g id="node7" class="node"><title>Node4</title>
<a xlink:href="class_ro_r_frame_listener.html#a6b384193b130f7c1fff95d2e740a370e" target="_top" xlink:title="RoRFrameListener::update\lEvents">
<polygon fill="white" stroke="black" points="488,-19 488,-53 622,-53 622,-19 488,-19"/>
<text text-anchor="start" x="496" y="-40" font-family="Helvetica,sans-Serif" font-size="10.00">RoRFrameListener::update</text>
<text text-anchor="middle" x="555" y="-27" font-family="Helvetica,sans-Serif" font-size="10.00">Events</text>
</a>
</g>
<!-- Node1&#45;&gt;Node4 -->
<g id="edge12" class="edge"><title>Node1&#45;&gt;Node4</title>
<path fill="none" stroke="midnightblue" d="M166.215,-15.6083C203.765,-15.3766 248.035,-15.5798 288,-17 356.154,-19.4219 433.908,-25.3106 487.861,-29.8957"/>
<polygon fill="midnightblue" stroke="midnightblue" points="165.786,-12.1112 155.812,-15.6845 165.837,-19.1111 165.786,-12.1112"/>
</g>
<!-- Node3 -->
<g id="node5" class="node"><title>Node3</title>
<a xlink:href="class_character_factory.html#a70f849028ea8a2372700fe92b44dba7b" target="_top" xlink:title="CharacterFactory::update\lCharacters">
<polygon fill="white" stroke="black" points="324,-64 324,-98 452,-98 452,-64 324,-64"/>
<text text-anchor="start" x="332" y="-85" font-family="Helvetica,sans-Serif" font-size="10.00">CharacterFactory::update</text>
<text text-anchor="middle" x="388" y="-72" font-family="Helvetica,sans-Serif" font-size="10.00">Characters</text>
</a>
</g>
<!-- Node2&#45;&gt;Node3 -->
<g id="edge4" class="edge"><title>Node2&#45;&gt;Node3</title>
<path fill="none" stroke="midnightblue" d="M285.075,-50.4006C299.423,-54.6663 315.493,-59.4439 330.592,-63.9326"/>
<polygon fill="midnightblue" stroke="midnightblue" points="286.032,-47.034 275.45,-47.5391 284.038,-53.7437 286.032,-47.034"/>
</g>
<!-- Node2&#45;&gt;Node4 -->
<g id="edge10" class="edge"><title>Node2&#45;&gt;Node4</title>
<path fill="none" stroke="midnightblue" d="M297.886,-36.8162C351.595,-36.6457 431.518,-36.392 487.974,-36.2128"/>
<polygon fill="midnightblue" stroke="midnightblue" points="297.831,-33.3163 287.842,-36.8481 297.853,-40.3163 297.831,-33.3163"/>
</g>
<!-- Node3&#45;&gt;Node4 -->
<g id="edge6" class="edge"><title>Node3&#45;&gt;Node4</title>
<path fill="none" stroke="midnightblue" d="M460.908,-61.3542C471.192,-58.5831 481.693,-55.7533 491.775,-53.0366"/>
<polygon fill="midnightblue" stroke="midnightblue" points="459.88,-58.0061 451.136,-63.9874 461.702,-64.765 459.88,-58.0061"/>
</g>
<!-- Node5 -->
<g id="node9" class="node"><title>Node5</title>
<a xlink:href="class_ro_r_frame_listener.html#acd8647e188fb8e838689492965b86faf" target="_top" xlink:title="RoRFrameListener::frameStarted">
<polygon fill="white" stroke="black" points="658.5,-25.5 658.5,-46.5 819.5,-46.5 819.5,-25.5 658.5,-25.5"/>
<text text-anchor="middle" x="739" y="-33.5" font-family="Helvetica,sans-Serif" font-size="10.00">RoRFrameListener::frameStarted</text>
</a>
</g>
<!-- Node4&#45;&gt;Node5 -->
<g id="edge8" class="edge"><title>Node4&#45;&gt;Node5</title>
<path fill="none" stroke="midnightblue" d="M632.483,-36C640.991,-36 649.669,-36 658.216,-36"/>
<polygon fill="midnightblue" stroke="midnightblue" points="632.209,-32.5001 622.209,-36 632.209,-39.5001 632.209,-32.5001"/>
</g>
</g>
</svg>
