<?xml version="1.0" encoding="UTF-8" standalone="no"?>
<!DOCTYPE svg PUBLIC "-//W3C//DTD SVG 1.1//EN"
 "http://www.w3.org/Graphics/SVG/1.1/DTD/svg11.dtd">
<!-- Generated by graphviz version 2.26.3 (20100126.1600)
 -->
<!-- Title: Beam::getTruckFileName Pages: 1 -->
<svg width="1048pt" height="90pt"
 viewBox="0.00 0.00 1048.00 90.00" xmlns="http://www.w3.org/2000/svg" xmlns:xlink="http://www.w3.org/1999/xlink">
<g id="graph1" class="graph" transform="scale(1 1) rotate(0) translate(4 86)">
<title>Beam::getTruckFileName</title>
<polygon fill="white" stroke="white" points="-4,5 -4,-86 1045,-86 1045,5 -4,5"/>
<!-- Node1 -->
<g id="node1" class="node"><title>Node1</title>
<polygon fill="#bfbfbf" stroke="black" points="0,-20.5 0,-41.5 128,-41.5 128,-20.5 0,-20.5"/>
<text text-anchor="middle" x="64" y="-28.5" font-family="Helvetica,sans-Serif" font-size="10.00">Beam::getTruckFileName</text>
</g>
<!-- Node2 -->
<g id="node3" class="node"><title>Node2</title>
<a xlink:href="class_two_d_replay.html#aa649099f489cb49888c053700dac1464" target="_top" xlink:title="TwoDReplay::start">
<polygon fill="white" stroke="black" points="198.5,-40.5 198.5,-61.5 297.5,-61.5 297.5,-40.5 198.5,-40.5"/>
<text text-anchor="middle" x="248" y="-48.5" font-family="Helvetica,sans-Serif" font-size="10.00">TwoDReplay::start</text>
</a>
</g>
<!-- Node1&#45;&gt;Node2 -->
<g id="edge2" class="edge"><title>Node1&#45;&gt;Node2</title>
<path fill="none" stroke="midnightblue" d="M138.221,-39.0675C158.438,-41.265 179.845,-43.5918 198.335,-45.6016"/>
<polygon fill="midnightblue" stroke="midnightblue" points="138.416,-35.5681 128.096,-37.967 137.659,-42.5271 138.416,-35.5681"/>
</g>
<!-- Node8 -->
<g id="node15" class="node"><title>Node8</title>
<a xlink:href="class_game_script.html#a8c02937795d82f6bc0de53d8e939993d" target="_top" xlink:title="GameScript::useOnlineAPIDirectly">
<polygon fill="white" stroke="black" points="164,-0.5 164,-21.5 332,-21.5 332,-0.5 164,-0.5"/>
<text text-anchor="middle" x="248" y="-8.5" font-family="Helvetica,sans-Serif" font-size="10.00">GameScript::useOnlineAPIDirectly</text>
</a>
</g>
<!-- Node1&#45;&gt;Node8 -->
<g id="edge14" class="edge"><title>Node1&#45;&gt;Node8</title>
<path fill="none" stroke="midnightblue" d="M138.221,-22.9325C146.621,-22.0194 155.228,-21.084 163.745,-20.1582"/>
<polygon fill="midnightblue" stroke="midnightblue" points="137.659,-19.4729 128.096,-24.033 138.416,-26.4319 137.659,-19.4729"/>
</g>
<!-- Node3 -->
<g id="node5" class="node"><title>Node3</title>
<a xlink:href="class_two_d_replay.html#a4b479652a9394ba9e8b7e08e33dbbb7a" target="_top" xlink:title="TwoDReplay::recordFrame">
<polygon fill="white" stroke="black" points="368,-40.5 368,-61.5 502,-61.5 502,-40.5 368,-40.5"/>
<text text-anchor="middle" x="435" y="-48.5" font-family="Helvetica,sans-Serif" font-size="10.00">TwoDReplay::recordFrame</text>
</a>
</g>
<!-- Node2&#45;&gt;Node3 -->
<g id="edge4" class="edge"><title>Node2&#45;&gt;Node3</title>
<path fill="none" stroke="midnightblue" d="M307.72,-51C326.883,-51 348.234,-51 367.89,-51"/>
<polygon fill="midnightblue" stroke="midnightblue" points="307.622,-47.5001 297.622,-51 307.622,-54.5001 307.622,-47.5001"/>
</g>
<!-- Node4 -->
<g id="node7" class="node"><title>Node4</title>
<a xlink:href="class_two_d_replay.html#abceb8a16da69e16f581128ae0e111a12" target="_top" xlink:title="TwoDReplay::update">
<polygon fill="white" stroke="black" points="550.5,-40.5 550.5,-61.5 659.5,-61.5 659.5,-40.5 550.5,-40.5"/>
<text text-anchor="middle" x="605" y="-48.5" font-family="Helvetica,sans-Serif" font-size="10.00">TwoDReplay::update</text>
</a>
</g>
<!-- Node3&#45;&gt;Node4 -->
<g id="edge6" class="edge"><title>Node3&#45;&gt;Node4</title>
<path fill="none" stroke="midnightblue" d="M512.385,-51C525.189,-51 538.225,-51 550.319,-51"/>
<polygon fill="midnightblue" stroke="midnightblue" points="512.189,-47.5001 502.189,-51 512.188,-54.5001 512.189,-47.5001"/>
</g>
<!-- Node5 -->
<g id="node9" class="node"><title>Node5</title>
<a xlink:href="class_beam_factory.html#a6fa954b906b6dc808a34e69ac2d018d3" target="_top" xlink:title="BeamFactory::calcPhysics">
<polygon fill="white" stroke="black" points="708,-40.5 708,-61.5 842,-61.5 842,-40.5 708,-40.5"/>
<text text-anchor="middle" x="775" y="-48.5" font-family="Helvetica,sans-Serif" font-size="10.00">BeamFactory::calcPhysics</text>
</a>
</g>
<!-- Node4&#45;&gt;Node5 -->
<g id="edge8" class="edge"><title>Node4&#45;&gt;Node5</title>
<path fill="none" stroke="midnightblue" d="M669.981,-51C682.39,-51 695.402,-51 707.876,-51"/>
<polygon fill="midnightblue" stroke="midnightblue" points="669.725,-47.5001 659.725,-51 669.725,-54.5001 669.725,-47.5001"/>
</g>
<!-- Node6 -->
<g id="node11" class="node"><title>Node6</title>
<a xlink:href="class_ro_r_frame_listener.html#acd8647e188fb8e838689492965b86faf" target="_top" xlink:title="RoRFrameListener::frameStarted">
<polygon fill="white" stroke="black" points="878.5,-60.5 878.5,-81.5 1039.5,-81.5 1039.5,-60.5 878.5,-60.5"/>
<text text-anchor="middle" x="959" y="-68.5" font-family="Helvetica,sans-Serif" font-size="10.00">RoRFrameListener::frameStarted</text>
</a>
</g>
<!-- Node5&#45;&gt;Node6 -->
<g id="edge10" class="edge"><title>Node5&#45;&gt;Node6</title>
<path fill="none" stroke="midnightblue" d="M852.203,-59.3916C860.8,-60.3261 869.575,-61.2799 878.216,-62.2192"/>
<polygon fill="midnightblue" stroke="midnightblue" points="852.529,-55.9065 842.209,-58.3054 851.772,-62.8655 852.529,-55.9065"/>
</g>
<!-- Node7 -->
<g id="node13" class="node"><title>Node7</title>
<a xlink:href="class_preview_renderer.html#a5ea6b4611b45965e072266211dc60ba8" target="_top" xlink:title="PreviewRenderer::render">
<polygon fill="white" stroke="black" points="896.5,-20.5 896.5,-41.5 1021.5,-41.5 1021.5,-20.5 896.5,-20.5"/>
<text text-anchor="middle" x="959" y="-28.5" font-family="Helvetica,sans-Serif" font-size="10.00">PreviewRenderer::render</text>
</a>
</g>
<!-- Node5&#45;&gt;Node7 -->
<g id="edge12" class="edge"><title>Node5&#45;&gt;Node7</title>
<path fill="none" stroke="midnightblue" d="M852.262,-42.602C866.927,-41.0079 882.106,-39.358 896.255,-37.8202"/>
<polygon fill="midnightblue" stroke="midnightblue" points="851.772,-39.1345 842.209,-43.6946 852.529,-46.0935 851.772,-39.1345"/>
</g>
<!-- Node9 -->
<g id="node17" class="node"><title>Node9</title>
<a xlink:href="_game_script_8cpp.html#aeecefe9a646e48846e0a7f4ee494b624" target="_top" xlink:title="onlineAPIThread">
<polygon fill="white" stroke="black" points="390.5,-0.5 390.5,-21.5 479.5,-21.5 479.5,-0.5 390.5,-0.5"/>
<text text-anchor="middle" x="435" y="-8.5" font-family="Helvetica,sans-Serif" font-size="10.00">onlineAPIThread</text>
</a>
</g>
<!-- Node8&#45;&gt;Node9 -->
<g id="edge16" class="edge"><title>Node8&#45;&gt;Node9</title>
<path fill="none" stroke="midnightblue" d="M342.579,-11C359.27,-11 375.915,-11 390.386,-11"/>
<polygon fill="midnightblue" stroke="midnightblue" points="342.2,-7.5001 332.2,-11 342.2,-14.5001 342.2,-7.5001"/>
</g>
<!-- Node10 -->
<g id="node19" class="node"><title>Node10</title>
<a xlink:href="class_game_script.html#a57fef318c599e4d2f86aa9b4b7f2ec12" target="_top" xlink:title="GameScript::useOnlineAPI">
<polygon fill="white" stroke="black" points="538,-0.5 538,-21.5 672,-21.5 672,-0.5 538,-0.5"/>
<text text-anchor="middle" x="605" y="-8.5" font-family="Helvetica,sans-Serif" font-size="10.00">GameScript::useOnlineAPI</text>
</a>
</g>
<!-- Node9&#45;&gt;Node10 -->
<g id="edge18" class="edge"><title>Node9&#45;&gt;Node10</title>
<path fill="none" stroke="midnightblue" d="M489.977,-11C505.255,-11 522.018,-11 537.907,-11"/>
<polygon fill="midnightblue" stroke="midnightblue" points="489.666,-7.5001 479.665,-11 489.665,-14.5001 489.666,-7.5001"/>
</g>
</g>
</svg>
