<?xml version="1.0" encoding="UTF-8" standalone="no"?>
<!DOCTYPE svg PUBLIC "-//W3C//DTD SVG 1.1//EN"
 "http://www.w3.org/Graphics/SVG/1.1/DTD/svg11.dtd">
<!-- Generated by graphviz version 2.26.3 (20100126.1600)
 -->
<!-- Title: ChatSystem::sendStreamSetup Pages: 1 -->
<!--zoomable 132 -->
<svg id="main" version="1.1" xmlns="http://www.w3.org/2000/svg" xmlns:xlink="http://www.w3.org/1999/xlink" xml:space="preserve" onload="init(evt)">
<style type="text/css"><![CDATA[
.edge:hover path { stroke: red; }
.edge:hover polygon { stroke: red; fill: red; }
]]></style>
<script type="text/javascript"><![CDATA[
var edges = document.getElementsByTagName('g');
if (edges && edges.length) {
  for (var i=0;i<edges.length;i++) {
    if (edges[i].id.substr(0,4)=='edge') {
      edges[i].setAttribute('class','edge');
    }
  }
}
]]></script>
        <defs>
                <circle id="rim" cx="0" cy="0" r="7"/>
                <circle id="rim2" cx="0" cy="0" r="3.5"/>
                <g id="zoomPlus">
                        <use xlink:href="#rim" fill="#404040">
                                <set attributeName="fill" to="#808080" begin="zoomplus.mouseover" end="zoomplus.mouseout"/>
                        </use>
                        <path d="M-4,0h8M0,-4v8" fill="none" stroke="white" stroke-width="1.5" pointer-events="none"/>
                </g>
                <g id="zoomMin">
                        <use xlink:href="#rim" fill="#404040">
                                <set attributeName="fill" to="#808080" begin="zoomminus.mouseover" end="zoomminus.mouseout"/>
                        </use>
                        <path d="M-4,0h8" fill="none" stroke="white" stroke-width="1.5" pointer-events="none"/>
                </g>
                <g id="dirArrow">
                        <path fill="none" stroke="white" stroke-width="1.5" d="M0,-3.0v7 M-2.5,-0.5L0,-3.0L2.5,-0.5"/>
                </g>
               <g id="resetDef">
                       <use xlink:href="#rim2" fill="#404040">
                               <set attributeName="fill" to="#808080" begin="reset.mouseover" end="reset.mouseout"/>
                       </use>
               </g>
        </defs>

<script type="text/javascript">
var viewWidth = 678;
var viewHeight = 132;
var sectionId = 'dynsection-9';
</script>
<script xlink:href="svgpan.js"/>
<svg id="graph" class="graph">
<g id="viewport">
<title>ChatSystem::sendStreamSetup</title>
<polygon fill="white" stroke="white" points="-4,5 -4,-128 675,-128 675,5 -4,5"/>
<!-- Node1 -->
<g id="node1" class="node"><title>Node1</title>
<polygon fill="#bfbfbf" stroke="black" points="0.5,-102.5 0.5,-123.5 155.5,-123.5 155.5,-102.5 0.5,-102.5"/>
<text text-anchor="middle" x="78" y="-110.5" font-family="Helvetica,sans-Serif" font-size="10.00">ChatSystem::sendStreamSetup</text>
</g>
<!-- Node2 -->
<g id="node3" class="node"><title>Node2</title>
<a xlink:href="class_ro_r_singleton.html#a18a797fc35bd8cfa8a2affdd197cbfee" target="_top" xlink:title="RoRSingleton\&lt; NetworkStream\lManager \&gt;::getSingleton">
<polygon fill="white" stroke="black" points="514.5,-85 514.5,-119 669.5,-119 669.5,-85 514.5,-85"/>
<text text-anchor="start" x="522.5" y="-106" font-family="Helvetica,sans-Serif" font-size="10.00">RoRSingleton&lt; NetworkStream</text>
<text text-anchor="middle" x="592" y="-93" font-family="Helvetica,sans-Serif" font-size="10.00">Manager &gt;::getSingleton</text>
</a>
</g>
<!-- Node1&#45;&gt;Node2 -->
<g id="edge2" class="edge"><title>Node1&#45;&gt;Node2</title>
<path fill="none" stroke="midnightblue" d="M155.525,-117.23C236.179,-120.821 366.081,-124.331 478,-117 486.539,-116.441 495.415,-115.648 504.275,-114.716"/>
<polygon fill="midnightblue" stroke="midnightblue" points="504.7,-118.19 514.253,-113.609 503.928,-111.233 504.7,-118.19"/>
</g>
<!-- Node3 -->
<g id="node5" class="node"><title>Node3</title>
<a xlink:href="class_network_stream_manager.html#a207f01cb8d1f1e1114e66d6f4215f6a8" target="_top" xlink:title="NetworkStreamManager\l::addLocalStream">
<polygon fill="white" stroke="black" points="192,-57 192,-91 314,-91 314,-57 192,-57"/>
<text text-anchor="start" x="200" y="-78" font-family="Helvetica,sans-Serif" font-size="10.00">NetworkStreamManager</text>
<text text-anchor="middle" x="253" y="-65" font-family="Helvetica,sans-Serif" font-size="10.00">::addLocalStream</text>
</a>
</g>
<!-- Node1&#45;&gt;Node3 -->
<g id="edge4" class="edge"><title>Node1&#45;&gt;Node3</title>
<path fill="none" stroke="midnightblue" d="M125.358,-102.446C142.77,-98.5656 162.89,-94.0817 181.932,-89.8379"/>
<polygon fill="midnightblue" stroke="midnightblue" points="182.773,-93.2365 191.772,-87.645 181.25,-86.4041 182.773,-93.2365"/>
</g>
<!-- Node4 -->
<g id="node7" class="node"><title>Node4</title>
<a xlink:href="class_streamable.html#a81648886f431e81940e48b698974b577" target="_top" xlink:title="Streamable::setSourceID">
<polygon fill="white" stroke="black" points="350.5,-86.5 350.5,-107.5 477.5,-107.5 477.5,-86.5 350.5,-86.5"/>
<text text-anchor="middle" x="414" y="-94.5" font-family="Helvetica,sans-Serif" font-size="10.00">Streamable::setSourceID</text>
</a>
</g>
<!-- Node3&#45;&gt;Node4 -->
<g id="edge6" class="edge"><title>Node3&#45;&gt;Node4</title>
<path fill="none" stroke="midnightblue" d="M314.326,-82.7609C322.821,-83.9745 331.619,-85.2312 340.309,-86.4728"/>
<polygon fill="midnightblue" stroke="midnightblue" points="340.044,-89.9702 350.438,-87.9197 341.034,-83.0406 340.044,-89.9702"/>
</g>
<!-- Node5 -->
<g id="node9" class="node"><title>Node5</title>
<a xlink:href="class_streamable.html#acc7ac6e8f91db534af9bdc4a3e8d7245" target="_top" xlink:title="Streamable::setStreamID">
<polygon fill="white" stroke="black" points="350,-46.5 350,-67.5 478,-67.5 478,-46.5 350,-46.5"/>
<text text-anchor="middle" x="414" y="-54.5" font-family="Helvetica,sans-Serif" font-size="10.00">Streamable::setStreamID</text>
</a>
</g>
<!-- Node3&#45;&gt;Node5 -->
<g id="edge8" class="edge"><title>Node3&#45;&gt;Node5</title>
<path fill="none" stroke="midnightblue" d="M314.326,-67.5245C322.694,-66.641 331.354,-65.7266 339.917,-64.8224"/>
<polygon fill="midnightblue" stroke="midnightblue" points="340.324,-68.299 349.901,-63.7682 339.589,-61.3377 340.324,-68.299"/>
</g>
<!-- Node6 -->
<g id="node11" class="node"><title>Node6</title>
<a xlink:href="class_streamable.html#ad3380f9c932381bb9a862f40177aa58c" target="_top" xlink:title="Streamable::addPacket">
<polygon fill="white" stroke="black" points="354.5,-6.5 354.5,-27.5 473.5,-27.5 473.5,-6.5 354.5,-6.5"/>
<text text-anchor="middle" x="414" y="-14.5" font-family="Helvetica,sans-Serif" font-size="10.00">Streamable::addPacket</text>
</a>
</g>
<!-- Node3&#45;&gt;Node6 -->
<g id="edge10" class="edge"><title>Node3&#45;&gt;Node6</title>
<path fill="none" stroke="midnightblue" d="M296.249,-56.8503C312.959,-50.3962 332.289,-43.1387 350,-37 356.135,-34.8734 362.636,-32.724 369.051,-30.6627"/>
<polygon fill="midnightblue" stroke="midnightblue" points="370.52,-33.8687 378.996,-27.512 368.406,-27.1956 370.52,-33.8687"/>
</g>
<!-- Node6&#45;&gt;Node2 -->
<g id="edge12" class="edge"><title>Node6&#45;&gt;Node2</title>
<path fill="none" stroke="midnightblue" d="M452.396,-27.5215C460.952,-30.2719 469.888,-33.469 478,-37 505.54,-48.9875 534.948,-65.8669 556.997,-79.4204"/>
<polygon fill="midnightblue" stroke="midnightblue" points="555.327,-82.5033 565.667,-84.8116 559.023,-76.5588 555.327,-82.5033"/>
</g>
<!-- Node7 -->
<g id="node14" class="node"><title>Node7</title>
<a xlink:href="class_network_stream_manager.html#a35a0f97374d09e9269ac1650932a1e07" target="_top" xlink:title="NetworkStreamManager\l::triggerSend">
<polygon fill="white" stroke="black" points="531,-0 531,-34 653,-34 653,-0 531,-0"/>
<text text-anchor="start" x="539" y="-21" font-family="Helvetica,sans-Serif" font-size="10.00">NetworkStreamManager</text>
<text text-anchor="middle" x="592" y="-8" font-family="Helvetica,sans-Serif" font-size="10.00">::triggerSend</text>
</a>
</g>
<!-- Node6&#45;&gt;Node7 -->
<g id="edge14" class="edge"><title>Node6&#45;&gt;Node7</title>
<path fill="none" stroke="midnightblue" d="M473.767,-17C488.845,-17 505.183,-17 520.764,-17"/>
<polygon fill="midnightblue" stroke="midnightblue" points="520.873,-20.5001 530.873,-17 520.873,-13.5001 520.873,-20.5001"/>
</g>
</g>
</svg>
        <g id="navigator" transform="translate(0 0)" fill="#404254">
                <rect fill="#f2f5e9" fill-opacity="0.5" stroke="#606060" stroke-width=".5" x="0" y="0" width="60" height="60"/>
                <use id="zoomplus" xlink:href="#zoomPlus" x="17" y="9" onmousedown="handleZoom(evt,'in')"/>
                <use id="zoomminus" xlink:href="#zoomMin" x="42" y="9" onmousedown="handleZoom(evt,'out')"/>
                <use id="reset" xlink:href="#resetDef" x="30" y="36" onmousedown="handleReset()"/>
                <g id="arrowUp" xlink:href="#dirArrow" transform="translate(30 24)" onmousedown="handlePan(0,-1)">
                  <use xlink:href="#rim" fill="#404040">
                        <set attributeName="fill" to="#808080" begin="arrowUp.mouseover" end="arrowUp.mouseout"/>
                  </use>
                  <path fill="none" stroke="white" stroke-width="1.5" d="M0,-3.0v7 M-2.5,-0.5L0,-3.0L2.5,-0.5"/>
                </g>
                <g id="arrowRight" xlink:href="#dirArrow" transform="rotate(90) translate(36 -43)" onmousedown="handlePan(1,0)">
                  <use xlink:href="#rim" fill="#404040">
                        <set attributeName="fill" to="#808080" begin="arrowRight.mouseover" end="arrowRight.mouseout"/>
                  </use>
                  <path fill="none" stroke="white" stroke-width="1.5" d="M0,-3.0v7 M-2.5,-0.5L0,-3.0L2.5,-0.5"/>
                </g>
                <g id="arrowDown" xlink:href="#dirArrow" transform="rotate(180) translate(-30 -48)" onmousedown="handlePan(0,1)">
                  <use xlink:href="#rim" fill="#404040">
                        <set attributeName="fill" to="#808080" begin="arrowDown.mouseover" end="arrowDown.mouseout"/>
                  </use>
                  <path fill="none" stroke="white" stroke-width="1.5" d="M0,-3.0v7 M-2.5,-0.5L0,-3.0L2.5,-0.5"/>
                </g>
                <g id="arrowLeft" xlink:href="#dirArrow" transform="rotate(270) translate(-36 17)" onmousedown="handlePan(-1,0)">
                  <use xlink:href="#rim" fill="#404040">
                        <set attributeName="fill" to="#808080" begin="arrowLeft.mouseover" end="arrowLeft.mouseout"/>
                  </use>
                  <path fill="none" stroke="white" stroke-width="1.5" d="M0,-3.0v7 M-2.5,-0.5L0,-3.0L2.5,-0.5"/>
                </g>
        </g>
        <svg viewBox="0 0 15 15" width="100%" height="30px" preserveAspectRatio="xMaxYMin meet">
         <g id="arrow_out" transform="scale(0.3 0.3)">
          <a xlink:href="class_chat_system_ae40cb749a8c233c6e7de1016f4cb4bdc_cgraph_org.svg" target="_base">
           <rect id="button" ry="5" rx="5" y="6" x="6" height="38" width="38"
                fill="#f2f5e9" fill-opacity="0.5" stroke="#606060" stroke-width="1.0"/>
           <path id="arrow"
             d="M 11.500037,31.436501 C 11.940474,20.09759 22.043105,11.32322 32.158766,21.979434 L 37.068811,17.246167 C 37.068811,17.246167 37.088388,32 37.088388,32 L 22.160133,31.978069 C 22.160133,31.978069 26.997745,27.140456 26.997745,27.140456 C 18.528582,18.264221 13.291696,25.230495 11.500037,31.436501 z"
             style="fill:#404040;"/>
          </a>
         </g>
        </svg>
</svg>
