<?xml version="1.0" encoding="UTF-8" standalone="no"?>
<!DOCTYPE svg PUBLIC "-//W3C//DTD SVG 1.1//EN"
 "http://www.w3.org/Graphics/SVG/1.1/DTD/svg11.dtd">
<!-- Generated by graphviz version 2.26.3 (20100126.1600)
 -->
<!-- Title: G Pages: 1 -->
<!--zoomable 90 -->
<svg id="main" version="1.1" xmlns="http://www.w3.org/2000/svg" xmlns:xlink="http://www.w3.org/1999/xlink" xml:space="preserve" onload="init(evt)">
        <defs>
                <circle id="rim" cx="0" cy="0" r="7"/>
                <circle id="rim2" cx="0" cy="0" r="3.5"/>
                <g id="zoomPlus">
                        <use xlink:href="#rim" fill="#404040">
                                <set attributeName="fill" to="#808080" begin="zoomplus.mouseover" end="zoomplus.mouseout"/>
                        </use>
                        <path d="M-4,0h8M0,-4v8" fill="none" stroke="white" stroke-width="1.5" pointer-events="none"/>
                </g>
                <g id="zoomMin">
                        <use xlink:href="#rim" fill="#404040">
                                <set attributeName="fill" to="#808080" begin="zoomminus.mouseover" end="zoomminus.mouseout"/>
                        </use>
                        <path d="M-4,0h8" fill="none" stroke="white" stroke-width="1.5" pointer-events="none"/>
                </g>
                <g id="dirArrow">
                        <path fill="none" stroke="white" stroke-width="1.5" d="M0,-3.0v7 M-2.5,-0.5L0,-3.0L2.5,-0.5"/>
                </g>
               <g id="resetDef">
                       <use xlink:href="#rim2" fill="#404040">
                               <set attributeName="fill" to="#808080" begin="reset.mouseover" end="reset.mouseout"/>
                       </use>
               </g>
        </defs>

<script type="text/javascript">
var viewWidth = 1724;
var viewHeight = 90;
var sectionId = 'dynsection-35';
</script>
<script xlink:href="svgpan.js"/>
<svg id="graph" class="graph">
<g id="viewport">
<title>G</title>
<polygon fill="white" stroke="white" points="-4,5 -4,-86 1721,-86 1721,5 -4,5"/>
<!-- Node1 -->
<g id="node1" class="node"><title>Node1</title>
<polygon fill="#bfbfbf" stroke="black" points="0,-20.5 0,-41.5 202,-41.5 202,-20.5 0,-20.5"/>
<text text-anchor="middle" x="101" y="-28.5" font-family="Helvetica,sans-Serif" font-size="10.00">RoR::RigEditor::Rig::GetWheelAxisNodes</text>
</g>
<!-- Node2 -->
<g id="node3" class="node"><title>Node2</title>
<a xlink:href="class_ro_r_1_1_rig_editor_1_1_rig.html#a17da4731c9ac80ccae4a1f275173d611" target="_top" xlink:title="RoR::RigEditor::Rig::GetWheelDefinitionNodes">
<polygon fill="white" stroke="black" points="238,-20.5 238,-41.5 462,-41.5 462,-20.5 238,-20.5"/>
<text text-anchor="middle" x="350" y="-28.5" font-family="Helvetica,sans-Serif" font-size="10.00">RoR::RigEditor::Rig::GetWheelDefinitionNodes</text>
</a>
</g>
<!-- Node1&#45;&gt;Node2 -->
<g id="edge2" class="edge"><title>Node1&#45;&gt;Node2</title>
<path fill="none" stroke="midnightblue" d="M212.497,-31C220.916,-31 229.415,-31 237.838,-31"/>
<polygon fill="midnightblue" stroke="midnightblue" points="212.278,-27.5001 202.278,-31 212.278,-34.5001 212.278,-27.5001"/>
</g>
<!-- Node3 -->
<g id="node5" class="node"><title>Node3</title>
<a xlink:href="class_ro_r_1_1_rig_editor_1_1_rig.html#af6175dd6ee639e86fa8784742819ef1e" target="_top" xlink:title="RoR::RigEditor::Rig::BuildFromModule">
<polygon fill="white" stroke="black" points="498,-20.5 498,-41.5 684,-41.5 684,-20.5 498,-20.5"/>
<text text-anchor="middle" x="591" y="-28.5" font-family="Helvetica,sans-Serif" font-size="10.00">RoR::RigEditor::Rig::BuildFromModule</text>
</a>
</g>
<!-- Node2&#45;&gt;Node3 -->
<g id="edge4" class="edge"><title>Node2&#45;&gt;Node3</title>
<path fill="none" stroke="midnightblue" d="M472.11,-31C480.698,-31 489.275,-31 497.667,-31"/>
<polygon fill="midnightblue" stroke="midnightblue" points="472.034,-27.5001 462.034,-31 472.034,-34.5001 472.034,-27.5001"/>
</g>
<!-- Node4 -->
<g id="node7" class="node"><title>Node4</title>
<a xlink:href="class_ro_r_1_1_rig_editor_1_1_rig.html#a313a85e2e173bd3d0ea38e5135f68e1b" target="_top" xlink:title="RoR::RigEditor::Rig::Build">
<polygon fill="white" stroke="black" points="720,-20.5 720,-41.5 852,-41.5 852,-20.5 720,-20.5"/>
<text text-anchor="middle" x="786" y="-28.5" font-family="Helvetica,sans-Serif" font-size="10.00">RoR::RigEditor::Rig::Build</text>
</a>
</g>
<!-- Node3&#45;&gt;Node4 -->
<g id="edge6" class="edge"><title>Node3&#45;&gt;Node4</title>
<path fill="none" stroke="midnightblue" d="M694.383,-31C703.033,-31 711.622,-31 719.874,-31"/>
<polygon fill="midnightblue" stroke="midnightblue" points="694.217,-27.5001 684.217,-31 694.217,-34.5001 694.217,-27.5001"/>
</g>
<!-- Node5 -->
<g id="node9" class="node"><title>Node5</title>
<a xlink:href="class_ro_r_1_1_rig_editor_1_1_main.html#a0ae39993d636eacc5dfe567c5f5ac4b9" target="_top" xlink:title="RoR::RigEditor::Main::LoadRigDefFile">
<polygon fill="white" stroke="black" points="923,-40.5 923,-61.5 1107,-61.5 1107,-40.5 923,-40.5"/>
<text text-anchor="middle" x="1015" y="-48.5" font-family="Helvetica,sans-Serif" font-size="10.00">RoR::RigEditor::Main::LoadRigDefFile</text>
</a>
</g>
<!-- Node4&#45;&gt;Node5 -->
<g id="edge8" class="edge"><title>Node4&#45;&gt;Node5</title>
<path fill="none" stroke="midnightblue" d="M862.239,-37.6585C881.684,-39.3567 902.793,-41.2002 922.937,-42.9596"/>
<polygon fill="midnightblue" stroke="midnightblue" points="862.503,-34.1682 852.236,-36.7848 861.894,-41.1417 862.503,-34.1682"/>
</g>
<!-- Node9 -->
<g id="node17" class="node"><title>Node9</title>
<a xlink:href="class_ro_r_1_1_rig_editor_1_1_main.html#ad136bb804b1accbfed00705895f86362" target="_top" xlink:title="RoR::RigEditor::Main::CommandCreateNewEmptyRig">
<polygon fill="white" stroke="black" points="888,-0.5 888,-21.5 1142,-21.5 1142,-0.5 888,-0.5"/>
<text text-anchor="middle" x="1015" y="-8.5" font-family="Helvetica,sans-Serif" font-size="10.00">RoR::RigEditor::Main::CommandCreateNewEmptyRig</text>
</a>
</g>
<!-- Node4&#45;&gt;Node9 -->
<g id="edge16" class="edge"><title>Node4&#45;&gt;Node9</title>
<path fill="none" stroke="midnightblue" d="M862.428,-24.325C872.792,-23.4199 883.625,-22.4738 894.53,-21.5214"/>
<polygon fill="midnightblue" stroke="midnightblue" points="861.894,-20.8583 852.236,-25.2152 862.503,-27.8318 861.894,-20.8583"/>
</g>
<!-- Node6 -->
<g id="node11" class="node"><title>Node6</title>
<a xlink:href="class_ro_r_1_1_rig_editor_1_1_main.html#a35a10d6c23920802442d32fab1a8d470" target="_top" xlink:title="RoR::RigEditor::Main::NotifyFileSelectorEnded">
<polygon fill="white" stroke="black" points="1178,-40.5 1178,-61.5 1400,-61.5 1400,-40.5 1178,-40.5"/>
<text text-anchor="middle" x="1289" y="-48.5" font-family="Helvetica,sans-Serif" font-size="10.00">RoR::RigEditor::Main::NotifyFileSelectorEnded</text>
</a>
</g>
<!-- Node5&#45;&gt;Node6 -->
<g id="edge10" class="edge"><title>Node5&#45;&gt;Node6</title>
<path fill="none" stroke="midnightblue" d="M1117.22,-51C1136.96,-51 1157.74,-51 1177.75,-51"/>
<polygon fill="midnightblue" stroke="midnightblue" points="1117,-47.5001 1107,-51 1117,-54.5001 1117,-47.5001"/>
</g>
<!-- Node7 -->
<g id="node13" class="node"><title>Node7</title>
<a xlink:href="class_ro_r_1_1_rig_editor_1_1_main.html#a4f73e9dc5632524ca803864460b82bb5" target="_top" xlink:title="RoR::RigEditor::Main::CommandShowDialogOpenRigFile">
<polygon fill="white" stroke="black" points="1442,-60.5 1442,-81.5 1710,-81.5 1710,-60.5 1442,-60.5"/>
<text text-anchor="middle" x="1576" y="-68.5" font-family="Helvetica,sans-Serif" font-size="10.00">RoR::RigEditor::Main::CommandShowDialogOpenRigFile</text>
</a>
</g>
<!-- Node6&#45;&gt;Node7 -->
<g id="edge12" class="edge"><title>Node6&#45;&gt;Node7</title>
<path fill="none" stroke="midnightblue" d="M1410.6,-59.4741C1420.89,-60.1911 1431.34,-60.9189 1441.72,-61.6422"/>
<polygon fill="midnightblue" stroke="midnightblue" points="1410.59,-55.9649 1400.37,-58.7611 1410.1,-62.9479 1410.59,-55.9649"/>
</g>
<!-- Node8 -->
<g id="node15" class="node"><title>Node8</title>
<a xlink:href="class_ro_r_1_1_rig_editor_1_1_main.html#acb4af1361d9233f5ee2fa658536a7658" target="_top" xlink:title="RoR::RigEditor::Main::CommandShowDialogSaveRigFileAs">
<polygon fill="white" stroke="black" points="1436.5,-20.5 1436.5,-41.5 1715.5,-41.5 1715.5,-20.5 1436.5,-20.5"/>
<text text-anchor="middle" x="1576" y="-28.5" font-family="Helvetica,sans-Serif" font-size="10.00">RoR::RigEditor::Main::CommandShowDialogSaveRigFileAs</text>
</a>
</g>
<!-- Node6&#45;&gt;Node8 -->
<g id="edge14" class="edge"><title>Node6&#45;&gt;Node8</title>
<path fill="none" stroke="midnightblue" d="M1410.41,-42.5395C1419.01,-41.9403 1427.71,-41.3336 1436.4,-40.7282"/>
<polygon fill="midnightblue" stroke="midnightblue" points="1410.1,-39.052 1400.37,-43.2389 1410.59,-46.0351 1410.1,-39.052"/>
</g>
</g>
</svg>
        <g id="navigator" transform="translate(0 0)" fill="#404254">
                <rect fill="#f2f5e9" fill-opacity="0.5" stroke="#606060" stroke-width=".5" x="0" y="0" width="60" height="60"/>
                <use id="zoomplus" xlink:href="#zoomPlus" x="17" y="9" onmousedown="handleZoom(evt,'in')"/>
                <use id="zoomminus" xlink:href="#zoomMin" x="42" y="9" onmousedown="handleZoom(evt,'out')"/>
                <use id="reset" xlink:href="#resetDef" x="30" y="36" onmousedown="handleReset()"/>
                <g id="arrowUp" xlink:href="#dirArrow" transform="translate(30 24)" onmousedown="handlePan(0,-1)">
                  <use xlink:href="#rim" fill="#404040">
                        <set attributeName="fill" to="#808080" begin="arrowUp.mouseover" end="arrowUp.mouseout"/>
                  </use>
                  <path fill="none" stroke="white" stroke-width="1.5" d="M0,-3.0v7 M-2.5,-0.5L0,-3.0L2.5,-0.5"/>
                </g>
                <g id="arrowRight" xlink:href="#dirArrow" transform="rotate(90) translate(36 -43)" onmousedown="handlePan(1,0)">
                  <use xlink:href="#rim" fill="#404040">
                        <set attributeName="fill" to="#808080" begin="arrowRight.mouseover" end="arrowRight.mouseout"/>
                  </use>
                  <path fill="none" stroke="white" stroke-width="1.5" d="M0,-3.0v7 M-2.5,-0.5L0,-3.0L2.5,-0.5"/>
                </g>
                <g id="arrowDown" xlink:href="#dirArrow" transform="rotate(180) translate(-30 -48)" onmousedown="handlePan(0,1)">
                  <use xlink:href="#rim" fill="#404040">
                        <set attributeName="fill" to="#808080" begin="arrowDown.mouseover" end="arrowDown.mouseout"/>
                  </use>
                  <path fill="none" stroke="white" stroke-width="1.5" d="M0,-3.0v7 M-2.5,-0.5L0,-3.0L2.5,-0.5"/>
                </g>
                <g id="arrowLeft" xlink:href="#dirArrow" transform="rotate(270) translate(-36 17)" onmousedown="handlePan(-1,0)">
                  <use xlink:href="#rim" fill="#404040">
                        <set attributeName="fill" to="#808080" begin="arrowLeft.mouseover" end="arrowLeft.mouseout"/>
                  </use>
                  <path fill="none" stroke="white" stroke-width="1.5" d="M0,-3.0v7 M-2.5,-0.5L0,-3.0L2.5,-0.5"/>
                </g>
        </g>
</svg>
