<?xml version="1.0" encoding="UTF-8" standalone="no"?>
<!DOCTYPE svg PUBLIC "-//W3C//DTD SVG 1.1//EN"
 "http://www.w3.org/Graphics/SVG/1.1/DTD/svg11.dtd">
<!-- Generated by graphviz version 2.26.3 (20100126.1600)
 -->
<!-- Title: Hydrax::Hydrax::getRttManager Pages: 1 -->
<svg width="494pt" height="146pt"
 viewBox="0.00 0.00 494.00 146.00" xmlns="http://www.w3.org/2000/svg" xmlns:xlink="http://www.w3.org/1999/xlink">
<g id="graph1" class="graph" transform="scale(1 1) rotate(0) translate(4 142)">
<title>Hydrax::Hydrax::getRttManager</title>
<polygon fill="white" stroke="white" points="-4,5 -4,-142 491,-142 491,5 -4,5"/>
<!-- Node1 -->
<g id="node1" class="node"><title>Node1</title>
<polygon fill="#bfbfbf" stroke="black" points="0,-58.5 0,-79.5 156,-79.5 156,-58.5 0,-58.5"/>
<text text-anchor="middle" x="78" y="-66.5" font-family="Helvetica,sans-Serif" font-size="10.00">Hydrax::Hydrax::getRttManager</text>
</g>
<!-- Node2 -->
<g id="node3" class="node"><title>Node2</title>
<a xlink:href="class_hydrax_1_1_cfg_file_manager.html#a82fe04213f00b0ab60582da60f01e0be" target="_top" xlink:title="Hydrax::CfgFileManager\l::_getRttCfgString">
<polygon fill="white" stroke="black" points="197.5,-104 197.5,-138 320.5,-138 320.5,-104 197.5,-104"/>
<text text-anchor="start" x="205.5" y="-125" font-family="Helvetica,sans-Serif" font-size="10.00">Hydrax::CfgFileManager</text>
<text text-anchor="middle" x="259" y="-112" font-family="Helvetica,sans-Serif" font-size="10.00">::_getRttCfgString</text>
</a>
</g>
<!-- Node1&#45;&gt;Node2 -->
<g id="edge2" class="edge"><title>Node1&#45;&gt;Node2</title>
<path fill="none" stroke="midnightblue" d="M124.437,-82.3411C147.33,-88.918 175.199,-96.9246 199.624,-103.942"/>
<polygon fill="midnightblue" stroke="midnightblue" points="125.206,-78.9204 114.628,-79.523 123.273,-85.6482 125.206,-78.9204"/>
</g>
<!-- Node4 -->
<g id="node7" class="node"><title>Node4</title>
<a xlink:href="class_hydrax_1_1_cfg_file_manager.html#ae2a1a0accf942e528f6ba8a041a674e6" target="_top" xlink:title="Hydrax::CfgFileManager\l::_loadRttSettings">
<polygon fill="white" stroke="black" points="197.5,-52 197.5,-86 320.5,-86 320.5,-52 197.5,-52"/>
<text text-anchor="start" x="205.5" y="-73" font-family="Helvetica,sans-Serif" font-size="10.00">Hydrax::CfgFileManager</text>
<text text-anchor="middle" x="259" y="-60" font-family="Helvetica,sans-Serif" font-size="10.00">::_loadRttSettings</text>
</a>
</g>
<!-- Node1&#45;&gt;Node4 -->
<g id="edge6" class="edge"><title>Node1&#45;&gt;Node4</title>
<path fill="none" stroke="midnightblue" d="M166.134,-69C176.661,-69 187.23,-69 197.272,-69"/>
<polygon fill="midnightblue" stroke="midnightblue" points="166.074,-65.5001 156.074,-69 166.074,-72.5001 166.074,-65.5001"/>
</g>
<!-- Node6 -->
<g id="node11" class="node"><title>Node6</title>
<a xlink:href="class_hydrax_1_1_module_1_1_projected_grid.html#a8d7a8efcd6b7fd0e4313c9114bd2c061" target="_top" xlink:title="Hydrax::Module::Projected\lGrid::update">
<polygon fill="white" stroke="black" points="192.5,-0 192.5,-34 325.5,-34 325.5,-0 192.5,-0"/>
<text text-anchor="start" x="200.5" y="-21" font-family="Helvetica,sans-Serif" font-size="10.00">Hydrax::Module::Projected</text>
<text text-anchor="middle" x="259" y="-8" font-family="Helvetica,sans-Serif" font-size="10.00">Grid::update</text>
</a>
</g>
<!-- Node1&#45;&gt;Node6 -->
<g id="edge10" class="edge"><title>Node1&#45;&gt;Node6</title>
<path fill="none" stroke="midnightblue" d="M124.437,-55.6589C147.33,-49.082 175.199,-41.0754 199.624,-34.0582"/>
<polygon fill="midnightblue" stroke="midnightblue" points="123.273,-52.3518 114.628,-58.477 125.206,-59.0796 123.273,-52.3518"/>
</g>
<!-- Node3 -->
<g id="node5" class="node"><title>Node3</title>
<a xlink:href="class_hydrax_1_1_cfg_file_manager.html#a5bdea43e50f5a1662e2dc80e68e0d8a6" target="_top" xlink:title="Hydrax::CfgFileManager\l::save">
<polygon fill="white" stroke="black" points="362.5,-104 362.5,-138 485.5,-138 485.5,-104 362.5,-104"/>
<text text-anchor="start" x="370.5" y="-125" font-family="Helvetica,sans-Serif" font-size="10.00">Hydrax::CfgFileManager</text>
<text text-anchor="middle" x="424" y="-112" font-family="Helvetica,sans-Serif" font-size="10.00">::save</text>
</a>
</g>
<!-- Node2&#45;&gt;Node3 -->
<g id="edge4" class="edge"><title>Node2&#45;&gt;Node3</title>
<path fill="none" stroke="midnightblue" d="M331.183,-121C341.555,-121 352.148,-121 362.292,-121"/>
<polygon fill="midnightblue" stroke="midnightblue" points="330.909,-117.5 320.909,-121 330.909,-124.5 330.909,-117.5"/>
</g>
<!-- Node5 -->
<g id="node9" class="node"><title>Node5</title>
<a xlink:href="class_hydrax_1_1_cfg_file_manager.html#a7d283a6b6b61ad70292c7cb24cd3543c" target="_top" xlink:title="Hydrax::CfgFileManager\l::load">
<polygon fill="white" stroke="black" points="362.5,-52 362.5,-86 485.5,-86 485.5,-52 362.5,-52"/>
<text text-anchor="start" x="370.5" y="-73" font-family="Helvetica,sans-Serif" font-size="10.00">Hydrax::CfgFileManager</text>
<text text-anchor="middle" x="424" y="-60" font-family="Helvetica,sans-Serif" font-size="10.00">::load</text>
</a>
</g>
<!-- Node4&#45;&gt;Node5 -->
<g id="edge8" class="edge"><title>Node4&#45;&gt;Node5</title>
<path fill="none" stroke="midnightblue" d="M331.183,-69C341.555,-69 352.148,-69 362.292,-69"/>
<polygon fill="midnightblue" stroke="midnightblue" points="330.909,-65.5001 320.909,-69 330.909,-72.5001 330.909,-65.5001"/>
</g>
</g>
</svg>
