<?xml version="1.0" encoding="UTF-8" standalone="no"?>
<!DOCTYPE svg PUBLIC "-//W3C//DTD SVG 1.1//EN"
 "http://www.w3.org/Graphics/SVG/1.1/DTD/svg11.dtd">
<!-- Generated by graphviz version 2.26.3 (20100126.1600)
 -->
<!-- Title: InputEngine::newEvent Pages: 1 -->
<svg width="1306pt" height="99pt"
 viewBox="0.00 0.00 1306.00 99.00" xmlns="http://www.w3.org/2000/svg" xmlns:xlink="http://www.w3.org/1999/xlink">
<g id="graph1" class="graph" transform="scale(1 1) rotate(0) translate(4 95)">
<title>InputEngine::newEvent</title>
<polygon fill="white" stroke="white" points="-4,5 -4,-95 1303,-95 1303,5 -4,5"/>
<!-- Node1 -->
<g id="node1" class="node"><title>Node1</title>
<polygon fill="#bfbfbf" stroke="black" points="0,-29.5 0,-50.5 118,-50.5 118,-29.5 0,-29.5"/>
<text text-anchor="middle" x="59" y="-37.5" font-family="Helvetica,sans-Serif" font-size="10.00">InputEngine::newEvent</text>
</g>
<!-- Node2 -->
<g id="node3" class="node"><title>Node2</title>
<a xlink:href="class_input_engine.html#aefbb52cfac8a59f9e6683665d035222f" target="_top" xlink:title="InputEngine::processLine">
<polygon fill="white" stroke="black" points="154.5,-29.5 154.5,-50.5 281.5,-50.5 281.5,-29.5 154.5,-29.5"/>
<text text-anchor="middle" x="218" y="-37.5" font-family="Helvetica,sans-Serif" font-size="10.00">InputEngine::processLine</text>
</a>
</g>
<!-- Node1&#45;&gt;Node2 -->
<g id="edge2" class="edge"><title>Node1&#45;&gt;Node2</title>
<path fill="none" stroke="midnightblue" d="M128.315,-40C137.014,-40 145.877,-40 154.481,-40"/>
<polygon fill="midnightblue" stroke="midnightblue" points="128.206,-36.5001 118.206,-40 128.206,-43.5001 128.206,-36.5001"/>
</g>
<!-- Node3 -->
<g id="node5" class="node"><title>Node3</title>
<a xlink:href="class_input_engine.html#a1fbcc159a8a9342ba21412c33dc719b1" target="_top" xlink:title="InputEngine::completeMissing\lEvents">
<polygon fill="white" stroke="black" points="318,-46 318,-80 466,-80 466,-46 318,-46"/>
<text text-anchor="start" x="326" y="-67" font-family="Helvetica,sans-Serif" font-size="10.00">InputEngine::completeMissing</text>
<text text-anchor="middle" x="392" y="-54" font-family="Helvetica,sans-Serif" font-size="10.00">Events</text>
</a>
</g>
<!-- Node2&#45;&gt;Node3 -->
<g id="edge4" class="edge"><title>Node2&#45;&gt;Node3</title>
<path fill="none" stroke="midnightblue" d="M291.829,-49.7589C300.456,-50.8993 309.26,-52.0631 317.891,-53.204"/>
<polygon fill="midnightblue" stroke="midnightblue" points="292.176,-46.2745 281.803,-48.4338 291.258,-53.2141 292.176,-46.2745"/>
</g>
<!-- Node12 -->
<g id="node23" class="node"><title>Node12</title>
<a xlink:href="class_input_engine.html#a4e6616df0615d79e74d38ba2cf0ee9b2" target="_top" xlink:title="InputEngine::loadMapping">
<polygon fill="white" stroke="black" points="327.5,-6.5 327.5,-27.5 456.5,-27.5 456.5,-6.5 327.5,-6.5"/>
<text text-anchor="middle" x="392" y="-14.5" font-family="Helvetica,sans-Serif" font-size="10.00">InputEngine::loadMapping</text>
</a>
</g>
<!-- Node2&#45;&gt;Node12 -->
<g id="edge22" class="edge"><title>Node2&#45;&gt;Node12</title>
<path fill="none" stroke="midnightblue" d="M292.017,-30.2162C303.759,-28.664 315.824,-27.0692 327.331,-25.5483"/>
<polygon fill="midnightblue" stroke="midnightblue" points="291.258,-26.7859 281.803,-31.5662 292.176,-33.7255 291.258,-26.7859"/>
</g>
<!-- Node4 -->
<g id="node7" class="node"><title>Node4</title>
<a xlink:href="class_input_engine.html#a9bc5b692ec7fb0b74a76a5a2f2cd7534" target="_top" xlink:title="InputEngine::setup">
<polygon fill="white" stroke="black" points="518,-49.5 518,-70.5 616,-70.5 616,-49.5 518,-49.5"/>
<text text-anchor="middle" x="567" y="-57.5" font-family="Helvetica,sans-Serif" font-size="10.00">InputEngine::setup</text>
</a>
</g>
<!-- Node3&#45;&gt;Node4 -->
<g id="edge6" class="edge"><title>Node3&#45;&gt;Node4</title>
<path fill="none" stroke="midnightblue" d="M476.484,-61.5517C490.641,-61.309 504.902,-61.0645 517.785,-60.8437"/>
<polygon fill="midnightblue" stroke="midnightblue" points="476.154,-58.0567 466.216,-61.7277 476.274,-65.0557 476.154,-58.0567"/>
</g>
<!-- Node5 -->
<g id="node9" class="node"><title>Node5</title>
<a xlink:href="class_input_engine.html#a1a103e7902cd57ea877a0c8ac049d3cd" target="_top" xlink:title="InputEngine::saveMapping">
<polygon fill="white" stroke="black" points="668,-69.5 668,-90.5 800,-90.5 800,-69.5 668,-69.5"/>
<text text-anchor="middle" x="734" y="-77.5" font-family="Helvetica,sans-Serif" font-size="10.00">InputEngine::saveMapping</text>
</a>
</g>
<!-- Node4&#45;&gt;Node5 -->
<g id="edge8" class="edge"><title>Node4&#45;&gt;Node5</title>
<path fill="none" stroke="midnightblue" d="M626.283,-67.0998C639.733,-68.7106 654.101,-70.4313 667.817,-72.0739"/>
<polygon fill="midnightblue" stroke="midnightblue" points="626.548,-63.6065 616.202,-65.8925 625.715,-70.5568 626.548,-63.6065"/>
</g>
<!-- Node6 -->
<g id="node11" class="node"><title>Node6</title>
<a xlink:href="class_input_engine.html#afc5ef2151ca9c7a7af89c18dbbcdc65d" target="_top" xlink:title="InputEngine::setupDefault">
<polygon fill="white" stroke="black" points="669,-29.5 669,-50.5 799,-50.5 799,-29.5 669,-29.5"/>
<text text-anchor="middle" x="734" y="-37.5" font-family="Helvetica,sans-Serif" font-size="10.00">InputEngine::setupDefault</text>
</a>
</g>
<!-- Node4&#45;&gt;Node6 -->
<g id="edge10" class="edge"><title>Node4&#45;&gt;Node6</title>
<path fill="none" stroke="midnightblue" d="M626.467,-52.8782C640.166,-51.2376 654.808,-49.4841 668.738,-47.8158"/>
<polygon fill="midnightblue" stroke="midnightblue" points="625.715,-49.4432 616.202,-54.1075 626.548,-56.3935 625.715,-49.4432"/>
</g>
<!-- Node7 -->
<g id="node13" class="node"><title>Node7</title>
<a xlink:href="class_ro_r_1_1_main_thread.html#a7e4d0bd23a40e509892883af75ea0dbf" target="_top" xlink:title="RoR::MainThread::Go">
<polygon fill="white" stroke="black" points="836.5,-29.5 836.5,-50.5 949.5,-50.5 949.5,-29.5 836.5,-29.5"/>
<text text-anchor="middle" x="893" y="-37.5" font-family="Helvetica,sans-Serif" font-size="10.00">RoR::MainThread::Go</text>
</a>
</g>
<!-- Node6&#45;&gt;Node7 -->
<g id="edge12" class="edge"><title>Node6&#45;&gt;Node7</title>
<path fill="none" stroke="midnightblue" d="M809.343,-40C818.438,-40 827.606,-40 836.369,-40"/>
<polygon fill="midnightblue" stroke="midnightblue" points="809.13,-36.5001 799.13,-40 809.13,-43.5001 809.13,-36.5001"/>
</g>
<!-- Node8 -->
<g id="node15" class="node"><title>Node8</title>
<a xlink:href="main_2main__sim_2main_8cpp.html#a0ddf1224851353fc92bfbff6f499fa97" target="_top" xlink:title="main">
<polygon fill="white" stroke="black" points="1036,-52.5 1036,-73.5 1074,-73.5 1074,-52.5 1036,-52.5"/>
<text text-anchor="middle" x="1055" y="-60.5" font-family="Helvetica,sans-Serif" font-size="10.00">main</text>
</a>
</g>
<!-- Node7&#45;&gt;Node8 -->
<g id="edge14" class="edge"><title>Node7&#45;&gt;Node8</title>
<path fill="none" stroke="midnightblue" d="M959.692,-49.4687C987.272,-53.3843 1017.14,-57.6243 1035.95,-60.2947"/>
<polygon fill="midnightblue" stroke="midnightblue" points="960.052,-45.9848 949.66,-48.0443 959.068,-52.9153 960.052,-45.9848"/>
</g>
<!-- Node10 -->
<g id="node19" class="node"><title>Node10</title>
<a xlink:href="class_ro_r_1_1_main_thread.html#a7a2db954fd2f35d63982d8603d2b9614" target="_top" xlink:title="RoR::MainThread::Request\lRestart">
<polygon fill="white" stroke="black" points="986.5,-0 986.5,-34 1123.5,-34 1123.5,-0 986.5,-0"/>
<text text-anchor="start" x="994.5" y="-21" font-family="Helvetica,sans-Serif" font-size="10.00">RoR::MainThread::Request</text>
<text text-anchor="middle" x="1055" y="-8" font-family="Helvetica,sans-Serif" font-size="10.00">Restart</text>
</a>
</g>
<!-- Node7&#45;&gt;Node10 -->
<g id="edge18" class="edge"><title>Node7&#45;&gt;Node10</title>
<path fill="none" stroke="midnightblue" d="M959.824,-30.5126C968.595,-29.2674 977.594,-27.9898 986.393,-26.7405"/>
<polygon fill="midnightblue" stroke="midnightblue" points="959.068,-27.0847 949.66,-31.9557 960.052,-34.0152 959.068,-27.0847"/>
</g>
<!-- Node9 -->
<g id="node17" class="node"><title>Node9</title>
<a xlink:href="main_2main__sim_2main_8cpp.html#a2922bc5d5c2d77a3020cfbf9df12aab0" target="_top" xlink:title="WinMain">
<polygon fill="white" stroke="black" points="1201.5,-52.5 1201.5,-73.5 1256.5,-73.5 1256.5,-52.5 1201.5,-52.5"/>
<text text-anchor="middle" x="1229" y="-60.5" font-family="Helvetica,sans-Serif" font-size="10.00">WinMain</text>
</a>
</g>
<!-- Node8&#45;&gt;Node9 -->
<g id="edge16" class="edge"><title>Node8&#45;&gt;Node9</title>
<path fill="none" stroke="midnightblue" d="M1084.56,-63C1117.23,-63 1169.44,-63 1201.33,-63"/>
<polygon fill="midnightblue" stroke="midnightblue" points="1084.29,-59.5001 1074.29,-63 1084.29,-66.5001 1084.29,-59.5001"/>
</g>
<!-- Node11 -->
<g id="node21" class="node"><title>Node11</title>
<a xlink:href="class_ro_r_frame_listener.html#af2779b96aa0f91920bd100bc30261402" target="_top" xlink:title="RoRFrameListener::Restart">
<polygon fill="white" stroke="black" points="1160.5,-6.5 1160.5,-27.5 1297.5,-27.5 1297.5,-6.5 1160.5,-6.5"/>
<text text-anchor="middle" x="1229" y="-14.5" font-family="Helvetica,sans-Serif" font-size="10.00">RoRFrameListener::Restart</text>
</a>
</g>
<!-- Node10&#45;&gt;Node11 -->
<g id="edge20" class="edge"><title>Node10&#45;&gt;Node11</title>
<path fill="none" stroke="midnightblue" d="M1134.04,-17C1142.86,-17 1151.78,-17 1160.45,-17"/>
<polygon fill="midnightblue" stroke="midnightblue" points="1133.77,-13.5001 1123.77,-17 1133.77,-20.5001 1133.77,-13.5001"/>
</g>
<!-- Node12&#45;&gt;Node4 -->
<g id="edge24" class="edge"><title>Node12&#45;&gt;Node4</title>
<path fill="none" stroke="midnightblue" d="M444.641,-29.9347C470.012,-36.1687 500.057,-43.5512 524.026,-49.4406"/>
<polygon fill="midnightblue" stroke="midnightblue" points="445.356,-26.5063 434.81,-27.519 443.686,-33.3041 445.356,-26.5063"/>
</g>
<!-- Node13 -->
<g id="node26" class="node"><title>Node13</title>
<a xlink:href="class_input_engine.html#a924b6c319f3bc491af8b97a3943d6f4c" target="_top" xlink:title="InputEngine::reloadConfig">
<polygon fill="white" stroke="black" points="502.5,-6.5 502.5,-27.5 631.5,-27.5 631.5,-6.5 502.5,-6.5"/>
<text text-anchor="middle" x="567" y="-14.5" font-family="Helvetica,sans-Serif" font-size="10.00">InputEngine::reloadConfig</text>
</a>
</g>
<!-- Node12&#45;&gt;Node13 -->
<g id="edge26" class="edge"><title>Node12&#45;&gt;Node13</title>
<path fill="none" stroke="midnightblue" d="M466.916,-17C478.695,-17 490.785,-17 502.307,-17"/>
<polygon fill="midnightblue" stroke="midnightblue" points="466.666,-13.5001 456.666,-17 466.666,-20.5001 466.666,-13.5001"/>
</g>
</g>
</svg>
