<?xml version="1.0" encoding="UTF-8" standalone="no"?>
<!DOCTYPE svg PUBLIC "-//W3C//DTD SVG 1.1//EN"
 "http://www.w3.org/Graphics/SVG/1.1/DTD/svg11.dtd">
<!-- Generated by graphviz version 2.26.3 (20100126.1600)
 -->
<!-- Title: G Pages: 1 -->
<svg width="410pt" height="70pt"
 viewBox="0.00 0.00 410.00 70.00" xmlns="http://www.w3.org/2000/svg" xmlns:xlink="http://www.w3.org/1999/xlink">
<g id="graph1" class="graph" transform="scale(1 1) rotate(0) translate(4 66)">
<title>G</title>
<polygon fill="white" stroke="white" points="-4,5 -4,-66 407,-66 407,5 -4,5"/>
<!-- Node1 -->
<g id="node1" class="node"><title>Node1</title>
<polygon fill="#bfbfbf" stroke="black" points="0.5,-20.5 0.5,-41.5 203.5,-41.5 203.5,-20.5 0.5,-20.5"/>
<text text-anchor="middle" x="102" y="-28.5" font-family="Helvetica,sans-Serif" font-size="10.00">RoR::ContentManager::AddResourcePack</text>
</g>
<!-- Node2 -->
<g id="node3" class="node"><title>Node2</title>
<a xlink:href="struct_ro_r_1_1_platform_utils.html#abe6e72a87d2b2fc77153bbee1c48c41e" target="_top" xlink:title="RoR::PlatformUtils::FileExists">
<polygon fill="white" stroke="black" points="246.5,-40.5 246.5,-61.5 395.5,-61.5 395.5,-40.5 246.5,-40.5"/>
<text text-anchor="middle" x="321" y="-48.5" font-family="Helvetica,sans-Serif" font-size="10.00">RoR::PlatformUtils::FileExists</text>
</a>
</g>
<!-- Node1&#45;&gt;Node2 -->
<g id="edge2" class="edge"><title>Node1&#45;&gt;Node2</title>
<path fill="none" stroke="midnightblue" d="M203.806,-40.2974C214.641,-41.2869 225.577,-42.2856 236.187,-43.2545"/>
<polygon fill="midnightblue" stroke="midnightblue" points="235.968,-46.749 246.245,-44.1731 236.605,-39.778 235.968,-46.749"/>
</g>
<!-- Node3 -->
<g id="node5" class="node"><title>Node3</title>
<a xlink:href="struct_ro_r_1_1_platform_utils.html#a032cf48d300650f569ec2c12f751293f" target="_top" xlink:title="RoR::PlatformUtils::FolderExists">
<polygon fill="white" stroke="black" points="240.5,-0.5 240.5,-21.5 401.5,-21.5 401.5,-0.5 240.5,-0.5"/>
<text text-anchor="middle" x="321" y="-8.5" font-family="Helvetica,sans-Serif" font-size="10.00">RoR::PlatformUtils::FolderExists</text>
</a>
</g>
<!-- Node1&#45;&gt;Node3 -->
<g id="edge4" class="edge"><title>Node1&#45;&gt;Node3</title>
<path fill="none" stroke="midnightblue" d="M203.806,-21.7026C212.638,-20.8961 221.536,-20.0835 230.27,-19.2858"/>
<polygon fill="midnightblue" stroke="midnightblue" points="230.794,-22.7527 240.434,-18.3576 230.157,-15.7817 230.794,-22.7527"/>
</g>
</g>
</svg>
