<?xml version="1.0" encoding="UTF-8" standalone="no"?>
<!DOCTYPE svg PUBLIC "-//W3C//DTD SVG 1.1//EN"
 "http://www.w3.org/Graphics/SVG/1.1/DTD/svg11.dtd">
<!-- Generated by graphviz version 2.26.3 (20100126.1600)
 -->
<!-- Title: G Pages: 1 -->
<!--zoomable 370 -->
<svg id="main" version="1.1" xmlns="http://www.w3.org/2000/svg" xmlns:xlink="http://www.w3.org/1999/xlink" xml:space="preserve" onload="init(evt)">
        <defs>
                <circle id="rim" cx="0" cy="0" r="7"/>
                <circle id="rim2" cx="0" cy="0" r="3.5"/>
                <g id="zoomPlus">
                        <use xlink:href="#rim" fill="#404040">
                                <set attributeName="fill" to="#808080" begin="zoomplus.mouseover" end="zoomplus.mouseout"/>
                        </use>
                        <path d="M-4,0h8M0,-4v8" fill="none" stroke="white" stroke-width="1.5" pointer-events="none"/>
                </g>
                <g id="zoomMin">
                        <use xlink:href="#rim" fill="#404040">
                                <set attributeName="fill" to="#808080" begin="zoomminus.mouseover" end="zoomminus.mouseout"/>
                        </use>
                        <path d="M-4,0h8" fill="none" stroke="white" stroke-width="1.5" pointer-events="none"/>
                </g>
                <g id="dirArrow">
                        <path fill="none" stroke="white" stroke-width="1.5" d="M0,-3.0v7 M-2.5,-0.5L0,-3.0L2.5,-0.5"/>
                </g>
               <g id="resetDef">
                       <use xlink:href="#rim2" fill="#404040">
                               <set attributeName="fill" to="#808080" begin="reset.mouseover" end="reset.mouseout"/>
                       </use>
               </g>
        </defs>

<script type="text/javascript">
var viewWidth = 874;
var viewHeight = 370;
var sectionId = 'dynsection-4';
</script>
<script xlink:href="svgpan.js"/>
<svg id="graph" class="graph">
<g id="viewport">
<title>G</title>
<polygon fill="white" stroke="white" points="-4,5 -4,-366 871,-366 871,5 -4,5"/>
<!-- Node1 -->
<g id="node1" class="node"><title>Node1</title>
<polygon fill="#bfbfbf" stroke="black" points="0,-180.5 0,-201.5 214,-201.5 214,-180.5 0,-180.5"/>
<text text-anchor="middle" x="107" y="-188.5" font-family="Helvetica,sans-Serif" font-size="10.00">CharacterFactory::netUserAttributesChanged</text>
</g>
<!-- Node2 -->
<g id="node3" class="node"><title>Node2</title>
<a xlink:href="class_character.html#af66e892ae9ab0bc74278e55754400b2d" target="_top" xlink:title="Character::updateNetLabel">
<polygon fill="white" stroke="black" points="250,-180.5 250,-201.5 384,-201.5 384,-180.5 250,-180.5"/>
<text text-anchor="middle" x="317" y="-188.5" font-family="Helvetica,sans-Serif" font-size="10.00">Character::updateNetLabel</text>
</a>
</g>
<!-- Node1&#45;&gt;Node2 -->
<g id="edge2" class="edge"><title>Node1&#45;&gt;Node2</title>
<path fill="none" stroke="midnightblue" d="M214.153,-191C222.78,-191 231.387,-191 239.742,-191"/>
<polygon fill="midnightblue" stroke="midnightblue" points="239.792,-194.5 249.792,-191 239.792,-187.5 239.792,-194.5"/>
</g>
<!-- Node3 -->
<g id="node5" class="node"><title>Node3</title>
<a xlink:href="_utils_8cpp.html#aef0f4c4a8529a99aa149b9d72aa3a3f4" target="_top" xlink:title="tryConvertUTF">
<polygon fill="white" stroke="black" points="475,-340.5 475,-361.5 557,-361.5 557,-340.5 475,-340.5"/>
<text text-anchor="middle" x="516" y="-348.5" font-family="Helvetica,sans-Serif" font-size="10.00">tryConvertUTF</text>
</a>
</g>
<!-- Node2&#45;&gt;Node3 -->
<g id="edge4" class="edge"><title>Node2&#45;&gt;Node3</title>
<path fill="none" stroke="midnightblue" d="M321.612,-201.865C333.553,-228.584 368.207,-297.733 420,-331 433.278,-339.528 449.527,-344.503 464.854,-347.379"/>
<polygon fill="midnightblue" stroke="midnightblue" points="464.322,-350.838 474.753,-348.982 465.441,-343.928 464.322,-350.838"/>
</g>
<!-- Node4 -->
<g id="node7" class="node"><title>Node4</title>
<a xlink:href="class_ogre_1_1_movable_text.html#aed27a49ecadb3905afb7b5de4409d799" target="_top" xlink:title="Ogre::MovableText::setFontName">
<polygon fill="white" stroke="black" points="433.5,-300.5 433.5,-321.5 598.5,-321.5 598.5,-300.5 433.5,-300.5"/>
<text text-anchor="middle" x="516" y="-308.5" font-family="Helvetica,sans-Serif" font-size="10.00">Ogre::MovableText::setFontName</text>
</a>
</g>
<!-- Node2&#45;&gt;Node4 -->
<g id="edge6" class="edge"><title>Node2&#45;&gt;Node4</title>
<path fill="none" stroke="midnightblue" d="M324.683,-201.766C340.163,-222.591 377.293,-268.33 420,-291 424.286,-293.275 428.807,-295.291 433.458,-297.078"/>
<polygon fill="midnightblue" stroke="midnightblue" points="432.559,-300.471 443.154,-300.434 434.849,-293.856 432.559,-300.471"/>
</g>
<!-- Node5 -->
<g id="node9" class="node"><title>Node5</title>
<a xlink:href="class_ogre_1_1_movable_text.html#a8fc0b2d13ba89695e53152ad1c435306" target="_top" xlink:title="Ogre::MovableText::setTextAlignment">
<polygon fill="white" stroke="black" points="425,-260.5 425,-281.5 607,-281.5 607,-260.5 425,-260.5"/>
<text text-anchor="middle" x="516" y="-268.5" font-family="Helvetica,sans-Serif" font-size="10.00">Ogre::MovableText::setTextAlignment</text>
</a>
</g>
<!-- Node2&#45;&gt;Node5 -->
<g id="edge8" class="edge"><title>Node2&#45;&gt;Node5</title>
<path fill="none" stroke="midnightblue" d="M331.586,-201.553C350.88,-215.016 386.382,-238.099 420,-251 426.775,-253.6 433.955,-255.889 441.218,-257.898"/>
<polygon fill="midnightblue" stroke="midnightblue" points="440.585,-261.349 451.143,-260.466 442.339,-254.572 440.585,-261.349"/>
</g>
<!-- Node6 -->
<g id="node11" class="node"><title>Node6</title>
<a xlink:href="class_ogre_1_1_movable_text.html#a0e4f2340efd854e591e07fb4bebcbeaa" target="_top" xlink:title="Ogre::MovableText::setAdditionalHeight">
<polygon fill="white" stroke="black" points="420.5,-220.5 420.5,-241.5 611.5,-241.5 611.5,-220.5 420.5,-220.5"/>
<text text-anchor="middle" x="516" y="-228.5" font-family="Helvetica,sans-Serif" font-size="10.00">Ogre::MovableText::setAdditionalHeight</text>
</a>
</g>
<!-- Node2&#45;&gt;Node6 -->
<g id="edge10" class="edge"><title>Node2&#45;&gt;Node6</title>
<path fill="none" stroke="midnightblue" d="M369.285,-201.51C395.119,-206.702 426.482,-213.006 453.568,-218.451"/>
<polygon fill="midnightblue" stroke="midnightblue" points="453.225,-221.952 463.719,-220.491 454.605,-215.089 453.225,-221.952"/>
</g>
<!-- Node7 -->
<g id="node13" class="node"><title>Node7</title>
<a xlink:href="class_ogre_1_1_movable_text.html#a88bb2321dd352795dfeff306928e48bc" target="_top" xlink:title="Ogre::MovableText::showOnTop">
<polygon fill="white" stroke="black" points="437,-180.5 437,-201.5 595,-201.5 595,-180.5 437,-180.5"/>
<text text-anchor="middle" x="516" y="-188.5" font-family="Helvetica,sans-Serif" font-size="10.00">Ogre::MovableText::showOnTop</text>
</a>
</g>
<!-- Node2&#45;&gt;Node7 -->
<g id="edge12" class="edge"><title>Node2&#45;&gt;Node7</title>
<path fill="none" stroke="midnightblue" d="M384.095,-191C397.715,-191 412.243,-191 426.496,-191"/>
<polygon fill="midnightblue" stroke="midnightblue" points="426.808,-194.5 436.808,-191 426.808,-187.5 426.808,-194.5"/>
</g>
<!-- Node8 -->
<g id="node15" class="node"><title>Node8</title>
<a xlink:href="class_ogre_1_1_movable_text.html#a0562e7c4341e263ae6e9d55f91643ade" target="_top" xlink:title="Ogre::MovableText::setCharacterHeight">
<polygon fill="white" stroke="black" points="420.5,-140.5 420.5,-161.5 611.5,-161.5 611.5,-140.5 420.5,-140.5"/>
<text text-anchor="middle" x="516" y="-148.5" font-family="Helvetica,sans-Serif" font-size="10.00">Ogre::MovableText::setCharacterHeight</text>
</a>
</g>
<!-- Node2&#45;&gt;Node8 -->
<g id="edge14" class="edge"><title>Node2&#45;&gt;Node8</title>
<path fill="none" stroke="midnightblue" d="M369.285,-180.49C395.119,-175.298 426.482,-168.994 453.568,-163.549"/>
<polygon fill="midnightblue" stroke="midnightblue" points="454.605,-166.911 463.719,-161.509 453.225,-160.048 454.605,-166.911"/>
</g>
<!-- Node9 -->
<g id="node17" class="node"><title>Node9</title>
<a xlink:href="class_ogre_1_1_movable_text.html#a7ed5e440d32fee6180e6eaa7094b3f5c" target="_top" xlink:title="Ogre::MovableText::setColor">
<polygon fill="white" stroke="black" points="444.5,-100.5 444.5,-121.5 587.5,-121.5 587.5,-100.5 444.5,-100.5"/>
<text text-anchor="middle" x="516" y="-108.5" font-family="Helvetica,sans-Serif" font-size="10.00">Ogre::MovableText::setColor</text>
</a>
</g>
<!-- Node2&#45;&gt;Node9 -->
<g id="edge16" class="edge"><title>Node2&#45;&gt;Node9</title>
<path fill="none" stroke="midnightblue" d="M331.586,-180.447C350.88,-166.984 386.382,-143.901 420,-131 426.775,-128.4 433.955,-126.111 441.218,-124.102"/>
<polygon fill="midnightblue" stroke="midnightblue" points="442.339,-127.428 451.143,-121.534 440.585,-120.651 442.339,-127.428"/>
</g>
<!-- Node10 -->
<g id="node19" class="node"><title>Node10</title>
<a xlink:href="class_ogre_1_1_movable_text.html#a9e93f2a29c44474bf8d3408ab6484f6c" target="_top" xlink:title="Ogre::MovableText::setCaption">
<polygon fill="white" stroke="black" points="439.5,-60.5 439.5,-81.5 592.5,-81.5 592.5,-60.5 439.5,-60.5"/>
<text text-anchor="middle" x="516" y="-68.5" font-family="Helvetica,sans-Serif" font-size="10.00">Ogre::MovableText::setCaption</text>
</a>
</g>
<!-- Node2&#45;&gt;Node10 -->
<g id="edge18" class="edge"><title>Node2&#45;&gt;Node10</title>
<path fill="none" stroke="midnightblue" d="M324.683,-180.234C340.163,-159.409 377.293,-113.67 420,-91 424.286,-88.7251 428.807,-86.7088 433.458,-84.9217"/>
<polygon fill="midnightblue" stroke="midnightblue" points="434.849,-88.1442 443.154,-81.5662 432.559,-81.5291 434.849,-88.1442"/>
</g>
<!-- Node11 -->
<g id="node21" class="node"><title>Node11</title>
<a xlink:href="class_character.html#a86d1a210a197d0e6107963de0efb0d40" target="_top" xlink:title="Character::updateCharacterColour">
<polygon fill="white" stroke="black" points="433,-20.5 433,-41.5 599,-41.5 599,-20.5 433,-20.5"/>
<text text-anchor="middle" x="516" y="-28.5" font-family="Helvetica,sans-Serif" font-size="10.00">Character::updateCharacterColour</text>
</a>
</g>
<!-- Node2&#45;&gt;Node11 -->
<g id="edge20" class="edge"><title>Node2&#45;&gt;Node11</title>
<path fill="none" stroke="midnightblue" d="M321.612,-180.135C333.553,-153.416 368.207,-84.2671 420,-51 423.12,-48.996 426.404,-47.1882 429.802,-45.5578"/>
<polygon fill="midnightblue" stroke="midnightblue" points="431.188,-48.7718 439.026,-41.6432 428.453,-42.3281 431.188,-48.7718"/>
</g>
<!-- Node12 -->
<g id="node23" class="node"><title>Node12</title>
<a xlink:href="class_ro_r_singleton.html#a18a797fc35bd8cfa8a2affdd197cbfee" target="_top" xlink:title="RoRSingleton\&lt; PlayerColours \&gt;::getSingleton">
<polygon fill="white" stroke="black" points="648.5,-40.5 648.5,-61.5 865.5,-61.5 865.5,-40.5 648.5,-40.5"/>
<text text-anchor="middle" x="757" y="-48.5" font-family="Helvetica,sans-Serif" font-size="10.00">RoRSingleton&lt; PlayerColours &gt;::getSingleton</text>
</a>
</g>
<!-- Node11&#45;&gt;Node12 -->
<g id="edge22" class="edge"><title>Node11&#45;&gt;Node12</title>
<path fill="none" stroke="midnightblue" d="M599.276,-37.9109C611.853,-38.9546 625.029,-40.048 638.179,-41.1393"/>
<polygon fill="midnightblue" stroke="midnightblue" points="637.964,-44.6334 648.219,-41.9725 638.543,-37.6574 637.964,-44.6334"/>
</g>
<!-- Node13 -->
<g id="node25" class="node"><title>Node13</title>
<a xlink:href="class_player_colours.html#a8a6251b05f757435094708d615c38538" target="_top" xlink:title="PlayerColours::updateMaterial">
<polygon fill="white" stroke="black" points="683,-0.5 683,-21.5 831,-21.5 831,-0.5 683,-0.5"/>
<text text-anchor="middle" x="757" y="-8.5" font-family="Helvetica,sans-Serif" font-size="10.00">PlayerColours::updateMaterial</text>
</a>
</g>
<!-- Node11&#45;&gt;Node13 -->
<g id="edge24" class="edge"><title>Node11&#45;&gt;Node13</title>
<path fill="none" stroke="midnightblue" d="M599.276,-24.0891C623.086,-22.1132 649.045,-19.9589 672.904,-17.979"/>
<polygon fill="midnightblue" stroke="midnightblue" points="673.311,-21.4572 682.988,-17.1421 672.732,-14.4812 673.311,-21.4572"/>
</g>
</g>
</svg>
        <g id="navigator" transform="translate(0 0)" fill="#404254">
                <rect fill="#f2f5e9" fill-opacity="0.5" stroke="#606060" stroke-width=".5" x="0" y="0" width="60" height="60"/>
                <use id="zoomplus" xlink:href="#zoomPlus" x="17" y="9" onmousedown="handleZoom(evt,'in')"/>
                <use id="zoomminus" xlink:href="#zoomMin" x="42" y="9" onmousedown="handleZoom(evt,'out')"/>
                <use id="reset" xlink:href="#resetDef" x="30" y="36" onmousedown="handleReset()"/>
                <g id="arrowUp" xlink:href="#dirArrow" transform="translate(30 24)" onmousedown="handlePan(0,-1)">
                  <use xlink:href="#rim" fill="#404040">
                        <set attributeName="fill" to="#808080" begin="arrowUp.mouseover" end="arrowUp.mouseout"/>
                  </use>
                  <path fill="none" stroke="white" stroke-width="1.5" d="M0,-3.0v7 M-2.5,-0.5L0,-3.0L2.5,-0.5"/>
                </g>
                <g id="arrowRight" xlink:href="#dirArrow" transform="rotate(90) translate(36 -43)" onmousedown="handlePan(1,0)">
                  <use xlink:href="#rim" fill="#404040">
                        <set attributeName="fill" to="#808080" begin="arrowRight.mouseover" end="arrowRight.mouseout"/>
                  </use>
                  <path fill="none" stroke="white" stroke-width="1.5" d="M0,-3.0v7 M-2.5,-0.5L0,-3.0L2.5,-0.5"/>
                </g>
                <g id="arrowDown" xlink:href="#dirArrow" transform="rotate(180) translate(-30 -48)" onmousedown="handlePan(0,1)">
                  <use xlink:href="#rim" fill="#404040">
                        <set attributeName="fill" to="#808080" begin="arrowDown.mouseover" end="arrowDown.mouseout"/>
                  </use>
                  <path fill="none" stroke="white" stroke-width="1.5" d="M0,-3.0v7 M-2.5,-0.5L0,-3.0L2.5,-0.5"/>
                </g>
                <g id="arrowLeft" xlink:href="#dirArrow" transform="rotate(270) translate(-36 17)" onmousedown="handlePan(-1,0)">
                  <use xlink:href="#rim" fill="#404040">
                        <set attributeName="fill" to="#808080" begin="arrowLeft.mouseover" end="arrowLeft.mouseout"/>
                  </use>
                  <path fill="none" stroke="white" stroke-width="1.5" d="M0,-3.0v7 M-2.5,-0.5L0,-3.0L2.5,-0.5"/>
                </g>
        </g>
</svg>
