<?xml version="1.0" encoding="UTF-8" standalone="no"?>
<!DOCTYPE svg PUBLIC "-//W3C//DTD SVG 1.1//EN"
 "http://www.w3.org/Graphics/SVG/1.1/DTD/svg11.dtd">
<!-- Generated by graphviz version 2.26.3 (20100126.1600)
 -->
<!-- Title: G Pages: 1 -->
<!--zoomable 115 -->
<svg id="main" version="1.1" xmlns="http://www.w3.org/2000/svg" xmlns:xlink="http://www.w3.org/1999/xlink" xml:space="preserve" onload="init(evt)">
        <defs>
                <circle id="rim" cx="0" cy="0" r="7"/>
                <circle id="rim2" cx="0" cy="0" r="3.5"/>
                <g id="zoomPlus">
                        <use xlink:href="#rim" fill="#404040">
                                <set attributeName="fill" to="#808080" begin="zoomplus.mouseover" end="zoomplus.mouseout"/>
                        </use>
                        <path d="M-4,0h8M0,-4v8" fill="none" stroke="white" stroke-width="1.5" pointer-events="none"/>
                </g>
                <g id="zoomMin">
                        <use xlink:href="#rim" fill="#404040">
                                <set attributeName="fill" to="#808080" begin="zoomminus.mouseover" end="zoomminus.mouseout"/>
                        </use>
                        <path d="M-4,0h8" fill="none" stroke="white" stroke-width="1.5" pointer-events="none"/>
                </g>
                <g id="dirArrow">
                        <path fill="none" stroke="white" stroke-width="1.5" d="M0,-3.0v7 M-2.5,-0.5L0,-3.0L2.5,-0.5"/>
                </g>
               <g id="resetDef">
                       <use xlink:href="#rim2" fill="#404040">
                               <set attributeName="fill" to="#808080" begin="reset.mouseover" end="reset.mouseout"/>
                       </use>
               </g>
        </defs>

<script type="text/javascript">
var viewWidth = 800;
var viewHeight = 115;
var sectionId = 'dynsection-24';
</script>
<script xlink:href="svgpan.js"/>
<svg id="graph" class="graph">
<g id="viewport">
<title>G</title>
<polygon fill="white" stroke="white" points="-4,5 -4,-111.278 797,-111.278 797,5 -4,5"/>
<!-- Node1 -->
<g id="node1" class="node"><title>Node1</title>
<polygon fill="#bfbfbf" stroke="black" points="0.5,-69.5 0.5,-90.5 169.5,-90.5 169.5,-69.5 0.5,-69.5"/>
<text text-anchor="middle" x="85" y="-77.5" font-family="Helvetica,sans-Serif" font-size="10.00">MyDialog::OnScrollForceFeedback</text>
</g>
<!-- Node2 -->
<g id="node3" class="node"><title>Node2</title>
<a xlink:href="class_my_dialog.html#a730ceb49055449013bde3aff7119870f" target="_top" xlink:title="MyDialog::MyDialog">
<polygon fill="white" stroke="black" points="570.5,-79.5 570.5,-100.5 675.5,-100.5 675.5,-79.5 570.5,-79.5"/>
<text text-anchor="middle" x="623" y="-87.5" font-family="Helvetica,sans-Serif" font-size="10.00">MyDialog::MyDialog</text>
</a>
</g>
<!-- Node1&#45;&gt;Node2 -->
<g id="edge2" class="edge"><title>Node1&#45;&gt;Node2</title>
<path fill="none" stroke="midnightblue" d="M147.123,-92.2713C165.956,-95.4492 186.753,-98.4201 206,-100 351.29,-111.927 388.43,-106.792 534,-99 545.786,-98.3691 558.418,-97.3196 570.355,-96.1556"/>
<polygon fill="midnightblue" stroke="midnightblue" points="147.631,-88.8071 137.179,-90.5446 146.433,-95.7039 147.631,-88.8071"/>
</g>
<!-- Node4 -->
<g id="node7" class="node"><title>Node4</title>
<a xlink:href="class_my_dialog.html#a30829bbf050a53f6d5c0e1d6abcd29e8" target="_top" xlink:title="MyDialog::SetDefaults">
<polygon fill="white" stroke="black" points="231,-69.5 231,-90.5 347,-90.5 347,-69.5 231,-69.5"/>
<text text-anchor="middle" x="289" y="-77.5" font-family="Helvetica,sans-Serif" font-size="10.00">MyDialog::SetDefaults</text>
</a>
</g>
<!-- Node1&#45;&gt;Node4 -->
<g id="edge6" class="edge"><title>Node1&#45;&gt;Node4</title>
<path fill="none" stroke="midnightblue" d="M179.934,-80C197.324,-80 214.99,-80 230.896,-80"/>
<polygon fill="midnightblue" stroke="midnightblue" points="179.742,-76.5001 169.742,-80 179.742,-83.5001 179.742,-76.5001"/>
</g>
<!-- Node6 -->
<g id="node12" class="node"><title>Node6</title>
<a xlink:href="class_my_dialog.html#a008219b2fc5f082cc4fbbb46f87ac74f" target="_top" xlink:title="MyDialog::updateSettingsControls">
<polygon fill="white" stroke="black" points="206,-10.5 206,-31.5 372,-31.5 372,-10.5 206,-10.5"/>
<text text-anchor="middle" x="289" y="-18.5" font-family="Helvetica,sans-Serif" font-size="10.00">MyDialog::updateSettingsControls</text>
</a>
</g>
<!-- Node1&#45;&gt;Node6 -->
<g id="edge12" class="edge"><title>Node1&#45;&gt;Node6</title>
<path fill="none" stroke="midnightblue" d="M131.432,-66.5712C168.135,-55.9559 218.656,-41.3446 252.501,-31.556"/>
<polygon fill="midnightblue" stroke="midnightblue" points="130.105,-63.3114 121.471,-69.452 132.05,-70.0358 130.105,-63.3114"/>
</g>
<!-- Node3 -->
<g id="node5" class="node"><title>Node3</title>
<a xlink:href="class_my_app.html#a79fa75d1155f0e85e20f2869538296d6" target="_top" xlink:title="MyApp::OnInit">
<polygon fill="white" stroke="black" points="712,-79.5 712,-100.5 792,-100.5 792,-79.5 712,-79.5"/>
<text text-anchor="middle" x="752" y="-87.5" font-family="Helvetica,sans-Serif" font-size="10.00">MyApp::OnInit</text>
</a>
</g>
<!-- Node2&#45;&gt;Node3 -->
<g id="edge4" class="edge"><title>Node2&#45;&gt;Node3</title>
<path fill="none" stroke="midnightblue" d="M686.032,-90C694.76,-90 703.524,-90 711.684,-90"/>
<polygon fill="midnightblue" stroke="midnightblue" points="685.841,-86.5001 675.841,-90 685.841,-93.5001 685.841,-86.5001"/>
</g>
<!-- Node4&#45;&gt;Node2 -->
<g id="edge8" class="edge"><title>Node4&#45;&gt;Node2</title>
<path fill="none" stroke="midnightblue" d="M357.437,-82.049C420.557,-83.9388 512.931,-86.7045 570.434,-88.4262"/>
<polygon fill="midnightblue" stroke="midnightblue" points="357.279,-78.5428 347.178,-81.7419 357.069,-85.5397 357.279,-78.5428"/>
</g>
<!-- Node5 -->
<g id="node10" class="node"><title>Node5</title>
<a xlink:href="class_my_dialog.html#afa8e7d3e2cd36f78d391eed394413fc5" target="_top" xlink:title="MyDialog::OnButRestore">
<polygon fill="white" stroke="black" points="408,-40.5 408,-61.5 534,-61.5 534,-40.5 408,-40.5"/>
<text text-anchor="middle" x="471" y="-48.5" font-family="Helvetica,sans-Serif" font-size="10.00">MyDialog::OnButRestore</text>
</a>
</g>
<!-- Node4&#45;&gt;Node5 -->
<g id="edge10" class="edge"><title>Node4&#45;&gt;Node5</title>
<path fill="none" stroke="midnightblue" d="M357.245,-69.1257C373.819,-66.4848 391.469,-63.6725 407.798,-61.0706"/>
<polygon fill="midnightblue" stroke="midnightblue" points="356.411,-65.7145 347.086,-70.7445 357.513,-72.6272 356.411,-65.7145"/>
</g>
<!-- Node7 -->
<g id="node14" class="node"><title>Node7</title>
<a xlink:href="class_my_dialog.html#a3a49421662fe7600e722c3ca32b48a4d" target="_top" xlink:title="MyDialog::LoadConfig">
<polygon fill="white" stroke="black" points="414.5,-0.5 414.5,-21.5 527.5,-21.5 527.5,-0.5 414.5,-0.5"/>
<text text-anchor="middle" x="471" y="-8.5" font-family="Helvetica,sans-Serif" font-size="10.00">MyDialog::LoadConfig</text>
</a>
</g>
<!-- Node6&#45;&gt;Node7 -->
<g id="edge14" class="edge"><title>Node6&#45;&gt;Node7</title>
<path fill="none" stroke="midnightblue" d="M382.122,-15.8834C393.139,-15.2781 404.115,-14.675 414.403,-14.1097"/>
<polygon fill="midnightblue" stroke="midnightblue" points="381.804,-12.3955 372.011,-16.439 382.188,-19.385 381.804,-12.3955"/>
</g>
<!-- Node7&#45;&gt;Node2 -->
<g id="edge16" class="edge"><title>Node7&#45;&gt;Node2</title>
<path fill="none" stroke="midnightblue" d="M519.524,-24.8847C524.489,-26.7543 529.395,-28.7962 534,-31 562.594,-44.6858 592.698,-66.4129 609.537,-79.3324"/>
<polygon fill="midnightblue" stroke="midnightblue" points="520.564,-21.5402 509.97,-21.5044 518.23,-28.1394 520.564,-21.5402"/>
</g>
</g>
</svg>
        <g id="navigator" transform="translate(0 0)" fill="#404254">
                <rect fill="#f2f5e9" fill-opacity="0.5" stroke="#606060" stroke-width=".5" x="0" y="0" width="60" height="60"/>
                <use id="zoomplus" xlink:href="#zoomPlus" x="17" y="9" onmousedown="handleZoom(evt,'in')"/>
                <use id="zoomminus" xlink:href="#zoomMin" x="42" y="9" onmousedown="handleZoom(evt,'out')"/>
                <use id="reset" xlink:href="#resetDef" x="30" y="36" onmousedown="handleReset()"/>
                <g id="arrowUp" xlink:href="#dirArrow" transform="translate(30 24)" onmousedown="handlePan(0,-1)">
                  <use xlink:href="#rim" fill="#404040">
                        <set attributeName="fill" to="#808080" begin="arrowUp.mouseover" end="arrowUp.mouseout"/>
                  </use>
                  <path fill="none" stroke="white" stroke-width="1.5" d="M0,-3.0v7 M-2.5,-0.5L0,-3.0L2.5,-0.5"/>
                </g>
                <g id="arrowRight" xlink:href="#dirArrow" transform="rotate(90) translate(36 -43)" onmousedown="handlePan(1,0)">
                  <use xlink:href="#rim" fill="#404040">
                        <set attributeName="fill" to="#808080" begin="arrowRight.mouseover" end="arrowRight.mouseout"/>
                  </use>
                  <path fill="none" stroke="white" stroke-width="1.5" d="M0,-3.0v7 M-2.5,-0.5L0,-3.0L2.5,-0.5"/>
                </g>
                <g id="arrowDown" xlink:href="#dirArrow" transform="rotate(180) translate(-30 -48)" onmousedown="handlePan(0,1)">
                  <use xlink:href="#rim" fill="#404040">
                        <set attributeName="fill" to="#808080" begin="arrowDown.mouseover" end="arrowDown.mouseout"/>
                  </use>
                  <path fill="none" stroke="white" stroke-width="1.5" d="M0,-3.0v7 M-2.5,-0.5L0,-3.0L2.5,-0.5"/>
                </g>
                <g id="arrowLeft" xlink:href="#dirArrow" transform="rotate(270) translate(-36 17)" onmousedown="handlePan(-1,0)">
                  <use xlink:href="#rim" fill="#404040">
                        <set attributeName="fill" to="#808080" begin="arrowLeft.mouseover" end="arrowLeft.mouseout"/>
                  </use>
                  <path fill="none" stroke="white" stroke-width="1.5" d="M0,-3.0v7 M-2.5,-0.5L0,-3.0L2.5,-0.5"/>
                </g>
        </g>
</svg>
