<?xml version="1.0" encoding="UTF-8" standalone="no"?>
<!DOCTYPE svg PUBLIC "-//W3C//DTD SVG 1.1//EN"
 "http://www.w3.org/Graphics/SVG/1.1/DTD/svg11.dtd">
<!-- Generated by graphviz version 2.26.3 (20100126.1600)
 -->
<!-- Title: G Pages: 1 -->
<!--zoomable 109 -->
<svg id="main" version="1.1" xmlns="http://www.w3.org/2000/svg" xmlns:xlink="http://www.w3.org/1999/xlink" xml:space="preserve" onload="init(evt)">
        <defs>
                <circle id="rim" cx="0" cy="0" r="7"/>
                <circle id="rim2" cx="0" cy="0" r="3.5"/>
                <g id="zoomPlus">
                        <use xlink:href="#rim" fill="#404040">
                                <set attributeName="fill" to="#808080" begin="zoomplus.mouseover" end="zoomplus.mouseout"/>
                        </use>
                        <path d="M-4,0h8M0,-4v8" fill="none" stroke="white" stroke-width="1.5" pointer-events="none"/>
                </g>
                <g id="zoomMin">
                        <use xlink:href="#rim" fill="#404040">
                                <set attributeName="fill" to="#808080" begin="zoomminus.mouseover" end="zoomminus.mouseout"/>
                        </use>
                        <path d="M-4,0h8" fill="none" stroke="white" stroke-width="1.5" pointer-events="none"/>
                </g>
                <g id="dirArrow">
                        <path fill="none" stroke="white" stroke-width="1.5" d="M0,-3.0v7 M-2.5,-0.5L0,-3.0L2.5,-0.5"/>
                </g>
               <g id="resetDef">
                       <use xlink:href="#rim2" fill="#404040">
                               <set attributeName="fill" to="#808080" begin="reset.mouseover" end="reset.mouseout"/>
                       </use>
               </g>
        </defs>

<script type="text/javascript">
var viewWidth = 698;
var viewHeight = 109;
var sectionId = 'dynsection-3';
</script>
<script xlink:href="svgpan.js"/>
<svg id="graph" class="graph">
<g id="viewport">
<title>G</title>
<polygon fill="white" stroke="white" points="-4,5 -4,-105 695,-105 695,5 -4,5"/>
<!-- Node1 -->
<g id="node1" class="node"><title>Node1</title>
<polygon fill="#bfbfbf" stroke="black" points="0.5,-40.5 0.5,-61.5 179.5,-61.5 179.5,-40.5 0.5,-40.5"/>
<text text-anchor="middle" x="90" y="-48.5" font-family="Helvetica,sans-Serif" font-size="10.00">OgreScriptBuilder::LoadScriptSection</text>
</g>
<!-- Node2 -->
<g id="node3" class="node"><title>Node2</title>
<a xlink:href="class_ro_r_1_1_c_s_h_a1.html#a405de4baf54dcb38af5903e01221454e" target="_top" xlink:title="RoR::CSHA1::UpdateHash">
<polygon fill="white" stroke="black" points="388.5,-79.5 388.5,-100.5 525.5,-100.5 525.5,-79.5 388.5,-79.5"/>
<text text-anchor="middle" x="457" y="-87.5" font-family="Helvetica,sans-Serif" font-size="10.00">RoR::CSHA1::UpdateHash</text>
</a>
</g>
<!-- Node1&#45;&gt;Node2 -->
<g id="edge2" class="edge"><title>Node1&#45;&gt;Node2</title>
<path fill="none" stroke="midnightblue" d="M150.111,-61.53C170.929,-64.9136 194.445,-68.4437 216,-71 269.972,-77.401 331.009,-82.1879 378.153,-85.3558"/>
<polygon fill="midnightblue" stroke="midnightblue" points="378.088,-88.8591 388.297,-86.027 378.55,-81.8744 378.088,-88.8591"/>
</g>
<!-- Node4 -->
<g id="node7" class="node"><title>Node4</title>
<a xlink:href="class_ro_r_1_1_c_s_h_a1.html#afbdaab3f2a2946d26a6144af3fec5fd8" target="_top" xlink:title="RoR::CSHA1::Final">
<polygon fill="white" stroke="black" points="232,-40.5 232,-61.5 336,-61.5 336,-40.5 232,-40.5"/>
<text text-anchor="middle" x="284" y="-48.5" font-family="Helvetica,sans-Serif" font-size="10.00">RoR::CSHA1::Final</text>
</a>
</g>
<!-- Node1&#45;&gt;Node4 -->
<g id="edge6" class="edge"><title>Node1&#45;&gt;Node4</title>
<path fill="none" stroke="midnightblue" d="M179.618,-51C193.858,-51 208.312,-51 221.742,-51"/>
<polygon fill="midnightblue" stroke="midnightblue" points="221.792,-54.5001 231.792,-51 221.792,-47.5001 221.792,-54.5001"/>
</g>
<!-- Node5 -->
<g id="node11" class="node"><title>Node5</title>
<a xlink:href="class_ro_r_1_1_c_s_h_a1.html#a22ddf4fbd88ea7a76638104a56bb7c30" target="_top" xlink:title="RoR::CSHA1::ReportHash">
<polygon fill="white" stroke="black" points="216.5,-0.5 216.5,-21.5 351.5,-21.5 351.5,-0.5 216.5,-0.5"/>
<text text-anchor="middle" x="284" y="-8.5" font-family="Helvetica,sans-Serif" font-size="10.00">RoR::CSHA1::ReportHash</text>
</a>
</g>
<!-- Node1&#45;&gt;Node5 -->
<g id="edge12" class="edge"><title>Node1&#45;&gt;Node5</title>
<path fill="none" stroke="midnightblue" d="M140.971,-40.4905C166.156,-35.2977 196.731,-28.9936 223.137,-23.5492"/>
<polygon fill="midnightblue" stroke="midnightblue" points="223.946,-26.9561 233.033,-21.5087 222.532,-20.1003 223.946,-26.9561"/>
</g>
<!-- Node3 -->
<g id="node5" class="node"><title>Node3</title>
<a xlink:href="class_ro_r_1_1_c_s_h_a1.html#a6f39460fa47c489724d2325cf071520b" target="_top" xlink:title="RoR::CSHA1::Transform">
<polygon fill="white" stroke="black" points="562.5,-59.5 562.5,-80.5 689.5,-80.5 689.5,-59.5 562.5,-59.5"/>
<text text-anchor="middle" x="626" y="-67.5" font-family="Helvetica,sans-Serif" font-size="10.00">RoR::CSHA1::Transform</text>
</a>
</g>
<!-- Node2&#45;&gt;Node3 -->
<g id="edge4" class="edge"><title>Node2&#45;&gt;Node3</title>
<path fill="none" stroke="midnightblue" d="M525.739,-81.8652C534.569,-80.8202 543.638,-79.747 552.541,-78.6934"/>
<polygon fill="midnightblue" stroke="midnightblue" points="552.98,-82.1659 562.5,-77.5148 552.158,-75.2144 552.98,-82.1659"/>
</g>
<!-- Node4&#45;&gt;Node2 -->
<g id="edge8" class="edge"><title>Node4&#45;&gt;Node2</title>
<path fill="none" stroke="midnightblue" d="M330.816,-61.554C352.26,-66.388 377.857,-72.1586 400.375,-77.2349"/>
<polygon fill="midnightblue" stroke="midnightblue" points="399.621,-80.6527 410.146,-79.4376 401.161,-73.8241 399.621,-80.6527"/>
</g>
<!-- Node4&#45;&gt;Node3 -->
<g id="edge10" class="edge"><title>Node4&#45;&gt;Node3</title>
<path fill="none" stroke="midnightblue" d="M336.315,-53.9064C393.951,-57.1084 487.084,-62.2824 552.144,-65.8969"/>
<polygon fill="midnightblue" stroke="midnightblue" points="552.156,-69.4028 562.334,-66.463 552.544,-62.4136 552.156,-69.4028"/>
</g>
</g>
</svg>
        <g id="navigator" transform="translate(0 0)" fill="#404254">
                <rect fill="#f2f5e9" fill-opacity="0.5" stroke="#606060" stroke-width=".5" x="0" y="0" width="60" height="60"/>
                <use id="zoomplus" xlink:href="#zoomPlus" x="17" y="9" onmousedown="handleZoom(evt,'in')"/>
                <use id="zoomminus" xlink:href="#zoomMin" x="42" y="9" onmousedown="handleZoom(evt,'out')"/>
                <use id="reset" xlink:href="#resetDef" x="30" y="36" onmousedown="handleReset()"/>
                <g id="arrowUp" xlink:href="#dirArrow" transform="translate(30 24)" onmousedown="handlePan(0,-1)">
                  <use xlink:href="#rim" fill="#404040">
                        <set attributeName="fill" to="#808080" begin="arrowUp.mouseover" end="arrowUp.mouseout"/>
                  </use>
                  <path fill="none" stroke="white" stroke-width="1.5" d="M0,-3.0v7 M-2.5,-0.5L0,-3.0L2.5,-0.5"/>
                </g>
                <g id="arrowRight" xlink:href="#dirArrow" transform="rotate(90) translate(36 -43)" onmousedown="handlePan(1,0)">
                  <use xlink:href="#rim" fill="#404040">
                        <set attributeName="fill" to="#808080" begin="arrowRight.mouseover" end="arrowRight.mouseout"/>
                  </use>
                  <path fill="none" stroke="white" stroke-width="1.5" d="M0,-3.0v7 M-2.5,-0.5L0,-3.0L2.5,-0.5"/>
                </g>
                <g id="arrowDown" xlink:href="#dirArrow" transform="rotate(180) translate(-30 -48)" onmousedown="handlePan(0,1)">
                  <use xlink:href="#rim" fill="#404040">
                        <set attributeName="fill" to="#808080" begin="arrowDown.mouseover" end="arrowDown.mouseout"/>
                  </use>
                  <path fill="none" stroke="white" stroke-width="1.5" d="M0,-3.0v7 M-2.5,-0.5L0,-3.0L2.5,-0.5"/>
                </g>
                <g id="arrowLeft" xlink:href="#dirArrow" transform="rotate(270) translate(-36 17)" onmousedown="handlePan(-1,0)">
                  <use xlink:href="#rim" fill="#404040">
                        <set attributeName="fill" to="#808080" begin="arrowLeft.mouseover" end="arrowLeft.mouseout"/>
                  </use>
                  <path fill="none" stroke="white" stroke-width="1.5" d="M0,-3.0v7 M-2.5,-0.5L0,-3.0L2.5,-0.5"/>
                </g>
        </g>
</svg>
