<?xml version="1.0" encoding="UTF-8" standalone="no"?>
<!DOCTYPE svg PUBLIC "-//W3C//DTD SVG 1.1//EN"
 "http://www.w3.org/Graphics/SVG/1.1/DTD/svg11.dtd">
<!-- Generated by graphviz version 2.26.3 (20100126.1600)
 -->
<!-- Title: G Pages: 1 -->
<!--zoomable 110 -->
<svg id="main" version="1.1" xmlns="http://www.w3.org/2000/svg" xmlns:xlink="http://www.w3.org/1999/xlink" xml:space="preserve" onload="init(evt)">
        <defs>
                <circle id="rim" cx="0" cy="0" r="7"/>
                <circle id="rim2" cx="0" cy="0" r="3.5"/>
                <g id="zoomPlus">
                        <use xlink:href="#rim" fill="#404040">
                                <set attributeName="fill" to="#808080" begin="zoomplus.mouseover" end="zoomplus.mouseout"/>
                        </use>
                        <path d="M-4,0h8M0,-4v8" fill="none" stroke="white" stroke-width="1.5" pointer-events="none"/>
                </g>
                <g id="zoomMin">
                        <use xlink:href="#rim" fill="#404040">
                                <set attributeName="fill" to="#808080" begin="zoomminus.mouseover" end="zoomminus.mouseout"/>
                        </use>
                        <path d="M-4,0h8" fill="none" stroke="white" stroke-width="1.5" pointer-events="none"/>
                </g>
                <g id="dirArrow">
                        <path fill="none" stroke="white" stroke-width="1.5" d="M0,-3.0v7 M-2.5,-0.5L0,-3.0L2.5,-0.5"/>
                </g>
               <g id="resetDef">
                       <use xlink:href="#rim2" fill="#404040">
                               <set attributeName="fill" to="#808080" begin="reset.mouseover" end="reset.mouseout"/>
                       </use>
               </g>
        </defs>

<script type="text/javascript">
var viewWidth = 816;
var viewHeight = 110;
var sectionId = 'dynsection-8';
</script>
<script xlink:href="svgpan.js"/>
<svg id="graph" class="graph">
<g id="viewport">
<title>G</title>
<polygon fill="white" stroke="white" points="-4,5 -4,-106 813,-106 813,5 -4,5"/>
<!-- Node1 -->
<g id="node1" class="node"><title>Node1</title>
<polygon fill="#bfbfbf" stroke="black" points="0,-40.5 0,-61.5 390,-61.5 390,-40.5 0,-40.5"/>
<text text-anchor="middle" x="195" y="-48.5" font-family="Helvetica,sans-Serif" font-size="10.00">Ogre::TerrainPSSMMaterialGenerator::SM2Profile::ShaderHelperCg::generateFpLayer</text>
</g>
<!-- Node2 -->
<g id="node3" class="node"><title>Node2</title>
<a xlink:href="class_ogre_1_1_terrain_p_s_s_m_material_generator_1_1_s_m2_profile.html#a3d0e04f70bf9d7cd03f36ccdf0be30d5" target="_top" xlink:title="Ogre::TerrainPSSMMaterialGenerator::SM2Profile::isLayerNormalMappingEnabled">
<polygon fill="white" stroke="black" points="430,-80.5 430,-101.5 804,-101.5 804,-80.5 430,-80.5"/>
<text text-anchor="middle" x="617" y="-88.5" font-family="Helvetica,sans-Serif" font-size="10.00">Ogre::TerrainPSSMMaterialGenerator::SM2Profile::isLayerNormalMappingEnabled</text>
</a>
</g>
<!-- Node1&#45;&gt;Node2 -->
<g id="edge2" class="edge"><title>Node1&#45;&gt;Node2</title>
<path fill="none" stroke="midnightblue" d="M305.876,-61.5095C364.28,-67.0455 436.008,-73.8443 495.868,-79.5183"/>
<polygon fill="midnightblue" stroke="midnightblue" points="495.847,-83.0319 506.133,-80.4913 496.508,-76.0632 495.847,-83.0319"/>
</g>
<!-- Node3 -->
<g id="node5" class="node"><title>Node3</title>
<a xlink:href="class_ogre_1_1_terrain_p_s_s_m_material_generator_1_1_s_m2_profile.html#a78b5c30932676baec3a399234ab8da9a" target="_top" xlink:title="Ogre::TerrainPSSMMaterialGenerator::SM2Profile::isLayerParallaxMappingEnabled">
<polygon fill="white" stroke="black" points="428,-40.5 428,-61.5 806,-61.5 806,-40.5 428,-40.5"/>
<text text-anchor="middle" x="617" y="-48.5" font-family="Helvetica,sans-Serif" font-size="10.00">Ogre::TerrainPSSMMaterialGenerator::SM2Profile::isLayerParallaxMappingEnabled</text>
</a>
</g>
<!-- Node1&#45;&gt;Node3 -->
<g id="edge4" class="edge"><title>Node1&#45;&gt;Node3</title>
<path fill="none" stroke="midnightblue" d="M390.25,-51C399.343,-51 408.475,-51 417.579,-51"/>
<polygon fill="midnightblue" stroke="midnightblue" points="417.841,-54.5001 427.841,-51 417.841,-47.5001 417.841,-54.5001"/>
</g>
<!-- Node4 -->
<g id="node7" class="node"><title>Node4</title>
<a xlink:href="class_ogre_1_1_terrain_p_s_s_m_material_generator_1_1_s_m2_profile.html#a1366b54a08b204a6023c9a5d76f921e1" target="_top" xlink:title="Ogre::TerrainPSSMMaterialGenerator::SM2Profile::isLayerSpecularMappingEnabled">
<polygon fill="white" stroke="black" points="426.5,-0.5 426.5,-21.5 807.5,-21.5 807.5,-0.5 426.5,-0.5"/>
<text text-anchor="middle" x="617" y="-8.5" font-family="Helvetica,sans-Serif" font-size="10.00">Ogre::TerrainPSSMMaterialGenerator::SM2Profile::isLayerSpecularMappingEnabled</text>
</a>
</g>
<!-- Node1&#45;&gt;Node4 -->
<g id="edge6" class="edge"><title>Node1&#45;&gt;Node4</title>
<path fill="none" stroke="midnightblue" d="M305.876,-40.4905C364.28,-34.9545 436.008,-28.1557 495.868,-22.4817"/>
<polygon fill="midnightblue" stroke="midnightblue" points="496.508,-25.9368 506.133,-21.5087 495.847,-18.9681 496.508,-25.9368"/>
</g>
</g>
</svg>
        <g id="navigator" transform="translate(0 0)" fill="#404254">
                <rect fill="#f2f5e9" fill-opacity="0.5" stroke="#606060" stroke-width=".5" x="0" y="0" width="60" height="60"/>
                <use id="zoomplus" xlink:href="#zoomPlus" x="17" y="9" onmousedown="handleZoom(evt,'in')"/>
                <use id="zoomminus" xlink:href="#zoomMin" x="42" y="9" onmousedown="handleZoom(evt,'out')"/>
                <use id="reset" xlink:href="#resetDef" x="30" y="36" onmousedown="handleReset()"/>
                <g id="arrowUp" xlink:href="#dirArrow" transform="translate(30 24)" onmousedown="handlePan(0,-1)">
                  <use xlink:href="#rim" fill="#404040">
                        <set attributeName="fill" to="#808080" begin="arrowUp.mouseover" end="arrowUp.mouseout"/>
                  </use>
                  <path fill="none" stroke="white" stroke-width="1.5" d="M0,-3.0v7 M-2.5,-0.5L0,-3.0L2.5,-0.5"/>
                </g>
                <g id="arrowRight" xlink:href="#dirArrow" transform="rotate(90) translate(36 -43)" onmousedown="handlePan(1,0)">
                  <use xlink:href="#rim" fill="#404040">
                        <set attributeName="fill" to="#808080" begin="arrowRight.mouseover" end="arrowRight.mouseout"/>
                  </use>
                  <path fill="none" stroke="white" stroke-width="1.5" d="M0,-3.0v7 M-2.5,-0.5L0,-3.0L2.5,-0.5"/>
                </g>
                <g id="arrowDown" xlink:href="#dirArrow" transform="rotate(180) translate(-30 -48)" onmousedown="handlePan(0,1)">
                  <use xlink:href="#rim" fill="#404040">
                        <set attributeName="fill" to="#808080" begin="arrowDown.mouseover" end="arrowDown.mouseout"/>
                  </use>
                  <path fill="none" stroke="white" stroke-width="1.5" d="M0,-3.0v7 M-2.5,-0.5L0,-3.0L2.5,-0.5"/>
                </g>
                <g id="arrowLeft" xlink:href="#dirArrow" transform="rotate(270) translate(-36 17)" onmousedown="handlePan(-1,0)">
                  <use xlink:href="#rim" fill="#404040">
                        <set attributeName="fill" to="#808080" begin="arrowLeft.mouseover" end="arrowLeft.mouseout"/>
                  </use>
                  <path fill="none" stroke="white" stroke-width="1.5" d="M0,-3.0v7 M-2.5,-0.5L0,-3.0L2.5,-0.5"/>
                </g>
        </g>
</svg>
