<?xml version="1.0" encoding="UTF-8" standalone="no"?>
<!DOCTYPE svg PUBLIC "-//W3C//DTD SVG 1.1//EN"
 "http://www.w3.org/Graphics/SVG/1.1/DTD/svg11.dtd">
<!-- Generated by graphviz version 2.26.3 (20100126.1600)
 -->
<!-- Title: G Pages: 1 -->
<!--zoomable 177 -->
<svg id="main" version="1.1" xmlns="http://www.w3.org/2000/svg" xmlns:xlink="http://www.w3.org/1999/xlink" xml:space="preserve" onload="init(evt)">
        <defs>
                <circle id="rim" cx="0" cy="0" r="7"/>
                <circle id="rim2" cx="0" cy="0" r="3.5"/>
                <g id="zoomPlus">
                        <use xlink:href="#rim" fill="#404040">
                                <set attributeName="fill" to="#808080" begin="zoomplus.mouseover" end="zoomplus.mouseout"/>
                        </use>
                        <path d="M-4,0h8M0,-4v8" fill="none" stroke="white" stroke-width="1.5" pointer-events="none"/>
                </g>
                <g id="zoomMin">
                        <use xlink:href="#rim" fill="#404040">
                                <set attributeName="fill" to="#808080" begin="zoomminus.mouseover" end="zoomminus.mouseout"/>
                        </use>
                        <path d="M-4,0h8" fill="none" stroke="white" stroke-width="1.5" pointer-events="none"/>
                </g>
                <g id="dirArrow">
                        <path fill="none" stroke="white" stroke-width="1.5" d="M0,-3.0v7 M-2.5,-0.5L0,-3.0L2.5,-0.5"/>
                </g>
               <g id="resetDef">
                       <use xlink:href="#rim2" fill="#404040">
                               <set attributeName="fill" to="#808080" begin="reset.mouseover" end="reset.mouseout"/>
                       </use>
               </g>
        </defs>

<script type="text/javascript">
var viewWidth = 1012;
var viewHeight = 177;
var sectionId = 'dynsection-1';
</script>
<script xlink:href="svgpan.js"/>
<svg id="graph" class="graph">
<g id="viewport">
<title>G</title>
<polygon fill="white" stroke="white" points="-4,5 -4,-173 1009,-173 1009,5 -4,5"/>
<!-- Node1 -->
<g id="node1" class="node"><title>Node1</title>
<polygon fill="#bfbfbf" stroke="black" points="848.5,-67.5 848.5,-88.5 1003.5,-88.5 1003.5,-67.5 848.5,-67.5"/>
<text text-anchor="middle" x="926" y="-75.5" font-family="Helvetica,sans-Serif" font-size="10.00">RoR::GUI::RigEditorNodePanel</text>
</g>
<!-- Node2 -->
<g id="node2" class="node"><title>Node2</title>
<a xlink:href="class_ro_r_1_1_g_u_i_1_1_rig_editor_node_panel_layout.html" target="_top" xlink:title="RoR::GUI::RigEditorNodePanelLayout">
<polygon fill="white" stroke="black" points="472.5,-141.5 472.5,-162.5 657.5,-162.5 657.5,-141.5 472.5,-141.5"/>
<text text-anchor="middle" x="565" y="-149.5" font-family="Helvetica,sans-Serif" font-size="10.00">RoR::GUI::RigEditorNodePanelLayout</text>
</a>
</g>
<!-- Node2&#45;&gt;Node1 -->
<g id="edge2" class="edge"><title>Node2&#45;&gt;Node1</title>
<path fill="none" stroke="midnightblue" d="M656.267,-140.029C707.649,-132.496 772.793,-121.619 830,-108 852.423,-102.662 877.245,-94.8528 896.032,-88.54"/>
<polygon fill="midnightblue" stroke="midnightblue" points="655.575,-136.593 646.18,-141.491 656.579,-143.52 655.575,-136.593"/>
</g>
<!-- Node3 -->
<g id="node4" class="node"><title>Node3</title>
<a xlink:href="classwraps_1_1_base_layout.html" target="_top" xlink:title="wraps::BaseLayout">
<polygon fill="white" stroke="black" points="92.5,-147.5 92.5,-168.5 193.5,-168.5 193.5,-147.5 92.5,-147.5"/>
<text text-anchor="middle" x="143" y="-155.5" font-family="Helvetica,sans-Serif" font-size="10.00">wraps::BaseLayout</text>
</a>
</g>
<!-- Node3&#45;&gt;Node2 -->
<g id="edge4" class="edge"><title>Node3&#45;&gt;Node2</title>
<path fill="none" stroke="midnightblue" d="M203.937,-157.134C274.276,-156.134 390.729,-154.478 472.313,-153.318"/>
<polygon fill="midnightblue" stroke="midnightblue" points="203.852,-153.634 193.903,-157.276 203.952,-160.634 203.852,-153.634"/>
</g>
<!-- Node4 -->
<g id="node6" class="node"><title>Node4</title>
<a xlink:href="class_ro_r_1_1_rig_editor_1_1_rig_element_gui_panel_base.html" target="_top" xlink:title="RoR::RigEditor::RigElementGuiPanelBase">
<polygon fill="white" stroke="black" points="463.5,-94.5 463.5,-115.5 666.5,-115.5 666.5,-94.5 463.5,-94.5"/>
<text text-anchor="middle" x="565" y="-102.5" font-family="Helvetica,sans-Serif" font-size="10.00">RoR::RigEditor::RigElementGuiPanelBase</text>
</a>
</g>
<!-- Node4&#45;&gt;Node1 -->
<g id="edge6" class="edge"><title>Node4&#45;&gt;Node1</title>
<path fill="none" stroke="midnightblue" d="M677.024,-101.114C724.3,-98.9473 779.895,-95.7081 830,-91 837.452,-90.2998 845.213,-89.4502 852.952,-88.5244"/>
<polygon fill="midnightblue" stroke="midnightblue" points="676.59,-97.6298 666.757,-101.574 676.903,-104.623 676.59,-97.6298"/>
</g>
<!-- Node5 -->
<g id="node8" class="node"><title>Node5</title>
<a xlink:href="class_ro_r_1_1_gui_panel_base.html" target="_top" xlink:title="RoR::GuiPanelBase">
<polygon fill="white" stroke="black" points="90.5,-107.5 90.5,-128.5 195.5,-128.5 195.5,-107.5 90.5,-107.5"/>
<text text-anchor="middle" x="143" y="-115.5" font-family="Helvetica,sans-Serif" font-size="10.00">RoR::GuiPanelBase</text>
</a>
</g>
<!-- Node5&#45;&gt;Node4 -->
<g id="edge8" class="edge"><title>Node5&#45;&gt;Node4</title>
<path fill="none" stroke="midnightblue" d="M205.714,-116.068C273.623,-113.976 382.971,-110.608 463.22,-108.135"/>
<polygon fill="midnightblue" stroke="midnightblue" points="205.481,-112.573 195.593,-116.38 205.696,-119.57 205.481,-112.573"/>
</g>
<!-- Node6 -->
<g id="node10" class="node"><title>Node6</title>
<a xlink:href="class_ro_r_1_1_rig_editor_1_1_i_main.html" target="_top" xlink:title="RoR::RigEditor::IMain">
<polygon fill="white" stroke="black" points="86.5,-67.5 86.5,-88.5 199.5,-88.5 199.5,-67.5 86.5,-67.5"/>
<text text-anchor="middle" x="143" y="-75.5" font-family="Helvetica,sans-Serif" font-size="10.00">RoR::RigEditor::IMain</text>
</a>
</g>
<!-- Node6&#45;&gt;Node4 -->
<g id="edge10" class="edge"><title>Node6&#45;&gt;Node4</title>
<path fill="none" stroke="#9a32cd" stroke-dasharray="5,2" d="M209.767,-81.5241C262.511,-84.3837 337.978,-88.6427 404,-93 423.158,-94.2644 443.591,-95.7113 463.245,-97.1526"/>
<polygon fill="#9a32cd" stroke="#9a32cd" points="209.705,-78.0158 199.531,-80.9713 209.327,-85.0056 209.705,-78.0158"/>
<text text-anchor="middle" x="354" y="-97" font-family="Helvetica,sans-Serif" font-size="10.00"> m_rig_editor_interface</text>
</g>
<!-- Node7 -->
<g id="node12" class="node"><title>Node7</title>
<a xlink:href="struct_ro_r_1_1_rig_editor_1_1_rig_element_gui_panel_base_1_1_editbox_field_spec.html" target="_top" xlink:title="RoR::RigEditor::RigElementGuiPanelBase::EditboxFieldSpec">
<polygon fill="white" stroke="black" points="422.5,-40.5 422.5,-61.5 707.5,-61.5 707.5,-40.5 422.5,-40.5"/>
<text text-anchor="middle" x="565" y="-48.5" font-family="Helvetica,sans-Serif" font-size="10.00">RoR::RigEditor::RigElementGuiPanelBase::EditboxFieldSpec</text>
</a>
</g>
<!-- Node7&#45;&gt;Node1 -->
<g id="edge12" class="edge"><title>Node7&#45;&gt;Node1</title>
<path fill="none" stroke="#9a32cd" stroke-dasharray="5,2" d="M717.925,-40.8179C754.786,-40.6894 793.934,-42.4959 830,-48 854.166,-51.688 880.612,-60.3145 899.616,-67.3749"/>
<polygon fill="#9a32cd" stroke="#9a32cd" points="717.564,-37.3207 707.594,-40.904 717.623,-44.3205 717.564,-37.3207"/>
<text text-anchor="middle" x="778" y="-78" font-family="Helvetica,sans-Serif" font-size="10.00"> m_loadweight_field</text>
<text text-anchor="middle" x="778" y="-65" font-family="Helvetica,sans-Serif" font-size="10.00">m_detacher_group_field</text>
<text text-anchor="middle" x="778" y="-52" font-family="Helvetica,sans-Serif" font-size="10.00">m_node_name_field</text>
</g>
<!-- Node8 -->
<g id="node14" class="node"><title>Node8</title>
<a xlink:href="struct_ro_r_1_1_rig_editor_1_1_rig_element_gui_panel_base_1_1_generic_field_spec.html" target="_top" xlink:title="RoR::RigEditor::RigElementGuiPanelBase::GenericFieldSpec">
<polygon fill="white" stroke="black" points="0,-27.5 0,-48.5 286,-48.5 286,-27.5 0,-27.5"/>
<text text-anchor="middle" x="143" y="-35.5" font-family="Helvetica,sans-Serif" font-size="10.00">RoR::RigEditor::RigElementGuiPanelBase::GenericFieldSpec</text>
</a>
</g>
<!-- Node8&#45;&gt;Node7 -->
<g id="edge14" class="edge"><title>Node8&#45;&gt;Node7</title>
<path fill="none" stroke="midnightblue" d="M296.287,-42.7221C337.49,-43.9914 381.874,-45.3587 422.466,-46.6091"/>
<polygon fill="midnightblue" stroke="midnightblue" points="296.267,-39.2199 286.164,-42.4103 296.052,-46.2166 296.267,-39.2199"/>
</g>
<!-- Node9 -->
<g id="node16" class="node"><title>Node9</title>
<a xlink:href="struct_ro_r_1_1_rig_editor_1_1_rig_aggregate_nodes_data.html" target="_top" xlink:title="RoR::RigEditor::RigAggregateNodesData">
<polygon fill="white" stroke="black" points="466,-0.5 466,-21.5 664,-21.5 664,-0.5 466,-0.5"/>
<text text-anchor="middle" x="565" y="-8.5" font-family="Helvetica,sans-Serif" font-size="10.00">RoR::RigEditor::RigAggregateNodesData</text>
</a>
</g>
<!-- Node9&#45;&gt;Node1 -->
<g id="edge16" class="edge"><title>Node9&#45;&gt;Node1</title>
<path fill="none" stroke="#9a32cd" stroke-dasharray="5,2" d="M674.251,-4.45807C722.81,-4.45982 780.144,-8.51468 830,-23 861.911,-32.2714 894.533,-54.1294 912.333,-67.3283"/>
<polygon fill="#9a32cd" stroke="#9a32cd" points="674.008,-0.959316 664.028,-4.51692 674.048,-7.9592 674.008,-0.959316"/>
<text text-anchor="middle" x="778" y="-27" font-family="Helvetica,sans-Serif" font-size="10.00"> m_data</text>
</g>
</g>
</svg>
        <g id="navigator" transform="translate(0 0)" fill="#404254">
                <rect fill="#f2f5e9" fill-opacity="0.5" stroke="#606060" stroke-width=".5" x="0" y="0" width="60" height="60"/>
                <use id="zoomplus" xlink:href="#zoomPlus" x="17" y="9" onmousedown="handleZoom(evt,'in')"/>
                <use id="zoomminus" xlink:href="#zoomMin" x="42" y="9" onmousedown="handleZoom(evt,'out')"/>
                <use id="reset" xlink:href="#resetDef" x="30" y="36" onmousedown="handleReset()"/>
                <g id="arrowUp" xlink:href="#dirArrow" transform="translate(30 24)" onmousedown="handlePan(0,-1)">
                  <use xlink:href="#rim" fill="#404040">
                        <set attributeName="fill" to="#808080" begin="arrowUp.mouseover" end="arrowUp.mouseout"/>
                  </use>
                  <path fill="none" stroke="white" stroke-width="1.5" d="M0,-3.0v7 M-2.5,-0.5L0,-3.0L2.5,-0.5"/>
                </g>
                <g id="arrowRight" xlink:href="#dirArrow" transform="rotate(90) translate(36 -43)" onmousedown="handlePan(1,0)">
                  <use xlink:href="#rim" fill="#404040">
                        <set attributeName="fill" to="#808080" begin="arrowRight.mouseover" end="arrowRight.mouseout"/>
                  </use>
                  <path fill="none" stroke="white" stroke-width="1.5" d="M0,-3.0v7 M-2.5,-0.5L0,-3.0L2.5,-0.5"/>
                </g>
                <g id="arrowDown" xlink:href="#dirArrow" transform="rotate(180) translate(-30 -48)" onmousedown="handlePan(0,1)">
                  <use xlink:href="#rim" fill="#404040">
                        <set attributeName="fill" to="#808080" begin="arrowDown.mouseover" end="arrowDown.mouseout"/>
                  </use>
                  <path fill="none" stroke="white" stroke-width="1.5" d="M0,-3.0v7 M-2.5,-0.5L0,-3.0L2.5,-0.5"/>
                </g>
                <g id="arrowLeft" xlink:href="#dirArrow" transform="rotate(270) translate(-36 17)" onmousedown="handlePan(-1,0)">
                  <use xlink:href="#rim" fill="#404040">
                        <set attributeName="fill" to="#808080" begin="arrowLeft.mouseover" end="arrowLeft.mouseout"/>
                  </use>
                  <path fill="none" stroke="white" stroke-width="1.5" d="M0,-3.0v7 M-2.5,-0.5L0,-3.0L2.5,-0.5"/>
                </g>
        </g>
</svg>
