<?xml version="1.0" encoding="UTF-8" standalone="no"?>
<!DOCTYPE svg PUBLIC "-//W3C//DTD SVG 1.1//EN"
 "http://www.w3.org/Graphics/SVG/1.1/DTD/svg11.dtd">
<!-- Generated by graphviz version 2.26.3 (20100126.1600)
 -->
<!-- Title: RigDef::SequentialImporter::ResolveNodeRanges Pages: 1 -->
<!--zoomable 346 -->
<svg id="main" version="1.1" xmlns="http://www.w3.org/2000/svg" xmlns:xlink="http://www.w3.org/1999/xlink" xml:space="preserve" onload="init(evt)">
<style type="text/css"><![CDATA[
.edge:hover path { stroke: red; }
.edge:hover polygon { stroke: red; fill: red; }
]]></style>
<script type="text/javascript"><![CDATA[
var edges = document.getElementsByTagName('g');
if (edges && edges.length) {
  for (var i=0;i<edges.length;i++) {
    if (edges[i].id.substr(0,4)=='edge') {
      edges[i].setAttribute('class','edge');
    }
  }
}
]]></script>
        <defs>
                <circle id="rim" cx="0" cy="0" r="7"/>
                <circle id="rim2" cx="0" cy="0" r="3.5"/>
                <g id="zoomPlus">
                        <use xlink:href="#rim" fill="#404040">
                                <set attributeName="fill" to="#808080" begin="zoomplus.mouseover" end="zoomplus.mouseout"/>
                        </use>
                        <path d="M-4,0h8M0,-4v8" fill="none" stroke="white" stroke-width="1.5" pointer-events="none"/>
                </g>
                <g id="zoomMin">
                        <use xlink:href="#rim" fill="#404040">
                                <set attributeName="fill" to="#808080" begin="zoomminus.mouseover" end="zoomminus.mouseout"/>
                        </use>
                        <path d="M-4,0h8" fill="none" stroke="white" stroke-width="1.5" pointer-events="none"/>
                </g>
                <g id="dirArrow">
                        <path fill="none" stroke="white" stroke-width="1.5" d="M0,-3.0v7 M-2.5,-0.5L0,-3.0L2.5,-0.5"/>
                </g>
               <g id="resetDef">
                       <use xlink:href="#rim2" fill="#404040">
                               <set attributeName="fill" to="#808080" begin="reset.mouseover" end="reset.mouseout"/>
                       </use>
               </g>
        </defs>

<script type="text/javascript">
var viewWidth = 502;
var viewHeight = 346;
var sectionId = 'dynsection-23';
</script>
<script xlink:href="svgpan.js"/>
<svg id="graph" class="graph">
<g id="viewport">
<title>RigDef::SequentialImporter::ResolveNodeRanges</title>
<polygon fill="white" stroke="white" points="-4,5 -4,-342 499,-342 499,5 -4,5"/>
<!-- Node1 -->
<g id="node1" class="node"><title>Node1</title>
<polygon fill="#bfbfbf" stroke="black" points="0.5,-183 0.5,-217 135.5,-217 135.5,-183 0.5,-183"/>
<text text-anchor="start" x="8.5" y="-204" font-family="Helvetica,sans-Serif" font-size="10.00">RigDef::SequentialImporter</text>
<text text-anchor="middle" x="68" y="-191" font-family="Helvetica,sans-Serif" font-size="10.00">::ResolveNodeRanges</text>
</g>
<!-- Node2 -->
<g id="node3" class="node"><title>Node2</title>
<a xlink:href="struct_rig_def_1_1_node_1_1_range.html#aea06174c0a0e9dcb80c71c616eb253c2" target="_top" xlink:title="RigDef::Node::Range\l::IsRange">
<polygon fill="white" stroke="black" points="184.5,-304 184.5,-338 295.5,-338 295.5,-304 184.5,-304"/>
<text text-anchor="start" x="192.5" y="-325" font-family="Helvetica,sans-Serif" font-size="10.00">RigDef::Node::Range</text>
<text text-anchor="middle" x="240" y="-312" font-family="Helvetica,sans-Serif" font-size="10.00">::IsRange</text>
</a>
</g>
<!-- Node1&#45;&gt;Node2 -->
<g id="edge2" class="edge"><title>Node1&#45;&gt;Node2</title>
<path fill="none" stroke="midnightblue" d="M84.8012,-217.261C104.408,-236.726 138.44,-268.463 172,-290 177.231,-293.357 182.886,-296.543 188.622,-299.505"/>
<polygon fill="midnightblue" stroke="midnightblue" points="187.138,-302.676 197.654,-303.967 190.239,-296.4 187.138,-302.676"/>
</g>
<!-- Node3 -->
<g id="node5" class="node"><title>Node3</title>
<a xlink:href="class_rig_def_1_1_sequential_importer.html#a97bec71f6d710c1c6804d9b1e03977a5" target="_top" xlink:title="RigDef::SequentialImporter\l::ResolveNode">
<polygon fill="white" stroke="black" points="172.5,-138 172.5,-172 307.5,-172 307.5,-138 172.5,-138"/>
<text text-anchor="start" x="180.5" y="-159" font-family="Helvetica,sans-Serif" font-size="10.00">RigDef::SequentialImporter</text>
<text text-anchor="middle" x="240" y="-146" font-family="Helvetica,sans-Serif" font-size="10.00">::ResolveNode</text>
</a>
</g>
<!-- Node1&#45;&gt;Node3 -->
<g id="edge4" class="edge"><title>Node1&#45;&gt;Node3</title>
<path fill="none" stroke="midnightblue" d="M133.026,-182.987C143.514,-180.243 154.446,-177.383 165.143,-174.585"/>
<polygon fill="midnightblue" stroke="midnightblue" points="166.094,-177.954 174.882,-172.037 164.322,-171.182 166.094,-177.954"/>
</g>
<!-- Node5 -->
<g id="node9" class="node"><title>Node5</title>
<a xlink:href="class_rig_def_1_1_node_1_1_ref.html#ac60d95e308e77df22b8b62f0c7c4bbe9" target="_top" xlink:title="RigDef::Node::Ref::\lGetLineNumber">
<polygon fill="white" stroke="black" points="367,-276 367,-310 471,-310 471,-276 367,-276"/>
<text text-anchor="start" x="375" y="-297" font-family="Helvetica,sans-Serif" font-size="10.00">RigDef::Node::Ref::</text>
<text text-anchor="middle" x="419" y="-284" font-family="Helvetica,sans-Serif" font-size="10.00">GetLineNumber</text>
</a>
</g>
<!-- Node1&#45;&gt;Node5 -->
<g id="edge34" class="edge"><title>Node1&#45;&gt;Node5</title>
<path fill="none" stroke="midnightblue" d="M113.741,-217.012C131.759,-223.403 152.719,-230.455 172,-236 234.123,-253.865 306.27,-269.994 356.488,-280.498"/>
<polygon fill="midnightblue" stroke="midnightblue" points="356.042,-283.98 366.544,-282.587 357.466,-277.126 356.042,-283.98"/>
</g>
<!-- Node6 -->
<g id="node11" class="node"><title>Node6</title>
<a xlink:href="class_rig_def_1_1_node_1_1_ref.html#a654831f9421f9d314d849f966f70a04d" target="_top" xlink:title="RigDef::Node::Ref::Num">
<polygon fill="white" stroke="black" points="356.5,-236.5 356.5,-257.5 481.5,-257.5 481.5,-236.5 356.5,-236.5"/>
<text text-anchor="middle" x="419" y="-244.5" font-family="Helvetica,sans-Serif" font-size="10.00">RigDef::Node::Ref::Num</text>
</a>
</g>
<!-- Node1&#45;&gt;Node6 -->
<g id="edge24" class="edge"><title>Node1&#45;&gt;Node6</title>
<path fill="none" stroke="midnightblue" d="M135.69,-209.122C147.782,-210.749 160.263,-212.426 172,-214 230.669,-221.868 297.181,-230.752 346.394,-237.319"/>
<polygon fill="midnightblue" stroke="midnightblue" points="345.936,-240.789 356.311,-238.642 346.862,-233.85 345.936,-240.789"/>
</g>
<!-- Node7 -->
<g id="node13" class="node"><title>Node7</title>
<a xlink:href="class_rig_def_1_1_node_1_1_ref.html#a141e4a4770a737736436a3746a31f3ea" target="_top" xlink:title="RigDef::Node::Ref::\lToString">
<polygon fill="white" stroke="black" points="367,-184 367,-218 471,-218 471,-184 367,-184"/>
<text text-anchor="start" x="375" y="-205" font-family="Helvetica,sans-Serif" font-size="10.00">RigDef::Node::Ref::</text>
<text text-anchor="middle" x="419" y="-192" font-family="Helvetica,sans-Serif" font-size="10.00">ToString</text>
</a>
</g>
<!-- Node1&#45;&gt;Node7 -->
<g id="edge20" class="edge"><title>Node1&#45;&gt;Node7</title>
<path fill="none" stroke="midnightblue" d="M135.676,-200.193C199.648,-200.375 294.826,-200.646 356.901,-200.823"/>
<polygon fill="midnightblue" stroke="midnightblue" points="356.939,-204.323 366.949,-200.852 356.959,-197.323 356.939,-204.323"/>
</g>
<!-- Node8 -->
<g id="node15" class="node"><title>Node8</title>
<a xlink:href="class_rig_def_1_1_sequential_importer.html#abbbd9a34cae153cb481b6c61a7927a97" target="_top" xlink:title="RigDef::SequentialImporter\l::AddMessage">
<polygon fill="white" stroke="black" points="351.5,-0 351.5,-34 486.5,-34 486.5,-0 351.5,-0"/>
<text text-anchor="start" x="359.5" y="-21" font-family="Helvetica,sans-Serif" font-size="10.00">RigDef::SequentialImporter</text>
<text text-anchor="middle" x="419" y="-8" font-family="Helvetica,sans-Serif" font-size="10.00">::AddMessage</text>
</a>
</g>
<!-- Node1&#45;&gt;Node8 -->
<g id="edge22" class="edge"><title>Node1&#45;&gt;Node8</title>
<path fill="none" stroke="midnightblue" d="M75.4067,-182.898C89.4569,-152.676 123.02,-90.1734 172,-60 222.725,-28.7519 289.818,-18.6261 341.275,-15.9687"/>
<polygon fill="midnightblue" stroke="midnightblue" points="341.509,-19.4619 351.348,-15.5327 341.206,-12.4685 341.509,-19.4619"/>
</g>
<!-- Node11 -->
<g id="node24" class="node"><title>Node11</title>
<a xlink:href="class_rig_def_1_1_sequential_importer.html#ac2e3fa72a3d0f97a7cebe79456efd2ef" target="_top" xlink:title="RigDef::SequentialImporter\l::ResolveNodeByIndex">
<polygon fill="white" stroke="black" points="172.5,-69 172.5,-103 307.5,-103 307.5,-69 172.5,-69"/>
<text text-anchor="start" x="180.5" y="-90" font-family="Helvetica,sans-Serif" font-size="10.00">RigDef::SequentialImporter</text>
<text text-anchor="middle" x="240" y="-77" font-family="Helvetica,sans-Serif" font-size="10.00">::ResolveNodeByIndex</text>
</a>
</g>
<!-- Node1&#45;&gt;Node11 -->
<g id="edge26" class="edge"><title>Node1&#45;&gt;Node11</title>
<path fill="none" stroke="midnightblue" d="M92.6307,-182.826C113.6,-168.291 144.596,-147.011 172,-129 182.202,-122.295 193.363,-115.157 203.64,-108.662"/>
<polygon fill="midnightblue" stroke="midnightblue" points="205.801,-111.438 212.398,-103.147 202.071,-105.514 205.801,-111.438"/>
</g>
<!-- Node4 -->
<g id="node7" class="node"><title>Node4</title>
<a xlink:href="class_rig_def_1_1_node_1_1_ref.html#a80f06d82da5ac28617eca47baa590821" target="_top" xlink:title="RigDef::Node::Ref::Str">
<polygon fill="white" stroke="black" points="360.5,-144.5 360.5,-165.5 477.5,-165.5 477.5,-144.5 360.5,-144.5"/>
<text text-anchor="middle" x="419" y="-152.5" font-family="Helvetica,sans-Serif" font-size="10.00">RigDef::Node::Ref::Str</text>
</a>
</g>
<!-- Node3&#45;&gt;Node4 -->
<g id="edge6" class="edge"><title>Node3&#45;&gt;Node4</title>
<path fill="none" stroke="midnightblue" d="M307.672,-155C321.614,-155 336.308,-155 350.286,-155"/>
<polygon fill="midnightblue" stroke="midnightblue" points="350.317,-158.5 360.317,-155 350.317,-151.5 350.317,-158.5"/>
</g>
<!-- Node3&#45;&gt;Node5 -->
<g id="edge8" class="edge"><title>Node3&#45;&gt;Node5</title>
<path fill="none" stroke="midnightblue" d="M251.77,-172.259C269.224,-196.63 304.22,-241.048 344,-267 348.22,-269.753 352.764,-272.25 357.455,-274.508"/>
<polygon fill="midnightblue" stroke="midnightblue" points="356.046,-277.712 366.607,-278.56 358.88,-271.311 356.046,-277.712"/>
</g>
<!-- Node3&#45;&gt;Node6 -->
<g id="edge10" class="edge"><title>Node3&#45;&gt;Node6</title>
<path fill="none" stroke="midnightblue" d="M260.208,-172.174C280.272,-188.425 312.506,-212.439 344,-227 349.046,-229.333 354.412,-231.433 359.866,-233.315"/>
<polygon fill="midnightblue" stroke="midnightblue" points="359.135,-236.756 369.726,-236.471 361.268,-230.089 359.135,-236.756"/>
</g>
<!-- Node3&#45;&gt;Node7 -->
<g id="edge12" class="edge"><title>Node3&#45;&gt;Node7</title>
<path fill="none" stroke="midnightblue" d="M306.399,-172.063C322.96,-176.319 340.654,-180.866 356.994,-185.066"/>
<polygon fill="midnightblue" stroke="midnightblue" points="356.414,-188.53 366.971,-187.629 358.157,-181.75 356.414,-188.53"/>
</g>
<!-- Node3&#45;&gt;Node8 -->
<g id="edge14" class="edge"><title>Node3&#45;&gt;Node8</title>
<path fill="none" stroke="midnightblue" d="M274.791,-137.799C286.345,-130.911 298.636,-122.175 308,-112 331.423,-86.5479 317.809,-65.594 344,-43 345.363,-41.8241 346.782,-40.7006 348.248,-39.6271"/>
<polygon fill="midnightblue" stroke="midnightblue" points="350.528,-42.3255 357.093,-34.0098 346.775,-36.4164 350.528,-42.3255"/>
</g>
<!-- Node9 -->
<g id="node17" class="node"><title>Node9</title>
<a xlink:href="class_rig_def_1_1_sequential_importer.html#a92713dc168c8a95cab4d0d0ff4967172" target="_top" xlink:title="RigDef::SequentialImporter\l::GetNodeArrayOffset">
<polygon fill="white" stroke="black" points="351.5,-52 351.5,-86 486.5,-86 486.5,-52 351.5,-52"/>
<text text-anchor="start" x="359.5" y="-73" font-family="Helvetica,sans-Serif" font-size="10.00">RigDef::SequentialImporter</text>
<text text-anchor="middle" x="419" y="-60" font-family="Helvetica,sans-Serif" font-size="10.00">::GetNodeArrayOffset</text>
</a>
</g>
<!-- Node3&#45;&gt;Node9 -->
<g id="edge16" class="edge"><title>Node3&#45;&gt;Node9</title>
<path fill="none" stroke="midnightblue" d="M266.623,-137.757C287.204,-124.897 316.697,-107.472 344,-95 347.878,-93.2285 351.914,-91.5055 356.013,-89.8451"/>
<polygon fill="midnightblue" stroke="midnightblue" points="357.601,-92.9827 365.648,-86.091 355.06,-86.4603 357.601,-92.9827"/>
</g>
<!-- Node10 -->
<g id="node19" class="node"><title>Node10</title>
<a xlink:href="struct_rig_def_1_1_file.html#aecfdfd70221c860aebb6edf3f40d78d2" target="_top" xlink:title="RigDef::File::KeywordToString">
<polygon fill="white" stroke="black" points="344,-104.5 344,-125.5 494,-125.5 494,-104.5 344,-104.5"/>
<text text-anchor="middle" x="419" y="-112.5" font-family="Helvetica,sans-Serif" font-size="10.00">RigDef::File::KeywordToString</text>
</a>
</g>
<!-- Node3&#45;&gt;Node10 -->
<g id="edge18" class="edge"><title>Node3&#45;&gt;Node10</title>
<path fill="none" stroke="midnightblue" d="M307.672,-139.878C325.549,-135.883 344.662,-131.612 361.917,-127.756"/>
<polygon fill="midnightblue" stroke="midnightblue" points="362.842,-131.136 371.838,-125.539 361.316,-124.304 362.842,-131.136"/>
</g>
<!-- Node11&#45;&gt;Node8 -->
<g id="edge28" class="edge"><title>Node11&#45;&gt;Node8</title>
<path fill="none" stroke="midnightblue" d="M279.785,-68.9121C299.069,-60.7934 322.629,-51.1144 344,-43 348.789,-41.1816 353.769,-39.3431 358.782,-37.5287"/>
<polygon fill="midnightblue" stroke="midnightblue" points="360.188,-40.7433 368.425,-34.0807 357.831,-34.152 360.188,-40.7433"/>
</g>
<!-- Node11&#45;&gt;Node9 -->
<g id="edge30" class="edge"><title>Node11&#45;&gt;Node9</title>
<path fill="none" stroke="midnightblue" d="M307.672,-79.573C318.587,-78.5364 329.964,-77.456 341.097,-76.3986"/>
<polygon fill="midnightblue" stroke="midnightblue" points="341.608,-79.8659 351.232,-75.4361 340.946,-72.8973 341.608,-79.8659"/>
</g>
<!-- Node11&#45;&gt;Node10 -->
<g id="edge32" class="edge"><title>Node11&#45;&gt;Node10</title>
<path fill="none" stroke="midnightblue" d="M307.672,-96.9637C319.506,-98.8809 331.882,-100.886 343.903,-102.833"/>
<polygon fill="midnightblue" stroke="midnightblue" points="343.465,-106.308 353.896,-104.452 344.585,-99.3982 343.465,-106.308"/>
</g>
</g>
</svg>
        <g id="navigator" transform="translate(0 0)" fill="#404254">
                <rect fill="#f2f5e9" fill-opacity="0.5" stroke="#606060" stroke-width=".5" x="0" y="0" width="60" height="60"/>
                <use id="zoomplus" xlink:href="#zoomPlus" x="17" y="9" onmousedown="handleZoom(evt,'in')"/>
                <use id="zoomminus" xlink:href="#zoomMin" x="42" y="9" onmousedown="handleZoom(evt,'out')"/>
                <use id="reset" xlink:href="#resetDef" x="30" y="36" onmousedown="handleReset()"/>
                <g id="arrowUp" xlink:href="#dirArrow" transform="translate(30 24)" onmousedown="handlePan(0,-1)">
                  <use xlink:href="#rim" fill="#404040">
                        <set attributeName="fill" to="#808080" begin="arrowUp.mouseover" end="arrowUp.mouseout"/>
                  </use>
                  <path fill="none" stroke="white" stroke-width="1.5" d="M0,-3.0v7 M-2.5,-0.5L0,-3.0L2.5,-0.5"/>
                </g>
                <g id="arrowRight" xlink:href="#dirArrow" transform="rotate(90) translate(36 -43)" onmousedown="handlePan(1,0)">
                  <use xlink:href="#rim" fill="#404040">
                        <set attributeName="fill" to="#808080" begin="arrowRight.mouseover" end="arrowRight.mouseout"/>
                  </use>
                  <path fill="none" stroke="white" stroke-width="1.5" d="M0,-3.0v7 M-2.5,-0.5L0,-3.0L2.5,-0.5"/>
                </g>
                <g id="arrowDown" xlink:href="#dirArrow" transform="rotate(180) translate(-30 -48)" onmousedown="handlePan(0,1)">
                  <use xlink:href="#rim" fill="#404040">
                        <set attributeName="fill" to="#808080" begin="arrowDown.mouseover" end="arrowDown.mouseout"/>
                  </use>
                  <path fill="none" stroke="white" stroke-width="1.5" d="M0,-3.0v7 M-2.5,-0.5L0,-3.0L2.5,-0.5"/>
                </g>
                <g id="arrowLeft" xlink:href="#dirArrow" transform="rotate(270) translate(-36 17)" onmousedown="handlePan(-1,0)">
                  <use xlink:href="#rim" fill="#404040">
                        <set attributeName="fill" to="#808080" begin="arrowLeft.mouseover" end="arrowLeft.mouseout"/>
                  </use>
                  <path fill="none" stroke="white" stroke-width="1.5" d="M0,-3.0v7 M-2.5,-0.5L0,-3.0L2.5,-0.5"/>
                </g>
        </g>
        <svg viewBox="0 0 15 15" width="100%" height="30px" preserveAspectRatio="xMaxYMin meet">
         <g id="arrow_out" transform="scale(0.3 0.3)">
          <a xlink:href="class_rig_def_1_1_sequential_importer_a3b5fe4ea5c9ab72bab2c88845cbe144a_cgraph_org.svg" target="_base">
           <rect id="button" ry="5" rx="5" y="6" x="6" height="38" width="38"
                fill="#f2f5e9" fill-opacity="0.5" stroke="#606060" stroke-width="1.0"/>
           <path id="arrow"
             d="M 11.500037,31.436501 C 11.940474,20.09759 22.043105,11.32322 32.158766,21.979434 L 37.068811,17.246167 C 37.068811,17.246167 37.088388,32 37.088388,32 L 22.160133,31.978069 C 22.160133,31.978069 26.997745,27.140456 26.997745,27.140456 C 18.528582,18.264221 13.291696,25.230495 11.500037,31.436501 z"
             style="fill:#404040;"/>
          </a>
         </g>
        </svg>
</svg>
