<?xml version="1.0" encoding="UTF-8" standalone="no"?>
<!DOCTYPE svg PUBLIC "-//W3C//DTD SVG 1.1//EN"
 "http://www.w3.org/Graphics/SVG/1.1/DTD/svg11.dtd">
<!-- Generated by graphviz version 2.26.3 (20100126.1600)
 -->
<!-- Title: G Pages: 1 -->
<svg width="480pt" height="110pt"
 viewBox="0.00 0.00 480.00 110.00" xmlns="http://www.w3.org/2000/svg" xmlns:xlink="http://www.w3.org/1999/xlink">
<g id="graph1" class="graph" transform="scale(1 1) rotate(0) translate(4 106)">
<title>G</title>
<polygon fill="white" stroke="white" points="-4,5 -4,-106 477,-106 477,5 -4,5"/>
<!-- Node1 -->
<g id="node1" class="node"><title>Node1</title>
<polygon fill="#bfbfbf" stroke="black" points="0,-40.5 0,-61.5 168,-61.5 168,-40.5 0,-40.5"/>
<text text-anchor="middle" x="84" y="-48.5" font-family="Helvetica,sans-Serif" font-size="10.00">Beam::interTruckCollisionsPrepare</text>
</g>
<!-- Node2 -->
<g id="node3" class="node"><title>Node2</title>
<a xlink:href="class_streamable_factory.html#a233cafcf6f87f5779b1a26a5a48d8f6d" target="_top" xlink:title="StreamableFactory\&lt; BeamFactory, Beam \&gt;::getSingleton">
<polygon fill="white" stroke="black" points="204.5,-80.5 204.5,-101.5 471.5,-101.5 471.5,-80.5 204.5,-80.5"/>
<text text-anchor="middle" x="338" y="-88.5" font-family="Helvetica,sans-Serif" font-size="10.00">StreamableFactory&lt; BeamFactory, Beam &gt;::getSingleton</text>
</a>
</g>
<!-- Node1&#45;&gt;Node2 -->
<g id="edge2" class="edge"><title>Node1&#45;&gt;Node2</title>
<path fill="none" stroke="midnightblue" d="M145.94,-61.5298C164.592,-64.6448 185.12,-68.0179 204,-71 220.8,-73.6535 238.8,-76.4036 255.982,-78.9841"/>
<polygon fill="midnightblue" stroke="midnightblue" points="255.581,-82.463 265.989,-80.4819 256.617,-75.5401 255.581,-82.463"/>
</g>
<!-- Node3 -->
<g id="node5" class="node"><title>Node3</title>
<a xlink:href="class_beam_factory.html#aa7c42481b46a78459831fa0900ab8d67" target="_top" xlink:title="BeamFactory::getTrucks">
<polygon fill="white" stroke="black" points="275.5,-40.5 275.5,-61.5 400.5,-61.5 400.5,-40.5 275.5,-40.5"/>
<text text-anchor="middle" x="338" y="-48.5" font-family="Helvetica,sans-Serif" font-size="10.00">BeamFactory::getTrucks</text>
</a>
</g>
<!-- Node1&#45;&gt;Node3 -->
<g id="edge4" class="edge"><title>Node1&#45;&gt;Node3</title>
<path fill="none" stroke="midnightblue" d="M168.226,-51C199.623,-51 234.97,-51 265.25,-51"/>
<polygon fill="midnightblue" stroke="midnightblue" points="265.312,-54.5001 275.312,-51 265.311,-47.5001 265.312,-54.5001"/>
</g>
<!-- Node4 -->
<g id="node7" class="node"><title>Node4</title>
<a xlink:href="class_beam_factory.html#a5f3755f8cd44e6972e463cc6aaa9f181" target="_top" xlink:title="BeamFactory::getTruckCount">
<polygon fill="white" stroke="black" points="265,-0.5 265,-21.5 411,-21.5 411,-0.5 265,-0.5"/>
<text text-anchor="middle" x="338" y="-8.5" font-family="Helvetica,sans-Serif" font-size="10.00">BeamFactory::getTruckCount</text>
</a>
</g>
<!-- Node1&#45;&gt;Node4 -->
<g id="edge6" class="edge"><title>Node1&#45;&gt;Node4</title>
<path fill="none" stroke="midnightblue" d="M145.94,-40.4702C164.592,-37.3552 185.12,-33.9821 204,-31 220.8,-28.3465 238.8,-25.5964 255.982,-23.0159"/>
<polygon fill="midnightblue" stroke="midnightblue" points="256.617,-26.4599 265.989,-21.5181 255.581,-19.537 256.617,-26.4599"/>
</g>
</g>
</svg>
