<?xml version="1.0" encoding="UTF-8" standalone="no"?>
<!DOCTYPE svg PUBLIC "-//W3C//DTD SVG 1.1//EN"
 "http://www.w3.org/Graphics/SVG/1.1/DTD/svg11.dtd">
<!-- Generated by graphviz version 2.26.3 (20100126.1600)
 -->
<!-- Title: RoR::GUI::RigEditorCommands2Panel::UpdateCommand2Data Pages: 1 -->
<svg width="586pt" height="360pt"
 viewBox="0.00 0.00 586.00 360.00" xmlns="http://www.w3.org/2000/svg" xmlns:xlink="http://www.w3.org/1999/xlink">
<g id="graph1" class="graph" transform="scale(1 1) rotate(0) translate(4 356)">
<title>RoR::GUI::RigEditorCommands2Panel::UpdateCommand2Data</title>
<polygon fill="white" stroke="white" points="-4,5 -4,-356 583,-356 583,5 -4,5"/>
<!-- Node1 -->
<g id="node1" class="node"><title>Node1</title>
<polygon fill="#bfbfbf" stroke="black" points="0.5,-172 0.5,-206 163.5,-206 163.5,-172 0.5,-172"/>
<text text-anchor="start" x="8.5" y="-193" font-family="Helvetica,sans-Serif" font-size="10.00">RoR::GUI::RigEditorCommands2</text>
<text text-anchor="middle" x="82" y="-180" font-family="Helvetica,sans-Serif" font-size="10.00">Panel::UpdateCommand2Data</text>
</g>
<!-- Node2 -->
<g id="node3" class="node"><title>Node2</title>
<a xlink:href="class_ro_r_1_1_rig_editor_1_1_rig_element_gui_panel_base.html#ac4c1978f770b0ed1b9db966113b8045d" target="_top" xlink:title="RoR::RigEditor::RigElement\lGuiPanelBase::UpdateFlagCheckbox">
<polygon fill="white" stroke="black" points="200.5,-198 200.5,-232 379.5,-232 379.5,-198 200.5,-198"/>
<text text-anchor="start" x="208.5" y="-219" font-family="Helvetica,sans-Serif" font-size="10.00">RoR::RigEditor::RigElement</text>
<text text-anchor="middle" x="290" y="-206" font-family="Helvetica,sans-Serif" font-size="10.00">GuiPanelBase::UpdateFlagCheckbox</text>
</a>
</g>
<!-- Node1&#45;&gt;Node2 -->
<g id="edge2" class="edge"><title>Node1&#45;&gt;Node2</title>
<path fill="none" stroke="midnightblue" d="M163.61,-199.201C172.376,-200.297 181.364,-201.42 190.309,-202.539"/>
<polygon fill="midnightblue" stroke="midnightblue" points="190.02,-206.03 200.377,-203.797 190.888,-199.084 190.02,-206.03"/>
</g>
<!-- Node3 -->
<g id="node5" class="node"><title>Node3</title>
<a xlink:href="class_ro_r_1_1_rig_editor_1_1_rig_element_gui_panel_base.html#ad0187d760317fe449942abb642ec78f9" target="_top" xlink:title="RoR::RigEditor::RigElement\lGuiPanelBase::EditboxRestoreValue">
<polygon fill="white" stroke="black" points="201.5,-146 201.5,-180 378.5,-180 378.5,-146 201.5,-146"/>
<text text-anchor="start" x="209.5" y="-167" font-family="Helvetica,sans-Serif" font-size="10.00">RoR::RigEditor::RigElement</text>
<text text-anchor="middle" x="290" y="-154" font-family="Helvetica,sans-Serif" font-size="10.00">GuiPanelBase::EditboxRestoreValue</text>
</a>
</g>
<!-- Node1&#45;&gt;Node3 -->
<g id="edge4" class="edge"><title>Node1&#45;&gt;Node3</title>
<path fill="none" stroke="midnightblue" d="M163.61,-178.799C172.721,-177.66 182.072,-176.491 191.365,-175.329"/>
<polygon fill="midnightblue" stroke="midnightblue" points="191.925,-178.787 201.413,-174.073 191.056,-171.841 191.925,-178.787"/>
</g>
<!-- Node4 -->
<g id="node7" class="node"><title>Node4</title>
<a xlink:href="struct_ro_r_1_1_rig_editor_1_1_rig_element_gui_panel_base_1_1_generic_field_spec.html#ae161ba91d864a7d7a65d04d14cc49257" target="_top" xlink:title="RoR::RigEditor::RigElement\lGuiPanelBase::GenericFieldSpec\l::IsSourceUniform">
<polygon fill="white" stroke="black" points="416,-304.5 416,-351.5 578,-351.5 578,-304.5 416,-304.5"/>
<text text-anchor="start" x="424" y="-338.5" font-family="Helvetica,sans-Serif" font-size="10.00">RoR::RigEditor::RigElement</text>
<text text-anchor="start" x="424" y="-325.5" font-family="Helvetica,sans-Serif" font-size="10.00">GuiPanelBase::GenericFieldSpec</text>
<text text-anchor="middle" x="497" y="-312.5" font-family="Helvetica,sans-Serif" font-size="10.00">::IsSourceUniform</text>
</a>
</g>
<!-- Node3&#45;&gt;Node4 -->
<g id="edge6" class="edge"><title>Node3&#45;&gt;Node4</title>
<path fill="none" stroke="midnightblue" d="M368.331,-180.134C372.533,-182.694 376.471,-185.63 380,-189 415.984,-223.36 381.88,-258.788 416,-295 416.908,-295.964 417.848,-296.9 418.817,-297.809"/>
<polygon fill="midnightblue" stroke="midnightblue" points="416.792,-300.674 426.757,-304.274 421.212,-295.246 416.792,-300.674"/>
</g>
<!-- Node5 -->
<g id="node9" class="node"><title>Node5</title>
<a xlink:href="struct_ro_r_1_1_rig_editor_1_1_rig_element_gui_panel_base_1_1_generic_field_spec.html#a66468fe1df6d78c0589a47e7111b8594" target="_top" xlink:title="RoR::RigEditor::RigElement\lGuiPanelBase::GenericFieldSpec\l::GetSourceFloat">
<polygon fill="white" stroke="black" points="416,-238.5 416,-285.5 578,-285.5 578,-238.5 416,-238.5"/>
<text text-anchor="start" x="424" y="-272.5" font-family="Helvetica,sans-Serif" font-size="10.00">RoR::RigEditor::RigElement</text>
<text text-anchor="start" x="424" y="-259.5" font-family="Helvetica,sans-Serif" font-size="10.00">GuiPanelBase::GenericFieldSpec</text>
<text text-anchor="middle" x="497" y="-246.5" font-family="Helvetica,sans-Serif" font-size="10.00">::GetSourceFloat</text>
</a>
</g>
<!-- Node3&#45;&gt;Node5 -->
<g id="edge8" class="edge"><title>Node3&#45;&gt;Node5</title>
<path fill="none" stroke="midnightblue" d="M362.783,-180.115C368.798,-182.688 374.625,-185.633 380,-189 400.269,-201.697 396.429,-215.251 416,-229 418.12,-230.489 420.317,-231.927 422.572,-233.313"/>
<polygon fill="midnightblue" stroke="midnightblue" points="421.09,-236.497 431.512,-238.403 424.554,-230.413 421.09,-236.497"/>
</g>
<!-- Node6 -->
<g id="node11" class="node"><title>Node6</title>
<a xlink:href="struct_ro_r_1_1_rig_editor_1_1_rig_element_gui_panel_base_1_1_generic_field_spec.html#a192249f405da10c4c7cc797d82899b91" target="_top" xlink:title="RoR::RigEditor::RigElement\lGuiPanelBase::GenericFieldSpec\l::GetSourceInt">
<polygon fill="white" stroke="black" points="416,-172.5 416,-219.5 578,-219.5 578,-172.5 416,-172.5"/>
<text text-anchor="start" x="424" y="-206.5" font-family="Helvetica,sans-Serif" font-size="10.00">RoR::RigEditor::RigElement</text>
<text text-anchor="start" x="424" y="-193.5" font-family="Helvetica,sans-Serif" font-size="10.00">GuiPanelBase::GenericFieldSpec</text>
<text text-anchor="middle" x="497" y="-180.5" font-family="Helvetica,sans-Serif" font-size="10.00">::GetSourceInt</text>
</a>
</g>
<!-- Node3&#45;&gt;Node6 -->
<g id="edge10" class="edge"><title>Node3&#45;&gt;Node6</title>
<path fill="none" stroke="midnightblue" d="M378.687,-177.139C387.617,-178.562 396.697,-180.01 405.653,-181.437"/>
<polygon fill="midnightblue" stroke="midnightblue" points="405.272,-184.921 415.699,-183.039 406.374,-178.008 405.272,-184.921"/>
</g>
<!-- Node7 -->
<g id="node13" class="node"><title>Node7</title>
<a xlink:href="struct_ro_r_1_1_rig_editor_1_1_rig_element_gui_panel_base_1_1_generic_field_spec.html#a2f140a5e66c648a4b401dfdd4a183095" target="_top" xlink:title="RoR::RigEditor::RigElement\lGuiPanelBase::GenericFieldSpec\l::GetSourceString">
<polygon fill="white" stroke="black" points="416,-106.5 416,-153.5 578,-153.5 578,-106.5 416,-106.5"/>
<text text-anchor="start" x="424" y="-140.5" font-family="Helvetica,sans-Serif" font-size="10.00">RoR::RigEditor::RigElement</text>
<text text-anchor="start" x="424" y="-127.5" font-family="Helvetica,sans-Serif" font-size="10.00">GuiPanelBase::GenericFieldSpec</text>
<text text-anchor="middle" x="497" y="-114.5" font-family="Helvetica,sans-Serif" font-size="10.00">::GetSourceString</text>
</a>
</g>
<!-- Node3&#45;&gt;Node7 -->
<g id="edge12" class="edge"><title>Node3&#45;&gt;Node7</title>
<path fill="none" stroke="midnightblue" d="M378.687,-148.861C387.617,-147.438 396.697,-145.99 405.653,-144.563"/>
<polygon fill="midnightblue" stroke="midnightblue" points="406.374,-147.992 415.699,-142.961 405.272,-141.079 406.374,-147.992"/>
</g>
<!-- Node8 -->
<g id="node15" class="node"><title>Node8</title>
<a xlink:href="struct_ro_r_1_1_rig_editor_1_1_rig_element_gui_panel_base_1_1_generic_field_spec.html#aadb1b90882ac5167d0f35e81238c1279" target="_top" xlink:title="RoR::RigEditor::RigElement\lGuiPanelBase::GenericFieldSpec\l::GetSourceRawPtr">
<polygon fill="white" stroke="black" points="416,-40.5 416,-87.5 578,-87.5 578,-40.5 416,-40.5"/>
<text text-anchor="start" x="424" y="-74.5" font-family="Helvetica,sans-Serif" font-size="10.00">RoR::RigEditor::RigElement</text>
<text text-anchor="start" x="424" y="-61.5" font-family="Helvetica,sans-Serif" font-size="10.00">GuiPanelBase::GenericFieldSpec</text>
<text text-anchor="middle" x="497" y="-48.5" font-family="Helvetica,sans-Serif" font-size="10.00">::GetSourceRawPtr</text>
</a>
</g>
<!-- Node3&#45;&gt;Node8 -->
<g id="edge14" class="edge"><title>Node3&#45;&gt;Node8</title>
<path fill="none" stroke="midnightblue" d="M320.655,-145.889C345.918,-132.046 382.851,-112.391 416,-97 419.874,-95.2015 423.874,-93.3998 427.926,-91.6174"/>
<polygon fill="midnightblue" stroke="midnightblue" points="429.65,-94.6851 437.44,-87.504 426.872,-88.2599 429.65,-94.6851"/>
</g>
<!-- Node9 -->
<g id="node17" class="node"><title>Node9</title>
<a xlink:href="class_rig_def_1_1_node_1_1_id.html#a2e84af09c5b954252ed2af4a4bcfdeeb" target="_top" xlink:title="RigDef::Node::Id::ToString">
<polygon fill="white" stroke="black" points="430,-0.5 430,-21.5 564,-21.5 564,-0.5 430,-0.5"/>
<text text-anchor="middle" x="497" y="-8.5" font-family="Helvetica,sans-Serif" font-size="10.00">RigDef::Node::Id::ToString</text>
</a>
</g>
<!-- Node3&#45;&gt;Node9 -->
<g id="edge16" class="edge"><title>Node3&#45;&gt;Node9</title>
<path fill="none" stroke="midnightblue" d="M301.356,-145.877C321.139,-117.45 364.746,-60.7121 416,-31 419.84,-28.7741 423.921,-26.7945 428.13,-25.0342"/>
<polygon fill="midnightblue" stroke="midnightblue" points="429.371,-28.307 437.507,-21.5202 426.914,-21.7521 429.371,-28.307"/>
</g>
</g>
</svg>
