<?xml version="1.0" encoding="UTF-8" standalone="no"?>
<!DOCTYPE svg PUBLIC "-//W3C//DTD SVG 1.1//EN"
 "http://www.w3.org/Graphics/SVG/1.1/DTD/svg11.dtd">
<!-- Generated by graphviz version 2.26.3 (20100126.1600)
 -->
<!-- Title: G Pages: 1 -->
<svg width="276pt" height="88pt"
 viewBox="0.00 0.00 276.00 88.00" xmlns="http://www.w3.org/2000/svg" xmlns:xlink="http://www.w3.org/1999/xlink">
<g id="graph1" class="graph" transform="scale(1 1) rotate(0) translate(4 84)">
<title>G</title>
<polygon fill="white" stroke="white" points="-4,5 -4,-84 273,-84 273,5 -4,5"/>
<!-- Node1 -->
<g id="node1" class="node"><title>Node1</title>
<polygon fill="#bfbfbf" stroke="black" points="109.5,-0.5 109.5,-21.5 162.5,-21.5 162.5,-0.5 109.5,-0.5"/>
<text text-anchor="middle" x="136" y="-8.5" font-family="Helvetica,sans-Serif" font-size="10.00">Settings</text>
</g>
<!-- Node2 -->
<g id="node2" class="node"><title>Node2</title>
<a xlink:href="class_ro_r_singleton.html" target="_top" xlink:title="RoRSingleton\&lt; Settings \&gt;">
<polygon fill="white" stroke="black" points="-0.5,-58.5 -0.5,-79.5 130.5,-79.5 130.5,-58.5 -0.5,-58.5"/>
<text text-anchor="middle" x="65" y="-66.5" font-family="Helvetica,sans-Serif" font-size="10.00">RoRSingleton&lt; Settings &gt;</text>
</a>
</g>
<!-- Node2&#45;&gt;Node1 -->
<g id="edge2" class="edge"><title>Node2&#45;&gt;Node1</title>
<path fill="none" stroke="midnightblue" d="M85.8405,-51.9753C97.8907,-42.1315 112.675,-30.0545 123.06,-21.5707"/>
<polygon fill="midnightblue" stroke="midnightblue" points="83.5527,-49.3249 78.0225,-58.3619 87.9812,-54.746 83.5527,-49.3249"/>
</g>
<!-- Node3 -->
<g id="node4" class="node"><title>Node3</title>
<a xlink:href="class_zeroed_memory_allocator.html" target="_top" xlink:title="ZeroedMemoryAllocator">
<polygon fill="white" stroke="black" points="148,-58.5 148,-79.5 268,-79.5 268,-58.5 148,-58.5"/>
<text text-anchor="middle" x="208" y="-66.5" font-family="Helvetica,sans-Serif" font-size="10.00">ZeroedMemoryAllocator</text>
</a>
</g>
<!-- Node3&#45;&gt;Node1 -->
<g id="edge4" class="edge"><title>Node3&#45;&gt;Node1</title>
<path fill="none" stroke="midnightblue" d="M186.866,-51.9753C174.646,-42.1315 159.654,-30.0545 149.122,-21.5707"/>
<polygon fill="midnightblue" stroke="midnightblue" points="184.811,-54.8142 194.794,-58.3619 189.202,-49.3629 184.811,-54.8142"/>
</g>
</g>
</svg>
