<?xml version="1.0" encoding="UTF-8" standalone="no"?>
<!DOCTYPE svg PUBLIC "-//W3C//DTD SVG 1.1//EN"
 "http://www.w3.org/Graphics/SVG/1.1/DTD/svg11.dtd">
<!-- Generated by graphviz version 2.26.3 (20100126.1600)
 -->
<!-- Title: G Pages: 1 -->
<!--zoomable 773 -->
<svg id="main" version="1.1" xmlns="http://www.w3.org/2000/svg" xmlns:xlink="http://www.w3.org/1999/xlink" xml:space="preserve" onload="init(evt)">
        <defs>
                <circle id="rim" cx="0" cy="0" r="7"/>
                <circle id="rim2" cx="0" cy="0" r="3.5"/>
                <g id="zoomPlus">
                        <use xlink:href="#rim" fill="#404040">
                                <set attributeName="fill" to="#808080" begin="zoomplus.mouseover" end="zoomplus.mouseout"/>
                        </use>
                        <path d="M-4,0h8M0,-4v8" fill="none" stroke="white" stroke-width="1.5" pointer-events="none"/>
                </g>
                <g id="zoomMin">
                        <use xlink:href="#rim" fill="#404040">
                                <set attributeName="fill" to="#808080" begin="zoomminus.mouseover" end="zoomminus.mouseout"/>
                        </use>
                        <path d="M-4,0h8" fill="none" stroke="white" stroke-width="1.5" pointer-events="none"/>
                </g>
                <g id="dirArrow">
                        <path fill="none" stroke="white" stroke-width="1.5" d="M0,-3.0v7 M-2.5,-0.5L0,-3.0L2.5,-0.5"/>
                </g>
               <g id="resetDef">
                       <use xlink:href="#rim2" fill="#404040">
                               <set attributeName="fill" to="#808080" begin="reset.mouseover" end="reset.mouseout"/>
                       </use>
               </g>
        </defs>

<script type="text/javascript">
var viewWidth = 1574;
var viewHeight = 773;
var sectionId = 'dynsection-43';
</script>
<script xlink:href="svgpan.js"/>
<svg id="graph" class="graph">
<g id="viewport">
<title>G</title>
<polygon fill="white" stroke="white" points="-4,5 -4,-769.192 1571,-769.192 1571,5 -4,5"/>
<!-- Node1 -->
<g id="node1" class="node"><title>Node1</title>
<polygon fill="#bfbfbf" stroke="black" points="0.5,-363.692 0.5,-384.692 195.5,-384.692 195.5,-363.692 0.5,-363.692"/>
<text text-anchor="middle" x="98" y="-371.692" font-family="Helvetica,sans-Serif" font-size="10.00">CacheSystem::incrementalCacheUpdate</text>
</g>
<!-- Node2 -->
<g id="node3" class="node"><title>Node2</title>
<a xlink:href="class_cache_system.html#a737df1810a418779f48e0fd8fb669bc4" target="_top" xlink:title="CacheSystem::loadCache">
<polygon fill="white" stroke="black" points="266.5,-583.692 266.5,-604.692 397.5,-604.692 397.5,-583.692 266.5,-583.692"/>
<text text-anchor="middle" x="332" y="-591.692" font-family="Helvetica,sans-Serif" font-size="10.00">CacheSystem::loadCache</text>
</a>
</g>
<!-- Node1&#45;&gt;Node2 -->
<g id="edge2" class="edge"><title>Node1&#45;&gt;Node2</title>
<path fill="none" stroke="midnightblue" d="M101.806,-385.039C114.367,-419.124 157.974,-524.741 232,-574.192 239.514,-579.212 248.007,-583.025 256.789,-585.913"/>
<polygon fill="midnightblue" stroke="midnightblue" points="255.822,-589.276 266.401,-588.697 257.769,-582.553 255.822,-589.276"/>
</g>
<!-- Node10 -->
<g id="node19" class="node"><title>Node10</title>
<a xlink:href="_utils_8cpp.html#aebe76599ecdd7fc4db8b64cba0beb94e" target="_top" xlink:title="ANSI_TO_UTF">
<polygon fill="white" stroke="black" points="290,-543.692 290,-564.692 374,-564.692 374,-543.692 290,-543.692"/>
<text text-anchor="middle" x="332" y="-551.692" font-family="Helvetica,sans-Serif" font-size="10.00">ANSI_TO_UTF</text>
</a>
</g>
<!-- Node1&#45;&gt;Node10 -->
<g id="edge18" class="edge"><title>Node1&#45;&gt;Node10</title>
<path fill="none" stroke="midnightblue" d="M103.53,-384.902C119.234,-414.146 167.186,-495.736 232,-534.192 246.375,-542.721 263.747,-547.679 279.951,-550.541"/>
<polygon fill="midnightblue" stroke="midnightblue" points="279.436,-554.003 289.852,-552.064 280.501,-547.084 279.436,-554.003"/>
</g>
<!-- Node12 -->
<g id="node23" class="node"><title>Node12</title>
<a xlink:href="class_cache_system.html#a98b26679cebf52733b5e3ad7ed879152" target="_top" xlink:title="CacheSystem::getRealPath">
<polygon fill="white" stroke="black" points="262.5,-503.692 262.5,-524.692 401.5,-524.692 401.5,-503.692 262.5,-503.692"/>
<text text-anchor="middle" x="332" y="-511.692" font-family="Helvetica,sans-Serif" font-size="10.00">CacheSystem::getRealPath</text>
</a>
</g>
<!-- Node1&#45;&gt;Node12 -->
<g id="edge22" class="edge"><title>Node1&#45;&gt;Node12</title>
<path fill="none" stroke="midnightblue" d="M106.412,-384.895C125.775,-408.724 176.142,-466.248 232,-494.192 238.477,-497.432 245.438,-500.148 252.561,-502.423"/>
<polygon fill="midnightblue" stroke="midnightblue" points="251.768,-505.838 262.347,-505.262 253.718,-499.115 251.768,-505.838"/>
</g>
<!-- Node13 -->
<g id="node25" class="node"><title>Node13</title>
<a xlink:href="struct_ro_r_1_1_platform_utils.html#abe6e72a87d2b2fc77153bbee1c48c41e" target="_top" xlink:title="RoR::PlatformUtils::FileExists">
<polygon fill="white" stroke="black" points="257.5,-463.692 257.5,-484.692 406.5,-484.692 406.5,-463.692 257.5,-463.692"/>
<text text-anchor="middle" x="332" y="-471.692" font-family="Helvetica,sans-Serif" font-size="10.00">RoR::PlatformUtils::FileExists</text>
</a>
</g>
<!-- Node1&#45;&gt;Node13 -->
<g id="edge24" class="edge"><title>Node1&#45;&gt;Node13</title>
<path fill="none" stroke="midnightblue" d="M112.03,-384.801C135.545,-402.051 184.975,-436.071 232,-454.192 238.815,-456.818 246.03,-459.117 253.339,-461.126"/>
<polygon fill="midnightblue" stroke="midnightblue" points="252.78,-464.596 263.336,-463.69 254.519,-457.816 252.78,-464.596"/>
</g>
<!-- Node14 -->
<g id="node27" class="node"><title>Node14</title>
<a xlink:href="class_cache_system.html#a0613a765df2cb1994e4c67c822fdf76a" target="_top" xlink:title="CacheSystem::removeFileFromFileCache">
<polygon fill="white" stroke="black" points="232,-423.692 232,-444.692 432,-444.692 432,-423.692 232,-423.692"/>
<text text-anchor="middle" x="332" y="-431.692" font-family="Helvetica,sans-Serif" font-size="10.00">CacheSystem::removeFileFromFileCache</text>
</a>
</g>
<!-- Node1&#45;&gt;Node14 -->
<g id="edge26" class="edge"><title>Node1&#45;&gt;Node14</title>
<path fill="none" stroke="midnightblue" d="M130.261,-384.739C157.26,-393.344 196.895,-405.462 232,-414.192 242.524,-416.809 253.736,-419.319 264.705,-421.623"/>
<polygon fill="midnightblue" stroke="midnightblue" points="264.183,-425.089 274.684,-423.678 265.595,-418.232 264.183,-425.089"/>
</g>
<!-- Node16 -->
<g id="node31" class="node"><title>Node16</title>
<a xlink:href="class_cache_system.html#a849e439fdf352aff8fdec6f0c14d308c" target="_top" xlink:title="CacheSystem::fileTime">
<polygon fill="white" stroke="black" points="272.5,-383.692 272.5,-404.692 391.5,-404.692 391.5,-383.692 272.5,-383.692"/>
<text text-anchor="middle" x="332" y="-391.692" font-family="Helvetica,sans-Serif" font-size="10.00">CacheSystem::fileTime</text>
</a>
</g>
<!-- Node1&#45;&gt;Node16 -->
<g id="edge30" class="edge"><title>Node1&#45;&gt;Node16</title>
<path fill="none" stroke="midnightblue" d="M195.543,-382.529C217.959,-384.445 241.355,-386.445 262.315,-388.236"/>
<polygon fill="midnightblue" stroke="midnightblue" points="262.132,-391.733 272.394,-389.098 262.728,-384.759 262.132,-391.733"/>
</g>
<!-- Node17 -->
<g id="node33" class="node"><title>Node17</title>
<a xlink:href="class_ro_r_1_1_c_s_h_a1.html#a0b0eef50cf60a9321a39d9478dd2de11" target="_top" xlink:title="RoR::CSHA1::HashFile">
<polygon fill="white" stroke="black" points="271,-303.692 271,-324.692 393,-324.692 393,-303.692 271,-303.692"/>
<text text-anchor="middle" x="332" y="-311.692" font-family="Helvetica,sans-Serif" font-size="10.00">RoR::CSHA1::HashFile</text>
</a>
</g>
<!-- Node1&#45;&gt;Node17 -->
<g id="edge32" class="edge"><title>Node1&#45;&gt;Node17</title>
<path fill="none" stroke="midnightblue" d="M130.261,-363.645C157.26,-355.04 196.895,-342.922 232,-334.192 242.524,-331.575 253.736,-329.065 264.705,-326.762"/>
<polygon fill="midnightblue" stroke="midnightblue" points="265.595,-330.152 274.684,-324.706 264.183,-323.296 265.595,-330.152"/>
</g>
<!-- Node20 -->
<g id="node39" class="node"><title>Node20</title>
<a xlink:href="class_ro_r_1_1_c_s_h_a1.html#afbdaab3f2a2946d26a6144af3fec5fd8" target="_top" xlink:title="RoR::CSHA1::Final">
<polygon fill="white" stroke="black" points="280,-343.692 280,-364.692 384,-364.692 384,-343.692 280,-343.692"/>
<text text-anchor="middle" x="332" y="-351.692" font-family="Helvetica,sans-Serif" font-size="10.00">RoR::CSHA1::Final</text>
</a>
</g>
<!-- Node1&#45;&gt;Node20 -->
<g id="edge38" class="edge"><title>Node1&#45;&gt;Node20</title>
<path fill="none" stroke="midnightblue" d="M195.543,-365.855C220.664,-363.708 247.016,-361.456 269.791,-359.509"/>
<polygon fill="midnightblue" stroke="midnightblue" points="270.32,-362.977 279.986,-358.638 269.724,-356.002 270.32,-362.977"/>
</g>
<!-- Node21 -->
<g id="node43" class="node"><title>Node21</title>
<a xlink:href="class_ro_r_1_1_c_s_h_a1.html#a22ddf4fbd88ea7a76638104a56bb7c30" target="_top" xlink:title="RoR::CSHA1::ReportHash">
<polygon fill="white" stroke="black" points="264.5,-263.692 264.5,-284.692 399.5,-284.692 399.5,-263.692 264.5,-263.692"/>
<text text-anchor="middle" x="332" y="-271.692" font-family="Helvetica,sans-Serif" font-size="10.00">RoR::CSHA1::ReportHash</text>
</a>
</g>
<!-- Node1&#45;&gt;Node21 -->
<g id="edge44" class="edge"><title>Node1&#45;&gt;Node21</title>
<path fill="none" stroke="midnightblue" d="M112.03,-363.583C135.545,-346.333 184.975,-312.313 232,-294.192 239.202,-291.417 246.851,-289.007 254.586,-286.918"/>
<polygon fill="midnightblue" stroke="midnightblue" points="255.563,-290.281 264.402,-284.441 253.85,-283.494 255.563,-290.281"/>
</g>
<!-- Node22 -->
<g id="node45" class="node"><title>Node22</title>
<a xlink:href="class_cache_system.html#a55bbe62f9e72f77772b79b67e1ed6927" target="_top" xlink:title="CacheSystem::loadSingleZip">
<polygon fill="white" stroke="black" points="787.5,-225.692 787.5,-246.692 930.5,-246.692 930.5,-225.692 787.5,-225.692"/>
<text text-anchor="middle" x="859" y="-233.692" font-family="Helvetica,sans-Serif" font-size="10.00">CacheSystem::loadSingleZip</text>
</a>
</g>
<!-- Node1&#45;&gt;Node22 -->
<g id="edge46" class="edge"><title>Node1&#45;&gt;Node22</title>
<path fill="none" stroke="midnightblue" d="M105.55,-363.546C123.85,-338.766 173.407,-277.562 232,-254.192 328.619,-215.655 630.204,-224.611 777.037,-231.637"/>
<polygon fill="midnightblue" stroke="midnightblue" points="777.178,-235.148 787.336,-232.139 777.518,-228.156 777.178,-235.148"/>
</g>
<!-- Node23 -->
<g id="node47" class="node"><title>Node23</title>
<a xlink:href="class_cache_system.html#ac30fff8eecfc197fc4ccca8c6cf06109" target="_top" xlink:title="CacheSystem::checkForNewContent">
<polygon fill="white" stroke="black" points="242,-185.692 242,-206.692 422,-206.692 422,-185.692 242,-185.692"/>
<text text-anchor="middle" x="332" y="-193.692" font-family="Helvetica,sans-Serif" font-size="10.00">CacheSystem::checkForNewContent</text>
</a>
</g>
<!-- Node1&#45;&gt;Node23 -->
<g id="edge48" class="edge"><title>Node1&#45;&gt;Node23</title>
<path fill="none" stroke="midnightblue" d="M104.234,-363.301C120.983,-335.072 169.922,-259.102 232,-221.192 239.435,-216.652 247.658,-212.934 256.101,-209.891"/>
<polygon fill="midnightblue" stroke="midnightblue" points="257.291,-213.184 265.696,-206.733 255.103,-206.535 257.291,-213.184"/>
</g>
<!-- Node27 -->
<g id="node55" class="node"><title>Node27</title>
<a xlink:href="class_cache_system.html#a12f05687c63beea66a7d560680d0b9f9" target="_top" xlink:title="CacheSystem::getVirtualPath">
<polygon fill="white" stroke="black" points="1259,-145.692 1259,-166.692 1405,-166.692 1405,-145.692 1259,-145.692"/>
<text text-anchor="middle" x="1332" y="-153.692" font-family="Helvetica,sans-Serif" font-size="10.00">CacheSystem::getVirtualPath</text>
</a>
</g>
<!-- Node1&#45;&gt;Node27 -->
<g id="edge90" class="edge"><title>Node1&#45;&gt;Node27</title>
<path fill="none" stroke="midnightblue" d="M101.779,-363.36C114.26,-329.337 157.656,-224.04 232,-176.192 372.396,-85.8327 436.039,-117.192 603,-117.192 603,-117.192 603,-117.192 859,-117.192 1017,-117.192 1056.96,-118.74 1214,-136.192 1231.52,-138.139 1250.39,-140.993 1267.79,-143.938"/>
<polygon fill="midnightblue" stroke="midnightblue" points="1267.39,-147.421 1277.84,-145.677 1268.59,-140.524 1267.39,-147.421"/>
</g>
<!-- Node35 -->
<g id="node76" class="node"><title>Node35</title>
<a xlink:href="class_cache_system.html#ad98137fe76d0e353a8f6efcd91e6430f" target="_top" xlink:title="CacheSystem::checkForNewKnownFiles">
<polygon fill="white" stroke="black" points="233.5,-47.6921 233.5,-68.6921 430.5,-68.6921 430.5,-47.6921 233.5,-47.6921"/>
<text text-anchor="middle" x="332" y="-55.6921" font-family="Helvetica,sans-Serif" font-size="10.00">CacheSystem::checkForNewKnownFiles</text>
</a>
</g>
<!-- Node1&#45;&gt;Node35 -->
<g id="edge82" class="edge"><title>Node1&#45;&gt;Node35</title>
<path fill="none" stroke="midnightblue" d="M100.469,-363.575C110.197,-323.934 149.447,-182.797 232,-103.192 246.223,-89.4775 265.348,-79.487 283.064,-72.4551"/>
<polygon fill="midnightblue" stroke="midnightblue" points="284.578,-75.6259 292.721,-68.848 282.128,-69.0684 284.578,-75.6259"/>
</g>
<!-- Node38 -->
<g id="node84" class="node"><title>Node38</title>
<a xlink:href="class_cache_system.html#abf52dfca224df5030c669e68fc87edc3" target="_top" xlink:title="CacheSystem::writeGeneratedCache">
<polygon fill="white" stroke="black" points="242.5,-663.692 242.5,-684.692 421.5,-684.692 421.5,-663.692 242.5,-663.692"/>
<text text-anchor="middle" x="332" y="-671.692" font-family="Helvetica,sans-Serif" font-size="10.00">CacheSystem::writeGeneratedCache</text>
</a>
</g>
<!-- Node1&#45;&gt;Node38 -->
<g id="edge92" class="edge"><title>Node1&#45;&gt;Node38</title>
<path fill="none" stroke="midnightblue" d="M101.626,-384.767C114.398,-420.758 160.425,-540.348 232,-614.192 250.696,-633.481 276.874,-648.893 297.756,-659.265"/>
<polygon fill="midnightblue" stroke="midnightblue" points="296.403,-662.497 306.932,-663.672 299.433,-656.187 296.403,-662.497"/>
</g>
<!-- Node3 -->
<g id="node5" class="node"><title>Node3</title>
<a xlink:href="class_cache_system.html#a48763a6f943698105e8f2947d07e8110" target="_top" xlink:title="CacheSystem::getCacheConfigFilename">
<polygon fill="white" stroke="black" points="505.5,-623.692 505.5,-644.692 700.5,-644.692 700.5,-623.692 505.5,-623.692"/>
<text text-anchor="middle" x="603" y="-631.692" font-family="Helvetica,sans-Serif" font-size="10.00">CacheSystem::getCacheConfigFilename</text>
</a>
</g>
<!-- Node2&#45;&gt;Node3 -->
<g id="edge4" class="edge"><title>Node2&#45;&gt;Node3</title>
<path fill="none" stroke="midnightblue" d="M397.602,-603.875C435.003,-609.396 482.19,-616.36 521.901,-622.222"/>
<polygon fill="midnightblue" stroke="midnightblue" points="521.422,-625.689 531.826,-623.687 522.444,-618.764 521.422,-625.689"/>
</g>
<!-- Node4 -->
<g id="node7" class="node"><title>Node4</title>
<a xlink:href="class_cache_system.html#aa025222e89657b72478453191ee04878" target="_top" xlink:title="CacheSystem::resourceExistsInAllGroups">
<polygon fill="white" stroke="black" points="502.5,-543.692 502.5,-564.692 703.5,-564.692 703.5,-543.692 502.5,-543.692"/>
<text text-anchor="middle" x="603" y="-551.692" font-family="Helvetica,sans-Serif" font-size="10.00">CacheSystem::resourceExistsInAllGroups</text>
</a>
</g>
<!-- Node2&#45;&gt;Node4 -->
<g id="edge6" class="edge"><title>Node2&#45;&gt;Node4</title>
<path fill="none" stroke="midnightblue" d="M397.602,-584.509C435.003,-578.989 482.19,-572.024 521.901,-566.162"/>
<polygon fill="midnightblue" stroke="midnightblue" points="522.444,-569.62 531.826,-564.698 521.422,-562.695 522.444,-569.62"/>
</g>
<!-- Node5 -->
<g id="node9" class="node"><title>Node5</title>
<a xlink:href="class_cache_system.html#a56c6220bad73c66209212753882d7f82" target="_top" xlink:title="CacheSystem::parseModAttribute">
<polygon fill="white" stroke="black" points="521,-583.692 521,-604.692 685,-604.692 685,-583.692 521,-583.692"/>
<text text-anchor="middle" x="603" y="-591.692" font-family="Helvetica,sans-Serif" font-size="10.00">CacheSystem::parseModAttribute</text>
</a>
</g>
<!-- Node2&#45;&gt;Node5 -->
<g id="edge8" class="edge"><title>Node2&#45;&gt;Node5</title>
<path fill="none" stroke="midnightblue" d="M397.602,-594.192C431.393,-594.192 473.172,-594.192 510.208,-594.192"/>
<polygon fill="midnightblue" stroke="midnightblue" points="510.518,-597.692 520.518,-594.192 510.518,-590.692 510.518,-597.692"/>
</g>
<!-- Node6 -->
<g id="node11" class="node"><title>Node6</title>
<a xlink:href="class_cache_system.html#aac096285e86a0452ef689f6a50e4b6d8" target="_top" xlink:title="CacheSystem::logBadTruckAttrib">
<polygon fill="white" stroke="black" points="777.5,-623.692 777.5,-644.692 940.5,-644.692 940.5,-623.692 777.5,-623.692"/>
<text text-anchor="middle" x="859" y="-631.692" font-family="Helvetica,sans-Serif" font-size="10.00">CacheSystem::logBadTruckAttrib</text>
</a>
</g>
<!-- Node5&#45;&gt;Node6 -->
<g id="edge10" class="edge"><title>Node5&#45;&gt;Node6</title>
<path fill="none" stroke="midnightblue" d="M675.548,-604.712C695.775,-607.707 717.752,-611.019 738,-614.192 753.616,-616.639 770.351,-619.349 786.242,-621.963"/>
<polygon fill="midnightblue" stroke="midnightblue" points="786.106,-625.488 796.543,-623.664 787.246,-618.582 786.106,-625.488"/>
</g>
<!-- Node7 -->
<g id="node13" class="node"><title>Node7</title>
<a xlink:href="scriptstdstring_8cpp.html#ab33d705eee9afd65e8991f82d9c71fe3" target="_top" xlink:title="parseInt">
<polygon fill="white" stroke="black" points="833,-583.692 833,-604.692 885,-604.692 885,-583.692 833,-583.692"/>
<text text-anchor="middle" x="859" y="-591.692" font-family="Helvetica,sans-Serif" font-size="10.00">parseInt</text>
</a>
</g>
<!-- Node5&#45;&gt;Node7 -->
<g id="edge12" class="edge"><title>Node5&#45;&gt;Node7</title>
<path fill="none" stroke="midnightblue" d="M685.056,-594.192C731.312,-594.192 786.797,-594.192 822.457,-594.192"/>
<polygon fill="midnightblue" stroke="midnightblue" points="822.855,-597.692 832.855,-594.192 822.855,-590.692 822.855,-597.692"/>
</g>
<!-- Node9 -->
<g id="node17" class="node"><title>Node9</title>
<a xlink:href="class_cache_system.html#a184e43c9fc5e12003e0f3895de93060f" target="_top" xlink:title="CacheSystem::deNormalizeText">
<polygon fill="white" stroke="black" points="779.5,-543.692 779.5,-564.692 938.5,-564.692 938.5,-543.692 779.5,-543.692"/>
<text text-anchor="middle" x="859" y="-551.692" font-family="Helvetica,sans-Serif" font-size="10.00">CacheSystem::deNormalizeText</text>
</a>
</g>
<!-- Node5&#45;&gt;Node9 -->
<g id="edge16" class="edge"><title>Node5&#45;&gt;Node9</title>
<path fill="none" stroke="midnightblue" d="M675.548,-583.672C695.775,-580.677 717.752,-577.365 738,-574.192 753.616,-571.745 770.351,-569.035 786.242,-566.421"/>
<polygon fill="midnightblue" stroke="midnightblue" points="787.246,-569.803 796.543,-564.72 786.106,-562.896 787.246,-569.803"/>
</g>
<!-- Node8 -->
<g id="node15" class="node"><title>Node8</title>
<a xlink:href="_approx_math_8h.html#ad685178dbcfdd207c7306561512e1582" target="_top" xlink:title="sign">
<polygon fill="white" stroke="black" points="1079.5,-583.692 1079.5,-604.692 1114.5,-604.692 1114.5,-583.692 1079.5,-583.692"/>
<text text-anchor="middle" x="1097" y="-591.692" font-family="Helvetica,sans-Serif" font-size="10.00">sign</text>
</a>
</g>
<!-- Node7&#45;&gt;Node8 -->
<g id="edge14" class="edge"><title>Node7&#45;&gt;Node8</title>
<path fill="none" stroke="midnightblue" d="M885.38,-594.192C930.646,-594.192 1022.7,-594.192 1069.04,-594.192"/>
<polygon fill="midnightblue" stroke="midnightblue" points="1069.25,-597.692 1079.25,-594.192 1069.25,-590.692 1069.25,-597.692"/>
</g>
<!-- Node11 -->
<g id="node21" class="node"><title>Node11</title>
<a xlink:href="_utils_8cpp.html#adfe147e59bb1923aba4e9a0f8b14796d" target="_top" xlink:title="ANSI_TO_WCHAR">
<polygon fill="white" stroke="black" points="551,-503.692 551,-524.692 655,-524.692 655,-503.692 551,-503.692"/>
<text text-anchor="middle" x="603" y="-511.692" font-family="Helvetica,sans-Serif" font-size="10.00">ANSI_TO_WCHAR</text>
</a>
</g>
<!-- Node10&#45;&gt;Node11 -->
<g id="edge20" class="edge"><title>Node10&#45;&gt;Node11</title>
<path fill="none" stroke="midnightblue" d="M374.046,-547.986C418.647,-541.403 489.587,-530.932 540.686,-523.39"/>
<polygon fill="midnightblue" stroke="midnightblue" points="541.246,-526.845 550.628,-521.922 540.224,-519.92 541.246,-526.845"/>
</g>
<!-- Node15 -->
<g id="node29" class="node"><title>Node15</title>
<a xlink:href="class_cache_system.html#a2684743363220c7b1ce312914261b978" target="_top" xlink:title="CacheSystem::deleteFileCache">
<polygon fill="white" stroke="black" points="525.5,-423.692 525.5,-444.692 680.5,-444.692 680.5,-423.692 525.5,-423.692"/>
<text text-anchor="middle" x="603" y="-431.692" font-family="Helvetica,sans-Serif" font-size="10.00">CacheSystem::deleteFileCache</text>
</a>
</g>
<!-- Node14&#45;&gt;Node15 -->
<g id="edge28" class="edge"><title>Node14&#45;&gt;Node15</title>
<path fill="none" stroke="midnightblue" d="M432.14,-434.192C459.415,-434.192 488.744,-434.192 515.272,-434.192"/>
<polygon fill="midnightblue" stroke="midnightblue" points="515.291,-437.692 525.291,-434.192 515.291,-430.692 515.291,-437.692"/>
</g>
<!-- Node18 -->
<g id="node35" class="node"><title>Node18</title>
<a xlink:href="class_ro_r_1_1_c_s_h_a1.html#a405de4baf54dcb38af5903e01221454e" target="_top" xlink:title="RoR::CSHA1::UpdateHash">
<polygon fill="white" stroke="black" points="534.5,-304.692 534.5,-325.692 671.5,-325.692 671.5,-304.692 534.5,-304.692"/>
<text text-anchor="middle" x="603" y="-312.692" font-family="Helvetica,sans-Serif" font-size="10.00">RoR::CSHA1::UpdateHash</text>
</a>
</g>
<!-- Node17&#45;&gt;Node18 -->
<g id="edge34" class="edge"><title>Node17&#45;&gt;Node18</title>
<path fill="none" stroke="midnightblue" d="M393.156,-314.418C431.951,-314.561 482.522,-314.748 524.298,-314.902"/>
<polygon fill="midnightblue" stroke="midnightblue" points="524.428,-318.402 534.441,-314.939 524.454,-311.402 524.428,-318.402"/>
</g>
<!-- Node19 -->
<g id="node37" class="node"><title>Node19</title>
<a xlink:href="class_ro_r_1_1_c_s_h_a1.html#a6f39460fa47c489724d2325cf071520b" target="_top" xlink:title="RoR::CSHA1::Transform">
<polygon fill="white" stroke="black" points="795.5,-323.692 795.5,-344.692 922.5,-344.692 922.5,-323.692 795.5,-323.692"/>
<text text-anchor="middle" x="859" y="-331.692" font-family="Helvetica,sans-Serif" font-size="10.00">RoR::CSHA1::Transform</text>
</a>
</g>
<!-- Node18&#45;&gt;Node19 -->
<g id="edge36" class="edge"><title>Node18&#45;&gt;Node19</title>
<path fill="none" stroke="midnightblue" d="M671.603,-320.284C706.651,-322.885 749.333,-326.053 785.105,-328.708"/>
<polygon fill="midnightblue" stroke="midnightblue" points="785.251,-332.228 795.483,-329.478 785.769,-325.247 785.251,-332.228"/>
</g>
<!-- Node20&#45;&gt;Node18 -->
<g id="edge40" class="edge"><title>Node20&#45;&gt;Node18</title>
<path fill="none" stroke="midnightblue" d="M384.252,-346.673C424.004,-340.952 479.363,-332.985 524.443,-326.497"/>
<polygon fill="midnightblue" stroke="midnightblue" points="525.084,-329.941 534.484,-325.052 524.087,-323.013 525.084,-329.941"/>
</g>
<!-- Node20&#45;&gt;Node19 -->
<g id="edge42" class="edge"><title>Node20&#45;&gt;Node19</title>
<path fill="none" stroke="midnightblue" d="M384.457,-352.201C478.785,-348.622 677.243,-341.09 785.222,-336.992"/>
<polygon fill="midnightblue" stroke="midnightblue" points="785.522,-340.483 795.382,-336.606 785.257,-333.488 785.522,-340.483"/>
</g>
<!-- Node24 -->
<g id="node49" class="node"><title>Node24</title>
<a xlink:href="class_cache_system.html#a89beaf10bee2aa07b474fcc4b9c7782a" target="_top" xlink:title="CacheSystem::checkForNewZipsInResourceGroup">
<polygon fill="white" stroke="black" points="482.5,-185.692 482.5,-206.692 723.5,-206.692 723.5,-185.692 482.5,-185.692"/>
<text text-anchor="middle" x="603" y="-193.692" font-family="Helvetica,sans-Serif" font-size="10.00">CacheSystem::checkForNewZipsInResourceGroup</text>
</a>
</g>
<!-- Node23&#45;&gt;Node24 -->
<g id="edge50" class="edge"><title>Node23&#45;&gt;Node24</title>
<path fill="none" stroke="midnightblue" d="M422.239,-196.192C438.178,-196.192 455.06,-196.192 471.853,-196.192"/>
<polygon fill="midnightblue" stroke="midnightblue" points="472.289,-199.692 482.289,-196.192 472.289,-192.692 472.289,-199.692"/>
</g>
<!-- Node28 -->
<g id="node59" class="node"><title>Node28</title>
<a xlink:href="class_cache_system.html#ab2251b8c119efb98588c8c85f882aa3f" target="_top" xlink:title="CacheSystem::checkForNewDirectoriesInResourceGroup">
<polygon fill="white" stroke="black" points="468.5,-145.692 468.5,-166.692 737.5,-166.692 737.5,-145.692 468.5,-145.692"/>
<text text-anchor="middle" x="603" y="-153.692" font-family="Helvetica,sans-Serif" font-size="10.00">CacheSystem::checkForNewDirectoriesInResourceGroup</text>
</a>
</g>
<!-- Node23&#45;&gt;Node28 -->
<g id="edge62" class="edge"><title>Node23&#45;&gt;Node28</title>
<path fill="none" stroke="midnightblue" d="M403.202,-185.683C439.623,-180.307 484.113,-173.74 521.857,-168.169"/>
<polygon fill="midnightblue" stroke="midnightblue" points="522.422,-171.624 531.803,-166.701 521.4,-164.699 522.422,-171.624"/>
</g>
<!-- Node24&#45;&gt;Node22 -->
<g id="edge60" class="edge"><title>Node24&#45;&gt;Node22</title>
<path fill="none" stroke="midnightblue" d="M670.261,-206.702C704.373,-212.032 745.978,-218.533 781.437,-224.073"/>
<polygon fill="midnightblue" stroke="midnightblue" points="781.324,-227.598 791.744,-225.683 782.404,-220.682 781.324,-227.598"/>
</g>
<!-- Node25 -->
<g id="node51" class="node"><title>Node25</title>
<a xlink:href="class_cache_system.html#a68f2404e9bf705e5fbccf6cef95c5f8b" target="_top" xlink:title="CacheSystem::isZipUsedInEntries">
<polygon fill="white" stroke="black" points="775,-185.692 775,-206.692 943,-206.692 943,-185.692 775,-185.692"/>
<text text-anchor="middle" x="859" y="-193.692" font-family="Helvetica,sans-Serif" font-size="10.00">CacheSystem::isZipUsedInEntries</text>
</a>
</g>
<!-- Node24&#45;&gt;Node25 -->
<g id="edge52" class="edge"><title>Node24&#45;&gt;Node25</title>
<path fill="none" stroke="midnightblue" d="M723.504,-196.192C737.352,-196.192 751.317,-196.192 764.748,-196.192"/>
<polygon fill="midnightblue" stroke="midnightblue" points="764.905,-199.692 774.905,-196.192 764.905,-192.692 764.905,-199.692"/>
</g>
<!-- Node26 -->
<g id="node53" class="node"><title>Node26</title>
<a xlink:href="class_cache_system.html#ae7b67f3f823d1ebbf776d83343085469" target="_top" xlink:title="CacheSystem::generateZipList">
<polygon fill="white" stroke="black" points="1021,-185.692 1021,-206.692 1173,-206.692 1173,-185.692 1021,-185.692"/>
<text text-anchor="middle" x="1097" y="-193.692" font-family="Helvetica,sans-Serif" font-size="10.00">CacheSystem::generateZipList</text>
</a>
</g>
<!-- Node25&#45;&gt;Node26 -->
<g id="edge54" class="edge"><title>Node25&#45;&gt;Node26</title>
<path fill="none" stroke="midnightblue" d="M943.245,-196.192C965.063,-196.192 988.589,-196.192 1010.52,-196.192"/>
<polygon fill="midnightblue" stroke="midnightblue" points="1010.81,-199.692 1020.81,-196.192 1010.81,-192.692 1010.81,-199.692"/>
</g>
<!-- Node25&#45;&gt;Node27 -->
<g id="edge58" class="edge"><title>Node25&#45;&gt;Node27</title>
<path fill="none" stroke="midnightblue" d="M903.173,-206.743C971.042,-221.161 1104.6,-242.41 1214,-216.192 1249.12,-207.776 1285.59,-187.085 1308.51,-172.359"/>
<polygon fill="midnightblue" stroke="midnightblue" points="1310.46,-175.27 1316.89,-166.853 1306.61,-169.42 1310.46,-175.27"/>
</g>
<!-- Node26&#45;&gt;Node27 -->
<g id="edge56" class="edge"><title>Node26&#45;&gt;Node27</title>
<path fill="none" stroke="midnightblue" d="M1158.74,-185.683C1189.92,-180.375 1227.92,-173.908 1260.38,-168.383"/>
<polygon fill="midnightblue" stroke="midnightblue" points="1260.99,-171.829 1270.26,-166.701 1259.82,-164.929 1260.99,-171.829"/>
</g>
<!-- Node29 -->
<g id="node61" class="node"><title>Node29</title>
<a xlink:href="class_cache_system.html#a303add5eb2948feec938ccf89babd747" target="_top" xlink:title="CacheSystem::isDirectoryUsedInEntries">
<polygon fill="white" stroke="black" points="1000,-145.692 1000,-166.692 1194,-166.692 1194,-145.692 1000,-145.692"/>
<text text-anchor="middle" x="1097" y="-153.692" font-family="Helvetica,sans-Serif" font-size="10.00">CacheSystem::isDirectoryUsedInEntries</text>
</a>
</g>
<!-- Node28&#45;&gt;Node29 -->
<g id="edge64" class="edge"><title>Node28&#45;&gt;Node29</title>
<path fill="none" stroke="midnightblue" d="M737.661,-156.192C816.79,-156.192 915.464,-156.192 989.381,-156.192"/>
<polygon fill="midnightblue" stroke="midnightblue" points="989.642,-159.692 999.642,-156.192 989.642,-152.692 989.642,-159.692"/>
</g>
<!-- Node30 -->
<g id="node64" class="node"><title>Node30</title>
<a xlink:href="class_cache_system.html#a6930774611a2fb3df326a427c2af3ccb" target="_top" xlink:title="CacheSystem::loadSingleDirectory">
<polygon fill="white" stroke="black" points="774,-67.6921 774,-88.6921 944,-88.6921 944,-67.6921 774,-67.6921"/>
<text text-anchor="middle" x="859" y="-75.6921" font-family="Helvetica,sans-Serif" font-size="10.00">CacheSystem::loadSingleDirectory</text>
</a>
</g>
<!-- Node28&#45;&gt;Node30 -->
<g id="edge68" class="edge"><title>Node28&#45;&gt;Node30</title>
<path fill="none" stroke="midnightblue" d="M637.525,-145.673C683.331,-131.716 764.252,-107.061 814.568,-91.7299"/>
<polygon fill="midnightblue" stroke="midnightblue" points="815.658,-95.0567 824.204,-88.794 813.618,-88.3606 815.658,-95.0567"/>
</g>
<!-- Node29&#45;&gt;Node27 -->
<g id="edge66" class="edge"><title>Node29&#45;&gt;Node27</title>
<path fill="none" stroke="midnightblue" d="M1194.28,-156.192C1212.33,-156.192 1231.04,-156.192 1248.62,-156.192"/>
<polygon fill="midnightblue" stroke="midnightblue" points="1248.84,-159.692 1258.84,-156.192 1248.84,-152.692 1248.84,-159.692"/>
</g>
<!-- Node31 -->
<g id="node66" class="node"><title>Node31</title>
<a xlink:href="class_cache_system.html#ad423befaee09dd2e45621690907484f1" target="_top" xlink:title="CacheSystem::parseKnownFilesOneRGDirectory">
<polygon fill="white" stroke="black" points="980.5,-67.6921 980.5,-88.6921 1213.5,-88.6921 1213.5,-67.6921 980.5,-67.6921"/>
<text text-anchor="middle" x="1097" y="-75.6921" font-family="Helvetica,sans-Serif" font-size="10.00">CacheSystem::parseKnownFilesOneRGDirectory</text>
</a>
</g>
<!-- Node30&#45;&gt;Node31 -->
<g id="edge70" class="edge"><title>Node30&#45;&gt;Node31</title>
<path fill="none" stroke="midnightblue" d="M944.251,-78.1921C952.688,-78.1921 961.371,-78.1921 970.111,-78.1921"/>
<polygon fill="midnightblue" stroke="midnightblue" points="970.386,-81.6922 980.386,-78.1921 970.386,-74.6922 970.386,-81.6922"/>
</g>
<!-- Node33 -->
<g id="node71" class="node"><title>Node33</title>
<a xlink:href="class_cache_system.html#abb9382582ecfda71e456008e48eef3af" target="_top" xlink:title="CacheSystem::parseKnownFilesOneRG">
<polygon fill="white" stroke="black" points="1000.5,-27.6921 1000.5,-48.6921 1193.5,-48.6921 1193.5,-27.6921 1000.5,-27.6921"/>
<text text-anchor="middle" x="1097" y="-35.6921" font-family="Helvetica,sans-Serif" font-size="10.00">CacheSystem::parseKnownFilesOneRG</text>
</a>
</g>
<!-- Node30&#45;&gt;Node33 -->
<g id="edge76" class="edge"><title>Node30&#45;&gt;Node33</title>
<path fill="none" stroke="midnightblue" d="M921.532,-67.6826C953.11,-62.3754 991.593,-55.9075 1024.47,-50.3828"/>
<polygon fill="midnightblue" stroke="midnightblue" points="1025.19,-53.8099 1034.47,-48.7008 1024.03,-46.9068 1025.19,-53.8099"/>
</g>
<!-- Node31&#45;&gt;Node27 -->
<g id="edge72" class="edge"><title>Node31&#45;&gt;Node27</title>
<path fill="none" stroke="midnightblue" d="M1158.07,-88.6962C1176.28,-92.507 1196.13,-97.3445 1214,-103.192 1245.33,-113.446 1279.52,-129.365 1303,-141.081"/>
<polygon fill="midnightblue" stroke="midnightblue" points="1301.55,-144.272 1312.05,-145.659 1304.71,-138.024 1301.55,-144.272"/>
</g>
<!-- Node32 -->
<g id="node69" class="node"><title>Node32</title>
<a xlink:href="class_cache_system.html#a3edd3d66646d444d6065d8dd7e1ac622" target="_top" xlink:title="CacheSystem::addFile">
<polygon fill="white" stroke="black" points="1450,-27.6921 1450,-48.6921 1566,-48.6921 1566,-27.6921 1450,-27.6921"/>
<text text-anchor="middle" x="1508" y="-35.6921" font-family="Helvetica,sans-Serif" font-size="10.00">CacheSystem::addFile</text>
</a>
</g>
<!-- Node31&#45;&gt;Node32 -->
<g id="edge74" class="edge"><title>Node31&#45;&gt;Node32</title>
<path fill="none" stroke="midnightblue" d="M1213.71,-74.921C1273.77,-72.2036 1348.03,-67.2414 1414,-58.1921 1427.3,-56.3672 1441.53,-53.7128 1454.79,-50.9311"/>
<polygon fill="midnightblue" stroke="midnightblue" points="1455.67,-54.3215 1464.71,-48.7906 1454.2,-47.479 1455.67,-54.3215"/>
</g>
<!-- Node34 -->
<g id="node73" class="node"><title>Node34</title>
<a xlink:href="class_cache_system.html#a6a83b6a74cf941ba418037daf7bc3759" target="_top" xlink:title="CacheSystem::parseFilesOneRG">
<polygon fill="white" stroke="black" points="1250.5,-27.6921 1250.5,-48.6921 1413.5,-48.6921 1413.5,-27.6921 1250.5,-27.6921"/>
<text text-anchor="middle" x="1332" y="-35.6921" font-family="Helvetica,sans-Serif" font-size="10.00">CacheSystem::parseFilesOneRG</text>
</a>
</g>
<!-- Node33&#45;&gt;Node34 -->
<g id="edge78" class="edge"><title>Node33&#45;&gt;Node34</title>
<path fill="none" stroke="midnightblue" d="M1193.6,-38.1921C1208.93,-38.1921 1224.74,-38.1921 1239.96,-38.1921"/>
<polygon fill="midnightblue" stroke="midnightblue" points="1240.39,-41.6922 1250.39,-38.1921 1240.39,-34.6922 1240.39,-41.6922"/>
</g>
<!-- Node34&#45;&gt;Node32 -->
<g id="edge80" class="edge"><title>Node34&#45;&gt;Node32</title>
<path fill="none" stroke="midnightblue" d="M1413.56,-38.1921C1422.25,-38.1921 1431.03,-38.1921 1439.55,-38.1921"/>
<polygon fill="midnightblue" stroke="midnightblue" points="1439.8,-41.6922 1449.8,-38.1921 1439.8,-34.6922 1439.8,-41.6922"/>
</g>
<!-- Node36 -->
<g id="node78" class="node"><title>Node36</title>
<a xlink:href="class_cache_system.html#a781ef15649528f1e6f969d5bf1c258bd" target="_top" xlink:title="CacheSystem::checkForNewFiles">
<polygon fill="white" stroke="black" points="519.5,-27.6921 519.5,-48.6921 686.5,-48.6921 686.5,-27.6921 519.5,-27.6921"/>
<text text-anchor="middle" x="603" y="-35.6921" font-family="Helvetica,sans-Serif" font-size="10.00">CacheSystem::checkForNewFiles</text>
</a>
</g>
<!-- Node35&#45;&gt;Node36 -->
<g id="edge84" class="edge"><title>Node35&#45;&gt;Node36</title>
<path fill="none" stroke="midnightblue" d="M430.604,-50.9151C456.256,-49.022 483.817,-46.9879 509.213,-45.1137"/>
<polygon fill="midnightblue" stroke="midnightblue" points="509.487,-48.6031 519.202,-44.3765 508.972,-41.6221 509.487,-48.6031"/>
</g>
<!-- Node36&#45;&gt;Node32 -->
<g id="edge88" class="edge"><title>Node36&#45;&gt;Node32</title>
<path fill="none" stroke="midnightblue" d="M676.904,-27.6444C706.961,-23.8522 742.072,-20.0529 774,-18.1921 1057.96,-1.64254 1131.12,11.5687 1414,-18.1921 1428.29,-19.6952 1443.6,-22.4496 1457.63,-25.4436"/>
<polygon fill="midnightblue" stroke="midnightblue" points="1457.06,-28.9033 1467.58,-27.6516 1458.58,-22.0693 1457.06,-28.9033"/>
</g>
<!-- Node37 -->
<g id="node80" class="node"><title>Node37</title>
<a xlink:href="class_cache_system.html#ab44883c0f819a038f4a5acb4f8a2dfef" target="_top" xlink:title="CacheSystem::isFileInEntries">
<polygon fill="white" stroke="black" points="785.5,-27.6921 785.5,-48.6921 932.5,-48.6921 932.5,-27.6921 785.5,-27.6921"/>
<text text-anchor="middle" x="859" y="-35.6921" font-family="Helvetica,sans-Serif" font-size="10.00">CacheSystem::isFileInEntries</text>
</a>
</g>
<!-- Node36&#45;&gt;Node37 -->
<g id="edge86" class="edge"><title>Node36&#45;&gt;Node37</title>
<path fill="none" stroke="midnightblue" d="M686.824,-38.1921C715.136,-38.1921 746.735,-38.1921 775.056,-38.1921"/>
<polygon fill="midnightblue" stroke="midnightblue" points="775.33,-41.6922 785.33,-38.1921 775.33,-34.6922 775.33,-41.6922"/>
</g>
<!-- Node38&#45;&gt;Node3 -->
<g id="edge94" class="edge"><title>Node38&#45;&gt;Node3</title>
<path fill="none" stroke="midnightblue" d="M403.202,-663.683C439.623,-658.307 484.113,-651.74 521.857,-646.169"/>
<polygon fill="midnightblue" stroke="midnightblue" points="522.422,-649.624 531.803,-644.701 521.4,-642.699 522.422,-649.624"/>
</g>
<!-- Node39 -->
<g id="node87" class="node"><title>Node39</title>
<a xlink:href="struct_error_utils.html#aec73b03c7829838888bbecf9acda1b98" target="_top" xlink:title="ErrorUtils::ShowError">
<polygon fill="white" stroke="black" points="548,-743.692 548,-764.692 658,-764.692 658,-743.692 548,-743.692"/>
<text text-anchor="middle" x="603" y="-751.692" font-family="Helvetica,sans-Serif" font-size="10.00">ErrorUtils::ShowError</text>
</a>
</g>
<!-- Node38&#45;&gt;Node39 -->
<g id="edge96" class="edge"><title>Node38&#45;&gt;Node39</title>
<path fill="none" stroke="midnightblue" d="M351.644,-684.88C377.535,-698.488 424.861,-721.727 468,-734.192 490.305,-740.637 515.315,-745.078 537.69,-748.106"/>
<polygon fill="midnightblue" stroke="midnightblue" points="537.402,-751.597 547.766,-749.399 538.293,-744.654 537.402,-751.597"/>
</g>
<!-- Node41 -->
<g id="node91" class="node"><title>Node41</title>
<a xlink:href="namespace_profiler.html#af79bb59414ef3ba134213bb6f2f2d292" target="_top" xlink:title="Profiler::exit">
<polygon fill="white" stroke="black" points="568.5,-703.692 568.5,-724.692 637.5,-724.692 637.5,-703.692 568.5,-703.692"/>
<text text-anchor="middle" x="603" y="-711.692" font-family="Helvetica,sans-Serif" font-size="10.00">Profiler::exit</text>
</a>
</g>
<!-- Node38&#45;&gt;Node41 -->
<g id="edge100" class="edge"><title>Node38&#45;&gt;Node41</title>
<path fill="none" stroke="midnightblue" d="M403.202,-684.702C452.315,-691.951 516.099,-701.365 558.231,-707.584"/>
<polygon fill="midnightblue" stroke="midnightblue" points="557.787,-711.056 568.191,-709.054 558.809,-704.132 557.787,-711.056"/>
</g>
<!-- Node42 -->
<g id="node93" class="node"><title>Node42</title>
<a xlink:href="class_cache_system.html#abc3162d131888cb772c7c9b95f626cb2" target="_top" xlink:title="CacheSystem::formatEntry">
<polygon fill="white" stroke="black" points="535,-663.692 535,-684.692 671,-684.692 671,-663.692 535,-663.692"/>
<text text-anchor="middle" x="603" y="-671.692" font-family="Helvetica,sans-Serif" font-size="10.00">CacheSystem::formatEntry</text>
</a>
</g>
<!-- Node38&#45;&gt;Node42 -->
<g id="edge102" class="edge"><title>Node38&#45;&gt;Node42</title>
<path fill="none" stroke="midnightblue" d="M421.863,-674.192C455.09,-674.192 492.463,-674.192 524.594,-674.192"/>
<polygon fill="midnightblue" stroke="midnightblue" points="524.831,-677.692 534.831,-674.192 524.83,-670.692 524.831,-677.692"/>
</g>
<!-- Node40 -->
<g id="node89" class="node"><title>Node40</title>
<a xlink:href="struct_error_utils.html#a3250a36825c8b55b26d1565addb7e922" target="_top" xlink:title="ErrorUtils::ShowMsgBox">
<polygon fill="white" stroke="black" points="796.5,-743.692 796.5,-764.692 921.5,-764.692 921.5,-743.692 796.5,-743.692"/>
<text text-anchor="middle" x="859" y="-751.692" font-family="Helvetica,sans-Serif" font-size="10.00">ErrorUtils::ShowMsgBox</text>
</a>
</g>
<!-- Node39&#45;&gt;Node40 -->
<g id="edge98" class="edge"><title>Node39&#45;&gt;Node40</title>
<path fill="none" stroke="midnightblue" d="M658.233,-754.192C695.632,-754.192 745.441,-754.192 786.09,-754.192"/>
<polygon fill="midnightblue" stroke="midnightblue" points="786.214,-757.692 796.214,-754.192 786.214,-750.692 786.214,-757.692"/>
</g>
<!-- Node43 -->
<g id="node95" class="node"><title>Node43</title>
<a xlink:href="class_cache_system.html#ac06b01a5da9ef6e3ba0cac0438690dde" target="_top" xlink:title="CacheSystem::formatInnerEntry">
<polygon fill="white" stroke="black" points="780,-663.692 780,-684.692 938,-684.692 938,-663.692 780,-663.692"/>
<text text-anchor="middle" x="859" y="-671.692" font-family="Helvetica,sans-Serif" font-size="10.00">CacheSystem::formatInnerEntry</text>
</a>
</g>
<!-- Node42&#45;&gt;Node43 -->
<g id="edge104" class="edge"><title>Node42&#45;&gt;Node43</title>
<path fill="none" stroke="midnightblue" d="M671.267,-674.192C701.339,-674.192 737.081,-674.192 769.268,-674.192"/>
<polygon fill="midnightblue" stroke="midnightblue" points="769.582,-677.692 779.582,-674.192 769.582,-670.692 769.582,-677.692"/>
</g>
<!-- Node44 -->
<g id="node97" class="node"><title>Node44</title>
<a xlink:href="class_cache_system.html#a8435323b525de173677910c670291846" target="_top" xlink:title="CacheSystem::normalizeText">
<polygon fill="white" stroke="black" points="1024,-663.692 1024,-684.692 1170,-684.692 1170,-663.692 1024,-663.692"/>
<text text-anchor="middle" x="1097" y="-671.692" font-family="Helvetica,sans-Serif" font-size="10.00">CacheSystem::normalizeText</text>
</a>
</g>
<!-- Node43&#45;&gt;Node44 -->
<g id="edge106" class="edge"><title>Node43&#45;&gt;Node44</title>
<path fill="none" stroke="midnightblue" d="M938.251,-674.192C962.388,-674.192 988.99,-674.192 1013.41,-674.192"/>
<polygon fill="midnightblue" stroke="midnightblue" points="1013.72,-677.692 1023.72,-674.192 1013.72,-670.692 1013.72,-677.692"/>
</g>
</g>
</svg>
        <g id="navigator" transform="translate(0 0)" fill="#404254">
                <rect fill="#f2f5e9" fill-opacity="0.5" stroke="#606060" stroke-width=".5" x="0" y="0" width="60" height="60"/>
                <use id="zoomplus" xlink:href="#zoomPlus" x="17" y="9" onmousedown="handleZoom(evt,'in')"/>
                <use id="zoomminus" xlink:href="#zoomMin" x="42" y="9" onmousedown="handleZoom(evt,'out')"/>
                <use id="reset" xlink:href="#resetDef" x="30" y="36" onmousedown="handleReset()"/>
                <g id="arrowUp" xlink:href="#dirArrow" transform="translate(30 24)" onmousedown="handlePan(0,-1)">
                  <use xlink:href="#rim" fill="#404040">
                        <set attributeName="fill" to="#808080" begin="arrowUp.mouseover" end="arrowUp.mouseout"/>
                  </use>
                  <path fill="none" stroke="white" stroke-width="1.5" d="M0,-3.0v7 M-2.5,-0.5L0,-3.0L2.5,-0.5"/>
                </g>
                <g id="arrowRight" xlink:href="#dirArrow" transform="rotate(90) translate(36 -43)" onmousedown="handlePan(1,0)">
                  <use xlink:href="#rim" fill="#404040">
                        <set attributeName="fill" to="#808080" begin="arrowRight.mouseover" end="arrowRight.mouseout"/>
                  </use>
                  <path fill="none" stroke="white" stroke-width="1.5" d="M0,-3.0v7 M-2.5,-0.5L0,-3.0L2.5,-0.5"/>
                </g>
                <g id="arrowDown" xlink:href="#dirArrow" transform="rotate(180) translate(-30 -48)" onmousedown="handlePan(0,1)">
                  <use xlink:href="#rim" fill="#404040">
                        <set attributeName="fill" to="#808080" begin="arrowDown.mouseover" end="arrowDown.mouseout"/>
                  </use>
                  <path fill="none" stroke="white" stroke-width="1.5" d="M0,-3.0v7 M-2.5,-0.5L0,-3.0L2.5,-0.5"/>
                </g>
                <g id="arrowLeft" xlink:href="#dirArrow" transform="rotate(270) translate(-36 17)" onmousedown="handlePan(-1,0)">
                  <use xlink:href="#rim" fill="#404040">
                        <set attributeName="fill" to="#808080" begin="arrowLeft.mouseover" end="arrowLeft.mouseout"/>
                  </use>
                  <path fill="none" stroke="white" stroke-width="1.5" d="M0,-3.0v7 M-2.5,-0.5L0,-3.0L2.5,-0.5"/>
                </g>
        </g>
</svg>
