<?xml version="1.0" encoding="UTF-8" standalone="no"?>
<!DOCTYPE svg PUBLIC "-//W3C//DTD SVG 1.1//EN"
 "http://www.w3.org/Graphics/SVG/1.1/DTD/svg11.dtd">
<!-- Generated by graphviz version 2.26.3 (20100126.1600)
 -->
<!-- Title: G Pages: 1 -->
<!--zoomable 70 -->
<svg id="main" version="1.1" xmlns="http://www.w3.org/2000/svg" xmlns:xlink="http://www.w3.org/1999/xlink" xml:space="preserve" onload="init(evt)">
        <defs>
                <circle id="rim" cx="0" cy="0" r="7"/>
                <circle id="rim2" cx="0" cy="0" r="3.5"/>
                <g id="zoomPlus">
                        <use xlink:href="#rim" fill="#404040">
                                <set attributeName="fill" to="#808080" begin="zoomplus.mouseover" end="zoomplus.mouseout"/>
                        </use>
                        <path d="M-4,0h8M0,-4v8" fill="none" stroke="white" stroke-width="1.5" pointer-events="none"/>
                </g>
                <g id="zoomMin">
                        <use xlink:href="#rim" fill="#404040">
                                <set attributeName="fill" to="#808080" begin="zoomminus.mouseover" end="zoomminus.mouseout"/>
                        </use>
                        <path d="M-4,0h8" fill="none" stroke="white" stroke-width="1.5" pointer-events="none"/>
                </g>
                <g id="dirArrow">
                        <path fill="none" stroke="white" stroke-width="1.5" d="M0,-3.0v7 M-2.5,-0.5L0,-3.0L2.5,-0.5"/>
                </g>
               <g id="resetDef">
                       <use xlink:href="#rim2" fill="#404040">
                               <set attributeName="fill" to="#808080" begin="reset.mouseover" end="reset.mouseout"/>
                       </use>
               </g>
        </defs>

<script type="text/javascript">
var viewWidth = 1340;
var viewHeight = 70;
var sectionId = 'dynsection-24';
</script>
<script xlink:href="svgpan.js"/>
<svg id="graph" class="graph">
<g id="viewport">
<title>G</title>
<polygon fill="white" stroke="white" points="-4,5 -4,-66 1337,-66 1337,5 -4,5"/>
<!-- Node1 -->
<g id="node1" class="node"><title>Node1</title>
<polygon fill="#bfbfbf" stroke="black" points="0.5,-20.5 0.5,-41.5 171.5,-41.5 171.5,-20.5 0.5,-20.5"/>
<text text-anchor="middle" x="86" y="-28.5" font-family="Helvetica,sans-Serif" font-size="10.00">Hydrax::GodRaysManager::remove</text>
</g>
<!-- Node2 -->
<g id="node3" class="node"><title>Node2</title>
<a xlink:href="class_hydrax_1_1_hydrax.html#a02c9bf8f5576332fc836b4929e738529" target="_top" xlink:title="Hydrax::Hydrax::remove">
<polygon fill="white" stroke="black" points="227,-40.5 227,-61.5 351,-61.5 351,-40.5 227,-40.5"/>
<text text-anchor="middle" x="289" y="-48.5" font-family="Helvetica,sans-Serif" font-size="10.00">Hydrax::Hydrax::remove</text>
</a>
</g>
<!-- Node1&#45;&gt;Node2 -->
<g id="edge2" class="edge"><title>Node1&#45;&gt;Node2</title>
<path fill="none" stroke="midnightblue" d="M181.546,-40.4134C196.893,-41.9254 212.422,-43.4554 226.723,-44.8644"/>
<polygon fill="midnightblue" stroke="midnightblue" points="181.797,-36.9213 171.502,-39.4238 181.111,-43.8875 181.797,-36.9213"/>
</g>
<!-- Node4 -->
<g id="node7" class="node"><title>Node4</title>
<a xlink:href="class_hydrax_1_1_hydrax.html#a6fbd6d0808443ba1d2d7569ac6b27583" target="_top" xlink:title="Hydrax::Hydrax::setComponents">
<polygon fill="white" stroke="black" points="208.5,-0.5 208.5,-21.5 369.5,-21.5 369.5,-0.5 208.5,-0.5"/>
<text text-anchor="middle" x="289" y="-8.5" font-family="Helvetica,sans-Serif" font-size="10.00">Hydrax::Hydrax::setComponents</text>
</a>
</g>
<!-- Node1&#45;&gt;Node4 -->
<g id="edge6" class="edge"><title>Node1&#45;&gt;Node4</title>
<path fill="none" stroke="midnightblue" d="M181.602,-21.581C190.585,-20.696 199.63,-19.8049 208.454,-18.9356"/>
<polygon fill="midnightblue" stroke="midnightblue" points="181.111,-18.1125 171.502,-22.5762 181.797,-25.0787 181.111,-18.1125"/>
</g>
<!-- Node3 -->
<g id="node5" class="node"><title>Node3</title>
<a xlink:href="class_hydrax_water.html#ac4de588fe8ff6d0df6fec45c19521dd4" target="_top" xlink:title="HydraxWater::~HydraxWater">
<polygon fill="white" stroke="black" points="456,-40.5 456,-61.5 600,-61.5 600,-40.5 456,-40.5"/>
<text text-anchor="middle" x="528" y="-48.5" font-family="Helvetica,sans-Serif" font-size="10.00">HydraxWater::~HydraxWater</text>
</a>
</g>
<!-- Node2&#45;&gt;Node3 -->
<g id="edge4" class="edge"><title>Node2&#45;&gt;Node3</title>
<path fill="none" stroke="midnightblue" d="M361.549,-51C391.486,-51 426.097,-51 455.978,-51"/>
<polygon fill="midnightblue" stroke="midnightblue" points="361.171,-47.5001 351.171,-51 361.17,-54.5001 361.171,-47.5001"/>
</g>
<!-- Node5 -->
<g id="node9" class="node"><title>Node5</title>
<a xlink:href="class_hydrax_1_1_cfg_file_manager.html#a6717ef4e731b3c22d71260aaa6d0336a" target="_top" xlink:title="Hydrax::CfgFileManager::_loadComponentsSettings">
<polygon fill="white" stroke="black" points="406,-0.5 406,-21.5 650,-21.5 650,-0.5 406,-0.5"/>
<text text-anchor="middle" x="528" y="-8.5" font-family="Helvetica,sans-Serif" font-size="10.00">Hydrax::CfgFileManager::_loadComponentsSettings</text>
</a>
</g>
<!-- Node4&#45;&gt;Node5 -->
<g id="edge8" class="edge"><title>Node4&#45;&gt;Node5</title>
<path fill="none" stroke="midnightblue" d="M379.814,-11C388.297,-11 396.985,-11 405.693,-11"/>
<polygon fill="midnightblue" stroke="midnightblue" points="379.581,-7.5001 369.581,-11 379.581,-14.5001 379.581,-7.5001"/>
</g>
<!-- Node6 -->
<g id="node11" class="node"><title>Node6</title>
<a xlink:href="class_hydrax_1_1_cfg_file_manager.html#a7d283a6b6b61ad70292c7cb24cd3543c" target="_top" xlink:title="Hydrax::CfgFileManager::load">
<polygon fill="white" stroke="black" points="686.5,-0.5 686.5,-21.5 833.5,-21.5 833.5,-0.5 686.5,-0.5"/>
<text text-anchor="middle" x="760" y="-8.5" font-family="Helvetica,sans-Serif" font-size="10.00">Hydrax::CfgFileManager::load</text>
</a>
</g>
<!-- Node5&#45;&gt;Node6 -->
<g id="edge10" class="edge"><title>Node5&#45;&gt;Node6</title>
<path fill="none" stroke="midnightblue" d="M660.201,-11C669.097,-11 677.862,-11 686.284,-11"/>
<polygon fill="midnightblue" stroke="midnightblue" points="660.115,-7.5001 650.115,-11 660.115,-14.5001 660.115,-7.5001"/>
</g>
<!-- Node7 -->
<g id="node13" class="node"><title>Node7</title>
<a xlink:href="class_hydrax_1_1_hydrax.html#a1a9a011581dc097e3928511632b534da" target="_top" xlink:title="Hydrax::Hydrax::loadCfg">
<polygon fill="white" stroke="black" points="870.5,-0.5 870.5,-21.5 995.5,-21.5 995.5,-0.5 870.5,-0.5"/>
<text text-anchor="middle" x="933" y="-8.5" font-family="Helvetica,sans-Serif" font-size="10.00">Hydrax::Hydrax::loadCfg</text>
</a>
</g>
<!-- Node6&#45;&gt;Node7 -->
<g id="edge12" class="edge"><title>Node6&#45;&gt;Node7</title>
<path fill="none" stroke="midnightblue" d="M843.71,-11C852.682,-11 861.694,-11 870.359,-11"/>
<polygon fill="midnightblue" stroke="midnightblue" points="843.618,-7.5001 833.618,-11 843.618,-14.5001 843.618,-7.5001"/>
</g>
<!-- Node8 -->
<g id="node15" class="node"><title>Node8</title>
<a xlink:href="class_hydrax_water.html#aedfd9537f96021b60a195b2bb6a9ee2d" target="_top" xlink:title="HydraxWater::InitHydrax">
<polygon fill="white" stroke="black" points="1032.5,-0.5 1032.5,-21.5 1157.5,-21.5 1157.5,-0.5 1032.5,-0.5"/>
<text text-anchor="middle" x="1095" y="-8.5" font-family="Helvetica,sans-Serif" font-size="10.00">HydraxWater::InitHydrax</text>
</a>
</g>
<!-- Node7&#45;&gt;Node8 -->
<g id="edge14" class="edge"><title>Node7&#45;&gt;Node8</title>
<path fill="none" stroke="midnightblue" d="M1005.89,-11C1014.69,-11 1023.62,-11 1032.27,-11"/>
<polygon fill="midnightblue" stroke="midnightblue" points="1005.63,-7.5001 995.633,-11 1005.63,-14.5001 1005.63,-7.5001"/>
</g>
<!-- Node9 -->
<g id="node17" class="node"><title>Node9</title>
<a xlink:href="class_hydrax_water.html#a20bb0db860124c8e18903f5d640f88db" target="_top" xlink:title="HydraxWater::HydraxWater">
<polygon fill="white" stroke="black" points="1194,-0.5 1194,-21.5 1332,-21.5 1332,-0.5 1194,-0.5"/>
<text text-anchor="middle" x="1263" y="-8.5" font-family="Helvetica,sans-Serif" font-size="10.00">HydraxWater::HydraxWater</text>
</a>
</g>
<!-- Node8&#45;&gt;Node9 -->
<g id="edge16" class="edge"><title>Node8&#45;&gt;Node9</title>
<path fill="none" stroke="midnightblue" d="M1167.68,-11C1176.38,-11 1185.25,-11 1193.9,-11"/>
<polygon fill="midnightblue" stroke="midnightblue" points="1167.56,-7.5001 1157.56,-11 1167.56,-14.5001 1167.56,-7.5001"/>
</g>
</g>
</svg>
        <g id="navigator" transform="translate(0 0)" fill="#404254">
                <rect fill="#f2f5e9" fill-opacity="0.5" stroke="#606060" stroke-width=".5" x="0" y="0" width="60" height="60"/>
                <use id="zoomplus" xlink:href="#zoomPlus" x="17" y="9" onmousedown="handleZoom(evt,'in')"/>
                <use id="zoomminus" xlink:href="#zoomMin" x="42" y="9" onmousedown="handleZoom(evt,'out')"/>
                <use id="reset" xlink:href="#resetDef" x="30" y="36" onmousedown="handleReset()"/>
                <g id="arrowUp" xlink:href="#dirArrow" transform="translate(30 24)" onmousedown="handlePan(0,-1)">
                  <use xlink:href="#rim" fill="#404040">
                        <set attributeName="fill" to="#808080" begin="arrowUp.mouseover" end="arrowUp.mouseout"/>
                  </use>
                  <path fill="none" stroke="white" stroke-width="1.5" d="M0,-3.0v7 M-2.5,-0.5L0,-3.0L2.5,-0.5"/>
                </g>
                <g id="arrowRight" xlink:href="#dirArrow" transform="rotate(90) translate(36 -43)" onmousedown="handlePan(1,0)">
                  <use xlink:href="#rim" fill="#404040">
                        <set attributeName="fill" to="#808080" begin="arrowRight.mouseover" end="arrowRight.mouseout"/>
                  </use>
                  <path fill="none" stroke="white" stroke-width="1.5" d="M0,-3.0v7 M-2.5,-0.5L0,-3.0L2.5,-0.5"/>
                </g>
                <g id="arrowDown" xlink:href="#dirArrow" transform="rotate(180) translate(-30 -48)" onmousedown="handlePan(0,1)">
                  <use xlink:href="#rim" fill="#404040">
                        <set attributeName="fill" to="#808080" begin="arrowDown.mouseover" end="arrowDown.mouseout"/>
                  </use>
                  <path fill="none" stroke="white" stroke-width="1.5" d="M0,-3.0v7 M-2.5,-0.5L0,-3.0L2.5,-0.5"/>
                </g>
                <g id="arrowLeft" xlink:href="#dirArrow" transform="rotate(270) translate(-36 17)" onmousedown="handlePan(-1,0)">
                  <use xlink:href="#rim" fill="#404040">
                        <set attributeName="fill" to="#808080" begin="arrowLeft.mouseover" end="arrowLeft.mouseout"/>
                  </use>
                  <path fill="none" stroke="white" stroke-width="1.5" d="M0,-3.0v7 M-2.5,-0.5L0,-3.0L2.5,-0.5"/>
                </g>
        </g>
</svg>
