<?xml version="1.0" encoding="UTF-8" standalone="no"?>
<!DOCTYPE svg PUBLIC "-//W3C//DTD SVG 1.1//EN"
 "http://www.w3.org/Graphics/SVG/1.1/DTD/svg11.dtd">
<!-- Generated by graphviz version 2.26.3 (20100126.1600)
 -->
<!-- Title: RoRSingletonNoCreation::getSingletonPtr Pages: 1 -->
<svg width="328pt" height="42pt"
 viewBox="0.00 0.00 328.00 42.00" xmlns="http://www.w3.org/2000/svg" xmlns:xlink="http://www.w3.org/1999/xlink">
<g id="graph1" class="graph" transform="scale(1 1) rotate(0) translate(4 38)">
<title>RoRSingletonNoCreation::getSingletonPtr</title>
<polygon fill="white" stroke="white" points="-4,5 -4,-38 325,-38 325,5 -4,5"/>
<!-- Node1 -->
<g id="node1" class="node"><title>Node1</title>
<polygon fill="#bfbfbf" stroke="black" points="0.5,-0 0.5,-34 127.5,-34 127.5,-0 0.5,-0"/>
<text text-anchor="start" x="8.5" y="-21" font-family="Helvetica,sans-Serif" font-size="10.00">RoRSingletonNoCreation</text>
<text text-anchor="middle" x="64" y="-8" font-family="Helvetica,sans-Serif" font-size="10.00">::getSingletonPtr</text>
</g>
<!-- Node2 -->
<g id="node3" class="node"><title>Node2</title>
<a xlink:href="class_ro_r_singleton_no_creation.html#a598afa8be8fe2b4be13200cc806c5ae5" target="_top" xlink:title="RoRSingletonNoCreation\l\&lt; DustManager \&gt;::freeSingleton">
<polygon fill="white" stroke="black" points="164,-0 164,-34 320,-34 320,-0 164,-0"/>
<text text-anchor="start" x="172" y="-21" font-family="Helvetica,sans-Serif" font-size="10.00">RoRSingletonNoCreation</text>
<text text-anchor="middle" x="242" y="-8" font-family="Helvetica,sans-Serif" font-size="10.00">&lt; DustManager &gt;::freeSingleton</text>
</a>
</g>
<!-- Node1&#45;&gt;Node2 -->
<g id="edge2" class="edge"><title>Node1&#45;&gt;Node2</title>
<path fill="none" stroke="midnightblue" d="M137.583,-17C146.261,-17 155.141,-17 163.879,-17"/>
<polygon fill="midnightblue" stroke="midnightblue" points="137.508,-13.5001 127.508,-17 137.508,-20.5001 137.508,-13.5001"/>
</g>
</g>
</svg>
