<?xml version="1.0" encoding="UTF-8" standalone="no"?>
<!DOCTYPE svg PUBLIC "-//W3C//DTD SVG 1.1//EN"
 "http://www.w3.org/Graphics/SVG/1.1/DTD/svg11.dtd">
<!-- Generated by graphviz version 2.26.3 (20100126.1600)
 -->
<!-- Title: RoR::FlexFactory::CheckAndLoadFlexbodyCache Pages: 1 -->
<svg width="634pt" height="458pt"
 viewBox="0.00 0.00 634.00 458.00" xmlns="http://www.w3.org/2000/svg" xmlns:xlink="http://www.w3.org/1999/xlink">
<g id="graph1" class="graph" transform="scale(1 1) rotate(0) translate(4 454)">
<title>RoR::FlexFactory::CheckAndLoadFlexbodyCache</title>
<polygon fill="white" stroke="white" points="-4,5 -4,-454 631,-454 631,5 -4,5"/>
<!-- Node1 -->
<g id="node1" class="node"><title>Node1</title>
<polygon fill="#bfbfbf" stroke="black" points="0,-208 0,-242 146,-242 146,-208 0,-208"/>
<text text-anchor="start" x="8" y="-229" font-family="Helvetica,sans-Serif" font-size="10.00">RoR::FlexFactory::CheckAnd</text>
<text text-anchor="middle" x="73" y="-216" font-family="Helvetica,sans-Serif" font-size="10.00">LoadFlexbodyCache</text>
</g>
<!-- Node2 -->
<g id="node3" class="node"><title>Node2</title>
<a xlink:href="class_ro_r_1_1_flex_body_file_i_o.html#a15b2a2c4b29760c79423048ddad75d15" target="_top" xlink:title="RoR::FlexBodyFileIO\l::LoadFile">
<polygon fill="white" stroke="black" points="182,-208 182,-242 292,-242 292,-208 182,-208"/>
<text text-anchor="start" x="190" y="-229" font-family="Helvetica,sans-Serif" font-size="10.00">RoR::FlexBodyFileIO</text>
<text text-anchor="middle" x="237" y="-216" font-family="Helvetica,sans-Serif" font-size="10.00">::LoadFile</text>
</a>
</g>
<!-- Node1&#45;&gt;Node2 -->
<g id="edge2" class="edge"><title>Node1&#45;&gt;Node2</title>
<path fill="none" stroke="midnightblue" d="M146.366,-225C154.854,-225 163.468,-225 171.836,-225"/>
<polygon fill="midnightblue" stroke="midnightblue" points="171.899,-228.5 181.898,-225 171.898,-221.5 171.899,-228.5"/>
</g>
<!-- Node3 -->
<g id="node5" class="node"><title>Node3</title>
<a xlink:href="class_ro_r_1_1_flex_body_file_i_o.html#a0aef6c2ebcf56fe8c98d0dc9184b88dd" target="_top" xlink:title="RoR::FlexBodyFileIO\l::OpenFile">
<polygon fill="white" stroke="black" points="349,-416 349,-450 459,-450 459,-416 349,-416"/>
<text text-anchor="start" x="357" y="-437" font-family="Helvetica,sans-Serif" font-size="10.00">RoR::FlexBodyFileIO</text>
<text text-anchor="middle" x="404" y="-424" font-family="Helvetica,sans-Serif" font-size="10.00">::OpenFile</text>
</a>
</g>
<!-- Node2&#45;&gt;Node3 -->
<g id="edge4" class="edge"><title>Node2&#45;&gt;Node3</title>
<path fill="none" stroke="midnightblue" d="M240.924,-242.246C249.961,-278.11 275.605,-361.195 328,-407 331.616,-410.161 335.634,-412.942 339.881,-415.388"/>
<polygon fill="midnightblue" stroke="midnightblue" points="338.363,-418.543 348.864,-419.953 341.534,-412.302 338.363,-418.543"/>
</g>
<!-- Node4 -->
<g id="node7" class="node"><title>Node4</title>
<a xlink:href="class_ro_r_1_1_flex_body_file_i_o.html#ad7596537ce96708d989b0ca0d26cd717" target="_top" xlink:title="RoR::FlexBodyFileIO\l::ReadAndCheckSignature">
<polygon fill="white" stroke="black" points="337.5,-364 337.5,-398 470.5,-398 470.5,-364 337.5,-364"/>
<text text-anchor="start" x="345.5" y="-385" font-family="Helvetica,sans-Serif" font-size="10.00">RoR::FlexBodyFileIO</text>
<text text-anchor="middle" x="404" y="-372" font-family="Helvetica,sans-Serif" font-size="10.00">::ReadAndCheckSignature</text>
</a>
</g>
<!-- Node2&#45;&gt;Node4 -->
<g id="edge6" class="edge"><title>Node2&#45;&gt;Node4</title>
<path fill="none" stroke="midnightblue" d="M244.717,-242.383C257.883,-270.117 287.268,-324.365 328,-355 329.811,-356.362 331.698,-357.656 333.645,-358.885"/>
<polygon fill="midnightblue" stroke="midnightblue" points="332.075,-362.018 342.508,-363.867 335.505,-355.916 332.075,-362.018"/>
</g>
<!-- Node6 -->
<g id="node11" class="node"><title>Node6</title>
<a xlink:href="class_ro_r_1_1_flex_body_file_i_o.html#aa99439ff3beb0e8d11ff91b6d0fb2d04" target="_top" xlink:title="RoR::FlexBodyFileIO\l::ReadMetadata">
<polygon fill="white" stroke="black" points="349,-312 349,-346 459,-346 459,-312 349,-312"/>
<text text-anchor="start" x="357" y="-333" font-family="Helvetica,sans-Serif" font-size="10.00">RoR::FlexBodyFileIO</text>
<text text-anchor="middle" x="404" y="-320" font-family="Helvetica,sans-Serif" font-size="10.00">::ReadMetadata</text>
</a>
</g>
<!-- Node2&#45;&gt;Node6 -->
<g id="edge10" class="edge"><title>Node2&#45;&gt;Node6</title>
<path fill="none" stroke="midnightblue" d="M252.959,-242.062C270.065,-259.483 298.732,-286.276 328,-303 331.678,-305.101 335.553,-307.07 339.526,-308.908"/>
<polygon fill="midnightblue" stroke="midnightblue" points="338.362,-312.218 348.931,-312.961 341.132,-305.789 338.362,-312.218"/>
</g>
<!-- Node7 -->
<g id="node14" class="node"><title>Node7</title>
<a xlink:href="class_ro_r_1_1_flex_body_file_i_o.html#a62dcc5c05db5f72fb2c20b86224768d3" target="_top" xlink:title="RoR::FlexBodyFileIO\l::ReadFlexbodyHeader">
<polygon fill="white" stroke="black" points="345.5,-260 345.5,-294 462.5,-294 462.5,-260 345.5,-260"/>
<text text-anchor="start" x="353.5" y="-281" font-family="Helvetica,sans-Serif" font-size="10.00">RoR::FlexBodyFileIO</text>
<text text-anchor="middle" x="404" y="-268" font-family="Helvetica,sans-Serif" font-size="10.00">::ReadFlexbodyHeader</text>
</a>
</g>
<!-- Node2&#45;&gt;Node7 -->
<g id="edge14" class="edge"><title>Node2&#45;&gt;Node7</title>
<path fill="none" stroke="midnightblue" d="M291.682,-242.027C306.965,-246.785 323.715,-252.001 339.508,-256.919"/>
<polygon fill="midnightblue" stroke="midnightblue" points="338.607,-260.304 349.195,-259.935 340.688,-253.62 338.607,-260.304"/>
</g>
<!-- Node8 -->
<g id="node17" class="node"><title>Node8</title>
<a xlink:href="class_ro_r_1_1_flex_body_file_i_o.html#a8873314513c65589a2cdb494a8c6d4c2" target="_top" xlink:title="RoR::FlexBodyFileIO\l::ReadFlexbodyLocatorList">
<polygon fill="white" stroke="black" points="337,-208 337,-242 471,-242 471,-208 337,-208"/>
<text text-anchor="start" x="345" y="-229" font-family="Helvetica,sans-Serif" font-size="10.00">RoR::FlexBodyFileIO</text>
<text text-anchor="middle" x="404" y="-216" font-family="Helvetica,sans-Serif" font-size="10.00">::ReadFlexbodyLocatorList</text>
</a>
</g>
<!-- Node2&#45;&gt;Node8 -->
<g id="edge18" class="edge"><title>Node2&#45;&gt;Node8</title>
<path fill="none" stroke="midnightblue" d="M292.145,-225C303.241,-225 315.094,-225 326.783,-225"/>
<polygon fill="midnightblue" stroke="midnightblue" points="326.989,-228.5 336.989,-225 326.989,-221.5 326.989,-228.5"/>
</g>
<!-- Node9 -->
<g id="node20" class="node"><title>Node9</title>
<a xlink:href="class_ro_r_1_1_flex_body_file_i_o.html#a091647217070067ab169435c8cdc93ae" target="_top" xlink:title="RoR::FlexBodyFileIO\l::ReadFlexbodyPositionsBuffer">
<polygon fill="white" stroke="black" points="328,-156 328,-190 480,-190 480,-156 328,-156"/>
<text text-anchor="start" x="336" y="-177" font-family="Helvetica,sans-Serif" font-size="10.00">RoR::FlexBodyFileIO</text>
<text text-anchor="middle" x="404" y="-164" font-family="Helvetica,sans-Serif" font-size="10.00">::ReadFlexbodyPositionsBuffer</text>
</a>
</g>
<!-- Node2&#45;&gt;Node9 -->
<g id="edge22" class="edge"><title>Node2&#45;&gt;Node9</title>
<path fill="none" stroke="midnightblue" d="M291.682,-207.973C306.965,-203.215 323.715,-197.999 339.508,-193.081"/>
<polygon fill="midnightblue" stroke="midnightblue" points="340.688,-196.38 349.195,-190.065 338.607,-189.696 340.688,-196.38"/>
</g>
<!-- Node10 -->
<g id="node23" class="node"><title>Node10</title>
<a xlink:href="class_ro_r_1_1_flex_body_file_i_o.html#a5bc76a9247fd45cddff0531ea6785ffb" target="_top" xlink:title="RoR::FlexBodyFileIO\l::ReadFlexbodyNormalsBuffer">
<polygon fill="white" stroke="black" points="329.5,-104 329.5,-138 478.5,-138 478.5,-104 329.5,-104"/>
<text text-anchor="start" x="337.5" y="-125" font-family="Helvetica,sans-Serif" font-size="10.00">RoR::FlexBodyFileIO</text>
<text text-anchor="middle" x="404" y="-112" font-family="Helvetica,sans-Serif" font-size="10.00">::ReadFlexbodyNormalsBuffer</text>
</a>
</g>
<!-- Node2&#45;&gt;Node10 -->
<g id="edge26" class="edge"><title>Node2&#45;&gt;Node10</title>
<path fill="none" stroke="midnightblue" d="M252.959,-207.938C270.065,-190.517 298.732,-163.724 328,-147 330.997,-145.288 334.124,-143.663 337.33,-142.126"/>
<polygon fill="midnightblue" stroke="midnightblue" points="338.818,-145.295 346.524,-138.024 335.965,-138.902 338.818,-145.295"/>
</g>
<!-- Node11 -->
<g id="node26" class="node"><title>Node11</title>
<a xlink:href="class_ro_r_1_1_flex_body_file_i_o.html#a033e763b2abf97b328c5ab6541b62895" target="_top" xlink:title="RoR::FlexBodyFileIO\l::ReadFlexbodyColorsBuffer">
<polygon fill="white" stroke="black" points="334,-52 334,-86 474,-86 474,-52 334,-52"/>
<text text-anchor="start" x="342" y="-73" font-family="Helvetica,sans-Serif" font-size="10.00">RoR::FlexBodyFileIO</text>
<text text-anchor="middle" x="404" y="-60" font-family="Helvetica,sans-Serif" font-size="10.00">::ReadFlexbodyColorsBuffer</text>
</a>
</g>
<!-- Node2&#45;&gt;Node11 -->
<g id="edge30" class="edge"><title>Node2&#45;&gt;Node11</title>
<path fill="none" stroke="midnightblue" d="M244.717,-207.617C257.883,-179.883 287.268,-125.635 328,-95 329.811,-93.6379 331.698,-92.344 333.645,-91.115"/>
<polygon fill="midnightblue" stroke="midnightblue" points="335.505,-94.0844 342.508,-86.1332 332.075,-87.9824 335.505,-94.0844"/>
</g>
<!-- Node12 -->
<g id="node29" class="node"><title>Node12</title>
<a xlink:href="class_ro_r_1_1_flex_body_file_i_o.html#a035ffcc43e13e51e124730684a72a8a4" target="_top" xlink:title="RoR::FlexBodyFileIO\l::CloseFile">
<polygon fill="white" stroke="black" points="349,-0 349,-34 459,-34 459,-0 349,-0"/>
<text text-anchor="start" x="357" y="-21" font-family="Helvetica,sans-Serif" font-size="10.00">RoR::FlexBodyFileIO</text>
<text text-anchor="middle" x="404" y="-8" font-family="Helvetica,sans-Serif" font-size="10.00">::CloseFile</text>
</a>
</g>
<!-- Node2&#45;&gt;Node12 -->
<g id="edge34" class="edge"><title>Node2&#45;&gt;Node12</title>
<path fill="none" stroke="midnightblue" d="M240.924,-207.754C249.961,-171.89 275.605,-88.8046 328,-43 331.616,-39.8392 335.634,-37.0583 339.881,-34.6123"/>
<polygon fill="midnightblue" stroke="midnightblue" points="341.534,-37.698 348.864,-30.0474 338.363,-31.4575 341.534,-37.698"/>
</g>
<!-- Node5 -->
<g id="node9" class="node"><title>Node5</title>
<a xlink:href="class_ro_r_1_1_flex_body_file_i_o.html#a22e9556b5a02b1257eeefee8211e435d" target="_top" xlink:title="RoR::FlexBodyFileIO\l::ReadFromFile">
<polygon fill="white" stroke="black" points="516,-208 516,-242 626,-242 626,-208 516,-208"/>
<text text-anchor="start" x="524" y="-229" font-family="Helvetica,sans-Serif" font-size="10.00">RoR::FlexBodyFileIO</text>
<text text-anchor="middle" x="571" y="-216" font-family="Helvetica,sans-Serif" font-size="10.00">::ReadFromFile</text>
</a>
</g>
<!-- Node4&#45;&gt;Node5 -->
<g id="edge8" class="edge"><title>Node4&#45;&gt;Node5</title>
<path fill="none" stroke="midnightblue" d="M465.492,-363.867C470.622,-361.293 475.542,-358.353 480,-355 516.595,-327.477 544.031,-280.893 558.775,-251.601"/>
<polygon fill="midnightblue" stroke="midnightblue" points="562.034,-252.904 563.283,-242.383 555.745,-249.828 562.034,-252.904"/>
</g>
<!-- Node6&#45;&gt;Node5 -->
<g id="edge12" class="edge"><title>Node6&#45;&gt;Node5</title>
<path fill="none" stroke="midnightblue" d="M459.069,-312.961C466.3,-310.053 473.462,-306.736 480,-303 505.381,-288.497 530.31,-266.423 547.639,-249.454"/>
<polygon fill="midnightblue" stroke="midnightblue" points="550.438,-251.605 555.041,-242.062 545.492,-246.652 550.438,-251.605"/>
</g>
<!-- Node7&#45;&gt;Node5 -->
<g id="edge16" class="edge"><title>Node7&#45;&gt;Node5</title>
<path fill="none" stroke="midnightblue" d="M458.682,-259.973C473.965,-255.215 490.715,-249.999 506.508,-245.081"/>
<polygon fill="midnightblue" stroke="midnightblue" points="507.688,-248.38 516.195,-242.065 505.607,-241.696 507.688,-248.38"/>
</g>
<!-- Node8&#45;&gt;Node5 -->
<g id="edge20" class="edge"><title>Node8&#45;&gt;Node5</title>
<path fill="none" stroke="midnightblue" d="M471.444,-225C482.741,-225 494.446,-225 505.688,-225"/>
<polygon fill="midnightblue" stroke="midnightblue" points="505.858,-228.5 515.858,-225 505.858,-221.5 505.858,-228.5"/>
</g>
<!-- Node9&#45;&gt;Node5 -->
<g id="edge24" class="edge"><title>Node9&#45;&gt;Node5</title>
<path fill="none" stroke="midnightblue" d="M458.682,-190.027C473.965,-194.785 490.715,-200.001 506.508,-204.919"/>
<polygon fill="midnightblue" stroke="midnightblue" points="505.607,-208.304 516.195,-207.935 507.688,-201.62 505.607,-208.304"/>
</g>
<!-- Node10&#45;&gt;Node5 -->
<g id="edge28" class="edge"><title>Node10&#45;&gt;Node5</title>
<path fill="none" stroke="midnightblue" d="M461.476,-138.024C467.884,-140.69 474.188,-143.679 480,-147 505.381,-161.503 530.31,-183.577 547.639,-200.546"/>
<polygon fill="midnightblue" stroke="midnightblue" points="545.492,-203.348 555.041,-207.938 550.438,-198.395 545.492,-203.348"/>
</g>
<!-- Node11&#45;&gt;Node5 -->
<g id="edge32" class="edge"><title>Node11&#45;&gt;Node5</title>
<path fill="none" stroke="midnightblue" d="M465.492,-86.1332C470.622,-88.7073 475.542,-91.6471 480,-95 516.595,-122.523 544.031,-169.107 558.775,-198.399"/>
<polygon fill="midnightblue" stroke="midnightblue" points="555.745,-200.172 563.283,-207.617 562.034,-197.096 555.745,-200.172"/>
</g>
</g>
</svg>
