<?xml version="1.0" encoding="UTF-8" standalone="no"?>
<!DOCTYPE svg PUBLIC "-//W3C//DTD SVG 1.1//EN"
 "http://www.w3.org/Graphics/SVG/1.1/DTD/svg11.dtd">
<!-- Generated by graphviz version 2.26.3 (20100126.1600)
 -->
<!-- Title: G Pages: 1 -->
<!--zoomable 70 -->
<svg id="main" version="1.1" xmlns="http://www.w3.org/2000/svg" xmlns:xlink="http://www.w3.org/1999/xlink" xml:space="preserve" onload="init(evt)">
        <defs>
                <circle id="rim" cx="0" cy="0" r="7"/>
                <circle id="rim2" cx="0" cy="0" r="3.5"/>
                <g id="zoomPlus">
                        <use xlink:href="#rim" fill="#404040">
                                <set attributeName="fill" to="#808080" begin="zoomplus.mouseover" end="zoomplus.mouseout"/>
                        </use>
                        <path d="M-4,0h8M0,-4v8" fill="none" stroke="white" stroke-width="1.5" pointer-events="none"/>
                </g>
                <g id="zoomMin">
                        <use xlink:href="#rim" fill="#404040">
                                <set attributeName="fill" to="#808080" begin="zoomminus.mouseover" end="zoomminus.mouseout"/>
                        </use>
                        <path d="M-4,0h8" fill="none" stroke="white" stroke-width="1.5" pointer-events="none"/>
                </g>
                <g id="dirArrow">
                        <path fill="none" stroke="white" stroke-width="1.5" d="M0,-3.0v7 M-2.5,-0.5L0,-3.0L2.5,-0.5"/>
                </g>
               <g id="resetDef">
                       <use xlink:href="#rim2" fill="#404040">
                               <set attributeName="fill" to="#808080" begin="reset.mouseover" end="reset.mouseout"/>
                       </use>
               </g>
        </defs>

<script type="text/javascript">
var viewWidth = 1468;
var viewHeight = 70;
var sectionId = 'dynsection-14';
</script>
<script xlink:href="svgpan.js"/>
<svg id="graph" class="graph">
<g id="viewport">
<title>G</title>
<polygon fill="white" stroke="white" points="-4,5 -4,-66 1465,-66 1465,5 -4,5"/>
<!-- Node1 -->
<g id="node1" class="node"><title>Node1</title>
<polygon fill="#bfbfbf" stroke="black" points="0.5,-20.5 0.5,-41.5 169.5,-41.5 169.5,-20.5 0.5,-20.5"/>
<text text-anchor="middle" x="85" y="-28.5" font-family="Helvetica,sans-Serif" font-size="10.00">RoR::RigEditor::Node::SetPosition</text>
</g>
<!-- Node2 -->
<g id="node3" class="node"><title>Node2</title>
<a xlink:href="class_ro_r_1_1_rig_editor_1_1_rig.html#a005f40c9e0cf3867bcdbe5f971ffae87" target="_top" xlink:title="RoR::RigEditor::Rig::SelectedNodesCancelPositionUpdates">
<polygon fill="white" stroke="black" points="206,-20.5 206,-41.5 486,-41.5 486,-20.5 206,-20.5"/>
<text text-anchor="middle" x="346" y="-28.5" font-family="Helvetica,sans-Serif" font-size="10.00">RoR::RigEditor::Rig::SelectedNodesCancelPositionUpdates</text>
</a>
</g>
<!-- Node1&#45;&gt;Node2 -->
<g id="edge2" class="edge"><title>Node1&#45;&gt;Node2</title>
<path fill="none" stroke="midnightblue" d="M179.936,-31C188.391,-31 197.062,-31 205.792,-31"/>
<polygon fill="midnightblue" stroke="midnightblue" points="179.739,-27.5001 169.739,-31 179.739,-34.5001 179.739,-27.5001"/>
</g>
<!-- Node3 -->
<g id="node5" class="node"><title>Node3</title>
<a xlink:href="class_ro_r_1_1_rig_editor_1_1_main.html#abe2179248ae5a8d9fc4a8ed136a18c46" target="_top" xlink:title="RoR::RigEditor::Main::UpdateMainLoop">
<polygon fill="white" stroke="black" points="522,-20.5 522,-41.5 712,-41.5 712,-20.5 522,-20.5"/>
<text text-anchor="middle" x="617" y="-28.5" font-family="Helvetica,sans-Serif" font-size="10.00">RoR::RigEditor::Main::UpdateMainLoop</text>
</a>
</g>
<!-- Node2&#45;&gt;Node3 -->
<g id="edge4" class="edge"><title>Node2&#45;&gt;Node3</title>
<path fill="none" stroke="midnightblue" d="M496.377,-31C504.968,-31 513.479,-31 521.768,-31"/>
<polygon fill="midnightblue" stroke="midnightblue" points="496.263,-27.5001 486.263,-31 496.263,-34.5001 496.263,-27.5001"/>
</g>
<!-- Node4 -->
<g id="node7" class="node"><title>Node4</title>
<a xlink:href="class_ro_r_1_1_rig_editor_1_1_main.html#a8cd11f0150b5e247b6d9f00212d42b0d" target="_top" xlink:title="RoR::RigEditor::Main::EnterMainLoop">
<polygon fill="white" stroke="black" points="748,-20.5 748,-41.5 930,-41.5 930,-20.5 748,-20.5"/>
<text text-anchor="middle" x="839" y="-28.5" font-family="Helvetica,sans-Serif" font-size="10.00">RoR::RigEditor::Main::EnterMainLoop</text>
</a>
</g>
<!-- Node3&#45;&gt;Node4 -->
<g id="edge6" class="edge"><title>Node3&#45;&gt;Node4</title>
<path fill="none" stroke="midnightblue" d="M722.189,-31C730.801,-31 739.459,-31 747.957,-31"/>
<polygon fill="midnightblue" stroke="midnightblue" points="722.114,-27.5001 712.114,-31 722.114,-34.5001 722.114,-27.5001"/>
</g>
<!-- Node5 -->
<g id="node9" class="node"><title>Node5</title>
<a xlink:href="class_ro_r_1_1_main_thread.html#a7e4d0bd23a40e509892883af75ea0dbf" target="_top" xlink:title="RoR::MainThread::Go">
<polygon fill="white" stroke="black" points="966.5,-20.5 966.5,-41.5 1079.5,-41.5 1079.5,-20.5 966.5,-20.5"/>
<text text-anchor="middle" x="1023" y="-28.5" font-family="Helvetica,sans-Serif" font-size="10.00">RoR::MainThread::Go</text>
</a>
</g>
<!-- Node4&#45;&gt;Node5 -->
<g id="edge8" class="edge"><title>Node4&#45;&gt;Node5</title>
<path fill="none" stroke="midnightblue" d="M940.333,-31C949.287,-31 958.122,-31 966.494,-31"/>
<polygon fill="midnightblue" stroke="midnightblue" points="940.191,-27.5001 930.191,-31 940.191,-34.5001 940.191,-27.5001"/>
</g>
<!-- Node6 -->
<g id="node11" class="node"><title>Node6</title>
<a xlink:href="main_2main__sim_2main_8cpp.html#a0ddf1224851353fc92bfbff6f499fa97" target="_top" xlink:title="main">
<polygon fill="white" stroke="black" points="1182,-40.5 1182,-61.5 1220,-61.5 1220,-40.5 1182,-40.5"/>
<text text-anchor="middle" x="1201" y="-48.5" font-family="Helvetica,sans-Serif" font-size="10.00">main</text>
</a>
</g>
<!-- Node5&#45;&gt;Node6 -->
<g id="edge10" class="edge"><title>Node5&#45;&gt;Node6</title>
<path fill="none" stroke="midnightblue" d="M1089.83,-38.5095C1122.65,-42.1966 1159.76,-46.3661 1181.72,-48.8341"/>
<polygon fill="midnightblue" stroke="midnightblue" points="1090.14,-35.0217 1079.81,-37.3831 1089.36,-41.9779 1090.14,-35.0217"/>
</g>
<!-- Node7 -->
<g id="node13" class="node"><title>Node7</title>
<a xlink:href="class_ro_r_1_1_main_thread.html#a7a2db954fd2f35d63982d8603d2b9614" target="_top" xlink:title="RoR::MainThread::RequestRestart">
<polygon fill="white" stroke="black" points="1116.5,-0.5 1116.5,-21.5 1285.5,-21.5 1285.5,-0.5 1116.5,-0.5"/>
<text text-anchor="middle" x="1201" y="-8.5" font-family="Helvetica,sans-Serif" font-size="10.00">RoR::MainThread::RequestRestart</text>
</a>
</g>
<!-- Node5&#45;&gt;Node7 -->
<g id="edge12" class="edge"><title>Node5&#45;&gt;Node7</title>
<path fill="none" stroke="midnightblue" d="M1089.78,-23.4972C1098.4,-22.5283 1107.32,-21.5259 1116.18,-20.5298"/>
<polygon fill="midnightblue" stroke="midnightblue" points="1089.36,-20.0221 1079.81,-24.6169 1090.14,-26.9783 1089.36,-20.0221"/>
</g>
<!-- Node8 -->
<g id="node15" class="node"><title>Node8</title>
<a xlink:href="class_ro_r_frame_listener.html#af2779b96aa0f91920bd100bc30261402" target="_top" xlink:title="RoRFrameListener::Restart">
<polygon fill="white" stroke="black" points="1322.5,-0.5 1322.5,-21.5 1459.5,-21.5 1459.5,-0.5 1322.5,-0.5"/>
<text text-anchor="middle" x="1391" y="-8.5" font-family="Helvetica,sans-Serif" font-size="10.00">RoRFrameListener::Restart</text>
</a>
</g>
<!-- Node7&#45;&gt;Node8 -->
<g id="edge14" class="edge"><title>Node7&#45;&gt;Node8</title>
<path fill="none" stroke="midnightblue" d="M1295.82,-11C1304.78,-11 1313.75,-11 1322.4,-11"/>
<polygon fill="midnightblue" stroke="midnightblue" points="1295.72,-7.5001 1285.72,-11 1295.72,-14.5001 1295.72,-7.5001"/>
</g>
</g>
</svg>
        <g id="navigator" transform="translate(0 0)" fill="#404254">
                <rect fill="#f2f5e9" fill-opacity="0.5" stroke="#606060" stroke-width=".5" x="0" y="0" width="60" height="60"/>
                <use id="zoomplus" xlink:href="#zoomPlus" x="17" y="9" onmousedown="handleZoom(evt,'in')"/>
                <use id="zoomminus" xlink:href="#zoomMin" x="42" y="9" onmousedown="handleZoom(evt,'out')"/>
                <use id="reset" xlink:href="#resetDef" x="30" y="36" onmousedown="handleReset()"/>
                <g id="arrowUp" xlink:href="#dirArrow" transform="translate(30 24)" onmousedown="handlePan(0,-1)">
                  <use xlink:href="#rim" fill="#404040">
                        <set attributeName="fill" to="#808080" begin="arrowUp.mouseover" end="arrowUp.mouseout"/>
                  </use>
                  <path fill="none" stroke="white" stroke-width="1.5" d="M0,-3.0v7 M-2.5,-0.5L0,-3.0L2.5,-0.5"/>
                </g>
                <g id="arrowRight" xlink:href="#dirArrow" transform="rotate(90) translate(36 -43)" onmousedown="handlePan(1,0)">
                  <use xlink:href="#rim" fill="#404040">
                        <set attributeName="fill" to="#808080" begin="arrowRight.mouseover" end="arrowRight.mouseout"/>
                  </use>
                  <path fill="none" stroke="white" stroke-width="1.5" d="M0,-3.0v7 M-2.5,-0.5L0,-3.0L2.5,-0.5"/>
                </g>
                <g id="arrowDown" xlink:href="#dirArrow" transform="rotate(180) translate(-30 -48)" onmousedown="handlePan(0,1)">
                  <use xlink:href="#rim" fill="#404040">
                        <set attributeName="fill" to="#808080" begin="arrowDown.mouseover" end="arrowDown.mouseout"/>
                  </use>
                  <path fill="none" stroke="white" stroke-width="1.5" d="M0,-3.0v7 M-2.5,-0.5L0,-3.0L2.5,-0.5"/>
                </g>
                <g id="arrowLeft" xlink:href="#dirArrow" transform="rotate(270) translate(-36 17)" onmousedown="handlePan(-1,0)">
                  <use xlink:href="#rim" fill="#404040">
                        <set attributeName="fill" to="#808080" begin="arrowLeft.mouseover" end="arrowLeft.mouseout"/>
                  </use>
                  <path fill="none" stroke="white" stroke-width="1.5" d="M0,-3.0v7 M-2.5,-0.5L0,-3.0L2.5,-0.5"/>
                </g>
        </g>
</svg>
