<?xml version="1.0" encoding="UTF-8" standalone="no"?>
<!DOCTYPE svg PUBLIC "-//W3C//DTD SVG 1.1//EN"
 "http://www.w3.org/Graphics/SVG/1.1/DTD/svg11.dtd">
<!-- Generated by graphviz version 2.26.3 (20100126.1600)
 -->
<!-- Title: IWater::setCamera Pages: 1 -->
<svg width="474pt" height="174pt"
 viewBox="0.00 0.00 474.00 174.00" xmlns="http://www.w3.org/2000/svg" xmlns:xlink="http://www.w3.org/1999/xlink">
<g id="graph1" class="graph" transform="scale(1 1) rotate(0) translate(4 170)">
<title>IWater::setCamera</title>
<polygon fill="white" stroke="white" points="-4,5 -4,-170 471,-170 471,5 -4,5"/>
<!-- Node1 -->
<g id="node1" class="node"><title>Node1</title>
<polygon fill="#bfbfbf" stroke="black" points="0,-81.5 0,-102.5 100,-102.5 100,-81.5 0,-81.5"/>
<text text-anchor="middle" x="50" y="-89.5" font-family="Helvetica,sans-Serif" font-size="10.00">IWater::setCamera</text>
</g>
<!-- Node2 -->
<g id="node3" class="node"><title>Node2</title>
<a xlink:href="class_ro_r_frame_listener.html#acd8647e188fb8e838689492965b86faf" target="_top" xlink:title="RoRFrameListener::frameStarted">
<polygon fill="white" stroke="black" points="136.5,-144.5 136.5,-165.5 297.5,-165.5 297.5,-144.5 136.5,-144.5"/>
<text text-anchor="middle" x="217" y="-152.5" font-family="Helvetica,sans-Serif" font-size="10.00">RoRFrameListener::frameStarted</text>
</a>
</g>
<!-- Node1&#45;&gt;Node2 -->
<g id="edge2" class="edge"><title>Node1&#45;&gt;Node2</title>
<path fill="none" stroke="midnightblue" d="M77.3577,-107.635C93.9218,-116.602 115.704,-127.525 136,-135 145.787,-138.604 156.475,-141.763 166.785,-144.442"/>
<polygon fill="midnightblue" stroke="midnightblue" points="78.7063,-104.382 68.2585,-102.623 75.3287,-110.513 78.7063,-104.382"/>
</g>
<!-- Node3 -->
<g id="node5" class="node"><title>Node3</title>
<a xlink:href="class_game_script.html#a7ae240958e42c6a02c3eab5cf1c0002f" target="_top" xlink:title="GameScript::setWaterHeight">
<polygon fill="white" stroke="black" points="145.5,-104.5 145.5,-125.5 288.5,-125.5 288.5,-104.5 145.5,-104.5"/>
<text text-anchor="middle" x="217" y="-112.5" font-family="Helvetica,sans-Serif" font-size="10.00">GameScript::setWaterHeight</text>
</a>
</g>
<!-- Node1&#45;&gt;Node3 -->
<g id="edge4" class="edge"><title>Node1&#45;&gt;Node3</title>
<path fill="none" stroke="midnightblue" d="M110.332,-100.309C121.686,-101.873 133.661,-103.522 145.321,-105.128"/>
<polygon fill="midnightblue" stroke="midnightblue" points="110.49,-96.7979 100.106,-98.9008 109.534,-103.732 110.49,-96.7979"/>
</g>
<!-- Node4 -->
<g id="node7" class="node"><title>Node4</title>
<a xlink:href="class_survey_map_texture_creator.html#aeeb03c9272b7b29ff6d346a9f4611dc5" target="_top" xlink:title="SurveyMapTextureCreator\l::preRenderTargetUpdate">
<polygon fill="white" stroke="black" points="151.5,-52 151.5,-86 282.5,-86 282.5,-52 151.5,-52"/>
<text text-anchor="start" x="159.5" y="-73" font-family="Helvetica,sans-Serif" font-size="10.00">SurveyMapTextureCreator</text>
<text text-anchor="middle" x="217" y="-60" font-family="Helvetica,sans-Serif" font-size="10.00">::preRenderTargetUpdate</text>
</a>
</g>
<!-- Node1&#45;&gt;Node4 -->
<g id="edge6" class="edge"><title>Node1&#45;&gt;Node4</title>
<path fill="none" stroke="midnightblue" d="M110.162,-83.7142C123.57,-81.8676 137.85,-79.9009 151.462,-78.0263"/>
<polygon fill="midnightblue" stroke="midnightblue" points="109.534,-80.2675 100.106,-85.0992 110.49,-87.2021 109.534,-80.2675"/>
</g>
<!-- Node6 -->
<g id="node11" class="node"><title>Node6</title>
<a xlink:href="class_survey_map_texture_creator.html#aeee3a35731188515be6a257bab889a84" target="_top" xlink:title="SurveyMapTextureCreator\l::postRenderTargetUpdate">
<polygon fill="white" stroke="black" points="151,-0 151,-34 283,-34 283,-0 151,-0"/>
<text text-anchor="start" x="159" y="-21" font-family="Helvetica,sans-Serif" font-size="10.00">SurveyMapTextureCreator</text>
<text text-anchor="middle" x="217" y="-8" font-family="Helvetica,sans-Serif" font-size="10.00">::postRenderTargetUpdate</text>
</a>
</g>
<!-- Node1&#45;&gt;Node6 -->
<g id="edge10" class="edge"><title>Node1&#45;&gt;Node6</title>
<path fill="none" stroke="midnightblue" d="M74.9297,-75.9588C91.7247,-65.6173 114.631,-52.3957 136,-43 143.301,-39.7899 151.126,-36.7772 158.929,-34.0215"/>
<polygon fill="midnightblue" stroke="midnightblue" points="72.9027,-73.0982 66.2765,-81.3652 76.6118,-79.0348 72.9027,-73.0982"/>
</g>
<!-- Node5 -->
<g id="node9" class="node"><title>Node5</title>
<a xlink:href="class_survey_map_texture_creator.html#a889f0dd0655063c8cb78116cee9e6b1d" target="_top" xlink:title="SurveyMapTextureCreator\l::update">
<polygon fill="white" stroke="black" points="334.5,-26 334.5,-60 465.5,-60 465.5,-26 334.5,-26"/>
<text text-anchor="start" x="342.5" y="-47" font-family="Helvetica,sans-Serif" font-size="10.00">SurveyMapTextureCreator</text>
<text text-anchor="middle" x="400" y="-34" font-family="Helvetica,sans-Serif" font-size="10.00">::update</text>
</a>
</g>
<!-- Node4&#45;&gt;Node5 -->
<g id="edge8" class="edge"><title>Node4&#45;&gt;Node5</title>
<path fill="none" stroke="midnightblue" d="M292.533,-58.2686C306.39,-56.2998 320.751,-54.2594 334.292,-52.3355"/>
<polygon fill="midnightblue" stroke="midnightblue" points="291.959,-54.8149 282.55,-59.6868 292.943,-61.7453 291.959,-54.8149"/>
</g>
<!-- Node6&#45;&gt;Node5 -->
<g id="edge12" class="edge"><title>Node6&#45;&gt;Node5</title>
<path fill="none" stroke="midnightblue" d="M293.367,-27.85C306.981,-29.7842 321.054,-31.7837 334.337,-33.6708"/>
<polygon fill="midnightblue" stroke="midnightblue" points="293.46,-24.3281 283.067,-26.3866 292.475,-31.2585 293.46,-24.3281"/>
</g>
</g>
</svg>
