<?xml version="1.0" encoding="UTF-8" standalone="no"?>
<!DOCTYPE svg PUBLIC "-//W3C//DTD SVG 1.1//EN"
 "http://www.w3.org/Graphics/SVG/1.1/DTD/svg11.dtd">
<!-- Generated by graphviz version 2.26.3 (20100126.1600)
 -->
<!-- Title: G Pages: 1 -->
<!--zoomable 89 -->
<svg id="main" version="1.1" xmlns="http://www.w3.org/2000/svg" xmlns:xlink="http://www.w3.org/1999/xlink" xml:space="preserve" onload="init(evt)">
        <defs>
                <circle id="rim" cx="0" cy="0" r="7"/>
                <circle id="rim2" cx="0" cy="0" r="3.5"/>
                <g id="zoomPlus">
                        <use xlink:href="#rim" fill="#404040">
                                <set attributeName="fill" to="#808080" begin="zoomplus.mouseover" end="zoomplus.mouseout"/>
                        </use>
                        <path d="M-4,0h8M0,-4v8" fill="none" stroke="white" stroke-width="1.5" pointer-events="none"/>
                </g>
                <g id="zoomMin">
                        <use xlink:href="#rim" fill="#404040">
                                <set attributeName="fill" to="#808080" begin="zoomminus.mouseover" end="zoomminus.mouseout"/>
                        </use>
                        <path d="M-4,0h8" fill="none" stroke="white" stroke-width="1.5" pointer-events="none"/>
                </g>
                <g id="dirArrow">
                        <path fill="none" stroke="white" stroke-width="1.5" d="M0,-3.0v7 M-2.5,-0.5L0,-3.0L2.5,-0.5"/>
                </g>
               <g id="resetDef">
                       <use xlink:href="#rim2" fill="#404040">
                               <set attributeName="fill" to="#808080" begin="reset.mouseover" end="reset.mouseout"/>
                       </use>
               </g>
        </defs>

<script type="text/javascript">
var viewWidth = 824;
var viewHeight = 89;
var sectionId = 'dynsection-15';
</script>
<script xlink:href="svgpan.js"/>
<svg id="graph" class="graph">
<g id="viewport">
<title>G</title>
<polygon fill="white" stroke="white" points="-4,5 -4,-85 821,-85 821,5 -4,5"/>
<!-- Node1 -->
<g id="node1" class="node"><title>Node1</title>
<polygon fill="#bfbfbf" stroke="black" points="0.5,-20.5 0.5,-41.5 241.5,-41.5 241.5,-20.5 0.5,-20.5"/>
<text text-anchor="middle" x="121" y="-28.5" font-family="Helvetica,sans-Serif" font-size="10.00">CacheSystem::checkForNewZipsInResourceGroup</text>
</g>
<!-- Node2 -->
<g id="node3" class="node"><title>Node2</title>
<a xlink:href="class_cache_system.html#a68f2404e9bf705e5fbccf6cef95c5f8b" target="_top" xlink:title="CacheSystem::isZipUsedInEntries">
<polygon fill="white" stroke="black" points="278,-40.5 278,-61.5 446,-61.5 446,-40.5 278,-40.5"/>
<text text-anchor="middle" x="362" y="-48.5" font-family="Helvetica,sans-Serif" font-size="10.00">CacheSystem::isZipUsedInEntries</text>
</a>
</g>
<!-- Node1&#45;&gt;Node2 -->
<g id="edge2" class="edge"><title>Node1&#45;&gt;Node2</title>
<path fill="none" stroke="midnightblue" d="M241.853,-41.0293C250.632,-41.7578 259.409,-42.4862 267.996,-43.1989"/>
<polygon fill="midnightblue" stroke="midnightblue" points="267.724,-46.6882 277.98,-44.0273 268.303,-39.7122 267.724,-46.6882"/>
</g>
<!-- Node5 -->
<g id="node10" class="node"><title>Node5</title>
<a xlink:href="class_cache_system.html#a55bbe62f9e72f77772b79b67e1ed6927" target="_top" xlink:title="CacheSystem::loadSingleZip">
<polygon fill="white" stroke="black" points="290.5,-0.5 290.5,-21.5 433.5,-21.5 433.5,-0.5 290.5,-0.5"/>
<text text-anchor="middle" x="362" y="-8.5" font-family="Helvetica,sans-Serif" font-size="10.00">CacheSystem::loadSingleZip</text>
</a>
</g>
<!-- Node1&#45;&gt;Node5 -->
<g id="edge10" class="edge"><title>Node1&#45;&gt;Node5</title>
<path fill="none" stroke="midnightblue" d="M241.853,-20.9707C254.79,-19.8971 267.722,-18.8239 280.052,-17.8006"/>
<polygon fill="midnightblue" stroke="midnightblue" points="280.579,-21.2691 290.255,-16.954 280,-14.2931 280.579,-21.2691"/>
</g>
<!-- Node3 -->
<g id="node5" class="node"><title>Node3</title>
<a xlink:href="class_cache_system.html#ae7b67f3f823d1ebbf776d83343085469" target="_top" xlink:title="CacheSystem::generateZipList">
<polygon fill="white" stroke="black" points="482,-59.5 482,-80.5 634,-80.5 634,-59.5 482,-59.5"/>
<text text-anchor="middle" x="558" y="-67.5" font-family="Helvetica,sans-Serif" font-size="10.00">CacheSystem::generateZipList</text>
</a>
</g>
<!-- Node2&#45;&gt;Node3 -->
<g id="edge4" class="edge"><title>Node2&#45;&gt;Node3</title>
<path fill="none" stroke="midnightblue" d="M446.259,-59.168C454.668,-59.9831 463.215,-60.8116 471.645,-61.6289"/>
<polygon fill="midnightblue" stroke="midnightblue" points="471.562,-65.1371 481.853,-62.6184 472.237,-58.1698 471.562,-65.1371"/>
</g>
<!-- Node4 -->
<g id="node7" class="node"><title>Node4</title>
<a xlink:href="class_cache_system.html#a12f05687c63beea66a7d560680d0b9f9" target="_top" xlink:title="CacheSystem::getVirtualPath">
<polygon fill="white" stroke="black" points="670,-39.5 670,-60.5 816,-60.5 816,-39.5 670,-39.5"/>
<text text-anchor="middle" x="743" y="-47.5" font-family="Helvetica,sans-Serif" font-size="10.00">CacheSystem::getVirtualPath</text>
</a>
</g>
<!-- Node2&#45;&gt;Node4 -->
<g id="edge8" class="edge"><title>Node2&#45;&gt;Node4</title>
<path fill="none" stroke="midnightblue" d="M446.247,-50.2093C458.248,-50.1225 470.437,-50.0482 482,-50 541.472,-49.7522 608.568,-49.7585 659.837,-49.8235"/>
<polygon fill="midnightblue" stroke="midnightblue" points="659.868,-53.3234 669.873,-49.8372 659.878,-46.3234 659.868,-53.3234"/>
</g>
<!-- Node3&#45;&gt;Node4 -->
<g id="edge6" class="edge"><title>Node3&#45;&gt;Node4</title>
<path fill="none" stroke="midnightblue" d="M634.047,-61.7787C642.571,-60.8571 651.288,-59.9148 659.895,-58.9843"/>
<polygon fill="midnightblue" stroke="midnightblue" points="660.364,-62.4541 669.93,-57.8994 659.612,-55.4946 660.364,-62.4541"/>
</g>
</g>
</svg>
        <g id="navigator" transform="translate(0 0)" fill="#404254">
                <rect fill="#f2f5e9" fill-opacity="0.5" stroke="#606060" stroke-width=".5" x="0" y="0" width="60" height="60"/>
                <use id="zoomplus" xlink:href="#zoomPlus" x="17" y="9" onmousedown="handleZoom(evt,'in')"/>
                <use id="zoomminus" xlink:href="#zoomMin" x="42" y="9" onmousedown="handleZoom(evt,'out')"/>
                <use id="reset" xlink:href="#resetDef" x="30" y="36" onmousedown="handleReset()"/>
                <g id="arrowUp" xlink:href="#dirArrow" transform="translate(30 24)" onmousedown="handlePan(0,-1)">
                  <use xlink:href="#rim" fill="#404040">
                        <set attributeName="fill" to="#808080" begin="arrowUp.mouseover" end="arrowUp.mouseout"/>
                  </use>
                  <path fill="none" stroke="white" stroke-width="1.5" d="M0,-3.0v7 M-2.5,-0.5L0,-3.0L2.5,-0.5"/>
                </g>
                <g id="arrowRight" xlink:href="#dirArrow" transform="rotate(90) translate(36 -43)" onmousedown="handlePan(1,0)">
                  <use xlink:href="#rim" fill="#404040">
                        <set attributeName="fill" to="#808080" begin="arrowRight.mouseover" end="arrowRight.mouseout"/>
                  </use>
                  <path fill="none" stroke="white" stroke-width="1.5" d="M0,-3.0v7 M-2.5,-0.5L0,-3.0L2.5,-0.5"/>
                </g>
                <g id="arrowDown" xlink:href="#dirArrow" transform="rotate(180) translate(-30 -48)" onmousedown="handlePan(0,1)">
                  <use xlink:href="#rim" fill="#404040">
                        <set attributeName="fill" to="#808080" begin="arrowDown.mouseover" end="arrowDown.mouseout"/>
                  </use>
                  <path fill="none" stroke="white" stroke-width="1.5" d="M0,-3.0v7 M-2.5,-0.5L0,-3.0L2.5,-0.5"/>
                </g>
                <g id="arrowLeft" xlink:href="#dirArrow" transform="rotate(270) translate(-36 17)" onmousedown="handlePan(-1,0)">
                  <use xlink:href="#rim" fill="#404040">
                        <set attributeName="fill" to="#808080" begin="arrowLeft.mouseover" end="arrowLeft.mouseout"/>
                  </use>
                  <path fill="none" stroke="white" stroke-width="1.5" d="M0,-3.0v7 M-2.5,-0.5L0,-3.0L2.5,-0.5"/>
                </g>
        </g>
</svg>
