<?xml version="1.0" encoding="UTF-8" standalone="no"?>
<!DOCTYPE svg PUBLIC "-//W3C//DTD SVG 1.1//EN"
 "http://www.w3.org/Graphics/SVG/1.1/DTD/svg11.dtd">
<!-- Generated by graphviz version 2.26.3 (20100126.1600)
 -->
<!-- Title: G Pages: 1 -->
<!--zoomable 190 -->
<svg id="main" version="1.1" xmlns="http://www.w3.org/2000/svg" xmlns:xlink="http://www.w3.org/1999/xlink" xml:space="preserve" onload="init(evt)">
        <defs>
                <circle id="rim" cx="0" cy="0" r="7"/>
                <circle id="rim2" cx="0" cy="0" r="3.5"/>
                <g id="zoomPlus">
                        <use xlink:href="#rim" fill="#404040">
                                <set attributeName="fill" to="#808080" begin="zoomplus.mouseover" end="zoomplus.mouseout"/>
                        </use>
                        <path d="M-4,0h8M0,-4v8" fill="none" stroke="white" stroke-width="1.5" pointer-events="none"/>
                </g>
                <g id="zoomMin">
                        <use xlink:href="#rim" fill="#404040">
                                <set attributeName="fill" to="#808080" begin="zoomminus.mouseover" end="zoomminus.mouseout"/>
                        </use>
                        <path d="M-4,0h8" fill="none" stroke="white" stroke-width="1.5" pointer-events="none"/>
                </g>
                <g id="dirArrow">
                        <path fill="none" stroke="white" stroke-width="1.5" d="M0,-3.0v7 M-2.5,-0.5L0,-3.0L2.5,-0.5"/>
                </g>
               <g id="resetDef">
                       <use xlink:href="#rim2" fill="#404040">
                               <set attributeName="fill" to="#808080" begin="reset.mouseover" end="reset.mouseout"/>
                       </use>
               </g>
        </defs>

<script type="text/javascript">
var viewWidth = 828;
var viewHeight = 190;
var sectionId = 'dynsection-10';
</script>
<script xlink:href="svgpan.js"/>
<svg id="graph" class="graph">
<g id="viewport">
<title>G</title>
<polygon fill="white" stroke="white" points="-4,5 -4,-186 825,-186 825,5 -4,5"/>
<!-- Node1 -->
<g id="node1" class="node"><title>Node1</title>
<polygon fill="#bfbfbf" stroke="black" points="0,-80.5 0,-101.5 188,-101.5 188,-80.5 0,-80.5"/>
<text text-anchor="middle" x="94" y="-88.5" font-family="Helvetica,sans-Serif" font-size="10.00">Hydrax::Module::SimpleGrid::getHeigth</text>
</g>
<!-- Node2 -->
<g id="node3" class="node"><title>Node2</title>
<a xlink:href="class_hydrax_1_1_module_1_1_module.html#af5cfbabb783d9ded22f30f779c83c1c4" target="_top" xlink:title="Hydrax::Module::Module::getNormalMode">
<polygon fill="white" stroke="black" points="224,-160.5 224,-181.5 422,-181.5 422,-160.5 224,-160.5"/>
<text text-anchor="middle" x="323" y="-168.5" font-family="Helvetica,sans-Serif" font-size="10.00">Hydrax::Module::Module::getNormalMode</text>
</a>
</g>
<!-- Node1&#45;&gt;Node2 -->
<g id="edge2" class="edge"><title>Node1&#45;&gt;Node2</title>
<path fill="none" stroke="midnightblue" d="M113.245,-101.619C138.126,-114.937 183.124,-137.641 224,-151 232.235,-153.691 240.978,-156.089 249.728,-158.205"/>
<polygon fill="midnightblue" stroke="midnightblue" points="249.051,-161.641 259.582,-160.477 250.623,-154.82 249.051,-161.641"/>
</g>
<!-- Node3 -->
<g id="node5" class="node"><title>Node3</title>
<a xlink:href="class_hydrax_1_1_hydrax.html#a1940a144c486915885ed19026839d381" target="_top" xlink:title="Hydrax::Hydrax::getMesh">
<polygon fill="white" stroke="black" points="258.5,-120.5 258.5,-141.5 387.5,-141.5 387.5,-120.5 258.5,-120.5"/>
<text text-anchor="middle" x="323" y="-128.5" font-family="Helvetica,sans-Serif" font-size="10.00">Hydrax::Hydrax::getMesh</text>
</a>
</g>
<!-- Node1&#45;&gt;Node3 -->
<g id="edge4" class="edge"><title>Node1&#45;&gt;Node3</title>
<path fill="none" stroke="midnightblue" d="M154.167,-101.51C184.42,-106.794 221.26,-113.229 252.799,-118.738"/>
<polygon fill="midnightblue" stroke="midnightblue" points="252.385,-122.218 262.838,-120.491 253.589,-115.323 252.385,-122.218"/>
</g>
<!-- Node4 -->
<g id="node7" class="node"><title>Node4</title>
<a xlink:href="class_hydrax_1_1_mesh.html#a12f5fa6397bc9cb5501d0e246b8a952c" target="_top" xlink:title="Hydrax::Mesh::getGridPosition">
<polygon fill="white" stroke="black" points="247.5,-80.5 247.5,-101.5 398.5,-101.5 398.5,-80.5 247.5,-80.5"/>
<text text-anchor="middle" x="323" y="-88.5" font-family="Helvetica,sans-Serif" font-size="10.00">Hydrax::Mesh::getGridPosition</text>
</a>
</g>
<!-- Node1&#45;&gt;Node4 -->
<g id="edge6" class="edge"><title>Node1&#45;&gt;Node4</title>
<path fill="none" stroke="midnightblue" d="M188.134,-91C204.326,-91 221.078,-91 237.041,-91"/>
<polygon fill="midnightblue" stroke="midnightblue" points="237.402,-94.5001 247.402,-91 237.402,-87.5001 237.402,-94.5001"/>
</g>
<!-- Node7 -->
<g id="node14" class="node"><title>Node7</title>
<a xlink:href="class_hydrax_1_1_hydrax.html#a011da649ae072cce9c6db28620b67a42" target="_top" xlink:title="Hydrax::Hydrax::getPosition">
<polygon fill="white" stroke="black" points="253,-40.5 253,-61.5 393,-61.5 393,-40.5 253,-40.5"/>
<text text-anchor="middle" x="323" y="-48.5" font-family="Helvetica,sans-Serif" font-size="10.00">Hydrax::Hydrax::getPosition</text>
</a>
</g>
<!-- Node1&#45;&gt;Node7 -->
<g id="edge14" class="edge"><title>Node1&#45;&gt;Node7</title>
<path fill="none" stroke="midnightblue" d="M154.167,-80.4905C184.42,-75.2062 221.26,-68.7711 252.799,-63.2622"/>
<polygon fill="midnightblue" stroke="midnightblue" points="253.589,-66.6773 262.838,-61.5087 252.385,-59.7817 253.589,-66.6773"/>
</g>
<!-- Node8 -->
<g id="node16" class="node"><title>Node8</title>
<a xlink:href="class_hydrax_1_1_noise_1_1_noise.html#a5b18138d5c2c5ea3c3659cef80dd3a3e" target="_top" xlink:title="Hydrax::Noise::Noise::getValue">
<polygon fill="white" stroke="black" points="245.5,-0.5 245.5,-21.5 400.5,-21.5 400.5,-0.5 245.5,-0.5"/>
<text text-anchor="middle" x="323" y="-8.5" font-family="Helvetica,sans-Serif" font-size="10.00">Hydrax::Noise::Noise::getValue</text>
</a>
</g>
<!-- Node1&#45;&gt;Node8 -->
<g id="edge16" class="edge"><title>Node1&#45;&gt;Node8</title>
<path fill="none" stroke="midnightblue" d="M113.245,-80.3813C138.126,-67.0631 183.124,-44.3588 224,-31 232.235,-28.3088 240.978,-25.9114 249.728,-23.7947"/>
<polygon fill="midnightblue" stroke="midnightblue" points="250.623,-27.1802 259.582,-21.5235 249.051,-20.359 250.623,-27.1802"/>
</g>
<!-- Node5 -->
<g id="node9" class="node"><title>Node5</title>
<a xlink:href="class_hydrax_1_1_mesh.html#afc8ea18b26652bac0710ef6fcb4c5969" target="_top" xlink:title="Hydrax::Mesh::isPointInGrid">
<polygon fill="white" stroke="black" points="458,-99.5 458,-120.5 598,-120.5 598,-99.5 458,-99.5"/>
<text text-anchor="middle" x="528" y="-107.5" font-family="Helvetica,sans-Serif" font-size="10.00">Hydrax::Mesh::isPointInGrid</text>
</a>
</g>
<!-- Node4&#45;&gt;Node5 -->
<g id="edge8" class="edge"><title>Node4&#45;&gt;Node5</title>
<path fill="none" stroke="midnightblue" d="M398.752,-98.0209C414.809,-99.5091 431.808,-101.085 448.016,-102.587"/>
<polygon fill="midnightblue" stroke="midnightblue" points="447.71,-106.073 457.99,-103.511 448.356,-99.1033 447.71,-106.073"/>
</g>
<!-- Node6 -->
<g id="node11" class="node"><title>Node6</title>
<a xlink:href="class_hydrax_1_1_math.html#acf5291c3f843e57405cd575b6149e8b1" target="_top" xlink:title="Hydrax::Math::intersectionOfTwoLines">
<polygon fill="white" stroke="black" points="634.5,-79.5 634.5,-100.5 819.5,-100.5 819.5,-79.5 634.5,-79.5"/>
<text text-anchor="middle" x="727" y="-87.5" font-family="Helvetica,sans-Serif" font-size="10.00">Hydrax::Math::intersectionOfTwoLines</text>
</a>
</g>
<!-- Node4&#45;&gt;Node6 -->
<g id="edge12" class="edge"><title>Node4&#45;&gt;Node6</title>
<path fill="none" stroke="midnightblue" d="M398.684,-90.3407C418.023,-90.1994 438.781,-90.0712 458,-90 512.832,-89.7969 573.952,-89.7801 624.058,-89.8214"/>
<polygon fill="midnightblue" stroke="midnightblue" points="624.248,-93.3215 634.251,-89.8308 624.255,-86.3215 624.248,-93.3215"/>
</g>
<!-- Node5&#45;&gt;Node6 -->
<g id="edge10" class="edge"><title>Node5&#45;&gt;Node6</title>
<path fill="none" stroke="midnightblue" d="M598.16,-102.949C606.697,-102.091 615.55,-101.201 624.436,-100.308"/>
<polygon fill="midnightblue" stroke="midnightblue" points="624.867,-103.782 634.467,-99.2998 624.167,-96.8174 624.867,-103.782"/>
</g>
</g>
</svg>
        <g id="navigator" transform="translate(0 0)" fill="#404254">
                <rect fill="#f2f5e9" fill-opacity="0.5" stroke="#606060" stroke-width=".5" x="0" y="0" width="60" height="60"/>
                <use id="zoomplus" xlink:href="#zoomPlus" x="17" y="9" onmousedown="handleZoom(evt,'in')"/>
                <use id="zoomminus" xlink:href="#zoomMin" x="42" y="9" onmousedown="handleZoom(evt,'out')"/>
                <use id="reset" xlink:href="#resetDef" x="30" y="36" onmousedown="handleReset()"/>
                <g id="arrowUp" xlink:href="#dirArrow" transform="translate(30 24)" onmousedown="handlePan(0,-1)">
                  <use xlink:href="#rim" fill="#404040">
                        <set attributeName="fill" to="#808080" begin="arrowUp.mouseover" end="arrowUp.mouseout"/>
                  </use>
                  <path fill="none" stroke="white" stroke-width="1.5" d="M0,-3.0v7 M-2.5,-0.5L0,-3.0L2.5,-0.5"/>
                </g>
                <g id="arrowRight" xlink:href="#dirArrow" transform="rotate(90) translate(36 -43)" onmousedown="handlePan(1,0)">
                  <use xlink:href="#rim" fill="#404040">
                        <set attributeName="fill" to="#808080" begin="arrowRight.mouseover" end="arrowRight.mouseout"/>
                  </use>
                  <path fill="none" stroke="white" stroke-width="1.5" d="M0,-3.0v7 M-2.5,-0.5L0,-3.0L2.5,-0.5"/>
                </g>
                <g id="arrowDown" xlink:href="#dirArrow" transform="rotate(180) translate(-30 -48)" onmousedown="handlePan(0,1)">
                  <use xlink:href="#rim" fill="#404040">
                        <set attributeName="fill" to="#808080" begin="arrowDown.mouseover" end="arrowDown.mouseout"/>
                  </use>
                  <path fill="none" stroke="white" stroke-width="1.5" d="M0,-3.0v7 M-2.5,-0.5L0,-3.0L2.5,-0.5"/>
                </g>
                <g id="arrowLeft" xlink:href="#dirArrow" transform="rotate(270) translate(-36 17)" onmousedown="handlePan(-1,0)">
                  <use xlink:href="#rim" fill="#404040">
                        <set attributeName="fill" to="#808080" begin="arrowLeft.mouseover" end="arrowLeft.mouseout"/>
                  </use>
                  <path fill="none" stroke="white" stroke-width="1.5" d="M0,-3.0v7 M-2.5,-0.5L0,-3.0L2.5,-0.5"/>
                </g>
        </g>
</svg>
