<?xml version="1.0" encoding="UTF-8" standalone="no"?>
<!DOCTYPE svg PUBLIC "-//W3C//DTD SVG 1.1//EN"
 "http://www.w3.org/Graphics/SVG/1.1/DTD/svg11.dtd">
<!-- Generated by graphviz version 2.26.3 (20100126.1600)
 -->
<!-- Title: G Pages: 1 -->
<!--zoomable 194 -->
<svg id="main" version="1.1" xmlns="http://www.w3.org/2000/svg" xmlns:xlink="http://www.w3.org/1999/xlink" xml:space="preserve" onload="init(evt)">
        <defs>
                <circle id="rim" cx="0" cy="0" r="7"/>
                <circle id="rim2" cx="0" cy="0" r="3.5"/>
                <g id="zoomPlus">
                        <use xlink:href="#rim" fill="#404040">
                                <set attributeName="fill" to="#808080" begin="zoomplus.mouseover" end="zoomplus.mouseout"/>
                        </use>
                        <path d="M-4,0h8M0,-4v8" fill="none" stroke="white" stroke-width="1.5" pointer-events="none"/>
                </g>
                <g id="zoomMin">
                        <use xlink:href="#rim" fill="#404040">
                                <set attributeName="fill" to="#808080" begin="zoomminus.mouseover" end="zoomminus.mouseout"/>
                        </use>
                        <path d="M-4,0h8" fill="none" stroke="white" stroke-width="1.5" pointer-events="none"/>
                </g>
                <g id="dirArrow">
                        <path fill="none" stroke="white" stroke-width="1.5" d="M0,-3.0v7 M-2.5,-0.5L0,-3.0L2.5,-0.5"/>
                </g>
               <g id="resetDef">
                       <use xlink:href="#rim2" fill="#404040">
                               <set attributeName="fill" to="#808080" begin="reset.mouseover" end="reset.mouseout"/>
                       </use>
               </g>
        </defs>

<script type="text/javascript">
var viewWidth = 1630;
var viewHeight = 194;
var sectionId = 'dynsection-32';
</script>
<script xlink:href="svgpan.js"/>
<svg id="graph" class="graph">
<g id="viewport">
<title>G</title>
<polygon fill="white" stroke="white" points="-4,5 -4,-189.701 1627,-189.701 1627,5 -4,5"/>
<!-- Node1 -->
<g id="node1" class="node"><title>Node1</title>
<polygon fill="#bfbfbf" stroke="black" points="0,-124.201 0,-145.201 204,-145.201 204,-124.201 0,-124.201"/>
<text text-anchor="middle" x="102" y="-132.201" font-family="Helvetica,sans-Serif" font-size="10.00">Hydrax::MaterialManager::removeMaterials</text>
</g>
<!-- Node2 -->
<g id="node3" class="node"><title>Node2</title>
<a xlink:href="class_hydrax_1_1_hydrax.html#a02c9bf8f5576332fc836b4929e738529" target="_top" xlink:title="Hydrax::Hydrax::remove">
<polygon fill="white" stroke="black" points="283,-164.201 283,-185.201 407,-185.201 407,-164.201 283,-164.201"/>
<text text-anchor="middle" x="345" y="-172.201" font-family="Helvetica,sans-Serif" font-size="10.00">Hydrax::Hydrax::remove</text>
</a>
</g>
<!-- Node1&#45;&gt;Node2 -->
<g id="edge2" class="edge"><title>Node1&#45;&gt;Node2</title>
<path fill="none" stroke="midnightblue" d="M175.787,-146.847C209.996,-152.478 250.204,-159.097 282.84,-164.469"/>
<polygon fill="midnightblue" stroke="midnightblue" points="176.281,-143.381 165.845,-145.21 175.144,-150.288 176.281,-143.381"/>
</g>
<!-- Node4 -->
<g id="node7" class="node"><title>Node4</title>
<a xlink:href="class_hydrax_1_1_material_manager.html#a071d2479a52e9d36ff25bbab8c09e728" target="_top" xlink:title="Hydrax::MaterialManager::~MaterialManager">
<polygon fill="white" stroke="black" points="240,-124.201 240,-145.201 450,-145.201 450,-124.201 240,-124.201"/>
<text text-anchor="middle" x="345" y="-132.201" font-family="Helvetica,sans-Serif" font-size="10.00">Hydrax::MaterialManager::~MaterialManager</text>
</a>
</g>
<!-- Node1&#45;&gt;Node4 -->
<g id="edge6" class="edge"><title>Node1&#45;&gt;Node4</title>
<path fill="none" stroke="midnightblue" d="M214.523,-134.701C222.895,-134.701 231.324,-134.701 239.651,-134.701"/>
<polygon fill="midnightblue" stroke="midnightblue" points="214.35,-131.201 204.35,-134.701 214.35,-138.201 214.35,-131.201"/>
</g>
<!-- Node5 -->
<g id="node9" class="node"><title>Node5</title>
<a xlink:href="class_hydrax_1_1_material_manager.html#a6aa7b0a92b824348577d506f7bcf581b" target="_top" xlink:title="Hydrax::MaterialManager::createMaterials">
<polygon fill="white" stroke="black" points="245.5,-84.2009 245.5,-105.201 444.5,-105.201 444.5,-84.2009 245.5,-84.2009"/>
<text text-anchor="middle" x="345" y="-92.2009" font-family="Helvetica,sans-Serif" font-size="10.00">Hydrax::MaterialManager::createMaterials</text>
</a>
</g>
<!-- Node1&#45;&gt;Node5 -->
<g id="edge8" class="edge"><title>Node1&#45;&gt;Node5</title>
<path fill="none" stroke="midnightblue" d="M176.064,-122.509C209.627,-116.985 248.919,-110.517 281.16,-105.21"/>
<polygon fill="midnightblue" stroke="midnightblue" points="175.144,-119.114 165.845,-124.191 176.281,-126.021 175.144,-119.114"/>
</g>
<!-- Node3 -->
<g id="node5" class="node"><title>Node3</title>
<a xlink:href="class_hydrax_water.html#ac4de588fe8ff6d0df6fec45c19521dd4" target="_top" xlink:title="HydraxWater::~HydraxWater">
<polygon fill="white" stroke="black" points="495,-164.201 495,-185.201 639,-185.201 639,-164.201 495,-164.201"/>
<text text-anchor="middle" x="567" y="-172.201" font-family="Helvetica,sans-Serif" font-size="10.00">HydraxWater::~HydraxWater</text>
</a>
</g>
<!-- Node2&#45;&gt;Node3 -->
<g id="edge4" class="edge"><title>Node2&#45;&gt;Node3</title>
<path fill="none" stroke="midnightblue" d="M417.213,-174.701C442.042,-174.701 469.833,-174.701 494.671,-174.701"/>
<polygon fill="midnightblue" stroke="midnightblue" points="417.135,-171.201 407.135,-174.701 417.135,-178.201 417.135,-171.201"/>
</g>
<!-- Node6 -->
<g id="node11" class="node"><title>Node6</title>
<a xlink:href="class_hydrax_1_1_hydrax.html#aaf840e19208614533a6b344e32965ee2" target="_top" xlink:title="Hydrax::Hydrax::create">
<polygon fill="white" stroke="black" points="978.5,-124.201 978.5,-145.201 1097.5,-145.201 1097.5,-124.201 978.5,-124.201"/>
<text text-anchor="middle" x="1038" y="-132.201" font-family="Helvetica,sans-Serif" font-size="10.00">Hydrax::Hydrax::create</text>
</a>
</g>
<!-- Node5&#45;&gt;Node6 -->
<g id="edge10" class="edge"><title>Node5&#45;&gt;Node6</title>
<path fill="none" stroke="midnightblue" d="M454.503,-106.136C465.141,-107.077 475.774,-107.953 486,-108.701 664.929,-121.789 876.993,-129.629 978.309,-132.905"/>
<polygon fill="midnightblue" stroke="midnightblue" points="454.591,-102.629 444.316,-105.215 453.96,-109.601 454.591,-102.629"/>
</g>
<!-- Node9 -->
<g id="node17" class="node"><title>Node9</title>
<a xlink:href="class_hydrax_1_1_hydrax.html#a187619a5f2ea2e1fe65ac3cd35103203" target="_top" xlink:title="Hydrax::Hydrax::setShaderMode">
<polygon fill="white" stroke="black" points="726,-85.2009 726,-106.201 886,-106.201 886,-85.2009 726,-85.2009"/>
<text text-anchor="middle" x="806" y="-93.2009" font-family="Helvetica,sans-Serif" font-size="10.00">Hydrax::Hydrax::setShaderMode</text>
</a>
</g>
<!-- Node5&#45;&gt;Node9 -->
<g id="edge16" class="edge"><title>Node5&#45;&gt;Node9</title>
<path fill="none" stroke="midnightblue" d="M454.767,-94.939C538.169,-95.12 650.953,-95.3646 725.97,-95.5273"/>
<polygon fill="midnightblue" stroke="midnightblue" points="454.754,-91.4391 444.746,-94.9173 454.739,-98.4391 454.754,-91.4391"/>
</g>
<!-- Node12 -->
<g id="node25" class="node"><title>Node12</title>
<a xlink:href="class_hydrax_1_1_hydrax.html#a6fbd6d0808443ba1d2d7569ac6b27583" target="_top" xlink:title="Hydrax::Hydrax::setComponents">
<polygon fill="white" stroke="black" points="486.5,-46.2009 486.5,-67.2009 647.5,-67.2009 647.5,-46.2009 486.5,-46.2009"/>
<text text-anchor="middle" x="567" y="-54.2009" font-family="Helvetica,sans-Serif" font-size="10.00">Hydrax::Hydrax::setComponents</text>
</a>
</g>
<!-- Node5&#45;&gt;Node12 -->
<g id="edge26" class="edge"><title>Node5&#45;&gt;Node12</title>
<path fill="none" stroke="midnightblue" d="M416.487,-82.4644C445.113,-77.5644 477.772,-71.9742 505.336,-67.2561"/>
<polygon fill="midnightblue" stroke="midnightblue" points="415.811,-79.0292 406.545,-84.1663 416.992,-85.9289 415.811,-79.0292"/>
</g>
<!-- Node14 -->
<g id="node30" class="node"><title>Node14</title>
<a xlink:href="class_hydrax_1_1_hydrax.html#a3f678db49fe45320efb237d145ec63e4" target="_top" xlink:title="Hydrax::Hydrax::setModule">
<polygon fill="white" stroke="black" points="1148.5,-6.20094 1148.5,-27.2009 1285.5,-27.2009 1285.5,-6.20094 1148.5,-6.20094"/>
<text text-anchor="middle" x="1217" y="-14.2009" font-family="Helvetica,sans-Serif" font-size="10.00">Hydrax::Hydrax::setModule</text>
</a>
</g>
<!-- Node5&#45;&gt;Node14 -->
<g id="edge32" class="edge"><title>Node5&#45;&gt;Node14</title>
<path fill="none" stroke="midnightblue" d="M373.479,-79.3701C401.28,-65.2889 445.233,-45.3392 486,-36.7009 724.929,13.9258 1017.56,-0.241924 1148.26,-10.4115"/>
<polygon fill="midnightblue" stroke="midnightblue" points="371.634,-76.3835 364.351,-84.0779 374.843,-82.6049 371.634,-76.3835"/>
</g>
<!-- Node7 -->
<g id="node13" class="node"><title>Node7</title>
<a xlink:href="class_hydrax_water.html#aedfd9537f96021b60a195b2bb6a9ee2d" target="_top" xlink:title="HydraxWater::InitHydrax">
<polygon fill="white" stroke="black" points="1322.5,-65.2009 1322.5,-86.2009 1447.5,-86.2009 1447.5,-65.2009 1322.5,-65.2009"/>
<text text-anchor="middle" x="1385" y="-73.2009" font-family="Helvetica,sans-Serif" font-size="10.00">HydraxWater::InitHydrax</text>
</a>
</g>
<!-- Node6&#45;&gt;Node7 -->
<g id="edge12" class="edge"><title>Node6&#45;&gt;Node7</title>
<path fill="none" stroke="midnightblue" d="M1107.8,-131.96C1157.87,-128.955 1226.68,-122.695 1286,-109.701 1311.56,-104.101 1339.69,-94.0436 1359.41,-86.3147"/>
<polygon fill="midnightblue" stroke="midnightblue" points="1107.52,-128.471 1097.73,-132.536 1107.92,-135.459 1107.52,-128.471"/>
</g>
<!-- Node8 -->
<g id="node15" class="node"><title>Node8</title>
<a xlink:href="class_hydrax_water.html#a20bb0db860124c8e18903f5d640f88db" target="_top" xlink:title="HydraxWater::HydraxWater">
<polygon fill="white" stroke="black" points="1484,-65.2009 1484,-86.2009 1622,-86.2009 1622,-65.2009 1484,-65.2009"/>
<text text-anchor="middle" x="1553" y="-73.2009" font-family="Helvetica,sans-Serif" font-size="10.00">HydraxWater::HydraxWater</text>
</a>
</g>
<!-- Node7&#45;&gt;Node8 -->
<g id="edge14" class="edge"><title>Node7&#45;&gt;Node8</title>
<path fill="none" stroke="midnightblue" d="M1457.68,-75.7009C1466.38,-75.7009 1475.25,-75.7009 1483.9,-75.7009"/>
<polygon fill="midnightblue" stroke="midnightblue" points="1457.56,-72.201 1447.56,-75.7009 1457.56,-79.201 1457.56,-72.201"/>
</g>
<!-- Node9&#45;&gt;Node7 -->
<g id="edge24" class="edge"><title>Node9&#45;&gt;Node7</title>
<path fill="none" stroke="midnightblue" d="M896.338,-92.5805C1014.81,-88.488 1219.65,-81.4125 1322.4,-77.8631"/>
<polygon fill="midnightblue" stroke="midnightblue" points="896.076,-89.0873 886.203,-92.9305 896.318,-96.0831 896.076,-89.0873"/>
</g>
<!-- Node10 -->
<g id="node19" class="node"><title>Node10</title>
<a xlink:href="class_hydrax_1_1_cfg_file_manager.html#a7d283a6b6b61ad70292c7cb24cd3543c" target="_top" xlink:title="Hydrax::CfgFileManager::load">
<polygon fill="white" stroke="black" points="964.5,-46.2009 964.5,-67.2009 1111.5,-67.2009 1111.5,-46.2009 964.5,-46.2009"/>
<text text-anchor="middle" x="1038" y="-54.2009" font-family="Helvetica,sans-Serif" font-size="10.00">Hydrax::CfgFileManager::load</text>
</a>
</g>
<!-- Node9&#45;&gt;Node10 -->
<g id="edge18" class="edge"><title>Node9&#45;&gt;Node10</title>
<path fill="none" stroke="midnightblue" d="M881.004,-83.5089C896.544,-80.9537 912.808,-78.2582 928,-75.7009 944.053,-72.9987 961.415,-70.0242 977.498,-67.247"/>
<polygon fill="midnightblue" stroke="midnightblue" points="880.216,-80.0913 870.915,-85.1649 881.35,-86.9989 880.216,-80.0913"/>
</g>
<!-- Node11 -->
<g id="node21" class="node"><title>Node11</title>
<a xlink:href="class_hydrax_1_1_hydrax.html#a1a9a011581dc097e3928511632b534da" target="_top" xlink:title="Hydrax::Hydrax::loadCfg">
<polygon fill="white" stroke="black" points="1154.5,-46.2009 1154.5,-67.2009 1279.5,-67.2009 1279.5,-46.2009 1154.5,-46.2009"/>
<text text-anchor="middle" x="1217" y="-54.2009" font-family="Helvetica,sans-Serif" font-size="10.00">Hydrax::Hydrax::loadCfg</text>
</a>
</g>
<!-- Node10&#45;&gt;Node11 -->
<g id="edge20" class="edge"><title>Node10&#45;&gt;Node11</title>
<path fill="none" stroke="midnightblue" d="M1121.62,-56.7009C1132.61,-56.7009 1143.71,-56.7009 1154.27,-56.7009"/>
<polygon fill="midnightblue" stroke="midnightblue" points="1121.58,-53.201 1111.58,-56.7009 1121.58,-60.201 1121.58,-53.201"/>
</g>
<!-- Node11&#45;&gt;Node7 -->
<g id="edge22" class="edge"><title>Node11&#45;&gt;Node7</title>
<path fill="none" stroke="midnightblue" d="M1289.51,-64.902C1300.46,-66.1401 1311.68,-67.4083 1322.39,-68.6201"/>
<polygon fill="midnightblue" stroke="midnightblue" points="1289.89,-61.4219 1279.56,-63.7758 1289.1,-68.3775 1289.89,-61.4219"/>
</g>
<!-- Node13 -->
<g id="node27" class="node"><title>Node13</title>
<a xlink:href="class_hydrax_1_1_cfg_file_manager.html#a6717ef4e731b3c22d71260aaa6d0336a" target="_top" xlink:title="Hydrax::CfgFileManager::_loadComponentsSettings">
<polygon fill="white" stroke="black" points="684,-45.2009 684,-66.2009 928,-66.2009 928,-45.2009 684,-45.2009"/>
<text text-anchor="middle" x="806" y="-53.2009" font-family="Helvetica,sans-Serif" font-size="10.00">Hydrax::CfgFileManager::_loadComponentsSettings</text>
</a>
</g>
<!-- Node12&#45;&gt;Node13 -->
<g id="edge28" class="edge"><title>Node12&#45;&gt;Node13</title>
<path fill="none" stroke="midnightblue" d="M657.814,-56.321C666.297,-56.2855 674.985,-56.2491 683.693,-56.2127"/>
<polygon fill="midnightblue" stroke="midnightblue" points="657.567,-52.8219 647.581,-56.3638 657.596,-59.8218 657.567,-52.8219"/>
</g>
<!-- Node13&#45;&gt;Node10 -->
<g id="edge30" class="edge"><title>Node13&#45;&gt;Node10</title>
<path fill="none" stroke="midnightblue" d="M938.201,-56.2708C947.097,-56.3091 955.862,-56.3469 964.284,-56.3832"/>
<polygon fill="midnightblue" stroke="midnightblue" points="938.13,-52.7705 928.115,-56.2273 938.099,-59.7705 938.13,-52.7705"/>
</g>
<!-- Node14&#45;&gt;Node7 -->
<g id="edge34" class="edge"><title>Node14&#45;&gt;Node7</title>
<path fill="none" stroke="midnightblue" d="M1265.77,-30.2222C1272.6,-32.293 1279.5,-34.4828 1286,-36.7009 1311.53,-45.4074 1340.14,-56.868 1360.01,-65.1095"/>
<polygon fill="midnightblue" stroke="midnightblue" points="1266.46,-26.7769 1255.88,-27.2839 1264.47,-33.487 1266.46,-26.7769"/>
</g>
</g>
</svg>
        <g id="navigator" transform="translate(0 0)" fill="#404254">
                <rect fill="#f2f5e9" fill-opacity="0.5" stroke="#606060" stroke-width=".5" x="0" y="0" width="60" height="60"/>
                <use id="zoomplus" xlink:href="#zoomPlus" x="17" y="9" onmousedown="handleZoom(evt,'in')"/>
                <use id="zoomminus" xlink:href="#zoomMin" x="42" y="9" onmousedown="handleZoom(evt,'out')"/>
                <use id="reset" xlink:href="#resetDef" x="30" y="36" onmousedown="handleReset()"/>
                <g id="arrowUp" xlink:href="#dirArrow" transform="translate(30 24)" onmousedown="handlePan(0,-1)">
                  <use xlink:href="#rim" fill="#404040">
                        <set attributeName="fill" to="#808080" begin="arrowUp.mouseover" end="arrowUp.mouseout"/>
                  </use>
                  <path fill="none" stroke="white" stroke-width="1.5" d="M0,-3.0v7 M-2.5,-0.5L0,-3.0L2.5,-0.5"/>
                </g>
                <g id="arrowRight" xlink:href="#dirArrow" transform="rotate(90) translate(36 -43)" onmousedown="handlePan(1,0)">
                  <use xlink:href="#rim" fill="#404040">
                        <set attributeName="fill" to="#808080" begin="arrowRight.mouseover" end="arrowRight.mouseout"/>
                  </use>
                  <path fill="none" stroke="white" stroke-width="1.5" d="M0,-3.0v7 M-2.5,-0.5L0,-3.0L2.5,-0.5"/>
                </g>
                <g id="arrowDown" xlink:href="#dirArrow" transform="rotate(180) translate(-30 -48)" onmousedown="handlePan(0,1)">
                  <use xlink:href="#rim" fill="#404040">
                        <set attributeName="fill" to="#808080" begin="arrowDown.mouseover" end="arrowDown.mouseout"/>
                  </use>
                  <path fill="none" stroke="white" stroke-width="1.5" d="M0,-3.0v7 M-2.5,-0.5L0,-3.0L2.5,-0.5"/>
                </g>
                <g id="arrowLeft" xlink:href="#dirArrow" transform="rotate(270) translate(-36 17)" onmousedown="handlePan(-1,0)">
                  <use xlink:href="#rim" fill="#404040">
                        <set attributeName="fill" to="#808080" begin="arrowLeft.mouseover" end="arrowLeft.mouseout"/>
                  </use>
                  <path fill="none" stroke="white" stroke-width="1.5" d="M0,-3.0v7 M-2.5,-0.5L0,-3.0L2.5,-0.5"/>
                </g>
        </g>
</svg>
