<?xml version="1.0" encoding="UTF-8" standalone="no"?>
<!DOCTYPE svg PUBLIC "-//W3C//DTD SVG 1.1//EN"
 "http://www.w3.org/Graphics/SVG/1.1/DTD/svg11.dtd">
<!-- Generated by graphviz version 2.26.3 (20100126.1600)
 -->
<!-- Title: G Pages: 1 -->
<!--zoomable 110 -->
<svg id="main" version="1.1" xmlns="http://www.w3.org/2000/svg" xmlns:xlink="http://www.w3.org/1999/xlink" xml:space="preserve" onload="init(evt)">
        <defs>
                <circle id="rim" cx="0" cy="0" r="7"/>
                <circle id="rim2" cx="0" cy="0" r="3.5"/>
                <g id="zoomPlus">
                        <use xlink:href="#rim" fill="#404040">
                                <set attributeName="fill" to="#808080" begin="zoomplus.mouseover" end="zoomplus.mouseout"/>
                        </use>
                        <path d="M-4,0h8M0,-4v8" fill="none" stroke="white" stroke-width="1.5" pointer-events="none"/>
                </g>
                <g id="zoomMin">
                        <use xlink:href="#rim" fill="#404040">
                                <set attributeName="fill" to="#808080" begin="zoomminus.mouseover" end="zoomminus.mouseout"/>
                        </use>
                        <path d="M-4,0h8" fill="none" stroke="white" stroke-width="1.5" pointer-events="none"/>
                </g>
                <g id="dirArrow">
                        <path fill="none" stroke="white" stroke-width="1.5" d="M0,-3.0v7 M-2.5,-0.5L0,-3.0L2.5,-0.5"/>
                </g>
               <g id="resetDef">
                       <use xlink:href="#rim2" fill="#404040">
                               <set attributeName="fill" to="#808080" begin="reset.mouseover" end="reset.mouseout"/>
                       </use>
               </g>
        </defs>

<script type="text/javascript">
var viewWidth = 892;
var viewHeight = 110;
var sectionId = 'dynsection-14';
</script>
<script xlink:href="svgpan.js"/>
<svg id="graph" class="graph">
<g id="viewport">
<title>G</title>
<polygon fill="white" stroke="white" points="-4,5 -4,-106 889,-106 889,5 -4,5"/>
<!-- Node1 -->
<g id="node1" class="node"><title>Node1</title>
<polygon fill="#bfbfbf" stroke="black" points="0,-40.5 0,-61.5 168,-61.5 168,-40.5 0,-40.5"/>
<text text-anchor="middle" x="84" y="-48.5" font-family="Helvetica,sans-Serif" font-size="10.00">BeamFactory::checkSleepingState</text>
</g>
<!-- Node2 -->
<g id="node3" class="node"><title>Node2</title>
<a xlink:href="class_beam_factory.html#aadb09a68dc35fad593189242429df218" target="_top" xlink:title="BeamFactory::getTruck">
<polygon fill="white" stroke="black" points="459.5,-80.5 459.5,-101.5 578.5,-101.5 578.5,-80.5 459.5,-80.5"/>
<text text-anchor="middle" x="519" y="-88.5" font-family="Helvetica,sans-Serif" font-size="10.00">BeamFactory::getTruck</text>
</a>
</g>
<!-- Node1&#45;&gt;Node2 -->
<g id="edge2" class="edge"><title>Node1&#45;&gt;Node2</title>
<path fill="none" stroke="midnightblue" d="M139.998,-61.5459C160.116,-65.013 183.017,-68.5916 204,-71 287.929,-80.6332 385.011,-85.9172 448.965,-88.5966"/>
<polygon fill="midnightblue" stroke="midnightblue" points="449.196,-92.1089 459.33,-89.0202 449.482,-85.1147 449.196,-92.1089"/>
</g>
<!-- Node3 -->
<g id="node5" class="node"><title>Node3</title>
<a xlink:href="class_beam_factory.html#a71e00856377dc0d6e50e0a542b0c7f46" target="_top" xlink:title="BeamFactory::recursiveActivation">
<polygon fill="white" stroke="black" points="204,-40.5 204,-61.5 368,-61.5 368,-40.5 204,-40.5"/>
<text text-anchor="middle" x="286" y="-48.5" font-family="Helvetica,sans-Serif" font-size="10.00">BeamFactory::recursiveActivation</text>
</a>
</g>
<!-- Node1&#45;&gt;Node3 -->
<g id="edge4" class="edge"><title>Node1&#45;&gt;Node3</title>
<path fill="none" stroke="midnightblue" d="M168.203,-51C176.592,-51 185.14,-51 193.607,-51"/>
<polygon fill="midnightblue" stroke="midnightblue" points="193.878,-54.5001 203.878,-51 193.878,-47.5001 193.878,-54.5001"/>
</g>
<!-- Node7 -->
<g id="node14" class="node"><title>Node7</title>
<a xlink:href="class_beam_factory.html#a9603710eb18f67e33a41e42d4e685028" target="_top" xlink:title="BeamFactory::checkForActive">
<polygon fill="white" stroke="black" points="211.5,-0.5 211.5,-21.5 360.5,-21.5 360.5,-0.5 211.5,-0.5"/>
<text text-anchor="middle" x="286" y="-8.5" font-family="Helvetica,sans-Serif" font-size="10.00">BeamFactory::checkForActive</text>
</a>
</g>
<!-- Node1&#45;&gt;Node7 -->
<g id="edge14" class="edge"><title>Node1&#45;&gt;Node7</title>
<path fill="none" stroke="midnightblue" d="M137.073,-40.4905C163.412,-35.2748 195.413,-28.9381 222.99,-23.4773"/>
<polygon fill="midnightblue" stroke="midnightblue" points="223.801,-26.8846 232.931,-21.5087 222.442,-20.0179 223.801,-26.8846"/>
</g>
<!-- Node3&#45;&gt;Node2 -->
<g id="edge12" class="edge"><title>Node3&#45;&gt;Node2</title>
<path fill="none" stroke="midnightblue" d="M347.218,-61.5095C378.621,-66.9006 417.001,-73.4894 449.512,-79.0707"/>
<polygon fill="midnightblue" stroke="midnightblue" points="448.95,-82.5254 459.398,-80.768 450.135,-75.6264 448.95,-82.5254"/>
</g>
<!-- Node4 -->
<g id="node7" class="node"><title>Node4</title>
<a xlink:href="class_beam_factory.html#a857d3d8b5a3ff2ff4da15d6e3e671350" target="_top" xlink:title="BeamFactory::predictTruckIntersectionCollAABB">
<polygon fill="white" stroke="black" points="404,-0.5 404,-21.5 634,-21.5 634,-0.5 404,-0.5"/>
<text text-anchor="middle" x="519" y="-8.5" font-family="Helvetica,sans-Serif" font-size="10.00">BeamFactory::predictTruckIntersectionCollAABB</text>
</a>
</g>
<!-- Node3&#45;&gt;Node4 -->
<g id="edge6" class="edge"><title>Node3&#45;&gt;Node4</title>
<path fill="none" stroke="midnightblue" d="M347.218,-40.4905C377.999,-35.2062 415.483,-28.7711 447.573,-23.2622"/>
<polygon fill="midnightblue" stroke="midnightblue" points="448.523,-26.6503 457.787,-21.5087 447.339,-19.7512 448.523,-26.6503"/>
</g>
<!-- Node6 -->
<g id="node11" class="node"><title>Node6</title>
<a xlink:href="class_beam.html#af9b4ba90d62be6ca00cdd101a7db6314" target="_top" xlink:title="Beam::desactivate">
<polygon fill="white" stroke="black" points="470,-40.5 470,-61.5 568,-61.5 568,-40.5 470,-40.5"/>
<text text-anchor="middle" x="519" y="-48.5" font-family="Helvetica,sans-Serif" font-size="10.00">Beam::desactivate</text>
</a>
</g>
<!-- Node3&#45;&gt;Node6 -->
<g id="edge10" class="edge"><title>Node3&#45;&gt;Node6</title>
<path fill="none" stroke="midnightblue" d="M368.147,-51C398.237,-51 431.685,-51 459.424,-51"/>
<polygon fill="midnightblue" stroke="midnightblue" points="459.757,-54.5001 469.757,-51 459.757,-47.5001 459.757,-54.5001"/>
</g>
<!-- Node5 -->
<g id="node9" class="node"><title>Node5</title>
<a xlink:href="class_beam_factory.html#aef0517fa221b609b1e869c6a305f5f4e" target="_top" xlink:title="BeamFactory::predictTruckIntersectionAABB">
<polygon fill="white" stroke="black" points="670.5,-0.5 670.5,-21.5 883.5,-21.5 883.5,-0.5 670.5,-0.5"/>
<text text-anchor="middle" x="777" y="-8.5" font-family="Helvetica,sans-Serif" font-size="10.00">BeamFactory::predictTruckIntersectionAABB</text>
</a>
</g>
<!-- Node4&#45;&gt;Node5 -->
<g id="edge8" class="edge"><title>Node4&#45;&gt;Node5</title>
<path fill="none" stroke="midnightblue" d="M634.041,-11C642.733,-11 651.511,-11 660.214,-11"/>
<polygon fill="midnightblue" stroke="midnightblue" points="660.387,-14.5001 670.387,-11 660.387,-7.5001 660.387,-14.5001"/>
</g>
<!-- Node7&#45;&gt;Node4 -->
<g id="edge16" class="edge"><title>Node7&#45;&gt;Node4</title>
<path fill="none" stroke="midnightblue" d="M360.684,-11C371.283,-11 382.414,-11 393.656,-11"/>
<polygon fill="midnightblue" stroke="midnightblue" points="393.999,-14.5001 403.999,-11 393.998,-7.5001 393.999,-14.5001"/>
</g>
</g>
</svg>
        <g id="navigator" transform="translate(0 0)" fill="#404254">
                <rect fill="#f2f5e9" fill-opacity="0.5" stroke="#606060" stroke-width=".5" x="0" y="0" width="60" height="60"/>
                <use id="zoomplus" xlink:href="#zoomPlus" x="17" y="9" onmousedown="handleZoom(evt,'in')"/>
                <use id="zoomminus" xlink:href="#zoomMin" x="42" y="9" onmousedown="handleZoom(evt,'out')"/>
                <use id="reset" xlink:href="#resetDef" x="30" y="36" onmousedown="handleReset()"/>
                <g id="arrowUp" xlink:href="#dirArrow" transform="translate(30 24)" onmousedown="handlePan(0,-1)">
                  <use xlink:href="#rim" fill="#404040">
                        <set attributeName="fill" to="#808080" begin="arrowUp.mouseover" end="arrowUp.mouseout"/>
                  </use>
                  <path fill="none" stroke="white" stroke-width="1.5" d="M0,-3.0v7 M-2.5,-0.5L0,-3.0L2.5,-0.5"/>
                </g>
                <g id="arrowRight" xlink:href="#dirArrow" transform="rotate(90) translate(36 -43)" onmousedown="handlePan(1,0)">
                  <use xlink:href="#rim" fill="#404040">
                        <set attributeName="fill" to="#808080" begin="arrowRight.mouseover" end="arrowRight.mouseout"/>
                  </use>
                  <path fill="none" stroke="white" stroke-width="1.5" d="M0,-3.0v7 M-2.5,-0.5L0,-3.0L2.5,-0.5"/>
                </g>
                <g id="arrowDown" xlink:href="#dirArrow" transform="rotate(180) translate(-30 -48)" onmousedown="handlePan(0,1)">
                  <use xlink:href="#rim" fill="#404040">
                        <set attributeName="fill" to="#808080" begin="arrowDown.mouseover" end="arrowDown.mouseout"/>
                  </use>
                  <path fill="none" stroke="white" stroke-width="1.5" d="M0,-3.0v7 M-2.5,-0.5L0,-3.0L2.5,-0.5"/>
                </g>
                <g id="arrowLeft" xlink:href="#dirArrow" transform="rotate(270) translate(-36 17)" onmousedown="handlePan(-1,0)">
                  <use xlink:href="#rim" fill="#404040">
                        <set attributeName="fill" to="#808080" begin="arrowLeft.mouseover" end="arrowLeft.mouseout"/>
                  </use>
                  <path fill="none" stroke="white" stroke-width="1.5" d="M0,-3.0v7 M-2.5,-0.5L0,-3.0L2.5,-0.5"/>
                </g>
        </g>
</svg>
