<?xml version="1.0" encoding="UTF-8" standalone="no"?>
<!DOCTYPE svg PUBLIC "-//W3C//DTD SVG 1.1//EN"
 "http://www.w3.org/Graphics/SVG/1.1/DTD/svg11.dtd">
<!-- Generated by graphviz version 2.26.3 (20100126.1600)
 -->
<!-- Title: G Pages: 1 -->
<!--zoomable 545 -->
<svg id="main" version="1.1" xmlns="http://www.w3.org/2000/svg" xmlns:xlink="http://www.w3.org/1999/xlink" xml:space="preserve" onload="init(evt)">
        <defs>
                <circle id="rim" cx="0" cy="0" r="7"/>
                <circle id="rim2" cx="0" cy="0" r="3.5"/>
                <g id="zoomPlus">
                        <use xlink:href="#rim" fill="#404040">
                                <set attributeName="fill" to="#808080" begin="zoomplus.mouseover" end="zoomplus.mouseout"/>
                        </use>
                        <path d="M-4,0h8M0,-4v8" fill="none" stroke="white" stroke-width="1.5" pointer-events="none"/>
                </g>
                <g id="zoomMin">
                        <use xlink:href="#rim" fill="#404040">
                                <set attributeName="fill" to="#808080" begin="zoomminus.mouseover" end="zoomminus.mouseout"/>
                        </use>
                        <path d="M-4,0h8" fill="none" stroke="white" stroke-width="1.5" pointer-events="none"/>
                </g>
                <g id="dirArrow">
                        <path fill="none" stroke="white" stroke-width="1.5" d="M0,-3.0v7 M-2.5,-0.5L0,-3.0L2.5,-0.5"/>
                </g>
               <g id="resetDef">
                       <use xlink:href="#rim2" fill="#404040">
                               <set attributeName="fill" to="#808080" begin="reset.mouseover" end="reset.mouseout"/>
                       </use>
               </g>
        </defs>

<script type="text/javascript">
var viewWidth = 2446;
var viewHeight = 545;
var sectionId = 'dynsection-14';
</script>
<script xlink:href="svgpan.js"/>
<svg id="graph" class="graph">
<g id="viewport">
<title>G</title>
<polygon fill="white" stroke="white" points="-4,5 -4,-540.891 2443,-540.891 2443,5 -4,5"/>
<!-- Node1 -->
<g id="node1" class="node"><title>Node1</title>
<polygon fill="#bfbfbf" stroke="black" points="0.5,-335.5 0.5,-356.5 195.5,-356.5 195.5,-335.5 0.5,-335.5"/>
<text text-anchor="middle" x="98" y="-343.5" font-family="Helvetica,sans-Serif" font-size="10.00">Hydrax::MaterialManager::_isComponent</text>
</g>
<!-- Node2 -->
<g id="node3" class="node"><title>Node2</title>
<a xlink:href="class_hydrax_1_1_material_manager.html#a6aa7b0a92b824348577d506f7bcf581b" target="_top" xlink:title="Hydrax::MaterialManager::createMaterials">
<polygon fill="white" stroke="black" points="946.5,-353.5 946.5,-374.5 1145.5,-374.5 1145.5,-353.5 946.5,-353.5"/>
<text text-anchor="middle" x="1046" y="-361.5" font-family="Helvetica,sans-Serif" font-size="10.00">Hydrax::MaterialManager::createMaterials</text>
</a>
</g>
<!-- Node1&#45;&gt;Node2 -->
<g id="edge2" class="edge"><title>Node1&#45;&gt;Node2</title>
<path fill="none" stroke="midnightblue" d="M112.798,-364.178C135.326,-390.266 181.023,-437.244 232,-456 366.734,-505.573 739.495,-500.774 878,-463 942.343,-445.452 1007.14,-396.286 1033.6,-374.555"/>
<polygon fill="midnightblue" stroke="midnightblue" points="115.446,-361.888 106.321,-356.504 110.097,-366.404 115.446,-361.888"/>
</g>
<!-- Node12 -->
<g id="node27" class="node"><title>Node12</title>
<a xlink:href="class_hydrax_1_1_material_manager.html#a20f50f4b2b7d133fcc5be5e31d136856" target="_top" xlink:title="Hydrax::MaterialManager::_createWaterMaterial">
<polygon fill="white" stroke="black" points="639.5,-432.5 639.5,-453.5 864.5,-453.5 864.5,-432.5 639.5,-432.5"/>
<text text-anchor="middle" x="752" y="-440.5" font-family="Helvetica,sans-Serif" font-size="10.00">Hydrax::MaterialManager::_createWaterMaterial</text>
</a>
</g>
<!-- Node1&#45;&gt;Node12 -->
<g id="edge30" class="edge"><title>Node1&#45;&gt;Node12</title>
<path fill="none" stroke="midnightblue" d="M119.098,-363.027C144.255,-382.187 188.399,-412.29 232,-425 375.525,-466.839 550.807,-462.105 656.799,-453.528"/>
<polygon fill="midnightblue" stroke="midnightblue" points="121.068,-360.125 111.024,-356.753 116.773,-365.653 121.068,-360.125"/>
</g>
<!-- Node13 -->
<g id="node30" class="node"><title>Node13</title>
<a xlink:href="class_hydrax_1_1_material_manager.html#adb84a2034180ce0434b02d8f1b4aac85" target="_top" xlink:title="Hydrax::MaterialManager::_createDepthMaterial">
<polygon fill="white" stroke="black" points="298.5,-276.5 298.5,-297.5 523.5,-297.5 523.5,-276.5 298.5,-276.5"/>
<text text-anchor="middle" x="411" y="-284.5" font-family="Helvetica,sans-Serif" font-size="10.00">Hydrax::MaterialManager::_createDepthMaterial</text>
</a>
</g>
<!-- Node1&#45;&gt;Node13 -->
<g id="edge34" class="edge"><title>Node1&#45;&gt;Node13</title>
<path fill="none" stroke="midnightblue" d="M138.141,-332.353C164.53,-323.871 199.977,-313.4 232,-307 253.311,-302.741 276.244,-299.321 298.347,-296.597"/>
<polygon fill="midnightblue" stroke="midnightblue" points="136.921,-329.069 128.496,-335.493 139.089,-335.725 136.921,-329.069"/>
</g>
<!-- Node14 -->
<g id="node33" class="node"><title>Node14</title>
<a xlink:href="class_hydrax_1_1_material_manager.html#ab70527e20f62a739a738773173c7966f" target="_top" xlink:title="Hydrax::MaterialManager::addDepthTechnique">
<polygon fill="white" stroke="black" points="642.5,-276.5 642.5,-297.5 861.5,-297.5 861.5,-276.5 642.5,-276.5"/>
<text text-anchor="middle" x="752" y="-284.5" font-family="Helvetica,sans-Serif" font-size="10.00">Hydrax::MaterialManager::addDepthTechnique</text>
</a>
</g>
<!-- Node1&#45;&gt;Node14 -->
<g id="edge116" class="edge"><title>Node1&#45;&gt;Node14</title>
<path fill="none" stroke="midnightblue" d="M118.624,-329.015C143.64,-309.618 187.952,-279.018 232,-267 402.613,-220.451 616.346,-256.783 707.5,-276.463"/>
<polygon fill="midnightblue" stroke="midnightblue" points="116.279,-326.407 110.613,-335.359 120.625,-331.895 116.279,-326.407"/>
</g>
<!-- Node24 -->
<g id="node54" class="node"><title>Node24</title>
<a xlink:href="class_hydrax_1_1_material_manager.html#a13c5473bfc7c341d64ea2cdd93c73396" target="_top" xlink:title="Hydrax::MaterialManager::_createDepthTextureGPUPrograms">
<polygon fill="white" stroke="black" points="267.5,-394.5 267.5,-415.5 554.5,-415.5 554.5,-394.5 267.5,-394.5"/>
<text text-anchor="middle" x="411" y="-402.5" font-family="Helvetica,sans-Serif" font-size="10.00">Hydrax::MaterialManager::_createDepthTextureGPUPrograms</text>
</a>
</g>
<!-- Node1&#45;&gt;Node24 -->
<g id="edge60" class="edge"><title>Node1&#45;&gt;Node24</title>
<path fill="none" stroke="midnightblue" d="M144.824,-359.223C170.425,-366.113 202.787,-374.272 232,-380 260.944,-385.675 292.766,-390.554 321.451,-394.455"/>
<polygon fill="midnightblue" stroke="midnightblue" points="145.577,-355.801 135.009,-356.555 143.741,-362.556 145.577,-355.801"/>
</g>
<!-- Node25 -->
<g id="node56" class="node"><title>Node25</title>
<a xlink:href="class_hydrax_1_1_material_manager.html#a0ee548c5ba041a7e26a1561dbac28ae4" target="_top" xlink:title="Hydrax::MaterialManager::addDepthTextureTechnique">
<polygon fill="white" stroke="black" points="626,-392.5 626,-413.5 878,-413.5 878,-392.5 626,-392.5"/>
<text text-anchor="middle" x="752" y="-400.5" font-family="Helvetica,sans-Serif" font-size="10.00">Hydrax::MaterialManager::addDepthTextureTechnique</text>
</a>
</g>
<!-- Node1&#45;&gt;Node25 -->
<g id="edge118" class="edge"><title>Node1&#45;&gt;Node25</title>
<path fill="none" stroke="midnightblue" d="M205.716,-353.556C305.451,-360.785 457.847,-372.424 590,-385 613.382,-387.225 638.631,-389.9 662.079,-392.498"/>
<polygon fill="midnightblue" stroke="midnightblue" points="205.856,-350.057 195.63,-352.827 205.351,-357.039 205.856,-350.057"/>
</g>
<!-- Node26 -->
<g id="node59" class="node"><title>Node26</title>
<a xlink:href="class_hydrax_1_1_material_manager.html#a23043949a092bd6b806ad5bd7619cfe7" target="_top" xlink:title="Hydrax::MaterialManager::_createUnderwaterMaterial">
<polygon fill="white" stroke="black" points="286.5,-316.5 286.5,-337.5 535.5,-337.5 535.5,-316.5 286.5,-316.5"/>
<text text-anchor="middle" x="411" y="-324.5" font-family="Helvetica,sans-Serif" font-size="10.00">Hydrax::MaterialManager::_createUnderwaterMaterial</text>
</a>
</g>
<!-- Node1&#45;&gt;Node26 -->
<g id="edge66" class="edge"><title>Node1&#45;&gt;Node26</title>
<path fill="none" stroke="midnightblue" d="M205.957,-339.447C231.873,-337.873 259.762,-336.181 286.367,-334.566"/>
<polygon fill="midnightblue" stroke="midnightblue" points="205.517,-335.967 195.748,-340.066 205.941,-342.954 205.517,-335.967"/>
</g>
<!-- Node27 -->
<g id="node62" class="node"><title>Node27</title>
<a xlink:href="class_hydrax_1_1_material_manager.html#a445098a432e8799d4b65b1a8e7cf5192" target="_top" xlink:title="Hydrax::MaterialManager::_createUnderwaterCompositor">
<polygon fill="white" stroke="black" points="278.5,-510.5 278.5,-531.5 543.5,-531.5 543.5,-510.5 278.5,-510.5"/>
<text text-anchor="middle" x="411" y="-518.5" font-family="Helvetica,sans-Serif" font-size="10.00">Hydrax::MaterialManager::_createUnderwaterCompositor</text>
</a>
</g>
<!-- Node1&#45;&gt;Node27 -->
<g id="edge70" class="edge"><title>Node1&#45;&gt;Node27</title>
<path fill="none" stroke="midnightblue" d="M108.954,-365.373C128.771,-398.399 173.959,-465.025 232,-496 246.257,-503.608 262.021,-509.167 278.11,-513.193"/>
<polygon fill="midnightblue" stroke="midnightblue" points="111.914,-363.502 103.84,-356.642 105.874,-367.04 111.914,-363.502"/>
</g>
<!-- Node28 -->
<g id="node65" class="node"><title>Node28</title>
<a xlink:href="class_hydrax_1_1_material_manager.html#a2961836553f7a30a8baffb9e82f7216e" target="_top" xlink:title="Hydrax::MaterialManager::reload">
<polygon fill="white" stroke="black" points="332,-178.5 332,-199.5 490,-199.5 490,-178.5 332,-178.5"/>
<text text-anchor="middle" x="411" y="-186.5" font-family="Helvetica,sans-Serif" font-size="10.00">Hydrax::MaterialManager::reload</text>
</a>
</g>
<!-- Node1&#45;&gt;Node28 -->
<g id="edge74" class="edge"><title>Node1&#45;&gt;Node28</title>
<path fill="none" stroke="midnightblue" d="M114.441,-327.867C138.037,-302.959 183.978,-258.469 232,-234 265.119,-217.125 304.976,-206.303 338.666,-199.514"/>
<polygon fill="midnightblue" stroke="midnightblue" points="111.85,-325.515 107.591,-335.216 116.97,-330.288 111.85,-325.515"/>
</g>
<!-- Node44 -->
<g id="node104" class="node"><title>Node44</title>
<a xlink:href="class_hydrax_1_1_material_manager_1_1_underwater_compositor_listener.html#ab4e1a9d94c0ab1c6bcc8405cc88b3014" target="_top" xlink:title="On material setup.">
<polygon fill="white" stroke="black" points="232.5,-138.5 232.5,-159.5 589.5,-159.5 589.5,-138.5 232.5,-138.5"/>
<text text-anchor="middle" x="411" y="-146.5" font-family="Helvetica,sans-Serif" font-size="10.00">Hydrax::MaterialManager::UnderwaterCompositorListener::notifyMaterialSetup</text>
</a>
</g>
<!-- Node1&#45;&gt;Node44 -->
<g id="edge120" class="edge"><title>Node1&#45;&gt;Node44</title>
<path fill="none" stroke="midnightblue" d="M106.639,-325.719C124.071,-287.587 167.381,-205.744 232,-169 238.388,-165.368 245.111,-162.234 252.055,-159.537"/>
<polygon fill="midnightblue" stroke="midnightblue" points="103.271,-324.682 102.413,-335.242 109.669,-327.521 103.271,-324.682"/>
</g>
<!-- Node3 -->
<g id="node5" class="node"><title>Node3</title>
<a xlink:href="class_hydrax_1_1_hydrax.html#aaf840e19208614533a6b344e32965ee2" target="_top" xlink:title="Hydrax::Hydrax::create">
<polygon fill="white" stroke="black" points="1235.5,-169.5 1235.5,-190.5 1354.5,-190.5 1354.5,-169.5 1235.5,-169.5"/>
<text text-anchor="middle" x="1295" y="-177.5" font-family="Helvetica,sans-Serif" font-size="10.00">Hydrax::Hydrax::create</text>
</a>
</g>
<!-- Node2&#45;&gt;Node3 -->
<g id="edge4" class="edge"><title>Node2&#45;&gt;Node3</title>
<path fill="none" stroke="midnightblue" d="M1102.44,-350.357C1128.28,-341.645 1157.62,-327.938 1178,-307 1208.05,-276.127 1184.28,-248.185 1214,-217 1225.63,-204.802 1242.04,-196.283 1257.05,-190.523"/>
<polygon fill="midnightblue" stroke="midnightblue" points="1101.19,-347.08 1092.73,-353.456 1103.32,-353.749 1101.19,-347.08"/>
</g>
<!-- Node6 -->
<g id="node11" class="node"><title>Node6</title>
<a xlink:href="class_hydrax_1_1_hydrax.html#a187619a5f2ea2e1fe65ac3cd35103203" target="_top" xlink:title="Hydrax::Hydrax::setShaderMode">
<polygon fill="white" stroke="black" points="1454,-383.5 1454,-404.5 1614,-404.5 1614,-383.5 1454,-383.5"/>
<text text-anchor="middle" x="1534" y="-391.5" font-family="Helvetica,sans-Serif" font-size="10.00">Hydrax::Hydrax::setShaderMode</text>
</a>
</g>
<!-- Node2&#45;&gt;Node6 -->
<g id="edge10" class="edge"><title>Node2&#45;&gt;Node6</title>
<path fill="none" stroke="midnightblue" d="M1155.98,-371.297C1175.31,-372.553 1195.24,-373.829 1214,-375 1295.65,-380.097 1389.04,-385.605 1453.77,-389.372"/>
<polygon fill="midnightblue" stroke="midnightblue" points="1156.14,-367.8 1145.93,-370.643 1155.68,-374.786 1156.14,-367.8"/>
</g>
<!-- Node9 -->
<g id="node19" class="node"><title>Node9</title>
<a xlink:href="class_hydrax_1_1_hydrax.html#a6fbd6d0808443ba1d2d7569ac6b27583" target="_top" xlink:title="Hydrax::Hydrax::setComponents">
<polygon fill="white" stroke="black" points="1214.5,-344.5 1214.5,-365.5 1375.5,-365.5 1375.5,-344.5 1214.5,-344.5"/>
<text text-anchor="middle" x="1295" y="-352.5" font-family="Helvetica,sans-Serif" font-size="10.00">Hydrax::Hydrax::setComponents</text>
</a>
</g>
<!-- Node2&#45;&gt;Node9 -->
<g id="edge20" class="edge"><title>Node2&#45;&gt;Node9</title>
<path fill="none" stroke="midnightblue" d="M1156.03,-360.023C1175.62,-359.315 1195.68,-358.59 1214.26,-357.918"/>
<polygon fill="midnightblue" stroke="midnightblue" points="1155.71,-356.532 1145.84,-360.391 1155.96,-363.528 1155.71,-356.532"/>
</g>
<!-- Node11 -->
<g id="node24" class="node"><title>Node11</title>
<a xlink:href="class_hydrax_1_1_hydrax.html#a3f678db49fe45320efb237d145ec63e4" target="_top" xlink:title="Hydrax::Hydrax::setModule">
<polygon fill="white" stroke="black" points="1920.5,-303.5 1920.5,-324.5 2057.5,-324.5 2057.5,-303.5 1920.5,-303.5"/>
<text text-anchor="middle" x="1989" y="-311.5" font-family="Helvetica,sans-Serif" font-size="10.00">Hydrax::Hydrax::setModule</text>
</a>
</g>
<!-- Node2&#45;&gt;Node11 -->
<g id="edge26" class="edge"><title>Node2&#45;&gt;Node11</title>
<path fill="none" stroke="midnightblue" d="M1105.8,-351.523C1137.76,-345.403 1177.86,-338.59 1214,-335 1473.84,-309.188 1784.93,-310.437 1920.37,-312.557"/>
<polygon fill="midnightblue" stroke="midnightblue" points="1104.88,-348.137 1095.73,-353.481 1106.22,-355.008 1104.88,-348.137"/>
</g>
<!-- Node4 -->
<g id="node7" class="node"><title>Node4</title>
<a xlink:href="class_hydrax_water.html#aedfd9537f96021b60a195b2bb6a9ee2d" target="_top" xlink:title="HydraxWater::InitHydrax">
<polygon fill="white" stroke="black" points="2116.5,-323.5 2116.5,-344.5 2241.5,-344.5 2241.5,-323.5 2116.5,-323.5"/>
<text text-anchor="middle" x="2179" y="-331.5" font-family="Helvetica,sans-Serif" font-size="10.00">HydraxWater::InitHydrax</text>
</a>
</g>
<!-- Node3&#45;&gt;Node4 -->
<g id="edge6" class="edge"><title>Node3&#45;&gt;Node4</title>
<path fill="none" stroke="midnightblue" d="M1364.99,-175.401C1476.44,-169.836 1700.4,-165.866 1884,-208 1994.46,-233.349 2115.72,-298.017 2160.81,-323.474"/>
<polygon fill="midnightblue" stroke="midnightblue" points="1364.69,-171.912 1354.88,-175.925 1365.05,-178.902 1364.69,-171.912"/>
</g>
<!-- Node5 -->
<g id="node9" class="node"><title>Node5</title>
<a xlink:href="class_hydrax_water.html#a20bb0db860124c8e18903f5d640f88db" target="_top" xlink:title="HydraxWater::HydraxWater">
<polygon fill="white" stroke="black" points="2300,-323.5 2300,-344.5 2438,-344.5 2438,-323.5 2300,-323.5"/>
<text text-anchor="middle" x="2369" y="-331.5" font-family="Helvetica,sans-Serif" font-size="10.00">HydraxWater::HydraxWater</text>
</a>
</g>
<!-- Node4&#45;&gt;Node5 -->
<g id="edge8" class="edge"><title>Node4&#45;&gt;Node5</title>
<path fill="none" stroke="midnightblue" d="M2251.92,-334C2267.64,-334 2284.2,-334 2299.77,-334"/>
<polygon fill="midnightblue" stroke="midnightblue" points="2251.74,-330.5 2241.74,-334 2251.74,-337.5 2251.74,-330.5"/>
</g>
<!-- Node6&#45;&gt;Node4 -->
<g id="edge18" class="edge"><title>Node6&#45;&gt;Node4</title>
<path fill="none" stroke="midnightblue" d="M1624.46,-398.191C1729.57,-401.304 1907.79,-401.133 2058,-374 2092.18,-367.825 2129.95,-354.18 2154.05,-344.549"/>
<polygon fill="midnightblue" stroke="midnightblue" points="1624.31,-394.685 1614.2,-397.87 1624.09,-401.682 1624.31,-394.685"/>
</g>
<!-- Node7 -->
<g id="node13" class="node"><title>Node7</title>
<a xlink:href="class_hydrax_1_1_cfg_file_manager.html#a7d283a6b6b61ad70292c7cb24cd3543c" target="_top" xlink:title="Hydrax::CfgFileManager::load">
<polygon fill="white" stroke="black" points="1714.5,-343.5 1714.5,-364.5 1861.5,-364.5 1861.5,-343.5 1714.5,-343.5"/>
<text text-anchor="middle" x="1788" y="-351.5" font-family="Helvetica,sans-Serif" font-size="10.00">Hydrax::CfgFileManager::load</text>
</a>
</g>
<!-- Node6&#45;&gt;Node7 -->
<g id="edge12" class="edge"><title>Node6&#45;&gt;Node7</title>
<path fill="none" stroke="midnightblue" d="M1610.96,-381.88C1646.14,-376.339 1687.42,-369.839 1721.27,-364.509"/>
<polygon fill="midnightblue" stroke="midnightblue" points="1610.07,-378.477 1600.74,-383.49 1611.16,-385.392 1610.07,-378.477"/>
</g>
<!-- Node8 -->
<g id="node15" class="node"><title>Node8</title>
<a xlink:href="class_hydrax_1_1_hydrax.html#a1a9a011581dc097e3928511632b534da" target="_top" xlink:title="Hydrax::Hydrax::loadCfg">
<polygon fill="white" stroke="black" points="1926.5,-343.5 1926.5,-364.5 2051.5,-364.5 2051.5,-343.5 1926.5,-343.5"/>
<text text-anchor="middle" x="1989" y="-351.5" font-family="Helvetica,sans-Serif" font-size="10.00">Hydrax::Hydrax::loadCfg</text>
</a>
</g>
<!-- Node7&#45;&gt;Node8 -->
<g id="edge14" class="edge"><title>Node7&#45;&gt;Node8</title>
<path fill="none" stroke="midnightblue" d="M1871.74,-354C1889.97,-354 1908.96,-354 1926.22,-354"/>
<polygon fill="midnightblue" stroke="midnightblue" points="1871.7,-350.5 1861.7,-354 1871.7,-357.5 1871.7,-350.5"/>
</g>
<!-- Node8&#45;&gt;Node4 -->
<g id="edge16" class="edge"><title>Node8&#45;&gt;Node4</title>
<path fill="none" stroke="midnightblue" d="M2061.87,-346.329C2079.83,-344.439 2098.9,-342.432 2116.33,-340.597"/>
<polygon fill="midnightblue" stroke="midnightblue" points="2061.32,-342.868 2051.74,-347.396 2062.05,-349.83 2061.32,-342.868"/>
</g>
<!-- Node10 -->
<g id="node21" class="node"><title>Node10</title>
<a xlink:href="class_hydrax_1_1_cfg_file_manager.html#a6717ef4e731b3c22d71260aaa6d0336a" target="_top" xlink:title="Hydrax::CfgFileManager::_loadComponentsSettings">
<polygon fill="white" stroke="black" points="1412,-343.5 1412,-364.5 1656,-364.5 1656,-343.5 1412,-343.5"/>
<text text-anchor="middle" x="1534" y="-351.5" font-family="Helvetica,sans-Serif" font-size="10.00">Hydrax::CfgFileManager::_loadComponentsSettings</text>
</a>
</g>
<!-- Node9&#45;&gt;Node10 -->
<g id="edge22" class="edge"><title>Node9&#45;&gt;Node10</title>
<path fill="none" stroke="midnightblue" d="M1385.81,-354.62C1394.3,-354.585 1402.98,-354.548 1411.69,-354.512"/>
<polygon fill="midnightblue" stroke="midnightblue" points="1385.57,-351.121 1375.58,-354.663 1385.6,-358.121 1385.57,-351.121"/>
</g>
<!-- Node10&#45;&gt;Node7 -->
<g id="edge24" class="edge"><title>Node10&#45;&gt;Node7</title>
<path fill="none" stroke="midnightblue" d="M1666.39,-354C1682.81,-354 1699.1,-354 1714.18,-354"/>
<polygon fill="midnightblue" stroke="midnightblue" points="1666.16,-350.5 1656.16,-354 1666.16,-357.5 1666.16,-350.5"/>
</g>
<!-- Node11&#45;&gt;Node4 -->
<g id="edge28" class="edge"><title>Node11&#45;&gt;Node4</title>
<path fill="none" stroke="midnightblue" d="M2067.58,-322.272C2083.78,-323.977 2100.64,-325.752 2116.19,-327.389"/>
<polygon fill="midnightblue" stroke="midnightblue" points="2067.91,-318.787 2057.59,-321.22 2067.17,-325.748 2067.91,-318.787"/>
</g>
<!-- Node12&#45;&gt;Node2 -->
<g id="edge32" class="edge"><title>Node12&#45;&gt;Node2</title>
<path fill="none" stroke="midnightblue" d="M842.481,-430.659C854.493,-428.431 866.592,-425.883 878,-423 929.699,-409.932 988.005,-387.687 1020.54,-374.565"/>
<polygon fill="midnightblue" stroke="midnightblue" points="841.656,-427.251 832.428,-432.455 842.887,-434.142 841.656,-427.251"/>
</g>
<!-- Node13&#45;&gt;Node2 -->
<g id="edge36" class="edge"><title>Node13&#45;&gt;Node2</title>
<path fill="none" stroke="midnightblue" d="M521.48,-298.595C616.18,-308.76 756.189,-324.323 878,-340 909.998,-344.118 945.359,-349.104 975.353,-353.462"/>
<polygon fill="midnightblue" stroke="midnightblue" points="521.628,-295.091 511.312,-297.506 520.883,-302.051 521.628,-295.091"/>
</g>
<!-- Node13&#45;&gt;Node14 -->
<g id="edge38" class="edge"><title>Node13&#45;&gt;Node14</title>
<path fill="none" stroke="midnightblue" d="M534.002,-287C569.439,-287 607.852,-287 642.418,-287"/>
<polygon fill="midnightblue" stroke="midnightblue" points="533.601,-283.5 523.601,-287 533.601,-290.5 533.601,-283.5"/>
</g>
<!-- Node14&#45;&gt;Node2 -->
<g id="edge40" class="edge"><title>Node14&#45;&gt;Node2</title>
<path fill="none" stroke="midnightblue" d="M821.92,-299.525C840.253,-303.177 859.941,-307.427 878,-312 926.54,-324.292 981.835,-342.176 1015.31,-353.442"/>
<polygon fill="midnightblue" stroke="midnightblue" points="822.381,-296.049 811.894,-297.56 821.034,-302.918 822.381,-296.049"/>
</g>
<!-- Node15 -->
<g id="node36" class="node"><title>Node15</title>
<a xlink:href="class_terrain_manager.html#aa7c9434ece63d1313c840b632a3b0430" target="_top" xlink:title="TerrainManager::initWater">
<polygon fill="white" stroke="black" points="981.5,-276.5 981.5,-297.5 1110.5,-297.5 1110.5,-276.5 981.5,-276.5"/>
<text text-anchor="middle" x="1046" y="-284.5" font-family="Helvetica,sans-Serif" font-size="10.00">TerrainManager::initWater</text>
</a>
</g>
<!-- Node14&#45;&gt;Node15 -->
<g id="edge42" class="edge"><title>Node14&#45;&gt;Node15</title>
<path fill="none" stroke="midnightblue" d="M872.359,-287C909.718,-287 949.452,-287 981.47,-287"/>
<polygon fill="midnightblue" stroke="midnightblue" points="871.893,-283.5 861.893,-287 871.893,-290.5 871.893,-283.5"/>
</g>
<!-- Node16 -->
<g id="node38" class="node"><title>Node16</title>
<a xlink:href="class_terrain_manager.html#a9a04c837bf2ea6528c465b27ca62f730" target="_top" xlink:title="TerrainManager::loadTerrain">
<polygon fill="white" stroke="black" points="1226,-226.5 1226,-247.5 1364,-247.5 1364,-226.5 1226,-226.5"/>
<text text-anchor="middle" x="1295" y="-234.5" font-family="Helvetica,sans-Serif" font-size="10.00">TerrainManager::loadTerrain</text>
</a>
</g>
<!-- Node15&#45;&gt;Node16 -->
<g id="edge44" class="edge"><title>Node15&#45;&gt;Node16</title>
<path fill="none" stroke="midnightblue" d="M1120.67,-277.026C1139.45,-274.15 1159.52,-270.76 1178,-267 1204.92,-261.524 1234.93,-253.797 1257.81,-247.556"/>
<polygon fill="midnightblue" stroke="midnightblue" points="1120.05,-273.579 1110.68,-278.526 1121.09,-280.502 1120.05,-273.579"/>
</g>
<!-- Node17 -->
<g id="node40" class="node"><title>Node17</title>
<a xlink:href="class_ro_r_1_1_main_thread.html#a60603be78a54ae5a24ca1c00509aca1f" target="_top" xlink:title="RoR::MainThread::LoadTerrain">
<polygon fill="white" stroke="black" points="1458.5,-225.5 1458.5,-246.5 1609.5,-246.5 1609.5,-225.5 1458.5,-225.5"/>
<text text-anchor="middle" x="1534" y="-233.5" font-family="Helvetica,sans-Serif" font-size="10.00">RoR::MainThread::LoadTerrain</text>
</a>
</g>
<!-- Node16&#45;&gt;Node17 -->
<g id="edge46" class="edge"><title>Node16&#45;&gt;Node17</title>
<path fill="none" stroke="midnightblue" d="M1374.33,-236.668C1401.4,-236.555 1431.57,-236.429 1458.33,-236.317"/>
<polygon fill="midnightblue" stroke="midnightblue" points="1374.11,-233.169 1364.13,-236.711 1374.14,-240.169 1374.11,-233.169"/>
</g>
<!-- Node18 -->
<g id="node42" class="node"><title>Node18</title>
<a xlink:href="class_ro_r_1_1_main_thread.html#aa3feeebda7f3f4c31a6cb96ea60c09e0" target="_top" xlink:title="RoR::MainThread::SetupGameplayLoop">
<polygon fill="white" stroke="black" points="1692.5,-217.5 1692.5,-238.5 1883.5,-238.5 1883.5,-217.5 1692.5,-217.5"/>
<text text-anchor="middle" x="1788" y="-225.5" font-family="Helvetica,sans-Serif" font-size="10.00">RoR::MainThread::SetupGameplayLoop</text>
</a>
</g>
<!-- Node17&#45;&gt;Node18 -->
<g id="edge48" class="edge"><title>Node17&#45;&gt;Node18</title>
<path fill="none" stroke="midnightblue" d="M1619.75,-233.299C1643.12,-232.563 1668.59,-231.761 1692.47,-231.009"/>
<polygon fill="midnightblue" stroke="midnightblue" points="1619.41,-229.808 1609.52,-233.621 1619.63,-236.805 1619.41,-229.808"/>
</g>
<!-- Node23 -->
<g id="node52" class="node"><title>Node23</title>
<a xlink:href="class_game_script.html#ac1cba3fc83facbad8281ff80d4ab0f0b" target="_top" xlink:title="GameScript::loadTerrain">
<polygon fill="white" stroke="black" points="1727,-257.5 1727,-278.5 1849,-278.5 1849,-257.5 1727,-257.5"/>
<text text-anchor="middle" x="1788" y="-265.5" font-family="Helvetica,sans-Serif" font-size="10.00">GameScript::loadTerrain</text>
</a>
</g>
<!-- Node17&#45;&gt;Node23 -->
<g id="edge58" class="edge"><title>Node17&#45;&gt;Node23</title>
<path fill="none" stroke="midnightblue" d="M1619.77,-246.806C1654.9,-251.231 1694.74,-256.251 1726.84,-260.294"/>
<polygon fill="midnightblue" stroke="midnightblue" points="1619.88,-243.292 1609.52,-245.514 1619,-250.237 1619.88,-243.292"/>
</g>
<!-- Node19 -->
<g id="node44" class="node"><title>Node19</title>
<a xlink:href="class_ro_r_1_1_main_thread.html#a7e4d0bd23a40e509892883af75ea0dbf" target="_top" xlink:title="RoR::MainThread::Go">
<polygon fill="white" stroke="black" points="1932.5,-139.5 1932.5,-160.5 2045.5,-160.5 2045.5,-139.5 1932.5,-139.5"/>
<text text-anchor="middle" x="1989" y="-147.5" font-family="Helvetica,sans-Serif" font-size="10.00">RoR::MainThread::Go</text>
</a>
</g>
<!-- Node18&#45;&gt;Node19 -->
<g id="edge50" class="edge"><title>Node18&#45;&gt;Node19</title>
<path fill="none" stroke="midnightblue" d="M1824.64,-213.78C1864.17,-198.44 1926.21,-174.367 1961.68,-160.602"/>
<polygon fill="midnightblue" stroke="midnightblue" points="1823.16,-210.6 1815.11,-217.481 1825.7,-217.126 1823.16,-210.6"/>
</g>
<!-- Node20 -->
<g id="node46" class="node"><title>Node20</title>
<a xlink:href="main_2main__sim_2main_8cpp.html#a0ddf1224851353fc92bfbff6f499fa97" target="_top" xlink:title="main">
<polygon fill="white" stroke="black" points="2160,-159.5 2160,-180.5 2198,-180.5 2198,-159.5 2160,-159.5"/>
<text text-anchor="middle" x="2179" y="-167.5" font-family="Helvetica,sans-Serif" font-size="10.00">main</text>
</a>
</g>
<!-- Node19&#45;&gt;Node20 -->
<g id="edge52" class="edge"><title>Node19&#45;&gt;Node20</title>
<path fill="none" stroke="midnightblue" d="M2055.93,-157.046C2092.69,-160.915 2135.62,-165.433 2159.82,-167.981"/>
<polygon fill="midnightblue" stroke="midnightblue" points="2056.06,-153.54 2045.75,-155.974 2055.33,-160.501 2056.06,-153.54"/>
</g>
<!-- Node21 -->
<g id="node48" class="node"><title>Node21</title>
<a xlink:href="class_ro_r_1_1_main_thread.html#a7a2db954fd2f35d63982d8603d2b9614" target="_top" xlink:title="RoR::MainThread::RequestRestart">
<polygon fill="white" stroke="black" points="2094.5,-119.5 2094.5,-140.5 2263.5,-140.5 2263.5,-119.5 2094.5,-119.5"/>
<text text-anchor="middle" x="2179" y="-127.5" font-family="Helvetica,sans-Serif" font-size="10.00">RoR::MainThread::RequestRestart</text>
</a>
</g>
<!-- Node19&#45;&gt;Node21 -->
<g id="edge54" class="edge"><title>Node19&#45;&gt;Node21</title>
<path fill="none" stroke="midnightblue" d="M2056,-142.947C2068.43,-141.639 2081.56,-140.257 2094.43,-138.902"/>
<polygon fill="midnightblue" stroke="midnightblue" points="2055.33,-139.499 2045.75,-144.026 2056.06,-146.46 2055.33,-139.499"/>
</g>
<!-- Node22 -->
<g id="node50" class="node"><title>Node22</title>
<a xlink:href="class_ro_r_frame_listener.html#af2779b96aa0f91920bd100bc30261402" target="_top" xlink:title="RoRFrameListener::Restart">
<polygon fill="white" stroke="black" points="2300.5,-119.5 2300.5,-140.5 2437.5,-140.5 2437.5,-119.5 2300.5,-119.5"/>
<text text-anchor="middle" x="2369" y="-127.5" font-family="Helvetica,sans-Serif" font-size="10.00">RoRFrameListener::Restart</text>
</a>
</g>
<!-- Node21&#45;&gt;Node22 -->
<g id="edge56" class="edge"><title>Node21&#45;&gt;Node22</title>
<path fill="none" stroke="midnightblue" d="M2273.82,-130C2282.78,-130 2291.75,-130 2300.4,-130"/>
<polygon fill="midnightblue" stroke="midnightblue" points="2273.72,-126.5 2263.72,-130 2273.72,-133.5 2273.72,-126.5"/>
</g>
<!-- Node24&#45;&gt;Node25 -->
<g id="edge62" class="edge"><title>Node24&#45;&gt;Node25</title>
<path fill="none" stroke="midnightblue" d="M564.646,-404.099C585.12,-403.979 605.921,-403.857 625.853,-403.74"/>
<polygon fill="midnightblue" stroke="midnightblue" points="564.606,-400.599 554.626,-404.158 564.647,-407.599 564.606,-400.599"/>
</g>
<!-- Node25&#45;&gt;Node2 -->
<g id="edge64" class="edge"><title>Node25&#45;&gt;Node2</title>
<path fill="none" stroke="midnightblue" d="M841.183,-391.17C881.167,-385.866 927.939,-379.661 966.685,-374.521"/>
<polygon fill="midnightblue" stroke="midnightblue" points="840.626,-387.713 831.173,-392.497 841.547,-394.652 840.626,-387.713"/>
</g>
<!-- Node26&#45;&gt;Node2 -->
<g id="edge68" class="edge"><title>Node26&#45;&gt;Node2</title>
<path fill="none" stroke="midnightblue" d="M545.887,-335.225C572.443,-336.824 600.098,-338.477 626,-340 735.547,-346.442 861.181,-353.589 946.284,-358.395"/>
<polygon fill="midnightblue" stroke="midnightblue" points="545.962,-331.723 535.77,-334.614 545.541,-338.71 545.962,-331.723"/>
</g>
<!-- Node27&#45;&gt;Node2 -->
<g id="edge72" class="edge"><title>Node27&#45;&gt;Node2</title>
<path fill="none" stroke="midnightblue" d="M507.311,-532.37C604.222,-540.061 756.343,-541.754 878,-496 948.826,-469.363 1013.45,-401.357 1036.79,-374.829"/>
<polygon fill="midnightblue" stroke="midnightblue" points="507.489,-528.873 497.233,-531.533 506.909,-535.849 507.489,-528.873"/>
</g>
<!-- Node29 -->
<g id="node67" class="node"><title>Node29</title>
<a xlink:href="class_hydrax_1_1_g_p_u_normal_map_manager.html#a7398a504e11ea902839868d69bcf956b" target="_top" xlink:title="Hydrax::GPUNormalMapManager::create">
<polygon fill="white" stroke="black" points="653.5,-40.5 653.5,-61.5 850.5,-61.5 850.5,-40.5 653.5,-40.5"/>
<text text-anchor="middle" x="752" y="-48.5" font-family="Helvetica,sans-Serif" font-size="10.00">Hydrax::GPUNormalMapManager::create</text>
</a>
</g>
<!-- Node28&#45;&gt;Node29 -->
<g id="edge76" class="edge"><title>Node28&#45;&gt;Node29</title>
<path fill="none" stroke="midnightblue" d="M500.41,-197.103C531.503,-195.524 564.853,-188.371 590,-169 625.113,-141.953 592.063,-104.508 626,-76 634.026,-69.2582 643.352,-64.1493 653.23,-60.3008"/>
<polygon fill="midnightblue" stroke="midnightblue" points="500.288,-193.605 490.407,-197.428 500.516,-200.602 500.288,-193.605"/>
</g>
<!-- Node33 -->
<g id="node75" class="node"><title>Node33</title>
<a xlink:href="class_hydrax_1_1_hydrax.html#a8564eb97a6a5085af5d0475947af1599" target="_top" xlink:title="Hydrax::Hydrax::_checkVisible">
<polygon fill="white" stroke="black" points="970,-80.5 970,-101.5 1122,-101.5 1122,-80.5 970,-80.5"/>
<text text-anchor="middle" x="1046" y="-88.5" font-family="Helvetica,sans-Serif" font-size="10.00">Hydrax::Hydrax::_checkVisible</text>
</a>
</g>
<!-- Node28&#45;&gt;Node33 -->
<g id="edge94" class="edge"><title>Node28&#45;&gt;Node33</title>
<path fill="none" stroke="midnightblue" d="M500.337,-194.577C530.8,-192.607 563.76,-185.85 590,-169 616.168,-152.197 599.272,-124.898 626,-109 682.061,-75.6536 864.601,-80.0992 969.663,-85.8186"/>
<polygon fill="midnightblue" stroke="midnightblue" points="499.935,-191.092 490.116,-195.07 500.272,-198.084 499.935,-191.092"/>
</g>
<!-- Node37 -->
<g id="node85" class="node"><title>Node37</title>
<a xlink:href="class_hydrax_1_1_hydrax.html#a571ddf613078bcaae4b45c22074e53bc" target="_top" xlink:title="Hydrax::Hydrax::_checkUnderwater">
<polygon fill="white" stroke="black" points="665.5,-118.5 665.5,-139.5 838.5,-139.5 838.5,-118.5 665.5,-118.5"/>
<text text-anchor="middle" x="752" y="-126.5" font-family="Helvetica,sans-Serif" font-size="10.00">Hydrax::Hydrax::_checkUnderwater</text>
</a>
</g>
<!-- Node28&#45;&gt;Node37 -->
<g id="edge96" class="edge"><title>Node28&#45;&gt;Node37</title>
<path fill="none" stroke="midnightblue" d="M500.522,-185.968C529.577,-183.152 561.623,-178.065 590,-169 607.435,-163.431 608.698,-154.97 626,-149 638.458,-144.701 651.931,-141.321 665.275,-138.663"/>
<polygon fill="midnightblue" stroke="midnightblue" points="500.031,-182.498 490.381,-186.872 500.653,-189.47 500.031,-182.498"/>
</g>
<!-- Node40 -->
<g id="node93" class="node"><title>Node40</title>
<a xlink:href="class_hydrax_1_1_rtt_manager.html#abf7d8e05771b9f904efa09fe94ab0907" target="_top" xlink:title="Hydrax::RttManager::setTextureSize">
<polygon fill="white" stroke="black" points="957.5,-236.5 957.5,-257.5 1134.5,-257.5 1134.5,-236.5 957.5,-236.5"/>
<text text-anchor="middle" x="1046" y="-244.5" font-family="Helvetica,sans-Serif" font-size="10.00">Hydrax::RttManager::setTextureSize</text>
</a>
</g>
<!-- Node28&#45;&gt;Node40 -->
<g id="edge106" class="edge"><title>Node28&#45;&gt;Node40</title>
<path fill="none" stroke="midnightblue" d="M467.293,-201.725C510.476,-210.938 571.694,-222.816 626,-229 739.848,-241.965 872.022,-245.797 957.225,-246.823"/>
<polygon fill="midnightblue" stroke="midnightblue" points="467.781,-198.25 457.268,-199.565 466.307,-205.093 467.781,-198.25"/>
</g>
<!-- Node42 -->
<g id="node98" class="node"><title>Node42</title>
<a xlink:href="class_hydrax_1_1_rtt_manager.html#ad54dd87efa7baa4a5037faa2e5241738" target="_top" xlink:title="Hydrax::RttManager::setTexturesSize">
<polygon fill="white" stroke="black" points="661,-198.5 661,-219.5 843,-219.5 843,-198.5 661,-198.5"/>
<text text-anchor="middle" x="752" y="-206.5" font-family="Helvetica,sans-Serif" font-size="10.00">Hydrax::RttManager::setTexturesSize</text>
</a>
</g>
<!-- Node28&#45;&gt;Node42 -->
<g id="edge112" class="edge"><title>Node28&#45;&gt;Node42</title>
<path fill="none" stroke="midnightblue" d="M500.147,-194.229C549.673,-197.133 611.16,-200.74 660.982,-203.662"/>
<polygon fill="midnightblue" stroke="midnightblue" points="500.277,-190.73 490.089,-193.639 499.867,-197.718 500.277,-190.73"/>
</g>
<!-- Node43 -->
<g id="node100" class="node"><title>Node43</title>
<a xlink:href="class_hydrax_1_1_texture_manager.html#a30bfb59332540e897c43193474b4aa19" target="_top" xlink:title="Hydrax::TextureManager::create">
<polygon fill="white" stroke="black" points="673,-158.5 673,-179.5 831,-179.5 831,-158.5 673,-158.5"/>
<text text-anchor="middle" x="752" y="-166.5" font-family="Helvetica,sans-Serif" font-size="10.00">Hydrax::TextureManager::create</text>
</a>
</g>
<!-- Node28&#45;&gt;Node43 -->
<g id="edge114" class="edge"><title>Node28&#45;&gt;Node43</title>
<path fill="none" stroke="midnightblue" d="M500.25,-183.765C553.737,-180.628 621.148,-176.675 672.75,-173.648"/>
<polygon fill="midnightblue" stroke="midnightblue" points="499.867,-180.282 490.089,-184.361 500.277,-187.27 499.867,-180.282"/>
</g>
<!-- Node30 -->
<g id="node69" class="node"><title>Node30</title>
<a xlink:href="class_hydrax_1_1_noise_1_1_f_f_t.html#aa8e2b9d2b8307c07be2d2cd9cf115560" target="_top" xlink:title="Hydrax::Noise::FFT::createGPUNormalMapResources">
<polygon fill="white" stroke="black" points="918,-40.5 918,-61.5 1174,-61.5 1174,-40.5 918,-40.5"/>
<text text-anchor="middle" x="1046" y="-48.5" font-family="Helvetica,sans-Serif" font-size="10.00">Hydrax::Noise::FFT::createGPUNormalMapResources</text>
</a>
</g>
<!-- Node29&#45;&gt;Node30 -->
<g id="edge78" class="edge"><title>Node29&#45;&gt;Node30</title>
<path fill="none" stroke="midnightblue" d="M860.908,-51C879.431,-51 898.819,-51 917.784,-51"/>
<polygon fill="midnightblue" stroke="midnightblue" points="860.716,-47.5001 850.716,-51 860.716,-54.5001 860.716,-47.5001"/>
</g>
<!-- Node29&#45;&gt;Node33 -->
<g id="edge84" class="edge"><title>Node29&#45;&gt;Node33</title>
<path fill="none" stroke="midnightblue" d="M839.333,-62.8821C880.783,-68.5215 929.856,-75.1981 969.78,-80.6299"/>
<polygon fill="midnightblue" stroke="midnightblue" points="839.626,-59.3897 829.245,-61.5095 838.682,-66.3258 839.626,-59.3897"/>
</g>
<!-- Node36 -->
<g id="node82" class="node"><title>Node36</title>
<a xlink:href="class_hydrax_1_1_noise_1_1_perlin.html#adb347b98692bd7ce6ad7ce76c605d15a" target="_top" xlink:title="Hydrax::Noise::Perlin::createGPUNormalMapResources">
<polygon fill="white" stroke="black" points="914.5,-0.5 914.5,-21.5 1177.5,-21.5 1177.5,-0.5 914.5,-0.5"/>
<text text-anchor="middle" x="1046" y="-8.5" font-family="Helvetica,sans-Serif" font-size="10.00">Hydrax::Noise::Perlin::createGPUNormalMapResources</text>
</a>
</g>
<!-- Node29&#45;&gt;Node36 -->
<g id="edge92" class="edge"><title>Node29&#45;&gt;Node36</title>
<path fill="none" stroke="midnightblue" d="M839.253,-39.1289C880.368,-33.535 928.997,-26.9187 968.761,-21.5087"/>
<polygon fill="midnightblue" stroke="midnightblue" points="838.682,-35.6742 829.245,-40.4905 839.626,-42.6103 838.682,-35.6742"/>
</g>
<!-- Node31 -->
<g id="node71" class="node"><title>Node31</title>
<a xlink:href="class_hydrax_1_1_noise_1_1_f_f_t.html#a1d7ec06eb11cda608cc8f73256c35be5" target="_top" xlink:title="Hydrax::Noise::FFT::setOptions">
<polygon fill="white" stroke="black" points="1216.5,-40.5 1216.5,-61.5 1373.5,-61.5 1373.5,-40.5 1216.5,-40.5"/>
<text text-anchor="middle" x="1295" y="-48.5" font-family="Helvetica,sans-Serif" font-size="10.00">Hydrax::Noise::FFT::setOptions</text>
</a>
</g>
<!-- Node30&#45;&gt;Node31 -->
<g id="edge80" class="edge"><title>Node30&#45;&gt;Node31</title>
<path fill="none" stroke="midnightblue" d="M1184.26,-51C1195.25,-51 1206.09,-51 1216.43,-51"/>
<polygon fill="midnightblue" stroke="midnightblue" points="1184.15,-47.5001 1174.15,-51 1184.15,-54.5001 1184.15,-47.5001"/>
</g>
<!-- Node32 -->
<g id="node73" class="node"><title>Node32</title>
<a xlink:href="class_hydrax_1_1_noise_1_1_f_f_t.html#a64245b9e56eeb8627ac3f5260dc203dd" target="_top" xlink:title="Hydrax::Noise::FFT::loadCfg">
<polygon fill="white" stroke="black" points="1462.5,-40.5 1462.5,-61.5 1605.5,-61.5 1605.5,-40.5 1462.5,-40.5"/>
<text text-anchor="middle" x="1534" y="-48.5" font-family="Helvetica,sans-Serif" font-size="10.00">Hydrax::Noise::FFT::loadCfg</text>
</a>
</g>
<!-- Node31&#45;&gt;Node32 -->
<g id="edge82" class="edge"><title>Node31&#45;&gt;Node32</title>
<path fill="none" stroke="midnightblue" d="M1383.77,-51C1409.63,-51 1437.55,-51 1462.23,-51"/>
<polygon fill="midnightblue" stroke="midnightblue" points="1383.59,-47.5001 1373.59,-51 1383.59,-54.5001 1383.59,-47.5001"/>
</g>
<!-- Node33&#45;&gt;Node3 -->
<g id="edge86" class="edge"><title>Node33&#45;&gt;Node3</title>
<path fill="none" stroke="midnightblue" d="M1132.05,-95.3186C1147.96,-98.5032 1163.97,-103.444 1178,-111 1199.06,-122.344 1194.14,-137.675 1214,-151 1225.78,-158.905 1239.98,-164.937 1253.17,-169.397"/>
<polygon fill="midnightblue" stroke="midnightblue" points="1132.63,-91.8667 1122.17,-93.555 1131.4,-98.7578 1132.63,-91.8667"/>
</g>
<!-- Node34 -->
<g id="node78" class="node"><title>Node34</title>
<a xlink:href="class_hydrax_1_1_hydrax.html#a2c6e89c89098c1ae2f152b0cac0ecfde" target="_top" xlink:title="Hydrax::Hydrax::setVisible">
<polygon fill="white" stroke="black" points="1228,-80.5 1228,-101.5 1362,-101.5 1362,-80.5 1228,-80.5"/>
<text text-anchor="middle" x="1295" y="-88.5" font-family="Helvetica,sans-Serif" font-size="10.00">Hydrax::Hydrax::setVisible</text>
</a>
</g>
<!-- Node33&#45;&gt;Node34 -->
<g id="edge88" class="edge"><title>Node33&#45;&gt;Node34</title>
<path fill="none" stroke="midnightblue" d="M1132.1,-91C1163.44,-91 1198.38,-91 1227.84,-91"/>
<polygon fill="midnightblue" stroke="midnightblue" points="1132.06,-87.5001 1122.06,-91 1132.06,-94.5001 1132.06,-87.5001"/>
</g>
<!-- Node35 -->
<g id="node80" class="node"><title>Node35</title>
<a xlink:href="class_hydrax_water.html#a21b7f14c1cce1f562a596543dc335a4c" target="_top" xlink:title="HydraxWater::setVisible">
<polygon fill="white" stroke="black" points="1472.5,-80.5 1472.5,-101.5 1595.5,-101.5 1595.5,-80.5 1472.5,-80.5"/>
<text text-anchor="middle" x="1534" y="-88.5" font-family="Helvetica,sans-Serif" font-size="10.00">HydraxWater::setVisible</text>
</a>
</g>
<!-- Node34&#45;&gt;Node35 -->
<g id="edge90" class="edge"><title>Node34&#45;&gt;Node35</title>
<path fill="none" stroke="midnightblue" d="M1372.52,-91C1404.81,-91 1441.79,-91 1472.2,-91"/>
<polygon fill="midnightblue" stroke="midnightblue" points="1372.21,-87.5001 1362.21,-91 1372.21,-94.5001 1372.21,-87.5001"/>
</g>
<!-- Node37&#45;&gt;Node3 -->
<g id="edge98" class="edge"><title>Node37&#45;&gt;Node3</title>
<path fill="none" stroke="midnightblue" d="M832.99,-140.953C858.838,-144.512 887.587,-148.204 914,-151 1027.3,-162.995 1160.06,-171.948 1235.18,-176.542"/>
<polygon fill="midnightblue" stroke="midnightblue" points="833.248,-137.456 822.862,-139.546 832.284,-144.389 833.248,-137.456"/>
</g>
<!-- Node37&#45;&gt;Node33 -->
<g id="edge100" class="edge"><title>Node37&#45;&gt;Node33</title>
<path fill="none" stroke="midnightblue" d="M843.662,-117.153C884.207,-111.912 931.329,-105.821 969.893,-100.837"/>
<polygon fill="midnightblue" stroke="midnightblue" points="842.974,-113.712 833.505,-118.465 843.871,-120.655 842.974,-113.712"/>
</g>
<!-- Node38 -->
<g id="node89" class="node"><title>Node38</title>
<a xlink:href="class_hydrax_1_1_hydrax.html#ac584e30a6cbfb5d8884afb182c29d36a" target="_top" xlink:title="Hydrax::Hydrax::update">
<polygon fill="white" stroke="black" points="985.5,-120.5 985.5,-141.5 1106.5,-141.5 1106.5,-120.5 985.5,-120.5"/>
<text text-anchor="middle" x="1046" y="-128.5" font-family="Helvetica,sans-Serif" font-size="10.00">Hydrax::Hydrax::update</text>
</a>
</g>
<!-- Node37&#45;&gt;Node38 -->
<g id="edge102" class="edge"><title>Node37&#45;&gt;Node38</title>
<path fill="none" stroke="midnightblue" d="M848.692,-129.658C893.663,-129.964 945.777,-130.318 985.15,-130.586"/>
<polygon fill="midnightblue" stroke="midnightblue" points="848.643,-126.157 838.62,-129.589 848.595,-133.157 848.643,-126.157"/>
</g>
<!-- Node39 -->
<g id="node91" class="node"><title>Node39</title>
<a xlink:href="class_hydrax_water.html#a00888728a3ac027b68807892c1ec614b" target="_top" xlink:title="HydraxWater::framestep">
<polygon fill="white" stroke="black" points="1233,-120.5 1233,-141.5 1357,-141.5 1357,-120.5 1233,-120.5"/>
<text text-anchor="middle" x="1295" y="-128.5" font-family="Helvetica,sans-Serif" font-size="10.00">HydraxWater::framestep</text>
</a>
</g>
<!-- Node38&#45;&gt;Node39 -->
<g id="edge104" class="edge"><title>Node38&#45;&gt;Node39</title>
<path fill="none" stroke="midnightblue" d="M1116.7,-131C1153.29,-131 1197.56,-131 1232.83,-131"/>
<polygon fill="midnightblue" stroke="midnightblue" points="1116.59,-127.5 1106.59,-131 1116.59,-134.5 1116.59,-127.5"/>
</g>
<!-- Node41 -->
<g id="node95" class="node"><title>Node41</title>
<a xlink:href="class_hydrax_1_1_cfg_file_manager.html#ae2a1a0accf942e528f6ba8a041a674e6" target="_top" xlink:title="Hydrax::CfgFileManager::_loadRttSettings">
<polygon fill="white" stroke="black" points="1433,-265.5 1433,-286.5 1635,-286.5 1635,-265.5 1433,-265.5"/>
<text text-anchor="middle" x="1534" y="-273.5" font-family="Helvetica,sans-Serif" font-size="10.00">Hydrax::CfgFileManager::_loadRttSettings</text>
</a>
</g>
<!-- Node40&#45;&gt;Node41 -->
<g id="edge108" class="edge"><title>Node40&#45;&gt;Node41</title>
<path fill="none" stroke="midnightblue" d="M1145.22,-252.908C1167.83,-254.254 1191.74,-255.677 1214,-257 1287.19,-261.351 1369.81,-266.256 1432.76,-269.992"/>
<polygon fill="midnightblue" stroke="midnightblue" points="1145.12,-249.396 1134.93,-252.296 1144.71,-256.384 1145.12,-249.396"/>
</g>
<!-- Node41&#45;&gt;Node7 -->
<g id="edge110" class="edge"><title>Node41&#45;&gt;Node7</title>
<path fill="none" stroke="midnightblue" d="M1578.1,-289.543C1627.93,-304.844 1707.99,-329.429 1753.48,-343.398"/>
<polygon fill="midnightblue" stroke="midnightblue" points="1578.84,-286.109 1568.26,-286.519 1576.79,-292.801 1578.84,-286.109"/>
</g>
</g>
</svg>
        <g id="navigator" transform="translate(0 0)" fill="#404254">
                <rect fill="#f2f5e9" fill-opacity="0.5" stroke="#606060" stroke-width=".5" x="0" y="0" width="60" height="60"/>
                <use id="zoomplus" xlink:href="#zoomPlus" x="17" y="9" onmousedown="handleZoom(evt,'in')"/>
                <use id="zoomminus" xlink:href="#zoomMin" x="42" y="9" onmousedown="handleZoom(evt,'out')"/>
                <use id="reset" xlink:href="#resetDef" x="30" y="36" onmousedown="handleReset()"/>
                <g id="arrowUp" xlink:href="#dirArrow" transform="translate(30 24)" onmousedown="handlePan(0,-1)">
                  <use xlink:href="#rim" fill="#404040">
                        <set attributeName="fill" to="#808080" begin="arrowUp.mouseover" end="arrowUp.mouseout"/>
                  </use>
                  <path fill="none" stroke="white" stroke-width="1.5" d="M0,-3.0v7 M-2.5,-0.5L0,-3.0L2.5,-0.5"/>
                </g>
                <g id="arrowRight" xlink:href="#dirArrow" transform="rotate(90) translate(36 -43)" onmousedown="handlePan(1,0)">
                  <use xlink:href="#rim" fill="#404040">
                        <set attributeName="fill" to="#808080" begin="arrowRight.mouseover" end="arrowRight.mouseout"/>
                  </use>
                  <path fill="none" stroke="white" stroke-width="1.5" d="M0,-3.0v7 M-2.5,-0.5L0,-3.0L2.5,-0.5"/>
                </g>
                <g id="arrowDown" xlink:href="#dirArrow" transform="rotate(180) translate(-30 -48)" onmousedown="handlePan(0,1)">
                  <use xlink:href="#rim" fill="#404040">
                        <set attributeName="fill" to="#808080" begin="arrowDown.mouseover" end="arrowDown.mouseout"/>
                  </use>
                  <path fill="none" stroke="white" stroke-width="1.5" d="M0,-3.0v7 M-2.5,-0.5L0,-3.0L2.5,-0.5"/>
                </g>
                <g id="arrowLeft" xlink:href="#dirArrow" transform="rotate(270) translate(-36 17)" onmousedown="handlePan(-1,0)">
                  <use xlink:href="#rim" fill="#404040">
                        <set attributeName="fill" to="#808080" begin="arrowLeft.mouseover" end="arrowLeft.mouseout"/>
                  </use>
                  <path fill="none" stroke="white" stroke-width="1.5" d="M0,-3.0v7 M-2.5,-0.5L0,-3.0L2.5,-0.5"/>
                </g>
        </g>
</svg>
