<?xml version="1.0" encoding="UTF-8" standalone="no"?>
<!DOCTYPE svg PUBLIC "-//W3C//DTD SVG 1.1//EN"
 "http://www.w3.org/Graphics/SVG/1.1/DTD/svg11.dtd">
<!-- Generated by graphviz version 2.26.3 (20100126.1600)
 -->
<!-- Title: Road2::textureFit Pages: 1 -->
<svg width="498pt" height="70pt"
 viewBox="0.00 0.00 498.00 70.00" xmlns="http://www.w3.org/2000/svg" xmlns:xlink="http://www.w3.org/1999/xlink">
<g id="graph1" class="graph" transform="scale(1 1) rotate(0) translate(4 66)">
<title>Road2::textureFit</title>
<polygon fill="white" stroke="white" points="-4,5 -4,-66 495,-66 495,5 -4,5"/>
<!-- Node1 -->
<g id="node1" class="node"><title>Node1</title>
<polygon fill="#bfbfbf" stroke="black" points="0,-20.5 0,-41.5 92,-41.5 92,-20.5 0,-20.5"/>
<text text-anchor="middle" x="46" y="-28.5" font-family="Helvetica,sans-Serif" font-size="10.00">Road2::textureFit</text>
</g>
<!-- Node2 -->
<g id="node3" class="node"><title>Node2</title>
<a xlink:href="class_road2.html#a27a9cf5803361dbd84862a241ac2b9bb" target="_top" xlink:title="Road2::addQuad">
<polygon fill="white" stroke="black" points="128,-20.5 128,-41.5 218,-41.5 218,-20.5 128,-20.5"/>
<text text-anchor="middle" x="173" y="-28.5" font-family="Helvetica,sans-Serif" font-size="10.00">Road2::addQuad</text>
</a>
</g>
<!-- Node1&#45;&gt;Node2 -->
<g id="edge2" class="edge"><title>Node1&#45;&gt;Node2</title>
<path fill="none" stroke="midnightblue" d="M102.464,-31C110.975,-31 119.656,-31 127.887,-31"/>
<polygon fill="midnightblue" stroke="midnightblue" points="102.209,-27.5001 92.2092,-31 102.209,-34.5001 102.209,-27.5001"/>
</g>
<!-- Node3 -->
<g id="node5" class="node"><title>Node3</title>
<a xlink:href="class_road2.html#a9a8d8af3d830d58c09b2cea742e42832" target="_top" xlink:title="Road2::finish">
<polygon fill="white" stroke="black" points="263,-40.5 263,-61.5 337,-61.5 337,-40.5 263,-40.5"/>
<text text-anchor="middle" x="300" y="-48.5" font-family="Helvetica,sans-Serif" font-size="10.00">Road2::finish</text>
</a>
</g>
<!-- Node2&#45;&gt;Node3 -->
<g id="edge4" class="edge"><title>Node2&#45;&gt;Node3</title>
<path fill="none" stroke="midnightblue" d="M228.295,-39.7079C240.017,-41.5539 252.118,-43.4596 262.965,-45.1677"/>
<polygon fill="midnightblue" stroke="midnightblue" points="228.556,-36.2059 218.133,-38.1076 227.467,-43.1207 228.556,-36.2059"/>
</g>
<!-- Node5 -->
<g id="node9" class="node"><title>Node5</title>
<a xlink:href="class_road2.html#af1ed3f3e7283f49faad7101f0908ad19" target="_top" xlink:title="Road2::addBlock">
<polygon fill="white" stroke="black" points="254,-0.5 254,-21.5 346,-21.5 346,-0.5 254,-0.5"/>
<text text-anchor="middle" x="300" y="-8.5" font-family="Helvetica,sans-Serif" font-size="10.00">Road2::addBlock</text>
</a>
</g>
<!-- Node2&#45;&gt;Node5 -->
<g id="edge8" class="edge"><title>Node2&#45;&gt;Node5</title>
<path fill="none" stroke="midnightblue" d="M228.051,-22.3306C236.613,-20.9822 245.384,-19.6009 253.726,-18.2872"/>
<polygon fill="midnightblue" stroke="midnightblue" points="227.467,-18.8793 218.133,-23.8924 228.556,-25.7941 227.467,-18.8793"/>
</g>
<!-- Node4 -->
<g id="node7" class="node"><title>Node4</title>
<a xlink:href="class_procedural_manager.html#a63f800c4fe54872d67b0a3e3b1361927" target="_top" xlink:title="ProceduralManager::\lupdateObject">
<polygon fill="white" stroke="black" points="382.5,-14 382.5,-48 489.5,-48 489.5,-14 382.5,-14"/>
<text text-anchor="start" x="390.5" y="-35" font-family="Helvetica,sans-Serif" font-size="10.00">ProceduralManager::</text>
<text text-anchor="middle" x="436" y="-22" font-family="Helvetica,sans-Serif" font-size="10.00">updateObject</text>
</a>
</g>
<!-- Node3&#45;&gt;Node4 -->
<g id="edge6" class="edge"><title>Node3&#45;&gt;Node4</title>
<path fill="none" stroke="midnightblue" d="M347.27,-44.0485C358.579,-42.3854 370.735,-40.5979 382.31,-38.8956"/>
<polygon fill="midnightblue" stroke="midnightblue" points="346.547,-40.6171 337.163,-45.5349 347.565,-47.5426 346.547,-40.6171"/>
</g>
<!-- Node5&#45;&gt;Node4 -->
<g id="edge10" class="edge"><title>Node5&#45;&gt;Node4</title>
<path fill="none" stroke="midnightblue" d="M356.122,-19.2532C364.842,-20.5357 373.832,-21.8577 382.493,-23.1314"/>
<polygon fill="midnightblue" stroke="midnightblue" points="356.446,-15.7634 346.043,-17.7711 355.428,-22.6889 356.446,-15.7634"/>
</g>
</g>
</svg>
