<?xml version="1.0" encoding="UTF-8" standalone="no"?>
<!DOCTYPE svg PUBLIC "-//W3C//DTD SVG 1.1//EN"
 "http://www.w3.org/Graphics/SVG/1.1/DTD/svg11.dtd">
<!-- Generated by graphviz version 2.26.3 (20100126.1600)
 -->
<!-- Title: G Pages: 1 -->
<svg width="450pt" height="49pt"
 viewBox="0.00 0.00 450.00 49.00" xmlns="http://www.w3.org/2000/svg" xmlns:xlink="http://www.w3.org/1999/xlink">
<g id="graph1" class="graph" transform="scale(1 1) rotate(0) translate(4 45)">
<title>G</title>
<polygon fill="white" stroke="white" points="-4,5 -4,-45 447,-45 447,5 -4,5"/>
<!-- Node1 -->
<g id="node1" class="node"><title>Node1</title>
<polygon fill="#bfbfbf" stroke="black" points="0.5,-19.5 0.5,-40.5 143.5,-40.5 143.5,-19.5 0.5,-19.5"/>
<text text-anchor="middle" x="72" y="-27.5" font-family="Helvetica,sans-Serif" font-size="10.00">SlideNode::getClosestRailAll</text>
</g>
<!-- Node2 -->
<g id="node3" class="node"><title>Node2</title>
<a xlink:href="class_rail_group.html#a6efe9a33efe24279e5bfc08f1b54ee40" target="_top" xlink:title="RailGroup::getStartRail">
<polygon fill="white" stroke="black" points="324,-19.5 324,-40.5 442,-40.5 442,-19.5 324,-19.5"/>
<text text-anchor="middle" x="383" y="-27.5" font-family="Helvetica,sans-Serif" font-size="10.00">RailGroup::getStartRail</text>
</a>
</g>
<!-- Node1&#45;&gt;Node2 -->
<g id="edge2" class="edge"><title>Node1&#45;&gt;Node2</title>
<path fill="none" stroke="midnightblue" d="M143.745,-30.7573C155.847,-30.8584 168.281,-30.9457 180,-31 227.999,-31.2222 240.001,-31.2526 288,-31 296.358,-30.956 305.129,-30.8903 313.822,-30.8131"/>
<polygon fill="midnightblue" stroke="midnightblue" points="313.996,-34.3117 323.962,-30.7179 313.93,-27.312 313.996,-34.3117"/>
</g>
<!-- Node3 -->
<g id="node5" class="node"><title>Node3</title>
<a xlink:href="class_slide_node.html#ac5fd218cba138435059c5aec3ce59393" target="_top" xlink:title="SlideNode::getLenTo">
<polygon fill="white" stroke="black" points="180,-0.5 180,-21.5 288,-21.5 288,-0.5 180,-0.5"/>
<text text-anchor="middle" x="234" y="-8.5" font-family="Helvetica,sans-Serif" font-size="10.00">SlideNode::getLenTo</text>
</a>
</g>
<!-- Node1&#45;&gt;Node3 -->
<g id="edge4" class="edge"><title>Node1&#45;&gt;Node3</title>
<path fill="none" stroke="midnightblue" d="M143.527,-21.611C152.3,-20.5821 161.223,-19.5356 169.877,-18.5206"/>
<polygon fill="midnightblue" stroke="midnightblue" points="170.363,-21.9877 179.887,-17.3465 169.548,-15.0353 170.363,-21.9877"/>
</g>
<!-- Node3&#45;&gt;Node2 -->
<g id="edge6" class="edge"><title>Node3&#45;&gt;Node2</title>
<path fill="none" stroke="midnightblue" d="M288.214,-17.9132C296.527,-18.9732 305.205,-20.0798 313.789,-21.1744"/>
<polygon fill="midnightblue" stroke="midnightblue" points="313.432,-24.6572 323.794,-22.4503 314.317,-17.7134 313.432,-24.6572"/>
</g>
</g>
</svg>
