<?xml version="1.0" encoding="UTF-8" standalone="no"?>
<!DOCTYPE svg PUBLIC "-//W3C//DTD SVG 1.1//EN"
 "http://www.w3.org/Graphics/SVG/1.1/DTD/svg11.dtd">
<!-- Generated by graphviz version 2.26.3 (20100126.1600)
 -->
<!-- Title: RigDef::Serializer::ProcessNodeOptions Pages: 1 -->
<svg width="1072pt" height="94pt"
 viewBox="0.00 0.00 1072.00 94.00" xmlns="http://www.w3.org/2000/svg" xmlns:xlink="http://www.w3.org/1999/xlink">
<g id="graph1" class="graph" transform="scale(1 1) rotate(0) translate(4 90)">
<title>RigDef::Serializer::ProcessNodeOptions</title>
<polygon fill="white" stroke="white" points="-4,5 -4,-90 1069,-90 1069,5 -4,5"/>
<!-- Node1 -->
<g id="node1" class="node"><title>Node1</title>
<polygon fill="#bfbfbf" stroke="black" points="0,-26 0,-60 116,-60 116,-26 0,-26"/>
<text text-anchor="start" x="8" y="-47" font-family="Helvetica,sans-Serif" font-size="10.00">RigDef::Serializer</text>
<text text-anchor="middle" x="58" y="-34" font-family="Helvetica,sans-Serif" font-size="10.00">::ProcessNodeOptions</text>
</g>
<!-- Node2 -->
<g id="node3" class="node"><title>Node2</title>
<a xlink:href="class_rig_def_1_1_serializer.html#a3ade0fe6ada67faf9374877081daf9d4" target="_top" xlink:title="RigDef::Serializer\l::ProcessNodeDefaults">
<polygon fill="white" stroke="black" points="152.5,-52 152.5,-86 271.5,-86 271.5,-52 152.5,-52"/>
<text text-anchor="start" x="160.5" y="-73" font-family="Helvetica,sans-Serif" font-size="10.00">RigDef::Serializer</text>
<text text-anchor="middle" x="212" y="-60" font-family="Helvetica,sans-Serif" font-size="10.00">::ProcessNodeDefaults</text>
</a>
</g>
<!-- Node1&#45;&gt;Node2 -->
<g id="edge2" class="edge"><title>Node1&#45;&gt;Node2</title>
<path fill="none" stroke="midnightblue" d="M126.333,-54.5367C135.029,-56.0048 143.873,-57.4981 152.417,-58.9405"/>
<polygon fill="midnightblue" stroke="midnightblue" points="126.664,-51.0432 116.221,-52.8295 125.499,-57.9455 126.664,-51.0432"/>
</g>
<!-- Node9 -->
<g id="node17" class="node"><title>Node9</title>
<a xlink:href="class_rig_def_1_1_serializer.html#a3380d217628f4e98d4b83db314de6fae" target="_top" xlink:title="RigDef::Serializer\l::ProcessNode">
<polygon fill="white" stroke="black" points="165,-0 165,-34 259,-34 259,-0 165,-0"/>
<text text-anchor="start" x="173" y="-21" font-family="Helvetica,sans-Serif" font-size="10.00">RigDef::Serializer</text>
<text text-anchor="middle" x="212" y="-8" font-family="Helvetica,sans-Serif" font-size="10.00">::ProcessNode</text>
</a>
</g>
<!-- Node1&#45;&gt;Node9 -->
<g id="edge16" class="edge"><title>Node1&#45;&gt;Node9</title>
<path fill="none" stroke="midnightblue" d="M126.096,-31.5032C139.132,-29.3025 152.512,-27.0435 164.716,-24.9831"/>
<polygon fill="midnightblue" stroke="midnightblue" points="125.499,-28.0545 116.221,-33.1705 126.664,-34.9568 125.499,-28.0545"/>
</g>
<!-- Node3 -->
<g id="node5" class="node"><title>Node3</title>
<a xlink:href="class_rig_def_1_1_serializer.html#a8c9186f75ca10d02b4557395a8076f02" target="_top" xlink:title="RigDef::Serializer\l::ProcessNodes">
<polygon fill="white" stroke="black" points="308,-26 308,-60 402,-60 402,-26 308,-26"/>
<text text-anchor="start" x="316" y="-47" font-family="Helvetica,sans-Serif" font-size="10.00">RigDef::Serializer</text>
<text text-anchor="middle" x="355" y="-34" font-family="Helvetica,sans-Serif" font-size="10.00">::ProcessNodes</text>
</a>
</g>
<!-- Node2&#45;&gt;Node3 -->
<g id="edge4" class="edge"><title>Node2&#45;&gt;Node3</title>
<path fill="none" stroke="midnightblue" d="M281.682,-56.3305C290.46,-54.7346 299.273,-53.1321 307.594,-51.6193"/>
<polygon fill="midnightblue" stroke="midnightblue" points="281.029,-52.8918 271.816,-58.1243 282.281,-59.7789 281.029,-52.8918"/>
</g>
<!-- Node4 -->
<g id="node7" class="node"><title>Node4</title>
<a xlink:href="class_rig_def_1_1_serializer.html#a0d25ba7124bac77109b3251d0d5014ec" target="_top" xlink:title="RigDef::Serializer\l::Serialize">
<polygon fill="white" stroke="black" points="438,-26 438,-60 532,-60 532,-26 438,-26"/>
<text text-anchor="start" x="446" y="-47" font-family="Helvetica,sans-Serif" font-size="10.00">RigDef::Serializer</text>
<text text-anchor="middle" x="485" y="-34" font-family="Helvetica,sans-Serif" font-size="10.00">::Serialize</text>
</a>
</g>
<!-- Node3&#45;&gt;Node4 -->
<g id="edge6" class="edge"><title>Node3&#45;&gt;Node4</title>
<path fill="none" stroke="midnightblue" d="M412.539,-43C421.034,-43 429.703,-43 437.952,-43"/>
<polygon fill="midnightblue" stroke="midnightblue" points="412.301,-39.5001 402.301,-43 412.301,-46.5001 412.301,-39.5001"/>
</g>
<!-- Node5 -->
<g id="node9" class="node"><title>Node5</title>
<a xlink:href="class_ro_r_1_1_rig_editor_1_1_main.html#a9e367d1e6cc15d9481e2cf07e178b074" target="_top" xlink:title="RoR::RigEditor::Main\l::SaveRigDefFile">
<polygon fill="white" stroke="black" points="568,-26 568,-60 678,-60 678,-26 568,-26"/>
<text text-anchor="start" x="576" y="-47" font-family="Helvetica,sans-Serif" font-size="10.00">RoR::RigEditor::Main</text>
<text text-anchor="middle" x="623" y="-34" font-family="Helvetica,sans-Serif" font-size="10.00">::SaveRigDefFile</text>
</a>
</g>
<!-- Node4&#45;&gt;Node5 -->
<g id="edge8" class="edge"><title>Node4&#45;&gt;Node5</title>
<path fill="none" stroke="midnightblue" d="M542.18,-43C550.565,-43 559.19,-43 567.54,-43"/>
<polygon fill="midnightblue" stroke="midnightblue" points="542.106,-39.5001 532.106,-43 542.106,-46.5001 542.106,-39.5001"/>
</g>
<!-- Node6 -->
<g id="node11" class="node"><title>Node6</title>
<a xlink:href="class_ro_r_1_1_rig_editor_1_1_main.html#a35a10d6c23920802442d32fab1a8d470" target="_top" xlink:title="RoR::RigEditor::Main\l::NotifyFileSelectorEnded">
<polygon fill="white" stroke="black" points="714,-26 714,-60 842,-60 842,-26 714,-26"/>
<text text-anchor="start" x="722" y="-47" font-family="Helvetica,sans-Serif" font-size="10.00">RoR::RigEditor::Main</text>
<text text-anchor="middle" x="778" y="-34" font-family="Helvetica,sans-Serif" font-size="10.00">::NotifyFileSelectorEnded</text>
</a>
</g>
<!-- Node5&#45;&gt;Node6 -->
<g id="edge10" class="edge"><title>Node5&#45;&gt;Node6</title>
<path fill="none" stroke="midnightblue" d="M688.274,-43C696.733,-43 705.391,-43 713.831,-43"/>
<polygon fill="midnightblue" stroke="midnightblue" points="688.084,-39.5001 678.084,-43 688.084,-46.5001 688.084,-39.5001"/>
</g>
<!-- Node7 -->
<g id="node13" class="node"><title>Node7</title>
<a xlink:href="class_ro_r_1_1_rig_editor_1_1_main.html#a4f73e9dc5632524ca803864460b82bb5" target="_top" xlink:title="RoR::RigEditor::Main\l::CommandShowDialogOpenRigFile">
<polygon fill="white" stroke="black" points="884,-52 884,-86 1058,-86 1058,-52 884,-52"/>
<text text-anchor="start" x="892" y="-73" font-family="Helvetica,sans-Serif" font-size="10.00">RoR::RigEditor::Main</text>
<text text-anchor="middle" x="971" y="-60" font-family="Helvetica,sans-Serif" font-size="10.00">::CommandShowDialogOpenRigFile</text>
</a>
</g>
<!-- Node6&#45;&gt;Node7 -->
<g id="edge12" class="edge"><title>Node6&#45;&gt;Node7</title>
<path fill="none" stroke="midnightblue" d="M852.456,-53.0303C862.783,-54.4216 873.466,-55.8607 883.997,-57.2794"/>
<polygon fill="midnightblue" stroke="midnightblue" points="852.644,-49.5241 842.266,-51.6576 851.709,-56.4615 852.644,-49.5241"/>
</g>
<!-- Node8 -->
<g id="node15" class="node"><title>Node8</title>
<a xlink:href="class_ro_r_1_1_rig_editor_1_1_main.html#acb4af1361d9233f5ee2fa658536a7658" target="_top" xlink:title="RoR::RigEditor::Main\l::CommandShowDialogSaveRigFileAs">
<polygon fill="white" stroke="black" points="878.5,-0 878.5,-34 1063.5,-34 1063.5,-0 878.5,-0"/>
<text text-anchor="start" x="886.5" y="-21" font-family="Helvetica,sans-Serif" font-size="10.00">RoR::RigEditor::Main</text>
<text text-anchor="middle" x="971" y="-8" font-family="Helvetica,sans-Serif" font-size="10.00">::CommandShowDialogSaveRigFileAs</text>
</a>
</g>
<!-- Node6&#45;&gt;Node8 -->
<g id="edge14" class="edge"><title>Node6&#45;&gt;Node8</title>
<path fill="none" stroke="midnightblue" d="M852.223,-33.001C860.818,-31.8432 869.662,-30.6518 878.461,-29.4663"/>
<polygon fill="midnightblue" stroke="midnightblue" points="851.709,-29.5385 842.266,-34.3424 852.644,-36.4759 851.709,-29.5385"/>
</g>
<!-- Node9&#45;&gt;Node3 -->
<g id="edge18" class="edge"><title>Node9&#45;&gt;Node3</title>
<path fill="none" stroke="midnightblue" d="M269.305,-27.4192C282.091,-29.7438 295.508,-32.1832 307.83,-34.4236"/>
<polygon fill="midnightblue" stroke="midnightblue" points="269.685,-23.9308 259.22,-25.5854 268.432,-30.8179 269.685,-23.9308"/>
</g>
</g>
</svg>
