<?xml version="1.0" encoding="UTF-8" standalone="no"?>
<!DOCTYPE svg PUBLIC "-//W3C//DTD SVG 1.1//EN"
 "http://www.w3.org/Graphics/SVG/1.1/DTD/svg11.dtd">
<!-- Generated by graphviz version 2.26.3 (20100126.1600)
 -->
<!-- Title: TerrainManager::getGeometryManager Pages: 1 -->
<svg width="1566pt" height="93pt"
 viewBox="0.00 0.00 1566.00 93.00" xmlns="http://www.w3.org/2000/svg" xmlns:xlink="http://www.w3.org/1999/xlink">
<g id="graph1" class="graph" transform="scale(1 1) rotate(0) translate(4 89)">
<title>TerrainManager::getGeometryManager</title>
<polygon fill="white" stroke="white" points="-4,5 -4,-89 1563,-89 1563,5 -4,5"/>
<!-- Node1 -->
<g id="node1" class="node"><title>Node1</title>
<polygon fill="#bfbfbf" stroke="black" points="0,-14 0,-48 146,-48 146,-14 0,-14"/>
<text text-anchor="start" x="8" y="-35" font-family="Helvetica,sans-Serif" font-size="10.00">TerrainManager::getGeometry</text>
<text text-anchor="middle" x="73" y="-22" font-family="Helvetica,sans-Serif" font-size="10.00">Manager</text>
</g>
<!-- Node2 -->
<g id="node3" class="node"><title>Node2</title>
<a xlink:href="class_terrain_object_manager.html#a45ccbf51f9c0ecac68927fed5e52eaa4" target="_top" xlink:title="TerrainObjectManager\l::loadObjectConfigFile">
<polygon fill="white" stroke="black" points="182.5,-14 182.5,-48 295.5,-48 295.5,-14 182.5,-14"/>
<text text-anchor="start" x="190.5" y="-35" font-family="Helvetica,sans-Serif" font-size="10.00">TerrainObjectManager</text>
<text text-anchor="middle" x="239" y="-22" font-family="Helvetica,sans-Serif" font-size="10.00">::loadObjectConfigFile</text>
</a>
</g>
<!-- Node1&#45;&gt;Node2 -->
<g id="edge2" class="edge"><title>Node1&#45;&gt;Node2</title>
<path fill="none" stroke="midnightblue" d="M156.522,-31C165.253,-31 173.975,-31 182.304,-31"/>
<polygon fill="midnightblue" stroke="midnightblue" points="156.293,-27.5001 146.293,-31 156.293,-34.5001 156.293,-27.5001"/>
</g>
<!-- Node3 -->
<g id="node5" class="node"><title>Node3</title>
<a xlink:href="class_terrain_manager.html#a4ad87b973cb6af52daaf530a5feff167" target="_top" xlink:title="TerrainManager::loadTerrain\lObjects">
<polygon fill="white" stroke="black" points="332,-14 332,-48 470,-48 470,-14 332,-14"/>
<text text-anchor="start" x="340" y="-35" font-family="Helvetica,sans-Serif" font-size="10.00">TerrainManager::loadTerrain</text>
<text text-anchor="middle" x="401" y="-22" font-family="Helvetica,sans-Serif" font-size="10.00">Objects</text>
</a>
</g>
<!-- Node2&#45;&gt;Node3 -->
<g id="edge4" class="edge"><title>Node2&#45;&gt;Node3</title>
<path fill="none" stroke="midnightblue" d="M305.666,-31C314.299,-31 323.155,-31 331.828,-31"/>
<polygon fill="midnightblue" stroke="midnightblue" points="305.66,-27.5001 295.66,-31 305.66,-34.5001 305.66,-27.5001"/>
</g>
<!-- Node4 -->
<g id="node7" class="node"><title>Node4</title>
<a xlink:href="class_terrain_manager.html#a9a04c837bf2ea6528c465b27ca62f730" target="_top" xlink:title="TerrainManager::loadTerrain">
<polygon fill="white" stroke="black" points="506,-20.5 506,-41.5 644,-41.5 644,-20.5 506,-20.5"/>
<text text-anchor="middle" x="575" y="-28.5" font-family="Helvetica,sans-Serif" font-size="10.00">TerrainManager::loadTerrain</text>
</a>
</g>
<!-- Node3&#45;&gt;Node4 -->
<g id="edge6" class="edge"><title>Node3&#45;&gt;Node4</title>
<path fill="none" stroke="midnightblue" d="M480.035,-31C488.625,-31 497.319,-31 505.779,-31"/>
<polygon fill="midnightblue" stroke="midnightblue" points="480.019,-27.5001 470.019,-31 480.019,-34.5001 480.019,-27.5001"/>
</g>
<!-- Node5 -->
<g id="node9" class="node"><title>Node5</title>
<a xlink:href="class_ro_r_1_1_main_thread.html#a60603be78a54ae5a24ca1c00509aca1f" target="_top" xlink:title="RoR::MainThread::LoadTerrain">
<polygon fill="white" stroke="black" points="680.5,-20.5 680.5,-41.5 831.5,-41.5 831.5,-20.5 680.5,-20.5"/>
<text text-anchor="middle" x="756" y="-28.5" font-family="Helvetica,sans-Serif" font-size="10.00">RoR::MainThread::LoadTerrain</text>
</a>
</g>
<!-- Node4&#45;&gt;Node5 -->
<g id="edge8" class="edge"><title>Node4&#45;&gt;Node5</title>
<path fill="none" stroke="midnightblue" d="M654.241,-31C662.863,-31 671.623,-31 680.201,-31"/>
<polygon fill="midnightblue" stroke="midnightblue" points="654.203,-27.5001 644.203,-31 654.203,-34.5001 654.203,-27.5001"/>
</g>
<!-- Node6 -->
<g id="node11" class="node"><title>Node6</title>
<a xlink:href="class_ro_r_1_1_main_thread.html#aa3feeebda7f3f4c31a6cb96ea60c09e0" target="_top" xlink:title="RoR::MainThread::SetupGameplayLoop">
<polygon fill="white" stroke="black" points="868.5,-40.5 868.5,-61.5 1059.5,-61.5 1059.5,-40.5 868.5,-40.5"/>
<text text-anchor="middle" x="964" y="-48.5" font-family="Helvetica,sans-Serif" font-size="10.00">RoR::MainThread::SetupGameplayLoop</text>
</a>
</g>
<!-- Node5&#45;&gt;Node6 -->
<g id="edge10" class="edge"><title>Node5&#45;&gt;Node6</title>
<path fill="none" stroke="midnightblue" d="M841.889,-39.2585C850.667,-40.1026 859.623,-40.9637 868.495,-41.8169"/>
<polygon fill="midnightblue" stroke="midnightblue" points="841.97,-35.7503 831.681,-38.277 841.3,-42.7182 841.97,-35.7503"/>
</g>
<!-- Node12 -->
<g id="node23" class="node"><title>Node12</title>
<a xlink:href="class_game_script.html#ac1cba3fc83facbad8281ff80d4ab0f0b" target="_top" xlink:title="GameScript::loadTerrain">
<polygon fill="white" stroke="black" points="903,-0.5 903,-21.5 1025,-21.5 1025,-0.5 903,-0.5"/>
<text text-anchor="middle" x="964" y="-8.5" font-family="Helvetica,sans-Serif" font-size="10.00">GameScript::loadTerrain</text>
</a>
</g>
<!-- Node5&#45;&gt;Node12 -->
<g id="edge22" class="edge"><title>Node5&#45;&gt;Node12</title>
<path fill="none" stroke="midnightblue" d="M841.639,-22.7655C862.113,-20.7969 883.567,-18.734 902.691,-16.8951"/>
<polygon fill="midnightblue" stroke="midnightblue" points="841.3,-19.2818 831.681,-23.723 841.97,-26.2497 841.3,-19.2818"/>
</g>
<!-- Node7 -->
<g id="node13" class="node"><title>Node7</title>
<a xlink:href="class_ro_r_1_1_main_thread.html#a7e4d0bd23a40e509892883af75ea0dbf" target="_top" xlink:title="RoR::MainThread::Go">
<polygon fill="white" stroke="black" points="1096.5,-40.5 1096.5,-61.5 1209.5,-61.5 1209.5,-40.5 1096.5,-40.5"/>
<text text-anchor="middle" x="1153" y="-48.5" font-family="Helvetica,sans-Serif" font-size="10.00">RoR::MainThread::Go</text>
</a>
</g>
<!-- Node6&#45;&gt;Node7 -->
<g id="edge12" class="edge"><title>Node6&#45;&gt;Node7</title>
<path fill="none" stroke="midnightblue" d="M1069.87,-51C1078.93,-51 1087.84,-51 1096.28,-51"/>
<polygon fill="midnightblue" stroke="midnightblue" points="1069.61,-47.5001 1059.61,-51 1069.61,-54.5001 1069.61,-47.5001"/>
</g>
<!-- Node8 -->
<g id="node15" class="node"><title>Node8</title>
<a xlink:href="main_2main__sim_2main_8cpp.html#a0ddf1224851353fc92bfbff6f499fa97" target="_top" xlink:title="main">
<polygon fill="white" stroke="black" points="1296,-63.5 1296,-84.5 1334,-84.5 1334,-63.5 1296,-63.5"/>
<text text-anchor="middle" x="1315" y="-71.5" font-family="Helvetica,sans-Serif" font-size="10.00">main</text>
</a>
</g>
<!-- Node7&#45;&gt;Node8 -->
<g id="edge14" class="edge"><title>Node7&#45;&gt;Node8</title>
<path fill="none" stroke="midnightblue" d="M1219.69,-60.4687C1247.27,-64.3843 1277.14,-68.6243 1295.95,-71.2947"/>
<polygon fill="midnightblue" stroke="midnightblue" points="1220.05,-56.9848 1209.66,-59.0443 1219.07,-63.9153 1220.05,-56.9848"/>
</g>
<!-- Node10 -->
<g id="node19" class="node"><title>Node10</title>
<a xlink:href="class_ro_r_1_1_main_thread.html#a7a2db954fd2f35d63982d8603d2b9614" target="_top" xlink:title="RoR::MainThread::Request\lRestart">
<polygon fill="white" stroke="black" points="1246.5,-11 1246.5,-45 1383.5,-45 1383.5,-11 1246.5,-11"/>
<text text-anchor="start" x="1254.5" y="-32" font-family="Helvetica,sans-Serif" font-size="10.00">RoR::MainThread::Request</text>
<text text-anchor="middle" x="1315" y="-19" font-family="Helvetica,sans-Serif" font-size="10.00">Restart</text>
</a>
</g>
<!-- Node7&#45;&gt;Node10 -->
<g id="edge18" class="edge"><title>Node7&#45;&gt;Node10</title>
<path fill="none" stroke="midnightblue" d="M1219.82,-41.5126C1228.59,-40.2674 1237.59,-38.9898 1246.39,-37.7405"/>
<polygon fill="midnightblue" stroke="midnightblue" points="1219.07,-38.0847 1209.66,-42.9557 1220.05,-45.0152 1219.07,-38.0847"/>
</g>
<!-- Node9 -->
<g id="node17" class="node"><title>Node9</title>
<a xlink:href="main_2main__sim_2main_8cpp.html#a2922bc5d5c2d77a3020cfbf9df12aab0" target="_top" xlink:title="WinMain">
<polygon fill="white" stroke="black" points="1461.5,-63.5 1461.5,-84.5 1516.5,-84.5 1516.5,-63.5 1461.5,-63.5"/>
<text text-anchor="middle" x="1489" y="-71.5" font-family="Helvetica,sans-Serif" font-size="10.00">WinMain</text>
</a>
</g>
<!-- Node8&#45;&gt;Node9 -->
<g id="edge16" class="edge"><title>Node8&#45;&gt;Node9</title>
<path fill="none" stroke="midnightblue" d="M1344.56,-74C1377.23,-74 1429.44,-74 1461.33,-74"/>
<polygon fill="midnightblue" stroke="midnightblue" points="1344.29,-70.5001 1334.29,-74 1344.29,-77.5001 1344.29,-70.5001"/>
</g>
<!-- Node11 -->
<g id="node21" class="node"><title>Node11</title>
<a xlink:href="class_ro_r_frame_listener.html#af2779b96aa0f91920bd100bc30261402" target="_top" xlink:title="RoRFrameListener::Restart">
<polygon fill="white" stroke="black" points="1420.5,-17.5 1420.5,-38.5 1557.5,-38.5 1557.5,-17.5 1420.5,-17.5"/>
<text text-anchor="middle" x="1489" y="-25.5" font-family="Helvetica,sans-Serif" font-size="10.00">RoRFrameListener::Restart</text>
</a>
</g>
<!-- Node10&#45;&gt;Node11 -->
<g id="edge20" class="edge"><title>Node10&#45;&gt;Node11</title>
<path fill="none" stroke="midnightblue" d="M1394.04,-28C1402.86,-28 1411.78,-28 1420.45,-28"/>
<polygon fill="midnightblue" stroke="midnightblue" points="1393.77,-24.5001 1383.77,-28 1393.77,-31.5001 1393.77,-24.5001"/>
</g>
</g>
</svg>
