<?xml version="1.0" encoding="UTF-8" standalone="no"?>
<!DOCTYPE svg PUBLIC "-//W3C//DTD SVG 1.1//EN"
 "http://www.w3.org/Graphics/SVG/1.1/DTD/svg11.dtd">
<!-- Generated by graphviz version 2.26.3 (20100126.1600)
 -->
<!-- Title: G Pages: 1 -->
<svg width="482pt" height="110pt"
 viewBox="0.00 0.00 482.00 110.00" xmlns="http://www.w3.org/2000/svg" xmlns:xlink="http://www.w3.org/1999/xlink">
<g id="graph1" class="graph" transform="scale(1 1) rotate(0) translate(4 106)">
<title>G</title>
<polygon fill="white" stroke="white" points="-4,5 -4,-106 479,-106 479,5 -4,5"/>
<!-- Node1 -->
<g id="node1" class="node"><title>Node1</title>
<polygon fill="#bfbfbf" stroke="black" points="0,-40.5 0,-61.5 170,-61.5 170,-40.5 0,-40.5"/>
<text text-anchor="middle" x="85" y="-48.5" font-family="Helvetica,sans-Serif" font-size="10.00">GameScript::getNumTrucksByFlag</text>
</g>
<!-- Node2 -->
<g id="node3" class="node"><title>Node2</title>
<a xlink:href="class_streamable_factory.html#a233cafcf6f87f5779b1a26a5a48d8f6d" target="_top" xlink:title="StreamableFactory\&lt; BeamFactory, Beam \&gt;::getSingleton">
<polygon fill="white" stroke="black" points="206.5,-80.5 206.5,-101.5 473.5,-101.5 473.5,-80.5 206.5,-80.5"/>
<text text-anchor="middle" x="340" y="-88.5" font-family="Helvetica,sans-Serif" font-size="10.00">StreamableFactory&lt; BeamFactory, Beam &gt;::getSingleton</text>
</a>
</g>
<!-- Node1&#45;&gt;Node2 -->
<g id="edge2" class="edge"><title>Node1&#45;&gt;Node2</title>
<path fill="none" stroke="midnightblue" d="M147.459,-61.5154C166.266,-64.63 186.965,-68.0065 206,-71 222.802,-73.6423 240.803,-76.3875 257.985,-78.9667"/>
<polygon fill="midnightblue" stroke="midnightblue" points="257.584,-82.4456 267.991,-80.4641 258.62,-75.5227 257.584,-82.4456"/>
</g>
<!-- Node3 -->
<g id="node5" class="node"><title>Node3</title>
<a xlink:href="class_beam_factory.html#a5f3755f8cd44e6972e463cc6aaa9f181" target="_top" xlink:title="BeamFactory::getTruckCount">
<polygon fill="white" stroke="black" points="267,-40.5 267,-61.5 413,-61.5 413,-40.5 267,-40.5"/>
<text text-anchor="middle" x="340" y="-48.5" font-family="Helvetica,sans-Serif" font-size="10.00">BeamFactory::getTruckCount</text>
</a>
</g>
<!-- Node1&#45;&gt;Node3 -->
<g id="edge4" class="edge"><title>Node1&#45;&gt;Node3</title>
<path fill="none" stroke="midnightblue" d="M170.266,-51C198.119,-51 229.004,-51 256.71,-51"/>
<polygon fill="midnightblue" stroke="midnightblue" points="256.762,-54.5001 266.762,-51 256.762,-47.5001 256.762,-54.5001"/>
</g>
<!-- Node4 -->
<g id="node7" class="node"><title>Node4</title>
<a xlink:href="class_beam_factory.html#aadb09a68dc35fad593189242429df218" target="_top" xlink:title="BeamFactory::getTruck">
<polygon fill="white" stroke="black" points="280.5,-0.5 280.5,-21.5 399.5,-21.5 399.5,-0.5 280.5,-0.5"/>
<text text-anchor="middle" x="340" y="-8.5" font-family="Helvetica,sans-Serif" font-size="10.00">BeamFactory::getTruck</text>
</a>
</g>
<!-- Node1&#45;&gt;Node4 -->
<g id="edge6" class="edge"><title>Node1&#45;&gt;Node4</title>
<path fill="none" stroke="midnightblue" d="M147.459,-40.4846C166.266,-37.37 186.965,-33.9935 206,-31 226.867,-27.7184 249.584,-24.278 270.285,-21.194"/>
<polygon fill="midnightblue" stroke="midnightblue" points="270.891,-24.6424 280.268,-19.7109 269.862,-17.7184 270.891,-24.6424"/>
</g>
</g>
</svg>
