<?xml version="1.0" encoding="UTF-8" standalone="no"?>
<!DOCTYPE svg PUBLIC "-//W3C//DTD SVG 1.1//EN"
 "http://www.w3.org/Graphics/SVG/1.1/DTD/svg11.dtd">
<!-- Generated by graphviz version 2.26.3 (20100126.1600)
 -->
<!-- Title: RoR::RigEditor::Main::CommandScheduleSetWheelSelected Pages: 1 -->
<svg width="378pt" height="42pt"
 viewBox="0.00 0.00 378.00 42.00" xmlns="http://www.w3.org/2000/svg" xmlns:xlink="http://www.w3.org/1999/xlink">
<g id="graph1" class="graph" transform="scale(1 1) rotate(0) translate(4 38)">
<title>RoR::RigEditor::Main::CommandScheduleSetWheelSelected</title>
<polygon fill="white" stroke="white" points="-4,5 -4,-38 375,-38 375,5 -4,5"/>
<!-- Node1 -->
<g id="node1" class="node"><title>Node1</title>
<polygon fill="#bfbfbf" stroke="black" points="0.5,-0 0.5,-34 189.5,-34 189.5,-0 0.5,-0"/>
<text text-anchor="start" x="8.5" y="-21" font-family="Helvetica,sans-Serif" font-size="10.00">RoR::RigEditor::Main</text>
<text text-anchor="middle" x="95" y="-8" font-family="Helvetica,sans-Serif" font-size="10.00">::CommandScheduleSetWheelSelected</text>
</g>
<!-- Node2 -->
<g id="node3" class="node"><title>Node2</title>
<a xlink:href="class_ro_r_1_1_rig_editor_1_1_rig.html#a8f6af01cfc287de12b9ce47085d5b531" target="_top" xlink:title="RoR::RigEditor::Rig\l::ScheduleSetWheelSelected">
<polygon fill="white" stroke="black" points="226,-0 226,-34 370,-34 370,-0 226,-0"/>
<text text-anchor="start" x="234" y="-21" font-family="Helvetica,sans-Serif" font-size="10.00">RoR::RigEditor::Rig</text>
<text text-anchor="middle" x="298" y="-8" font-family="Helvetica,sans-Serif" font-size="10.00">::ScheduleSetWheelSelected</text>
</a>
</g>
<!-- Node1&#45;&gt;Node2 -->
<g id="edge2" class="edge"><title>Node1&#45;&gt;Node2</title>
<path fill="none" stroke="midnightblue" d="M189.665,-17C198.432,-17 207.267,-17 215.907,-17"/>
<polygon fill="midnightblue" stroke="midnightblue" points="215.944,-20.5001 225.944,-17 215.944,-13.5001 215.944,-20.5001"/>
</g>
</g>
</svg>
