<?xml version="1.0" encoding="UTF-8" standalone="no"?>
<!DOCTYPE svg PUBLIC "-//W3C//DTD SVG 1.1//EN"
 "http://www.w3.org/Graphics/SVG/1.1/DTD/svg11.dtd">
<!-- Generated by graphviz version 2.26.3 (20100126.1600)
 -->
<!-- Title: RoRFrameListener::showspray Pages: 1 -->
<svg width="350pt" height="82pt"
 viewBox="0.00 0.00 350.00 82.00" xmlns="http://www.w3.org/2000/svg" xmlns:xlink="http://www.w3.org/1999/xlink">
<g id="graph1" class="graph" transform="scale(1 1) rotate(0) translate(4 78)">
<title>RoRFrameListener::showspray</title>
<polygon fill="white" stroke="white" points="-4,5 -4,-78 347,-78 347,5 -4,5"/>
<!-- Node1 -->
<g id="node1" class="node"><title>Node1</title>
<polygon fill="#bfbfbf" stroke="black" points="0,-23.5 0,-44.5 152,-44.5 152,-23.5 0,-23.5"/>
<text text-anchor="middle" x="76" y="-31.5" font-family="Helvetica,sans-Serif" font-size="10.00">RoRFrameListener::showspray</text>
</g>
<!-- Node2 -->
<g id="node3" class="node"><title>Node2</title>
<a xlink:href="class_ro_r_singleton_no_creation.html#a5e7a47f4b2d6d0abaa3a1ea5ca1f216a" target="_top" xlink:title="RoRSingletonNoCreation\l\&lt; DustManager \&gt;::getSingleton">
<polygon fill="white" stroke="black" points="188.5,-40 188.5,-74 341.5,-74 341.5,-40 188.5,-40"/>
<text text-anchor="start" x="196.5" y="-61" font-family="Helvetica,sans-Serif" font-size="10.00">RoRSingletonNoCreation</text>
<text text-anchor="middle" x="265" y="-48" font-family="Helvetica,sans-Serif" font-size="10.00">&lt; DustManager &gt;::getSingleton</text>
</a>
</g>
<!-- Node1&#45;&gt;Node2 -->
<g id="edge2" class="edge"><title>Node1&#45;&gt;Node2</title>
<path fill="none" stroke="midnightblue" d="M152.057,-43.2556C160.776,-44.3167 169.714,-45.4043 178.557,-46.4804"/>
<polygon fill="midnightblue" stroke="midnightblue" points="178.134,-49.9547 188.484,-47.6885 178.98,-43.006 178.134,-49.9547"/>
</g>
<!-- Node3 -->
<g id="node5" class="node"><title>Node3</title>
<a xlink:href="class_dust_manager.html#a830c1fc0d9c9efe8453d2a931531d2b9" target="_top" xlink:title="DustManager::setVisible">
<polygon fill="white" stroke="black" points="203,-0.5 203,-21.5 327,-21.5 327,-0.5 203,-0.5"/>
<text text-anchor="middle" x="265" y="-8.5" font-family="Helvetica,sans-Serif" font-size="10.00">DustManager::setVisible</text>
</a>
</g>
<!-- Node1&#45;&gt;Node3 -->
<g id="edge4" class="edge"><title>Node1&#45;&gt;Node3</title>
<path fill="none" stroke="midnightblue" d="M152.057,-24.7444C165.462,-23.1131 179.382,-21.4191 192.681,-19.8007"/>
<polygon fill="midnightblue" stroke="midnightblue" points="193.207,-23.2626 202.711,-18.5801 192.362,-16.3138 193.207,-23.2626"/>
</g>
</g>
</svg>
