<?xml version="1.0" encoding="UTF-8" standalone="no"?>
<!DOCTYPE svg PUBLIC "-//W3C//DTD SVG 1.1//EN"
 "http://www.w3.org/Graphics/SVG/1.1/DTD/svg11.dtd">
<!-- Generated by graphviz version 2.26.3 (20100126.1600)
 -->
<!-- Title: G Pages: 1 -->
<svg width="454pt" height="150pt"
 viewBox="0.00 0.00 454.00 150.00" xmlns="http://www.w3.org/2000/svg" xmlns:xlink="http://www.w3.org/1999/xlink">
<g id="graph1" class="graph" transform="scale(1 1) rotate(0) translate(4 146)">
<title>G</title>
<polygon fill="white" stroke="white" points="-4,5 -4,-146 451,-146 451,5 -4,5"/>
<!-- Node1 -->
<g id="node1" class="node"><title>Node1</title>
<polygon fill="#bfbfbf" stroke="black" points="0.5,-60.5 0.5,-81.5 239.5,-81.5 239.5,-60.5 0.5,-60.5"/>
<text text-anchor="middle" x="120" y="-68.5" font-family="Helvetica,sans-Serif" font-size="10.00">RoR::RigEditor::Rig::RefreshBeamsDynamicMesh</text>
</g>
<!-- Node2 -->
<g id="node3" class="node"><title>Node2</title>
<a xlink:href="class_ro_r_1_1_rig_editor_1_1_beam.html#a961667e55f0d41fdacab764270939969" target="_top" xlink:title="RoR::RigEditor::Beam::GetNodeA">
<polygon fill="white" stroke="black" points="277.5,-120.5 277.5,-141.5 444.5,-141.5 444.5,-120.5 277.5,-120.5"/>
<text text-anchor="middle" x="361" y="-128.5" font-family="Helvetica,sans-Serif" font-size="10.00">RoR::RigEditor::Beam::GetNodeA</text>
</a>
</g>
<!-- Node1&#45;&gt;Node2 -->
<g id="edge2" class="edge"><title>Node1&#45;&gt;Node2</title>
<path fill="none" stroke="midnightblue" d="M160.348,-81.5806C191.812,-89.7747 236.631,-101.322 276,-111 285.606,-113.361 295.837,-115.818 305.751,-118.169"/>
<polygon fill="midnightblue" stroke="midnightblue" points="304.987,-121.585 315.524,-120.476 306.595,-114.772 304.987,-121.585"/>
</g>
<!-- Node3 -->
<g id="node5" class="node"><title>Node3</title>
<a xlink:href="class_ro_r_1_1_rig_editor_1_1_node.html#aefebb9cd1a67bbb2afc980b0f8baab12" target="_top" xlink:title="RoR::RigEditor::Node::GetPosition">
<polygon fill="white" stroke="black" points="276,-80.5 276,-101.5 446,-101.5 446,-80.5 276,-80.5"/>
<text text-anchor="middle" x="361" y="-88.5" font-family="Helvetica,sans-Serif" font-size="10.00">RoR::RigEditor::Node::GetPosition</text>
</a>
</g>
<!-- Node1&#45;&gt;Node3 -->
<g id="edge4" class="edge"><title>Node1&#45;&gt;Node3</title>
<path fill="none" stroke="midnightblue" d="M239.794,-80.9414C248.54,-81.6672 257.29,-82.3934 265.861,-83.1047"/>
<polygon fill="midnightblue" stroke="midnightblue" points="265.575,-86.5928 275.83,-83.9319 266.154,-79.6168 265.575,-86.5928"/>
</g>
<!-- Node4 -->
<g id="node7" class="node"><title>Node4</title>
<a xlink:href="class_ro_r_1_1_rig_editor_1_1_beam.html#ad280482e0eea91ada6435db2046e4c13" target="_top" xlink:title="RoR::RigEditor::Beam::GetColor">
<polygon fill="white" stroke="black" points="281,-40.5 281,-61.5 441,-61.5 441,-40.5 281,-40.5"/>
<text text-anchor="middle" x="361" y="-48.5" font-family="Helvetica,sans-Serif" font-size="10.00">RoR::RigEditor::Beam::GetColor</text>
</a>
</g>
<!-- Node1&#45;&gt;Node4 -->
<g id="edge6" class="edge"><title>Node1&#45;&gt;Node4</title>
<path fill="none" stroke="midnightblue" d="M239.794,-61.0586C250.249,-60.191 260.711,-59.3228 270.865,-58.4801"/>
<polygon fill="midnightblue" stroke="midnightblue" points="271.229,-61.962 280.905,-57.6469 270.65,-54.986 271.229,-61.962"/>
</g>
<!-- Node5 -->
<g id="node9" class="node"><title>Node5</title>
<a xlink:href="class_ro_r_1_1_rig_editor_1_1_beam.html#a9e107c4bb884aeed653419a8fa5f21ba" target="_top" xlink:title="RoR::RigEditor::Beam::GetNodeB">
<polygon fill="white" stroke="black" points="277.5,-0.5 277.5,-21.5 444.5,-21.5 444.5,-0.5 277.5,-0.5"/>
<text text-anchor="middle" x="361" y="-8.5" font-family="Helvetica,sans-Serif" font-size="10.00">RoR::RigEditor::Beam::GetNodeB</text>
</a>
</g>
<!-- Node1&#45;&gt;Node5 -->
<g id="edge8" class="edge"><title>Node1&#45;&gt;Node5</title>
<path fill="none" stroke="midnightblue" d="M160.348,-60.4194C191.812,-52.2253 236.631,-40.678 276,-31 285.606,-28.6386 295.837,-26.1817 305.751,-23.8313"/>
<polygon fill="midnightblue" stroke="midnightblue" points="306.595,-27.2282 315.524,-21.524 304.987,-20.4155 306.595,-27.2282"/>
</g>
</g>
</svg>
