<?xml version="1.0" encoding="UTF-8" standalone="no"?>
<!DOCTYPE svg PUBLIC "-//W3C//DTD SVG 1.1//EN"
 "http://www.w3.org/Graphics/SVG/1.1/DTD/svg11.dtd">
<!-- Generated by graphviz version 2.26.3 (20100126.1600)
 -->
<!-- Title: G Pages: 1 -->
<!--zoomable 110 -->
<svg id="main" version="1.1" xmlns="http://www.w3.org/2000/svg" xmlns:xlink="http://www.w3.org/1999/xlink" xml:space="preserve" onload="init(evt)">
        <defs>
                <circle id="rim" cx="0" cy="0" r="7"/>
                <circle id="rim2" cx="0" cy="0" r="3.5"/>
                <g id="zoomPlus">
                        <use xlink:href="#rim" fill="#404040">
                                <set attributeName="fill" to="#808080" begin="zoomplus.mouseover" end="zoomplus.mouseout"/>
                        </use>
                        <path d="M-4,0h8M0,-4v8" fill="none" stroke="white" stroke-width="1.5" pointer-events="none"/>
                </g>
                <g id="zoomMin">
                        <use xlink:href="#rim" fill="#404040">
                                <set attributeName="fill" to="#808080" begin="zoomminus.mouseover" end="zoomminus.mouseout"/>
                        </use>
                        <path d="M-4,0h8" fill="none" stroke="white" stroke-width="1.5" pointer-events="none"/>
                </g>
                <g id="dirArrow">
                        <path fill="none" stroke="white" stroke-width="1.5" d="M0,-3.0v7 M-2.5,-0.5L0,-3.0L2.5,-0.5"/>
                </g>
               <g id="resetDef">
                       <use xlink:href="#rim2" fill="#404040">
                               <set attributeName="fill" to="#808080" begin="reset.mouseover" end="reset.mouseout"/>
                       </use>
               </g>
        </defs>

<script type="text/javascript">
var viewWidth = 602;
var viewHeight = 110;
var sectionId = 'dynsection-25';
</script>
<script xlink:href="svgpan.js"/>
<svg id="graph" class="graph">
<g id="viewport">
<title>G</title>
<polygon fill="white" stroke="white" points="-4,5 -4,-106 599,-106 599,5 -4,5"/>
<!-- Node1 -->
<g id="node1" class="node"><title>Node1</title>
<polygon fill="#bfbfbf" stroke="black" points="0,-40.5 0,-61.5 166,-61.5 166,-40.5 0,-40.5"/>
<text text-anchor="middle" x="83" y="-48.5" font-family="Helvetica,sans-Serif" font-size="10.00">Character::updateCharacterColour</text>
</g>
<!-- Node2 -->
<g id="node3" class="node"><title>Node2</title>
<a xlink:href="class_character.html#af66e892ae9ab0bc74278e55754400b2d" target="_top" xlink:title="Character::updateNetLabel">
<polygon fill="white" stroke="black" points="202,-40.5 202,-61.5 336,-61.5 336,-40.5 202,-40.5"/>
<text text-anchor="middle" x="269" y="-48.5" font-family="Helvetica,sans-Serif" font-size="10.00">Character::updateNetLabel</text>
</a>
</g>
<!-- Node1&#45;&gt;Node2 -->
<g id="edge2" class="edge"><title>Node1&#45;&gt;Node2</title>
<path fill="none" stroke="midnightblue" d="M176.28,-51C184.873,-51 193.464,-51 201.757,-51"/>
<polygon fill="midnightblue" stroke="midnightblue" points="176.208,-47.5001 166.208,-51 176.208,-54.5001 176.208,-47.5001"/>
</g>
<!-- Node3 -->
<g id="node5" class="node"><title>Node3</title>
<a xlink:href="class_character.html#a2b381f85738c4ede878be18925e1ce81" target="_top" xlink:title="Character::Character">
<polygon fill="white" stroke="black" points="429,-80.5 429,-101.5 537,-101.5 537,-80.5 429,-80.5"/>
<text text-anchor="middle" x="483" y="-88.5" font-family="Helvetica,sans-Serif" font-size="10.00">Character::Character</text>
</a>
</g>
<!-- Node2&#45;&gt;Node3 -->
<g id="edge4" class="edge"><title>Node2&#45;&gt;Node3</title>
<path fill="none" stroke="midnightblue" d="M332.315,-63.4341C345.429,-65.97 359.159,-68.5965 372,-71 390.477,-74.4583 410.706,-78.1354 428.774,-81.3808"/>
<polygon fill="midnightblue" stroke="midnightblue" points="332.916,-59.9855 322.433,-61.5177 331.584,-66.8575 332.916,-59.9855"/>
</g>
<!-- Node4 -->
<g id="node7" class="node"><title>Node4</title>
<a xlink:href="class_character_factory.html#aba10150e9cffe503714dca7faaa9b780" target="_top" xlink:title="CharacterFactory::localUserAttributesChanged">
<polygon fill="white" stroke="black" points="372.5,-40.5 372.5,-61.5 593.5,-61.5 593.5,-40.5 372.5,-40.5"/>
<text text-anchor="middle" x="483" y="-48.5" font-family="Helvetica,sans-Serif" font-size="10.00">CharacterFactory::localUserAttributesChanged</text>
</a>
</g>
<!-- Node2&#45;&gt;Node4 -->
<g id="edge6" class="edge"><title>Node2&#45;&gt;Node4</title>
<path fill="none" stroke="midnightblue" d="M346.28,-51C354.729,-51 363.446,-51 372.197,-51"/>
<polygon fill="midnightblue" stroke="midnightblue" points="346.124,-47.5001 336.124,-51 346.124,-54.5001 346.124,-47.5001"/>
</g>
<!-- Node5 -->
<g id="node9" class="node"><title>Node5</title>
<a xlink:href="class_character_factory.html#a4c9df69b8d726f031d75479ea7bdd326" target="_top" xlink:title="CharacterFactory::netUserAttributesChanged">
<polygon fill="white" stroke="black" points="376,-0.5 376,-21.5 590,-21.5 590,-0.5 376,-0.5"/>
<text text-anchor="middle" x="483" y="-8.5" font-family="Helvetica,sans-Serif" font-size="10.00">CharacterFactory::netUserAttributesChanged</text>
</a>
</g>
<!-- Node2&#45;&gt;Node5 -->
<g id="edge8" class="edge"><title>Node2&#45;&gt;Node5</title>
<path fill="none" stroke="midnightblue" d="M332.315,-38.5659C345.429,-36.03 359.159,-33.4035 372,-31 388.745,-27.8659 406.928,-24.5521 423.638,-21.5428"/>
<polygon fill="midnightblue" stroke="midnightblue" points="331.584,-35.1425 322.433,-40.4823 332.916,-42.0145 331.584,-35.1425"/>
</g>
</g>
</svg>
        <g id="navigator" transform="translate(0 0)" fill="#404254">
                <rect fill="#f2f5e9" fill-opacity="0.5" stroke="#606060" stroke-width=".5" x="0" y="0" width="60" height="60"/>
                <use id="zoomplus" xlink:href="#zoomPlus" x="17" y="9" onmousedown="handleZoom(evt,'in')"/>
                <use id="zoomminus" xlink:href="#zoomMin" x="42" y="9" onmousedown="handleZoom(evt,'out')"/>
                <use id="reset" xlink:href="#resetDef" x="30" y="36" onmousedown="handleReset()"/>
                <g id="arrowUp" xlink:href="#dirArrow" transform="translate(30 24)" onmousedown="handlePan(0,-1)">
                  <use xlink:href="#rim" fill="#404040">
                        <set attributeName="fill" to="#808080" begin="arrowUp.mouseover" end="arrowUp.mouseout"/>
                  </use>
                  <path fill="none" stroke="white" stroke-width="1.5" d="M0,-3.0v7 M-2.5,-0.5L0,-3.0L2.5,-0.5"/>
                </g>
                <g id="arrowRight" xlink:href="#dirArrow" transform="rotate(90) translate(36 -43)" onmousedown="handlePan(1,0)">
                  <use xlink:href="#rim" fill="#404040">
                        <set attributeName="fill" to="#808080" begin="arrowRight.mouseover" end="arrowRight.mouseout"/>
                  </use>
                  <path fill="none" stroke="white" stroke-width="1.5" d="M0,-3.0v7 M-2.5,-0.5L0,-3.0L2.5,-0.5"/>
                </g>
                <g id="arrowDown" xlink:href="#dirArrow" transform="rotate(180) translate(-30 -48)" onmousedown="handlePan(0,1)">
                  <use xlink:href="#rim" fill="#404040">
                        <set attributeName="fill" to="#808080" begin="arrowDown.mouseover" end="arrowDown.mouseout"/>
                  </use>
                  <path fill="none" stroke="white" stroke-width="1.5" d="M0,-3.0v7 M-2.5,-0.5L0,-3.0L2.5,-0.5"/>
                </g>
                <g id="arrowLeft" xlink:href="#dirArrow" transform="rotate(270) translate(-36 17)" onmousedown="handlePan(-1,0)">
                  <use xlink:href="#rim" fill="#404040">
                        <set attributeName="fill" to="#808080" begin="arrowLeft.mouseover" end="arrowLeft.mouseout"/>
                  </use>
                  <path fill="none" stroke="white" stroke-width="1.5" d="M0,-3.0v7 M-2.5,-0.5L0,-3.0L2.5,-0.5"/>
                </g>
        </g>
</svg>
