<?xml version="1.0" encoding="UTF-8" standalone="no"?>
<!DOCTYPE svg PUBLIC "-//W3C//DTD SVG 1.1//EN"
 "http://www.w3.org/Graphics/SVG/1.1/DTD/svg11.dtd">
<!-- Generated by graphviz version 2.26.3 (20100126.1600)
 -->
<!-- Title: G Pages: 1 -->
<!--zoomable 90 -->
<svg id="main" version="1.1" xmlns="http://www.w3.org/2000/svg" xmlns:xlink="http://www.w3.org/1999/xlink" xml:space="preserve" onload="init(evt)">
        <defs>
                <circle id="rim" cx="0" cy="0" r="7"/>
                <circle id="rim2" cx="0" cy="0" r="3.5"/>
                <g id="zoomPlus">
                        <use xlink:href="#rim" fill="#404040">
                                <set attributeName="fill" to="#808080" begin="zoomplus.mouseover" end="zoomplus.mouseout"/>
                        </use>
                        <path d="M-4,0h8M0,-4v8" fill="none" stroke="white" stroke-width="1.5" pointer-events="none"/>
                </g>
                <g id="zoomMin">
                        <use xlink:href="#rim" fill="#404040">
                                <set attributeName="fill" to="#808080" begin="zoomminus.mouseover" end="zoomminus.mouseout"/>
                        </use>
                        <path d="M-4,0h8" fill="none" stroke="white" stroke-width="1.5" pointer-events="none"/>
                </g>
                <g id="dirArrow">
                        <path fill="none" stroke="white" stroke-width="1.5" d="M0,-3.0v7 M-2.5,-0.5L0,-3.0L2.5,-0.5"/>
                </g>
               <g id="resetDef">
                       <use xlink:href="#rim2" fill="#404040">
                               <set attributeName="fill" to="#808080" begin="reset.mouseover" end="reset.mouseout"/>
                       </use>
               </g>
        </defs>

<script type="text/javascript">
var viewWidth = 712;
var viewHeight = 90;
var sectionId = 'dynsection-5';
</script>
<script xlink:href="svgpan.js"/>
<svg id="graph" class="graph">
<g id="viewport">
<title>G</title>
<polygon fill="white" stroke="white" points="-4,5 -4,-86 709,-86 709,5 -4,5"/>
<!-- Node1 -->
<g id="node1" class="node"><title>Node1</title>
<polygon fill="#bfbfbf" stroke="black" points="0.5,-40.5 0.5,-61.5 99.5,-61.5 99.5,-40.5 0.5,-40.5"/>
<text text-anchor="middle" x="50" y="-48.5" font-family="Helvetica,sans-Serif" font-size="10.00">Axle::calcOpenDiff</text>
</g>
<!-- Node2 -->
<g id="node3" class="node"><title>Node2</title>
<a xlink:href="class_beam.html#a7c5a8085b41f7422ba4bca24846e5eb0" target="_top" xlink:title="Beam::calcWheels">
<polygon fill="white" stroke="black" points="141.5,-60.5 141.5,-81.5 240.5,-81.5 240.5,-60.5 141.5,-60.5"/>
<text text-anchor="middle" x="191" y="-68.5" font-family="Helvetica,sans-Serif" font-size="10.00">Beam::calcWheels</text>
</a>
</g>
<!-- Node1&#45;&gt;Node2 -->
<g id="edge2" class="edge"><title>Node1&#45;&gt;Node2</title>
<path fill="none" stroke="midnightblue" d="M109.669,-59.4637C120.193,-60.9564 131.047,-62.496 141.262,-63.945"/>
<polygon fill="midnightblue" stroke="midnightblue" points="110.104,-55.9904 99.7113,-58.0513 109.121,-62.921 110.104,-55.9904"/>
</g>
<!-- Node3 -->
<g id="node5" class="node"><title>Node3</title>
<a xlink:href="class_axle.html#a7ee763611feb62996e46ccf5e96f63d0" target="_top" xlink:title="Axle::getDiffEquation">
<polygon fill="white" stroke="black" points="136,-20.5 136,-41.5 246,-41.5 246,-20.5 136,-20.5"/>
<text text-anchor="middle" x="191" y="-28.5" font-family="Helvetica,sans-Serif" font-size="10.00">Axle::getDiffEquation</text>
</a>
</g>
<!-- Node1&#45;&gt;Node3 -->
<g id="edge4" class="edge"><title>Node1&#45;&gt;Node3</title>
<path fill="none" stroke="midnightblue" d="M109.78,-42.5206C118.472,-41.2877 127.386,-40.0233 135.978,-38.8046"/>
<polygon fill="midnightblue" stroke="midnightblue" points="109.121,-39.079 99.7113,-43.9487 110.104,-46.0096 109.121,-39.079"/>
</g>
<!-- Node4 -->
<g id="node7" class="node"><title>Node4</title>
<a xlink:href="class_axle.html#a586be91663e139cca504c12a4f98f104" target="_top" xlink:title="Axle::addDiffType">
<polygon fill="white" stroke="black" points="282.5,-40.5 282.5,-61.5 377.5,-61.5 377.5,-40.5 282.5,-40.5"/>
<text text-anchor="middle" x="330" y="-48.5" font-family="Helvetica,sans-Serif" font-size="10.00">Axle::addDiffType</text>
</a>
</g>
<!-- Node3&#45;&gt;Node4 -->
<g id="edge6" class="edge"><title>Node3&#45;&gt;Node4</title>
<path fill="none" stroke="midnightblue" d="M256.249,-40.3883C265.091,-41.6605 274.025,-42.946 282.475,-44.1619"/>
<polygon fill="midnightblue" stroke="midnightblue" points="256.732,-36.9219 246.336,-38.962 255.735,-43.8506 256.732,-36.9219"/>
</g>
<!-- Node7 -->
<g id="node13" class="node"><title>Node7</title>
<a xlink:href="class_axle.html#a8538415ff906a056a1257a11f399700c" target="_top" xlink:title="Axle::toggleDiff">
<polygon fill="white" stroke="black" points="288,-0.5 288,-21.5 372,-21.5 372,-0.5 288,-0.5"/>
<text text-anchor="middle" x="330" y="-8.5" font-family="Helvetica,sans-Serif" font-size="10.00">Axle::toggleDiff</text>
</a>
</g>
<!-- Node3&#45;&gt;Node7 -->
<g id="edge12" class="edge"><title>Node3&#45;&gt;Node7</title>
<path fill="none" stroke="midnightblue" d="M256.451,-21.5826C267.076,-20.0539 277.827,-18.5069 287.707,-17.0853"/>
<polygon fill="midnightblue" stroke="midnightblue" points="255.735,-18.1494 246.336,-23.038 256.732,-25.0781 255.735,-18.1494"/>
</g>
<!-- Node5 -->
<g id="node9" class="node"><title>Node5</title>
<a xlink:href="class_rig_spawner.html#a629bef5e7c13c56fde46472b3adaa8fa" target="_top" xlink:title="RigSpawner::ProcessAxle">
<polygon fill="white" stroke="black" points="414.5,-40.5 414.5,-61.5 545.5,-61.5 545.5,-40.5 414.5,-40.5"/>
<text text-anchor="middle" x="480" y="-48.5" font-family="Helvetica,sans-Serif" font-size="10.00">RigSpawner::ProcessAxle</text>
</a>
</g>
<!-- Node4&#45;&gt;Node5 -->
<g id="edge8" class="edge"><title>Node4&#45;&gt;Node5</title>
<path fill="none" stroke="midnightblue" d="M388.128,-51C396.688,-51 405.557,-51 414.256,-51"/>
<polygon fill="midnightblue" stroke="midnightblue" points="387.873,-47.5001 377.873,-51 387.873,-54.5001 387.873,-47.5001"/>
</g>
<!-- Node6 -->
<g id="node11" class="node"><title>Node6</title>
<a xlink:href="class_rig_spawner.html#a67da85dd09bd864df9dc924f6f2a7d49" target="_top" xlink:title="RigSpawner::SpawnRig">
<polygon fill="white" stroke="black" points="582.5,-40.5 582.5,-61.5 703.5,-61.5 703.5,-40.5 582.5,-40.5"/>
<text text-anchor="middle" x="643" y="-48.5" font-family="Helvetica,sans-Serif" font-size="10.00">RigSpawner::SpawnRig</text>
</a>
</g>
<!-- Node5&#45;&gt;Node6 -->
<g id="edge10" class="edge"><title>Node5&#45;&gt;Node6</title>
<path fill="none" stroke="midnightblue" d="M555.843,-51C564.767,-51 573.782,-51 582.458,-51"/>
<polygon fill="midnightblue" stroke="midnightblue" points="555.829,-47.5001 545.828,-51 555.828,-54.5001 555.829,-47.5001"/>
</g>
</g>
</svg>
        <g id="navigator" transform="translate(0 0)" fill="#404254">
                <rect fill="#f2f5e9" fill-opacity="0.5" stroke="#606060" stroke-width=".5" x="0" y="0" width="60" height="60"/>
                <use id="zoomplus" xlink:href="#zoomPlus" x="17" y="9" onmousedown="handleZoom(evt,'in')"/>
                <use id="zoomminus" xlink:href="#zoomMin" x="42" y="9" onmousedown="handleZoom(evt,'out')"/>
                <use id="reset" xlink:href="#resetDef" x="30" y="36" onmousedown="handleReset()"/>
                <g id="arrowUp" xlink:href="#dirArrow" transform="translate(30 24)" onmousedown="handlePan(0,-1)">
                  <use xlink:href="#rim" fill="#404040">
                        <set attributeName="fill" to="#808080" begin="arrowUp.mouseover" end="arrowUp.mouseout"/>
                  </use>
                  <path fill="none" stroke="white" stroke-width="1.5" d="M0,-3.0v7 M-2.5,-0.5L0,-3.0L2.5,-0.5"/>
                </g>
                <g id="arrowRight" xlink:href="#dirArrow" transform="rotate(90) translate(36 -43)" onmousedown="handlePan(1,0)">
                  <use xlink:href="#rim" fill="#404040">
                        <set attributeName="fill" to="#808080" begin="arrowRight.mouseover" end="arrowRight.mouseout"/>
                  </use>
                  <path fill="none" stroke="white" stroke-width="1.5" d="M0,-3.0v7 M-2.5,-0.5L0,-3.0L2.5,-0.5"/>
                </g>
                <g id="arrowDown" xlink:href="#dirArrow" transform="rotate(180) translate(-30 -48)" onmousedown="handlePan(0,1)">
                  <use xlink:href="#rim" fill="#404040">
                        <set attributeName="fill" to="#808080" begin="arrowDown.mouseover" end="arrowDown.mouseout"/>
                  </use>
                  <path fill="none" stroke="white" stroke-width="1.5" d="M0,-3.0v7 M-2.5,-0.5L0,-3.0L2.5,-0.5"/>
                </g>
                <g id="arrowLeft" xlink:href="#dirArrow" transform="rotate(270) translate(-36 17)" onmousedown="handlePan(-1,0)">
                  <use xlink:href="#rim" fill="#404040">
                        <set attributeName="fill" to="#808080" begin="arrowLeft.mouseover" end="arrowLeft.mouseout"/>
                  </use>
                  <path fill="none" stroke="white" stroke-width="1.5" d="M0,-3.0v7 M-2.5,-0.5L0,-3.0L2.5,-0.5"/>
                </g>
        </g>
</svg>
