<?xml version="1.0" encoding="UTF-8" standalone="no"?>
<!DOCTYPE svg PUBLIC "-//W3C//DTD SVG 1.1//EN"
 "http://www.w3.org/Graphics/SVG/1.1/DTD/svg11.dtd">
<!-- Generated by graphviz version 2.26.3 (20100126.1600)
 -->
<!-- Title: G Pages: 1 -->
<svg width="496pt" height="70pt"
 viewBox="0.00 0.00 496.00 70.00" xmlns="http://www.w3.org/2000/svg" xmlns:xlink="http://www.w3.org/1999/xlink">
<g id="graph1" class="graph" transform="scale(1 1) rotate(0) translate(4 66)">
<title>G</title>
<polygon fill="white" stroke="white" points="-4,5 -4,-66 493,-66 493,5 -4,5"/>
<!-- Node1 -->
<g id="node1" class="node"><title>Node1</title>
<polygon fill="#bfbfbf" stroke="black" points="0.5,-20.5 0.5,-41.5 99.5,-41.5 99.5,-20.5 0.5,-20.5"/>
<text text-anchor="middle" x="50" y="-28.5" font-family="Helvetica,sans-Serif" font-size="10.00">Autopilot::toggleAlt</text>
</g>
<!-- Node2 -->
<g id="node3" class="node"><title>Node2</title>
<a xlink:href="class_overlay_wrapper.html#a7059a60d3d3e067be79c66247298b56b" target="_top" xlink:title="OverlayWrapper::mouseMoved">
<polygon fill="white" stroke="black" points="136,-20.5 136,-41.5 288,-41.5 288,-20.5 136,-20.5"/>
<text text-anchor="middle" x="212" y="-28.5" font-family="Helvetica,sans-Serif" font-size="10.00">OverlayWrapper::mouseMoved</text>
</a>
</g>
<!-- Node1&#45;&gt;Node2 -->
<g id="edge2" class="edge"><title>Node1&#45;&gt;Node2</title>
<path fill="none" stroke="midnightblue" d="M109.976,-31C118.368,-31 127.084,-31 135.727,-31"/>
<polygon fill="midnightblue" stroke="midnightblue" points="109.927,-27.5001 99.9272,-31 109.927,-34.5001 109.927,-27.5001"/>
</g>
<!-- Node3 -->
<g id="node5" class="node"><title>Node3</title>
<a xlink:href="class_overlay_wrapper.html#aa0172aafc9f55e431f19a57a0f39da7b" target="_top" xlink:title="OverlayWrapper::mousePressed">
<polygon fill="white" stroke="black" points="327,-40.5 327,-61.5 485,-61.5 485,-40.5 327,-40.5"/>
<text text-anchor="middle" x="406" y="-48.5" font-family="Helvetica,sans-Serif" font-size="10.00">OverlayWrapper::mousePressed</text>
</a>
</g>
<!-- Node2&#45;&gt;Node3 -->
<g id="edge4" class="edge"><title>Node2&#45;&gt;Node3</title>
<path fill="none" stroke="midnightblue" d="M298.357,-39.9028C307.86,-40.8825 317.501,-41.8764 326.909,-42.8463"/>
<polygon fill="midnightblue" stroke="midnightblue" points="298.423,-36.3912 288.117,-38.8471 297.705,-43.3543 298.423,-36.3912"/>
</g>
<!-- Node4 -->
<g id="node7" class="node"><title>Node4</title>
<a xlink:href="class_overlay_wrapper.html#a813c49ce923d19067d0a656c0d79c610" target="_top" xlink:title="OverlayWrapper::mouseReleased">
<polygon fill="white" stroke="black" points="324,-0.5 324,-21.5 488,-21.5 488,-0.5 324,-0.5"/>
<text text-anchor="middle" x="406" y="-8.5" font-family="Helvetica,sans-Serif" font-size="10.00">OverlayWrapper::mouseReleased</text>
</a>
</g>
<!-- Node2&#45;&gt;Node4 -->
<g id="edge6" class="edge"><title>Node2&#45;&gt;Node4</title>
<path fill="none" stroke="midnightblue" d="M298.332,-22.0998C306.765,-21.2304 315.306,-20.3498 323.698,-19.4847"/>
<polygon fill="midnightblue" stroke="midnightblue" points="297.705,-18.6457 288.117,-23.1529 298.423,-25.6088 297.705,-18.6457"/>
</g>
</g>
</svg>
