<?xml version="1.0" encoding="UTF-8" standalone="no"?>
<!DOCTYPE svg PUBLIC "-//W3C//DTD SVG 1.1//EN"
 "http://www.w3.org/Graphics/SVG/1.1/DTD/svg11.dtd">
<!-- Generated by graphviz version 2.26.3 (20100126.1600)
 -->
<!-- Title: RoR::GUIManager::TogglePauseMenu Pages: 1 -->
<svg width="364pt" height="94pt"
 viewBox="0.00 0.00 364.00 94.00" xmlns="http://www.w3.org/2000/svg" xmlns:xlink="http://www.w3.org/1999/xlink">
<g id="graph1" class="graph" transform="scale(1 1) rotate(0) translate(4 90)">
<title>RoR::GUIManager::TogglePauseMenu</title>
<polygon fill="white" stroke="white" points="-4,5 -4,-90 361,-90 361,5 -4,5"/>
<!-- Node1 -->
<g id="node1" class="node"><title>Node1</title>
<polygon fill="#bfbfbf" stroke="black" points="0.5,-32.5 0.5,-53.5 185.5,-53.5 185.5,-32.5 0.5,-32.5"/>
<text text-anchor="middle" x="93" y="-40.5" font-family="Helvetica,sans-Serif" font-size="10.00">RoR::GUIManager::TogglePauseMenu</text>
</g>
<!-- Node2 -->
<g id="node3" class="node"><title>Node2</title>
<a xlink:href="class_ro_r_1_1_application.html#a5082701abd55926b3c6eb4b0c933eca5" target="_top" xlink:title="RoR::Application::GetOgre\lSubsystem">
<polygon fill="white" stroke="black" points="222,-52 222,-86 356,-86 356,-52 222,-52"/>
<text text-anchor="start" x="230" y="-73" font-family="Helvetica,sans-Serif" font-size="10.00">RoR::Application::GetOgre</text>
<text text-anchor="middle" x="289" y="-60" font-family="Helvetica,sans-Serif" font-size="10.00">Subsystem</text>
</a>
</g>
<!-- Node1&#45;&gt;Node2 -->
<g id="edge2" class="edge"><title>Node1&#45;&gt;Node2</title>
<path fill="none" stroke="midnightblue" d="M172.156,-53.5003C185.15,-55.224 198.603,-57.0086 211.555,-58.7267"/>
<polygon fill="midnightblue" stroke="midnightblue" points="211.443,-62.2425 221.817,-60.0879 212.364,-55.3032 211.443,-62.2425"/>
</g>
<!-- Node3 -->
<g id="node5" class="node"><title>Node3</title>
<a xlink:href="class_ro_r_1_1_ogre_subsystem.html#aec5be99797f9add72578fb1fbfec582f" target="_top" xlink:title="RoR::OgreSubsystem\l::GetRenderWindow">
<polygon fill="white" stroke="black" points="232.5,-0 232.5,-34 345.5,-34 345.5,-0 232.5,-0"/>
<text text-anchor="start" x="240.5" y="-21" font-family="Helvetica,sans-Serif" font-size="10.00">RoR::OgreSubsystem</text>
<text text-anchor="middle" x="289" y="-8" font-family="Helvetica,sans-Serif" font-size="10.00">::GetRenderWindow</text>
</a>
</g>
<!-- Node1&#45;&gt;Node3 -->
<g id="edge4" class="edge"><title>Node1&#45;&gt;Node3</title>
<path fill="none" stroke="midnightblue" d="M172.156,-32.4997C188.715,-30.3031 206.02,-28.0075 222.083,-25.8768"/>
<polygon fill="midnightblue" stroke="midnightblue" points="222.985,-29.2878 232.438,-24.5031 222.065,-22.3486 222.985,-29.2878"/>
</g>
</g>
</svg>
