<?xml version="1.0" encoding="UTF-8" standalone="no"?>
<!DOCTYPE svg PUBLIC "-//W3C//DTD SVG 1.1//EN"
 "http://www.w3.org/Graphics/SVG/1.1/DTD/svg11.dtd">
<!-- Generated by graphviz version 2.26.3 (20100126.1600)
 -->
<!-- Title: DepthOfFieldEffect::setEnabled Pages: 1 -->
<svg width="284pt" height="70pt"
 viewBox="0.00 0.00 284.00 70.00" xmlns="http://www.w3.org/2000/svg" xmlns:xlink="http://www.w3.org/1999/xlink">
<g id="graph1" class="graph" transform="scale(1 1) rotate(0) translate(4 66)">
<title>DepthOfFieldEffect::setEnabled</title>
<polygon fill="white" stroke="white" points="-4,5 -4,-66 281,-66 281,5 -4,5"/>
<!-- Node1 -->
<g id="node1" class="node"><title>Node1</title>
<polygon fill="#bfbfbf" stroke="black" points="0.5,-14 0.5,-48 101.5,-48 101.5,-14 0.5,-14"/>
<text text-anchor="start" x="8.5" y="-35" font-family="Helvetica,sans-Serif" font-size="10.00">DepthOfFieldEffect</text>
<text text-anchor="middle" x="51" y="-22" font-family="Helvetica,sans-Serif" font-size="10.00">::setEnabled</text>
</g>
<!-- Node2 -->
<g id="node3" class="node"><title>Node2</title>
<a xlink:href="class_d_o_f_manager.html#a165e04f5ec744566a8c26d91265d081d" target="_top" xlink:title="DOFManager::setEnabled">
<polygon fill="white" stroke="black" points="142,-40.5 142,-61.5 272,-61.5 272,-40.5 142,-40.5"/>
<text text-anchor="middle" x="207" y="-48.5" font-family="Helvetica,sans-Serif" font-size="10.00">DOFManager::setEnabled</text>
</a>
</g>
<!-- Node1&#45;&gt;Node2 -->
<g id="edge2" class="edge"><title>Node1&#45;&gt;Node2</title>
<path fill="none" stroke="midnightblue" d="M111.754,-38.789C121.612,-40.0529 131.858,-41.3664 141.816,-42.6431"/>
<polygon fill="midnightblue" stroke="midnightblue" points="112.013,-35.2936 101.649,-37.4934 111.122,-42.2367 112.013,-35.2936"/>
</g>
<!-- Node3 -->
<g id="node5" class="node"><title>Node3</title>
<a xlink:href="class_d_o_f_manager.html#a7899d5f2eaa03945719f581cdf568606" target="_top" xlink:title="DOFManager::frameStarted">
<polygon fill="white" stroke="black" points="138.5,-0.5 138.5,-21.5 275.5,-21.5 275.5,-0.5 138.5,-0.5"/>
<text text-anchor="middle" x="207" y="-8.5" font-family="Helvetica,sans-Serif" font-size="10.00">DOFManager::frameStarted</text>
</a>
</g>
<!-- Node1&#45;&gt;Node3 -->
<g id="edge4" class="edge"><title>Node1&#45;&gt;Node3</title>
<path fill="none" stroke="midnightblue" d="M111.754,-23.211C120.505,-22.089 129.562,-20.928 138.452,-19.7882"/>
<polygon fill="midnightblue" stroke="midnightblue" points="111.122,-19.7633 101.649,-24.5066 112.013,-26.7064 111.122,-19.7633"/>
</g>
</g>
</svg>
