<?xml version="1.0" encoding="UTF-8" standalone="no"?>
<!DOCTYPE svg PUBLIC "-//W3C//DTD SVG 1.1//EN"
 "http://www.w3.org/Graphics/SVG/1.1/DTD/svg11.dtd">
<!-- Generated by graphviz version 2.26.3 (20100126.1600)
 -->
<!-- Title: InputEngine::getEventGroup Pages: 1 -->
<!--zoomable 99 -->
<svg id="main" version="1.1" xmlns="http://www.w3.org/2000/svg" xmlns:xlink="http://www.w3.org/1999/xlink" xml:space="preserve" onload="init(evt)">
<style type="text/css"><![CDATA[
.edge:hover path { stroke: red; }
.edge:hover polygon { stroke: red; fill: red; }
]]></style>
<script type="text/javascript"><![CDATA[
var edges = document.getElementsByTagName('g');
if (edges && edges.length) {
  for (var i=0;i<edges.length;i++) {
    if (edges[i].id.substr(0,4)=='edge') {
      edges[i].setAttribute('class','edge');
    }
  }
}
]]></script>
        <defs>
                <circle id="rim" cx="0" cy="0" r="7"/>
                <circle id="rim2" cx="0" cy="0" r="3.5"/>
                <g id="zoomPlus">
                        <use xlink:href="#rim" fill="#404040">
                                <set attributeName="fill" to="#808080" begin="zoomplus.mouseover" end="zoomplus.mouseout"/>
                        </use>
                        <path d="M-4,0h8M0,-4v8" fill="none" stroke="white" stroke-width="1.5" pointer-events="none"/>
                </g>
                <g id="zoomMin">
                        <use xlink:href="#rim" fill="#404040">
                                <set attributeName="fill" to="#808080" begin="zoomminus.mouseover" end="zoomminus.mouseout"/>
                        </use>
                        <path d="M-4,0h8" fill="none" stroke="white" stroke-width="1.5" pointer-events="none"/>
                </g>
                <g id="dirArrow">
                        <path fill="none" stroke="white" stroke-width="1.5" d="M0,-3.0v7 M-2.5,-0.5L0,-3.0L2.5,-0.5"/>
                </g>
               <g id="resetDef">
                       <use xlink:href="#rim2" fill="#404040">
                               <set attributeName="fill" to="#808080" begin="reset.mouseover" end="reset.mouseout"/>
                       </use>
               </g>
        </defs>

<script type="text/javascript">
var viewWidth = 1328;
var viewHeight = 99;
var sectionId = 'dynsection-20';
</script>
<script xlink:href="svgpan.js"/>
<svg id="graph" class="graph">
<g id="viewport">
<title>InputEngine::getEventGroup</title>
<polygon fill="white" stroke="white" points="-4,5 -4,-95 1325,-95 1325,5 -4,5"/>
<!-- Node1 -->
<g id="node1" class="node"><title>Node1</title>
<polygon fill="#bfbfbf" stroke="black" points="0,-29.5 0,-50.5 140,-50.5 140,-29.5 0,-29.5"/>
<text text-anchor="middle" x="70" y="-37.5" font-family="Helvetica,sans-Serif" font-size="10.00">InputEngine::getEventGroup</text>
</g>
<!-- Node2 -->
<g id="node3" class="node"><title>Node2</title>
<a xlink:href="class_input_engine.html#aefbb52cfac8a59f9e6683665d035222f" target="_top" xlink:title="InputEngine::processLine">
<polygon fill="white" stroke="black" points="176.5,-29.5 176.5,-50.5 303.5,-50.5 303.5,-29.5 176.5,-29.5"/>
<text text-anchor="middle" x="240" y="-37.5" font-family="Helvetica,sans-Serif" font-size="10.00">InputEngine::processLine</text>
</a>
</g>
<!-- Node1&#45;&gt;Node2 -->
<g id="edge2" class="edge"><title>Node1&#45;&gt;Node2</title>
<path fill="none" stroke="midnightblue" d="M150.311,-40C159.031,-40 167.816,-40 176.3,-40"/>
<polygon fill="midnightblue" stroke="midnightblue" points="150.127,-36.5001 140.127,-40 150.127,-43.5001 150.127,-36.5001"/>
</g>
<!-- Node3 -->
<g id="node5" class="node"><title>Node3</title>
<a xlink:href="class_input_engine.html#a1fbcc159a8a9342ba21412c33dc719b1" target="_top" xlink:title="InputEngine::completeMissing\lEvents">
<polygon fill="white" stroke="black" points="340,-46 340,-80 488,-80 488,-46 340,-46"/>
<text text-anchor="start" x="348" y="-67" font-family="Helvetica,sans-Serif" font-size="10.00">InputEngine::completeMissing</text>
<text text-anchor="middle" x="414" y="-54" font-family="Helvetica,sans-Serif" font-size="10.00">Events</text>
</a>
</g>
<!-- Node2&#45;&gt;Node3 -->
<g id="edge4" class="edge"><title>Node2&#45;&gt;Node3</title>
<path fill="none" stroke="midnightblue" d="M313.829,-49.7589C322.456,-50.8993 331.26,-52.0631 339.891,-53.204"/>
<polygon fill="midnightblue" stroke="midnightblue" points="314.176,-46.2745 303.803,-48.4338 313.258,-53.2141 314.176,-46.2745"/>
</g>
<!-- Node12 -->
<g id="node23" class="node"><title>Node12</title>
<a xlink:href="class_input_engine.html#a4e6616df0615d79e74d38ba2cf0ee9b2" target="_top" xlink:title="InputEngine::loadMapping">
<polygon fill="white" stroke="black" points="349.5,-6.5 349.5,-27.5 478.5,-27.5 478.5,-6.5 349.5,-6.5"/>
<text text-anchor="middle" x="414" y="-14.5" font-family="Helvetica,sans-Serif" font-size="10.00">InputEngine::loadMapping</text>
</a>
</g>
<!-- Node2&#45;&gt;Node12 -->
<g id="edge22" class="edge"><title>Node2&#45;&gt;Node12</title>
<path fill="none" stroke="midnightblue" d="M314.017,-30.2162C325.759,-28.664 337.824,-27.0692 349.331,-25.5483"/>
<polygon fill="midnightblue" stroke="midnightblue" points="313.258,-26.7859 303.803,-31.5662 314.176,-33.7255 313.258,-26.7859"/>
</g>
<!-- Node4 -->
<g id="node7" class="node"><title>Node4</title>
<a xlink:href="class_input_engine.html#a9bc5b692ec7fb0b74a76a5a2f2cd7534" target="_top" xlink:title="InputEngine::setup">
<polygon fill="white" stroke="black" points="540,-49.5 540,-70.5 638,-70.5 638,-49.5 540,-49.5"/>
<text text-anchor="middle" x="589" y="-57.5" font-family="Helvetica,sans-Serif" font-size="10.00">InputEngine::setup</text>
</a>
</g>
<!-- Node3&#45;&gt;Node4 -->
<g id="edge6" class="edge"><title>Node3&#45;&gt;Node4</title>
<path fill="none" stroke="midnightblue" d="M498.484,-61.5517C512.641,-61.309 526.902,-61.0645 539.785,-60.8437"/>
<polygon fill="midnightblue" stroke="midnightblue" points="498.154,-58.0567 488.216,-61.7277 498.274,-65.0557 498.154,-58.0567"/>
</g>
<!-- Node5 -->
<g id="node9" class="node"><title>Node5</title>
<a xlink:href="class_input_engine.html#a1a103e7902cd57ea877a0c8ac049d3cd" target="_top" xlink:title="InputEngine::saveMapping">
<polygon fill="white" stroke="black" points="690,-69.5 690,-90.5 822,-90.5 822,-69.5 690,-69.5"/>
<text text-anchor="middle" x="756" y="-77.5" font-family="Helvetica,sans-Serif" font-size="10.00">InputEngine::saveMapping</text>
</a>
</g>
<!-- Node4&#45;&gt;Node5 -->
<g id="edge8" class="edge"><title>Node4&#45;&gt;Node5</title>
<path fill="none" stroke="midnightblue" d="M648.283,-67.0998C661.733,-68.7106 676.101,-70.4313 689.817,-72.0739"/>
<polygon fill="midnightblue" stroke="midnightblue" points="648.548,-63.6065 638.202,-65.8925 647.715,-70.5568 648.548,-63.6065"/>
</g>
<!-- Node6 -->
<g id="node11" class="node"><title>Node6</title>
<a xlink:href="class_input_engine.html#afc5ef2151ca9c7a7af89c18dbbcdc65d" target="_top" xlink:title="InputEngine::setupDefault">
<polygon fill="white" stroke="black" points="691,-29.5 691,-50.5 821,-50.5 821,-29.5 691,-29.5"/>
<text text-anchor="middle" x="756" y="-37.5" font-family="Helvetica,sans-Serif" font-size="10.00">InputEngine::setupDefault</text>
</a>
</g>
<!-- Node4&#45;&gt;Node6 -->
<g id="edge10" class="edge"><title>Node4&#45;&gt;Node6</title>
<path fill="none" stroke="midnightblue" d="M648.467,-52.8782C662.166,-51.2376 676.808,-49.4841 690.738,-47.8158"/>
<polygon fill="midnightblue" stroke="midnightblue" points="647.715,-49.4432 638.202,-54.1075 648.548,-56.3935 647.715,-49.4432"/>
</g>
<!-- Node7 -->
<g id="node13" class="node"><title>Node7</title>
<a xlink:href="class_ro_r_1_1_main_thread.html#a7e4d0bd23a40e509892883af75ea0dbf" target="_top" xlink:title="RoR::MainThread::Go">
<polygon fill="white" stroke="black" points="858.5,-29.5 858.5,-50.5 971.5,-50.5 971.5,-29.5 858.5,-29.5"/>
<text text-anchor="middle" x="915" y="-37.5" font-family="Helvetica,sans-Serif" font-size="10.00">RoR::MainThread::Go</text>
</a>
</g>
<!-- Node6&#45;&gt;Node7 -->
<g id="edge12" class="edge"><title>Node6&#45;&gt;Node7</title>
<path fill="none" stroke="midnightblue" d="M831.343,-40C840.438,-40 849.606,-40 858.369,-40"/>
<polygon fill="midnightblue" stroke="midnightblue" points="831.13,-36.5001 821.13,-40 831.13,-43.5001 831.13,-36.5001"/>
</g>
<!-- Node8 -->
<g id="node15" class="node"><title>Node8</title>
<a xlink:href="main_2main__sim_2main_8cpp.html#a0ddf1224851353fc92bfbff6f499fa97" target="_top" xlink:title="main">
<polygon fill="white" stroke="black" points="1058,-52.5 1058,-73.5 1096,-73.5 1096,-52.5 1058,-52.5"/>
<text text-anchor="middle" x="1077" y="-60.5" font-family="Helvetica,sans-Serif" font-size="10.00">main</text>
</a>
</g>
<!-- Node7&#45;&gt;Node8 -->
<g id="edge14" class="edge"><title>Node7&#45;&gt;Node8</title>
<path fill="none" stroke="midnightblue" d="M981.692,-49.4687C1009.27,-53.3843 1039.14,-57.6243 1057.95,-60.2947"/>
<polygon fill="midnightblue" stroke="midnightblue" points="982.052,-45.9848 971.66,-48.0443 981.068,-52.9153 982.052,-45.9848"/>
</g>
<!-- Node10 -->
<g id="node19" class="node"><title>Node10</title>
<a xlink:href="class_ro_r_1_1_main_thread.html#a7a2db954fd2f35d63982d8603d2b9614" target="_top" xlink:title="RoR::MainThread::Request\lRestart">
<polygon fill="white" stroke="black" points="1008.5,-0 1008.5,-34 1145.5,-34 1145.5,-0 1008.5,-0"/>
<text text-anchor="start" x="1016.5" y="-21" font-family="Helvetica,sans-Serif" font-size="10.00">RoR::MainThread::Request</text>
<text text-anchor="middle" x="1077" y="-8" font-family="Helvetica,sans-Serif" font-size="10.00">Restart</text>
</a>
</g>
<!-- Node7&#45;&gt;Node10 -->
<g id="edge18" class="edge"><title>Node7&#45;&gt;Node10</title>
<path fill="none" stroke="midnightblue" d="M981.824,-30.5126C990.595,-29.2674 999.594,-27.9898 1008.39,-26.7405"/>
<polygon fill="midnightblue" stroke="midnightblue" points="981.068,-27.0847 971.66,-31.9557 982.052,-34.0152 981.068,-27.0847"/>
</g>
<!-- Node9 -->
<g id="node17" class="node"><title>Node9</title>
<a xlink:href="main_2main__sim_2main_8cpp.html#a2922bc5d5c2d77a3020cfbf9df12aab0" target="_top" xlink:title="WinMain">
<polygon fill="white" stroke="black" points="1223.5,-52.5 1223.5,-73.5 1278.5,-73.5 1278.5,-52.5 1223.5,-52.5"/>
<text text-anchor="middle" x="1251" y="-60.5" font-family="Helvetica,sans-Serif" font-size="10.00">WinMain</text>
</a>
</g>
<!-- Node8&#45;&gt;Node9 -->
<g id="edge16" class="edge"><title>Node8&#45;&gt;Node9</title>
<path fill="none" stroke="midnightblue" d="M1106.56,-63C1139.23,-63 1191.44,-63 1223.33,-63"/>
<polygon fill="midnightblue" stroke="midnightblue" points="1106.29,-59.5001 1096.29,-63 1106.29,-66.5001 1106.29,-59.5001"/>
</g>
<!-- Node11 -->
<g id="node21" class="node"><title>Node11</title>
<a xlink:href="class_ro_r_frame_listener.html#af2779b96aa0f91920bd100bc30261402" target="_top" xlink:title="RoRFrameListener::Restart">
<polygon fill="white" stroke="black" points="1182.5,-6.5 1182.5,-27.5 1319.5,-27.5 1319.5,-6.5 1182.5,-6.5"/>
<text text-anchor="middle" x="1251" y="-14.5" font-family="Helvetica,sans-Serif" font-size="10.00">RoRFrameListener::Restart</text>
</a>
</g>
<!-- Node10&#45;&gt;Node11 -->
<g id="edge20" class="edge"><title>Node10&#45;&gt;Node11</title>
<path fill="none" stroke="midnightblue" d="M1156.04,-17C1164.86,-17 1173.78,-17 1182.45,-17"/>
<polygon fill="midnightblue" stroke="midnightblue" points="1155.77,-13.5001 1145.77,-17 1155.77,-20.5001 1155.77,-13.5001"/>
</g>
<!-- Node12&#45;&gt;Node4 -->
<g id="edge24" class="edge"><title>Node12&#45;&gt;Node4</title>
<path fill="none" stroke="midnightblue" d="M466.641,-29.9347C492.012,-36.1687 522.057,-43.5512 546.026,-49.4406"/>
<polygon fill="midnightblue" stroke="midnightblue" points="467.356,-26.5063 456.81,-27.519 465.686,-33.3041 467.356,-26.5063"/>
</g>
<!-- Node13 -->
<g id="node26" class="node"><title>Node13</title>
<a xlink:href="class_input_engine.html#a924b6c319f3bc491af8b97a3943d6f4c" target="_top" xlink:title="InputEngine::reloadConfig">
<polygon fill="white" stroke="black" points="524.5,-6.5 524.5,-27.5 653.5,-27.5 653.5,-6.5 524.5,-6.5"/>
<text text-anchor="middle" x="589" y="-14.5" font-family="Helvetica,sans-Serif" font-size="10.00">InputEngine::reloadConfig</text>
</a>
</g>
<!-- Node12&#45;&gt;Node13 -->
<g id="edge26" class="edge"><title>Node12&#45;&gt;Node13</title>
<path fill="none" stroke="midnightblue" d="M488.916,-17C500.695,-17 512.785,-17 524.307,-17"/>
<polygon fill="midnightblue" stroke="midnightblue" points="488.666,-13.5001 478.666,-17 488.666,-20.5001 488.666,-13.5001"/>
</g>
</g>
</svg>
        <g id="navigator" transform="translate(0 0)" fill="#404254">
                <rect fill="#f2f5e9" fill-opacity="0.5" stroke="#606060" stroke-width=".5" x="0" y="0" width="60" height="60"/>
                <use id="zoomplus" xlink:href="#zoomPlus" x="17" y="9" onmousedown="handleZoom(evt,'in')"/>
                <use id="zoomminus" xlink:href="#zoomMin" x="42" y="9" onmousedown="handleZoom(evt,'out')"/>
                <use id="reset" xlink:href="#resetDef" x="30" y="36" onmousedown="handleReset()"/>
                <g id="arrowUp" xlink:href="#dirArrow" transform="translate(30 24)" onmousedown="handlePan(0,-1)">
                  <use xlink:href="#rim" fill="#404040">
                        <set attributeName="fill" to="#808080" begin="arrowUp.mouseover" end="arrowUp.mouseout"/>
                  </use>
                  <path fill="none" stroke="white" stroke-width="1.5" d="M0,-3.0v7 M-2.5,-0.5L0,-3.0L2.5,-0.5"/>
                </g>
                <g id="arrowRight" xlink:href="#dirArrow" transform="rotate(90) translate(36 -43)" onmousedown="handlePan(1,0)">
                  <use xlink:href="#rim" fill="#404040">
                        <set attributeName="fill" to="#808080" begin="arrowRight.mouseover" end="arrowRight.mouseout"/>
                  </use>
                  <path fill="none" stroke="white" stroke-width="1.5" d="M0,-3.0v7 M-2.5,-0.5L0,-3.0L2.5,-0.5"/>
                </g>
                <g id="arrowDown" xlink:href="#dirArrow" transform="rotate(180) translate(-30 -48)" onmousedown="handlePan(0,1)">
                  <use xlink:href="#rim" fill="#404040">
                        <set attributeName="fill" to="#808080" begin="arrowDown.mouseover" end="arrowDown.mouseout"/>
                  </use>
                  <path fill="none" stroke="white" stroke-width="1.5" d="M0,-3.0v7 M-2.5,-0.5L0,-3.0L2.5,-0.5"/>
                </g>
                <g id="arrowLeft" xlink:href="#dirArrow" transform="rotate(270) translate(-36 17)" onmousedown="handlePan(-1,0)">
                  <use xlink:href="#rim" fill="#404040">
                        <set attributeName="fill" to="#808080" begin="arrowLeft.mouseover" end="arrowLeft.mouseout"/>
                  </use>
                  <path fill="none" stroke="white" stroke-width="1.5" d="M0,-3.0v7 M-2.5,-0.5L0,-3.0L2.5,-0.5"/>
                </g>
        </g>
        <svg viewBox="0 0 15 15" width="100%" height="30px" preserveAspectRatio="xMaxYMin meet">
         <g id="arrow_out" transform="scale(0.3 0.3)">
          <a xlink:href="class_input_engine_a6e833a491189fdcf9d7efd4e9a44e4d3_icgraph_org.svg" target="_base">
           <rect id="button" ry="5" rx="5" y="6" x="6" height="38" width="38"
                fill="#f2f5e9" fill-opacity="0.5" stroke="#606060" stroke-width="1.0"/>
           <path id="arrow"
             d="M 11.500037,31.436501 C 11.940474,20.09759 22.043105,11.32322 32.158766,21.979434 L 37.068811,17.246167 C 37.068811,17.246167 37.088388,32 37.088388,32 L 22.160133,31.978069 C 22.160133,31.978069 26.997745,27.140456 26.997745,27.140456 C 18.528582,18.264221 13.291696,25.230495 11.500037,31.436501 z"
             style="fill:#404040;"/>
          </a>
         </g>
        </svg>
</svg>
