<?xml version="1.0" encoding="UTF-8" standalone="no"?>
<!DOCTYPE svg PUBLIC "-//W3C//DTD SVG 1.1//EN"
 "http://www.w3.org/Graphics/SVG/1.1/DTD/svg11.dtd">
<!-- Generated by graphviz version 2.26.3 (20100126.1600)
 -->
<!-- Title: G Pages: 1 -->
<svg width="492pt" height="110pt"
 viewBox="0.00 0.00 492.00 110.00" xmlns="http://www.w3.org/2000/svg" xmlns:xlink="http://www.w3.org/1999/xlink">
<g id="graph1" class="graph" transform="scale(1 1) rotate(0) translate(4 106)">
<title>G</title>
<polygon fill="white" stroke="white" points="-4,5 -4,-106 489,-106 489,5 -4,5"/>
<!-- Node1 -->
<g id="node1" class="node"><title>Node1</title>
<polygon fill="#bfbfbf" stroke="black" points="0,-40.5 0,-61.5 128,-61.5 128,-40.5 0,-40.5"/>
<text text-anchor="middle" x="64" y="-48.5" font-family="Helvetica,sans-Serif" font-size="10.00">Hydrax::Decal::unregister</text>
</g>
<!-- Node2 -->
<g id="node3" class="node"><title>Node2</title>
<a xlink:href="class_hydrax_1_1_decal.html#aaad4588738304d06a93271d28f2afcdc" target="_top" xlink:title="Hydrax::Decal::~Decal">
<polygon fill="white" stroke="black" points="175.5,-80.5 175.5,-101.5 292.5,-101.5 292.5,-80.5 175.5,-80.5"/>
<text text-anchor="middle" x="234" y="-88.5" font-family="Helvetica,sans-Serif" font-size="10.00">Hydrax::Decal::~Decal</text>
</a>
</g>
<!-- Node1&#45;&gt;Node2 -->
<g id="edge2" class="edge"><title>Node1&#45;&gt;Node2</title>
<path fill="none" stroke="midnightblue" d="M118.564,-63.8386C141.42,-69.2164 167.658,-75.3901 189.338,-80.4913"/>
<polygon fill="midnightblue" stroke="midnightblue" points="119.201,-60.393 108.665,-61.5095 117.598,-67.207 119.201,-60.393"/>
</g>
<!-- Node3 -->
<g id="node5" class="node"><title>Node3</title>
<a xlink:href="class_hydrax_1_1_decal.html#a8c81f3988be73eac2c1c03f947c74ed9" target="_top" xlink:title="Hydrax::Decal::registerPass">
<polygon fill="white" stroke="black" points="164,-40.5 164,-61.5 304,-61.5 304,-40.5 164,-40.5"/>
<text text-anchor="middle" x="234" y="-48.5" font-family="Helvetica,sans-Serif" font-size="10.00">Hydrax::Decal::registerPass</text>
</a>
</g>
<!-- Node1&#45;&gt;Node3 -->
<g id="edge4" class="edge"><title>Node1&#45;&gt;Node3</title>
<path fill="none" stroke="midnightblue" d="M138.496,-51C146.956,-51 155.558,-51 163.957,-51"/>
<polygon fill="midnightblue" stroke="midnightblue" points="138.27,-47.5001 128.27,-51 138.27,-54.5001 138.27,-47.5001"/>
</g>
<!-- Node5 -->
<g id="node9" class="node"><title>Node5</title>
<a xlink:href="class_hydrax_1_1_decal.html#a5c51a36fc2d8c6f320db291805b8401a" target="_top" xlink:title="Hydrax::Decal::setVisible">
<polygon fill="white" stroke="black" points="170,-0.5 170,-21.5 298,-21.5 298,-0.5 170,-0.5"/>
<text text-anchor="middle" x="234" y="-8.5" font-family="Helvetica,sans-Serif" font-size="10.00">Hydrax::Decal::setVisible</text>
</a>
</g>
<!-- Node1&#45;&gt;Node5 -->
<g id="edge8" class="edge"><title>Node1&#45;&gt;Node5</title>
<path fill="none" stroke="midnightblue" d="M118.564,-38.1614C141.42,-32.7836 167.658,-26.6099 189.338,-21.5087"/>
<polygon fill="midnightblue" stroke="midnightblue" points="117.598,-34.793 108.665,-40.4905 119.201,-41.607 117.598,-34.793"/>
</g>
<!-- Node4 -->
<g id="node7" class="node"><title>Node4</title>
<a xlink:href="class_hydrax_1_1_decals_manager.html#a63cc52fdd0109f34e1c40b9cfb33f9ab" target="_top" xlink:title="Hydrax::DecalsManager::add">
<polygon fill="white" stroke="black" points="340,-40.5 340,-61.5 484,-61.5 484,-40.5 340,-40.5"/>
<text text-anchor="middle" x="412" y="-48.5" font-family="Helvetica,sans-Serif" font-size="10.00">Hydrax::DecalsManager::add</text>
</a>
</g>
<!-- Node3&#45;&gt;Node4 -->
<g id="edge6" class="edge"><title>Node3&#45;&gt;Node4</title>
<path fill="none" stroke="midnightblue" d="M314.118,-51C322.716,-51 331.426,-51 339.922,-51"/>
<polygon fill="midnightblue" stroke="midnightblue" points="314.095,-47.5001 304.095,-51 314.095,-54.5001 314.095,-47.5001"/>
</g>
</g>
</svg>
