<?xml version="1.0" encoding="UTF-8" standalone="no"?>
<!DOCTYPE svg PUBLIC "-//W3C//DTD SVG 1.1//EN"
 "http://www.w3.org/Graphics/SVG/1.1/DTD/svg11.dtd">
<!-- Generated by graphviz version 2.26.3 (20100126.1600)
 -->
<!-- Title: RigDef::Serializer::ProcessMeshWheels2 Pages: 1 -->
<svg width="792pt" height="94pt"
 viewBox="0.00 0.00 792.00 94.00" xmlns="http://www.w3.org/2000/svg" xmlns:xlink="http://www.w3.org/1999/xlink">
<g id="graph1" class="graph" transform="scale(1 1) rotate(0) translate(4 90)">
<title>RigDef::Serializer::ProcessMeshWheels2</title>
<polygon fill="white" stroke="white" points="-4,5 -4,-90 789,-90 789,5 -4,5"/>
<!-- Node1 -->
<g id="node1" class="node"><title>Node1</title>
<polygon fill="#bfbfbf" stroke="black" points="0.5,-26 0.5,-60 121.5,-60 121.5,-26 0.5,-26"/>
<text text-anchor="start" x="8.5" y="-47" font-family="Helvetica,sans-Serif" font-size="10.00">RigDef::Serializer</text>
<text text-anchor="middle" x="61" y="-34" font-family="Helvetica,sans-Serif" font-size="10.00">::ProcessMeshWheels2</text>
</g>
<!-- Node2 -->
<g id="node3" class="node"><title>Node2</title>
<a xlink:href="class_rig_def_1_1_serializer.html#a0d25ba7124bac77109b3251d0d5014ec" target="_top" xlink:title="RigDef::Serializer\l::Serialize">
<polygon fill="white" stroke="black" points="158,-26 158,-60 252,-60 252,-26 158,-26"/>
<text text-anchor="start" x="166" y="-47" font-family="Helvetica,sans-Serif" font-size="10.00">RigDef::Serializer</text>
<text text-anchor="middle" x="205" y="-34" font-family="Helvetica,sans-Serif" font-size="10.00">::Serialize</text>
</a>
</g>
<!-- Node1&#45;&gt;Node2 -->
<g id="edge2" class="edge"><title>Node1&#45;&gt;Node2</title>
<path fill="none" stroke="midnightblue" d="M131.684,-43C140.605,-43 149.554,-43 157.981,-43"/>
<polygon fill="midnightblue" stroke="midnightblue" points="131.652,-39.5001 121.652,-43 131.652,-46.5001 131.652,-39.5001"/>
</g>
<!-- Node3 -->
<g id="node5" class="node"><title>Node3</title>
<a xlink:href="class_ro_r_1_1_rig_editor_1_1_main.html#a9e367d1e6cc15d9481e2cf07e178b074" target="_top" xlink:title="RoR::RigEditor::Main\l::SaveRigDefFile">
<polygon fill="white" stroke="black" points="288,-26 288,-60 398,-60 398,-26 288,-26"/>
<text text-anchor="start" x="296" y="-47" font-family="Helvetica,sans-Serif" font-size="10.00">RoR::RigEditor::Main</text>
<text text-anchor="middle" x="343" y="-34" font-family="Helvetica,sans-Serif" font-size="10.00">::SaveRigDefFile</text>
</a>
</g>
<!-- Node2&#45;&gt;Node3 -->
<g id="edge4" class="edge"><title>Node2&#45;&gt;Node3</title>
<path fill="none" stroke="midnightblue" d="M262.18,-43C270.565,-43 279.19,-43 287.54,-43"/>
<polygon fill="midnightblue" stroke="midnightblue" points="262.106,-39.5001 252.106,-43 262.106,-46.5001 262.106,-39.5001"/>
</g>
<!-- Node4 -->
<g id="node7" class="node"><title>Node4</title>
<a xlink:href="class_ro_r_1_1_rig_editor_1_1_main.html#a35a10d6c23920802442d32fab1a8d470" target="_top" xlink:title="RoR::RigEditor::Main\l::NotifyFileSelectorEnded">
<polygon fill="white" stroke="black" points="434,-26 434,-60 562,-60 562,-26 434,-26"/>
<text text-anchor="start" x="442" y="-47" font-family="Helvetica,sans-Serif" font-size="10.00">RoR::RigEditor::Main</text>
<text text-anchor="middle" x="498" y="-34" font-family="Helvetica,sans-Serif" font-size="10.00">::NotifyFileSelectorEnded</text>
</a>
</g>
<!-- Node3&#45;&gt;Node4 -->
<g id="edge6" class="edge"><title>Node3&#45;&gt;Node4</title>
<path fill="none" stroke="midnightblue" d="M408.274,-43C416.733,-43 425.391,-43 433.831,-43"/>
<polygon fill="midnightblue" stroke="midnightblue" points="408.084,-39.5001 398.084,-43 408.084,-46.5001 408.084,-39.5001"/>
</g>
<!-- Node5 -->
<g id="node9" class="node"><title>Node5</title>
<a xlink:href="class_ro_r_1_1_rig_editor_1_1_main.html#a4f73e9dc5632524ca803864460b82bb5" target="_top" xlink:title="RoR::RigEditor::Main\l::CommandShowDialogOpenRigFile">
<polygon fill="white" stroke="black" points="604,-52 604,-86 778,-86 778,-52 604,-52"/>
<text text-anchor="start" x="612" y="-73" font-family="Helvetica,sans-Serif" font-size="10.00">RoR::RigEditor::Main</text>
<text text-anchor="middle" x="691" y="-60" font-family="Helvetica,sans-Serif" font-size="10.00">::CommandShowDialogOpenRigFile</text>
</a>
</g>
<!-- Node4&#45;&gt;Node5 -->
<g id="edge8" class="edge"><title>Node4&#45;&gt;Node5</title>
<path fill="none" stroke="midnightblue" d="M572.456,-53.0303C582.783,-54.4216 593.466,-55.8607 603.997,-57.2794"/>
<polygon fill="midnightblue" stroke="midnightblue" points="572.644,-49.5241 562.266,-51.6576 571.709,-56.4615 572.644,-49.5241"/>
</g>
<!-- Node6 -->
<g id="node11" class="node"><title>Node6</title>
<a xlink:href="class_ro_r_1_1_rig_editor_1_1_main.html#acb4af1361d9233f5ee2fa658536a7658" target="_top" xlink:title="RoR::RigEditor::Main\l::CommandShowDialogSaveRigFileAs">
<polygon fill="white" stroke="black" points="598.5,-0 598.5,-34 783.5,-34 783.5,-0 598.5,-0"/>
<text text-anchor="start" x="606.5" y="-21" font-family="Helvetica,sans-Serif" font-size="10.00">RoR::RigEditor::Main</text>
<text text-anchor="middle" x="691" y="-8" font-family="Helvetica,sans-Serif" font-size="10.00">::CommandShowDialogSaveRigFileAs</text>
</a>
</g>
<!-- Node4&#45;&gt;Node6 -->
<g id="edge10" class="edge"><title>Node4&#45;&gt;Node6</title>
<path fill="none" stroke="midnightblue" d="M572.223,-33.001C580.818,-31.8432 589.662,-30.6518 598.461,-29.4663"/>
<polygon fill="midnightblue" stroke="midnightblue" points="571.709,-29.5385 562.266,-34.3424 572.644,-36.4759 571.709,-29.5385"/>
</g>
</g>
</svg>
