<?xml version="1.0" encoding="UTF-8" standalone="no"?>
<!DOCTYPE svg PUBLIC "-//W3C//DTD SVG 1.1//EN"
 "http://www.w3.org/Graphics/SVG/1.1/DTD/svg11.dtd">
<!-- Generated by graphviz version 2.26.3 (20100126.1600)
 -->
<!-- Title: BeamFactory::activateAllTrucks Pages: 1 -->
<svg width="292pt" height="70pt"
 viewBox="0.00 0.00 292.00 70.00" xmlns="http://www.w3.org/2000/svg" xmlns:xlink="http://www.w3.org/1999/xlink">
<g id="graph1" class="graph" transform="scale(1 1) rotate(0) translate(4 66)">
<title>BeamFactory::activateAllTrucks</title>
<polygon fill="white" stroke="white" points="-4,5 -4,-66 289,-66 289,5 -4,5"/>
<!-- Node1 -->
<g id="node1" class="node"><title>Node1</title>
<polygon fill="#bfbfbf" stroke="black" points="0.5,-14 0.5,-48 127.5,-48 127.5,-14 0.5,-14"/>
<text text-anchor="start" x="8.5" y="-35" font-family="Helvetica,sans-Serif" font-size="10.00">BeamFactory::activateAll</text>
<text text-anchor="middle" x="64" y="-22" font-family="Helvetica,sans-Serif" font-size="10.00">Trucks</text>
</g>
<!-- Node2 -->
<g id="node3" class="node"><title>Node2</title>
<a xlink:href="class_beam.html#af9b4ba90d62be6ca00cdd101a7db6314" target="_top" xlink:title="Beam::desactivate">
<polygon fill="white" stroke="black" points="175,-40.5 175,-61.5 273,-61.5 273,-40.5 175,-40.5"/>
<text text-anchor="middle" x="224" y="-48.5" font-family="Helvetica,sans-Serif" font-size="10.00">Beam::desactivate</text>
</a>
</g>
<!-- Node1&#45;&gt;Node2 -->
<g id="edge2" class="edge"><title>Node1&#45;&gt;Node2</title>
<path fill="none" stroke="midnightblue" d="M127.696,-38.962C139.951,-40.4939 152.739,-42.0924 164.843,-43.6053"/>
<polygon fill="midnightblue" stroke="midnightblue" points="164.465,-47.0853 174.822,-44.8528 165.334,-40.1394 164.465,-47.0853"/>
</g>
<!-- Node3 -->
<g id="node5" class="node"><title>Node3</title>
<a xlink:href="class_beam_factory.html#aadb09a68dc35fad593189242429df218" target="_top" xlink:title="BeamFactory::getTruck">
<polygon fill="white" stroke="black" points="164.5,-0.5 164.5,-21.5 283.5,-21.5 283.5,-0.5 164.5,-0.5"/>
<text text-anchor="middle" x="224" y="-8.5" font-family="Helvetica,sans-Serif" font-size="10.00">BeamFactory::getTruck</text>
</a>
</g>
<!-- Node1&#45;&gt;Node3 -->
<g id="edge4" class="edge"><title>Node1&#45;&gt;Node3</title>
<path fill="none" stroke="midnightblue" d="M127.696,-23.038C136.497,-21.9379 145.573,-20.8034 154.473,-19.6909"/>
<polygon fill="midnightblue" stroke="midnightblue" points="154.934,-23.1606 164.423,-18.4472 154.066,-16.2146 154.934,-23.1606"/>
</g>
</g>
</svg>
