<?xml version="1.0" encoding="UTF-8" standalone="no"?>
<!DOCTYPE svg PUBLIC "-//W3C//DTD SVG 1.1//EN"
 "http://www.w3.org/Graphics/SVG/1.1/DTD/svg11.dtd">
<!-- Generated by graphviz version 2.26.3 (20100126.1600)
 -->
<!-- Title: RoR::RigEditor::Node::Translate Pages: 1 -->
<svg width="1078pt" height="82pt"
 viewBox="0.00 0.00 1078.00 82.00" xmlns="http://www.w3.org/2000/svg" xmlns:xlink="http://www.w3.org/1999/xlink">
<g id="graph1" class="graph" transform="scale(1 1) rotate(0) translate(4 78)">
<title>RoR::RigEditor::Node::Translate</title>
<polygon fill="white" stroke="white" points="-4,5 -4,-78 1075,-78 1075,5 -4,5"/>
<!-- Node1 -->
<g id="node1" class="node"><title>Node1</title>
<polygon fill="#bfbfbf" stroke="black" points="0.5,-23 0.5,-57 113.5,-57 113.5,-23 0.5,-23"/>
<text text-anchor="start" x="8.5" y="-44" font-family="Helvetica,sans-Serif" font-size="10.00">RoR::RigEditor::Node</text>
<text text-anchor="middle" x="57" y="-31" font-family="Helvetica,sans-Serif" font-size="10.00">::Translate</text>
</g>
<!-- Node2 -->
<g id="node3" class="node"><title>Node2</title>
<a xlink:href="class_ro_r_1_1_rig_editor_1_1_rig.html#a62c070427e93976b8fc5a11b09b6076d" target="_top" xlink:title="RoR::RigEditor::Rig\l::TranslateSelectedNodes">
<polygon fill="white" stroke="black" points="150,-23 150,-57 280,-57 280,-23 150,-23"/>
<text text-anchor="start" x="158" y="-44" font-family="Helvetica,sans-Serif" font-size="10.00">RoR::RigEditor::Rig</text>
<text text-anchor="middle" x="215" y="-31" font-family="Helvetica,sans-Serif" font-size="10.00">::TranslateSelectedNodes</text>
</a>
</g>
<!-- Node1&#45;&gt;Node2 -->
<g id="edge2" class="edge"><title>Node1&#45;&gt;Node2</title>
<path fill="none" stroke="midnightblue" d="M123.678,-40C132.369,-40 141.263,-40 149.927,-40"/>
<polygon fill="midnightblue" stroke="midnightblue" points="123.595,-36.5001 113.595,-40 123.595,-43.5001 123.595,-36.5001"/>
</g>
<!-- Node3 -->
<g id="node5" class="node"><title>Node3</title>
<a xlink:href="class_ro_r_1_1_rig_editor_1_1_main.html#abe2179248ae5a8d9fc4a8ed136a18c46" target="_top" xlink:title="RoR::RigEditor::Main\l::UpdateMainLoop">
<polygon fill="white" stroke="black" points="316,-23 316,-57 426,-57 426,-23 316,-23"/>
<text text-anchor="start" x="324" y="-44" font-family="Helvetica,sans-Serif" font-size="10.00">RoR::RigEditor::Main</text>
<text text-anchor="middle" x="371" y="-31" font-family="Helvetica,sans-Serif" font-size="10.00">::UpdateMainLoop</text>
</a>
</g>
<!-- Node2&#45;&gt;Node3 -->
<g id="edge4" class="edge"><title>Node2&#45;&gt;Node3</title>
<path fill="none" stroke="midnightblue" d="M290.328,-40C298.948,-40 307.612,-40 315.897,-40"/>
<polygon fill="midnightblue" stroke="midnightblue" points="290.254,-36.5001 280.254,-40 290.254,-43.5001 290.254,-36.5001"/>
</g>
<!-- Node4 -->
<g id="node7" class="node"><title>Node4</title>
<a xlink:href="class_ro_r_1_1_rig_editor_1_1_main.html#a8cd11f0150b5e247b6d9f00212d42b0d" target="_top" xlink:title="RoR::RigEditor::Main\l::EnterMainLoop">
<polygon fill="white" stroke="black" points="462,-23 462,-57 572,-57 572,-23 462,-23"/>
<text text-anchor="start" x="470" y="-44" font-family="Helvetica,sans-Serif" font-size="10.00">RoR::RigEditor::Main</text>
<text text-anchor="middle" x="517" y="-31" font-family="Helvetica,sans-Serif" font-size="10.00">::EnterMainLoop</text>
</a>
</g>
<!-- Node3&#45;&gt;Node4 -->
<g id="edge6" class="edge"><title>Node3&#45;&gt;Node4</title>
<path fill="none" stroke="midnightblue" d="M436.41,-40C444.865,-40 453.457,-40 461.726,-40"/>
<polygon fill="midnightblue" stroke="midnightblue" points="436.196,-36.5001 426.196,-40 436.196,-43.5001 436.196,-36.5001"/>
</g>
<!-- Node5 -->
<g id="node9" class="node"><title>Node5</title>
<a xlink:href="class_ro_r_1_1_main_thread.html#a7e4d0bd23a40e509892883af75ea0dbf" target="_top" xlink:title="RoR::MainThread::Go">
<polygon fill="white" stroke="black" points="608.5,-29.5 608.5,-50.5 721.5,-50.5 721.5,-29.5 608.5,-29.5"/>
<text text-anchor="middle" x="665" y="-37.5" font-family="Helvetica,sans-Serif" font-size="10.00">RoR::MainThread::Go</text>
</a>
</g>
<!-- Node4&#45;&gt;Node5 -->
<g id="edge8" class="edge"><title>Node4&#45;&gt;Node5</title>
<path fill="none" stroke="midnightblue" d="M582.23,-40C590.94,-40 599.814,-40 608.361,-40"/>
<polygon fill="midnightblue" stroke="midnightblue" points="582.11,-36.5001 572.11,-40 582.11,-43.5001 582.11,-36.5001"/>
</g>
<!-- Node6 -->
<g id="node11" class="node"><title>Node6</title>
<a xlink:href="main_2main__sim_2main_8cpp.html#a0ddf1224851353fc92bfbff6f499fa97" target="_top" xlink:title="main">
<polygon fill="white" stroke="black" points="808,-52.5 808,-73.5 846,-73.5 846,-52.5 808,-52.5"/>
<text text-anchor="middle" x="827" y="-60.5" font-family="Helvetica,sans-Serif" font-size="10.00">main</text>
</a>
</g>
<!-- Node5&#45;&gt;Node6 -->
<g id="edge10" class="edge"><title>Node5&#45;&gt;Node6</title>
<path fill="none" stroke="midnightblue" d="M731.692,-49.4687C759.272,-53.3843 789.136,-57.6243 807.945,-60.2947"/>
<polygon fill="midnightblue" stroke="midnightblue" points="732.052,-45.9848 721.66,-48.0443 731.068,-52.9153 732.052,-45.9848"/>
</g>
<!-- Node8 -->
<g id="node15" class="node"><title>Node8</title>
<a xlink:href="class_ro_r_1_1_main_thread.html#a7a2db954fd2f35d63982d8603d2b9614" target="_top" xlink:title="RoR::MainThread::Request\lRestart">
<polygon fill="white" stroke="black" points="758.5,-0 758.5,-34 895.5,-34 895.5,-0 758.5,-0"/>
<text text-anchor="start" x="766.5" y="-21" font-family="Helvetica,sans-Serif" font-size="10.00">RoR::MainThread::Request</text>
<text text-anchor="middle" x="827" y="-8" font-family="Helvetica,sans-Serif" font-size="10.00">Restart</text>
</a>
</g>
<!-- Node5&#45;&gt;Node8 -->
<g id="edge14" class="edge"><title>Node5&#45;&gt;Node8</title>
<path fill="none" stroke="midnightblue" d="M731.824,-30.5126C740.595,-29.2674 749.594,-27.9898 758.393,-26.7405"/>
<polygon fill="midnightblue" stroke="midnightblue" points="731.068,-27.0847 721.66,-31.9557 732.052,-34.0152 731.068,-27.0847"/>
</g>
<!-- Node7 -->
<g id="node13" class="node"><title>Node7</title>
<a xlink:href="main_2main__sim_2main_8cpp.html#a2922bc5d5c2d77a3020cfbf9df12aab0" target="_top" xlink:title="WinMain">
<polygon fill="white" stroke="black" points="973.5,-52.5 973.5,-73.5 1028.5,-73.5 1028.5,-52.5 973.5,-52.5"/>
<text text-anchor="middle" x="1001" y="-60.5" font-family="Helvetica,sans-Serif" font-size="10.00">WinMain</text>
</a>
</g>
<!-- Node6&#45;&gt;Node7 -->
<g id="edge12" class="edge"><title>Node6&#45;&gt;Node7</title>
<path fill="none" stroke="midnightblue" d="M856.559,-63C889.23,-63 941.439,-63 973.332,-63"/>
<polygon fill="midnightblue" stroke="midnightblue" points="856.286,-59.5001 846.286,-63 856.286,-66.5001 856.286,-59.5001"/>
</g>
<!-- Node9 -->
<g id="node17" class="node"><title>Node9</title>
<a xlink:href="class_ro_r_frame_listener.html#af2779b96aa0f91920bd100bc30261402" target="_top" xlink:title="RoRFrameListener::Restart">
<polygon fill="white" stroke="black" points="932.5,-6.5 932.5,-27.5 1069.5,-27.5 1069.5,-6.5 932.5,-6.5"/>
<text text-anchor="middle" x="1001" y="-14.5" font-family="Helvetica,sans-Serif" font-size="10.00">RoRFrameListener::Restart</text>
</a>
</g>
<!-- Node8&#45;&gt;Node9 -->
<g id="edge16" class="edge"><title>Node8&#45;&gt;Node9</title>
<path fill="none" stroke="midnightblue" d="M906.043,-17C914.856,-17 923.778,-17 932.445,-17"/>
<polygon fill="midnightblue" stroke="midnightblue" points="905.769,-13.5001 895.769,-17 905.769,-20.5001 905.769,-13.5001"/>
</g>
</g>
</svg>
