<?xml version="1.0" encoding="UTF-8" standalone="no"?>
<!DOCTYPE svg PUBLIC "-//W3C//DTD SVG 1.1//EN"
 "http://www.w3.org/Graphics/SVG/1.1/DTD/svg11.dtd">
<!-- Generated by graphviz version 2.26.3 (20100126.1600)
 -->
<!-- Title: G Pages: 1 -->
<!--zoomable 190 -->
<svg id="main" version="1.1" xmlns="http://www.w3.org/2000/svg" xmlns:xlink="http://www.w3.org/1999/xlink" xml:space="preserve" onload="init(evt)">
        <defs>
                <circle id="rim" cx="0" cy="0" r="7"/>
                <circle id="rim2" cx="0" cy="0" r="3.5"/>
                <g id="zoomPlus">
                        <use xlink:href="#rim" fill="#404040">
                                <set attributeName="fill" to="#808080" begin="zoomplus.mouseover" end="zoomplus.mouseout"/>
                        </use>
                        <path d="M-4,0h8M0,-4v8" fill="none" stroke="white" stroke-width="1.5" pointer-events="none"/>
                </g>
                <g id="zoomMin">
                        <use xlink:href="#rim" fill="#404040">
                                <set attributeName="fill" to="#808080" begin="zoomminus.mouseover" end="zoomminus.mouseout"/>
                        </use>
                        <path d="M-4,0h8" fill="none" stroke="white" stroke-width="1.5" pointer-events="none"/>
                </g>
                <g id="dirArrow">
                        <path fill="none" stroke="white" stroke-width="1.5" d="M0,-3.0v7 M-2.5,-0.5L0,-3.0L2.5,-0.5"/>
                </g>
               <g id="resetDef">
                       <use xlink:href="#rim2" fill="#404040">
                               <set attributeName="fill" to="#808080" begin="reset.mouseover" end="reset.mouseout"/>
                       </use>
               </g>
        </defs>

<script type="text/javascript">
var viewWidth = 638;
var viewHeight = 190;
var sectionId = 'dynsection-3';
</script>
<script xlink:href="svgpan.js"/>
<svg id="graph" class="graph">
<g id="viewport">
<title>G</title>
<polygon fill="white" stroke="white" points="-4,5 -4,-186 635,-186 635,5 -4,5"/>
<!-- Node1 -->
<g id="node1" class="node"><title>Node1</title>
<polygon fill="#bfbfbf" stroke="black" points="0.5,-80.5 0.5,-101.5 189.5,-101.5 189.5,-80.5 0.5,-80.5"/>
<text text-anchor="middle" x="95" y="-88.5" font-family="Helvetica,sans-Serif" font-size="10.00">ShadowManager::updateTerrainMaterial</text>
</g>
<!-- Node2 -->
<g id="node3" class="node"><title>Node2</title>
<a xlink:href="class_ogre_1_1_terrain_p_s_s_m_material_generator_1_1_s_m2_profile.html#a64393b0dea5d6369bffe54eb64b2402b" target="_top" xlink:title="Ogre::TerrainPSSMMaterialGenerator::SM2Profile::setReceiveDynamicShadowsDepth">
<polygon fill="white" stroke="black" points="230.5,-160.5 230.5,-181.5 625.5,-181.5 625.5,-160.5 230.5,-160.5"/>
<text text-anchor="middle" x="428" y="-168.5" font-family="Helvetica,sans-Serif" font-size="10.00">Ogre::TerrainPSSMMaterialGenerator::SM2Profile::setReceiveDynamicShadowsDepth</text>
</a>
</g>
<!-- Node1&#45;&gt;Node2 -->
<g id="edge2" class="edge"><title>Node1&#45;&gt;Node2</title>
<path fill="none" stroke="midnightblue" d="M112.932,-101.549C137.519,-115.458 183.5,-139.508 226,-151 237.096,-154 248.644,-156.561 260.348,-158.745"/>
<polygon fill="midnightblue" stroke="midnightblue" points="259.752,-162.194 270.21,-160.493 260.974,-155.301 259.752,-162.194"/>
</g>
<!-- Node3 -->
<g id="node5" class="node"><title>Node3</title>
<a xlink:href="class_ogre_1_1_terrain_p_s_s_m_material_generator_1_1_s_m2_profile.html#a38ace1660cd14278384f1b8d8ffb20d6" target="_top" xlink:title="Ogre::TerrainPSSMMaterialGenerator::SM2Profile::setReceiveDynamicShadowsLowLod">
<polygon fill="white" stroke="black" points="227,-120.5 227,-141.5 629,-141.5 629,-120.5 227,-120.5"/>
<text text-anchor="middle" x="428" y="-128.5" font-family="Helvetica,sans-Serif" font-size="10.00">Ogre::TerrainPSSMMaterialGenerator::SM2Profile::setReceiveDynamicShadowsLowLod</text>
</a>
</g>
<!-- Node1&#45;&gt;Node3 -->
<g id="edge4" class="edge"><title>Node1&#45;&gt;Node3</title>
<path fill="none" stroke="midnightblue" d="M159.538,-101.546C180.684,-104.816 204.315,-108.273 226,-111 250.201,-114.043 276.082,-116.903 300.964,-119.456"/>
<polygon fill="midnightblue" stroke="midnightblue" points="300.883,-122.965 311.185,-120.493 301.59,-116.001 300.883,-122.965"/>
</g>
<!-- Node4 -->
<g id="node7" class="node"><title>Node4</title>
<a xlink:href="class_ogre_1_1_terrain_p_s_s_m_material_generator_1_1_s_m2_profile.html#a5ee5ddc009e4cb01c7a1fb02386edb12" target="_top" xlink:title="Ogre::TerrainPSSMMaterialGenerator::SM2Profile::setReceiveDynamicShadowsEnabled">
<polygon fill="white" stroke="black" points="226,-80.5 226,-101.5 630,-101.5 630,-80.5 226,-80.5"/>
<text text-anchor="middle" x="428" y="-88.5" font-family="Helvetica,sans-Serif" font-size="10.00">Ogre::TerrainPSSMMaterialGenerator::SM2Profile::setReceiveDynamicShadowsEnabled</text>
</a>
</g>
<!-- Node1&#45;&gt;Node4 -->
<g id="edge6" class="edge"><title>Node1&#45;&gt;Node4</title>
<path fill="none" stroke="midnightblue" d="M189.534,-91C197.986,-91 206.745,-91 215.695,-91"/>
<polygon fill="midnightblue" stroke="midnightblue" points="215.875,-94.5001 225.875,-91 215.875,-87.5001 215.875,-94.5001"/>
</g>
<!-- Node5 -->
<g id="node9" class="node"><title>Node5</title>
<a xlink:href="class_ogre_1_1_terrain_p_s_s_m_material_generator_1_1_s_m2_profile.html#ab5bc01c8574779a1073f60ff7c15a45f" target="_top" xlink:title="Ogre::TerrainPSSMMaterialGenerator::SM2Profile::setReceiveDynamicShadowsPSSM">
<polygon fill="white" stroke="black" points="229.5,-40.5 229.5,-61.5 626.5,-61.5 626.5,-40.5 229.5,-40.5"/>
<text text-anchor="middle" x="428" y="-48.5" font-family="Helvetica,sans-Serif" font-size="10.00">Ogre::TerrainPSSMMaterialGenerator::SM2Profile::setReceiveDynamicShadowsPSSM</text>
</a>
</g>
<!-- Node1&#45;&gt;Node5 -->
<g id="edge8" class="edge"><title>Node1&#45;&gt;Node5</title>
<path fill="none" stroke="midnightblue" d="M159.538,-80.4542C180.684,-77.1842 204.315,-73.727 226,-71 250.201,-67.9567 276.082,-65.097 300.964,-62.5442"/>
<polygon fill="midnightblue" stroke="midnightblue" points="301.59,-65.9988 311.185,-61.5068 300.883,-59.0345 301.59,-65.9988"/>
</g>
<!-- Node6 -->
<g id="node11" class="node"><title>Node6</title>
<a xlink:href="class_ogre_1_1_terrain_p_s_s_m_material_generator_1_1_s_m2_profile.html#a8c22548270433a277218f68d4fff0540" target="_top" xlink:title="Ogre::TerrainPSSMMaterialGenerator::SM2Profile::setLightmapEnabled">
<polygon fill="white" stroke="black" points="264,-0.5 264,-21.5 592,-21.5 592,-0.5 264,-0.5"/>
<text text-anchor="middle" x="428" y="-8.5" font-family="Helvetica,sans-Serif" font-size="10.00">Ogre::TerrainPSSMMaterialGenerator::SM2Profile::setLightmapEnabled</text>
</a>
</g>
<!-- Node1&#45;&gt;Node6 -->
<g id="edge10" class="edge"><title>Node1&#45;&gt;Node6</title>
<path fill="none" stroke="midnightblue" d="M112.932,-80.4509C137.519,-66.5422 183.5,-42.4924 226,-31 237.096,-27.9995 248.644,-25.4389 260.348,-23.2549"/>
<polygon fill="midnightblue" stroke="midnightblue" points="260.974,-26.6986 270.21,-21.5075 259.752,-19.806 260.974,-26.6986"/>
</g>
</g>
</svg>
        <g id="navigator" transform="translate(0 0)" fill="#404254">
                <rect fill="#f2f5e9" fill-opacity="0.5" stroke="#606060" stroke-width=".5" x="0" y="0" width="60" height="60"/>
                <use id="zoomplus" xlink:href="#zoomPlus" x="17" y="9" onmousedown="handleZoom(evt,'in')"/>
                <use id="zoomminus" xlink:href="#zoomMin" x="42" y="9" onmousedown="handleZoom(evt,'out')"/>
                <use id="reset" xlink:href="#resetDef" x="30" y="36" onmousedown="handleReset()"/>
                <g id="arrowUp" xlink:href="#dirArrow" transform="translate(30 24)" onmousedown="handlePan(0,-1)">
                  <use xlink:href="#rim" fill="#404040">
                        <set attributeName="fill" to="#808080" begin="arrowUp.mouseover" end="arrowUp.mouseout"/>
                  </use>
                  <path fill="none" stroke="white" stroke-width="1.5" d="M0,-3.0v7 M-2.5,-0.5L0,-3.0L2.5,-0.5"/>
                </g>
                <g id="arrowRight" xlink:href="#dirArrow" transform="rotate(90) translate(36 -43)" onmousedown="handlePan(1,0)">
                  <use xlink:href="#rim" fill="#404040">
                        <set attributeName="fill" to="#808080" begin="arrowRight.mouseover" end="arrowRight.mouseout"/>
                  </use>
                  <path fill="none" stroke="white" stroke-width="1.5" d="M0,-3.0v7 M-2.5,-0.5L0,-3.0L2.5,-0.5"/>
                </g>
                <g id="arrowDown" xlink:href="#dirArrow" transform="rotate(180) translate(-30 -48)" onmousedown="handlePan(0,1)">
                  <use xlink:href="#rim" fill="#404040">
                        <set attributeName="fill" to="#808080" begin="arrowDown.mouseover" end="arrowDown.mouseout"/>
                  </use>
                  <path fill="none" stroke="white" stroke-width="1.5" d="M0,-3.0v7 M-2.5,-0.5L0,-3.0L2.5,-0.5"/>
                </g>
                <g id="arrowLeft" xlink:href="#dirArrow" transform="rotate(270) translate(-36 17)" onmousedown="handlePan(-1,0)">
                  <use xlink:href="#rim" fill="#404040">
                        <set attributeName="fill" to="#808080" begin="arrowLeft.mouseover" end="arrowLeft.mouseout"/>
                  </use>
                  <path fill="none" stroke="white" stroke-width="1.5" d="M0,-3.0v7 M-2.5,-0.5L0,-3.0L2.5,-0.5"/>
                </g>
        </g>
</svg>
