<?xml version="1.0" encoding="UTF-8" standalone="no"?>
<!DOCTYPE svg PUBLIC "-//W3C//DTD SVG 1.1//EN"
 "http://www.w3.org/Graphics/SVG/1.1/DTD/svg11.dtd">
<!-- Generated by graphviz version 2.26.3 (20100126.1600)
 -->
<!-- Title: G Pages: 1 -->
<!--zoomable 150 -->
<svg id="main" version="1.1" xmlns="http://www.w3.org/2000/svg" xmlns:xlink="http://www.w3.org/1999/xlink" xml:space="preserve" onload="init(evt)">
        <defs>
                <circle id="rim" cx="0" cy="0" r="7"/>
                <circle id="rim2" cx="0" cy="0" r="3.5"/>
                <g id="zoomPlus">
                        <use xlink:href="#rim" fill="#404040">
                                <set attributeName="fill" to="#808080" begin="zoomplus.mouseover" end="zoomplus.mouseout"/>
                        </use>
                        <path d="M-4,0h8M0,-4v8" fill="none" stroke="white" stroke-width="1.5" pointer-events="none"/>
                </g>
                <g id="zoomMin">
                        <use xlink:href="#rim" fill="#404040">
                                <set attributeName="fill" to="#808080" begin="zoomminus.mouseover" end="zoomminus.mouseout"/>
                        </use>
                        <path d="M-4,0h8" fill="none" stroke="white" stroke-width="1.5" pointer-events="none"/>
                </g>
                <g id="dirArrow">
                        <path fill="none" stroke="white" stroke-width="1.5" d="M0,-3.0v7 M-2.5,-0.5L0,-3.0L2.5,-0.5"/>
                </g>
               <g id="resetDef">
                       <use xlink:href="#rim2" fill="#404040">
                               <set attributeName="fill" to="#808080" begin="reset.mouseover" end="reset.mouseout"/>
                       </use>
               </g>
        </defs>

<script type="text/javascript">
var viewWidth = 622;
var viewHeight = 150;
var sectionId = 'dynsection-11';
</script>
<script xlink:href="svgpan.js"/>
<svg id="graph" class="graph">
<g id="viewport">
<title>G</title>
<polygon fill="white" stroke="white" points="-4,5 -4,-146 619,-146 619,5 -4,5"/>
<!-- Node1 -->
<g id="node1" class="node"><title>Node1</title>
<polygon fill="#bfbfbf" stroke="black" points="0,-60.5 0,-81.5 212,-81.5 212,-60.5 0,-60.5"/>
<text text-anchor="middle" x="106" y="-68.5" font-family="Helvetica,sans-Serif" font-size="10.00">Hydrax::GodRaysManager::_updateProjector</text>
</g>
<!-- Node2 -->
<g id="node3" class="node"><title>Node2</title>
<a xlink:href="class_hydrax_1_1_hydrax.html#a6391180e70faf46ee681466620a85f4d" target="_top" xlink:title="Hydrax::Hydrax::getSunPosition">
<polygon fill="white" stroke="black" points="248,-120.5 248,-141.5 406,-141.5 406,-120.5 248,-120.5"/>
<text text-anchor="middle" x="327" y="-128.5" font-family="Helvetica,sans-Serif" font-size="10.00">Hydrax::Hydrax::getSunPosition</text>
</a>
</g>
<!-- Node1&#45;&gt;Node2 -->
<g id="edge2" class="edge"><title>Node1&#45;&gt;Node2</title>
<path fill="none" stroke="midnightblue" d="M142.408,-81.5437C171.05,-89.7689 211.999,-101.374 248,-111 256.54,-113.283 265.618,-115.644 274.462,-117.907"/>
<polygon fill="midnightblue" stroke="midnightblue" points="273.752,-121.338 284.307,-120.413 275.479,-114.554 273.752,-121.338"/>
</g>
<!-- Node3 -->
<g id="node5" class="node"><title>Node3</title>
<a xlink:href="class_hydrax_1_1_hydrax.html#aef185c906434b6dfb7c67a425d678287" target="_top" xlink:title="Hydrax::Hydrax::getCamera">
<polygon fill="white" stroke="black" points="257,-80.5 257,-101.5 397,-101.5 397,-80.5 257,-80.5"/>
<text text-anchor="middle" x="327" y="-88.5" font-family="Helvetica,sans-Serif" font-size="10.00">Hydrax::Hydrax::getCamera</text>
</a>
</g>
<!-- Node1&#45;&gt;Node3 -->
<g id="edge4" class="edge"><title>Node1&#45;&gt;Node3</title>
<path fill="none" stroke="midnightblue" d="M212.292,-80.6192C223.891,-81.6689 235.552,-82.7241 246.762,-83.7386"/>
<polygon fill="midnightblue" stroke="midnightblue" points="246.641,-87.2419 256.916,-84.6575 247.272,-80.2704 246.641,-87.2419"/>
</g>
<!-- Node4 -->
<g id="node7" class="node"><title>Node4</title>
<a xlink:href="class_hydrax_1_1_hydrax.html#a011da649ae072cce9c6db28620b67a42" target="_top" xlink:title="Hydrax::Hydrax::getPosition">
<polygon fill="white" stroke="black" points="257,-40.5 257,-61.5 397,-61.5 397,-40.5 257,-40.5"/>
<text text-anchor="middle" x="327" y="-48.5" font-family="Helvetica,sans-Serif" font-size="10.00">Hydrax::Hydrax::getPosition</text>
</a>
</g>
<!-- Node1&#45;&gt;Node4 -->
<g id="edge6" class="edge"><title>Node1&#45;&gt;Node4</title>
<path fill="none" stroke="midnightblue" d="M212.292,-61.3808C223.891,-60.3311 235.552,-59.2759 246.762,-58.2614"/>
<polygon fill="midnightblue" stroke="midnightblue" points="247.272,-61.7296 256.916,-57.3425 246.641,-54.7581 247.272,-61.7296"/>
</g>
<!-- Node5 -->
<g id="node9" class="node"><title>Node5</title>
<a xlink:href="class_hydrax_1_1_hydrax.html#abbfe63c58bc4f56ad625872b19b51a60" target="_top" xlink:title="Hydrax::Hydrax::getHeigth">
<polygon fill="white" stroke="black" points="260,-0.5 260,-21.5 394,-21.5 394,-0.5 260,-0.5"/>
<text text-anchor="middle" x="327" y="-8.5" font-family="Helvetica,sans-Serif" font-size="10.00">Hydrax::Hydrax::getHeigth</text>
</a>
</g>
<!-- Node1&#45;&gt;Node5 -->
<g id="edge8" class="edge"><title>Node1&#45;&gt;Node5</title>
<path fill="none" stroke="midnightblue" d="M142.408,-60.4563C171.05,-52.2311 211.999,-40.6259 248,-31 256.54,-28.7165 265.618,-26.3563 274.462,-24.0927"/>
<polygon fill="midnightblue" stroke="midnightblue" points="275.479,-27.4456 284.307,-21.5875 273.752,-20.6618 275.479,-27.4456"/>
</g>
<!-- Node6 -->
<g id="node11" class="node"><title>Node6</title>
<a xlink:href="class_hydrax_1_1_module_1_1_module.html#ac61f89589d3b1bc7256731ddb7af7d0b" target="_top" xlink:title="Hydrax::Module::Module::getHeigth">
<polygon fill="white" stroke="black" points="442.5,-0.5 442.5,-21.5 613.5,-21.5 613.5,-0.5 442.5,-0.5"/>
<text text-anchor="middle" x="528" y="-8.5" font-family="Helvetica,sans-Serif" font-size="10.00">Hydrax::Module::Module::getHeigth</text>
</a>
</g>
<!-- Node5&#45;&gt;Node6 -->
<g id="edge10" class="edge"><title>Node5&#45;&gt;Node6</title>
<path fill="none" stroke="midnightblue" d="M394.21,-11C406.367,-11 419.256,-11 432.048,-11"/>
<polygon fill="midnightblue" stroke="midnightblue" points="432.269,-14.5001 442.269,-11 432.269,-7.5001 432.269,-14.5001"/>
</g>
</g>
</svg>
        <g id="navigator" transform="translate(0 0)" fill="#404254">
                <rect fill="#f2f5e9" fill-opacity="0.5" stroke="#606060" stroke-width=".5" x="0" y="0" width="60" height="60"/>
                <use id="zoomplus" xlink:href="#zoomPlus" x="17" y="9" onmousedown="handleZoom(evt,'in')"/>
                <use id="zoomminus" xlink:href="#zoomMin" x="42" y="9" onmousedown="handleZoom(evt,'out')"/>
                <use id="reset" xlink:href="#resetDef" x="30" y="36" onmousedown="handleReset()"/>
                <g id="arrowUp" xlink:href="#dirArrow" transform="translate(30 24)" onmousedown="handlePan(0,-1)">
                  <use xlink:href="#rim" fill="#404040">
                        <set attributeName="fill" to="#808080" begin="arrowUp.mouseover" end="arrowUp.mouseout"/>
                  </use>
                  <path fill="none" stroke="white" stroke-width="1.5" d="M0,-3.0v7 M-2.5,-0.5L0,-3.0L2.5,-0.5"/>
                </g>
                <g id="arrowRight" xlink:href="#dirArrow" transform="rotate(90) translate(36 -43)" onmousedown="handlePan(1,0)">
                  <use xlink:href="#rim" fill="#404040">
                        <set attributeName="fill" to="#808080" begin="arrowRight.mouseover" end="arrowRight.mouseout"/>
                  </use>
                  <path fill="none" stroke="white" stroke-width="1.5" d="M0,-3.0v7 M-2.5,-0.5L0,-3.0L2.5,-0.5"/>
                </g>
                <g id="arrowDown" xlink:href="#dirArrow" transform="rotate(180) translate(-30 -48)" onmousedown="handlePan(0,1)">
                  <use xlink:href="#rim" fill="#404040">
                        <set attributeName="fill" to="#808080" begin="arrowDown.mouseover" end="arrowDown.mouseout"/>
                  </use>
                  <path fill="none" stroke="white" stroke-width="1.5" d="M0,-3.0v7 M-2.5,-0.5L0,-3.0L2.5,-0.5"/>
                </g>
                <g id="arrowLeft" xlink:href="#dirArrow" transform="rotate(270) translate(-36 17)" onmousedown="handlePan(-1,0)">
                  <use xlink:href="#rim" fill="#404040">
                        <set attributeName="fill" to="#808080" begin="arrowLeft.mouseover" end="arrowLeft.mouseout"/>
                  </use>
                  <path fill="none" stroke="white" stroke-width="1.5" d="M0,-3.0v7 M-2.5,-0.5L0,-3.0L2.5,-0.5"/>
                </g>
        </g>
</svg>
