<?xml version="1.0" encoding="UTF-8" standalone="no"?>
<!DOCTYPE svg PUBLIC "-//W3C//DTD SVG 1.1//EN"
 "http://www.w3.org/Graphics/SVG/1.1/DTD/svg11.dtd">
<!-- Generated by graphviz version 2.26.3 (20100126.1600)
 -->
<!-- Title: Water::Water Pages: 1 -->
<svg width="462pt" height="94pt"
 viewBox="0.00 0.00 462.00 94.00" xmlns="http://www.w3.org/2000/svg" xmlns:xlink="http://www.w3.org/1999/xlink">
<g id="graph1" class="graph" transform="scale(1 1) rotate(0) translate(4 90)">
<title>Water::Water</title>
<polygon fill="white" stroke="white" points="-4,5 -4,-90 459,-90 459,5 -4,5"/>
<!-- Node1 -->
<g id="node1" class="node"><title>Node1</title>
<polygon fill="#bfbfbf" stroke="black" points="0.5,-33.5 0.5,-54.5 75.5,-54.5 75.5,-33.5 0.5,-33.5"/>
<text text-anchor="middle" x="38" y="-41.5" font-family="Helvetica,sans-Serif" font-size="10.00">Water::Water</text>
</g>
<!-- Node2 -->
<g id="node3" class="node"><title>Node2</title>
<a xlink:href="class_terrain_manager.html#a41fdd66a57990a5fb33d253213fd04e3" target="_top" xlink:title="TerrainManager::getMaxTerrainSize">
<polygon fill="white" stroke="black" points="112,-55.5 112,-76.5 284,-76.5 284,-55.5 112,-55.5"/>
<text text-anchor="middle" x="198" y="-63.5" font-family="Helvetica,sans-Serif" font-size="10.00">TerrainManager::getMaxTerrainSize</text>
</a>
</g>
<!-- Node1&#45;&gt;Node2 -->
<g id="edge2" class="edge"><title>Node1&#45;&gt;Node2</title>
<path fill="none" stroke="midnightblue" d="M75.5129,-49.158C86.3723,-50.6512 98.7032,-52.3467 111.257,-54.0729"/>
<polygon fill="midnightblue" stroke="midnightblue" points="110.965,-57.5656 121.349,-55.4605 111.919,-50.6308 110.965,-57.5656"/>
</g>
<!-- Node4 -->
<g id="node7" class="node"><title>Node4</title>
<a xlink:href="class_water.html#a297717e4431c24ece1941d7824a55984" target="_top" xlink:title="Water::processWater">
<polygon fill="white" stroke="black" points="143,-12.5 143,-33.5 253,-33.5 253,-12.5 143,-12.5"/>
<text text-anchor="middle" x="198" y="-20.5" font-family="Helvetica,sans-Serif" font-size="10.00">Water::processWater</text>
</a>
</g>
<!-- Node1&#45;&gt;Node4 -->
<g id="edge6" class="edge"><title>Node1&#45;&gt;Node4</title>
<path fill="none" stroke="midnightblue" d="M75.5129,-39.0764C92.581,-36.8362 113.284,-34.119 132.775,-31.5608"/>
<polygon fill="midnightblue" stroke="midnightblue" points="133.372,-35.0126 142.831,-30.2409 132.461,-28.0721 133.372,-35.0126"/>
</g>
<!-- Node3 -->
<g id="node5" class="node"><title>Node3</title>
<a xlink:href="class_terrain_geometry_manager.html#afead68b5ff7a0b77395065ab8ea855e3" target="_top" xlink:title="TerrainGeometryManager\l::getMaxTerrainSize">
<polygon fill="white" stroke="black" points="323.5,-52 323.5,-86 450.5,-86 450.5,-52 323.5,-52"/>
<text text-anchor="start" x="331.5" y="-73" font-family="Helvetica,sans-Serif" font-size="10.00">TerrainGeometryManager</text>
<text text-anchor="middle" x="387" y="-60" font-family="Helvetica,sans-Serif" font-size="10.00">::getMaxTerrainSize</text>
</a>
</g>
<!-- Node2&#45;&gt;Node3 -->
<g id="edge4" class="edge"><title>Node2&#45;&gt;Node3</title>
<path fill="none" stroke="midnightblue" d="M284.204,-67.3683C293.856,-67.5215 303.624,-67.6766 313.102,-67.827"/>
<polygon fill="midnightblue" stroke="midnightblue" points="313.199,-71.3289 323.253,-67.9881 313.31,-64.3298 313.199,-71.3289"/>
</g>
<!-- Node5 -->
<g id="node9" class="node"><title>Node5</title>
<a xlink:href="class_ro_r_1_1_application.html#a5082701abd55926b3c6eb4b0c933eca5" target="_top" xlink:title="RoR::Application::GetOgre\lSubsystem">
<polygon fill="white" stroke="black" points="320,-0 320,-34 454,-34 454,-0 320,-0"/>
<text text-anchor="start" x="328" y="-21" font-family="Helvetica,sans-Serif" font-size="10.00">RoR::Application::GetOgre</text>
<text text-anchor="middle" x="387" y="-8" font-family="Helvetica,sans-Serif" font-size="10.00">Subsystem</text>
</a>
</g>
<!-- Node4&#45;&gt;Node5 -->
<g id="edge8" class="edge"><title>Node4&#45;&gt;Node5</title>
<path fill="none" stroke="midnightblue" d="M253.175,-21.2484C270.815,-20.6884 290.681,-20.0578 309.6,-19.4571"/>
<polygon fill="midnightblue" stroke="midnightblue" points="309.807,-22.9524 319.691,-19.1368 309.585,-15.956 309.807,-22.9524"/>
</g>
</g>
</svg>
