<?xml version="1.0" encoding="UTF-8" standalone="no"?>
<!DOCTYPE svg PUBLIC "-//W3C//DTD SVG 1.1//EN"
 "http://www.w3.org/Graphics/SVG/1.1/DTD/svg11.dtd">
<!-- Generated by graphviz version 2.26.3 (20100126.1600)
 -->
<!-- Title: CharacterFactory Pages: 1 -->
<svg width="268pt" height="176pt"
 viewBox="0.00 0.00 268.00 176.00" xmlns="http://www.w3.org/2000/svg" xmlns:xlink="http://www.w3.org/1999/xlink">
<g id="graph1" class="graph" transform="scale(1 1) rotate(0) translate(4 172)">
<title>CharacterFactory</title>
<polygon fill="white" stroke="white" points="-4,5 -4,-172 265,-172 265,5 -4,5"/>
<!-- Node1 -->
<g id="node1" class="node"><title>Node1</title>
<polygon fill="#bfbfbf" stroke="black" points="154,-86.5 154,-107.5 246,-107.5 246,-86.5 154,-86.5"/>
<text text-anchor="middle" x="200" y="-94.5" font-family="Helvetica,sans-Serif" font-size="10.00">CharacterFactory</text>
</g>
<!-- Node2 -->
<g id="node2" class="node"><title>Node2</title>
<a xlink:href="class_streamable_factory.html" target="_top" xlink:title="StreamableFactory\&lt;\l CharacterFactory, Character \&gt;">
<polygon fill="white" stroke="black" points="62.5,-1 62.5,-35 215.5,-35 215.5,-1 62.5,-1"/>
<text text-anchor="start" x="70.5" y="-22" font-family="Helvetica,sans-Serif" font-size="10.00">StreamableFactory&lt;</text>
<text text-anchor="middle" x="139" y="-9" font-family="Helvetica,sans-Serif" font-size="10.00"> CharacterFactory, Character &gt;</text>
</a>
</g>
<!-- Node1&#45;&gt;Node2 -->
<g id="edge6" class="edge"><title>Node1&#45;&gt;Node2</title>
<path fill="none" stroke="#9a32cd" stroke-dasharray="5,2" d="M149.55,-81.3623C144.209,-77.777 139.47,-73.3825 136,-68 129.78,-58.3525 130.772,-45.3605 133.192,-35.038"/>
<polygon fill="#9a32cd" stroke="#9a32cd" points="147.918,-84.4608 158.342,-86.3561 151.375,-78.374 147.918,-84.4608"/>
<text text-anchor="middle" x="159" y="-58.5" font-family="Helvetica,sans-Serif" font-size="10.00"> _instance</text>
</g>
<!-- Node2&#45;&gt;Node1 -->
<g id="edge2" class="edge"><title>Node2&#45;&gt;Node1</title>
<path fill="none" stroke="midnightblue" d="M175.277,-42.0116C179.257,-45.6894 182.96,-49.7057 186,-54 192.894,-63.7404 196.537,-77.0732 198.359,-86.2986"/>
<polygon fill="midnightblue" stroke="midnightblue" points="177.29,-39.1313 167.385,-35.3722 172.784,-44.488 177.29,-39.1313"/>
</g>
<!-- Node3 -->
<g id="node4" class="node"><title>Node3</title>
<a xlink:href="class_streamable_factory_interface.html" target="_top" xlink:title="StreamableFactoryInterface">
<polygon fill="white" stroke="black" points="-0.5,-86.5 -0.5,-107.5 136.5,-107.5 136.5,-86.5 -0.5,-86.5"/>
<text text-anchor="middle" x="68" y="-94.5" font-family="Helvetica,sans-Serif" font-size="10.00">StreamableFactoryInterface</text>
</a>
</g>
<!-- Node3&#45;&gt;Node2 -->
<g id="edge4" class="edge"><title>Node3&#45;&gt;Node2</title>
<path fill="none" stroke="midnightblue" d="M84.3363,-78.823C96.1538,-65.674 112.017,-48.0232 123.61,-35.1236"/>
<polygon fill="midnightblue" stroke="midnightblue" points="81.6567,-76.5685 77.5754,-86.3457 86.863,-81.2476 81.6567,-76.5685"/>
</g>
<!-- Node4 -->
<g id="node7" class="node"><title>Node4</title>
<a xlink:href="class_zeroed_memory_allocator.html" target="_top" xlink:title="ZeroedMemoryAllocator">
<polygon fill="white" stroke="black" points="140,-146.5 140,-167.5 260,-167.5 260,-146.5 140,-146.5"/>
<text text-anchor="middle" x="200" y="-154.5" font-family="Helvetica,sans-Serif" font-size="10.00">ZeroedMemoryAllocator</text>
</a>
</g>
<!-- Node4&#45;&gt;Node1 -->
<g id="edge8" class="edge"><title>Node4&#45;&gt;Node1</title>
<path fill="none" stroke="midnightblue" d="M200,-136.231C200,-126.592 200,-115.544 200,-107.634"/>
<polygon fill="midnightblue" stroke="midnightblue" points="196.5,-136.273 200,-146.273 203.5,-136.273 196.5,-136.273"/>
</g>
</g>
</svg>
