<?xml version="1.0" encoding="UTF-8" standalone="no"?>
<!DOCTYPE svg PUBLIC "-//W3C//DTD SVG 1.1//EN"
 "http://www.w3.org/Graphics/SVG/1.1/DTD/svg11.dtd">
<!-- Generated by graphviz version 2.26.3 (20100126.1600)
 -->
<!-- Title: Collisions::addCollisionBox Pages: 1 -->
<svg width="1724pt" height="96pt"
 viewBox="0.00 0.00 1724.00 96.00" xmlns="http://www.w3.org/2000/svg" xmlns:xlink="http://www.w3.org/1999/xlink">
<g id="graph1" class="graph" transform="scale(1 1) rotate(0) translate(4 92)">
<title>Collisions::addCollisionBox</title>
<polygon fill="white" stroke="white" points="-4,5 -4,-92 1721,-92 1721,5 -4,5"/>
<!-- Node1 -->
<g id="node1" class="node"><title>Node1</title>
<polygon fill="#bfbfbf" stroke="black" points="0,-43.5 0,-64.5 136,-64.5 136,-43.5 0,-43.5"/>
<text text-anchor="middle" x="68" y="-51.5" font-family="Helvetica,sans-Serif" font-size="10.00">Collisions::addCollisionBox</text>
</g>
<!-- Node2 -->
<g id="node3" class="node"><title>Node2</title>
<a xlink:href="class_terrain_object_manager.html#a62a108ad201e16585ab3115befedae60" target="_top" xlink:title="TerrainObjectManager\l::loadObject">
<polygon fill="white" stroke="black" points="172.5,-37 172.5,-71 285.5,-71 285.5,-37 172.5,-37"/>
<text text-anchor="start" x="180.5" y="-58" font-family="Helvetica,sans-Serif" font-size="10.00">TerrainObjectManager</text>
<text text-anchor="middle" x="229" y="-45" font-family="Helvetica,sans-Serif" font-size="10.00">::loadObject</text>
</a>
</g>
<!-- Node1&#45;&gt;Node2 -->
<g id="edge2" class="edge"><title>Node1&#45;&gt;Node2</title>
<path fill="none" stroke="midnightblue" d="M146.466,-54C155.177,-54 163.92,-54 172.287,-54"/>
<polygon fill="midnightblue" stroke="midnightblue" points="146.279,-50.5001 136.278,-54 146.278,-57.5001 146.279,-50.5001"/>
</g>
<!-- Node3 -->
<g id="node5" class="node"><title>Node3</title>
<a xlink:href="class_game_script.html#adc155d46516906fb9bfddde649c02ee6" target="_top" xlink:title="GameScript::spawnObject">
<polygon fill="white" stroke="black" points="322.5,-66.5 322.5,-87.5 453.5,-87.5 453.5,-66.5 322.5,-66.5"/>
<text text-anchor="middle" x="388" y="-74.5" font-family="Helvetica,sans-Serif" font-size="10.00">GameScript::spawnObject</text>
</a>
</g>
<!-- Node2&#45;&gt;Node3 -->
<g id="edge4" class="edge"><title>Node2&#45;&gt;Node3</title>
<path fill="none" stroke="midnightblue" d="M295.462,-63.614C304.388,-64.9052 313.54,-66.229 322.45,-67.5179"/>
<polygon fill="midnightblue" stroke="midnightblue" points="295.903,-60.1415 285.505,-62.1737 294.901,-67.0694 295.903,-60.1415"/>
</g>
<!-- Node4 -->
<g id="node7" class="node"><title>Node4</title>
<a xlink:href="class_terrain_object_manager.html#a45ccbf51f9c0ecac68927fed5e52eaa4" target="_top" xlink:title="TerrainObjectManager\l::loadObjectConfigFile">
<polygon fill="white" stroke="black" points="331.5,-14 331.5,-48 444.5,-48 444.5,-14 331.5,-14"/>
<text text-anchor="start" x="339.5" y="-35" font-family="Helvetica,sans-Serif" font-size="10.00">TerrainObjectManager</text>
<text text-anchor="middle" x="388" y="-22" font-family="Helvetica,sans-Serif" font-size="10.00">::loadObjectConfigFile</text>
</a>
</g>
<!-- Node2&#45;&gt;Node4 -->
<g id="edge6" class="edge"><title>Node2&#45;&gt;Node4</title>
<path fill="none" stroke="midnightblue" d="M295.432,-44.3903C307.393,-42.6601 319.76,-40.8712 331.409,-39.1861"/>
<polygon fill="midnightblue" stroke="midnightblue" points="294.901,-40.9306 285.505,-45.8263 295.903,-47.8585 294.901,-40.9306"/>
</g>
<!-- Node5 -->
<g id="node9" class="node"><title>Node5</title>
<a xlink:href="class_terrain_manager.html#a4ad87b973cb6af52daaf530a5feff167" target="_top" xlink:title="TerrainManager::loadTerrain\lObjects">
<polygon fill="white" stroke="black" points="490,-14 490,-48 628,-48 628,-14 490,-14"/>
<text text-anchor="start" x="498" y="-35" font-family="Helvetica,sans-Serif" font-size="10.00">TerrainManager::loadTerrain</text>
<text text-anchor="middle" x="559" y="-22" font-family="Helvetica,sans-Serif" font-size="10.00">Objects</text>
</a>
</g>
<!-- Node4&#45;&gt;Node5 -->
<g id="edge8" class="edge"><title>Node4&#45;&gt;Node5</title>
<path fill="none" stroke="midnightblue" d="M455.227,-31C466.593,-31 478.411,-31 489.825,-31"/>
<polygon fill="midnightblue" stroke="midnightblue" points="454.941,-27.5001 444.941,-31 454.94,-34.5001 454.941,-27.5001"/>
</g>
<!-- Node6 -->
<g id="node11" class="node"><title>Node6</title>
<a xlink:href="class_terrain_manager.html#a9a04c837bf2ea6528c465b27ca62f730" target="_top" xlink:title="TerrainManager::loadTerrain">
<polygon fill="white" stroke="black" points="664,-20.5 664,-41.5 802,-41.5 802,-20.5 664,-20.5"/>
<text text-anchor="middle" x="733" y="-28.5" font-family="Helvetica,sans-Serif" font-size="10.00">TerrainManager::loadTerrain</text>
</a>
</g>
<!-- Node5&#45;&gt;Node6 -->
<g id="edge10" class="edge"><title>Node5&#45;&gt;Node6</title>
<path fill="none" stroke="midnightblue" d="M638.035,-31C646.625,-31 655.319,-31 663.779,-31"/>
<polygon fill="midnightblue" stroke="midnightblue" points="638.019,-27.5001 628.019,-31 638.019,-34.5001 638.019,-27.5001"/>
</g>
<!-- Node7 -->
<g id="node13" class="node"><title>Node7</title>
<a xlink:href="class_ro_r_1_1_main_thread.html#a60603be78a54ae5a24ca1c00509aca1f" target="_top" xlink:title="RoR::MainThread::LoadTerrain">
<polygon fill="white" stroke="black" points="838.5,-20.5 838.5,-41.5 989.5,-41.5 989.5,-20.5 838.5,-20.5"/>
<text text-anchor="middle" x="914" y="-28.5" font-family="Helvetica,sans-Serif" font-size="10.00">RoR::MainThread::LoadTerrain</text>
</a>
</g>
<!-- Node6&#45;&gt;Node7 -->
<g id="edge12" class="edge"><title>Node6&#45;&gt;Node7</title>
<path fill="none" stroke="midnightblue" d="M812.241,-31C820.863,-31 829.623,-31 838.201,-31"/>
<polygon fill="midnightblue" stroke="midnightblue" points="812.203,-27.5001 802.203,-31 812.203,-34.5001 812.203,-27.5001"/>
</g>
<!-- Node8 -->
<g id="node15" class="node"><title>Node8</title>
<a xlink:href="class_ro_r_1_1_main_thread.html#aa3feeebda7f3f4c31a6cb96ea60c09e0" target="_top" xlink:title="RoR::MainThread::SetupGameplayLoop">
<polygon fill="white" stroke="black" points="1026.5,-40.5 1026.5,-61.5 1217.5,-61.5 1217.5,-40.5 1026.5,-40.5"/>
<text text-anchor="middle" x="1122" y="-48.5" font-family="Helvetica,sans-Serif" font-size="10.00">RoR::MainThread::SetupGameplayLoop</text>
</a>
</g>
<!-- Node7&#45;&gt;Node8 -->
<g id="edge14" class="edge"><title>Node7&#45;&gt;Node8</title>
<path fill="none" stroke="midnightblue" d="M999.889,-39.2585C1008.67,-40.1026 1017.62,-40.9637 1026.5,-41.8169"/>
<polygon fill="midnightblue" stroke="midnightblue" points="999.97,-35.7503 989.681,-38.277 999.3,-42.7182 999.97,-35.7503"/>
</g>
<!-- Node14 -->
<g id="node27" class="node"><title>Node14</title>
<a xlink:href="class_game_script.html#ac1cba3fc83facbad8281ff80d4ab0f0b" target="_top" xlink:title="GameScript::loadTerrain">
<polygon fill="white" stroke="black" points="1061,-0.5 1061,-21.5 1183,-21.5 1183,-0.5 1061,-0.5"/>
<text text-anchor="middle" x="1122" y="-8.5" font-family="Helvetica,sans-Serif" font-size="10.00">GameScript::loadTerrain</text>
</a>
</g>
<!-- Node7&#45;&gt;Node14 -->
<g id="edge26" class="edge"><title>Node7&#45;&gt;Node14</title>
<path fill="none" stroke="midnightblue" d="M999.639,-22.7655C1020.11,-20.7969 1041.57,-18.734 1060.69,-16.8951"/>
<polygon fill="midnightblue" stroke="midnightblue" points="999.3,-19.2818 989.681,-23.723 999.97,-26.2497 999.3,-19.2818"/>
</g>
<!-- Node9 -->
<g id="node17" class="node"><title>Node9</title>
<a xlink:href="class_ro_r_1_1_main_thread.html#a7e4d0bd23a40e509892883af75ea0dbf" target="_top" xlink:title="RoR::MainThread::Go">
<polygon fill="white" stroke="black" points="1254.5,-40.5 1254.5,-61.5 1367.5,-61.5 1367.5,-40.5 1254.5,-40.5"/>
<text text-anchor="middle" x="1311" y="-48.5" font-family="Helvetica,sans-Serif" font-size="10.00">RoR::MainThread::Go</text>
</a>
</g>
<!-- Node8&#45;&gt;Node9 -->
<g id="edge16" class="edge"><title>Node8&#45;&gt;Node9</title>
<path fill="none" stroke="midnightblue" d="M1227.87,-51C1236.93,-51 1245.84,-51 1254.28,-51"/>
<polygon fill="midnightblue" stroke="midnightblue" points="1227.61,-47.5001 1217.61,-51 1227.61,-54.5001 1227.61,-47.5001"/>
</g>
<!-- Node10 -->
<g id="node19" class="node"><title>Node10</title>
<a xlink:href="main_2main__sim_2main_8cpp.html#a0ddf1224851353fc92bfbff6f499fa97" target="_top" xlink:title="main">
<polygon fill="white" stroke="black" points="1454,-63.5 1454,-84.5 1492,-84.5 1492,-63.5 1454,-63.5"/>
<text text-anchor="middle" x="1473" y="-71.5" font-family="Helvetica,sans-Serif" font-size="10.00">main</text>
</a>
</g>
<!-- Node9&#45;&gt;Node10 -->
<g id="edge18" class="edge"><title>Node9&#45;&gt;Node10</title>
<path fill="none" stroke="midnightblue" d="M1377.69,-60.4687C1405.27,-64.3843 1435.14,-68.6243 1453.95,-71.2947"/>
<polygon fill="midnightblue" stroke="midnightblue" points="1378.05,-56.9848 1367.66,-59.0443 1377.07,-63.9153 1378.05,-56.9848"/>
</g>
<!-- Node12 -->
<g id="node23" class="node"><title>Node12</title>
<a xlink:href="class_ro_r_1_1_main_thread.html#a7a2db954fd2f35d63982d8603d2b9614" target="_top" xlink:title="RoR::MainThread::Request\lRestart">
<polygon fill="white" stroke="black" points="1404.5,-11 1404.5,-45 1541.5,-45 1541.5,-11 1404.5,-11"/>
<text text-anchor="start" x="1412.5" y="-32" font-family="Helvetica,sans-Serif" font-size="10.00">RoR::MainThread::Request</text>
<text text-anchor="middle" x="1473" y="-19" font-family="Helvetica,sans-Serif" font-size="10.00">Restart</text>
</a>
</g>
<!-- Node9&#45;&gt;Node12 -->
<g id="edge22" class="edge"><title>Node9&#45;&gt;Node12</title>
<path fill="none" stroke="midnightblue" d="M1377.82,-41.5126C1386.59,-40.2674 1395.59,-38.9898 1404.39,-37.7405"/>
<polygon fill="midnightblue" stroke="midnightblue" points="1377.07,-38.0847 1367.66,-42.9557 1378.05,-45.0152 1377.07,-38.0847"/>
</g>
<!-- Node11 -->
<g id="node21" class="node"><title>Node11</title>
<a xlink:href="main_2main__sim_2main_8cpp.html#a2922bc5d5c2d77a3020cfbf9df12aab0" target="_top" xlink:title="WinMain">
<polygon fill="white" stroke="black" points="1619.5,-63.5 1619.5,-84.5 1674.5,-84.5 1674.5,-63.5 1619.5,-63.5"/>
<text text-anchor="middle" x="1647" y="-71.5" font-family="Helvetica,sans-Serif" font-size="10.00">WinMain</text>
</a>
</g>
<!-- Node10&#45;&gt;Node11 -->
<g id="edge20" class="edge"><title>Node10&#45;&gt;Node11</title>
<path fill="none" stroke="midnightblue" d="M1502.56,-74C1535.23,-74 1587.44,-74 1619.33,-74"/>
<polygon fill="midnightblue" stroke="midnightblue" points="1502.29,-70.5001 1492.29,-74 1502.29,-77.5001 1502.29,-70.5001"/>
</g>
<!-- Node13 -->
<g id="node25" class="node"><title>Node13</title>
<a xlink:href="class_ro_r_frame_listener.html#af2779b96aa0f91920bd100bc30261402" target="_top" xlink:title="RoRFrameListener::Restart">
<polygon fill="white" stroke="black" points="1578.5,-17.5 1578.5,-38.5 1715.5,-38.5 1715.5,-17.5 1578.5,-17.5"/>
<text text-anchor="middle" x="1647" y="-25.5" font-family="Helvetica,sans-Serif" font-size="10.00">RoRFrameListener::Restart</text>
</a>
</g>
<!-- Node12&#45;&gt;Node13 -->
<g id="edge24" class="edge"><title>Node12&#45;&gt;Node13</title>
<path fill="none" stroke="midnightblue" d="M1552.04,-28C1560.86,-28 1569.78,-28 1578.45,-28"/>
<polygon fill="midnightblue" stroke="midnightblue" points="1551.77,-24.5001 1541.77,-28 1551.77,-31.5001 1551.77,-24.5001"/>
</g>
</g>
</svg>
