<?xml version="1.0" encoding="UTF-8" standalone="no"?>
<!DOCTYPE svg PUBLIC "-//W3C//DTD SVG 1.1//EN"
 "http://www.w3.org/Graphics/SVG/1.1/DTD/svg11.dtd">
<!-- Generated by graphviz version 2.26.3 (20100126.1600)
 -->
<!-- Title: LocalStorage::getBool Pages: 1 -->
<svg width="286pt" height="82pt"
 viewBox="0.00 0.00 286.00 82.00" xmlns="http://www.w3.org/2000/svg" xmlns:xlink="http://www.w3.org/1999/xlink">
<g id="graph1" class="graph" transform="scale(1 1) rotate(0) translate(4 78)">
<title>LocalStorage::getBool</title>
<polygon fill="white" stroke="white" points="-4,5 -4,-78 283,-78 283,5 -4,5"/>
<!-- Node1 -->
<g id="node1" class="node"><title>Node1</title>
<polygon fill="#bfbfbf" stroke="black" points="0.5,-29.5 0.5,-50.5 113.5,-50.5 113.5,-29.5 0.5,-29.5"/>
<text text-anchor="middle" x="57" y="-37.5" font-family="Helvetica,sans-Serif" font-size="10.00">LocalStorage::getBool</text>
</g>
<!-- Node2 -->
<g id="node3" class="node"><title>Node2</title>
<a xlink:href="class_local_storage.html#aa18cb1ed34366948bbdd4d01775121a5" target="_top" xlink:title="LocalStorage::parseKey">
<polygon fill="white" stroke="black" points="153.5,-52.5 153.5,-73.5 274.5,-73.5 274.5,-52.5 153.5,-52.5"/>
<text text-anchor="middle" x="214" y="-60.5" font-family="Helvetica,sans-Serif" font-size="10.00">LocalStorage::parseKey</text>
</a>
</g>
<!-- Node1&#45;&gt;Node2 -->
<g id="edge2" class="edge"><title>Node1&#45;&gt;Node2</title>
<path fill="none" stroke="midnightblue" d="M113.681,-48.3035C123.364,-49.7222 133.529,-51.2113 143.519,-52.6747"/>
<polygon fill="midnightblue" stroke="midnightblue" points="143.024,-56.1396 153.426,-54.1261 144.039,-49.2135 143.024,-56.1396"/>
</g>
<!-- Node3 -->
<g id="node5" class="node"><title>Node3</title>
<a xlink:href="class_ogre_1_1_improved_config_file.html#a363a3f31b43d883a6096ded72c7a3656" target="_top" xlink:title="Ogre::ImprovedConfigFile\l::getSettingBool">
<polygon fill="white" stroke="black" points="150,-0 150,-34 278,-34 278,-0 150,-0"/>
<text text-anchor="start" x="158" y="-21" font-family="Helvetica,sans-Serif" font-size="10.00">Ogre::ImprovedConfigFile</text>
<text text-anchor="middle" x="214" y="-8" font-family="Helvetica,sans-Serif" font-size="10.00">::getSettingBool</text>
</a>
</g>
<!-- Node1&#45;&gt;Node3 -->
<g id="edge4" class="edge"><title>Node1&#45;&gt;Node3</title>
<path fill="none" stroke="midnightblue" d="M113.681,-31.6965C122.232,-30.4437 131.159,-29.136 140.009,-27.8395"/>
<polygon fill="midnightblue" stroke="midnightblue" points="140.557,-31.2966 149.944,-26.384 139.542,-24.3706 140.557,-31.2966"/>
</g>
</g>
</svg>
