<?xml version="1.0" encoding="UTF-8" standalone="no"?>
<!DOCTYPE svg PUBLIC "-//W3C//DTD SVG 1.1//EN"
 "http://www.w3.org/Graphics/SVG/1.1/DTD/svg11.dtd">
<!-- Generated by graphviz version 2.26.3 (20100126.1600)
 -->
<!-- Title: Hydrax::Noise::Noise::getValue Pages: 1 -->
<svg width="466pt" height="332pt"
 viewBox="0.00 0.00 466.00 332.39" xmlns="http://www.w3.org/2000/svg" xmlns:xlink="http://www.w3.org/1999/xlink">
<g id="graph1" class="graph" transform="scale(1 1) rotate(0) translate(4 328.394)">
<title>Hydrax::Noise::Noise::getValue</title>
<polygon fill="white" stroke="white" points="-4,5 -4,-328.394 463,-328.394 463,5 -4,5"/>
<!-- Node1 -->
<g id="node1" class="node"><title>Node1</title>
<polygon fill="#bfbfbf" stroke="black" points="0.5,-156 0.5,-190 111.5,-190 111.5,-156 0.5,-156"/>
<text text-anchor="start" x="8.5" y="-177" font-family="Helvetica,sans-Serif" font-size="10.00">Hydrax::Noise::Noise</text>
<text text-anchor="middle" x="56" y="-164" font-family="Helvetica,sans-Serif" font-size="10.00">::getValue</text>
</g>
<!-- Node2 -->
<g id="node3" class="node"><title>Node2</title>
<a xlink:href="class_hydrax_1_1_module_1_1_projected_grid.html#a8d7a8efcd6b7fd0e4313c9114bd2c061" target="_top" xlink:title="Hydrax::Module::Projected\lGrid::update">
<polygon fill="white" stroke="black" points="324.5,-282 324.5,-316 457.5,-316 457.5,-282 324.5,-282"/>
<text text-anchor="start" x="332.5" y="-303" font-family="Helvetica,sans-Serif" font-size="10.00">Hydrax::Module::Projected</text>
<text text-anchor="middle" x="391" y="-290" font-family="Helvetica,sans-Serif" font-size="10.00">Grid::update</text>
</a>
</g>
<!-- Node1&#45;&gt;Node2 -->
<g id="edge2" class="edge"><title>Node1&#45;&gt;Node2</title>
<path fill="none" stroke="midnightblue" d="M65.9104,-199.544C79.2095,-230.839 106.119,-281.331 148,-303 203.181,-331.55 275.279,-325.933 326.576,-316.009"/>
<polygon fill="midnightblue" stroke="midnightblue" points="69.0844,-198.058 62.0691,-190.118 62.6021,-200.7 69.0844,-198.058"/>
</g>
<!-- Node3 -->
<g id="node5" class="node"><title>Node3</title>
<a xlink:href="class_hydrax_1_1_module_1_1_projected_grid.html#af39d939aed099aa3b91010a4ed824dbf" target="_top" xlink:title="Hydrax::Module::Projected\lGrid::_renderGeometry">
<polygon fill="white" stroke="black" points="151.5,-260 151.5,-294 284.5,-294 284.5,-260 151.5,-260"/>
<text text-anchor="start" x="159.5" y="-281" font-family="Helvetica,sans-Serif" font-size="10.00">Hydrax::Module::Projected</text>
<text text-anchor="middle" x="218" y="-268" font-family="Helvetica,sans-Serif" font-size="10.00">Grid::_renderGeometry</text>
</a>
</g>
<!-- Node1&#45;&gt;Node3 -->
<g id="edge4" class="edge"><title>Node1&#45;&gt;Node3</title>
<path fill="none" stroke="midnightblue" d="M80.1091,-197.55C97.6924,-214.374 122.767,-236.235 148,-251 153.595,-254.274 159.674,-257.26 165.836,-259.947"/>
<polygon fill="midnightblue" stroke="midnightblue" points="82.1887,-194.69 72.5838,-190.218 77.3037,-199.703 82.1887,-194.69"/>
</g>
<!-- Node4 -->
<g id="node8" class="node"><title>Node4</title>
<a xlink:href="class_hydrax_1_1_module_1_1_projected_grid.html#aa7a5b8100642a55f23b4d1c0a125bd62" target="_top" xlink:title="Hydrax::Module::Projected\lGrid::getHeigth">
<polygon fill="white" stroke="black" points="151.5,-208 151.5,-242 284.5,-242 284.5,-208 151.5,-208"/>
<text text-anchor="start" x="159.5" y="-229" font-family="Helvetica,sans-Serif" font-size="10.00">Hydrax::Module::Projected</text>
<text text-anchor="middle" x="218" y="-216" font-family="Helvetica,sans-Serif" font-size="10.00">Grid::getHeigth</text>
</a>
</g>
<!-- Node1&#45;&gt;Node4 -->
<g id="edge8" class="edge"><title>Node1&#45;&gt;Node4</title>
<path fill="none" stroke="midnightblue" d="M118.872,-193.181C134.06,-198.056 150.143,-203.219 164.836,-207.935"/>
<polygon fill="midnightblue" stroke="midnightblue" points="119.636,-189.751 109.045,-190.027 117.497,-196.416 119.636,-189.751"/>
</g>
<!-- Node5 -->
<g id="node10" class="node"><title>Node5</title>
<a xlink:href="class_hydrax_1_1_module_1_1_radial_grid.html#aee5199bfbee4429ab428d477e36443dd" target="_top" xlink:title="Hydrax::Module::RadialGrid\l::update">
<polygon fill="white" stroke="black" points="149.5,-156 149.5,-190 286.5,-190 286.5,-156 149.5,-156"/>
<text text-anchor="start" x="157.5" y="-177" font-family="Helvetica,sans-Serif" font-size="10.00">Hydrax::Module::RadialGrid</text>
<text text-anchor="middle" x="218" y="-164" font-family="Helvetica,sans-Serif" font-size="10.00">::update</text>
</a>
</g>
<!-- Node1&#45;&gt;Node5 -->
<g id="edge10" class="edge"><title>Node1&#45;&gt;Node5</title>
<path fill="none" stroke="midnightblue" d="M121.823,-173C130.865,-173 140.168,-173 149.261,-173"/>
<polygon fill="midnightblue" stroke="midnightblue" points="121.751,-169.5 111.751,-173 121.751,-176.5 121.751,-169.5"/>
</g>
<!-- Node6 -->
<g id="node12" class="node"><title>Node6</title>
<a xlink:href="class_hydrax_1_1_module_1_1_radial_grid.html#a0289caac51efbaf6a085bbb94eb22c4c" target="_top" xlink:title="Hydrax::Module::RadialGrid\l::getHeigth">
<polygon fill="white" stroke="black" points="149.5,-104 149.5,-138 286.5,-138 286.5,-104 149.5,-104"/>
<text text-anchor="start" x="157.5" y="-125" font-family="Helvetica,sans-Serif" font-size="10.00">Hydrax::Module::RadialGrid</text>
<text text-anchor="middle" x="218" y="-112" font-family="Helvetica,sans-Serif" font-size="10.00">::getHeigth</text>
</a>
</g>
<!-- Node1&#45;&gt;Node6 -->
<g id="edge12" class="edge"><title>Node1&#45;&gt;Node6</title>
<path fill="none" stroke="midnightblue" d="M118.872,-152.819C134.06,-147.944 150.143,-142.781 164.836,-138.065"/>
<polygon fill="midnightblue" stroke="midnightblue" points="117.497,-149.584 109.045,-155.973 119.636,-156.249 117.497,-149.584"/>
</g>
<!-- Node7 -->
<g id="node14" class="node"><title>Node7</title>
<a xlink:href="class_hydrax_1_1_module_1_1_simple_grid.html#aaa120d4f487785136a3134cc8980fb16" target="_top" xlink:title="Hydrax::Module::SimpleGrid\l::update">
<polygon fill="white" stroke="black" points="148,-52 148,-86 288,-86 288,-52 148,-52"/>
<text text-anchor="start" x="156" y="-73" font-family="Helvetica,sans-Serif" font-size="10.00">Hydrax::Module::SimpleGrid</text>
<text text-anchor="middle" x="218" y="-60" font-family="Helvetica,sans-Serif" font-size="10.00">::update</text>
</a>
</g>
<!-- Node1&#45;&gt;Node7 -->
<g id="edge14" class="edge"><title>Node1&#45;&gt;Node7</title>
<path fill="none" stroke="midnightblue" d="M80.1091,-148.45C97.6924,-131.626 122.767,-109.765 148,-95 153.595,-91.7263 159.674,-88.7396 165.836,-86.0526"/>
<polygon fill="midnightblue" stroke="midnightblue" points="77.3037,-146.297 72.5838,-155.782 82.1887,-151.31 77.3037,-146.297"/>
</g>
<!-- Node8 -->
<g id="node16" class="node"><title>Node8</title>
<a xlink:href="class_hydrax_1_1_module_1_1_simple_grid.html#a9a9e5bba632f0317c82370fa433559ac" target="_top" xlink:title="Hydrax::Module::SimpleGrid\l::getHeigth">
<polygon fill="white" stroke="black" points="148,-0 148,-34 288,-34 288,-0 148,-0"/>
<text text-anchor="start" x="156" y="-21" font-family="Helvetica,sans-Serif" font-size="10.00">Hydrax::Module::SimpleGrid</text>
<text text-anchor="middle" x="218" y="-8" font-family="Helvetica,sans-Serif" font-size="10.00">::getHeigth</text>
</a>
</g>
<!-- Node1&#45;&gt;Node8 -->
<g id="edge16" class="edge"><title>Node1&#45;&gt;Node8</title>
<path fill="none" stroke="midnightblue" d="M68.5663,-146.577C83.658,-117.445 111.562,-71.005 148,-43 152.317,-39.682 157.102,-36.7529 162.085,-34.1743"/>
<polygon fill="midnightblue" stroke="midnightblue" points="65.3227,-145.236 63.9457,-155.741 71.5731,-148.388 65.3227,-145.236"/>
</g>
<!-- Node3&#45;&gt;Node2 -->
<g id="edge6" class="edge"><title>Node3&#45;&gt;Node2</title>
<path fill="none" stroke="midnightblue" d="M294.99,-286.791C304.762,-288.033 314.698,-289.297 324.292,-290.517"/>
<polygon fill="midnightblue" stroke="midnightblue" points="295.248,-283.295 284.886,-285.506 294.365,-290.239 295.248,-283.295"/>
</g>
</g>
</svg>
