<?xml version="1.0" encoding="UTF-8" standalone="no"?>
<!DOCTYPE svg PUBLIC "-//W3C//DTD SVG 1.1//EN"
 "http://www.w3.org/Graphics/SVG/1.1/DTD/svg11.dtd">
<!-- Generated by graphviz version 2.26.3 (20100126.1600)
 -->
<!-- Title: G Pages: 1 -->
<!--zoomable 450 -->
<svg id="main" version="1.1" xmlns="http://www.w3.org/2000/svg" xmlns:xlink="http://www.w3.org/1999/xlink" xml:space="preserve" onload="init(evt)">
        <defs>
                <circle id="rim" cx="0" cy="0" r="7"/>
                <circle id="rim2" cx="0" cy="0" r="3.5"/>
                <g id="zoomPlus">
                        <use xlink:href="#rim" fill="#404040">
                                <set attributeName="fill" to="#808080" begin="zoomplus.mouseover" end="zoomplus.mouseout"/>
                        </use>
                        <path d="M-4,0h8M0,-4v8" fill="none" stroke="white" stroke-width="1.5" pointer-events="none"/>
                </g>
                <g id="zoomMin">
                        <use xlink:href="#rim" fill="#404040">
                                <set attributeName="fill" to="#808080" begin="zoomminus.mouseover" end="zoomminus.mouseout"/>
                        </use>
                        <path d="M-4,0h8" fill="none" stroke="white" stroke-width="1.5" pointer-events="none"/>
                </g>
                <g id="dirArrow">
                        <path fill="none" stroke="white" stroke-width="1.5" d="M0,-3.0v7 M-2.5,-0.5L0,-3.0L2.5,-0.5"/>
                </g>
               <g id="resetDef">
                       <use xlink:href="#rim2" fill="#404040">
                               <set attributeName="fill" to="#808080" begin="reset.mouseover" end="reset.mouseout"/>
                       </use>
               </g>
        </defs>

<script type="text/javascript">
var viewWidth = 1074;
var viewHeight = 450;
var sectionId = 'dynsection-9';
</script>
<script xlink:href="svgpan.js"/>
<svg id="graph" class="graph">
<g id="viewport">
<title>G</title>
<polygon fill="white" stroke="white" points="-4,5 -4,-446 1071,-446 1071,5 -4,5"/>
<!-- Node1 -->
<g id="node1" class="node"><title>Node1</title>
<polygon fill="#bfbfbf" stroke="black" points="0.5,-320.5 0.5,-341.5 149.5,-341.5 149.5,-320.5 0.5,-320.5"/>
<text text-anchor="middle" x="75" y="-328.5" font-family="Helvetica,sans-Serif" font-size="10.00">Character::receiveStreamData</text>
</g>
<!-- Node2 -->
<g id="node3" class="node"><title>Node2</title>
<a xlink:href="class_character.html#a1884d7f3e305d9b23164fdbf208f1cc6" target="_top" xlink:title="Character::setPosition">
<polygon fill="white" stroke="black" points="263,-420.5 263,-441.5 377,-441.5 377,-420.5 263,-420.5"/>
<text text-anchor="middle" x="320" y="-428.5" font-family="Helvetica,sans-Serif" font-size="10.00">Character::setPosition</text>
</a>
</g>
<!-- Node1&#45;&gt;Node2 -->
<g id="edge2" class="edge"><title>Node1&#45;&gt;Node2</title>
<path fill="none" stroke="midnightblue" d="M85.877,-341.655C104.591,-359.291 144.853,-394.263 186,-411 206.784,-419.454 230.685,-424.385 252.494,-427.244"/>
<polygon fill="midnightblue" stroke="midnightblue" points="252.334,-430.75 262.677,-428.453 253.159,-423.799 252.334,-430.75"/>
</g>
<!-- Node3 -->
<g id="node5" class="node"><title>Node3</title>
<a xlink:href="class_character.html#a391e1f5a88ed4185bb3ef1f878a5d7af" target="_top" xlink:title="Character::setAnimationMode">
<polygon fill="white" stroke="black" points="247,-380.5 247,-401.5 393,-401.5 393,-380.5 247,-380.5"/>
<text text-anchor="middle" x="320" y="-388.5" font-family="Helvetica,sans-Serif" font-size="10.00">Character::setAnimationMode</text>
</a>
</g>
<!-- Node1&#45;&gt;Node3 -->
<g id="edge4" class="edge"><title>Node1&#45;&gt;Node3</title>
<path fill="none" stroke="midnightblue" d="M100.126,-341.672C122.338,-350.713 155.81,-363.387 186,-371 202.301,-375.111 219.945,-378.485 236.911,-381.214"/>
<polygon fill="midnightblue" stroke="midnightblue" points="236.389,-384.674 246.807,-382.746 237.461,-377.757 236.389,-384.674"/>
</g>
<!-- Node4 -->
<g id="node7" class="node"><title>Node4</title>
<a xlink:href="_utils_8cpp.html#a2cd2203a94c2081c891f9bb9db3df490" target="_top" xlink:title="getASCIIFromCharString">
<polygon fill="white" stroke="black" points="257,-340.5 257,-361.5 383,-361.5 383,-340.5 257,-340.5"/>
<text text-anchor="middle" x="320" y="-348.5" font-family="Helvetica,sans-Serif" font-size="10.00">getASCIIFromCharString</text>
</a>
</g>
<!-- Node1&#45;&gt;Node4 -->
<g id="edge6" class="edge"><title>Node1&#45;&gt;Node4</title>
<path fill="none" stroke="midnightblue" d="M149.506,-337.082C180.368,-339.601 216.058,-342.515 246.783,-345.023"/>
<polygon fill="midnightblue" stroke="midnightblue" points="246.747,-348.532 256.998,-345.857 247.316,-341.555 246.747,-348.532"/>
</g>
<!-- Node5 -->
<g id="node9" class="node"><title>Node5</title>
<a xlink:href="class_streamable_factory.html#a233cafcf6f87f5779b1a26a5a48d8f6d" target="_top" xlink:title="StreamableFactory\&lt; BeamFactory, Beam \&gt;::getSingleton">
<polygon fill="white" stroke="black" points="186.5,-300.5 186.5,-321.5 453.5,-321.5 453.5,-300.5 186.5,-300.5"/>
<text text-anchor="middle" x="320" y="-308.5" font-family="Helvetica,sans-Serif" font-size="10.00">StreamableFactory&lt; BeamFactory, Beam &gt;::getSingleton</text>
</a>
</g>
<!-- Node1&#45;&gt;Node5 -->
<g id="edge8" class="edge"><title>Node1&#45;&gt;Node5</title>
<path fill="none" stroke="midnightblue" d="M149.506,-324.918C159.638,-324.091 170.29,-323.221 181.116,-322.337"/>
<polygon fill="midnightblue" stroke="midnightblue" points="181.415,-325.825 191.097,-321.523 180.846,-318.848 181.415,-325.825"/>
</g>
<!-- Node6 -->
<g id="node11" class="node"><title>Node6</title>
<a xlink:href="class_beam_factory.html#ae1ee200d0b8c2a27810f5a70b92e17fc" target="_top" xlink:title="BeamFactory::getBeam">
<polygon fill="white" stroke="black" points="260,-260.5 260,-281.5 380,-281.5 380,-260.5 260,-260.5"/>
<text text-anchor="middle" x="320" y="-268.5" font-family="Helvetica,sans-Serif" font-size="10.00">BeamFactory::getBeam</text>
</a>
</g>
<!-- Node1&#45;&gt;Node6 -->
<g id="edge10" class="edge"><title>Node1&#45;&gt;Node6</title>
<path fill="none" stroke="midnightblue" d="M100.126,-320.328C122.338,-311.287 155.81,-298.613 186,-291 206.482,-285.835 229.084,-281.833 249.798,-278.813"/>
<polygon fill="midnightblue" stroke="midnightblue" points="250.382,-282.265 259.798,-277.408 249.408,-275.333 250.382,-282.265"/>
</g>
<!-- Node10 -->
<g id="node19" class="node"><title>Node10</title>
<a xlink:href="class_character.html#aa761e344c2aa6df9205bfa6bf1d3ea13" target="_top" xlink:title="Character::setBeamCoupling">
<polygon fill="white" stroke="black" points="248.5,-120.5 248.5,-141.5 391.5,-141.5 391.5,-120.5 248.5,-120.5"/>
<text text-anchor="middle" x="320" y="-128.5" font-family="Helvetica,sans-Serif" font-size="10.00">Character::setBeamCoupling</text>
</a>
</g>
<!-- Node1&#45;&gt;Node10 -->
<g id="edge18" class="edge"><title>Node1&#45;&gt;Node10</title>
<path fill="none" stroke="midnightblue" d="M88.1723,-320.247C128.397,-287.411 249.874,-188.246 299.023,-148.124"/>
<polygon fill="midnightblue" stroke="midnightblue" points="301.527,-150.598 307.06,-141.563 297.1,-145.176 301.527,-150.598"/>
</g>
<!-- Node7 -->
<g id="node13" class="node"><title>Node7</title>
<a xlink:href="class_streamable_factory.html#ae48eb0007578a22c2c857f72d1471a84" target="_top" xlink:title="StreamableFactory\&lt; BeamFactory, Beam \&gt;::lockStreams">
<polygon fill="white" stroke="black" points="495,-320.5 495,-341.5 763,-341.5 763,-320.5 495,-320.5"/>
<text text-anchor="middle" x="629" y="-328.5" font-family="Helvetica,sans-Serif" font-size="10.00">StreamableFactory&lt; BeamFactory, Beam &gt;::lockStreams</text>
</a>
</g>
<!-- Node6&#45;&gt;Node7 -->
<g id="edge12" class="edge"><title>Node6&#45;&gt;Node7</title>
<path fill="none" stroke="midnightblue" d="M380.123,-275.33C403.617,-278.214 430.505,-283.014 454,-291 471.33,-296.89 472.655,-305.156 490,-311 498.309,-313.8 507.027,-316.208 515.875,-318.279"/>
<polygon fill="midnightblue" stroke="midnightblue" points="515.388,-321.755 525.905,-320.476 516.886,-314.917 515.388,-321.755"/>
</g>
<!-- Node8 -->
<g id="node15" class="node"><title>Node8</title>
<a xlink:href="class_streamable_factory.html#a144cbd4edd29595ee5c36bf9aa3b461c" target="_top" xlink:title="StreamableFactory\&lt; BeamFactory, Beam \&gt;::getStreams">
<polygon fill="white" stroke="black" points="497.5,-280.5 497.5,-301.5 760.5,-301.5 760.5,-280.5 497.5,-280.5"/>
<text text-anchor="middle" x="629" y="-288.5" font-family="Helvetica,sans-Serif" font-size="10.00">StreamableFactory&lt; BeamFactory, Beam &gt;::getStreams</text>
</a>
</g>
<!-- Node6&#45;&gt;Node8 -->
<g id="edge14" class="edge"><title>Node6&#45;&gt;Node8</title>
<path fill="none" stroke="midnightblue" d="M380.312,-274.904C410.945,-276.886 449.566,-279.386 487.179,-281.821"/>
<polygon fill="midnightblue" stroke="midnightblue" points="487.026,-285.318 497.232,-282.471 487.478,-278.333 487.026,-285.318"/>
</g>
<!-- Node9 -->
<g id="node17" class="node"><title>Node9</title>
<a xlink:href="class_streamable_factory.html#a903fef78ba76e72a0536ff615c5952d4" target="_top" xlink:title="StreamableFactory\&lt; BeamFactory, Beam \&gt;::unlockStreams">
<polygon fill="white" stroke="black" points="490,-240.5 490,-261.5 768,-261.5 768,-240.5 490,-240.5"/>
<text text-anchor="middle" x="629" y="-248.5" font-family="Helvetica,sans-Serif" font-size="10.00">StreamableFactory&lt; BeamFactory, Beam &gt;::unlockStreams</text>
</a>
</g>
<!-- Node6&#45;&gt;Node9 -->
<g id="edge16" class="edge"><title>Node6&#45;&gt;Node9</title>
<path fill="none" stroke="midnightblue" d="M380.312,-267.096C408.846,-265.249 444.311,-262.954 479.436,-260.681"/>
<polygon fill="midnightblue" stroke="midnightblue" points="480.067,-264.147 489.82,-260.008 479.615,-257.162 480.067,-264.147"/>
</g>
<!-- Node11 -->
<g id="node21" class="node"><title>Node11</title>
<a xlink:href="class_character.html#ad78f70dcdb7ed4ccd8e97824f62847e1" target="_top" xlink:title="Character::setPhysicsEnabled">
<polygon fill="white" stroke="black" points="554.5,-200.5 554.5,-221.5 703.5,-221.5 703.5,-200.5 554.5,-200.5"/>
<text text-anchor="middle" x="629" y="-208.5" font-family="Helvetica,sans-Serif" font-size="10.00">Character::setPhysicsEnabled</text>
</a>
</g>
<!-- Node10&#45;&gt;Node11 -->
<g id="edge20" class="edge"><title>Node10&#45;&gt;Node11</title>
<path fill="none" stroke="midnightblue" d="M344.875,-141.522C377.586,-154.951 437.116,-177.997 490,-191 507.379,-195.273 526.22,-198.74 544.256,-201.512"/>
<polygon fill="midnightblue" stroke="midnightblue" points="543.774,-204.979 554.179,-202.981 544.799,-198.054 543.774,-204.979"/>
</g>
<!-- Node12 -->
<g id="node23" class="node"><title>Node12</title>
<a xlink:href="class_streamable.html#a3eda07bf069a63209f3fb18cb0b3d835" target="_top" xlink:title="Streamable::getSourceID">
<polygon fill="white" stroke="black" points="565.5,-160.5 565.5,-181.5 692.5,-181.5 692.5,-160.5 565.5,-160.5"/>
<text text-anchor="middle" x="629" y="-168.5" font-family="Helvetica,sans-Serif" font-size="10.00">Streamable::getSourceID</text>
</a>
</g>
<!-- Node10&#45;&gt;Node12 -->
<g id="edge22" class="edge"><title>Node10&#45;&gt;Node12</title>
<path fill="none" stroke="midnightblue" d="M391.667,-140.277C440.788,-146.636 505.769,-155.048 555.316,-161.462"/>
<polygon fill="midnightblue" stroke="midnightblue" points="554.96,-164.945 565.326,-162.757 555.858,-158.003 554.96,-164.945"/>
</g>
<!-- Node13 -->
<g id="node25" class="node"><title>Node13</title>
<a xlink:href="class_streamable.html#a9f197258ebb8984ee75ce0481cf67f20" target="_top" xlink:title="Streamable::getStreamID">
<polygon fill="white" stroke="black" points="565,-120.5 565,-141.5 693,-141.5 693,-120.5 565,-120.5"/>
<text text-anchor="middle" x="629" y="-128.5" font-family="Helvetica,sans-Serif" font-size="10.00">Streamable::getStreamID</text>
</a>
</g>
<!-- Node10&#45;&gt;Node13 -->
<g id="edge24" class="edge"><title>Node10&#45;&gt;Node13</title>
<path fill="none" stroke="midnightblue" d="M391.667,-131C440.621,-131 505.328,-131 554.811,-131"/>
<polygon fill="midnightblue" stroke="midnightblue" points="554.811,-134.5 564.811,-131 554.811,-127.5 554.811,-134.5"/>
</g>
<!-- Node14 -->
<g id="node27" class="node"><title>Node14</title>
<a xlink:href="class_streamable.html#ad3380f9c932381bb9a862f40177aa58c" target="_top" xlink:title="Streamable::addPacket">
<polygon fill="white" stroke="black" points="569.5,-80.5 569.5,-101.5 688.5,-101.5 688.5,-80.5 569.5,-80.5"/>
<text text-anchor="middle" x="629" y="-88.5" font-family="Helvetica,sans-Serif" font-size="10.00">Streamable::addPacket</text>
</a>
</g>
<!-- Node10&#45;&gt;Node14 -->
<g id="edge26" class="edge"><title>Node10&#45;&gt;Node14</title>
<path fill="none" stroke="midnightblue" d="M391.667,-121.723C442.123,-115.191 509.311,-106.494 559.319,-100.02"/>
<polygon fill="midnightblue" stroke="midnightblue" points="559.931,-103.47 569.399,-98.7154 559.032,-96.5282 559.931,-103.47"/>
</g>
<!-- Node17 -->
<g id="node33" class="node"><title>Node17</title>
<a xlink:href="class_beam.html#adfe810237f6498de41657429ad35ee38" target="_top" xlink:title="Beam::hasDriverSeat">
<polygon fill="white" stroke="black" points="574,-40.5 574,-61.5 684,-61.5 684,-40.5 574,-40.5"/>
<text text-anchor="middle" x="629" y="-48.5" font-family="Helvetica,sans-Serif" font-size="10.00">Beam::hasDriverSeat</text>
</a>
</g>
<!-- Node10&#45;&gt;Node17 -->
<g id="edge32" class="edge"><title>Node10&#45;&gt;Node17</title>
<path fill="none" stroke="midnightblue" d="M344.875,-120.478C377.586,-107.049 437.116,-84.0031 490,-71 513.717,-65.1685 540.157,-60.8383 563.557,-57.7275"/>
<polygon fill="midnightblue" stroke="midnightblue" points="564.252,-61.1671 573.727,-56.4257 563.363,-54.2238 564.252,-61.1671"/>
</g>
<!-- Node18 -->
<g id="node35" class="node"><title>Node18</title>
<a xlink:href="class_character.html#a9431f9de49989e5bbf7e02810aca1f14" target="_top" xlink:title="Character::setVisible">
<polygon fill="white" stroke="black" points="575,-0.5 575,-21.5 683,-21.5 683,-0.5 575,-0.5"/>
<text text-anchor="middle" x="629" y="-8.5" font-family="Helvetica,sans-Serif" font-size="10.00">Character::setVisible</text>
</a>
</g>
<!-- Node10&#45;&gt;Node18 -->
<g id="edge34" class="edge"><title>Node10&#45;&gt;Node18</title>
<path fill="none" stroke="midnightblue" d="M333.624,-120.436C361.336,-99.5527 426.992,-53.0981 490,-31 513.654,-22.7043 540.728,-17.846 564.66,-15.0022"/>
<polygon fill="midnightblue" stroke="midnightblue" points="565.145,-18.4701 574.705,-13.9026 564.383,-11.5117 565.145,-18.4701"/>
</g>
<!-- Node15 -->
<g id="node29" class="node"><title>Node15</title>
<a xlink:href="class_ro_r_singleton.html#a18a797fc35bd8cfa8a2affdd197cbfee" target="_top" xlink:title="RoRSingleton\&lt; NetworkStreamManager \&gt;::getSingleton">
<polygon fill="white" stroke="black" points="804.5,-100.5 804.5,-121.5 1065.5,-121.5 1065.5,-100.5 804.5,-100.5"/>
<text text-anchor="middle" x="935" y="-108.5" font-family="Helvetica,sans-Serif" font-size="10.00">RoRSingleton&lt; NetworkStreamManager &gt;::getSingleton</text>
</a>
</g>
<!-- Node14&#45;&gt;Node15 -->
<g id="edge28" class="edge"><title>Node14&#45;&gt;Node15</title>
<path fill="none" stroke="midnightblue" d="M688.726,-94.9037C718.853,-96.8728 756.783,-99.3518 793.787,-101.77"/>
<polygon fill="midnightblue" stroke="midnightblue" points="793.986,-105.291 804.193,-102.45 794.442,-98.3057 793.986,-105.291"/>
</g>
<!-- Node16 -->
<g id="node31" class="node"><title>Node16</title>
<a xlink:href="class_network_stream_manager.html#a35a0f97374d09e9269ac1650932a1e07" target="_top" xlink:title="NetworkStreamManager::triggerSend">
<polygon fill="white" stroke="black" points="846,-60.5 846,-81.5 1024,-81.5 1024,-60.5 846,-60.5"/>
<text text-anchor="middle" x="935" y="-68.5" font-family="Helvetica,sans-Serif" font-size="10.00">NetworkStreamManager::triggerSend</text>
</a>
</g>
<!-- Node14&#45;&gt;Node16 -->
<g id="edge30" class="edge"><title>Node14&#45;&gt;Node16</title>
<path fill="none" stroke="midnightblue" d="M688.726,-87.0963C730.458,-84.3688 787.16,-80.6628 835.637,-77.4943"/>
<polygon fill="midnightblue" stroke="midnightblue" points="836.098,-80.9718 845.848,-76.8269 835.641,-73.9867 836.098,-80.9718"/>
</g>
</g>
</svg>
        <g id="navigator" transform="translate(0 0)" fill="#404254">
                <rect fill="#f2f5e9" fill-opacity="0.5" stroke="#606060" stroke-width=".5" x="0" y="0" width="60" height="60"/>
                <use id="zoomplus" xlink:href="#zoomPlus" x="17" y="9" onmousedown="handleZoom(evt,'in')"/>
                <use id="zoomminus" xlink:href="#zoomMin" x="42" y="9" onmousedown="handleZoom(evt,'out')"/>
                <use id="reset" xlink:href="#resetDef" x="30" y="36" onmousedown="handleReset()"/>
                <g id="arrowUp" xlink:href="#dirArrow" transform="translate(30 24)" onmousedown="handlePan(0,-1)">
                  <use xlink:href="#rim" fill="#404040">
                        <set attributeName="fill" to="#808080" begin="arrowUp.mouseover" end="arrowUp.mouseout"/>
                  </use>
                  <path fill="none" stroke="white" stroke-width="1.5" d="M0,-3.0v7 M-2.5,-0.5L0,-3.0L2.5,-0.5"/>
                </g>
                <g id="arrowRight" xlink:href="#dirArrow" transform="rotate(90) translate(36 -43)" onmousedown="handlePan(1,0)">
                  <use xlink:href="#rim" fill="#404040">
                        <set attributeName="fill" to="#808080" begin="arrowRight.mouseover" end="arrowRight.mouseout"/>
                  </use>
                  <path fill="none" stroke="white" stroke-width="1.5" d="M0,-3.0v7 M-2.5,-0.5L0,-3.0L2.5,-0.5"/>
                </g>
                <g id="arrowDown" xlink:href="#dirArrow" transform="rotate(180) translate(-30 -48)" onmousedown="handlePan(0,1)">
                  <use xlink:href="#rim" fill="#404040">
                        <set attributeName="fill" to="#808080" begin="arrowDown.mouseover" end="arrowDown.mouseout"/>
                  </use>
                  <path fill="none" stroke="white" stroke-width="1.5" d="M0,-3.0v7 M-2.5,-0.5L0,-3.0L2.5,-0.5"/>
                </g>
                <g id="arrowLeft" xlink:href="#dirArrow" transform="rotate(270) translate(-36 17)" onmousedown="handlePan(-1,0)">
                  <use xlink:href="#rim" fill="#404040">
                        <set attributeName="fill" to="#808080" begin="arrowLeft.mouseover" end="arrowLeft.mouseout"/>
                  </use>
                  <path fill="none" stroke="white" stroke-width="1.5" d="M0,-3.0v7 M-2.5,-0.5L0,-3.0L2.5,-0.5"/>
                </g>
        </g>
</svg>
