<?xml version="1.0" encoding="UTF-8" standalone="no"?>
<!DOCTYPE svg PUBLIC "-//W3C//DTD SVG 1.1//EN"
 "http://www.w3.org/Graphics/SVG/1.1/DTD/svg11.dtd">
<!-- Generated by graphviz version 2.26.3 (20100126.1600)
 -->
<!-- Title: RoR::GUI::MultiplayerSelectorLayout::MultiplayerSelectorLayout Pages: 1 -->
<svg width="604pt" height="94pt"
 viewBox="0.00 0.00 604.00 94.00" xmlns="http://www.w3.org/2000/svg" xmlns:xlink="http://www.w3.org/1999/xlink">
<g id="graph1" class="graph" transform="scale(1 1) rotate(0) translate(4 90)">
<title>RoR::GUI::MultiplayerSelectorLayout::MultiplayerSelectorLayout</title>
<polygon fill="white" stroke="white" points="-4,5 -4,-90 601,-90 601,5 -4,5"/>
<!-- Node1 -->
<g id="node1" class="node"><title>Node1</title>
<polygon fill="#bfbfbf" stroke="black" points="0,-26 0,-60 164,-60 164,-26 0,-26"/>
<text text-anchor="start" x="8" y="-47" font-family="Helvetica,sans-Serif" font-size="10.00">RoR::GUI::MultiplayerSelector</text>
<text text-anchor="middle" x="82" y="-34" font-family="Helvetica,sans-Serif" font-size="10.00">Layout::MultiplayerSelectorLayout</text>
</g>
<!-- Node2 -->
<g id="node3" class="node"><title>Node2</title>
<a xlink:href="classwraps_1_1_base_layout.html#aa6f806c099807cf01b238dff74538f7b" target="_top" xlink:title="wraps::BaseLayout::\linitialiseByAttributes">
<polygon fill="white" stroke="black" points="200.5,-26 200.5,-60 307.5,-60 307.5,-26 200.5,-26"/>
<text text-anchor="start" x="208.5" y="-47" font-family="Helvetica,sans-Serif" font-size="10.00">wraps::BaseLayout::</text>
<text text-anchor="middle" x="254" y="-34" font-family="Helvetica,sans-Serif" font-size="10.00">initialiseByAttributes</text>
</a>
</g>
<!-- Node1&#45;&gt;Node2 -->
<g id="edge2" class="edge"><title>Node1&#45;&gt;Node2</title>
<path fill="none" stroke="midnightblue" d="M164.222,-43C172.941,-43 181.712,-43 190.176,-43"/>
<polygon fill="midnightblue" stroke="midnightblue" points="190.323,-46.5001 200.323,-43 190.323,-39.5001 190.323,-46.5001"/>
</g>
<!-- Node3 -->
<g id="node5" class="node"><title>Node3</title>
<a xlink:href="classwraps_1_1_base_layout.html#a259ffe59370c08268229022e9ff0e1b0" target="_top" xlink:title="wraps::BaseLayout::\linitialise">
<polygon fill="white" stroke="black" points="344.5,-52 344.5,-86 451.5,-86 451.5,-52 344.5,-52"/>
<text text-anchor="start" x="352.5" y="-73" font-family="Helvetica,sans-Serif" font-size="10.00">wraps::BaseLayout::</text>
<text text-anchor="middle" x="398" y="-60" font-family="Helvetica,sans-Serif" font-size="10.00">initialise</text>
</a>
</g>
<!-- Node2&#45;&gt;Node3 -->
<g id="edge4" class="edge"><title>Node2&#45;&gt;Node3</title>
<path fill="none" stroke="midnightblue" d="M307.62,-52.6814C316.335,-54.2549 325.435,-55.898 334.361,-57.5096"/>
<polygon fill="midnightblue" stroke="midnightblue" points="333.872,-60.9779 344.335,-59.3105 335.116,-54.0893 333.872,-60.9779"/>
</g>
<!-- Node5 -->
<g id="node9" class="node"><title>Node5</title>
<a xlink:href="classwraps_1_1_base_layout.html#a2dbd783151c111ebba363adf2cb53622" target="_top" xlink:title="wraps::BaseLayout::\lassignWidget">
<polygon fill="white" stroke="black" points="344.5,-0 344.5,-34 451.5,-34 451.5,-0 344.5,-0"/>
<text text-anchor="start" x="352.5" y="-21" font-family="Helvetica,sans-Serif" font-size="10.00">wraps::BaseLayout::</text>
<text text-anchor="middle" x="398" y="-8" font-family="Helvetica,sans-Serif" font-size="10.00">assignWidget</text>
</a>
</g>
<!-- Node2&#45;&gt;Node5 -->
<g id="edge8" class="edge"><title>Node2&#45;&gt;Node5</title>
<path fill="none" stroke="midnightblue" d="M307.62,-33.3186C316.335,-31.7451 325.435,-30.102 334.361,-28.4904"/>
<polygon fill="midnightblue" stroke="midnightblue" points="335.116,-31.9107 344.335,-26.6895 333.872,-25.0221 335.116,-31.9107"/>
</g>
<!-- Node4 -->
<g id="node7" class="node"><title>Node4</title>
<a xlink:href="classwraps_1_1_base_layout.html#a1fcf2ea81000efa2c14828cc67d4aeb6" target="_top" xlink:title="wraps::BaseLayout::\lsnapToParent">
<polygon fill="white" stroke="black" points="488.5,-52 488.5,-86 595.5,-86 595.5,-52 488.5,-52"/>
<text text-anchor="start" x="496.5" y="-73" font-family="Helvetica,sans-Serif" font-size="10.00">wraps::BaseLayout::</text>
<text text-anchor="middle" x="542" y="-60" font-family="Helvetica,sans-Serif" font-size="10.00">snapToParent</text>
</a>
</g>
<!-- Node3&#45;&gt;Node4 -->
<g id="edge6" class="edge"><title>Node3&#45;&gt;Node4</title>
<path fill="none" stroke="midnightblue" d="M451.62,-69C460.241,-69 469.239,-69 478.073,-69"/>
<polygon fill="midnightblue" stroke="midnightblue" points="478.335,-72.5001 488.335,-69 478.335,-65.5001 478.335,-72.5001"/>
</g>
</g>
</svg>
