<?xml version="1.0" encoding="UTF-8" standalone="no"?>
<!DOCTYPE svg PUBLIC "-//W3C//DTD SVG 1.1//EN"
 "http://www.w3.org/Graphics/SVG/1.1/DTD/svg11.dtd">
<!-- Generated by graphviz version 2.26.3 (20100126.1600)
 -->
<!-- Title: Road2::baseOf Pages: 1 -->
<svg width="516pt" height="70pt"
 viewBox="0.00 0.00 516.00 70.00" xmlns="http://www.w3.org/2000/svg" xmlns:xlink="http://www.w3.org/1999/xlink">
<g id="graph1" class="graph" transform="scale(1 1) rotate(0) translate(4 66)">
<title>Road2::baseOf</title>
<polygon fill="white" stroke="white" points="-4,5 -4,-66 513,-66 513,5 -4,5"/>
<!-- Node1 -->
<g id="node1" class="node"><title>Node1</title>
<polygon fill="#bfbfbf" stroke="black" points="0.5,-20.5 0.5,-41.5 83.5,-41.5 83.5,-20.5 0.5,-20.5"/>
<text text-anchor="middle" x="42" y="-28.5" font-family="Helvetica,sans-Serif" font-size="10.00">Road2::baseOf</text>
</g>
<!-- Node2 -->
<g id="node3" class="node"><title>Node2</title>
<a xlink:href="class_road2.html#a9d8724ad4d80b364282df601d120e32d" target="_top" xlink:title="Road2::computePoints">
<polygon fill="white" stroke="black" points="120,-20.5 120,-41.5 236,-41.5 236,-20.5 120,-20.5"/>
<text text-anchor="middle" x="178" y="-28.5" font-family="Helvetica,sans-Serif" font-size="10.00">Road2::computePoints</text>
</a>
</g>
<!-- Node1&#45;&gt;Node2 -->
<g id="edge2" class="edge"><title>Node1&#45;&gt;Node2</title>
<path fill="none" stroke="midnightblue" d="M93.6899,-31C102.187,-31 111.044,-31 119.689,-31"/>
<polygon fill="midnightblue" stroke="midnightblue" points="93.5435,-27.5001 83.5435,-31 93.5434,-34.5001 93.5435,-27.5001"/>
</g>
<!-- Node3 -->
<g id="node5" class="node"><title>Node3</title>
<a xlink:href="class_road2.html#a9a8d8af3d830d58c09b2cea742e42832" target="_top" xlink:title="Road2::finish">
<polygon fill="white" stroke="black" points="281,-40.5 281,-61.5 355,-61.5 355,-40.5 281,-40.5"/>
<text text-anchor="middle" x="318" y="-48.5" font-family="Helvetica,sans-Serif" font-size="10.00">Road2::finish</text>
</a>
</g>
<!-- Node2&#45;&gt;Node3 -->
<g id="edge4" class="edge"><title>Node2&#45;&gt;Node3</title>
<path fill="none" stroke="midnightblue" d="M246.094,-40.7277C257.981,-42.4259 269.942,-44.1346 280.603,-45.6576"/>
<polygon fill="midnightblue" stroke="midnightblue" points="246.551,-37.2575 236.156,-39.308 245.561,-44.1872 246.551,-37.2575"/>
</g>
<!-- Node5 -->
<g id="node9" class="node"><title>Node5</title>
<a xlink:href="class_road2.html#af1ed3f3e7283f49faad7101f0908ad19" target="_top" xlink:title="Road2::addBlock">
<polygon fill="white" stroke="black" points="272,-0.5 272,-21.5 364,-21.5 364,-0.5 272,-0.5"/>
<text text-anchor="middle" x="318" y="-8.5" font-family="Helvetica,sans-Serif" font-size="10.00">Road2::addBlock</text>
</a>
</g>
<!-- Node2&#45;&gt;Node5 -->
<g id="edge8" class="edge"><title>Node2&#45;&gt;Node5</title>
<path fill="none" stroke="midnightblue" d="M246.251,-21.2498C254.891,-20.0155 263.567,-18.7762 271.751,-17.607"/>
<polygon fill="midnightblue" stroke="midnightblue" points="245.561,-17.8128 236.156,-22.692 246.551,-24.7425 245.561,-17.8128"/>
</g>
<!-- Node4 -->
<g id="node7" class="node"><title>Node4</title>
<a xlink:href="class_procedural_manager.html#a63f800c4fe54872d67b0a3e3b1361927" target="_top" xlink:title="ProceduralManager::\lupdateObject">
<polygon fill="white" stroke="black" points="400.5,-14 400.5,-48 507.5,-48 507.5,-14 400.5,-14"/>
<text text-anchor="start" x="408.5" y="-35" font-family="Helvetica,sans-Serif" font-size="10.00">ProceduralManager::</text>
<text text-anchor="middle" x="454" y="-22" font-family="Helvetica,sans-Serif" font-size="10.00">updateObject</text>
</a>
</g>
<!-- Node3&#45;&gt;Node4 -->
<g id="edge6" class="edge"><title>Node3&#45;&gt;Node4</title>
<path fill="none" stroke="midnightblue" d="M365.27,-44.0485C376.579,-42.3854 388.735,-40.5979 400.31,-38.8956"/>
<polygon fill="midnightblue" stroke="midnightblue" points="364.547,-40.6171 355.163,-45.5349 365.565,-47.5426 364.547,-40.6171"/>
</g>
<!-- Node5&#45;&gt;Node4 -->
<g id="edge10" class="edge"><title>Node5&#45;&gt;Node4</title>
<path fill="none" stroke="midnightblue" d="M374.122,-19.2532C382.842,-20.5357 391.832,-21.8577 400.493,-23.1314"/>
<polygon fill="midnightblue" stroke="midnightblue" points="374.446,-15.7634 364.043,-17.7711 373.428,-22.6889 374.446,-15.7634"/>
</g>
</g>
</svg>
