<?xml version="1.0" encoding="UTF-8" standalone="no"?>
<!DOCTYPE svg PUBLIC "-//W3C//DTD SVG 1.1//EN"
 "http://www.w3.org/Graphics/SVG/1.1/DTD/svg11.dtd">
<!-- Generated by graphviz version 2.26.3 (20100126.1600)
 -->
<!-- Title: RoR::GUI::SimUtilsLayout::SimUtilsLayout Pages: 1 -->
<svg width="574pt" height="94pt"
 viewBox="0.00 0.00 574.00 94.00" xmlns="http://www.w3.org/2000/svg" xmlns:xlink="http://www.w3.org/1999/xlink">
<g id="graph1" class="graph" transform="scale(1 1) rotate(0) translate(4 90)">
<title>RoR::GUI::SimUtilsLayout::SimUtilsLayout</title>
<polygon fill="white" stroke="white" points="-4,5 -4,-90 571,-90 571,5 -4,5"/>
<!-- Node1 -->
<g id="node1" class="node"><title>Node1</title>
<polygon fill="#bfbfbf" stroke="black" points="0,-26 0,-60 134,-60 134,-26 0,-26"/>
<text text-anchor="start" x="8" y="-47" font-family="Helvetica,sans-Serif" font-size="10.00">RoR::GUI::SimUtilsLayout</text>
<text text-anchor="middle" x="67" y="-34" font-family="Helvetica,sans-Serif" font-size="10.00">::SimUtilsLayout</text>
</g>
<!-- Node2 -->
<g id="node3" class="node"><title>Node2</title>
<a xlink:href="classwraps_1_1_base_layout.html#aa6f806c099807cf01b238dff74538f7b" target="_top" xlink:title="wraps::BaseLayout::\linitialiseByAttributes">
<polygon fill="white" stroke="black" points="170.5,-26 170.5,-60 277.5,-60 277.5,-26 170.5,-26"/>
<text text-anchor="start" x="178.5" y="-47" font-family="Helvetica,sans-Serif" font-size="10.00">wraps::BaseLayout::</text>
<text text-anchor="middle" x="224" y="-34" font-family="Helvetica,sans-Serif" font-size="10.00">initialiseByAttributes</text>
</a>
</g>
<!-- Node1&#45;&gt;Node2 -->
<g id="edge2" class="edge"><title>Node1&#45;&gt;Node2</title>
<path fill="none" stroke="midnightblue" d="M134.038,-43C142.783,-43 151.723,-43 160.41,-43"/>
<polygon fill="midnightblue" stroke="midnightblue" points="160.465,-46.5001 170.465,-43 160.465,-39.5001 160.465,-46.5001"/>
</g>
<!-- Node3 -->
<g id="node5" class="node"><title>Node3</title>
<a xlink:href="classwraps_1_1_base_layout.html#a259ffe59370c08268229022e9ff0e1b0" target="_top" xlink:title="wraps::BaseLayout::\linitialise">
<polygon fill="white" stroke="black" points="314.5,-52 314.5,-86 421.5,-86 421.5,-52 314.5,-52"/>
<text text-anchor="start" x="322.5" y="-73" font-family="Helvetica,sans-Serif" font-size="10.00">wraps::BaseLayout::</text>
<text text-anchor="middle" x="368" y="-60" font-family="Helvetica,sans-Serif" font-size="10.00">initialise</text>
</a>
</g>
<!-- Node2&#45;&gt;Node3 -->
<g id="edge4" class="edge"><title>Node2&#45;&gt;Node3</title>
<path fill="none" stroke="midnightblue" d="M277.62,-52.6814C286.335,-54.2549 295.435,-55.898 304.361,-57.5096"/>
<polygon fill="midnightblue" stroke="midnightblue" points="303.872,-60.9779 314.335,-59.3105 305.116,-54.0893 303.872,-60.9779"/>
</g>
<!-- Node5 -->
<g id="node9" class="node"><title>Node5</title>
<a xlink:href="classwraps_1_1_base_layout.html#a2dbd783151c111ebba363adf2cb53622" target="_top" xlink:title="wraps::BaseLayout::\lassignWidget">
<polygon fill="white" stroke="black" points="314.5,-0 314.5,-34 421.5,-34 421.5,-0 314.5,-0"/>
<text text-anchor="start" x="322.5" y="-21" font-family="Helvetica,sans-Serif" font-size="10.00">wraps::BaseLayout::</text>
<text text-anchor="middle" x="368" y="-8" font-family="Helvetica,sans-Serif" font-size="10.00">assignWidget</text>
</a>
</g>
<!-- Node2&#45;&gt;Node5 -->
<g id="edge8" class="edge"><title>Node2&#45;&gt;Node5</title>
<path fill="none" stroke="midnightblue" d="M277.62,-33.3186C286.335,-31.7451 295.435,-30.102 304.361,-28.4904"/>
<polygon fill="midnightblue" stroke="midnightblue" points="305.116,-31.9107 314.335,-26.6895 303.872,-25.0221 305.116,-31.9107"/>
</g>
<!-- Node4 -->
<g id="node7" class="node"><title>Node4</title>
<a xlink:href="classwraps_1_1_base_layout.html#a1fcf2ea81000efa2c14828cc67d4aeb6" target="_top" xlink:title="wraps::BaseLayout::\lsnapToParent">
<polygon fill="white" stroke="black" points="458.5,-52 458.5,-86 565.5,-86 565.5,-52 458.5,-52"/>
<text text-anchor="start" x="466.5" y="-73" font-family="Helvetica,sans-Serif" font-size="10.00">wraps::BaseLayout::</text>
<text text-anchor="middle" x="512" y="-60" font-family="Helvetica,sans-Serif" font-size="10.00">snapToParent</text>
</a>
</g>
<!-- Node3&#45;&gt;Node4 -->
<g id="edge6" class="edge"><title>Node3&#45;&gt;Node4</title>
<path fill="none" stroke="midnightblue" d="M421.62,-69C430.241,-69 439.239,-69 448.073,-69"/>
<polygon fill="midnightblue" stroke="midnightblue" points="448.335,-72.5001 458.335,-69 448.335,-65.5001 448.335,-72.5001"/>
</g>
</g>
</svg>
