<?xml version="1.0" encoding="UTF-8" standalone="no"?>
<!DOCTYPE svg PUBLIC "-//W3C//DTD SVG 1.1//EN"
 "http://www.w3.org/Graphics/SVG/1.1/DTD/svg11.dtd">
<!-- Generated by graphviz version 2.26.3 (20100126.1600)
 -->
<!-- Title: G Pages: 1 -->
<svg width="440pt" height="70pt"
 viewBox="0.00 0.00 440.00 70.00" xmlns="http://www.w3.org/2000/svg" xmlns:xlink="http://www.w3.org/1999/xlink">
<g id="graph1" class="graph" transform="scale(1 1) rotate(0) translate(4 66)">
<title>G</title>
<polygon fill="white" stroke="white" points="-4,5 -4,-66 437,-66 437,5 -4,5"/>
<!-- Node1 -->
<g id="node1" class="node"><title>Node1</title>
<polygon fill="#bfbfbf" stroke="black" points="0.5,-20.5 0.5,-41.5 127.5,-41.5 127.5,-20.5 0.5,-20.5"/>
<text text-anchor="middle" x="64" y="-28.5" font-family="Helvetica,sans-Serif" font-size="10.00">PointColDetector::update</text>
</g>
<!-- Node2 -->
<g id="node3" class="node"><title>Node2</title>
<a xlink:href="class_streamable_factory.html#a233cafcf6f87f5779b1a26a5a48d8f6d" target="_top" xlink:title="StreamableFactory\&lt; BeamFactory, Beam \&gt;::getSingleton">
<polygon fill="white" stroke="black" points="164.5,-40.5 164.5,-61.5 431.5,-61.5 431.5,-40.5 164.5,-40.5"/>
<text text-anchor="middle" x="298" y="-48.5" font-family="Helvetica,sans-Serif" font-size="10.00">StreamableFactory&lt; BeamFactory, Beam &gt;::getSingleton</text>
</a>
</g>
<!-- Node1&#45;&gt;Node2 -->
<g id="edge2" class="edge"><title>Node1&#45;&gt;Node2</title>
<path fill="none" stroke="midnightblue" d="M127.632,-36.4387C139.272,-37.4335 151.809,-38.5051 164.613,-39.5994"/>
<polygon fill="midnightblue" stroke="midnightblue" points="164.665,-43.1165 174.927,-40.4809 165.261,-36.142 164.665,-43.1165"/>
</g>
<!-- Node3 -->
<g id="node5" class="node"><title>Node3</title>
<a xlink:href="class_point_col_detector.html#a582e93595ca4ef9138718da9e805f517" target="_top" xlink:title="PointColDetector::update_structures_for_contacters">
<polygon fill="white" stroke="black" points="176.5,-0.5 176.5,-21.5 419.5,-21.5 419.5,-0.5 176.5,-0.5"/>
<text text-anchor="middle" x="298" y="-8.5" font-family="Helvetica,sans-Serif" font-size="10.00">PointColDetector::update_structures_for_contacters</text>
</a>
</g>
<!-- Node1&#45;&gt;Node3 -->
<g id="edge4" class="edge"><title>Node1&#45;&gt;Node3</title>
<path fill="none" stroke="midnightblue" d="M127.632,-25.5613C139.711,-24.529 152.756,-23.414 166.062,-22.2767"/>
<polygon fill="midnightblue" stroke="midnightblue" points="166.612,-25.7426 176.277,-21.4037 166.016,-18.768 166.612,-25.7426"/>
</g>
</g>
</svg>
