<?xml version="1.0" encoding="UTF-8" standalone="no"?>
<!DOCTYPE svg PUBLIC "-//W3C//DTD SVG 1.1//EN"
 "http://www.w3.org/Graphics/SVG/1.1/DTD/svg11.dtd">
<!-- Generated by graphviz version 2.26.3 (20100126.1600)
 -->
<!-- Title: Hydrax::MaterialManager::UnderwaterCompositorListener Pages: 1 -->
<!--zoomable 1131 -->
<svg id="main" version="1.1" xmlns="http://www.w3.org/2000/svg" xmlns:xlink="http://www.w3.org/1999/xlink" xml:space="preserve" onload="init(evt)">
<style type="text/css"><![CDATA[
.edge:hover path { stroke: red; }
.edge:hover polygon { stroke: red; fill: red; }
]]></style>
<script type="text/javascript"><![CDATA[
var edges = document.getElementsByTagName('g');
if (edges && edges.length) {
  for (var i=0;i<edges.length;i++) {
    if (edges[i].id.substr(0,4)=='edge') {
      edges[i].setAttribute('class','edge');
    }
  }
}
]]></script>
        <defs>
                <circle id="rim" cx="0" cy="0" r="7"/>
                <circle id="rim2" cx="0" cy="0" r="3.5"/>
                <g id="zoomPlus">
                        <use xlink:href="#rim" fill="#404040">
                                <set attributeName="fill" to="#808080" begin="zoomplus.mouseover" end="zoomplus.mouseout"/>
                        </use>
                        <path d="M-4,0h8M0,-4v8" fill="none" stroke="white" stroke-width="1.5" pointer-events="none"/>
                </g>
                <g id="zoomMin">
                        <use xlink:href="#rim" fill="#404040">
                                <set attributeName="fill" to="#808080" begin="zoomminus.mouseover" end="zoomminus.mouseout"/>
                        </use>
                        <path d="M-4,0h8" fill="none" stroke="white" stroke-width="1.5" pointer-events="none"/>
                </g>
                <g id="dirArrow">
                        <path fill="none" stroke="white" stroke-width="1.5" d="M0,-3.0v7 M-2.5,-0.5L0,-3.0L2.5,-0.5"/>
                </g>
               <g id="resetDef">
                       <use xlink:href="#rim2" fill="#404040">
                               <set attributeName="fill" to="#808080" begin="reset.mouseover" end="reset.mouseout"/>
                       </use>
               </g>
        </defs>

<script type="text/javascript">
var viewWidth = 2202;
var viewHeight = 1131;
var sectionId = 'dynsection-1';
</script>
<script xlink:href="svgpan.js"/>
<svg id="graph" class="graph">
<g id="viewport">
<title>Hydrax::MaterialManager::UnderwaterCompositorListener</title>
<polygon fill="white" stroke="white" points="-4,5 -4,-1127 2199,-1127 2199,5 -4,5"/>
<!-- Node1 -->
<g id="node1" class="node"><title>Node1</title>
<polygon fill="#bfbfbf" stroke="black" points="158,-800 158,-834 316,-834 316,-800 158,-800"/>
<text text-anchor="start" x="166" y="-821" font-family="Helvetica,sans-Serif" font-size="10.00">Hydrax::MaterialManager</text>
<text text-anchor="middle" x="237" y="-808" font-family="Helvetica,sans-Serif" font-size="10.00">::UnderwaterCompositorListener</text>
</g>
<!-- Node3 -->
<g id="node4" class="node"><title>Node3</title>
<a xlink:href="class_hydrax_1_1_material_manager.html" target="_top" xlink:title="Hydrax::MaterialManager">
<polygon fill="white" stroke="black" points="500,-832.5 500,-853.5 626,-853.5 626,-832.5 500,-832.5"/>
<text text-anchor="middle" x="563" y="-840.5" font-family="Helvetica,sans-Serif" font-size="10.00">Hydrax::MaterialManager</text>
</a>
</g>
<!-- Node1&#45;&gt;Node3 -->
<g id="edge110" class="edge"><title>Node1&#45;&gt;Node3</title>
<path fill="none" stroke="#9a32cd" stroke-dasharray="5,2" d="M326.258,-803.545C373.08,-799.036 431.13,-797.48 482,-808 504.503,-812.654 528.444,-823.87 544.413,-832.361"/>
<polygon fill="#9a32cd" stroke="#9a32cd" points="325.73,-800.08 316.139,-804.581 326.444,-807.044 325.73,-800.08"/>
<text text-anchor="middle" x="408" y="-812" font-family="Helvetica,sans-Serif" font-size="10.00"> mUnderwaterCompositorListener</text>
</g>
<!-- Node2 -->
<g id="node2" class="node"><title>Node2</title>
<polygon fill="white" stroke="#bfbfbf" points="11.5,-806.5 11.5,-827.5 62.5,-827.5 62.5,-806.5 11.5,-806.5"/>
<text text-anchor="middle" x="37" y="-814.5" font-family="Helvetica,sans-Serif" font-size="10.00">Listener</text>
</g>
<!-- Node2&#45;&gt;Node1 -->
<g id="edge2" class="edge"><title>Node2&#45;&gt;Node1</title>
<path fill="none" stroke="midnightblue" d="M72.9776,-817C96.6106,-817 128.476,-817 157.834,-817"/>
<polygon fill="midnightblue" stroke="midnightblue" points="72.7371,-813.5 62.7371,-817 72.737,-820.5 72.7371,-813.5"/>
</g>
<!-- Node3&#45;&gt;Node1 -->
<g id="edge4" class="edge"><title>Node3&#45;&gt;Node1</title>
<path fill="none" stroke="#9a32cd" stroke-dasharray="5,2" d="M489.896,-837.17C438.312,-833.056 369.251,-827.548 316.332,-823.327"/>
<polygon fill="#9a32cd" stroke="#9a32cd" points="489.723,-840.667 499.969,-837.973 490.279,-833.689 489.723,-840.667"/>
<text text-anchor="middle" x="408" y="-840" font-family="Helvetica,sans-Serif" font-size="10.00"> mMaterialManager</text>
</g>
<!-- Node4 -->
<g id="node6" class="node"><title>Node4</title>
<a xlink:href="class_hydrax_1_1_hydrax.html" target="_top" xlink:title="Hydrax::Hydrax">
<polygon fill="white" stroke="black" points="758,-803.5 758,-824.5 844,-824.5 844,-803.5 758,-803.5"/>
<text text-anchor="middle" x="801" y="-811.5" font-family="Helvetica,sans-Serif" font-size="10.00">Hydrax::Hydrax</text>
</a>
</g>
<!-- Node3&#45;&gt;Node4 -->
<g id="edge16" class="edge"><title>Node3&#45;&gt;Node4</title>
<path fill="none" stroke="#9a32cd" stroke-dasharray="5,2" d="M636.092,-835.676C664.778,-832.631 697.965,-828.9 728,-825 737.66,-823.746 748.018,-822.267 757.808,-820.807"/>
<polygon fill="#9a32cd" stroke="#9a32cd" points="635.724,-832.195 626.145,-836.723 636.457,-839.157 635.724,-832.195"/>
<text text-anchor="middle" x="686" y="-838" font-family="Helvetica,sans-Serif" font-size="10.00"> mMaterialManager</text>
</g>
<!-- Node4&#45;&gt;Node3 -->
<g id="edge6" class="edge"><title>Node4&#45;&gt;Node3</title>
<path fill="none" stroke="#9a32cd" stroke-dasharray="5,2" d="M747.929,-808.223C717.302,-806.155 678.198,-805.68 644,-812 622.827,-815.913 600.034,-825.128 584.037,-832.5"/>
<polygon fill="#9a32cd" stroke="#9a32cd" points="747.738,-811.719 757.972,-808.978 748.262,-804.738 747.738,-811.719"/>
<text text-anchor="middle" x="686" y="-816" font-family="Helvetica,sans-Serif" font-size="10.00"> mHydrax</text>
</g>
<!-- Node5 -->
<g id="node8" class="node"><title>Node5</title>
<a xlink:href="class_hydrax_1_1_mesh.html" target="_top" xlink:title="Hydrax::Mesh">
<polygon fill="white" stroke="black" points="1014,-777.5 1014,-798.5 1092,-798.5 1092,-777.5 1014,-777.5"/>
<text text-anchor="middle" x="1053" y="-785.5" font-family="Helvetica,sans-Serif" font-size="10.00">Hydrax::Mesh</text>
</a>
</g>
<!-- Node4&#45;&gt;Node5 -->
<g id="edge10" class="edge"><title>Node4&#45;&gt;Node5</title>
<path fill="none" stroke="#9a32cd" stroke-dasharray="5,2" d="M828.288,-798.825C841.635,-792.252 858.197,-785.312 874,-782 921.323,-772.083 977.2,-776.428 1013.78,-781.367"/>
<polygon fill="#9a32cd" stroke="#9a32cd" points="826.495,-795.811 819.195,-803.49 829.69,-802.04 826.495,-795.811"/>
<text text-anchor="middle" x="915" y="-786" font-family="Helvetica,sans-Serif" font-size="10.00"> mHydrax</text>
</g>
<!-- Node8 -->
<g id="node16" class="node"><title>Node8</title>
<a xlink:href="class_hydrax_1_1_decals_manager.html" target="_top" xlink:title="Hydrax::DecalsManager">
<polygon fill="white" stroke="black" points="992,-1087.5 992,-1108.5 1114,-1108.5 1114,-1087.5 992,-1087.5"/>
<text text-anchor="middle" x="1053" y="-1095.5" font-family="Helvetica,sans-Serif" font-size="10.00">Hydrax::DecalsManager</text>
</a>
</g>
<!-- Node4&#45;&gt;Node8 -->
<g id="edge20" class="edge"><title>Node4&#45;&gt;Node8</title>
<path fill="none" stroke="#9a32cd" stroke-dasharray="5,2" d="M805.012,-834.798C815.186,-885.49 843.37,-1013.43 874,-1043 901.231,-1069.29 919.796,-1054.96 956,-1066 978.22,-1072.78 1003.1,-1081 1022.1,-1087.41"/>
<polygon fill="#9a32cd" stroke="#9a32cd" points="808.389,-833.832 803.019,-824.698 801.521,-835.187 808.389,-833.832"/>
<text text-anchor="middle" x="915" y="-1070" font-family="Helvetica,sans-Serif" font-size="10.00"> mHydrax</text>
</g>
<!-- Node9 -->
<g id="node19" class="node"><title>Node9</title>
<a xlink:href="class_hydrax_1_1_rtt_manager.html" target="_top" xlink:title="Hydrax::RttManager">
<polygon fill="white" stroke="black" points="1000.5,-388.5 1000.5,-409.5 1105.5,-409.5 1105.5,-388.5 1000.5,-388.5"/>
<text text-anchor="middle" x="1053" y="-396.5" font-family="Helvetica,sans-Serif" font-size="10.00">Hydrax::RttManager</text>
</a>
</g>
<!-- Node4&#45;&gt;Node9 -->
<g id="edge46" class="edge"><title>Node4&#45;&gt;Node9</title>
<path fill="none" stroke="#9a32cd" stroke-dasharray="5,2" d="M803.95,-793.339C810.77,-750.535 830.489,-650.146 874,-578 919.734,-502.167 1004.37,-434.814 1038.33,-409.573"/>
<polygon fill="#9a32cd" stroke="#9a32cd" points="800.467,-792.961 802.423,-803.374 807.387,-794.014 800.467,-792.961"/>
<text text-anchor="middle" x="915" y="-582" font-family="Helvetica,sans-Serif" font-size="10.00"> mHydrax</text>
</g>
<!-- Node20 -->
<g id="node52" class="node"><title>Node20</title>
<a xlink:href="class_hydrax_1_1_hydrax_1_1_device_listener.html" target="_top" xlink:title="Hydrax::Hydrax::DeviceListener">
<polygon fill="white" stroke="black" points="974.5,-1019.5 974.5,-1040.5 1131.5,-1040.5 1131.5,-1019.5 974.5,-1019.5"/>
<text text-anchor="middle" x="1053" y="-1027.5" font-family="Helvetica,sans-Serif" font-size="10.00">Hydrax::Hydrax::DeviceListener</text>
</a>
</g>
<!-- Node4&#45;&gt;Node20 -->
<g id="edge70" class="edge"><title>Node4&#45;&gt;Node20</title>
<path fill="none" stroke="#9a32cd" stroke-dasharray="5,2" d="M802.081,-834.594C805.404,-875.041 818.935,-964.679 874,-1008 889.626,-1020.29 933.801,-1025.8 974.354,-1028.24"/>
<polygon fill="#9a32cd" stroke="#9a32cd" points="805.569,-834.305 801.388,-824.57 798.586,-834.788 805.569,-834.305"/>
<text text-anchor="middle" x="915" y="-1030" font-family="Helvetica,sans-Serif" font-size="10.00"> mHydrax</text>
</g>
<!-- Node24 -->
<g id="node62" class="node"><title>Node24</title>
<a xlink:href="class_hydrax_1_1_g_p_u_normal_map_manager.html" target="_top" xlink:title="Hydrax::GPUNormalMapManager">
<polygon fill="white" stroke="black" points="1286,-640.5 1286,-661.5 1450,-661.5 1450,-640.5 1286,-640.5"/>
<text text-anchor="middle" x="1368" y="-648.5" font-family="Helvetica,sans-Serif" font-size="10.00">Hydrax::GPUNormalMapManager</text>
</a>
</g>
<!-- Node4&#45;&gt;Node24 -->
<g id="edge80" class="edge"><title>Node4&#45;&gt;Node24</title>
<path fill="none" stroke="#9a32cd" stroke-dasharray="5,2" d="M806.421,-793.163C815.403,-762.685 836.238,-706.095 874,-674 909.662,-643.69 927.791,-648.427 974,-641 1081.92,-623.653 1208.58,-631.85 1288.56,-640.466"/>
<polygon fill="#9a32cd" stroke="#9a32cd" points="802.961,-792.543 803.639,-803.116 809.702,-794.428 802.961,-792.543"/>
<text text-anchor="middle" x="1053" y="-645" font-family="Helvetica,sans-Serif" font-size="10.00"> mHydrax</text>
</g>
<!-- Node25 -->
<g id="node66" class="node"><title>Node25</title>
<a xlink:href="class_hydrax_1_1_cfg_file_manager.html" target="_top" xlink:title="Hydrax::CfgFileManager">
<polygon fill="white" stroke="black" points="991.5,-931.5 991.5,-952.5 1114.5,-952.5 1114.5,-931.5 991.5,-931.5"/>
<text text-anchor="middle" x="1053" y="-939.5" font-family="Helvetica,sans-Serif" font-size="10.00">Hydrax::CfgFileManager</text>
</a>
</g>
<!-- Node4&#45;&gt;Node25 -->
<g id="edge86" class="edge"><title>Node4&#45;&gt;Node25</title>
<path fill="none" stroke="#9a32cd" stroke-dasharray="5,2" d="M814.004,-833.012C827.14,-850.801 849.021,-876.841 874,-892 885.792,-899.156 961.697,-919.061 1010.8,-931.491"/>
<polygon fill="#9a32cd" stroke="#9a32cd" points="816.626,-830.661 807.962,-824.563 810.932,-834.733 816.626,-830.661"/>
<text text-anchor="middle" x="915" y="-920" font-family="Helvetica,sans-Serif" font-size="10.00"> mHydrax</text>
</g>
<!-- Node26 -->
<g id="node69" class="node"><title>Node26</title>
<a xlink:href="class_hydrax_1_1_god_rays_manager.html" target="_top" xlink:title="Hydrax::GodRaysManager">
<polygon fill="white" stroke="black" points="1798.5,-670.5 1798.5,-691.5 1931.5,-691.5 1931.5,-670.5 1798.5,-670.5"/>
<text text-anchor="middle" x="1865" y="-678.5" font-family="Helvetica,sans-Serif" font-size="10.00">Hydrax::GodRaysManager</text>
</a>
</g>
<!-- Node4&#45;&gt;Node26 -->
<g id="edge104" class="edge"><title>Node4&#45;&gt;Node26</title>
<path fill="none" stroke="#9a32cd" stroke-dasharray="5,2" d="M816.179,-795.346C829.64,-780.268 850.732,-759.969 874,-750 915.018,-732.426 929.549,-744.924 974,-741 1112.65,-728.762 1147.17,-723.961 1286,-714 1471.29,-700.706 1690.24,-689.433 1798.09,-684.174"/>
<polygon fill="#9a32cd" stroke="#9a32cd" points="813.389,-793.223 809.521,-803.087 818.696,-797.788 813.389,-793.223"/>
<text text-anchor="middle" x="1368" y="-718" font-family="Helvetica,sans-Serif" font-size="10.00"> mHydrax</text>
</g>
<!-- Node30 -->
<g id="node82" class="node"><title>Node30</title>
<a xlink:href="class_hydrax_1_1_texture_manager.html" target="_top" xlink:title="Hydrax::TextureManager">
<polygon fill="white" stroke="black" points="990.5,-857.5 990.5,-878.5 1115.5,-878.5 1115.5,-857.5 990.5,-857.5"/>
<text text-anchor="middle" x="1053" y="-865.5" font-family="Helvetica,sans-Serif" font-size="10.00">Hydrax::TextureManager</text>
</a>
</g>
<!-- Node4&#45;&gt;Node30 -->
<g id="edge108" class="edge"><title>Node4&#45;&gt;Node30</title>
<path fill="none" stroke="#9a32cd" stroke-dasharray="5,2" d="M853.931,-825.222C883.889,-831.585 922.044,-839.71 956,-847 971.836,-850.4 989.12,-854.134 1004.65,-857.499"/>
<polygon fill="#9a32cd" stroke="#9a32cd" points="854.613,-821.789 844.104,-823.136 853.159,-828.636 854.613,-821.789"/>
<text text-anchor="middle" x="915" y="-851" font-family="Helvetica,sans-Serif" font-size="10.00"> mHydrax</text>
</g>
<!-- Node5&#45;&gt;Node4 -->
<g id="edge8" class="edge"><title>Node5&#45;&gt;Node4</title>
<path fill="none" stroke="#9a32cd" stroke-dasharray="5,2" d="M1003.74,-793.083C957.278,-797.876 888.338,-804.989 844.034,-809.56"/>
<polygon fill="#9a32cd" stroke="#9a32cd" points="1004.28,-796.545 1013.87,-792.037 1003.57,-789.582 1004.28,-796.545"/>
<text text-anchor="middle" x="915" y="-810" font-family="Helvetica,sans-Serif" font-size="10.00"> mMesh</text>
</g>
<!-- Node6 -->
<g id="node11" class="node"><title>Node6</title>
<a xlink:href="struct_hydrax_1_1_mesh_1_1_options.html" target="_top" xlink:title="Hydrax::Mesh::Options">
<polygon fill="white" stroke="black" points="178,-684.5 178,-705.5 296,-705.5 296,-684.5 178,-684.5"/>
<text text-anchor="middle" x="237" y="-692.5" font-family="Helvetica,sans-Serif" font-size="10.00">Hydrax::Mesh::Options</text>
</a>
</g>
<!-- Node6&#45;&gt;Node5 -->
<g id="edge12" class="edge"><title>Node6&#45;&gt;Node5</title>
<path fill="none" stroke="#9a32cd" stroke-dasharray="5,2" d="M306.203,-697.53C355.334,-699.673 422.808,-703.321 482,-709 682.732,-728.258 921.226,-766.143 1013.67,-781.402"/>
<polygon fill="#9a32cd" stroke="#9a32cd" points="306.147,-694.024 296.007,-697.095 305.849,-701.018 306.147,-694.024"/>
<text text-anchor="middle" x="686" y="-742" font-family="Helvetica,sans-Serif" font-size="10.00"> mOptions</text>
</g>
<!-- Node22 -->
<g id="node57" class="node"><title>Node22</title>
<a xlink:href="class_hydrax_1_1_module_1_1_module.html" target="_top" xlink:title="Hydrax::Module::Module">
<polygon fill="white" stroke="black" points="501.5,-753.5 501.5,-774.5 624.5,-774.5 624.5,-753.5 501.5,-753.5"/>
<text text-anchor="middle" x="563" y="-761.5" font-family="Helvetica,sans-Serif" font-size="10.00">Hydrax::Module::Module</text>
</a>
</g>
<!-- Node6&#45;&gt;Node22 -->
<g id="edge76" class="edge"><title>Node6&#45;&gt;Node22</title>
<path fill="none" stroke="#9a32cd" stroke-dasharray="5,2" d="M263.042,-710.779C282.017,-721.474 308.722,-734.909 334,-742 389.184,-757.48 454.456,-762.518 501.167,-763.957"/>
<polygon fill="#9a32cd" stroke="#9a32cd" points="264.541,-707.603 254.13,-705.636 261.042,-713.665 264.541,-707.603"/>
<text text-anchor="middle" x="408" y="-768" font-family="Helvetica,sans-Serif" font-size="10.00"> mMeshOptions</text>
</g>
<!-- Node7 -->
<g id="node13" class="node"><title>Node7</title>
<a xlink:href="struct_hydrax_1_1_size.html" target="_top" xlink:title="Hydrax::Size">
<polygon fill="white" stroke="black" points="0,-569.5 0,-590.5 74,-590.5 74,-569.5 0,-569.5"/>
<text text-anchor="middle" x="37" y="-577.5" font-family="Helvetica,sans-Serif" font-size="10.00">Hydrax::Size</text>
</a>
</g>
<!-- Node7&#45;&gt;Node6 -->
<g id="edge14" class="edge"><title>Node7&#45;&gt;Node6</title>
<path fill="none" stroke="#9a32cd" stroke-dasharray="5,2" d="M64.1688,-595.787C88.6723,-610.008 125.713,-631.465 158,-650 178.671,-661.866 202.442,-675.39 218.464,-684.488"/>
<polygon fill="#9a32cd" stroke="#9a32cd" points="65.8329,-592.706 55.4274,-590.712 62.3182,-598.76 65.8329,-592.706"/>
<text text-anchor="middle" x="116" y="-643" font-family="Helvetica,sans-Serif" font-size="10.00"> MeshSize</text>
</g>
<!-- Node10 -->
<g id="node21" class="node"><title>Node10</title>
<a xlink:href="struct_hydrax_1_1_rtt_manager_1_1_rtt_options.html" target="_top" xlink:title="Hydrax::RttManager\l::RttOptions">
<polygon fill="white" stroke="black" points="355.5,-496 355.5,-530 460.5,-530 460.5,-496 355.5,-496"/>
<text text-anchor="start" x="363.5" y="-517" font-family="Helvetica,sans-Serif" font-size="10.00">Hydrax::RttManager</text>
<text text-anchor="middle" x="408" y="-504" font-family="Helvetica,sans-Serif" font-size="10.00">::RttOptions</text>
</a>
</g>
<!-- Node7&#45;&gt;Node10 -->
<g id="edge26" class="edge"><title>Node7&#45;&gt;Node10</title>
<path fill="none" stroke="#9a32cd" stroke-dasharray="5,2" d="M84.4903,-571.424C154.001,-558.87 283.019,-535.571 355.349,-522.508"/>
<polygon fill="#9a32cd" stroke="#9a32cd" points="83.4903,-568.047 74.2715,-573.269 84.7344,-574.936 83.4903,-568.047"/>
<text text-anchor="middle" x="116" y="-575" font-family="Helvetica,sans-Serif" font-size="10.00"> Size_</text>
</g>
<!-- Node8&#45;&gt;Node4 -->
<g id="edge18" class="edge"><title>Node8&#45;&gt;Node4</title>
<path fill="none" stroke="#9a32cd" stroke-dasharray="5,2" d="M988.451,-1109.52C950.996,-1112.43 905.206,-1109 874,-1083 832.549,-1048.46 807.921,-869.977 802.26,-824.536"/>
<polygon fill="#9a32cd" stroke="#9a32cd" points="989.149,-1112.97 998.775,-1108.54 988.491,-1106 989.149,-1112.97"/>
<text text-anchor="middle" x="915" y="-1114" font-family="Helvetica,sans-Serif" font-size="10.00"> mDecalsManager</text>
</g>
<!-- Node9&#45;&gt;Node4 -->
<g id="edge22" class="edge"><title>Node9&#45;&gt;Node4</title>
<path fill="none" stroke="#9a32cd" stroke-dasharray="5,2" d="M1048.63,-419.783C1039.11,-459.866 1012.63,-548.035 956,-595 926.864,-619.162 901.853,-592.37 874,-618 817.354,-670.126 804.465,-770.333 801.708,-803.24"/>
<polygon fill="#9a32cd" stroke="#9a32cd" points="1052.09,-420.352 1050.88,-409.826 1045.26,-418.81 1052.09,-420.352"/>
<text text-anchor="middle" x="915" y="-622" font-family="Helvetica,sans-Serif" font-size="10.00"> mRttManager</text>
</g>
<!-- Node11 -->
<g id="node24" class="node"><title>Node11</title>
<a xlink:href="class_hydrax_1_1_rtt_manager_1_1_c_reflection_listener.html" target="_top" xlink:title="Hydrax::RttManager\l::CReflectionListener">
<polygon fill="white" stroke="black" points="1614.5,-249 1614.5,-283 1723.5,-283 1723.5,-249 1614.5,-249"/>
<text text-anchor="start" x="1622.5" y="-270" font-family="Helvetica,sans-Serif" font-size="10.00">Hydrax::RttManager</text>
<text text-anchor="middle" x="1669" y="-257" font-family="Helvetica,sans-Serif" font-size="10.00">::CReflectionListener</text>
</a>
</g>
<!-- Node9&#45;&gt;Node11 -->
<g id="edge32" class="edge"><title>Node9&#45;&gt;Node11</title>
<path fill="none" stroke="#9a32cd" stroke-dasharray="5,2" d="M1100.31,-385.562C1116.09,-381.151 1133.78,-376.284 1150,-372 1210.24,-356.089 1225.14,-351.317 1286,-338 1402.33,-312.549 1539.73,-288.062 1614.25,-275.243"/>
<polygon fill="#9a32cd" stroke="#9a32cd" points="1098.93,-382.313 1090.25,-388.383 1100.82,-389.052 1098.93,-382.313"/>
<text text-anchor="middle" x="1368" y="-342" font-family="Helvetica,sans-Serif" font-size="10.00"> mRttManager</text>
</g>
<!-- Node13 -->
<g id="node29" class="node"><title>Node13</title>
<a xlink:href="class_hydrax_1_1_rtt_manager_1_1_c_reflection_listener_1_1_c_reflection_queue_listener.html" target="_top" xlink:title="Hydrax::RttManager\l::CReflectionListener\l::CReflectionQueueListener">
<polygon fill="white" stroke="black" points="1299.5,-114.5 1299.5,-161.5 1436.5,-161.5 1436.5,-114.5 1299.5,-114.5"/>
<text text-anchor="start" x="1307.5" y="-148.5" font-family="Helvetica,sans-Serif" font-size="10.00">Hydrax::RttManager</text>
<text text-anchor="start" x="1307.5" y="-135.5" font-family="Helvetica,sans-Serif" font-size="10.00">::CReflectionListener</text>
<text text-anchor="middle" x="1368" y="-122.5" font-family="Helvetica,sans-Serif" font-size="10.00">::CReflectionQueueListener</text>
</a>
</g>
<!-- Node9&#45;&gt;Node13 -->
<g id="edge38" class="edge"><title>Node9&#45;&gt;Node13</title>
<path fill="none" stroke="#9a32cd" stroke-dasharray="5,2" d="M1054.29,-378.278C1058.51,-330.098 1076.29,-210.505 1150,-156 1192.37,-124.673 1252.85,-122.016 1299.36,-126.154"/>
<polygon fill="#9a32cd" stroke="#9a32cd" points="1050.79,-378.181 1053.51,-388.419 1057.77,-378.715 1050.79,-378.181"/>
<text text-anchor="middle" x="1209" y="-160" font-family="Helvetica,sans-Serif" font-size="10.00"> mRttManager</text>
</g>
<!-- Node15 -->
<g id="node34" class="node"><title>Node15</title>
<a xlink:href="class_hydrax_1_1_rtt_manager_1_1_c_refraction_listener.html" target="_top" xlink:title="Hydrax::RttManager\l::CRefractionListener">
<polygon fill="white" stroke="black" points="1313,-479 1313,-513 1423,-513 1423,-479 1313,-479"/>
<text text-anchor="start" x="1321" y="-500" font-family="Helvetica,sans-Serif" font-size="10.00">Hydrax::RttManager</text>
<text text-anchor="middle" x="1368" y="-487" font-family="Helvetica,sans-Serif" font-size="10.00">::CRefractionListener</text>
</a>
</g>
<!-- Node9&#45;&gt;Node15 -->
<g id="edge44" class="edge"><title>Node9&#45;&gt;Node15</title>
<path fill="none" stroke="#9a32cd" stroke-dasharray="5,2" d="M1079.34,-414.587C1098.41,-425.297 1125.1,-439.131 1150,-448 1203.85,-467.184 1268.01,-480.196 1312.73,-487.78"/>
<polygon fill="#9a32cd" stroke="#9a32cd" points="1081.05,-411.534 1070.63,-409.615 1077.58,-417.613 1081.05,-411.534"/>
<text text-anchor="middle" x="1209" y="-484" font-family="Helvetica,sans-Serif" font-size="10.00"> mRttManager</text>
</g>
<!-- Node16 -->
<g id="node39" class="node"><title>Node16</title>
<a xlink:href="class_hydrax_1_1_rtt_manager_1_1_c_g_p_u_normal_map_listener.html" target="_top" xlink:title="Hydrax::RttManager\l::CGPUNormalMapListener">
<polygon fill="white" stroke="black" points="1299.5,-397 1299.5,-431 1436.5,-431 1436.5,-397 1299.5,-397"/>
<text text-anchor="start" x="1307.5" y="-418" font-family="Helvetica,sans-Serif" font-size="10.00">Hydrax::RttManager</text>
<text text-anchor="middle" x="1368" y="-405" font-family="Helvetica,sans-Serif" font-size="10.00">::CGPUNormalMapListener</text>
</a>
</g>
<!-- Node9&#45;&gt;Node16 -->
<g id="edge52" class="edge"><title>Node9&#45;&gt;Node16</title>
<path fill="none" stroke="#9a32cd" stroke-dasharray="5,2" d="M1091.7,-412.875C1109.25,-418.461 1130.41,-424.23 1150,-427 1199.74,-434.036 1256.39,-430.306 1299.47,-425.07"/>
<polygon fill="#9a32cd" stroke="#9a32cd" points="1092.42,-409.427 1081.82,-409.632 1090.23,-416.077 1092.42,-409.427"/>
<text text-anchor="middle" x="1209" y="-435" font-family="Helvetica,sans-Serif" font-size="10.00"> mRttManager</text>
</g>
<!-- Node17 -->
<g id="node43" class="node"><title>Node17</title>
<a xlink:href="class_hydrax_1_1_rtt_manager_1_1_c_depth_listener.html" target="_top" xlink:title="Hydrax::RttManager\l::CDepthListener">
<polygon fill="white" stroke="black" points="1315.5,-180 1315.5,-214 1420.5,-214 1420.5,-180 1315.5,-180"/>
<text text-anchor="start" x="1323.5" y="-201" font-family="Helvetica,sans-Serif" font-size="10.00">Hydrax::RttManager</text>
<text text-anchor="middle" x="1368" y="-188" font-family="Helvetica,sans-Serif" font-size="10.00">::CDepthListener</text>
</a>
</g>
<!-- Node9&#45;&gt;Node17 -->
<g id="edge58" class="edge"><title>Node9&#45;&gt;Node17</title>
<path fill="none" stroke="#9a32cd" stroke-dasharray="5,2" d="M1057.22,-378.527C1066.44,-339.582 1092.33,-255.307 1150,-217 1176.2,-199.599 1259.63,-196.338 1315.35,-196.207"/>
<polygon fill="#9a32cd" stroke="#9a32cd" points="1053.77,-377.918 1055.01,-388.441 1060.6,-379.444 1053.77,-377.918"/>
<text text-anchor="middle" x="1209" y="-221" font-family="Helvetica,sans-Serif" font-size="10.00"> mRttManager</text>
</g>
<!-- Node19 -->
<g id="node48" class="node"><title>Node19</title>
<a xlink:href="class_hydrax_1_1_rtt_manager_1_1_c_depth_reflection_listener.html" target="_top" xlink:title="Hydrax::RttManager\l::CDepthReflectionListener">
<polygon fill="white" stroke="black" points="1300.5,-235 1300.5,-269 1435.5,-269 1435.5,-235 1300.5,-235"/>
<text text-anchor="start" x="1308.5" y="-256" font-family="Helvetica,sans-Serif" font-size="10.00">Hydrax::RttManager</text>
<text text-anchor="middle" x="1368" y="-243" font-family="Helvetica,sans-Serif" font-size="10.00">::CDepthReflectionListener</text>
</a>
</g>
<!-- Node9&#45;&gt;Node19 -->
<g id="edge64" class="edge"><title>Node9&#45;&gt;Node19</title>
<path fill="none" stroke="#9a32cd" stroke-dasharray="5,2" d="M1059.58,-378.988C1071.58,-346.146 1100.48,-281.789 1150,-255 1195.61,-230.327 1254.84,-231.202 1300.04,-237.348"/>
<polygon fill="#9a32cd" stroke="#9a32cd" points="1056.26,-377.861 1056.27,-388.456 1062.87,-380.17 1056.26,-377.861"/>
<text text-anchor="middle" x="1209" y="-259" font-family="Helvetica,sans-Serif" font-size="10.00"> mRttManager</text>
</g>
<!-- Node9&#45;&gt;Node24 -->
<g id="edge82" class="edge"><title>Node9&#45;&gt;Node24</title>
<path fill="none" stroke="#9a32cd" stroke-dasharray="5,2" d="M1062.02,-418.983C1076.6,-449.269 1107.97,-506.966 1150,-542 1194.02,-578.698 1226.72,-554.246 1268,-594 1281.17,-606.685 1271.76,-619.521 1286,-631 1290.68,-634.771 1295.96,-637.848 1301.53,-640.355"/>
<polygon fill="#9a32cd" stroke="#9a32cd" points="1065.15,-417.405 1057.74,-409.836 1058.81,-420.376 1065.15,-417.405"/>
<text text-anchor="middle" x="1209" y="-598" font-family="Helvetica,sans-Serif" font-size="10.00"> mRttManager</text>
</g>
<!-- Node10&#45;&gt;Node9 -->
<g id="edge24" class="edge"><title>Node10&#45;&gt;Node9</title>
<path fill="none" stroke="#9a32cd" stroke-dasharray="5,2" d="M470.447,-501.963C597.135,-479.571 882.321,-429.166 1000.33,-408.308"/>
<polygon fill="#9a32cd" stroke="#9a32cd" points="469.748,-498.532 460.51,-503.719 470.966,-505.425 469.748,-498.532"/>
<text text-anchor="middle" x="686" y="-474" font-family="Helvetica,sans-Serif" font-size="10.00"> mRttOptions</text>
</g>
<!-- Node11&#45;&gt;Node9 -->
<g id="edge28" class="edge"><title>Node11&#45;&gt;Node9</title>
<path fill="none" stroke="#9a32cd" stroke-dasharray="5,2" d="M1648.19,-290.858C1634.82,-305.064 1616.21,-321.828 1596,-331 1573.8,-341.073 1238.15,-378.705 1105.94,-393.23"/>
<polygon fill="#9a32cd" stroke="#9a32cd" points="1650.93,-293.05 1655.06,-283.293 1645.75,-288.345 1650.93,-293.05"/>
<text text-anchor="middle" x="1368" y="-377" font-family="Helvetica,sans-Serif" font-size="10.00"> mReflectionListener</text>
</g>
<!-- Node12 -->
<g id="node26" class="node"><title>Node12</title>
<polygon fill="white" stroke="#bfbfbf" points="998,-136.5 998,-157.5 1108,-157.5 1108,-136.5 998,-136.5"/>
<text text-anchor="middle" x="1053" y="-144.5" font-family="Helvetica,sans-Serif" font-size="10.00">RenderTargetListener</text>
</g>
<!-- Node12&#45;&gt;Node11 -->
<g id="edge30" class="edge"><title>Node12&#45;&gt;Node11</title>
<path fill="none" stroke="midnightblue" d="M1094.58,-133.563C1167.49,-111.993 1322.76,-74.9633 1450,-105 1520.61,-121.668 1539.18,-132.893 1596,-178 1621.96,-198.611 1645.12,-229.78 1658.08,-248.96"/>
<polygon fill="midnightblue" stroke="midnightblue" points="1093.41,-130.259 1084.85,-136.496 1095.43,-136.961 1093.41,-130.259"/>
</g>
<!-- Node12&#45;&gt;Node15 -->
<g id="edge42" class="edge"><title>Node12&#45;&gt;Node15</title>
<path fill="none" stroke="midnightblue" d="M1059.81,-167.29C1080.26,-227.963 1140.28,-404.351 1150,-413 1190.27,-448.826 1217.71,-421.614 1268,-441 1294.07,-451.048 1321.76,-466.712 1341.37,-478.758"/>
<polygon fill="midnightblue" stroke="midnightblue" points="1063.08,-166.037 1056.58,-157.675 1056.45,-168.269 1063.08,-166.037"/>
</g>
<!-- Node12&#45;&gt;Node16 -->
<g id="edge50" class="edge"><title>Node12&#45;&gt;Node16</title>
<path fill="none" stroke="midnightblue" d="M1061.75,-167.1C1076.34,-198.83 1108.2,-261.115 1150,-302 1197.15,-348.119 1267.12,-379.449 1314.99,-396.992"/>
<polygon fill="midnightblue" stroke="midnightblue" points="1064.77,-165.273 1057.48,-157.586 1058.38,-168.142 1064.77,-165.273"/>
</g>
<!-- Node12&#45;&gt;Node19 -->
<g id="edge62" class="edge"><title>Node12&#45;&gt;Node19</title>
<path fill="none" stroke="midnightblue" d="M1118.43,-143.278C1173.13,-141.578 1245.67,-143.067 1268,-161 1290.37,-178.967 1266.3,-202.137 1286,-223 1290.46,-227.721 1295.73,-231.674 1301.42,-234.985"/>
<polygon fill="midnightblue" stroke="midnightblue" points="1117.97,-139.792 1108.1,-143.643 1118.21,-146.788 1117.97,-139.792"/>
</g>
<!-- Node29 -->
<g id="node77" class="node"><title>Node29</title>
<a xlink:href="class_hydrax_1_1_god_rays_manager_1_1_depth_map_listener.html" target="_top" xlink:title="Hydrax::GodRaysManager\l::DepthMapListener">
<polygon fill="white" stroke="black" points="2060.5,-628 2060.5,-662 2193.5,-662 2193.5,-628 2060.5,-628"/>
<text text-anchor="start" x="2068.5" y="-649" font-family="Helvetica,sans-Serif" font-size="10.00">Hydrax::GodRaysManager</text>
<text text-anchor="middle" x="2127" y="-636" font-family="Helvetica,sans-Serif" font-size="10.00">::DepthMapListener</text>
</a>
</g>
<!-- Node12&#45;&gt;Node29 -->
<g id="edge100" class="edge"><title>Node12&#45;&gt;Node29</title>
<path fill="none" stroke="midnightblue" d="M1078.65,-131.226C1131,-100.586 1254.77,-36 1368,-36 1368,-36 1368,-36 1865,-36 1997.51,-36 2103.6,-528.648 2123.6,-627.755"/>
<polygon fill="midnightblue" stroke="midnightblue" points="1076.82,-128.241 1070.01,-136.357 1080.4,-134.26 1076.82,-128.241"/>
</g>
<!-- Node13&#45;&gt;Node11 -->
<g id="edge34" class="edge"><title>Node13&#45;&gt;Node11</title>
<path fill="none" stroke="#9a32cd" stroke-dasharray="5,2" d="M1436.57,-165.436C1441.12,-167.306 1445.63,-169.173 1450,-171 1513.47,-197.534 1586.71,-229.601 1630.36,-248.869"/>
<polygon fill="#9a32cd" stroke="#9a32cd" points="1437.78,-162.151 1427.2,-161.605 1435.13,-168.63 1437.78,-162.151"/>
<text text-anchor="middle" x="1532" y="-236" font-family="Helvetica,sans-Serif" font-size="10.00"> mCReflectionQueueListener</text>
</g>
<!-- Node14 -->
<g id="node31" class="node"><title>Node14</title>
<polygon fill="white" stroke="#bfbfbf" points="984,-0.5 984,-21.5 1122,-21.5 1122,-0.5 984,-0.5"/>
<text text-anchor="middle" x="1053" y="-8.5" font-family="Helvetica,sans-Serif" font-size="10.00">Ogre::RenderQueueListener</text>
</g>
<!-- Node14&#45;&gt;Node13 -->
<g id="edge36" class="edge"><title>Node14&#45;&gt;Node13</title>
<path fill="none" stroke="midnightblue" d="M1132.55,-13.5552C1174.58,-17.5099 1226.01,-26.6091 1268,-47 1300.73,-62.8948 1330.48,-92.9019 1348.87,-114.105"/>
<polygon fill="midnightblue" stroke="midnightblue" points="1132.62,-10.0483 1122.36,-12.6784 1132.02,-17.0225 1132.62,-10.0483"/>
</g>
<!-- Node15&#45;&gt;Node9 -->
<g id="edge40" class="edge"><title>Node15&#45;&gt;Node9</title>
<path fill="none" stroke="#9a32cd" stroke-dasharray="5,2" d="M1304.43,-515.459C1259.34,-525.676 1198.48,-532.015 1150,-510 1103.4,-488.835 1070.41,-432.991 1058.2,-409.572"/>
<polygon fill="#9a32cd" stroke="#9a32cd" points="1305.46,-518.811 1314.38,-513.085 1303.84,-512.002 1305.46,-518.811"/>
<text text-anchor="middle" x="1209" y="-529" font-family="Helvetica,sans-Serif" font-size="10.00"> mRefractionListener</text>
</g>
<!-- Node16&#45;&gt;Node9 -->
<g id="edge48" class="edge"><title>Node16&#45;&gt;Node9</title>
<path fill="none" stroke="#9a32cd" stroke-dasharray="5,2" d="M1289.27,-410.251C1231.95,-407.521 1155.87,-403.899 1105.72,-401.511"/>
<polygon fill="#9a32cd" stroke="#9a32cd" points="1289.23,-413.753 1299.39,-410.733 1289.56,-406.761 1289.23,-413.753"/>
<text text-anchor="middle" x="1209" y="-414" font-family="Helvetica,sans-Serif" font-size="10.00"> mGPUNormalMapListener</text>
</g>
<!-- Node17&#45;&gt;Node9 -->
<g id="edge54" class="edge"><title>Node17&#45;&gt;Node9</title>
<path fill="none" stroke="#9a32cd" stroke-dasharray="5,2" d="M1305.35,-184.165C1250.15,-174.32 1174.79,-164.896 1150,-181 1074.96,-229.741 1057.5,-351.429 1053.87,-388.266"/>
<polygon fill="#9a32cd" stroke="#9a32cd" points="1304.94,-187.647 1315.4,-186.002 1306.2,-180.761 1304.94,-187.647"/>
<text text-anchor="middle" x="1209" y="-185" font-family="Helvetica,sans-Serif" font-size="10.00"> mDepthListener</text>
</g>
<!-- Node18 -->
<g id="node45" class="node"><title>Node18</title>
<polygon fill="white" stroke="#bfbfbf" points="984.5,-50.5 984.5,-71.5 1121.5,-71.5 1121.5,-50.5 984.5,-50.5"/>
<text text-anchor="middle" x="1053" y="-58.5" font-family="Helvetica,sans-Serif" font-size="10.00">Ogre::RenderTargetListener</text>
</g>
<!-- Node18&#45;&gt;Node17 -->
<g id="edge56" class="edge"><title>Node18&#45;&gt;Node17</title>
<path fill="none" stroke="midnightblue" d="M1131.63,-54.2288C1176.96,-54.7169 1231.93,-63.4576 1268,-97 1292.79,-120.048 1262.9,-146.261 1286,-171 1293.85,-179.405 1304.39,-185.106 1315.3,-188.969"/>
<polygon fill="midnightblue" stroke="midnightblue" points="1131.52,-50.729 1121.53,-54.2526 1131.53,-57.729 1131.52,-50.729"/>
</g>
<!-- Node19&#45;&gt;Node9 -->
<g id="edge60" class="edge"><title>Node19&#45;&gt;Node9</title>
<path fill="none" stroke="#9a32cd" stroke-dasharray="5,2" d="M1290.31,-265.356C1247.19,-274.872 1193.61,-290.271 1150,-314 1113.02,-334.12 1078.04,-370.53 1062.07,-388.453"/>
<polygon fill="#9a32cd" stroke="#9a32cd" points="1291.15,-268.756 1300.19,-263.238 1289.68,-261.912 1291.15,-268.756"/>
<text text-anchor="middle" x="1209" y="-318" font-family="Helvetica,sans-Serif" font-size="10.00"> mDepthReflectionListener</text>
</g>
<!-- Node20&#45;&gt;Node4 -->
<g id="edge66" class="edge"><title>Node20&#45;&gt;Node4</title>
<path fill="none" stroke="#9a32cd" stroke-dasharray="5,2" d="M1015.65,-1015.8C997.713,-1009.17 975.853,-1001.36 956,-995 919.952,-983.458 902.81,-996.55 874,-972 826.391,-931.432 808.046,-853.166 802.767,-824.691"/>
<polygon fill="#9a32cd" stroke="#9a32cd" points="1014.58,-1019.14 1025.17,-1019.35 1017.02,-1012.58 1014.58,-1019.14"/>
<text text-anchor="middle" x="915" y="-999" font-family="Helvetica,sans-Serif" font-size="10.00"> mDeviceListener</text>
</g>
<!-- Node21 -->
<g id="node54" class="node"><title>Node21</title>
<polygon fill="white" stroke="#bfbfbf" points="746.5,-1077 746.5,-1111 855.5,-1111 855.5,-1077 746.5,-1077"/>
<text text-anchor="start" x="754.5" y="-1098" font-family="Helvetica,sans-Serif" font-size="10.00">Ogre::RenderSystem</text>
<text text-anchor="middle" x="801" y="-1085" font-family="Helvetica,sans-Serif" font-size="10.00">::Listener</text>
</g>
<!-- Node21&#45;&gt;Node20 -->
<g id="edge68" class="edge"><title>Node21&#45;&gt;Node20</title>
<path fill="none" stroke="midnightblue" d="M865.883,-1093.69C894.041,-1092.14 927.117,-1088.4 956,-1080 986.563,-1071.11 1018.79,-1052.36 1037.33,-1040.51"/>
<polygon fill="midnightblue" stroke="midnightblue" points="865.573,-1090.2 855.748,-1094.16 865.901,-1097.19 865.573,-1090.2"/>
</g>
<!-- Node22&#45;&gt;Node4 -->
<g id="edge72" class="edge"><title>Node22&#45;&gt;Node4</title>
<path fill="none" stroke="#9a32cd" stroke-dasharray="5,2" d="M634.739,-772.016C663.907,-776.013 697.792,-781.603 728,-789 743.484,-792.792 760.347,-798.46 773.96,-803.442"/>
<polygon fill="#9a32cd" stroke="#9a32cd" points="635.007,-768.521 624.632,-770.669 634.082,-775.46 635.007,-768.521"/>
<text text-anchor="middle" x="686" y="-793" font-family="Helvetica,sans-Serif" font-size="10.00"> mModule</text>
</g>
<!-- Node23 -->
<g id="node59" class="node"><title>Node23</title>
<a xlink:href="class_hydrax_1_1_noise_1_1_noise.html" target="_top" xlink:title="Hydrax::Noise::Noise">
<polygon fill="white" stroke="black" points="181.5,-619.5 181.5,-640.5 292.5,-640.5 292.5,-619.5 181.5,-619.5"/>
<text text-anchor="middle" x="237" y="-627.5" font-family="Helvetica,sans-Serif" font-size="10.00">Hydrax::Noise::Noise</text>
</a>
</g>
<!-- Node23&#45;&gt;Node22 -->
<g id="edge74" class="edge"><title>Node23&#45;&gt;Node22</title>
<path fill="none" stroke="#9a32cd" stroke-dasharray="5,2" d="M275.85,-643.987C324.489,-661.744 410.152,-693.831 482,-725 502.762,-734.007 525.99,-745.322 542.231,-753.442"/>
<polygon fill="#9a32cd" stroke="#9a32cd" points="276.936,-640.658 266.341,-640.526 274.541,-647.235 276.936,-640.658"/>
<text text-anchor="middle" x="408" y="-729" font-family="Helvetica,sans-Serif" font-size="10.00"> mNoise</text>
</g>
<!-- Node27 -->
<g id="node71" class="node"><title>Node27</title>
<a xlink:href="class_hydrax_1_1_noise_1_1_perlin.html" target="_top" xlink:title="Hydrax::Noise::Perlin">
<polygon fill="white" stroke="black" points="1614,-614.5 1614,-635.5 1724,-635.5 1724,-614.5 1614,-614.5"/>
<text text-anchor="middle" x="1669" y="-622.5" font-family="Helvetica,sans-Serif" font-size="10.00">Hydrax::Noise::Perlin</text>
</a>
</g>
<!-- Node23&#45;&gt;Node27 -->
<g id="edge92" class="edge"><title>Node23&#45;&gt;Node27</title>
<path fill="none" stroke="midnightblue" d="M302.732,-620.649C418.078,-604.764 664.584,-573.146 874,-562 1036.79,-553.335 1143.09,-550.691 1450,-579 1515.34,-585.027 1532.16,-585.81 1596,-601 1610.93,-604.551 1627.17,-609.755 1640.54,-614.41"/>
<polygon fill="midnightblue" stroke="midnightblue" points="302.077,-617.206 292.651,-622.044 303.036,-624.14 302.077,-617.206"/>
</g>
<!-- Node24&#45;&gt;Node4 -->
<g id="edge78" class="edge"><title>Node24&#45;&gt;Node4</title>
<path fill="none" stroke="#9a32cd" stroke-dasharray="5,2" d="M1275.54,-651.199C1150.95,-653.147 937.451,-662.918 874,-706 837.115,-731.044 813.769,-781.499 804.968,-803.425"/>
<polygon fill="#9a32cd" stroke="#9a32cd" points="1275.88,-654.695 1285.83,-651.053 1275.78,-647.695 1275.88,-654.695"/>
<text text-anchor="middle" x="1053" y="-677" font-family="Helvetica,sans-Serif" font-size="10.00"> mGPUNormalMapManager</text>
</g>
<!-- Node24&#45;&gt;Node27 -->
<g id="edge96" class="edge"><title>Node24&#45;&gt;Node27</title>
<path fill="none" stroke="#9a32cd" stroke-dasharray="5,2" d="M1460.48,-643.012C1510.7,-638.674 1571.11,-633.456 1613.95,-629.756"/>
<polygon fill="#9a32cd" stroke="#9a32cd" points="1459.91,-639.548 1450.25,-643.895 1460.51,-646.522 1459.91,-639.548"/>
<text text-anchor="middle" x="1532" y="-646" font-family="Helvetica,sans-Serif" font-size="10.00"> mGPUNormalMapManager</text>
</g>
<!-- Node25&#45;&gt;Node4 -->
<g id="edge84" class="edge"><title>Node25&#45;&gt;Node4</title>
<path fill="none" stroke="#9a32cd" stroke-dasharray="5,2" d="M993.032,-953.759C956.225,-957.79 909.504,-956.924 874,-936 831.046,-910.685 810.427,-849.361 803.64,-824.616"/>
<polygon fill="#9a32cd" stroke="#9a32cd" points="993.64,-957.211 1003.13,-952.505 992.778,-950.264 993.64,-957.211"/>
<text text-anchor="middle" x="915" y="-959" font-family="Helvetica,sans-Serif" font-size="10.00"> mCfgFileManager</text>
</g>
<!-- Node26&#45;&gt;Node4 -->
<g id="edge88" class="edge"><title>Node26&#45;&gt;Node4</title>
<path fill="none" stroke="#9a32cd" stroke-dasharray="5,2" d="M1838.27,-696.686C1801.46,-716.768 1732.48,-749 1669,-749 1209,-749 1209,-749 1209,-749 1059.73,-749 1016.97,-730.083 874,-773 852.003,-779.603 829.352,-793.673 815.232,-803.478"/>
<polygon fill="#9a32cd" stroke="#9a32cd" points="1840.31,-699.553 1847.34,-691.625 1836.9,-693.44 1840.31,-699.553"/>
<text text-anchor="middle" x="1368" y="-753" font-family="Helvetica,sans-Serif" font-size="10.00"> mGodRaysManager</text>
</g>
<!-- Node26&#45;&gt;Node29 -->
<g id="edge102" class="edge"><title>Node26&#45;&gt;Node29</title>
<path fill="none" stroke="#9a32cd" stroke-dasharray="5,2" d="M1942.22,-672.074C1973.27,-668.311 2009.37,-663.713 2042,-659 2047.92,-658.145 2054.07,-657.215 2060.22,-656.255"/>
<polygon fill="#9a32cd" stroke="#9a32cd" points="1941.41,-668.647 1931.9,-673.318 1942.25,-675.597 1941.41,-668.647"/>
<text text-anchor="middle" x="1996" y="-676" font-family="Helvetica,sans-Serif" font-size="10.00"> mGodRaysManager</text>
</g>
<!-- Node27&#45;&gt;Node26 -->
<g id="edge90" class="edge"><title>Node27&#45;&gt;Node26</title>
<path fill="none" stroke="#9a32cd" stroke-dasharray="5,2" d="M1715.67,-638.335C1750.03,-648.153 1796.12,-661.321 1827.97,-670.419"/>
<polygon fill="#9a32cd" stroke="#9a32cd" points="1716.44,-634.915 1705.87,-635.533 1714.52,-641.646 1716.44,-634.915"/>
<text text-anchor="middle" x="1761" y="-661" font-family="Helvetica,sans-Serif" font-size="10.00"> mPerlin</text>
</g>
<!-- Node28 -->
<g id="node74" class="node"><title>Node28</title>
<a xlink:href="struct_hydrax_1_1_noise_1_1_perlin_1_1_options.html" target="_top" xlink:title="Hydrax::Noise::Perlin\l::Options">
<polygon fill="white" stroke="black" points="1313,-588 1313,-622 1423,-622 1423,-588 1313,-588"/>
<text text-anchor="start" x="1321" y="-609" font-family="Helvetica,sans-Serif" font-size="10.00">Hydrax::Noise::Perlin</text>
<text text-anchor="middle" x="1368" y="-596" font-family="Helvetica,sans-Serif" font-size="10.00">::Options</text>
</a>
</g>
<!-- Node28&#45;&gt;Node27 -->
<g id="edge94" class="edge"><title>Node28&#45;&gt;Node27</title>
<path fill="none" stroke="#9a32cd" stroke-dasharray="5,2" d="M1433.52,-603.899C1479.19,-603.822 1541.47,-605.093 1596,-611 1603.83,-611.848 1612.07,-613.086 1620.08,-614.481"/>
<polygon fill="#9a32cd" stroke="#9a32cd" points="1433.44,-600.4 1423.46,-603.939 1433.47,-607.399 1433.44,-600.4"/>
<text text-anchor="middle" x="1532" y="-615" font-family="Helvetica,sans-Serif" font-size="10.00"> mOptions</text>
</g>
<!-- Node29&#45;&gt;Node26 -->
<g id="edge98" class="edge"><title>Node29&#45;&gt;Node26</title>
<path fill="none" stroke="#9a32cd" stroke-dasharray="5,2" d="M2050.4,-639.062C2019.01,-638.273 1982.49,-639.478 1950,-646 1926.53,-650.712 1901.38,-661.918 1884.58,-670.391"/>
<polygon fill="#9a32cd" stroke="#9a32cd" points="2050.3,-642.561 2060.41,-639.385 2050.52,-635.564 2050.3,-642.561"/>
<text text-anchor="middle" x="1996" y="-650" font-family="Helvetica,sans-Serif" font-size="10.00"> mDepthMapListener</text>
</g>
<!-- Node30&#45;&gt;Node4 -->
<g id="edge106" class="edge"><title>Node30&#45;&gt;Node4</title>
<path fill="none" stroke="#9a32cd" stroke-dasharray="5,2" d="M980.173,-875.69C947.046,-876.846 907.787,-874.877 874,-864 849.434,-856.092 825.673,-837.03 812.239,-824.859"/>
<polygon fill="#9a32cd" stroke="#9a32cd" points="980.412,-879.183 990.245,-875.238 980.097,-872.19 980.412,-879.183"/>
<text text-anchor="middle" x="915" y="-879" font-family="Helvetica,sans-Serif" font-size="10.00"> mTextureManager</text>
</g>
<!-- Node31 -->
<g id="node86" class="node"><title>Node31</title>
<a xlink:href="struct_hydrax_1_1_material_manager_1_1_options.html" target="_top" xlink:title="Hydrax::MaterialManager\l::Options">
<polygon fill="white" stroke="black" points="174,-862 174,-896 300,-896 300,-862 174,-862"/>
<text text-anchor="start" x="182" y="-883" font-family="Helvetica,sans-Serif" font-size="10.00">Hydrax::MaterialManager</text>
<text text-anchor="middle" x="237" y="-870" font-family="Helvetica,sans-Serif" font-size="10.00">::Options</text>
</a>
</g>
<!-- Node31&#45;&gt;Node3 -->
<g id="edge112" class="edge"><title>Node31&#45;&gt;Node3</title>
<path fill="none" stroke="#9a32cd" stroke-dasharray="5,2" d="M310.361,-871.546C359.055,-866.517 424.375,-859.614 482,-853 487.772,-852.338 493.772,-851.631 499.78,-850.911"/>
<polygon fill="#9a32cd" stroke="#9a32cd" points="309.819,-868.083 300.231,-872.59 310.537,-875.046 309.819,-868.083"/>
<text text-anchor="middle" x="408" y="-872" font-family="Helvetica,sans-Serif" font-size="10.00"> mOptions</text>
</g>
</g>
</svg>
        <g id="navigator" transform="translate(0 0)" fill="#404254">
                <rect fill="#f2f5e9" fill-opacity="0.5" stroke="#606060" stroke-width=".5" x="0" y="0" width="60" height="60"/>
                <use id="zoomplus" xlink:href="#zoomPlus" x="17" y="9" onmousedown="handleZoom(evt,'in')"/>
                <use id="zoomminus" xlink:href="#zoomMin" x="42" y="9" onmousedown="handleZoom(evt,'out')"/>
                <use id="reset" xlink:href="#resetDef" x="30" y="36" onmousedown="handleReset()"/>
                <g id="arrowUp" xlink:href="#dirArrow" transform="translate(30 24)" onmousedown="handlePan(0,-1)">
                  <use xlink:href="#rim" fill="#404040">
                        <set attributeName="fill" to="#808080" begin="arrowUp.mouseover" end="arrowUp.mouseout"/>
                  </use>
                  <path fill="none" stroke="white" stroke-width="1.5" d="M0,-3.0v7 M-2.5,-0.5L0,-3.0L2.5,-0.5"/>
                </g>
                <g id="arrowRight" xlink:href="#dirArrow" transform="rotate(90) translate(36 -43)" onmousedown="handlePan(1,0)">
                  <use xlink:href="#rim" fill="#404040">
                        <set attributeName="fill" to="#808080" begin="arrowRight.mouseover" end="arrowRight.mouseout"/>
                  </use>
                  <path fill="none" stroke="white" stroke-width="1.5" d="M0,-3.0v7 M-2.5,-0.5L0,-3.0L2.5,-0.5"/>
                </g>
                <g id="arrowDown" xlink:href="#dirArrow" transform="rotate(180) translate(-30 -48)" onmousedown="handlePan(0,1)">
                  <use xlink:href="#rim" fill="#404040">
                        <set attributeName="fill" to="#808080" begin="arrowDown.mouseover" end="arrowDown.mouseout"/>
                  </use>
                  <path fill="none" stroke="white" stroke-width="1.5" d="M0,-3.0v7 M-2.5,-0.5L0,-3.0L2.5,-0.5"/>
                </g>
                <g id="arrowLeft" xlink:href="#dirArrow" transform="rotate(270) translate(-36 17)" onmousedown="handlePan(-1,0)">
                  <use xlink:href="#rim" fill="#404040">
                        <set attributeName="fill" to="#808080" begin="arrowLeft.mouseover" end="arrowLeft.mouseout"/>
                  </use>
                  <path fill="none" stroke="white" stroke-width="1.5" d="M0,-3.0v7 M-2.5,-0.5L0,-3.0L2.5,-0.5"/>
                </g>
        </g>
        <svg viewBox="0 0 15 15" width="100%" height="30px" preserveAspectRatio="xMaxYMin meet">
         <g id="arrow_out" transform="scale(0.3 0.3)">
          <a xlink:href="class_hydrax_1_1_material_manager_1_1_underwater_compositor_listener__coll__graph_org.svg" target="_base">
           <rect id="button" ry="5" rx="5" y="6" x="6" height="38" width="38"
                fill="#f2f5e9" fill-opacity="0.5" stroke="#606060" stroke-width="1.0"/>
           <path id="arrow"
             d="M 11.500037,31.436501 C 11.940474,20.09759 22.043105,11.32322 32.158766,21.979434 L 37.068811,17.246167 C 37.068811,17.246167 37.088388,32 37.088388,32 L 22.160133,31.978069 C 22.160133,31.978069 26.997745,27.140456 26.997745,27.140456 C 18.528582,18.264221 13.291696,25.230495 11.500037,31.436501 z"
             style="fill:#404040;"/>
          </a>
         </g>
        </svg>
</svg>
