<?xml version="1.0" encoding="UTF-8" standalone="no"?>
<!DOCTYPE svg PUBLIC "-//W3C//DTD SVG 1.1//EN"
 "http://www.w3.org/Graphics/SVG/1.1/DTD/svg11.dtd">
<!-- Generated by graphviz version 2.26.3 (20100126.1600)
 -->
<!-- Title: Water::getWaveHeight Pages: 1 -->
<!--zoomable 148 -->
<svg id="main" version="1.1" xmlns="http://www.w3.org/2000/svg" xmlns:xlink="http://www.w3.org/1999/xlink" xml:space="preserve" onload="init(evt)">
<style type="text/css"><![CDATA[
.edge:hover path { stroke: red; }
.edge:hover polygon { stroke: red; fill: red; }
]]></style>
<script type="text/javascript"><![CDATA[
var edges = document.getElementsByTagName('g');
if (edges && edges.length) {
  for (var i=0;i<edges.length;i++) {
    if (edges[i].id.substr(0,4)=='edge') {
      edges[i].setAttribute('class','edge');
    }
  }
}
]]></script>
        <defs>
                <circle id="rim" cx="0" cy="0" r="7"/>
                <circle id="rim2" cx="0" cy="0" r="3.5"/>
                <g id="zoomPlus">
                        <use xlink:href="#rim" fill="#404040">
                                <set attributeName="fill" to="#808080" begin="zoomplus.mouseover" end="zoomplus.mouseout"/>
                        </use>
                        <path d="M-4,0h8M0,-4v8" fill="none" stroke="white" stroke-width="1.5" pointer-events="none"/>
                </g>
                <g id="zoomMin">
                        <use xlink:href="#rim" fill="#404040">
                                <set attributeName="fill" to="#808080" begin="zoomminus.mouseover" end="zoomminus.mouseout"/>
                        </use>
                        <path d="M-4,0h8" fill="none" stroke="white" stroke-width="1.5" pointer-events="none"/>
                </g>
                <g id="dirArrow">
                        <path fill="none" stroke="white" stroke-width="1.5" d="M0,-3.0v7 M-2.5,-0.5L0,-3.0L2.5,-0.5"/>
                </g>
               <g id="resetDef">
                       <use xlink:href="#rim2" fill="#404040">
                               <set attributeName="fill" to="#808080" begin="reset.mouseover" end="reset.mouseout"/>
                       </use>
               </g>
        </defs>

<script type="text/javascript">
var viewWidth = 774;
var viewHeight = 148;
var sectionId = 'dynsection-7';
</script>
<script xlink:href="svgpan.js"/>
<svg id="graph" class="graph">
<g id="viewport">
<title>Water::getWaveHeight</title>
<polygon fill="white" stroke="white" points="-4,5 -4,-144 771,-144 771,5 -4,5"/>
<!-- Node1 -->
<g id="node1" class="node"><title>Node1</title>
<polygon fill="#bfbfbf" stroke="black" points="0,-39.5 0,-60.5 116,-60.5 116,-39.5 0,-39.5"/>
<text text-anchor="middle" x="58" y="-47.5" font-family="Helvetica,sans-Serif" font-size="10.00">Water::getWaveHeight</text>
</g>
<!-- Node2 -->
<g id="node3" class="node"><title>Node2</title>
<a xlink:href="class_water.html#ae0ff5f204633423eb3d8f825940b0c94" target="_top" xlink:title="Water::getHeightWaves">
<polygon fill="white" stroke="black" points="152,-78.5 152,-99.5 274,-99.5 274,-78.5 152,-78.5"/>
<text text-anchor="middle" x="213" y="-86.5" font-family="Helvetica,sans-Serif" font-size="10.00">Water::getHeightWaves</text>
</a>
</g>
<!-- Node1&#45;&gt;Node2 -->
<g id="edge2" class="edge"><title>Node1&#45;&gt;Node2</title>
<path fill="none" stroke="midnightblue" d="M109.786,-63.03C129.691,-68.0385 152.149,-73.6892 171.021,-78.4376"/>
<polygon fill="midnightblue" stroke="midnightblue" points="110.497,-59.5999 99.9452,-60.554 108.789,-66.3883 110.497,-59.5999"/>
</g>
<!-- Node9 -->
<g id="node18" class="node"><title>Node9</title>
<a xlink:href="class_water.html#a0db95eef32723c8f87d52ff9b3064b7a" target="_top" xlink:title="Water::isUnderWater">
<polygon fill="white" stroke="black" points="327.5,-38.5 327.5,-59.5 436.5,-59.5 436.5,-38.5 327.5,-38.5"/>
<text text-anchor="middle" x="382" y="-46.5" font-family="Helvetica,sans-Serif" font-size="10.00">Water::isUnderWater</text>
</a>
</g>
<!-- Node1&#45;&gt;Node9 -->
<g id="edge20" class="edge"><title>Node1&#45;&gt;Node9</title>
<path fill="none" stroke="midnightblue" d="M126.415,-49.7888C186.268,-49.6041 272.059,-49.3393 327.406,-49.1685"/>
<polygon fill="midnightblue" stroke="midnightblue" points="126.288,-46.2891 116.299,-49.8201 126.31,-53.2891 126.288,-46.2891"/>
</g>
<!-- Node10 -->
<g id="node21" class="node"><title>Node10</title>
<a xlink:href="class_water.html#a924fc07bcc72dbbdb9206597deacbec3" target="_top" xlink:title="Water::getVelocity">
<polygon fill="white" stroke="black" points="164,-0.5 164,-21.5 262,-21.5 262,-0.5 164,-0.5"/>
<text text-anchor="middle" x="213" y="-8.5" font-family="Helvetica,sans-Serif" font-size="10.00">Water::getVelocity</text>
</a>
</g>
<!-- Node1&#45;&gt;Node10 -->
<g id="edge22" class="edge"><title>Node1&#45;&gt;Node10</title>
<path fill="none" stroke="midnightblue" d="M109.786,-36.97C129.691,-31.9615 152.149,-26.3108 171.021,-21.5624"/>
<polygon fill="midnightblue" stroke="midnightblue" points="108.789,-33.6117 99.9452,-39.446 110.497,-40.4001 108.789,-33.6117"/>
</g>
<!-- Node3 -->
<g id="node5" class="node"><title>Node3</title>
<a xlink:href="class_water.html#a633f92602bfc1703ef295e9b74da8720" target="_top" xlink:title="Water::showWave">
<polygon fill="white" stroke="black" points="333,-118.5 333,-139.5 431,-139.5 431,-118.5 333,-118.5"/>
<text text-anchor="middle" x="382" y="-126.5" font-family="Helvetica,sans-Serif" font-size="10.00">Water::showWave</text>
</a>
</g>
<!-- Node2&#45;&gt;Node3 -->
<g id="edge4" class="edge"><title>Node2&#45;&gt;Node3</title>
<path fill="none" stroke="midnightblue" d="M267.243,-101.839C289.964,-107.216 316.048,-113.39 337.601,-118.491"/>
<polygon fill="midnightblue" stroke="midnightblue" points="267.94,-98.4069 257.403,-99.5095 266.328,-105.219 267.94,-98.4069"/>
</g>
<!-- Node6 -->
<g id="node11" class="node"><title>Node6</title>
<a xlink:href="class_water.html#ae34d81740dfa630804c1285fdd6bc25b" target="_top" xlink:title="Water::isCameraUnderWater">
<polygon fill="white" stroke="black" points="310.5,-78.5 310.5,-99.5 453.5,-99.5 453.5,-78.5 310.5,-78.5"/>
<text text-anchor="middle" x="382" y="-86.5" font-family="Helvetica,sans-Serif" font-size="10.00">Water::isCameraUnderWater</text>
</a>
</g>
<!-- Node2&#45;&gt;Node6 -->
<g id="edge10" class="edge"><title>Node2&#45;&gt;Node6</title>
<path fill="none" stroke="midnightblue" d="M284.12,-89C292.825,-89 301.724,-89 310.436,-89"/>
<polygon fill="midnightblue" stroke="midnightblue" points="284.013,-85.5001 274.013,-89 284.013,-92.5001 284.013,-85.5001"/>
</g>
<!-- Node2&#45;&gt;Node9 -->
<g id="edge18" class="edge"><title>Node2&#45;&gt;Node9</title>
<path fill="none" stroke="midnightblue" d="M267.243,-76.1614C289.964,-70.7836 316.048,-64.6099 337.601,-59.5087"/>
<polygon fill="midnightblue" stroke="midnightblue" points="266.328,-72.7813 257.403,-78.4905 267.94,-79.5931 266.328,-72.7813"/>
</g>
<!-- Node4 -->
<g id="node7" class="node"><title>Node4</title>
<a xlink:href="class_water.html#a18fce2c0b2c45ee4ea8e413fcb4bdafa" target="_top" xlink:title="Water::update">
<polygon fill="white" stroke="black" points="525,-118.5 525,-139.5 603,-139.5 603,-118.5 525,-118.5"/>
<text text-anchor="middle" x="564" y="-126.5" font-family="Helvetica,sans-Serif" font-size="10.00">Water::update</text>
</a>
</g>
<!-- Node3&#45;&gt;Node4 -->
<g id="edge6" class="edge"><title>Node3&#45;&gt;Node4</title>
<path fill="none" stroke="midnightblue" d="M441.494,-129C468.836,-129 500.506,-129 524.795,-129"/>
<polygon fill="midnightblue" stroke="midnightblue" points="441.252,-125.5 431.252,-129 441.252,-132.5 441.252,-125.5"/>
</g>
<!-- Node5 -->
<g id="node9" class="node"><title>Node5</title>
<a xlink:href="class_water.html#ab3c688bc459bf677f8a235cd42c9daae" target="_top" xlink:title="Water::framestep">
<polygon fill="white" stroke="black" points="674,-118.5 674,-139.5 766,-139.5 766,-118.5 674,-118.5"/>
<text text-anchor="middle" x="720" y="-126.5" font-family="Helvetica,sans-Serif" font-size="10.00">Water::framestep</text>
</a>
</g>
<!-- Node4&#45;&gt;Node5 -->
<g id="edge8" class="edge"><title>Node4&#45;&gt;Node5</title>
<path fill="none" stroke="midnightblue" d="M613.514,-129C632.887,-129 654.979,-129 673.999,-129"/>
<polygon fill="midnightblue" stroke="midnightblue" points="613.365,-125.5 603.365,-129 613.365,-132.5 613.365,-125.5"/>
</g>
<!-- Node6&#45;&gt;Node4 -->
<g id="edge12" class="edge"><title>Node6&#45;&gt;Node4</title>
<path fill="none" stroke="midnightblue" d="M439.791,-101.701C467.506,-107.793 499.985,-114.931 524.778,-120.38"/>
<polygon fill="midnightblue" stroke="midnightblue" points="440.337,-98.2378 429.818,-99.5095 438.834,-105.075 440.337,-98.2378"/>
</g>
<!-- Node7 -->
<g id="node14" class="node"><title>Node7</title>
<a xlink:href="class_water.html#a9a733ea131931c7625bbbcfb6c10d939" target="_top" xlink:title="Water::updateReflectionPlane">
<polygon fill="white" stroke="black" points="490.5,-78.5 490.5,-99.5 637.5,-99.5 637.5,-78.5 490.5,-78.5"/>
<text text-anchor="middle" x="564" y="-86.5" font-family="Helvetica,sans-Serif" font-size="10.00">Water::updateReflectionPlane</text>
</a>
</g>
<!-- Node6&#45;&gt;Node7 -->
<g id="edge14" class="edge"><title>Node6&#45;&gt;Node7</title>
<path fill="none" stroke="midnightblue" d="M463.918,-89C472.709,-89 481.615,-89 490.302,-89"/>
<polygon fill="midnightblue" stroke="midnightblue" points="463.67,-85.5001 453.67,-89 463.67,-92.5001 463.67,-85.5001"/>
</g>
<!-- Node8 -->
<g id="node16" class="node"><title>Node8</title>
<a xlink:href="class_water.html#a13622d0f0f5a4c2c0504d4df580f1aa8" target="_top" xlink:title="Water::moveTo">
<polygon fill="white" stroke="black" points="678,-78.5 678,-99.5 762,-99.5 762,-78.5 678,-78.5"/>
<text text-anchor="middle" x="720" y="-86.5" font-family="Helvetica,sans-Serif" font-size="10.00">Water::moveTo</text>
</a>
</g>
<!-- Node7&#45;&gt;Node8 -->
<g id="edge16" class="edge"><title>Node7&#45;&gt;Node8</title>
<path fill="none" stroke="midnightblue" d="M648.171,-89C658.432,-89 668.55,-89 677.808,-89"/>
<polygon fill="midnightblue" stroke="midnightblue" points="647.888,-85.5001 637.888,-89 647.888,-92.5001 647.888,-85.5001"/>
</g>
</g>
</svg>
        <g id="navigator" transform="translate(0 0)" fill="#404254">
                <rect fill="#f2f5e9" fill-opacity="0.5" stroke="#606060" stroke-width=".5" x="0" y="0" width="60" height="60"/>
                <use id="zoomplus" xlink:href="#zoomPlus" x="17" y="9" onmousedown="handleZoom(evt,'in')"/>
                <use id="zoomminus" xlink:href="#zoomMin" x="42" y="9" onmousedown="handleZoom(evt,'out')"/>
                <use id="reset" xlink:href="#resetDef" x="30" y="36" onmousedown="handleReset()"/>
                <g id="arrowUp" xlink:href="#dirArrow" transform="translate(30 24)" onmousedown="handlePan(0,-1)">
                  <use xlink:href="#rim" fill="#404040">
                        <set attributeName="fill" to="#808080" begin="arrowUp.mouseover" end="arrowUp.mouseout"/>
                  </use>
                  <path fill="none" stroke="white" stroke-width="1.5" d="M0,-3.0v7 M-2.5,-0.5L0,-3.0L2.5,-0.5"/>
                </g>
                <g id="arrowRight" xlink:href="#dirArrow" transform="rotate(90) translate(36 -43)" onmousedown="handlePan(1,0)">
                  <use xlink:href="#rim" fill="#404040">
                        <set attributeName="fill" to="#808080" begin="arrowRight.mouseover" end="arrowRight.mouseout"/>
                  </use>
                  <path fill="none" stroke="white" stroke-width="1.5" d="M0,-3.0v7 M-2.5,-0.5L0,-3.0L2.5,-0.5"/>
                </g>
                <g id="arrowDown" xlink:href="#dirArrow" transform="rotate(180) translate(-30 -48)" onmousedown="handlePan(0,1)">
                  <use xlink:href="#rim" fill="#404040">
                        <set attributeName="fill" to="#808080" begin="arrowDown.mouseover" end="arrowDown.mouseout"/>
                  </use>
                  <path fill="none" stroke="white" stroke-width="1.5" d="M0,-3.0v7 M-2.5,-0.5L0,-3.0L2.5,-0.5"/>
                </g>
                <g id="arrowLeft" xlink:href="#dirArrow" transform="rotate(270) translate(-36 17)" onmousedown="handlePan(-1,0)">
                  <use xlink:href="#rim" fill="#404040">
                        <set attributeName="fill" to="#808080" begin="arrowLeft.mouseover" end="arrowLeft.mouseout"/>
                  </use>
                  <path fill="none" stroke="white" stroke-width="1.5" d="M0,-3.0v7 M-2.5,-0.5L0,-3.0L2.5,-0.5"/>
                </g>
        </g>
        <svg viewBox="0 0 15 15" width="100%" height="30px" preserveAspectRatio="xMaxYMin meet">
         <g id="arrow_out" transform="scale(0.3 0.3)">
          <a xlink:href="class_water_a0e898659c77fb2358402d0cd669301c0_icgraph_org.svg" target="_base">
           <rect id="button" ry="5" rx="5" y="6" x="6" height="38" width="38"
                fill="#f2f5e9" fill-opacity="0.5" stroke="#606060" stroke-width="1.0"/>
           <path id="arrow"
             d="M 11.500037,31.436501 C 11.940474,20.09759 22.043105,11.32322 32.158766,21.979434 L 37.068811,17.246167 C 37.068811,17.246167 37.088388,32 37.088388,32 L 22.160133,31.978069 C 22.160133,31.978069 26.997745,27.140456 26.997745,27.140456 C 18.528582,18.264221 13.291696,25.230495 11.500037,31.436501 z"
             style="fill:#404040;"/>
          </a>
         </g>
        </svg>
</svg>
