<?xml version="1.0" encoding="UTF-8" standalone="no"?>
<!DOCTYPE svg PUBLIC "-//W3C//DTD SVG 1.1//EN"
 "http://www.w3.org/Graphics/SVG/1.1/DTD/svg11.dtd">
<!-- Generated by graphviz version 2.26.3 (20100126.1600)
 -->
<!-- Title: RigDef::Parser::_CheckInvalidTrailingText Pages: 1 -->
<svg width="1128pt" height="148pt"
 viewBox="0.00 0.00 1128.00 148.00" xmlns="http://www.w3.org/2000/svg" xmlns:xlink="http://www.w3.org/1999/xlink">
<g id="graph1" class="graph" transform="scale(1 1) rotate(0) translate(4 144)">
<title>RigDef::Parser::_CheckInvalidTrailingText</title>
<polygon fill="white" stroke="white" points="-4,5 -4,-144 1125,-144 1125,5 -4,5"/>
<!-- Node1 -->
<g id="node1" class="node"><title>Node1</title>
<polygon fill="#bfbfbf" stroke="black" points="0,-72 0,-106 150,-106 150,-72 0,-72"/>
<text text-anchor="start" x="8" y="-93" font-family="Helvetica,sans-Serif" font-size="10.00">RigDef::Parser::_CheckInvalid</text>
<text text-anchor="middle" x="75" y="-80" font-family="Helvetica,sans-Serif" font-size="10.00">TrailingText</text>
</g>
<!-- Node2 -->
<g id="node3" class="node"><title>Node2</title>
<a xlink:href="class_rig_def_1_1_parser.html#acdcc6e7d9b3ecb18b185e1c2a1d6d159" target="_top" xlink:title="RigDef::Parser::ParseSoundsources2">
<polygon fill="white" stroke="black" points="186.5,-98.5 186.5,-119.5 367.5,-119.5 367.5,-98.5 186.5,-98.5"/>
<text text-anchor="middle" x="277" y="-106.5" font-family="Helvetica,sans-Serif" font-size="10.00">RigDef::Parser::ParseSoundsources2</text>
</a>
</g>
<!-- Node1&#45;&gt;Node2 -->
<g id="edge2" class="edge"><title>Node1&#45;&gt;Node2</title>
<path fill="none" stroke="midnightblue" d="M160.258,-97.4414C168.887,-98.2957 177.672,-99.1655 186.354,-100.025"/>
<polygon fill="midnightblue" stroke="midnightblue" points="160.514,-93.9497 150.217,-96.4473 159.824,-100.916 160.514,-93.9497"/>
</g>
<!-- Node11 -->
<g id="node21" class="node"><title>Node11</title>
<a xlink:href="class_rig_def_1_1_parser.html#a86f98f10a1a77a4db31e77fe250050ed" target="_top" xlink:title="RigDef::Parser::ParseLockgroups">
<polygon fill="white" stroke="black" points="195,-58.5 195,-79.5 359,-79.5 359,-58.5 195,-58.5"/>
<text text-anchor="middle" x="277" y="-66.5" font-family="Helvetica,sans-Serif" font-size="10.00">RigDef::Parser::ParseLockgroups</text>
</a>
</g>
<!-- Node1&#45;&gt;Node11 -->
<g id="edge20" class="edge"><title>Node1&#45;&gt;Node11</title>
<path fill="none" stroke="midnightblue" d="M160.232,-80.5612C171.726,-79.4231 183.501,-78.2573 194.939,-77.1249"/>
<polygon fill="midnightblue" stroke="midnightblue" points="159.824,-77.0844 150.217,-81.5527 160.514,-84.0503 159.824,-77.0844"/>
</g>
<!-- Node3 -->
<g id="node5" class="node"><title>Node3</title>
<a xlink:href="class_rig_def_1_1_parser.html#a572673469cf88cdebbd30e04df5629ff" target="_top" xlink:title="RigDef::Parser::ParseLine">
<polygon fill="white" stroke="black" points="404.5,-78.5 404.5,-99.5 535.5,-99.5 535.5,-78.5 404.5,-78.5"/>
<text text-anchor="middle" x="470" y="-86.5" font-family="Helvetica,sans-Serif" font-size="10.00">RigDef::Parser::ParseLine</text>
</a>
</g>
<!-- Node2&#45;&gt;Node3 -->
<g id="edge4" class="edge"><title>Node2&#45;&gt;Node3</title>
<path fill="none" stroke="midnightblue" d="M377.782,-98.5563C386.827,-97.619 395.821,-96.687 404.446,-95.7932"/>
<polygon fill="midnightblue" stroke="midnightblue" points="377.152,-95.1027 367.566,-99.6149 377.874,-102.065 377.152,-95.1027"/>
</g>
<!-- Node4 -->
<g id="node7" class="node"><title>Node4</title>
<a xlink:href="class_beam.html#a866f7eb5e93d6c476fa1bd0a4b7dcdf5" target="_top" xlink:title="Beam::LoadTruck">
<polygon fill="white" stroke="black" points="606,-118.5 606,-139.5 700,-139.5 700,-118.5 606,-118.5"/>
<text text-anchor="middle" x="653" y="-126.5" font-family="Helvetica,sans-Serif" font-size="10.00">Beam::LoadTruck</text>
</a>
</g>
<!-- Node3&#45;&gt;Node4 -->
<g id="edge6" class="edge"><title>Node3&#45;&gt;Node4</title>
<path fill="none" stroke="midnightblue" d="M527.863,-101.648C553.003,-107.143 582.079,-113.498 605.873,-118.699"/>
<polygon fill="midnightblue" stroke="midnightblue" points="528.598,-98.2257 518.081,-99.5095 527.103,-105.064 528.598,-98.2257"/>
</g>
<!-- Node6 -->
<g id="node11" class="node"><title>Node6</title>
<a xlink:href="class_cache_system.html#ad640fd28c3075eb6310d8d8f3475cefb" target="_top" xlink:title="CacheSystem::fillTruckDetailInfo">
<polygon fill="white" stroke="black" points="572.5,-78.5 572.5,-99.5 733.5,-99.5 733.5,-78.5 572.5,-78.5"/>
<text text-anchor="middle" x="653" y="-86.5" font-family="Helvetica,sans-Serif" font-size="10.00">CacheSystem::fillTruckDetailInfo</text>
</a>
</g>
<!-- Node3&#45;&gt;Node6 -->
<g id="edge10" class="edge"><title>Node3&#45;&gt;Node6</title>
<path fill="none" stroke="midnightblue" d="M545.72,-89C554.477,-89 563.434,-89 572.255,-89"/>
<polygon fill="midnightblue" stroke="midnightblue" points="545.55,-85.5001 535.55,-89 545.55,-92.5001 545.55,-85.5001"/>
</g>
<!-- Node7 -->
<g id="node13" class="node"><title>Node7</title>
<a xlink:href="class_ro_r_1_1_rig_editor_1_1_main.html#a0ae39993d636eacc5dfe567c5f5ac4b9" target="_top" xlink:title="RoR::RigEditor::Main\l::LoadRigDefFile">
<polygon fill="white" stroke="black" points="598,-26 598,-60 708,-60 708,-26 598,-26"/>
<text text-anchor="start" x="606" y="-47" font-family="Helvetica,sans-Serif" font-size="10.00">RoR::RigEditor::Main</text>
<text text-anchor="middle" x="653" y="-34" font-family="Helvetica,sans-Serif" font-size="10.00">::LoadRigDefFile</text>
</a>
</g>
<!-- Node3&#45;&gt;Node7 -->
<g id="edge12" class="edge"><title>Node3&#45;&gt;Node7</title>
<path fill="none" stroke="midnightblue" d="M521.838,-75.9696C545.517,-70.0176 573.59,-62.9611 597.676,-56.9066"/>
<polygon fill="midnightblue" stroke="midnightblue" points="520.829,-72.6144 511.984,-78.4467 522.535,-79.4032 520.829,-72.6144"/>
</g>
<!-- Node5 -->
<g id="node9" class="node"><title>Node5</title>
<a xlink:href="class_beam.html#ac3b331240d6084f4a5116f6c862b65ad" target="_top" xlink:title="Beam::Beam">
<polygon fill="white" stroke="black" points="797,-118.5 797,-139.5 871,-139.5 871,-118.5 797,-118.5"/>
<text text-anchor="middle" x="834" y="-126.5" font-family="Helvetica,sans-Serif" font-size="10.00">Beam::Beam</text>
</a>
</g>
<!-- Node4&#45;&gt;Node5 -->
<g id="edge8" class="edge"><title>Node4&#45;&gt;Node5</title>
<path fill="none" stroke="midnightblue" d="M710.259,-129C738.567,-129 771.914,-129 796.853,-129"/>
<polygon fill="midnightblue" stroke="midnightblue" points="710.083,-125.5 700.083,-129 710.083,-132.5 710.083,-125.5"/>
</g>
<!-- Node8 -->
<g id="node15" class="node"><title>Node8</title>
<a xlink:href="class_ro_r_1_1_rig_editor_1_1_main.html#a35a10d6c23920802442d32fab1a8d470" target="_top" xlink:title="RoR::RigEditor::Main\l::NotifyFileSelectorEnded">
<polygon fill="white" stroke="black" points="770,-26 770,-60 898,-60 898,-26 770,-26"/>
<text text-anchor="start" x="778" y="-47" font-family="Helvetica,sans-Serif" font-size="10.00">RoR::RigEditor::Main</text>
<text text-anchor="middle" x="834" y="-34" font-family="Helvetica,sans-Serif" font-size="10.00">::NotifyFileSelectorEnded</text>
</a>
</g>
<!-- Node7&#45;&gt;Node8 -->
<g id="edge14" class="edge"><title>Node7&#45;&gt;Node8</title>
<path fill="none" stroke="midnightblue" d="M718.519,-43C735.24,-43 753.196,-43 769.848,-43"/>
<polygon fill="midnightblue" stroke="midnightblue" points="718.289,-39.5001 708.289,-43 718.289,-46.5001 718.289,-39.5001"/>
</g>
<!-- Node9 -->
<g id="node17" class="node"><title>Node9</title>
<a xlink:href="class_ro_r_1_1_rig_editor_1_1_main.html#a4f73e9dc5632524ca803864460b82bb5" target="_top" xlink:title="RoR::RigEditor::Main\l::CommandShowDialogOpenRigFile">
<polygon fill="white" stroke="black" points="940,-52 940,-86 1114,-86 1114,-52 940,-52"/>
<text text-anchor="start" x="948" y="-73" font-family="Helvetica,sans-Serif" font-size="10.00">RoR::RigEditor::Main</text>
<text text-anchor="middle" x="1027" y="-60" font-family="Helvetica,sans-Serif" font-size="10.00">::CommandShowDialogOpenRigFile</text>
</a>
</g>
<!-- Node8&#45;&gt;Node9 -->
<g id="edge16" class="edge"><title>Node8&#45;&gt;Node9</title>
<path fill="none" stroke="midnightblue" d="M908.456,-53.0303C918.783,-54.4216 929.466,-55.8607 939.997,-57.2794"/>
<polygon fill="midnightblue" stroke="midnightblue" points="908.644,-49.5241 898.266,-51.6576 907.709,-56.4615 908.644,-49.5241"/>
</g>
<!-- Node10 -->
<g id="node19" class="node"><title>Node10</title>
<a xlink:href="class_ro_r_1_1_rig_editor_1_1_main.html#acb4af1361d9233f5ee2fa658536a7658" target="_top" xlink:title="RoR::RigEditor::Main\l::CommandShowDialogSaveRigFileAs">
<polygon fill="white" stroke="black" points="934.5,-0 934.5,-34 1119.5,-34 1119.5,-0 934.5,-0"/>
<text text-anchor="start" x="942.5" y="-21" font-family="Helvetica,sans-Serif" font-size="10.00">RoR::RigEditor::Main</text>
<text text-anchor="middle" x="1027" y="-8" font-family="Helvetica,sans-Serif" font-size="10.00">::CommandShowDialogSaveRigFileAs</text>
</a>
</g>
<!-- Node8&#45;&gt;Node10 -->
<g id="edge18" class="edge"><title>Node8&#45;&gt;Node10</title>
<path fill="none" stroke="midnightblue" d="M908.223,-33.001C916.818,-31.8432 925.662,-30.6518 934.461,-29.4663"/>
<polygon fill="midnightblue" stroke="midnightblue" points="907.709,-29.5385 898.266,-34.3424 908.644,-36.4759 907.709,-29.5385"/>
</g>
<!-- Node11&#45;&gt;Node3 -->
<g id="edge22" class="edge"><title>Node11&#45;&gt;Node3</title>
<path fill="none" stroke="midnightblue" d="M369.08,-78.5419C380.969,-79.774 392.948,-81.0154 404.293,-82.191"/>
<polygon fill="midnightblue" stroke="midnightblue" points="369.437,-75.0603 359.129,-77.5108 368.715,-82.023 369.437,-75.0603"/>
</g>
</g>
</svg>
