<?xml version="1.0" encoding="UTF-8" standalone="no"?>
<!DOCTYPE svg PUBLIC "-//W3C//DTD SVG 1.1//EN"
 "http://www.w3.org/Graphics/SVG/1.1/DTD/svg11.dtd">
<!-- Generated by graphviz version 2.26.3 (20100126.1600)
 -->
<!-- Title: G Pages: 1 -->
<!--zoomable 174 -->
<svg id="main" version="1.1" xmlns="http://www.w3.org/2000/svg" xmlns:xlink="http://www.w3.org/1999/xlink" xml:space="preserve" onload="init(evt)">
        <defs>
                <circle id="rim" cx="0" cy="0" r="7"/>
                <circle id="rim2" cx="0" cy="0" r="3.5"/>
                <g id="zoomPlus">
                        <use xlink:href="#rim" fill="#404040">
                                <set attributeName="fill" to="#808080" begin="zoomplus.mouseover" end="zoomplus.mouseout"/>
                        </use>
                        <path d="M-4,0h8M0,-4v8" fill="none" stroke="white" stroke-width="1.5" pointer-events="none"/>
                </g>
                <g id="zoomMin">
                        <use xlink:href="#rim" fill="#404040">
                                <set attributeName="fill" to="#808080" begin="zoomminus.mouseover" end="zoomminus.mouseout"/>
                        </use>
                        <path d="M-4,0h8" fill="none" stroke="white" stroke-width="1.5" pointer-events="none"/>
                </g>
                <g id="dirArrow">
                        <path fill="none" stroke="white" stroke-width="1.5" d="M0,-3.0v7 M-2.5,-0.5L0,-3.0L2.5,-0.5"/>
                </g>
               <g id="resetDef">
                       <use xlink:href="#rim2" fill="#404040">
                               <set attributeName="fill" to="#808080" begin="reset.mouseover" end="reset.mouseout"/>
                       </use>
               </g>
        </defs>

<script type="text/javascript">
var viewWidth = 1832;
var viewHeight = 174;
var sectionId = 'dynsection-112';
</script>
<script xlink:href="svgpan.js"/>
<svg id="graph" class="graph">
<g id="viewport">
<title>G</title>
<polygon fill="white" stroke="white" points="-4,5 -4,-170 1829,-170 1829,5 -4,5"/>
<!-- Node1 -->
<g id="node1" class="node"><title>Node1</title>
<polygon fill="#bfbfbf" stroke="black" points="0,-116.5 0,-137.5 140,-137.5 140,-116.5 0,-116.5"/>
<text text-anchor="middle" x="70" y="-124.5" font-family="Helvetica,sans-Serif" font-size="10.00">Beam::toggleSlideNodeLock</text>
</g>
<!-- Node2 -->
<g id="node3" class="node"><title>Node2</title>
<a xlink:href="class_ro_r_frame_listener.html#a6b384193b130f7c1fff95d2e740a370e" target="_top" xlink:title="RoRFrameListener::updateEvents">
<polygon fill="white" stroke="black" points="1067.5,-97.5 1067.5,-118.5 1232.5,-118.5 1232.5,-97.5 1067.5,-97.5"/>
<text text-anchor="middle" x="1150" y="-105.5" font-family="Helvetica,sans-Serif" font-size="10.00">RoRFrameListener::updateEvents</text>
</a>
</g>
<!-- Node1&#45;&gt;Node2 -->
<g id="edge2" class="edge"><title>Node1&#45;&gt;Node2</title>
<path fill="none" stroke="midnightblue" d="M150.366,-138.59C237.154,-150.087 379.574,-166 503,-166 503,-166 503,-166 738,-166 872.715,-166 1029.81,-135.217 1105.18,-118.503"/>
<polygon fill="midnightblue" stroke="midnightblue" points="150.7,-135.104 140.324,-137.247 149.771,-142.042 150.7,-135.104"/>
</g>
<!-- Node4 -->
<g id="node7" class="node"><title>Node4</title>
<a xlink:href="class_beam_factory.html#a6eb09f405c2dc496a687caf0014800b0" target="_top" xlink:title="BeamFactory::CreateLocalRigInstance">
<polygon fill="white" stroke="black" points="176,-77.5 176,-98.5 362,-98.5 362,-77.5 176,-77.5"/>
<text text-anchor="middle" x="269" y="-85.5" font-family="Helvetica,sans-Serif" font-size="10.00">BeamFactory::CreateLocalRigInstance</text>
</a>
</g>
<!-- Node1&#45;&gt;Node4 -->
<g id="edge6" class="edge"><title>Node1&#45;&gt;Node4</title>
<path fill="none" stroke="midnightblue" d="M133.481,-114.559C159.836,-109.394 190.088,-103.465 215.314,-98.5213"/>
<polygon fill="midnightblue" stroke="midnightblue" points="132.73,-111.139 123.59,-116.497 134.077,-118.009 132.73,-111.139"/>
</g>
<!-- Node3 -->
<g id="node5" class="node"><title>Node3</title>
<a xlink:href="class_ro_r_frame_listener.html#acd8647e188fb8e838689492965b86faf" target="_top" xlink:title="RoRFrameListener::frameStarted">
<polygon fill="white" stroke="black" points="1282.5,-97.5 1282.5,-118.5 1443.5,-118.5 1443.5,-97.5 1282.5,-97.5"/>
<text text-anchor="middle" x="1363" y="-105.5" font-family="Helvetica,sans-Serif" font-size="10.00">RoRFrameListener::frameStarted</text>
</a>
</g>
<!-- Node2&#45;&gt;Node3 -->
<g id="edge4" class="edge"><title>Node2&#45;&gt;Node3</title>
<path fill="none" stroke="midnightblue" d="M1242.72,-108C1255.96,-108 1269.5,-108 1282.49,-108"/>
<polygon fill="midnightblue" stroke="midnightblue" points="1242.66,-104.5 1232.66,-108 1242.66,-111.5 1242.66,-104.5"/>
</g>
<!-- Node4&#45;&gt;Node2 -->
<g id="edge8" class="edge"><title>Node4&#45;&gt;Node2</title>
<path fill="none" stroke="midnightblue" d="M372.116,-90.3409C548.808,-94.3521 905.978,-102.46 1067.44,-106.126"/>
<polygon fill="midnightblue" stroke="midnightblue" points="372.109,-86.8399 362.032,-90.112 371.95,-93.8381 372.109,-86.8399"/>
</g>
<!-- Node5 -->
<g id="node10" class="node"><title>Node5</title>
<a xlink:href="class_ro_r_frame_listener.html#abbab3f9d2773790f0d8567ee4434a739" target="_top" xlink:title="RoRFrameListener::InitTrucks">
<polygon fill="white" stroke="black" points="868.5,-38.5 868.5,-59.5 1017.5,-59.5 1017.5,-38.5 868.5,-38.5"/>
<text text-anchor="middle" x="943" y="-46.5" font-family="Helvetica,sans-Serif" font-size="10.00">RoRFrameListener::InitTrucks</text>
</a>
</g>
<!-- Node4&#45;&gt;Node5 -->
<g id="edge10" class="edge"><title>Node4&#45;&gt;Node5</title>
<path fill="none" stroke="midnightblue" d="M369.253,-76.5027C378.961,-75.5752 388.665,-74.72 398,-74 565.862,-61.0538 763.365,-54.0331 868.42,-50.9507"/>
<polygon fill="midnightblue" stroke="midnightblue" points="368.762,-73.034 359.151,-77.4929 369.445,-80.0006 368.762,-73.034"/>
</g>
<!-- Node11 -->
<g id="node23" class="node"><title>Node11</title>
<a xlink:href="class_ro_r_frame_listener.html#accf1a2895ee6b67789cfaa570bfa01cb" target="_top" xlink:title="RoRFrameListener::reloadCurrentTruck">
<polygon fill="white" stroke="black" points="644,-116.5 644,-137.5 832,-137.5 832,-116.5 644,-116.5"/>
<text text-anchor="middle" x="738" y="-124.5" font-family="Helvetica,sans-Serif" font-size="10.00">RoRFrameListener::reloadCurrentTruck</text>
</a>
</g>
<!-- Node4&#45;&gt;Node11 -->
<g id="edge24" class="edge"><title>Node4&#45;&gt;Node11</title>
<path fill="none" stroke="midnightblue" d="M372.46,-99.5477C381.096,-100.414 389.696,-101.244 398,-102 480.963,-109.55 575.476,-116.355 643.76,-120.952"/>
<polygon fill="midnightblue" stroke="midnightblue" points="372.623,-96.0463 362.32,-98.5154 371.914,-103.01 372.623,-96.0463"/>
</g>
<!-- Node12 -->
<g id="node26" class="node"><title>Node12</title>
<a xlink:href="class_terrain_object_manager.html#a202d577cb222f42c46e5b6600c9626a4" target="_top" xlink:title="TerrainObjectManager::loadPreloadedTrucks">
<polygon fill="white" stroke="black" points="398,-0.5 398,-21.5 608,-21.5 608,-0.5 398,-0.5"/>
<text text-anchor="middle" x="503" y="-8.5" font-family="Helvetica,sans-Serif" font-size="10.00">TerrainObjectManager::loadPreloadedTrucks</text>
</a>
</g>
<!-- Node4&#45;&gt;Node12 -->
<g id="edge28" class="edge"><title>Node4&#45;&gt;Node12</title>
<path fill="none" stroke="midnightblue" d="M301.686,-73.2425C327.47,-61.9892 364.542,-46.6606 398,-36 415.408,-30.4533 434.787,-25.5053 452.11,-21.5045"/>
<polygon fill="midnightblue" stroke="midnightblue" points="300.128,-70.1039 292.387,-77.3377 302.95,-76.5101 300.128,-70.1039"/>
</g>
<!-- Node5&#45;&gt;Node2 -->
<g id="edge12" class="edge"><title>Node5&#45;&gt;Node2</title>
<path fill="none" stroke="midnightblue" d="M989.638,-62.2929C1026.92,-72.9191 1078.47,-87.6136 1112.96,-97.444"/>
<polygon fill="midnightblue" stroke="midnightblue" points="990.584,-58.9232 980.007,-59.548 988.665,-65.6551 990.584,-58.9232"/>
</g>
<!-- Node6 -->
<g id="node13" class="node"><title>Node6</title>
<a xlink:href="class_ro_r_1_1_main_thread.html#aa3feeebda7f3f4c31a6cb96ea60c09e0" target="_top" xlink:title="RoR::MainThread::SetupGameplayLoop">
<polygon fill="white" stroke="black" points="1054.5,-38.5 1054.5,-59.5 1245.5,-59.5 1245.5,-38.5 1054.5,-38.5"/>
<text text-anchor="middle" x="1150" y="-46.5" font-family="Helvetica,sans-Serif" font-size="10.00">RoR::MainThread::SetupGameplayLoop</text>
</a>
</g>
<!-- Node5&#45;&gt;Node6 -->
<g id="edge14" class="edge"><title>Node5&#45;&gt;Node6</title>
<path fill="none" stroke="midnightblue" d="M1027.91,-49C1036.67,-49 1045.61,-49 1054.47,-49"/>
<polygon fill="midnightblue" stroke="midnightblue" points="1027.73,-45.5001 1017.73,-49 1027.73,-52.5001 1027.73,-45.5001"/>
</g>
<!-- Node7 -->
<g id="node15" class="node"><title>Node7</title>
<a xlink:href="class_ro_r_1_1_main_thread.html#a7e4d0bd23a40e509892883af75ea0dbf" target="_top" xlink:title="RoR::MainThread::Go">
<polygon fill="white" stroke="black" points="1306.5,-38.5 1306.5,-59.5 1419.5,-59.5 1419.5,-38.5 1306.5,-38.5"/>
<text text-anchor="middle" x="1363" y="-46.5" font-family="Helvetica,sans-Serif" font-size="10.00">RoR::MainThread::Go</text>
</a>
</g>
<!-- Node6&#45;&gt;Node7 -->
<g id="edge16" class="edge"><title>Node6&#45;&gt;Node7</title>
<path fill="none" stroke="midnightblue" d="M1255.86,-49C1273.32,-49 1290.81,-49 1306.44,-49"/>
<polygon fill="midnightblue" stroke="midnightblue" points="1255.6,-45.5001 1245.6,-49 1255.6,-52.5001 1255.6,-45.5001"/>
</g>
<!-- Node8 -->
<g id="node17" class="node"><title>Node8</title>
<a xlink:href="main_2main__sim_2main_8cpp.html#a0ddf1224851353fc92bfbff6f499fa97" target="_top" xlink:title="main">
<polygon fill="white" stroke="black" points="1546,-58.5 1546,-79.5 1584,-79.5 1584,-58.5 1546,-58.5"/>
<text text-anchor="middle" x="1565" y="-66.5" font-family="Helvetica,sans-Serif" font-size="10.00">main</text>
</a>
</g>
<!-- Node7&#45;&gt;Node8 -->
<g id="edge18" class="edge"><title>Node7&#45;&gt;Node8</title>
<path fill="none" stroke="midnightblue" d="M1429.66,-55.5998C1470.25,-59.6193 1519.25,-64.4707 1545.74,-67.093"/>
<polygon fill="midnightblue" stroke="midnightblue" points="1429.83,-52.1001 1419.54,-54.5977 1429.14,-59.066 1429.83,-52.1001"/>
</g>
<!-- Node9 -->
<g id="node19" class="node"><title>Node9</title>
<a xlink:href="class_ro_r_1_1_main_thread.html#a7a2db954fd2f35d63982d8603d2b9614" target="_top" xlink:title="RoR::MainThread::RequestRestart">
<polygon fill="white" stroke="black" points="1480.5,-18.5 1480.5,-39.5 1649.5,-39.5 1649.5,-18.5 1480.5,-18.5"/>
<text text-anchor="middle" x="1565" y="-26.5" font-family="Helvetica,sans-Serif" font-size="10.00">RoR::MainThread::RequestRestart</text>
</a>
</g>
<!-- Node7&#45;&gt;Node9 -->
<g id="edge20" class="edge"><title>Node7&#45;&gt;Node9</title>
<path fill="none" stroke="midnightblue" d="M1429.89,-42.3767C1445.97,-40.7847 1463.36,-39.0634 1480.14,-37.4024"/>
<polygon fill="midnightblue" stroke="midnightblue" points="1429.14,-38.934 1419.54,-43.4023 1429.83,-45.8999 1429.14,-38.934"/>
</g>
<!-- Node10 -->
<g id="node21" class="node"><title>Node10</title>
<a xlink:href="class_ro_r_frame_listener.html#af2779b96aa0f91920bd100bc30261402" target="_top" xlink:title="RoRFrameListener::Restart">
<polygon fill="white" stroke="black" points="1686.5,-18.5 1686.5,-39.5 1823.5,-39.5 1823.5,-18.5 1686.5,-18.5"/>
<text text-anchor="middle" x="1755" y="-26.5" font-family="Helvetica,sans-Serif" font-size="10.00">RoRFrameListener::Restart</text>
</a>
</g>
<!-- Node9&#45;&gt;Node10 -->
<g id="edge22" class="edge"><title>Node9&#45;&gt;Node10</title>
<path fill="none" stroke="midnightblue" d="M1659.82,-29C1668.78,-29 1677.75,-29 1686.4,-29"/>
<polygon fill="midnightblue" stroke="midnightblue" points="1659.72,-25.5001 1649.72,-29 1659.72,-32.5001 1659.72,-25.5001"/>
</g>
<!-- Node11&#45;&gt;Node2 -->
<g id="edge26" class="edge"><title>Node11&#45;&gt;Node2</title>
<path fill="none" stroke="midnightblue" d="M842.136,-122.198C911.865,-118.982 1002.4,-114.807 1067.21,-111.818"/>
<polygon fill="midnightblue" stroke="midnightblue" points="841.833,-118.708 832.005,-122.665 842.155,-125.7 841.833,-118.708"/>
</g>
<!-- Node13 -->
<g id="node28" class="node"><title>Node13</title>
<a xlink:href="class_terrain_manager.html#ac666fc0221c16001186b83cd6df66691" target="_top" xlink:title="TerrainManager::loadPreloadedTrucks">
<polygon fill="white" stroke="black" points="647,-0.5 647,-21.5 829,-21.5 829,-0.5 647,-0.5"/>
<text text-anchor="middle" x="738" y="-8.5" font-family="Helvetica,sans-Serif" font-size="10.00">TerrainManager::loadPreloadedTrucks</text>
</a>
</g>
<!-- Node12&#45;&gt;Node13 -->
<g id="edge30" class="edge"><title>Node12&#45;&gt;Node13</title>
<path fill="none" stroke="midnightblue" d="M618.176,-11C627.837,-11 637.518,-11 646.959,-11"/>
<polygon fill="midnightblue" stroke="midnightblue" points="618.128,-7.5001 608.128,-11 618.128,-14.5001 618.128,-7.5001"/>
</g>
<!-- Node13&#45;&gt;Node5 -->
<g id="edge32" class="edge"><title>Node13&#45;&gt;Node5</title>
<path fill="none" stroke="midnightblue" d="M804.706,-23.365C830.973,-28.2341 860.827,-33.768 886.058,-38.4449"/>
<polygon fill="midnightblue" stroke="midnightblue" points="805.302,-19.916 794.832,-21.5347 804.026,-26.7987 805.302,-19.916"/>
</g>
</g>
</svg>
        <g id="navigator" transform="translate(0 0)" fill="#404254">
                <rect fill="#f2f5e9" fill-opacity="0.5" stroke="#606060" stroke-width=".5" x="0" y="0" width="60" height="60"/>
                <use id="zoomplus" xlink:href="#zoomPlus" x="17" y="9" onmousedown="handleZoom(evt,'in')"/>
                <use id="zoomminus" xlink:href="#zoomMin" x="42" y="9" onmousedown="handleZoom(evt,'out')"/>
                <use id="reset" xlink:href="#resetDef" x="30" y="36" onmousedown="handleReset()"/>
                <g id="arrowUp" xlink:href="#dirArrow" transform="translate(30 24)" onmousedown="handlePan(0,-1)">
                  <use xlink:href="#rim" fill="#404040">
                        <set attributeName="fill" to="#808080" begin="arrowUp.mouseover" end="arrowUp.mouseout"/>
                  </use>
                  <path fill="none" stroke="white" stroke-width="1.5" d="M0,-3.0v7 M-2.5,-0.5L0,-3.0L2.5,-0.5"/>
                </g>
                <g id="arrowRight" xlink:href="#dirArrow" transform="rotate(90) translate(36 -43)" onmousedown="handlePan(1,0)">
                  <use xlink:href="#rim" fill="#404040">
                        <set attributeName="fill" to="#808080" begin="arrowRight.mouseover" end="arrowRight.mouseout"/>
                  </use>
                  <path fill="none" stroke="white" stroke-width="1.5" d="M0,-3.0v7 M-2.5,-0.5L0,-3.0L2.5,-0.5"/>
                </g>
                <g id="arrowDown" xlink:href="#dirArrow" transform="rotate(180) translate(-30 -48)" onmousedown="handlePan(0,1)">
                  <use xlink:href="#rim" fill="#404040">
                        <set attributeName="fill" to="#808080" begin="arrowDown.mouseover" end="arrowDown.mouseout"/>
                  </use>
                  <path fill="none" stroke="white" stroke-width="1.5" d="M0,-3.0v7 M-2.5,-0.5L0,-3.0L2.5,-0.5"/>
                </g>
                <g id="arrowLeft" xlink:href="#dirArrow" transform="rotate(270) translate(-36 17)" onmousedown="handlePan(-1,0)">
                  <use xlink:href="#rim" fill="#404040">
                        <set attributeName="fill" to="#808080" begin="arrowLeft.mouseover" end="arrowLeft.mouseout"/>
                  </use>
                  <path fill="none" stroke="white" stroke-width="1.5" d="M0,-3.0v7 M-2.5,-0.5L0,-3.0L2.5,-0.5"/>
                </g>
        </g>
</svg>
