<?xml version="1.0" encoding="UTF-8" standalone="no"?>
<!DOCTYPE svg PUBLIC "-//W3C//DTD SVG 1.1//EN"
 "http://www.w3.org/Graphics/SVG/1.1/DTD/svg11.dtd">
<!-- Generated by graphviz version 2.26.3 (20100126.1600)
 -->
<!-- Title: G Pages: 1 -->
<svg width="246pt" height="70pt"
 viewBox="0.00 0.00 246.00 70.00" xmlns="http://www.w3.org/2000/svg" xmlns:xlink="http://www.w3.org/1999/xlink">
<g id="graph1" class="graph" transform="scale(1 1) rotate(0) translate(4 66)">
<title>G</title>
<polygon fill="white" stroke="white" points="-4,5 -4,-66 243,-66 243,5 -4,5"/>
<!-- Node1 -->
<g id="node1" class="node"><title>Node1</title>
<polygon fill="#bfbfbf" stroke="black" points="0,-20.5 0,-41.5 118,-41.5 118,-20.5 0,-20.5"/>
<text text-anchor="middle" x="59" y="-28.5" font-family="Helvetica,sans-Serif" font-size="10.00">DOFManager::Aperture</text>
</g>
<!-- Node2 -->
<g id="node3" class="node"><title>Node2</title>
<a xlink:href="class_lens.html#ab5892b1e2a3fa67d12502359996a887b" target="_top" xlink:title="Lens::getFStop">
<polygon fill="white" stroke="black" points="154.5,-40.5 154.5,-61.5 237.5,-61.5 237.5,-40.5 154.5,-40.5"/>
<text text-anchor="middle" x="196" y="-48.5" font-family="Helvetica,sans-Serif" font-size="10.00">Lens::getFStop</text>
</a>
</g>
<!-- Node1&#45;&gt;Node2 -->
<g id="edge2" class="edge"><title>Node1&#45;&gt;Node2</title>
<path fill="none" stroke="midnightblue" d="M118.293,-39.656C126.931,-40.9169 135.767,-42.2068 144.239,-43.4437"/>
<polygon fill="midnightblue" stroke="midnightblue" points="143.954,-46.9391 154.355,-44.9204 144.965,-40.0125 143.954,-46.9391"/>
</g>
<!-- Node3 -->
<g id="node5" class="node"><title>Node3</title>
<a xlink:href="class_lens.html#aa86f46c4ce4ad2c9634b63b097958bca" target="_top" xlink:title="Lens::setFStop">
<polygon fill="white" stroke="black" points="154.5,-0.5 154.5,-21.5 237.5,-21.5 237.5,-0.5 154.5,-0.5"/>
<text text-anchor="middle" x="196" y="-8.5" font-family="Helvetica,sans-Serif" font-size="10.00">Lens::setFStop</text>
</a>
</g>
<!-- Node1&#45;&gt;Node3 -->
<g id="edge4" class="edge"><title>Node1&#45;&gt;Node3</title>
<path fill="none" stroke="midnightblue" d="M118.293,-22.344C126.931,-21.0831 135.767,-19.7932 144.239,-18.5563"/>
<polygon fill="midnightblue" stroke="midnightblue" points="144.965,-21.9875 154.355,-17.0796 143.954,-15.0609 144.965,-21.9875"/>
</g>
</g>
</svg>
