<?xml version="1.0" encoding="UTF-8" standalone="no"?>
<!DOCTYPE svg PUBLIC "-//W3C//DTD SVG 1.1//EN"
 "http://www.w3.org/Graphics/SVG/1.1/DTD/svg11.dtd">
<!-- Generated by graphviz version 2.26.3 (20100126.1600)
 -->
<!-- Title: RigSpawner::ProcessSlidenode Pages: 1 -->
<!--zoomable 301 -->
<svg id="main" version="1.1" xmlns="http://www.w3.org/2000/svg" xmlns:xlink="http://www.w3.org/1999/xlink" xml:space="preserve" onload="init(evt)">
<style type="text/css"><![CDATA[
.edge:hover path { stroke: red; }
.edge:hover polygon { stroke: red; fill: red; }
]]></style>
<script type="text/javascript"><![CDATA[
var edges = document.getElementsByTagName('g');
if (edges && edges.length) {
  for (var i=0;i<edges.length;i++) {
    if (edges[i].id.substr(0,4)=='edge') {
      edges[i].setAttribute('class','edge');
    }
  }
}
]]></script>
        <defs>
                <circle id="rim" cx="0" cy="0" r="7"/>
                <circle id="rim2" cx="0" cy="0" r="3.5"/>
                <g id="zoomPlus">
                        <use xlink:href="#rim" fill="#404040">
                                <set attributeName="fill" to="#808080" begin="zoomplus.mouseover" end="zoomplus.mouseout"/>
                        </use>
                        <path d="M-4,0h8M0,-4v8" fill="none" stroke="white" stroke-width="1.5" pointer-events="none"/>
                </g>
                <g id="zoomMin">
                        <use xlink:href="#rim" fill="#404040">
                                <set attributeName="fill" to="#808080" begin="zoomminus.mouseover" end="zoomminus.mouseout"/>
                        </use>
                        <path d="M-4,0h8" fill="none" stroke="white" stroke-width="1.5" pointer-events="none"/>
                </g>
                <g id="dirArrow">
                        <path fill="none" stroke="white" stroke-width="1.5" d="M0,-3.0v7 M-2.5,-0.5L0,-3.0L2.5,-0.5"/>
                </g>
               <g id="resetDef">
                       <use xlink:href="#rim2" fill="#404040">
                               <set attributeName="fill" to="#808080" begin="reset.mouseover" end="reset.mouseout"/>
                       </use>
               </g>
        </defs>

<script type="text/javascript">
var viewWidth = 1170;
var viewHeight = 301;
var sectionId = 'dynsection-82';
</script>
<script xlink:href="svgpan.js"/>
<svg id="graph" class="graph">
<g id="viewport">
<title>RigSpawner::ProcessSlidenode</title>
<polygon fill="white" stroke="white" points="-4,5 -4,-297 1167,-297 1167,5 -4,5"/>
<!-- Node1 -->
<g id="node1" class="node"><title>Node1</title>
<polygon fill="#bfbfbf" stroke="black" points="0.5,-151.5 0.5,-172.5 155.5,-172.5 155.5,-151.5 0.5,-151.5"/>
<text text-anchor="middle" x="78" y="-159.5" font-family="Helvetica,sans-Serif" font-size="10.00">RigSpawner::ProcessSlidenode</text>
</g>
<!-- Node2 -->
<g id="node3" class="node"><title>Node2</title>
<a xlink:href="class_slide_node.html#adcee5a4e21607e9f5a6ff1fb00603141" target="_top" xlink:title="distance from a beam before corrective forces take effect ">
<polygon fill="white" stroke="black" points="206,-271.5 206,-292.5 330,-292.5 330,-271.5 206,-271.5"/>
<text text-anchor="middle" x="268" y="-279.5" font-family="Helvetica,sans-Serif" font-size="10.00">SlideNode::setThreshold</text>
</a>
</g>
<!-- Node1&#45;&gt;Node2 -->
<g id="edge2" class="edge"><title>Node1&#45;&gt;Node2</title>
<path fill="none" stroke="midnightblue" d="M86.8858,-172.536C104.689,-192.958 146.904,-238.022 192,-262 196.22,-264.244 200.708,-266.248 205.312,-268.036"/>
<polygon fill="midnightblue" stroke="midnightblue" points="204.282,-271.384 214.876,-271.411 206.611,-264.783 204.282,-271.384"/>
</g>
<!-- Node3 -->
<g id="node5" class="node"><title>Node3</title>
<a xlink:href="class_slide_node.html#a858bcffba2de9eb8f79a424f852093b6" target="_top" xlink:title="spring force used to calculate corrective forces ">
<polygon fill="white" stroke="black" points="203,-231.5 203,-252.5 333,-252.5 333,-231.5 203,-231.5"/>
<text text-anchor="middle" x="268" y="-239.5" font-family="Helvetica,sans-Serif" font-size="10.00">SlideNode::setSpringRate</text>
</a>
</g>
<!-- Node1&#45;&gt;Node3 -->
<g id="edge4" class="edge"><title>Node1&#45;&gt;Node3</title>
<path fill="none" stroke="midnightblue" d="M95.1866,-172.637C117.01,-185.765 156.147,-208.057 192,-222 198.237,-224.425 204.873,-226.656 211.528,-228.676"/>
<polygon fill="midnightblue" stroke="midnightblue" points="210.667,-232.071 221.245,-231.486 212.611,-225.346 210.667,-232.071"/>
</g>
<!-- Node4 -->
<g id="node7" class="node"><title>Node4</title>
<a xlink:href="class_slide_node.html#adafe888657c615c57d9a2639a1450136" target="_top" xlink:title="how long it will take for springs to fully attach to the Rail ">
<polygon fill="white" stroke="black" points="192,-191.5 192,-212.5 344,-212.5 344,-191.5 192,-191.5"/>
<text text-anchor="middle" x="268" y="-199.5" font-family="Helvetica,sans-Serif" font-size="10.00">SlideNode::setAttachmentRate</text>
</a>
</g>
<!-- Node1&#45;&gt;Node4 -->
<g id="edge6" class="edge"><title>Node1&#45;&gt;Node4</title>
<path fill="none" stroke="midnightblue" d="M127.92,-172.51C152.477,-177.679 182.266,-183.951 208.049,-189.379"/>
<polygon fill="midnightblue" stroke="midnightblue" points="207.577,-192.856 218.084,-191.491 209.019,-186.006 207.577,-192.856"/>
</g>
<!-- Node5 -->
<g id="node9" class="node"><title>Node5</title>
<a xlink:href="class_slide_node.html#aa24c32635f4321d6b2c705e9f68390b3" target="_top" xlink:title="Force required to break the Node from the Rail. ">
<polygon fill="white" stroke="black" points="202.5,-151.5 202.5,-172.5 333.5,-172.5 333.5,-151.5 202.5,-151.5"/>
<text text-anchor="middle" x="268" y="-159.5" font-family="Helvetica,sans-Serif" font-size="10.00">SlideNode::setBreakForce</text>
</a>
</g>
<!-- Node1&#45;&gt;Node5 -->
<g id="edge8" class="edge"><title>Node1&#45;&gt;Node5</title>
<path fill="none" stroke="midnightblue" d="M155.554,-162C167.659,-162 180.156,-162 192.22,-162"/>
<polygon fill="midnightblue" stroke="midnightblue" points="192.235,-165.5 202.235,-162 192.235,-158.5 192.235,-165.5"/>
</g>
<!-- Node6 -->
<g id="node11" class="node"><title>Node6</title>
<a xlink:href="class_slide_node.html#a7a772c740bf9fe5cb348cf9d7e3bb946" target="_top" xlink:title="maximum distance this spring node is allowed to reach out for a Rail ">
<polygon fill="white" stroke="black" points="202.5,-99 202.5,-133 333.5,-133 333.5,-99 202.5,-99"/>
<text text-anchor="start" x="210.5" y="-120" font-family="Helvetica,sans-Serif" font-size="10.00">SlideNode::setAttachment</text>
<text text-anchor="middle" x="268" y="-107" font-family="Helvetica,sans-Serif" font-size="10.00">Distance</text>
</a>
</g>
<!-- Node1&#45;&gt;Node6 -->
<g id="edge10" class="edge"><title>Node1&#45;&gt;Node6</title>
<path fill="none" stroke="midnightblue" d="M121.59,-151.447C142.582,-146.364 168.366,-140.122 192.416,-134.299"/>
<polygon fill="midnightblue" stroke="midnightblue" points="193.345,-137.676 202.241,-131.921 191.698,-130.872 193.345,-137.676"/>
</g>
<!-- Node7 -->
<g id="node13" class="node"><title>Node7</title>
<a xlink:href="class_slide_node.html#a5db88b8bdb7a128da91a18514ceac2d3" target="_top" xlink:title="SlideNode::setAttachRule">
<polygon fill="white" stroke="black" points="203,-59.5 203,-80.5 333,-80.5 333,-59.5 203,-59.5"/>
<text text-anchor="middle" x="268" y="-67.5" font-family="Helvetica,sans-Serif" font-size="10.00">SlideNode::setAttachRule</text>
</a>
</g>
<!-- Node1&#45;&gt;Node7 -->
<g id="edge12" class="edge"><title>Node1&#45;&gt;Node7</title>
<path fill="none" stroke="midnightblue" d="M91.6167,-151.434C112.247,-135.895 153.147,-106.901 192,-90 197.45,-87.6291 203.246,-85.486 209.112,-83.5618"/>
<polygon fill="midnightblue" stroke="midnightblue" points="210.469,-86.8068 219.003,-80.5285 208.416,-80.1145 210.469,-86.8068"/>
</g>
<!-- Node9 -->
<g id="node17" class="node"><title>Node9</title>
<a xlink:href="class_slide_node.html#a1e7f3cdbbe2d0ae1085caa1207882355" target="_top" xlink:title="SlideNode::setDefaultRail">
<polygon fill="white" stroke="black" points="203,-19.5 203,-40.5 333,-40.5 333,-19.5 203,-19.5"/>
<text text-anchor="middle" x="268" y="-27.5" font-family="Helvetica,sans-Serif" font-size="10.00">SlideNode::setDefaultRail</text>
</a>
</g>
<!-- Node1&#45;&gt;Node9 -->
<g id="edge16" class="edge"><title>Node1&#45;&gt;Node9</title>
<path fill="none" stroke="midnightblue" d="M85.8029,-151.2C102.59,-128.775 144.484,-77.0131 192,-50 195.736,-47.876 199.704,-45.9718 203.789,-44.2656"/>
<polygon fill="midnightblue" stroke="midnightblue" points="205.345,-47.4201 213.481,-40.6334 202.889,-40.8652 205.345,-47.4201"/>
</g>
<!-- Node8 -->
<g id="node15" class="node"><title>Node8</title>
<a xlink:href="class_slide_node.html#a8f8725382b867c6ed9ddaf1e7a6d710a" target="_top" xlink:title="SlideNode::setFlag">
<polygon fill="white" stroke="black" points="397,-59.5 397,-80.5 497,-80.5 497,-59.5 397,-59.5"/>
<text text-anchor="middle" x="447" y="-67.5" font-family="Helvetica,sans-Serif" font-size="10.00">SlideNode::setFlag</text>
</a>
</g>
<!-- Node7&#45;&gt;Node8 -->
<g id="edge14" class="edge"><title>Node7&#45;&gt;Node8</title>
<path fill="none" stroke="midnightblue" d="M333.129,-70C350.513,-70 369.225,-70 386.357,-70"/>
<polygon fill="midnightblue" stroke="midnightblue" points="386.794,-73.5001 396.794,-70 386.794,-66.5001 386.794,-73.5001"/>
</g>
<!-- Node10 -->
<g id="node19" class="node"><title>Node10</title>
<a xlink:href="class_slide_node.html#a3b6be868fa3b7becc403a3169d864a19" target="_top" xlink:title="SlideNode::ResetPositions">
<polygon fill="white" stroke="black" points="380,-19.5 380,-40.5 514,-40.5 514,-19.5 380,-19.5"/>
<text text-anchor="middle" x="447" y="-27.5" font-family="Helvetica,sans-Serif" font-size="10.00">SlideNode::ResetPositions</text>
</a>
</g>
<!-- Node9&#45;&gt;Node10 -->
<g id="edge18" class="edge"><title>Node9&#45;&gt;Node10</title>
<path fill="none" stroke="midnightblue" d="M333.129,-30C345,-30 357.49,-30 369.673,-30"/>
<polygon fill="midnightblue" stroke="midnightblue" points="369.814,-33.5001 379.814,-30 369.814,-26.5001 369.814,-33.5001"/>
</g>
<!-- Node11 -->
<g id="node21" class="node"><title>Node11</title>
<a xlink:href="class_slide_node.html#ac667f76769572eb2a81925c8b62dad2b" target="_top" xlink:title="SlideNode::getClosestRailAll">
<polygon fill="white" stroke="black" points="720.5,-40.5 720.5,-61.5 863.5,-61.5 863.5,-40.5 720.5,-40.5"/>
<text text-anchor="middle" x="792" y="-48.5" font-family="Helvetica,sans-Serif" font-size="10.00">SlideNode::getClosestRailAll</text>
</a>
</g>
<!-- Node10&#45;&gt;Node11 -->
<g id="edge20" class="edge"><title>Node10&#45;&gt;Node11</title>
<path fill="none" stroke="midnightblue" d="M514.338,-34.0989C570.414,-37.5121 650.464,-42.3847 710.216,-46.0219"/>
<polygon fill="midnightblue" stroke="midnightblue" points="710.18,-49.526 720.374,-46.6402 710.605,-42.539 710.18,-49.526"/>
</g>
<!-- Node14 -->
<g id="node28" class="node"><title>Node14</title>
<a xlink:href="class_slide_node.html#a5e9c99e329a64b1233bd26cd2506c4ba" target="_top" xlink:title="SlideNode::UpdatePosition">
<polygon fill="white" stroke="black" points="550,-0.5 550,-21.5 684,-21.5 684,-0.5 550,-0.5"/>
<text text-anchor="middle" x="617" y="-8.5" font-family="Helvetica,sans-Serif" font-size="10.00">SlideNode::UpdatePosition</text>
</a>
</g>
<!-- Node10&#45;&gt;Node14 -->
<g id="edge28" class="edge"><title>Node10&#45;&gt;Node14</title>
<path fill="none" stroke="midnightblue" d="M514.189,-22.4907C522.593,-21.5513 531.242,-20.5848 539.784,-19.63"/>
<polygon fill="midnightblue" stroke="midnightblue" points="540.194,-23.1061 549.743,-18.517 539.416,-16.1495 540.194,-23.1061"/>
</g>
<!-- Node12 -->
<g id="node23" class="node"><title>Node12</title>
<a xlink:href="class_rail_group.html#a6efe9a33efe24279e5bfc08f1b54ee40" target="_top" xlink:title="RailGroup::getStartRail">
<polygon fill="white" stroke="black" points="1044,-20.5 1044,-41.5 1162,-41.5 1162,-20.5 1044,-20.5"/>
<text text-anchor="middle" x="1103" y="-28.5" font-family="Helvetica,sans-Serif" font-size="10.00">RailGroup::getStartRail</text>
</a>
</g>
<!-- Node11&#45;&gt;Node12 -->
<g id="edge22" class="edge"><title>Node11&#45;&gt;Node12</title>
<path fill="none" stroke="midnightblue" d="M863.74,-46.3865C914.843,-43.1001 983.148,-38.7075 1033.69,-35.4571"/>
<polygon fill="midnightblue" stroke="midnightblue" points="1034.12,-38.9369 1043.87,-34.8023 1033.67,-31.9513 1034.12,-38.9369"/>
</g>
<!-- Node13 -->
<g id="node25" class="node"><title>Node13</title>
<a xlink:href="class_slide_node.html#ac5fd218cba138435059c5aec3ce59393" target="_top" xlink:title="SlideNode::getLenTo">
<polygon fill="white" stroke="black" points="900,-1.5 900,-22.5 1008,-22.5 1008,-1.5 900,-1.5"/>
<text text-anchor="middle" x="954" y="-9.5" font-family="Helvetica,sans-Serif" font-size="10.00">SlideNode::getLenTo</text>
</a>
</g>
<!-- Node11&#45;&gt;Node13 -->
<g id="edge24" class="edge"><title>Node11&#45;&gt;Node13</title>
<path fill="none" stroke="midnightblue" d="M835.84,-40.446C855.649,-35.677 879.245,-29.9965 900.123,-24.9704"/>
<polygon fill="midnightblue" stroke="midnightblue" points="901.222,-28.3058 910.125,-22.5624 899.584,-21.5002 901.222,-28.3058"/>
</g>
<!-- Node13&#45;&gt;Node12 -->
<g id="edge26" class="edge"><title>Node13&#45;&gt;Node12</title>
<path fill="none" stroke="midnightblue" d="M1008.21,-18.9132C1016.53,-19.9732 1025.2,-21.0798 1033.79,-22.1744"/>
<polygon fill="midnightblue" stroke="midnightblue" points="1033.43,-25.6572 1043.79,-23.4503 1034.32,-18.7134 1033.43,-25.6572"/>
</g>
<!-- Node15 -->
<g id="node30" class="node"><title>Node15</title>
<a xlink:href="class_slide_node.html#a063d11397a4c3f276ffa060d8d391393" target="_top" xlink:title="SlideNode::getClosestRail">
<polygon fill="white" stroke="black" points="726,-0.5 726,-21.5 858,-21.5 858,-0.5 726,-0.5"/>
<text text-anchor="middle" x="792" y="-8.5" font-family="Helvetica,sans-Serif" font-size="10.00">SlideNode::getClosestRail</text>
</a>
</g>
<!-- Node14&#45;&gt;Node15 -->
<g id="edge30" class="edge"><title>Node14&#45;&gt;Node15</title>
<path fill="none" stroke="midnightblue" d="M684.159,-11C694.531,-11 705.307,-11 715.859,-11"/>
<polygon fill="midnightblue" stroke="midnightblue" points="715.887,-14.5001 725.887,-11 715.887,-7.5001 715.887,-14.5001"/>
</g>
<!-- Node15&#45;&gt;Node13 -->
<g id="edge32" class="edge"><title>Node15&#45;&gt;Node13</title>
<path fill="none" stroke="midnightblue" d="M858.359,-11.4096C868.714,-11.4735 879.398,-11.5395 889.706,-11.6031"/>
<polygon fill="midnightblue" stroke="midnightblue" points="889.84,-15.1039 899.861,-11.6658 889.883,-8.10405 889.84,-15.1039"/>
</g>
</g>
</svg>
        <g id="navigator" transform="translate(0 0)" fill="#404254">
                <rect fill="#f2f5e9" fill-opacity="0.5" stroke="#606060" stroke-width=".5" x="0" y="0" width="60" height="60"/>
                <use id="zoomplus" xlink:href="#zoomPlus" x="17" y="9" onmousedown="handleZoom(evt,'in')"/>
                <use id="zoomminus" xlink:href="#zoomMin" x="42" y="9" onmousedown="handleZoom(evt,'out')"/>
                <use id="reset" xlink:href="#resetDef" x="30" y="36" onmousedown="handleReset()"/>
                <g id="arrowUp" xlink:href="#dirArrow" transform="translate(30 24)" onmousedown="handlePan(0,-1)">
                  <use xlink:href="#rim" fill="#404040">
                        <set attributeName="fill" to="#808080" begin="arrowUp.mouseover" end="arrowUp.mouseout"/>
                  </use>
                  <path fill="none" stroke="white" stroke-width="1.5" d="M0,-3.0v7 M-2.5,-0.5L0,-3.0L2.5,-0.5"/>
                </g>
                <g id="arrowRight" xlink:href="#dirArrow" transform="rotate(90) translate(36 -43)" onmousedown="handlePan(1,0)">
                  <use xlink:href="#rim" fill="#404040">
                        <set attributeName="fill" to="#808080" begin="arrowRight.mouseover" end="arrowRight.mouseout"/>
                  </use>
                  <path fill="none" stroke="white" stroke-width="1.5" d="M0,-3.0v7 M-2.5,-0.5L0,-3.0L2.5,-0.5"/>
                </g>
                <g id="arrowDown" xlink:href="#dirArrow" transform="rotate(180) translate(-30 -48)" onmousedown="handlePan(0,1)">
                  <use xlink:href="#rim" fill="#404040">
                        <set attributeName="fill" to="#808080" begin="arrowDown.mouseover" end="arrowDown.mouseout"/>
                  </use>
                  <path fill="none" stroke="white" stroke-width="1.5" d="M0,-3.0v7 M-2.5,-0.5L0,-3.0L2.5,-0.5"/>
                </g>
                <g id="arrowLeft" xlink:href="#dirArrow" transform="rotate(270) translate(-36 17)" onmousedown="handlePan(-1,0)">
                  <use xlink:href="#rim" fill="#404040">
                        <set attributeName="fill" to="#808080" begin="arrowLeft.mouseover" end="arrowLeft.mouseout"/>
                  </use>
                  <path fill="none" stroke="white" stroke-width="1.5" d="M0,-3.0v7 M-2.5,-0.5L0,-3.0L2.5,-0.5"/>
                </g>
        </g>
        <svg viewBox="0 0 15 15" width="100%" height="30px" preserveAspectRatio="xMaxYMin meet">
         <g id="arrow_out" transform="scale(0.3 0.3)">
          <a xlink:href="class_rig_spawner_aeb9cc73a5856b289f91e6a46115a01ad_cgraph_org.svg" target="_base">
           <rect id="button" ry="5" rx="5" y="6" x="6" height="38" width="38"
                fill="#f2f5e9" fill-opacity="0.5" stroke="#606060" stroke-width="1.0"/>
           <path id="arrow"
             d="M 11.500037,31.436501 C 11.940474,20.09759 22.043105,11.32322 32.158766,21.979434 L 37.068811,17.246167 C 37.068811,17.246167 37.088388,32 37.088388,32 L 22.160133,31.978069 C 22.160133,31.978069 26.997745,27.140456 26.997745,27.140456 C 18.528582,18.264221 13.291696,25.230495 11.500037,31.436501 z"
             style="fill:#404040;"/>
          </a>
         </g>
        </svg>
</svg>
