<?xml version="1.0" encoding="UTF-8" standalone="no"?>
<!DOCTYPE svg PUBLIC "-//W3C//DTD SVG 1.1//EN"
 "http://www.w3.org/Graphics/SVG/1.1/DTD/svg11.dtd">
<!-- Generated by graphviz version 2.26.3 (20100126.1600)
 -->
<!-- Title: G Pages: 1 -->
<!--zoomable 968 -->
<svg id="main" version="1.1" xmlns="http://www.w3.org/2000/svg" xmlns:xlink="http://www.w3.org/1999/xlink" xml:space="preserve" onload="init(evt)">
        <defs>
                <circle id="rim" cx="0" cy="0" r="7"/>
                <circle id="rim2" cx="0" cy="0" r="3.5"/>
                <g id="zoomPlus">
                        <use xlink:href="#rim" fill="#404040">
                                <set attributeName="fill" to="#808080" begin="zoomplus.mouseover" end="zoomplus.mouseout"/>
                        </use>
                        <path d="M-4,0h8M0,-4v8" fill="none" stroke="white" stroke-width="1.5" pointer-events="none"/>
                </g>
                <g id="zoomMin">
                        <use xlink:href="#rim" fill="#404040">
                                <set attributeName="fill" to="#808080" begin="zoomminus.mouseover" end="zoomminus.mouseout"/>
                        </use>
                        <path d="M-4,0h8" fill="none" stroke="white" stroke-width="1.5" pointer-events="none"/>
                </g>
                <g id="dirArrow">
                        <path fill="none" stroke="white" stroke-width="1.5" d="M0,-3.0v7 M-2.5,-0.5L0,-3.0L2.5,-0.5"/>
                </g>
               <g id="resetDef">
                       <use xlink:href="#rim2" fill="#404040">
                               <set attributeName="fill" to="#808080" begin="reset.mouseover" end="reset.mouseout"/>
                       </use>
               </g>
        </defs>

<script type="text/javascript">
var viewWidth = 1920;
var viewHeight = 968;
var sectionId = 'dynsection-18';
</script>
<script xlink:href="svgpan.js"/>
<svg id="graph" class="graph">
<g id="viewport">
<title>G</title>
<polygon fill="white" stroke="white" points="-4,5 -4,-964 1917,-964 1917,5 -4,5"/>
<!-- Node1 -->
<g id="node1" class="node"><title>Node1</title>
<polygon fill="#bfbfbf" stroke="black" points="0.5,-353.5 0.5,-374.5 183.5,-374.5 183.5,-353.5 0.5,-353.5"/>
<text text-anchor="middle" x="92" y="-361.5" font-family="Helvetica,sans-Serif" font-size="10.00">RoR::Application::GetOverlayWrapper</text>
</g>
<!-- Node2 -->
<g id="node3" class="node"><title>Node2</title>
<a xlink:href="struct_ro_r_1_1_aircraft_simulation.html#a3db164bd65ba10630912b8a76537f69f" target="_top" xlink:title="RoR::AircraftSimulation::UpdateVehicle">
<polygon fill="white" stroke="black" points="232,-938.5 232,-959.5 422,-959.5 422,-938.5 232,-938.5"/>
<text text-anchor="middle" x="327" y="-946.5" font-family="Helvetica,sans-Serif" font-size="10.00">RoR::AircraftSimulation::UpdateVehicle</text>
</a>
</g>
<!-- Node1&#45;&gt;Node2 -->
<g id="edge2" class="edge"><title>Node1&#45;&gt;Node2</title>
<path fill="none" stroke="midnightblue" d="M93.7316,-385.024C101.821,-477.989 138.968,-850.991 220,-929 223.812,-932.67 228.07,-935.776 232.631,-938.398"/>
<polygon fill="midnightblue" stroke="midnightblue" points="97.205,-384.562 92.8699,-374.895 90.2302,-385.155 97.205,-384.562"/>
</g>
<!-- Node3 -->
<g id="node5" class="node"><title>Node3</title>
<a xlink:href="class_ro_r_frame_listener.html#a1e91cc99dc0376d460ded48d85e07d82" target="_top" xlink:title="RoRFrameListener::StartRaceTimer">
<polygon fill="white" stroke="black" points="240,-898.5 240,-919.5 414,-919.5 414,-898.5 240,-898.5"/>
<text text-anchor="middle" x="327" y="-906.5" font-family="Helvetica,sans-Serif" font-size="10.00">RoRFrameListener::StartRaceTimer</text>
</a>
</g>
<!-- Node1&#45;&gt;Node3 -->
<g id="edge4" class="edge"><title>Node1&#45;&gt;Node3</title>
<path fill="none" stroke="midnightblue" d="M94.2548,-384.935C104.146,-472.899 146.511,-811.375 220,-884 226.174,-890.101 233.533,-894.823 241.461,-898.464"/>
<polygon fill="midnightblue" stroke="midnightblue" points="97.7183,-384.41 93.1414,-374.855 90.7606,-385.179 97.7183,-384.41"/>
</g>
<!-- Node5 -->
<g id="node9" class="node"><title>Node5</title>
<a xlink:href="class_ro_r_frame_listener.html#a8970611c63a05d2a5272fa2f58cba3ec" target="_top" xlink:title="RoRFrameListener::StopRaceTimer">
<polygon fill="white" stroke="black" points="741.5,-314.5 741.5,-335.5 914.5,-335.5 914.5,-314.5 741.5,-314.5"/>
<text text-anchor="middle" x="828" y="-322.5" font-family="Helvetica,sans-Serif" font-size="10.00">RoRFrameListener::StopRaceTimer</text>
</a>
</g>
<!-- Node1&#45;&gt;Node5 -->
<g id="edge8" class="edge"><title>Node1&#45;&gt;Node5</title>
<path fill="none" stroke="midnightblue" d="M191.213,-352.478C200.932,-351.551 210.652,-350.703 220,-350 405.412,-336.065 623.257,-329.474 741.304,-326.716"/>
<polygon fill="midnightblue" stroke="midnightblue" points="190.711,-349.01 181.101,-353.469 191.395,-355.977 190.711,-349.01"/>
</g>
<!-- Node6 -->
<g id="node11" class="node"><title>Node6</title>
<a xlink:href="class_ro_r_frame_listener.html#a6b384193b130f7c1fff95d2e740a370e" target="_top" xlink:title="RoRFrameListener::updateEvents">
<polygon fill="white" stroke="black" points="974.5,-668.5 974.5,-689.5 1139.5,-689.5 1139.5,-668.5 974.5,-668.5"/>
<text text-anchor="middle" x="1057" y="-676.5" font-family="Helvetica,sans-Serif" font-size="10.00">RoRFrameListener::updateEvents</text>
</a>
</g>
<!-- Node1&#45;&gt;Node6 -->
<g id="edge30" class="edge"><title>Node1&#45;&gt;Node6</title>
<path fill="none" stroke="midnightblue" d="M99.8537,-384.14C116.287,-423.803 157.986,-512.551 220,-563 312.329,-638.11 355.998,-624.8 470,-659 663.995,-717.197 721.367,-744.699 922,-717 959.506,-711.822 1001.26,-698.914 1028.26,-689.577"/>
<polygon fill="midnightblue" stroke="midnightblue" points="103.049,-382.705 96.057,-374.745 96.5588,-385.328 103.049,-382.705"/>
</g>
<!-- Node7 -->
<g id="node13" class="node"><title>Node7</title>
<a xlink:href="class_ro_r_frame_listener.html#acd8647e188fb8e838689492965b86faf" target="_top" xlink:title="RoRFrameListener::frameStarted">
<polygon fill="white" stroke="black" points="1206.5,-781.5 1206.5,-802.5 1367.5,-802.5 1367.5,-781.5 1206.5,-781.5"/>
<text text-anchor="middle" x="1287" y="-789.5" font-family="Helvetica,sans-Serif" font-size="10.00">RoRFrameListener::frameStarted</text>
</a>
</g>
<!-- Node1&#45;&gt;Node7 -->
<g id="edge32" class="edge"><title>Node1&#45;&gt;Node7</title>
<path fill="none" stroke="midnightblue" d="M96.5535,-384.321C108.338,-432.266 144.344,-553.329 220,-619 367.919,-747.397 984.079,-781.429 1206.49,-789.617"/>
<polygon fill="midnightblue" stroke="midnightblue" points="99.9405,-383.435 94.2331,-374.509 93.1284,-385.046 99.9405,-383.435"/>
</g>
<!-- Node8 -->
<g id="node15" class="node"><title>Node8</title>
<a xlink:href="class_ro_r_1_1_main_thread.html#a19637f726d0913e26e0d0548448d8c91" target="_top" xlink:title="RoR::MainThread::UnloadTerrain">
<polygon fill="white" stroke="black" points="1206.5,-313.5 1206.5,-334.5 1367.5,-334.5 1367.5,-313.5 1206.5,-313.5"/>
<text text-anchor="middle" x="1287" y="-321.5" font-family="Helvetica,sans-Serif" font-size="10.00">RoR::MainThread::UnloadTerrain</text>
</a>
</g>
<!-- Node1&#45;&gt;Node8 -->
<g id="edge72" class="edge"><title>Node1&#45;&gt;Node8</title>
<path fill="none" stroke="midnightblue" d="M140.91,-351.011C228.885,-328.825 419.95,-286 584,-286 584,-286 584,-286 828,-286 961.733,-286 1116.64,-302.219 1207.97,-313.465"/>
<polygon fill="midnightblue" stroke="midnightblue" points="140.033,-347.623 131.205,-353.481 141.759,-354.406 140.033,-347.623"/>
</g>
<!-- Node9 -->
<g id="node17" class="node"><title>Node9</title>
<a xlink:href="class_ro_r_1_1_main_thread.html#a7e4d0bd23a40e509892883af75ea0dbf" target="_top" xlink:title="RoR::MainThread::Go">
<polygon fill="white" stroke="black" points="1418.5,-313.5 1418.5,-334.5 1531.5,-334.5 1531.5,-313.5 1418.5,-313.5"/>
<text text-anchor="middle" x="1475" y="-321.5" font-family="Helvetica,sans-Serif" font-size="10.00">RoR::MainThread::Go</text>
</a>
</g>
<!-- Node1&#45;&gt;Node9 -->
<g id="edge60" class="edge"><title>Node1&#45;&gt;Node9</title>
<path fill="none" stroke="midnightblue" d="M104.015,-344.586C123.878,-314.512 166.715,-257.664 220,-234 343.594,-179.111 692.765,-208 828,-208 828,-208 828,-208 1057,-208 1202.43,-208 1248.46,-188.411 1382,-246 1418.18,-261.605 1451.13,-296.031 1466.26,-313.456"/>
<polygon fill="midnightblue" stroke="midnightblue" points="100.854,-343.03 98.3888,-353.334 106.742,-346.817 100.854,-343.03"/>
</g>
<!-- Node14 -->
<g id="node27" class="node"><title>Node14</title>
<a xlink:href="class_ro_r_frame_listener.html#a862b5aac31577f96f840615a8d722c68" target="_top" xlink:title="RoRFrameListener::UpdateRacingGui">
<polygon fill="white" stroke="black" points="966,-820.5 966,-841.5 1148,-841.5 1148,-820.5 966,-820.5"/>
<text text-anchor="middle" x="1057" y="-828.5" font-family="Helvetica,sans-Serif" font-size="10.00">RoRFrameListener::UpdateRacingGui</text>
</a>
</g>
<!-- Node1&#45;&gt;Node14 -->
<g id="edge26" class="edge"><title>Node1&#45;&gt;Node14</title>
<path fill="none" stroke="midnightblue" d="M94.7885,-385.001C105.967,-465.702 150.319,-754.054 220,-808 277.761,-852.717 760.805,-841.393 965.697,-834.463"/>
<polygon fill="midnightblue" stroke="midnightblue" points="98.197,-384.091 93.3809,-374.654 91.2609,-385.034 98.197,-384.091"/>
</g>
<!-- Node15 -->
<g id="node32" class="node"><title>Node15</title>
<a xlink:href="class_ro_r_frame_listener.html#adcab3ee32adad6b77c62c8d4ee40e922" target="_top" xlink:title="RoRFrameListener::frameEnded">
<polygon fill="white" stroke="black" points="248,-160.5 248,-181.5 406,-181.5 406,-160.5 248,-160.5"/>
<text text-anchor="middle" x="327" y="-168.5" font-family="Helvetica,sans-Serif" font-size="10.00">RoRFrameListener::frameEnded</text>
</a>
</g>
<!-- Node1&#45;&gt;Node15 -->
<g id="edge34" class="edge"><title>Node1&#45;&gt;Node15</title>
<path fill="none" stroke="midnightblue" d="M101.413,-343.934C119.24,-308.24 161.452,-233.911 220,-196 229.608,-189.779 240.59,-185.101 251.774,-181.584"/>
<polygon fill="midnightblue" stroke="midnightblue" points="98.0825,-342.78 96.8543,-353.303 104.377,-345.842 98.0825,-342.78"/>
</g>
<!-- Node16 -->
<g id="node34" class="node"><title>Node16</title>
<a xlink:href="class_ro_r_frame_listener.html#aeb797acb04a6e1b17e9b9a76eb2eb89f" target="_top" xlink:title="RoRFrameListener::setDirectionArrow">
<polygon fill="white" stroke="black" points="235.5,-120.5 235.5,-141.5 418.5,-141.5 418.5,-120.5 235.5,-120.5"/>
<text text-anchor="middle" x="327" y="-128.5" font-family="Helvetica,sans-Serif" font-size="10.00">RoRFrameListener::setDirectionArrow</text>
</a>
</g>
<!-- Node1&#45;&gt;Node16 -->
<g id="edge36" class="edge"><title>Node1&#45;&gt;Node16</title>
<path fill="none" stroke="midnightblue" d="M97.8889,-343.792C111.564,-300.711 149.777,-199.792 220,-151 225.432,-147.226 231.379,-144.11 237.598,-141.543"/>
<polygon fill="midnightblue" stroke="midnightblue" points="94.5184,-342.846 94.9363,-353.432 101.212,-344.896 94.5184,-342.846"/>
</g>
<!-- Node19 -->
<g id="node40" class="node"><title>Node19</title>
<a xlink:href="class_ro_r_frame_listener.html#a967b4a6d8650f6655e436dfeee0172b2" target="_top" xlink:title="RoRFrameListener::windowResized">
<polygon fill="white" stroke="black" points="1200,-840.5 1200,-861.5 1374,-861.5 1374,-840.5 1200,-840.5"/>
<text text-anchor="middle" x="1287" y="-848.5" font-family="Helvetica,sans-Serif" font-size="10.00">RoRFrameListener::windowResized</text>
</a>
</g>
<!-- Node1&#45;&gt;Node19 -->
<g id="edge42" class="edge"><title>Node1&#45;&gt;Node19</title>
<path fill="none" stroke="midnightblue" d="M94.508,-384.888C104.981,-468.388 148.058,-776.593 220,-837 282.201,-889.228 502.779,-870 584,-870 584,-870 584,-870 828,-870 957.603,-870 1107.61,-862.344 1199.9,-856.752"/>
<polygon fill="midnightblue" stroke="midnightblue" points="97.9672,-384.341 93.2708,-374.844 91.0197,-385.197 97.9672,-384.341"/>
</g>
<!-- Node20 -->
<g id="node43" class="node"><title>Node20</title>
<a xlink:href="class_ro_r_frame_listener.html#afb0bc8ea3d0074704bc564ec8ebe79cc" target="_top" xlink:title="RoRFrameListener::hideGUI">
<polygon fill="white" stroke="black" points="513.5,-628.5 513.5,-649.5 654.5,-649.5 654.5,-628.5 513.5,-628.5"/>
<text text-anchor="middle" x="584" y="-636.5" font-family="Helvetica,sans-Serif" font-size="10.00">RoRFrameListener::hideGUI</text>
</a>
</g>
<!-- Node1&#45;&gt;Node20 -->
<g id="edge46" class="edge"><title>Node1&#45;&gt;Node20</title>
<path fill="none" stroke="midnightblue" d="M105.474,-383.32C126.73,-412.51 170.728,-467.948 220,-501 322.569,-569.804 464.194,-610.7 536.843,-628.47"/>
<polygon fill="midnightblue" stroke="midnightblue" points="108.061,-380.92 99.3944,-374.826 102.369,-384.995 108.061,-380.92"/>
</g>
<!-- Node21 -->
<g id="node46" class="node"><title>Node21</title>
<a xlink:href="class_camera_behavior_vehicle_cine_cam.html#a21a3912237dcbc89df32a1e393204cc0" target="_top" xlink:title="CameraBehaviorVehicleCineCam::activate">
<polygon fill="white" stroke="black" points="225.5,-80.5 225.5,-101.5 428.5,-101.5 428.5,-80.5 225.5,-80.5"/>
<text text-anchor="middle" x="327" y="-88.5" font-family="Helvetica,sans-Serif" font-size="10.00">CameraBehaviorVehicleCineCam::activate</text>
</a>
</g>
<!-- Node1&#45;&gt;Node21 -->
<g id="edge50" class="edge"><title>Node1&#45;&gt;Node21</title>
<path fill="none" stroke="midnightblue" d="M95.9539,-343.459C106.512,-294.561 140.179,-170.878 220,-111 224.989,-107.258 230.469,-104.148 236.232,-101.57"/>
<polygon fill="midnightblue" stroke="midnightblue" points="92.4836,-342.959 93.8965,-353.459 99.34,-344.369 92.4836,-342.959"/>
</g>
<!-- Node22 -->
<g id="node48" class="node"><title>Node22</title>
<a xlink:href="class_camera_behavior_vehicle_cine_cam.html#a58aa453475d7ec367d28112855c7693b" target="_top" xlink:title="CameraBehaviorVehicleCineCam::deactivate">
<polygon fill="white" stroke="black" points="220,-40.5 220,-61.5 434,-61.5 434,-40.5 220,-40.5"/>
<text text-anchor="middle" x="327" y="-48.5" font-family="Helvetica,sans-Serif" font-size="10.00">CameraBehaviorVehicleCineCam::deactivate</text>
</a>
</g>
<!-- Node1&#45;&gt;Node22 -->
<g id="edge52" class="edge"><title>Node1&#45;&gt;Node22</title>
<path fill="none" stroke="midnightblue" d="M94.4627,-343.237C102.068,-288.988 130.36,-142.288 220,-71 224.659,-67.2947 229.792,-64.1984 235.211,-61.6174"/>
<polygon fill="midnightblue" stroke="midnightblue" points="90.9666,-342.98 93.1393,-353.349 97.9074,-343.888 90.9666,-342.98"/>
</g>
<!-- Node23 -->
<g id="node50" class="node"><title>Node23</title>
<a xlink:href="class_overlay_wrapper.html#a05a9be3b4ab3cf395e0efbec3d1d0ab9" target="_top" xlink:title="OverlayWrapper::SetupDirectionArrow">
<polygon fill="white" stroke="black" points="492.5,-392.5 492.5,-413.5 675.5,-413.5 675.5,-392.5 492.5,-392.5"/>
<text text-anchor="middle" x="584" y="-400.5" font-family="Helvetica,sans-Serif" font-size="10.00">OverlayWrapper::SetupDirectionArrow</text>
</a>
</g>
<!-- Node1&#45;&gt;Node23 -->
<g id="edge54" class="edge"><title>Node1&#45;&gt;Node23</title>
<path fill="none" stroke="midnightblue" d="M193.616,-375.493C202.534,-376.387 211.426,-377.237 220,-378 312.59,-386.24 418.64,-393.248 492.293,-397.729"/>
<polygon fill="midnightblue" stroke="midnightblue" points="193.854,-371.999 183.551,-374.467 193.144,-378.963 193.854,-371.999"/>
</g>
<!-- Node24 -->
<g id="node52" class="node"><title>Node24</title>
<a xlink:href="class_ro_r_1_1_main_thread.html#aa3feeebda7f3f4c31a6cb96ea60c09e0" target="_top" xlink:title="RoR::MainThread::SetupGameplayLoop">
<polygon fill="white" stroke="black" points="961.5,-392.5 961.5,-413.5 1152.5,-413.5 1152.5,-392.5 961.5,-392.5"/>
<text text-anchor="middle" x="1057" y="-400.5" font-family="Helvetica,sans-Serif" font-size="10.00">RoR::MainThread::SetupGameplayLoop</text>
</a>
</g>
<!-- Node1&#45;&gt;Node24 -->
<g id="edge62" class="edge"><title>Node1&#45;&gt;Node24</title>
<path fill="none" stroke="midnightblue" d="M193.965,-366.441C314.418,-369.499 520.841,-375.289 698,-383 787.336,-386.888 889.103,-392.688 961.415,-397.041"/>
<polygon fill="midnightblue" stroke="midnightblue" points="193.74,-362.934 183.655,-366.18 193.563,-369.932 193.74,-362.934"/>
</g>
<!-- Node25 -->
<g id="node57" class="node"><title>Node25</title>
<a xlink:href="class_ro_r_1_1_main_thread.html#a74fc7727056db97d2e0fb789343babd2" target="_top" xlink:title="RoR::MainThread::MainMenuLoopUpdateEvents">
<polygon fill="white" stroke="black" points="470,-236.5 470,-257.5 698,-257.5 698,-236.5 470,-236.5"/>
<text text-anchor="middle" x="584" y="-244.5" font-family="Helvetica,sans-Serif" font-size="10.00">RoR::MainThread::MainMenuLoopUpdateEvents</text>
</a>
</g>
<!-- Node1&#45;&gt;Node25 -->
<g id="edge64" class="edge"><title>Node1&#45;&gt;Node25</title>
<path fill="none" stroke="midnightblue" d="M109.737,-346.185C132.839,-324.273 175.551,-288.018 220,-272 300.002,-243.169 396.199,-237.702 469.605,-239.022"/>
<polygon fill="midnightblue" stroke="midnightblue" points="107.16,-343.809 102.413,-353.281 112.03,-348.836 107.16,-343.809"/>
</g>
<!-- Node28 -->
<g id="node65" class="node"><title>Node28</title>
<a xlink:href="class_ro_r_1_1_main_thread.html#af7d1f53cf02660323c9dfe6cc5a1e7e1" target="_top" xlink:title="RoR::MainThread::ChangedCurrentVehicle">
<polygon fill="white" stroke="black" points="225.5,-470.5 225.5,-491.5 428.5,-491.5 428.5,-470.5 225.5,-470.5"/>
<text text-anchor="middle" x="327" y="-478.5" font-family="Helvetica,sans-Serif" font-size="10.00">RoR::MainThread::ChangedCurrentVehicle</text>
</a>
</g>
<!-- Node1&#45;&gt;Node28 -->
<g id="edge74" class="edge"><title>Node1&#45;&gt;Node28</title>
<path fill="none" stroke="midnightblue" d="M122.292,-379.082C170.542,-403.104 263.672,-449.471 305.61,-470.35"/>
<polygon fill="midnightblue" stroke="midnightblue" points="123.781,-375.913 113.269,-374.589 120.661,-382.179 123.781,-375.913"/>
</g>
<!-- Node37 -->
<g id="node88" class="node"><title>Node37</title>
<a xlink:href="class_beam.html#ade4ffe1ab119440e6b0f6a8181f0c021" target="_top" xlink:title="Beam::updateDashBoards">
<polygon fill="white" stroke="black" points="261.5,-0.5 261.5,-21.5 392.5,-21.5 392.5,-0.5 261.5,-0.5"/>
<text text-anchor="middle" x="327" y="-8.5" font-family="Helvetica,sans-Serif" font-size="10.00">Beam::updateDashBoards</text>
</a>
</g>
<!-- Node1&#45;&gt;Node37 -->
<g id="edge102" class="edge"><title>Node1&#45;&gt;Node37</title>
<path fill="none" stroke="midnightblue" d="M93.2653,-343.247C98.0516,-284.172 120.283,-114.024 220,-31 231.619,-21.3264 246.425,-15.7457 261.292,-12.6445"/>
<polygon fill="midnightblue" stroke="midnightblue" points="89.7738,-343.005 92.5412,-353.232 96.7554,-343.511 89.7738,-343.005"/>
</g>
<!-- Node4 -->
<g id="node7" class="node"><title>Node4</title>
<a xlink:href="class_game_script.html#a0fe2327a5fc91ab482dbddb928521f0a" target="_top" xlink:title="GameScript::startTimer">
<polygon fill="white" stroke="black" points="524.5,-898.5 524.5,-919.5 643.5,-919.5 643.5,-898.5 524.5,-898.5"/>
<text text-anchor="middle" x="584" y="-906.5" font-family="Helvetica,sans-Serif" font-size="10.00">GameScript::startTimer</text>
</a>
</g>
<!-- Node3&#45;&gt;Node4 -->
<g id="edge6" class="edge"><title>Node3&#45;&gt;Node4</title>
<path fill="none" stroke="midnightblue" d="M424.326,-909C457.918,-909 494.536,-909 524.221,-909"/>
<polygon fill="midnightblue" stroke="midnightblue" points="424.009,-905.5 414.008,-909 424.008,-912.5 424.009,-905.5"/>
</g>
<!-- Node5&#45;&gt;Node6 -->
<g id="edge10" class="edge"><title>Node5&#45;&gt;Node6</title>
<path fill="none" stroke="midnightblue" d="M848.166,-342.353C868.497,-360.543 899.943,-390.651 922,-421 986.048,-509.126 1037.93,-631.708 1052.74,-668.288"/>
<polygon fill="midnightblue" stroke="midnightblue" points="850.263,-339.535 840.449,-335.543 845.632,-344.784 850.263,-339.535"/>
</g>
<!-- Node5&#45;&gt;Node8 -->
<g id="edge14" class="edge"><title>Node5&#45;&gt;Node8</title>
<path fill="none" stroke="midnightblue" d="M924.611,-324.79C1008.16,-324.607 1127.57,-324.347 1206.15,-324.176"/>
<polygon fill="midnightblue" stroke="midnightblue" points="924.596,-321.289 914.604,-324.811 924.612,-328.289 924.596,-321.289"/>
</g>
<!-- Node13 -->
<g id="node25" class="node"><title>Node13</title>
<a xlink:href="class_game_script.html#a532f282660f5153ba1cf73a6c8642557" target="_top" xlink:title="GameScript::stopTimer">
<polygon fill="white" stroke="black" points="998,-352.5 998,-373.5 1116,-373.5 1116,-352.5 998,-352.5"/>
<text text-anchor="middle" x="1057" y="-360.5" font-family="Helvetica,sans-Serif" font-size="10.00">GameScript::stopTimer</text>
</a>
</g>
<!-- Node5&#45;&gt;Node13 -->
<g id="edge24" class="edge"><title>Node5&#45;&gt;Node13</title>
<path fill="none" stroke="midnightblue" d="M901.411,-337.182C932.53,-342.346 968.318,-348.284 997.719,-353.163"/>
<polygon fill="midnightblue" stroke="midnightblue" points="901.923,-333.719 891.485,-335.535 900.777,-340.625 901.923,-333.719"/>
</g>
<!-- Node6&#45;&gt;Node7 -->
<g id="edge12" class="edge"><title>Node6&#45;&gt;Node7</title>
<path fill="none" stroke="midnightblue" d="M1087.8,-694.13C1135.15,-717.395 1224.65,-761.367 1265.59,-781.48"/>
<polygon fill="midnightblue" stroke="midnightblue" points="1089.16,-690.899 1078.64,-689.631 1086.07,-697.182 1089.16,-690.899"/>
</g>
<!-- Node8&#45;&gt;Node9 -->
<g id="edge16" class="edge"><title>Node8&#45;&gt;Node9</title>
<path fill="none" stroke="midnightblue" d="M1377.64,-324C1391.56,-324 1405.57,-324 1418.46,-324"/>
<polygon fill="midnightblue" stroke="midnightblue" points="1377.55,-320.5 1367.55,-324 1377.55,-327.5 1377.55,-320.5"/>
</g>
<!-- Node10 -->
<g id="node19" class="node"><title>Node10</title>
<a xlink:href="main_2main__sim_2main_8cpp.html#a0ddf1224851353fc92bfbff6f499fa97" target="_top" xlink:title="main">
<polygon fill="white" stroke="black" points="1634,-333.5 1634,-354.5 1672,-354.5 1672,-333.5 1634,-333.5"/>
<text text-anchor="middle" x="1653" y="-341.5" font-family="Helvetica,sans-Serif" font-size="10.00">main</text>
</a>
</g>
<!-- Node9&#45;&gt;Node10 -->
<g id="edge18" class="edge"><title>Node9&#45;&gt;Node10</title>
<path fill="none" stroke="midnightblue" d="M1541.83,-331.509C1574.65,-335.197 1611.76,-339.366 1633.72,-341.834"/>
<polygon fill="midnightblue" stroke="midnightblue" points="1542.14,-328.022 1531.81,-330.383 1541.36,-334.978 1542.14,-328.022"/>
</g>
<!-- Node11 -->
<g id="node21" class="node"><title>Node11</title>
<a xlink:href="class_ro_r_1_1_main_thread.html#a7a2db954fd2f35d63982d8603d2b9614" target="_top" xlink:title="RoR::MainThread::RequestRestart">
<polygon fill="white" stroke="black" points="1568.5,-293.5 1568.5,-314.5 1737.5,-314.5 1737.5,-293.5 1568.5,-293.5"/>
<text text-anchor="middle" x="1653" y="-301.5" font-family="Helvetica,sans-Serif" font-size="10.00">RoR::MainThread::RequestRestart</text>
</a>
</g>
<!-- Node9&#45;&gt;Node11 -->
<g id="edge20" class="edge"><title>Node9&#45;&gt;Node11</title>
<path fill="none" stroke="midnightblue" d="M1541.78,-316.497C1550.4,-315.528 1559.32,-314.526 1568.18,-313.53"/>
<polygon fill="midnightblue" stroke="midnightblue" points="1541.36,-313.022 1531.81,-317.617 1542.14,-319.978 1541.36,-313.022"/>
</g>
<!-- Node12 -->
<g id="node23" class="node"><title>Node12</title>
<a xlink:href="class_ro_r_frame_listener.html#af2779b96aa0f91920bd100bc30261402" target="_top" xlink:title="RoRFrameListener::Restart">
<polygon fill="white" stroke="black" points="1774.5,-293.5 1774.5,-314.5 1911.5,-314.5 1911.5,-293.5 1774.5,-293.5"/>
<text text-anchor="middle" x="1843" y="-301.5" font-family="Helvetica,sans-Serif" font-size="10.00">RoRFrameListener::Restart</text>
</a>
</g>
<!-- Node11&#45;&gt;Node12 -->
<g id="edge22" class="edge"><title>Node11&#45;&gt;Node12</title>
<path fill="none" stroke="midnightblue" d="M1747.82,-304C1756.78,-304 1765.75,-304 1774.4,-304"/>
<polygon fill="midnightblue" stroke="midnightblue" points="1747.72,-300.5 1737.72,-304 1747.72,-307.5 1747.72,-300.5"/>
</g>
<!-- Node14&#45;&gt;Node7 -->
<g id="edge28" class="edge"><title>Node14&#45;&gt;Node7</title>
<path fill="none" stroke="midnightblue" d="M1129.17,-818.763C1159.91,-813.551 1195.41,-807.53 1224.95,-802.521"/>
<polygon fill="midnightblue" stroke="midnightblue" points="1128.21,-815.375 1118.94,-820.497 1129.38,-822.276 1128.21,-815.375"/>
</g>
<!-- Node17 -->
<g id="node36" class="node"><title>Node17</title>
<a xlink:href="class_game_script.html#ae54cf00c2a516f4dd893d3ec582b7a27" target="_top" xlink:title="GameScript::setDirectionArrow">
<polygon fill="white" stroke="black" points="508,-99.5 508,-120.5 660,-120.5 660,-99.5 508,-99.5"/>
<text text-anchor="middle" x="584" y="-107.5" font-family="Helvetica,sans-Serif" font-size="10.00">GameScript::setDirectionArrow</text>
</a>
</g>
<!-- Node16&#45;&gt;Node17 -->
<g id="edge38" class="edge"><title>Node16&#45;&gt;Node17</title>
<path fill="none" stroke="midnightblue" d="M428.687,-122.691C454.984,-120.542 482.849,-118.265 507.608,-116.242"/>
<polygon fill="midnightblue" stroke="midnightblue" points="428.376,-119.205 418.694,-123.507 428.946,-126.181 428.376,-119.205"/>
</g>
<!-- Node18 -->
<g id="node38" class="node"><title>Node18</title>
<a xlink:href="class_game_script.html#ab656935867c0cac45d7b814c8a78a1df" target="_top" xlink:title="GameScript::hideDirectionArrow">
<polygon fill="white" stroke="black" points="505.5,-139.5 505.5,-160.5 662.5,-160.5 662.5,-139.5 505.5,-139.5"/>
<text text-anchor="middle" x="584" y="-147.5" font-family="Helvetica,sans-Serif" font-size="10.00">GameScript::hideDirectionArrow</text>
</a>
</g>
<!-- Node16&#45;&gt;Node18 -->
<g id="edge40" class="edge"><title>Node16&#45;&gt;Node18</title>
<path fill="none" stroke="midnightblue" d="M428.725,-138.52C454.13,-140.399 480.996,-142.385 505.109,-144.168"/>
<polygon fill="midnightblue" stroke="midnightblue" points="428.925,-135.026 418.694,-137.779 428.409,-142.007 428.925,-135.026"/>
</g>
<!-- Node19&#45;&gt;Node9 -->
<g id="edge44" class="edge"><title>Node19&#45;&gt;Node9</title>
<path fill="none" stroke="midnightblue" d="M1347.34,-836.638C1360.42,-830.932 1373.02,-823.001 1382,-812 1445.01,-734.842 1470.03,-399.589 1474.32,-334.845"/>
<polygon fill="midnightblue" stroke="midnightblue" points="1345.79,-833.488 1337.77,-840.412 1348.36,-840 1345.79,-833.488"/>
</g>
<!-- Node20&#45;&gt;Node6 -->
<g id="edge48" class="edge"><title>Node20&#45;&gt;Node6</title>
<path fill="none" stroke="midnightblue" d="M612.914,-654.426C642.403,-669.218 689.955,-690.518 734,-699 829.996,-717.487 944.715,-701.604 1008.36,-689.532"/>
<polygon fill="midnightblue" stroke="midnightblue" points="614.134,-651.119 603.636,-649.687 610.949,-657.353 614.134,-651.119"/>
</g>
<!-- Node23&#45;&gt;Node24 -->
<g id="edge56" class="edge"><title>Node23&#45;&gt;Node24</title>
<path fill="none" stroke="midnightblue" d="M686.062,-403C767.76,-403 881.507,-403 961.439,-403"/>
<polygon fill="midnightblue" stroke="midnightblue" points="685.76,-399.5 675.76,-403 685.76,-406.5 685.76,-399.5"/>
</g>
<!-- Node24&#45;&gt;Node9 -->
<g id="edge58" class="edge"><title>Node24&#45;&gt;Node9</title>
<path fill="none" stroke="midnightblue" d="M1128.08,-390.776C1194.01,-379.277 1294.79,-361.289 1382,-344 1396.74,-341.078 1412.75,-337.706 1427.27,-334.573"/>
<polygon fill="midnightblue" stroke="midnightblue" points="1127.46,-387.331 1118.21,-392.495 1128.66,-394.227 1127.46,-387.331"/>
</g>
<!-- Node26 -->
<g id="node59" class="node"><title>Node26</title>
<a xlink:href="class_ro_r_1_1_main_thread.html#ab48ab040ee463287f7953eef17ad4c62" target="_top" xlink:title="RoR::MainThread::MainMenuLoopUpdate">
<polygon fill="white" stroke="black" points="958.5,-236.5 958.5,-257.5 1155.5,-257.5 1155.5,-236.5 958.5,-236.5"/>
<text text-anchor="middle" x="1057" y="-244.5" font-family="Helvetica,sans-Serif" font-size="10.00">RoR::MainThread::MainMenuLoopUpdate</text>
</a>
</g>
<!-- Node25&#45;&gt;Node26 -->
<g id="edge66" class="edge"><title>Node25&#45;&gt;Node26</title>
<path fill="none" stroke="midnightblue" d="M708.572,-247C786.57,-247 885.678,-247 958.237,-247"/>
<polygon fill="midnightblue" stroke="midnightblue" points="708.199,-243.5 698.199,-247 708.199,-250.5 708.199,-243.5"/>
</g>
<!-- Node27 -->
<g id="node61" class="node"><title>Node27</title>
<a xlink:href="class_ro_r_1_1_main_thread.html#a0be80b570e45a4de035b1f1b9684497c" target="_top" xlink:title="RoR::MainThread::EnterMainMenuLoop">
<polygon fill="white" stroke="black" points="1192.5,-255.5 1192.5,-276.5 1381.5,-276.5 1381.5,-255.5 1192.5,-255.5"/>
<text text-anchor="middle" x="1287" y="-263.5" font-family="Helvetica,sans-Serif" font-size="10.00">RoR::MainThread::EnterMainMenuLoop</text>
</a>
</g>
<!-- Node26&#45;&gt;Node27 -->
<g id="edge68" class="edge"><title>Node26&#45;&gt;Node27</title>
<path fill="none" stroke="midnightblue" d="M1165.59,-255.97C1174.52,-256.708 1183.5,-257.45 1192.31,-258.178"/>
<polygon fill="midnightblue" stroke="midnightblue" points="1165.8,-252.476 1155.54,-255.14 1165.22,-259.452 1165.8,-252.476"/>
</g>
<!-- Node27&#45;&gt;Node9 -->
<g id="edge70" class="edge"><title>Node27&#45;&gt;Node9</title>
<path fill="none" stroke="midnightblue" d="M1330.61,-279.454C1364.19,-289.814 1409.96,-303.933 1440.89,-313.477"/>
<polygon fill="midnightblue" stroke="midnightblue" points="1331.63,-276.107 1321.05,-276.503 1329.57,-282.796 1331.63,-276.107"/>
</g>
<!-- Node29 -->
<g id="node67" class="node"><title>Node29</title>
<a xlink:href="class_beam_factory.html#ac70a8aa131a6709ebf05dc3c0f6dab10" target="_top" xlink:title="BeamFactory::setCurrentTruck">
<polygon fill="white" stroke="black" points="508,-529.5 508,-550.5 660,-550.5 660,-529.5 508,-529.5"/>
<text text-anchor="middle" x="584" y="-537.5" font-family="Helvetica,sans-Serif" font-size="10.00">BeamFactory::setCurrentTruck</text>
</a>
</g>
<!-- Node28&#45;&gt;Node29 -->
<g id="edge76" class="edge"><title>Node28&#45;&gt;Node29</title>
<path fill="none" stroke="midnightblue" d="M382.847,-493.821C429.279,-504.48 494.56,-519.467 538.019,-529.444"/>
<polygon fill="midnightblue" stroke="midnightblue" points="383.476,-490.374 372.946,-491.548 381.91,-497.197 383.476,-490.374"/>
</g>
<!-- Node29&#45;&gt;Node6 -->
<g id="edge78" class="edge"><title>Node29&#45;&gt;Node6</title>
<path fill="none" stroke="midnightblue" d="M670.132,-544.862C754.824,-550.549 877.654,-561.482 922,-579 974.898,-599.896 1025.54,-646.98 1046.67,-668.232"/>
<polygon fill="midnightblue" stroke="midnightblue" points="670.209,-541.36 660.001,-544.195 669.749,-548.345 670.209,-541.36"/>
</g>
<!-- Node30 -->
<g id="node70" class="node"><title>Node30</title>
<a xlink:href="class_ro_r_frame_listener.html#abbab3f9d2773790f0d8567ee4434a739" target="_top" xlink:title="RoRFrameListener::InitTrucks">
<polygon fill="white" stroke="black" points="753.5,-510.5 753.5,-531.5 902.5,-531.5 902.5,-510.5 753.5,-510.5"/>
<text text-anchor="middle" x="828" y="-518.5" font-family="Helvetica,sans-Serif" font-size="10.00">RoRFrameListener::InitTrucks</text>
</a>
</g>
<!-- Node29&#45;&gt;Node30 -->
<g id="edge80" class="edge"><title>Node29&#45;&gt;Node30</title>
<path fill="none" stroke="midnightblue" d="M670.424,-533.27C697.46,-531.165 727.05,-528.861 753.214,-526.823"/>
<polygon fill="midnightblue" stroke="midnightblue" points="669.898,-529.801 660.199,-534.066 670.441,-536.779 669.898,-529.801"/>
</g>
<!-- Node31 -->
<g id="node74" class="node"><title>Node31</title>
<a xlink:href="class_ro_r_frame_listener.html#accf1a2895ee6b67789cfaa570bfa01cb" target="_top" xlink:title="RoRFrameListener::reloadCurrentTruck">
<polygon fill="white" stroke="black" points="734,-668.5 734,-689.5 922,-689.5 922,-668.5 734,-668.5"/>
<text text-anchor="middle" x="828" y="-676.5" font-family="Helvetica,sans-Serif" font-size="10.00">RoRFrameListener::reloadCurrentTruck</text>
</a>
</g>
<!-- Node29&#45;&gt;Node31 -->
<g id="edge86" class="edge"><title>Node29&#45;&gt;Node31</title>
<path fill="none" stroke="midnightblue" d="M610.483,-555.875C634.435,-570.794 670.118,-594.447 698,-619 715.95,-634.807 713.289,-647.037 734,-659 740.646,-662.839 747.938,-665.944 755.431,-668.455"/>
<polygon fill="midnightblue" stroke="midnightblue" points="612.268,-552.864 601.918,-550.601 608.598,-558.824 612.268,-552.864"/>
</g>
<!-- Node32 -->
<g id="node77" class="node"><title>Node32</title>
<a xlink:href="class_preview_renderer.html#a5ea6b4611b45965e072266211dc60ba8" target="_top" xlink:title="PreviewRenderer::render">
<polygon fill="white" stroke="black" points="765.5,-628.5 765.5,-649.5 890.5,-649.5 890.5,-628.5 765.5,-628.5"/>
<text text-anchor="middle" x="828" y="-636.5" font-family="Helvetica,sans-Serif" font-size="10.00">PreviewRenderer::render</text>
</a>
</g>
<!-- Node29&#45;&gt;Node32 -->
<g id="edge90" class="edge"><title>Node29&#45;&gt;Node32</title>
<path fill="none" stroke="midnightblue" d="M609.059,-555.963C638.07,-573.775 687.799,-602.282 734,-619 744.355,-622.747 755.618,-625.891 766.634,-628.495"/>
<polygon fill="midnightblue" stroke="midnightblue" points="610.74,-552.887 600.399,-550.584 607.047,-558.833 610.74,-552.887"/>
</g>
<!-- Node33 -->
<g id="node79" class="node"><title>Node33</title>
<a xlink:href="class_beam_factory.html#a49a4ee797005fff135d8f88a085986a0" target="_top" xlink:title="BeamFactory::removeTruck">
<polygon fill="white" stroke="black" points="759,-588.5 759,-609.5 897,-609.5 897,-588.5 759,-588.5"/>
<text text-anchor="middle" x="828" y="-596.5" font-family="Helvetica,sans-Serif" font-size="10.00">BeamFactory::removeTruck</text>
</a>
</g>
<!-- Node29&#45;&gt;Node33 -->
<g id="edge92" class="edge"><title>Node29&#45;&gt;Node33</title>
<path fill="none" stroke="midnightblue" d="M637.577,-552.955C681.624,-563.606 743.258,-578.509 784.345,-588.444"/>
<polygon fill="midnightblue" stroke="midnightblue" points="638.165,-549.496 627.622,-550.548 636.52,-556.3 638.165,-549.496"/>
</g>
<!-- Node34 -->
<g id="node81" class="node"><title>Node34</title>
<a xlink:href="class_beam_factory.html#a59b66e06ec1f1d1f9adb0d299da15265" target="_top" xlink:title="BeamFactory::p_removeAllTrucks">
<polygon fill="white" stroke="black" points="745.5,-430.5 745.5,-451.5 910.5,-451.5 910.5,-430.5 745.5,-430.5"/>
<text text-anchor="middle" x="828" y="-438.5" font-family="Helvetica,sans-Serif" font-size="10.00">BeamFactory::p_removeAllTrucks</text>
</a>
</g>
<!-- Node29&#45;&gt;Node34 -->
<g id="edge94" class="edge"><title>Node29&#45;&gt;Node34</title>
<path fill="none" stroke="midnightblue" d="M609.059,-524.037C638.07,-506.225 687.799,-477.718 734,-461 744.355,-457.253 755.618,-454.109 766.634,-451.505"/>
<polygon fill="midnightblue" stroke="midnightblue" points="607.047,-521.167 600.399,-529.416 610.74,-527.113 607.047,-521.167"/>
</g>
<!-- Node36 -->
<g id="node86" class="node"><title>Node36</title>
<a xlink:href="class_beam_factory.html#a297cce523629edad68ff2c05bcaa44ac" target="_top" xlink:title="BeamFactory::enterRescueTruck">
<polygon fill="white" stroke="black" points="747.5,-470.5 747.5,-491.5 908.5,-491.5 908.5,-470.5 747.5,-470.5"/>
<text text-anchor="middle" x="828" y="-478.5" font-family="Helvetica,sans-Serif" font-size="10.00">BeamFactory::enterRescueTruck</text>
</a>
</g>
<!-- Node29&#45;&gt;Node36 -->
<g id="edge100" class="edge"><title>Node29&#45;&gt;Node36</title>
<path fill="none" stroke="midnightblue" d="M632.7,-526.749C661.98,-518.929 700.034,-509.025 734,-501 747.64,-497.778 762.449,-494.516 776.192,-491.589"/>
<polygon fill="midnightblue" stroke="midnightblue" points="631.483,-523.452 622.731,-529.422 633.296,-530.213 631.483,-523.452"/>
</g>
<!-- Node30&#45;&gt;Node6 -->
<g id="edge82" class="edge"><title>Node30&#45;&gt;Node6</title>
<path fill="none" stroke="midnightblue" d="M896.257,-534.626C905.21,-537.703 914.031,-541.449 922,-546 979.71,-578.961 1030.4,-642.714 1049.22,-668.143"/>
<polygon fill="midnightblue" stroke="midnightblue" points="897.114,-531.227 886.524,-531.543 895.001,-537.9 897.114,-531.227"/>
</g>
<!-- Node30&#45;&gt;Node24 -->
<g id="edge84" class="edge"><title>Node30&#45;&gt;Node24</title>
<path fill="none" stroke="midnightblue" d="M911.94,-507.667C915.486,-505.717 918.863,-503.506 922,-501 951.832,-477.17 928.046,-446.676 958,-423 962.677,-419.303 967.858,-416.235 973.327,-413.695"/>
<polygon fill="midnightblue" stroke="midnightblue" points="910.355,-504.545 902.823,-511.996 913.358,-510.869 910.355,-504.545"/>
</g>
<!-- Node31&#45;&gt;Node6 -->
<g id="edge88" class="edge"><title>Node31&#45;&gt;Node6</title>
<path fill="none" stroke="midnightblue" d="M932.315,-679C946.363,-679 960.617,-679 974.222,-679"/>
<polygon fill="midnightblue" stroke="midnightblue" points="932.134,-675.5 922.134,-679 932.134,-682.5 932.134,-675.5"/>
</g>
<!-- Node35 -->
<g id="node83" class="node"><title>Node35</title>
<a xlink:href="class_beam_factory.html#a089236a1b1ee4dc3b6efa157a784d69c" target="_top" xlink:title="BeamFactory::removeAllTrucks">
<polygon fill="white" stroke="black" points="979.5,-432.5 979.5,-453.5 1134.5,-453.5 1134.5,-432.5 979.5,-432.5"/>
<text text-anchor="middle" x="1057" y="-440.5" font-family="Helvetica,sans-Serif" font-size="10.00">BeamFactory::removeAllTrucks</text>
</a>
</g>
<!-- Node34&#45;&gt;Node35 -->
<g id="edge96" class="edge"><title>Node34&#45;&gt;Node35</title>
<path fill="none" stroke="midnightblue" d="M920.763,-441.81C940.23,-441.98 960.567,-442.158 979.411,-442.322"/>
<polygon fill="midnightblue" stroke="midnightblue" points="920.704,-438.31 910.674,-441.722 920.643,-445.309 920.704,-438.31"/>
</g>
<!-- Node35&#45;&gt;Node8 -->
<g id="edge98" class="edge"><title>Node35&#45;&gt;Node8</title>
<path fill="none" stroke="midnightblue" d="M1138.39,-429.673C1144.45,-427.74 1150.39,-425.529 1156,-423 1206.42,-400.285 1255.65,-355.144 1276.54,-334.611"/>
<polygon fill="midnightblue" stroke="midnightblue" points="1137.39,-426.317 1128.78,-432.488 1139.36,-433.035 1137.39,-426.317"/>
</g>
</g>
</svg>
        <g id="navigator" transform="translate(0 0)" fill="#404254">
                <rect fill="#f2f5e9" fill-opacity="0.5" stroke="#606060" stroke-width=".5" x="0" y="0" width="60" height="60"/>
                <use id="zoomplus" xlink:href="#zoomPlus" x="17" y="9" onmousedown="handleZoom(evt,'in')"/>
                <use id="zoomminus" xlink:href="#zoomMin" x="42" y="9" onmousedown="handleZoom(evt,'out')"/>
                <use id="reset" xlink:href="#resetDef" x="30" y="36" onmousedown="handleReset()"/>
                <g id="arrowUp" xlink:href="#dirArrow" transform="translate(30 24)" onmousedown="handlePan(0,-1)">
                  <use xlink:href="#rim" fill="#404040">
                        <set attributeName="fill" to="#808080" begin="arrowUp.mouseover" end="arrowUp.mouseout"/>
                  </use>
                  <path fill="none" stroke="white" stroke-width="1.5" d="M0,-3.0v7 M-2.5,-0.5L0,-3.0L2.5,-0.5"/>
                </g>
                <g id="arrowRight" xlink:href="#dirArrow" transform="rotate(90) translate(36 -43)" onmousedown="handlePan(1,0)">
                  <use xlink:href="#rim" fill="#404040">
                        <set attributeName="fill" to="#808080" begin="arrowRight.mouseover" end="arrowRight.mouseout"/>
                  </use>
                  <path fill="none" stroke="white" stroke-width="1.5" d="M0,-3.0v7 M-2.5,-0.5L0,-3.0L2.5,-0.5"/>
                </g>
                <g id="arrowDown" xlink:href="#dirArrow" transform="rotate(180) translate(-30 -48)" onmousedown="handlePan(0,1)">
                  <use xlink:href="#rim" fill="#404040">
                        <set attributeName="fill" to="#808080" begin="arrowDown.mouseover" end="arrowDown.mouseout"/>
                  </use>
                  <path fill="none" stroke="white" stroke-width="1.5" d="M0,-3.0v7 M-2.5,-0.5L0,-3.0L2.5,-0.5"/>
                </g>
                <g id="arrowLeft" xlink:href="#dirArrow" transform="rotate(270) translate(-36 17)" onmousedown="handlePan(-1,0)">
                  <use xlink:href="#rim" fill="#404040">
                        <set attributeName="fill" to="#808080" begin="arrowLeft.mouseover" end="arrowLeft.mouseout"/>
                  </use>
                  <path fill="none" stroke="white" stroke-width="1.5" d="M0,-3.0v7 M-2.5,-0.5L0,-3.0L2.5,-0.5"/>
                </g>
        </g>
</svg>
