<?xml version="1.0" encoding="UTF-8" standalone="no"?>
<!DOCTYPE svg PUBLIC "-//W3C//DTD SVG 1.1//EN"
 "http://www.w3.org/Graphics/SVG/1.1/DTD/svg11.dtd">
<!-- Generated by graphviz version 2.26.3 (20100126.1600)
 -->
<!-- Title: Hydrax::Hydrax::getSceneManager Pages: 1 -->
<!--zoomable 756 -->
<svg id="main" version="1.1" xmlns="http://www.w3.org/2000/svg" xmlns:xlink="http://www.w3.org/1999/xlink" xml:space="preserve" onload="init(evt)">
<style type="text/css"><![CDATA[
.edge:hover path { stroke: red; }
.edge:hover polygon { stroke: red; fill: red; }
]]></style>
<script type="text/javascript"><![CDATA[
var edges = document.getElementsByTagName('g');
if (edges && edges.length) {
  for (var i=0;i<edges.length;i++) {
    if (edges[i].id.substr(0,4)=='edge') {
      edges[i].setAttribute('class','edge');
    }
  }
}
]]></script>
        <defs>
                <circle id="rim" cx="0" cy="0" r="7"/>
                <circle id="rim2" cx="0" cy="0" r="3.5"/>
                <g id="zoomPlus">
                        <use xlink:href="#rim" fill="#404040">
                                <set attributeName="fill" to="#808080" begin="zoomplus.mouseover" end="zoomplus.mouseout"/>
                        </use>
                        <path d="M-4,0h8M0,-4v8" fill="none" stroke="white" stroke-width="1.5" pointer-events="none"/>
                </g>
                <g id="zoomMin">
                        <use xlink:href="#rim" fill="#404040">
                                <set attributeName="fill" to="#808080" begin="zoomminus.mouseover" end="zoomminus.mouseout"/>
                        </use>
                        <path d="M-4,0h8" fill="none" stroke="white" stroke-width="1.5" pointer-events="none"/>
                </g>
                <g id="dirArrow">
                        <path fill="none" stroke="white" stroke-width="1.5" d="M0,-3.0v7 M-2.5,-0.5L0,-3.0L2.5,-0.5"/>
                </g>
               <g id="resetDef">
                       <use xlink:href="#rim2" fill="#404040">
                               <set attributeName="fill" to="#808080" begin="reset.mouseover" end="reset.mouseout"/>
                       </use>
               </g>
        </defs>

<script type="text/javascript">
var viewWidth = 1072;
var viewHeight = 756;
var sectionId = 'dynsection-30';
</script>
<script xlink:href="svgpan.js"/>
<svg id="graph" class="graph">
<g id="viewport">
<title>Hydrax::Hydrax::getSceneManager</title>
<polygon fill="white" stroke="white" points="-4,5 -4,-752 1069,-752 1069,5 -4,5"/>
<!-- Node1 -->
<g id="node1" class="node"><title>Node1</title>
<polygon fill="#bfbfbf" stroke="black" points="0.5,-476 0.5,-510 133.5,-510 133.5,-476 0.5,-476"/>
<text text-anchor="start" x="8.5" y="-497" font-family="Helvetica,sans-Serif" font-size="10.00">Hydrax::Hydrax::getScene</text>
<text text-anchor="middle" x="67" y="-484" font-family="Helvetica,sans-Serif" font-size="10.00">Manager</text>
</g>
<!-- Node2 -->
<g id="node3" class="node"><title>Node2</title>
<a xlink:href="class_hydrax_1_1_decal.html#a85bc65b9ca9265d69693da7a90d3382e" target="_top" xlink:title="Hydrax::Decal::Decal">
<polygon fill="white" stroke="black" points="191.5,-705.5 191.5,-726.5 302.5,-726.5 302.5,-705.5 191.5,-705.5"/>
<text text-anchor="middle" x="247" y="-713.5" font-family="Helvetica,sans-Serif" font-size="10.00">Hydrax::Decal::Decal</text>
</a>
</g>
<!-- Node1&#45;&gt;Node2 -->
<g id="edge2" class="edge"><title>Node1&#45;&gt;Node2</title>
<path fill="none" stroke="midnightblue" d="M73.8721,-519.985C86.0624,-562.465 115.475,-644.838 170,-691 177.294,-697.176 186.146,-701.834 195.214,-705.346"/>
<polygon fill="midnightblue" stroke="midnightblue" points="77.1754,-518.797 71.1392,-510.09 70.428,-520.661 77.1754,-518.797"/>
</g>
<!-- Node3 -->
<g id="node5" class="node"><title>Node3</title>
<a xlink:href="class_hydrax_1_1_god_rays_manager.html#ad6e8cfa4b9bde36b668d04ae3cfe8d00" target="_top" xlink:title="Hydrax::GodRaysManager\l::create">
<polygon fill="white" stroke="black" points="375.5,-676 375.5,-710 508.5,-710 508.5,-676 375.5,-676"/>
<text text-anchor="start" x="383.5" y="-697" font-family="Helvetica,sans-Serif" font-size="10.00">Hydrax::GodRaysManager</text>
<text text-anchor="middle" x="442" y="-684" font-family="Helvetica,sans-Serif" font-size="10.00">::create</text>
</a>
</g>
<!-- Node1&#45;&gt;Node3 -->
<g id="edge4" class="edge"><title>Node1&#45;&gt;Node3</title>
<path fill="none" stroke="midnightblue" d="M75.5054,-519.846C88.9836,-557.579 119.077,-625.334 170,-658 202.962,-679.144 305.873,-687.566 375.228,-690.886"/>
<polygon fill="midnightblue" stroke="midnightblue" points="78.7004,-518.373 72.1409,-510.053 72.0802,-520.648 78.7004,-518.373"/>
</g>
<!-- Node8 -->
<g id="node16" class="node"><title>Node8</title>
<a xlink:href="class_hydrax_1_1_god_rays_manager.html#ab60cb054a3c4948b82c0b1c3736d17b3" target="_top" xlink:title="Hydrax::GodRaysManager\l::_createGodRays">
<polygon fill="white" stroke="black" points="180.5,-615 180.5,-649 313.5,-649 313.5,-615 180.5,-615"/>
<text text-anchor="start" x="188.5" y="-636" font-family="Helvetica,sans-Serif" font-size="10.00">Hydrax::GodRaysManager</text>
<text text-anchor="middle" x="247" y="-623" font-family="Helvetica,sans-Serif" font-size="10.00">::_createGodRays</text>
</a>
</g>
<!-- Node1&#45;&gt;Node8 -->
<g id="edge16" class="edge"><title>Node1&#45;&gt;Node8</title>
<path fill="none" stroke="midnightblue" d="M91.6448,-517.331C111.859,-536.704 141.661,-563.965 170,-585 184.588,-595.828 201.765,-606.493 216.19,-614.92"/>
<polygon fill="midnightblue" stroke="midnightblue" points="94.0137,-514.753 84.3901,-510.321 89.1498,-519.787 94.0137,-514.753"/>
</g>
<!-- Node9 -->
<g id="node19" class="node"><title>Node9</title>
<a xlink:href="class_hydrax_1_1_god_rays_manager.html#aed0d897dae3ae6c585a616d071f02c71" target="_top" xlink:title="Hydrax::GodRaysManager\l::setNumberOfRays">
<polygon fill="white" stroke="black" points="375.5,-624 375.5,-658 508.5,-658 508.5,-624 375.5,-624"/>
<text text-anchor="start" x="383.5" y="-645" font-family="Helvetica,sans-Serif" font-size="10.00">Hydrax::GodRaysManager</text>
<text text-anchor="middle" x="442" y="-632" font-family="Helvetica,sans-Serif" font-size="10.00">::setNumberOfRays</text>
</a>
</g>
<!-- Node1&#45;&gt;Node9 -->
<g id="edge26" class="edge"><title>Node1&#45;&gt;Node9</title>
<path fill="none" stroke="midnightblue" d="M114.165,-514.14C171.649,-539.555 272.015,-582.803 360,-615 368.275,-618.028 377.091,-621.041 385.759,-623.886"/>
<polygon fill="midnightblue" stroke="midnightblue" points="115.533,-510.918 104.973,-510.067 112.697,-517.318 115.533,-510.918"/>
</g>
<!-- Node10 -->
<g id="node22" class="node"><title>Node10</title>
<a xlink:href="class_hydrax_1_1_god_rays_manager.html#ac4f9cdb2271b323d518c7bc84e3bf2da" target="_top" xlink:title="Hydrax::GodRaysManager\l::remove">
<polygon fill="white" stroke="black" points="180.5,-424 180.5,-458 313.5,-458 313.5,-424 180.5,-424"/>
<text text-anchor="start" x="188.5" y="-445" font-family="Helvetica,sans-Serif" font-size="10.00">Hydrax::GodRaysManager</text>
<text text-anchor="middle" x="247" y="-432" font-family="Helvetica,sans-Serif" font-size="10.00">::remove</text>
</a>
</g>
<!-- Node1&#45;&gt;Node10 -->
<g id="edge24" class="edge"><title>Node1&#45;&gt;Node10</title>
<path fill="none" stroke="midnightblue" d="M135.895,-473.097C153.052,-468.141 171.293,-462.871 187.929,-458.065"/>
<polygon fill="midnightblue" stroke="midnightblue" points="134.574,-469.835 125.939,-475.973 136.517,-476.56 134.574,-469.835"/>
</g>
<!-- Node11 -->
<g id="node25" class="node"><title>Node11</title>
<a xlink:href="class_hydrax_1_1_god_rays_manager_1_1_depth_map_listener.html#ac42f8148b89786e8fdfcbba9dddd813a" target="_top" xlink:title="Hydrax::GodRaysManager\l::DepthMapListener::preRender\lTargetUpdate">
<polygon fill="white" stroke="black" points="170.5,-358.5 170.5,-405.5 323.5,-405.5 323.5,-358.5 170.5,-358.5"/>
<text text-anchor="start" x="178.5" y="-392.5" font-family="Helvetica,sans-Serif" font-size="10.00">Hydrax::GodRaysManager</text>
<text text-anchor="start" x="178.5" y="-379.5" font-family="Helvetica,sans-Serif" font-size="10.00">::DepthMapListener::preRender</text>
<text text-anchor="middle" x="247" y="-366.5" font-family="Helvetica,sans-Serif" font-size="10.00">TargetUpdate</text>
</a>
</g>
<!-- Node1&#45;&gt;Node11 -->
<g id="edge28" class="edge"><title>Node1&#45;&gt;Node11</title>
<path fill="none" stroke="midnightblue" d="M94.2877,-469.41C114.339,-452.824 142.729,-430.851 170,-415 175.658,-411.711 181.707,-408.559 187.833,-405.597"/>
<polygon fill="midnightblue" stroke="midnightblue" points="91.9216,-466.827 86.4997,-475.929 96.4145,-472.194 91.9216,-466.827"/>
</g>
<!-- Node12 -->
<g id="node27" class="node"><title>Node12</title>
<a xlink:href="class_hydrax_1_1_mesh.html#a5091867b361900642f5892e56661c790" target="_top" xlink:title="Hydrax::Mesh::remove">
<polygon fill="white" stroke="black" points="189,-165.5 189,-186.5 305,-186.5 305,-165.5 189,-165.5"/>
<text text-anchor="middle" x="247" y="-173.5" font-family="Helvetica,sans-Serif" font-size="10.00">Hydrax::Mesh::remove</text>
</a>
</g>
<!-- Node1&#45;&gt;Node12 -->
<g id="edge30" class="edge"><title>Node1&#45;&gt;Node12</title>
<path fill="none" stroke="midnightblue" d="M68.5537,-465.735C73.3297,-408.037 92.6275,-272.84 170,-199 175.45,-193.799 182.027,-189.768 189.013,-186.646"/>
<polygon fill="midnightblue" stroke="midnightblue" points="65.05,-465.656 67.7995,-475.888 72.0307,-466.175 65.05,-465.656"/>
</g>
<!-- Node22 -->
<g id="node47" class="node"><title>Node22</title>
<a xlink:href="class_hydrax_1_1_mesh.html#a202f11f0f3c109cb93c516fe83f1dc0d" target="_top" xlink:title="Hydrax::Mesh::create">
<polygon fill="white" stroke="black" points="191.5,-208.5 191.5,-229.5 302.5,-229.5 302.5,-208.5 191.5,-208.5"/>
<text text-anchor="middle" x="247" y="-216.5" font-family="Helvetica,sans-Serif" font-size="10.00">Hydrax::Mesh::create</text>
</a>
</g>
<!-- Node1&#45;&gt;Node22 -->
<g id="edge50" class="edge"><title>Node1&#45;&gt;Node22</title>
<path fill="none" stroke="midnightblue" d="M83.9145,-467.252C122.122,-409.093 213.801,-269.536 239.937,-229.752"/>
<polygon fill="midnightblue" stroke="midnightblue" points="80.8252,-465.58 78.2598,-475.86 86.6757,-469.424 80.8252,-465.58"/>
</g>
<!-- Node23 -->
<g id="node52" class="node"><title>Node23</title>
<a xlink:href="class_hydrax_1_1_rtt_manager.html#a774efa00a79ade65e726ed0774d2ac2e" target="_top" xlink:title="Hydrax::RttManager\l::initialize">
<polygon fill="white" stroke="black" points="194.5,-476 194.5,-510 299.5,-510 299.5,-476 194.5,-476"/>
<text text-anchor="start" x="202.5" y="-497" font-family="Helvetica,sans-Serif" font-size="10.00">Hydrax::RttManager</text>
<text text-anchor="middle" x="247" y="-484" font-family="Helvetica,sans-Serif" font-size="10.00">::initialize</text>
</a>
</g>
<!-- Node1&#45;&gt;Node23 -->
<g id="edge58" class="edge"><title>Node1&#45;&gt;Node23</title>
<path fill="none" stroke="midnightblue" d="M143.967,-493C160.923,-493 178.508,-493 194.248,-493"/>
<polygon fill="midnightblue" stroke="midnightblue" points="143.514,-489.5 133.514,-493 143.514,-496.5 143.514,-489.5"/>
</g>
<!-- Node4 -->
<g id="node7" class="node"><title>Node4</title>
<a xlink:href="class_hydrax_1_1_god_rays_manager.html#a4a85152f7e71a50c473ae65b299f3465" target="_top" xlink:title="Hydrax::GodRaysManager\l::setObjectIntersectionsEnabled">
<polygon fill="white" stroke="black" points="567,-662 567,-696 723,-696 723,-662 567,-662"/>
<text text-anchor="start" x="575" y="-683" font-family="Helvetica,sans-Serif" font-size="10.00">Hydrax::GodRaysManager</text>
<text text-anchor="middle" x="645" y="-670" font-family="Helvetica,sans-Serif" font-size="10.00">::setObjectIntersectionsEnabled</text>
</a>
</g>
<!-- Node3&#45;&gt;Node4 -->
<g id="edge6" class="edge"><title>Node3&#45;&gt;Node4</title>
<path fill="none" stroke="midnightblue" d="M518.935,-687.694C534.641,-686.611 551.182,-685.47 566.927,-684.384"/>
<polygon fill="midnightblue" stroke="midnightblue" points="518.486,-684.217 508.751,-688.396 518.968,-691.2 518.486,-684.217"/>
</g>
<!-- Node7 -->
<g id="node13" class="node"><title>Node7</title>
<a xlink:href="class_hydrax_1_1_god_rays_manager.html#ad8e21289bddd02ed9a62b3a2db1ff54f" target="_top" xlink:title="Hydrax::GodRaysManager\l::_createMaterials">
<polygon fill="white" stroke="black" points="578.5,-714 578.5,-748 711.5,-748 711.5,-714 578.5,-714"/>
<text text-anchor="start" x="586.5" y="-735" font-family="Helvetica,sans-Serif" font-size="10.00">Hydrax::GodRaysManager</text>
<text text-anchor="middle" x="645" y="-722" font-family="Helvetica,sans-Serif" font-size="10.00">::_createMaterials</text>
</a>
</g>
<!-- Node3&#45;&gt;Node7 -->
<g id="edge12" class="edge"><title>Node3&#45;&gt;Node7</title>
<path fill="none" stroke="midnightblue" d="M518.685,-700.787C541.359,-704.692 565.793,-709.4 587.073,-713.993"/>
<polygon fill="midnightblue" stroke="midnightblue" points="519.194,-697.324 508.751,-699.11 518.029,-704.226 519.194,-697.324"/>
</g>
<!-- Node5 -->
<g id="node9" class="node"><title>Node5</title>
<a xlink:href="class_hydrax_1_1_cfg_file_manager.html#a6717ef4e731b3c22d71260aaa6d0336a" target="_top" xlink:title="Hydrax::CfgFileManager\l::_loadComponentsSettings">
<polygon fill="white" stroke="black" points="766.5,-624 766.5,-658 903.5,-658 903.5,-624 766.5,-624"/>
<text text-anchor="start" x="774.5" y="-645" font-family="Helvetica,sans-Serif" font-size="10.00">Hydrax::CfgFileManager</text>
<text text-anchor="middle" x="835" y="-632" font-family="Helvetica,sans-Serif" font-size="10.00">::_loadComponentsSettings</text>
</a>
</g>
<!-- Node4&#45;&gt;Node5 -->
<g id="edge8" class="edge"><title>Node4&#45;&gt;Node5</title>
<path fill="none" stroke="midnightblue" d="M733.248,-661.35C744.352,-659.13 755.579,-656.884 766.32,-654.736"/>
<polygon fill="midnightblue" stroke="midnightblue" points="732.222,-657.986 723.103,-663.379 733.595,-664.85 732.222,-657.986"/>
</g>
<!-- Node6 -->
<g id="node11" class="node"><title>Node6</title>
<a xlink:href="class_hydrax_1_1_cfg_file_manager.html#a7d283a6b6b61ad70292c7cb24cd3543c" target="_top" xlink:title="Hydrax::CfgFileManager\l::load">
<polygon fill="white" stroke="black" points="940.5,-598 940.5,-632 1063.5,-632 1063.5,-598 940.5,-598"/>
<text text-anchor="start" x="948.5" y="-619" font-family="Helvetica,sans-Serif" font-size="10.00">Hydrax::CfgFileManager</text>
<text text-anchor="middle" x="1002" y="-606" font-family="Helvetica,sans-Serif" font-size="10.00">::load</text>
</a>
</g>
<!-- Node5&#45;&gt;Node6 -->
<g id="edge10" class="edge"><title>Node5&#45;&gt;Node6</title>
<path fill="none" stroke="midnightblue" d="M913.913,-628.714C922.836,-627.325 931.83,-625.925 940.484,-624.577"/>
<polygon fill="midnightblue" stroke="midnightblue" points="913.232,-625.278 903.889,-630.275 914.309,-632.195 913.232,-625.278"/>
</g>
<!-- Node7&#45;&gt;Node3 -->
<g id="edge14" class="edge"><title>Node7&#45;&gt;Node3</title>
<path fill="none" stroke="midnightblue" d="M568.472,-723.24C545.744,-719.328 521.235,-714.606 499.9,-710.001"/>
<polygon fill="midnightblue" stroke="midnightblue" points="567.986,-726.707 578.429,-724.92 569.15,-719.805 567.986,-726.707"/>
</g>
<!-- Node8&#45;&gt;Node3 -->
<g id="edge18" class="edge"><title>Node8&#45;&gt;Node3</title>
<path fill="none" stroke="midnightblue" d="M311.211,-652.086C335.873,-659.801 363.764,-668.526 387.436,-675.931"/>
<polygon fill="midnightblue" stroke="midnightblue" points="312.167,-648.718 301.578,-649.073 310.077,-655.399 312.167,-648.718"/>
</g>
<!-- Node8&#45;&gt;Node9 -->
<g id="edge20" class="edge"><title>Node8&#45;&gt;Node9</title>
<path fill="none" stroke="midnightblue" d="M324.011,-635.554C341.004,-636.339 358.867,-637.163 375.407,-637.926"/>
<polygon fill="midnightblue" stroke="midnightblue" points="323.713,-632.037 313.563,-635.072 323.391,-639.03 323.713,-632.037"/>
</g>
<!-- Node9&#45;&gt;Node5 -->
<g id="edge22" class="edge"><title>Node9&#45;&gt;Node5</title>
<path fill="none" stroke="midnightblue" d="M519.02,-641C590.937,-641 697.273,-641 766.353,-641"/>
<polygon fill="midnightblue" stroke="midnightblue" points="518.667,-637.5 508.667,-641 518.667,-644.5 518.667,-637.5"/>
</g>
<!-- Node13 -->
<g id="node29" class="node"><title>Node13</title>
<a xlink:href="class_hydrax_1_1_module_1_1_projected_grid.html#a04d04b9cfc173538038a5f51094c1ffa" target="_top" xlink:title="Hydrax::Module::Projected\lGrid::setOptions">
<polygon fill="white" stroke="black" points="375.5,-156 375.5,-190 508.5,-190 508.5,-156 375.5,-156"/>
<text text-anchor="start" x="383.5" y="-177" font-family="Helvetica,sans-Serif" font-size="10.00">Hydrax::Module::Projected</text>
<text text-anchor="middle" x="442" y="-164" font-family="Helvetica,sans-Serif" font-size="10.00">Grid::setOptions</text>
</a>
</g>
<!-- Node12&#45;&gt;Node13 -->
<g id="edge32" class="edge"><title>Node12&#45;&gt;Node13</title>
<path fill="none" stroke="midnightblue" d="M315.498,-174.946C334.858,-174.648 355.897,-174.325 375.158,-174.028"/>
<polygon fill="midnightblue" stroke="midnightblue" points="315.187,-171.45 305.242,-175.104 315.295,-178.45 315.187,-171.45"/>
</g>
<!-- Node16 -->
<g id="node35" class="node"><title>Node16</title>
<a xlink:href="class_hydrax_1_1_module_1_1_radial_grid.html#acfc2ae157df9b6159302a90561ffc038" target="_top" xlink:title="Hydrax::Module::RadialGrid\l::setOptions">
<polygon fill="white" stroke="black" points="373.5,-78 373.5,-112 510.5,-112 510.5,-78 373.5,-78"/>
<text text-anchor="start" x="381.5" y="-99" font-family="Helvetica,sans-Serif" font-size="10.00">Hydrax::Module::RadialGrid</text>
<text text-anchor="middle" x="442" y="-86" font-family="Helvetica,sans-Serif" font-size="10.00">::setOptions</text>
</a>
</g>
<!-- Node12&#45;&gt;Node16 -->
<g id="edge38" class="edge"><title>Node12&#45;&gt;Node16</title>
<path fill="none" stroke="midnightblue" d="M281.843,-161.527C315.198,-147.672 365.524,-126.767 400.839,-112.098"/>
<polygon fill="midnightblue" stroke="midnightblue" points="280.385,-158.342 272.493,-165.411 283.07,-164.807 280.385,-158.342"/>
</g>
<!-- Node19 -->
<g id="node41" class="node"><title>Node19</title>
<a xlink:href="class_hydrax_1_1_module_1_1_simple_grid.html#a6b83cb95b2803b068a53bf76afaa9ac4" target="_top" xlink:title="Hydrax::Module::SimpleGrid\l::setOptions">
<polygon fill="white" stroke="black" points="372,-208 372,-242 512,-242 512,-208 372,-208"/>
<text text-anchor="start" x="380" y="-229" font-family="Helvetica,sans-Serif" font-size="10.00">Hydrax::Module::SimpleGrid</text>
<text text-anchor="middle" x="442" y="-216" font-family="Helvetica,sans-Serif" font-size="10.00">::setOptions</text>
</a>
</g>
<!-- Node12&#45;&gt;Node19 -->
<g id="edge44" class="edge"><title>Node12&#45;&gt;Node19</title>
<path fill="none" stroke="midnightblue" d="M298.778,-189.011C321.889,-194.818 349.431,-201.739 374.16,-207.953"/>
<polygon fill="midnightblue" stroke="midnightblue" points="299.384,-185.554 288.832,-186.512 297.678,-192.343 299.384,-185.554"/>
</g>
<!-- Node14 -->
<g id="node31" class="node"><title>Node14</title>
<a xlink:href="class_hydrax_1_1_module_1_1_projected_grid.html#aa9308990b99866cbd09edd3600972443" target="_top" xlink:title="Hydrax::Module::Projected\lGrid::ProjectedGrid">
<polygon fill="white" stroke="black" points="578.5,-156 578.5,-190 711.5,-190 711.5,-156 578.5,-156"/>
<text text-anchor="start" x="586.5" y="-177" font-family="Helvetica,sans-Serif" font-size="10.00">Hydrax::Module::Projected</text>
<text text-anchor="middle" x="645" y="-164" font-family="Helvetica,sans-Serif" font-size="10.00">Grid::ProjectedGrid</text>
</a>
</g>
<!-- Node13&#45;&gt;Node14 -->
<g id="edge34" class="edge"><title>Node13&#45;&gt;Node14</title>
<path fill="none" stroke="midnightblue" d="M518.834,-173C538.375,-173 559.214,-173 578.209,-173"/>
<polygon fill="midnightblue" stroke="midnightblue" points="518.751,-169.5 508.751,-173 518.751,-176.5 518.751,-169.5"/>
</g>
<!-- Node15 -->
<g id="node33" class="node"><title>Node15</title>
<a xlink:href="class_hydrax_1_1_module_1_1_projected_grid.html#af951c58cc93cf75d57e69aa14a668d3e" target="_top" xlink:title="Hydrax::Module::Projected\lGrid::loadCfg">
<polygon fill="white" stroke="black" points="578.5,-104 578.5,-138 711.5,-138 711.5,-104 578.5,-104"/>
<text text-anchor="start" x="586.5" y="-125" font-family="Helvetica,sans-Serif" font-size="10.00">Hydrax::Module::Projected</text>
<text text-anchor="middle" x="645" y="-112" font-family="Helvetica,sans-Serif" font-size="10.00">Grid::loadCfg</text>
</a>
</g>
<!-- Node13&#45;&gt;Node15 -->
<g id="edge36" class="edge"><title>Node13&#45;&gt;Node15</title>
<path fill="none" stroke="midnightblue" d="M518.344,-153.444C538.085,-148.387 559.181,-142.983 578.381,-138.065"/>
<polygon fill="midnightblue" stroke="midnightblue" points="517.288,-150.101 508.47,-155.973 519.026,-156.882 517.288,-150.101"/>
</g>
<!-- Node17 -->
<g id="node37" class="node"><title>Node17</title>
<a xlink:href="class_hydrax_1_1_module_1_1_radial_grid.html#abc52ff8727a537d5303fabc1179fa45f" target="_top" xlink:title="Hydrax::Module::RadialGrid\l::RadialGrid">
<polygon fill="white" stroke="black" points="576.5,-52 576.5,-86 713.5,-86 713.5,-52 576.5,-52"/>
<text text-anchor="start" x="584.5" y="-73" font-family="Helvetica,sans-Serif" font-size="10.00">Hydrax::Module::RadialGrid</text>
<text text-anchor="middle" x="645" y="-60" font-family="Helvetica,sans-Serif" font-size="10.00">::RadialGrid</text>
</a>
</g>
<!-- Node16&#45;&gt;Node17 -->
<g id="edge40" class="edge"><title>Node16&#45;&gt;Node17</title>
<path fill="none" stroke="midnightblue" d="M520.787,-84.9091C539.118,-82.5612 558.491,-80.08 576.344,-77.7933"/>
<polygon fill="midnightblue" stroke="midnightblue" points="520.201,-81.4554 510.727,-86.1976 521.09,-88.3987 520.201,-81.4554"/>
</g>
<!-- Node18 -->
<g id="node39" class="node"><title>Node18</title>
<a xlink:href="class_hydrax_1_1_module_1_1_radial_grid.html#a31b3bab8e74f2f1e316a1800470ac685" target="_top" xlink:title="Hydrax::Module::RadialGrid\l::loadCfg">
<polygon fill="white" stroke="black" points="576.5,-0 576.5,-34 713.5,-34 713.5,-0 576.5,-0"/>
<text text-anchor="start" x="584.5" y="-21" font-family="Helvetica,sans-Serif" font-size="10.00">Hydrax::Module::RadialGrid</text>
<text text-anchor="middle" x="645" y="-8" font-family="Helvetica,sans-Serif" font-size="10.00">::loadCfg</text>
</a>
</g>
<!-- Node16&#45;&gt;Node18 -->
<g id="edge42" class="edge"><title>Node16&#45;&gt;Node18</title>
<path fill="none" stroke="midnightblue" d="M487.026,-73.66C508.817,-63.7196 535.506,-52.1066 560,-43 568.389,-39.8808 577.34,-36.8405 586.168,-34.0033"/>
<polygon fill="midnightblue" stroke="midnightblue" points="485.32,-70.592 477.697,-77.9496 488.244,-76.9519 485.32,-70.592"/>
</g>
<!-- Node20 -->
<g id="node43" class="node"><title>Node20</title>
<a xlink:href="class_hydrax_1_1_module_1_1_simple_grid.html#aae091cd103798dcc8f8b92af7dbfccef" target="_top" xlink:title="Hydrax::Module::SimpleGrid\l::SimpleGrid">
<polygon fill="white" stroke="black" points="575,-260 575,-294 715,-294 715,-260 575,-260"/>
<text text-anchor="start" x="583" y="-281" font-family="Helvetica,sans-Serif" font-size="10.00">Hydrax::Module::SimpleGrid</text>
<text text-anchor="middle" x="645" y="-268" font-family="Helvetica,sans-Serif" font-size="10.00">::SimpleGrid</text>
</a>
</g>
<!-- Node19&#45;&gt;Node20 -->
<g id="edge46" class="edge"><title>Node19&#45;&gt;Node20</title>
<path fill="none" stroke="midnightblue" d="M518.344,-244.556C538.085,-249.613 559.181,-255.017 578.381,-259.935"/>
<polygon fill="midnightblue" stroke="midnightblue" points="519.026,-241.118 508.47,-242.027 517.288,-247.899 519.026,-241.118"/>
</g>
<!-- Node21 -->
<g id="node45" class="node"><title>Node21</title>
<a xlink:href="class_hydrax_1_1_module_1_1_simple_grid.html#a3741ec1a3df1863e730711fd9d3b14e1" target="_top" xlink:title="Hydrax::Module::SimpleGrid\l::loadCfg">
<polygon fill="white" stroke="black" points="575,-208 575,-242 715,-242 715,-208 575,-208"/>
<text text-anchor="start" x="583" y="-229" font-family="Helvetica,sans-Serif" font-size="10.00">Hydrax::Module::SimpleGrid</text>
<text text-anchor="middle" x="645" y="-216" font-family="Helvetica,sans-Serif" font-size="10.00">::loadCfg</text>
</a>
</g>
<!-- Node19&#45;&gt;Node21 -->
<g id="edge48" class="edge"><title>Node19&#45;&gt;Node21</title>
<path fill="none" stroke="midnightblue" d="M522.262,-225C539.644,-225 557.895,-225 574.852,-225"/>
<polygon fill="midnightblue" stroke="midnightblue" points="522.145,-221.5 512.145,-225 522.145,-228.5 522.145,-221.5"/>
</g>
<!-- Node22&#45;&gt;Node13 -->
<g id="edge52" class="edge"><title>Node22&#45;&gt;Node13</title>
<path fill="none" stroke="midnightblue" d="M301.605,-206.119C324.463,-200.727 351.25,-194.408 375.263,-188.743"/>
<polygon fill="midnightblue" stroke="midnightblue" points="300.666,-202.744 291.737,-208.447 302.273,-209.557 300.666,-202.744"/>
</g>
<!-- Node22&#45;&gt;Node16 -->
<g id="edge54" class="edge"><title>Node22&#45;&gt;Node16</title>
<path fill="none" stroke="midnightblue" d="M308.561,-204.665C314.009,-202.212 319.251,-199.346 324,-196 346.092,-180.437 340.248,-165.443 360,-147 374.539,-133.424 393.097,-121.316 408.879,-112.206"/>
<polygon fill="midnightblue" stroke="midnightblue" points="307.216,-201.434 299.248,-208.417 309.831,-207.927 307.216,-201.434"/>
</g>
<!-- Node22&#45;&gt;Node19 -->
<g id="edge56" class="edge"><title>Node22&#45;&gt;Node19</title>
<path fill="none" stroke="midnightblue" d="M312.659,-221.02C331.643,-221.604 352.436,-222.244 371.691,-222.837"/>
<polygon fill="midnightblue" stroke="midnightblue" points="312.721,-217.521 302.618,-220.711 312.506,-224.517 312.721,-217.521"/>
</g>
<!-- Node24 -->
<g id="node54" class="node"><title>Node24</title>
<a xlink:href="class_hydrax_1_1_g_p_u_normal_map_manager.html#a7398a504e11ea902839868d69bcf956b" target="_top" xlink:title="Hydrax::GPUNormalMapManager\l::create">
<polygon fill="white" stroke="black" points="360,-312 360,-346 524,-346 524,-312 360,-312"/>
<text text-anchor="start" x="368" y="-333" font-family="Helvetica,sans-Serif" font-size="10.00">Hydrax::GPUNormalMapManager</text>
<text text-anchor="middle" x="442" y="-320" font-family="Helvetica,sans-Serif" font-size="10.00">::create</text>
</a>
</g>
<!-- Node23&#45;&gt;Node24 -->
<g id="edge60" class="edge"><title>Node23&#45;&gt;Node24</title>
<path fill="none" stroke="midnightblue" d="M308.757,-478.267C314.362,-475.196 319.58,-471.485 324,-467 360.7,-429.759 322.955,-391.899 360,-355 363.386,-351.627 367.207,-348.692 371.301,-346.136"/>
<polygon fill="midnightblue" stroke="midnightblue" points="307.215,-475.125 299.692,-482.585 310.225,-481.445 307.215,-475.125"/>
</g>
<!-- Node29 -->
<g id="node64" class="node"><title>Node29</title>
<a xlink:href="class_hydrax_1_1_g_p_u_normal_map_manager.html#ac58c786ad6359d8f70b5ecd0bc30464b" target="_top" xlink:title="Hydrax::GPUNormalMapManager\l::setActive">
<polygon fill="white" stroke="black" points="360,-520 360,-554 524,-554 524,-520 360,-520"/>
<text text-anchor="start" x="368" y="-541" font-family="Helvetica,sans-Serif" font-size="10.00">Hydrax::GPUNormalMapManager</text>
<text text-anchor="middle" x="442" y="-528" font-family="Helvetica,sans-Serif" font-size="10.00">::setActive</text>
</a>
</g>
<!-- Node23&#45;&gt;Node29 -->
<g id="edge70" class="edge"><title>Node23&#45;&gt;Node29</title>
<path fill="none" stroke="midnightblue" d="M309.367,-507.073C327.485,-511.161 347.471,-515.67 366.312,-519.922"/>
<polygon fill="midnightblue" stroke="midnightblue" points="310.038,-503.636 299.513,-504.849 308.497,-510.464 310.038,-503.636"/>
</g>
<!-- Node30 -->
<g id="node66" class="node"><title>Node30</title>
<a xlink:href="class_hydrax_1_1_rtt_manager.html#abf7d8e05771b9f904efa09fe94ab0907" target="_top" xlink:title="Hydrax::RttManager\l::setTextureSize">
<polygon fill="white" stroke="black" points="389.5,-572 389.5,-606 494.5,-606 494.5,-572 389.5,-572"/>
<text text-anchor="start" x="397.5" y="-593" font-family="Helvetica,sans-Serif" font-size="10.00">Hydrax::RttManager</text>
<text text-anchor="middle" x="442" y="-580" font-family="Helvetica,sans-Serif" font-size="10.00">::setTextureSize</text>
</a>
</g>
<!-- Node23&#45;&gt;Node30 -->
<g id="edge72" class="edge"><title>Node23&#45;&gt;Node30</title>
<path fill="none" stroke="midnightblue" d="M279.008,-515.809C301.003,-530.723 331.308,-549.812 360,-563 369.228,-567.241 379.339,-571.064 389.213,-574.391"/>
<polygon fill="midnightblue" stroke="midnightblue" points="280.937,-512.888 270.711,-510.114 276.975,-518.659 280.937,-512.888"/>
</g>
<!-- Node32 -->
<g id="node71" class="node"><title>Node32</title>
<a xlink:href="class_hydrax_1_1_rtt_manager.html#ad54dd87efa7baa4a5037faa2e5241738" target="_top" xlink:title="Hydrax::RttManager\l::setTexturesSize">
<polygon fill="white" stroke="black" points="389.5,-468 389.5,-502 494.5,-502 494.5,-468 389.5,-468"/>
<text text-anchor="start" x="397.5" y="-489" font-family="Helvetica,sans-Serif" font-size="10.00">Hydrax::RttManager</text>
<text text-anchor="middle" x="442" y="-476" font-family="Helvetica,sans-Serif" font-size="10.00">::setTexturesSize</text>
</a>
</g>
<!-- Node23&#45;&gt;Node32 -->
<g id="edge78" class="edge"><title>Node23&#45;&gt;Node32</title>
<path fill="none" stroke="midnightblue" d="M309.547,-490.434C335.291,-489.378 364.783,-488.168 389.393,-487.158"/>
<polygon fill="midnightblue" stroke="midnightblue" points="309.361,-486.939 299.513,-490.846 309.648,-493.933 309.361,-486.939"/>
</g>
<!-- Node33 -->
<g id="node73" class="node"><title>Node33</title>
<a xlink:href="class_hydrax_1_1_rtt_manager.html#a009e9c7631dad8d588790401cab753b6" target="_top" xlink:title="Hydrax::RttManager\l::setNumberOfChannels">
<polygon fill="white" stroke="black" points="381,-364 381,-398 503,-398 503,-364 381,-364"/>
<text text-anchor="start" x="389" y="-385" font-family="Helvetica,sans-Serif" font-size="10.00">Hydrax::RttManager</text>
<text text-anchor="middle" x="442" y="-372" font-family="Helvetica,sans-Serif" font-size="10.00">::setNumberOfChannels</text>
</a>
</g>
<!-- Node23&#45;&gt;Node33 -->
<g id="edge80" class="edge"><title>Node23&#45;&gt;Node33</title>
<path fill="none" stroke="midnightblue" d="M308.926,-476.592C314.3,-473.86 319.424,-470.685 324,-467 348.22,-447.494 335.6,-426.28 360,-407 366.211,-402.093 373.364,-398.103 380.804,-394.861"/>
<polygon fill="midnightblue" stroke="midnightblue" points="307.356,-473.46 299.7,-480.784 310.253,-479.833 307.356,-473.46"/>
</g>
<!-- Node35 -->
<g id="node77" class="node"><title>Node35</title>
<a xlink:href="class_hydrax_1_1_rtt_manager.html#afe968a7c8f23a6fa9b0d5b499ef09491" target="_top" xlink:title="Hydrax::RttManager\l::setBitsPerChannel">
<polygon fill="white" stroke="black" points="389.5,-416 389.5,-450 494.5,-450 494.5,-416 389.5,-416"/>
<text text-anchor="start" x="397.5" y="-437" font-family="Helvetica,sans-Serif" font-size="10.00">Hydrax::RttManager</text>
<text text-anchor="middle" x="442" y="-424" font-family="Helvetica,sans-Serif" font-size="10.00">::setBitsPerChannel</text>
</a>
</g>
<!-- Node23&#45;&gt;Node35 -->
<g id="edge84" class="edge"><title>Node23&#45;&gt;Node35</title>
<path fill="none" stroke="midnightblue" d="M309.205,-473.86C335.03,-465.914 364.674,-456.793 389.393,-449.187"/>
<polygon fill="midnightblue" stroke="midnightblue" points="308.041,-470.556 299.513,-476.842 310.1,-477.246 308.041,-470.556"/>
</g>
<!-- Node25 -->
<g id="node56" class="node"><title>Node25</title>
<a xlink:href="class_hydrax_1_1_noise_1_1_f_f_t.html#aa8e2b9d2b8307c07be2d2cd9cf115560" target="_top" xlink:title="Hydrax::Noise::FFT\l::createGPUNormalMapResources">
<polygon fill="white" stroke="black" points="560.5,-312 560.5,-346 729.5,-346 729.5,-312 560.5,-312"/>
<text text-anchor="start" x="568.5" y="-333" font-family="Helvetica,sans-Serif" font-size="10.00">Hydrax::Noise::FFT</text>
<text text-anchor="middle" x="645" y="-320" font-family="Helvetica,sans-Serif" font-size="10.00">::createGPUNormalMapResources</text>
</a>
</g>
<!-- Node24&#45;&gt;Node25 -->
<g id="edge62" class="edge"><title>Node24&#45;&gt;Node25</title>
<path fill="none" stroke="midnightblue" d="M534.362,-329C543.001,-329 551.73,-329 560.295,-329"/>
<polygon fill="midnightblue" stroke="midnightblue" points="534.275,-325.5 524.275,-329 534.275,-332.5 534.275,-325.5"/>
</g>
<!-- Node28 -->
<g id="node62" class="node"><title>Node28</title>
<a xlink:href="class_hydrax_1_1_noise_1_1_perlin.html#adb347b98692bd7ce6ad7ce76c605d15a" target="_top" xlink:title="Hydrax::Noise::Perlin\l::createGPUNormalMapResources">
<polygon fill="white" stroke="black" points="560.5,-364 560.5,-398 729.5,-398 729.5,-364 560.5,-364"/>
<text text-anchor="start" x="568.5" y="-385" font-family="Helvetica,sans-Serif" font-size="10.00">Hydrax::Noise::Perlin</text>
<text text-anchor="middle" x="645" y="-372" font-family="Helvetica,sans-Serif" font-size="10.00">::createGPUNormalMapResources</text>
</a>
</g>
<!-- Node24&#45;&gt;Node28 -->
<g id="edge68" class="edge"><title>Node24&#45;&gt;Node28</title>
<path fill="none" stroke="midnightblue" d="M518.344,-348.556C538.085,-353.613 559.181,-359.017 578.381,-363.935"/>
<polygon fill="midnightblue" stroke="midnightblue" points="519.026,-345.118 508.47,-346.027 517.288,-351.899 519.026,-345.118"/>
</g>
<!-- Node26 -->
<g id="node58" class="node"><title>Node26</title>
<a xlink:href="class_hydrax_1_1_noise_1_1_f_f_t.html#a1d7ec06eb11cda608cc8f73256c35be5" target="_top" xlink:title="Hydrax::Noise::FFT\l::setOptions">
<polygon fill="white" stroke="black" points="783,-312 783,-346 887,-346 887,-312 783,-312"/>
<text text-anchor="start" x="791" y="-333" font-family="Helvetica,sans-Serif" font-size="10.00">Hydrax::Noise::FFT</text>
<text text-anchor="middle" x="835" y="-320" font-family="Helvetica,sans-Serif" font-size="10.00">::setOptions</text>
</a>
</g>
<!-- Node25&#45;&gt;Node26 -->
<g id="edge64" class="edge"><title>Node25&#45;&gt;Node26</title>
<path fill="none" stroke="midnightblue" d="M739.942,-329C754.733,-329 769.526,-329 782.887,-329"/>
<polygon fill="midnightblue" stroke="midnightblue" points="739.72,-325.5 729.72,-329 739.72,-332.5 739.72,-325.5"/>
</g>
<!-- Node27 -->
<g id="node60" class="node"><title>Node27</title>
<a xlink:href="class_hydrax_1_1_noise_1_1_f_f_t.html#a64245b9e56eeb8627ac3f5260dc203dd" target="_top" xlink:title="Hydrax::Noise::FFT\l::loadCfg">
<polygon fill="white" stroke="black" points="950,-312 950,-346 1054,-346 1054,-312 950,-312"/>
<text text-anchor="start" x="958" y="-333" font-family="Helvetica,sans-Serif" font-size="10.00">Hydrax::Noise::FFT</text>
<text text-anchor="middle" x="1002" y="-320" font-family="Helvetica,sans-Serif" font-size="10.00">::loadCfg</text>
</a>
</g>
<!-- Node26&#45;&gt;Node27 -->
<g id="edge66" class="edge"><title>Node26&#45;&gt;Node27</title>
<path fill="none" stroke="midnightblue" d="M897.856,-329C914.981,-329 933.342,-329 949.804,-329"/>
<polygon fill="midnightblue" stroke="midnightblue" points="897.382,-325.5 887.382,-329 897.382,-332.5 897.382,-325.5"/>
</g>
<!-- Node31 -->
<g id="node68" class="node"><title>Node31</title>
<a xlink:href="class_hydrax_1_1_cfg_file_manager.html#ae2a1a0accf942e528f6ba8a041a674e6" target="_top" xlink:title="Hydrax::CfgFileManager\l::_loadRttSettings">
<polygon fill="white" stroke="black" points="773.5,-572 773.5,-606 896.5,-606 896.5,-572 773.5,-572"/>
<text text-anchor="start" x="781.5" y="-593" font-family="Helvetica,sans-Serif" font-size="10.00">Hydrax::CfgFileManager</text>
<text text-anchor="middle" x="835" y="-580" font-family="Helvetica,sans-Serif" font-size="10.00">::_loadRttSettings</text>
</a>
</g>
<!-- Node30&#45;&gt;Node31 -->
<g id="edge74" class="edge"><title>Node30&#45;&gt;Node31</title>
<path fill="none" stroke="midnightblue" d="M504.671,-589C578.408,-589 700.049,-589 773.344,-589"/>
<polygon fill="midnightblue" stroke="midnightblue" points="504.594,-585.5 494.594,-589 504.594,-592.5 504.594,-585.5"/>
</g>
<!-- Node31&#45;&gt;Node6 -->
<g id="edge76" class="edge"><title>Node31&#45;&gt;Node6</title>
<path fill="none" stroke="midnightblue" d="M906.832,-600.183C917.965,-601.917 929.38,-603.694 940.265,-605.389"/>
<polygon fill="midnightblue" stroke="midnightblue" points="907.13,-596.688 896.71,-598.608 906.053,-603.604 907.13,-596.688"/>
</g>
<!-- Node34 -->
<g id="node75" class="node"><title>Node34</title>
<a xlink:href="class_hydrax_1_1_g_p_u_normal_map_manager.html#a9c2a79cec8c9a72e2916587e09c9c83f" target="_top" xlink:title="Hydrax::GPUNormalMapManager\l::GPUNormalMapManager">
<polygon fill="white" stroke="black" points="563,-416 563,-450 727,-450 727,-416 563,-416"/>
<text text-anchor="start" x="571" y="-437" font-family="Helvetica,sans-Serif" font-size="10.00">Hydrax::GPUNormalMapManager</text>
<text text-anchor="middle" x="645" y="-424" font-family="Helvetica,sans-Serif" font-size="10.00">::GPUNormalMapManager</text>
</a>
</g>
<!-- Node33&#45;&gt;Node34 -->
<g id="edge82" class="edge"><title>Node33&#45;&gt;Node34</title>
<path fill="none" stroke="midnightblue" d="M513.082,-399.208C534.262,-404.634 557.389,-410.558 578.28,-415.909"/>
<polygon fill="midnightblue" stroke="midnightblue" points="513.738,-395.763 503.182,-396.672 512.001,-402.544 513.738,-395.763"/>
</g>
<!-- Node35&#45;&gt;Node34 -->
<g id="edge86" class="edge"><title>Node35&#45;&gt;Node34</title>
<path fill="none" stroke="midnightblue" d="M504.789,-433C523.115,-433 543.421,-433 562.758,-433"/>
<polygon fill="midnightblue" stroke="midnightblue" points="504.542,-429.5 494.542,-433 504.542,-436.5 504.542,-429.5"/>
</g>
</g>
</svg>
        <g id="navigator" transform="translate(0 0)" fill="#404254">
                <rect fill="#f2f5e9" fill-opacity="0.5" stroke="#606060" stroke-width=".5" x="0" y="0" width="60" height="60"/>
                <use id="zoomplus" xlink:href="#zoomPlus" x="17" y="9" onmousedown="handleZoom(evt,'in')"/>
                <use id="zoomminus" xlink:href="#zoomMin" x="42" y="9" onmousedown="handleZoom(evt,'out')"/>
                <use id="reset" xlink:href="#resetDef" x="30" y="36" onmousedown="handleReset()"/>
                <g id="arrowUp" xlink:href="#dirArrow" transform="translate(30 24)" onmousedown="handlePan(0,-1)">
                  <use xlink:href="#rim" fill="#404040">
                        <set attributeName="fill" to="#808080" begin="arrowUp.mouseover" end="arrowUp.mouseout"/>
                  </use>
                  <path fill="none" stroke="white" stroke-width="1.5" d="M0,-3.0v7 M-2.5,-0.5L0,-3.0L2.5,-0.5"/>
                </g>
                <g id="arrowRight" xlink:href="#dirArrow" transform="rotate(90) translate(36 -43)" onmousedown="handlePan(1,0)">
                  <use xlink:href="#rim" fill="#404040">
                        <set attributeName="fill" to="#808080" begin="arrowRight.mouseover" end="arrowRight.mouseout"/>
                  </use>
                  <path fill="none" stroke="white" stroke-width="1.5" d="M0,-3.0v7 M-2.5,-0.5L0,-3.0L2.5,-0.5"/>
                </g>
                <g id="arrowDown" xlink:href="#dirArrow" transform="rotate(180) translate(-30 -48)" onmousedown="handlePan(0,1)">
                  <use xlink:href="#rim" fill="#404040">
                        <set attributeName="fill" to="#808080" begin="arrowDown.mouseover" end="arrowDown.mouseout"/>
                  </use>
                  <path fill="none" stroke="white" stroke-width="1.5" d="M0,-3.0v7 M-2.5,-0.5L0,-3.0L2.5,-0.5"/>
                </g>
                <g id="arrowLeft" xlink:href="#dirArrow" transform="rotate(270) translate(-36 17)" onmousedown="handlePan(-1,0)">
                  <use xlink:href="#rim" fill="#404040">
                        <set attributeName="fill" to="#808080" begin="arrowLeft.mouseover" end="arrowLeft.mouseout"/>
                  </use>
                  <path fill="none" stroke="white" stroke-width="1.5" d="M0,-3.0v7 M-2.5,-0.5L0,-3.0L2.5,-0.5"/>
                </g>
        </g>
        <svg viewBox="0 0 15 15" width="100%" height="30px" preserveAspectRatio="xMaxYMin meet">
         <g id="arrow_out" transform="scale(0.3 0.3)">
          <a xlink:href="class_hydrax_1_1_hydrax_a4f6dfef270938f04d0430eaf8e1fa88f_icgraph_org.svg" target="_base">
           <rect id="button" ry="5" rx="5" y="6" x="6" height="38" width="38"
                fill="#f2f5e9" fill-opacity="0.5" stroke="#606060" stroke-width="1.0"/>
           <path id="arrow"
             d="M 11.500037,31.436501 C 11.940474,20.09759 22.043105,11.32322 32.158766,21.979434 L 37.068811,17.246167 C 37.068811,17.246167 37.088388,32 37.088388,32 L 22.160133,31.978069 C 22.160133,31.978069 26.997745,27.140456 26.997745,27.140456 C 18.528582,18.264221 13.291696,25.230495 11.500037,31.436501 z"
             style="fill:#404040;"/>
          </a>
         </g>
        </svg>
</svg>
