<?xml version="1.0" encoding="UTF-8" standalone="no"?>
<!DOCTYPE svg PUBLIC "-//W3C//DTD SVG 1.1//EN"
 "http://www.w3.org/Graphics/SVG/1.1/DTD/svg11.dtd">
<!-- Generated by graphviz version 2.26.3 (20100126.1600)
 -->
<!-- Title: RigDef::Parser::ParseBeams Pages: 1 -->
<svg width="528pt" height="133pt"
 viewBox="0.00 0.00 528.00 133.00" xmlns="http://www.w3.org/2000/svg" xmlns:xlink="http://www.w3.org/1999/xlink">
<g id="graph1" class="graph" transform="scale(1 1) rotate(0) translate(4 129)">
<title>RigDef::Parser::ParseBeams</title>
<polygon fill="white" stroke="white" points="-4,5 -4,-129 525,-129 525,5 -4,5"/>
<!-- Node1 -->
<g id="node1" class="node"><title>Node1</title>
<polygon fill="#bfbfbf" stroke="black" points="0,-52.5 0,-73.5 144,-73.5 144,-52.5 0,-52.5"/>
<text text-anchor="middle" x="72" y="-60.5" font-family="Helvetica,sans-Serif" font-size="10.00">RigDef::Parser::ParseBeams</text>
</g>
<!-- Node2 -->
<g id="node3" class="node"><title>Node2</title>
<a xlink:href="class_rig_def_1_1_parser.html#ac1a3ed20e65d2ad2819fe562dd3178c8" target="_top" xlink:title="RigDef::Parser::_TrimTrailing\lComments">
<polygon fill="white" stroke="black" points="187,-91 187,-125 331,-125 331,-91 187,-91"/>
<text text-anchor="start" x="195" y="-112" font-family="Helvetica,sans-Serif" font-size="10.00">RigDef::Parser::_TrimTrailing</text>
<text text-anchor="middle" x="259" y="-99" font-family="Helvetica,sans-Serif" font-size="10.00">Comments</text>
</a>
</g>
<!-- Node1&#45;&gt;Node2 -->
<g id="edge2" class="edge"><title>Node1&#45;&gt;Node2</title>
<path fill="none" stroke="midnightblue" d="M115.843,-73.5505C134.473,-78.0335 156.807,-83.4081 178.232,-88.564"/>
<polygon fill="midnightblue" stroke="midnightblue" points="177.455,-91.9766 187.996,-90.9135 179.092,-85.1709 177.455,-91.9766"/>
</g>
<!-- Node3 -->
<g id="node5" class="node"><title>Node3</title>
<a xlink:href="class_rig_def_1_1_parser.html#a7da949423835fe3241f2ac4c5ac8ebb1" target="_top" xlink:title="RigDef::Parser::AddMessage">
<polygon fill="white" stroke="black" points="374.5,-52.5 374.5,-73.5 519.5,-73.5 519.5,-52.5 374.5,-52.5"/>
<text text-anchor="middle" x="447" y="-60.5" font-family="Helvetica,sans-Serif" font-size="10.00">RigDef::Parser::AddMessage</text>
</a>
</g>
<!-- Node1&#45;&gt;Node3 -->
<g id="edge4" class="edge"><title>Node1&#45;&gt;Node3</title>
<path fill="none" stroke="midnightblue" d="M144.304,-63C207.134,-63 298.139,-63 363.943,-63"/>
<polygon fill="midnightblue" stroke="midnightblue" points="364.279,-66.5001 374.279,-63 364.279,-59.5001 364.279,-66.5001"/>
</g>
<!-- Node4 -->
<g id="node7" class="node"><title>Node4</title>
<a xlink:href="class_rig_def_1_1_parser.html#a38e4135df406da0cc2f0fc4afb34ddb3" target="_top" xlink:title="RigDef::Parser::_ParseNodeRef">
<polygon fill="white" stroke="black" points="180,-13.5 180,-34.5 338,-34.5 338,-13.5 180,-13.5"/>
<text text-anchor="middle" x="259" y="-21.5" font-family="Helvetica,sans-Serif" font-size="10.00">RigDef::Parser::_ParseNodeRef</text>
</a>
</g>
<!-- Node1&#45;&gt;Node4 -->
<g id="edge6" class="edge"><title>Node1&#45;&gt;Node4</title>
<path fill="none" stroke="midnightblue" d="M122.605,-52.446C145.992,-47.5686 173.949,-41.7379 198.447,-36.6287"/>
<polygon fill="midnightblue" stroke="midnightblue" points="199.28,-40.0304 208.355,-34.5624 197.851,-33.1778 199.28,-40.0304"/>
</g>
<!-- Node4&#45;&gt;Node3 -->
<g id="edge10" class="edge"><title>Node4&#45;&gt;Node3</title>
<path fill="none" stroke="midnightblue" d="M309.876,-34.554C333.387,-39.4314 361.494,-45.2621 386.123,-50.3713"/>
<polygon fill="midnightblue" stroke="midnightblue" points="385.581,-53.8333 396.084,-52.4376 387.003,-46.9793 385.581,-53.8333"/>
</g>
<!-- Node5 -->
<g id="node9" class="node"><title>Node5</title>
<a xlink:href="class_rig_def_1_1_sequential_importer.html#a04d293d8b1f94b9a722e83715911e547" target="_top" xlink:title="RigDef::SequentialImporter\l::IsEnabled">
<polygon fill="white" stroke="black" points="379.5,-0 379.5,-34 514.5,-34 514.5,-0 379.5,-0"/>
<text text-anchor="start" x="387.5" y="-21" font-family="Helvetica,sans-Serif" font-size="10.00">RigDef::SequentialImporter</text>
<text text-anchor="middle" x="447" y="-8" font-family="Helvetica,sans-Serif" font-size="10.00">::IsEnabled</text>
</a>
</g>
<!-- Node4&#45;&gt;Node5 -->
<g id="edge8" class="edge"><title>Node4&#45;&gt;Node5</title>
<path fill="none" stroke="midnightblue" d="M338.184,-21.0517C348.42,-20.6705 358.896,-20.2805 369.11,-19.9001"/>
<polygon fill="midnightblue" stroke="midnightblue" points="369.356,-23.3935 379.219,-19.5238 369.096,-16.3984 369.356,-23.3935"/>
</g>
</g>
</svg>
