<?xml version="1.0" encoding="UTF-8" standalone="no"?>
<!DOCTYPE svg PUBLIC "-//W3C//DTD SVG 1.1//EN"
 "http://www.w3.org/Graphics/SVG/1.1/DTD/svg11.dtd">
<!-- Generated by graphviz version 2.26.3 (20100126.1600)
 -->
<!-- Title: RoR::RigEditor::GuiPopupDynamicListBase::OnSelectAllMouseFocusGained Pages: 1 -->
<svg width="756pt" height="108pt"
 viewBox="0.00 0.00 756.00 108.00" xmlns="http://www.w3.org/2000/svg" xmlns:xlink="http://www.w3.org/1999/xlink">
<g id="graph1" class="graph" transform="scale(1 1) rotate(0) translate(4 104)">
<title>RoR::RigEditor::GuiPopupDynamicListBase::OnSelectAllMouseFocusGained</title>
<polygon fill="white" stroke="white" points="-4,5 -4,-104 753,-104 753,5 -4,5"/>
<!-- Node1 -->
<g id="node1" class="node"><title>Node1</title>
<polygon fill="#bfbfbf" stroke="black" points="0,-22.5 0,-69.5 152,-69.5 152,-22.5 0,-22.5"/>
<text text-anchor="start" x="8" y="-56.5" font-family="Helvetica,sans-Serif" font-size="10.00">RoR::RigEditor::GuiPopup</text>
<text text-anchor="start" x="8" y="-43.5" font-family="Helvetica,sans-Serif" font-size="10.00">DynamicListBase::OnSelectAll</text>
<text text-anchor="middle" x="76" y="-30.5" font-family="Helvetica,sans-Serif" font-size="10.00">MouseFocusGained</text>
</g>
<!-- Node2 -->
<g id="node3" class="node"><title>Node2</title>
<a xlink:href="class_ro_r_1_1_rig_editor_1_1_gui_popup_dynamic_list_base.html#a44187cba696af08d7a5bf70f2a861d58" target="_top" xlink:title="RoR::RigEditor::GuiPopup\lDynamicListBase::GuiCallback\l_MouseFocusGained">
<polygon fill="white" stroke="black" points="188.5,-22.5 188.5,-69.5 341.5,-69.5 341.5,-22.5 188.5,-22.5"/>
<text text-anchor="start" x="196.5" y="-56.5" font-family="Helvetica,sans-Serif" font-size="10.00">RoR::RigEditor::GuiPopup</text>
<text text-anchor="start" x="196.5" y="-43.5" font-family="Helvetica,sans-Serif" font-size="10.00">DynamicListBase::GuiCallback</text>
<text text-anchor="middle" x="265" y="-30.5" font-family="Helvetica,sans-Serif" font-size="10.00">_MouseFocusGained</text>
</a>
</g>
<!-- Node1&#45;&gt;Node2 -->
<g id="edge2" class="edge"><title>Node1&#45;&gt;Node2</title>
<path fill="none" stroke="midnightblue" d="M162.262,-46C171.009,-46 179.85,-46 188.484,-46"/>
<polygon fill="midnightblue" stroke="midnightblue" points="162.057,-42.5001 152.057,-46 162.057,-49.5001 162.057,-42.5001"/>
</g>
<!-- Node3 -->
<g id="node5" class="node"><title>Node3</title>
<a xlink:href="class_ro_r_1_1_rig_editor_1_1_gui_popup_dynamic_list_base.html#a6fa40dd68435c7d30e8c0ab2f885c403" target="_top" xlink:title="RoR::RigEditor::GuiPopup\lDynamicListBase::GuiPopupDynamic\lListBase">
<polygon fill="white" stroke="black" points="378,-52.5 378,-99.5 560,-99.5 560,-52.5 378,-52.5"/>
<text text-anchor="start" x="386" y="-86.5" font-family="Helvetica,sans-Serif" font-size="10.00">RoR::RigEditor::GuiPopup</text>
<text text-anchor="start" x="386" y="-73.5" font-family="Helvetica,sans-Serif" font-size="10.00">DynamicListBase::GuiPopupDynamic</text>
<text text-anchor="middle" x="469" y="-60.5" font-family="Helvetica,sans-Serif" font-size="10.00">ListBase</text>
</a>
</g>
<!-- Node2&#45;&gt;Node3 -->
<g id="edge4" class="edge"><title>Node2&#45;&gt;Node3</title>
<path fill="none" stroke="midnightblue" d="M351.66,-58.7441C360.351,-60.0222 369.194,-61.3227 377.929,-62.6073"/>
<polygon fill="midnightblue" stroke="midnightblue" points="351.945,-55.2485 341.542,-57.2562 350.927,-62.174 351.945,-55.2485"/>
</g>
<!-- Node4 -->
<g id="node7" class="node"><title>Node4</title>
<a xlink:href="class_ro_r_1_1_rig_editor_1_1_gui_popup_dynamic_list_base.html#a994f198f45e5fcb2cede5cbb5c6f19c0" target="_top" xlink:title="RoR::RigEditor::GuiPopup\lDynamicListBase::AddItemToList">
<polygon fill="white" stroke="black" points="387,-0 387,-34 551,-34 551,-0 387,-0"/>
<text text-anchor="start" x="395" y="-21" font-family="Helvetica,sans-Serif" font-size="10.00">RoR::RigEditor::GuiPopup</text>
<text text-anchor="middle" x="469" y="-8" font-family="Helvetica,sans-Serif" font-size="10.00">DynamicListBase::AddItemToList</text>
</a>
</g>
<!-- Node2&#45;&gt;Node4 -->
<g id="edge6" class="edge"><title>Node2&#45;&gt;Node4</title>
<path fill="none" stroke="midnightblue" d="M351.711,-33.6734C363.38,-32.0146 375.323,-30.3169 386.908,-28.6699"/>
<polygon fill="midnightblue" stroke="midnightblue" points="350.95,-30.2463 341.542,-35.119 351.936,-37.1766 350.95,-30.2463"/>
</g>
<!-- Node5 -->
<g id="node9" class="node"><title>Node5</title>
<a xlink:href="class_ro_r_1_1_rig_editor_1_1_gui_popup_wheels_list.html#afedcd5b2d0c543808d8afc5b5e2f12ff" target="_top" xlink:title="RoR::RigEditor::GuiPopup\lWheelsList::UpdateWheelsList">
<polygon fill="white" stroke="black" points="596,-0 596,-34 748,-34 748,-0 596,-0"/>
<text text-anchor="start" x="604" y="-21" font-family="Helvetica,sans-Serif" font-size="10.00">RoR::RigEditor::GuiPopup</text>
<text text-anchor="middle" x="672" y="-8" font-family="Helvetica,sans-Serif" font-size="10.00">WheelsList::UpdateWheelsList</text>
</a>
</g>
<!-- Node4&#45;&gt;Node5 -->
<g id="edge8" class="edge"><title>Node4&#45;&gt;Node5</title>
<path fill="none" stroke="midnightblue" d="M561.356,-17C572.892,-17 584.586,-17 595.836,-17"/>
<polygon fill="midnightblue" stroke="midnightblue" points="561.275,-13.5001 551.275,-17 561.275,-20.5001 561.275,-13.5001"/>
</g>
</g>
</svg>
