<?xml version="1.0" encoding="UTF-8" standalone="no"?>
<!DOCTYPE svg PUBLIC "-//W3C//DTD SVG 1.1//EN"
 "http://www.w3.org/Graphics/SVG/1.1/DTD/svg11.dtd">
<!-- Generated by graphviz version 2.26.3 (20100126.1600)
 -->
<!-- Title: G Pages: 1 -->
<svg width="360pt" height="150pt"
 viewBox="0.00 0.00 360.00 150.00" xmlns="http://www.w3.org/2000/svg" xmlns:xlink="http://www.w3.org/1999/xlink">
<g id="graph1" class="graph" transform="scale(1 1) rotate(0) translate(4 146)">
<title>G</title>
<polygon fill="white" stroke="white" points="-4,5 -4,-146 357,-146 357,5 -4,5"/>
<!-- Node1 -->
<g id="node1" class="node"><title>Node1</title>
<polygon fill="#bfbfbf" stroke="black" points="0.5,-60.5 0.5,-81.5 185.5,-81.5 185.5,-60.5 0.5,-60.5"/>
<text text-anchor="middle" x="93" y="-68.5" font-family="Helvetica,sans-Serif" font-size="10.00">Buoyance::computePressureForceSub</text>
</g>
<!-- Node2 -->
<g id="node3" class="node"><title>Node2</title>
<a xlink:href="struct_vector3.html#a30db3d517cb422cb78a4be0cf52bc89e" target="_top" xlink:title="Vector3::length">
<polygon fill="white" stroke="black" points="245.5,-120.5 245.5,-141.5 328.5,-141.5 328.5,-120.5 245.5,-120.5"/>
<text text-anchor="middle" x="287" y="-128.5" font-family="Helvetica,sans-Serif" font-size="10.00">Vector3::length</text>
</a>
</g>
<!-- Node1&#45;&gt;Node2 -->
<g id="edge2" class="edge"><title>Node1&#45;&gt;Node2</title>
<path fill="none" stroke="midnightblue" d="M126.944,-81.5475C152.955,-89.6245 189.739,-101.035 222,-111 228.67,-113.06 235.726,-115.236 242.634,-117.363"/>
<polygon fill="midnightblue" stroke="midnightblue" points="242,-120.83 252.587,-120.427 244.06,-114.14 242,-120.83"/>
</g>
<!-- Node3 -->
<g id="node5" class="node"><title>Node3</title>
<a xlink:href="class_terrain_manager.html#a1d0227a71a4e114099797646ff6756b7" target="_top" xlink:title="TerrainManager::getWater">
<polygon fill="white" stroke="black" points="222,-80.5 222,-101.5 352,-101.5 352,-80.5 222,-80.5"/>
<text text-anchor="middle" x="287" y="-88.5" font-family="Helvetica,sans-Serif" font-size="10.00">TerrainManager::getWater</text>
</a>
</g>
<!-- Node1&#45;&gt;Node3 -->
<g id="edge4" class="edge"><title>Node1&#45;&gt;Node3</title>
<path fill="none" stroke="midnightblue" d="M185.739,-80.5607C194.396,-81.4532 203.098,-82.3504 211.57,-83.2237"/>
<polygon fill="midnightblue" stroke="midnightblue" points="211.464,-86.7312 221.77,-84.2752 212.182,-79.7681 211.464,-86.7312"/>
</g>
<!-- Node4 -->
<g id="node7" class="node"><title>Node4</title>
<a xlink:href="class_i_water.html#a48916b4b4fdcd2e945b391164d0a0083" target="_top" xlink:title="IWater::getHeightWaves">
<polygon fill="white" stroke="black" points="224.5,-40.5 224.5,-61.5 349.5,-61.5 349.5,-40.5 224.5,-40.5"/>
<text text-anchor="middle" x="287" y="-48.5" font-family="Helvetica,sans-Serif" font-size="10.00">IWater::getHeightWaves</text>
</a>
</g>
<!-- Node1&#45;&gt;Node4 -->
<g id="edge6" class="edge"><title>Node1&#45;&gt;Node4</title>
<path fill="none" stroke="midnightblue" d="M185.739,-61.4393C195.325,-60.451 204.967,-59.457 214.289,-58.4959"/>
<polygon fill="midnightblue" stroke="midnightblue" points="214.673,-61.975 224.262,-57.4679 213.956,-55.0119 214.673,-61.975"/>
</g>
<!-- Node5 -->
<g id="node9" class="node"><title>Node5</title>
<a xlink:href="class_i_water.html#afbbeea4908e0324a1e9458b668928989" target="_top" xlink:title="IWater::getVelocity">
<polygon fill="white" stroke="black" points="236.5,-0.5 236.5,-21.5 337.5,-21.5 337.5,-0.5 236.5,-0.5"/>
<text text-anchor="middle" x="287" y="-8.5" font-family="Helvetica,sans-Serif" font-size="10.00">IWater::getVelocity</text>
</a>
</g>
<!-- Node1&#45;&gt;Node5 -->
<g id="edge8" class="edge"><title>Node1&#45;&gt;Node5</title>
<path fill="none" stroke="midnightblue" d="M126.944,-60.4525C152.955,-52.3755 189.739,-40.9649 222,-31 228.67,-28.9398 235.726,-26.7644 242.634,-24.6369"/>
<polygon fill="midnightblue" stroke="midnightblue" points="244.06,-27.8603 252.587,-21.5732 242,-21.17 244.06,-27.8603"/>
</g>
</g>
</svg>
