<?xml version="1.0" encoding="UTF-8" standalone="no"?>
<!DOCTYPE svg PUBLIC "-//W3C//DTD SVG 1.1//EN"
 "http://www.w3.org/Graphics/SVG/1.1/DTD/svg11.dtd">
<!-- Generated by graphviz version 2.26.3 (20100126.1600)
 -->
<!-- Title: DOFManager::cleanup Pages: 1 -->
<svg width="294pt" height="94pt"
 viewBox="0.00 0.00 294.00 94.00" xmlns="http://www.w3.org/2000/svg" xmlns:xlink="http://www.w3.org/1999/xlink">
<g id="graph1" class="graph" transform="scale(1 1) rotate(0) translate(4 90)">
<title>DOFManager::cleanup</title>
<polygon fill="white" stroke="white" points="-4,5 -4,-90 291,-90 291,5 -4,5"/>
<!-- Node1 -->
<g id="node1" class="node"><title>Node1</title>
<polygon fill="#bfbfbf" stroke="black" points="0.5,-32.5 0.5,-53.5 115.5,-53.5 115.5,-32.5 0.5,-32.5"/>
<text text-anchor="middle" x="58" y="-40.5" font-family="Helvetica,sans-Serif" font-size="10.00">DOFManager::cleanup</text>
</g>
<!-- Node2 -->
<g id="node3" class="node"><title>Node2</title>
<a xlink:href="class_ro_r_1_1_application.html#a5082701abd55926b3c6eb4b0c933eca5" target="_top" xlink:title="RoR::Application::GetOgre\lSubsystem">
<polygon fill="white" stroke="black" points="152,-52 152,-86 286,-86 286,-52 152,-52"/>
<text text-anchor="start" x="160" y="-73" font-family="Helvetica,sans-Serif" font-size="10.00">RoR::Application::GetOgre</text>
<text text-anchor="middle" x="219" y="-60" font-family="Helvetica,sans-Serif" font-size="10.00">Subsystem</text>
</a>
</g>
<!-- Node1&#45;&gt;Node2 -->
<g id="edge2" class="edge"><title>Node1&#45;&gt;Node2</title>
<path fill="none" stroke="midnightblue" d="M115.67,-52.3132C124.192,-53.6894 133.087,-55.1258 141.926,-56.5533"/>
<polygon fill="midnightblue" stroke="midnightblue" points="141.43,-60.0184 151.86,-58.1575 142.546,-53.108 141.43,-60.0184"/>
</g>
<!-- Node3 -->
<g id="node5" class="node"><title>Node3</title>
<a xlink:href="class_ro_r_1_1_ogre_subsystem.html#a2f68e736be01d118cae03e831b38a9df" target="_top" xlink:title="RoR::OgreSubsystem\l::GetOgreRoot">
<polygon fill="white" stroke="black" points="162.5,-0 162.5,-34 275.5,-34 275.5,-0 162.5,-0"/>
<text text-anchor="start" x="170.5" y="-21" font-family="Helvetica,sans-Serif" font-size="10.00">RoR::OgreSubsystem</text>
<text text-anchor="middle" x="219" y="-8" font-family="Helvetica,sans-Serif" font-size="10.00">::GetOgreRoot</text>
</a>
</g>
<!-- Node1&#45;&gt;Node3 -->
<g id="edge4" class="edge"><title>Node1&#45;&gt;Node3</title>
<path fill="none" stroke="midnightblue" d="M115.67,-33.6868C127.512,-31.7744 140.074,-29.7459 152.207,-27.7865"/>
<polygon fill="midnightblue" stroke="midnightblue" points="152.959,-31.2105 162.273,-26.1609 151.843,-24.3 152.959,-31.2105"/>
</g>
</g>
</svg>
