<?xml version="1.0" encoding="UTF-8" standalone="no"?>
<!DOCTYPE svg PUBLIC "-//W3C//DTD SVG 1.1//EN"
 "http://www.w3.org/Graphics/SVG/1.1/DTD/svg11.dtd">
<!-- Generated by graphviz version 2.26.3 (20100126.1600)
 -->
<!-- Title: G Pages: 1 -->
<svg width="386pt" height="110pt"
 viewBox="0.00 0.00 386.00 110.00" xmlns="http://www.w3.org/2000/svg" xmlns:xlink="http://www.w3.org/1999/xlink">
<g id="graph1" class="graph" transform="scale(1 1) rotate(0) translate(4 106)">
<title>G</title>
<polygon fill="white" stroke="white" points="-4,5 -4,-106 383,-106 383,5 -4,5"/>
<!-- Node1 -->
<g id="node1" class="node"><title>Node1</title>
<polygon fill="#bfbfbf" stroke="black" points="0,-40.5 0,-61.5 156,-61.5 156,-40.5 0,-40.5"/>
<text text-anchor="middle" x="78" y="-48.5" font-family="Helvetica,sans-Serif" font-size="10.00">Hydrax::Mesh::updateGeometry</text>
</g>
<!-- Node2 -->
<g id="node3" class="node"><title>Node2</title>
<a xlink:href="class_hydrax_1_1_module_1_1_projected_grid.html#a8d7a8efcd6b7fd0e4313c9114bd2c061" target="_top" xlink:title="Hydrax::Module::ProjectedGrid::update">
<polygon fill="white" stroke="black" points="192,-80.5 192,-101.5 378,-101.5 378,-80.5 192,-80.5"/>
<text text-anchor="middle" x="285" y="-88.5" font-family="Helvetica,sans-Serif" font-size="10.00">Hydrax::Module::ProjectedGrid::update</text>
</a>
</g>
<!-- Node1&#45;&gt;Node2 -->
<g id="edge2" class="edge"><title>Node1&#45;&gt;Node2</title>
<path fill="none" stroke="midnightblue" d="M142.574,-63.4781C170.834,-68.939 203.627,-75.2757 230.617,-80.4913"/>
<polygon fill="midnightblue" stroke="midnightblue" points="142.869,-59.9704 132.387,-61.5095 141.541,-66.8433 142.869,-59.9704"/>
</g>
<!-- Node3 -->
<g id="node5" class="node"><title>Node3</title>
<a xlink:href="class_hydrax_1_1_module_1_1_radial_grid.html#aee5199bfbee4429ab428d477e36443dd" target="_top" xlink:title="Hydrax::Module::RadialGrid::update">
<polygon fill="white" stroke="black" points="198.5,-40.5 198.5,-61.5 371.5,-61.5 371.5,-40.5 198.5,-40.5"/>
<text text-anchor="middle" x="285" y="-48.5" font-family="Helvetica,sans-Serif" font-size="10.00">Hydrax::Module::RadialGrid::update</text>
</a>
</g>
<!-- Node1&#45;&gt;Node3 -->
<g id="edge4" class="edge"><title>Node1&#45;&gt;Node3</title>
<path fill="none" stroke="midnightblue" d="M166.336,-51C176.933,-51 187.746,-51 198.319,-51"/>
<polygon fill="midnightblue" stroke="midnightblue" points="166.258,-47.5001 156.258,-51 166.258,-54.5001 166.258,-47.5001"/>
</g>
<!-- Node4 -->
<g id="node7" class="node"><title>Node4</title>
<a xlink:href="class_hydrax_1_1_module_1_1_simple_grid.html#aaa120d4f487785136a3134cc8980fb16" target="_top" xlink:title="Hydrax::Module::SimpleGrid::update">
<polygon fill="white" stroke="black" points="197.5,-0.5 197.5,-21.5 372.5,-21.5 372.5,-0.5 197.5,-0.5"/>
<text text-anchor="middle" x="285" y="-8.5" font-family="Helvetica,sans-Serif" font-size="10.00">Hydrax::Module::SimpleGrid::update</text>
</a>
</g>
<!-- Node1&#45;&gt;Node4 -->
<g id="edge6" class="edge"><title>Node1&#45;&gt;Node4</title>
<path fill="none" stroke="midnightblue" d="M142.574,-38.5219C170.834,-33.061 203.627,-26.7243 230.617,-21.5087"/>
<polygon fill="midnightblue" stroke="midnightblue" points="141.541,-35.1567 132.387,-40.4905 142.869,-42.0296 141.541,-35.1567"/>
</g>
</g>
</svg>
