<?xml version="1.0" encoding="UTF-8" standalone="no"?>
<!DOCTYPE svg PUBLIC "-//W3C//DTD SVG 1.1//EN"
 "http://www.w3.org/Graphics/SVG/1.1/DTD/svg11.dtd">
<!-- Generated by graphviz version 2.26.3 (20100126.1600)
 -->
<!-- Title: G Pages: 1 -->
<!--zoomable 230 -->
<svg id="main" version="1.1" xmlns="http://www.w3.org/2000/svg" xmlns:xlink="http://www.w3.org/1999/xlink" xml:space="preserve" onload="init(evt)">
        <defs>
                <circle id="rim" cx="0" cy="0" r="7"/>
                <circle id="rim2" cx="0" cy="0" r="3.5"/>
                <g id="zoomPlus">
                        <use xlink:href="#rim" fill="#404040">
                                <set attributeName="fill" to="#808080" begin="zoomplus.mouseover" end="zoomplus.mouseout"/>
                        </use>
                        <path d="M-4,0h8M0,-4v8" fill="none" stroke="white" stroke-width="1.5" pointer-events="none"/>
                </g>
                <g id="zoomMin">
                        <use xlink:href="#rim" fill="#404040">
                                <set attributeName="fill" to="#808080" begin="zoomminus.mouseover" end="zoomminus.mouseout"/>
                        </use>
                        <path d="M-4,0h8" fill="none" stroke="white" stroke-width="1.5" pointer-events="none"/>
                </g>
                <g id="dirArrow">
                        <path fill="none" stroke="white" stroke-width="1.5" d="M0,-3.0v7 M-2.5,-0.5L0,-3.0L2.5,-0.5"/>
                </g>
               <g id="resetDef">
                       <use xlink:href="#rim2" fill="#404040">
                               <set attributeName="fill" to="#808080" begin="reset.mouseover" end="reset.mouseout"/>
                       </use>
               </g>
        </defs>

<script type="text/javascript">
var viewWidth = 1022;
var viewHeight = 230;
var sectionId = 'dynsection-2';
</script>
<script xlink:href="svgpan.js"/>
<svg id="graph" class="graph">
<g id="viewport">
<title>G</title>
<polygon fill="white" stroke="white" points="-4,5 -4,-226 1019,-226 1019,5 -4,5"/>
<!-- Node1 -->
<g id="node1" class="node"><title>Node1</title>
<polygon fill="#bfbfbf" stroke="black" points="0,-178.5 0,-199.5 134,-199.5 134,-178.5 0,-178.5"/>
<text text-anchor="middle" x="67" y="-186.5" font-family="Helvetica,sans-Serif" font-size="10.00">Landusemap::Landusemap</text>
</g>
<!-- Node2 -->
<g id="node3" class="node"><title>Node2</title>
<a xlink:href="class_terrain_manager.html#a41fdd66a57990a5fb33d253213fd04e3" target="_top" xlink:title="TerrainManager::getMaxTerrainSize">
<polygon fill="white" stroke="black" points="342,-198.5 342,-219.5 514,-219.5 514,-198.5 342,-198.5"/>
<text text-anchor="middle" x="428" y="-206.5" font-family="Helvetica,sans-Serif" font-size="10.00">TerrainManager::getMaxTerrainSize</text>
</a>
</g>
<!-- Node1&#45;&gt;Node2 -->
<g id="edge2" class="edge"><title>Node1&#45;&gt;Node2</title>
<path fill="none" stroke="midnightblue" d="M134.055,-192.715C189.586,-195.791 269.208,-200.203 331.581,-203.658"/>
<polygon fill="midnightblue" stroke="midnightblue" points="331.652,-207.167 341.83,-204.226 332.039,-200.178 331.652,-207.167"/>
</g>
<!-- Node4 -->
<g id="node7" class="node"><title>Node4</title>
<a xlink:href="class_landusemap.html#a15032fdc9b8480990b2d102d91c50122" target="_top" xlink:title="Landusemap::loadConfig">
<polygon fill="white" stroke="black" points="170.5,-159.5 170.5,-180.5 295.5,-180.5 295.5,-159.5 170.5,-159.5"/>
<text text-anchor="middle" x="233" y="-167.5" font-family="Helvetica,sans-Serif" font-size="10.00">Landusemap::loadConfig</text>
</a>
</g>
<!-- Node1&#45;&gt;Node4 -->
<g id="edge6" class="edge"><title>Node1&#45;&gt;Node4</title>
<path fill="none" stroke="midnightblue" d="M134.04,-181.327C142.642,-180.342 151.481,-179.33 160.17,-178.336"/>
<polygon fill="midnightblue" stroke="midnightblue" points="160.74,-181.794 170.277,-177.179 159.944,-174.839 160.74,-181.794"/>
</g>
<!-- Node3 -->
<g id="node5" class="node"><title>Node3</title>
<a xlink:href="class_terrain_geometry_manager.html#afead68b5ff7a0b77395065ab8ea855e3" target="_top" xlink:title="TerrainGeometryManager::getMaxTerrainSize">
<polygon fill="white" stroke="black" points="560.5,-200.5 560.5,-221.5 775.5,-221.5 775.5,-200.5 560.5,-200.5"/>
<text text-anchor="middle" x="668" y="-208.5" font-family="Helvetica,sans-Serif" font-size="10.00">TerrainGeometryManager::getMaxTerrainSize</text>
</a>
</g>
<!-- Node2&#45;&gt;Node3 -->
<g id="edge4" class="edge"><title>Node2&#45;&gt;Node3</title>
<path fill="none" stroke="midnightblue" d="M514.306,-209.719C525.96,-209.816 538.075,-209.917 550.161,-210.018"/>
<polygon fill="midnightblue" stroke="midnightblue" points="550.267,-213.519 560.296,-210.102 550.325,-206.519 550.267,-213.519"/>
</g>
<!-- Node4&#45;&gt;Node2 -->
<g id="edge8" class="edge"><title>Node4&#45;&gt;Node2</title>
<path fill="none" stroke="midnightblue" d="M285.513,-180.503C310.111,-185.422 339.601,-191.32 365.355,-196.471"/>
<polygon fill="midnightblue" stroke="midnightblue" points="364.901,-199.949 375.393,-198.479 366.274,-193.085 364.901,-199.949"/>
</g>
<!-- Node5 -->
<g id="node10" class="node"><title>Node5</title>
<a xlink:href="struct_error_utils.html#aec73b03c7829838888bbecf9acda1b98" target="_top" xlink:title="ErrorUtils::ShowError">
<polygon fill="white" stroke="black" points="613,-160.5 613,-181.5 723,-181.5 723,-160.5 613,-160.5"/>
<text text-anchor="middle" x="668" y="-168.5" font-family="Helvetica,sans-Serif" font-size="10.00">ErrorUtils::ShowError</text>
</a>
</g>
<!-- Node4&#45;&gt;Node5 -->
<g id="edge10" class="edge"><title>Node4&#45;&gt;Node5</title>
<path fill="none" stroke="midnightblue" d="M295.788,-170.144C377.55,-170.332 519.79,-170.659 602.747,-170.85"/>
<polygon fill="midnightblue" stroke="midnightblue" points="602.801,-174.35 612.809,-170.873 602.817,-167.35 602.801,-174.35"/>
</g>
<!-- Node7 -->
<g id="node14" class="node"><title>Node7</title>
<a xlink:href="class_collisions.html#a3f2acd0249632458dd92a551210f83a1" target="_top" xlink:title="Collisions::loadGroundModelsConfigFile">
<polygon fill="white" stroke="black" points="332.5,-120.5 332.5,-141.5 523.5,-141.5 523.5,-120.5 332.5,-120.5"/>
<text text-anchor="middle" x="428" y="-128.5" font-family="Helvetica,sans-Serif" font-size="10.00">Collisions::loadGroundModelsConfigFile</text>
</a>
</g>
<!-- Node4&#45;&gt;Node7 -->
<g id="edge14" class="edge"><title>Node4&#45;&gt;Node7</title>
<path fill="none" stroke="midnightblue" d="M285.513,-159.497C310.111,-154.578 339.601,-148.68 365.355,-143.529"/>
<polygon fill="midnightblue" stroke="midnightblue" points="366.274,-146.915 375.393,-141.521 364.901,-140.051 366.274,-146.915"/>
</g>
<!-- Node15 -->
<g id="node32" class="node"><title>Node15</title>
<a xlink:href="class_collisions.html#a7840c7d5b2b56b4cc8f41778c0edb7a7" target="_top" xlink:title="Collisions::getGroundModelByString">
<polygon fill="white" stroke="black" points="341,-80.5 341,-101.5 515,-101.5 515,-80.5 341,-80.5"/>
<text text-anchor="middle" x="428" y="-88.5" font-family="Helvetica,sans-Serif" font-size="10.00">Collisions::getGroundModelByString</text>
</a>
</g>
<!-- Node4&#45;&gt;Node15 -->
<g id="edge34" class="edge"><title>Node4&#45;&gt;Node15</title>
<path fill="none" stroke="midnightblue" d="M247.3,-159.377C265.874,-146.09 299.746,-123.563 332,-111 338.707,-108.388 345.818,-106.092 353.015,-104.081"/>
<polygon fill="midnightblue" stroke="midnightblue" points="354.063,-107.425 362.854,-101.511 352.294,-100.652 354.063,-107.425"/>
</g>
<!-- Node6 -->
<g id="node12" class="node"><title>Node6</title>
<a xlink:href="struct_error_utils.html#a3250a36825c8b55b26d1565addb7e922" target="_top" xlink:title="ErrorUtils::ShowMsgBox">
<polygon fill="white" stroke="black" points="814.5,-160.5 814.5,-181.5 939.5,-181.5 939.5,-160.5 814.5,-160.5"/>
<text text-anchor="middle" x="877" y="-168.5" font-family="Helvetica,sans-Serif" font-size="10.00">ErrorUtils::ShowMsgBox</text>
</a>
</g>
<!-- Node5&#45;&gt;Node6 -->
<g id="edge12" class="edge"><title>Node5&#45;&gt;Node6</title>
<path fill="none" stroke="midnightblue" d="M723.186,-171C748.065,-171 777.783,-171 804.435,-171"/>
<polygon fill="midnightblue" stroke="midnightblue" points="804.483,-174.5 814.483,-171 804.483,-167.5 804.483,-174.5"/>
</g>
<!-- Node7&#45;&gt;Node5 -->
<g id="edge16" class="edge"><title>Node7&#45;&gt;Node5</title>
<path fill="none" stroke="midnightblue" d="M491.057,-141.51C525.439,-147.24 567.94,-154.323 602.671,-160.112"/>
<polygon fill="midnightblue" stroke="midnightblue" points="602.274,-163.594 612.713,-161.786 603.425,-156.689 602.274,-163.594"/>
</g>
<!-- Node8 -->
<g id="node17" class="node"><title>Node8</title>
<a xlink:href="class_collisions.html#aaa893c509f9b9b77459d50e3bef2c6ff" target="_top" xlink:title="Collisions::parseGroundConfig">
<polygon fill="white" stroke="black" points="593.5,-120.5 593.5,-141.5 742.5,-141.5 742.5,-120.5 593.5,-120.5"/>
<text text-anchor="middle" x="668" y="-128.5" font-family="Helvetica,sans-Serif" font-size="10.00">Collisions::parseGroundConfig</text>
</a>
</g>
<!-- Node7&#45;&gt;Node8 -->
<g id="edge18" class="edge"><title>Node7&#45;&gt;Node8</title>
<path fill="none" stroke="midnightblue" d="M523.544,-131C543.358,-131 564.101,-131 583.487,-131"/>
<polygon fill="midnightblue" stroke="midnightblue" points="583.488,-134.5 593.488,-131 583.488,-127.5 583.488,-134.5"/>
</g>
<!-- Node11 -->
<g id="node23" class="node"><title>Node11</title>
<a xlink:href="struct_error_utils.html#a5877046712b57723ec40772afd980378" target="_top" xlink:title="ErrorUtils::ShowOgreWebError">
<polygon fill="white" stroke="black" points="592.5,-80.5 592.5,-101.5 743.5,-101.5 743.5,-80.5 592.5,-80.5"/>
<text text-anchor="middle" x="668" y="-88.5" font-family="Helvetica,sans-Serif" font-size="10.00">ErrorUtils::ShowOgreWebError</text>
</a>
</g>
<!-- Node7&#45;&gt;Node11 -->
<g id="edge24" class="edge"><title>Node7&#45;&gt;Node11</title>
<path fill="none" stroke="midnightblue" d="M491.057,-120.49C522.9,-115.183 561.708,-108.715 594.856,-103.191"/>
<polygon fill="midnightblue" stroke="midnightblue" points="595.659,-106.605 604.948,-101.509 594.508,-99.7004 595.659,-106.605"/>
</g>
<!-- Node13 -->
<g id="node27" class="node"><title>Node13</title>
<a xlink:href="struct_error_utils.html#a456df0e866bb9548a583476db551ca09" target="_top" xlink:title="ErrorUtils::ShowStoredOgreWebErrors">
<polygon fill="white" stroke="black" points="575.5,-40.5 575.5,-61.5 760.5,-61.5 760.5,-40.5 575.5,-40.5"/>
<text text-anchor="middle" x="668" y="-48.5" font-family="Helvetica,sans-Serif" font-size="10.00">ErrorUtils::ShowStoredOgreWebErrors</text>
</a>
</g>
<!-- Node7&#45;&gt;Node13 -->
<g id="edge28" class="edge"><title>Node7&#45;&gt;Node13</title>
<path fill="none" stroke="midnightblue" d="M502.608,-120.417C510.085,-117.911 517.358,-114.818 524,-111 544.736,-99.0808 539.132,-82.6874 560,-71 563.944,-68.7913 568.083,-66.8202 572.347,-65.0616"/>
<polygon fill="midnightblue" stroke="midnightblue" points="573.694,-68.2953 581.857,-61.5413 571.264,-61.7306 573.694,-68.2953"/>
</g>
<!-- Node14 -->
<g id="node30" class="node"><title>Node14</title>
<a xlink:href="namespace_profiler.html#af79bb59414ef3ba134213bb6f2f2d292" target="_top" xlink:title="Profiler::exit">
<polygon fill="white" stroke="black" points="633.5,-0.5 633.5,-21.5 702.5,-21.5 702.5,-0.5 633.5,-0.5"/>
<text text-anchor="middle" x="668" y="-8.5" font-family="Helvetica,sans-Serif" font-size="10.00">Profiler::exit</text>
</a>
</g>
<!-- Node7&#45;&gt;Node14 -->
<g id="edge32" class="edge"><title>Node7&#45;&gt;Node14</title>
<path fill="none" stroke="midnightblue" d="M508.721,-120.362C514.185,-117.816 519.354,-114.731 524,-111 554.399,-86.5847 529.331,-55.0751 560,-31 577.724,-17.0868 602.096,-11.7566 623.202,-10.0502"/>
<polygon fill="midnightblue" stroke="midnightblue" points="623.471,-13.5406 633.258,-9.48184 623.076,-6.55179 623.471,-13.5406"/>
</g>
<!-- Node9 -->
<g id="node19" class="node"><title>Node9</title>
<a xlink:href="scriptstdstring_8cpp.html#ab33d705eee9afd65e8991f82d9c71fe3" target="_top" xlink:title="parseInt">
<polygon fill="white" stroke="black" points="851,-120.5 851,-141.5 903,-141.5 903,-120.5 851,-120.5"/>
<text text-anchor="middle" x="877" y="-128.5" font-family="Helvetica,sans-Serif" font-size="10.00">parseInt</text>
</a>
</g>
<!-- Node8&#45;&gt;Node9 -->
<g id="edge20" class="edge"><title>Node8&#45;&gt;Node9</title>
<path fill="none" stroke="midnightblue" d="M742.569,-131C775.893,-131 813.653,-131 840.65,-131"/>
<polygon fill="midnightblue" stroke="midnightblue" points="840.797,-134.5 850.797,-131 840.797,-127.5 840.797,-134.5"/>
</g>
<!-- Node10 -->
<g id="node21" class="node"><title>Node10</title>
<a xlink:href="_approx_math_8h.html#ad685178dbcfdd207c7306561512e1582" target="_top" xlink:title="sign">
<polygon fill="white" stroke="black" points="978.5,-120.5 978.5,-141.5 1013.5,-141.5 1013.5,-120.5 978.5,-120.5"/>
<text text-anchor="middle" x="996" y="-128.5" font-family="Helvetica,sans-Serif" font-size="10.00">sign</text>
</a>
</g>
<!-- Node9&#45;&gt;Node10 -->
<g id="edge22" class="edge"><title>Node9&#45;&gt;Node10</title>
<path fill="none" stroke="midnightblue" d="M903.115,-131C922.396,-131 948.592,-131 968.249,-131"/>
<polygon fill="midnightblue" stroke="midnightblue" points="968.412,-134.5 978.412,-131 968.412,-127.5 968.412,-134.5"/>
</g>
<!-- Node12 -->
<g id="node25" class="node"><title>Node12</title>
<a xlink:href="struct_error_utils.html#a03b1f233c5e57c4a7418b1d1ca072343" target="_top" xlink:title="ErrorUtils::ShowWebError">
<polygon fill="white" stroke="black" points="812,-60.5 812,-81.5 942,-81.5 942,-60.5 812,-60.5"/>
<text text-anchor="middle" x="877" y="-68.5" font-family="Helvetica,sans-Serif" font-size="10.00">ErrorUtils::ShowWebError</text>
</a>
</g>
<!-- Node11&#45;&gt;Node12 -->
<g id="edge26" class="edge"><title>Node11&#45;&gt;Node12</title>
<path fill="none" stroke="midnightblue" d="M743.749,-83.7513C762.663,-81.9414 782.939,-80.0011 801.825,-78.1938"/>
<polygon fill="midnightblue" stroke="midnightblue" points="802.235,-81.6706 811.856,-77.2338 801.569,-74.7024 802.235,-81.6706"/>
</g>
<!-- Node13&#45;&gt;Node12 -->
<g id="edge30" class="edge"><title>Node13&#45;&gt;Node12</title>
<path fill="none" stroke="midnightblue" d="M760.583,-59.8596C774.33,-61.1752 788.357,-62.5174 801.693,-63.7936"/>
<polygon fill="midnightblue" stroke="midnightblue" points="801.453,-67.2865 811.741,-64.7551 802.12,-60.3183 801.453,-67.2865"/>
</g>
</g>
</svg>
        <g id="navigator" transform="translate(0 0)" fill="#404254">
                <rect fill="#f2f5e9" fill-opacity="0.5" stroke="#606060" stroke-width=".5" x="0" y="0" width="60" height="60"/>
                <use id="zoomplus" xlink:href="#zoomPlus" x="17" y="9" onmousedown="handleZoom(evt,'in')"/>
                <use id="zoomminus" xlink:href="#zoomMin" x="42" y="9" onmousedown="handleZoom(evt,'out')"/>
                <use id="reset" xlink:href="#resetDef" x="30" y="36" onmousedown="handleReset()"/>
                <g id="arrowUp" xlink:href="#dirArrow" transform="translate(30 24)" onmousedown="handlePan(0,-1)">
                  <use xlink:href="#rim" fill="#404040">
                        <set attributeName="fill" to="#808080" begin="arrowUp.mouseover" end="arrowUp.mouseout"/>
                  </use>
                  <path fill="none" stroke="white" stroke-width="1.5" d="M0,-3.0v7 M-2.5,-0.5L0,-3.0L2.5,-0.5"/>
                </g>
                <g id="arrowRight" xlink:href="#dirArrow" transform="rotate(90) translate(36 -43)" onmousedown="handlePan(1,0)">
                  <use xlink:href="#rim" fill="#404040">
                        <set attributeName="fill" to="#808080" begin="arrowRight.mouseover" end="arrowRight.mouseout"/>
                  </use>
                  <path fill="none" stroke="white" stroke-width="1.5" d="M0,-3.0v7 M-2.5,-0.5L0,-3.0L2.5,-0.5"/>
                </g>
                <g id="arrowDown" xlink:href="#dirArrow" transform="rotate(180) translate(-30 -48)" onmousedown="handlePan(0,1)">
                  <use xlink:href="#rim" fill="#404040">
                        <set attributeName="fill" to="#808080" begin="arrowDown.mouseover" end="arrowDown.mouseout"/>
                  </use>
                  <path fill="none" stroke="white" stroke-width="1.5" d="M0,-3.0v7 M-2.5,-0.5L0,-3.0L2.5,-0.5"/>
                </g>
                <g id="arrowLeft" xlink:href="#dirArrow" transform="rotate(270) translate(-36 17)" onmousedown="handlePan(-1,0)">
                  <use xlink:href="#rim" fill="#404040">
                        <set attributeName="fill" to="#808080" begin="arrowLeft.mouseover" end="arrowLeft.mouseout"/>
                  </use>
                  <path fill="none" stroke="white" stroke-width="1.5" d="M0,-3.0v7 M-2.5,-0.5L0,-3.0L2.5,-0.5"/>
                </g>
        </g>
</svg>
