<?xml version="1.0" encoding="UTF-8" standalone="no"?>
<!DOCTYPE svg PUBLIC "-//W3C//DTD SVG 1.1//EN"
 "http://www.w3.org/Graphics/SVG/1.1/DTD/svg11.dtd">
<!-- Generated by graphviz version 2.26.3 (20100126.1600)
 -->
<!-- Title: G Pages: 1 -->
<svg width="414pt" height="70pt"
 viewBox="0.00 0.00 414.00 70.00" xmlns="http://www.w3.org/2000/svg" xmlns:xlink="http://www.w3.org/1999/xlink">
<g id="graph1" class="graph" transform="scale(1 1) rotate(0) translate(4 66)">
<title>G</title>
<polygon fill="white" stroke="white" points="-4,5 -4,-66 411,-66 411,5 -4,5"/>
<!-- Node1 -->
<g id="node1" class="node"><title>Node1</title>
<polygon fill="#bfbfbf" stroke="black" points="0.5,-20.5 0.5,-41.5 157.5,-41.5 157.5,-20.5 0.5,-20.5"/>
<text text-anchor="middle" x="79" y="-28.5" font-family="Helvetica,sans-Serif" font-size="10.00">FlexObj::updateShadowVertices</text>
</g>
<!-- Node2 -->
<g id="node3" class="node"><title>Node2</title>
<a xlink:href="struct_vector3.html#a30db3d517cb422cb78a4be0cf52bc89e" target="_top" xlink:title="Vector3::length">
<polygon fill="white" stroke="black" points="199.5,-40.5 199.5,-61.5 282.5,-61.5 282.5,-40.5 199.5,-40.5"/>
<text text-anchor="middle" x="241" y="-48.5" font-family="Helvetica,sans-Serif" font-size="10.00">Vector3::length</text>
</a>
</g>
<!-- Node1&#45;&gt;Node2 -->
<g id="edge2" class="edge"><title>Node1&#45;&gt;Node2</title>
<path fill="none" stroke="midnightblue" d="M157.627,-40.7071C168.277,-42.0219 178.982,-43.3435 189.004,-44.5808"/>
<polygon fill="midnightblue" stroke="midnightblue" points="188.817,-48.0842 199.171,-45.8359 189.675,-41.1369 188.817,-48.0842"/>
</g>
<!-- Node3 -->
<g id="node5" class="node"><title>Node3</title>
<a xlink:href="_approx_math_8h.html#a85a61f2f48208c4db16655f56148c4cf" target="_top" xlink:title="approx_normalise">
<polygon fill="white" stroke="black" points="194.5,-0.5 194.5,-21.5 287.5,-21.5 287.5,-0.5 194.5,-0.5"/>
<text text-anchor="middle" x="241" y="-8.5" font-family="Helvetica,sans-Serif" font-size="10.00">approx_normalise</text>
</a>
</g>
<!-- Node1&#45;&gt;Node3 -->
<g id="edge4" class="edge"><title>Node1&#45;&gt;Node3</title>
<path fill="none" stroke="midnightblue" d="M157.627,-21.2929C166.666,-20.177 175.745,-19.0562 184.412,-17.9862"/>
<polygon fill="midnightblue" stroke="midnightblue" points="184.875,-21.4557 194.37,-16.7567 184.017,-14.5085 184.875,-21.4557"/>
</g>
<!-- Node4 -->
<g id="node7" class="node"><title>Node4</title>
<a xlink:href="_approx_math_8h.html#a6730b6b80821cbae269c5a39a6fec2c3" target="_top" xlink:title="approx_invSqrt">
<polygon fill="white" stroke="black" points="324,-0.5 324,-21.5 406,-21.5 406,-0.5 324,-0.5"/>
<text text-anchor="middle" x="365" y="-8.5" font-family="Helvetica,sans-Serif" font-size="10.00">approx_invSqrt</text>
</a>
</g>
<!-- Node3&#45;&gt;Node4 -->
<g id="edge6" class="edge"><title>Node3&#45;&gt;Node4</title>
<path fill="none" stroke="midnightblue" d="M287.526,-11C296.12,-11 305.139,-11 313.861,-11"/>
<polygon fill="midnightblue" stroke="midnightblue" points="313.921,-14.5001 323.921,-11 313.921,-7.5001 313.921,-14.5001"/>
</g>
</g>
</svg>
