<?xml version="1.0" encoding="UTF-8" standalone="no"?>
<!DOCTYPE svg PUBLIC "-//W3C//DTD SVG 1.1//EN"
 "http://www.w3.org/Graphics/SVG/1.1/DTD/svg11.dtd">
<!-- Generated by graphviz version 2.26.3 (20100126.1600)
 -->
<!-- Title: G Pages: 1 -->
<!--zoomable 130 -->
<svg id="main" version="1.1" xmlns="http://www.w3.org/2000/svg" xmlns:xlink="http://www.w3.org/1999/xlink" xml:space="preserve" onload="init(evt)">
        <defs>
                <circle id="rim" cx="0" cy="0" r="7"/>
                <circle id="rim2" cx="0" cy="0" r="3.5"/>
                <g id="zoomPlus">
                        <use xlink:href="#rim" fill="#404040">
                                <set attributeName="fill" to="#808080" begin="zoomplus.mouseover" end="zoomplus.mouseout"/>
                        </use>
                        <path d="M-4,0h8M0,-4v8" fill="none" stroke="white" stroke-width="1.5" pointer-events="none"/>
                </g>
                <g id="zoomMin">
                        <use xlink:href="#rim" fill="#404040">
                                <set attributeName="fill" to="#808080" begin="zoomminus.mouseover" end="zoomminus.mouseout"/>
                        </use>
                        <path d="M-4,0h8" fill="none" stroke="white" stroke-width="1.5" pointer-events="none"/>
                </g>
                <g id="dirArrow">
                        <path fill="none" stroke="white" stroke-width="1.5" d="M0,-3.0v7 M-2.5,-0.5L0,-3.0L2.5,-0.5"/>
                </g>
               <g id="resetDef">
                       <use xlink:href="#rim2" fill="#404040">
                               <set attributeName="fill" to="#808080" begin="reset.mouseover" end="reset.mouseout"/>
                       </use>
               </g>
        </defs>

<script type="text/javascript">
var viewWidth = 1546;
var viewHeight = 130;
var sectionId = 'dynsection-192';
</script>
<script xlink:href="svgpan.js"/>
<svg id="graph" class="graph">
<g id="viewport">
<title>G</title>
<polygon fill="white" stroke="white" points="-4,5 -4,-126 1543,-126 1543,5 -4,5"/>
<!-- Node1 -->
<g id="node1" class="node"><title>Node1</title>
<polygon fill="#bfbfbf" stroke="black" points="0,-60.5 0,-81.5 180,-81.5 180,-60.5 0,-60.5"/>
<text text-anchor="middle" x="90" y="-68.5" font-family="Helvetica,sans-Serif" font-size="10.00">RigDef::Parser::ParseShock2Options</text>
</g>
<!-- Node2 -->
<g id="node3" class="node"><title>Node2</title>
<a xlink:href="class_rig_def_1_1_parser.html#aa58eef572576bcaf2806676ba35925bc" target="_top" xlink:title="RigDef::Parser::ParseShock2">
<polygon fill="white" stroke="black" points="430,-60.5 430,-81.5 576,-81.5 576,-60.5 430,-60.5"/>
<text text-anchor="middle" x="503" y="-68.5" font-family="Helvetica,sans-Serif" font-size="10.00">RigDef::Parser::ParseShock2</text>
</a>
</g>
<!-- Node1&#45;&gt;Node2 -->
<g id="edge2" class="edge"><title>Node1&#45;&gt;Node2</title>
<path fill="none" stroke="midnightblue" d="M190.347,-71.8683C199.024,-71.9216 207.667,-71.9669 216,-72 295.11,-72.3139 314.89,-72.3629 394,-72 405.544,-71.947 417.775,-71.8626 429.711,-71.7646"/>
<polygon fill="midnightblue" stroke="midnightblue" points="190.186,-68.3673 180.163,-71.8024 190.141,-75.3671 190.186,-68.3673"/>
</g>
<!-- Node11 -->
<g id="node21" class="node"><title>Node11</title>
<a xlink:href="class_rig_def_1_1_parser.html#afad14974e9052f1828b3c2eb187eecab" target="_top" xlink:title="RigDef::Parser::ParseShock2Unsafe">
<polygon fill="white" stroke="black" points="216,-41.5 216,-62.5 394,-62.5 394,-41.5 216,-41.5"/>
<text text-anchor="middle" x="305" y="-49.5" font-family="Helvetica,sans-Serif" font-size="10.00">RigDef::Parser::ParseShock2Unsafe</text>
</a>
</g>
<!-- Node1&#45;&gt;Node11 -->
<g id="edge20" class="edge"><title>Node1&#45;&gt;Node11</title>
<path fill="none" stroke="midnightblue" d="M190.466,-62.1216C198.88,-61.378 207.353,-60.6293 215.675,-59.8938"/>
<polygon fill="midnightblue" stroke="midnightblue" points="189.898,-58.6581 180.245,-63.0249 190.514,-65.6309 189.898,-58.6581"/>
</g>
<!-- Node3 -->
<g id="node5" class="node"><title>Node3</title>
<a xlink:href="class_rig_def_1_1_parser.html#a572673469cf88cdebbd30e04df5629ff" target="_top" xlink:title="RigDef::Parser::ParseLine">
<polygon fill="white" stroke="black" points="612.5,-60.5 612.5,-81.5 743.5,-81.5 743.5,-60.5 612.5,-60.5"/>
<text text-anchor="middle" x="678" y="-68.5" font-family="Helvetica,sans-Serif" font-size="10.00">RigDef::Parser::ParseLine</text>
</a>
</g>
<!-- Node2&#45;&gt;Node3 -->
<g id="edge4" class="edge"><title>Node2&#45;&gt;Node3</title>
<path fill="none" stroke="midnightblue" d="M586.384,-71C595.096,-71 603.863,-71 612.339,-71"/>
<polygon fill="midnightblue" stroke="midnightblue" points="586.202,-67.5001 576.202,-71 586.202,-74.5001 586.202,-67.5001"/>
</g>
<!-- Node4 -->
<g id="node7" class="node"><title>Node4</title>
<a xlink:href="class_beam.html#a866f7eb5e93d6c476fa1bd0a4b7dcdf5" target="_top" xlink:title="Beam::LoadTruck">
<polygon fill="white" stroke="black" points="825,-100.5 825,-121.5 919,-121.5 919,-100.5 825,-100.5"/>
<text text-anchor="middle" x="872" y="-108.5" font-family="Helvetica,sans-Serif" font-size="10.00">Beam::LoadTruck</text>
</a>
</g>
<!-- Node3&#45;&gt;Node4 -->
<g id="edge6" class="edge"><title>Node3&#45;&gt;Node4</title>
<path fill="none" stroke="midnightblue" d="M738.943,-83.5657C766.627,-89.2737 798.88,-95.9237 824.697,-101.247"/>
<polygon fill="midnightblue" stroke="midnightblue" points="739.472,-80.1011 728.971,-81.5095 738.058,-86.9569 739.472,-80.1011"/>
</g>
<!-- Node6 -->
<g id="node11" class="node"><title>Node6</title>
<a xlink:href="class_cache_system.html#ad640fd28c3075eb6310d8d8f3475cefb" target="_top" xlink:title="CacheSystem::fillTruckDetailInfo">
<polygon fill="white" stroke="black" points="791.5,-60.5 791.5,-81.5 952.5,-81.5 952.5,-60.5 791.5,-60.5"/>
<text text-anchor="middle" x="872" y="-68.5" font-family="Helvetica,sans-Serif" font-size="10.00">CacheSystem::fillTruckDetailInfo</text>
</a>
</g>
<!-- Node3&#45;&gt;Node6 -->
<g id="edge10" class="edge"><title>Node3&#45;&gt;Node6</title>
<path fill="none" stroke="midnightblue" d="M753.855,-71C766.123,-71 778.866,-71 791.245,-71"/>
<polygon fill="midnightblue" stroke="midnightblue" points="753.68,-67.5001 743.68,-71 753.68,-74.5001 753.68,-67.5001"/>
</g>
<!-- Node7 -->
<g id="node13" class="node"><title>Node7</title>
<a xlink:href="class_ro_r_1_1_rig_editor_1_1_main.html#a0ae39993d636eacc5dfe567c5f5ac4b9" target="_top" xlink:title="RoR::RigEditor::Main::LoadRigDefFile">
<polygon fill="white" stroke="black" points="780,-20.5 780,-41.5 964,-41.5 964,-20.5 780,-20.5"/>
<text text-anchor="middle" x="872" y="-28.5" font-family="Helvetica,sans-Serif" font-size="10.00">RoR::RigEditor::Main::LoadRigDefFile</text>
</a>
</g>
<!-- Node3&#45;&gt;Node7 -->
<g id="edge12" class="edge"><title>Node3&#45;&gt;Node7</title>
<path fill="none" stroke="midnightblue" d="M738.868,-58.45C765.274,-53.0054 795.848,-46.7014 821.033,-41.5087"/>
<polygon fill="midnightblue" stroke="midnightblue" points="738.058,-55.0431 728.971,-60.4905 739.472,-61.8989 738.058,-55.0431"/>
</g>
<!-- Node5 -->
<g id="node9" class="node"><title>Node5</title>
<a xlink:href="class_beam.html#ac3b331240d6084f4a5116f6c862b65ad" target="_top" xlink:title="Beam::Beam">
<polygon fill="white" stroke="black" points="1074,-100.5 1074,-121.5 1148,-121.5 1148,-100.5 1074,-100.5"/>
<text text-anchor="middle" x="1111" y="-108.5" font-family="Helvetica,sans-Serif" font-size="10.00">Beam::Beam</text>
</a>
</g>
<!-- Node4&#45;&gt;Node5 -->
<g id="edge8" class="edge"><title>Node4&#45;&gt;Node5</title>
<path fill="none" stroke="midnightblue" d="M929.369,-111C974.14,-111 1035.03,-111 1073.68,-111"/>
<polygon fill="midnightblue" stroke="midnightblue" points="929.219,-107.5 919.219,-111 929.219,-114.5 929.219,-107.5"/>
</g>
<!-- Node8 -->
<g id="node15" class="node"><title>Node8</title>
<a xlink:href="class_ro_r_1_1_rig_editor_1_1_main.html#a35a10d6c23920802442d32fab1a8d470" target="_top" xlink:title="RoR::RigEditor::Main::NotifyFileSelectorEnded">
<polygon fill="white" stroke="black" points="1000,-20.5 1000,-41.5 1222,-41.5 1222,-20.5 1000,-20.5"/>
<text text-anchor="middle" x="1111" y="-28.5" font-family="Helvetica,sans-Serif" font-size="10.00">RoR::RigEditor::Main::NotifyFileSelectorEnded</text>
</a>
</g>
<!-- Node7&#45;&gt;Node8 -->
<g id="edge14" class="edge"><title>Node7&#45;&gt;Node8</title>
<path fill="none" stroke="midnightblue" d="M974.292,-31C982.736,-31 991.298,-31 999.803,-31"/>
<polygon fill="midnightblue" stroke="midnightblue" points="974.062,-27.5001 964.062,-31 974.062,-34.5001 974.062,-27.5001"/>
</g>
<!-- Node9 -->
<g id="node17" class="node"><title>Node9</title>
<a xlink:href="class_ro_r_1_1_rig_editor_1_1_main.html#a4f73e9dc5632524ca803864460b82bb5" target="_top" xlink:title="RoR::RigEditor::Main::CommandShowDialogOpenRigFile">
<polygon fill="white" stroke="black" points="1264,-40.5 1264,-61.5 1532,-61.5 1532,-40.5 1264,-40.5"/>
<text text-anchor="middle" x="1398" y="-48.5" font-family="Helvetica,sans-Serif" font-size="10.00">RoR::RigEditor::Main::CommandShowDialogOpenRigFile</text>
</a>
</g>
<!-- Node8&#45;&gt;Node9 -->
<g id="edge16" class="edge"><title>Node8&#45;&gt;Node9</title>
<path fill="none" stroke="midnightblue" d="M1232.6,-39.4741C1242.89,-40.1911 1253.34,-40.9189 1263.72,-41.6422"/>
<polygon fill="midnightblue" stroke="midnightblue" points="1232.59,-35.9649 1222.37,-38.7611 1232.1,-42.9479 1232.59,-35.9649"/>
</g>
<!-- Node10 -->
<g id="node19" class="node"><title>Node10</title>
<a xlink:href="class_ro_r_1_1_rig_editor_1_1_main.html#acb4af1361d9233f5ee2fa658536a7658" target="_top" xlink:title="RoR::RigEditor::Main::CommandShowDialogSaveRigFileAs">
<polygon fill="white" stroke="black" points="1258.5,-0.5 1258.5,-21.5 1537.5,-21.5 1537.5,-0.5 1258.5,-0.5"/>
<text text-anchor="middle" x="1398" y="-8.5" font-family="Helvetica,sans-Serif" font-size="10.00">RoR::RigEditor::Main::CommandShowDialogSaveRigFileAs</text>
</a>
</g>
<!-- Node8&#45;&gt;Node10 -->
<g id="edge18" class="edge"><title>Node8&#45;&gt;Node10</title>
<path fill="none" stroke="midnightblue" d="M1232.41,-22.5395C1241.01,-21.9403 1249.71,-21.3336 1258.4,-20.7282"/>
<polygon fill="midnightblue" stroke="midnightblue" points="1232.1,-19.052 1222.37,-23.2389 1232.59,-26.0351 1232.1,-19.052"/>
</g>
<!-- Node11&#45;&gt;Node2 -->
<g id="edge22" class="edge"><title>Node11&#45;&gt;Node2</title>
<path fill="none" stroke="midnightblue" d="M404.23,-61.522C412.825,-62.3469 421.419,-63.1715 429.751,-63.9711"/>
<polygon fill="midnightblue" stroke="midnightblue" points="404.442,-58.0264 394.153,-60.5551 403.773,-64.9944 404.442,-58.0264"/>
</g>
</g>
</svg>
        <g id="navigator" transform="translate(0 0)" fill="#404254">
                <rect fill="#f2f5e9" fill-opacity="0.5" stroke="#606060" stroke-width=".5" x="0" y="0" width="60" height="60"/>
                <use id="zoomplus" xlink:href="#zoomPlus" x="17" y="9" onmousedown="handleZoom(evt,'in')"/>
                <use id="zoomminus" xlink:href="#zoomMin" x="42" y="9" onmousedown="handleZoom(evt,'out')"/>
                <use id="reset" xlink:href="#resetDef" x="30" y="36" onmousedown="handleReset()"/>
                <g id="arrowUp" xlink:href="#dirArrow" transform="translate(30 24)" onmousedown="handlePan(0,-1)">
                  <use xlink:href="#rim" fill="#404040">
                        <set attributeName="fill" to="#808080" begin="arrowUp.mouseover" end="arrowUp.mouseout"/>
                  </use>
                  <path fill="none" stroke="white" stroke-width="1.5" d="M0,-3.0v7 M-2.5,-0.5L0,-3.0L2.5,-0.5"/>
                </g>
                <g id="arrowRight" xlink:href="#dirArrow" transform="rotate(90) translate(36 -43)" onmousedown="handlePan(1,0)">
                  <use xlink:href="#rim" fill="#404040">
                        <set attributeName="fill" to="#808080" begin="arrowRight.mouseover" end="arrowRight.mouseout"/>
                  </use>
                  <path fill="none" stroke="white" stroke-width="1.5" d="M0,-3.0v7 M-2.5,-0.5L0,-3.0L2.5,-0.5"/>
                </g>
                <g id="arrowDown" xlink:href="#dirArrow" transform="rotate(180) translate(-30 -48)" onmousedown="handlePan(0,1)">
                  <use xlink:href="#rim" fill="#404040">
                        <set attributeName="fill" to="#808080" begin="arrowDown.mouseover" end="arrowDown.mouseout"/>
                  </use>
                  <path fill="none" stroke="white" stroke-width="1.5" d="M0,-3.0v7 M-2.5,-0.5L0,-3.0L2.5,-0.5"/>
                </g>
                <g id="arrowLeft" xlink:href="#dirArrow" transform="rotate(270) translate(-36 17)" onmousedown="handlePan(-1,0)">
                  <use xlink:href="#rim" fill="#404040">
                        <set attributeName="fill" to="#808080" begin="arrowLeft.mouseover" end="arrowLeft.mouseout"/>
                  </use>
                  <path fill="none" stroke="white" stroke-width="1.5" d="M0,-3.0v7 M-2.5,-0.5L0,-3.0L2.5,-0.5"/>
                </g>
        </g>
</svg>
