<?xml version="1.0" encoding="UTF-8" standalone="no"?>
<!DOCTYPE svg PUBLIC "-//W3C//DTD SVG 1.1//EN"
 "http://www.w3.org/Graphics/SVG/1.1/DTD/svg11.dtd">
<!-- Generated by graphviz version 2.26.3 (20100126.1600)
 -->
<!-- Title: Hydrax::Noise::Real::update Pages: 1 -->
<svg width="686pt" height="146pt"
 viewBox="0.00 0.00 686.00 146.00" xmlns="http://www.w3.org/2000/svg" xmlns:xlink="http://www.w3.org/1999/xlink">
<g id="graph1" class="graph" transform="scale(1 1) rotate(0) translate(4 142)">
<title>Hydrax::Noise::Real::update</title>
<polygon fill="white" stroke="white" points="-4,5 -4,-142 683,-142 683,5 -4,5"/>
<!-- Node1 -->
<g id="node1" class="node"><title>Node1</title>
<polygon fill="#bfbfbf" stroke="black" points="0,-52 0,-86 106,-86 106,-52 0,-52"/>
<text text-anchor="start" x="8" y="-73" font-family="Helvetica,sans-Serif" font-size="10.00">Hydrax::Noise::Real</text>
<text text-anchor="middle" x="53" y="-60" font-family="Helvetica,sans-Serif" font-size="10.00">::update</text>
</g>
<!-- Node2 -->
<g id="node3" class="node"><title>Node2</title>
<a xlink:href="class_hydrax_1_1_noise_1_1_perlin.html#a2037c02fa7d577eb72487a1b778b62dd" target="_top" xlink:title="Hydrax::Noise::Perlin\l::update">
<polygon fill="white" stroke="black" points="142,-52 142,-86 252,-86 252,-52 142,-52"/>
<text text-anchor="start" x="150" y="-73" font-family="Helvetica,sans-Serif" font-size="10.00">Hydrax::Noise::Perlin</text>
<text text-anchor="middle" x="197" y="-60" font-family="Helvetica,sans-Serif" font-size="10.00">::update</text>
</a>
</g>
<!-- Node1&#45;&gt;Node2 -->
<g id="edge2" class="edge"><title>Node1&#45;&gt;Node2</title>
<path fill="none" stroke="midnightblue" d="M106.211,-69C114.413,-69 122.965,-69 131.399,-69"/>
<polygon fill="midnightblue" stroke="midnightblue" points="131.596,-72.5001 141.596,-69 131.596,-65.5001 131.596,-72.5001"/>
</g>
<!-- Node3 -->
<g id="node5" class="node"><title>Node3</title>
<a xlink:href="class_hydrax_1_1_noise_1_1_perlin.html#af5fa944d06781f1a900d590822c65860" target="_top" xlink:title="Hydrax::Noise::Perlin\l::_calculeNoise">
<polygon fill="white" stroke="black" points="328,-104 328,-138 438,-138 438,-104 328,-104"/>
<text text-anchor="start" x="336" y="-125" font-family="Helvetica,sans-Serif" font-size="10.00">Hydrax::Noise::Perlin</text>
<text text-anchor="middle" x="383" y="-112" font-family="Helvetica,sans-Serif" font-size="10.00">::_calculeNoise</text>
</a>
</g>
<!-- Node2&#45;&gt;Node3 -->
<g id="edge4" class="edge"><title>Node2&#45;&gt;Node3</title>
<path fill="none" stroke="midnightblue" d="M252.313,-84.9105C264.086,-88.2669 276.449,-91.7692 288,-95 297.695,-97.7117 307.956,-100.551 318.009,-103.316"/>
<polygon fill="midnightblue" stroke="midnightblue" points="317.394,-106.777 327.964,-106.049 319.247,-100.027 317.394,-106.777"/>
</g>
<!-- Node5 -->
<g id="node9" class="node"><title>Node5</title>
<a xlink:href="class_hydrax_1_1_noise_1_1_noise.html#ae2260556005e5a5eaebae94d936b60c0" target="_top" xlink:title="Hydrax::Noise::Noise\l::areGPUNormalMapResourcesCreated">
<polygon fill="white" stroke="black" points="288,-52 288,-86 478,-86 478,-52 288,-52"/>
<text text-anchor="start" x="296" y="-73" font-family="Helvetica,sans-Serif" font-size="10.00">Hydrax::Noise::Noise</text>
<text text-anchor="middle" x="383" y="-60" font-family="Helvetica,sans-Serif" font-size="10.00">::areGPUNormalMapResourcesCreated</text>
</a>
</g>
<!-- Node2&#45;&gt;Node5 -->
<g id="edge8" class="edge"><title>Node2&#45;&gt;Node5</title>
<path fill="none" stroke="midnightblue" d="M252.051,-69C260.301,-69 269.032,-69 277.913,-69"/>
<polygon fill="midnightblue" stroke="midnightblue" points="277.985,-72.5001 287.985,-69 277.985,-65.5001 277.985,-72.5001"/>
</g>
<!-- Node6 -->
<g id="node11" class="node"><title>Node6</title>
<a xlink:href="class_hydrax_1_1_noise_1_1_perlin.html#a225baecfe2444d488568fb373f279322" target="_top" xlink:title="Hydrax::Noise::Perlin\l::_updateGPUNormalMapResources">
<polygon fill="white" stroke="black" points="295,-0 295,-34 471,-34 471,-0 295,-0"/>
<text text-anchor="start" x="303" y="-21" font-family="Helvetica,sans-Serif" font-size="10.00">Hydrax::Noise::Perlin</text>
<text text-anchor="middle" x="383" y="-8" font-family="Helvetica,sans-Serif" font-size="10.00">::_updateGPUNormalMapResources</text>
</a>
</g>
<!-- Node2&#45;&gt;Node6 -->
<g id="edge10" class="edge"><title>Node2&#45;&gt;Node6</title>
<path fill="none" stroke="midnightblue" d="M252.313,-53.0895C264.086,-49.7331 276.449,-46.2308 288,-43 295.353,-40.9436 303.03,-38.8136 310.696,-36.6983"/>
<polygon fill="midnightblue" stroke="midnightblue" points="311.662,-40.0626 320.374,-34.0333 309.803,-33.3138 311.662,-40.0626"/>
</g>
<!-- Node4 -->
<g id="node7" class="node"><title>Node4</title>
<a xlink:href="class_hydrax_1_1_noise_1_1_perlin.html#a3981deca31b1a17e4fd770f677b84c00" target="_top" xlink:title="Hydrax::Noise::Perlin\l::_mapSample">
<polygon fill="white" stroke="black" points="541,-104 541,-138 651,-138 651,-104 541,-104"/>
<text text-anchor="start" x="549" y="-125" font-family="Helvetica,sans-Serif" font-size="10.00">Hydrax::Noise::Perlin</text>
<text text-anchor="middle" x="596" y="-112" font-family="Helvetica,sans-Serif" font-size="10.00">::_mapSample</text>
</a>
</g>
<!-- Node3&#45;&gt;Node4 -->
<g id="edge6" class="edge"><title>Node3&#45;&gt;Node4</title>
<path fill="none" stroke="midnightblue" d="M438.13,-121C466.357,-121 500.916,-121 530.495,-121"/>
<polygon fill="midnightblue" stroke="midnightblue" points="530.732,-124.5 540.732,-121 530.732,-117.5 530.732,-124.5"/>
</g>
<!-- Node7 -->
<g id="node13" class="node"><title>Node7</title>
<a xlink:href="class_hydrax_1_1_g_p_u_normal_map_manager.html#ab37c3778df109d139c6136fbda3abe80" target="_top" xlink:title="Hydrax::GPUNormalMapManager\l::getTexture">
<polygon fill="white" stroke="black" points="514,-0 514,-34 678,-34 678,-0 514,-0"/>
<text text-anchor="start" x="522" y="-21" font-family="Helvetica,sans-Serif" font-size="10.00">Hydrax::GPUNormalMapManager</text>
<text text-anchor="middle" x="596" y="-8" font-family="Helvetica,sans-Serif" font-size="10.00">::getTexture</text>
</a>
</g>
<!-- Node6&#45;&gt;Node7 -->
<g id="edge12" class="edge"><title>Node6&#45;&gt;Node7</title>
<path fill="none" stroke="midnightblue" d="M471.173,-17C481.841,-17 492.761,-17 503.49,-17"/>
<polygon fill="midnightblue" stroke="midnightblue" points="503.702,-20.5001 513.702,-17 503.702,-13.5001 503.702,-20.5001"/>
</g>
</g>
</svg>
