<?xml version="1.0" encoding="UTF-8" standalone="no"?>
<!DOCTYPE svg PUBLIC "-//W3C//DTD SVG 1.1//EN"
 "http://www.w3.org/Graphics/SVG/1.1/DTD/svg11.dtd">
<!-- Generated by graphviz version 2.26.3 (20100126.1600)
 -->
<!-- Title: Road2::computePoints Pages: 1 -->
<svg width="414pt" height="82pt"
 viewBox="0.00 0.00 414.00 82.00" xmlns="http://www.w3.org/2000/svg" xmlns:xlink="http://www.w3.org/1999/xlink">
<g id="graph1" class="graph" transform="scale(1 1) rotate(0) translate(4 78)">
<title>Road2::computePoints</title>
<polygon fill="white" stroke="white" points="-4,5 -4,-78 411,-78 411,5 -4,5"/>
<!-- Node1 -->
<g id="node1" class="node"><title>Node1</title>
<polygon fill="#bfbfbf" stroke="black" points="0,-23.5 0,-44.5 116,-44.5 116,-23.5 0,-23.5"/>
<text text-anchor="middle" x="58" y="-31.5" font-family="Helvetica,sans-Serif" font-size="10.00">Road2::computePoints</text>
</g>
<!-- Node2 -->
<g id="node3" class="node"><title>Node2</title>
<a xlink:href="class_road2.html#aef616e475fae2504b50ad65a1ba3b3cb" target="_top" xlink:title="Road2::baseOf">
<polygon fill="white" stroke="black" points="152.5,-23.5 152.5,-44.5 235.5,-44.5 235.5,-23.5 152.5,-23.5"/>
<text text-anchor="middle" x="194" y="-31.5" font-family="Helvetica,sans-Serif" font-size="10.00">Road2::baseOf</text>
</a>
</g>
<!-- Node1&#45;&gt;Node2 -->
<g id="edge2" class="edge"><title>Node1&#45;&gt;Node2</title>
<path fill="none" stroke="midnightblue" d="M116.071,-34C124.694,-34 133.534,-34 142.022,-34"/>
<polygon fill="midnightblue" stroke="midnightblue" points="142.161,-37.5001 152.161,-34 142.161,-30.5001 142.161,-37.5001"/>
</g>
<!-- Node3 -->
<g id="node5" class="node"><title>Node3</title>
<a xlink:href="class_terrain_manager.html#ae63cfc0dda4ab62dc7f6d72eb7845628" target="_top" xlink:title="TerrainManager::getHeight\lFinder">
<polygon fill="white" stroke="black" points="273,-40 273,-74 405,-74 405,-40 273,-40"/>
<text text-anchor="start" x="281" y="-61" font-family="Helvetica,sans-Serif" font-size="10.00">TerrainManager::getHeight</text>
<text text-anchor="middle" x="339" y="-48" font-family="Helvetica,sans-Serif" font-size="10.00">Finder</text>
</a>
</g>
<!-- Node2&#45;&gt;Node3 -->
<g id="edge4" class="edge"><title>Node2&#45;&gt;Node3</title>
<path fill="none" stroke="midnightblue" d="M235.551,-40.5909C244.094,-41.9459 253.342,-43.4129 262.675,-44.8933"/>
<polygon fill="midnightblue" stroke="midnightblue" points="262.381,-48.3904 272.806,-46.5003 263.478,-41.4768 262.381,-48.3904"/>
</g>
<!-- Node4 -->
<g id="node7" class="node"><title>Node4</title>
<a xlink:href="class_i_height_finder.html#a5757ec3d639bcffc834540067ec8db2e" target="_top" xlink:title="IHeightFinder::getHeightAt">
<polygon fill="white" stroke="black" points="272.5,-0.5 272.5,-21.5 405.5,-21.5 405.5,-0.5 272.5,-0.5"/>
<text text-anchor="middle" x="339" y="-8.5" font-family="Helvetica,sans-Serif" font-size="10.00">IHeightFinder::getHeightAt</text>
</a>
</g>
<!-- Node2&#45;&gt;Node4 -->
<g id="edge6" class="edge"><title>Node2&#45;&gt;Node4</title>
<path fill="none" stroke="midnightblue" d="M235.551,-27.4091C244.032,-26.0639 253.209,-24.6082 262.473,-23.1387"/>
<polygon fill="midnightblue" stroke="midnightblue" points="263.204,-26.5666 272.532,-21.5431 262.107,-19.6531 263.204,-26.5666"/>
</g>
</g>
</svg>
