<?xml version="1.0" encoding="UTF-8" standalone="no"?>
<!DOCTYPE svg PUBLIC "-//W3C//DTD SVG 1.1//EN"
 "http://www.w3.org/Graphics/SVG/1.1/DTD/svg11.dtd">
<!-- Generated by graphviz version 2.26.3 (20100126.1600)
 -->
<!-- Title: RoR::RigEditor::HighlightBoxesDynamicMesh::Initialize Pages: 1 -->
<svg width="382pt" height="108pt"
 viewBox="0.00 0.00 382.00 108.00" xmlns="http://www.w3.org/2000/svg" xmlns:xlink="http://www.w3.org/1999/xlink">
<g id="graph1" class="graph" transform="scale(1 1) rotate(0) translate(4 104)">
<title>RoR::RigEditor::HighlightBoxesDynamicMesh::Initialize</title>
<polygon fill="white" stroke="white" points="-4,5 -4,-104 379,-104 379,5 -4,5"/>
<!-- Node1 -->
<g id="node1" class="node"><title>Node1</title>
<polygon fill="#bfbfbf" stroke="black" points="0.5,-29 0.5,-63 149.5,-63 149.5,-29 0.5,-29"/>
<text text-anchor="start" x="8.5" y="-50" font-family="Helvetica,sans-Serif" font-size="10.00">RoR::RigEditor::Highlight</text>
<text text-anchor="middle" x="75" y="-37" font-family="Helvetica,sans-Serif" font-size="10.00">BoxesDynamicMesh::Initialize</text>
</g>
<!-- Node2 -->
<g id="node3" class="node"><title>Node2</title>
<a xlink:href="class_ro_r_1_1_rig_editor_1_1_highlight_boxes_dynamic_mesh.html#a88e20726e939847ab599035631cc38e7" target="_top" xlink:title="RoR::RigEditor::Highlight\lBoxesDynamicMesh::CheckAndCreate\lMaterial">
<polygon fill="white" stroke="black" points="186,-52.5 186,-99.5 374,-99.5 374,-52.5 186,-52.5"/>
<text text-anchor="start" x="194" y="-86.5" font-family="Helvetica,sans-Serif" font-size="10.00">RoR::RigEditor::Highlight</text>
<text text-anchor="start" x="194" y="-73.5" font-family="Helvetica,sans-Serif" font-size="10.00">BoxesDynamicMesh::CheckAndCreate</text>
<text text-anchor="middle" x="280" y="-60.5" font-family="Helvetica,sans-Serif" font-size="10.00">Material</text>
</a>
</g>
<!-- Node1&#45;&gt;Node2 -->
<g id="edge2" class="edge"><title>Node1&#45;&gt;Node2</title>
<path fill="none" stroke="midnightblue" d="M149.59,-56.9156C158.157,-58.1693 167.006,-59.4643 175.871,-60.7616"/>
<polygon fill="midnightblue" stroke="midnightblue" points="175.471,-64.2403 185.873,-62.2253 176.485,-57.3141 175.471,-64.2403"/>
</g>
<!-- Node3 -->
<g id="node5" class="node"><title>Node3</title>
<a xlink:href="class_ro_r_1_1_rig_editor_1_1_main.html#a76ac08cd1a12eff3e7bdac2fa4701e8f" target="_top" xlink:title="RoR::RigEditor::Main\l::GetOgreSceneManager">
<polygon fill="white" stroke="black" points="217.5,-0 217.5,-34 342.5,-34 342.5,-0 217.5,-0"/>
<text text-anchor="start" x="225.5" y="-21" font-family="Helvetica,sans-Serif" font-size="10.00">RoR::RigEditor::Main</text>
<text text-anchor="middle" x="280" y="-8" font-family="Helvetica,sans-Serif" font-size="10.00">::GetOgreSceneManager</text>
</a>
</g>
<!-- Node1&#45;&gt;Node3 -->
<g id="edge4" class="edge"><title>Node1&#45;&gt;Node3</title>
<path fill="none" stroke="midnightblue" d="M149.59,-35.4483C168.416,-32.7851 188.601,-29.9296 207.331,-27.28"/>
<polygon fill="midnightblue" stroke="midnightblue" points="207.861,-30.7399 217.272,-25.8737 206.881,-23.8089 207.861,-30.7399"/>
</g>
</g>
</svg>
