<?xml version="1.0" encoding="UTF-8" standalone="no"?>
<!DOCTYPE svg PUBLIC "-//W3C//DTD SVG 1.1//EN"
 "http://www.w3.org/Graphics/SVG/1.1/DTD/svg11.dtd">
<!-- Generated by graphviz version 2.26.3 (20100126.1600)
 -->
<!-- Title: RoR::GUI::RigEditorCommands2Panel Pages: 1 -->
<svg width="328pt" height="174pt"
 viewBox="0.00 0.00 328.00 174.00" xmlns="http://www.w3.org/2000/svg" xmlns:xlink="http://www.w3.org/1999/xlink">
<g id="graph1" class="graph" transform="scale(1 1) rotate(0) translate(4 170)">
<title>RoR::GUI::RigEditorCommands2Panel</title>
<polygon fill="white" stroke="white" points="-4,5 -4,-170 325,-170 325,5 -4,5"/>
<!-- Node1 -->
<g id="node1" class="node"><title>Node1</title>
<polygon fill="#bfbfbf" stroke="black" points="83.5,-1 83.5,-35 246.5,-35 246.5,-1 83.5,-1"/>
<text text-anchor="start" x="91.5" y="-22" font-family="Helvetica,sans-Serif" font-size="10.00">RoR::GUI::RigEditorCommands2</text>
<text text-anchor="middle" x="165" y="-9" font-family="Helvetica,sans-Serif" font-size="10.00">Panel</text>
</g>
<!-- Node2 -->
<g id="node2" class="node"><title>Node2</title>
<a xlink:href="class_ro_r_1_1_g_u_i_1_1_rig_editor_commands2_panel_layout.html" target="_top" xlink:title="RoR::GUI::RigEditorCommands2\lPanelLayout">
<polygon fill="white" stroke="black" points="-0.5,-73 -0.5,-107 162.5,-107 162.5,-73 -0.5,-73"/>
<text text-anchor="start" x="7.5" y="-94" font-family="Helvetica,sans-Serif" font-size="10.00">RoR::GUI::RigEditorCommands2</text>
<text text-anchor="middle" x="81" y="-81" font-family="Helvetica,sans-Serif" font-size="10.00">PanelLayout</text>
</a>
</g>
<!-- Node2&#45;&gt;Node1 -->
<g id="edge2" class="edge"><title>Node2&#45;&gt;Node1</title>
<path fill="none" stroke="midnightblue" d="M108.765,-66.2011C120.589,-56.0666 134.119,-44.4691 144.945,-35.19"/>
<polygon fill="midnightblue" stroke="midnightblue" points="106.222,-63.7717 100.907,-72.937 110.777,-69.0865 106.222,-63.7717"/>
</g>
<!-- Node3 -->
<g id="node4" class="node"><title>Node3</title>
<a xlink:href="classwraps_1_1_base_layout.html" target="_top" xlink:title="wraps::BaseLayout">
<polygon fill="white" stroke="black" points="30.5,-144.5 30.5,-165.5 131.5,-165.5 131.5,-144.5 30.5,-144.5"/>
<text text-anchor="middle" x="81" y="-152.5" font-family="Helvetica,sans-Serif" font-size="10.00">wraps::BaseLayout</text>
</a>
</g>
<!-- Node3&#45;&gt;Node2 -->
<g id="edge4" class="edge"><title>Node3&#45;&gt;Node2</title>
<path fill="none" stroke="midnightblue" d="M81,-134.131C81,-125.405 81,-115.391 81,-107.11"/>
<polygon fill="midnightblue" stroke="midnightblue" points="77.5001,-134.267 81,-144.267 84.5001,-134.267 77.5001,-134.267"/>
</g>
<!-- Node4 -->
<g id="node6" class="node"><title>Node4</title>
<a xlink:href="class_ro_r_1_1_rig_editor_1_1_rig_element_gui_panel_base.html" target="_top" xlink:title="RoR::RigEditor::RigElement\lGuiPanelBase">
<polygon fill="white" stroke="black" points="180,-73 180,-107 320,-107 320,-73 180,-73"/>
<text text-anchor="start" x="188" y="-94" font-family="Helvetica,sans-Serif" font-size="10.00">RoR::RigEditor::RigElement</text>
<text text-anchor="middle" x="250" y="-81" font-family="Helvetica,sans-Serif" font-size="10.00">GuiPanelBase</text>
</a>
</g>
<!-- Node4&#45;&gt;Node1 -->
<g id="edge6" class="edge"><title>Node4&#45;&gt;Node1</title>
<path fill="none" stroke="midnightblue" d="M221.904,-66.2011C209.94,-56.0666 196.248,-44.4691 185.294,-35.19"/>
<polygon fill="midnightblue" stroke="midnightblue" points="219.963,-69.1442 229.856,-72.937 224.488,-63.8029 219.963,-69.1442"/>
</g>
<!-- Node5 -->
<g id="node8" class="node"><title>Node5</title>
<a xlink:href="class_ro_r_1_1_gui_panel_base.html" target="_top" xlink:title="RoR::GuiPanelBase">
<polygon fill="white" stroke="black" points="197.5,-144.5 197.5,-165.5 302.5,-165.5 302.5,-144.5 197.5,-144.5"/>
<text text-anchor="middle" x="250" y="-152.5" font-family="Helvetica,sans-Serif" font-size="10.00">RoR::GuiPanelBase</text>
</a>
</g>
<!-- Node5&#45;&gt;Node4 -->
<g id="edge8" class="edge"><title>Node5&#45;&gt;Node4</title>
<path fill="none" stroke="midnightblue" d="M250,-134.131C250,-125.405 250,-115.391 250,-107.11"/>
<polygon fill="midnightblue" stroke="midnightblue" points="246.5,-134.267 250,-144.267 253.5,-134.267 246.5,-134.267"/>
</g>
</g>
</svg>
