<?xml version="1.0" encoding="UTF-8" standalone="no"?>
<!DOCTYPE svg PUBLIC "-//W3C//DTD SVG 1.1//EN"
 "http://www.w3.org/Graphics/SVG/1.1/DTD/svg11.dtd">
<!-- Generated by graphviz version 2.26.3 (20100126.1600)
 -->
<!-- Title: G Pages: 1 -->
<svg width="498pt" height="390pt"
 viewBox="0.00 0.00 498.00 390.00" xmlns="http://www.w3.org/2000/svg" xmlns:xlink="http://www.w3.org/1999/xlink">
<g id="graph1" class="graph" transform="scale(1 1) rotate(0) translate(4 386)">
<title>G</title>
<polygon fill="white" stroke="white" points="-4,5 -4,-386 495,-386 495,5 -4,5"/>
<!-- Node1 -->
<g id="node1" class="node"><title>Node1</title>
<polygon fill="#bfbfbf" stroke="black" points="0.5,-180.5 0.5,-201.5 131.5,-201.5 131.5,-180.5 0.5,-180.5"/>
<text text-anchor="middle" x="66" y="-188.5" font-family="Helvetica,sans-Serif" font-size="10.00">RoR::GuiPanelBase::Hide</text>
</g>
<!-- Node2 -->
<g id="node3" class="node"><title>Node2</title>
<a xlink:href="class_ro_r_1_1_g_u_i_1_1_rig_editor_beams_panel.html#a0424af4e1b98e6e0c40184f4cfed8697" target="_top" xlink:title="RoR::GUI::RigEditorBeamsPanel::HideAndReset">
<polygon fill="white" stroke="black" points="212.5,-360.5 212.5,-381.5 445.5,-381.5 445.5,-360.5 212.5,-360.5"/>
<text text-anchor="middle" x="329" y="-368.5" font-family="Helvetica,sans-Serif" font-size="10.00">RoR::GUI::RigEditorBeamsPanel::HideAndReset</text>
</a>
</g>
<!-- Node1&#45;&gt;Node2 -->
<g id="edge2" class="edge"><title>Node1&#45;&gt;Node2</title>
<path fill="none" stroke="midnightblue" d="M72.585,-211.588C85.0133,-246.762 115.502,-317.835 168,-351 181.335,-359.424 196.54,-365.12 212.159,-368.877"/>
<polygon fill="midnightblue" stroke="midnightblue" points="75.8283,-210.253 69.3034,-201.906 69.1987,-212.5 75.8283,-210.253"/>
</g>
<!-- Node3 -->
<g id="node5" class="node"><title>Node3</title>
<a xlink:href="class_ro_r_1_1_g_u_i_1_1_rig_editor_commands2_panel.html#a13c2fdadf723a0bd0bc36b41a2aabe09" target="_top" xlink:title="RoR::GUI::RigEditorCommands2Panel::HideAndReset">
<polygon fill="white" stroke="black" points="200.5,-320.5 200.5,-341.5 457.5,-341.5 457.5,-320.5 200.5,-320.5"/>
<text text-anchor="middle" x="329" y="-328.5" font-family="Helvetica,sans-Serif" font-size="10.00">RoR::GUI::RigEditorCommands2Panel::HideAndReset</text>
</a>
</g>
<!-- Node1&#45;&gt;Node3 -->
<g id="edge4" class="edge"><title>Node1&#45;&gt;Node3</title>
<path fill="none" stroke="midnightblue" d="M76.4389,-210.722C92.2167,-238.338 124.927,-287.751 168,-311 178.038,-316.418 188.93,-320.623 200.154,-323.862"/>
<polygon fill="midnightblue" stroke="midnightblue" points="79.3081,-208.678 71.4043,-201.622 73.1831,-212.066 79.3081,-208.678"/>
</g>
<!-- Node4 -->
<g id="node7" class="node"><title>Node4</title>
<a xlink:href="class_ro_r_1_1_g_u_i_1_1_rig_editor_delete_menu.html#a5b5ebb127e9925a3f670de6e51675628" target="_top" xlink:title="RoR::GUI::RigEditorDeleteMenu::RigEditorDeleteMenu">
<polygon fill="white" stroke="black" points="199.5,-280.5 199.5,-301.5 458.5,-301.5 458.5,-280.5 199.5,-280.5"/>
<text text-anchor="middle" x="329" y="-288.5" font-family="Helvetica,sans-Serif" font-size="10.00">RoR::GUI::RigEditorDeleteMenu::RigEditorDeleteMenu</text>
</a>
</g>
<!-- Node1&#45;&gt;Node4 -->
<g id="edge6" class="edge"><title>Node1&#45;&gt;Node4</title>
<path fill="none" stroke="midnightblue" d="M82.9781,-209.206C101.795,-228.108 134.002,-256.852 168,-271 177.882,-275.112 188.377,-278.444 199.086,-281.137"/>
<polygon fill="midnightblue" stroke="midnightblue" points="85.2445,-206.515 75.7675,-201.778 80.2221,-211.391 85.2445,-206.515"/>
</g>
<!-- Node5 -->
<g id="node9" class="node"><title>Node5</title>
<a xlink:href="class_ro_r_1_1_g_u_i_1_1_rig_editor_flex_body_wheels_panel.html#a28e73a14f0e5433f5737032dab1a28c5" target="_top" xlink:title="RoR::GUI::RigEditorFlexBodyWheelsPanel::HideAndReset">
<polygon fill="white" stroke="black" points="191,-240.5 191,-261.5 467,-261.5 467,-240.5 191,-240.5"/>
<text text-anchor="middle" x="329" y="-248.5" font-family="Helvetica,sans-Serif" font-size="10.00">RoR::GUI::RigEditorFlexBodyWheelsPanel::HideAndReset</text>
</a>
</g>
<!-- Node1&#45;&gt;Node5 -->
<g id="edge8" class="edge"><title>Node1&#45;&gt;Node5</title>
<path fill="none" stroke="midnightblue" d="M97.3264,-205.646C117.169,-214.325 143.601,-224.805 168,-231 183.151,-234.847 199.3,-237.966 215.302,-240.492"/>
<polygon fill="midnightblue" stroke="midnightblue" points="98.7115,-202.431 88.1528,-201.557 95.8615,-208.825 98.7115,-202.431"/>
</g>
<!-- Node6 -->
<g id="node11" class="node"><title>Node6</title>
<a xlink:href="class_ro_r_1_1_g_u_i_1_1_rig_editor_hydros_panel.html#a138dc3bf6368f99089572f04fccdd549" target="_top" xlink:title="RoR::GUI::RigEditorHydrosPanel::HideAndReset">
<polygon fill="white" stroke="black" points="212.5,-200.5 212.5,-221.5 445.5,-221.5 445.5,-200.5 212.5,-200.5"/>
<text text-anchor="middle" x="329" y="-208.5" font-family="Helvetica,sans-Serif" font-size="10.00">RoR::GUI::RigEditorHydrosPanel::HideAndReset</text>
</a>
</g>
<!-- Node1&#45;&gt;Node6 -->
<g id="edge10" class="edge"><title>Node1&#45;&gt;Node6</title>
<path fill="none" stroke="midnightblue" d="M141.952,-196.776C163.987,-198.451 188.571,-200.321 212.485,-202.14"/>
<polygon fill="midnightblue" stroke="midnightblue" points="141.924,-193.264 131.688,-195.995 141.393,-200.244 141.924,-193.264"/>
</g>
<!-- Node7 -->
<g id="node13" class="node"><title>Node7</title>
<a xlink:href="class_ro_r_1_1_g_u_i_1_1_rig_editor_mesh_wheels2_panel.html#a329fe6c699a023edc529307334fc3d2f" target="_top" xlink:title="RoR::GUI::RigEditorMeshWheels2Panel::HideAndReset">
<polygon fill="white" stroke="black" points="197,-160.5 197,-181.5 461,-181.5 461,-160.5 197,-160.5"/>
<text text-anchor="middle" x="329" y="-168.5" font-family="Helvetica,sans-Serif" font-size="10.00">RoR::GUI::RigEditorMeshWheels2Panel::HideAndReset</text>
</a>
</g>
<!-- Node1&#45;&gt;Node7 -->
<g id="edge12" class="edge"><title>Node1&#45;&gt;Node7</title>
<path fill="none" stroke="midnightblue" d="M141.705,-185.243C159.051,-183.924 177.987,-182.484 196.939,-181.043"/>
<polygon fill="midnightblue" stroke="midnightblue" points="141.393,-181.756 131.688,-186.005 141.924,-188.736 141.393,-181.756"/>
</g>
<!-- Node8 -->
<g id="node15" class="node"><title>Node8</title>
<a xlink:href="class_ro_r_1_1_g_u_i_1_1_rig_editor_node_panel.html#a2ef0a4e37e554d83dc3f9ef77880586a" target="_top" xlink:title="RoR::GUI::RigEditorNodePanel::HideAndReset">
<polygon fill="white" stroke="black" points="216.5,-120.5 216.5,-141.5 441.5,-141.5 441.5,-120.5 216.5,-120.5"/>
<text text-anchor="middle" x="329" y="-128.5" font-family="Helvetica,sans-Serif" font-size="10.00">RoR::GUI::RigEditorNodePanel::HideAndReset</text>
</a>
</g>
<!-- Node1&#45;&gt;Node8 -->
<g id="edge14" class="edge"><title>Node1&#45;&gt;Node8</title>
<path fill="none" stroke="midnightblue" d="M97.3264,-176.354C117.169,-167.675 143.601,-157.195 168,-151 183.424,-147.084 199.883,-143.922 216.167,-141.372"/>
<polygon fill="midnightblue" stroke="midnightblue" points="95.8615,-173.175 88.1528,-180.443 98.7115,-179.569 95.8615,-173.175"/>
</g>
<!-- Node9 -->
<g id="node17" class="node"><title>Node9</title>
<a xlink:href="class_ro_r_1_1_g_u_i_1_1_rig_editor_shocks2_panel.html#a17d1bc0e0243c35e68e28dbce198ec3f" target="_top" xlink:title="RoR::GUI::RigEditorShocks2Panel::HideAndReset">
<polygon fill="white" stroke="black" points="209,-80.5 209,-101.5 449,-101.5 449,-80.5 209,-80.5"/>
<text text-anchor="middle" x="329" y="-88.5" font-family="Helvetica,sans-Serif" font-size="10.00">RoR::GUI::RigEditorShocks2Panel::HideAndReset</text>
</a>
</g>
<!-- Node1&#45;&gt;Node9 -->
<g id="edge16" class="edge"><title>Node1&#45;&gt;Node9</title>
<path fill="none" stroke="midnightblue" d="M82.9781,-172.794C101.795,-153.892 134.002,-125.148 168,-111 180.872,-105.643 194.786,-101.61 208.857,-98.5896"/>
<polygon fill="midnightblue" stroke="midnightblue" points="80.2221,-170.609 75.7675,-180.222 85.2445,-175.485 80.2221,-170.609"/>
</g>
<!-- Node10 -->
<g id="node19" class="node"><title>Node10</title>
<a xlink:href="class_ro_r_1_1_g_u_i_1_1_rig_spawner_report_window.html#a8385ed9587f1416a76b844fbf62dd5a9" target="_top" xlink:title="RoR::GUI::RigSpawnerReportWindow::RigSpawnerReportWindow">
<polygon fill="white" stroke="black" points="175,-40.5 175,-61.5 483,-61.5 483,-40.5 175,-40.5"/>
<text text-anchor="middle" x="329" y="-48.5" font-family="Helvetica,sans-Serif" font-size="10.00">RoR::GUI::RigSpawnerReportWindow::RigSpawnerReportWindow</text>
</a>
</g>
<!-- Node1&#45;&gt;Node10 -->
<g id="edge18" class="edge"><title>Node1&#45;&gt;Node10</title>
<path fill="none" stroke="midnightblue" d="M76.4389,-171.278C92.2167,-143.662 124.927,-94.2492 168,-71 174.816,-67.3209 182.026,-64.2015 189.466,-61.5639"/>
<polygon fill="midnightblue" stroke="midnightblue" points="73.1831,-169.934 71.4043,-180.378 79.3081,-173.322 73.1831,-169.934"/>
</g>
<!-- Node11 -->
<g id="node21" class="node"><title>Node11</title>
<a xlink:href="class_ro_r_1_1_rig_editor_1_1_rig_element_gui_panel_base.html#ae3576a15509fc2d0ef2e54e628da7423" target="_top" xlink:title="RoR::RigEditor::RigElementGuiPanelBase::RigElementGuiPanelBase">
<polygon fill="white" stroke="black" points="168,-0.5 168,-21.5 490,-21.5 490,-0.5 168,-0.5"/>
<text text-anchor="middle" x="329" y="-8.5" font-family="Helvetica,sans-Serif" font-size="10.00">RoR::RigEditor::RigElementGuiPanelBase::RigElementGuiPanelBase</text>
</a>
</g>
<!-- Node1&#45;&gt;Node11 -->
<g id="edge20" class="edge"><title>Node1&#45;&gt;Node11</title>
<path fill="none" stroke="midnightblue" d="M72.585,-170.412C85.0133,-135.238 115.502,-64.1646 168,-31 173.715,-27.3896 179.774,-24.2804 186.061,-21.6102"/>
<polygon fill="midnightblue" stroke="midnightblue" points="69.1987,-169.5 69.3034,-180.094 75.8283,-171.747 69.1987,-169.5"/>
</g>
</g>
</svg>
