<?xml version="1.0" encoding="UTF-8" standalone="no"?>
<!DOCTYPE svg PUBLIC "-//W3C//DTD SVG 1.1//EN"
 "http://www.w3.org/Graphics/SVG/1.1/DTD/svg11.dtd">
<!-- Generated by graphviz version 2.26.3 (20100126.1600)
 -->
<!-- Title: G Pages: 1 -->
<!--zoomable 108 -->
<svg id="main" version="1.1" xmlns="http://www.w3.org/2000/svg" xmlns:xlink="http://www.w3.org/1999/xlink" xml:space="preserve" onload="init(evt)">
        <defs>
                <circle id="rim" cx="0" cy="0" r="7"/>
                <circle id="rim2" cx="0" cy="0" r="3.5"/>
                <g id="zoomPlus">
                        <use xlink:href="#rim" fill="#404040">
                                <set attributeName="fill" to="#808080" begin="zoomplus.mouseover" end="zoomplus.mouseout"/>
                        </use>
                        <path d="M-4,0h8M0,-4v8" fill="none" stroke="white" stroke-width="1.5" pointer-events="none"/>
                </g>
                <g id="zoomMin">
                        <use xlink:href="#rim" fill="#404040">
                                <set attributeName="fill" to="#808080" begin="zoomminus.mouseover" end="zoomminus.mouseout"/>
                        </use>
                        <path d="M-4,0h8" fill="none" stroke="white" stroke-width="1.5" pointer-events="none"/>
                </g>
                <g id="dirArrow">
                        <path fill="none" stroke="white" stroke-width="1.5" d="M0,-3.0v7 M-2.5,-0.5L0,-3.0L2.5,-0.5"/>
                </g>
               <g id="resetDef">
                       <use xlink:href="#rim2" fill="#404040">
                               <set attributeName="fill" to="#808080" begin="reset.mouseover" end="reset.mouseout"/>
                       </use>
               </g>
        </defs>

<script type="text/javascript">
var viewWidth = 514;
var viewHeight = 108;
var sectionId = 'dynsection-9';
</script>
<script xlink:href="svgpan.js"/>
<svg id="graph" class="graph">
<g id="viewport">
<title>G</title>
<polygon fill="white" stroke="white" points="-4,5 -4,-104 511,-104 511,5 -4,5"/>
<!-- Node1 -->
<g id="node1" class="node"><title>Node1</title>
<polygon fill="#bfbfbf" stroke="black" points="0.5,-39.5 0.5,-60.5 103.5,-60.5 103.5,-39.5 0.5,-39.5"/>
<text text-anchor="middle" x="52" y="-47.5" font-family="Helvetica,sans-Serif" font-size="10.00">MyDialog::loadOgre</text>
</g>
<!-- Node2 -->
<g id="node3" class="node"><title>Node2</title>
<a xlink:href="class_my_dialog.html#aba6a7daf42cb713a175d666da8fb24ea" target="_top" xlink:title="MyDialog::loadOgrePlugins">
<polygon fill="white" stroke="black" points="153.5,-78.5 153.5,-99.5 288.5,-99.5 288.5,-78.5 153.5,-78.5"/>
<text text-anchor="middle" x="221" y="-86.5" font-family="Helvetica,sans-Serif" font-size="10.00">MyDialog::loadOgrePlugins</text>
</a>
</g>
<!-- Node1&#45;&gt;Node2 -->
<g id="edge2" class="edge"><title>Node1&#45;&gt;Node2</title>
<path fill="none" stroke="midnightblue" d="M97.7338,-60.554C118.588,-65.3664 143.463,-71.1068 165.388,-76.1665"/>
<polygon fill="midnightblue" stroke="midnightblue" points="164.699,-79.5993 175.23,-78.4376 166.273,-72.7786 164.699,-79.5993"/>
</g>
<!-- Node3 -->
<g id="node5" class="node"><title>Node3</title>
<a xlink:href="wxutils_8h.html#acea10d469893caac689206a073cc165e" target="_top" xlink:title="conv">
<polygon fill="white" stroke="black" points="403,-40.5 403,-61.5 441,-61.5 441,-40.5 403,-40.5"/>
<text text-anchor="middle" x="422" y="-48.5" font-family="Helvetica,sans-Serif" font-size="10.00">conv</text>
</a>
</g>
<!-- Node1&#45;&gt;Node3 -->
<g id="edge6" class="edge"><title>Node1&#45;&gt;Node3</title>
<path fill="none" stroke="midnightblue" d="M103.837,-50.1401C182.637,-50.3531 330.008,-50.7514 392.634,-50.9206"/>
<polygon fill="midnightblue" stroke="midnightblue" points="392.955,-54.4214 402.965,-50.9486 392.974,-47.4214 392.955,-54.4214"/>
</g>
<!-- Node4 -->
<g id="node8" class="node"><title>Node4</title>
<a xlink:href="class_my_dialog.html#a2db16bbab43a0aaf98ac4cf0787814be" target="_top" xlink:title="MyDialog::updateRendersystems">
<polygon fill="white" stroke="black" points="140,-0.5 140,-21.5 302,-21.5 302,-0.5 140,-0.5"/>
<text text-anchor="middle" x="221" y="-8.5" font-family="Helvetica,sans-Serif" font-size="10.00">MyDialog::updateRendersystems</text>
</a>
</g>
<!-- Node1&#45;&gt;Node4 -->
<g id="edge8" class="edge"><title>Node1&#45;&gt;Node4</title>
<path fill="none" stroke="midnightblue" d="M97.7338,-39.446C118.588,-34.6336 143.463,-28.8932 165.388,-23.8335"/>
<polygon fill="midnightblue" stroke="midnightblue" points="166.273,-27.2214 175.23,-21.5624 164.699,-20.4007 166.273,-27.2214"/>
</g>
<!-- Node2&#45;&gt;Node3 -->
<g id="edge4" class="edge"><title>Node2&#45;&gt;Node3</title>
<path fill="none" stroke="midnightblue" d="M276.723,-78.4653C314.345,-71.3527 362.49,-62.2507 392.798,-56.5208"/>
<polygon fill="midnightblue" stroke="midnightblue" points="393.552,-59.9403 402.728,-54.6435 392.252,-53.0621 393.552,-59.9403"/>
</g>
<!-- Node4&#45;&gt;Node3 -->
<g id="edge12" class="edge"><title>Node4&#45;&gt;Node3</title>
<path fill="none" stroke="midnightblue" d="M273.81,-21.5095C311.683,-29.0464 361.319,-38.9242 392.439,-45.1172"/>
<polygon fill="midnightblue" stroke="midnightblue" points="392.134,-48.625 402.625,-47.1442 393.5,-41.7597 392.134,-48.625"/>
</g>
<!-- Node5 -->
<g id="node10" class="node"><title>Node5</title>
<a xlink:href="classwx_value_choice.html#a11c538b33449b38e2b78d0356a178dab" target="_top" xlink:title="wxValueChoice::AppendValueItem">
<polygon fill="white" stroke="black" points="338,-0.5 338,-21.5 506,-21.5 506,-0.5 338,-0.5"/>
<text text-anchor="middle" x="422" y="-8.5" font-family="Helvetica,sans-Serif" font-size="10.00">wxValueChoice::AppendValueItem</text>
</a>
</g>
<!-- Node4&#45;&gt;Node5 -->
<g id="edge10" class="edge"><title>Node4&#45;&gt;Node5</title>
<path fill="none" stroke="midnightblue" d="M302.175,-11C310.633,-11 319.28,-11 327.865,-11"/>
<polygon fill="midnightblue" stroke="midnightblue" points="327.9,-14.5001 337.9,-11 327.9,-7.5001 327.9,-14.5001"/>
</g>
</g>
</svg>
        <g id="navigator" transform="translate(0 0)" fill="#404254">
                <rect fill="#f2f5e9" fill-opacity="0.5" stroke="#606060" stroke-width=".5" x="0" y="0" width="60" height="60"/>
                <use id="zoomplus" xlink:href="#zoomPlus" x="17" y="9" onmousedown="handleZoom(evt,'in')"/>
                <use id="zoomminus" xlink:href="#zoomMin" x="42" y="9" onmousedown="handleZoom(evt,'out')"/>
                <use id="reset" xlink:href="#resetDef" x="30" y="36" onmousedown="handleReset()"/>
                <g id="arrowUp" xlink:href="#dirArrow" transform="translate(30 24)" onmousedown="handlePan(0,-1)">
                  <use xlink:href="#rim" fill="#404040">
                        <set attributeName="fill" to="#808080" begin="arrowUp.mouseover" end="arrowUp.mouseout"/>
                  </use>
                  <path fill="none" stroke="white" stroke-width="1.5" d="M0,-3.0v7 M-2.5,-0.5L0,-3.0L2.5,-0.5"/>
                </g>
                <g id="arrowRight" xlink:href="#dirArrow" transform="rotate(90) translate(36 -43)" onmousedown="handlePan(1,0)">
                  <use xlink:href="#rim" fill="#404040">
                        <set attributeName="fill" to="#808080" begin="arrowRight.mouseover" end="arrowRight.mouseout"/>
                  </use>
                  <path fill="none" stroke="white" stroke-width="1.5" d="M0,-3.0v7 M-2.5,-0.5L0,-3.0L2.5,-0.5"/>
                </g>
                <g id="arrowDown" xlink:href="#dirArrow" transform="rotate(180) translate(-30 -48)" onmousedown="handlePan(0,1)">
                  <use xlink:href="#rim" fill="#404040">
                        <set attributeName="fill" to="#808080" begin="arrowDown.mouseover" end="arrowDown.mouseout"/>
                  </use>
                  <path fill="none" stroke="white" stroke-width="1.5" d="M0,-3.0v7 M-2.5,-0.5L0,-3.0L2.5,-0.5"/>
                </g>
                <g id="arrowLeft" xlink:href="#dirArrow" transform="rotate(270) translate(-36 17)" onmousedown="handlePan(-1,0)">
                  <use xlink:href="#rim" fill="#404040">
                        <set attributeName="fill" to="#808080" begin="arrowLeft.mouseover" end="arrowLeft.mouseout"/>
                  </use>
                  <path fill="none" stroke="white" stroke-width="1.5" d="M0,-3.0v7 M-2.5,-0.5L0,-3.0L2.5,-0.5"/>
                </g>
        </g>
</svg>
