<?xml version="1.0" encoding="UTF-8" standalone="no"?>
<!DOCTYPE svg PUBLIC "-//W3C//DTD SVG 1.1//EN"
 "http://www.w3.org/Graphics/SVG/1.1/DTD/svg11.dtd">
<!-- Generated by graphviz version 2.26.3 (20100126.1600)
 -->
<!-- Title: G Pages: 1 -->
<!--zoomable 230 -->
<svg id="main" version="1.1" xmlns="http://www.w3.org/2000/svg" xmlns:xlink="http://www.w3.org/1999/xlink" xml:space="preserve" onload="init(evt)">
        <defs>
                <circle id="rim" cx="0" cy="0" r="7"/>
                <circle id="rim2" cx="0" cy="0" r="3.5"/>
                <g id="zoomPlus">
                        <use xlink:href="#rim" fill="#404040">
                                <set attributeName="fill" to="#808080" begin="zoomplus.mouseover" end="zoomplus.mouseout"/>
                        </use>
                        <path d="M-4,0h8M0,-4v8" fill="none" stroke="white" stroke-width="1.5" pointer-events="none"/>
                </g>
                <g id="zoomMin">
                        <use xlink:href="#rim" fill="#404040">
                                <set attributeName="fill" to="#808080" begin="zoomminus.mouseover" end="zoomminus.mouseout"/>
                        </use>
                        <path d="M-4,0h8" fill="none" stroke="white" stroke-width="1.5" pointer-events="none"/>
                </g>
                <g id="dirArrow">
                        <path fill="none" stroke="white" stroke-width="1.5" d="M0,-3.0v7 M-2.5,-0.5L0,-3.0L2.5,-0.5"/>
                </g>
               <g id="resetDef">
                       <use xlink:href="#rim2" fill="#404040">
                               <set attributeName="fill" to="#808080" begin="reset.mouseover" end="reset.mouseout"/>
                       </use>
               </g>
        </defs>

<script type="text/javascript">
var viewWidth = 1008;
var viewHeight = 230;
var sectionId = 'dynsection-8';
</script>
<script xlink:href="svgpan.js"/>
<svg id="graph" class="graph">
<g id="viewport">
<title>G</title>
<polygon fill="white" stroke="white" points="-4,5 -4,-226 1005,-226 1005,5 -4,5"/>
<!-- Node1 -->
<g id="node1" class="node"><title>Node1</title>
<polygon fill="#bfbfbf" stroke="black" points="0.5,-120.5 0.5,-141.5 251.5,-141.5 251.5,-120.5 0.5,-120.5"/>
<text text-anchor="middle" x="126" y="-128.5" font-family="Helvetica,sans-Serif" font-size="10.00">RoR::GUI::RigEditorShocksPanel::UpdateShockData</text>
</g>
<!-- Node2 -->
<g id="node3" class="node"><title>Node2</title>
<a xlink:href="class_ro_r_1_1_rig_editor_1_1_rig_element_gui_panel_base.html#ac4c1978f770b0ed1b9db966113b8045d" target="_top" xlink:title="RoR::RigEditor::RigElementGuiPanelBase::UpdateFlagCheckbox">
<polygon fill="white" stroke="black" points="288.5,-140.5 288.5,-161.5 591.5,-161.5 591.5,-140.5 288.5,-140.5"/>
<text text-anchor="middle" x="440" y="-148.5" font-family="Helvetica,sans-Serif" font-size="10.00">RoR::RigEditor::RigElementGuiPanelBase::UpdateFlagCheckbox</text>
</a>
</g>
<!-- Node1&#45;&gt;Node2 -->
<g id="edge2" class="edge"><title>Node1&#45;&gt;Node2</title>
<path fill="none" stroke="midnightblue" d="M251.907,-139.02C260.646,-139.576 269.52,-140.141 278.413,-140.708"/>
<polygon fill="midnightblue" stroke="midnightblue" points="278.253,-144.205 288.456,-141.347 278.698,-137.219 278.253,-144.205"/>
</g>
<!-- Node3 -->
<g id="node5" class="node"><title>Node3</title>
<a xlink:href="class_ro_r_1_1_rig_editor_1_1_rig_element_gui_panel_base.html#ad0187d760317fe449942abb642ec78f9" target="_top" xlink:title="RoR::RigEditor::RigElementGuiPanelBase::EditboxRestoreValue">
<polygon fill="white" stroke="black" points="289.5,-100.5 289.5,-121.5 590.5,-121.5 590.5,-100.5 289.5,-100.5"/>
<text text-anchor="middle" x="440" y="-108.5" font-family="Helvetica,sans-Serif" font-size="10.00">RoR::RigEditor::RigElementGuiPanelBase::EditboxRestoreValue</text>
</a>
</g>
<!-- Node1&#45;&gt;Node3 -->
<g id="edge4" class="edge"><title>Node1&#45;&gt;Node3</title>
<path fill="none" stroke="midnightblue" d="M251.907,-122.98C260.991,-122.402 270.22,-121.814 279.465,-121.225"/>
<polygon fill="midnightblue" stroke="midnightblue" points="279.74,-124.715 289.497,-120.586 279.295,-117.729 279.74,-124.715"/>
</g>
<!-- Node4 -->
<g id="node7" class="node"><title>Node4</title>
<a xlink:href="struct_ro_r_1_1_rig_editor_1_1_rig_element_gui_panel_base_1_1_generic_field_spec.html#ae161ba91d864a7d7a65d04d14cc49257" target="_top" xlink:title="RoR::RigEditor::RigElementGuiPanelBase::GenericFieldSpec::IsSourceUniform">
<polygon fill="white" stroke="black" points="631.5,-200.5 631.5,-221.5 996.5,-221.5 996.5,-200.5 631.5,-200.5"/>
<text text-anchor="middle" x="814" y="-208.5" font-family="Helvetica,sans-Serif" font-size="10.00">RoR::RigEditor::RigElementGuiPanelBase::GenericFieldSpec::IsSourceUniform</text>
</a>
</g>
<!-- Node3&#45;&gt;Node4 -->
<g id="edge6" class="edge"><title>Node3&#45;&gt;Node4</title>
<path fill="none" stroke="midnightblue" d="M574.344,-121.549C580.51,-124.222 586.436,-127.35 592,-131 618.002,-148.058 601.797,-174.251 628,-191 630.805,-192.793 633.683,-194.474 636.625,-196.05"/>
<polygon fill="midnightblue" stroke="midnightblue" points="635.11,-199.205 645.629,-200.468 638.193,-192.921 635.11,-199.205"/>
</g>
<!-- Node5 -->
<g id="node9" class="node"><title>Node5</title>
<a xlink:href="struct_ro_r_1_1_rig_editor_1_1_rig_element_gui_panel_base_1_1_generic_field_spec.html#a66468fe1df6d78c0589a47e7111b8594" target="_top" xlink:title="RoR::RigEditor::RigElementGuiPanelBase::GenericFieldSpec::GetSourceFloat">
<polygon fill="white" stroke="black" points="634,-160.5 634,-181.5 994,-181.5 994,-160.5 634,-160.5"/>
<text text-anchor="middle" x="814" y="-168.5" font-family="Helvetica,sans-Serif" font-size="10.00">RoR::RigEditor::RigElementGuiPanelBase::GenericFieldSpec::GetSourceFloat</text>
</a>
</g>
<!-- Node3&#45;&gt;Node5 -->
<g id="edge8" class="edge"><title>Node3&#45;&gt;Node5</title>
<path fill="none" stroke="midnightblue" d="M555.571,-121.544C568.018,-124.055 580.374,-127.161 592,-131 609.38,-136.74 610.553,-145.467 628,-151 636.846,-153.805 646.035,-156.234 655.379,-158.334"/>
<polygon fill="midnightblue" stroke="midnightblue" points="654.658,-161.759 665.166,-160.407 656.108,-154.911 654.658,-161.759"/>
</g>
<!-- Node6 -->
<g id="node11" class="node"><title>Node6</title>
<a xlink:href="struct_ro_r_1_1_rig_editor_1_1_rig_element_gui_panel_base_1_1_generic_field_spec.html#a192249f405da10c4c7cc797d82899b91" target="_top" xlink:title="RoR::RigEditor::RigElementGuiPanelBase::GenericFieldSpec::GetSourceInt">
<polygon fill="white" stroke="black" points="639,-120.5 639,-141.5 989,-141.5 989,-120.5 639,-120.5"/>
<text text-anchor="middle" x="814" y="-128.5" font-family="Helvetica,sans-Serif" font-size="10.00">RoR::RigEditor::RigElementGuiPanelBase::GenericFieldSpec::GetSourceInt</text>
</a>
</g>
<!-- Node3&#45;&gt;Node6 -->
<g id="edge10" class="edge"><title>Node3&#45;&gt;Node6</title>
<path fill="none" stroke="midnightblue" d="M590.503,-119.048C603.076,-119.721 615.878,-120.405 628.669,-121.089"/>
<polygon fill="midnightblue" stroke="midnightblue" points="628.748,-124.598 638.921,-121.637 629.122,-117.608 628.748,-124.598"/>
</g>
<!-- Node7 -->
<g id="node13" class="node"><title>Node7</title>
<a xlink:href="struct_ro_r_1_1_rig_editor_1_1_rig_element_gui_panel_base_1_1_generic_field_spec.html#a2f140a5e66c648a4b401dfdd4a183095" target="_top" xlink:title="RoR::RigEditor::RigElementGuiPanelBase::GenericFieldSpec::GetSourceString">
<polygon fill="white" stroke="black" points="632,-80.5 632,-101.5 996,-101.5 996,-80.5 632,-80.5"/>
<text text-anchor="middle" x="814" y="-88.5" font-family="Helvetica,sans-Serif" font-size="10.00">RoR::RigEditor::RigElementGuiPanelBase::GenericFieldSpec::GetSourceString</text>
</a>
</g>
<!-- Node3&#45;&gt;Node7 -->
<g id="edge12" class="edge"><title>Node3&#45;&gt;Node7</title>
<path fill="none" stroke="midnightblue" d="M590.503,-102.952C600.809,-102.401 611.269,-101.841 621.751,-101.281"/>
<polygon fill="midnightblue" stroke="midnightblue" points="622.004,-104.772 631.803,-100.743 621.63,-97.7822 622.004,-104.772"/>
</g>
<!-- Node8 -->
<g id="node15" class="node"><title>Node8</title>
<a xlink:href="struct_ro_r_1_1_rig_editor_1_1_rig_element_gui_panel_base_1_1_generic_field_spec.html#aadb1b90882ac5167d0f35e81238c1279" target="_top" xlink:title="RoR::RigEditor::RigElementGuiPanelBase::GenericFieldSpec::GetSourceRawPtr">
<polygon fill="white" stroke="black" points="628.5,-40.5 628.5,-61.5 999.5,-61.5 999.5,-40.5 628.5,-40.5"/>
<text text-anchor="middle" x="814" y="-48.5" font-family="Helvetica,sans-Serif" font-size="10.00">RoR::RigEditor::RigElementGuiPanelBase::GenericFieldSpec::GetSourceRawPtr</text>
</a>
</g>
<!-- Node3&#45;&gt;Node8 -->
<g id="edge14" class="edge"><title>Node3&#45;&gt;Node8</title>
<path fill="none" stroke="midnightblue" d="M483.449,-100.432C521.401,-91.5184 578.078,-78.9733 628,-71 647.569,-67.8746 668.375,-65.1029 688.718,-62.6938"/>
<polygon fill="midnightblue" stroke="midnightblue" points="689.13,-66.1696 698.66,-61.5404 688.323,-59.2163 689.13,-66.1696"/>
</g>
<!-- Node9 -->
<g id="node17" class="node"><title>Node9</title>
<a xlink:href="class_rig_def_1_1_node_1_1_id.html#a2e84af09c5b954252ed2af4a4bcfdeeb" target="_top" xlink:title="RigDef::Node::Id::ToString">
<polygon fill="white" stroke="black" points="747,-0.5 747,-21.5 881,-21.5 881,-0.5 747,-0.5"/>
<text text-anchor="middle" x="814" y="-8.5" font-family="Helvetica,sans-Serif" font-size="10.00">RigDef::Node::Id::ToString</text>
</a>
</g>
<!-- Node3&#45;&gt;Node9 -->
<g id="edge16" class="edge"><title>Node3&#45;&gt;Node9</title>
<path fill="none" stroke="midnightblue" d="M459.353,-100.481C492.705,-82.8836 563.638,-47.7583 628,-31 663.035,-21.8779 702.824,-16.9079 736.585,-14.2036"/>
<polygon fill="midnightblue" stroke="midnightblue" points="737.146,-17.6715 746.857,-13.435 736.624,-10.691 737.146,-17.6715"/>
</g>
</g>
</svg>
        <g id="navigator" transform="translate(0 0)" fill="#404254">
                <rect fill="#f2f5e9" fill-opacity="0.5" stroke="#606060" stroke-width=".5" x="0" y="0" width="60" height="60"/>
                <use id="zoomplus" xlink:href="#zoomPlus" x="17" y="9" onmousedown="handleZoom(evt,'in')"/>
                <use id="zoomminus" xlink:href="#zoomMin" x="42" y="9" onmousedown="handleZoom(evt,'out')"/>
                <use id="reset" xlink:href="#resetDef" x="30" y="36" onmousedown="handleReset()"/>
                <g id="arrowUp" xlink:href="#dirArrow" transform="translate(30 24)" onmousedown="handlePan(0,-1)">
                  <use xlink:href="#rim" fill="#404040">
                        <set attributeName="fill" to="#808080" begin="arrowUp.mouseover" end="arrowUp.mouseout"/>
                  </use>
                  <path fill="none" stroke="white" stroke-width="1.5" d="M0,-3.0v7 M-2.5,-0.5L0,-3.0L2.5,-0.5"/>
                </g>
                <g id="arrowRight" xlink:href="#dirArrow" transform="rotate(90) translate(36 -43)" onmousedown="handlePan(1,0)">
                  <use xlink:href="#rim" fill="#404040">
                        <set attributeName="fill" to="#808080" begin="arrowRight.mouseover" end="arrowRight.mouseout"/>
                  </use>
                  <path fill="none" stroke="white" stroke-width="1.5" d="M0,-3.0v7 M-2.5,-0.5L0,-3.0L2.5,-0.5"/>
                </g>
                <g id="arrowDown" xlink:href="#dirArrow" transform="rotate(180) translate(-30 -48)" onmousedown="handlePan(0,1)">
                  <use xlink:href="#rim" fill="#404040">
                        <set attributeName="fill" to="#808080" begin="arrowDown.mouseover" end="arrowDown.mouseout"/>
                  </use>
                  <path fill="none" stroke="white" stroke-width="1.5" d="M0,-3.0v7 M-2.5,-0.5L0,-3.0L2.5,-0.5"/>
                </g>
                <g id="arrowLeft" xlink:href="#dirArrow" transform="rotate(270) translate(-36 17)" onmousedown="handlePan(-1,0)">
                  <use xlink:href="#rim" fill="#404040">
                        <set attributeName="fill" to="#808080" begin="arrowLeft.mouseover" end="arrowLeft.mouseout"/>
                  </use>
                  <path fill="none" stroke="white" stroke-width="1.5" d="M0,-3.0v7 M-2.5,-0.5L0,-3.0L2.5,-0.5"/>
                </g>
        </g>
</svg>
