<?xml version="1.0" encoding="UTF-8" standalone="no"?>
<!DOCTYPE svg PUBLIC "-//W3C//DTD SVG 1.1//EN"
 "http://www.w3.org/Graphics/SVG/1.1/DTD/svg11.dtd">
<!-- Generated by graphviz version 2.26.3 (20100126.1600)
 -->
<!-- Title: BeamFactory::prepareShutdown Pages: 1 -->
<svg width="350pt" height="82pt"
 viewBox="0.00 0.00 350.00 82.00" xmlns="http://www.w3.org/2000/svg" xmlns:xlink="http://www.w3.org/1999/xlink">
<g id="graph1" class="graph" transform="scale(1 1) rotate(0) translate(4 78)">
<title>BeamFactory::prepareShutdown</title>
<polygon fill="white" stroke="white" points="-4,5 -4,-78 347,-78 347,5 -4,5"/>
<!-- Node1 -->
<g id="node1" class="node"><title>Node1</title>
<polygon fill="#bfbfbf" stroke="black" points="0.5,-23.5 0.5,-44.5 157.5,-44.5 157.5,-23.5 0.5,-23.5"/>
<text text-anchor="middle" x="79" y="-31.5" font-family="Helvetica,sans-Serif" font-size="10.00">BeamFactory::prepareShutdown</text>
</g>
<!-- Node2 -->
<g id="node3" class="node"><title>Node2</title>
<a xlink:href="class_ro_r_frame_listener.html#aa6eaa55e077cc9c45dbe4a6d7444a655" target="_top" xlink:title="RoRFrameListener::shutdown\l_final">
<polygon fill="white" stroke="black" points="194.5,-40 194.5,-74 341.5,-74 341.5,-40 194.5,-40"/>
<text text-anchor="start" x="202.5" y="-61" font-family="Helvetica,sans-Serif" font-size="10.00">RoRFrameListener::shutdown</text>
<text text-anchor="middle" x="268" y="-48" font-family="Helvetica,sans-Serif" font-size="10.00">_final</text>
</a>
</g>
<!-- Node1&#45;&gt;Node2 -->
<g id="edge2" class="edge"><title>Node1&#45;&gt;Node2</title>
<path fill="none" stroke="midnightblue" d="M167.559,-44.7771C176.501,-45.8652 185.514,-46.962 194.276,-48.0284"/>
<polygon fill="midnightblue" stroke="midnightblue" points="167.861,-41.288 157.511,-43.5543 167.015,-48.2367 167.861,-41.288"/>
</g>
<!-- Node3 -->
<g id="node5" class="node"><title>Node3</title>
<a xlink:href="class_ro_r_frame_listener.html#af2779b96aa0f91920bd100bc30261402" target="_top" xlink:title="RoRFrameListener::Restart">
<polygon fill="white" stroke="black" points="199.5,-0.5 199.5,-21.5 336.5,-21.5 336.5,-0.5 199.5,-0.5"/>
<text text-anchor="middle" x="268" y="-8.5" font-family="Helvetica,sans-Serif" font-size="10.00">RoRFrameListener::Restart</text>
</a>
</g>
<!-- Node1&#45;&gt;Node3 -->
<g id="edge4" class="edge"><title>Node1&#45;&gt;Node3</title>
<path fill="none" stroke="midnightblue" d="M167.672,-23.2092C178.321,-21.9134 189.068,-20.6055 199.371,-19.3517"/>
<polygon fill="midnightblue" stroke="midnightblue" points="167.015,-19.7633 157.511,-24.4457 167.861,-26.712 167.015,-19.7633"/>
</g>
</g>
</svg>
