<?xml version="1.0" encoding="UTF-8" standalone="no"?>
<!DOCTYPE svg PUBLIC "-//W3C//DTD SVG 1.1//EN"
 "http://www.w3.org/Graphics/SVG/1.1/DTD/svg11.dtd">
<!-- Generated by graphviz version 2.26.3 (20100126.1600)
 -->
<!-- Title: G Pages: 1 -->
<svg width="362pt" height="70pt"
 viewBox="0.00 0.00 362.00 70.00" xmlns="http://www.w3.org/2000/svg" xmlns:xlink="http://www.w3.org/1999/xlink">
<g id="graph1" class="graph" transform="scale(1 1) rotate(0) translate(4 66)">
<title>G</title>
<polygon fill="white" stroke="white" points="-4,5 -4,-66 359,-66 359,5 -4,5"/>
<!-- Node1 -->
<g id="node1" class="node"><title>Node1</title>
<polygon fill="#bfbfbf" stroke="black" points="0.5,-20.5 0.5,-41.5 183.5,-41.5 183.5,-20.5 0.5,-20.5"/>
<text text-anchor="middle" x="92" y="-28.5" font-family="Helvetica,sans-Serif" font-size="10.00">RoR::RigEditor::Rig::CreateNewNode</text>
</g>
<!-- Node2 -->
<g id="node3" class="node"><title>Node2</title>
<a xlink:href="class_rig_def_1_1_node_1_1_id.html#a0c74f13391cb2b7dd03b0810766a0c7d" target="_top" xlink:title="RigDef::Node::Id::SetNum">
<polygon fill="white" stroke="black" points="220.5,-40.5 220.5,-61.5 353.5,-61.5 353.5,-40.5 220.5,-40.5"/>
<text text-anchor="middle" x="287" y="-48.5" font-family="Helvetica,sans-Serif" font-size="10.00">RigDef::Node::Id::SetNum</text>
</a>
</g>
<!-- Node1&#45;&gt;Node2 -->
<g id="edge2" class="edge"><title>Node1&#45;&gt;Node2</title>
<path fill="none" stroke="midnightblue" d="M183.505,-40.3851C192.466,-41.3042 201.496,-42.2303 210.288,-43.1321"/>
<polygon fill="midnightblue" stroke="midnightblue" points="210.178,-46.6391 220.483,-44.1778 210.893,-39.6757 210.178,-46.6391"/>
</g>
<!-- Node3 -->
<g id="node5" class="node"><title>Node3</title>
<a xlink:href="class_rig_def_1_1_node_1_1_id.html#a83e169095cd7d288c1b94fb952a83f9b" target="_top" xlink:title="RigDef::Node::Id::Str">
<polygon fill="white" stroke="black" points="232,-0.5 232,-21.5 342,-21.5 342,-0.5 232,-0.5"/>
<text text-anchor="middle" x="287" y="-8.5" font-family="Helvetica,sans-Serif" font-size="10.00">RigDef::Node::Id::Str</text>
</a>
</g>
<!-- Node1&#45;&gt;Node3 -->
<g id="edge4" class="edge"><title>Node1&#45;&gt;Node3</title>
<path fill="none" stroke="midnightblue" d="M183.505,-21.6149C196.415,-20.2908 209.466,-18.9522 221.748,-17.6925"/>
<polygon fill="midnightblue" stroke="midnightblue" points="222.273,-21.1571 231.864,-16.655 221.559,-14.1937 222.273,-21.1571"/>
</g>
</g>
</svg>
