<?xml version="1.0" encoding="UTF-8" standalone="no"?>
<!DOCTYPE svg PUBLIC "-//W3C//DTD SVG 1.1//EN"
 "http://www.w3.org/Graphics/SVG/1.1/DTD/svg11.dtd">
<!-- Generated by graphviz version 2.26.3 (20100126.1600)
 -->
<!-- Title: GameScript::spawnObject Pages: 1 -->
<!--zoomable 684 -->
<svg id="main" version="1.1" xmlns="http://www.w3.org/2000/svg" xmlns:xlink="http://www.w3.org/1999/xlink" xml:space="preserve" onload="init(evt)">
<style type="text/css"><![CDATA[
.edge:hover path { stroke: red; }
.edge:hover polygon { stroke: red; fill: red; }
]]></style>
<script type="text/javascript"><![CDATA[
var edges = document.getElementsByTagName('g');
if (edges && edges.length) {
  for (var i=0;i<edges.length;i++) {
    if (edges[i].id.substr(0,4)=='edge') {
      edges[i].setAttribute('class','edge');
    }
  }
}
]]></script>
        <defs>
                <circle id="rim" cx="0" cy="0" r="7"/>
                <circle id="rim2" cx="0" cy="0" r="3.5"/>
                <g id="zoomPlus">
                        <use xlink:href="#rim" fill="#404040">
                                <set attributeName="fill" to="#808080" begin="zoomplus.mouseover" end="zoomplus.mouseout"/>
                        </use>
                        <path d="M-4,0h8M0,-4v8" fill="none" stroke="white" stroke-width="1.5" pointer-events="none"/>
                </g>
                <g id="zoomMin">
                        <use xlink:href="#rim" fill="#404040">
                                <set attributeName="fill" to="#808080" begin="zoomminus.mouseover" end="zoomminus.mouseout"/>
                        </use>
                        <path d="M-4,0h8" fill="none" stroke="white" stroke-width="1.5" pointer-events="none"/>
                </g>
                <g id="dirArrow">
                        <path fill="none" stroke="white" stroke-width="1.5" d="M0,-3.0v7 M-2.5,-0.5L0,-3.0L2.5,-0.5"/>
                </g>
               <g id="resetDef">
                       <use xlink:href="#rim2" fill="#404040">
                               <set attributeName="fill" to="#808080" begin="reset.mouseover" end="reset.mouseout"/>
                       </use>
               </g>
        </defs>

<script type="text/javascript">
var viewWidth = 986;
var viewHeight = 684;
var sectionId = 'dynsection-46';
</script>
<script xlink:href="svgpan.js"/>
<svg id="graph" class="graph">
<g id="viewport">
<title>GameScript::spawnObject</title>
<polygon fill="white" stroke="white" points="-4,5 -4,-680 983,-680 983,5 -4,5"/>
<!-- Node1 -->
<g id="node1" class="node"><title>Node1</title>
<polygon fill="#bfbfbf" stroke="black" points="0.5,-464.5 0.5,-485.5 131.5,-485.5 131.5,-464.5 0.5,-464.5"/>
<text text-anchor="middle" x="66" y="-472.5" font-family="Helvetica,sans-Serif" font-size="10.00">GameScript::spawnObject</text>
</g>
<!-- Node2 -->
<g id="node3" class="node"><title>Node2</title>
<a xlink:href="class_script_engine.html#a7095180117c3c139e609c3de96f67eb6" target="_top" xlink:title="ScriptEngine::getEngine">
<polygon fill="white" stroke="black" points="173,-510.5 173,-531.5 295,-531.5 295,-510.5 173,-510.5"/>
<text text-anchor="middle" x="234" y="-518.5" font-family="Helvetica,sans-Serif" font-size="10.00">ScriptEngine::getEngine</text>
</a>
</g>
<!-- Node1&#45;&gt;Node2 -->
<g id="edge2" class="edge"><title>Node1&#45;&gt;Node2</title>
<path fill="none" stroke="midnightblue" d="M104.543,-485.553C128.66,-492.157 159.931,-500.719 185.697,-507.774"/>
<polygon fill="midnightblue" stroke="midnightblue" points="185.067,-511.231 195.637,-510.496 186.916,-504.479 185.067,-511.231"/>
</g>
<!-- Node3 -->
<g id="node5" class="node"><title>Node3</title>
<a xlink:href="class_terrain_manager.html#a55891b7908baf6be96220a227596028c" target="_top" xlink:title="TerrainManager::getObject\lManager">
<polygon fill="white" stroke="black" points="168,-458 168,-492 300,-492 300,-458 168,-458"/>
<text text-anchor="start" x="176" y="-479" font-family="Helvetica,sans-Serif" font-size="10.00">TerrainManager::getObject</text>
<text text-anchor="middle" x="234" y="-466" font-family="Helvetica,sans-Serif" font-size="10.00">Manager</text>
</a>
</g>
<!-- Node1&#45;&gt;Node3 -->
<g id="edge4" class="edge"><title>Node1&#45;&gt;Node3</title>
<path fill="none" stroke="midnightblue" d="M131.916,-475C140.439,-475 149.223,-475 157.894,-475"/>
<polygon fill="midnightblue" stroke="midnightblue" points="157.999,-478.5 167.998,-475 157.998,-471.5 157.999,-478.5"/>
</g>
<!-- Node4 -->
<g id="node7" class="node"><title>Node4</title>
<a xlink:href="class_terrain_object_manager.html#a62a108ad201e16585ab3115befedae60" target="_top" xlink:title="TerrainObjectManager\l::loadObject">
<polygon fill="white" stroke="black" points="177.5,-406 177.5,-440 290.5,-440 290.5,-406 177.5,-406"/>
<text text-anchor="start" x="185.5" y="-427" font-family="Helvetica,sans-Serif" font-size="10.00">TerrainObjectManager</text>
<text text-anchor="middle" x="234" y="-414" font-family="Helvetica,sans-Serif" font-size="10.00">::loadObject</text>
</a>
</g>
<!-- Node1&#45;&gt;Node4 -->
<g id="edge6" class="edge"><title>Node1&#45;&gt;Node4</title>
<path fill="none" stroke="midnightblue" d="M99.9973,-464.477C119.885,-458.321 145.651,-450.346 169.27,-443.036"/>
<polygon fill="midnightblue" stroke="midnightblue" points="170.371,-446.359 178.889,-440.058 168.301,-439.672 170.371,-446.359"/>
</g>
<!-- Node5 -->
<g id="node9" class="node"><title>Node5</title>
<a xlink:href="class_ro_r_1_1_application.html#ac58b2c86e17a19b50bf305fbd7daad1a" target="_top" xlink:title="RoR::Application::GetCache\lSystem">
<polygon fill="white" stroke="black" points="338.5,-530 338.5,-564 479.5,-564 479.5,-530 338.5,-530"/>
<text text-anchor="start" x="346.5" y="-551" font-family="Helvetica,sans-Serif" font-size="10.00">RoR::Application::GetCache</text>
<text text-anchor="middle" x="409" y="-538" font-family="Helvetica,sans-Serif" font-size="10.00">System</text>
</a>
</g>
<!-- Node4&#45;&gt;Node5 -->
<g id="edge8" class="edge"><title>Node4&#45;&gt;Node5</title>
<path fill="none" stroke="midnightblue" d="M287.909,-440.19C292.257,-442.753 296.366,-445.674 300,-449 326.391,-473.156 309.213,-497.284 336,-521 337.316,-522.165 338.687,-523.279 340.106,-524.343"/>
<polygon fill="midnightblue" stroke="midnightblue" points="338.385,-527.399 348.675,-529.921 342.203,-521.532 338.385,-527.399"/>
</g>
<!-- Node6 -->
<g id="node11" class="node"><title>Node6</title>
<a xlink:href="class_mesh_object.html#ab5d7575b61e5751d3e6dd6bb476c3d89" target="_top" xlink:title="MeshObject::getEntity">
<polygon fill="white" stroke="black" points="352,-490.5 352,-511.5 466,-511.5 466,-490.5 352,-490.5"/>
<text text-anchor="middle" x="409" y="-498.5" font-family="Helvetica,sans-Serif" font-size="10.00">MeshObject::getEntity</text>
</a>
</g>
<!-- Node4&#45;&gt;Node6 -->
<g id="edge10" class="edge"><title>Node4&#45;&gt;Node6</title>
<path fill="none" stroke="midnightblue" d="M281.935,-440.114C288.134,-442.838 294.302,-445.817 300,-449 317.461,-458.753 318.323,-466.645 336,-476 343.915,-480.188 352.673,-483.894 361.295,-487.083"/>
<polygon fill="midnightblue" stroke="midnightblue" points="360.325,-490.452 370.919,-490.463 362.644,-483.847 360.325,-490.452"/>
</g>
<!-- Node7 -->
<g id="node13" class="node"><title>Node7</title>
<a xlink:href="class_collisions.html#a7840c7d5b2b56b4cc8f41778c0edb7a7" target="_top" xlink:title="Collisions::getGroundModel\lByString">
<polygon fill="white" stroke="black" points="525.5,-642 525.5,-676 662.5,-676 662.5,-642 525.5,-642"/>
<text text-anchor="start" x="533.5" y="-663" font-family="Helvetica,sans-Serif" font-size="10.00">Collisions::getGroundModel</text>
<text text-anchor="middle" x="594" y="-650" font-family="Helvetica,sans-Serif" font-size="10.00">ByString</text>
</a>
</g>
<!-- Node4&#45;&gt;Node7 -->
<g id="edge12" class="edge"><title>Node4&#45;&gt;Node7</title>
<path fill="none" stroke="midnightblue" d="M290.715,-434.694C361.775,-449.575 475.151,-474.17 482,-481 531.16,-530.021 471.349,-581.586 518,-633 518.773,-633.852 519.575,-634.676 520.404,-635.473"/>
<polygon fill="midnightblue" stroke="midnightblue" points="518.505,-638.436 528.503,-641.943 522.874,-632.967 518.505,-638.436"/>
</g>
<!-- Node8 -->
<g id="node15" class="node"><title>Node8</title>
<a xlink:href="class_collisions.html#a3f2acd0249632458dd92a551210f83a1" target="_top" xlink:title="Collisions::loadGroundModels\lConfigFile">
<polygon fill="white" stroke="black" points="336,-126 336,-160 482,-160 482,-126 336,-126"/>
<text text-anchor="start" x="344" y="-147" font-family="Helvetica,sans-Serif" font-size="10.00">Collisions::loadGroundModels</text>
<text text-anchor="middle" x="409" y="-134" font-family="Helvetica,sans-Serif" font-size="10.00">ConfigFile</text>
</a>
</g>
<!-- Node4&#45;&gt;Node8 -->
<g id="edge14" class="edge"><title>Node4&#45;&gt;Node8</title>
<path fill="none" stroke="midnightblue" d="M244.684,-405.906C274.278,-358.555 357.459,-225.465 392.795,-168.928"/>
<polygon fill="midnightblue" stroke="midnightblue" points="395.902,-170.561 398.234,-160.226 389.966,-166.851 395.902,-170.561"/>
</g>
<!-- Node18 -->
<g id="node36" class="node"><title>Node18</title>
<a xlink:href="class_collisions.html#a50cf1fc86be3b7e69b687256f6d5d1f3" target="_top" xlink:title="Collisions::addCollisionBox">
<polygon fill="white" stroke="black" points="341,-366.5 341,-387.5 477,-387.5 477,-366.5 341,-366.5"/>
<text text-anchor="middle" x="409" y="-374.5" font-family="Helvetica,sans-Serif" font-size="10.00">Collisions::addCollisionBox</text>
</a>
</g>
<!-- Node4&#45;&gt;Node18 -->
<g id="edge36" class="edge"><title>Node4&#45;&gt;Node18</title>
<path fill="none" stroke="midnightblue" d="M290.817,-408.065C312.788,-402.29 337.713,-395.738 358.991,-390.145"/>
<polygon fill="midnightblue" stroke="midnightblue" points="360.017,-393.494 368.799,-387.567 358.238,-386.724 360.017,-393.494"/>
</g>
<!-- Node27 -->
<g id="node54" class="node"><title>Node27</title>
<a xlink:href="class_collisions.html#a285399f2b679c1d0b649b71aa805d5f3" target="_top" xlink:title="Collisions::addCollisionMesh">
<polygon fill="white" stroke="black" points="337.5,-412.5 337.5,-433.5 480.5,-433.5 480.5,-412.5 337.5,-412.5"/>
<text text-anchor="middle" x="409" y="-420.5" font-family="Helvetica,sans-Serif" font-size="10.00">Collisions::addCollisionMesh</text>
</a>
</g>
<!-- Node4&#45;&gt;Node27 -->
<g id="edge54" class="edge"><title>Node4&#45;&gt;Node27</title>
<path fill="none" stroke="midnightblue" d="M290.817,-423C302.435,-423 314.879,-423 327.173,-423"/>
<polygon fill="midnightblue" stroke="midnightblue" points="327.443,-426.5 337.443,-423 327.443,-419.5 327.443,-426.5"/>
</g>
<!-- Node30 -->
<g id="node68" class="node"><title>Node30</title>
<a xlink:href="_write_text_to_texture_8cpp.html#aea60ee51eec1472dda3937abca0f1ecb" target="_top" xlink:title="WriteToTexture">
<polygon fill="white" stroke="black" points="367,-86.5 367,-107.5 451,-107.5 451,-86.5 367,-86.5"/>
<text text-anchor="middle" x="409" y="-94.5" font-family="Helvetica,sans-Serif" font-size="10.00">WriteToTexture</text>
</a>
</g>
<!-- Node4&#45;&gt;Node30 -->
<g id="edge76" class="edge"><title>Node4&#45;&gt;Node30</title>
<path fill="none" stroke="midnightblue" d="M237.476,-405.968C249.663,-347.842 292.089,-158.587 336,-117 341.969,-111.347 349.38,-107.262 357.173,-104.317"/>
<polygon fill="midnightblue" stroke="midnightblue" points="358.324,-107.624 366.795,-101.261 356.205,-100.953 358.324,-107.624"/>
</g>
<!-- Node9 -->
<g id="node17" class="node"><title>Node9</title>
<a xlink:href="struct_error_utils.html#aec73b03c7829838888bbecf9acda1b98" target="_top" xlink:title="ErrorUtils::ShowError">
<polygon fill="white" stroke="black" points="539,-172.5 539,-193.5 649,-193.5 649,-172.5 539,-172.5"/>
<text text-anchor="middle" x="594" y="-180.5" font-family="Helvetica,sans-Serif" font-size="10.00">ErrorUtils::ShowError</text>
</a>
</g>
<!-- Node8&#45;&gt;Node9 -->
<g id="edge16" class="edge"><title>Node8&#45;&gt;Node9</title>
<path fill="none" stroke="midnightblue" d="M482.117,-158.809C499.681,-162.607 518.221,-166.615 535.048,-170.254"/>
<polygon fill="midnightblue" stroke="midnightblue" points="534.766,-173.774 545.28,-172.466 536.246,-166.932 534.766,-173.774"/>
</g>
<!-- Node11 -->
<g id="node21" class="node"><title>Node11</title>
<a xlink:href="class_collisions.html#aaa893c509f9b9b77459d50e3bef2c6ff" target="_top" xlink:title="Collisions::parseGroundConfig">
<polygon fill="white" stroke="black" points="519.5,-132.5 519.5,-153.5 668.5,-153.5 668.5,-132.5 519.5,-132.5"/>
<text text-anchor="middle" x="594" y="-140.5" font-family="Helvetica,sans-Serif" font-size="10.00">Collisions::parseGroundConfig</text>
</a>
</g>
<!-- Node8&#45;&gt;Node11 -->
<g id="edge20" class="edge"><title>Node8&#45;&gt;Node11</title>
<path fill="none" stroke="midnightblue" d="M482.117,-143C490.996,-143 500.125,-143 509.155,-143"/>
<polygon fill="midnightblue" stroke="midnightblue" points="509.291,-146.5 519.291,-143 509.291,-139.5 509.291,-146.5"/>
</g>
<!-- Node14 -->
<g id="node27" class="node"><title>Node14</title>
<a xlink:href="struct_error_utils.html#a5877046712b57723ec40772afd980378" target="_top" xlink:title="ErrorUtils::ShowOgreWebError">
<polygon fill="white" stroke="black" points="518.5,-92.5 518.5,-113.5 669.5,-113.5 669.5,-92.5 518.5,-92.5"/>
<text text-anchor="middle" x="594" y="-100.5" font-family="Helvetica,sans-Serif" font-size="10.00">ErrorUtils::ShowOgreWebError</text>
</a>
</g>
<!-- Node8&#45;&gt;Node14 -->
<g id="edge26" class="edge"><title>Node8&#45;&gt;Node14</title>
<path fill="none" stroke="midnightblue" d="M482.117,-127.191C499.681,-123.393 518.221,-119.385 535.048,-115.746"/>
<polygon fill="midnightblue" stroke="midnightblue" points="536.246,-119.068 545.28,-113.534 534.766,-112.226 536.246,-119.068"/>
</g>
<!-- Node16 -->
<g id="node31" class="node"><title>Node16</title>
<a xlink:href="struct_error_utils.html#a456df0e866bb9548a583476db551ca09" target="_top" xlink:title="ErrorUtils::ShowStoredOgre\lWebErrors">
<polygon fill="white" stroke="black" points="525,-40 525,-74 663,-74 663,-40 525,-40"/>
<text text-anchor="start" x="533" y="-61" font-family="Helvetica,sans-Serif" font-size="10.00">ErrorUtils::ShowStoredOgre</text>
<text text-anchor="middle" x="594" y="-48" font-family="Helvetica,sans-Serif" font-size="10.00">WebErrors</text>
</a>
</g>
<!-- Node8&#45;&gt;Node16 -->
<g id="edge30" class="edge"><title>Node8&#45;&gt;Node16</title>
<path fill="none" stroke="midnightblue" d="M464.74,-125.91C470.735,-123.268 476.608,-120.302 482,-117 500.768,-105.506 499.16,-94.3759 518,-83 520.66,-81.3939 523.432,-79.8704 526.278,-78.4273"/>
<polygon fill="midnightblue" stroke="midnightblue" points="527.986,-81.4926 535.565,-74.0895 525.024,-75.1503 527.986,-81.4926"/>
</g>
<!-- Node17 -->
<g id="node34" class="node"><title>Node17</title>
<a xlink:href="namespace_profiler.html#af79bb59414ef3ba134213bb6f2f2d292" target="_top" xlink:title="Profiler::exit">
<polygon fill="white" stroke="black" points="559.5,-0.5 559.5,-21.5 628.5,-21.5 628.5,-0.5 559.5,-0.5"/>
<text text-anchor="middle" x="594" y="-8.5" font-family="Helvetica,sans-Serif" font-size="10.00">Profiler::exit</text>
</a>
</g>
<!-- Node8&#45;&gt;Node17 -->
<g id="edge34" class="edge"><title>Node8&#45;&gt;Node17</title>
<path fill="none" stroke="midnightblue" d="M469.931,-125.987C474.292,-123.4 478.386,-120.423 482,-117 512.084,-88.5063 486.735,-58.1924 518,-31 526.838,-23.3131 538.296,-18.5327 549.622,-15.5737"/>
<polygon fill="midnightblue" stroke="midnightblue" points="550.453,-18.9747 559.472,-13.4151 548.955,-12.137 550.453,-18.9747"/>
</g>
<!-- Node10 -->
<g id="node19" class="node"><title>Node10</title>
<a xlink:href="struct_error_utils.html#a3250a36825c8b55b26d1565addb7e922" target="_top" xlink:title="ErrorUtils::ShowMsgBox">
<polygon fill="white" stroke="black" points="708.5,-172.5 708.5,-193.5 833.5,-193.5 833.5,-172.5 708.5,-172.5"/>
<text text-anchor="middle" x="771" y="-180.5" font-family="Helvetica,sans-Serif" font-size="10.00">ErrorUtils::ShowMsgBox</text>
</a>
</g>
<!-- Node9&#45;&gt;Node10 -->
<g id="edge18" class="edge"><title>Node9&#45;&gt;Node10</title>
<path fill="none" stroke="midnightblue" d="M649.034,-183C664.581,-183 681.744,-183 698.165,-183"/>
<polygon fill="midnightblue" stroke="midnightblue" points="698.271,-186.5 708.271,-183 698.271,-179.5 698.271,-186.5"/>
</g>
<!-- Node12 -->
<g id="node23" class="node"><title>Node12</title>
<a xlink:href="scriptstdstring_8cpp.html#ab33d705eee9afd65e8991f82d9c71fe3" target="_top" xlink:title="parseInt">
<polygon fill="white" stroke="black" points="745,-132.5 745,-153.5 797,-153.5 797,-132.5 745,-132.5"/>
<text text-anchor="middle" x="771" y="-140.5" font-family="Helvetica,sans-Serif" font-size="10.00">parseInt</text>
</a>
</g>
<!-- Node11&#45;&gt;Node12 -->
<g id="edge22" class="edge"><title>Node11&#45;&gt;Node12</title>
<path fill="none" stroke="midnightblue" d="M668.551,-143C691.509,-143 715.752,-143 734.889,-143"/>
<polygon fill="midnightblue" stroke="midnightblue" points="734.954,-146.5 744.954,-143 734.954,-139.5 734.954,-146.5"/>
</g>
<!-- Node13 -->
<g id="node25" class="node"><title>Node13</title>
<a xlink:href="_approx_math_8h.html#ad685178dbcfdd207c7306561512e1582" target="_top" xlink:title="sign">
<polygon fill="white" stroke="black" points="907.5,-132.5 907.5,-153.5 942.5,-153.5 942.5,-132.5 907.5,-132.5"/>
<text text-anchor="middle" x="925" y="-140.5" font-family="Helvetica,sans-Serif" font-size="10.00">sign</text>
</a>
</g>
<!-- Node12&#45;&gt;Node13 -->
<g id="edge24" class="edge"><title>Node12&#45;&gt;Node13</title>
<path fill="none" stroke="midnightblue" d="M797.124,-143C824.974,-143 868.896,-143 897.326,-143"/>
<polygon fill="midnightblue" stroke="midnightblue" points="897.398,-146.5 907.398,-143 897.398,-139.5 897.398,-146.5"/>
</g>
<!-- Node15 -->
<g id="node29" class="node"><title>Node15</title>
<a xlink:href="struct_error_utils.html#a03b1f233c5e57c4a7418b1d1ca072343" target="_top" xlink:title="ErrorUtils::ShowWebError">
<polygon fill="white" stroke="black" points="706,-69.5 706,-90.5 836,-90.5 836,-69.5 706,-69.5"/>
<text text-anchor="middle" x="771" y="-77.5" font-family="Helvetica,sans-Serif" font-size="10.00">ErrorUtils::ShowWebError</text>
</a>
</g>
<!-- Node14&#45;&gt;Node15 -->
<g id="edge28" class="edge"><title>Node14&#45;&gt;Node15</title>
<path fill="none" stroke="midnightblue" d="M669.577,-93.1792C678.289,-92.0472 687.172,-90.8929 695.878,-89.7616"/>
<polygon fill="midnightblue" stroke="midnightblue" points="696.53,-93.2064 705.996,-88.4469 695.628,-86.2647 696.53,-93.2064"/>
</g>
<!-- Node16&#45;&gt;Node15 -->
<g id="edge32" class="edge"><title>Node16&#45;&gt;Node15</title>
<path fill="none" stroke="midnightblue" d="M663.193,-65.9912C673.847,-67.3757 684.894,-68.8111 695.674,-70.2119"/>
<polygon fill="midnightblue" stroke="midnightblue" points="695.538,-73.7236 705.906,-71.5415 696.441,-66.782 695.538,-73.7236"/>
</g>
<!-- Node19 -->
<g id="node38" class="node"><title>Node19</title>
<a xlink:href="class_ogre_1_1_movable_text.html#aed27a49ecadb3905afb7b5de4409d799" target="_top" xlink:title="Ogre::MovableText::\lsetFontName">
<polygon fill="white" stroke="black" points="541,-458 541,-492 647,-492 647,-458 541,-458"/>
<text text-anchor="start" x="549" y="-479" font-family="Helvetica,sans-Serif" font-size="10.00">Ogre::MovableText::</text>
<text text-anchor="middle" x="594" y="-466" font-family="Helvetica,sans-Serif" font-size="10.00">setFontName</text>
</a>
</g>
<!-- Node18&#45;&gt;Node19 -->
<g id="edge38" class="edge"><title>Node18&#45;&gt;Node19</title>
<path fill="none" stroke="midnightblue" d="M451.544,-387.629C462.082,-391.443 472.941,-396.472 482,-403 503.062,-418.178 496.844,-433.954 518,-449 522.224,-452.004 526.824,-454.684 531.602,-457.071"/>
<polygon fill="midnightblue" stroke="midnightblue" points="530.402,-460.37 540.956,-461.307 533.29,-453.993 530.402,-460.37"/>
</g>
<!-- Node20 -->
<g id="node40" class="node"><title>Node20</title>
<a xlink:href="class_ogre_1_1_movable_text.html#a8fc0b2d13ba89695e53152ad1c435306" target="_top" xlink:title="Ogre::MovableText::\lsetTextAlignment">
<polygon fill="white" stroke="black" points="541,-406 541,-440 647,-440 647,-406 541,-406"/>
<text text-anchor="start" x="549" y="-427" font-family="Helvetica,sans-Serif" font-size="10.00">Ogre::MovableText::</text>
<text text-anchor="middle" x="594" y="-414" font-family="Helvetica,sans-Serif" font-size="10.00">setTextAlignment</text>
</a>
</g>
<!-- Node18&#45;&gt;Node20 -->
<g id="edge40" class="edge"><title>Node18&#45;&gt;Node20</title>
<path fill="none" stroke="midnightblue" d="M451.443,-387.553C474.996,-393.41 504.746,-400.807 530.968,-407.327"/>
<polygon fill="midnightblue" stroke="midnightblue" points="530.276,-410.762 540.825,-409.778 531.965,-403.968 530.276,-410.762"/>
</g>
<!-- Node21 -->
<g id="node42" class="node"><title>Node21</title>
<a xlink:href="class_ogre_1_1_movable_text.html#a0e4f2340efd854e591e07fb4bebcbeaa" target="_top" xlink:title="Ogre::MovableText::\lsetAdditionalHeight">
<polygon fill="white" stroke="black" points="541,-354 541,-388 647,-388 647,-354 541,-354"/>
<text text-anchor="start" x="549" y="-375" font-family="Helvetica,sans-Serif" font-size="10.00">Ogre::MovableText::</text>
<text text-anchor="middle" x="594" y="-362" font-family="Helvetica,sans-Serif" font-size="10.00">setAdditionalHeight</text>
</a>
</g>
<!-- Node18&#45;&gt;Node21 -->
<g id="edge42" class="edge"><title>Node18&#45;&gt;Node21</title>
<path fill="none" stroke="midnightblue" d="M477.099,-374.791C494.504,-374.227 513.15,-373.622 530.324,-373.065"/>
<polygon fill="midnightblue" stroke="midnightblue" points="530.921,-376.548 540.802,-372.725 530.694,-369.551 530.921,-376.548"/>
</g>
<!-- Node22 -->
<g id="node44" class="node"><title>Node22</title>
<a xlink:href="class_ogre_1_1_movable_text.html#a88bb2321dd352795dfeff306928e48bc" target="_top" xlink:title="Ogre::MovableText::\lshowOnTop">
<polygon fill="white" stroke="black" points="541,-302 541,-336 647,-336 647,-302 541,-302"/>
<text text-anchor="start" x="549" y="-323" font-family="Helvetica,sans-Serif" font-size="10.00">Ogre::MovableText::</text>
<text text-anchor="middle" x="594" y="-310" font-family="Helvetica,sans-Serif" font-size="10.00">showOnTop</text>
</a>
</g>
<!-- Node18&#45;&gt;Node22 -->
<g id="edge44" class="edge"><title>Node18&#45;&gt;Node22</title>
<path fill="none" stroke="midnightblue" d="M442.502,-366.497C467.106,-358.783 501.267,-348.073 530.923,-338.775"/>
<polygon fill="midnightblue" stroke="midnightblue" points="532.293,-342.014 540.788,-335.683 530.199,-335.335 532.293,-342.014"/>
</g>
<!-- Node23 -->
<g id="node46" class="node"><title>Node23</title>
<a xlink:href="class_ogre_1_1_movable_text.html#a0562e7c4341e263ae6e9d55f91643ade" target="_top" xlink:title="Ogre::MovableText::\lsetCharacterHeight">
<polygon fill="white" stroke="black" points="541,-250 541,-284 647,-284 647,-250 541,-250"/>
<text text-anchor="start" x="549" y="-271" font-family="Helvetica,sans-Serif" font-size="10.00">Ogre::MovableText::</text>
<text text-anchor="middle" x="594" y="-258" font-family="Helvetica,sans-Serif" font-size="10.00">setCharacterHeight</text>
</a>
</g>
<!-- Node18&#45;&gt;Node23 -->
<g id="edge46" class="edge"><title>Node18&#45;&gt;Node23</title>
<path fill="none" stroke="midnightblue" d="M420.212,-366.311C439.053,-348.846 478.857,-314.035 518,-293 522.23,-290.727 526.698,-288.595 531.262,-286.607"/>
<polygon fill="midnightblue" stroke="midnightblue" points="532.796,-289.761 540.722,-282.73 530.141,-283.284 532.796,-289.761"/>
</g>
<!-- Node24 -->
<g id="node48" class="node"><title>Node24</title>
<a xlink:href="class_ogre_1_1_movable_text.html#a7ed5e440d32fee6180e6eaa7094b3f5c" target="_top" xlink:title="Ogre::MovableText::\lsetColor">
<polygon fill="white" stroke="black" points="541,-510 541,-544 647,-544 647,-510 541,-510"/>
<text text-anchor="start" x="549" y="-531" font-family="Helvetica,sans-Serif" font-size="10.00">Ogre::MovableText::</text>
<text text-anchor="middle" x="594" y="-518" font-family="Helvetica,sans-Serif" font-size="10.00">setColor</text>
</a>
</g>
<!-- Node18&#45;&gt;Node24 -->
<g id="edge48" class="edge"><title>Node18&#45;&gt;Node24</title>
<path fill="none" stroke="midnightblue" d="M457.635,-387.58C466.575,-391.286 475.212,-396.279 482,-403 514.973,-435.648 484.824,-468.559 518,-501 521.988,-504.9 526.586,-508.216 531.504,-511.035"/>
<polygon fill="midnightblue" stroke="midnightblue" points="530.132,-514.262 540.643,-515.592 533.256,-507.997 530.132,-514.262"/>
</g>
<!-- Node25 -->
<g id="node50" class="node"><title>Node25</title>
<a xlink:href="class_collisions.html#ab8dc3b86fee4e2aa47927bfeabe2ddfe" target="_top" xlink:title="Collisions::hash_add">
<polygon fill="white" stroke="black" points="717.5,-407.5 717.5,-428.5 824.5,-428.5 824.5,-407.5 717.5,-407.5"/>
<text text-anchor="middle" x="771" y="-415.5" font-family="Helvetica,sans-Serif" font-size="10.00">Collisions::hash_add</text>
</a>
</g>
<!-- Node18&#45;&gt;Node25 -->
<g id="edge50" class="edge"><title>Node18&#45;&gt;Node25</title>
<path fill="none" stroke="midnightblue" d="M413.596,-366.154C425.823,-338.906 462.08,-267.846 518,-241 578.901,-211.763 611.581,-207.074 670,-241 729.034,-275.283 756.456,-358.44 766.381,-397.319"/>
<polygon fill="midnightblue" stroke="midnightblue" points="763.077,-398.548 768.823,-407.449 769.882,-396.908 763.077,-398.548"/>
</g>
<!-- Node26 -->
<g id="node52" class="node"><title>Node26</title>
<a xlink:href="class_collisions.html#a7e21c069d16d661d211d0cb896577edf" target="_top" xlink:title="Collisions::hashfunc">
<polygon fill="white" stroke="black" points="872.5,-407.5 872.5,-428.5 977.5,-428.5 977.5,-407.5 872.5,-407.5"/>
<text text-anchor="middle" x="925" y="-415.5" font-family="Helvetica,sans-Serif" font-size="10.00">Collisions::hashfunc</text>
</a>
</g>
<!-- Node25&#45;&gt;Node26 -->
<g id="edge52" class="edge"><title>Node25&#45;&gt;Node26</title>
<path fill="none" stroke="midnightblue" d="M824.862,-418C836.924,-418 849.82,-418 862.209,-418"/>
<polygon fill="midnightblue" stroke="midnightblue" points="862.466,-421.5 872.466,-418 862.466,-414.5 862.466,-421.5"/>
</g>
<!-- Node27&#45;&gt;Node7 -->
<g id="edge56" class="edge"><title>Node27&#45;&gt;Node7</title>
<path fill="none" stroke="midnightblue" d="M461.831,-433.521C469.451,-437.041 476.545,-441.737 482,-448 537.014,-511.166 462.976,-569.842 518,-633 518.733,-633.841 519.494,-634.655 520.281,-635.443"/>
<polygon fill="midnightblue" stroke="midnightblue" points="518.068,-638.154 527.999,-641.845 522.537,-632.767 518.068,-638.154"/>
</g>
<!-- Node27&#45;&gt;Node19 -->
<g id="edge64" class="edge"><title>Node27&#45;&gt;Node19</title>
<path fill="none" stroke="midnightblue" d="M446.438,-433.523C470.71,-440.346 502.936,-449.404 531.079,-457.314"/>
<polygon fill="midnightblue" stroke="midnightblue" points="530.269,-460.722 540.843,-460.059 532.163,-453.983 530.269,-460.722"/>
</g>
<!-- Node27&#45;&gt;Node20 -->
<g id="edge66" class="edge"><title>Node27&#45;&gt;Node20</title>
<path fill="none" stroke="midnightblue" d="M480.526,-423C496.957,-423 514.32,-423 530.391,-423"/>
<polygon fill="midnightblue" stroke="midnightblue" points="530.741,-426.5 540.741,-423 530.741,-419.5 530.741,-426.5"/>
</g>
<!-- Node27&#45;&gt;Node21 -->
<g id="edge68" class="edge"><title>Node27&#45;&gt;Node21</title>
<path fill="none" stroke="midnightblue" d="M446.438,-412.477C470.71,-405.654 502.936,-396.596 531.079,-388.686"/>
<polygon fill="midnightblue" stroke="midnightblue" points="532.163,-392.017 540.843,-385.941 530.269,-385.278 532.163,-392.017"/>
</g>
<!-- Node27&#45;&gt;Node22 -->
<g id="edge70" class="edge"><title>Node27&#45;&gt;Node22</title>
<path fill="none" stroke="midnightblue" d="M452.573,-412.452C462.865,-408.663 473.349,-403.627 482,-397 504.314,-379.906 495.579,-361.954 518,-345 522.135,-341.873 526.671,-339.107 531.405,-336.661"/>
<polygon fill="midnightblue" stroke="midnightblue" points="533.104,-339.731 540.699,-332.344 530.156,-333.383 533.104,-339.731"/>
</g>
<!-- Node27&#45;&gt;Node23 -->
<g id="edge72" class="edge"><title>Node27&#45;&gt;Node23</title>
<path fill="none" stroke="midnightblue" d="M458.112,-412.362C466.909,-408.664 475.371,-403.689 482,-397 516.432,-362.259 483.351,-327.524 518,-293 522.013,-289.001 526.667,-285.617 531.656,-282.753"/>
<polygon fill="midnightblue" stroke="midnightblue" points="533.539,-285.725 540.934,-278.138 530.421,-279.458 533.539,-285.725"/>
</g>
<!-- Node27&#45;&gt;Node24 -->
<g id="edge74" class="edge"><title>Node27&#45;&gt;Node24</title>
<path fill="none" stroke="midnightblue" d="M454.516,-433.535C464.186,-437.109 473.908,-441.822 482,-448 504.634,-465.279 495.363,-483.724 518,-501 522.121,-504.145 526.647,-506.925 531.375,-509.379"/>
<polygon fill="midnightblue" stroke="midnightblue" points="530.117,-512.654 540.66,-513.708 533.075,-506.31 530.117,-512.654"/>
</g>
<!-- Node28 -->
<g id="node57" class="node"><title>Node28</title>
<a xlink:href="class_collisions.html#a2ef942fa770bd57c5638465d58bed210" target="_top" xlink:title="Collisions::getMeshInformation">
<polygon fill="white" stroke="black" points="518,-562.5 518,-583.5 670,-583.5 670,-562.5 518,-562.5"/>
<text text-anchor="middle" x="594" y="-570.5" font-family="Helvetica,sans-Serif" font-size="10.00">Collisions::getMeshInformation</text>
</a>
</g>
<!-- Node27&#45;&gt;Node28 -->
<g id="edge58" class="edge"><title>Node27&#45;&gt;Node28</title>
<path fill="none" stroke="midnightblue" d="M459.612,-433.542C467.866,-437.06 475.747,-441.749 482,-448 516.89,-482.878 481.867,-519.412 518,-553 519.664,-554.547 521.434,-555.978 523.288,-557.3"/>
<polygon fill="midnightblue" stroke="midnightblue" points="521.512,-560.316 531.893,-562.434 525.098,-554.305 521.512,-560.316"/>
</g>
<!-- Node29 -->
<g id="node59" class="node"><title>Node29</title>
<a xlink:href="class_collisions.html#a44e7f403a680e597a54209b2873b6e28" target="_top" xlink:title="Collisions::addCollisionTri">
<polygon fill="white" stroke="black" points="529,-602.5 529,-623.5 659,-623.5 659,-602.5 529,-602.5"/>
<text text-anchor="middle" x="594" y="-610.5" font-family="Helvetica,sans-Serif" font-size="10.00">Collisions::addCollisionTri</text>
</a>
</g>
<!-- Node27&#45;&gt;Node29 -->
<g id="edge60" class="edge"><title>Node27&#45;&gt;Node29</title>
<path fill="none" stroke="midnightblue" d="M461.187,-433.596C468.979,-437.107 476.296,-441.78 482,-448 526.876,-496.941 471.377,-545.721 518,-593 519.284,-594.302 520.643,-595.523 522.063,-596.667"/>
<polygon fill="midnightblue" stroke="midnightblue" points="520.529,-599.848 530.808,-602.418 524.376,-593.999 520.529,-599.848"/>
</g>
<!-- Node29&#45;&gt;Node25 -->
<g id="edge62" class="edge"><title>Node29&#45;&gt;Node25</title>
<path fill="none" stroke="midnightblue" d="M653.452,-602.396C659.364,-599.896 665.013,-596.81 670,-593 723.28,-552.299 753.302,-474.824 765.095,-438.174"/>
<polygon fill="midnightblue" stroke="midnightblue" points="768.448,-439.177 768.059,-428.589 761.761,-437.108 768.448,-439.177"/>
</g>
</g>
</svg>
        <g id="navigator" transform="translate(0 0)" fill="#404254">
                <rect fill="#f2f5e9" fill-opacity="0.5" stroke="#606060" stroke-width=".5" x="0" y="0" width="60" height="60"/>
                <use id="zoomplus" xlink:href="#zoomPlus" x="17" y="9" onmousedown="handleZoom(evt,'in')"/>
                <use id="zoomminus" xlink:href="#zoomMin" x="42" y="9" onmousedown="handleZoom(evt,'out')"/>
                <use id="reset" xlink:href="#resetDef" x="30" y="36" onmousedown="handleReset()"/>
                <g id="arrowUp" xlink:href="#dirArrow" transform="translate(30 24)" onmousedown="handlePan(0,-1)">
                  <use xlink:href="#rim" fill="#404040">
                        <set attributeName="fill" to="#808080" begin="arrowUp.mouseover" end="arrowUp.mouseout"/>
                  </use>
                  <path fill="none" stroke="white" stroke-width="1.5" d="M0,-3.0v7 M-2.5,-0.5L0,-3.0L2.5,-0.5"/>
                </g>
                <g id="arrowRight" xlink:href="#dirArrow" transform="rotate(90) translate(36 -43)" onmousedown="handlePan(1,0)">
                  <use xlink:href="#rim" fill="#404040">
                        <set attributeName="fill" to="#808080" begin="arrowRight.mouseover" end="arrowRight.mouseout"/>
                  </use>
                  <path fill="none" stroke="white" stroke-width="1.5" d="M0,-3.0v7 M-2.5,-0.5L0,-3.0L2.5,-0.5"/>
                </g>
                <g id="arrowDown" xlink:href="#dirArrow" transform="rotate(180) translate(-30 -48)" onmousedown="handlePan(0,1)">
                  <use xlink:href="#rim" fill="#404040">
                        <set attributeName="fill" to="#808080" begin="arrowDown.mouseover" end="arrowDown.mouseout"/>
                  </use>
                  <path fill="none" stroke="white" stroke-width="1.5" d="M0,-3.0v7 M-2.5,-0.5L0,-3.0L2.5,-0.5"/>
                </g>
                <g id="arrowLeft" xlink:href="#dirArrow" transform="rotate(270) translate(-36 17)" onmousedown="handlePan(-1,0)">
                  <use xlink:href="#rim" fill="#404040">
                        <set attributeName="fill" to="#808080" begin="arrowLeft.mouseover" end="arrowLeft.mouseout"/>
                  </use>
                  <path fill="none" stroke="white" stroke-width="1.5" d="M0,-3.0v7 M-2.5,-0.5L0,-3.0L2.5,-0.5"/>
                </g>
        </g>
        <svg viewBox="0 0 15 15" width="100%" height="30px" preserveAspectRatio="xMaxYMin meet">
         <g id="arrow_out" transform="scale(0.3 0.3)">
          <a xlink:href="class_game_script_adc155d46516906fb9bfddde649c02ee6_cgraph_org.svg" target="_base">
           <rect id="button" ry="5" rx="5" y="6" x="6" height="38" width="38"
                fill="#f2f5e9" fill-opacity="0.5" stroke="#606060" stroke-width="1.0"/>
           <path id="arrow"
             d="M 11.500037,31.436501 C 11.940474,20.09759 22.043105,11.32322 32.158766,21.979434 L 37.068811,17.246167 C 37.068811,17.246167 37.088388,32 37.088388,32 L 22.160133,31.978069 C 22.160133,31.978069 26.997745,27.140456 26.997745,27.140456 C 18.528582,18.264221 13.291696,25.230495 11.500037,31.436501 z"
             style="fill:#404040;"/>
          </a>
         </g>
        </svg>
</svg>
