<?xml version="1.0" encoding="UTF-8" standalone="no"?>
<!DOCTYPE svg PUBLIC "-//W3C//DTD SVG 1.1//EN"
 "http://www.w3.org/Graphics/SVG/1.1/DTD/svg11.dtd">
<!-- Generated by graphviz version 2.26.3 (20100126.1600)
 -->
<!-- Title: RoR::Application::GetOgreSubsystem Pages: 1 -->
<svg width="1868pt" height="1171pt"
 viewBox="0.00 0.00 1868.00 1170.85" xmlns="http://www.w3.org/2000/svg" xmlns:xlink="http://www.w3.org/1999/xlink">
<g id="graph1" class="graph" transform="scale(1 1) rotate(0) translate(4 1166.85)">
<title>RoR::Application::GetOgreSubsystem</title>
<polygon fill="white" stroke="white" points="-4,5 -4,-1166.85 1865,-1166.85 1865,5 -4,5"/>
<!-- Node1 -->
<g id="node1" class="node"><title>Node1</title>
<polygon fill="#bfbfbf" stroke="black" points="0,-564.846 0,-598.846 134,-598.846 134,-564.846 0,-564.846"/>
<text text-anchor="start" x="8" y="-585.846" font-family="Helvetica,sans-Serif" font-size="10.00">RoR::Application::GetOgre</text>
<text text-anchor="middle" x="67" y="-572.846" font-family="Helvetica,sans-Serif" font-size="10.00">Subsystem</text>
</g>
<!-- Node2 -->
<g id="node3" class="node"><title>Node2</title>
<a xlink:href="class_ro_r_frame_listener.html#a6b384193b130f7c1fff95d2e740a370e" target="_top" xlink:title="RoRFrameListener::update\lEvents">
<polygon fill="white" stroke="black" points="196,-1128.85 196,-1162.85 330,-1162.85 330,-1128.85 196,-1128.85"/>
<text text-anchor="start" x="204" y="-1149.85" font-family="Helvetica,sans-Serif" font-size="10.00">RoRFrameListener::update</text>
<text text-anchor="middle" x="263" y="-1136.85" font-family="Helvetica,sans-Serif" font-size="10.00">Events</text>
</a>
</g>
<!-- Node1&#45;&gt;Node2 -->
<g id="edge2" class="edge"><title>Node1&#45;&gt;Node2</title>
<path fill="none" stroke="midnightblue" d="M68.7143,-609.329C75.3558,-707.318 102.459,-1037.83 170,-1114.85 176.958,-1122.78 186,-1128.69 195.709,-1133.09"/>
<polygon fill="midnightblue" stroke="midnightblue" points="72.1878,-608.811 68.0364,-599.064 65.203,-609.273 72.1878,-608.811"/>
</g>
<!-- Node4 -->
<g id="node7" class="node"><title>Node4</title>
<a xlink:href="class_depth_of_field_effect.html#a156dc1b753fbf841b0f8176a26d58b45" target="_top" xlink:title="DepthOfFieldEffect\l::DepthOfFieldEffect">
<polygon fill="white" stroke="black" points="419.5,-1060.85 419.5,-1094.85 526.5,-1094.85 526.5,-1060.85 419.5,-1060.85"/>
<text text-anchor="start" x="427.5" y="-1081.85" font-family="Helvetica,sans-Serif" font-size="10.00">DepthOfFieldEffect</text>
<text text-anchor="middle" x="473" y="-1068.85" font-family="Helvetica,sans-Serif" font-size="10.00">::DepthOfFieldEffect</text>
</a>
</g>
<!-- Node1&#45;&gt;Node4 -->
<g id="edge6" class="edge"><title>Node1&#45;&gt;Node4</title>
<path fill="none" stroke="midnightblue" d="M68.2607,-609.037C73.3028,-704.394 95.4962,-1021.13 170,-1081.85 242.997,-1141.34 362.051,-1115.68 427.066,-1094.86"/>
<polygon fill="midnightblue" stroke="midnightblue" points="71.7551,-608.835 67.7521,-599.026 64.7641,-609.191 71.7551,-608.835"/>
</g>
<!-- Node5 -->
<g id="node9" class="node"><title>Node5</title>
<a xlink:href="class_depth_of_field_effect.html#adad1694b29083a180b258589557dc6fd" target="_top" xlink:title="DepthOfFieldEffect\l::addCompositor">
<polygon fill="white" stroke="black" points="212.5,-1038.85 212.5,-1072.85 313.5,-1072.85 313.5,-1038.85 212.5,-1038.85"/>
<text text-anchor="start" x="220.5" y="-1059.85" font-family="Helvetica,sans-Serif" font-size="10.00">DepthOfFieldEffect</text>
<text text-anchor="middle" x="263" y="-1046.85" font-family="Helvetica,sans-Serif" font-size="10.00">::addCompositor</text>
</a>
</g>
<!-- Node1&#45;&gt;Node5 -->
<g id="edge8" class="edge"><title>Node1&#45;&gt;Node5</title>
<path fill="none" stroke="midnightblue" d="M69.6652,-609.257C78.7231,-696.89 111.082,-968.115 170,-1029.85 181.112,-1041.49 196.968,-1048.06 212.448,-1051.72"/>
<polygon fill="midnightblue" stroke="midnightblue" points="73.1214,-608.647 68.6306,-599.051 66.1571,-609.353 73.1214,-608.647"/>
</g>
<!-- Node6 -->
<g id="node12" class="node"><title>Node6</title>
<a xlink:href="class_depth_of_field_effect.html#a91752b997abcbd0047a6afaa6f8a3560" target="_top" xlink:title="DepthOfFieldEffect\l::removeCompositor">
<polygon fill="white" stroke="black" points="210.5,-986.846 210.5,-1020.85 315.5,-1020.85 315.5,-986.846 210.5,-986.846"/>
<text text-anchor="start" x="218.5" y="-1007.85" font-family="Helvetica,sans-Serif" font-size="10.00">DepthOfFieldEffect</text>
<text text-anchor="middle" x="263" y="-994.846" font-family="Helvetica,sans-Serif" font-size="10.00">::removeCompositor</text>
</a>
</g>
<!-- Node1&#45;&gt;Node6 -->
<g id="edge12" class="edge"><title>Node1&#45;&gt;Node6</title>
<path fill="none" stroke="midnightblue" d="M70.55,-609.213C81.5429,-689.87 117.471,-924.355 170,-977.846 180.689,-988.731 195.531,-995.163 210.221,-998.932"/>
<polygon fill="midnightblue" stroke="midnightblue" points="73.9635,-608.334 69.1652,-598.888 67.0256,-609.264 73.9635,-608.334"/>
</g>
<!-- Node8 -->
<g id="node16" class="node"><title>Node8</title>
<a xlink:href="class_d_o_f_manager.html#ab3b5acf9b74aba2c5832b65f2a54da10" target="_top" xlink:title="DOFManager::DOFManager">
<polygon fill="white" stroke="black" points="193,-947.346 193,-968.346 333,-968.346 333,-947.346 193,-947.346"/>
<text text-anchor="middle" x="263" y="-955.346" font-family="Helvetica,sans-Serif" font-size="10.00">DOFManager::DOFManager</text>
</a>
</g>
<!-- Node1&#45;&gt;Node8 -->
<g id="edge16" class="edge"><title>Node1&#45;&gt;Node8</title>
<path fill="none" stroke="midnightblue" d="M71.2145,-609.088C83.3882,-684.257 120.89,-892.05 170,-937.846 176.522,-943.928 184.431,-948.335 192.851,-951.501"/>
<polygon fill="midnightblue" stroke="midnightblue" points="74.6361,-608.319 69.6038,-598.995 67.7236,-609.422 74.6361,-608.319"/>
</g>
<!-- Node9 -->
<g id="node18" class="node"><title>Node9</title>
<a xlink:href="class_d_o_f_manager.html#a0d3098733bb328d0d63075a10adc325d" target="_top" xlink:title="DOFManager::cleanup">
<polygon fill="white" stroke="black" points="205.5,-907.346 205.5,-928.346 320.5,-928.346 320.5,-907.346 205.5,-907.346"/>
<text text-anchor="middle" x="263" y="-915.346" font-family="Helvetica,sans-Serif" font-size="10.00">DOFManager::cleanup</text>
</a>
</g>
<!-- Node1&#45;&gt;Node9 -->
<g id="edge18" class="edge"><title>Node1&#45;&gt;Node9</title>
<path fill="none" stroke="midnightblue" d="M72.3016,-609.244C86.2547,-678.547 125.968,-858.141 170,-897.846 179.812,-906.694 192.573,-911.965 205.483,-915.031"/>
<polygon fill="midnightblue" stroke="midnightblue" points="75.6691,-608.232 70.2866,-599.107 68.8034,-609.597 75.6691,-608.232"/>
</g>
<!-- Node11 -->
<g id="node22" class="node"><title>Node11</title>
<a xlink:href="class_d_o_f_manager.html#a165e04f5ec744566a8c26d91265d081d" target="_top" xlink:title="DOFManager::setEnabled">
<polygon fill="white" stroke="black" points="198,-867.346 198,-888.346 328,-888.346 328,-867.346 198,-867.346"/>
<text text-anchor="middle" x="263" y="-875.346" font-family="Helvetica,sans-Serif" font-size="10.00">DOFManager::setEnabled</text>
</a>
</g>
<!-- Node1&#45;&gt;Node11 -->
<g id="edge22" class="edge"><title>Node1&#45;&gt;Node11</title>
<path fill="none" stroke="midnightblue" d="M68.7908,-609.074C73.989,-664.808 94.0001,-792.162 170,-857.846 177.872,-864.65 187.502,-869.316 197.547,-872.484"/>
<polygon fill="midnightblue" stroke="midnightblue" points="72.2628,-608.593 67.9364,-598.922 65.2874,-609.18 72.2628,-608.593"/>
</g>
<!-- Node12 -->
<g id="node24" class="node"><title>Node12</title>
<a xlink:href="class_hydrax_water.html#aedfd9537f96021b60a195b2bb6a9ee2d" target="_top" xlink:title="HydraxWater::InitHydrax">
<polygon fill="white" stroke="black" points="200.5,-827.346 200.5,-848.346 325.5,-848.346 325.5,-827.346 200.5,-827.346"/>
<text text-anchor="middle" x="263" y="-835.346" font-family="Helvetica,sans-Serif" font-size="10.00">HydraxWater::InitHydrax</text>
</a>
</g>
<!-- Node1&#45;&gt;Node12 -->
<g id="edge24" class="edge"><title>Node1&#45;&gt;Node12</title>
<path fill="none" stroke="midnightblue" d="M70.7068,-608.957C78.9837,-658.528 103.749,-763.661 170,-817.846 178.693,-824.956 189.33,-829.7 200.264,-832.833"/>
<polygon fill="midnightblue" stroke="midnightblue" points="74.1499,-608.32 69.1413,-598.984 67.2346,-609.406 74.1499,-608.32"/>
</g>
<!-- Node14 -->
<g id="node28" class="node"><title>Node14</title>
<a xlink:href="class_preview_renderer.html#a5ea6b4611b45965e072266211dc60ba8" target="_top" xlink:title="PreviewRenderer::render">
<polygon fill="white" stroke="black" points="200.5,-787.346 200.5,-808.346 325.5,-808.346 325.5,-787.346 200.5,-787.346"/>
<text text-anchor="middle" x="263" y="-795.346" font-family="Helvetica,sans-Serif" font-size="10.00">PreviewRenderer::render</text>
</a>
</g>
<!-- Node1&#45;&gt;Node14 -->
<g id="edge28" class="edge"><title>Node1&#45;&gt;Node14</title>
<path fill="none" stroke="midnightblue" d="M73.2612,-608.631C84.7227,-651.431 113.291,-734.79 170,-777.846 178.813,-784.537 189.383,-789.096 200.187,-792.18"/>
<polygon fill="midnightblue" stroke="midnightblue" points="76.6443,-607.733 70.7688,-598.917 69.8639,-609.473 76.6443,-607.733"/>
</g>
<!-- Node15 -->
<g id="node30" class="node"><title>Node15</title>
<a xlink:href="class_water.html#a297717e4431c24ece1941d7824a55984" target="_top" xlink:title="Water::processWater">
<polygon fill="white" stroke="black" points="208,-747.346 208,-768.346 318,-768.346 318,-747.346 208,-747.346"/>
<text text-anchor="middle" x="263" y="-755.346" font-family="Helvetica,sans-Serif" font-size="10.00">Water::processWater</text>
</a>
</g>
<!-- Node1&#45;&gt;Node15 -->
<g id="edge30" class="edge"><title>Node1&#45;&gt;Node15</title>
<path fill="none" stroke="midnightblue" d="M77.9968,-608.387C93.4675,-642.413 124.901,-700.827 170,-732.846 181.042,-740.686 194.407,-746.068 207.52,-749.762"/>
<polygon fill="midnightblue" stroke="midnightblue" points="81.1251,-606.807 73.8841,-599.073 74.7215,-609.635 81.1251,-606.807"/>
</g>
<!-- Node17 -->
<g id="node34" class="node"><title>Node17</title>
<a xlink:href="class_ro_r_1_1_g_u_i_manager.html#af0523573c773fa2ad8bfd09f3f393a7c" target="_top" xlink:title="RoR::GUIManager::create">
<polygon fill="white" stroke="black" points="407.5,-669.346 407.5,-690.346 538.5,-690.346 538.5,-669.346 407.5,-669.346"/>
<text text-anchor="middle" x="473" y="-677.346" font-family="Helvetica,sans-Serif" font-size="10.00">RoR::GUIManager::create</text>
</a>
</g>
<!-- Node1&#45;&gt;Node17 -->
<g id="edge34" class="edge"><title>Node1&#45;&gt;Node17</title>
<path fill="none" stroke="midnightblue" d="M80.9388,-608.31C97.7177,-636.986 128.853,-681.145 170,-699.846 262.869,-742.054 388.457,-709.029 444.244,-690.388"/>
<polygon fill="midnightblue" stroke="midnightblue" points="83.7761,-606.217 75.8052,-599.238 77.6839,-609.665 83.7761,-606.217"/>
</g>
<!-- Node19 -->
<g id="node38" class="node"><title>Node19</title>
<a xlink:href="class_ro_r_1_1_g_u_i_manager.html#af55726dce24f24726f79b50163cbc246" target="_top" xlink:title="RoR::GUIManager::createGui">
<polygon fill="white" stroke="black" points="190,-669.346 190,-690.346 336,-690.346 336,-669.346 190,-669.346"/>
<text text-anchor="middle" x="263" y="-677.346" font-family="Helvetica,sans-Serif" font-size="10.00">RoR::GUIManager::createGui</text>
</a>
</g>
<!-- Node1&#45;&gt;Node19 -->
<g id="edge38" class="edge"><title>Node1&#45;&gt;Node19</title>
<path fill="none" stroke="midnightblue" d="M91.9773,-605.789C111.664,-623.34 140.611,-646.368 170,-659.846 178.256,-663.633 187.258,-666.715 196.303,-669.222"/>
<polygon fill="midnightblue" stroke="midnightblue" points="94.1426,-603.027 84.3908,-598.886 89.4315,-608.204 94.1426,-603.027"/>
</g>
<!-- Node20 -->
<g id="node41" class="node"><title>Node20</title>
<a xlink:href="class_ro_r_1_1_g_u_i_manager.html#a96d5ffdf1439f330b255eff84c56f223" target="_top" xlink:title="RoR::GUIManager::windowResized">
<polygon fill="white" stroke="black" points="176.5,-629.346 176.5,-650.346 349.5,-650.346 349.5,-629.346 176.5,-629.346"/>
<text text-anchor="middle" x="263" y="-637.346" font-family="Helvetica,sans-Serif" font-size="10.00">RoR::GUIManager::windowResized</text>
</a>
</g>
<!-- Node1&#45;&gt;Node20 -->
<g id="edge42" class="edge"><title>Node1&#45;&gt;Node20</title>
<path fill="none" stroke="midnightblue" d="M128.268,-602.002C141.964,-606.361 156.447,-610.856 170,-614.846 187.001,-619.852 205.867,-624.998 222.14,-629.311"/>
<polygon fill="midnightblue" stroke="midnightblue" points="129.05,-598.578 118.459,-598.862 126.915,-605.244 129.05,-598.578"/>
</g>
<!-- Node23 -->
<g id="node48" class="node"><title>Node23</title>
<a xlink:href="class_ro_r_1_1_main_thread.html#a7e4d0bd23a40e509892883af75ea0dbf" target="_top" xlink:title="RoR::MainThread::Go">
<polygon fill="white" stroke="black" points="1398.5,-412.346 1398.5,-433.346 1511.5,-433.346 1511.5,-412.346 1398.5,-412.346"/>
<text text-anchor="middle" x="1455" y="-420.346" font-family="Helvetica,sans-Serif" font-size="10.00">RoR::MainThread::Go</text>
</a>
</g>
<!-- Node1&#45;&gt;Node23 -->
<g id="edge68" class="edge"><title>Node1&#45;&gt;Node23</title>
<path fill="none" stroke="midnightblue" d="M144.317,-587.618C225.965,-593.209 358.47,-600.846 473,-600.846 473,-600.846 473,-600.846 1047,-600.846 1194.43,-600.846 1232.3,-566.947 1362,-496.846 1394.85,-479.089 1427.74,-449.45 1444.19,-433.607"/>
<polygon fill="midnightblue" stroke="midnightblue" points="144.343,-584.112 134.125,-586.913 143.859,-591.095 144.343,-584.112"/>
</g>
<!-- Node28 -->
<g id="node58" class="node"><title>Node28</title>
<a xlink:href="class_ro_r_1_1_g_u_i_manager.html#a74694e261e404fa54df49feeac27c12c" target="_top" xlink:title="RoR::GUIManager::ShowMainMenu">
<polygon fill="white" stroke="black" points="960,-512.346 960,-533.346 1134,-533.346 1134,-512.346 960,-512.346"/>
<text text-anchor="middle" x="1047" y="-520.346" font-family="Helvetica,sans-Serif" font-size="10.00">RoR::GUIManager::ShowMainMenu</text>
</a>
</g>
<!-- Node1&#45;&gt;Node28 -->
<g id="edge60" class="edge"><title>Node1&#45;&gt;Node28</title>
<path fill="none" stroke="midnightblue" d="M144.317,-576.074C225.965,-570.484 358.47,-562.846 473,-562.846 473,-562.846 473,-562.846 670,-562.846 781.892,-562.846 911.426,-545.207 985.83,-533.356"/>
<polygon fill="midnightblue" stroke="midnightblue" points="143.859,-572.597 134.125,-576.78 144.343,-579.581 143.859,-572.597"/>
</g>
<!-- Node29 -->
<g id="node61" class="node"><title>Node29</title>
<a xlink:href="class_ro_r_1_1_g_u_i_manager.html#a52c4bed63f1fc87469ffa35fce2706a8" target="_top" xlink:title="RoR::GUIManager::TogglePauseMenu">
<polygon fill="white" stroke="black" points="170.5,-513.346 170.5,-534.346 355.5,-534.346 355.5,-513.346 170.5,-513.346"/>
<text text-anchor="middle" x="263" y="-521.346" font-family="Helvetica,sans-Serif" font-size="10.00">RoR::GUIManager::TogglePauseMenu</text>
</a>
</g>
<!-- Node1&#45;&gt;Node29 -->
<g id="edge64" class="edge"><title>Node1&#45;&gt;Node29</title>
<path fill="none" stroke="midnightblue" d="M128.268,-561.69C141.964,-557.332 156.447,-552.836 170,-548.846 187.001,-543.841 205.867,-538.694 222.14,-534.382"/>
<polygon fill="midnightblue" stroke="midnightblue" points="126.915,-558.448 118.459,-564.831 129.05,-565.115 126.915,-558.448"/>
</g>
<!-- Node30 -->
<g id="node63" class="node"><title>Node30</title>
<a xlink:href="class_overlay_wrapper.html#a92ee0e58e468f5a657fc02cdb98b0352" target="_top" xlink:title="OverlayWrapper::OverlayWrapper">
<polygon fill="white" stroke="black" points="181,-473.346 181,-494.346 345,-494.346 345,-473.346 181,-473.346"/>
<text text-anchor="middle" x="263" y="-481.346" font-family="Helvetica,sans-Serif" font-size="10.00">OverlayWrapper::OverlayWrapper</text>
</a>
</g>
<!-- Node1&#45;&gt;Node30 -->
<g id="edge66" class="edge"><title>Node1&#45;&gt;Node30</title>
<path fill="none" stroke="midnightblue" d="M91.9773,-557.904C111.664,-540.352 140.611,-517.324 170,-503.846 178.256,-500.06 187.258,-496.977 196.303,-494.471"/>
<polygon fill="midnightblue" stroke="midnightblue" points="89.4315,-555.488 84.3908,-564.807 94.1426,-560.666 89.4315,-555.488"/>
</g>
<!-- Node31 -->
<g id="node66" class="node"><title>Node31</title>
<a xlink:href="class_ro_r_1_1_main_thread.html#a0be80b570e45a4de035b1f1b9684497c" target="_top" xlink:title="RoR::MainThread::EnterMain\lMenuLoop">
<polygon fill="white" stroke="black" points="401,-382.846 401,-416.846 545,-416.846 545,-382.846 401,-382.846"/>
<text text-anchor="start" x="409" y="-403.846" font-family="Helvetica,sans-Serif" font-size="10.00">RoR::MainThread::EnterMain</text>
<text text-anchor="middle" x="473" y="-390.846" font-family="Helvetica,sans-Serif" font-size="10.00">MenuLoop</text>
</a>
</g>
<!-- Node1&#45;&gt;Node31 -->
<g id="edge70" class="edge"><title>Node1&#45;&gt;Node31</title>
<path fill="none" stroke="midnightblue" d="M76.9144,-554.992C91.4427,-519.842 122.105,-459.365 170,-430.846 240.196,-389.048 336.025,-386.411 400.98,-390.89"/>
<polygon fill="midnightblue" stroke="midnightblue" points="73.5339,-554.02 73.0826,-564.606 80.0364,-556.612 73.5339,-554.02"/>
</g>
<!-- Node32 -->
<g id="node69" class="node"><title>Node32</title>
<a xlink:href="class_ro_r_1_1_main_thread.html#a756bfd7017a20cad3eef18558564a4c6" target="_top" xlink:title="RoR::MainThread::EnterGameplayLoop">
<polygon fill="white" stroke="black" points="1172,-432.346 1172,-453.346 1360,-453.346 1360,-432.346 1172,-432.346"/>
<text text-anchor="middle" x="1266" y="-440.346" font-family="Helvetica,sans-Serif" font-size="10.00">RoR::MainThread::EnterGameplayLoop</text>
</a>
</g>
<!-- Node1&#45;&gt;Node32 -->
<g id="edge74" class="edge"><title>Node1&#45;&gt;Node32</title>
<path fill="none" stroke="midnightblue" d="M81.1623,-555.854C98.1426,-527.604 129.459,-483.826 170,-463.846 291.031,-404.198 338.069,-444.846 473,-444.846 473,-444.846 473,-444.846 855,-444.846 963.638,-444.846 1088.43,-444.139 1171.73,-443.565"/>
<polygon fill="midnightblue" stroke="midnightblue" points="77.9703,-554.381 75.9607,-564.783 84.0188,-557.904 77.9703,-554.381"/>
</g>
<!-- Node33 -->
<g id="node72" class="node"><title>Node33</title>
<a xlink:href="class_ro_r_1_1_main_thread.html#a90a882dd59b080c97f8d5272c9878ba2" target="_top" xlink:title="RoR::MainThread::Exit">
<polygon fill="white" stroke="black" points="204.5,-357.346 204.5,-378.346 321.5,-378.346 321.5,-357.346 204.5,-357.346"/>
<text text-anchor="middle" x="263" y="-365.346" font-family="Helvetica,sans-Serif" font-size="10.00">RoR::MainThread::Exit</text>
</a>
</g>
<!-- Node1&#45;&gt;Node33 -->
<g id="edge78" class="edge"><title>Node1&#45;&gt;Node33</title>
<path fill="none" stroke="midnightblue" d="M74.1526,-555.135C86.5837,-513.948 116.147,-435.268 170,-392.846 179.85,-385.087 191.911,-379.728 204.042,-376.03"/>
<polygon fill="midnightblue" stroke="midnightblue" points="70.7871,-554.174 71.3569,-564.753 77.5089,-556.127 70.7871,-554.174"/>
</g>
<!-- Node34 -->
<g id="node74" class="node"><title>Node34</title>
<a xlink:href="class_ro_r_1_1_main_thread.html#ab48ab040ee463287f7953eef17ad4c62" target="_top" xlink:title="RoR::MainThread::MainMenu\lLoopUpdate">
<polygon fill="white" stroke="black" points="190.5,-304.846 190.5,-338.846 335.5,-338.846 335.5,-304.846 190.5,-304.846"/>
<text text-anchor="start" x="198.5" y="-325.846" font-family="Helvetica,sans-Serif" font-size="10.00">RoR::MainThread::MainMenu</text>
<text text-anchor="middle" x="263" y="-312.846" font-family="Helvetica,sans-Serif" font-size="10.00">LoopUpdate</text>
</a>
</g>
<!-- Node1&#45;&gt;Node34 -->
<g id="edge80" class="edge"><title>Node1&#45;&gt;Node34</title>
<path fill="none" stroke="midnightblue" d="M71.2198,-554.675C80.2512,-505.863 106.089,-403.268 170,-347.846 175.953,-342.684 182.855,-338.541 190.156,-335.217"/>
<polygon fill="midnightblue" stroke="midnightblue" points="67.7271,-554.33 69.4498,-564.783 74.6222,-555.537 67.7271,-554.33"/>
</g>
<!-- Node35 -->
<g id="node77" class="node"><title>Node35</title>
<a xlink:href="class_ro_r_1_1_rig_editor_1_1_main.html#a617555d8288d021b0fe261d9df84a94a" target="_top" xlink:title="RoR::RigEditor::Main\l::Main">
<polygon fill="white" stroke="black" points="208,-252.846 208,-286.846 318,-286.846 318,-252.846 208,-252.846"/>
<text text-anchor="start" x="216" y="-273.846" font-family="Helvetica,sans-Serif" font-size="10.00">RoR::RigEditor::Main</text>
<text text-anchor="middle" x="263" y="-260.846" font-family="Helvetica,sans-Serif" font-size="10.00">::Main</text>
</a>
</g>
<!-- Node1&#45;&gt;Node35 -->
<g id="edge84" class="edge"><title>Node1&#45;&gt;Node35</title>
<path fill="none" stroke="midnightblue" d="M68.7343,-554.8C73.847,-498.215 93.7385,-366.73 170,-295.846 180.438,-286.145 194.197,-280.019 207.921,-276.165"/>
<polygon fill="midnightblue" stroke="midnightblue" points="65.2457,-554.518 67.9187,-564.771 72.2224,-555.089 65.2457,-554.518"/>
</g>
<!-- Node36 -->
<g id="node79" class="node"><title>Node36</title>
<a xlink:href="class_ro_r_1_1_rig_editor_1_1_main.html#a8cd11f0150b5e247b6d9f00212d42b0d" target="_top" xlink:title="RoR::RigEditor::Main\l::EnterMainLoop">
<polygon fill="white" stroke="black" points="800,-294.846 800,-328.846 910,-328.846 910,-294.846 800,-294.846"/>
<text text-anchor="start" x="808" y="-315.846" font-family="Helvetica,sans-Serif" font-size="10.00">RoR::RigEditor::Main</text>
<text text-anchor="middle" x="855" y="-302.846" font-family="Helvetica,sans-Serif" font-size="10.00">::EnterMainLoop</text>
</a>
</g>
<!-- Node1&#45;&gt;Node36 -->
<g id="edge86" class="edge"><title>Node1&#45;&gt;Node36</title>
<path fill="none" stroke="midnightblue" d="M71.1268,-554.48C82.837,-480.895 118.774,-281.788 170,-243.846 269.336,-170.271 655.453,-260.015 799.982,-297.167"/>
<polygon fill="midnightblue" stroke="midnightblue" points="67.603,-554.36 69.5161,-564.781 74.519,-555.442 67.603,-554.36"/>
</g>
<!-- Node37 -->
<g id="node82" class="node"><title>Node37</title>
<a xlink:href="class_game_script.html#a8c02937795d82f6bc0de53d8e939993d" target="_top" xlink:title="GameScript::useOnlineAPIDirectly">
<polygon fill="white" stroke="black" points="179,-175.346 179,-196.346 347,-196.346 347,-175.346 179,-175.346"/>
<text text-anchor="middle" x="263" y="-183.346" font-family="Helvetica,sans-Serif" font-size="10.00">GameScript::useOnlineAPIDirectly</text>
</a>
</g>
<!-- Node1&#45;&gt;Node37 -->
<g id="edge90" class="edge"><title>Node1&#45;&gt;Node37</title>
<path fill="none" stroke="midnightblue" d="M71.0158,-554.606C82.9094,-477.512 120.252,-260.188 170,-210.846 176.173,-204.724 183.675,-200.057 191.712,-196.508"/>
<polygon fill="midnightblue" stroke="midnightblue" points="67.5512,-554.109 69.5078,-564.522 74.4717,-555.162 67.5512,-554.109"/>
</g>
<!-- Node40 -->
<g id="node88" class="node"><title>Node40</title>
<a xlink:href="class_script_engine.html#a27d7195e48e911b575dae06df687dfcd" target="_top" xlink:title="ScriptEngine::LineCallback">
<polygon fill="white" stroke="black" points="196,-135.346 196,-156.346 330,-156.346 330,-135.346 196,-135.346"/>
<text text-anchor="middle" x="263" y="-143.346" font-family="Helvetica,sans-Serif" font-size="10.00">ScriptEngine::LineCallback</text>
</a>
</g>
<!-- Node1&#45;&gt;Node40 -->
<g id="edge96" class="edge"><title>Node1&#45;&gt;Node40</title>
<path fill="none" stroke="midnightblue" d="M69.9706,-554.87C79.6859,-471.603 113.197,-220.921 170,-165.846 177.233,-158.834 186.299,-154.027 195.914,-150.774"/>
<polygon fill="midnightblue" stroke="midnightblue" points="66.4913,-554.491 68.8303,-564.824 73.4458,-555.287 66.4913,-554.491"/>
</g>
<!-- Node41 -->
<g id="node90" class="node"><title>Node41</title>
<a xlink:href="class_script_engine.html#ac68e1af1ce392aae7b8f76619c431fdd" target="_top" xlink:title="ScriptEngine::loadScript">
<polygon fill="white" stroke="black" points="202,-95.3463 202,-116.346 324,-116.346 324,-95.3463 202,-95.3463"/>
<text text-anchor="middle" x="263" y="-103.346" font-family="Helvetica,sans-Serif" font-size="10.00">ScriptEngine::loadScript</text>
</a>
</g>
<!-- Node1&#45;&gt;Node41 -->
<g id="edge98" class="edge"><title>Node1&#45;&gt;Node41</title>
<path fill="none" stroke="midnightblue" d="M69.3593,-554.672C77.6147,-465.972 108.118,-187.093 170,-125.846 178.686,-117.249 190.121,-111.951 201.991,-108.764"/>
<polygon fill="midnightblue" stroke="midnightblue" points="65.8631,-554.473 68.4418,-564.749 72.8343,-555.108 65.8631,-554.473"/>
</g>
<!-- Node48 -->
<g id="node105" class="node"><title>Node48</title>
<a xlink:href="class_input_engine.html#a9bc5b692ec7fb0b74a76a5a2f2cd7534" target="_top" xlink:title="InputEngine::setup">
<polygon fill="white" stroke="black" points="214,-55.3463 214,-76.3463 312,-76.3463 312,-55.3463 214,-55.3463"/>
<text text-anchor="middle" x="263" y="-63.3463" font-family="Helvetica,sans-Serif" font-size="10.00">InputEngine::setup</text>
</a>
</g>
<!-- Node1&#45;&gt;Node48 -->
<g id="edge114" class="edge"><title>Node1&#45;&gt;Node48</title>
<path fill="none" stroke="midnightblue" d="M68.8381,-554.487C75.7105,-460.559 103.015,-153.307 170,-85.8463 181.52,-74.2444 198.038,-68.6248 213.966,-66.0957"/>
<polygon fill="midnightblue" stroke="midnightblue" points="65.3363,-554.389 68.1167,-564.613 72.3186,-554.887 65.3363,-554.389"/>
</g>
<!-- Node50 -->
<g id="node109" class="node"><title>Node50</title>
<a xlink:href="class_input_engine.html#afc5ef2151ca9c7a7af89c18dbbcdc65d" target="_top" xlink:title="InputEngine::setupDefault">
<polygon fill="white" stroke="black" points="408,-15.3463 408,-36.3463 538,-36.3463 538,-15.3463 408,-15.3463"/>
<text text-anchor="middle" x="473" y="-23.3463" font-family="Helvetica,sans-Serif" font-size="10.00">InputEngine::setupDefault</text>
</a>
</g>
<!-- Node1&#45;&gt;Node50 -->
<g id="edge122" class="edge"><title>Node1&#45;&gt;Node50</title>
<path fill="none" stroke="midnightblue" d="M68.0129,-554.544C72.3115,-455.063 92.5561,-114.241 170,-45.8463 244.09,19.5866 372.192,-0.100612 435.441,-15.3212"/>
<polygon fill="midnightblue" stroke="midnightblue" points="64.5097,-554.552 67.5945,-564.688 71.5037,-554.84 64.5097,-554.552"/>
</g>
<!-- Node3 -->
<g id="node5" class="node"><title>Node3</title>
<a xlink:href="class_ro_r_frame_listener.html#acd8647e188fb8e838689492965b86faf" target="_top" xlink:title="RoRFrameListener::frameStarted">
<polygon fill="white" stroke="black" points="392.5,-1135.35 392.5,-1156.35 553.5,-1156.35 553.5,-1135.35 392.5,-1135.35"/>
<text text-anchor="middle" x="473" y="-1143.35" font-family="Helvetica,sans-Serif" font-size="10.00">RoRFrameListener::frameStarted</text>
</a>
</g>
<!-- Node2&#45;&gt;Node3 -->
<g id="edge4" class="edge"><title>Node2&#45;&gt;Node3</title>
<path fill="none" stroke="midnightblue" d="M340.402,-1145.85C357.314,-1145.85 375.254,-1145.85 392.291,-1145.85"/>
<polygon fill="midnightblue" stroke="midnightblue" points="340.023,-1142.35 330.023,-1145.85 340.023,-1149.35 340.023,-1142.35"/>
</g>
<!-- Node5&#45;&gt;Node4 -->
<g id="edge10" class="edge"><title>Node5&#45;&gt;Node4</title>
<path fill="none" stroke="midnightblue" d="M323.561,-1062.19C353.765,-1065.35 389.984,-1069.15 419.2,-1072.21"/>
<polygon fill="midnightblue" stroke="midnightblue" points="323.878,-1058.7 313.567,-1061.14 323.148,-1065.67 323.878,-1058.7"/>
</g>
<!-- Node7 -->
<g id="node14" class="node"><title>Node7</title>
<a xlink:href="class_depth_of_field_effect.html#ac2f23c19a118845a0bcd7b7c37dd267b" target="_top" xlink:title="DepthOfFieldEffect\l::~DepthOfFieldEffect">
<polygon fill="white" stroke="black" points="416.5,-986.846 416.5,-1020.85 529.5,-1020.85 529.5,-986.846 416.5,-986.846"/>
<text text-anchor="start" x="424.5" y="-1007.85" font-family="Helvetica,sans-Serif" font-size="10.00">DepthOfFieldEffect</text>
<text text-anchor="middle" x="473" y="-994.846" font-family="Helvetica,sans-Serif" font-size="10.00">::~DepthOfFieldEffect</text>
</a>
</g>
<!-- Node6&#45;&gt;Node7 -->
<g id="edge14" class="edge"><title>Node6&#45;&gt;Node7</title>
<path fill="none" stroke="midnightblue" d="M326.033,-1003.85C354.69,-1003.85 388.339,-1003.85 416.203,-1003.85"/>
<polygon fill="midnightblue" stroke="midnightblue" points="325.721,-1000.35 315.721,-1003.85 325.721,-1007.35 325.721,-1000.35"/>
</g>
<!-- Node10 -->
<g id="node20" class="node"><title>Node10</title>
<a xlink:href="class_d_o_f_manager.html#aba6d17a9eb8c702429fc49dab624188d" target="_top" xlink:title="DOFManager::~DOFManager">
<polygon fill="white" stroke="black" points="400,-907.346 400,-928.346 546,-928.346 546,-907.346 400,-907.346"/>
<text text-anchor="middle" x="473" y="-915.346" font-family="Helvetica,sans-Serif" font-size="10.00">DOFManager::~DOFManager</text>
</a>
</g>
<!-- Node9&#45;&gt;Node10 -->
<g id="edge20" class="edge"><title>Node9&#45;&gt;Node10</title>
<path fill="none" stroke="midnightblue" d="M330.895,-917.846C352.868,-917.846 377.328,-917.846 399.676,-917.846"/>
<polygon fill="midnightblue" stroke="midnightblue" points="330.661,-914.346 320.661,-917.846 330.661,-921.346 330.661,-914.346"/>
</g>
<!-- Node13 -->
<g id="node26" class="node"><title>Node13</title>
<a xlink:href="class_hydrax_water.html#a20bb0db860124c8e18903f5d640f88db" target="_top" xlink:title="HydraxWater::HydraxWater">
<polygon fill="white" stroke="black" points="404,-827.346 404,-848.346 542,-848.346 542,-827.346 404,-827.346"/>
<text text-anchor="middle" x="473" y="-835.346" font-family="Helvetica,sans-Serif" font-size="10.00">HydraxWater::HydraxWater</text>
</a>
</g>
<!-- Node12&#45;&gt;Node13 -->
<g id="edge26" class="edge"><title>Node12&#45;&gt;Node13</title>
<path fill="none" stroke="midnightblue" d="M335.727,-837.846C357.863,-837.846 382.118,-837.846 404,-837.846"/>
<polygon fill="midnightblue" stroke="midnightblue" points="335.723,-834.346 325.722,-837.846 335.722,-841.346 335.723,-834.346"/>
</g>
<!-- Node16 -->
<g id="node32" class="node"><title>Node16</title>
<a xlink:href="class_water.html#ad65d2d423f39bf5d0bd9571775583100" target="_top" xlink:title="Water::Water">
<polygon fill="white" stroke="black" points="435.5,-747.346 435.5,-768.346 510.5,-768.346 510.5,-747.346 435.5,-747.346"/>
<text text-anchor="middle" x="473" y="-755.346" font-family="Helvetica,sans-Serif" font-size="10.00">Water::Water</text>
</a>
</g>
<!-- Node15&#45;&gt;Node16 -->
<g id="edge32" class="edge"><title>Node15&#45;&gt;Node16</title>
<path fill="none" stroke="midnightblue" d="M328.373,-757.846C363.559,-757.846 405.704,-757.846 435.396,-757.846"/>
<polygon fill="midnightblue" stroke="midnightblue" points="328.175,-754.346 318.175,-757.846 328.175,-761.346 328.175,-754.346"/>
</g>
<!-- Node18 -->
<g id="node36" class="node"><title>Node18</title>
<a xlink:href="class_ro_r_1_1_g_u_i_manager.html#a5587062fc64af58b9adbe5df4ba25097" target="_top" xlink:title="RoR::GUIManager::GUIManager">
<polygon fill="white" stroke="black" points="590,-669.346 590,-690.346 750,-690.346 750,-669.346 590,-669.346"/>
<text text-anchor="middle" x="670" y="-677.346" font-family="Helvetica,sans-Serif" font-size="10.00">RoR::GUIManager::GUIManager</text>
</a>
</g>
<!-- Node17&#45;&gt;Node18 -->
<g id="edge36" class="edge"><title>Node17&#45;&gt;Node18</title>
<path fill="none" stroke="midnightblue" d="M548.778,-679.846C562.266,-679.846 576.356,-679.846 589.959,-679.846"/>
<polygon fill="midnightblue" stroke="midnightblue" points="548.598,-676.346 538.598,-679.846 548.598,-683.346 548.598,-676.346"/>
</g>
<!-- Node19&#45;&gt;Node17 -->
<g id="edge40" class="edge"><title>Node19&#45;&gt;Node17</title>
<path fill="none" stroke="midnightblue" d="M346.341,-679.846C366.663,-679.846 388.116,-679.846 407.475,-679.846"/>
<polygon fill="midnightblue" stroke="midnightblue" points="346.153,-676.346 336.153,-679.846 346.153,-683.346 346.153,-676.346"/>
</g>
<!-- Node20&#45;&gt;Node17 -->
<g id="edge44" class="edge"><title>Node20&#45;&gt;Node17</title>
<path fill="none" stroke="midnightblue" d="M328.133,-652.253C356.888,-657.73 390.327,-664.099 417.829,-669.338"/>
<polygon fill="midnightblue" stroke="midnightblue" points="328.653,-648.789 318.175,-650.356 327.343,-655.665 328.653,-648.789"/>
</g>
<!-- Node21 -->
<g id="node44" class="node"><title>Node21</title>
<a xlink:href="class_input_engine.html#aa85ec07499919e7de34d3de44c869875" target="_top" xlink:title="InputEngine::windowResized">
<polygon fill="white" stroke="black" points="401.5,-629.346 401.5,-650.346 544.5,-650.346 544.5,-629.346 401.5,-629.346"/>
<text text-anchor="middle" x="473" y="-637.346" font-family="Helvetica,sans-Serif" font-size="10.00">InputEngine::windowResized</text>
</a>
</g>
<!-- Node20&#45;&gt;Node21 -->
<g id="edge46" class="edge"><title>Node20&#45;&gt;Node21</title>
<path fill="none" stroke="midnightblue" d="M359.753,-639.846C373.726,-639.846 387.895,-639.846 401.262,-639.846"/>
<polygon fill="midnightblue" stroke="midnightblue" points="359.627,-636.346 349.627,-639.846 359.627,-643.346 359.627,-636.346"/>
</g>
<!-- Node22 -->
<g id="node46" class="node"><title>Node22</title>
<a xlink:href="class_ro_r_frame_listener.html#a967b4a6d8650f6655e436dfeee0172b2" target="_top" xlink:title="RoRFrameListener::window\lResized">
<polygon fill="white" stroke="black" points="786,-628.846 786,-662.846 924,-662.846 924,-628.846 786,-628.846"/>
<text text-anchor="start" x="794" y="-649.846" font-family="Helvetica,sans-Serif" font-size="10.00">RoRFrameListener::window</text>
<text text-anchor="middle" x="855" y="-636.846" font-family="Helvetica,sans-Serif" font-size="10.00">Resized</text>
</a>
</g>
<!-- Node21&#45;&gt;Node22 -->
<g id="edge48" class="edge"><title>Node21&#45;&gt;Node22</title>
<path fill="none" stroke="midnightblue" d="M555.206,-641.137C623.94,-642.217 720.878,-643.74 785.724,-644.758"/>
<polygon fill="midnightblue" stroke="midnightblue" points="554.905,-637.632 544.851,-640.975 554.795,-644.632 554.905,-637.632"/>
</g>
<!-- Node22&#45;&gt;Node23 -->
<g id="edge50" class="edge"><title>Node22&#45;&gt;Node23</title>
<path fill="none" stroke="midnightblue" d="M934.248,-663.865C1041.1,-683.436 1232.84,-701.401 1362,-614.846 1427.54,-570.929 1448.4,-467.176 1453.56,-433.56"/>
<polygon fill="midnightblue" stroke="midnightblue" points="934.652,-660.38 924.177,-661.97 933.357,-667.259 934.652,-660.38"/>
</g>
<!-- Node24 -->
<g id="node50" class="node"><title>Node24</title>
<a xlink:href="main_2main__sim_2main_8cpp.html#a0ddf1224851353fc92bfbff6f499fa97" target="_top" xlink:title="main">
<polygon fill="white" stroke="black" points="1598,-435.346 1598,-456.346 1636,-456.346 1636,-435.346 1598,-435.346"/>
<text text-anchor="middle" x="1617" y="-443.346" font-family="Helvetica,sans-Serif" font-size="10.00">main</text>
</a>
</g>
<!-- Node23&#45;&gt;Node24 -->
<g id="edge52" class="edge"><title>Node23&#45;&gt;Node24</title>
<path fill="none" stroke="midnightblue" d="M1521.69,-432.315C1549.27,-436.231 1579.14,-440.471 1597.95,-443.141"/>
<polygon fill="midnightblue" stroke="midnightblue" points="1522.05,-428.831 1511.66,-430.891 1521.07,-435.762 1522.05,-428.831"/>
</g>
<!-- Node26 -->
<g id="node54" class="node"><title>Node26</title>
<a xlink:href="class_ro_r_1_1_main_thread.html#a7a2db954fd2f35d63982d8603d2b9614" target="_top" xlink:title="RoR::MainThread::Request\lRestart">
<polygon fill="white" stroke="black" points="1548.5,-382.846 1548.5,-416.846 1685.5,-416.846 1685.5,-382.846 1548.5,-382.846"/>
<text text-anchor="start" x="1556.5" y="-403.846" font-family="Helvetica,sans-Serif" font-size="10.00">RoR::MainThread::Request</text>
<text text-anchor="middle" x="1617" y="-390.846" font-family="Helvetica,sans-Serif" font-size="10.00">Restart</text>
</a>
</g>
<!-- Node23&#45;&gt;Node26 -->
<g id="edge56" class="edge"><title>Node23&#45;&gt;Node26</title>
<path fill="none" stroke="midnightblue" d="M1521.82,-413.359C1530.59,-412.114 1539.59,-410.836 1548.39,-409.587"/>
<polygon fill="midnightblue" stroke="midnightblue" points="1521.07,-409.931 1511.66,-414.802 1522.05,-416.862 1521.07,-409.931"/>
</g>
<!-- Node25 -->
<g id="node52" class="node"><title>Node25</title>
<a xlink:href="main_2main__sim_2main_8cpp.html#a2922bc5d5c2d77a3020cfbf9df12aab0" target="_top" xlink:title="WinMain">
<polygon fill="white" stroke="black" points="1763.5,-435.346 1763.5,-456.346 1818.5,-456.346 1818.5,-435.346 1763.5,-435.346"/>
<text text-anchor="middle" x="1791" y="-443.346" font-family="Helvetica,sans-Serif" font-size="10.00">WinMain</text>
</a>
</g>
<!-- Node24&#45;&gt;Node25 -->
<g id="edge54" class="edge"><title>Node24&#45;&gt;Node25</title>
<path fill="none" stroke="midnightblue" d="M1646.56,-445.846C1679.23,-445.846 1731.44,-445.846 1763.33,-445.846"/>
<polygon fill="midnightblue" stroke="midnightblue" points="1646.29,-442.346 1636.29,-445.846 1646.29,-449.346 1646.29,-442.346"/>
</g>
<!-- Node27 -->
<g id="node56" class="node"><title>Node27</title>
<a xlink:href="class_ro_r_frame_listener.html#af2779b96aa0f91920bd100bc30261402" target="_top" xlink:title="RoRFrameListener::Restart">
<polygon fill="white" stroke="black" points="1722.5,-389.346 1722.5,-410.346 1859.5,-410.346 1859.5,-389.346 1722.5,-389.346"/>
<text text-anchor="middle" x="1791" y="-397.346" font-family="Helvetica,sans-Serif" font-size="10.00">RoRFrameListener::Restart</text>
</a>
</g>
<!-- Node26&#45;&gt;Node27 -->
<g id="edge58" class="edge"><title>Node26&#45;&gt;Node27</title>
<path fill="none" stroke="midnightblue" d="M1696.04,-399.846C1704.86,-399.846 1713.78,-399.846 1722.45,-399.846"/>
<polygon fill="midnightblue" stroke="midnightblue" points="1695.77,-396.346 1685.77,-399.846 1695.77,-403.346 1695.77,-396.346"/>
</g>
<!-- Node28&#45;&gt;Node23 -->
<g id="edge62" class="edge"><title>Node28&#45;&gt;Node23</title>
<path fill="none" stroke="midnightblue" d="M1138.45,-510.818C1202.02,-501.155 1288.23,-485.44 1362,-462.846 1387.54,-455.023 1415.54,-442.388 1434.07,-433.414"/>
<polygon fill="midnightblue" stroke="midnightblue" points="1137.82,-507.373 1128.45,-512.317 1138.86,-514.296 1137.82,-507.373"/>
</g>
<!-- Node31&#45;&gt;Node23 -->
<g id="edge72" class="edge"><title>Node31&#45;&gt;Node23</title>
<path fill="none" stroke="midnightblue" d="M555.329,-400.866C632.691,-401.736 751.7,-402.846 855,-402.846 855,-402.846 855,-402.846 1047,-402.846 1172.53,-402.846 1319.51,-412.407 1398.28,-418.308"/>
<polygon fill="midnightblue" stroke="midnightblue" points="555.205,-397.364 545.166,-400.75 555.125,-404.364 555.205,-397.364"/>
</g>
<!-- Node32&#45;&gt;Node23 -->
<g id="edge76" class="edge"><title>Node32&#45;&gt;Node23</title>
<path fill="none" stroke="midnightblue" d="M1370.29,-431.81C1379.92,-430.791 1389.41,-429.787 1398.36,-428.839"/>
<polygon fill="midnightblue" stroke="midnightblue" points="1369.8,-428.343 1360.22,-432.876 1370.54,-435.304 1369.8,-428.343"/>
</g>
<!-- Node34&#45;&gt;Node31 -->
<g id="edge82" class="edge"><title>Node34&#45;&gt;Node31</title>
<path fill="none" stroke="midnightblue" d="M338.799,-342.042C344.652,-343.904 350.442,-345.846 356,-347.846 384.236,-358.007 415.228,-371.912 438.218,-382.787"/>
<polygon fill="midnightblue" stroke="midnightblue" points="339.508,-338.598 328.921,-338.988 337.441,-345.286 339.508,-338.598"/>
</g>
<!-- Node36&#45;&gt;Node23 -->
<g id="edge88" class="edge"><title>Node36&#45;&gt;Node23</title>
<path fill="none" stroke="midnightblue" d="M920.096,-317.534C1017.4,-326.975 1206.02,-348.916 1362,-388.846 1385.65,-394.9 1411.68,-404.699 1430.17,-412.226"/>
<polygon fill="midnightblue" stroke="midnightblue" points="920.402,-314.048 910.114,-316.578 919.735,-321.016 920.402,-314.048"/>
</g>
<!-- Node38 -->
<g id="node84" class="node"><title>Node38</title>
<a xlink:href="_game_script_8cpp.html#aeecefe9a646e48846e0a7f4ee494b624" target="_top" xlink:title="onlineAPIThread">
<polygon fill="white" stroke="black" points="428.5,-175.346 428.5,-196.346 517.5,-196.346 517.5,-175.346 428.5,-175.346"/>
<text text-anchor="middle" x="473" y="-183.346" font-family="Helvetica,sans-Serif" font-size="10.00">onlineAPIThread</text>
</a>
</g>
<!-- Node37&#45;&gt;Node38 -->
<g id="edge92" class="edge"><title>Node37&#45;&gt;Node38</title>
<path fill="none" stroke="midnightblue" d="M357.352,-185.846C382.047,-185.846 407.535,-185.846 428.278,-185.846"/>
<polygon fill="midnightblue" stroke="midnightblue" points="357.205,-182.346 347.205,-185.846 357.205,-189.346 357.205,-182.346"/>
</g>
<!-- Node39 -->
<g id="node86" class="node"><title>Node39</title>
<a xlink:href="class_game_script.html#a57fef318c599e4d2f86aa9b4b7f2ec12" target="_top" xlink:title="GameScript::useOnlineAPI">
<polygon fill="white" stroke="black" points="603,-175.346 603,-196.346 737,-196.346 737,-175.346 603,-175.346"/>
<text text-anchor="middle" x="670" y="-183.346" font-family="Helvetica,sans-Serif" font-size="10.00">GameScript::useOnlineAPI</text>
</a>
</g>
<!-- Node38&#45;&gt;Node39 -->
<g id="edge94" class="edge"><title>Node38&#45;&gt;Node39</title>
<path fill="none" stroke="midnightblue" d="M527.717,-185.846C550.928,-185.846 578.212,-185.846 602.645,-185.846"/>
<polygon fill="midnightblue" stroke="midnightblue" points="527.702,-182.346 517.702,-185.846 527.702,-189.346 527.702,-182.346"/>
</g>
<!-- Node42 -->
<g id="node92" class="node"><title>Node42</title>
<a xlink:href="class_script_engine.html#a3704dda04875ed6a6ed2067e4430f94f" target="_top" xlink:title="ScriptEngine::exploreScripts">
<polygon fill="white" stroke="black" points="403,-135.346 403,-156.346 543,-156.346 543,-135.346 403,-135.346"/>
<text text-anchor="middle" x="473" y="-143.346" font-family="Helvetica,sans-Serif" font-size="10.00">ScriptEngine::exploreScripts</text>
</a>
</g>
<!-- Node41&#45;&gt;Node42 -->
<g id="edge100" class="edge"><title>Node41&#45;&gt;Node42</title>
<path fill="none" stroke="midnightblue" d="M328.133,-118.253C356.888,-123.73 390.327,-130.099 417.829,-135.338"/>
<polygon fill="midnightblue" stroke="midnightblue" points="328.653,-114.789 318.175,-116.356 327.343,-121.665 328.653,-114.789"/>
</g>
<!-- Node43 -->
<g id="node94" class="node"><title>Node43</title>
<a xlink:href="class_terrain_manager.html#aab929f1c780a2f8351025987b7930a6d" target="_top" xlink:title="TerrainManager::initScripting">
<polygon fill="white" stroke="black" points="402.5,-95.3463 402.5,-116.346 543.5,-116.346 543.5,-95.3463 402.5,-95.3463"/>
<text text-anchor="middle" x="473" y="-103.346" font-family="Helvetica,sans-Serif" font-size="10.00">TerrainManager::initScripting</text>
</a>
</g>
<!-- Node41&#45;&gt;Node43 -->
<g id="edge102" class="edge"><title>Node41&#45;&gt;Node43</title>
<path fill="none" stroke="midnightblue" d="M334.256,-105.846C356.181,-105.846 380.301,-105.846 402.195,-105.846"/>
<polygon fill="midnightblue" stroke="midnightblue" points="334.023,-102.346 324.023,-105.846 334.023,-109.346 334.023,-102.346"/>
</g>
<!-- Node44 -->
<g id="node96" class="node"><title>Node44</title>
<a xlink:href="class_terrain_manager.html#a13e84f666b59e55f3c67ee345bda5873" target="_top" xlink:title="TerrainManager::initSubSystems">
<polygon fill="white" stroke="black" points="590.5,-115.346 590.5,-136.346 749.5,-136.346 749.5,-115.346 590.5,-115.346"/>
<text text-anchor="middle" x="670" y="-123.346" font-family="Helvetica,sans-Serif" font-size="10.00">TerrainManager::initSubSystems</text>
</a>
</g>
<!-- Node43&#45;&gt;Node44 -->
<g id="edge104" class="edge"><title>Node43&#45;&gt;Node44</title>
<path fill="none" stroke="midnightblue" d="M553.612,-114.03C565.696,-115.257 578.153,-116.522 590.22,-117.747"/>
<polygon fill="midnightblue" stroke="midnightblue" points="553.867,-110.538 543.565,-113.01 553.16,-117.502 553.867,-110.538"/>
</g>
<!-- Node45 -->
<g id="node98" class="node"><title>Node45</title>
<a xlink:href="class_terrain_manager.html#a9a04c837bf2ea6528c465b27ca62f730" target="_top" xlink:title="TerrainManager::loadTerrain">
<polygon fill="white" stroke="black" points="786,-162.346 786,-183.346 924,-183.346 924,-162.346 786,-162.346"/>
<text text-anchor="middle" x="855" y="-170.346" font-family="Helvetica,sans-Serif" font-size="10.00">TerrainManager::loadTerrain</text>
</a>
</g>
<!-- Node44&#45;&gt;Node45 -->
<g id="edge106" class="edge"><title>Node44&#45;&gt;Node45</title>
<path fill="none" stroke="midnightblue" d="M721.491,-138.928C750.556,-146.312 786.396,-155.417 813.621,-162.334"/>
<polygon fill="midnightblue" stroke="midnightblue" points="722.072,-135.464 711.518,-136.394 720.348,-142.249 722.072,-135.464"/>
</g>
<!-- Node46 -->
<g id="node100" class="node"><title>Node46</title>
<a xlink:href="class_ro_r_1_1_main_thread.html#a60603be78a54ae5a24ca1c00509aca1f" target="_top" xlink:title="RoR::MainThread::LoadTerrain">
<polygon fill="white" stroke="red" points="971.5,-212.346 971.5,-233.346 1122.5,-233.346 1122.5,-212.346 971.5,-212.346"/>
<text text-anchor="middle" x="1047" y="-220.346" font-family="Helvetica,sans-Serif" font-size="10.00">RoR::MainThread::LoadTerrain</text>
</a>
</g>
<!-- Node45&#45;&gt;Node46 -->
<g id="edge108" class="edge"><title>Node45&#45;&gt;Node46</title>
<path fill="none" stroke="midnightblue" d="M905.643,-186.035C937.206,-194.254 977.263,-204.686 1006.67,-212.344"/>
<polygon fill="midnightblue" stroke="midnightblue" points="906.278,-182.583 895.718,-183.45 904.513,-189.357 906.278,-182.583"/>
</g>
<!-- Node47 -->
<g id="node102" class="node"><title>Node47</title>
<a xlink:href="class_ro_r_1_1_main_thread.html#aa3feeebda7f3f4c31a6cb96ea60c09e0" target="_top" xlink:title="RoR::MainThread::SetupGameplayLoop">
<polygon fill="white" stroke="black" points="1170.5,-237.346 1170.5,-258.346 1361.5,-258.346 1361.5,-237.346 1170.5,-237.346"/>
<text text-anchor="middle" x="1266" y="-245.346" font-family="Helvetica,sans-Serif" font-size="10.00">RoR::MainThread::SetupGameplayLoop</text>
</a>
</g>
<!-- Node46&#45;&gt;Node47 -->
<g id="edge110" class="edge"><title>Node46&#45;&gt;Node47</title>
<path fill="none" stroke="midnightblue" d="M1132.82,-232.643C1146.23,-234.174 1160.14,-235.762 1173.69,-237.309"/>
<polygon fill="midnightblue" stroke="midnightblue" points="1133.01,-229.142 1122.67,-231.485 1132.21,-236.097 1133.01,-229.142"/>
</g>
<!-- Node47&#45;&gt;Node23 -->
<g id="edge112" class="edge"><title>Node47&#45;&gt;Node23</title>
<path fill="none" stroke="midnightblue" d="M1289.05,-264.586C1308.99,-279.419 1338.28,-302.046 1362,-323.846 1394.82,-354.002 1429.87,-393.592 1445.97,-412.249"/>
<polygon fill="midnightblue" stroke="midnightblue" points="1290.98,-261.662 1280.86,-258.541 1286.82,-267.295 1290.98,-261.662"/>
</g>
<!-- Node49 -->
<g id="node107" class="node"><title>Node49</title>
<a xlink:href="class_input_engine.html#a1a103e7902cd57ea877a0c8ac049d3cd" target="_top" xlink:title="InputEngine::saveMapping">
<polygon fill="white" stroke="black" points="407,-55.3463 407,-76.3463 539,-76.3463 539,-55.3463 407,-55.3463"/>
<text text-anchor="middle" x="473" y="-63.3463" font-family="Helvetica,sans-Serif" font-size="10.00">InputEngine::saveMapping</text>
</a>
</g>
<!-- Node48&#45;&gt;Node49 -->
<g id="edge116" class="edge"><title>Node48&#45;&gt;Node49</title>
<path fill="none" stroke="midnightblue" d="M322.458,-65.8463C348.809,-65.8463 379.907,-65.8463 406.977,-65.8463"/>
<polygon fill="midnightblue" stroke="midnightblue" points="322.236,-62.3464 312.236,-65.8463 322.236,-69.3464 322.236,-62.3464"/>
</g>
<!-- Node48&#45;&gt;Node50 -->
<g id="edge118" class="edge"><title>Node48&#45;&gt;Node50</title>
<path fill="none" stroke="midnightblue" d="M322.152,-54.5792C352.15,-48.8653 388.361,-41.9679 417.785,-36.3634"/>
<polygon fill="midnightblue" stroke="midnightblue" points="321.404,-51.1587 312.236,-56.4681 322.714,-58.035 321.404,-51.1587"/>
</g>
<!-- Node50&#45;&gt;Node23 -->
<g id="edge120" class="edge"><title>Node50&#45;&gt;Node23</title>
<path fill="none" stroke="midnightblue" d="M548.174,-35.5627C625.105,-44.6547 748.179,-56.8463 855,-56.8463 855,-56.8463 855,-56.8463 1047,-56.8463 1206.3,-56.8463 1252.34,-112.297 1362,-227.846 1416.48,-285.252 1444.33,-380.498 1452.44,-412.21"/>
<polygon fill="midnightblue" stroke="midnightblue" points="548.441,-32.0698 538.096,-34.3582 547.61,-39.0203 548.441,-32.0698"/>
</g>
</g>
</svg>
