<?xml version="1.0" encoding="UTF-8" standalone="no"?>
<!DOCTYPE svg PUBLIC "-//W3C//DTD SVG 1.1//EN"
 "http://www.w3.org/Graphics/SVG/1.1/DTD/svg11.dtd">
<!-- Generated by graphviz version 2.26.3 (20100126.1600)
 -->
<!-- Title: Hydrax::Image::setValue Pages: 1 -->
<svg width="296pt" height="70pt"
 viewBox="0.00 0.00 296.00 70.00" xmlns="http://www.w3.org/2000/svg" xmlns:xlink="http://www.w3.org/1999/xlink">
<g id="graph1" class="graph" transform="scale(1 1) rotate(0) translate(4 66)">
<title>Hydrax::Image::setValue</title>
<polygon fill="white" stroke="white" points="-4,5 -4,-66 293,-66 293,5 -4,5"/>
<!-- Node1 -->
<g id="node1" class="node"><title>Node1</title>
<polygon fill="#bfbfbf" stroke="black" points="0.5,-20.5 0.5,-41.5 125.5,-41.5 125.5,-20.5 0.5,-20.5"/>
<text text-anchor="middle" x="63" y="-28.5" font-family="Helvetica,sans-Serif" font-size="10.00">Hydrax::Image::setValue</text>
</g>
<!-- Node2 -->
<g id="node3" class="node"><title>Node2</title>
<a xlink:href="class_hydrax_1_1_image.html#a57b7ae07e51805b2744b5d21c0412ecd" target="_top" xlink:title="Hydrax::Image::setPixel">
<polygon fill="white" stroke="black" points="164,-40.5 164,-61.5 286,-61.5 286,-40.5 164,-40.5"/>
<text text-anchor="middle" x="225" y="-48.5" font-family="Helvetica,sans-Serif" font-size="10.00">Hydrax::Image::setPixel</text>
</a>
</g>
<!-- Node1&#45;&gt;Node2 -->
<g id="edge2" class="edge"><title>Node1&#45;&gt;Node2</title>
<path fill="none" stroke="midnightblue" d="M135.745,-39.9808C145.14,-41.1407 154.684,-42.319 163.866,-43.4526"/>
<polygon fill="midnightblue" stroke="midnightblue" points="135.987,-36.4842 125.633,-38.7325 135.129,-43.4315 135.987,-36.4842"/>
</g>
<!-- Node3 -->
<g id="node5" class="node"><title>Node3</title>
<a xlink:href="class_hydrax_1_1_image.html#a51f4bfd3291592dac969f51c52ca1009" target="_top" xlink:title="Hydrax::Image::setValue">
<polygon fill="white" stroke="black" points="162.5,-0.5 162.5,-21.5 287.5,-21.5 287.5,-0.5 162.5,-0.5"/>
<text text-anchor="middle" x="225" y="-8.5" font-family="Helvetica,sans-Serif" font-size="10.00">Hydrax::Image::setValue</text>
</a>
</g>
<!-- Node1&#45;&gt;Node3 -->
<g id="edge4" class="edge"><title>Node1&#45;&gt;Node3</title>
<path fill="none" stroke="midnightblue" d="M135.598,-22.0373C144.496,-20.9388 153.531,-19.8234 162.266,-18.7449"/>
<polygon fill="midnightblue" stroke="midnightblue" points="135.129,-18.5685 125.633,-23.2675 135.987,-25.5158 135.129,-18.5685"/>
</g>
</g>
</svg>
