<?xml version="1.0" encoding="UTF-8" standalone="no"?>
<!DOCTYPE svg PUBLIC "-//W3C//DTD SVG 1.1//EN"
 "http://www.w3.org/Graphics/SVG/1.1/DTD/svg11.dtd">
<!-- Generated by graphviz version 2.26.3 (20100126.1600)
 -->
<!-- Title: G Pages: 1 -->
<!--zoomable 225 -->
<svg id="main" version="1.1" xmlns="http://www.w3.org/2000/svg" xmlns:xlink="http://www.w3.org/1999/xlink" xml:space="preserve" onload="init(evt)">
        <defs>
                <circle id="rim" cx="0" cy="0" r="7"/>
                <circle id="rim2" cx="0" cy="0" r="3.5"/>
                <g id="zoomPlus">
                        <use xlink:href="#rim" fill="#404040">
                                <set attributeName="fill" to="#808080" begin="zoomplus.mouseover" end="zoomplus.mouseout"/>
                        </use>
                        <path d="M-4,0h8M0,-4v8" fill="none" stroke="white" stroke-width="1.5" pointer-events="none"/>
                </g>
                <g id="zoomMin">
                        <use xlink:href="#rim" fill="#404040">
                                <set attributeName="fill" to="#808080" begin="zoomminus.mouseover" end="zoomminus.mouseout"/>
                        </use>
                        <path d="M-4,0h8" fill="none" stroke="white" stroke-width="1.5" pointer-events="none"/>
                </g>
                <g id="dirArrow">
                        <path fill="none" stroke="white" stroke-width="1.5" d="M0,-3.0v7 M-2.5,-0.5L0,-3.0L2.5,-0.5"/>
                </g>
               <g id="resetDef">
                       <use xlink:href="#rim2" fill="#404040">
                               <set attributeName="fill" to="#808080" begin="reset.mouseover" end="reset.mouseout"/>
                       </use>
               </g>
        </defs>

<script type="text/javascript">
var viewWidth = 1014;
var viewHeight = 225;
var sectionId = 'dynsection-20';
</script>
<script xlink:href="svgpan.js"/>
<svg id="graph" class="graph">
<g id="viewport">
<title>G</title>
<polygon fill="white" stroke="white" points="-4,5 -4,-221 1011,-221 1011,5 -4,5"/>
<!-- Node1 -->
<g id="node1" class="node"><title>Node1</title>
<polygon fill="#bfbfbf" stroke="black" points="0.5,-97.5 0.5,-118.5 113.5,-118.5 113.5,-97.5 0.5,-97.5"/>
<text text-anchor="middle" x="57" y="-105.5" font-family="Helvetica,sans-Serif" font-size="10.00">BeamEngine::getGear</text>
</g>
<!-- Node2 -->
<g id="node3" class="node"><title>Node2</title>
<a xlink:href="struct_ro_r_1_1_land_vehicle_simulation.html#a20e0e3bfb3deaa213ffb06d283ae81c8" target="_top" xlink:title="RoR::LandVehicleSimulation::UpdateCruiseControl">
<polygon fill="white" stroke="black" points="150.5,-195.5 150.5,-216.5 389.5,-216.5 389.5,-195.5 150.5,-195.5"/>
<text text-anchor="middle" x="270" y="-203.5" font-family="Helvetica,sans-Serif" font-size="10.00">RoR::LandVehicleSimulation::UpdateCruiseControl</text>
</a>
</g>
<!-- Node1&#45;&gt;Node2 -->
<g id="edge2" class="edge"><title>Node1&#45;&gt;Node2</title>
<path fill="none" stroke="midnightblue" d="M74.2935,-125.667C91.8105,-142.503 120.466,-167.26 150,-181 163.41,-187.239 178.383,-191.932 193.082,-195.461"/>
<polygon fill="midnightblue" stroke="midnightblue" points="76.6493,-123.075 67.0659,-118.557 71.7405,-128.065 76.6493,-123.075"/>
</g>
<!-- Node3 -->
<g id="node5" class="node"><title>Node3</title>
<a xlink:href="struct_ro_r_1_1_land_vehicle_simulation.html#a830e19b0460db3df601abe83096f78d7" target="_top" xlink:title="RoR::LandVehicleSimulation::UpdateVehicle">
<polygon fill="white" stroke="black" points="426,-156.5 426,-177.5 638,-177.5 638,-156.5 426,-156.5"/>
<text text-anchor="middle" x="532" y="-164.5" font-family="Helvetica,sans-Serif" font-size="10.00">RoR::LandVehicleSimulation::UpdateVehicle</text>
</a>
</g>
<!-- Node1&#45;&gt;Node3 -->
<g id="edge10" class="edge"><title>Node1&#45;&gt;Node3</title>
<path fill="none" stroke="midnightblue" d="M85.2226,-123.278C103.21,-132.212 127.32,-142.739 150,-148 241.366,-169.195 348.203,-172.785 425.623,-171.745"/>
<polygon fill="midnightblue" stroke="midnightblue" points="86.4055,-119.952 75.9076,-118.522 83.2223,-126.186 86.4055,-119.952"/>
</g>
<!-- Node4 -->
<g id="node7" class="node"><title>Node4</title>
<a xlink:href="struct_ro_r_1_1_land_vehicle_simulation.html#aeb311b9e9cb93cb4a55f58af0cf8c8a8" target="_top" xlink:title="RoR::LandVehicleSimulation::CheckSpeedLimit">
<polygon fill="white" stroke="black" points="157.5,-117.5 157.5,-138.5 382.5,-138.5 382.5,-117.5 157.5,-117.5"/>
<text text-anchor="middle" x="270" y="-125.5" font-family="Helvetica,sans-Serif" font-size="10.00">RoR::LandVehicleSimulation::CheckSpeedLimit</text>
</a>
</g>
<!-- Node1&#45;&gt;Node4 -->
<g id="edge6" class="edge"><title>Node1&#45;&gt;Node4</title>
<path fill="none" stroke="midnightblue" d="M123.787,-114.271C134.721,-115.298 146.308,-116.386 157.983,-117.482"/>
<polygon fill="midnightblue" stroke="midnightblue" points="123.804,-110.757 113.521,-113.307 123.15,-117.727 123.804,-110.757"/>
</g>
<!-- Node5 -->
<g id="node11" class="node"><title>Node5</title>
<a xlink:href="class_out_protocol.html#a04436a996c74893dc5eda26782be06ee" target="_top" xlink:title="OutProtocol::update">
<polygon fill="white" stroke="black" points="689,-40.5 689,-61.5 793,-61.5 793,-40.5 689,-40.5"/>
<text text-anchor="middle" x="741" y="-48.5" font-family="Helvetica,sans-Serif" font-size="10.00">OutProtocol::update</text>
</a>
</g>
<!-- Node1&#45;&gt;Node5 -->
<g id="edge12" class="edge"><title>Node1&#45;&gt;Node5</title>
<path fill="none" stroke="midnightblue" d="M119.517,-95.6452C129.678,-93.9045 140.111,-92.2765 150,-91 347.866,-65.4595 585.241,-55.6576 688.613,-52.4079"/>
<polygon fill="midnightblue" stroke="midnightblue" points="118.716,-92.2322 109.476,-97.4148 119.931,-99.126 118.716,-92.2322"/>
</g>
<!-- Node7 -->
<g id="node15" class="node"><title>Node7</title>
<a xlink:href="class_two_d_replay.html#a4b479652a9394ba9e8b7e08e33dbbb7a" target="_top" xlink:title="TwoDReplay::recordFrame">
<polygon fill="white" stroke="black" points="203,-0.5 203,-21.5 337,-21.5 337,-0.5 203,-0.5"/>
<text text-anchor="middle" x="270" y="-8.5" font-family="Helvetica,sans-Serif" font-size="10.00">TwoDReplay::recordFrame</text>
</a>
</g>
<!-- Node1&#45;&gt;Node7 -->
<g id="edge16" class="edge"><title>Node1&#45;&gt;Node7</title>
<path fill="none" stroke="midnightblue" d="M74.9912,-90.3458C92.6427,-74.0357 121.055,-50.3699 150,-37 166.449,-29.402 185.205,-23.9832 202.921,-20.1341"/>
<polygon fill="midnightblue" stroke="midnightblue" points="72.5399,-87.8467 67.675,-97.2586 77.3474,-92.9348 72.5399,-87.8467"/>
</g>
<!-- Node11 -->
<g id="node24" class="node"><title>Node11</title>
<a xlink:href="class_overlay_wrapper.html#af60b94483d2976f1356c3450cc1d70e8" target="_top" xlink:title="OverlayWrapper::UpdateLandVehicleHUD">
<polygon fill="white" stroke="black" points="432,-79.5 432,-100.5 632,-100.5 632,-79.5 432,-79.5"/>
<text text-anchor="middle" x="532" y="-87.5" font-family="Helvetica,sans-Serif" font-size="10.00">OverlayWrapper::UpdateLandVehicleHUD</text>
</a>
</g>
<!-- Node1&#45;&gt;Node11 -->
<g id="edge26" class="edge"><title>Node1&#45;&gt;Node11</title>
<path fill="none" stroke="midnightblue" d="M124.282,-105.45C204.431,-102.413 339.081,-97.3106 431.568,-93.8058"/>
<polygon fill="midnightblue" stroke="midnightblue" points="123.685,-101.97 113.824,-105.847 123.95,-108.965 123.685,-101.97"/>
</g>
<!-- Node2&#45;&gt;Node3 -->
<g id="edge4" class="edge"><title>Node2&#45;&gt;Node3</title>
<path fill="none" stroke="midnightblue" d="M350.838,-193.967C386.167,-188.708 427.228,-182.596 461.318,-177.521"/>
<polygon fill="midnightblue" stroke="midnightblue" points="349.932,-190.563 340.556,-195.497 350.962,-197.487 349.932,-190.563"/>
</g>
<!-- Node4&#45;&gt;Node3 -->
<g id="edge8" class="edge"><title>Node4&#45;&gt;Node3</title>
<path fill="none" stroke="midnightblue" d="M350.838,-140.033C386.167,-145.292 427.228,-151.404 461.318,-156.479"/>
<polygon fill="midnightblue" stroke="midnightblue" points="350.962,-136.513 340.556,-138.503 349.932,-143.437 350.962,-136.513"/>
</g>
<!-- Node6 -->
<g id="node13" class="node"><title>Node6</title>
<a xlink:href="class_ro_r_frame_listener.html#acd8647e188fb8e838689492965b86faf" target="_top" xlink:title="RoRFrameListener::frameStarted">
<polygon fill="white" stroke="black" points="844.5,-40.5 844.5,-61.5 1005.5,-61.5 1005.5,-40.5 844.5,-40.5"/>
<text text-anchor="middle" x="925" y="-48.5" font-family="Helvetica,sans-Serif" font-size="10.00">RoRFrameListener::frameStarted</text>
</a>
</g>
<!-- Node5&#45;&gt;Node6 -->
<g id="edge14" class="edge"><title>Node5&#45;&gt;Node6</title>
<path fill="none" stroke="midnightblue" d="M803.559,-51C816.702,-51 830.742,-51 844.437,-51"/>
<polygon fill="midnightblue" stroke="midnightblue" points="803.235,-47.5001 793.235,-51 803.235,-54.5001 803.235,-47.5001"/>
</g>
<!-- Node8 -->
<g id="node17" class="node"><title>Node8</title>
<a xlink:href="class_two_d_replay.html#abceb8a16da69e16f581128ae0e111a12" target="_top" xlink:title="TwoDReplay::update">
<polygon fill="white" stroke="black" points="477.5,-0.5 477.5,-21.5 586.5,-21.5 586.5,-0.5 477.5,-0.5"/>
<text text-anchor="middle" x="532" y="-8.5" font-family="Helvetica,sans-Serif" font-size="10.00">TwoDReplay::update</text>
</a>
</g>
<!-- Node7&#45;&gt;Node8 -->
<g id="edge18" class="edge"><title>Node7&#45;&gt;Node8</title>
<path fill="none" stroke="midnightblue" d="M347.279,-11C389.082,-11 439.712,-11 477.387,-11"/>
<polygon fill="midnightblue" stroke="midnightblue" points="347.131,-7.5001 337.131,-11 347.131,-14.5001 347.131,-7.5001"/>
</g>
<!-- Node9 -->
<g id="node19" class="node"><title>Node9</title>
<a xlink:href="class_beam_factory.html#a6fa954b906b6dc808a34e69ac2d018d3" target="_top" xlink:title="BeamFactory::calcPhysics">
<polygon fill="white" stroke="black" points="674,-0.5 674,-21.5 808,-21.5 808,-0.5 674,-0.5"/>
<text text-anchor="middle" x="741" y="-8.5" font-family="Helvetica,sans-Serif" font-size="10.00">BeamFactory::calcPhysics</text>
</a>
</g>
<!-- Node8&#45;&gt;Node9 -->
<g id="edge20" class="edge"><title>Node8&#45;&gt;Node9</title>
<path fill="none" stroke="midnightblue" d="M596.91,-11C621.406,-11 649.309,-11 673.994,-11"/>
<polygon fill="midnightblue" stroke="midnightblue" points="596.639,-7.5001 586.639,-11 596.639,-14.5001 596.639,-7.5001"/>
</g>
<!-- Node9&#45;&gt;Node6 -->
<g id="edge22" class="edge"><title>Node9&#45;&gt;Node6</title>
<path fill="none" stroke="midnightblue" d="M799.393,-23.6941C824.286,-29.1056 852.984,-35.3443 876.66,-40.4913"/>
<polygon fill="midnightblue" stroke="midnightblue" points="799.859,-20.2138 789.344,-21.5095 798.372,-27.054 799.859,-20.2138"/>
</g>
<!-- Node10 -->
<g id="node22" class="node"><title>Node10</title>
<a xlink:href="class_preview_renderer.html#a5ea6b4611b45965e072266211dc60ba8" target="_top" xlink:title="PreviewRenderer::render">
<polygon fill="white" stroke="black" points="862.5,-0.5 862.5,-21.5 987.5,-21.5 987.5,-0.5 862.5,-0.5"/>
<text text-anchor="middle" x="925" y="-8.5" font-family="Helvetica,sans-Serif" font-size="10.00">PreviewRenderer::render</text>
</a>
</g>
<!-- Node9&#45;&gt;Node10 -->
<g id="edge24" class="edge"><title>Node9&#45;&gt;Node10</title>
<path fill="none" stroke="midnightblue" d="M818.262,-11C832.927,-11 848.106,-11 862.255,-11"/>
<polygon fill="midnightblue" stroke="midnightblue" points="818.209,-7.5001 808.209,-11 818.209,-14.5001 818.209,-7.5001"/>
</g>
<!-- Node11&#45;&gt;Node6 -->
<g id="edge28" class="edge"><title>Node11&#45;&gt;Node6</title>
<path fill="none" stroke="midnightblue" d="M642.181,-84.9596C692.805,-81.9913 753.566,-77.5094 808,-71 828.461,-68.5532 850.79,-64.9662 870.405,-61.5031"/>
<polygon fill="midnightblue" stroke="midnightblue" points="641.978,-81.4653 632.196,-85.5332 642.38,-88.4538 641.978,-81.4653"/>
</g>
</g>
</svg>
        <g id="navigator" transform="translate(0 0)" fill="#404254">
                <rect fill="#f2f5e9" fill-opacity="0.5" stroke="#606060" stroke-width=".5" x="0" y="0" width="60" height="60"/>
                <use id="zoomplus" xlink:href="#zoomPlus" x="17" y="9" onmousedown="handleZoom(evt,'in')"/>
                <use id="zoomminus" xlink:href="#zoomMin" x="42" y="9" onmousedown="handleZoom(evt,'out')"/>
                <use id="reset" xlink:href="#resetDef" x="30" y="36" onmousedown="handleReset()"/>
                <g id="arrowUp" xlink:href="#dirArrow" transform="translate(30 24)" onmousedown="handlePan(0,-1)">
                  <use xlink:href="#rim" fill="#404040">
                        <set attributeName="fill" to="#808080" begin="arrowUp.mouseover" end="arrowUp.mouseout"/>
                  </use>
                  <path fill="none" stroke="white" stroke-width="1.5" d="M0,-3.0v7 M-2.5,-0.5L0,-3.0L2.5,-0.5"/>
                </g>
                <g id="arrowRight" xlink:href="#dirArrow" transform="rotate(90) translate(36 -43)" onmousedown="handlePan(1,0)">
                  <use xlink:href="#rim" fill="#404040">
                        <set attributeName="fill" to="#808080" begin="arrowRight.mouseover" end="arrowRight.mouseout"/>
                  </use>
                  <path fill="none" stroke="white" stroke-width="1.5" d="M0,-3.0v7 M-2.5,-0.5L0,-3.0L2.5,-0.5"/>
                </g>
                <g id="arrowDown" xlink:href="#dirArrow" transform="rotate(180) translate(-30 -48)" onmousedown="handlePan(0,1)">
                  <use xlink:href="#rim" fill="#404040">
                        <set attributeName="fill" to="#808080" begin="arrowDown.mouseover" end="arrowDown.mouseout"/>
                  </use>
                  <path fill="none" stroke="white" stroke-width="1.5" d="M0,-3.0v7 M-2.5,-0.5L0,-3.0L2.5,-0.5"/>
                </g>
                <g id="arrowLeft" xlink:href="#dirArrow" transform="rotate(270) translate(-36 17)" onmousedown="handlePan(-1,0)">
                  <use xlink:href="#rim" fill="#404040">
                        <set attributeName="fill" to="#808080" begin="arrowLeft.mouseover" end="arrowLeft.mouseout"/>
                  </use>
                  <path fill="none" stroke="white" stroke-width="1.5" d="M0,-3.0v7 M-2.5,-0.5L0,-3.0L2.5,-0.5"/>
                </g>
        </g>
</svg>
