<?xml version="1.0" encoding="UTF-8" standalone="no"?>
<!DOCTYPE svg PUBLIC "-//W3C//DTD SVG 1.1//EN"
 "http://www.w3.org/Graphics/SVG/1.1/DTD/svg11.dtd">
<!-- Generated by graphviz version 2.26.3 (20100126.1600)
 -->
<!-- Title: ForceFeedback::setEnabled Pages: 1 -->
<!--zoomable 290 -->
<svg id="main" version="1.1" xmlns="http://www.w3.org/2000/svg" xmlns:xlink="http://www.w3.org/1999/xlink" xml:space="preserve" onload="init(evt)">
<style type="text/css"><![CDATA[
.edge:hover path { stroke: red; }
.edge:hover polygon { stroke: red; fill: red; }
]]></style>
<script type="text/javascript"><![CDATA[
var edges = document.getElementsByTagName('g');
if (edges && edges.length) {
  for (var i=0;i<edges.length;i++) {
    if (edges[i].id.substr(0,4)=='edge') {
      edges[i].setAttribute('class','edge');
    }
  }
}
]]></script>
        <defs>
                <circle id="rim" cx="0" cy="0" r="7"/>
                <circle id="rim2" cx="0" cy="0" r="3.5"/>
                <g id="zoomPlus">
                        <use xlink:href="#rim" fill="#404040">
                                <set attributeName="fill" to="#808080" begin="zoomplus.mouseover" end="zoomplus.mouseout"/>
                        </use>
                        <path d="M-4,0h8M0,-4v8" fill="none" stroke="white" stroke-width="1.5" pointer-events="none"/>
                </g>
                <g id="zoomMin">
                        <use xlink:href="#rim" fill="#404040">
                                <set attributeName="fill" to="#808080" begin="zoomminus.mouseover" end="zoomminus.mouseout"/>
                        </use>
                        <path d="M-4,0h8" fill="none" stroke="white" stroke-width="1.5" pointer-events="none"/>
                </g>
                <g id="dirArrow">
                        <path fill="none" stroke="white" stroke-width="1.5" d="M0,-3.0v7 M-2.5,-0.5L0,-3.0L2.5,-0.5"/>
                </g>
               <g id="resetDef">
                       <use xlink:href="#rim2" fill="#404040">
                               <set attributeName="fill" to="#808080" begin="reset.mouseover" end="reset.mouseout"/>
                       </use>
               </g>
        </defs>

<script type="text/javascript">
var viewWidth = 1616;
var viewHeight = 290;
var sectionId = 'dynsection-2';
</script>
<script xlink:href="svgpan.js"/>
<svg id="graph" class="graph">
<g id="viewport">
<title>ForceFeedback::setEnabled</title>
<polygon fill="white" stroke="white" points="-4,5 -4,-286.065 1613,-286.065 1613,5 -4,5"/>
<!-- Node1 -->
<g id="node1" class="node"><title>Node1</title>
<polygon fill="#bfbfbf" stroke="black" points="0.5,-144.5 0.5,-165.5 139.5,-165.5 139.5,-144.5 0.5,-144.5"/>
<text text-anchor="middle" x="70" y="-152.5" font-family="Helvetica,sans-Serif" font-size="10.00">ForceFeedback::setEnabled</text>
</g>
<!-- Node2 -->
<g id="node3" class="node"><title>Node2</title>
<a xlink:href="class_ro_r_1_1_main_thread.html#af7d1f53cf02660323c9dfe6cc5a1e7e1" target="_top" xlink:title="RoR::MainThread::Changed\lCurrentVehicle">
<polygon fill="white" stroke="black" points="176.5,-138 176.5,-172 315.5,-172 315.5,-138 176.5,-138"/>
<text text-anchor="start" x="184.5" y="-159" font-family="Helvetica,sans-Serif" font-size="10.00">RoR::MainThread::Changed</text>
<text text-anchor="middle" x="246" y="-146" font-family="Helvetica,sans-Serif" font-size="10.00">CurrentVehicle</text>
</a>
</g>
<!-- Node1&#45;&gt;Node2 -->
<g id="edge2" class="edge"><title>Node1&#45;&gt;Node2</title>
<path fill="none" stroke="midnightblue" d="M149.581,-155C158.518,-155 167.571,-155 176.369,-155"/>
<polygon fill="midnightblue" stroke="midnightblue" points="149.56,-151.5 139.56,-155 149.56,-158.5 149.56,-151.5"/>
</g>
<!-- Node3 -->
<g id="node5" class="node"><title>Node3</title>
<a xlink:href="class_beam_factory.html#ac70a8aa131a6709ebf05dc3c0f6dab10" target="_top" xlink:title="BeamFactory::setCurrentTruck">
<polygon fill="white" stroke="black" points="352,-144.5 352,-165.5 504,-165.5 504,-144.5 352,-144.5"/>
<text text-anchor="middle" x="428" y="-152.5" font-family="Helvetica,sans-Serif" font-size="10.00">BeamFactory::setCurrentTruck</text>
</a>
</g>
<!-- Node2&#45;&gt;Node3 -->
<g id="edge4" class="edge"><title>Node2&#45;&gt;Node3</title>
<path fill="none" stroke="midnightblue" d="M325.679,-155C334.348,-155 343.156,-155 351.783,-155"/>
<polygon fill="midnightblue" stroke="midnightblue" points="325.585,-151.5 315.585,-155 325.585,-158.5 325.585,-151.5"/>
</g>
<!-- Node4 -->
<g id="node7" class="node"><title>Node4</title>
<a xlink:href="class_ro_r_frame_listener.html#a6b384193b130f7c1fff95d2e740a370e" target="_top" xlink:title="RoRFrameListener::update\lEvents">
<polygon fill="white" stroke="black" points="737,-224 737,-258 871,-258 871,-224 737,-224"/>
<text text-anchor="start" x="745" y="-245" font-family="Helvetica,sans-Serif" font-size="10.00">RoRFrameListener::update</text>
<text text-anchor="middle" x="804" y="-232" font-family="Helvetica,sans-Serif" font-size="10.00">Events</text>
</a>
</g>
<!-- Node3&#45;&gt;Node4 -->
<g id="edge6" class="edge"><title>Node3&#45;&gt;Node4</title>
<path fill="none" stroke="midnightblue" d="M439.988,-174.232C457.924,-200.961 494.548,-248.173 540,-267 612.121,-296.874 704.473,-275.79 758.648,-258.131"/>
<polygon fill="midnightblue" stroke="midnightblue" points="442.83,-172.182 434.439,-165.712 436.964,-176.002 442.83,-172.182"/>
</g>
<!-- Node6 -->
<g id="node11" class="node"><title>Node6</title>
<a xlink:href="class_ro_r_frame_listener.html#abbab3f9d2773790f0d8567ee4434a739" target="_top" xlink:title="RoRFrameListener::InitTrucks">
<polygon fill="white" stroke="black" points="540.5,-184.5 540.5,-205.5 689.5,-205.5 689.5,-184.5 540.5,-184.5"/>
<text text-anchor="middle" x="615" y="-192.5" font-family="Helvetica,sans-Serif" font-size="10.00">RoRFrameListener::InitTrucks</text>
</a>
</g>
<!-- Node3&#45;&gt;Node6 -->
<g id="edge10" class="edge"><title>Node3&#45;&gt;Node6</title>
<path fill="none" stroke="midnightblue" d="M487.008,-167.622C512.384,-173.05 541.703,-179.321 565.872,-184.491"/>
<polygon fill="midnightblue" stroke="midnightblue" points="487.643,-164.179 477.132,-165.51 486.179,-171.024 487.643,-164.179"/>
</g>
<!-- Node13 -->
<g id="node26" class="node"><title>Node13</title>
<a xlink:href="class_ro_r_frame_listener.html#accf1a2895ee6b67789cfaa570bfa01cb" target="_top" xlink:title="RoRFrameListener::reload\lCurrentTruck">
<polygon fill="white" stroke="black" points="549.5,-224 549.5,-258 680.5,-258 680.5,-224 549.5,-224"/>
<text text-anchor="start" x="557.5" y="-245" font-family="Helvetica,sans-Serif" font-size="10.00">RoRFrameListener::reload</text>
<text text-anchor="middle" x="615" y="-232" font-family="Helvetica,sans-Serif" font-size="10.00">CurrentTruck</text>
</a>
</g>
<!-- Node3&#45;&gt;Node13 -->
<g id="edge26" class="edge"><title>Node3&#45;&gt;Node13</title>
<path fill="none" stroke="midnightblue" d="M454.676,-170.838C477.002,-183.714 509.943,-201.838 540,-215 547.069,-218.096 554.635,-221.081 562.141,-223.857"/>
<polygon fill="midnightblue" stroke="midnightblue" points="456.2,-167.676 445.797,-165.671 452.679,-173.726 456.2,-167.676"/>
</g>
<!-- Node14 -->
<g id="node29" class="node"><title>Node14</title>
<a xlink:href="class_preview_renderer.html#a5ea6b4611b45965e072266211dc60ba8" target="_top" xlink:title="PreviewRenderer::render">
<polygon fill="white" stroke="black" points="552.5,-144.5 552.5,-165.5 677.5,-165.5 677.5,-144.5 552.5,-144.5"/>
<text text-anchor="middle" x="615" y="-152.5" font-family="Helvetica,sans-Serif" font-size="10.00">PreviewRenderer::render</text>
</a>
</g>
<!-- Node3&#45;&gt;Node14 -->
<g id="edge30" class="edge"><title>Node3&#45;&gt;Node14</title>
<path fill="none" stroke="midnightblue" d="M514.311,-155C527.164,-155 540.2,-155 552.439,-155"/>
<polygon fill="midnightblue" stroke="midnightblue" points="514.06,-151.5 504.06,-155 514.06,-158.5 514.06,-151.5"/>
</g>
<!-- Node15 -->
<g id="node31" class="node"><title>Node15</title>
<a xlink:href="class_beam_factory.html#a49a4ee797005fff135d8f88a085986a0" target="_top" xlink:title="BeamFactory::removeTruck">
<polygon fill="white" stroke="black" points="546,-104.5 546,-125.5 684,-125.5 684,-104.5 546,-104.5"/>
<text text-anchor="middle" x="615" y="-112.5" font-family="Helvetica,sans-Serif" font-size="10.00">BeamFactory::removeTruck</text>
</a>
</g>
<!-- Node3&#45;&gt;Node15 -->
<g id="edge32" class="edge"><title>Node3&#45;&gt;Node15</title>
<path fill="none" stroke="midnightblue" d="M487.008,-142.378C512.384,-136.95 541.703,-130.679 565.872,-125.509"/>
<polygon fill="midnightblue" stroke="midnightblue" points="486.179,-138.976 477.132,-144.49 487.643,-145.821 486.179,-138.976"/>
</g>
<!-- Node16 -->
<g id="node33" class="node"><title>Node16</title>
<a xlink:href="class_beam_factory.html#a59b66e06ec1f1d1f9adb0d299da15265" target="_top" xlink:title="BeamFactory::p_removeAll\lTrucks">
<polygon fill="white" stroke="black" points="547.5,-52 547.5,-86 682.5,-86 682.5,-52 547.5,-52"/>
<text text-anchor="start" x="555.5" y="-73" font-family="Helvetica,sans-Serif" font-size="10.00">BeamFactory::p_removeAll</text>
<text text-anchor="middle" x="615" y="-60" font-family="Helvetica,sans-Serif" font-size="10.00">Trucks</text>
</a>
</g>
<!-- Node3&#45;&gt;Node16 -->
<g id="edge34" class="edge"><title>Node3&#45;&gt;Node16</title>
<path fill="none" stroke="midnightblue" d="M454.676,-139.162C477.002,-126.286 509.943,-108.162 540,-95 547.069,-91.9043 554.635,-88.9188 562.141,-86.1435"/>
<polygon fill="midnightblue" stroke="midnightblue" points="452.679,-136.274 445.797,-144.329 456.2,-142.324 452.679,-136.274"/>
</g>
<!-- Node19 -->
<g id="node40" class="node"><title>Node19</title>
<a xlink:href="class_beam_factory.html#a297cce523629edad68ff2c05bcaa44ac" target="_top" xlink:title="BeamFactory::enterRescue\lTruck">
<polygon fill="white" stroke="black" points="546.5,-0 546.5,-34 683.5,-34 683.5,-0 546.5,-0"/>
<text text-anchor="start" x="554.5" y="-21" font-family="Helvetica,sans-Serif" font-size="10.00">BeamFactory::enterRescue</text>
<text text-anchor="middle" x="615" y="-8" font-family="Helvetica,sans-Serif" font-size="10.00">Truck</text>
</a>
</g>
<!-- Node3&#45;&gt;Node19 -->
<g id="edge42" class="edge"><title>Node3&#45;&gt;Node19</title>
<path fill="none" stroke="midnightblue" d="M442.142,-136.32C461.661,-111.725 499.111,-68.6098 540,-43 545.256,-39.7082 550.981,-36.7703 556.849,-34.1636"/>
<polygon fill="midnightblue" stroke="midnightblue" points="439.172,-134.437 435.789,-144.477 444.695,-138.738 439.172,-134.437"/>
</g>
<!-- Node5 -->
<g id="node9" class="node"><title>Node5</title>
<a xlink:href="class_ro_r_frame_listener.html#acd8647e188fb8e838689492965b86faf" target="_top" xlink:title="RoRFrameListener::frameStarted">
<polygon fill="white" stroke="black" points="933.5,-230.5 933.5,-251.5 1094.5,-251.5 1094.5,-230.5 933.5,-230.5"/>
<text text-anchor="middle" x="1014" y="-238.5" font-family="Helvetica,sans-Serif" font-size="10.00">RoRFrameListener::frameStarted</text>
</a>
</g>
<!-- Node4&#45;&gt;Node5 -->
<g id="edge8" class="edge"><title>Node4&#45;&gt;Node5</title>
<path fill="none" stroke="midnightblue" d="M881.402,-241C898.314,-241 916.254,-241 933.291,-241"/>
<polygon fill="midnightblue" stroke="midnightblue" points="881.023,-237.5 871.023,-241 881.023,-244.5 881.023,-237.5"/>
</g>
<!-- Node6&#45;&gt;Node4 -->
<g id="edge12" class="edge"><title>Node6&#45;&gt;Node4</title>
<path fill="none" stroke="midnightblue" d="M668.189,-207.945C689.476,-213.126 714.244,-219.155 736.755,-224.634"/>
<polygon fill="midnightblue" stroke="midnightblue" points="668.904,-204.518 658.36,-205.553 667.249,-211.319 668.904,-204.518"/>
</g>
<!-- Node7 -->
<g id="node14" class="node"><title>Node7</title>
<a xlink:href="class_ro_r_1_1_main_thread.html#aa3feeebda7f3f4c31a6cb96ea60c09e0" target="_top" xlink:title="RoR::MainThread::SetupGameplayLoop">
<polygon fill="white" stroke="black" points="918.5,-168.5 918.5,-189.5 1109.5,-189.5 1109.5,-168.5 918.5,-168.5"/>
<text text-anchor="middle" x="1014" y="-176.5" font-family="Helvetica,sans-Serif" font-size="10.00">RoR::MainThread::SetupGameplayLoop</text>
</a>
</g>
<!-- Node6&#45;&gt;Node7 -->
<g id="edge14" class="edge"><title>Node6&#45;&gt;Node7</title>
<path fill="none" stroke="midnightblue" d="M699.645,-191.606C763.677,-189.038 851.648,-185.51 918.248,-182.84"/>
<polygon fill="midnightblue" stroke="midnightblue" points="699.432,-188.111 689.581,-192.009 699.713,-195.106 699.432,-188.111"/>
</g>
<!-- Node8 -->
<g id="node16" class="node"><title>Node8</title>
<a xlink:href="class_ro_r_1_1_main_thread.html#a7e4d0bd23a40e509892883af75ea0dbf" target="_top" xlink:title="RoR::MainThread::Go">
<polygon fill="white" stroke="black" points="1146.5,-126.5 1146.5,-147.5 1259.5,-147.5 1259.5,-126.5 1146.5,-126.5"/>
<text text-anchor="middle" x="1203" y="-134.5" font-family="Helvetica,sans-Serif" font-size="10.00">RoR::MainThread::Go</text>
</a>
</g>
<!-- Node7&#45;&gt;Node8 -->
<g id="edge16" class="edge"><title>Node7&#45;&gt;Node8</title>
<path fill="none" stroke="midnightblue" d="M1071.74,-166.168C1098.62,-160.195 1130.2,-153.177 1155.65,-147.522"/>
<polygon fill="midnightblue" stroke="midnightblue" points="1070.7,-162.816 1061.69,-168.402 1072.21,-169.649 1070.7,-162.816"/>
</g>
<!-- Node9 -->
<g id="node18" class="node"><title>Node9</title>
<a xlink:href="main_2main__sim_2main_8cpp.html#a0ddf1224851353fc92bfbff6f499fa97" target="_top" xlink:title="main">
<polygon fill="white" stroke="black" points="1346,-149.5 1346,-170.5 1384,-170.5 1384,-149.5 1346,-149.5"/>
<text text-anchor="middle" x="1365" y="-157.5" font-family="Helvetica,sans-Serif" font-size="10.00">main</text>
</a>
</g>
<!-- Node8&#45;&gt;Node9 -->
<g id="edge18" class="edge"><title>Node8&#45;&gt;Node9</title>
<path fill="none" stroke="midnightblue" d="M1269.69,-146.469C1297.27,-150.384 1327.14,-154.624 1345.95,-157.295"/>
<polygon fill="midnightblue" stroke="midnightblue" points="1270.05,-142.985 1259.66,-145.044 1269.07,-149.915 1270.05,-142.985"/>
</g>
<!-- Node11 -->
<g id="node22" class="node"><title>Node11</title>
<a xlink:href="class_ro_r_1_1_main_thread.html#a7a2db954fd2f35d63982d8603d2b9614" target="_top" xlink:title="RoR::MainThread::Request\lRestart">
<polygon fill="white" stroke="black" points="1296.5,-97 1296.5,-131 1433.5,-131 1433.5,-97 1296.5,-97"/>
<text text-anchor="start" x="1304.5" y="-118" font-family="Helvetica,sans-Serif" font-size="10.00">RoR::MainThread::Request</text>
<text text-anchor="middle" x="1365" y="-105" font-family="Helvetica,sans-Serif" font-size="10.00">Restart</text>
</a>
</g>
<!-- Node8&#45;&gt;Node11 -->
<g id="edge22" class="edge"><title>Node8&#45;&gt;Node11</title>
<path fill="none" stroke="midnightblue" d="M1269.82,-127.513C1278.59,-126.267 1287.59,-124.99 1296.39,-123.741"/>
<polygon fill="midnightblue" stroke="midnightblue" points="1269.07,-124.085 1259.66,-128.956 1270.05,-131.015 1269.07,-124.085"/>
</g>
<!-- Node10 -->
<g id="node20" class="node"><title>Node10</title>
<a xlink:href="main_2main__sim_2main_8cpp.html#a2922bc5d5c2d77a3020cfbf9df12aab0" target="_top" xlink:title="WinMain">
<polygon fill="white" stroke="black" points="1511.5,-149.5 1511.5,-170.5 1566.5,-170.5 1566.5,-149.5 1511.5,-149.5"/>
<text text-anchor="middle" x="1539" y="-157.5" font-family="Helvetica,sans-Serif" font-size="10.00">WinMain</text>
</a>
</g>
<!-- Node9&#45;&gt;Node10 -->
<g id="edge20" class="edge"><title>Node9&#45;&gt;Node10</title>
<path fill="none" stroke="midnightblue" d="M1394.56,-160C1427.23,-160 1479.44,-160 1511.33,-160"/>
<polygon fill="midnightblue" stroke="midnightblue" points="1394.29,-156.5 1384.29,-160 1394.29,-163.5 1394.29,-156.5"/>
</g>
<!-- Node12 -->
<g id="node24" class="node"><title>Node12</title>
<a xlink:href="class_ro_r_frame_listener.html#af2779b96aa0f91920bd100bc30261402" target="_top" xlink:title="RoRFrameListener::Restart">
<polygon fill="white" stroke="black" points="1470.5,-103.5 1470.5,-124.5 1607.5,-124.5 1607.5,-103.5 1470.5,-103.5"/>
<text text-anchor="middle" x="1539" y="-111.5" font-family="Helvetica,sans-Serif" font-size="10.00">RoRFrameListener::Restart</text>
</a>
</g>
<!-- Node11&#45;&gt;Node12 -->
<g id="edge24" class="edge"><title>Node11&#45;&gt;Node12</title>
<path fill="none" stroke="midnightblue" d="M1444.04,-114C1452.86,-114 1461.78,-114 1470.45,-114"/>
<polygon fill="midnightblue" stroke="midnightblue" points="1443.77,-110.5 1433.77,-114 1443.77,-117.5 1443.77,-110.5"/>
</g>
<!-- Node13&#45;&gt;Node4 -->
<g id="edge28" class="edge"><title>Node13&#45;&gt;Node4</title>
<path fill="none" stroke="midnightblue" d="M690.975,-241C706.184,-241 722.059,-241 736.941,-241"/>
<polygon fill="midnightblue" stroke="midnightblue" points="690.573,-237.5 680.573,-241 690.573,-244.5 690.573,-237.5"/>
</g>
<!-- Node17 -->
<g id="node35" class="node"><title>Node17</title>
<a xlink:href="class_beam_factory.html#a089236a1b1ee4dc3b6efa157a784d69c" target="_top" xlink:title="BeamFactory::removeAllTrucks">
<polygon fill="white" stroke="black" points="726.5,-79.5 726.5,-100.5 881.5,-100.5 881.5,-79.5 726.5,-79.5"/>
<text text-anchor="middle" x="804" y="-87.5" font-family="Helvetica,sans-Serif" font-size="10.00">BeamFactory::removeAllTrucks</text>
</a>
</g>
<!-- Node16&#45;&gt;Node17 -->
<g id="edge36" class="edge"><title>Node16&#45;&gt;Node17</title>
<path fill="none" stroke="midnightblue" d="M692.806,-77.6451C703.928,-78.8809 715.369,-80.1521 726.485,-81.3872"/>
<polygon fill="midnightblue" stroke="midnightblue" points="693.025,-74.148 682.7,-76.5222 692.252,-81.1052 693.025,-74.148"/>
</g>
<!-- Node18 -->
<g id="node37" class="node"><title>Node18</title>
<a xlink:href="class_ro_r_1_1_main_thread.html#a19637f726d0913e26e0d0548448d8c91" target="_top" xlink:title="RoR::MainThread::UnloadTerrain">
<polygon fill="white" stroke="black" points="933.5,-85.5 933.5,-106.5 1094.5,-106.5 1094.5,-85.5 933.5,-85.5"/>
<text text-anchor="middle" x="1014" y="-93.5" font-family="Helvetica,sans-Serif" font-size="10.00">RoR::MainThread::UnloadTerrain</text>
</a>
</g>
<!-- Node17&#45;&gt;Node18 -->
<g id="edge38" class="edge"><title>Node17&#45;&gt;Node18</title>
<path fill="none" stroke="midnightblue" d="M891.961,-92.5132C905.633,-92.9038 919.7,-93.3057 933.203,-93.6915"/>
<polygon fill="midnightblue" stroke="midnightblue" points="891.696,-89.0043 881.6,-92.2171 891.496,-96.0014 891.696,-89.0043"/>
</g>
<!-- Node18&#45;&gt;Node8 -->
<g id="edge40" class="edge"><title>Node18&#45;&gt;Node8</title>
<path fill="none" stroke="midnightblue" d="M1072.52,-108.694C1098.82,-114.4 1129.5,-121.055 1154.49,-126.477"/>
<polygon fill="midnightblue" stroke="midnightblue" points="1073.19,-105.258 1062.67,-106.559 1071.7,-112.099 1073.19,-105.258"/>
</g>
</g>
</svg>
        <g id="navigator" transform="translate(0 0)" fill="#404254">
                <rect fill="#f2f5e9" fill-opacity="0.5" stroke="#606060" stroke-width=".5" x="0" y="0" width="60" height="60"/>
                <use id="zoomplus" xlink:href="#zoomPlus" x="17" y="9" onmousedown="handleZoom(evt,'in')"/>
                <use id="zoomminus" xlink:href="#zoomMin" x="42" y="9" onmousedown="handleZoom(evt,'out')"/>
                <use id="reset" xlink:href="#resetDef" x="30" y="36" onmousedown="handleReset()"/>
                <g id="arrowUp" xlink:href="#dirArrow" transform="translate(30 24)" onmousedown="handlePan(0,-1)">
                  <use xlink:href="#rim" fill="#404040">
                        <set attributeName="fill" to="#808080" begin="arrowUp.mouseover" end="arrowUp.mouseout"/>
                  </use>
                  <path fill="none" stroke="white" stroke-width="1.5" d="M0,-3.0v7 M-2.5,-0.5L0,-3.0L2.5,-0.5"/>
                </g>
                <g id="arrowRight" xlink:href="#dirArrow" transform="rotate(90) translate(36 -43)" onmousedown="handlePan(1,0)">
                  <use xlink:href="#rim" fill="#404040">
                        <set attributeName="fill" to="#808080" begin="arrowRight.mouseover" end="arrowRight.mouseout"/>
                  </use>
                  <path fill="none" stroke="white" stroke-width="1.5" d="M0,-3.0v7 M-2.5,-0.5L0,-3.0L2.5,-0.5"/>
                </g>
                <g id="arrowDown" xlink:href="#dirArrow" transform="rotate(180) translate(-30 -48)" onmousedown="handlePan(0,1)">
                  <use xlink:href="#rim" fill="#404040">
                        <set attributeName="fill" to="#808080" begin="arrowDown.mouseover" end="arrowDown.mouseout"/>
                  </use>
                  <path fill="none" stroke="white" stroke-width="1.5" d="M0,-3.0v7 M-2.5,-0.5L0,-3.0L2.5,-0.5"/>
                </g>
                <g id="arrowLeft" xlink:href="#dirArrow" transform="rotate(270) translate(-36 17)" onmousedown="handlePan(-1,0)">
                  <use xlink:href="#rim" fill="#404040">
                        <set attributeName="fill" to="#808080" begin="arrowLeft.mouseover" end="arrowLeft.mouseout"/>
                  </use>
                  <path fill="none" stroke="white" stroke-width="1.5" d="M0,-3.0v7 M-2.5,-0.5L0,-3.0L2.5,-0.5"/>
                </g>
        </g>
        <svg viewBox="0 0 15 15" width="100%" height="30px" preserveAspectRatio="xMaxYMin meet">
         <g id="arrow_out" transform="scale(0.3 0.3)">
          <a xlink:href="class_force_feedback_ac80c88ae853f3df8b7b1613a70545647_icgraph_org.svg" target="_base">
           <rect id="button" ry="5" rx="5" y="6" x="6" height="38" width="38"
                fill="#f2f5e9" fill-opacity="0.5" stroke="#606060" stroke-width="1.0"/>
           <path id="arrow"
             d="M 11.500037,31.436501 C 11.940474,20.09759 22.043105,11.32322 32.158766,21.979434 L 37.068811,17.246167 C 37.068811,17.246167 37.088388,32 37.088388,32 L 22.160133,31.978069 C 22.160133,31.978069 26.997745,27.140456 26.997745,27.140456 C 18.528582,18.264221 13.291696,25.230495 11.500037,31.436501 z"
             style="fill:#404040;"/>
          </a>
         </g>
        </svg>
</svg>
