<?xml version="1.0" encoding="UTF-8" standalone="no"?>
<!DOCTYPE svg PUBLIC "-//W3C//DTD SVG 1.1//EN"
 "http://www.w3.org/Graphics/SVG/1.1/DTD/svg11.dtd">
<!-- Generated by graphviz version 2.26.3 (20100126.1600)
 -->
<!-- Title: G Pages: 1 -->
<!--zoomable 424 -->
<svg id="main" version="1.1" xmlns="http://www.w3.org/2000/svg" xmlns:xlink="http://www.w3.org/1999/xlink" xml:space="preserve" onload="init(evt)">
        <defs>
                <circle id="rim" cx="0" cy="0" r="7"/>
                <circle id="rim2" cx="0" cy="0" r="3.5"/>
                <g id="zoomPlus">
                        <use xlink:href="#rim" fill="#404040">
                                <set attributeName="fill" to="#808080" begin="zoomplus.mouseover" end="zoomplus.mouseout"/>
                        </use>
                        <path d="M-4,0h8M0,-4v8" fill="none" stroke="white" stroke-width="1.5" pointer-events="none"/>
                </g>
                <g id="zoomMin">
                        <use xlink:href="#rim" fill="#404040">
                                <set attributeName="fill" to="#808080" begin="zoomminus.mouseover" end="zoomminus.mouseout"/>
                        </use>
                        <path d="M-4,0h8" fill="none" stroke="white" stroke-width="1.5" pointer-events="none"/>
                </g>
                <g id="dirArrow">
                        <path fill="none" stroke="white" stroke-width="1.5" d="M0,-3.0v7 M-2.5,-0.5L0,-3.0L2.5,-0.5"/>
                </g>
               <g id="resetDef">
                       <use xlink:href="#rim2" fill="#404040">
                               <set attributeName="fill" to="#808080" begin="reset.mouseover" end="reset.mouseout"/>
                       </use>
               </g>
        </defs>

<script type="text/javascript">
var viewWidth = 994;
var viewHeight = 424;
var sectionId = 'dynsection-56';
</script>
<script xlink:href="svgpan.js"/>
<svg id="graph" class="graph">
<g id="viewport">
<title>G</title>
<polygon fill="white" stroke="white" points="-4,5 -4,-420 991,-420 991,5 -4,5"/>
<!-- Node1 -->
<g id="node1" class="node"><title>Node1</title>
<polygon fill="#bfbfbf" stroke="black" points="0.5,-196.5 0.5,-217.5 107.5,-217.5 107.5,-196.5 0.5,-196.5"/>
<text text-anchor="middle" x="54" y="-204.5" font-family="Helvetica,sans-Serif" font-size="10.00">BeamEngine::update</text>
</g>
<!-- Node2 -->
<g id="node3" class="node"><title>Node2</title>
<a xlink:href="class_streamable_factory.html#a233cafcf6f87f5779b1a26a5a48d8f6d" target="_top" xlink:title="StreamableFactory\&lt; BeamFactory, Beam \&gt;::getSingleton">
<polygon fill="white" stroke="black" points="144.5,-394.5 144.5,-415.5 411.5,-415.5 411.5,-394.5 144.5,-394.5"/>
<text text-anchor="middle" x="278" y="-402.5" font-family="Helvetica,sans-Serif" font-size="10.00">StreamableFactory&lt; BeamFactory, Beam &gt;::getSingleton</text>
</a>
</g>
<!-- Node1&#45;&gt;Node2 -->
<g id="edge2" class="edge"><title>Node1&#45;&gt;Node2</title>
<path fill="none" stroke="midnightblue" d="M55.8741,-217.601C62.0345,-249.04 84.764,-342.225 144,-385 146.29,-386.654 148.66,-388.196 151.097,-389.634"/>
<polygon fill="midnightblue" stroke="midnightblue" points="149.712,-392.859 160.194,-394.397 152.958,-386.658 149.712,-392.859"/>
</g>
<!-- Node3 -->
<g id="node5" class="node"><title>Node3</title>
<a xlink:href="class_beam_factory.html#aadb09a68dc35fad593189242429df218" target="_top" xlink:title="BeamFactory::getTruck">
<polygon fill="white" stroke="black" points="218.5,-354.5 218.5,-375.5 337.5,-375.5 337.5,-354.5 218.5,-354.5"/>
<text text-anchor="middle" x="278" y="-362.5" font-family="Helvetica,sans-Serif" font-size="10.00">BeamFactory::getTruck</text>
</a>
</g>
<!-- Node1&#45;&gt;Node3 -->
<g id="edge4" class="edge"><title>Node1&#45;&gt;Node3</title>
<path fill="none" stroke="midnightblue" d="M57.5529,-217.868C66.8987,-244.566 94.8913,-313.486 144,-345 162.884,-357.118 186.3,-362.982 208.249,-365.57"/>
<polygon fill="midnightblue" stroke="midnightblue" points="207.916,-369.054 218.208,-366.54 208.595,-362.087 207.916,-369.054"/>
</g>
<!-- Node4 -->
<g id="node7" class="node"><title>Node4</title>
<a xlink:href="class_beam_engine.html#abdc4379a7db428debfe14d05972d808e" target="_top" xlink:title="BeamEngine::getIdleMixture">
<polygon fill="white" stroke="black" points="208,-314.5 208,-335.5 348,-335.5 348,-314.5 208,-314.5"/>
<text text-anchor="middle" x="278" y="-322.5" font-family="Helvetica,sans-Serif" font-size="10.00">BeamEngine::getIdleMixture</text>
</a>
</g>
<!-- Node1&#45;&gt;Node4 -->
<g id="edge6" class="edge"><title>Node1&#45;&gt;Node4</title>
<path fill="none" stroke="midnightblue" d="M60.9375,-217.702C74.3751,-237.477 106,-279.579 144,-300 160.433,-308.831 179.452,-314.594 197.906,-318.341"/>
<polygon fill="midnightblue" stroke="midnightblue" points="197.313,-321.791 207.783,-320.172 198.589,-314.908 197.313,-321.791"/>
</g>
<!-- Node6 -->
<g id="node11" class="node"><title>Node6</title>
<a xlink:href="class_beam_engine.html#a8dd9a69eaf18df6ed1cc51491719e2d2" target="_top" xlink:title="BeamEngine::getEnginePower">
<polygon fill="white" stroke="black" points="648.5,-294.5 648.5,-315.5 797.5,-315.5 797.5,-294.5 648.5,-294.5"/>
<text text-anchor="middle" x="723" y="-302.5" font-family="Helvetica,sans-Serif" font-size="10.00">BeamEngine::getEnginePower</text>
</a>
</g>
<!-- Node1&#45;&gt;Node6 -->
<g id="edge22" class="edge"><title>Node1&#45;&gt;Node6</title>
<path fill="none" stroke="midnightblue" d="M65.4289,-217.567C81.5472,-231.733 112.52,-256.331 144,-267 233.063,-297.185 500.182,-303.554 638.269,-304.79"/>
<polygon fill="midnightblue" stroke="midnightblue" points="638.36,-308.29 648.389,-304.873 638.418,-301.291 638.36,-308.29"/>
</g>
<!-- Node9 -->
<g id="node17" class="node"><title>Node9</title>
<a xlink:href="class_beam_engine.html#af3571459f6ea5650b38ced1a5ea148b4" target="_top" xlink:title="BeamEngine::getPrimeMixture">
<polygon fill="white" stroke="black" points="203.5,-236.5 203.5,-257.5 352.5,-257.5 352.5,-236.5 203.5,-236.5"/>
<text text-anchor="middle" x="278" y="-244.5" font-family="Helvetica,sans-Serif" font-size="10.00">BeamEngine::getPrimeMixture</text>
</a>
</g>
<!-- Node1&#45;&gt;Node9 -->
<g id="edge16" class="edge"><title>Node1&#45;&gt;Node9</title>
<path fill="none" stroke="midnightblue" d="M98.7359,-217.594C113.143,-220.83 129.207,-224.256 144,-227 159.896,-229.949 176.916,-232.756 193.311,-235.285"/>
<polygon fill="midnightblue" stroke="midnightblue" points="193.01,-238.779 203.422,-236.822 194.062,-231.859 193.01,-238.779"/>
</g>
<!-- Node11 -->
<g id="node21" class="node"><title>Node11</title>
<a xlink:href="_approx_math_8h.html#a5459f6b6b39f9a6b80de7f17c3777ee2" target="_top" xlink:title="frand">
<polygon fill="white" stroke="black" points="259,-196.5 259,-217.5 297,-217.5 297,-196.5 259,-196.5"/>
<text text-anchor="middle" x="278" y="-204.5" font-family="Helvetica,sans-Serif" font-size="10.00">frand</text>
</a>
</g>
<!-- Node1&#45;&gt;Node11 -->
<g id="edge20" class="edge"><title>Node1&#45;&gt;Node11</title>
<path fill="none" stroke="midnightblue" d="M107.654,-207C151.874,-207 212.931,-207 248.664,-207"/>
<polygon fill="midnightblue" stroke="midnightblue" points="248.894,-210.5 258.894,-207 248.894,-203.5 248.894,-210.5"/>
</g>
<!-- Node12 -->
<g id="node24" class="node"><title>Node12</title>
<a xlink:href="class_beam_engine.html#a445dfc6189958e5bcd82d62a3c4a29c8" target="_top" xlink:title="BeamEngine::stop">
<polygon fill="white" stroke="black" points="229.5,-156.5 229.5,-177.5 326.5,-177.5 326.5,-156.5 229.5,-156.5"/>
<text text-anchor="middle" x="278" y="-164.5" font-family="Helvetica,sans-Serif" font-size="10.00">BeamEngine::stop</text>
</a>
</g>
<!-- Node1&#45;&gt;Node12 -->
<g id="edge24" class="edge"><title>Node1&#45;&gt;Node12</title>
<path fill="none" stroke="midnightblue" d="M98.7359,-196.406C113.143,-193.17 129.207,-189.744 144,-187 168.578,-182.441 195.842,-178.22 219.327,-174.843"/>
<polygon fill="midnightblue" stroke="midnightblue" points="220.076,-178.272 229.484,-173.401 219.091,-171.341 220.076,-178.272"/>
</g>
<!-- Node13 -->
<g id="node26" class="node"><title>Node13</title>
<a xlink:href="class_beam_engine.html#a74010b85a774cb7e3bd4c494bd29e315" target="_top" xlink:title="BeamEngine::setAcc">
<polygon fill="white" stroke="black" points="668.5,-117.5 668.5,-138.5 777.5,-138.5 777.5,-117.5 668.5,-117.5"/>
<text text-anchor="middle" x="723" y="-125.5" font-family="Helvetica,sans-Serif" font-size="10.00">BeamEngine::setAcc</text>
</a>
</g>
<!-- Node1&#45;&gt;Node13 -->
<g id="edge26" class="edge"><title>Node1&#45;&gt;Node13</title>
<path fill="none" stroke="midnightblue" d="M65.3802,-196.286C81.442,-181.949 112.35,-157.153 144,-147 237.826,-116.903 527.226,-121.748 657.846,-125.677"/>
<polygon fill="midnightblue" stroke="midnightblue" points="657.999,-129.184 668.102,-125.994 658.215,-122.187 657.999,-129.184"/>
</g>
<!-- Node14 -->
<g id="node28" class="node"><title>Node14</title>
<a xlink:href="class_beam_engine.html#a4a1f822856aacd574f37d13a5ee11589" target="_top" xlink:title="BeamEngine::shift">
<polygon fill="white" stroke="black" points="481.5,-77.5 481.5,-98.5 578.5,-98.5 578.5,-77.5 481.5,-77.5"/>
<text text-anchor="middle" x="530" y="-85.5" font-family="Helvetica,sans-Serif" font-size="10.00">BeamEngine::shift</text>
</a>
</g>
<!-- Node1&#45;&gt;Node14 -->
<g id="edge28" class="edge"><title>Node1&#45;&gt;Node14</title>
<path fill="none" stroke="midnightblue" d="M60.5226,-196.192C73.4865,-175.844 104.666,-132.255 144,-114 250.846,-64.4119 392.454,-70.5636 471.051,-79.3569"/>
<polygon fill="midnightblue" stroke="midnightblue" points="470.908,-82.864 481.248,-80.5524 471.723,-75.9116 470.908,-82.864"/>
</g>
<!-- Node16 -->
<g id="node33" class="node"><title>Node16</title>
<a xlink:href="class_beam_engine.html#a52ad34ee5fa555966eda7d9d0deaf5a4" target="_top" xlink:title="BeamEngine::shiftTo">
<polygon fill="white" stroke="black" points="224,-40.5 224,-61.5 332,-61.5 332,-40.5 224,-40.5"/>
<text text-anchor="middle" x="278" y="-48.5" font-family="Helvetica,sans-Serif" font-size="10.00">BeamEngine::shiftTo</text>
</a>
</g>
<!-- Node1&#45;&gt;Node16 -->
<g id="edge34" class="edge"><title>Node1&#45;&gt;Node16</title>
<path fill="none" stroke="midnightblue" d="M57.9375,-196.407C67.965,-171.018 97.0433,-106.54 144,-76 164.478,-62.6814 190.229,-56.0388 213.67,-52.8538"/>
<polygon fill="midnightblue" stroke="midnightblue" points="214.375,-56.2953 223.901,-51.6566 213.562,-49.3427 214.375,-56.2953"/>
</g>
<!-- Node17 -->
<g id="node36" class="node"><title>Node17</title>
<a xlink:href="class_beam_engine.html#a76fc148efa45e2da9f8fb7f9e21021d7" target="_top" xlink:title="BeamEngine::updateAudio">
<polygon fill="white" stroke="black" points="212,-0.5 212,-21.5 344,-21.5 344,-0.5 212,-0.5"/>
<text text-anchor="middle" x="278" y="-8.5" font-family="Helvetica,sans-Serif" font-size="10.00">BeamEngine::updateAudio</text>
</a>
</g>
<!-- Node1&#45;&gt;Node17 -->
<g id="edge38" class="edge"><title>Node1&#45;&gt;Node17</title>
<path fill="none" stroke="midnightblue" d="M56.0045,-196.068C62.4056,-164.547 85.4755,-73.0583 144,-31 160.585,-19.0811 181.336,-12.9466 201.517,-10.0439"/>
<polygon fill="midnightblue" stroke="midnightblue" points="202.158,-13.4925 211.675,-8.83703 201.332,-6.54136 202.158,-13.4925"/>
</g>
<!-- Node5 -->
<g id="node9" class="node"><title>Node5</title>
<a xlink:href="class_beam_engine.html#ab44a19bd64049dcd338fcf6994e27f1d" target="_top" xlink:title="BeamEngine::getAccToHoldRPM">
<polygon fill="white" stroke="black" points="448.5,-314.5 448.5,-335.5 611.5,-335.5 611.5,-314.5 448.5,-314.5"/>
<text text-anchor="middle" x="530" y="-322.5" font-family="Helvetica,sans-Serif" font-size="10.00">BeamEngine::getAccToHoldRPM</text>
</a>
</g>
<!-- Node4&#45;&gt;Node5 -->
<g id="edge8" class="edge"><title>Node4&#45;&gt;Node5</title>
<path fill="none" stroke="midnightblue" d="M348.196,-325C375.945,-325 408.218,-325 437.806,-325"/>
<polygon fill="midnightblue" stroke="midnightblue" points="438.147,-328.5 448.147,-325 438.147,-321.5 438.147,-328.5"/>
</g>
<!-- Node5&#45;&gt;Node6 -->
<g id="edge10" class="edge"><title>Node5&#45;&gt;Node6</title>
<path fill="none" stroke="midnightblue" d="M611.57,-316.547C620.465,-315.625 629.533,-314.686 638.463,-313.76"/>
<polygon fill="midnightblue" stroke="midnightblue" points="638.883,-317.236 648.469,-312.723 638.162,-310.273 638.883,-317.236"/>
</g>
<!-- Node7 -->
<g id="node13" class="node"><title>Node7</title>
<a xlink:href="class_torque_curve.html#ac086875124a09f29072f016ae3c99642" target="_top" xlink:title="TorqueCurve::getEngineTorque">
<polygon fill="white" stroke="black" points="834,-314.5 834,-335.5 986,-335.5 986,-314.5 834,-314.5"/>
<text text-anchor="middle" x="910" y="-322.5" font-family="Helvetica,sans-Serif" font-size="10.00">TorqueCurve::getEngineTorque</text>
</a>
</g>
<!-- Node6&#45;&gt;Node7 -->
<g id="edge12" class="edge"><title>Node6&#45;&gt;Node7</title>
<path fill="none" stroke="midnightblue" d="M797.714,-312.991C806.269,-313.906 815.042,-314.844 823.733,-315.774"/>
<polygon fill="midnightblue" stroke="midnightblue" points="823.562,-319.275 833.877,-316.859 824.306,-312.315 823.562,-319.275"/>
</g>
<!-- Node8 -->
<g id="node15" class="node"><title>Node8</title>
<a xlink:href="class_beam_engine.html#a97f9e8ae65b27a623c9aefaba01b5a3b" target="_top" xlink:title="BeamEngine::getTurboPSI">
<polygon fill="white" stroke="black" points="843.5,-274.5 843.5,-295.5 976.5,-295.5 976.5,-274.5 843.5,-274.5"/>
<text text-anchor="middle" x="910" y="-282.5" font-family="Helvetica,sans-Serif" font-size="10.00">BeamEngine::getTurboPSI</text>
</a>
</g>
<!-- Node6&#45;&gt;Node8 -->
<g id="edge14" class="edge"><title>Node6&#45;&gt;Node8</title>
<path fill="none" stroke="midnightblue" d="M797.714,-297.009C809.359,-295.764 821.409,-294.475 833.102,-293.224"/>
<polygon fill="midnightblue" stroke="midnightblue" points="833.695,-296.681 843.266,-292.137 832.951,-289.721 833.695,-296.681"/>
</g>
<!-- Node10 -->
<g id="node19" class="node"><title>Node10</title>
<a xlink:href="class_beam_engine.html#a19e5f9230ce7bfe6cfd001af50be3c10" target="_top" xlink:title="BeamEngine::getCrankFactor">
<polygon fill="white" stroke="black" points="457,-236.5 457,-257.5 603,-257.5 603,-236.5 457,-236.5"/>
<text text-anchor="middle" x="530" y="-244.5" font-family="Helvetica,sans-Serif" font-size="10.00">BeamEngine::getCrankFactor</text>
</a>
</g>
<!-- Node9&#45;&gt;Node10 -->
<g id="edge18" class="edge"><title>Node9&#45;&gt;Node10</title>
<path fill="none" stroke="midnightblue" d="M352.585,-247C382.185,-247 416.354,-247 446.755,-247"/>
<polygon fill="midnightblue" stroke="midnightblue" points="446.908,-250.5 456.908,-247 446.908,-243.5 446.908,-250.5"/>
</g>
<!-- Node14&#45;&gt;Node13 -->
<g id="edge32" class="edge"><title>Node14&#45;&gt;Node13</title>
<path fill="none" stroke="midnightblue" d="M578.702,-98.0937C604.051,-103.347 635.287,-109.821 662.207,-115.4"/>
<polygon fill="midnightblue" stroke="midnightblue" points="661.789,-118.888 672.292,-117.49 663.21,-112.034 661.789,-118.888"/>
</g>
<!-- Node15 -->
<g id="node30" class="node"><title>Node15</title>
<a xlink:href="class_beam_engine.html#a7231a53b2dd66a597463fd00cbeabb1f" target="_top" xlink:title="BeamEngine::getNumGears">
<polygon fill="white" stroke="black" points="653.5,-77.5 653.5,-98.5 792.5,-98.5 792.5,-77.5 653.5,-77.5"/>
<text text-anchor="middle" x="723" y="-85.5" font-family="Helvetica,sans-Serif" font-size="10.00">BeamEngine::getNumGears</text>
</a>
</g>
<!-- Node14&#45;&gt;Node15 -->
<g id="edge30" class="edge"><title>Node14&#45;&gt;Node15</title>
<path fill="none" stroke="midnightblue" d="M578.702,-88C598.175,-88 621.123,-88 642.919,-88"/>
<polygon fill="midnightblue" stroke="midnightblue" points="643.169,-91.5001 653.169,-88 643.169,-84.5001 643.169,-91.5001"/>
</g>
<!-- Node16&#45;&gt;Node14 -->
<g id="edge36" class="edge"><title>Node16&#45;&gt;Node14</title>
<path fill="none" stroke="midnightblue" d="M332.06,-58.9374C372.943,-64.9401 429.023,-73.174 471.054,-79.3453"/>
<polygon fill="midnightblue" stroke="midnightblue" points="470.746,-82.8374 481.148,-80.8273 471.763,-75.9117 470.746,-82.8374"/>
</g>
</g>
</svg>
        <g id="navigator" transform="translate(0 0)" fill="#404254">
                <rect fill="#f2f5e9" fill-opacity="0.5" stroke="#606060" stroke-width=".5" x="0" y="0" width="60" height="60"/>
                <use id="zoomplus" xlink:href="#zoomPlus" x="17" y="9" onmousedown="handleZoom(evt,'in')"/>
                <use id="zoomminus" xlink:href="#zoomMin" x="42" y="9" onmousedown="handleZoom(evt,'out')"/>
                <use id="reset" xlink:href="#resetDef" x="30" y="36" onmousedown="handleReset()"/>
                <g id="arrowUp" xlink:href="#dirArrow" transform="translate(30 24)" onmousedown="handlePan(0,-1)">
                  <use xlink:href="#rim" fill="#404040">
                        <set attributeName="fill" to="#808080" begin="arrowUp.mouseover" end="arrowUp.mouseout"/>
                  </use>
                  <path fill="none" stroke="white" stroke-width="1.5" d="M0,-3.0v7 M-2.5,-0.5L0,-3.0L2.5,-0.5"/>
                </g>
                <g id="arrowRight" xlink:href="#dirArrow" transform="rotate(90) translate(36 -43)" onmousedown="handlePan(1,0)">
                  <use xlink:href="#rim" fill="#404040">
                        <set attributeName="fill" to="#808080" begin="arrowRight.mouseover" end="arrowRight.mouseout"/>
                  </use>
                  <path fill="none" stroke="white" stroke-width="1.5" d="M0,-3.0v7 M-2.5,-0.5L0,-3.0L2.5,-0.5"/>
                </g>
                <g id="arrowDown" xlink:href="#dirArrow" transform="rotate(180) translate(-30 -48)" onmousedown="handlePan(0,1)">
                  <use xlink:href="#rim" fill="#404040">
                        <set attributeName="fill" to="#808080" begin="arrowDown.mouseover" end="arrowDown.mouseout"/>
                  </use>
                  <path fill="none" stroke="white" stroke-width="1.5" d="M0,-3.0v7 M-2.5,-0.5L0,-3.0L2.5,-0.5"/>
                </g>
                <g id="arrowLeft" xlink:href="#dirArrow" transform="rotate(270) translate(-36 17)" onmousedown="handlePan(-1,0)">
                  <use xlink:href="#rim" fill="#404040">
                        <set attributeName="fill" to="#808080" begin="arrowLeft.mouseover" end="arrowLeft.mouseout"/>
                  </use>
                  <path fill="none" stroke="white" stroke-width="1.5" d="M0,-3.0v7 M-2.5,-0.5L0,-3.0L2.5,-0.5"/>
                </g>
        </g>
</svg>
