<?xml version="1.0" encoding="UTF-8" standalone="no"?>
<!DOCTYPE svg PUBLIC "-//W3C//DTD SVG 1.1//EN"
 "http://www.w3.org/Graphics/SVG/1.1/DTD/svg11.dtd">
<!-- Generated by graphviz version 2.26.3 (20100126.1600)
 -->
<!-- Title: BeamFactory::repairTruck Pages: 1 -->
<svg width="506pt" height="150pt"
 viewBox="0.00 0.00 506.00 150.00" xmlns="http://www.w3.org/2000/svg" xmlns:xlink="http://www.w3.org/1999/xlink">
<g id="graph1" class="graph" transform="scale(1 1) rotate(0) translate(4 146)">
<title>BeamFactory::repairTruck</title>
<polygon fill="white" stroke="white" points="-4,5 -4,-146 503,-146 503,5 -4,5"/>
<!-- Node1 -->
<g id="node1" class="node"><title>Node1</title>
<polygon fill="#bfbfbf" stroke="black" points="0,-60.5 0,-81.5 130,-81.5 130,-60.5 0,-60.5"/>
<text text-anchor="middle" x="65" y="-68.5" font-family="Helvetica,sans-Serif" font-size="10.00">BeamFactory::repairTruck</text>
</g>
<!-- Node2 -->
<g id="node3" class="node"><title>Node2</title>
<a xlink:href="class_beam_factory.html#a1be739481d24f2f05c0620c7f176c0a3" target="_top" xlink:title="BeamFactory::findTruckInsideBox">
<polygon fill="white" stroke="black" points="166.5,-120.5 166.5,-141.5 331.5,-141.5 331.5,-120.5 166.5,-120.5"/>
<text text-anchor="middle" x="249" y="-128.5" font-family="Helvetica,sans-Serif" font-size="10.00">BeamFactory::findTruckInsideBox</text>
</a>
</g>
<!-- Node1&#45;&gt;Node2 -->
<g id="edge2" class="edge"><title>Node1&#45;&gt;Node2</title>
<path fill="none" stroke="midnightblue" d="M88.7374,-81.5005C108.991,-90.1924 139.031,-102.457 166,-111 173.735,-113.45 181.957,-115.767 190.105,-117.896"/>
<polygon fill="midnightblue" stroke="midnightblue" points="189.415,-121.331 199.968,-120.395 191.134,-114.546 189.415,-121.331"/>
</g>
<!-- Node4 -->
<g id="node7" class="node"><title>Node4</title>
<a xlink:href="class_beam.html#a078999d6e513dd4830721a9b373d6925" target="_top" xlink:title="Beam::reset">
<polygon fill="white" stroke="black" points="214,-80.5 214,-101.5 284,-101.5 284,-80.5 214,-80.5"/>
<text text-anchor="middle" x="249" y="-88.5" font-family="Helvetica,sans-Serif" font-size="10.00">Beam::reset</text>
</a>
</g>
<!-- Node1&#45;&gt;Node4 -->
<g id="edge6" class="edge"><title>Node1&#45;&gt;Node4</title>
<path fill="none" stroke="midnightblue" d="M130.13,-78.0794C154.495,-80.7277 181.615,-83.6756 203.792,-86.0861"/>
<polygon fill="midnightblue" stroke="midnightblue" points="203.606,-89.5864 213.926,-87.1876 204.363,-82.6274 203.606,-89.5864"/>
</g>
<!-- Node5 -->
<g id="node9" class="node"><title>Node5</title>
<a xlink:href="class_beam.html#a45e5bfb79be383f661885fadbeddf105" target="_top" xlink:title="Beam::resetPosition">
<polygon fill="white" stroke="black" points="196.5,-40.5 196.5,-61.5 301.5,-61.5 301.5,-40.5 196.5,-40.5"/>
<text text-anchor="middle" x="249" y="-48.5" font-family="Helvetica,sans-Serif" font-size="10.00">Beam::resetPosition</text>
</a>
</g>
<!-- Node1&#45;&gt;Node5 -->
<g id="edge8" class="edge"><title>Node1&#45;&gt;Node5</title>
<path fill="none" stroke="midnightblue" d="M130.13,-63.9206C148.363,-61.9388 168.14,-59.7891 186.233,-57.8225"/>
<polygon fill="midnightblue" stroke="midnightblue" points="186.815,-61.28 196.378,-56.7198 186.058,-54.321 186.815,-61.28"/>
</g>
<!-- Node8 -->
<g id="node15" class="node"><title>Node8</title>
<a xlink:href="class_beam.html#a006ef9ec922c3ba72b4e53288779a548" target="_top" xlink:title="Beam::updateVisual">
<polygon fill="white" stroke="black" points="197,-0.5 197,-21.5 301,-21.5 301,-0.5 197,-0.5"/>
<text text-anchor="middle" x="249" y="-8.5" font-family="Helvetica,sans-Serif" font-size="10.00">Beam::updateVisual</text>
</a>
</g>
<!-- Node1&#45;&gt;Node8 -->
<g id="edge14" class="edge"><title>Node1&#45;&gt;Node8</title>
<path fill="none" stroke="midnightblue" d="M88.7374,-60.4995C108.991,-51.8076 139.031,-39.543 166,-31 173.735,-28.5497 181.957,-26.2328 190.105,-24.1043"/>
<polygon fill="midnightblue" stroke="midnightblue" points="191.134,-27.4543 199.968,-21.6052 189.415,-20.6687 191.134,-27.4543"/>
</g>
<!-- Node3 -->
<g id="node5" class="node"><title>Node3</title>
<a xlink:href="class_collisions.html#af4afe6b0f900dcf87cb6bd70e98be890" target="_top" xlink:title="Collisions::isInside">
<polygon fill="white" stroke="black" points="383.5,-120.5 383.5,-141.5 482.5,-141.5 482.5,-120.5 383.5,-120.5"/>
<text text-anchor="middle" x="433" y="-128.5" font-family="Helvetica,sans-Serif" font-size="10.00">Collisions::isInside</text>
</a>
</g>
<!-- Node2&#45;&gt;Node3 -->
<g id="edge4" class="edge"><title>Node2&#45;&gt;Node3</title>
<path fill="none" stroke="midnightblue" d="M331.581,-131C345.527,-131 359.765,-131 372.995,-131"/>
<polygon fill="midnightblue" stroke="midnightblue" points="373.364,-134.5 383.364,-131 373.364,-127.5 373.364,-134.5"/>
</g>
<!-- Node6 -->
<g id="node11" class="node"><title>Node6</title>
<a xlink:href="class_terrain_manager.html#a1d0227a71a4e114099797646ff6756b7" target="_top" xlink:title="TerrainManager::getWater">
<polygon fill="white" stroke="black" points="368,-60.5 368,-81.5 498,-81.5 498,-60.5 368,-60.5"/>
<text text-anchor="middle" x="433" y="-68.5" font-family="Helvetica,sans-Serif" font-size="10.00">TerrainManager::getWater</text>
</a>
</g>
<!-- Node5&#45;&gt;Node6 -->
<g id="edge10" class="edge"><title>Node5&#45;&gt;Node6</title>
<path fill="none" stroke="midnightblue" d="M301.727,-56.7312C319.19,-58.6294 338.978,-60.7802 357.795,-62.8255"/>
<polygon fill="midnightblue" stroke="midnightblue" points="357.507,-66.3148 367.827,-63.916 358.264,-59.3558 357.507,-66.3148"/>
</g>
<!-- Node7 -->
<g id="node13" class="node"><title>Node7</title>
<a xlink:href="class_i_water.html#ad2499255884025d55a940eb24ecd8e4d" target="_top" xlink:title="IWater::getHeight">
<polygon fill="white" stroke="black" points="386,-20.5 386,-41.5 480,-41.5 480,-20.5 386,-20.5"/>
<text text-anchor="middle" x="433" y="-28.5" font-family="Helvetica,sans-Serif" font-size="10.00">IWater::getHeight</text>
</a>
</g>
<!-- Node5&#45;&gt;Node7 -->
<g id="edge12" class="edge"><title>Node5&#45;&gt;Node7</title>
<path fill="none" stroke="midnightblue" d="M301.727,-45.2688C324.853,-42.7551 352.056,-39.7983 375.683,-37.2301"/>
<polygon fill="midnightblue" stroke="midnightblue" points="376.349,-40.6784 385.912,-36.1182 375.592,-33.7194 376.349,-40.6784"/>
</g>
</g>
</svg>
