<?xml version="1.0" encoding="UTF-8" standalone="no"?>
<!DOCTYPE svg PUBLIC "-//W3C//DTD SVG 1.1//EN"
 "http://www.w3.org/Graphics/SVG/1.1/DTD/svg11.dtd">
<!-- Generated by graphviz version 2.26.3 (20100126.1600)
 -->
<!-- Title: G Pages: 1 -->
<!--zoomable 230 -->
<svg id="main" version="1.1" xmlns="http://www.w3.org/2000/svg" xmlns:xlink="http://www.w3.org/1999/xlink" xml:space="preserve" onload="init(evt)">
        <defs>
                <circle id="rim" cx="0" cy="0" r="7"/>
                <circle id="rim2" cx="0" cy="0" r="3.5"/>
                <g id="zoomPlus">
                        <use xlink:href="#rim" fill="#404040">
                                <set attributeName="fill" to="#808080" begin="zoomplus.mouseover" end="zoomplus.mouseout"/>
                        </use>
                        <path d="M-4,0h8M0,-4v8" fill="none" stroke="white" stroke-width="1.5" pointer-events="none"/>
                </g>
                <g id="zoomMin">
                        <use xlink:href="#rim" fill="#404040">
                                <set attributeName="fill" to="#808080" begin="zoomminus.mouseover" end="zoomminus.mouseout"/>
                        </use>
                        <path d="M-4,0h8" fill="none" stroke="white" stroke-width="1.5" pointer-events="none"/>
                </g>
                <g id="dirArrow">
                        <path fill="none" stroke="white" stroke-width="1.5" d="M0,-3.0v7 M-2.5,-0.5L0,-3.0L2.5,-0.5"/>
                </g>
               <g id="resetDef">
                       <use xlink:href="#rim2" fill="#404040">
                               <set attributeName="fill" to="#808080" begin="reset.mouseover" end="reset.mouseout"/>
                       </use>
               </g>
        </defs>

<script type="text/javascript">
var viewWidth = 1140;
var viewHeight = 230;
var sectionId = 'dynsection-97';
</script>
<script xlink:href="svgpan.js"/>
<svg id="graph" class="graph">
<g id="viewport">
<title>G</title>
<polygon fill="white" stroke="white" points="-4,5 -4,-226 1137,-226 1137,5 -4,5"/>
<!-- Node1 -->
<g id="node1" class="node"><title>Node1</title>
<polygon fill="#bfbfbf" stroke="black" points="0,-100.5 0,-121.5 158,-121.5 158,-100.5 0,-100.5"/>
<text text-anchor="middle" x="79" y="-108.5" font-family="Helvetica,sans-Serif" font-size="10.00">Hydrax::Hydrax::setSunPosition</text>
</g>
<!-- Node2 -->
<g id="node3" class="node"><title>Node2</title>
<a xlink:href="class_hydrax_1_1_cfg_file_manager.html#a6717ef4e731b3c22d71260aaa6d0336a" target="_top" xlink:title="Hydrax::CfgFileManager::_loadComponentsSettings">
<polygon fill="white" stroke="black" points="194,-200.5 194,-221.5 438,-221.5 438,-200.5 194,-200.5"/>
<text text-anchor="middle" x="316" y="-208.5" font-family="Helvetica,sans-Serif" font-size="10.00">Hydrax::CfgFileManager::_loadComponentsSettings</text>
</a>
</g>
<!-- Node1&#45;&gt;Node2 -->
<g id="edge2" class="edge"><title>Node1&#45;&gt;Node2</title>
<path fill="none" stroke="midnightblue" d="M98.1312,-128.395C119.748,-147.018 156.791,-175.916 194,-191 203.448,-194.83 213.59,-197.928 223.844,-200.432"/>
<polygon fill="midnightblue" stroke="midnightblue" points="100.196,-125.55 90.3738,-121.578 95.5754,-130.809 100.196,-125.55"/>
</g>
<!-- Node7 -->
<g id="node13" class="node"><title>Node7</title>
<a xlink:href="class_hydrax_1_1_hydrax.html#a26f48dec7e37c8f352570192ef38fb90" target="_top" xlink:title="Hydrax::Hydrax::setPosition">
<polygon fill="white" stroke="black" points="246,-160.5 246,-181.5 386,-181.5 386,-160.5 246,-160.5"/>
<text text-anchor="middle" x="316" y="-168.5" font-family="Helvetica,sans-Serif" font-size="10.00">Hydrax::Hydrax::setPosition</text>
</a>
</g>
<!-- Node1&#45;&gt;Node7 -->
<g id="edge12" class="edge"><title>Node1&#45;&gt;Node7</title>
<path fill="none" stroke="midnightblue" d="M114.563,-125.152C137.042,-133.65 166.872,-144.113 194,-151 210.643,-155.225 228.798,-158.762 245.895,-161.63"/>
<polygon fill="midnightblue" stroke="midnightblue" points="115.689,-121.835 105.098,-121.527 113.185,-128.372 115.689,-121.835"/>
</g>
<!-- Node9 -->
<g id="node20" class="node"><title>Node9</title>
<a xlink:href="class_hydrax_1_1_hydrax.html#a35958e296923f17c5eab19840d3711e2" target="_top" xlink:title="Hydrax::Hydrax::rotate">
<polygon fill="white" stroke="black" points="258,-120.5 258,-141.5 374,-141.5 374,-120.5 258,-120.5"/>
<text text-anchor="middle" x="316" y="-128.5" font-family="Helvetica,sans-Serif" font-size="10.00">Hydrax::Hydrax::rotate</text>
</a>
</g>
<!-- Node1&#45;&gt;Node9 -->
<g id="edge22" class="edge"><title>Node1&#45;&gt;Node9</title>
<path fill="none" stroke="midnightblue" d="M168.295,-118.535C198.26,-121.064 230.882,-123.817 257.828,-126.091"/>
<polygon fill="midnightblue" stroke="midnightblue" points="168.506,-115.041 158.247,-117.688 167.917,-122.016 168.506,-115.041"/>
</g>
<!-- Node10 -->
<g id="node22" class="node"><title>Node10</title>
<a xlink:href="class_hydrax_1_1_module_1_1_projected_grid.html#a8d7a8efcd6b7fd0e4313c9114bd2c061" target="_top" xlink:title="Hydrax::Module::ProjectedGrid::update">
<polygon fill="white" stroke="black" points="223,-80.5 223,-101.5 409,-101.5 409,-80.5 223,-80.5"/>
<text text-anchor="middle" x="316" y="-88.5" font-family="Helvetica,sans-Serif" font-size="10.00">Hydrax::Module::ProjectedGrid::update</text>
</a>
</g>
<!-- Node1&#45;&gt;Node10 -->
<g id="edge24" class="edge"><title>Node1&#45;&gt;Node10</title>
<path fill="none" stroke="midnightblue" d="M168.579,-103.441C186.331,-101.943 205.005,-100.367 222.872,-98.8589"/>
<polygon fill="midnightblue" stroke="midnightblue" points="167.917,-99.9839 158.247,-104.312 168.506,-106.959 167.917,-99.9839"/>
</g>
<!-- Node11 -->
<g id="node24" class="node"><title>Node11</title>
<a xlink:href="class_hydrax_water.html#aa179b211992ec42447dc861ece4b3e3e" target="_top" xlink:title="HydraxWater::update">
<polygon fill="white" stroke="black" points="261,-40.5 261,-61.5 371,-61.5 371,-40.5 261,-40.5"/>
<text text-anchor="middle" x="316" y="-48.5" font-family="Helvetica,sans-Serif" font-size="10.00">HydraxWater::update</text>
</a>
</g>
<!-- Node1&#45;&gt;Node11 -->
<g id="edge26" class="edge"><title>Node1&#45;&gt;Node11</title>
<path fill="none" stroke="midnightblue" d="M114.563,-96.848C137.042,-88.3502 166.872,-77.8869 194,-71 215.636,-65.5075 239.827,-61.1769 260.927,-57.9706"/>
<polygon fill="midnightblue" stroke="midnightblue" points="113.185,-93.6278 105.098,-100.473 115.689,-100.165 113.185,-93.6278"/>
</g>
<!-- Node13 -->
<g id="node28" class="node"><title>Node13</title>
<a xlink:href="class_hydrax_water.html#a283fbde037aa39623f121f2877b15d06" target="_top" xlink:title="HydraxWater::setSunPosition">
<polygon fill="white" stroke="black" points="243,-0.5 243,-21.5 389,-21.5 389,-0.5 243,-0.5"/>
<text text-anchor="middle" x="316" y="-8.5" font-family="Helvetica,sans-Serif" font-size="10.00">HydraxWater::setSunPosition</text>
</a>
</g>
<!-- Node1&#45;&gt;Node13 -->
<g id="edge30" class="edge"><title>Node1&#45;&gt;Node13</title>
<path fill="none" stroke="midnightblue" d="M98.1312,-93.6049C119.748,-74.9822 156.791,-46.0844 194,-31 209.316,-24.791 226.456,-20.5077 242.937,-17.5534"/>
<polygon fill="midnightblue" stroke="midnightblue" points="95.5754,-91.1914 90.3738,-100.422 100.196,-96.4498 95.5754,-91.1914"/>
</g>
<!-- Node3 -->
<g id="node5" class="node"><title>Node3</title>
<a xlink:href="class_hydrax_1_1_cfg_file_manager.html#a7d283a6b6b61ad70292c7cb24cd3543c" target="_top" xlink:title="Hydrax::CfgFileManager::load">
<polygon fill="white" stroke="black" points="474.5,-199.5 474.5,-220.5 621.5,-220.5 621.5,-199.5 474.5,-199.5"/>
<text text-anchor="middle" x="548" y="-207.5" font-family="Helvetica,sans-Serif" font-size="10.00">Hydrax::CfgFileManager::load</text>
</a>
</g>
<!-- Node2&#45;&gt;Node3 -->
<g id="edge4" class="edge"><title>Node2&#45;&gt;Node3</title>
<path fill="none" stroke="midnightblue" d="M448.201,-210.43C457.097,-210.392 465.862,-210.354 474.284,-210.318"/>
<polygon fill="midnightblue" stroke="midnightblue" points="448.099,-206.93 438.115,-210.474 448.13,-213.93 448.099,-206.93"/>
</g>
<!-- Node4 -->
<g id="node7" class="node"><title>Node4</title>
<a xlink:href="class_hydrax_1_1_hydrax.html#a1a9a011581dc097e3928511632b534da" target="_top" xlink:title="Hydrax::Hydrax::loadCfg">
<polygon fill="white" stroke="black" points="664.5,-199.5 664.5,-220.5 789.5,-220.5 789.5,-199.5 664.5,-199.5"/>
<text text-anchor="middle" x="727" y="-207.5" font-family="Helvetica,sans-Serif" font-size="10.00">Hydrax::Hydrax::loadCfg</text>
</a>
</g>
<!-- Node3&#45;&gt;Node4 -->
<g id="edge6" class="edge"><title>Node3&#45;&gt;Node4</title>
<path fill="none" stroke="midnightblue" d="M631.619,-210C642.607,-210 653.713,-210 664.272,-210"/>
<polygon fill="midnightblue" stroke="midnightblue" points="631.581,-206.5 621.581,-210 631.581,-213.5 631.581,-206.5"/>
</g>
<!-- Node5 -->
<g id="node9" class="node"><title>Node5</title>
<a xlink:href="class_hydrax_water.html#aedfd9537f96021b60a195b2bb6a9ee2d" target="_top" xlink:title="HydraxWater::InitHydrax">
<polygon fill="white" stroke="black" points="832.5,-160.5 832.5,-181.5 957.5,-181.5 957.5,-160.5 832.5,-160.5"/>
<text text-anchor="middle" x="895" y="-168.5" font-family="Helvetica,sans-Serif" font-size="10.00">HydraxWater::InitHydrax</text>
</a>
</g>
<!-- Node4&#45;&gt;Node5 -->
<g id="edge8" class="edge"><title>Node4&#45;&gt;Node5</title>
<path fill="none" stroke="midnightblue" d="M782.244,-197.175C804.037,-192.116 828.765,-186.376 849.5,-181.562"/>
<polygon fill="midnightblue" stroke="midnightblue" points="781.413,-193.775 772.463,-199.446 782.996,-200.594 781.413,-193.775"/>
</g>
<!-- Node6 -->
<g id="node11" class="node"><title>Node6</title>
<a xlink:href="class_hydrax_water.html#a20bb0db860124c8e18903f5d640f88db" target="_top" xlink:title="HydraxWater::HydraxWater">
<polygon fill="white" stroke="black" points="994,-160.5 994,-181.5 1132,-181.5 1132,-160.5 994,-160.5"/>
<text text-anchor="middle" x="1063" y="-168.5" font-family="Helvetica,sans-Serif" font-size="10.00">HydraxWater::HydraxWater</text>
</a>
</g>
<!-- Node5&#45;&gt;Node6 -->
<g id="edge10" class="edge"><title>Node5&#45;&gt;Node6</title>
<path fill="none" stroke="midnightblue" d="M967.675,-171C976.379,-171 985.248,-171 993.899,-171"/>
<polygon fill="midnightblue" stroke="midnightblue" points="967.557,-167.5 957.557,-171 967.557,-174.5 967.557,-167.5"/>
</g>
<!-- Node7&#45;&gt;Node3 -->
<g id="edge14" class="edge"><title>Node7&#45;&gt;Node3</title>
<path fill="none" stroke="midnightblue" d="M391.004,-183.192C406.544,-185.747 422.808,-188.443 438,-191 454.053,-193.702 471.415,-196.677 487.498,-199.454"/>
<polygon fill="midnightblue" stroke="midnightblue" points="391.35,-179.702 380.915,-181.536 390.216,-186.61 391.35,-179.702"/>
</g>
<!-- Node7&#45;&gt;Node5 -->
<g id="edge20" class="edge"><title>Node7&#45;&gt;Node5</title>
<path fill="none" stroke="midnightblue" d="M396.422,-171C513.088,-171 726.844,-171 832.495,-171"/>
<polygon fill="midnightblue" stroke="midnightblue" points="396.129,-167.5 386.129,-171 396.129,-174.5 396.129,-167.5"/>
</g>
<!-- Node8 -->
<g id="node16" class="node"><title>Node8</title>
<a xlink:href="class_hydrax_1_1_hydrax.html#a3f678db49fe45320efb237d145ec63e4" target="_top" xlink:title="Hydrax::Hydrax::setModule">
<polygon fill="white" stroke="black" points="658.5,-121.5 658.5,-142.5 795.5,-142.5 795.5,-121.5 658.5,-121.5"/>
<text text-anchor="middle" x="727" y="-129.5" font-family="Helvetica,sans-Serif" font-size="10.00">Hydrax::Hydrax::setModule</text>
</a>
</g>
<!-- Node7&#45;&gt;Node8 -->
<g id="edge16" class="edge"><title>Node7&#45;&gt;Node8</title>
<path fill="none" stroke="midnightblue" d="M396.238,-163.386C472.594,-156.141 586.252,-145.356 658.472,-138.503"/>
<polygon fill="midnightblue" stroke="midnightblue" points="395.811,-159.911 386.186,-164.34 396.472,-166.88 395.811,-159.911"/>
</g>
<!-- Node8&#45;&gt;Node5 -->
<g id="edge18" class="edge"><title>Node8&#45;&gt;Node5</title>
<path fill="none" stroke="midnightblue" d="M782.244,-144.825C804.037,-149.884 828.765,-155.624 849.5,-160.438"/>
<polygon fill="midnightblue" stroke="midnightblue" points="782.996,-141.406 772.463,-142.554 781.413,-148.225 782.996,-141.406"/>
</g>
<!-- Node12 -->
<g id="node26" class="node"><title>Node12</title>
<a xlink:href="class_hydrax_water.html#a00888728a3ac027b68807892c1ec614b" target="_top" xlink:title="HydraxWater::framestep">
<polygon fill="white" stroke="black" points="486,-40.5 486,-61.5 610,-61.5 610,-40.5 486,-40.5"/>
<text text-anchor="middle" x="548" y="-48.5" font-family="Helvetica,sans-Serif" font-size="10.00">HydraxWater::framestep</text>
</a>
</g>
<!-- Node11&#45;&gt;Node12 -->
<g id="edge28" class="edge"><title>Node11&#45;&gt;Node12</title>
<path fill="none" stroke="midnightblue" d="M381.633,-51C414.307,-51 453.596,-51 485.787,-51"/>
<polygon fill="midnightblue" stroke="midnightblue" points="381.275,-47.5001 371.275,-51 381.275,-54.5001 381.275,-47.5001"/>
</g>
</g>
</svg>
        <g id="navigator" transform="translate(0 0)" fill="#404254">
                <rect fill="#f2f5e9" fill-opacity="0.5" stroke="#606060" stroke-width=".5" x="0" y="0" width="60" height="60"/>
                <use id="zoomplus" xlink:href="#zoomPlus" x="17" y="9" onmousedown="handleZoom(evt,'in')"/>
                <use id="zoomminus" xlink:href="#zoomMin" x="42" y="9" onmousedown="handleZoom(evt,'out')"/>
                <use id="reset" xlink:href="#resetDef" x="30" y="36" onmousedown="handleReset()"/>
                <g id="arrowUp" xlink:href="#dirArrow" transform="translate(30 24)" onmousedown="handlePan(0,-1)">
                  <use xlink:href="#rim" fill="#404040">
                        <set attributeName="fill" to="#808080" begin="arrowUp.mouseover" end="arrowUp.mouseout"/>
                  </use>
                  <path fill="none" stroke="white" stroke-width="1.5" d="M0,-3.0v7 M-2.5,-0.5L0,-3.0L2.5,-0.5"/>
                </g>
                <g id="arrowRight" xlink:href="#dirArrow" transform="rotate(90) translate(36 -43)" onmousedown="handlePan(1,0)">
                  <use xlink:href="#rim" fill="#404040">
                        <set attributeName="fill" to="#808080" begin="arrowRight.mouseover" end="arrowRight.mouseout"/>
                  </use>
                  <path fill="none" stroke="white" stroke-width="1.5" d="M0,-3.0v7 M-2.5,-0.5L0,-3.0L2.5,-0.5"/>
                </g>
                <g id="arrowDown" xlink:href="#dirArrow" transform="rotate(180) translate(-30 -48)" onmousedown="handlePan(0,1)">
                  <use xlink:href="#rim" fill="#404040">
                        <set attributeName="fill" to="#808080" begin="arrowDown.mouseover" end="arrowDown.mouseout"/>
                  </use>
                  <path fill="none" stroke="white" stroke-width="1.5" d="M0,-3.0v7 M-2.5,-0.5L0,-3.0L2.5,-0.5"/>
                </g>
                <g id="arrowLeft" xlink:href="#dirArrow" transform="rotate(270) translate(-36 17)" onmousedown="handlePan(-1,0)">
                  <use xlink:href="#rim" fill="#404040">
                        <set attributeName="fill" to="#808080" begin="arrowLeft.mouseover" end="arrowLeft.mouseout"/>
                  </use>
                  <path fill="none" stroke="white" stroke-width="1.5" d="M0,-3.0v7 M-2.5,-0.5L0,-3.0L2.5,-0.5"/>
                </g>
        </g>
</svg>
