<?xml version="1.0" encoding="UTF-8" standalone="no"?>
<!DOCTYPE svg PUBLIC "-//W3C//DTD SVG 1.1//EN"
 "http://www.w3.org/Graphics/SVG/1.1/DTD/svg11.dtd">
<!-- Generated by graphviz version 2.26.3 (20100126.1600)
 -->
<!-- Title: G Pages: 1 -->
<!--zoomable 250 -->
<svg id="main" version="1.1" xmlns="http://www.w3.org/2000/svg" xmlns:xlink="http://www.w3.org/1999/xlink" xml:space="preserve" onload="init(evt)">
        <defs>
                <circle id="rim" cx="0" cy="0" r="7"/>
                <circle id="rim2" cx="0" cy="0" r="3.5"/>
                <g id="zoomPlus">
                        <use xlink:href="#rim" fill="#404040">
                                <set attributeName="fill" to="#808080" begin="zoomplus.mouseover" end="zoomplus.mouseout"/>
                        </use>
                        <path d="M-4,0h8M0,-4v8" fill="none" stroke="white" stroke-width="1.5" pointer-events="none"/>
                </g>
                <g id="zoomMin">
                        <use xlink:href="#rim" fill="#404040">
                                <set attributeName="fill" to="#808080" begin="zoomminus.mouseover" end="zoomminus.mouseout"/>
                        </use>
                        <path d="M-4,0h8" fill="none" stroke="white" stroke-width="1.5" pointer-events="none"/>
                </g>
                <g id="dirArrow">
                        <path fill="none" stroke="white" stroke-width="1.5" d="M0,-3.0v7 M-2.5,-0.5L0,-3.0L2.5,-0.5"/>
                </g>
               <g id="resetDef">
                       <use xlink:href="#rim2" fill="#404040">
                               <set attributeName="fill" to="#808080" begin="reset.mouseover" end="reset.mouseout"/>
                       </use>
               </g>
        </defs>

<script type="text/javascript">
var viewWidth = 702;
var viewHeight = 250;
var sectionId = 'dynsection-57';
</script>
<script xlink:href="svgpan.js"/>
<svg id="graph" class="graph">
<g id="viewport">
<title>G</title>
<polygon fill="white" stroke="white" points="-4,5 -4,-246 699,-246 699,5 -4,5"/>
<!-- Node1 -->
<g id="node1" class="node"><title>Node1</title>
<polygon fill="#bfbfbf" stroke="black" points="0,-140.5 0,-161.5 98,-161.5 98,-140.5 0,-140.5"/>
<text text-anchor="middle" x="49" y="-148.5" font-family="Helvetica,sans-Serif" font-size="10.00">InputEngine::setup</text>
</g>
<!-- Node2 -->
<g id="node3" class="node"><title>Node2</title>
<a xlink:href="class_input_engine.html#ad69848c63434a63e34ef8341eb9e3119" target="_top" xlink:title="InputEngine::destroy">
<polygon fill="white" stroke="black" points="181.5,-220.5 181.5,-241.5 288.5,-241.5 288.5,-220.5 181.5,-220.5"/>
<text text-anchor="middle" x="235" y="-228.5" font-family="Helvetica,sans-Serif" font-size="10.00">InputEngine::destroy</text>
</a>
</g>
<!-- Node1&#45;&gt;Node2 -->
<g id="edge2" class="edge"><title>Node1&#45;&gt;Node2</title>
<path fill="none" stroke="midnightblue" d="M60.685,-161.712C76.2269,-175.347 105.114,-198.614 134,-211 145.667,-216.003 158.633,-219.769 171.28,-222.6"/>
<polygon fill="midnightblue" stroke="midnightblue" points="170.822,-226.079 181.323,-224.675 172.239,-219.224 170.822,-226.079"/>
</g>
<!-- Node3 -->
<g id="node5" class="node"><title>Node3</title>
<a xlink:href="class_ro_r_1_1_application.html#a5082701abd55926b3c6eb4b0c933eca5" target="_top" xlink:title="RoR::Application::GetOgreSubsystem">
<polygon fill="white" stroke="black" points="143.5,-180.5 143.5,-201.5 326.5,-201.5 326.5,-180.5 143.5,-180.5"/>
<text text-anchor="middle" x="235" y="-188.5" font-family="Helvetica,sans-Serif" font-size="10.00">RoR::Application::GetOgreSubsystem</text>
</a>
</g>
<!-- Node1&#45;&gt;Node3 -->
<g id="edge4" class="edge"><title>Node1&#45;&gt;Node3</title>
<path fill="none" stroke="midnightblue" d="M92.6112,-161.576C105.879,-164.709 120.517,-168.08 134,-171 145.601,-173.513 157.98,-176.068 169.952,-178.474"/>
<polygon fill="midnightblue" stroke="midnightblue" points="169.395,-181.931 179.887,-180.456 170.765,-175.067 169.395,-181.931"/>
</g>
<!-- Node4 -->
<g id="node7" class="node"><title>Node4</title>
<a xlink:href="class_ro_r_1_1_ogre_subsystem.html#aec5be99797f9add72578fb1fbfec582f" target="_top" xlink:title="RoR::OgreSubsystem::GetRenderWindow">
<polygon fill="white" stroke="black" points="134,-140.5 134,-161.5 336,-161.5 336,-140.5 134,-140.5"/>
<text text-anchor="middle" x="235" y="-148.5" font-family="Helvetica,sans-Serif" font-size="10.00">RoR::OgreSubsystem::GetRenderWindow</text>
</a>
</g>
<!-- Node1&#45;&gt;Node4 -->
<g id="edge6" class="edge"><title>Node1&#45;&gt;Node4</title>
<path fill="none" stroke="midnightblue" d="M98.3563,-151C106.41,-151 115.029,-151 123.876,-151"/>
<polygon fill="midnightblue" stroke="midnightblue" points="123.943,-154.5 133.943,-151 123.943,-147.5 123.943,-154.5"/>
</g>
<!-- Node5 -->
<g id="node9" class="node"><title>Node5</title>
<a xlink:href="class_input_engine.html#a4e6616df0615d79e74d38ba2cf0ee9b2" target="_top" xlink:title="InputEngine::loadMapping">
<polygon fill="white" stroke="black" points="170.5,-100.5 170.5,-121.5 299.5,-121.5 299.5,-100.5 170.5,-100.5"/>
<text text-anchor="middle" x="235" y="-108.5" font-family="Helvetica,sans-Serif" font-size="10.00">InputEngine::loadMapping</text>
</a>
</g>
<!-- Node1&#45;&gt;Node5 -->
<g id="edge8" class="edge"><title>Node1&#45;&gt;Node5</title>
<path fill="none" stroke="midnightblue" d="M92.6112,-140.424C105.879,-137.291 120.517,-133.92 134,-131 145.601,-128.487 157.98,-125.932 169.952,-123.526"/>
<polygon fill="midnightblue" stroke="midnightblue" points="170.765,-126.933 179.887,-121.544 169.395,-120.069 170.765,-126.933"/>
</g>
<!-- Node12 -->
<g id="node23" class="node"><title>Node12</title>
<a xlink:href="class_input_engine.html#a1fbcc159a8a9342ba21412c33dc719b1" target="_top" xlink:title="InputEngine::completeMissingEvents">
<polygon fill="white" stroke="black" points="145.5,-60.5 145.5,-81.5 324.5,-81.5 324.5,-60.5 145.5,-60.5"/>
<text text-anchor="middle" x="235" y="-68.5" font-family="Helvetica,sans-Serif" font-size="10.00">InputEngine::completeMissingEvents</text>
</a>
</g>
<!-- Node1&#45;&gt;Node12 -->
<g id="edge22" class="edge"><title>Node1&#45;&gt;Node12</title>
<path fill="none" stroke="midnightblue" d="M60.685,-140.288C76.2269,-126.653 105.114,-103.386 134,-91 139.876,-88.4805 146.081,-86.2746 152.409,-84.3439"/>
<polygon fill="midnightblue" stroke="midnightblue" points="153.744,-87.6046 162.425,-81.531 151.851,-80.8654 153.744,-87.6046"/>
</g>
<!-- Node6 -->
<g id="node11" class="node"><title>Node6</title>
<a xlink:href="class_input_engine.html#a1e3ee67edcec9c7a2dc618b37abc8321" target="_top" xlink:title="InputEngine::resetKeys">
<polygon fill="white" stroke="black" points="376.5,-100.5 376.5,-121.5 495.5,-121.5 495.5,-100.5 376.5,-100.5"/>
<text text-anchor="middle" x="436" y="-108.5" font-family="Helvetica,sans-Serif" font-size="10.00">InputEngine::resetKeys</text>
</a>
</g>
<!-- Node5&#45;&gt;Node6 -->
<g id="edge10" class="edge"><title>Node5&#45;&gt;Node6</title>
<path fill="none" stroke="midnightblue" d="M299.704,-111C320.906,-111 344.552,-111 366.119,-111"/>
<polygon fill="midnightblue" stroke="midnightblue" points="366.191,-114.5 376.191,-111 366.191,-107.5 366.191,-114.5"/>
</g>
<!-- Node7 -->
<g id="node13" class="node"><title>Node7</title>
<a xlink:href="class_input_engine.html#aefbb52cfac8a59f9e6683665d035222f" target="_top" xlink:title="InputEngine::processLine">
<polygon fill="white" stroke="black" points="372.5,-60.5 372.5,-81.5 499.5,-81.5 499.5,-60.5 372.5,-60.5"/>
<text text-anchor="middle" x="436" y="-68.5" font-family="Helvetica,sans-Serif" font-size="10.00">InputEngine::processLine</text>
</a>
</g>
<!-- Node5&#45;&gt;Node7 -->
<g id="edge12" class="edge"><title>Node5&#45;&gt;Node7</title>
<path fill="none" stroke="midnightblue" d="M288.207,-100.484C303.626,-97.4308 320.485,-94.0877 336,-91 348.194,-88.5732 361.224,-85.9728 373.712,-83.4766"/>
<polygon fill="midnightblue" stroke="midnightblue" points="374.466,-86.8953 383.585,-81.5024 373.093,-80.0312 374.466,-86.8953"/>
</g>
<!-- Node8 -->
<g id="node15" class="node"><title>Node8</title>
<a xlink:href="class_input_engine.html#a31686978ff9fe35d93d467ef33149b10" target="_top" xlink:title="InputEngine::resolveEventName">
<polygon fill="white" stroke="black" points="536,-120.5 536,-141.5 694,-141.5 694,-120.5 536,-120.5"/>
<text text-anchor="middle" x="615" y="-128.5" font-family="Helvetica,sans-Serif" font-size="10.00">InputEngine::resolveEventName</text>
</a>
</g>
<!-- Node7&#45;&gt;Node8 -->
<g id="edge14" class="edge"><title>Node7&#45;&gt;Node8</title>
<path fill="none" stroke="midnightblue" d="M474.367,-81.5884C482.924,-84.3353 491.869,-87.5141 500,-91 516.823,-98.2117 518.986,-104.253 536,-111 542.185,-113.453 548.764,-115.679 555.384,-117.68"/>
<polygon fill="midnightblue" stroke="midnightblue" points="554.492,-121.065 565.069,-120.45 556.417,-114.335 554.492,-121.065"/>
</g>
<!-- Node9 -->
<g id="node17" class="node"><title>Node9</title>
<a xlink:href="class_input_engine.html#a94995e94c51f95bf1c252b8b0559a5a0" target="_top" xlink:title="InputEngine::newEvent">
<polygon fill="white" stroke="black" points="556,-80.5 556,-101.5 674,-101.5 674,-80.5 556,-80.5"/>
<text text-anchor="middle" x="615" y="-88.5" font-family="Helvetica,sans-Serif" font-size="10.00">InputEngine::newEvent</text>
</a>
</g>
<!-- Node7&#45;&gt;Node9 -->
<g id="edge16" class="edge"><title>Node7&#45;&gt;Node9</title>
<path fill="none" stroke="midnightblue" d="M499.613,-78.1076C514.472,-79.7679 530.374,-81.5445 545.475,-83.2319"/>
<polygon fill="midnightblue" stroke="midnightblue" points="545.453,-86.7511 555.78,-84.3833 546.231,-79.7944 545.453,-86.7511"/>
</g>
<!-- Node10 -->
<g id="node19" class="node"><title>Node10</title>
<a xlink:href="class_input_engine.html#a6e833a491189fdcf9d7efd4e9a44e4d3" target="_top" xlink:title="InputEngine::getEventGroup">
<polygon fill="white" stroke="black" points="545,-40.5 545,-61.5 685,-61.5 685,-40.5 545,-40.5"/>
<text text-anchor="middle" x="615" y="-48.5" font-family="Helvetica,sans-Serif" font-size="10.00">InputEngine::getEventGroup</text>
</a>
</g>
<!-- Node7&#45;&gt;Node10 -->
<g id="edge18" class="edge"><title>Node7&#45;&gt;Node10</title>
<path fill="none" stroke="midnightblue" d="M499.613,-63.8924C510.96,-62.6246 522.915,-61.2889 534.657,-59.9769"/>
<polygon fill="midnightblue" stroke="midnightblue" points="535.351,-63.4212 544.901,-58.8323 534.574,-56.4645 535.351,-63.4212"/>
</g>
<!-- Node11 -->
<g id="node21" class="node"><title>Node11</title>
<a xlink:href="class_input_engine.html#af92de0a39f0fbbe82bc9e81d25f762d1" target="_top" xlink:title="InputEngine::addEvent">
<polygon fill="white" stroke="black" points="557,-0.5 557,-21.5 673,-21.5 673,-0.5 557,-0.5"/>
<text text-anchor="middle" x="615" y="-8.5" font-family="Helvetica,sans-Serif" font-size="10.00">InputEngine::addEvent</text>
</a>
</g>
<!-- Node7&#45;&gt;Node11 -->
<g id="edge20" class="edge"><title>Node7&#45;&gt;Node11</title>
<path fill="none" stroke="midnightblue" d="M459.919,-60.3909C479.975,-51.749 509.503,-39.6113 536,-31 543.474,-28.571 551.424,-26.2544 559.291,-24.116"/>
<polygon fill="midnightblue" stroke="midnightblue" points="560.395,-27.4444 569.171,-21.5073 558.608,-20.6764 560.395,-27.4444"/>
</g>
<!-- Node12&#45;&gt;Node7 -->
<g id="edge24" class="edge"><title>Node12&#45;&gt;Node7</title>
<path fill="none" stroke="midnightblue" d="M324.625,-71C337.22,-71 350.046,-71 362.298,-71"/>
<polygon fill="midnightblue" stroke="midnightblue" points="362.438,-74.5001 372.438,-71 362.438,-67.5001 362.438,-74.5001"/>
</g>
</g>
</svg>
        <g id="navigator" transform="translate(0 0)" fill="#404254">
                <rect fill="#f2f5e9" fill-opacity="0.5" stroke="#606060" stroke-width=".5" x="0" y="0" width="60" height="60"/>
                <use id="zoomplus" xlink:href="#zoomPlus" x="17" y="9" onmousedown="handleZoom(evt,'in')"/>
                <use id="zoomminus" xlink:href="#zoomMin" x="42" y="9" onmousedown="handleZoom(evt,'out')"/>
                <use id="reset" xlink:href="#resetDef" x="30" y="36" onmousedown="handleReset()"/>
                <g id="arrowUp" xlink:href="#dirArrow" transform="translate(30 24)" onmousedown="handlePan(0,-1)">
                  <use xlink:href="#rim" fill="#404040">
                        <set attributeName="fill" to="#808080" begin="arrowUp.mouseover" end="arrowUp.mouseout"/>
                  </use>
                  <path fill="none" stroke="white" stroke-width="1.5" d="M0,-3.0v7 M-2.5,-0.5L0,-3.0L2.5,-0.5"/>
                </g>
                <g id="arrowRight" xlink:href="#dirArrow" transform="rotate(90) translate(36 -43)" onmousedown="handlePan(1,0)">
                  <use xlink:href="#rim" fill="#404040">
                        <set attributeName="fill" to="#808080" begin="arrowRight.mouseover" end="arrowRight.mouseout"/>
                  </use>
                  <path fill="none" stroke="white" stroke-width="1.5" d="M0,-3.0v7 M-2.5,-0.5L0,-3.0L2.5,-0.5"/>
                </g>
                <g id="arrowDown" xlink:href="#dirArrow" transform="rotate(180) translate(-30 -48)" onmousedown="handlePan(0,1)">
                  <use xlink:href="#rim" fill="#404040">
                        <set attributeName="fill" to="#808080" begin="arrowDown.mouseover" end="arrowDown.mouseout"/>
                  </use>
                  <path fill="none" stroke="white" stroke-width="1.5" d="M0,-3.0v7 M-2.5,-0.5L0,-3.0L2.5,-0.5"/>
                </g>
                <g id="arrowLeft" xlink:href="#dirArrow" transform="rotate(270) translate(-36 17)" onmousedown="handlePan(-1,0)">
                  <use xlink:href="#rim" fill="#404040">
                        <set attributeName="fill" to="#808080" begin="arrowLeft.mouseover" end="arrowLeft.mouseout"/>
                  </use>
                  <path fill="none" stroke="white" stroke-width="1.5" d="M0,-3.0v7 M-2.5,-0.5L0,-3.0L2.5,-0.5"/>
                </g>
        </g>
</svg>
