<?xml version="1.0" encoding="UTF-8" standalone="no"?>
<!DOCTYPE svg PUBLIC "-//W3C//DTD SVG 1.1//EN"
 "http://www.w3.org/Graphics/SVG/1.1/DTD/svg11.dtd">
<!-- Generated by graphviz version 2.26.3 (20100126.1600)
 -->
<!-- Title: TerrainObjectManager::loadPreloadedTrucks Pages: 1 -->
<svg width="1162pt" height="503pt"
 viewBox="0.00 0.00 1162.00 503.48" xmlns="http://www.w3.org/2000/svg" xmlns:xlink="http://www.w3.org/1999/xlink">
<g id="graph1" class="graph" transform="scale(1 1) rotate(0) translate(4 499.48)">
<title>TerrainObjectManager::loadPreloadedTrucks</title>
<polygon fill="white" stroke="white" points="-4,5 -4,-499.48 1159,-499.48 1159,5 -4,5"/>
<!-- Node1 -->
<g id="node1" class="node"><title>Node1</title>
<polygon fill="#bfbfbf" stroke="black" points="0,-271 0,-305 114,-305 114,-271 0,-271"/>
<text text-anchor="start" x="8" y="-292" font-family="Helvetica,sans-Serif" font-size="10.00">TerrainObjectManager</text>
<text text-anchor="middle" x="57" y="-279" font-family="Helvetica,sans-Serif" font-size="10.00">::loadPreloadedTrucks</text>
</g>
<!-- Node2 -->
<g id="node3" class="node"><title>Node2</title>
<a xlink:href="class_streamable_factory.html#a233cafcf6f87f5779b1a26a5a48d8f6d" target="_top" xlink:title="StreamableFactory\&lt;\l BeamFactory, Beam \&gt;\l::getSingleton">
<polygon fill="white" stroke="black" points="540.5,-446.5 540.5,-493.5 659.5,-493.5 659.5,-446.5 540.5,-446.5"/>
<text text-anchor="start" x="548.5" y="-480.5" font-family="Helvetica,sans-Serif" font-size="10.00">StreamableFactory&lt;</text>
<text text-anchor="start" x="548.5" y="-467.5" font-family="Helvetica,sans-Serif" font-size="10.00"> BeamFactory, Beam &gt;</text>
<text text-anchor="middle" x="600" y="-454.5" font-family="Helvetica,sans-Serif" font-size="10.00">::getSingleton</text>
</a>
</g>
<!-- Node1&#45;&gt;Node2 -->
<g id="edge2" class="edge"><title>Node1&#45;&gt;Node2</title>
<path fill="none" stroke="midnightblue" d="M72.6709,-305.092C110.878,-345.335 213.803,-445.342 324,-481 391.575,-502.866 473.341,-495.749 530.259,-485.866"/>
<polygon fill="midnightblue" stroke="midnightblue" points="531.017,-489.286 540.234,-484.062 529.771,-482.398 531.017,-489.286"/>
</g>
<!-- Node3 -->
<g id="node5" class="node"><title>Node3</title>
<a xlink:href="class_beam_factory.html#a6eb09f405c2dc496a687caf0014800b0" target="_top" xlink:title="BeamFactory::CreateLocal\lRigInstance">
<polygon fill="white" stroke="black" points="152,-271 152,-305 286,-305 286,-271 152,-271"/>
<text text-anchor="start" x="160" y="-292" font-family="Helvetica,sans-Serif" font-size="10.00">BeamFactory::CreateLocal</text>
<text text-anchor="middle" x="219" y="-279" font-family="Helvetica,sans-Serif" font-size="10.00">RigInstance</text>
</a>
</g>
<!-- Node1&#45;&gt;Node3 -->
<g id="edge4" class="edge"><title>Node1&#45;&gt;Node3</title>
<path fill="none" stroke="midnightblue" d="M114.115,-288C123.079,-288 132.472,-288 141.798,-288"/>
<polygon fill="midnightblue" stroke="midnightblue" points="141.868,-291.5 151.868,-288 141.868,-284.5 141.868,-291.5"/>
</g>
<!-- Node28 -->
<g id="node58" class="node"><title>Node28</title>
<a xlink:href="class_beam.html#ab7cea3a026bb573930b1c6e5bd7774c1" target="_top" xlink:title="Beam::getHeadingDirection\lAngle">
<polygon fill="white" stroke="black" points="150.5,-219 150.5,-253 287.5,-253 287.5,-219 150.5,-219"/>
<text text-anchor="start" x="158.5" y="-240" font-family="Helvetica,sans-Serif" font-size="10.00">Beam::getHeadingDirection</text>
<text text-anchor="middle" x="219" y="-227" font-family="Helvetica,sans-Serif" font-size="10.00">Angle</text>
</a>
</g>
<!-- Node1&#45;&gt;Node28 -->
<g id="edge60" class="edge"><title>Node1&#45;&gt;Node28</title>
<path fill="none" stroke="midnightblue" d="M110.045,-270.973C124.73,-266.26 140.812,-261.097 156.005,-256.221"/>
<polygon fill="midnightblue" stroke="midnightblue" points="157.384,-259.454 165.836,-253.065 155.245,-252.789 157.384,-259.454"/>
</g>
<!-- Node4 -->
<g id="node7" class="node"><title>Node4</title>
<a xlink:href="namespace_profiler.html#a1f2fdbd66925222007a1461ecd4d01f9" target="_top" xlink:title="Profiler::reset">
<polygon fill="white" stroke="black" points="368.5,-450.5 368.5,-471.5 443.5,-471.5 443.5,-450.5 368.5,-450.5"/>
<text text-anchor="middle" x="406" y="-458.5" font-family="Helvetica,sans-Serif" font-size="10.00">Profiler::reset</text>
</a>
</g>
<!-- Node3&#45;&gt;Node4 -->
<g id="edge6" class="edge"><title>Node3&#45;&gt;Node4</title>
<path fill="none" stroke="midnightblue" d="M225.862,-305.317C239.487,-337.365 273.099,-405.856 324,-441 334.08,-447.96 346.321,-452.507 358.236,-455.475"/>
<polygon fill="midnightblue" stroke="midnightblue" points="357.599,-458.918 368.113,-457.615 359.081,-452.077 357.599,-458.918"/>
</g>
<!-- Node5 -->
<g id="node9" class="node"><title>Node5</title>
<a xlink:href="class_beam_factory.html#ad4e3be6a036419a493c187046e7b3f38" target="_top" xlink:title="BeamFactory::getFreeTruckSlot">
<polygon fill="white" stroke="black" points="328,-410.5 328,-431.5 484,-431.5 484,-410.5 328,-410.5"/>
<text text-anchor="middle" x="406" y="-418.5" font-family="Helvetica,sans-Serif" font-size="10.00">BeamFactory::getFreeTruckSlot</text>
</a>
</g>
<!-- Node3&#45;&gt;Node5 -->
<g id="edge8" class="edge"><title>Node3&#45;&gt;Node5</title>
<path fill="none" stroke="midnightblue" d="M229.991,-305.097C247.016,-330.138 282.194,-376.468 324,-401 327.697,-403.169 331.619,-405.104 335.667,-406.829"/>
<polygon fill="midnightblue" stroke="midnightblue" points="334.704,-410.207 345.295,-410.487 337.19,-403.663 334.704,-410.207"/>
</g>
<!-- Node6 -->
<g id="node11" class="node"><title>Node6</title>
<a xlink:href="class_beam.html#aa0750858904f05ed7e8308b12c670566" target="_top" xlink:title="Beam::getSlideNodesLockInstant">
<polygon fill="white" stroke="black" points="324.5,-370.5 324.5,-391.5 487.5,-391.5 487.5,-370.5 324.5,-370.5"/>
<text text-anchor="middle" x="406" y="-378.5" font-family="Helvetica,sans-Serif" font-size="10.00">Beam::getSlideNodesLockInstant</text>
</a>
</g>
<!-- Node3&#45;&gt;Node6 -->
<g id="edge10" class="edge"><title>Node3&#45;&gt;Node6</title>
<path fill="none" stroke="midnightblue" d="M238.939,-305.253C259.106,-321.849 291.816,-346.497 324,-361 329.306,-363.391 334.94,-365.522 340.672,-367.415"/>
<polygon fill="midnightblue" stroke="midnightblue" points="339.783,-370.803 350.37,-370.382 341.831,-364.11 339.783,-370.803"/>
</g>
<!-- Node7 -->
<g id="node13" class="node"><title>Node7</title>
<a xlink:href="class_beam.html#a7f17e89ec7dfd80a13382d1df2155bdb" target="_top" xlink:title="Beam::toggleSlideNodeLock">
<polygon fill="white" stroke="black" points="336,-330.5 336,-351.5 476,-351.5 476,-330.5 336,-330.5"/>
<text text-anchor="middle" x="406" y="-338.5" font-family="Helvetica,sans-Serif" font-size="10.00">Beam::toggleSlideNodeLock</text>
</a>
</g>
<!-- Node3&#45;&gt;Node7 -->
<g id="edge12" class="edge"><title>Node3&#45;&gt;Node7</title>
<path fill="none" stroke="midnightblue" d="M270.872,-305.04C287.746,-310.385 306.606,-316.151 324,-321 332.512,-323.373 341.564,-325.738 350.429,-327.967"/>
<polygon fill="midnightblue" stroke="midnightblue" points="349.772,-331.41 360.321,-330.418 351.456,-324.615 349.772,-331.41"/>
</g>
<!-- Node19 -->
<g id="node40" class="node"><title>Node19</title>
<a xlink:href="class_streamable_factory.html#ae48eb0007578a22c2c857f72d1471a84" target="_top" xlink:title="StreamableFactory\&lt;\l BeamFactory, Beam \&gt;\l::lockStreams">
<polygon fill="white" stroke="black" points="346.5,-264.5 346.5,-311.5 465.5,-311.5 465.5,-264.5 346.5,-264.5"/>
<text text-anchor="start" x="354.5" y="-298.5" font-family="Helvetica,sans-Serif" font-size="10.00">StreamableFactory&lt;</text>
<text text-anchor="start" x="354.5" y="-285.5" font-family="Helvetica,sans-Serif" font-size="10.00"> BeamFactory, Beam &gt;</text>
<text text-anchor="middle" x="406" y="-272.5" font-family="Helvetica,sans-Serif" font-size="10.00">::lockStreams</text>
</a>
</g>
<!-- Node3&#45;&gt;Node19 -->
<g id="edge42" class="edge"><title>Node3&#45;&gt;Node19</title>
<path fill="none" stroke="midnightblue" d="M286.247,-288C302.549,-288 320.01,-288 336.417,-288"/>
<polygon fill="midnightblue" stroke="midnightblue" points="336.477,-291.5 346.477,-288 336.477,-284.5 336.477,-291.5"/>
</g>
<!-- Node20 -->
<g id="node42" class="node"><title>Node20</title>
<a xlink:href="class_streamable_factory.html#a144cbd4edd29595ee5c36bf9aa3b461c" target="_top" xlink:title="StreamableFactory\&lt;\l BeamFactory, Beam \&gt;\l::getStreams">
<polygon fill="white" stroke="black" points="346.5,-198.5 346.5,-245.5 465.5,-245.5 465.5,-198.5 346.5,-198.5"/>
<text text-anchor="start" x="354.5" y="-232.5" font-family="Helvetica,sans-Serif" font-size="10.00">StreamableFactory&lt;</text>
<text text-anchor="start" x="354.5" y="-219.5" font-family="Helvetica,sans-Serif" font-size="10.00"> BeamFactory, Beam &gt;</text>
<text text-anchor="middle" x="406" y="-206.5" font-family="Helvetica,sans-Serif" font-size="10.00">::getStreams</text>
</a>
</g>
<!-- Node3&#45;&gt;Node20 -->
<g id="edge44" class="edge"><title>Node3&#45;&gt;Node20</title>
<path fill="none" stroke="midnightblue" d="M267.644,-270.832C288.665,-263.412 313.651,-254.594 336.567,-246.506"/>
<polygon fill="midnightblue" stroke="midnightblue" points="337.978,-249.719 346.243,-243.091 335.649,-243.118 337.978,-249.719"/>
</g>
<!-- Node21 -->
<g id="node44" class="node"><title>Node21</title>
<a xlink:href="class_streamable_factory.html#a903fef78ba76e72a0536ff615c5952d4" target="_top" xlink:title="StreamableFactory\&lt;\l BeamFactory, Beam \&gt;\l::unlockStreams">
<polygon fill="white" stroke="black" points="346.5,-132.5 346.5,-179.5 465.5,-179.5 465.5,-132.5 346.5,-132.5"/>
<text text-anchor="start" x="354.5" y="-166.5" font-family="Helvetica,sans-Serif" font-size="10.00">StreamableFactory&lt;</text>
<text text-anchor="start" x="354.5" y="-153.5" font-family="Helvetica,sans-Serif" font-size="10.00"> BeamFactory, Beam &gt;</text>
<text text-anchor="middle" x="406" y="-140.5" font-family="Helvetica,sans-Serif" font-size="10.00">::unlockStreams</text>
</a>
</g>
<!-- Node3&#45;&gt;Node21 -->
<g id="edge46" class="edge"><title>Node3&#45;&gt;Node21</title>
<path fill="none" stroke="midnightblue" d="M275.711,-270.855C280.128,-268.289 284.301,-265.353 288,-262 314.799,-237.701 297.473,-213.595 324,-189 328.079,-185.218 332.647,-181.845 337.484,-178.842"/>
<polygon fill="midnightblue" stroke="midnightblue" points="339.421,-181.768 346.433,-173.826 335.999,-175.662 339.421,-181.768"/>
</g>
<!-- Node22 -->
<g id="node46" class="node"><title>Node22</title>
<a xlink:href="class_beam.html#aca6cb152aefc10162410ca53cecf773e" target="_top" xlink:title="Beam::updateNetworkInfo">
<polygon fill="white" stroke="black" points="340.5,-92.5 340.5,-113.5 471.5,-113.5 471.5,-92.5 340.5,-92.5"/>
<text text-anchor="middle" x="406" y="-100.5" font-family="Helvetica,sans-Serif" font-size="10.00">Beam::updateNetworkInfo</text>
</a>
</g>
<!-- Node3&#45;&gt;Node22 -->
<g id="edge48" class="edge"><title>Node3&#45;&gt;Node22</title>
<path fill="none" stroke="midnightblue" d="M277.467,-270.993C281.342,-268.406 284.92,-265.428 288,-262 330.649,-214.528 278.556,-167.803 324,-123 326.274,-120.758 328.756,-118.752 331.393,-116.959"/>
<polygon fill="midnightblue" stroke="midnightblue" points="333.302,-119.901 340.28,-111.928 329.854,-113.809 333.302,-119.901"/>
</g>
<!-- Node23 -->
<g id="node48" class="node"><title>Node23</title>
<a xlink:href="class_ro_r_1_1_rig_loading_profiler.html#a1ce25890979cc7d857976ce706973717" target="_top" xlink:title="RoR::RigLoadingProfiler\l::Report">
<polygon fill="white" stroke="black" points="345,-40 345,-74 467,-74 467,-40 345,-40"/>
<text text-anchor="start" x="353" y="-61" font-family="Helvetica,sans-Serif" font-size="10.00">RoR::RigLoadingProfiler</text>
<text text-anchor="middle" x="406" y="-48" font-family="Helvetica,sans-Serif" font-size="10.00">::Report</text>
</a>
</g>
<!-- Node3&#45;&gt;Node23 -->
<g id="edge50" class="edge"><title>Node3&#45;&gt;Node23</title>
<path fill="none" stroke="midnightblue" d="M277.996,-270.958C281.7,-268.38 285.098,-265.414 288,-262 340.553,-200.168 269.817,-143.41 324,-83 327.464,-79.1383 331.497,-75.8459 335.882,-73.0393"/>
<polygon fill="midnightblue" stroke="midnightblue" points="337.597,-76.0903 344.689,-68.2192 334.237,-69.9498 337.597,-76.0903"/>
</g>
<!-- Node27 -->
<g id="node56" class="node"><title>Node27</title>
<a xlink:href="namespace_profiler.html#ad30cdcfc304c887fe0dc83d5b9f35e23" target="_top" xlink:title="Profiler::DumpHtml">
<polygon fill="white" stroke="black" points="355.5,-0.5 355.5,-21.5 456.5,-21.5 456.5,-0.5 355.5,-0.5"/>
<text text-anchor="middle" x="406" y="-8.5" font-family="Helvetica,sans-Serif" font-size="10.00">Profiler::DumpHtml</text>
</a>
</g>
<!-- Node3&#45;&gt;Node27 -->
<g id="edge58" class="edge"><title>Node3&#45;&gt;Node27</title>
<path fill="none" stroke="midnightblue" d="M278.478,-270.874C282.021,-268.316 285.255,-265.377 288,-262 353.539,-181.37 253.701,-107.515 324,-31 329.843,-24.6403 337.342,-20.1488 345.425,-17.0025"/>
<polygon fill="midnightblue" stroke="midnightblue" points="346.662,-20.2812 355.117,-13.8955 344.526,-13.6153 346.662,-20.2812"/>
</g>
<!-- Node7&#45;&gt;Node2 -->
<g id="edge14" class="edge"><title>Node7&#45;&gt;Node2</title>
<path fill="none" stroke="midnightblue" d="M468.728,-351.602C475.513,-354.1 482.09,-357.187 488,-361 509.815,-375.075 505.902,-388.387 524,-407 535.172,-418.491 548.324,-429.993 560.518,-439.966"/>
<polygon fill="midnightblue" stroke="midnightblue" points="558.378,-442.737 568.362,-446.282 562.769,-437.284 558.378,-442.737"/>
</g>
<!-- Node8 -->
<g id="node16" class="node"><title>Node8</title>
<a xlink:href="class_beam_factory.html#a5f3755f8cd44e6972e463cc6aaa9f181" target="_top" xlink:title="BeamFactory::getTruckCount">
<polygon fill="white" stroke="black" points="527,-376.5 527,-397.5 673,-397.5 673,-376.5 527,-376.5"/>
<text text-anchor="middle" x="600" y="-384.5" font-family="Helvetica,sans-Serif" font-size="10.00">BeamFactory::getTruckCount</text>
</a>
</g>
<!-- Node7&#45;&gt;Node8 -->
<g id="edge16" class="edge"><title>Node7&#45;&gt;Node8</title>
<path fill="none" stroke="midnightblue" d="M450.508,-351.553C478.85,-358.274 515.748,-367.023 545.795,-374.147"/>
<polygon fill="midnightblue" stroke="midnightblue" points="545.162,-377.594 555.7,-376.496 546.777,-370.783 545.162,-377.594"/>
</g>
<!-- Node9 -->
<g id="node18" class="node"><title>Node9</title>
<a xlink:href="class_beam_factory.html#a38dd601d99e3408691aba22f937033a6" target="_top" xlink:title="BeamFactory::getCurrentTruck\lNumber">
<polygon fill="white" stroke="black" points="524,-324 524,-358 676,-358 676,-324 524,-324"/>
<text text-anchor="start" x="532" y="-345" font-family="Helvetica,sans-Serif" font-size="10.00">BeamFactory::getCurrentTruck</text>
<text text-anchor="middle" x="600" y="-332" font-family="Helvetica,sans-Serif" font-size="10.00">Number</text>
</a>
</g>
<!-- Node7&#45;&gt;Node9 -->
<g id="edge18" class="edge"><title>Node7&#45;&gt;Node9</title>
<path fill="none" stroke="midnightblue" d="M476.038,-341C488.285,-341 501.154,-341 513.777,-341"/>
<polygon fill="midnightblue" stroke="midnightblue" points="513.831,-344.5 523.831,-341 513.831,-337.5 513.831,-344.5"/>
</g>
<!-- Node10 -->
<g id="node20" class="node"><title>Node10</title>
<a xlink:href="class_beam.html#a99d7bd308fca5408d36a597e4463a6ef" target="_top" xlink:title="Beam::getClosestRailOnTruck">
<polygon fill="white" stroke="black" points="525,-284.5 525,-305.5 675,-305.5 675,-284.5 525,-284.5"/>
<text text-anchor="middle" x="600" y="-292.5" font-family="Helvetica,sans-Serif" font-size="10.00">Beam::getClosestRailOnTruck</text>
</a>
</g>
<!-- Node7&#45;&gt;Node10 -->
<g id="edge20" class="edge"><title>Node7&#45;&gt;Node10</title>
<path fill="none" stroke="midnightblue" d="M450.508,-330.447C478.85,-323.726 515.748,-314.977 545.795,-307.853"/>
<polygon fill="midnightblue" stroke="midnightblue" points="546.777,-311.217 555.7,-305.504 545.162,-304.406 546.777,-311.217"/>
</g>
<!-- Node11 -->
<g id="node22" class="node"><title>Node11</title>
<a xlink:href="class_slide_node.html#ac667f76769572eb2a81925c8b62dad2b" target="_top" xlink:title="SlideNode::getClosestRailAll">
<polygon fill="white" stroke="black" points="712.5,-382.5 712.5,-403.5 855.5,-403.5 855.5,-382.5 712.5,-382.5"/>
<text text-anchor="middle" x="784" y="-390.5" font-family="Helvetica,sans-Serif" font-size="10.00">SlideNode::getClosestRailAll</text>
</a>
</g>
<!-- Node10&#45;&gt;Node11 -->
<g id="edge22" class="edge"><title>Node10&#45;&gt;Node11</title>
<path fill="none" stroke="midnightblue" d="M658.008,-305.509C664.39,-308.023 670.542,-311.139 676,-315 699.246,-331.446 689.403,-350.673 712,-368 717.362,-372.111 723.449,-375.577 729.759,-378.492"/>
<polygon fill="midnightblue" stroke="midnightblue" points="728.528,-381.77 739.105,-382.378 731.216,-375.307 728.528,-381.77"/>
</g>
<!-- Node13 -->
<g id="node26" class="node"><title>Node13</title>
<a xlink:href="class_slide_node.html#ac5fd218cba138435059c5aec3ce59393" target="_top" xlink:title="SlideNode::getLenTo">
<polygon fill="white" stroke="black" points="892,-343.5 892,-364.5 1000,-364.5 1000,-343.5 892,-343.5"/>
<text text-anchor="middle" x="946" y="-351.5" font-family="Helvetica,sans-Serif" font-size="10.00">SlideNode::getLenTo</text>
</a>
</g>
<!-- Node10&#45;&gt;Node13 -->
<g id="edge32" class="edge"><title>Node10&#45;&gt;Node13</title>
<path fill="none" stroke="midnightblue" d="M647.623,-305.578C657.164,-308.24 667.012,-311.387 676,-315 692.983,-321.827 694.482,-329.695 712,-335 767.604,-351.839 833.834,-355.817 881.617,-356.035"/>
<polygon fill="midnightblue" stroke="midnightblue" points="881.83,-359.535 891.827,-356.026 881.823,-352.535 881.83,-359.535"/>
</g>
<!-- Node14 -->
<g id="node29" class="node"><title>Node14</title>
<a xlink:href="class_slide_node.html#af931edc57efab0662bc7bcadc1de5635" target="_top" xlink:title="SlideNode::getNodePosition">
<polygon fill="white" stroke="black" points="714,-304.5 714,-325.5 854,-325.5 854,-304.5 714,-304.5"/>
<text text-anchor="middle" x="784" y="-312.5" font-family="Helvetica,sans-Serif" font-size="10.00">SlideNode::getNodePosition</text>
</a>
</g>
<!-- Node10&#45;&gt;Node14 -->
<g id="edge30" class="edge"><title>Node10&#45;&gt;Node14</title>
<path fill="none" stroke="midnightblue" d="M675.105,-303.164C684.519,-304.187 694.177,-305.237 703.667,-306.268"/>
<polygon fill="midnightblue" stroke="midnightblue" points="703.56,-309.777 713.879,-307.378 704.316,-302.818 703.56,-309.777"/>
</g>
<!-- Node15 -->
<g id="node32" class="node"><title>Node15</title>
<a xlink:href="class_slide_node.html#ac4d6e22caa50bd967f876895da39c5f9" target="_top" xlink:title="SlideNode::getNodeID">
<polygon fill="white" stroke="black" points="726.5,-264.5 726.5,-285.5 841.5,-285.5 841.5,-264.5 726.5,-264.5"/>
<text text-anchor="middle" x="784" y="-272.5" font-family="Helvetica,sans-Serif" font-size="10.00">SlideNode::getNodeID</text>
</a>
</g>
<!-- Node10&#45;&gt;Node15 -->
<g id="edge34" class="edge"><title>Node10&#45;&gt;Node15</title>
<path fill="none" stroke="midnightblue" d="M675.105,-286.836C688.725,-285.356 702.857,-283.82 716.25,-282.364"/>
<polygon fill="midnightblue" stroke="midnightblue" points="716.764,-285.829 726.327,-281.269 716.008,-278.87 716.764,-285.829"/>
</g>
<!-- Node16 -->
<g id="node34" class="node"><title>Node16</title>
<a xlink:href="class_slide_node.html#ad45e8024666f17ce7c0c76e0eb4f74ef" target="_top" xlink:title="SlideNode::getRailID">
<polygon fill="white" stroke="black" points="729.5,-224.5 729.5,-245.5 838.5,-245.5 838.5,-224.5 729.5,-224.5"/>
<text text-anchor="middle" x="784" y="-232.5" font-family="Helvetica,sans-Serif" font-size="10.00">SlideNode::getRailID</text>
</a>
</g>
<!-- Node10&#45;&gt;Node16 -->
<g id="edge36" class="edge"><title>Node10&#45;&gt;Node16</title>
<path fill="none" stroke="midnightblue" d="M627.887,-284.409C650.433,-275.999 683.067,-264.172 712,-255 719.137,-252.738 726.715,-250.479 734.173,-248.337"/>
<polygon fill="midnightblue" stroke="midnightblue" points="735.19,-251.687 743.86,-245.598 733.285,-244.951 735.19,-251.687"/>
</g>
<!-- Node18 -->
<g id="node38" class="node"><title>Node18</title>
<a xlink:href="class_slide_node.html#a06dbaf88cc0828b63931240a9e41e1a1" target="_top" xlink:title="maximum distance this spring node is allowed to reach out for a Rail ">
<polygon fill="white" stroke="black" points="718.5,-172 718.5,-206 849.5,-206 849.5,-172 718.5,-172"/>
<text text-anchor="start" x="726.5" y="-193" font-family="Helvetica,sans-Serif" font-size="10.00">SlideNode::getAttachment</text>
<text text-anchor="middle" x="784" y="-180" font-family="Helvetica,sans-Serif" font-size="10.00">Distance</text>
</a>
</g>
<!-- Node10&#45;&gt;Node18 -->
<g id="edge40" class="edge"><title>Node10&#45;&gt;Node18</title>
<path fill="none" stroke="midnightblue" d="M612.357,-284.425C632.243,-267.823 673.07,-235.436 712,-215 715.251,-213.294 718.638,-211.653 722.095,-210.083"/>
<polygon fill="midnightblue" stroke="midnightblue" points="723.558,-213.264 731.362,-206.098 720.793,-206.833 723.558,-213.264"/>
</g>
<!-- Node12 -->
<g id="node24" class="node"><title>Node12</title>
<a xlink:href="class_rail_group.html#a6efe9a33efe24279e5bfc08f1b54ee40" target="_top" xlink:title="RailGroup::getStartRail">
<polygon fill="white" stroke="black" points="1036,-362.5 1036,-383.5 1154,-383.5 1154,-362.5 1036,-362.5"/>
<text text-anchor="middle" x="1095" y="-370.5" font-family="Helvetica,sans-Serif" font-size="10.00">RailGroup::getStartRail</text>
</a>
</g>
<!-- Node11&#45;&gt;Node12 -->
<g id="edge24" class="edge"><title>Node11&#45;&gt;Node12</title>
<path fill="none" stroke="midnightblue" d="M855.74,-388.386C906.843,-385.1 975.148,-380.708 1025.69,-377.457"/>
<polygon fill="midnightblue" stroke="midnightblue" points="1026.12,-380.937 1035.87,-376.802 1025.67,-373.951 1026.12,-380.937"/>
</g>
<!-- Node11&#45;&gt;Node13 -->
<g id="edge26" class="edge"><title>Node11&#45;&gt;Node13</title>
<path fill="none" stroke="midnightblue" d="M827.84,-382.446C847.649,-377.677 871.245,-371.997 892.123,-366.97"/>
<polygon fill="midnightblue" stroke="midnightblue" points="893.222,-370.306 902.125,-364.562 891.584,-363.5 893.222,-370.306"/>
</g>
<!-- Node13&#45;&gt;Node12 -->
<g id="edge28" class="edge"><title>Node13&#45;&gt;Node12</title>
<path fill="none" stroke="midnightblue" d="M1000.21,-360.913C1008.53,-361.973 1017.2,-363.08 1025.79,-364.174"/>
<polygon fill="midnightblue" stroke="midnightblue" points="1025.43,-367.657 1035.79,-365.45 1026.32,-360.713 1025.43,-367.657"/>
</g>
<!-- Node17 -->
<g id="node36" class="node"><title>Node17</title>
<a xlink:href="class_rail_group.html#a0a0724dac9adf0c7577db0a2df56f551" target="_top" xlink:title="RailGroup::getID">
<polygon fill="white" stroke="black" points="901,-224.5 901,-245.5 991,-245.5 991,-224.5 901,-224.5"/>
<text text-anchor="middle" x="946" y="-232.5" font-family="Helvetica,sans-Serif" font-size="10.00">RailGroup::getID</text>
</a>
</g>
<!-- Node16&#45;&gt;Node17 -->
<g id="edge38" class="edge"><title>Node16&#45;&gt;Node17</title>
<path fill="none" stroke="midnightblue" d="M838.846,-235C855.569,-235 873.959,-235 890.711,-235"/>
<polygon fill="midnightblue" stroke="midnightblue" points="890.901,-238.5 900.901,-235 890.901,-231.5 890.901,-238.5"/>
</g>
<!-- Node24 -->
<g id="node50" class="node"><title>Node24</title>
<a xlink:href="class_ro_r_1_1_rig_loading_profiler.html#aa5a5a24ce3478c2ec971d610f2881b43" target="_top" xlink:title="RoR::RigLoadingProfiler\l::Restart">
<polygon fill="white" stroke="black" points="539,-63 539,-97 661,-97 661,-63 539,-63"/>
<text text-anchor="start" x="547" y="-84" font-family="Helvetica,sans-Serif" font-size="10.00">RoR::RigLoadingProfiler</text>
<text text-anchor="middle" x="600" y="-71" font-family="Helvetica,sans-Serif" font-size="10.00">::Restart</text>
</a>
</g>
<!-- Node23&#45;&gt;Node24 -->
<g id="edge52" class="edge"><title>Node23&#45;&gt;Node24</title>
<path fill="none" stroke="midnightblue" d="M467.117,-64.2458C486.689,-66.5662 508.531,-69.1557 528.761,-71.5541"/>
<polygon fill="midnightblue" stroke="midnightblue" points="528.515,-75.0494 538.857,-72.7511 529.339,-68.0981 528.515,-75.0494"/>
</g>
<!-- Node26 -->
<g id="node54" class="node"><title>Node26</title>
<a xlink:href="class_precision_timer.html#a99fcefcc051dacc2e47236323b7e0311" target="_top" xlink:title="PrecisionTimer::elapsed">
<polygon fill="white" stroke="black" points="539,-23.5 539,-44.5 661,-44.5 661,-23.5 539,-23.5"/>
<text text-anchor="middle" x="600" y="-31.5" font-family="Helvetica,sans-Serif" font-size="10.00">PrecisionTimer::elapsed</text>
</a>
</g>
<!-- Node23&#45;&gt;Node26 -->
<g id="edge56" class="edge"><title>Node23&#45;&gt;Node26</title>
<path fill="none" stroke="midnightblue" d="M467.117,-49.7542C486.689,-47.4338 508.531,-44.8443 528.761,-42.4459"/>
<polygon fill="midnightblue" stroke="midnightblue" points="529.339,-45.9019 538.857,-41.2489 528.515,-38.9506 529.339,-45.9019"/>
</g>
<!-- Node25 -->
<g id="node52" class="node"><title>Node25</title>
<a xlink:href="class_precision_timer.html#a8433a3ba0af62a025d512c09f2eade3d" target="_top" xlink:title="PrecisionTimer::restart">
<polygon fill="white" stroke="black" points="726,-69.5 726,-90.5 842,-90.5 842,-69.5 726,-69.5"/>
<text text-anchor="middle" x="784" y="-77.5" font-family="Helvetica,sans-Serif" font-size="10.00">PrecisionTimer::restart</text>
</a>
</g>
<!-- Node24&#45;&gt;Node25 -->
<g id="edge54" class="edge"><title>Node24&#45;&gt;Node25</title>
<path fill="none" stroke="midnightblue" d="M661.014,-80C678.585,-80 697.864,-80 715.839,-80"/>
<polygon fill="midnightblue" stroke="midnightblue" points="715.959,-83.5001 725.959,-80 715.959,-76.5001 715.959,-83.5001"/>
</g>
</g>
</svg>
