<?xml version="1.0" encoding="UTF-8" standalone="no"?>
<!DOCTYPE svg PUBLIC "-//W3C//DTD SVG 1.1//EN"
 "http://www.w3.org/Graphics/SVG/1.1/DTD/svg11.dtd">
<!-- Generated by graphviz version 2.26.3 (20100126.1600)
 -->
<!-- Title: G Pages: 1 -->
<!--zoomable 190 -->
<svg id="main" version="1.1" xmlns="http://www.w3.org/2000/svg" xmlns:xlink="http://www.w3.org/1999/xlink" xml:space="preserve" onload="init(evt)">
        <defs>
                <circle id="rim" cx="0" cy="0" r="7"/>
                <circle id="rim2" cx="0" cy="0" r="3.5"/>
                <g id="zoomPlus">
                        <use xlink:href="#rim" fill="#404040">
                                <set attributeName="fill" to="#808080" begin="zoomplus.mouseover" end="zoomplus.mouseout"/>
                        </use>
                        <path d="M-4,0h8M0,-4v8" fill="none" stroke="white" stroke-width="1.5" pointer-events="none"/>
                </g>
                <g id="zoomMin">
                        <use xlink:href="#rim" fill="#404040">
                                <set attributeName="fill" to="#808080" begin="zoomminus.mouseover" end="zoomminus.mouseout"/>
                        </use>
                        <path d="M-4,0h8" fill="none" stroke="white" stroke-width="1.5" pointer-events="none"/>
                </g>
                <g id="dirArrow">
                        <path fill="none" stroke="white" stroke-width="1.5" d="M0,-3.0v7 M-2.5,-0.5L0,-3.0L2.5,-0.5"/>
                </g>
               <g id="resetDef">
                       <use xlink:href="#rim2" fill="#404040">
                               <set attributeName="fill" to="#808080" begin="reset.mouseover" end="reset.mouseout"/>
                       </use>
               </g>
        </defs>

<script type="text/javascript">
var viewWidth = 608;
var viewHeight = 190;
var sectionId = 'dynsection-4';
</script>
<script xlink:href="svgpan.js"/>
<svg id="graph" class="graph">
<g id="viewport">
<title>G</title>
<polygon fill="white" stroke="white" points="-4,5 -4,-186 605,-186 605,5 -4,5"/>
<!-- Node1 -->
<g id="node1" class="node"><title>Node1</title>
<polygon fill="#bfbfbf" stroke="black" points="0.5,-80.5 0.5,-101.5 155.5,-101.5 155.5,-80.5 0.5,-80.5"/>
<text text-anchor="middle" x="78" y="-88.5" font-family="Helvetica,sans-Serif" font-size="10.00">StreamableFactory::getStreams</text>
</g>
<!-- Node2 -->
<g id="node3" class="node"><title>Node2</title>
<a xlink:href="class_streamable_factory.html#a8d5aca4ae1dc52611dd01b127d37f487" target="_top" xlink:title="StreamableFactory\&lt; ChatSystemFactory, ChatSystem \&gt;::removeInstance">
<polygon fill="white" stroke="black" points="225.5,-160.5 225.5,-181.5 566.5,-181.5 566.5,-160.5 225.5,-160.5"/>
<text text-anchor="middle" x="396" y="-168.5" font-family="Helvetica,sans-Serif" font-size="10.00">StreamableFactory&lt; ChatSystemFactory, ChatSystem &gt;::removeInstance</text>
</a>
</g>
<!-- Node1&#45;&gt;Node2 -->
<g id="edge2" class="edge"><title>Node1&#45;&gt;Node2</title>
<path fill="none" stroke="midnightblue" d="M101.86,-107.088C124.145,-121.234 158.859,-141.07 192,-151 204.698,-154.805 218.02,-157.925 231.516,-160.481"/>
<polygon fill="midnightblue" stroke="midnightblue" points="103.69,-104.103 93.3934,-101.606 99.8853,-109.979 103.69,-104.103"/>
</g>
<!-- Node3 -->
<g id="node5" class="node"><title>Node3</title>
<a xlink:href="class_streamable_factory.html#abd513efc55dd1ac6e88967d7ea2dcb59" target="_top" xlink:title="StreamableFactory\&lt; ChatSystemFactory, ChatSystem \&gt;::checkStreamsOK">
<polygon fill="white" stroke="black" points="221.5,-120.5 221.5,-141.5 570.5,-141.5 570.5,-120.5 221.5,-120.5"/>
<text text-anchor="middle" x="396" y="-128.5" font-family="Helvetica,sans-Serif" font-size="10.00">StreamableFactory&lt; ChatSystemFactory, ChatSystem &gt;::checkStreamsOK</text>
</a>
</g>
<!-- Node1&#45;&gt;Node3 -->
<g id="edge4" class="edge"><title>Node1&#45;&gt;Node3</title>
<path fill="none" stroke="midnightblue" d="M143.233,-103.322C159.151,-106.086 176.158,-108.837 192,-111 218.18,-114.575 246.335,-117.758 273.116,-120.477"/>
<polygon fill="midnightblue" stroke="midnightblue" points="143.409,-99.7996 132.953,-101.51 142.193,-106.693 143.409,-99.7996"/>
</g>
<!-- Node4 -->
<g id="node7" class="node"><title>Node4</title>
<a xlink:href="class_streamable_factory.html#a2c4d43eeba1a574e36b132559050629e" target="_top" xlink:title="StreamableFactory\&lt; ChatSystemFactory, ChatSystem \&gt;::checkStreamsResultsChanged">
<polygon fill="white" stroke="black" points="192.5,-80.5 192.5,-101.5 599.5,-101.5 599.5,-80.5 192.5,-80.5"/>
<text text-anchor="middle" x="396" y="-88.5" font-family="Helvetica,sans-Serif" font-size="10.00">StreamableFactory&lt; ChatSystemFactory, ChatSystem &gt;::checkStreamsResultsChanged</text>
</a>
</g>
<!-- Node1&#45;&gt;Node4 -->
<g id="edge6" class="edge"><title>Node1&#45;&gt;Node4</title>
<path fill="none" stroke="midnightblue" d="M165.943,-91C174.409,-91 183.215,-91 192.229,-91"/>
<polygon fill="midnightblue" stroke="midnightblue" points="165.792,-87.5001 155.792,-91 165.792,-94.5001 165.792,-87.5001"/>
</g>
<!-- Node5 -->
<g id="node9" class="node"><title>Node5</title>
<a xlink:href="class_streamable_factory.html#ac5a1d3863a3962d7067fe0bb880e5cfc" target="_top" xlink:title="StreamableFactory\&lt; ChatSystemFactory, ChatSystem \&gt;::checkStreamsRemoteOK">
<polygon fill="white" stroke="black" points="204.5,-40.5 204.5,-61.5 587.5,-61.5 587.5,-40.5 204.5,-40.5"/>
<text text-anchor="middle" x="396" y="-48.5" font-family="Helvetica,sans-Serif" font-size="10.00">StreamableFactory&lt; ChatSystemFactory, ChatSystem &gt;::checkStreamsRemoteOK</text>
</a>
</g>
<!-- Node1&#45;&gt;Node5 -->
<g id="edge8" class="edge"><title>Node1&#45;&gt;Node5</title>
<path fill="none" stroke="midnightblue" d="M143.233,-78.6775C159.151,-75.9136 176.158,-73.163 192,-71 218.18,-67.4254 246.335,-64.2419 273.116,-61.5234"/>
<polygon fill="midnightblue" stroke="midnightblue" points="142.193,-75.3067 132.953,-80.4897 143.409,-82.2004 142.193,-75.3067"/>
</g>
<!-- Node6 -->
<g id="node11" class="node"><title>Node6</title>
<a xlink:href="class_streamable_factory.html#a943ef96883db21c42ca0b02c8aaeb39f" target="_top" xlink:title="StreamableFactory\&lt; ChatSystemFactory, ChatSystem \&gt;::addStreamRegistrationResults">
<polygon fill="white" stroke="black" points="193.5,-0.5 193.5,-21.5 598.5,-21.5 598.5,-0.5 193.5,-0.5"/>
<text text-anchor="middle" x="396" y="-8.5" font-family="Helvetica,sans-Serif" font-size="10.00">StreamableFactory&lt; ChatSystemFactory, ChatSystem &gt;::addStreamRegistrationResults</text>
</a>
</g>
<!-- Node1&#45;&gt;Node6 -->
<g id="edge10" class="edge"><title>Node1&#45;&gt;Node6</title>
<path fill="none" stroke="midnightblue" d="M101.86,-74.9119C124.145,-60.7662 158.859,-40.9295 192,-31 204.698,-27.1954 218.02,-24.0746 231.516,-21.5191"/>
<polygon fill="midnightblue" stroke="midnightblue" points="99.8853,-72.0209 93.3934,-80.3938 103.69,-77.8968 99.8853,-72.0209"/>
</g>
</g>
</svg>
        <g id="navigator" transform="translate(0 0)" fill="#404254">
                <rect fill="#f2f5e9" fill-opacity="0.5" stroke="#606060" stroke-width=".5" x="0" y="0" width="60" height="60"/>
                <use id="zoomplus" xlink:href="#zoomPlus" x="17" y="9" onmousedown="handleZoom(evt,'in')"/>
                <use id="zoomminus" xlink:href="#zoomMin" x="42" y="9" onmousedown="handleZoom(evt,'out')"/>
                <use id="reset" xlink:href="#resetDef" x="30" y="36" onmousedown="handleReset()"/>
                <g id="arrowUp" xlink:href="#dirArrow" transform="translate(30 24)" onmousedown="handlePan(0,-1)">
                  <use xlink:href="#rim" fill="#404040">
                        <set attributeName="fill" to="#808080" begin="arrowUp.mouseover" end="arrowUp.mouseout"/>
                  </use>
                  <path fill="none" stroke="white" stroke-width="1.5" d="M0,-3.0v7 M-2.5,-0.5L0,-3.0L2.5,-0.5"/>
                </g>
                <g id="arrowRight" xlink:href="#dirArrow" transform="rotate(90) translate(36 -43)" onmousedown="handlePan(1,0)">
                  <use xlink:href="#rim" fill="#404040">
                        <set attributeName="fill" to="#808080" begin="arrowRight.mouseover" end="arrowRight.mouseout"/>
                  </use>
                  <path fill="none" stroke="white" stroke-width="1.5" d="M0,-3.0v7 M-2.5,-0.5L0,-3.0L2.5,-0.5"/>
                </g>
                <g id="arrowDown" xlink:href="#dirArrow" transform="rotate(180) translate(-30 -48)" onmousedown="handlePan(0,1)">
                  <use xlink:href="#rim" fill="#404040">
                        <set attributeName="fill" to="#808080" begin="arrowDown.mouseover" end="arrowDown.mouseout"/>
                  </use>
                  <path fill="none" stroke="white" stroke-width="1.5" d="M0,-3.0v7 M-2.5,-0.5L0,-3.0L2.5,-0.5"/>
                </g>
                <g id="arrowLeft" xlink:href="#dirArrow" transform="rotate(270) translate(-36 17)" onmousedown="handlePan(-1,0)">
                  <use xlink:href="#rim" fill="#404040">
                        <set attributeName="fill" to="#808080" begin="arrowLeft.mouseover" end="arrowLeft.mouseout"/>
                  </use>
                  <path fill="none" stroke="white" stroke-width="1.5" d="M0,-3.0v7 M-2.5,-0.5L0,-3.0L2.5,-0.5"/>
                </g>
        </g>
</svg>
