<?xml version="1.0" encoding="UTF-8" standalone="no"?>
<!DOCTYPE svg PUBLIC "-//W3C//DTD SVG 1.1//EN"
 "http://www.w3.org/Graphics/SVG/1.1/DTD/svg11.dtd">
<!-- Generated by graphviz version 2.26.3 (20100126.1600)
 -->
<!-- Title: RoR::RigEditor::IMain::CommandQuitRigEditor Pages: 1 -->
<svg width="498pt" height="42pt"
 viewBox="0.00 0.00 498.00 42.00" xmlns="http://www.w3.org/2000/svg" xmlns:xlink="http://www.w3.org/1999/xlink">
<g id="graph1" class="graph" transform="scale(1 1) rotate(0) translate(4 38)">
<title>RoR::RigEditor::IMain::CommandQuitRigEditor</title>
<polygon fill="white" stroke="white" points="-4,5 -4,-38 495,-38 495,5 -4,5"/>
<!-- Node1 -->
<g id="node1" class="node"><title>Node1</title>
<polygon fill="#bfbfbf" stroke="black" points="0,-0 0,-34 126,-34 126,-0 0,-0"/>
<text text-anchor="start" x="8" y="-21" font-family="Helvetica,sans-Serif" font-size="10.00">RoR::RigEditor::IMain</text>
<text text-anchor="middle" x="63" y="-8" font-family="Helvetica,sans-Serif" font-size="10.00">::CommandQuitRigEditor</text>
</g>
<!-- Node2 -->
<g id="node3" class="node"><title>Node2</title>
<a xlink:href="class_ro_r_1_1_g_u_i_1_1_rig_editor_menubar.html#ab1ea2f2f8550d6639bc189594c772a03" target="_top" xlink:title="RoR::GUI::RigEditorMenubar\l::QuitEditorItemClicked">
<polygon fill="white" stroke="black" points="162.5,-0 162.5,-34 307.5,-34 307.5,-0 162.5,-0"/>
<text text-anchor="start" x="170.5" y="-21" font-family="Helvetica,sans-Serif" font-size="10.00">RoR::GUI::RigEditorMenubar</text>
<text text-anchor="middle" x="235" y="-8" font-family="Helvetica,sans-Serif" font-size="10.00">::QuitEditorItemClicked</text>
</a>
</g>
<!-- Node1&#45;&gt;Node2 -->
<g id="edge2" class="edge"><title>Node1&#45;&gt;Node2</title>
<path fill="none" stroke="midnightblue" d="M136.145,-17C144.817,-17 153.666,-17 162.331,-17"/>
<polygon fill="midnightblue" stroke="midnightblue" points="136.07,-13.5001 126.07,-17 136.07,-20.5001 136.07,-13.5001"/>
</g>
<!-- Node3 -->
<g id="node5" class="node"><title>Node3</title>
<a xlink:href="class_ro_r_1_1_g_u_i_1_1_rig_editor_menubar.html#a07762652bf39c1fc92d23fc6fbb3f2d4" target="_top" xlink:title="RoR::GUI::RigEditorMenubar\l::RigEditorMenubar">
<polygon fill="white" stroke="black" points="344.5,-0 344.5,-34 489.5,-34 489.5,-0 344.5,-0"/>
<text text-anchor="start" x="352.5" y="-21" font-family="Helvetica,sans-Serif" font-size="10.00">RoR::GUI::RigEditorMenubar</text>
<text text-anchor="middle" x="417" y="-8" font-family="Helvetica,sans-Serif" font-size="10.00">::RigEditorMenubar</text>
</a>
</g>
<!-- Node2&#45;&gt;Node3 -->
<g id="edge4" class="edge"><title>Node2&#45;&gt;Node3</title>
<path fill="none" stroke="midnightblue" d="M317.994,-17C326.806,-17 335.72,-17 344.4,-17"/>
<polygon fill="midnightblue" stroke="midnightblue" points="317.716,-13.5001 307.716,-17 317.716,-20.5001 317.716,-13.5001"/>
</g>
</g>
</svg>
