<?xml version="1.0" encoding="UTF-8" standalone="no"?>
<!DOCTYPE svg PUBLIC "-//W3C//DTD SVG 1.1//EN"
 "http://www.w3.org/Graphics/SVG/1.1/DTD/svg11.dtd">
<!-- Generated by graphviz version 2.26.3 (20100126.1600)
 -->
<!-- Title: RoR::RigEditor::Rig::RefreshBeamsDynamicMesh Pages: 1 -->
<svg width="312pt" height="198pt"
 viewBox="0.00 0.00 312.00 198.00" xmlns="http://www.w3.org/2000/svg" xmlns:xlink="http://www.w3.org/1999/xlink">
<g id="graph1" class="graph" transform="scale(1 1) rotate(0) translate(4 194)">
<title>RoR::RigEditor::Rig::RefreshBeamsDynamicMesh</title>
<polygon fill="white" stroke="white" points="-4,5 -4,-194 309,-194 309,5 -4,5"/>
<!-- Node1 -->
<g id="node1" class="node"><title>Node1</title>
<polygon fill="#bfbfbf" stroke="black" points="0.5,-78 0.5,-112 151.5,-112 151.5,-78 0.5,-78"/>
<text text-anchor="start" x="8.5" y="-99" font-family="Helvetica,sans-Serif" font-size="10.00">RoR::RigEditor::Rig</text>
<text text-anchor="middle" x="76" y="-86" font-family="Helvetica,sans-Serif" font-size="10.00">::RefreshBeamsDynamicMesh</text>
</g>
<!-- Node2 -->
<g id="node3" class="node"><title>Node2</title>
<a xlink:href="class_ro_r_1_1_rig_editor_1_1_beam.html#a961667e55f0d41fdacab764270939969" target="_top" xlink:title="RoR::RigEditor::Beam\l::GetNodeA">
<polygon fill="white" stroke="black" points="188.5,-156 188.5,-190 303.5,-190 303.5,-156 188.5,-156"/>
<text text-anchor="start" x="196.5" y="-177" font-family="Helvetica,sans-Serif" font-size="10.00">RoR::RigEditor::Beam</text>
<text text-anchor="middle" x="246" y="-164" font-family="Helvetica,sans-Serif" font-size="10.00">::GetNodeA</text>
</a>
</g>
<!-- Node1&#45;&gt;Node2 -->
<g id="edge2" class="edge"><title>Node1&#45;&gt;Node2</title>
<path fill="none" stroke="midnightblue" d="M112.514,-112.101C134.378,-122.305 162.743,-135.476 188,-147 191.36,-148.533 194.833,-150.11 198.332,-151.692"/>
<polygon fill="midnightblue" stroke="midnightblue" points="197.039,-154.949 207.593,-155.869 199.917,-148.567 197.039,-154.949"/>
</g>
<!-- Node3 -->
<g id="node5" class="node"><title>Node3</title>
<a xlink:href="class_ro_r_1_1_rig_editor_1_1_node.html#aefebb9cd1a67bbb2afc980b0f8baab12" target="_top" xlink:title="RoR::RigEditor::Node\l::GetPosition">
<polygon fill="white" stroke="black" points="189.5,-104 189.5,-138 302.5,-138 302.5,-104 189.5,-104"/>
<text text-anchor="start" x="197.5" y="-125" font-family="Helvetica,sans-Serif" font-size="10.00">RoR::RigEditor::Node</text>
<text text-anchor="middle" x="246" y="-112" font-family="Helvetica,sans-Serif" font-size="10.00">::GetPosition</text>
</a>
</g>
<!-- Node1&#45;&gt;Node3 -->
<g id="edge4" class="edge"><title>Node1&#45;&gt;Node3</title>
<path fill="none" stroke="midnightblue" d="M151.554,-106.555C160.768,-107.965 170.131,-109.397 179.204,-110.784"/>
<polygon fill="midnightblue" stroke="midnightblue" points="178.887,-114.276 189.301,-112.328 179.945,-107.357 178.887,-114.276"/>
</g>
<!-- Node4 -->
<g id="node7" class="node"><title>Node4</title>
<a xlink:href="class_ro_r_1_1_rig_editor_1_1_beam.html#ad280482e0eea91ada6435db2046e4c13" target="_top" xlink:title="RoR::RigEditor::Beam\l::GetColor">
<polygon fill="white" stroke="black" points="188.5,-52 188.5,-86 303.5,-86 303.5,-52 188.5,-52"/>
<text text-anchor="start" x="196.5" y="-73" font-family="Helvetica,sans-Serif" font-size="10.00">RoR::RigEditor::Beam</text>
<text text-anchor="middle" x="246" y="-60" font-family="Helvetica,sans-Serif" font-size="10.00">::GetColor</text>
</a>
</g>
<!-- Node1&#45;&gt;Node4 -->
<g id="edge6" class="edge"><title>Node1&#45;&gt;Node4</title>
<path fill="none" stroke="midnightblue" d="M151.554,-83.4446C160.414,-82.0896 169.412,-80.7135 178.157,-79.376"/>
<polygon fill="midnightblue" stroke="midnightblue" points="178.928,-82.7989 188.284,-77.8272 177.869,-75.8794 178.928,-82.7989"/>
</g>
<!-- Node5 -->
<g id="node9" class="node"><title>Node5</title>
<a xlink:href="class_ro_r_1_1_rig_editor_1_1_beam.html#a9e107c4bb884aeed653419a8fa5f21ba" target="_top" xlink:title="RoR::RigEditor::Beam\l::GetNodeB">
<polygon fill="white" stroke="black" points="188.5,-0 188.5,-34 303.5,-34 303.5,-0 188.5,-0"/>
<text text-anchor="start" x="196.5" y="-21" font-family="Helvetica,sans-Serif" font-size="10.00">RoR::RigEditor::Beam</text>
<text text-anchor="middle" x="246" y="-8" font-family="Helvetica,sans-Serif" font-size="10.00">::GetNodeB</text>
</a>
</g>
<!-- Node1&#45;&gt;Node5 -->
<g id="edge8" class="edge"><title>Node1&#45;&gt;Node5</title>
<path fill="none" stroke="midnightblue" d="M112.514,-77.8985C134.378,-67.6953 162.743,-54.5239 188,-43 191.36,-41.467 194.833,-39.8904 198.332,-38.3078"/>
<polygon fill="midnightblue" stroke="midnightblue" points="199.917,-41.4325 207.593,-34.1307 197.039,-35.0515 199.917,-41.4325"/>
</g>
</g>
</svg>
