<?xml version="1.0" encoding="UTF-8" standalone="no"?>
<!DOCTYPE svg PUBLIC "-//W3C//DTD SVG 1.1//EN"
 "http://www.w3.org/Graphics/SVG/1.1/DTD/svg11.dtd">
<!-- Generated by graphviz version 2.26.3 (20100126.1600)
 -->
<!-- Title: RoR::GUI::RigEditorCommands2Panel::CallbackClick_NeedsEngineChekckbox Pages: 1 -->
<svg width="384pt" height="56pt"
 viewBox="0.00 0.00 384.00 56.00" xmlns="http://www.w3.org/2000/svg" xmlns:xlink="http://www.w3.org/1999/xlink">
<g id="graph1" class="graph" transform="scale(1 1) rotate(0) translate(4 52)">
<title>RoR::GUI::RigEditorCommands2Panel::CallbackClick_NeedsEngineChekckbox</title>
<polygon fill="white" stroke="white" points="-4,5 -4,-52 381,-52 381,5 -4,5"/>
<!-- Node1 -->
<g id="node1" class="node"><title>Node1</title>
<polygon fill="#bfbfbf" stroke="black" points="0,-0.5 0,-47.5 172,-47.5 172,-0.5 0,-0.5"/>
<text text-anchor="start" x="8" y="-34.5" font-family="Helvetica,sans-Serif" font-size="10.00">RoR::GUI::RigEditorCommands2</text>
<text text-anchor="start" x="8" y="-21.5" font-family="Helvetica,sans-Serif" font-size="10.00">Panel::CallbackClick_NeedsEngine</text>
<text text-anchor="middle" x="86" y="-8.5" font-family="Helvetica,sans-Serif" font-size="10.00">Chekckbox</text>
</g>
<!-- Node2 -->
<g id="node3" class="node"><title>Node2</title>
<a xlink:href="class_ro_r_1_1_g_u_i_1_1_rig_editor_commands2_panel.html#afe151f6ba919eeba7c10fce59776e336" target="_top" xlink:title="RoR::GUI::RigEditorCommands2\lPanel::RigEditorCommands2Panel">
<polygon fill="white" stroke="black" points="208,-7 208,-41 376,-41 376,-7 208,-7"/>
<text text-anchor="start" x="216" y="-28" font-family="Helvetica,sans-Serif" font-size="10.00">RoR::GUI::RigEditorCommands2</text>
<text text-anchor="middle" x="292" y="-15" font-family="Helvetica,sans-Serif" font-size="10.00">Panel::RigEditorCommands2Panel</text>
</a>
</g>
<!-- Node1&#45;&gt;Node2 -->
<g id="edge2" class="edge"><title>Node1&#45;&gt;Node2</title>
<path fill="none" stroke="midnightblue" d="M182.18,-24C190.745,-24 199.373,-24 207.827,-24"/>
<polygon fill="midnightblue" stroke="midnightblue" points="182.169,-20.5001 172.169,-24 182.169,-27.5001 182.169,-20.5001"/>
</g>
</g>
</svg>
