<?xml version="1.0" encoding="UTF-8" standalone="no"?>
<!DOCTYPE svg PUBLIC "-//W3C//DTD SVG 1.1//EN"
 "http://www.w3.org/Graphics/SVG/1.1/DTD/svg11.dtd">
<!-- Generated by graphviz version 2.26.3 (20100126.1600)
 -->
<!-- Title: RoR::RigEditor::RigBuildingReport::SetCurrentModuleName Pages: 1 -->
<!--zoomable 120 -->
<svg id="main" version="1.1" xmlns="http://www.w3.org/2000/svg" xmlns:xlink="http://www.w3.org/1999/xlink" xml:space="preserve" onload="init(evt)">
<style type="text/css"><![CDATA[
.edge:hover path { stroke: red; }
.edge:hover polygon { stroke: red; fill: red; }
]]></style>
<script type="text/javascript"><![CDATA[
var edges = document.getElementsByTagName('g');
if (edges && edges.length) {
  for (var i=0;i<edges.length;i++) {
    if (edges[i].id.substr(0,4)=='edge') {
      edges[i].setAttribute('class','edge');
    }
  }
}
]]></script>
        <defs>
                <circle id="rim" cx="0" cy="0" r="7"/>
                <circle id="rim2" cx="0" cy="0" r="3.5"/>
                <g id="zoomPlus">
                        <use xlink:href="#rim" fill="#404040">
                                <set attributeName="fill" to="#808080" begin="zoomplus.mouseover" end="zoomplus.mouseout"/>
                        </use>
                        <path d="M-4,0h8M0,-4v8" fill="none" stroke="white" stroke-width="1.5" pointer-events="none"/>
                </g>
                <g id="zoomMin">
                        <use xlink:href="#rim" fill="#404040">
                                <set attributeName="fill" to="#808080" begin="zoomminus.mouseover" end="zoomminus.mouseout"/>
                        </use>
                        <path d="M-4,0h8" fill="none" stroke="white" stroke-width="1.5" pointer-events="none"/>
                </g>
                <g id="dirArrow">
                        <path fill="none" stroke="white" stroke-width="1.5" d="M0,-3.0v7 M-2.5,-0.5L0,-3.0L2.5,-0.5"/>
                </g>
               <g id="resetDef">
                       <use xlink:href="#rim2" fill="#404040">
                               <set attributeName="fill" to="#808080" begin="reset.mouseover" end="reset.mouseout"/>
                       </use>
               </g>
        </defs>

<script type="text/javascript">
var viewWidth = 890;
var viewHeight = 120;
var sectionId = 'dynsection-2';
</script>
<script xlink:href="svgpan.js"/>
<svg id="graph" class="graph">
<g id="viewport">
<title>RoR::RigEditor::RigBuildingReport::SetCurrentModuleName</title>
<polygon fill="white" stroke="white" points="-4,5 -4,-116 887,-116 887,5 -4,5"/>
<!-- Node1 -->
<g id="node1" class="node"><title>Node1</title>
<polygon fill="#bfbfbf" stroke="black" points="0.5,-26 0.5,-60 157.5,-60 157.5,-26 0.5,-26"/>
<text text-anchor="start" x="8.5" y="-47" font-family="Helvetica,sans-Serif" font-size="10.00">RoR::RigEditor::RigBuilding</text>
<text text-anchor="middle" x="79" y="-34" font-family="Helvetica,sans-Serif" font-size="10.00">Report::SetCurrentModuleName</text>
</g>
<!-- Node2 -->
<g id="node3" class="node"><title>Node2</title>
<a xlink:href="class_ro_r_1_1_rig_editor_1_1_rig.html#a313a85e2e173bd3d0ea38e5135f68e1b" target="_top" xlink:title="RoR::RigEditor::Rig\l::Build">
<polygon fill="white" stroke="black" points="194,-26 194,-60 298,-60 298,-26 194,-26"/>
<text text-anchor="start" x="202" y="-47" font-family="Helvetica,sans-Serif" font-size="10.00">RoR::RigEditor::Rig</text>
<text text-anchor="middle" x="246" y="-34" font-family="Helvetica,sans-Serif" font-size="10.00">::Build</text>
</a>
</g>
<!-- Node1&#45;&gt;Node2 -->
<g id="edge2" class="edge"><title>Node1&#45;&gt;Node2</title>
<path fill="none" stroke="midnightblue" d="M167.613,-43C176.463,-43 185.236,-43 193.533,-43"/>
<polygon fill="midnightblue" stroke="midnightblue" points="167.61,-39.5001 157.61,-43 167.61,-46.5001 167.61,-39.5001"/>
</g>
<!-- Node3 -->
<g id="node5" class="node"><title>Node3</title>
<a xlink:href="class_ro_r_1_1_rig_editor_1_1_main.html#a0ae39993d636eacc5dfe567c5f5ac4b9" target="_top" xlink:title="RoR::RigEditor::Main\l::LoadRigDefFile">
<polygon fill="white" stroke="black" points="360,-52 360,-86 470,-86 470,-52 360,-52"/>
<text text-anchor="start" x="368" y="-73" font-family="Helvetica,sans-Serif" font-size="10.00">RoR::RigEditor::Main</text>
<text text-anchor="middle" x="415" y="-60" font-family="Helvetica,sans-Serif" font-size="10.00">::LoadRigDefFile</text>
</a>
</g>
<!-- Node2&#45;&gt;Node3 -->
<g id="edge4" class="edge"><title>Node2&#45;&gt;Node3</title>
<path fill="none" stroke="midnightblue" d="M308.402,-52.6004C325.279,-55.1967 343.42,-57.9877 359.866,-60.5178"/>
<polygon fill="midnightblue" stroke="midnightblue" points="308.501,-49.0744 298.085,-51.013 307.436,-55.993 308.501,-49.0744"/>
</g>
<!-- Node7 -->
<g id="node13" class="node"><title>Node7</title>
<a xlink:href="class_ro_r_1_1_rig_editor_1_1_main.html#ad136bb804b1accbfed00705895f86362" target="_top" xlink:title="RoR::RigEditor::Main\l::CommandCreateNewEmptyRig">
<polygon fill="white" stroke="black" points="334.5,-0 334.5,-34 495.5,-34 495.5,-0 334.5,-0"/>
<text text-anchor="start" x="342.5" y="-21" font-family="Helvetica,sans-Serif" font-size="10.00">RoR::RigEditor::Main</text>
<text text-anchor="middle" x="415" y="-8" font-family="Helvetica,sans-Serif" font-size="10.00">::CommandCreateNewEmptyRig</text>
</a>
</g>
<!-- Node2&#45;&gt;Node7 -->
<g id="edge12" class="edge"><title>Node2&#45;&gt;Node7</title>
<path fill="none" stroke="midnightblue" d="M308.024,-33.4578C316.643,-32.1318 325.599,-30.754 334.495,-29.3853"/>
<polygon fill="midnightblue" stroke="midnightblue" points="307.436,-30.007 298.085,-34.987 308.501,-36.9256 307.436,-30.007"/>
</g>
<!-- Node4 -->
<g id="node7" class="node"><title>Node4</title>
<a xlink:href="class_ro_r_1_1_rig_editor_1_1_main.html#a35a10d6c23920802442d32fab1a8d470" target="_top" xlink:title="RoR::RigEditor::Main\l::NotifyFileSelectorEnded">
<polygon fill="white" stroke="black" points="532,-52 532,-86 660,-86 660,-52 532,-52"/>
<text text-anchor="start" x="540" y="-73" font-family="Helvetica,sans-Serif" font-size="10.00">RoR::RigEditor::Main</text>
<text text-anchor="middle" x="596" y="-60" font-family="Helvetica,sans-Serif" font-size="10.00">::NotifyFileSelectorEnded</text>
</a>
</g>
<!-- Node3&#45;&gt;Node4 -->
<g id="edge6" class="edge"><title>Node3&#45;&gt;Node4</title>
<path fill="none" stroke="midnightblue" d="M480.519,-69C497.24,-69 515.196,-69 531.848,-69"/>
<polygon fill="midnightblue" stroke="midnightblue" points="480.289,-65.5001 470.289,-69 480.289,-72.5001 480.289,-65.5001"/>
</g>
<!-- Node5 -->
<g id="node9" class="node"><title>Node5</title>
<a xlink:href="class_ro_r_1_1_rig_editor_1_1_main.html#a4f73e9dc5632524ca803864460b82bb5" target="_top" xlink:title="RoR::RigEditor::Main\l::CommandShowDialogOpenRigFile">
<polygon fill="white" stroke="black" points="702,-78 702,-112 876,-112 876,-78 702,-78"/>
<text text-anchor="start" x="710" y="-99" font-family="Helvetica,sans-Serif" font-size="10.00">RoR::RigEditor::Main</text>
<text text-anchor="middle" x="789" y="-86" font-family="Helvetica,sans-Serif" font-size="10.00">::CommandShowDialogOpenRigFile</text>
</a>
</g>
<!-- Node4&#45;&gt;Node5 -->
<g id="edge8" class="edge"><title>Node4&#45;&gt;Node5</title>
<path fill="none" stroke="midnightblue" d="M670.456,-79.0303C680.783,-80.4216 691.466,-81.8607 701.997,-83.2794"/>
<polygon fill="midnightblue" stroke="midnightblue" points="670.644,-75.5241 660.266,-77.6576 669.709,-82.4615 670.644,-75.5241"/>
</g>
<!-- Node6 -->
<g id="node11" class="node"><title>Node6</title>
<a xlink:href="class_ro_r_1_1_rig_editor_1_1_main.html#acb4af1361d9233f5ee2fa658536a7658" target="_top" xlink:title="RoR::RigEditor::Main\l::CommandShowDialogSaveRigFileAs">
<polygon fill="white" stroke="black" points="696.5,-26 696.5,-60 881.5,-60 881.5,-26 696.5,-26"/>
<text text-anchor="start" x="704.5" y="-47" font-family="Helvetica,sans-Serif" font-size="10.00">RoR::RigEditor::Main</text>
<text text-anchor="middle" x="789" y="-34" font-family="Helvetica,sans-Serif" font-size="10.00">::CommandShowDialogSaveRigFileAs</text>
</a>
</g>
<!-- Node4&#45;&gt;Node6 -->
<g id="edge10" class="edge"><title>Node4&#45;&gt;Node6</title>
<path fill="none" stroke="midnightblue" d="M670.223,-59.001C678.818,-57.8432 687.662,-56.6518 696.461,-55.4663"/>
<polygon fill="midnightblue" stroke="midnightblue" points="669.709,-55.5385 660.266,-60.3424 670.644,-62.4759 669.709,-55.5385"/>
</g>
</g>
</svg>
        <g id="navigator" transform="translate(0 0)" fill="#404254">
                <rect fill="#f2f5e9" fill-opacity="0.5" stroke="#606060" stroke-width=".5" x="0" y="0" width="60" height="60"/>
                <use id="zoomplus" xlink:href="#zoomPlus" x="17" y="9" onmousedown="handleZoom(evt,'in')"/>
                <use id="zoomminus" xlink:href="#zoomMin" x="42" y="9" onmousedown="handleZoom(evt,'out')"/>
                <use id="reset" xlink:href="#resetDef" x="30" y="36" onmousedown="handleReset()"/>
                <g id="arrowUp" xlink:href="#dirArrow" transform="translate(30 24)" onmousedown="handlePan(0,-1)">
                  <use xlink:href="#rim" fill="#404040">
                        <set attributeName="fill" to="#808080" begin="arrowUp.mouseover" end="arrowUp.mouseout"/>
                  </use>
                  <path fill="none" stroke="white" stroke-width="1.5" d="M0,-3.0v7 M-2.5,-0.5L0,-3.0L2.5,-0.5"/>
                </g>
                <g id="arrowRight" xlink:href="#dirArrow" transform="rotate(90) translate(36 -43)" onmousedown="handlePan(1,0)">
                  <use xlink:href="#rim" fill="#404040">
                        <set attributeName="fill" to="#808080" begin="arrowRight.mouseover" end="arrowRight.mouseout"/>
                  </use>
                  <path fill="none" stroke="white" stroke-width="1.5" d="M0,-3.0v7 M-2.5,-0.5L0,-3.0L2.5,-0.5"/>
                </g>
                <g id="arrowDown" xlink:href="#dirArrow" transform="rotate(180) translate(-30 -48)" onmousedown="handlePan(0,1)">
                  <use xlink:href="#rim" fill="#404040">
                        <set attributeName="fill" to="#808080" begin="arrowDown.mouseover" end="arrowDown.mouseout"/>
                  </use>
                  <path fill="none" stroke="white" stroke-width="1.5" d="M0,-3.0v7 M-2.5,-0.5L0,-3.0L2.5,-0.5"/>
                </g>
                <g id="arrowLeft" xlink:href="#dirArrow" transform="rotate(270) translate(-36 17)" onmousedown="handlePan(-1,0)">
                  <use xlink:href="#rim" fill="#404040">
                        <set attributeName="fill" to="#808080" begin="arrowLeft.mouseover" end="arrowLeft.mouseout"/>
                  </use>
                  <path fill="none" stroke="white" stroke-width="1.5" d="M0,-3.0v7 M-2.5,-0.5L0,-3.0L2.5,-0.5"/>
                </g>
        </g>
        <svg viewBox="0 0 15 15" width="100%" height="30px" preserveAspectRatio="xMaxYMin meet">
         <g id="arrow_out" transform="scale(0.3 0.3)">
          <a xlink:href="class_ro_r_1_1_rig_editor_1_1_rig_building_report_aba8d9410064dbf5e0a4df736a36e5be8_icgraph_org.svg" target="_base">
           <rect id="button" ry="5" rx="5" y="6" x="6" height="38" width="38"
                fill="#f2f5e9" fill-opacity="0.5" stroke="#606060" stroke-width="1.0"/>
           <path id="arrow"
             d="M 11.500037,31.436501 C 11.940474,20.09759 22.043105,11.32322 32.158766,21.979434 L 37.068811,17.246167 C 37.068811,17.246167 37.088388,32 37.088388,32 L 22.160133,31.978069 C 22.160133,31.978069 26.997745,27.140456 26.997745,27.140456 C 18.528582,18.264221 13.291696,25.230495 11.500037,31.436501 z"
             style="fill:#404040;"/>
          </a>
         </g>
        </svg>
</svg>
