<?xml version="1.0" encoding="UTF-8" standalone="no"?>
<!DOCTYPE svg PUBLIC "-//W3C//DTD SVG 1.1//EN"
 "http://www.w3.org/Graphics/SVG/1.1/DTD/svg11.dtd">
<!-- Generated by graphviz version 2.26.3 (20100126.1600)
 -->
<!-- Title: RoR::GUI::RigSpawnerReportWindow Pages: 1 -->
<svg width="430pt" height="190pt"
 viewBox="0.00 0.00 430.00 190.00" xmlns="http://www.w3.org/2000/svg" xmlns:xlink="http://www.w3.org/1999/xlink">
<g id="graph1" class="graph" transform="scale(1 1) rotate(0) translate(4 186)">
<title>RoR::GUI::RigSpawnerReportWindow</title>
<polygon fill="white" stroke="white" points="-4,5 -4,-186 427,-186 427,5 -4,5"/>
<!-- Node1 -->
<g id="node1" class="node"><title>Node1</title>
<polygon fill="#bfbfbf" stroke="black" points="143.5,-1 143.5,-35 292.5,-35 292.5,-1 143.5,-1"/>
<text text-anchor="start" x="151.5" y="-22" font-family="Helvetica,sans-Serif" font-size="10.00">RoR::GUI::RigSpawnerReport</text>
<text text-anchor="middle" x="218" y="-9" font-family="Helvetica,sans-Serif" font-size="10.00">Window</text>
</g>
<!-- Node2 -->
<g id="node2" class="node"><title>Node2</title>
<a xlink:href="class_ro_r_1_1_g_u_i_1_1_rig_spawner_report_window_layout.html" target="_top" xlink:title="RoR::GUI::RigSpawnerReport\lWindowLayout">
<polygon fill="white" stroke="black" points="-0.5,-87 -0.5,-121 148.5,-121 148.5,-87 -0.5,-87"/>
<text text-anchor="start" x="7.5" y="-108" font-family="Helvetica,sans-Serif" font-size="10.00">RoR::GUI::RigSpawnerReport</text>
<text text-anchor="middle" x="74" y="-95" font-family="Helvetica,sans-Serif" font-size="10.00">WindowLayout</text>
</a>
</g>
<!-- Node2&#45;&gt;Node1 -->
<g id="edge2" class="edge"><title>Node2&#45;&gt;Node1</title>
<path fill="none" stroke="midnightblue" d="M111.406,-81.6605C135.705,-67.1484 166.9,-48.5179 189.255,-35.1669"/>
<polygon fill="midnightblue" stroke="midnightblue" points="109.585,-78.6709 102.794,-86.8033 113.175,-84.6808 109.585,-78.6709"/>
</g>
<!-- Node3 -->
<g id="node4" class="node"><title>Node3</title>
<a xlink:href="classwraps_1_1_base_layout.html" target="_top" xlink:title="wraps::BaseLayout">
<polygon fill="white" stroke="black" points="23.5,-160.5 23.5,-181.5 124.5,-181.5 124.5,-160.5 23.5,-160.5"/>
<text text-anchor="middle" x="74" y="-168.5" font-family="Helvetica,sans-Serif" font-size="10.00">wraps::BaseLayout</text>
</a>
</g>
<!-- Node3&#45;&gt;Node2 -->
<g id="edge4" class="edge"><title>Node3&#45;&gt;Node2</title>
<path fill="none" stroke="midnightblue" d="M74,-150.165C74,-140.797 74,-129.88 74,-121.014"/>
<polygon fill="midnightblue" stroke="midnightblue" points="70.5001,-150.235 74,-160.235 77.5001,-150.235 70.5001,-150.235"/>
</g>
<!-- Node4 -->
<g id="node6" class="node"><title>Node4</title>
<a xlink:href="class_ro_r_1_1_gui_panel_base.html" target="_top" xlink:title="RoR::GuiPanelBase">
<polygon fill="white" stroke="black" points="165.5,-93.5 165.5,-114.5 270.5,-114.5 270.5,-93.5 165.5,-93.5"/>
<text text-anchor="middle" x="218" y="-101.5" font-family="Helvetica,sans-Serif" font-size="10.00">RoR::GuiPanelBase</text>
</a>
</g>
<!-- Node4&#45;&gt;Node1 -->
<g id="edge6" class="edge"><title>Node4&#45;&gt;Node1</title>
<path fill="none" stroke="midnightblue" d="M218,-83.3098C218,-68.5851 218,-49.0331 218,-35.1709"/>
<polygon fill="midnightblue" stroke="midnightblue" points="214.5,-83.4547 218,-93.4547 221.5,-83.4547 214.5,-83.4547"/>
</g>
<!-- Node5 -->
<g id="node8" class="node"><title>Node5</title>
<a xlink:href="class_ro_r_1_1_gui_manager_interface.html" target="_top" xlink:title="RoR::GuiManagerInterface">
<polygon fill="white" stroke="black" points="288,-93.5 288,-114.5 422,-114.5 422,-93.5 288,-93.5"/>
<text text-anchor="middle" x="355" y="-101.5" font-family="Helvetica,sans-Serif" font-size="10.00">RoR::GuiManagerInterface</text>
</a>
</g>
<!-- Node5&#45;&gt;Node1 -->
<g id="edge8" class="edge"><title>Node5&#45;&gt;Node1</title>
<path fill="none" stroke="#9a32cd" stroke-dasharray="5,2" d="M329.628,-88.0733C305.61,-72.9962 269.667,-50.4335 245.097,-35.0101"/>
<polygon fill="#9a32cd" stroke="#9a32cd" points="327.871,-91.1024 338.201,-93.4547 331.592,-85.1737 327.871,-91.1024"/>
<text text-anchor="middle" x="352.5" y="-58.5" font-family="Helvetica,sans-Serif" font-size="10.00"> m_gui_manager_interface</text>
</g>
</g>
</svg>
