<?xml version="1.0" encoding="UTF-8" standalone="no"?>
<!DOCTYPE svg PUBLIC "-//W3C//DTD SVG 1.1//EN"
 "http://www.w3.org/Graphics/SVG/1.1/DTD/svg11.dtd">
<!-- Generated by graphviz version 2.26.3 (20100126.1600)
 -->
<!-- Title: Streamable::addPacket Pages: 1 -->
<svg width="320pt" height="94pt"
 viewBox="0.00 0.00 320.00 94.00" xmlns="http://www.w3.org/2000/svg" xmlns:xlink="http://www.w3.org/1999/xlink">
<g id="graph1" class="graph" transform="scale(1 1) rotate(0) translate(4 90)">
<title>Streamable::addPacket</title>
<polygon fill="white" stroke="white" points="-4,5 -4,-90 317,-90 317,5 -4,5"/>
<!-- Node1 -->
<g id="node1" class="node"><title>Node1</title>
<polygon fill="#bfbfbf" stroke="black" points="0.5,-32.5 0.5,-53.5 119.5,-53.5 119.5,-32.5 0.5,-32.5"/>
<text text-anchor="middle" x="60" y="-40.5" font-family="Helvetica,sans-Serif" font-size="10.00">Streamable::addPacket</text>
</g>
<!-- Node2 -->
<g id="node3" class="node"><title>Node2</title>
<a xlink:href="class_ro_r_singleton.html#a18a797fc35bd8cfa8a2affdd197cbfee" target="_top" xlink:title="RoRSingleton\&lt; NetworkStream\lManager \&gt;::getSingleton">
<polygon fill="white" stroke="black" points="156.5,-52 156.5,-86 311.5,-86 311.5,-52 156.5,-52"/>
<text text-anchor="start" x="164.5" y="-73" font-family="Helvetica,sans-Serif" font-size="10.00">RoRSingleton&lt; NetworkStream</text>
<text text-anchor="middle" x="234" y="-60" font-family="Helvetica,sans-Serif" font-size="10.00">Manager &gt;::getSingleton</text>
</a>
</g>
<!-- Node1&#45;&gt;Node2 -->
<g id="edge2" class="edge"><title>Node1&#45;&gt;Node2</title>
<path fill="none" stroke="midnightblue" d="M119.881,-51.9477C128.452,-53.2284 137.413,-54.5675 146.383,-55.9078"/>
<polygon fill="midnightblue" stroke="midnightblue" points="146.086,-59.4022 156.493,-57.4186 147.121,-52.4791 146.086,-59.4022"/>
</g>
<!-- Node3 -->
<g id="node5" class="node"><title>Node3</title>
<a xlink:href="class_network_stream_manager.html#a35a0f97374d09e9269ac1650932a1e07" target="_top" xlink:title="NetworkStreamManager\l::triggerSend">
<polygon fill="white" stroke="black" points="173,-0 173,-34 295,-34 295,-0 173,-0"/>
<text text-anchor="start" x="181" y="-21" font-family="Helvetica,sans-Serif" font-size="10.00">NetworkStreamManager</text>
<text text-anchor="middle" x="234" y="-8" font-family="Helvetica,sans-Serif" font-size="10.00">::triggerSend</text>
</a>
</g>
<!-- Node1&#45;&gt;Node3 -->
<g id="edge4" class="edge"><title>Node1&#45;&gt;Node3</title>
<path fill="none" stroke="midnightblue" d="M119.881,-34.0523C133.645,-31.9956 148.416,-29.7885 162.613,-27.6671"/>
<polygon fill="midnightblue" stroke="midnightblue" points="163.453,-31.0804 172.826,-26.1409 162.419,-24.1573 163.453,-31.0804"/>
</g>
</g>
</svg>
