<?xml version="1.0" encoding="UTF-8" standalone="no"?>
<!DOCTYPE svg PUBLIC "-//W3C//DTD SVG 1.1//EN"
 "http://www.w3.org/Graphics/SVG/1.1/DTD/svg11.dtd">
<!-- Generated by graphviz version 2.26.3 (20100126.1600)
 -->
<!-- Title: BeamFactory::removeAllTrucks Pages: 1 -->
<svg width="1292pt" height="814pt"
 viewBox="0.00 0.00 1292.00 814.00" xmlns="http://www.w3.org/2000/svg" xmlns:xlink="http://www.w3.org/1999/xlink">
<g id="graph1" class="graph" transform="scale(1 1) rotate(0) translate(4 810)">
<title>BeamFactory::removeAllTrucks</title>
<polygon fill="white" stroke="white" points="-4,5 -4,-810 1289,-810 1289,5 -4,5"/>
<!-- Node1 -->
<g id="node1" class="node"><title>Node1</title>
<polygon fill="#bfbfbf" stroke="black" points="0.5,-248.5 0.5,-269.5 155.5,-269.5 155.5,-248.5 0.5,-248.5"/>
<text text-anchor="middle" x="78" y="-256.5" font-family="Helvetica,sans-Serif" font-size="10.00">BeamFactory::removeAllTrucks</text>
</g>
<!-- Node2 -->
<g id="node3" class="node"><title>Node2</title>
<a xlink:href="class_beam_factory.html#a59b66e06ec1f1d1f9adb0d299da15265" target="_top" xlink:title="BeamFactory::p_removeAll\lTrucks">
<polygon fill="white" stroke="black" points="192.5,-242 192.5,-276 327.5,-276 327.5,-242 192.5,-242"/>
<text text-anchor="start" x="200.5" y="-263" font-family="Helvetica,sans-Serif" font-size="10.00">BeamFactory::p_removeAll</text>
<text text-anchor="middle" x="260" y="-250" font-family="Helvetica,sans-Serif" font-size="10.00">Trucks</text>
</a>
</g>
<!-- Node1&#45;&gt;Node2 -->
<g id="edge2" class="edge"><title>Node1&#45;&gt;Node2</title>
<path fill="none" stroke="midnightblue" d="M155.712,-259C164.462,-259 173.379,-259 182.131,-259"/>
<polygon fill="midnightblue" stroke="midnightblue" points="182.309,-262.5 192.309,-259 182.309,-255.5 182.309,-262.5"/>
</g>
<!-- Node3 -->
<g id="node5" class="node"><title>Node3</title>
<a xlink:href="class_beam.html#aad55f7c8f894c1946f21a2ddbd5e950a" target="_top" xlink:title="Beam::StopAllSounds">
<polygon fill="white" stroke="black" points="383.5,-373.5 383.5,-394.5 496.5,-394.5 496.5,-373.5 383.5,-373.5"/>
<text text-anchor="middle" x="440" y="-381.5" font-family="Helvetica,sans-Serif" font-size="10.00">Beam::StopAllSounds</text>
</a>
</g>
<!-- Node2&#45;&gt;Node3 -->
<g id="edge4" class="edge"><title>Node2&#45;&gt;Node3</title>
<path fill="none" stroke="midnightblue" d="M272.364,-276.337C290.012,-299.787 324.674,-341.287 364,-364 367.722,-366.149 371.678,-368.073 375.755,-369.793"/>
<polygon fill="midnightblue" stroke="midnightblue" points="374.842,-373.189 385.434,-373.449 377.316,-366.641 374.842,-373.189"/>
</g>
<!-- Node4 -->
<g id="node7" class="node"><title>Node4</title>
<a xlink:href="class_beam_factory.html#ac70a8aa131a6709ebf05dc3c0f6dab10" target="_top" xlink:title="BeamFactory::setCurrentTruck">
<polygon fill="white" stroke="black" points="364,-333.5 364,-354.5 516,-354.5 516,-333.5 364,-333.5"/>
<text text-anchor="middle" x="440" y="-341.5" font-family="Helvetica,sans-Serif" font-size="10.00">BeamFactory::setCurrentTruck</text>
</a>
</g>
<!-- Node2&#45;&gt;Node4 -->
<g id="edge6" class="edge"><title>Node2&#45;&gt;Node4</title>
<path fill="none" stroke="midnightblue" d="M296.426,-276.201C329.289,-291.72 377.136,-314.314 408.413,-329.084"/>
<polygon fill="midnightblue" stroke="midnightblue" points="407.016,-332.295 417.553,-333.4 410.005,-325.965 407.016,-332.295"/>
</g>
<!-- Node33 -->
<g id="node67" class="node"><title>Node33</title>
<a xlink:href="class_beam_factory.html#a15e7b1c2101d7e6fce4f8a19bf139ed1" target="_top" xlink:title="BeamFactory::removeBeam">
<polygon fill="white" stroke="black" points="370.5,-163.5 370.5,-184.5 509.5,-184.5 509.5,-163.5 370.5,-163.5"/>
<text text-anchor="middle" x="440" y="-171.5" font-family="Helvetica,sans-Serif" font-size="10.00">BeamFactory::removeBeam</text>
</a>
</g>
<!-- Node2&#45;&gt;Node33 -->
<g id="edge68" class="edge"><title>Node2&#45;&gt;Node33</title>
<path fill="none" stroke="midnightblue" d="M296.426,-241.799C329.289,-226.28 377.136,-203.686 408.413,-188.916"/>
<polygon fill="midnightblue" stroke="midnightblue" points="410.005,-192.035 417.553,-184.6 407.016,-185.705 410.005,-192.035"/>
</g>
<!-- Node37 -->
<g id="node76" class="node"><title>Node37</title>
<a xlink:href="class_beam_factory.html#a86a2ef18fac92980cba91aece61dc928" target="_top" xlink:title="BeamFactory::_deleteTruck">
<polygon fill="white" stroke="black" points="553.5,-6.5 553.5,-27.5 690.5,-27.5 690.5,-6.5 553.5,-6.5"/>
<text text-anchor="middle" x="622" y="-14.5" font-family="Helvetica,sans-Serif" font-size="10.00">BeamFactory::_deleteTruck</text>
</a>
</g>
<!-- Node2&#45;&gt;Node37 -->
<g id="edge84" class="edge"><title>Node2&#45;&gt;Node37</title>
<path fill="none" stroke="midnightblue" d="M274.766,-241.775C294.006,-219.902 329.303,-181.683 364,-154 440.93,-92.6211 462.038,-76.9043 552,-37 557.127,-34.7259 562.58,-32.6392 568.091,-30.7434"/>
<polygon fill="midnightblue" stroke="midnightblue" points="569.578,-33.9414 578.018,-27.5376 567.426,-27.2802 569.578,-33.9414"/>
</g>
<!-- Node5 -->
<g id="node9" class="node"><title>Node5</title>
<a xlink:href="class_beam.html#af9b4ba90d62be6ca00cdd101a7db6314" target="_top" xlink:title="Beam::desactivate">
<polygon fill="white" stroke="black" points="761,-784.5 761,-805.5 859,-805.5 859,-784.5 761,-784.5"/>
<text text-anchor="middle" x="810" y="-792.5" font-family="Helvetica,sans-Serif" font-size="10.00">Beam::desactivate</text>
</a>
</g>
<!-- Node4&#45;&gt;Node5 -->
<g id="edge8" class="edge"><title>Node4&#45;&gt;Node5</title>
<path fill="none" stroke="midnightblue" d="M503.13,-354.644C507.853,-357.162 512.235,-360.24 516,-364 560.245,-408.181 526.845,-442.757 552,-500 610.38,-632.849 609.928,-690.644 728,-775 734.941,-779.959 742.967,-783.697 751.224,-786.513"/>
<polygon fill="midnightblue" stroke="midnightblue" points="750.389,-789.916 760.972,-789.413 752.385,-783.207 750.389,-789.916"/>
</g>
<!-- Node6 -->
<g id="node11" class="node"><title>Node6</title>
<a xlink:href="class_ro_r_1_1_main_thread.html#af7d1f53cf02660323c9dfe6cc5a1e7e1" target="_top" xlink:title="RoR::MainThread::Changed\lCurrentVehicle">
<polygon fill="white" stroke="black" points="552.5,-457 552.5,-491 691.5,-491 691.5,-457 552.5,-457"/>
<text text-anchor="start" x="560.5" y="-478" font-family="Helvetica,sans-Serif" font-size="10.00">RoR::MainThread::Changed</text>
<text text-anchor="middle" x="622" y="-465" font-family="Helvetica,sans-Serif" font-size="10.00">CurrentVehicle</text>
</a>
</g>
<!-- Node4&#45;&gt;Node6 -->
<g id="edge10" class="edge"><title>Node4&#45;&gt;Node6</title>
<path fill="none" stroke="midnightblue" d="M495.014,-354.604C502.329,-357.114 509.528,-360.202 516,-364 552.626,-385.491 584.904,-423.131 603.944,-448.312"/>
<polygon fill="midnightblue" stroke="midnightblue" points="601.352,-450.693 610.112,-456.652 606.98,-446.531 601.352,-450.693"/>
</g>
<!-- Node6&#45;&gt;Node5 -->
<g id="edge54" class="edge"><title>Node6&#45;&gt;Node5</title>
<path fill="none" stroke="midnightblue" d="M629.233,-491.203C642.495,-523.036 671.245,-593.414 692,-654 710.183,-707.079 687.348,-736.329 728,-775 734.48,-781.164 742.53,-785.526 751.035,-788.594"/>
<polygon fill="midnightblue" stroke="midnightblue" points="750.185,-791.993 760.77,-791.536 752.21,-785.293 750.185,-791.993"/>
</g>
<!-- Node7 -->
<g id="node13" class="node"><title>Node7</title>
<a xlink:href="class_character.html#aa761e344c2aa6df9205bfa6bf1d3ea13" target="_top" xlink:title="Character::setBeamCoupling">
<polygon fill="white" stroke="black" points="738.5,-612.5 738.5,-633.5 881.5,-633.5 881.5,-612.5 738.5,-612.5"/>
<text text-anchor="middle" x="810" y="-620.5" font-family="Helvetica,sans-Serif" font-size="10.00">Character::setBeamCoupling</text>
</a>
</g>
<!-- Node6&#45;&gt;Node7 -->
<g id="edge12" class="edge"><title>Node6&#45;&gt;Node7</title>
<path fill="none" stroke="midnightblue" d="M631.203,-491.225C647.079,-519.212 682.351,-574.311 728,-603 731.325,-605.089 734.852,-606.961 738.502,-608.636"/>
<polygon fill="midnightblue" stroke="midnightblue" points="737.205,-611.887 747.787,-612.412 739.842,-605.403 737.205,-611.887"/>
</g>
<!-- Node16 -->
<g id="node31" class="node"><title>Node16</title>
<a xlink:href="class_character.html#a1884d7f3e305d9b23164fdbf208f1cc6" target="_top" xlink:title="Character::setPosition">
<polygon fill="white" stroke="black" points="753,-572.5 753,-593.5 867,-593.5 867,-572.5 753,-572.5"/>
<text text-anchor="middle" x="810" y="-580.5" font-family="Helvetica,sans-Serif" font-size="10.00">Character::setPosition</text>
</a>
</g>
<!-- Node6&#45;&gt;Node16 -->
<g id="edge30" class="edge"><title>Node6&#45;&gt;Node16</title>
<path fill="none" stroke="midnightblue" d="M637.512,-491.135C656.772,-511.351 691.558,-544.542 728,-563 732.82,-565.442 737.953,-567.595 743.209,-569.492"/>
<polygon fill="midnightblue" stroke="midnightblue" points="742.168,-572.834 752.761,-572.637 744.357,-566.185 742.168,-572.834"/>
</g>
<!-- Node17 -->
<g id="node33" class="node"><title>Node17</title>
<a xlink:href="class_beam.html#a1294bf3dfa3848211b06a82020c53e72" target="_top" xlink:title="Beam::getPosition">
<polygon fill="white" stroke="black" points="761.5,-532.5 761.5,-553.5 858.5,-553.5 858.5,-532.5 761.5,-532.5"/>
<text text-anchor="middle" x="810" y="-540.5" font-family="Helvetica,sans-Serif" font-size="10.00">Beam::getPosition</text>
</a>
</g>
<!-- Node6&#45;&gt;Node17 -->
<g id="edge32" class="edge"><title>Node6&#45;&gt;Node17</title>
<path fill="none" stroke="midnightblue" d="M654.734,-491.139C675.343,-501.422 702.736,-514.173 728,-523 735.573,-525.646 743.656,-528.074 751.686,-530.258"/>
<polygon fill="midnightblue" stroke="midnightblue" points="750.856,-533.659 761.416,-532.798 752.624,-526.886 750.856,-533.659"/>
</g>
<!-- Node18 -->
<g id="node35" class="node"><title>Node18</title>
<a xlink:href="class_character.html#acfb1f4e5d1cb5da7d438466ff398bf93" target="_top" xlink:title="Character::updateCharacter\lRotation">
<polygon fill="white" stroke="black" points="741.5,-480 741.5,-514 878.5,-514 878.5,-480 741.5,-480"/>
<text text-anchor="start" x="749.5" y="-501" font-family="Helvetica,sans-Serif" font-size="10.00">Character::updateCharacter</text>
<text text-anchor="middle" x="810" y="-488" font-family="Helvetica,sans-Serif" font-size="10.00">Rotation</text>
</a>
</g>
<!-- Node6&#45;&gt;Node18 -->
<g id="edge34" class="edge"><title>Node6&#45;&gt;Node18</title>
<path fill="none" stroke="midnightblue" d="M691.737,-482.532C704.644,-484.111 718.206,-485.77 731.357,-487.379"/>
<polygon fill="midnightblue" stroke="midnightblue" points="730.964,-490.857 741.315,-488.597 731.814,-483.908 730.964,-490.857"/>
</g>
<!-- Node20 -->
<g id="node39" class="node"><title>Node20</title>
<a xlink:href="class_force_feedback.html#ac80c88ae853f3df8b7b1613a70545647" target="_top" xlink:title="ForceFeedback::setEnabled">
<polygon fill="white" stroke="black" points="740.5,-440.5 740.5,-461.5 879.5,-461.5 879.5,-440.5 740.5,-440.5"/>
<text text-anchor="middle" x="810" y="-448.5" font-family="Helvetica,sans-Serif" font-size="10.00">ForceFeedback::setEnabled</text>
</a>
</g>
<!-- Node6&#45;&gt;Node20 -->
<g id="edge38" class="edge"><title>Node6&#45;&gt;Node20</title>
<path fill="none" stroke="midnightblue" d="M691.737,-465.468C704.27,-463.935 717.421,-462.326 730.213,-460.761"/>
<polygon fill="midnightblue" stroke="midnightblue" points="730.875,-464.206 740.376,-459.518 730.025,-457.258 730.875,-464.206"/>
</g>
<!-- Node21 -->
<g id="node41" class="node"><title>Node21</title>
<a xlink:href="class_ro_r_1_1_application.html#a59a97190a3dea812d1f28504db82dc95" target="_top" xlink:title="RoR::Application::GetOverlay\lWrapper">
<polygon fill="white" stroke="black" points="737,-388 737,-422 883,-422 883,-388 737,-388"/>
<text text-anchor="start" x="745" y="-409" font-family="Helvetica,sans-Serif" font-size="10.00">RoR::Application::GetOverlay</text>
<text text-anchor="middle" x="810" y="-396" font-family="Helvetica,sans-Serif" font-size="10.00">Wrapper</text>
</a>
</g>
<!-- Node6&#45;&gt;Node21 -->
<g id="edge40" class="edge"><title>Node6&#45;&gt;Node21</title>
<path fill="none" stroke="midnightblue" d="M661.982,-456.918C681.713,-448.709 705.956,-438.952 728,-431 733.4,-429.052 739.027,-427.103 744.691,-425.197"/>
<polygon fill="midnightblue" stroke="midnightblue" points="745.833,-428.506 754.225,-422.038 743.631,-421.861 745.833,-428.506"/>
</g>
<!-- Node22 -->
<g id="node43" class="node"><title>Node22</title>
<a xlink:href="class_truck_h_u_d.html#abfc37f8d68c2f2b589138b31028eef31" target="_top" xlink:title="TruckHUD::show">
<polygon fill="white" stroke="black" points="763.5,-348.5 763.5,-369.5 856.5,-369.5 856.5,-348.5 763.5,-348.5"/>
<text text-anchor="middle" x="810" y="-356.5" font-family="Helvetica,sans-Serif" font-size="10.00">TruckHUD::show</text>
</a>
</g>
<!-- Node6&#45;&gt;Node22 -->
<g id="edge42" class="edge"><title>Node6&#45;&gt;Node22</title>
<path fill="none" stroke="midnightblue" d="M636.275,-456.802C655.067,-435.308 690.178,-398.93 728,-379 735.912,-374.831 744.712,-371.513 753.527,-368.877"/>
<polygon fill="midnightblue" stroke="midnightblue" points="754.708,-372.183 763.439,-366.182 752.871,-365.428 754.708,-372.183"/>
</g>
<!-- Node23 -->
<g id="node45" class="node"><title>Node23</title>
<a xlink:href="class_beam.html#a3304824c3e7285047f007c956318de09" target="_top" xlink:title="Beam::prepareInside">
<polygon fill="white" stroke="black" points="756.5,-308.5 756.5,-329.5 863.5,-329.5 863.5,-308.5 756.5,-308.5"/>
<text text-anchor="middle" x="810" y="-316.5" font-family="Helvetica,sans-Serif" font-size="10.00">Beam::prepareInside</text>
</a>
</g>
<!-- Node6&#45;&gt;Node23 -->
<g id="edge44" class="edge"><title>Node6&#45;&gt;Node23</title>
<path fill="none" stroke="midnightblue" d="M630.494,-456.906C645.812,-427.922 680.901,-369.335 728,-339 733.711,-335.322 740.043,-332.32 746.583,-329.87"/>
<polygon fill="midnightblue" stroke="midnightblue" points="747.876,-333.129 756.267,-326.661 745.674,-326.484 747.876,-333.129"/>
</g>
<!-- Node24 -->
<g id="node47" class="node"><title>Node24</title>
<a xlink:href="class_overlay_wrapper.html#a086d876abbbac640d88b09b2bbfe7d0f" target="_top" xlink:title="OverlayWrapper::showDashboard\lOverlays">
<polygon fill="white" stroke="black" points="728,-256 728,-290 892,-290 892,-256 728,-256"/>
<text text-anchor="start" x="736" y="-277" font-family="Helvetica,sans-Serif" font-size="10.00">OverlayWrapper::showDashboard</text>
<text text-anchor="middle" x="810" y="-264" font-family="Helvetica,sans-Serif" font-size="10.00">Overlays</text>
</a>
</g>
<!-- Node6&#45;&gt;Node24 -->
<g id="edge46" class="edge"><title>Node6&#45;&gt;Node24</title>
<path fill="none" stroke="midnightblue" d="M627.722,-456.761C640.217,-421.761 673.284,-342.049 728,-299 729.764,-297.612 731.604,-296.297 733.504,-295.052"/>
<polygon fill="midnightblue" stroke="midnightblue" points="735.281,-298.068 742.178,-290.026 731.771,-292.011 735.281,-298.068"/>
</g>
<!-- Node25 -->
<g id="node49" class="node"><title>Node25</title>
<a xlink:href="class_streamable_factory.html#a233cafcf6f87f5779b1a26a5a48d8f6d" target="_top" xlink:title="StreamableFactory\&lt;\l BeamFactory, Beam \&gt;\l::getSingleton">
<polygon fill="white" stroke="black" points="750.5,-190.5 750.5,-237.5 869.5,-237.5 869.5,-190.5 750.5,-190.5"/>
<text text-anchor="start" x="758.5" y="-224.5" font-family="Helvetica,sans-Serif" font-size="10.00">StreamableFactory&lt;</text>
<text text-anchor="start" x="758.5" y="-211.5" font-family="Helvetica,sans-Serif" font-size="10.00"> BeamFactory, Beam &gt;</text>
<text text-anchor="middle" x="810" y="-198.5" font-family="Helvetica,sans-Serif" font-size="10.00">::getSingleton</text>
</a>
</g>
<!-- Node6&#45;&gt;Node25 -->
<g id="edge48" class="edge"><title>Node6&#45;&gt;Node25</title>
<path fill="none" stroke="midnightblue" d="M630.229,-456.584C643.351,-428.79 669.801,-372.673 692,-325 708.118,-290.388 700.338,-273.317 728,-247 732.03,-243.166 736.563,-239.756 741.376,-236.726"/>
<polygon fill="midnightblue" stroke="midnightblue" points="743.316,-239.65 750.292,-231.676 739.866,-233.559 743.316,-239.65"/>
</g>
<!-- Node26 -->
<g id="node51" class="node"><title>Node26</title>
<a xlink:href="class_beam_factory.html#a5f3755f8cd44e6972e463cc6aaa9f181" target="_top" xlink:title="BeamFactory::getTruckCount">
<polygon fill="white" stroke="black" points="737,-150.5 737,-171.5 883,-171.5 883,-150.5 737,-150.5"/>
<text text-anchor="middle" x="810" y="-158.5" font-family="Helvetica,sans-Serif" font-size="10.00">BeamFactory::getTruckCount</text>
</a>
</g>
<!-- Node6&#45;&gt;Node26 -->
<g id="edge50" class="edge"><title>Node6&#45;&gt;Node26</title>
<path fill="none" stroke="midnightblue" d="M631.55,-456.582C646.224,-429.24 674.455,-374.272 692,-325 714.13,-262.853 681.219,-227.513 728,-181 729.286,-179.721 730.639,-178.52 732.05,-177.391"/>
<polygon fill="midnightblue" stroke="midnightblue" points="734.278,-180.113 740.697,-171.684 730.423,-174.271 734.278,-180.113"/>
</g>
<!-- Node27 -->
<g id="node53" class="node"><title>Node27</title>
<a xlink:href="class_beam_factory.html#aa7c42481b46a78459831fa0900ab8d67" target="_top" xlink:title="BeamFactory::getTrucks">
<polygon fill="white" stroke="black" points="747.5,-744.5 747.5,-765.5 872.5,-765.5 872.5,-744.5 747.5,-744.5"/>
<text text-anchor="middle" x="810" y="-752.5" font-family="Helvetica,sans-Serif" font-size="10.00">BeamFactory::getTrucks</text>
</a>
</g>
<!-- Node6&#45;&gt;Node27 -->
<g id="edge52" class="edge"><title>Node6&#45;&gt;Node27</title>
<path fill="none" stroke="midnightblue" d="M628.745,-491.207C651.308,-548.688 723.014,-730.696 728,-735 731.094,-737.671 734.487,-739.997 738.077,-742.022"/>
<polygon fill="midnightblue" stroke="midnightblue" points="736.818,-745.299 747.349,-746.459 739.84,-738.985 736.818,-745.299"/>
</g>
<!-- Node28 -->
<g id="node56" class="node"><title>Node28</title>
<a xlink:href="class_beam.html#ab8f22ee06cd65bb94d4bacda1de7c35b" target="_top" xlink:title="Beam::activate">
<polygon fill="white" stroke="black" points="768.5,-704.5 768.5,-725.5 851.5,-725.5 851.5,-704.5 768.5,-704.5"/>
<text text-anchor="middle" x="810" y="-712.5" font-family="Helvetica,sans-Serif" font-size="10.00">Beam::activate</text>
</a>
</g>
<!-- Node6&#45;&gt;Node28 -->
<g id="edge56" class="edge"><title>Node6&#45;&gt;Node28</title>
<path fill="none" stroke="midnightblue" d="M628.035,-491.116C644.9,-538.034 693.545,-667.057 728,-695 736.714,-702.067 747.55,-706.695 758.459,-709.712"/>
<polygon fill="midnightblue" stroke="midnightblue" points="757.905,-713.177 768.44,-712.053 759.504,-706.362 757.905,-713.177"/>
</g>
<!-- Node29 -->
<g id="node58" class="node"><title>Node29</title>
<a xlink:href="class_camera_manager.html#a737fe1d8d82faf6d9a3981eb713ec82c" target="_top" xlink:title="CameraManager::NotifyVehicle\lChanged">
<polygon fill="white" stroke="black" points="733.5,-652 733.5,-686 886.5,-686 886.5,-652 733.5,-652"/>
<text text-anchor="start" x="741.5" y="-673" font-family="Helvetica,sans-Serif" font-size="10.00">CameraManager::NotifyVehicle</text>
<text text-anchor="middle" x="810" y="-660" font-family="Helvetica,sans-Serif" font-size="10.00">Changed</text>
</a>
</g>
<!-- Node6&#45;&gt;Node29 -->
<g id="edge58" class="edge"><title>Node6&#45;&gt;Node29</title>
<path fill="none" stroke="midnightblue" d="M628.091,-491.171C641.048,-525.24 674.598,-601.655 728,-643 729.775,-644.374 731.624,-645.677 733.533,-646.911"/>
<polygon fill="midnightblue" stroke="midnightblue" points="731.82,-649.963 742.236,-651.899 735.301,-643.89 731.82,-649.963"/>
</g>
<!-- Node8 -->
<g id="node15" class="node"><title>Node8</title>
<a xlink:href="class_character.html#ad78f70dcdb7ed4ccd8e97824f62847e1" target="_top" xlink:title="Character::setPhysicsEnabled">
<polygon fill="white" stroke="black" points="935.5,-572.5 935.5,-593.5 1084.5,-593.5 1084.5,-572.5 935.5,-572.5"/>
<text text-anchor="middle" x="1010" y="-580.5" font-family="Helvetica,sans-Serif" font-size="10.00">Character::setPhysicsEnabled</text>
</a>
</g>
<!-- Node7&#45;&gt;Node8 -->
<g id="edge14" class="edge"><title>Node7&#45;&gt;Node8</title>
<path fill="none" stroke="midnightblue" d="M862.548,-612.49C888.626,-607.275 920.31,-600.938 947.614,-595.477"/>
<polygon fill="midnightblue" stroke="midnightblue" points="948.337,-598.902 957.456,-593.509 946.964,-592.038 948.337,-598.902"/>
</g>
<!-- Node9 -->
<g id="node17" class="node"><title>Node9</title>
<a xlink:href="class_streamable.html#a3eda07bf069a63209f3fb18cb0b3d835" target="_top" xlink:title="Streamable::getSourceID">
<polygon fill="white" stroke="black" points="946.5,-532.5 946.5,-553.5 1073.5,-553.5 1073.5,-532.5 946.5,-532.5"/>
<text text-anchor="middle" x="1010" y="-540.5" font-family="Helvetica,sans-Serif" font-size="10.00">Streamable::getSourceID</text>
</a>
</g>
<!-- Node7&#45;&gt;Node9 -->
<g id="edge16" class="edge"><title>Node7&#45;&gt;Node9</title>
<path fill="none" stroke="midnightblue" d="M871.192,-612.439C878.471,-609.933 885.585,-606.833 892,-603 912.531,-590.732 907.469,-575.268 928,-563 931.609,-560.844 935.438,-558.92 939.394,-557.203"/>
<polygon fill="midnightblue" stroke="midnightblue" points="940.744,-560.433 948.808,-553.561 938.219,-553.905 940.744,-560.433"/>
</g>
<!-- Node10 -->
<g id="node19" class="node"><title>Node10</title>
<a xlink:href="class_streamable.html#a9f197258ebb8984ee75ce0481cf67f20" target="_top" xlink:title="Streamable::getStreamID">
<polygon fill="white" stroke="black" points="946,-492.5 946,-513.5 1074,-513.5 1074,-492.5 946,-492.5"/>
<text text-anchor="middle" x="1010" y="-500.5" font-family="Helvetica,sans-Serif" font-size="10.00">Streamable::getStreamID</text>
</a>
</g>
<!-- Node7&#45;&gt;Node10 -->
<g id="edge18" class="edge"><title>Node7&#45;&gt;Node10</title>
<path fill="none" stroke="midnightblue" d="M876.994,-612.315C882.392,-609.812 887.493,-606.747 892,-603 921.981,-578.074 898.019,-547.926 928,-523 930.731,-520.73 933.679,-518.71 936.78,-516.914"/>
<polygon fill="midnightblue" stroke="midnightblue" points="938.454,-519.991 945.866,-512.421 935.351,-513.716 938.454,-519.991"/>
</g>
<!-- Node11 -->
<g id="node21" class="node"><title>Node11</title>
<a xlink:href="class_streamable.html#ad3380f9c932381bb9a862f40177aa58c" target="_top" xlink:title="Streamable::addPacket">
<polygon fill="white" stroke="black" points="950.5,-452.5 950.5,-473.5 1069.5,-473.5 1069.5,-452.5 950.5,-452.5"/>
<text text-anchor="middle" x="1010" y="-460.5" font-family="Helvetica,sans-Serif" font-size="10.00">Streamable::addPacket</text>
</a>
</g>
<!-- Node7&#45;&gt;Node11 -->
<g id="edge20" class="edge"><title>Node7&#45;&gt;Node11</title>
<path fill="none" stroke="midnightblue" d="M878.723,-612.327C883.559,-609.804 888.067,-606.732 892,-603 932.387,-564.669 887.613,-521.331 928,-483 931.821,-479.373 936.187,-476.371 940.868,-473.889"/>
<polygon fill="midnightblue" stroke="midnightblue" points="942.49,-476.997 950.199,-469.729 939.641,-470.604 942.49,-476.997"/>
</g>
<!-- Node14 -->
<g id="node27" class="node"><title>Node14</title>
<a xlink:href="class_beam.html#adfe810237f6498de41657429ad35ee38" target="_top" xlink:title="Beam::hasDriverSeat">
<polygon fill="white" stroke="black" points="955,-652.5 955,-673.5 1065,-673.5 1065,-652.5 955,-652.5"/>
<text text-anchor="middle" x="1010" y="-660.5" font-family="Helvetica,sans-Serif" font-size="10.00">Beam::hasDriverSeat</text>
</a>
</g>
<!-- Node7&#45;&gt;Node14 -->
<g id="edge26" class="edge"><title>Node7&#45;&gt;Node14</title>
<path fill="none" stroke="midnightblue" d="M862.548,-633.51C888.626,-638.725 920.31,-645.062 947.614,-650.523"/>
<polygon fill="midnightblue" stroke="midnightblue" points="946.964,-653.962 957.456,-652.491 948.337,-647.098 946.964,-653.962"/>
</g>
<!-- Node15 -->
<g id="node29" class="node"><title>Node15</title>
<a xlink:href="class_character.html#a9431f9de49989e5bbf7e02810aca1f14" target="_top" xlink:title="Character::setVisible">
<polygon fill="white" stroke="black" points="956,-612.5 956,-633.5 1064,-633.5 1064,-612.5 956,-612.5"/>
<text text-anchor="middle" x="1010" y="-620.5" font-family="Helvetica,sans-Serif" font-size="10.00">Character::setVisible</text>
</a>
</g>
<!-- Node7&#45;&gt;Node15 -->
<g id="edge28" class="edge"><title>Node7&#45;&gt;Node15</title>
<path fill="none" stroke="midnightblue" d="M881.64,-623C902.543,-623 925.248,-623 945.67,-623"/>
<polygon fill="midnightblue" stroke="midnightblue" points="945.805,-626.5 955.805,-623 945.805,-619.5 945.805,-626.5"/>
</g>
<!-- Node12 -->
<g id="node23" class="node"><title>Node12</title>
<a xlink:href="class_ro_r_singleton.html#a18a797fc35bd8cfa8a2affdd197cbfee" target="_top" xlink:title="RoRSingleton\&lt; NetworkStream\lManager \&gt;::getSingleton">
<polygon fill="white" stroke="black" points="1128.5,-249 1128.5,-283 1283.5,-283 1283.5,-249 1128.5,-249"/>
<text text-anchor="start" x="1136.5" y="-270" font-family="Helvetica,sans-Serif" font-size="10.00">RoRSingleton&lt; NetworkStream</text>
<text text-anchor="middle" x="1206" y="-257" font-family="Helvetica,sans-Serif" font-size="10.00">Manager &gt;::getSingleton</text>
</a>
</g>
<!-- Node11&#45;&gt;Node12 -->
<g id="edge22" class="edge"><title>Node11&#45;&gt;Node12</title>
<path fill="none" stroke="midnightblue" d="M1069.71,-454.169C1077.63,-451.396 1085.32,-447.761 1092,-443 1145.95,-404.571 1180.65,-331.849 1196.31,-292.646"/>
<polygon fill="midnightblue" stroke="midnightblue" points="1199.62,-293.803 1199.97,-283.214 1193.09,-291.272 1199.62,-293.803"/>
</g>
<!-- Node13 -->
<g id="node25" class="node"><title>Node13</title>
<a xlink:href="class_network_stream_manager.html#a35a0f97374d09e9269ac1650932a1e07" target="_top" xlink:title="NetworkStreamManager\l::triggerSend">
<polygon fill="white" stroke="black" points="1145,-446 1145,-480 1267,-480 1267,-446 1145,-446"/>
<text text-anchor="start" x="1153" y="-467" font-family="Helvetica,sans-Serif" font-size="10.00">NetworkStreamManager</text>
<text text-anchor="middle" x="1206" y="-454" font-family="Helvetica,sans-Serif" font-size="10.00">::triggerSend</text>
</a>
</g>
<!-- Node11&#45;&gt;Node13 -->
<g id="edge24" class="edge"><title>Node11&#45;&gt;Node13</title>
<path fill="none" stroke="midnightblue" d="M1069.6,-463C1090.22,-463 1113.52,-463 1134.96,-463"/>
<polygon fill="midnightblue" stroke="midnightblue" points="1134.99,-466.5 1144.99,-463 1134.99,-459.5 1134.99,-466.5"/>
</g>
<!-- Node19 -->
<g id="node37" class="node"><title>Node19</title>
<a xlink:href="class_character.html#a305f94b58e7e8b61cc6829e4aba7a060" target="_top" xlink:title="Character::setRotation">
<polygon fill="white" stroke="black" points="952,-412.5 952,-433.5 1068,-433.5 1068,-412.5 952,-412.5"/>
<text text-anchor="middle" x="1010" y="-420.5" font-family="Helvetica,sans-Serif" font-size="10.00">Character::setRotation</text>
</a>
</g>
<!-- Node18&#45;&gt;Node19 -->
<g id="edge36" class="edge"><title>Node18&#45;&gt;Node19</title>
<path fill="none" stroke="midnightblue" d="M872.3,-479.839C879.092,-477.21 885.787,-474.267 892,-471 909.941,-461.567 909.749,-451.819 928,-443 932.865,-440.649 938.03,-438.56 943.308,-436.707"/>
<polygon fill="midnightblue" stroke="midnightblue" points="944.443,-440.019 952.888,-433.62 942.296,-433.356 944.443,-440.019"/>
</g>
<!-- Node30 -->
<g id="node60" class="node"><title>Node30</title>
<a xlink:href="class_camera_manager.html#a6f50a61b22fd1193ec25c5c2dc8f3ae3" target="_top" xlink:title="CameraManager::switchBehavior">
<polygon fill="white" stroke="black" points="929.5,-692.5 929.5,-713.5 1090.5,-713.5 1090.5,-692.5 929.5,-692.5"/>
<text text-anchor="middle" x="1010" y="-700.5" font-family="Helvetica,sans-Serif" font-size="10.00">CameraManager::switchBehavior</text>
</a>
</g>
<!-- Node29&#45;&gt;Node30 -->
<g id="edge60" class="edge"><title>Node29&#45;&gt;Node30</title>
<path fill="none" stroke="midnightblue" d="M886.753,-682.048C903.539,-684.902 921.249,-687.912 937.847,-690.734"/>
<polygon fill="midnightblue" stroke="midnightblue" points="937.575,-694.238 948.02,-692.463 938.748,-687.337 937.575,-694.238"/>
</g>
<!-- Node31 -->
<g id="node62" class="node"><title>Node31</title>
<a xlink:href="class_beam.html#a39d38800d5ab3b85b305d94b2c8ea502" target="_top" xlink:title="Beam::GetCameraContext">
<polygon fill="white" stroke="black" points="1139.5,-737.5 1139.5,-758.5 1272.5,-758.5 1272.5,-737.5 1139.5,-737.5"/>
<text text-anchor="middle" x="1206" y="-745.5" font-family="Helvetica,sans-Serif" font-size="10.00">Beam::GetCameraContext</text>
</a>
</g>
<!-- Node29&#45;&gt;Node31 -->
<g id="edge64" class="edge"><title>Node29&#45;&gt;Node31</title>
<path fill="none" stroke="midnightblue" d="M879.489,-686.128C883.976,-688.685 888.208,-691.623 892,-695 921.119,-720.928 895.258,-753.83 928,-775 1005.21,-824.924 1120.56,-786.08 1175.19,-762.577"/>
<polygon fill="midnightblue" stroke="midnightblue" points="1176.62,-765.772 1184.35,-758.532 1173.79,-759.369 1176.62,-765.772"/>
</g>
<!-- Node32 -->
<g id="node65" class="node"><title>Node32</title>
<a xlink:href="class_camera_manager.html#a522774afcf439b4e08bc364259d97062" target="_top" xlink:title="CameraManager::SwitchBehavior\lOnVehicleChange">
<polygon fill="white" stroke="black" points="928.5,-732 928.5,-766 1091.5,-766 1091.5,-732 928.5,-732"/>
<text text-anchor="start" x="936.5" y="-753" font-family="Helvetica,sans-Serif" font-size="10.00">CameraManager::SwitchBehavior</text>
<text text-anchor="middle" x="1010" y="-740" font-family="Helvetica,sans-Serif" font-size="10.00">OnVehicleChange</text>
</a>
</g>
<!-- Node29&#45;&gt;Node32 -->
<g id="edge66" class="edge"><title>Node29&#45;&gt;Node32</title>
<path fill="none" stroke="midnightblue" d="M872.3,-686.161C879.092,-688.79 885.787,-691.733 892,-695 909.941,-704.433 910.059,-713.567 928,-723 931.301,-724.735 934.737,-726.379 938.252,-727.934"/>
<polygon fill="midnightblue" stroke="midnightblue" points="937.121,-731.253 947.7,-731.839 939.795,-724.784 937.121,-731.253"/>
</g>
<!-- Node30&#45;&gt;Node31 -->
<g id="edge62" class="edge"><title>Node30&#45;&gt;Node31</title>
<path fill="none" stroke="midnightblue" d="M1055.95,-713.551C1084.11,-720.016 1120.35,-728.335 1150.15,-735.178"/>
<polygon fill="midnightblue" stroke="midnightblue" points="1149.47,-738.611 1160,-737.438 1151.03,-731.789 1149.47,-738.611"/>
</g>
<!-- Node33&#45;&gt;Node12 -->
<g id="edge74" class="edge"><title>Node33&#45;&gt;Node12</title>
<path fill="none" stroke="midnightblue" d="M467.583,-163.461C489.955,-155.504 522.507,-145.255 552,-141 701.563,-119.425 743.592,-112.546 892,-141 995.107,-160.769 1107.48,-213.967 1165.79,-244.208"/>
<polygon fill="midnightblue" stroke="midnightblue" points="1164.19,-247.322 1174.68,-248.855 1167.44,-241.119 1164.19,-247.322"/>
</g>
<!-- Node34 -->
<g id="node69" class="node"><title>Node34</title>
<a xlink:href="class_streamable_factory.html#ae48eb0007578a22c2c857f72d1471a84" target="_top" xlink:title="StreamableFactory\&lt;\l BeamFactory, Beam \&gt;\l::lockStreams">
<polygon fill="white" stroke="black" points="562.5,-46.5 562.5,-93.5 681.5,-93.5 681.5,-46.5 562.5,-46.5"/>
<text text-anchor="start" x="570.5" y="-80.5" font-family="Helvetica,sans-Serif" font-size="10.00">StreamableFactory&lt;</text>
<text text-anchor="start" x="570.5" y="-67.5" font-family="Helvetica,sans-Serif" font-size="10.00"> BeamFactory, Beam &gt;</text>
<text text-anchor="middle" x="622" y="-54.5" font-family="Helvetica,sans-Serif" font-size="10.00">::lockStreams</text>
</a>
</g>
<!-- Node33&#45;&gt;Node34 -->
<g id="edge70" class="edge"><title>Node33&#45;&gt;Node34</title>
<path fill="none" stroke="midnightblue" d="M457.734,-163.289C479.722,-150.069 518.411,-127.006 552,-108 557.45,-104.916 563.161,-101.735 568.872,-98.5863"/>
<polygon fill="midnightblue" stroke="midnightblue" points="570.723,-101.563 577.807,-93.6847 567.357,-95.4256 570.723,-101.563"/>
</g>
<!-- Node35 -->
<g id="node71" class="node"><title>Node35</title>
<a xlink:href="class_streamable_factory.html#a144cbd4edd29595ee5c36bf9aa3b461c" target="_top" xlink:title="StreamableFactory\&lt;\l BeamFactory, Beam \&gt;\l::getStreams">
<polygon fill="white" stroke="black" points="562.5,-268.5 562.5,-315.5 681.5,-315.5 681.5,-268.5 562.5,-268.5"/>
<text text-anchor="start" x="570.5" y="-302.5" font-family="Helvetica,sans-Serif" font-size="10.00">StreamableFactory&lt;</text>
<text text-anchor="start" x="570.5" y="-289.5" font-family="Helvetica,sans-Serif" font-size="10.00"> BeamFactory, Beam &gt;</text>
<text text-anchor="middle" x="622" y="-276.5" font-family="Helvetica,sans-Serif" font-size="10.00">::getStreams</text>
</a>
</g>
<!-- Node33&#45;&gt;Node35 -->
<g id="edge72" class="edge"><title>Node33&#45;&gt;Node35</title>
<path fill="none" stroke="midnightblue" d="M452.155,-184.587C472.088,-201.627 513.38,-235.594 552,-259 554.616,-260.585 557.32,-262.15 560.076,-263.684"/>
<polygon fill="midnightblue" stroke="midnightblue" points="558.543,-266.834 569.01,-268.473 561.85,-260.664 558.543,-266.834"/>
</g>
<!-- Node36 -->
<g id="node74" class="node"><title>Node36</title>
<a xlink:href="class_network_stream_manager.html#a94019d2a87c1f8346f6adb0e76b4b5a2" target="_top" xlink:title="NetworkStreamManager\l::removeStream">
<polygon fill="white" stroke="black" points="561,-216 561,-250 683,-250 683,-216 561,-216"/>
<text text-anchor="start" x="569" y="-237" font-family="Helvetica,sans-Serif" font-size="10.00">NetworkStreamManager</text>
<text text-anchor="middle" x="622" y="-224" font-family="Helvetica,sans-Serif" font-size="10.00">::removeStream</text>
</a>
</g>
<!-- Node33&#45;&gt;Node36 -->
<g id="edge76" class="edge"><title>Node33&#45;&gt;Node36</title>
<path fill="none" stroke="midnightblue" d="M472.538,-184.548C496.697,-192.38 530.391,-203.302 559.672,-212.795"/>
<polygon fill="midnightblue" stroke="midnightblue" points="558.821,-216.198 569.413,-215.953 560.98,-209.539 558.821,-216.198"/>
</g>
<!-- Node33&#45;&gt;Node37 -->
<g id="edge78" class="edge"><title>Node33&#45;&gt;Node37</title>
<path fill="none" stroke="midnightblue" d="M450.587,-163.286C465.758,-147.719 494.249,-117.679 516,-90 533.595,-67.6105 528.928,-53.6892 552,-37 554.663,-35.074 557.506,-33.333 560.467,-31.7591"/>
<polygon fill="midnightblue" stroke="midnightblue" points="562.027,-34.8941 569.636,-27.5216 559.09,-28.5399 562.027,-34.8941"/>
</g>
<!-- Node39 -->
<g id="node80" class="node"><title>Node39</title>
<a xlink:href="class_streamable_factory.html#a903fef78ba76e72a0536ff615c5952d4" target="_top" xlink:title="StreamableFactory\&lt;\l BeamFactory, Beam \&gt;\l::unlockStreams">
<polygon fill="white" stroke="black" points="562.5,-150.5 562.5,-197.5 681.5,-197.5 681.5,-150.5 562.5,-150.5"/>
<text text-anchor="start" x="570.5" y="-184.5" font-family="Helvetica,sans-Serif" font-size="10.00">StreamableFactory&lt;</text>
<text text-anchor="start" x="570.5" y="-171.5" font-family="Helvetica,sans-Serif" font-size="10.00"> BeamFactory, Beam &gt;</text>
<text text-anchor="middle" x="622" y="-158.5" font-family="Helvetica,sans-Serif" font-size="10.00">::unlockStreams</text>
</a>
</g>
<!-- Node33&#45;&gt;Node39 -->
<g id="edge82" class="edge"><title>Node33&#45;&gt;Node39</title>
<path fill="none" stroke="midnightblue" d="M509.585,-174C523.555,-174 538.239,-174 552.216,-174"/>
<polygon fill="midnightblue" stroke="midnightblue" points="552.247,-177.5 562.247,-174 552.247,-170.5 552.247,-177.5"/>
</g>
<!-- Node38 -->
<g id="node78" class="node"><title>Node38</title>
<a xlink:href="class_beam_factory.html#aba95d975d7ec4c7c61249852f7a80990" target="_top" xlink:title="BeamFactory::_WorkerWait\lForSync">
<polygon fill="white" stroke="black" points="741,-0 741,-34 879,-34 879,-0 741,-0"/>
<text text-anchor="start" x="749" y="-21" font-family="Helvetica,sans-Serif" font-size="10.00">BeamFactory::_WorkerWait</text>
<text text-anchor="middle" x="810" y="-8" font-family="Helvetica,sans-Serif" font-size="10.00">ForSync</text>
</a>
</g>
<!-- Node37&#45;&gt;Node38 -->
<g id="edge80" class="edge"><title>Node37&#45;&gt;Node38</title>
<path fill="none" stroke="midnightblue" d="M690.67,-17C703.71,-17 717.452,-17 730.787,-17"/>
<polygon fill="midnightblue" stroke="midnightblue" points="730.886,-20.5001 740.886,-17 730.886,-13.5001 730.886,-20.5001"/>
</g>
</g>
</svg>
