<?xml version="1.0" encoding="UTF-8" standalone="no"?>
<!DOCTYPE svg PUBLIC "-//W3C//DTD SVG 1.1//EN"
 "http://www.w3.org/Graphics/SVG/1.1/DTD/svg11.dtd">
<!-- Generated by graphviz version 2.26.3 (20100126.1600)
 -->
<!-- Title: RoR::RigEditor::Beam::GetDefinitionShock Pages: 1 -->
<svg width="1194pt" height="167pt"
 viewBox="0.00 0.00 1194.00 167.00" xmlns="http://www.w3.org/2000/svg" xmlns:xlink="http://www.w3.org/1999/xlink">
<g id="graph1" class="graph" transform="scale(1 1) rotate(0) translate(4 163)">
<title>RoR::RigEditor::Beam::GetDefinitionShock</title>
<polygon fill="white" stroke="white" points="-4,5 -4,-163 1191,-163 1191,5 -4,5"/>
<!-- Node1 -->
<g id="node1" class="node"><title>Node1</title>
<polygon fill="#bfbfbf" stroke="black" points="0.5,-66 0.5,-100 115.5,-100 115.5,-66 0.5,-66"/>
<text text-anchor="start" x="8.5" y="-87" font-family="Helvetica,sans-Serif" font-size="10.00">RoR::RigEditor::Beam</text>
<text text-anchor="middle" x="58" y="-74" font-family="Helvetica,sans-Serif" font-size="10.00">::GetDefinitionShock</text>
</g>
<!-- Node2 -->
<g id="node3" class="node"><title>Node2</title>
<a xlink:href="class_ro_r_1_1_rig_editor_1_1_rig.html#a764684782f54dfeffee4a7c6d112b15b" target="_top" xlink:title="RoR::RigEditor::Rig\l::QuerySelectedBeamsData">
<polygon fill="white" stroke="black" points="166.5,-125 166.5,-159 305.5,-159 305.5,-125 166.5,-125"/>
<text text-anchor="start" x="174.5" y="-146" font-family="Helvetica,sans-Serif" font-size="10.00">RoR::RigEditor::Rig</text>
<text text-anchor="middle" x="236" y="-133" font-family="Helvetica,sans-Serif" font-size="10.00">::QuerySelectedBeamsData</text>
</a>
</g>
<!-- Node1&#45;&gt;Node2 -->
<g id="edge2" class="edge"><title>Node1&#45;&gt;Node2</title>
<path fill="none" stroke="midnightblue" d="M115.252,-103.483C127.358,-107.706 140.077,-112.064 152,-116 160.988,-118.967 170.549,-122.023 179.879,-124.949"/>
<polygon fill="midnightblue" stroke="midnightblue" points="116.297,-100.14 105.702,-100.135 113.981,-106.746 116.297,-100.14"/>
</g>
<!-- Node10 -->
<g id="node19" class="node"><title>Node10</title>
<a xlink:href="class_ro_r_1_1_rig_editor_1_1_rig.html#a3ecc59a5f44f8b27ecc5f2bc66f21a38" target="_top" xlink:title="RoR::RigEditor::Rig\l::SelectedMixedBeamsUpdate\lAttributes">
<polygon fill="white" stroke="black" points="161.5,-59.5 161.5,-106.5 310.5,-106.5 310.5,-59.5 161.5,-59.5"/>
<text text-anchor="start" x="169.5" y="-93.5" font-family="Helvetica,sans-Serif" font-size="10.00">RoR::RigEditor::Rig</text>
<text text-anchor="start" x="169.5" y="-80.5" font-family="Helvetica,sans-Serif" font-size="10.00">::SelectedMixedBeamsUpdate</text>
<text text-anchor="middle" x="236" y="-67.5" font-family="Helvetica,sans-Serif" font-size="10.00">Attributes</text>
</a>
</g>
<!-- Node1&#45;&gt;Node10 -->
<g id="edge18" class="edge"><title>Node1&#45;&gt;Node10</title>
<path fill="none" stroke="midnightblue" d="M125.832,-83C137.431,-83 149.539,-83 161.305,-83"/>
<polygon fill="midnightblue" stroke="midnightblue" points="125.792,-79.5001 115.791,-83 125.791,-86.5001 125.792,-79.5001"/>
</g>
<!-- Node11 -->
<g id="node22" class="node"><title>Node11</title>
<a xlink:href="class_ro_r_1_1_rig_editor_1_1_rig.html#ad9eaca4efbd4e8cd82068ec443930855" target="_top" xlink:title="RoR::RigEditor::Rig\l::SelectedShocksUpdateAttributes">
<polygon fill="white" stroke="black" points="152.5,-7 152.5,-41 319.5,-41 319.5,-7 152.5,-7"/>
<text text-anchor="start" x="160.5" y="-28" font-family="Helvetica,sans-Serif" font-size="10.00">RoR::RigEditor::Rig</text>
<text text-anchor="middle" x="236" y="-15" font-family="Helvetica,sans-Serif" font-size="10.00">::SelectedShocksUpdateAttributes</text>
</a>
</g>
<!-- Node1&#45;&gt;Node11 -->
<g id="edge22" class="edge"><title>Node1&#45;&gt;Node11</title>
<path fill="none" stroke="midnightblue" d="M115.252,-62.5172C127.358,-58.294 140.077,-53.9365 152,-50 160.988,-47.0326 170.549,-43.9775 179.879,-41.0512"/>
<polygon fill="midnightblue" stroke="midnightblue" points="113.981,-59.2538 105.702,-65.8648 116.297,-65.8597 113.981,-59.2538"/>
</g>
<!-- Node3 -->
<g id="node5" class="node"><title>Node3</title>
<a xlink:href="class_ro_r_1_1_rig_editor_1_1_main.html#abe2179248ae5a8d9fc4a8ed136a18c46" target="_top" xlink:title="RoR::RigEditor::Main\l::UpdateMainLoop">
<polygon fill="white" stroke="black" points="394,-66 394,-100 504,-100 504,-66 394,-66"/>
<text text-anchor="start" x="402" y="-87" font-family="Helvetica,sans-Serif" font-size="10.00">RoR::RigEditor::Main</text>
<text text-anchor="middle" x="449" y="-74" font-family="Helvetica,sans-Serif" font-size="10.00">::UpdateMainLoop</text>
</a>
</g>
<!-- Node2&#45;&gt;Node3 -->
<g id="edge4" class="edge"><title>Node2&#45;&gt;Node3</title>
<path fill="none" stroke="midnightblue" d="M307.394,-122.224C335.537,-114.429 367.362,-105.613 393.703,-98.3169"/>
<polygon fill="midnightblue" stroke="midnightblue" points="306.311,-118.892 297.608,-124.935 308.18,-125.638 306.311,-118.892"/>
</g>
<!-- Node4 -->
<g id="node7" class="node"><title>Node4</title>
<a xlink:href="class_ro_r_1_1_rig_editor_1_1_main.html#a8cd11f0150b5e247b6d9f00212d42b0d" target="_top" xlink:title="RoR::RigEditor::Main\l::EnterMainLoop">
<polygon fill="white" stroke="black" points="578,-66 578,-100 688,-100 688,-66 578,-66"/>
<text text-anchor="start" x="586" y="-87" font-family="Helvetica,sans-Serif" font-size="10.00">RoR::RigEditor::Main</text>
<text text-anchor="middle" x="633" y="-74" font-family="Helvetica,sans-Serif" font-size="10.00">::EnterMainLoop</text>
</a>
</g>
<!-- Node3&#45;&gt;Node4 -->
<g id="edge6" class="edge"><title>Node3&#45;&gt;Node4</title>
<path fill="none" stroke="midnightblue" d="M514.233,-83C535.029,-83 557.823,-83 577.833,-83"/>
<polygon fill="midnightblue" stroke="midnightblue" points="514.206,-79.5001 504.206,-83 514.206,-86.5001 514.206,-79.5001"/>
</g>
<!-- Node5 -->
<g id="node9" class="node"><title>Node5</title>
<a xlink:href="class_ro_r_1_1_main_thread.html#a7e4d0bd23a40e509892883af75ea0dbf" target="_top" xlink:title="RoR::MainThread::Go">
<polygon fill="white" stroke="black" points="724.5,-72.5 724.5,-93.5 837.5,-93.5 837.5,-72.5 724.5,-72.5"/>
<text text-anchor="middle" x="781" y="-80.5" font-family="Helvetica,sans-Serif" font-size="10.00">RoR::MainThread::Go</text>
</a>
</g>
<!-- Node4&#45;&gt;Node5 -->
<g id="edge8" class="edge"><title>Node4&#45;&gt;Node5</title>
<path fill="none" stroke="midnightblue" d="M698.23,-83C706.94,-83 715.814,-83 724.361,-83"/>
<polygon fill="midnightblue" stroke="midnightblue" points="698.11,-79.5001 688.11,-83 698.11,-86.5001 698.11,-79.5001"/>
</g>
<!-- Node6 -->
<g id="node11" class="node"><title>Node6</title>
<a xlink:href="main_2main__sim_2main_8cpp.html#a0ddf1224851353fc92bfbff6f499fa97" target="_top" xlink:title="main">
<polygon fill="white" stroke="black" points="924,-95.5 924,-116.5 962,-116.5 962,-95.5 924,-95.5"/>
<text text-anchor="middle" x="943" y="-103.5" font-family="Helvetica,sans-Serif" font-size="10.00">main</text>
</a>
</g>
<!-- Node5&#45;&gt;Node6 -->
<g id="edge10" class="edge"><title>Node5&#45;&gt;Node6</title>
<path fill="none" stroke="midnightblue" d="M847.692,-92.4687C875.272,-96.3843 905.136,-100.624 923.945,-103.295"/>
<polygon fill="midnightblue" stroke="midnightblue" points="848.052,-88.9848 837.66,-91.0443 847.068,-95.9153 848.052,-88.9848"/>
</g>
<!-- Node8 -->
<g id="node15" class="node"><title>Node8</title>
<a xlink:href="class_ro_r_1_1_main_thread.html#a7a2db954fd2f35d63982d8603d2b9614" target="_top" xlink:title="RoR::MainThread::Request\lRestart">
<polygon fill="white" stroke="black" points="874.5,-43 874.5,-77 1011.5,-77 1011.5,-43 874.5,-43"/>
<text text-anchor="start" x="882.5" y="-64" font-family="Helvetica,sans-Serif" font-size="10.00">RoR::MainThread::Request</text>
<text text-anchor="middle" x="943" y="-51" font-family="Helvetica,sans-Serif" font-size="10.00">Restart</text>
</a>
</g>
<!-- Node5&#45;&gt;Node8 -->
<g id="edge14" class="edge"><title>Node5&#45;&gt;Node8</title>
<path fill="none" stroke="midnightblue" d="M847.824,-73.5126C856.595,-72.2674 865.594,-70.9898 874.393,-69.7405"/>
<polygon fill="midnightblue" stroke="midnightblue" points="847.068,-70.0847 837.66,-74.9557 848.052,-77.0152 847.068,-70.0847"/>
</g>
<!-- Node7 -->
<g id="node13" class="node"><title>Node7</title>
<a xlink:href="main_2main__sim_2main_8cpp.html#a2922bc5d5c2d77a3020cfbf9df12aab0" target="_top" xlink:title="WinMain">
<polygon fill="white" stroke="black" points="1089.5,-95.5 1089.5,-116.5 1144.5,-116.5 1144.5,-95.5 1089.5,-95.5"/>
<text text-anchor="middle" x="1117" y="-103.5" font-family="Helvetica,sans-Serif" font-size="10.00">WinMain</text>
</a>
</g>
<!-- Node6&#45;&gt;Node7 -->
<g id="edge12" class="edge"><title>Node6&#45;&gt;Node7</title>
<path fill="none" stroke="midnightblue" d="M972.559,-106C1005.23,-106 1057.44,-106 1089.33,-106"/>
<polygon fill="midnightblue" stroke="midnightblue" points="972.286,-102.5 962.286,-106 972.286,-109.5 972.286,-102.5"/>
</g>
<!-- Node9 -->
<g id="node17" class="node"><title>Node9</title>
<a xlink:href="class_ro_r_frame_listener.html#af2779b96aa0f91920bd100bc30261402" target="_top" xlink:title="RoRFrameListener::Restart">
<polygon fill="white" stroke="black" points="1048.5,-49.5 1048.5,-70.5 1185.5,-70.5 1185.5,-49.5 1048.5,-49.5"/>
<text text-anchor="middle" x="1117" y="-57.5" font-family="Helvetica,sans-Serif" font-size="10.00">RoRFrameListener::Restart</text>
</a>
</g>
<!-- Node8&#45;&gt;Node9 -->
<g id="edge16" class="edge"><title>Node8&#45;&gt;Node9</title>
<path fill="none" stroke="midnightblue" d="M1022.04,-60C1030.86,-60 1039.78,-60 1048.45,-60"/>
<polygon fill="midnightblue" stroke="midnightblue" points="1021.77,-56.5001 1011.77,-60 1021.77,-63.5001 1021.77,-56.5001"/>
</g>
<!-- Node10&#45;&gt;Node3 -->
<g id="edge20" class="edge"><title>Node10&#45;&gt;Node3</title>
<path fill="none" stroke="midnightblue" d="M320.845,-83C345.414,-83 371.587,-83 393.833,-83"/>
<polygon fill="midnightblue" stroke="midnightblue" points="320.796,-79.5001 310.796,-83 320.796,-86.5001 320.796,-79.5001"/>
</g>
<!-- Node11&#45;&gt;Node3 -->
<g id="edge24" class="edge"><title>Node11&#45;&gt;Node3</title>
<path fill="none" stroke="midnightblue" d="M307.394,-43.7759C335.537,-51.5713 367.362,-60.3867 393.703,-67.6831"/>
<polygon fill="midnightblue" stroke="midnightblue" points="308.18,-40.3618 297.608,-41.0652 306.311,-47.1077 308.18,-40.3618"/>
</g>
<!-- Node12 -->
<g id="node25" class="node"><title>Node12</title>
<a xlink:href="class_ro_r_1_1_rig_editor_1_1_main.html#a65bf3c0b56b01ea607f97bac4a7edd47" target="_top" xlink:title="RoR::RigEditor::Main\l::CommandRigSelectedShocksUpdate\lAttributes">
<polygon fill="white" stroke="black" points="356.5,-0.5 356.5,-47.5 541.5,-47.5 541.5,-0.5 356.5,-0.5"/>
<text text-anchor="start" x="364.5" y="-34.5" font-family="Helvetica,sans-Serif" font-size="10.00">RoR::RigEditor::Main</text>
<text text-anchor="start" x="364.5" y="-21.5" font-family="Helvetica,sans-Serif" font-size="10.00">::CommandRigSelectedShocksUpdate</text>
<text text-anchor="middle" x="449" y="-8.5" font-family="Helvetica,sans-Serif" font-size="10.00">Attributes</text>
</a>
</g>
<!-- Node11&#45;&gt;Node12 -->
<g id="edge26" class="edge"><title>Node11&#45;&gt;Node12</title>
<path fill="none" stroke="midnightblue" d="M329.783,-24C338.539,-24 347.412,-24 356.16,-24"/>
<polygon fill="midnightblue" stroke="midnightblue" points="329.572,-20.5001 319.572,-24 329.572,-27.5001 329.572,-20.5001"/>
</g>
</g>
</svg>
