<?xml version="1.0" encoding="UTF-8" standalone="no"?>
<!DOCTYPE svg PUBLIC "-//W3C//DTD SVG 1.1//EN"
 "http://www.w3.org/Graphics/SVG/1.1/DTD/svg11.dtd">
<!-- Generated by graphviz version 2.26.3 (20100126.1600)
 -->
<!-- Title: Beam::tieToggle Pages: 1 -->
<svg width="464pt" height="54pt"
 viewBox="0.00 0.00 464.00 54.00" xmlns="http://www.w3.org/2000/svg" xmlns:xlink="http://www.w3.org/1999/xlink">
<g id="graph1" class="graph" transform="scale(1 1) rotate(0) translate(4 50)">
<title>Beam::tieToggle</title>
<polygon fill="white" stroke="white" points="-4,5 -4,-50 461,-50 461,5 -4,5"/>
<!-- Node1 -->
<g id="node1" class="node"><title>Node1</title>
<polygon fill="#bfbfbf" stroke="black" points="0,-6.5 0,-27.5 88,-27.5 88,-6.5 0,-6.5"/>
<text text-anchor="middle" x="44" y="-14.5" font-family="Helvetica,sans-Serif" font-size="10.00">Beam::tieToggle</text>
</g>
<!-- Node1&#45;&gt;Node1 -->
<g id="edge6" class="edge"><title>Node1&#45;&gt;Node1</title>
<path fill="none" stroke="midnightblue" d="M16.951,-37.0551C18.7253,-42.164 27.7416,-46 44,-46 69.3789,-46 77.1115,-36.6531 67.1979,-27.7079"/>
<polygon fill="midnightblue" stroke="midnightblue" points="20.2288,-38.2872 20.8021,-27.7079 13.7566,-35.6206 20.2288,-38.2872"/>
</g>
<!-- Node2 -->
<g id="node3" class="node"><title>Node2</title>
<a xlink:href="class_ro_r_frame_listener.html#a6b384193b130f7c1fff95d2e740a370e" target="_top" xlink:title="RoRFrameListener::update\lEvents">
<polygon fill="white" stroke="black" points="124,-0 124,-34 258,-34 258,-0 124,-0"/>
<text text-anchor="start" x="132" y="-21" font-family="Helvetica,sans-Serif" font-size="10.00">RoRFrameListener::update</text>
<text text-anchor="middle" x="191" y="-8" font-family="Helvetica,sans-Serif" font-size="10.00">Events</text>
</a>
</g>
<!-- Node1&#45;&gt;Node2 -->
<g id="edge2" class="edge"><title>Node1&#45;&gt;Node2</title>
<path fill="none" stroke="midnightblue" d="M98.3783,-17C106.664,-17 115.297,-17 123.817,-17"/>
<polygon fill="midnightblue" stroke="midnightblue" points="98.1049,-13.5001 88.1048,-17 98.1048,-20.5001 98.1049,-13.5001"/>
</g>
<!-- Node3 -->
<g id="node5" class="node"><title>Node3</title>
<a xlink:href="class_ro_r_frame_listener.html#acd8647e188fb8e838689492965b86faf" target="_top" xlink:title="RoRFrameListener::frameStarted">
<polygon fill="white" stroke="black" points="294.5,-6.5 294.5,-27.5 455.5,-27.5 455.5,-6.5 294.5,-6.5"/>
<text text-anchor="middle" x="375" y="-14.5" font-family="Helvetica,sans-Serif" font-size="10.00">RoRFrameListener::frameStarted</text>
</a>
</g>
<!-- Node2&#45;&gt;Node3 -->
<g id="edge4" class="edge"><title>Node2&#45;&gt;Node3</title>
<path fill="none" stroke="midnightblue" d="M268.483,-17C276.991,-17 285.669,-17 294.216,-17"/>
<polygon fill="midnightblue" stroke="midnightblue" points="268.209,-13.5001 258.209,-17 268.209,-20.5001 268.209,-13.5001"/>
</g>
</g>
</svg>
