<?xml version="1.0" encoding="UTF-8" standalone="no"?>
<!DOCTYPE svg PUBLIC "-//W3C//DTD SVG 1.1//EN"
 "http://www.w3.org/Graphics/SVG/1.1/DTD/svg11.dtd">
<!-- Generated by graphviz version 2.26.3 (20100126.1600)
 -->
<!-- Title: RigDef::Parser::ParseRailGroups Pages: 1 -->
<svg width="892pt" height="148pt"
 viewBox="0.00 0.00 892.00 148.00" xmlns="http://www.w3.org/2000/svg" xmlns:xlink="http://www.w3.org/1999/xlink">
<g id="graph1" class="graph" transform="scale(1 1) rotate(0) translate(4 144)">
<title>RigDef::Parser::ParseRailGroups</title>
<polygon fill="white" stroke="white" points="-4,5 -4,-144 889,-144 889,5 -4,5"/>
<!-- Node1 -->
<g id="node1" class="node"><title>Node1</title>
<polygon fill="#bfbfbf" stroke="black" points="0.5,-72 0.5,-106 131.5,-106 131.5,-72 0.5,-72"/>
<text text-anchor="start" x="8.5" y="-93" font-family="Helvetica,sans-Serif" font-size="10.00">RigDef::Parser::ParseRail</text>
<text text-anchor="middle" x="66" y="-80" font-family="Helvetica,sans-Serif" font-size="10.00">Groups</text>
</g>
<!-- Node2 -->
<g id="node3" class="node"><title>Node2</title>
<a xlink:href="class_rig_def_1_1_parser.html#a572673469cf88cdebbd30e04df5629ff" target="_top" xlink:title="RigDef::Parser::ParseLine">
<polygon fill="white" stroke="black" points="168.5,-78.5 168.5,-99.5 299.5,-99.5 299.5,-78.5 168.5,-78.5"/>
<text text-anchor="middle" x="234" y="-86.5" font-family="Helvetica,sans-Serif" font-size="10.00">RigDef::Parser::ParseLine</text>
</a>
</g>
<!-- Node1&#45;&gt;Node2 -->
<g id="edge2" class="edge"><title>Node1&#45;&gt;Node2</title>
<path fill="none" stroke="midnightblue" d="M142.098,-89C150.836,-89 159.689,-89 168.274,-89"/>
<polygon fill="midnightblue" stroke="midnightblue" points="141.916,-85.5001 131.916,-89 141.916,-92.5001 141.916,-85.5001"/>
</g>
<!-- Node3 -->
<g id="node5" class="node"><title>Node3</title>
<a xlink:href="class_beam.html#a866f7eb5e93d6c476fa1bd0a4b7dcdf5" target="_top" xlink:title="Beam::LoadTruck">
<polygon fill="white" stroke="black" points="370,-118.5 370,-139.5 464,-139.5 464,-118.5 370,-118.5"/>
<text text-anchor="middle" x="417" y="-126.5" font-family="Helvetica,sans-Serif" font-size="10.00">Beam::LoadTruck</text>
</a>
</g>
<!-- Node2&#45;&gt;Node3 -->
<g id="edge4" class="edge"><title>Node2&#45;&gt;Node3</title>
<path fill="none" stroke="midnightblue" d="M291.863,-101.648C317.003,-107.143 346.079,-113.498 369.873,-118.699"/>
<polygon fill="midnightblue" stroke="midnightblue" points="292.598,-98.2257 282.081,-99.5095 291.103,-105.064 292.598,-98.2257"/>
</g>
<!-- Node5 -->
<g id="node9" class="node"><title>Node5</title>
<a xlink:href="class_cache_system.html#ad640fd28c3075eb6310d8d8f3475cefb" target="_top" xlink:title="CacheSystem::fillTruckDetailInfo">
<polygon fill="white" stroke="black" points="336.5,-78.5 336.5,-99.5 497.5,-99.5 497.5,-78.5 336.5,-78.5"/>
<text text-anchor="middle" x="417" y="-86.5" font-family="Helvetica,sans-Serif" font-size="10.00">CacheSystem::fillTruckDetailInfo</text>
</a>
</g>
<!-- Node2&#45;&gt;Node5 -->
<g id="edge8" class="edge"><title>Node2&#45;&gt;Node5</title>
<path fill="none" stroke="midnightblue" d="M309.72,-89C318.477,-89 327.434,-89 336.255,-89"/>
<polygon fill="midnightblue" stroke="midnightblue" points="309.55,-85.5001 299.55,-89 309.55,-92.5001 309.55,-85.5001"/>
</g>
<!-- Node6 -->
<g id="node11" class="node"><title>Node6</title>
<a xlink:href="class_ro_r_1_1_rig_editor_1_1_main.html#a0ae39993d636eacc5dfe567c5f5ac4b9" target="_top" xlink:title="RoR::RigEditor::Main\l::LoadRigDefFile">
<polygon fill="white" stroke="black" points="362,-26 362,-60 472,-60 472,-26 362,-26"/>
<text text-anchor="start" x="370" y="-47" font-family="Helvetica,sans-Serif" font-size="10.00">RoR::RigEditor::Main</text>
<text text-anchor="middle" x="417" y="-34" font-family="Helvetica,sans-Serif" font-size="10.00">::LoadRigDefFile</text>
</a>
</g>
<!-- Node2&#45;&gt;Node6 -->
<g id="edge10" class="edge"><title>Node2&#45;&gt;Node6</title>
<path fill="none" stroke="midnightblue" d="M285.838,-75.9696C309.517,-70.0176 337.59,-62.9611 361.676,-56.9066"/>
<polygon fill="midnightblue" stroke="midnightblue" points="284.829,-72.6144 275.984,-78.4467 286.535,-79.4032 284.829,-72.6144"/>
</g>
<!-- Node4 -->
<g id="node7" class="node"><title>Node4</title>
<a xlink:href="class_beam.html#ac3b331240d6084f4a5116f6c862b65ad" target="_top" xlink:title="Beam::Beam">
<polygon fill="white" stroke="black" points="561,-118.5 561,-139.5 635,-139.5 635,-118.5 561,-118.5"/>
<text text-anchor="middle" x="598" y="-126.5" font-family="Helvetica,sans-Serif" font-size="10.00">Beam::Beam</text>
</a>
</g>
<!-- Node3&#45;&gt;Node4 -->
<g id="edge6" class="edge"><title>Node3&#45;&gt;Node4</title>
<path fill="none" stroke="midnightblue" d="M474.259,-129C502.567,-129 535.914,-129 560.853,-129"/>
<polygon fill="midnightblue" stroke="midnightblue" points="474.083,-125.5 464.083,-129 474.083,-132.5 474.083,-125.5"/>
</g>
<!-- Node7 -->
<g id="node13" class="node"><title>Node7</title>
<a xlink:href="class_ro_r_1_1_rig_editor_1_1_main.html#a35a10d6c23920802442d32fab1a8d470" target="_top" xlink:title="RoR::RigEditor::Main\l::NotifyFileSelectorEnded">
<polygon fill="white" stroke="black" points="534,-26 534,-60 662,-60 662,-26 534,-26"/>
<text text-anchor="start" x="542" y="-47" font-family="Helvetica,sans-Serif" font-size="10.00">RoR::RigEditor::Main</text>
<text text-anchor="middle" x="598" y="-34" font-family="Helvetica,sans-Serif" font-size="10.00">::NotifyFileSelectorEnded</text>
</a>
</g>
<!-- Node6&#45;&gt;Node7 -->
<g id="edge12" class="edge"><title>Node6&#45;&gt;Node7</title>
<path fill="none" stroke="midnightblue" d="M482.519,-43C499.24,-43 517.196,-43 533.848,-43"/>
<polygon fill="midnightblue" stroke="midnightblue" points="482.289,-39.5001 472.289,-43 482.289,-46.5001 482.289,-39.5001"/>
</g>
<!-- Node8 -->
<g id="node15" class="node"><title>Node8</title>
<a xlink:href="class_ro_r_1_1_rig_editor_1_1_main.html#a4f73e9dc5632524ca803864460b82bb5" target="_top" xlink:title="RoR::RigEditor::Main\l::CommandShowDialogOpenRigFile">
<polygon fill="white" stroke="black" points="704,-52 704,-86 878,-86 878,-52 704,-52"/>
<text text-anchor="start" x="712" y="-73" font-family="Helvetica,sans-Serif" font-size="10.00">RoR::RigEditor::Main</text>
<text text-anchor="middle" x="791" y="-60" font-family="Helvetica,sans-Serif" font-size="10.00">::CommandShowDialogOpenRigFile</text>
</a>
</g>
<!-- Node7&#45;&gt;Node8 -->
<g id="edge14" class="edge"><title>Node7&#45;&gt;Node8</title>
<path fill="none" stroke="midnightblue" d="M672.456,-53.0303C682.783,-54.4216 693.466,-55.8607 703.997,-57.2794"/>
<polygon fill="midnightblue" stroke="midnightblue" points="672.644,-49.5241 662.266,-51.6576 671.709,-56.4615 672.644,-49.5241"/>
</g>
<!-- Node9 -->
<g id="node17" class="node"><title>Node9</title>
<a xlink:href="class_ro_r_1_1_rig_editor_1_1_main.html#acb4af1361d9233f5ee2fa658536a7658" target="_top" xlink:title="RoR::RigEditor::Main\l::CommandShowDialogSaveRigFileAs">
<polygon fill="white" stroke="black" points="698.5,-0 698.5,-34 883.5,-34 883.5,-0 698.5,-0"/>
<text text-anchor="start" x="706.5" y="-21" font-family="Helvetica,sans-Serif" font-size="10.00">RoR::RigEditor::Main</text>
<text text-anchor="middle" x="791" y="-8" font-family="Helvetica,sans-Serif" font-size="10.00">::CommandShowDialogSaveRigFileAs</text>
</a>
</g>
<!-- Node7&#45;&gt;Node9 -->
<g id="edge16" class="edge"><title>Node7&#45;&gt;Node9</title>
<path fill="none" stroke="midnightblue" d="M672.223,-33.001C680.818,-31.8432 689.662,-30.6518 698.461,-29.4663"/>
<polygon fill="midnightblue" stroke="midnightblue" points="671.709,-29.5385 662.266,-34.3424 672.644,-36.4759 671.709,-29.5385"/>
</g>
</g>
</svg>
