<?xml version="1.0" encoding="UTF-8" standalone="no"?>
<!DOCTYPE svg PUBLIC "-//W3C//DTD SVG 1.1//EN"
 "http://www.w3.org/Graphics/SVG/1.1/DTD/svg11.dtd">
<!-- Generated by graphviz version 2.26.3 (20100126.1600)
 -->
<!-- Title: Hydrax::GPUNormalMapManager::remove Pages: 1 -->
<!--zoomable 456 -->
<svg id="main" version="1.1" xmlns="http://www.w3.org/2000/svg" xmlns:xlink="http://www.w3.org/1999/xlink" xml:space="preserve" onload="init(evt)">
<style type="text/css"><![CDATA[
.edge:hover path { stroke: red; }
.edge:hover polygon { stroke: red; fill: red; }
]]></style>
<script type="text/javascript"><![CDATA[
var edges = document.getElementsByTagName('g');
if (edges && edges.length) {
  for (var i=0;i<edges.length;i++) {
    if (edges[i].id.substr(0,4)=='edge') {
      edges[i].setAttribute('class','edge');
    }
  }
}
]]></script>
        <defs>
                <circle id="rim" cx="0" cy="0" r="7"/>
                <circle id="rim2" cx="0" cy="0" r="3.5"/>
                <g id="zoomPlus">
                        <use xlink:href="#rim" fill="#404040">
                                <set attributeName="fill" to="#808080" begin="zoomplus.mouseover" end="zoomplus.mouseout"/>
                        </use>
                        <path d="M-4,0h8M0,-4v8" fill="none" stroke="white" stroke-width="1.5" pointer-events="none"/>
                </g>
                <g id="zoomMin">
                        <use xlink:href="#rim" fill="#404040">
                                <set attributeName="fill" to="#808080" begin="zoomminus.mouseover" end="zoomminus.mouseout"/>
                        </use>
                        <path d="M-4,0h8" fill="none" stroke="white" stroke-width="1.5" pointer-events="none"/>
                </g>
                <g id="dirArrow">
                        <path fill="none" stroke="white" stroke-width="1.5" d="M0,-3.0v7 M-2.5,-0.5L0,-3.0L2.5,-0.5"/>
                </g>
               <g id="resetDef">
                       <use xlink:href="#rim2" fill="#404040">
                               <set attributeName="fill" to="#808080" begin="reset.mouseover" end="reset.mouseout"/>
                       </use>
               </g>
        </defs>

<script type="text/javascript">
var viewWidth = 1110;
var viewHeight = 456;
var sectionId = 'dynsection-9';
</script>
<script xlink:href="svgpan.js"/>
<svg id="graph" class="graph">
<g id="viewport">
<title>Hydrax::GPUNormalMapManager::remove</title>
<polygon fill="white" stroke="white" points="-4,5 -4,-452 1107,-452 1107,5 -4,5"/>
<!-- Node1 -->
<g id="node1" class="node"><title>Node1</title>
<polygon fill="#bfbfbf" stroke="black" points="0,-138 0,-172 164,-172 164,-138 0,-138"/>
<text text-anchor="start" x="8" y="-159" font-family="Helvetica,sans-Serif" font-size="10.00">Hydrax::GPUNormalMapManager</text>
<text text-anchor="middle" x="82" y="-146" font-family="Helvetica,sans-Serif" font-size="10.00">::remove</text>
</g>
<!-- Node2 -->
<g id="node3" class="node"><title>Node2</title>
<a xlink:href="class_hydrax_1_1_noise_1_1_noise.html#a59f0e03e88a5de69065838adc35ff2d8" target="_top" xlink:title="Hydrax::Noise::Noise\l::createGPUNormalMapResources">
<polygon fill="white" stroke="black" points="410.5,-180 410.5,-214 579.5,-214 579.5,-180 410.5,-180"/>
<text text-anchor="start" x="418.5" y="-201" font-family="Helvetica,sans-Serif" font-size="10.00">Hydrax::Noise::Noise</text>
<text text-anchor="middle" x="495" y="-188" font-family="Helvetica,sans-Serif" font-size="10.00">::createGPUNormalMapResources</text>
</a>
</g>
<!-- Node1&#45;&gt;Node2 -->
<g id="edge2" class="edge"><title>Node1&#45;&gt;Node2</title>
<path fill="none" stroke="midnightblue" d="M174.314,-164.388C244.938,-171.57 341.551,-181.395 410.229,-188.379"/>
<polygon fill="midnightblue" stroke="midnightblue" points="174.392,-160.878 164.089,-163.348 173.684,-167.842 174.392,-160.878"/>
</g>
<!-- Node17 -->
<g id="node33" class="node"><title>Node17</title>
<a xlink:href="class_hydrax_1_1_noise_1_1_noise.html#a9d3ca345d3f5b629e43ab276236d93b7" target="_top" xlink:title="Hydrax::Noise::Noise\l::removeGPUNormalMapResources">
<polygon fill="white" stroke="black" points="200,-106 200,-140 374,-140 374,-106 200,-106"/>
<text text-anchor="start" x="208" y="-127" font-family="Helvetica,sans-Serif" font-size="10.00">Hydrax::Noise::Noise</text>
<text text-anchor="middle" x="287" y="-114" font-family="Helvetica,sans-Serif" font-size="10.00">::removeGPUNormalMapResources</text>
</a>
</g>
<!-- Node1&#45;&gt;Node17 -->
<g id="edge32" class="edge"><title>Node1&#45;&gt;Node17</title>
<path fill="none" stroke="midnightblue" d="M174.142,-140.617C182.66,-139.287 191.275,-137.942 199.748,-136.62"/>
<polygon fill="midnightblue" stroke="midnightblue" points="173.541,-137.168 164.2,-142.169 174.62,-144.084 173.541,-137.168"/>
</g>
<!-- Node3 -->
<g id="node5" class="node"><title>Node3</title>
<a xlink:href="class_hydrax_1_1_noise_1_1_f_f_t.html#aa8e2b9d2b8307c07be2d2cd9cf115560" target="_top" xlink:title="Hydrax::Noise::FFT\l::createGPUNormalMapResources">
<polygon fill="white" stroke="black" points="616.5,-232 616.5,-266 785.5,-266 785.5,-232 616.5,-232"/>
<text text-anchor="start" x="624.5" y="-253" font-family="Helvetica,sans-Serif" font-size="10.00">Hydrax::Noise::FFT</text>
<text text-anchor="middle" x="701" y="-240" font-family="Helvetica,sans-Serif" font-size="10.00">::createGPUNormalMapResources</text>
</a>
</g>
<!-- Node2&#45;&gt;Node3 -->
<g id="edge4" class="edge"><title>Node2&#45;&gt;Node3</title>
<path fill="none" stroke="midnightblue" d="M572.198,-216.487C592.309,-221.563 613.823,-226.994 633.396,-231.935"/>
<polygon fill="midnightblue" stroke="midnightblue" points="573.005,-213.081 562.452,-214.027 571.291,-219.868 573.005,-213.081"/>
</g>
<!-- Node6 -->
<g id="node11" class="node"><title>Node6</title>
<a xlink:href="class_hydrax_1_1_module_1_1_module.html#af591ded25b7cbba848ec2853402fa91e" target="_top" xlink:title="Hydrax::Module::Module\l::setNoise">
<polygon fill="white" stroke="black" points="639.5,-76 639.5,-110 762.5,-110 762.5,-76 639.5,-76"/>
<text text-anchor="start" x="647.5" y="-97" font-family="Helvetica,sans-Serif" font-size="10.00">Hydrax::Module::Module</text>
<text text-anchor="middle" x="701" y="-84" font-family="Helvetica,sans-Serif" font-size="10.00">::setNoise</text>
</a>
</g>
<!-- Node2&#45;&gt;Node6 -->
<g id="edge10" class="edge"><title>Node2&#45;&gt;Node6</title>
<path fill="none" stroke="midnightblue" d="M564.559,-175.487C569.99,-172.667 575.215,-169.514 580,-166 601.208,-150.425 594.388,-134.009 616,-119 623.098,-114.071 631.158,-110.054 639.42,-106.786"/>
<polygon fill="midnightblue" stroke="midnightblue" points="562.781,-172.458 555.266,-179.926 565.798,-178.774 562.781,-172.458"/>
</g>
<!-- Node7 -->
<g id="node13" class="node"><title>Node7</title>
<a xlink:href="class_hydrax_1_1_noise_1_1_perlin.html#adb347b98692bd7ce6ad7ce76c605d15a" target="_top" xlink:title="Hydrax::Noise::Perlin\l::createGPUNormalMapResources">
<polygon fill="white" stroke="black" points="616.5,-180 616.5,-214 785.5,-214 785.5,-180 616.5,-180"/>
<text text-anchor="start" x="624.5" y="-201" font-family="Helvetica,sans-Serif" font-size="10.00">Hydrax::Noise::Perlin</text>
<text text-anchor="middle" x="701" y="-188" font-family="Helvetica,sans-Serif" font-size="10.00">::createGPUNormalMapResources</text>
</a>
</g>
<!-- Node2&#45;&gt;Node7 -->
<g id="edge12" class="edge"><title>Node2&#45;&gt;Node7</title>
<path fill="none" stroke="midnightblue" d="M589.953,-197C598.748,-197 607.622,-197 616.316,-197"/>
<polygon fill="midnightblue" stroke="midnightblue" points="589.68,-193.5 579.68,-197 589.68,-200.5 589.68,-193.5"/>
</g>
<!-- Node8 -->
<g id="node15" class="node"><title>Node8</title>
<a xlink:href="class_hydrax_1_1_module_1_1_projected_grid.html#a04d04b9cfc173538038a5f51094c1ffa" target="_top" xlink:title="Hydrax::Module::Projected\lGrid::setOptions">
<polygon fill="white" stroke="black" points="634.5,-128 634.5,-162 767.5,-162 767.5,-128 634.5,-128"/>
<text text-anchor="start" x="642.5" y="-149" font-family="Helvetica,sans-Serif" font-size="10.00">Hydrax::Module::Projected</text>
<text text-anchor="middle" x="701" y="-136" font-family="Helvetica,sans-Serif" font-size="10.00">Grid::setOptions</text>
</a>
</g>
<!-- Node2&#45;&gt;Node8 -->
<g id="edge14" class="edge"><title>Node2&#45;&gt;Node8</title>
<path fill="none" stroke="midnightblue" d="M572.35,-177.475C592.78,-172.318 614.648,-166.798 634.451,-161.799"/>
<polygon fill="midnightblue" stroke="midnightblue" points="571.291,-174.132 562.452,-179.973 573.005,-180.919 571.291,-174.132"/>
</g>
<!-- Node11 -->
<g id="node21" class="node"><title>Node11</title>
<a xlink:href="class_hydrax_1_1_module_1_1_radial_grid.html#acfc2ae157df9b6159302a90561ffc038" target="_top" xlink:title="Hydrax::Module::RadialGrid\l::setOptions">
<polygon fill="white" stroke="black" points="632.5,-362 632.5,-396 769.5,-396 769.5,-362 632.5,-362"/>
<text text-anchor="start" x="640.5" y="-383" font-family="Helvetica,sans-Serif" font-size="10.00">Hydrax::Module::RadialGrid</text>
<text text-anchor="middle" x="701" y="-370" font-family="Helvetica,sans-Serif" font-size="10.00">::setOptions</text>
</a>
</g>
<!-- Node2&#45;&gt;Node11 -->
<g id="edge20" class="edge"><title>Node2&#45;&gt;Node11</title>
<path fill="none" stroke="midnightblue" d="M515.091,-222.43C537.757,-250.143 576.621,-294.82 616,-327 632.209,-340.245 652.084,-352.587 668.54,-361.92"/>
<polygon fill="midnightblue" stroke="midnightblue" points="517.607,-219.975 508.594,-214.406 512.167,-224.381 517.607,-219.975"/>
</g>
<!-- Node14 -->
<g id="node27" class="node"><title>Node14</title>
<a xlink:href="class_hydrax_1_1_module_1_1_simple_grid.html#a6b83cb95b2803b068a53bf76afaa9ac4" target="_top" xlink:title="Hydrax::Module::SimpleGrid\l::setOptions">
<polygon fill="white" stroke="black" points="631,-284 631,-318 771,-318 771,-284 631,-284"/>
<text text-anchor="start" x="639" y="-305" font-family="Helvetica,sans-Serif" font-size="10.00">Hydrax::Module::SimpleGrid</text>
<text text-anchor="middle" x="701" y="-292" font-family="Helvetica,sans-Serif" font-size="10.00">::setOptions</text>
</a>
</g>
<!-- Node2&#45;&gt;Node14 -->
<g id="edge26" class="edge"><title>Node2&#45;&gt;Node14</title>
<path fill="none" stroke="midnightblue" d="M525.772,-220.238C549.442,-237.25 583.495,-259.907 616,-275 622.998,-278.25 630.505,-281.222 638.055,-283.901"/>
<polygon fill="midnightblue" stroke="midnightblue" points="527.689,-217.305 517.544,-214.251 523.57,-222.965 527.689,-217.305"/>
</g>
<!-- Node4 -->
<g id="node7" class="node"><title>Node4</title>
<a xlink:href="class_hydrax_1_1_noise_1_1_f_f_t.html#a1d7ec06eb11cda608cc8f73256c35be5" target="_top" xlink:title="Hydrax::Noise::FFT\l::setOptions">
<polygon fill="white" stroke="black" points="840,-206 840,-240 944,-240 944,-206 840,-206"/>
<text text-anchor="start" x="848" y="-227" font-family="Helvetica,sans-Serif" font-size="10.00">Hydrax::Noise::FFT</text>
<text text-anchor="middle" x="892" y="-214" font-family="Helvetica,sans-Serif" font-size="10.00">::setOptions</text>
</a>
</g>
<!-- Node3&#45;&gt;Node4 -->
<g id="edge6" class="edge"><title>Node3&#45;&gt;Node4</title>
<path fill="none" stroke="midnightblue" d="M795.598,-236.123C810.828,-234.05 826.089,-231.972 839.832,-230.101"/>
<polygon fill="midnightblue" stroke="midnightblue" points="795.046,-232.666 785.609,-237.482 795.99,-239.602 795.046,-232.666"/>
</g>
<!-- Node5 -->
<g id="node9" class="node"><title>Node5</title>
<a xlink:href="class_hydrax_1_1_noise_1_1_f_f_t.html#a64245b9e56eeb8627ac3f5260dc203dd" target="_top" xlink:title="Hydrax::Noise::FFT\l::loadCfg">
<polygon fill="white" stroke="black" points="998,-206 998,-240 1102,-240 1102,-206 998,-206"/>
<text text-anchor="start" x="1006" y="-227" font-family="Helvetica,sans-Serif" font-size="10.00">Hydrax::Noise::FFT</text>
<text text-anchor="middle" x="1050" y="-214" font-family="Helvetica,sans-Serif" font-size="10.00">::loadCfg</text>
</a>
</g>
<!-- Node4&#45;&gt;Node5 -->
<g id="edge8" class="edge"><title>Node4&#45;&gt;Node5</title>
<path fill="none" stroke="midnightblue" d="M954.478,-223C968.856,-223 983.998,-223 997.882,-223"/>
<polygon fill="midnightblue" stroke="midnightblue" points="954.173,-219.5 944.173,-223 954.173,-226.5 954.173,-219.5"/>
</g>
<!-- Node9 -->
<g id="node17" class="node"><title>Node9</title>
<a xlink:href="class_hydrax_1_1_module_1_1_projected_grid.html#aa9308990b99866cbd09edd3600972443" target="_top" xlink:title="Hydrax::Module::Projected\lGrid::ProjectedGrid">
<polygon fill="white" stroke="black" points="825.5,-89 825.5,-123 958.5,-123 958.5,-89 825.5,-89"/>
<text text-anchor="start" x="833.5" y="-110" font-family="Helvetica,sans-Serif" font-size="10.00">Hydrax::Module::Projected</text>
<text text-anchor="middle" x="892" y="-97" font-family="Helvetica,sans-Serif" font-size="10.00">Grid::ProjectedGrid</text>
</a>
</g>
<!-- Node8&#45;&gt;Node9 -->
<g id="edge16" class="edge"><title>Node8&#45;&gt;Node9</title>
<path fill="none" stroke="midnightblue" d="M777.773,-129.324C793.537,-126.105 810.01,-122.741 825.381,-119.603"/>
<polygon fill="midnightblue" stroke="midnightblue" points="776.632,-125.985 767.534,-131.414 778.032,-132.843 776.632,-125.985"/>
</g>
<!-- Node10 -->
<g id="node19" class="node"><title>Node10</title>
<a xlink:href="class_hydrax_1_1_module_1_1_projected_grid.html#af951c58cc93cf75d57e69aa14a668d3e" target="_top" xlink:title="Hydrax::Module::Projected\lGrid::loadCfg">
<polygon fill="white" stroke="black" points="825.5,-141 825.5,-175 958.5,-175 958.5,-141 825.5,-141"/>
<text text-anchor="start" x="833.5" y="-162" font-family="Helvetica,sans-Serif" font-size="10.00">Hydrax::Module::Projected</text>
<text text-anchor="middle" x="892" y="-149" font-family="Helvetica,sans-Serif" font-size="10.00">Grid::loadCfg</text>
</a>
</g>
<!-- Node8&#45;&gt;Node10 -->
<g id="edge18" class="edge"><title>Node8&#45;&gt;Node10</title>
<path fill="none" stroke="midnightblue" d="M777.773,-150.225C793.537,-151.298 810.01,-152.42 825.381,-153.466"/>
<polygon fill="midnightblue" stroke="midnightblue" points="777.749,-146.716 767.534,-149.529 777.274,-153.7 777.749,-146.716"/>
</g>
<!-- Node12 -->
<g id="node23" class="node"><title>Node12</title>
<a xlink:href="class_hydrax_1_1_module_1_1_radial_grid.html#abc52ff8727a537d5303fabc1179fa45f" target="_top" xlink:title="Hydrax::Module::RadialGrid\l::RadialGrid">
<polygon fill="white" stroke="black" points="823.5,-362 823.5,-396 960.5,-396 960.5,-362 823.5,-362"/>
<text text-anchor="start" x="831.5" y="-383" font-family="Helvetica,sans-Serif" font-size="10.00">Hydrax::Module::RadialGrid</text>
<text text-anchor="middle" x="892" y="-370" font-family="Helvetica,sans-Serif" font-size="10.00">::RadialGrid</text>
</a>
</g>
<!-- Node11&#45;&gt;Node12 -->
<g id="edge22" class="edge"><title>Node11&#45;&gt;Node12</title>
<path fill="none" stroke="midnightblue" d="M780.029,-379C794.385,-379 809.253,-379 823.282,-379"/>
<polygon fill="midnightblue" stroke="midnightblue" points="779.686,-375.5 769.686,-379 779.686,-382.5 779.686,-375.5"/>
</g>
<!-- Node13 -->
<g id="node25" class="node"><title>Node13</title>
<a xlink:href="class_hydrax_1_1_module_1_1_radial_grid.html#a31b3bab8e74f2f1e316a1800470ac685" target="_top" xlink:title="Hydrax::Module::RadialGrid\l::loadCfg">
<polygon fill="white" stroke="black" points="823.5,-414 823.5,-448 960.5,-448 960.5,-414 823.5,-414"/>
<text text-anchor="start" x="831.5" y="-435" font-family="Helvetica,sans-Serif" font-size="10.00">Hydrax::Module::RadialGrid</text>
<text text-anchor="middle" x="892" y="-422" font-family="Helvetica,sans-Serif" font-size="10.00">::loadCfg</text>
</a>
</g>
<!-- Node11&#45;&gt;Node13 -->
<g id="edge24" class="edge"><title>Node11&#45;&gt;Node13</title>
<path fill="none" stroke="midnightblue" d="M773.34,-398.695C791.767,-403.712 811.419,-409.062 829.319,-413.935"/>
<polygon fill="midnightblue" stroke="midnightblue" points="774.109,-395.277 763.541,-396.027 772.27,-402.031 774.109,-395.277"/>
</g>
<!-- Node15 -->
<g id="node29" class="node"><title>Node15</title>
<a xlink:href="class_hydrax_1_1_module_1_1_simple_grid.html#aae091cd103798dcc8f8b92af7dbfccef" target="_top" xlink:title="Hydrax::Module::SimpleGrid\l::SimpleGrid">
<polygon fill="white" stroke="black" points="822,-258 822,-292 962,-292 962,-258 822,-258"/>
<text text-anchor="start" x="830" y="-279" font-family="Helvetica,sans-Serif" font-size="10.00">Hydrax::Module::SimpleGrid</text>
<text text-anchor="middle" x="892" y="-266" font-family="Helvetica,sans-Serif" font-size="10.00">::SimpleGrid</text>
</a>
</g>
<!-- Node14&#45;&gt;Node15 -->
<g id="edge28" class="edge"><title>Node14&#45;&gt;Node15</title>
<path fill="none" stroke="midnightblue" d="M781.276,-290.072C794.798,-288.232 808.737,-286.334 821.972,-284.533"/>
<polygon fill="midnightblue" stroke="midnightblue" points="780.473,-286.649 771.037,-291.466 781.418,-293.585 780.473,-286.649"/>
</g>
<!-- Node16 -->
<g id="node31" class="node"><title>Node16</title>
<a xlink:href="class_hydrax_1_1_module_1_1_simple_grid.html#a3741ec1a3df1863e730711fd9d3b14e1" target="_top" xlink:title="Hydrax::Module::SimpleGrid\l::loadCfg">
<polygon fill="white" stroke="black" points="822,-310 822,-344 962,-344 962,-310 822,-310"/>
<text text-anchor="start" x="830" y="-331" font-family="Helvetica,sans-Serif" font-size="10.00">Hydrax::Module::SimpleGrid</text>
<text text-anchor="middle" x="892" y="-318" font-family="Helvetica,sans-Serif" font-size="10.00">::loadCfg</text>
</a>
</g>
<!-- Node14&#45;&gt;Node16 -->
<g id="edge30" class="edge"><title>Node14&#45;&gt;Node16</title>
<path fill="none" stroke="midnightblue" d="M781.276,-311.928C794.798,-313.768 808.737,-315.666 821.972,-317.467"/>
<polygon fill="midnightblue" stroke="midnightblue" points="781.418,-308.415 771.037,-310.534 780.473,-315.351 781.418,-308.415"/>
</g>
<!-- Node17&#45;&gt;Node2 -->
<g id="edge38" class="edge"><title>Node17&#45;&gt;Node2</title>
<path fill="none" stroke="midnightblue" d="M344.703,-143.529C376.859,-154.969 416.434,-169.048 446.901,-179.888"/>
<polygon fill="midnightblue" stroke="midnightblue" points="345.575,-140.124 334.981,-140.07 343.229,-146.719 345.575,-140.124"/>
</g>
<!-- Node17&#45;&gt;Node6 -->
<g id="edge36" class="edge"><title>Node17&#45;&gt;Node6</title>
<path fill="none" stroke="midnightblue" d="M384.43,-132.309C441.664,-135.877 515.255,-137.176 580,-128 586.847,-127.03 616.473,-118.472 644.693,-110.063"/>
<polygon fill="midnightblue" stroke="midnightblue" points="384.512,-128.807 374.304,-131.644 384.052,-135.792 384.512,-128.807"/>
</g>
<!-- Node18 -->
<g id="node35" class="node"><title>Node18</title>
<a xlink:href="class_hydrax_1_1_noise_1_1_f_f_t.html#a9567d90d8fae8dbd74d05d1e3b8281e4" target="_top" xlink:title="Hydrax::Noise::FFT\l::remove">
<polygon fill="white" stroke="black" points="443,-52 443,-86 547,-86 547,-52 443,-52"/>
<text text-anchor="start" x="451" y="-73" font-family="Helvetica,sans-Serif" font-size="10.00">Hydrax::Noise::FFT</text>
<text text-anchor="middle" x="495" y="-60" font-family="Helvetica,sans-Serif" font-size="10.00">::remove</text>
</a>
</g>
<!-- Node17&#45;&gt;Node18 -->
<g id="edge34" class="edge"><title>Node17&#45;&gt;Node18</title>
<path fill="none" stroke="midnightblue" d="M362.254,-103.463C389.035,-96.5102 418.575,-88.8411 442.977,-82.5061"/>
<polygon fill="midnightblue" stroke="midnightblue" points="361.327,-100.088 352.527,-105.988 363.086,-106.863 361.327,-100.088"/>
</g>
<!-- Node19 -->
<g id="node39" class="node"><title>Node19</title>
<a xlink:href="class_hydrax_1_1_noise_1_1_perlin.html#a666010a5142bbb2b03c97aa5aa7bdef1" target="_top" xlink:title="Hydrax::Noise::Perlin\l::remove">
<polygon fill="white" stroke="black" points="440,-0 440,-34 550,-34 550,-0 440,-0"/>
<text text-anchor="start" x="448" y="-21" font-family="Helvetica,sans-Serif" font-size="10.00">Hydrax::Noise::Perlin</text>
<text text-anchor="middle" x="495" y="-8" font-family="Helvetica,sans-Serif" font-size="10.00">::remove</text>
</a>
</g>
<!-- Node17&#45;&gt;Node19 -->
<g id="edge40" class="edge"><title>Node17&#45;&gt;Node19</title>
<path fill="none" stroke="midnightblue" d="M317.357,-99.7964C341.432,-82.2703 376.491,-58.6427 410,-43 419.369,-38.6265 429.656,-34.7613 439.739,-31.4379"/>
<polygon fill="midnightblue" stroke="midnightblue" points="314.981,-97.2003 309.008,-105.951 319.134,-102.835 314.981,-97.2003"/>
</g>
<!-- Node20 -->
<g id="node41" class="node"><title>Node20</title>
<a xlink:href="class_hydrax_1_1_noise_1_1_real.html#a2d87dc48e9afca9c4f220ae2ef57aed0" target="_top" xlink:title="Hydrax::Noise::Real\l::remove">
<polygon fill="white" stroke="black" points="648,-12 648,-46 754,-46 754,-12 648,-12"/>
<text text-anchor="start" x="656" y="-33" font-family="Helvetica,sans-Serif" font-size="10.00">Hydrax::Noise::Real</text>
<text text-anchor="middle" x="701" y="-20" font-family="Helvetica,sans-Serif" font-size="10.00">::remove</text>
</a>
</g>
<!-- Node17&#45;&gt;Node20 -->
<g id="edge44" class="edge"><title>Node17&#45;&gt;Node20</title>
<path fill="none" stroke="midnightblue" d="M384.271,-127.165C442.88,-126.436 517.936,-119.657 580,-95 598.838,-87.5162 598.622,-77.434 616,-67 628.888,-59.2617 643.63,-52.1307 657.178,-46.1871"/>
<polygon fill="midnightblue" stroke="midnightblue" points="384.246,-123.665 374.27,-127.233 384.294,-130.664 384.246,-123.665"/>
</g>
<!-- Node19&#45;&gt;Node20 -->
<g id="edge42" class="edge"><title>Node19&#45;&gt;Node20</title>
<path fill="none" stroke="midnightblue" d="M560.372,-20.8081C588.557,-22.4499 621.101,-24.3457 647.778,-25.8997"/>
<polygon fill="midnightblue" stroke="midnightblue" points="560.391,-17.3033 550.204,-20.2158 559.984,-24.2915 560.391,-17.3033"/>
</g>
</g>
</svg>
        <g id="navigator" transform="translate(0 0)" fill="#404254">
                <rect fill="#f2f5e9" fill-opacity="0.5" stroke="#606060" stroke-width=".5" x="0" y="0" width="60" height="60"/>
                <use id="zoomplus" xlink:href="#zoomPlus" x="17" y="9" onmousedown="handleZoom(evt,'in')"/>
                <use id="zoomminus" xlink:href="#zoomMin" x="42" y="9" onmousedown="handleZoom(evt,'out')"/>
                <use id="reset" xlink:href="#resetDef" x="30" y="36" onmousedown="handleReset()"/>
                <g id="arrowUp" xlink:href="#dirArrow" transform="translate(30 24)" onmousedown="handlePan(0,-1)">
                  <use xlink:href="#rim" fill="#404040">
                        <set attributeName="fill" to="#808080" begin="arrowUp.mouseover" end="arrowUp.mouseout"/>
                  </use>
                  <path fill="none" stroke="white" stroke-width="1.5" d="M0,-3.0v7 M-2.5,-0.5L0,-3.0L2.5,-0.5"/>
                </g>
                <g id="arrowRight" xlink:href="#dirArrow" transform="rotate(90) translate(36 -43)" onmousedown="handlePan(1,0)">
                  <use xlink:href="#rim" fill="#404040">
                        <set attributeName="fill" to="#808080" begin="arrowRight.mouseover" end="arrowRight.mouseout"/>
                  </use>
                  <path fill="none" stroke="white" stroke-width="1.5" d="M0,-3.0v7 M-2.5,-0.5L0,-3.0L2.5,-0.5"/>
                </g>
                <g id="arrowDown" xlink:href="#dirArrow" transform="rotate(180) translate(-30 -48)" onmousedown="handlePan(0,1)">
                  <use xlink:href="#rim" fill="#404040">
                        <set attributeName="fill" to="#808080" begin="arrowDown.mouseover" end="arrowDown.mouseout"/>
                  </use>
                  <path fill="none" stroke="white" stroke-width="1.5" d="M0,-3.0v7 M-2.5,-0.5L0,-3.0L2.5,-0.5"/>
                </g>
                <g id="arrowLeft" xlink:href="#dirArrow" transform="rotate(270) translate(-36 17)" onmousedown="handlePan(-1,0)">
                  <use xlink:href="#rim" fill="#404040">
                        <set attributeName="fill" to="#808080" begin="arrowLeft.mouseover" end="arrowLeft.mouseout"/>
                  </use>
                  <path fill="none" stroke="white" stroke-width="1.5" d="M0,-3.0v7 M-2.5,-0.5L0,-3.0L2.5,-0.5"/>
                </g>
        </g>
        <svg viewBox="0 0 15 15" width="100%" height="30px" preserveAspectRatio="xMaxYMin meet">
         <g id="arrow_out" transform="scale(0.3 0.3)">
          <a xlink:href="class_hydrax_1_1_g_p_u_normal_map_manager_a3a9a24e5832aaa24f78025d1ba04f8a3_icgraph_org.svg" target="_base">
           <rect id="button" ry="5" rx="5" y="6" x="6" height="38" width="38"
                fill="#f2f5e9" fill-opacity="0.5" stroke="#606060" stroke-width="1.0"/>
           <path id="arrow"
             d="M 11.500037,31.436501 C 11.940474,20.09759 22.043105,11.32322 32.158766,21.979434 L 37.068811,17.246167 C 37.068811,17.246167 37.088388,32 37.088388,32 L 22.160133,31.978069 C 22.160133,31.978069 26.997745,27.140456 26.997745,27.140456 C 18.528582,18.264221 13.291696,25.230495 11.500037,31.436501 z"
             style="fill:#404040;"/>
          </a>
         </g>
        </svg>
</svg>
