<?xml version="1.0" encoding="UTF-8" standalone="no"?>
<!DOCTYPE svg PUBLIC "-//W3C//DTD SVG 1.1//EN"
 "http://www.w3.org/Graphics/SVG/1.1/DTD/svg11.dtd">
<!-- Generated by graphviz version 2.26.3 (20100126.1600)
 -->
<!-- Title: G Pages: 1 -->
<!--zoomable 110 -->
<svg id="main" version="1.1" xmlns="http://www.w3.org/2000/svg" xmlns:xlink="http://www.w3.org/1999/xlink" xml:space="preserve" onload="init(evt)">
        <defs>
                <circle id="rim" cx="0" cy="0" r="7"/>
                <circle id="rim2" cx="0" cy="0" r="3.5"/>
                <g id="zoomPlus">
                        <use xlink:href="#rim" fill="#404040">
                                <set attributeName="fill" to="#808080" begin="zoomplus.mouseover" end="zoomplus.mouseout"/>
                        </use>
                        <path d="M-4,0h8M0,-4v8" fill="none" stroke="white" stroke-width="1.5" pointer-events="none"/>
                </g>
                <g id="zoomMin">
                        <use xlink:href="#rim" fill="#404040">
                                <set attributeName="fill" to="#808080" begin="zoomminus.mouseover" end="zoomminus.mouseout"/>
                        </use>
                        <path d="M-4,0h8" fill="none" stroke="white" stroke-width="1.5" pointer-events="none"/>
                </g>
                <g id="dirArrow">
                        <path fill="none" stroke="white" stroke-width="1.5" d="M0,-3.0v7 M-2.5,-0.5L0,-3.0L2.5,-0.5"/>
                </g>
               <g id="resetDef">
                       <use xlink:href="#rim2" fill="#404040">
                               <set attributeName="fill" to="#808080" begin="reset.mouseover" end="reset.mouseout"/>
                       </use>
               </g>
        </defs>

<script type="text/javascript">
var viewWidth = 1108;
var viewHeight = 110;
var sectionId = 'dynsection-6';
</script>
<script xlink:href="svgpan.js"/>
<svg id="graph" class="graph">
<g id="viewport">
<title>G</title>
<polygon fill="white" stroke="white" points="-4,5 -4,-106 1105,-106 1105,5 -4,5"/>
<!-- Node1 -->
<g id="node1" class="node"><title>Node1</title>
<polygon fill="#bfbfbf" stroke="black" points="0.5,-40.5 0.5,-61.5 109.5,-61.5 109.5,-40.5 0.5,-40.5"/>
<text text-anchor="middle" x="55" y="-48.5" font-family="Helvetica,sans-Serif" font-size="10.00">InputEngine::Capture</text>
</g>
<!-- Node2 -->
<g id="node3" class="node"><title>Node2</title>
<a xlink:href="class_ro_r_frame_listener.html#acd8647e188fb8e838689492965b86faf" target="_top" xlink:title="RoRFrameListener::frameStarted">
<polygon fill="white" stroke="black" points="164.5,-80.5 164.5,-101.5 325.5,-101.5 325.5,-80.5 164.5,-80.5"/>
<text text-anchor="middle" x="245" y="-88.5" font-family="Helvetica,sans-Serif" font-size="10.00">RoRFrameListener::frameStarted</text>
</a>
</g>
<!-- Node1&#45;&gt;Node2 -->
<g id="edge2" class="edge"><title>Node1&#45;&gt;Node2</title>
<path fill="none" stroke="midnightblue" d="M112.295,-63.7477C123.466,-66.1892 135.094,-68.7001 146,-71 160.927,-74.1478 177.142,-77.466 192.046,-80.4752"/>
<polygon fill="midnightblue" stroke="midnightblue" points="112.716,-60.2569 102.198,-61.533 111.216,-67.0943 112.716,-60.2569"/>
</g>
<!-- Node3 -->
<g id="node5" class="node"><title>Node3</title>
<a xlink:href="class_ro_r_1_1_main_thread.html#ab48ab040ee463287f7953eef17ad4c62" target="_top" xlink:title="RoR::MainThread::MainMenuLoopUpdate">
<polygon fill="white" stroke="black" points="146.5,-40.5 146.5,-61.5 343.5,-61.5 343.5,-40.5 146.5,-40.5"/>
<text text-anchor="middle" x="245" y="-48.5" font-family="Helvetica,sans-Serif" font-size="10.00">RoR::MainThread::MainMenuLoopUpdate</text>
</a>
</g>
<!-- Node1&#45;&gt;Node3 -->
<g id="edge4" class="edge"><title>Node1&#45;&gt;Node3</title>
<path fill="none" stroke="midnightblue" d="M119.905,-51C128.434,-51 137.325,-51 146.259,-51"/>
<polygon fill="midnightblue" stroke="midnightblue" points="119.701,-47.5001 109.701,-51 119.701,-54.5001 119.701,-47.5001"/>
</g>
<!-- Node9 -->
<g id="node17" class="node"><title>Node9</title>
<a xlink:href="class_ro_r_1_1_rig_editor_1_1_main.html#abe2179248ae5a8d9fc4a8ed136a18c46" target="_top" xlink:title="RoR::RigEditor::Main::UpdateMainLoop">
<polygon fill="white" stroke="black" points="150,-0.5 150,-21.5 340,-21.5 340,-0.5 150,-0.5"/>
<text text-anchor="middle" x="245" y="-8.5" font-family="Helvetica,sans-Serif" font-size="10.00">RoR::RigEditor::Main::UpdateMainLoop</text>
</a>
</g>
<!-- Node1&#45;&gt;Node9 -->
<g id="edge16" class="edge"><title>Node1&#45;&gt;Node9</title>
<path fill="none" stroke="midnightblue" d="M112.295,-38.2523C123.466,-35.8108 135.094,-33.2999 146,-31 160.927,-27.8522 177.142,-24.534 192.046,-21.5248"/>
<polygon fill="midnightblue" stroke="midnightblue" points="111.216,-34.9057 102.198,-40.467 112.716,-41.7431 111.216,-34.9057"/>
</g>
<!-- Node4 -->
<g id="node7" class="node"><title>Node4</title>
<a xlink:href="class_ro_r_1_1_main_thread.html#a0be80b570e45a4de035b1f1b9684497c" target="_top" xlink:title="RoR::MainThread::EnterMainMenuLoop">
<polygon fill="white" stroke="black" points="380.5,-40.5 380.5,-61.5 569.5,-61.5 569.5,-40.5 380.5,-40.5"/>
<text text-anchor="middle" x="475" y="-48.5" font-family="Helvetica,sans-Serif" font-size="10.00">RoR::MainThread::EnterMainMenuLoop</text>
</a>
</g>
<!-- Node3&#45;&gt;Node4 -->
<g id="edge6" class="edge"><title>Node3&#45;&gt;Node4</title>
<path fill="none" stroke="midnightblue" d="M353.588,-51C362.517,-51 371.496,-51 380.312,-51"/>
<polygon fill="midnightblue" stroke="midnightblue" points="353.542,-47.5001 343.542,-51 353.542,-54.5001 353.542,-47.5001"/>
</g>
<!-- Node5 -->
<g id="node9" class="node"><title>Node5</title>
<a xlink:href="class_ro_r_1_1_main_thread.html#a7e4d0bd23a40e509892883af75ea0dbf" target="_top" xlink:title="RoR::MainThread::Go">
<polygon fill="white" stroke="black" points="606.5,-20.5 606.5,-41.5 719.5,-41.5 719.5,-20.5 606.5,-20.5"/>
<text text-anchor="middle" x="663" y="-28.5" font-family="Helvetica,sans-Serif" font-size="10.00">RoR::MainThread::Go</text>
</a>
</g>
<!-- Node4&#45;&gt;Node5 -->
<g id="edge8" class="edge"><title>Node4&#45;&gt;Node5</title>
<path fill="none" stroke="midnightblue" d="M579.586,-39.8738C588.8,-38.8936 597.877,-37.928 606.456,-37.0153"/>
<polygon fill="midnightblue" stroke="midnightblue" points="579.124,-36.4031 569.551,-40.9414 579.865,-43.3638 579.124,-36.4031"/>
</g>
<!-- Node6 -->
<g id="node11" class="node"><title>Node6</title>
<a xlink:href="main_2main__sim_2main_8cpp.html#a0ddf1224851353fc92bfbff6f499fa97" target="_top" xlink:title="main">
<polygon fill="white" stroke="black" points="822,-40.5 822,-61.5 860,-61.5 860,-40.5 822,-40.5"/>
<text text-anchor="middle" x="841" y="-48.5" font-family="Helvetica,sans-Serif" font-size="10.00">main</text>
</a>
</g>
<!-- Node5&#45;&gt;Node6 -->
<g id="edge10" class="edge"><title>Node5&#45;&gt;Node6</title>
<path fill="none" stroke="midnightblue" d="M729.834,-38.5095C762.649,-42.1966 799.758,-46.3661 821.723,-48.8341"/>
<polygon fill="midnightblue" stroke="midnightblue" points="730.138,-35.0217 719.81,-37.3831 729.356,-41.9779 730.138,-35.0217"/>
</g>
<!-- Node7 -->
<g id="node13" class="node"><title>Node7</title>
<a xlink:href="class_ro_r_1_1_main_thread.html#a7a2db954fd2f35d63982d8603d2b9614" target="_top" xlink:title="RoR::MainThread::RequestRestart">
<polygon fill="white" stroke="black" points="756.5,-0.5 756.5,-21.5 925.5,-21.5 925.5,-0.5 756.5,-0.5"/>
<text text-anchor="middle" x="841" y="-8.5" font-family="Helvetica,sans-Serif" font-size="10.00">RoR::MainThread::RequestRestart</text>
</a>
</g>
<!-- Node5&#45;&gt;Node7 -->
<g id="edge12" class="edge"><title>Node5&#45;&gt;Node7</title>
<path fill="none" stroke="midnightblue" d="M729.775,-23.4972C738.399,-22.5283 747.319,-21.5259 756.185,-20.5298"/>
<polygon fill="midnightblue" stroke="midnightblue" points="729.356,-20.0221 719.81,-24.6169 730.138,-26.9783 729.356,-20.0221"/>
</g>
<!-- Node8 -->
<g id="node15" class="node"><title>Node8</title>
<a xlink:href="class_ro_r_frame_listener.html#af2779b96aa0f91920bd100bc30261402" target="_top" xlink:title="RoRFrameListener::Restart">
<polygon fill="white" stroke="black" points="962.5,-0.5 962.5,-21.5 1099.5,-21.5 1099.5,-0.5 962.5,-0.5"/>
<text text-anchor="middle" x="1031" y="-8.5" font-family="Helvetica,sans-Serif" font-size="10.00">RoRFrameListener::Restart</text>
</a>
</g>
<!-- Node7&#45;&gt;Node8 -->
<g id="edge14" class="edge"><title>Node7&#45;&gt;Node8</title>
<path fill="none" stroke="midnightblue" d="M935.821,-11C944.783,-11 953.748,-11 962.395,-11"/>
<polygon fill="midnightblue" stroke="midnightblue" points="935.72,-7.5001 925.72,-11 935.72,-14.5001 935.72,-7.5001"/>
</g>
<!-- Node10 -->
<g id="node19" class="node"><title>Node10</title>
<a xlink:href="class_ro_r_1_1_rig_editor_1_1_main.html#a8cd11f0150b5e247b6d9f00212d42b0d" target="_top" xlink:title="RoR::RigEditor::Main::EnterMainLoop">
<polygon fill="white" stroke="black" points="384,-0.5 384,-21.5 566,-21.5 566,-0.5 384,-0.5"/>
<text text-anchor="middle" x="475" y="-8.5" font-family="Helvetica,sans-Serif" font-size="10.00">RoR::RigEditor::Main::EnterMainLoop</text>
</a>
</g>
<!-- Node9&#45;&gt;Node10 -->
<g id="edge18" class="edge"><title>Node9&#45;&gt;Node10</title>
<path fill="none" stroke="midnightblue" d="M350.435,-11C361.62,-11 372.926,-11 383.927,-11"/>
<polygon fill="midnightblue" stroke="midnightblue" points="350.21,-7.5001 340.21,-11 350.21,-14.5001 350.21,-7.5001"/>
</g>
<!-- Node10&#45;&gt;Node5 -->
<g id="edge20" class="edge"><title>Node10&#45;&gt;Node5</title>
<path fill="none" stroke="midnightblue" d="M576.487,-21.7965C586.706,-22.8836 596.807,-23.9582 606.301,-24.9682"/>
<polygon fill="midnightblue" stroke="midnightblue" points="576.561,-18.2847 566.246,-20.7071 575.82,-25.2454 576.561,-18.2847"/>
</g>
</g>
</svg>
        <g id="navigator" transform="translate(0 0)" fill="#404254">
                <rect fill="#f2f5e9" fill-opacity="0.5" stroke="#606060" stroke-width=".5" x="0" y="0" width="60" height="60"/>
                <use id="zoomplus" xlink:href="#zoomPlus" x="17" y="9" onmousedown="handleZoom(evt,'in')"/>
                <use id="zoomminus" xlink:href="#zoomMin" x="42" y="9" onmousedown="handleZoom(evt,'out')"/>
                <use id="reset" xlink:href="#resetDef" x="30" y="36" onmousedown="handleReset()"/>
                <g id="arrowUp" xlink:href="#dirArrow" transform="translate(30 24)" onmousedown="handlePan(0,-1)">
                  <use xlink:href="#rim" fill="#404040">
                        <set attributeName="fill" to="#808080" begin="arrowUp.mouseover" end="arrowUp.mouseout"/>
                  </use>
                  <path fill="none" stroke="white" stroke-width="1.5" d="M0,-3.0v7 M-2.5,-0.5L0,-3.0L2.5,-0.5"/>
                </g>
                <g id="arrowRight" xlink:href="#dirArrow" transform="rotate(90) translate(36 -43)" onmousedown="handlePan(1,0)">
                  <use xlink:href="#rim" fill="#404040">
                        <set attributeName="fill" to="#808080" begin="arrowRight.mouseover" end="arrowRight.mouseout"/>
                  </use>
                  <path fill="none" stroke="white" stroke-width="1.5" d="M0,-3.0v7 M-2.5,-0.5L0,-3.0L2.5,-0.5"/>
                </g>
                <g id="arrowDown" xlink:href="#dirArrow" transform="rotate(180) translate(-30 -48)" onmousedown="handlePan(0,1)">
                  <use xlink:href="#rim" fill="#404040">
                        <set attributeName="fill" to="#808080" begin="arrowDown.mouseover" end="arrowDown.mouseout"/>
                  </use>
                  <path fill="none" stroke="white" stroke-width="1.5" d="M0,-3.0v7 M-2.5,-0.5L0,-3.0L2.5,-0.5"/>
                </g>
                <g id="arrowLeft" xlink:href="#dirArrow" transform="rotate(270) translate(-36 17)" onmousedown="handlePan(-1,0)">
                  <use xlink:href="#rim" fill="#404040">
                        <set attributeName="fill" to="#808080" begin="arrowLeft.mouseover" end="arrowLeft.mouseout"/>
                  </use>
                  <path fill="none" stroke="white" stroke-width="1.5" d="M0,-3.0v7 M-2.5,-0.5L0,-3.0L2.5,-0.5"/>
                </g>
        </g>
</svg>
