<?xml version="1.0" encoding="UTF-8" standalone="no"?>
<!DOCTYPE svg PUBLIC "-//W3C//DTD SVG 1.1//EN"
 "http://www.w3.org/Graphics/SVG/1.1/DTD/svg11.dtd">
<!-- Generated by graphviz version 2.26.3 (20100126.1600)
 -->
<!-- Title: RoR::FlexBodyFileIO::WriteFlexbodyNormalsBuffer Pages: 1 -->
<svg width="510pt" height="42pt"
 viewBox="0.00 0.00 510.00 42.00" xmlns="http://www.w3.org/2000/svg" xmlns:xlink="http://www.w3.org/1999/xlink">
<g id="graph1" class="graph" transform="scale(1 1) rotate(0) translate(4 38)">
<title>RoR::FlexBodyFileIO::WriteFlexbodyNormalsBuffer</title>
<polygon fill="white" stroke="white" points="-4,5 -4,-38 507,-38 507,5 -4,5"/>
<!-- Node1 -->
<g id="node1" class="node"><title>Node1</title>
<polygon fill="#bfbfbf" stroke="black" points="0.5,-0 0.5,-34 149.5,-34 149.5,-0 0.5,-0"/>
<text text-anchor="start" x="8.5" y="-21" font-family="Helvetica,sans-Serif" font-size="10.00">RoR::FlexBodyFileIO</text>
<text text-anchor="middle" x="75" y="-8" font-family="Helvetica,sans-Serif" font-size="10.00">::WriteFlexbodyNormalsBuffer</text>
</g>
<!-- Node2 -->
<g id="node3" class="node"><title>Node2</title>
<a xlink:href="class_ro_r_1_1_flex_body_file_i_o.html#a740a4ce57abf708b823cb5f3f196cc9a" target="_top" xlink:title="RoR::FlexBodyFileIO\l::SaveFile">
<polygon fill="white" stroke="black" points="186,-0 186,-34 296,-34 296,-0 186,-0"/>
<text text-anchor="start" x="194" y="-21" font-family="Helvetica,sans-Serif" font-size="10.00">RoR::FlexBodyFileIO</text>
<text text-anchor="middle" x="241" y="-8" font-family="Helvetica,sans-Serif" font-size="10.00">::SaveFile</text>
</a>
</g>
<!-- Node1&#45;&gt;Node2 -->
<g id="edge2" class="edge"><title>Node1&#45;&gt;Node2</title>
<path fill="none" stroke="midnightblue" d="M159.943,-17C168.638,-17 177.305,-17 185.562,-17"/>
<polygon fill="midnightblue" stroke="midnightblue" points="159.745,-13.5001 149.745,-17 159.745,-20.5001 159.745,-13.5001"/>
</g>
<!-- Node3 -->
<g id="node5" class="node"><title>Node3</title>
<a xlink:href="class_ro_r_1_1_flex_factory.html#a41be7fb73ef6ebf7535855007976b807" target="_top" xlink:title="RoR::FlexFactory::SaveFlexbodies\lToCache">
<polygon fill="white" stroke="black" points="332,-0 332,-34 502,-34 502,-0 332,-0"/>
<text text-anchor="start" x="340" y="-21" font-family="Helvetica,sans-Serif" font-size="10.00">RoR::FlexFactory::SaveFlexbodies</text>
<text text-anchor="middle" x="417" y="-8" font-family="Helvetica,sans-Serif" font-size="10.00">ToCache</text>
</a>
</g>
<!-- Node2&#45;&gt;Node3 -->
<g id="edge4" class="edge"><title>Node2&#45;&gt;Node3</title>
<path fill="none" stroke="midnightblue" d="M306.459,-17C314.692,-17 323.208,-17 331.691,-17"/>
<polygon fill="midnightblue" stroke="midnightblue" points="306.205,-13.5001 296.205,-17 306.205,-20.5001 306.205,-13.5001"/>
</g>
</g>
</svg>
