<?xml version="1.0" encoding="UTF-8" standalone="no"?>
<!DOCTYPE svg PUBLIC "-//W3C//DTD SVG 1.1//EN"
 "http://www.w3.org/Graphics/SVG/1.1/DTD/svg11.dtd">
<!-- Generated by graphviz version 2.26.3 (20100126.1600)
 -->
<!-- Title: G Pages: 1 -->
<!--zoomable 70 -->
<svg id="main" version="1.1" xmlns="http://www.w3.org/2000/svg" xmlns:xlink="http://www.w3.org/1999/xlink" xml:space="preserve" onload="init(evt)">
        <defs>
                <circle id="rim" cx="0" cy="0" r="7"/>
                <circle id="rim2" cx="0" cy="0" r="3.5"/>
                <g id="zoomPlus">
                        <use xlink:href="#rim" fill="#404040">
                                <set attributeName="fill" to="#808080" begin="zoomplus.mouseover" end="zoomplus.mouseout"/>
                        </use>
                        <path d="M-4,0h8M0,-4v8" fill="none" stroke="white" stroke-width="1.5" pointer-events="none"/>
                </g>
                <g id="zoomMin">
                        <use xlink:href="#rim" fill="#404040">
                                <set attributeName="fill" to="#808080" begin="zoomminus.mouseover" end="zoomminus.mouseout"/>
                        </use>
                        <path d="M-4,0h8" fill="none" stroke="white" stroke-width="1.5" pointer-events="none"/>
                </g>
                <g id="dirArrow">
                        <path fill="none" stroke="white" stroke-width="1.5" d="M0,-3.0v7 M-2.5,-0.5L0,-3.0L2.5,-0.5"/>
                </g>
               <g id="resetDef">
                       <use xlink:href="#rim2" fill="#404040">
                               <set attributeName="fill" to="#808080" begin="reset.mouseover" end="reset.mouseout"/>
                       </use>
               </g>
        </defs>

<script type="text/javascript">
var viewWidth = 1268;
var viewHeight = 70;
var sectionId = 'dynsection-44';
</script>
<script xlink:href="svgpan.js"/>
<svg id="graph" class="graph">
<g id="viewport">
<title>G</title>
<polygon fill="white" stroke="white" points="-4,5 -4,-66 1265,-66 1265,5 -4,5"/>
<!-- Node1 -->
<g id="node1" class="node"><title>Node1</title>
<polygon fill="#bfbfbf" stroke="black" points="0.5,-20.5 0.5,-41.5 195.5,-41.5 195.5,-20.5 0.5,-20.5"/>
<text text-anchor="middle" x="98" y="-28.5" font-family="Helvetica,sans-Serif" font-size="10.00">CacheSystem::incrementalCacheUpdate</text>
</g>
<!-- Node2 -->
<g id="node3" class="node"><title>Node2</title>
<a xlink:href="class_cache_system.html#a37e784da57c57f56a428f61a53b4d618" target="_top" xlink:title="CacheSystem::generateCache">
<polygon fill="white" stroke="black" points="232.5,-20.5 232.5,-41.5 383.5,-41.5 383.5,-20.5 232.5,-20.5"/>
<text text-anchor="middle" x="308" y="-28.5" font-family="Helvetica,sans-Serif" font-size="10.00">CacheSystem::generateCache</text>
</a>
</g>
<!-- Node1&#45;&gt;Node2 -->
<g id="edge2" class="edge"><title>Node1&#45;&gt;Node2</title>
<path fill="none" stroke="midnightblue" d="M205.743,-31C214.71,-31 223.65,-31 232.301,-31"/>
<polygon fill="midnightblue" stroke="midnightblue" points="205.623,-27.5001 195.623,-31 205.623,-34.5001 205.623,-27.5001"/>
</g>
<!-- Node3 -->
<g id="node5" class="node"><title>Node3</title>
<a xlink:href="class_cache_system.html#ae010322c2422bf8f8dbfce904257da31" target="_top" xlink:title="CacheSystem::Startup">
<polygon fill="white" stroke="black" points="420,-20.5 420,-41.5 536,-41.5 536,-20.5 420,-20.5"/>
<text text-anchor="middle" x="478" y="-28.5" font-family="Helvetica,sans-Serif" font-size="10.00">CacheSystem::Startup</text>
</a>
</g>
<!-- Node2&#45;&gt;Node3 -->
<g id="edge4" class="edge"><title>Node2&#45;&gt;Node3</title>
<path fill="none" stroke="midnightblue" d="M393.558,-31C402.434,-31 411.301,-31 419.773,-31"/>
<polygon fill="midnightblue" stroke="midnightblue" points="393.555,-27.5001 383.554,-31 393.554,-34.5001 393.555,-27.5001"/>
</g>
<!-- Node4 -->
<g id="node7" class="node"><title>Node4</title>
<a xlink:href="class_ro_r_1_1_main_thread.html#a7e4d0bd23a40e509892883af75ea0dbf" target="_top" xlink:title="RoR::MainThread::Go">
<polygon fill="white" stroke="black" points="766.5,-20.5 766.5,-41.5 879.5,-41.5 879.5,-20.5 766.5,-20.5"/>
<text text-anchor="middle" x="823" y="-28.5" font-family="Helvetica,sans-Serif" font-size="10.00">RoR::MainThread::Go</text>
</a>
</g>
<!-- Node3&#45;&gt;Node4 -->
<g id="edge6" class="edge"><title>Node3&#45;&gt;Node4</title>
<path fill="none" stroke="midnightblue" d="M546.267,-31.8114C554.928,-31.8893 563.672,-31.9557 572,-32 642.221,-32.3735 659.779,-32.3775 730,-32 741.787,-31.9366 754.414,-31.8281 766.443,-31.7053"/>
<polygon fill="midnightblue" stroke="midnightblue" points="546.198,-28.3107 536.166,-31.7153 546.132,-35.3104 546.198,-28.3107"/>
</g>
<!-- Node8 -->
<g id="node15" class="node"><title>Node8</title>
<a xlink:href="class_ro_r_1_1_main_thread.html#a50730ae3f8aae89aa0120b4b78b6db29" target="_top" xlink:title="RoR::MainThread::RegenCache">
<polygon fill="white" stroke="black" points="572.5,-1.5 572.5,-22.5 729.5,-22.5 729.5,-1.5 572.5,-1.5"/>
<text text-anchor="middle" x="651" y="-9.5" font-family="Helvetica,sans-Serif" font-size="10.00">RoR::MainThread::RegenCache</text>
</a>
</g>
<!-- Node3&#45;&gt;Node8 -->
<g id="edge14" class="edge"><title>Node3&#45;&gt;Node8</title>
<path fill="none" stroke="midnightblue" d="M546.106,-23.5201C554.76,-22.5697 563.671,-21.591 572.472,-20.6245"/>
<polygon fill="midnightblue" stroke="midnightblue" points="545.646,-20.0495 536.088,-24.6204 546.41,-27.0077 545.646,-20.0495"/>
</g>
<!-- Node5 -->
<g id="node9" class="node"><title>Node5</title>
<a xlink:href="main_2main__sim_2main_8cpp.html#a0ddf1224851353fc92bfbff6f499fa97" target="_top" xlink:title="main">
<polygon fill="white" stroke="black" points="982,-40.5 982,-61.5 1020,-61.5 1020,-40.5 982,-40.5"/>
<text text-anchor="middle" x="1001" y="-48.5" font-family="Helvetica,sans-Serif" font-size="10.00">main</text>
</a>
</g>
<!-- Node4&#45;&gt;Node5 -->
<g id="edge8" class="edge"><title>Node4&#45;&gt;Node5</title>
<path fill="none" stroke="midnightblue" d="M889.834,-38.5095C922.649,-42.1966 959.758,-46.3661 981.723,-48.8341"/>
<polygon fill="midnightblue" stroke="midnightblue" points="890.138,-35.0217 879.81,-37.3831 889.356,-41.9779 890.138,-35.0217"/>
</g>
<!-- Node6 -->
<g id="node11" class="node"><title>Node6</title>
<a xlink:href="class_ro_r_1_1_main_thread.html#a7a2db954fd2f35d63982d8603d2b9614" target="_top" xlink:title="RoR::MainThread::RequestRestart">
<polygon fill="white" stroke="black" points="916.5,-0.5 916.5,-21.5 1085.5,-21.5 1085.5,-0.5 916.5,-0.5"/>
<text text-anchor="middle" x="1001" y="-8.5" font-family="Helvetica,sans-Serif" font-size="10.00">RoR::MainThread::RequestRestart</text>
</a>
</g>
<!-- Node4&#45;&gt;Node6 -->
<g id="edge10" class="edge"><title>Node4&#45;&gt;Node6</title>
<path fill="none" stroke="midnightblue" d="M889.775,-23.4972C898.399,-22.5283 907.319,-21.5259 916.185,-20.5298"/>
<polygon fill="midnightblue" stroke="midnightblue" points="889.356,-20.0221 879.81,-24.6169 890.138,-26.9783 889.356,-20.0221"/>
</g>
<!-- Node7 -->
<g id="node13" class="node"><title>Node7</title>
<a xlink:href="class_ro_r_frame_listener.html#af2779b96aa0f91920bd100bc30261402" target="_top" xlink:title="RoRFrameListener::Restart">
<polygon fill="white" stroke="black" points="1122.5,-0.5 1122.5,-21.5 1259.5,-21.5 1259.5,-0.5 1122.5,-0.5"/>
<text text-anchor="middle" x="1191" y="-8.5" font-family="Helvetica,sans-Serif" font-size="10.00">RoRFrameListener::Restart</text>
</a>
</g>
<!-- Node6&#45;&gt;Node7 -->
<g id="edge12" class="edge"><title>Node6&#45;&gt;Node7</title>
<path fill="none" stroke="midnightblue" d="M1095.82,-11C1104.78,-11 1113.75,-11 1122.4,-11"/>
<polygon fill="midnightblue" stroke="midnightblue" points="1095.72,-7.5001 1085.72,-11 1095.72,-14.5001 1095.72,-7.5001"/>
</g>
<!-- Node8&#45;&gt;Node4 -->
<g id="edge16" class="edge"><title>Node8&#45;&gt;Node4</title>
<path fill="none" stroke="midnightblue" d="M739.884,-21.8186C748.906,-22.8152 757.886,-23.8072 766.426,-24.7505"/>
<polygon fill="midnightblue" stroke="midnightblue" points="740.025,-18.313 729.701,-20.6937 739.256,-25.2706 740.025,-18.313"/>
</g>
</g>
</svg>
        <g id="navigator" transform="translate(0 0)" fill="#404254">
                <rect fill="#f2f5e9" fill-opacity="0.5" stroke="#606060" stroke-width=".5" x="0" y="0" width="60" height="60"/>
                <use id="zoomplus" xlink:href="#zoomPlus" x="17" y="9" onmousedown="handleZoom(evt,'in')"/>
                <use id="zoomminus" xlink:href="#zoomMin" x="42" y="9" onmousedown="handleZoom(evt,'out')"/>
                <use id="reset" xlink:href="#resetDef" x="30" y="36" onmousedown="handleReset()"/>
                <g id="arrowUp" xlink:href="#dirArrow" transform="translate(30 24)" onmousedown="handlePan(0,-1)">
                  <use xlink:href="#rim" fill="#404040">
                        <set attributeName="fill" to="#808080" begin="arrowUp.mouseover" end="arrowUp.mouseout"/>
                  </use>
                  <path fill="none" stroke="white" stroke-width="1.5" d="M0,-3.0v7 M-2.5,-0.5L0,-3.0L2.5,-0.5"/>
                </g>
                <g id="arrowRight" xlink:href="#dirArrow" transform="rotate(90) translate(36 -43)" onmousedown="handlePan(1,0)">
                  <use xlink:href="#rim" fill="#404040">
                        <set attributeName="fill" to="#808080" begin="arrowRight.mouseover" end="arrowRight.mouseout"/>
                  </use>
                  <path fill="none" stroke="white" stroke-width="1.5" d="M0,-3.0v7 M-2.5,-0.5L0,-3.0L2.5,-0.5"/>
                </g>
                <g id="arrowDown" xlink:href="#dirArrow" transform="rotate(180) translate(-30 -48)" onmousedown="handlePan(0,1)">
                  <use xlink:href="#rim" fill="#404040">
                        <set attributeName="fill" to="#808080" begin="arrowDown.mouseover" end="arrowDown.mouseout"/>
                  </use>
                  <path fill="none" stroke="white" stroke-width="1.5" d="M0,-3.0v7 M-2.5,-0.5L0,-3.0L2.5,-0.5"/>
                </g>
                <g id="arrowLeft" xlink:href="#dirArrow" transform="rotate(270) translate(-36 17)" onmousedown="handlePan(-1,0)">
                  <use xlink:href="#rim" fill="#404040">
                        <set attributeName="fill" to="#808080" begin="arrowLeft.mouseover" end="arrowLeft.mouseout"/>
                  </use>
                  <path fill="none" stroke="white" stroke-width="1.5" d="M0,-3.0v7 M-2.5,-0.5L0,-3.0L2.5,-0.5"/>
                </g>
        </g>
</svg>
