<?xml version="1.0" encoding="UTF-8" standalone="no"?>
<!DOCTYPE svg PUBLIC "-//W3C//DTD SVG 1.1//EN"
 "http://www.w3.org/Graphics/SVG/1.1/DTD/svg11.dtd">
<!-- Generated by graphviz version 2.26.3 (20100126.1600)
 -->
<!-- Title: G Pages: 1 -->
<svg width="450pt" height="30pt"
 viewBox="0.00 0.00 450.00 30.00" xmlns="http://www.w3.org/2000/svg" xmlns:xlink="http://www.w3.org/1999/xlink">
<g id="graph1" class="graph" transform="scale(1 1) rotate(0) translate(4 26)">
<title>G</title>
<polygon fill="white" stroke="white" points="-4,5 -4,-26 447,-26 447,5 -4,5"/>
<!-- Node1 -->
<g id="node1" class="node"><title>Node1</title>
<polygon fill="#bfbfbf" stroke="black" points="0.5,-0.5 0.5,-21.5 91.5,-21.5 91.5,-0.5 0.5,-0.5"/>
<text text-anchor="middle" x="46" y="-8.5" font-family="Helvetica,sans-Serif" font-size="10.00">IThreadTask::run</text>
</g>
<!-- Node2 -->
<g id="node3" class="node"><title>Node2</title>
<a xlink:href="class_thread_worker.html#ae29e0485c6cadb6fdf98ae4b0041c6a8" target="_top" xlink:title="ThreadWorker::threadstart">
<polygon fill="white" stroke="black" points="128.5,-0.5 128.5,-21.5 259.5,-21.5 259.5,-0.5 128.5,-0.5"/>
<text text-anchor="middle" x="194" y="-8.5" font-family="Helvetica,sans-Serif" font-size="10.00">ThreadWorker::threadstart</text>
</a>
</g>
<!-- Node1&#45;&gt;Node2 -->
<g id="edge2" class="edge"><title>Node1&#45;&gt;Node2</title>
<path fill="none" stroke="midnightblue" d="M101.661,-11C110.389,-11 119.481,-11 128.408,-11"/>
<polygon fill="midnightblue" stroke="midnightblue" points="101.613,-7.5001 91.6125,-11 101.612,-14.5001 101.613,-7.5001"/>
</g>
<!-- Node3 -->
<g id="node5" class="node"><title>Node3</title>
<a xlink:href="class_thread_worker.html#a8a8bf91150f0c835f81dd5d0deb234e3" target="_top" xlink:title="ThreadWorker::ThreadWorker">
<polygon fill="white" stroke="black" points="296,-0.5 296,-21.5 442,-21.5 442,-0.5 296,-0.5"/>
<text text-anchor="middle" x="369" y="-8.5" font-family="Helvetica,sans-Serif" font-size="10.00">ThreadWorker::ThreadWorker</text>
</a>
</g>
<!-- Node2&#45;&gt;Node3 -->
<g id="edge4" class="edge"><title>Node2&#45;&gt;Node3</title>
<path fill="none" stroke="midnightblue" d="M269.759,-11C278.44,-11 287.278,-11 295.923,-11"/>
<polygon fill="midnightblue" stroke="midnightblue" points="269.661,-7.5001 259.661,-11 269.661,-14.5001 269.661,-7.5001"/>
</g>
</g>
</svg>
