<?xml version="1.0" encoding="UTF-8" standalone="no"?>
<!DOCTYPE svg PUBLIC "-//W3C//DTD SVG 1.1//EN"
 "http://www.w3.org/Graphics/SVG/1.1/DTD/svg11.dtd">
<!-- Generated by graphviz version 2.26.3 (20100126.1600)
 -->
<!-- Title: OverlayWrapper::OverlayWrapper Pages: 1 -->
<!--zoomable 242 -->
<svg id="main" version="1.1" xmlns="http://www.w3.org/2000/svg" xmlns:xlink="http://www.w3.org/1999/xlink" xml:space="preserve" onload="init(evt)">
<style type="text/css"><![CDATA[
.edge:hover path { stroke: red; }
.edge:hover polygon { stroke: red; fill: red; }
]]></style>
<script type="text/javascript"><![CDATA[
var edges = document.getElementsByTagName('g');
if (edges && edges.length) {
  for (var i=0;i<edges.length;i++) {
    if (edges[i].id.substr(0,4)=='edge') {
      edges[i].setAttribute('class','edge');
    }
  }
}
]]></script>
        <defs>
                <circle id="rim" cx="0" cy="0" r="7"/>
                <circle id="rim2" cx="0" cy="0" r="3.5"/>
                <g id="zoomPlus">
                        <use xlink:href="#rim" fill="#404040">
                                <set attributeName="fill" to="#808080" begin="zoomplus.mouseover" end="zoomplus.mouseout"/>
                        </use>
                        <path d="M-4,0h8M0,-4v8" fill="none" stroke="white" stroke-width="1.5" pointer-events="none"/>
                </g>
                <g id="zoomMin">
                        <use xlink:href="#rim" fill="#404040">
                                <set attributeName="fill" to="#808080" begin="zoomminus.mouseover" end="zoomminus.mouseout"/>
                        </use>
                        <path d="M-4,0h8" fill="none" stroke="white" stroke-width="1.5" pointer-events="none"/>
                </g>
                <g id="dirArrow">
                        <path fill="none" stroke="white" stroke-width="1.5" d="M0,-3.0v7 M-2.5,-0.5L0,-3.0L2.5,-0.5"/>
                </g>
               <g id="resetDef">
                       <use xlink:href="#rim2" fill="#404040">
                               <set attributeName="fill" to="#808080" begin="reset.mouseover" end="reset.mouseout"/>
                       </use>
               </g>
        </defs>

<script type="text/javascript">
var viewWidth = 720;
var viewHeight = 242;
var sectionId = 'dynsection-2';
</script>
<script xlink:href="svgpan.js"/>
<svg id="graph" class="graph">
<g id="viewport">
<title>OverlayWrapper::OverlayWrapper</title>
<polygon fill="white" stroke="white" points="-4,5 -4,-238 717,-238 717,5 -4,5"/>
<!-- Node1 -->
<g id="node1" class="node"><title>Node1</title>
<polygon fill="#bfbfbf" stroke="black" points="0,-146.5 0,-167.5 164,-167.5 164,-146.5 0,-146.5"/>
<text text-anchor="middle" x="82" y="-154.5" font-family="Helvetica,sans-Serif" font-size="10.00">OverlayWrapper::OverlayWrapper</text>
</g>
<!-- Node2 -->
<g id="node3" class="node"><title>Node2</title>
<a xlink:href="class_ro_r_1_1_application.html#a5082701abd55926b3c6eb4b0c933eca5" target="_top" xlink:title="RoR::Application::GetOgre\lSubsystem">
<polygon fill="white" stroke="black" points="200,-192 200,-226 334,-226 334,-192 200,-192"/>
<text text-anchor="start" x="208" y="-213" font-family="Helvetica,sans-Serif" font-size="10.00">RoR::Application::GetOgre</text>
<text text-anchor="middle" x="267" y="-200" font-family="Helvetica,sans-Serif" font-size="10.00">Subsystem</text>
</a>
</g>
<!-- Node1&#45;&gt;Node2 -->
<g id="edge2" class="edge"><title>Node1&#45;&gt;Node2</title>
<path fill="none" stroke="midnightblue" d="M119.438,-167.523C141.532,-173.733 170.216,-181.796 196.413,-189.159"/>
<polygon fill="midnightblue" stroke="midnightblue" points="195.738,-192.605 206.312,-191.942 197.632,-185.866 195.738,-192.605"/>
</g>
<!-- Node3 -->
<g id="node5" class="node"><title>Node3</title>
<a xlink:href="class_ro_r_1_1_ogre_subsystem.html#aec5be99797f9add72578fb1fbfec582f" target="_top" xlink:title="RoR::OgreSubsystem\l::GetRenderWindow">
<polygon fill="white" stroke="black" points="210.5,-140 210.5,-174 323.5,-174 323.5,-140 210.5,-140"/>
<text text-anchor="start" x="218.5" y="-161" font-family="Helvetica,sans-Serif" font-size="10.00">RoR::OgreSubsystem</text>
<text text-anchor="middle" x="267" y="-148" font-family="Helvetica,sans-Serif" font-size="10.00">::GetRenderWindow</text>
</a>
</g>
<!-- Node1&#45;&gt;Node3 -->
<g id="edge4" class="edge"><title>Node1&#45;&gt;Node3</title>
<path fill="none" stroke="midnightblue" d="M164.221,-157C176.312,-157 188.641,-157 200.367,-157"/>
<polygon fill="midnightblue" stroke="midnightblue" points="200.495,-160.5 210.495,-157 200.495,-153.5 200.495,-160.5"/>
</g>
<!-- Node4 -->
<g id="node7" class="node"><title>Node4</title>
<a xlink:href="class_overlay_wrapper.html#ad7b118e7cbe7a185df4473e11bd8a46d" target="_top" xlink:title="OverlayWrapper::init">
<polygon fill="white" stroke="black" points="214,-100.5 214,-121.5 320,-121.5 320,-100.5 214,-100.5"/>
<text text-anchor="middle" x="267" y="-108.5" font-family="Helvetica,sans-Serif" font-size="10.00">OverlayWrapper::init</text>
</a>
</g>
<!-- Node1&#45;&gt;Node4 -->
<g id="edge6" class="edge"><title>Node1&#45;&gt;Node4</title>
<path fill="none" stroke="midnightblue" d="M124.443,-146.447C151.353,-139.756 186.351,-131.053 214.935,-123.946"/>
<polygon fill="midnightblue" stroke="midnightblue" points="215.895,-127.314 224.755,-121.504 214.206,-120.521 215.895,-127.314"/>
</g>
<!-- Node5 -->
<g id="node9" class="node"><title>Node5</title>
<a xlink:href="class_overlay_wrapper.html#a1efa678e12875b4b84ab42dbb184edd4" target="_top" xlink:title="OverlayWrapper::loadOverlay">
<polygon fill="white" stroke="black" points="373.5,-212.5 373.5,-233.5 518.5,-233.5 518.5,-212.5 373.5,-212.5"/>
<text text-anchor="middle" x="446" y="-220.5" font-family="Helvetica,sans-Serif" font-size="10.00">OverlayWrapper::loadOverlay</text>
</a>
</g>
<!-- Node4&#45;&gt;Node5 -->
<g id="edge8" class="edge"><title>Node4&#45;&gt;Node5</title>
<path fill="none" stroke="midnightblue" d="M318.642,-121.578C324.18,-124.081 329.445,-127.174 334,-131 361.396,-154.01 342.231,-180.441 370,-203 372.039,-204.656 374.2,-206.176 376.455,-207.571"/>
<polygon fill="midnightblue" stroke="midnightblue" points="375.07,-210.798 385.55,-212.357 378.33,-204.603 375.07,-210.798"/>
</g>
<!-- Node7 -->
<g id="node13" class="node"><title>Node7</title>
<a xlink:href="class_overlay_wrapper.html#aa751cd9eecb3717a754cf91c6be2ce4d" target="_top" xlink:title="OverlayWrapper::loadOverlay\lElement">
<polygon fill="white" stroke="black" points="373.5,-160 373.5,-194 518.5,-194 518.5,-160 373.5,-160"/>
<text text-anchor="start" x="381.5" y="-181" font-family="Helvetica,sans-Serif" font-size="10.00">OverlayWrapper::loadOverlay</text>
<text text-anchor="middle" x="446" y="-168" font-family="Helvetica,sans-Serif" font-size="10.00">Element</text>
</a>
</g>
<!-- Node4&#45;&gt;Node7 -->
<g id="edge12" class="edge"><title>Node4&#45;&gt;Node7</title>
<path fill="none" stroke="midnightblue" d="M307.534,-121.557C316.384,-124.287 325.609,-127.466 334,-131 350.869,-138.104 353.275,-143.564 370,-151 374.125,-152.834 378.423,-154.62 382.783,-156.341"/>
<polygon fill="midnightblue" stroke="midnightblue" points="381.794,-159.71 392.385,-159.997 384.285,-153.168 381.794,-159.71"/>
</g>
<!-- Node8 -->
<g id="node15" class="node"><title>Node8</title>
<a xlink:href="struct_error_utils.html#a5877046712b57723ec40772afd980378" target="_top" xlink:title="ErrorUtils::ShowOgreWebError">
<polygon fill="white" stroke="black" points="370.5,-120.5 370.5,-141.5 521.5,-141.5 521.5,-120.5 370.5,-120.5"/>
<text text-anchor="middle" x="446" y="-128.5" font-family="Helvetica,sans-Serif" font-size="10.00">ErrorUtils::ShowOgreWebError</text>
</a>
</g>
<!-- Node4&#45;&gt;Node8 -->
<g id="edge14" class="edge"><title>Node4&#45;&gt;Node8</title>
<path fill="none" stroke="midnightblue" d="M320.221,-116.947C332.909,-118.364 346.768,-119.913 360.501,-121.447"/>
<polygon fill="midnightblue" stroke="midnightblue" points="360.133,-124.928 370.46,-122.56 360.91,-117.971 360.133,-124.928"/>
</g>
<!-- Node10 -->
<g id="node19" class="node"><title>Node10</title>
<a xlink:href="class_overlay_wrapper.html#af04680c7e12a731fef2db00e3dcd8143" target="_top" xlink:title="OverlayWrapper::resizePanel">
<polygon fill="white" stroke="black" points="374,-80.5 374,-101.5 518,-101.5 518,-80.5 374,-80.5"/>
<text text-anchor="middle" x="446" y="-88.5" font-family="Helvetica,sans-Serif" font-size="10.00">OverlayWrapper::resizePanel</text>
</a>
</g>
<!-- Node4&#45;&gt;Node10 -->
<g id="edge18" class="edge"><title>Node4&#45;&gt;Node10</title>
<path fill="none" stroke="midnightblue" d="M320.221,-105.053C333.87,-103.529 348.873,-101.852 363.617,-100.205"/>
<polygon fill="midnightblue" stroke="midnightblue" points="364.214,-103.66 373.763,-99.0712 363.436,-96.7033 364.214,-103.66"/>
</g>
<!-- Node11 -->
<g id="node21" class="node"><title>Node11</title>
<a xlink:href="class_overlay_wrapper.html#adbd14cda6b9c56d4cb3e136ea6447d63" target="_top" xlink:title="OverlayWrapper::reposPanel">
<polygon fill="white" stroke="black" points="375,-40.5 375,-61.5 517,-61.5 517,-40.5 375,-40.5"/>
<text text-anchor="middle" x="446" y="-48.5" font-family="Helvetica,sans-Serif" font-size="10.00">OverlayWrapper::reposPanel</text>
</a>
</g>
<!-- Node4&#45;&gt;Node11 -->
<g id="edge20" class="edge"><title>Node4&#45;&gt;Node11</title>
<path fill="none" stroke="midnightblue" d="M292.11,-100.33C312.79,-91.7651 342.996,-79.7655 370,-71 377.219,-68.6568 384.888,-66.3877 392.472,-64.271"/>
<polygon fill="midnightblue" stroke="midnightblue" points="393.618,-67.5865 402.348,-61.5829 391.78,-60.8323 393.618,-67.5865"/>
</g>
<!-- Node12 -->
<g id="node23" class="node"><title>Node12</title>
<a xlink:href="class_truck_h_u_d.html#abfc37f8d68c2f2b589138b31028eef31" target="_top" xlink:title="TruckHUD::show">
<polygon fill="white" stroke="black" points="399.5,-0.5 399.5,-21.5 492.5,-21.5 492.5,-0.5 399.5,-0.5"/>
<text text-anchor="middle" x="446" y="-8.5" font-family="Helvetica,sans-Serif" font-size="10.00">TruckHUD::show</text>
</a>
</g>
<!-- Node4&#45;&gt;Node12 -->
<g id="edge22" class="edge"><title>Node4&#45;&gt;Node12</title>
<path fill="none" stroke="midnightblue" d="M277.707,-100.234C295.379,-83.0696 332.445,-49.5528 370,-31 376.082,-27.9955 382.668,-25.4037 389.333,-23.1775"/>
<polygon fill="midnightblue" stroke="midnightblue" points="390.576,-26.4571 399.105,-20.1721 388.518,-19.7664 390.576,-26.4571"/>
</g>
<!-- Node6 -->
<g id="node11" class="node"><title>Node6</title>
<a xlink:href="class_overlay_wrapper.html#a10e6c145bc3e376b6cc2159929898b1d" target="_top" xlink:title="OverlayWrapper::resizeOverlay">
<polygon fill="white" stroke="black" points="558.5,-212.5 558.5,-233.5 711.5,-233.5 711.5,-212.5 558.5,-212.5"/>
<text text-anchor="middle" x="635" y="-220.5" font-family="Helvetica,sans-Serif" font-size="10.00">OverlayWrapper::resizeOverlay</text>
</a>
</g>
<!-- Node5&#45;&gt;Node6 -->
<g id="edge10" class="edge"><title>Node5&#45;&gt;Node6</title>
<path fill="none" stroke="midnightblue" d="M518.532,-223C528.189,-223 538.171,-223 548.043,-223"/>
<polygon fill="midnightblue" stroke="midnightblue" points="548.271,-226.5 558.271,-223 548.271,-219.5 548.271,-226.5"/>
</g>
<!-- Node9 -->
<g id="node17" class="node"><title>Node9</title>
<a xlink:href="struct_error_utils.html#a03b1f233c5e57c4a7418b1d1ca072343" target="_top" xlink:title="ErrorUtils::ShowWebError">
<polygon fill="white" stroke="black" points="570,-120.5 570,-141.5 700,-141.5 700,-120.5 570,-120.5"/>
<text text-anchor="middle" x="635" y="-128.5" font-family="Helvetica,sans-Serif" font-size="10.00">ErrorUtils::ShowWebError</text>
</a>
</g>
<!-- Node8&#45;&gt;Node9 -->
<g id="edge16" class="edge"><title>Node8&#45;&gt;Node9</title>
<path fill="none" stroke="midnightblue" d="M521.513,-131C534.169,-131 547.3,-131 559.945,-131"/>
<polygon fill="midnightblue" stroke="midnightblue" points="559.963,-134.5 569.963,-131 559.963,-127.5 559.963,-134.5"/>
</g>
</g>
</svg>
        <g id="navigator" transform="translate(0 0)" fill="#404254">
                <rect fill="#f2f5e9" fill-opacity="0.5" stroke="#606060" stroke-width=".5" x="0" y="0" width="60" height="60"/>
                <use id="zoomplus" xlink:href="#zoomPlus" x="17" y="9" onmousedown="handleZoom(evt,'in')"/>
                <use id="zoomminus" xlink:href="#zoomMin" x="42" y="9" onmousedown="handleZoom(evt,'out')"/>
                <use id="reset" xlink:href="#resetDef" x="30" y="36" onmousedown="handleReset()"/>
                <g id="arrowUp" xlink:href="#dirArrow" transform="translate(30 24)" onmousedown="handlePan(0,-1)">
                  <use xlink:href="#rim" fill="#404040">
                        <set attributeName="fill" to="#808080" begin="arrowUp.mouseover" end="arrowUp.mouseout"/>
                  </use>
                  <path fill="none" stroke="white" stroke-width="1.5" d="M0,-3.0v7 M-2.5,-0.5L0,-3.0L2.5,-0.5"/>
                </g>
                <g id="arrowRight" xlink:href="#dirArrow" transform="rotate(90) translate(36 -43)" onmousedown="handlePan(1,0)">
                  <use xlink:href="#rim" fill="#404040">
                        <set attributeName="fill" to="#808080" begin="arrowRight.mouseover" end="arrowRight.mouseout"/>
                  </use>
                  <path fill="none" stroke="white" stroke-width="1.5" d="M0,-3.0v7 M-2.5,-0.5L0,-3.0L2.5,-0.5"/>
                </g>
                <g id="arrowDown" xlink:href="#dirArrow" transform="rotate(180) translate(-30 -48)" onmousedown="handlePan(0,1)">
                  <use xlink:href="#rim" fill="#404040">
                        <set attributeName="fill" to="#808080" begin="arrowDown.mouseover" end="arrowDown.mouseout"/>
                  </use>
                  <path fill="none" stroke="white" stroke-width="1.5" d="M0,-3.0v7 M-2.5,-0.5L0,-3.0L2.5,-0.5"/>
                </g>
                <g id="arrowLeft" xlink:href="#dirArrow" transform="rotate(270) translate(-36 17)" onmousedown="handlePan(-1,0)">
                  <use xlink:href="#rim" fill="#404040">
                        <set attributeName="fill" to="#808080" begin="arrowLeft.mouseover" end="arrowLeft.mouseout"/>
                  </use>
                  <path fill="none" stroke="white" stroke-width="1.5" d="M0,-3.0v7 M-2.5,-0.5L0,-3.0L2.5,-0.5"/>
                </g>
        </g>
        <svg viewBox="0 0 15 15" width="100%" height="30px" preserveAspectRatio="xMaxYMin meet">
         <g id="arrow_out" transform="scale(0.3 0.3)">
          <a xlink:href="class_overlay_wrapper_a92ee0e58e468f5a657fc02cdb98b0352_cgraph_org.svg" target="_base">
           <rect id="button" ry="5" rx="5" y="6" x="6" height="38" width="38"
                fill="#f2f5e9" fill-opacity="0.5" stroke="#606060" stroke-width="1.0"/>
           <path id="arrow"
             d="M 11.500037,31.436501 C 11.940474,20.09759 22.043105,11.32322 32.158766,21.979434 L 37.068811,17.246167 C 37.068811,17.246167 37.088388,32 37.088388,32 L 22.160133,31.978069 C 22.160133,31.978069 26.997745,27.140456 26.997745,27.140456 C 18.528582,18.264221 13.291696,25.230495 11.500037,31.436501 z"
             style="fill:#404040;"/>
          </a>
         </g>
        </svg>
</svg>
