<?xml version="1.0" encoding="UTF-8" standalone="no"?>
<!DOCTYPE svg PUBLIC "-//W3C//DTD SVG 1.1//EN"
 "http://www.w3.org/Graphics/SVG/1.1/DTD/svg11.dtd">
<!-- Generated by graphviz version 2.26.3 (20100126.1600)
 -->
<!-- Title: Hydrax::RttManager::CDepthListener Pages: 1 -->
<svg width="2028pt" height="902pt"
 viewBox="0.00 0.00 2028.00 901.92" xmlns="http://www.w3.org/2000/svg" xmlns:xlink="http://www.w3.org/1999/xlink">
<g id="graph1" class="graph" transform="scale(1 1) rotate(0) translate(4 897.919)">
<title>Hydrax::RttManager::CDepthListener</title>
<polygon fill="white" stroke="white" points="-4,5 -4,-897.919 2025,-897.919 2025,5 -4,5"/>
<!-- Node1 -->
<g id="node1" class="node"><title>Node1</title>
<polygon fill="#bfbfbf" stroke="black" points="228.5,-354 228.5,-388 333.5,-388 333.5,-354 228.5,-354"/>
<text text-anchor="start" x="236.5" y="-375" font-family="Helvetica,sans-Serif" font-size="10.00">Hydrax::RttManager</text>
<text text-anchor="middle" x="281" y="-362" font-family="Helvetica,sans-Serif" font-size="10.00">::CDepthListener</text>
</g>
<!-- Node3 -->
<g id="node4" class="node"><title>Node3</title>
<a xlink:href="class_hydrax_1_1_rtt_manager.html" target="_top" xlink:title="Hydrax::RttManager">
<polygon fill="white" stroke="black" points="466.5,-350.5 466.5,-371.5 571.5,-371.5 571.5,-350.5 466.5,-350.5"/>
<text text-anchor="middle" x="519" y="-358.5" font-family="Helvetica,sans-Serif" font-size="10.00">Hydrax::RttManager</text>
</a>
</g>
<!-- Node1&#45;&gt;Node3 -->
<g id="edge106" class="edge"><title>Node1&#45;&gt;Node3</title>
<path fill="none" stroke="#9a32cd" stroke-dasharray="5,2" d="M343.988,-368.353C382.084,-366.753 430.101,-364.735 466.199,-363.219"/>
<polygon fill="#9a32cd" stroke="#9a32cd" points="343.369,-364.876 333.525,-368.793 343.663,-371.87 343.369,-364.876"/>
<text text-anchor="middle" x="395" y="-372" font-family="Helvetica,sans-Serif" font-size="10.00"> mDepthListener</text>
</g>
<!-- Node2 -->
<g id="node2" class="node"><title>Node2</title>
<polygon fill="white" stroke="#bfbfbf" points="0.5,-360.5 0.5,-381.5 137.5,-381.5 137.5,-360.5 0.5,-360.5"/>
<text text-anchor="middle" x="69" y="-368.5" font-family="Helvetica,sans-Serif" font-size="10.00">Ogre::RenderTargetListener</text>
</g>
<!-- Node2&#45;&gt;Node1 -->
<g id="edge2" class="edge"><title>Node2&#45;&gt;Node1</title>
<path fill="none" stroke="midnightblue" d="M147.724,-371C174.667,-371 204.133,-371 228.491,-371"/>
<polygon fill="midnightblue" stroke="midnightblue" points="147.538,-367.5 137.538,-371 147.538,-374.5 147.538,-367.5"/>
</g>
<!-- Node3&#45;&gt;Node1 -->
<g id="edge4" class="edge"><title>Node3&#45;&gt;Node1</title>
<path fill="none" stroke="#9a32cd" stroke-dasharray="5,2" d="M467.829,-348.48C436.074,-342.469 394.503,-337.786 358,-344 345.85,-346.068 333.066,-349.849 321.481,-353.94"/>
<polygon fill="#9a32cd" stroke="#9a32cd" points="467.284,-351.94 477.776,-350.466 468.655,-345.076 467.284,-351.94"/>
<text text-anchor="middle" x="395" y="-348" font-family="Helvetica,sans-Serif" font-size="10.00"> mRttManager</text>
</g>
<!-- Node6 -->
<g id="node10" class="node"><title>Node6</title>
<a xlink:href="class_hydrax_1_1_rtt_manager_1_1_c_reflection_listener.html" target="_top" xlink:title="Hydrax::RttManager\l::CReflectionListener">
<polygon fill="white" stroke="black" points="1071.5,-160 1071.5,-194 1180.5,-194 1180.5,-160 1071.5,-160"/>
<text text-anchor="start" x="1079.5" y="-181" font-family="Helvetica,sans-Serif" font-size="10.00">Hydrax::RttManager</text>
<text text-anchor="middle" x="1126" y="-168" font-family="Helvetica,sans-Serif" font-size="10.00">::CReflectionListener</text>
</a>
</g>
<!-- Node3&#45;&gt;Node6 -->
<g id="edge14" class="edge"><title>Node3&#45;&gt;Node6</title>
<path fill="none" stroke="#9a32cd" stroke-dasharray="5,2" d="M521.461,-340.185C527.649,-297.016 547.77,-197.098 606,-141 652.162,-96.5283 678.821,-103.822 742,-93 802.453,-82.6449 819.138,-85.4081 880,-93 946.425,-101.286 969.114,-94.7158 1026,-130 1036.45,-136.479 1033.75,-144.216 1044,-151 1052.22,-156.44 1061.65,-160.803 1071.12,-164.283"/>
<polygon fill="#9a32cd" stroke="#9a32cd" points="517.991,-339.729 520.145,-350.102 524.93,-340.649 517.991,-339.729"/>
<text text-anchor="middle" x="811" y="-97" font-family="Helvetica,sans-Serif" font-size="10.00"> mRttManager</text>
</g>
<!-- Node8 -->
<g id="node15" class="node"><title>Node8</title>
<a xlink:href="class_hydrax_1_1_rtt_manager_1_1_c_reflection_listener_1_1_c_reflection_queue_listener.html" target="_top" xlink:title="Hydrax::RttManager\l::CReflectionListener\l::CReflectionQueueListener">
<polygon fill="white" stroke="black" points="742.5,-388.5 742.5,-435.5 879.5,-435.5 879.5,-388.5 742.5,-388.5"/>
<text text-anchor="start" x="750.5" y="-422.5" font-family="Helvetica,sans-Serif" font-size="10.00">Hydrax::RttManager</text>
<text text-anchor="start" x="750.5" y="-409.5" font-family="Helvetica,sans-Serif" font-size="10.00">::CReflectionListener</text>
<text text-anchor="middle" x="811" y="-396.5" font-family="Helvetica,sans-Serif" font-size="10.00">::CReflectionQueueListener</text>
</a>
</g>
<!-- Node3&#45;&gt;Node8 -->
<g id="edge20" class="edge"><title>Node3&#45;&gt;Node8</title>
<path fill="none" stroke="#9a32cd" stroke-dasharray="5,2" d="M549.307,-375.846C565.697,-383.189 586.522,-391.435 606,-396 650.663,-406.466 702.139,-410.457 742.336,-411.835"/>
<polygon fill="#9a32cd" stroke="#9a32cd" points="550.76,-372.662 540.213,-371.662 547.835,-379.022 550.76,-372.662"/>
<text text-anchor="middle" x="665" y="-414" font-family="Helvetica,sans-Serif" font-size="10.00"> mRttManager</text>
</g>
<!-- Node10 -->
<g id="node20" class="node"><title>Node10</title>
<a xlink:href="class_hydrax_1_1_rtt_manager_1_1_c_refraction_listener.html" target="_top" xlink:title="Hydrax::RttManager\l::CRefractionListener">
<polygon fill="white" stroke="black" points="756,-222 756,-256 866,-256 866,-222 756,-222"/>
<text text-anchor="start" x="764" y="-243" font-family="Helvetica,sans-Serif" font-size="10.00">Hydrax::RttManager</text>
<text text-anchor="middle" x="811" y="-230" font-family="Helvetica,sans-Serif" font-size="10.00">::CRefractionListener</text>
</a>
</g>
<!-- Node3&#45;&gt;Node10 -->
<g id="edge26" class="edge"><title>Node3&#45;&gt;Node10</title>
<path fill="none" stroke="#9a32cd" stroke-dasharray="5,2" d="M532.528,-342.338C547.963,-322.53 575.102,-291.936 606,-276 612.69,-272.55 697.394,-257.936 755.803,-248.14"/>
<polygon fill="#9a32cd" stroke="#9a32cd" points="529.715,-340.254 526.47,-350.34 535.296,-344.48 529.715,-340.254"/>
<text text-anchor="middle" x="665" y="-280" font-family="Helvetica,sans-Serif" font-size="10.00"> mRttManager</text>
</g>
<!-- Node11 -->
<g id="node24" class="node"><title>Node11</title>
<a xlink:href="class_hydrax_1_1_hydrax.html" target="_top" xlink:title="Hydrax::Hydrax">
<polygon fill="white" stroke="black" points="768,-519.5 768,-540.5 854,-540.5 854,-519.5 768,-519.5"/>
<text text-anchor="middle" x="811" y="-527.5" font-family="Helvetica,sans-Serif" font-size="10.00">Hydrax::Hydrax</text>
</a>
</g>
<!-- Node3&#45;&gt;Node11 -->
<g id="edge54" class="edge"><title>Node3&#45;&gt;Node11</title>
<path fill="none" stroke="#9a32cd" stroke-dasharray="5,2" d="M530.478,-380.352C553.421,-418.964 603.007,-502.06 606,-504 631.888,-520.784 715.529,-526.751 767.632,-528.86"/>
<polygon fill="#9a32cd" stroke="#9a32cd" points="533.379,-378.382 525.264,-371.57 527.36,-381.956 533.379,-378.382"/>
<text text-anchor="middle" x="665" y="-530" font-family="Helvetica,sans-Serif" font-size="10.00"> mRttManager</text>
</g>
<!-- Node23 -->
<g id="node56" class="node"><title>Node23</title>
<a xlink:href="class_hydrax_1_1_g_p_u_normal_map_manager.html" target="_top" xlink:title="Hydrax::GPUNormalMapManager">
<polygon fill="white" stroke="black" points="1044,-757.5 1044,-778.5 1208,-778.5 1208,-757.5 1044,-757.5"/>
<text text-anchor="middle" x="1126" y="-765.5" font-family="Helvetica,sans-Serif" font-size="10.00">Hydrax::GPUNormalMapManager</text>
</a>
</g>
<!-- Node3&#45;&gt;Node23 -->
<g id="edge72" class="edge"><title>Node3&#45;&gt;Node23</title>
<path fill="none" stroke="#9a32cd" stroke-dasharray="5,2" d="M533.104,-379.64C549.04,-401.68 574.507,-440.051 588,-477 604.843,-523.121 579.411,-544.722 606,-586 640.177,-639.058 672.615,-628.356 724,-665 803.031,-721.359 805.998,-766.051 898,-797 968.345,-820.663 1056.83,-794.632 1099.96,-778.627"/>
<polygon fill="#9a32cd" stroke="#9a32cd" points="535.864,-377.485 527.117,-371.507 530.227,-381.635 535.864,-377.485"/>
<text text-anchor="middle" x="811" y="-793" font-family="Helvetica,sans-Serif" font-size="10.00"> mRttManager</text>
</g>
<!-- Node30 -->
<g id="node79" class="node"><title>Node30</title>
<a xlink:href="class_hydrax_1_1_rtt_manager_1_1_c_g_p_u_normal_map_listener.html" target="_top" xlink:title="Hydrax::RttManager\l::CGPUNormalMapListener">
<polygon fill="white" stroke="black" points="742.5,-167 742.5,-201 879.5,-201 879.5,-167 742.5,-167"/>
<text text-anchor="start" x="750.5" y="-188" font-family="Helvetica,sans-Serif" font-size="10.00">Hydrax::RttManager</text>
<text text-anchor="middle" x="811" y="-175" font-family="Helvetica,sans-Serif" font-size="10.00">::CGPUNormalMapListener</text>
</a>
</g>
<!-- Node3&#45;&gt;Node30 -->
<g id="edge104" class="edge"><title>Node3&#45;&gt;Node30</title>
<path fill="none" stroke="#9a32cd" stroke-dasharray="5,2" d="M520.761,-339.985C525.617,-297.133 543.341,-200.236 606,-159 649.809,-130.169 672.068,-151.686 724,-159 735.983,-160.687 748.628,-163.622 760.453,-166.9"/>
<polygon fill="#9a32cd" stroke="#9a32cd" points="517.262,-339.8 519.745,-350.1 524.227,-340.5 517.262,-339.8"/>
<text text-anchor="middle" x="665" y="-163" font-family="Helvetica,sans-Serif" font-size="10.00"> mRttManager</text>
</g>
<!-- Node31 -->
<g id="node84" class="node"><title>Node31</title>
<a xlink:href="class_hydrax_1_1_rtt_manager_1_1_c_depth_reflection_listener.html" target="_top" xlink:title="Hydrax::RttManager\l::CDepthReflectionListener">
<polygon fill="white" stroke="black" points="743.5,-336 743.5,-370 878.5,-370 878.5,-336 743.5,-336"/>
<text text-anchor="start" x="751.5" y="-357" font-family="Helvetica,sans-Serif" font-size="10.00">Hydrax::RttManager</text>
<text text-anchor="middle" x="811" y="-344" font-family="Helvetica,sans-Serif" font-size="10.00">::CDepthReflectionListener</text>
</a>
</g>
<!-- Node3&#45;&gt;Node31 -->
<g id="edge112" class="edge"><title>Node3&#45;&gt;Node31</title>
<path fill="none" stroke="#9a32cd" stroke-dasharray="5,2" d="M582.041,-358.751C590.104,-358.486 598.246,-358.228 606,-358 651.727,-356.654 703.2,-355.399 743.129,-354.484"/>
<polygon fill="#9a32cd" stroke="#9a32cd" points="581.783,-355.258 571.906,-359.09 582.017,-362.254 581.783,-355.258"/>
<text text-anchor="middle" x="665" y="-362" font-family="Helvetica,sans-Serif" font-size="10.00"> mRttManager</text>
</g>
<!-- Node4 -->
<g id="node6" class="node"><title>Node4</title>
<a xlink:href="struct_hydrax_1_1_rtt_manager_1_1_rtt_options.html" target="_top" xlink:title="Hydrax::RttManager\l::RttOptions">
<polygon fill="white" stroke="black" points="228.5,-416 228.5,-450 333.5,-450 333.5,-416 228.5,-416"/>
<text text-anchor="start" x="236.5" y="-437" font-family="Helvetica,sans-Serif" font-size="10.00">Hydrax::RttManager</text>
<text text-anchor="middle" x="281" y="-424" font-family="Helvetica,sans-Serif" font-size="10.00">::RttOptions</text>
</a>
</g>
<!-- Node4&#45;&gt;Node3 -->
<g id="edge6" class="edge"><title>Node4&#45;&gt;Node3</title>
<path fill="none" stroke="#9a32cd" stroke-dasharray="5,2" d="M343.187,-414.187C388.185,-400.574 447.344,-382.677 484.269,-371.507"/>
<polygon fill="#9a32cd" stroke="#9a32cd" points="342.083,-410.864 333.525,-417.11 344.11,-417.565 342.083,-410.864"/>
<text text-anchor="middle" x="395" y="-411" font-family="Helvetica,sans-Serif" font-size="10.00"> mRttOptions</text>
</g>
<!-- Node5 -->
<g id="node8" class="node"><title>Node5</title>
<a xlink:href="struct_hydrax_1_1_size.html" target="_top" xlink:title="Hydrax::Size">
<polygon fill="white" stroke="black" points="32,-464.5 32,-485.5 106,-485.5 106,-464.5 32,-464.5"/>
<text text-anchor="middle" x="69" y="-472.5" font-family="Helvetica,sans-Serif" font-size="10.00">Hydrax::Size</text>
</a>
</g>
<!-- Node5&#45;&gt;Node4 -->
<g id="edge8" class="edge"><title>Node5&#45;&gt;Node4</title>
<path fill="none" stroke="#9a32cd" stroke-dasharray="5,2" d="M116.35,-465.619C149.606,-459.031 194.102,-450.216 228.454,-443.41"/>
<polygon fill="#9a32cd" stroke="#9a32cd" points="115.542,-462.211 106.413,-467.588 116.903,-469.078 115.542,-462.211"/>
<text text-anchor="middle" x="180" y="-461" font-family="Helvetica,sans-Serif" font-size="10.00"> Size_</text>
</g>
<!-- Node13 -->
<g id="node29" class="node"><title>Node13</title>
<a xlink:href="struct_hydrax_1_1_mesh_1_1_options.html" target="_top" xlink:title="Hydrax::Mesh::Options">
<polygon fill="white" stroke="black" points="222,-577.5 222,-598.5 340,-598.5 340,-577.5 222,-577.5"/>
<text text-anchor="middle" x="281" y="-585.5" font-family="Helvetica,sans-Serif" font-size="10.00">Hydrax::Mesh::Options</text>
</a>
</g>
<!-- Node5&#45;&gt;Node13 -->
<g id="edge36" class="edge"><title>Node5&#45;&gt;Node13</title>
<path fill="none" stroke="#9a32cd" stroke-dasharray="5,2" d="M97.9338,-490.422C141.72,-513.761 223.686,-557.451 261.263,-577.48"/>
<polygon fill="#9a32cd" stroke="#9a32cd" points="99.4155,-487.246 88.9444,-485.631 96.1228,-493.423 99.4155,-487.246"/>
<text text-anchor="middle" x="180" y="-548" font-family="Helvetica,sans-Serif" font-size="10.00"> MeshSize</text>
</g>
<!-- Node6&#45;&gt;Node3 -->
<g id="edge10" class="edge"><title>Node6&#45;&gt;Node3</title>
<path fill="none" stroke="#9a32cd" stroke-dasharray="5,2" d="M1061.13,-172.713C1002.53,-170.28 921.922,-170.983 898,-191 872.041,-212.721 903.678,-240.812 880,-265 858.111,-287.361 664.043,-330.57 569.851,-350.482"/>
<polygon fill="#9a32cd" stroke="#9a32cd" points="1061.28,-176.223 1071.43,-173.181 1061.6,-169.23 1061.28,-176.223"/>
<text text-anchor="middle" x="811" y="-315" font-family="Helvetica,sans-Serif" font-size="10.00"> mReflectionListener</text>
</g>
<!-- Node7 -->
<g id="node12" class="node"><title>Node7</title>
<polygon fill="white" stroke="#bfbfbf" points="464,-98.5 464,-119.5 574,-119.5 574,-98.5 464,-98.5"/>
<text text-anchor="middle" x="519" y="-106.5" font-family="Helvetica,sans-Serif" font-size="10.00">RenderTargetListener</text>
</g>
<!-- Node7&#45;&gt;Node6 -->
<g id="edge12" class="edge"><title>Node7&#45;&gt;Node6</title>
<path fill="none" stroke="midnightblue" d="M546.457,-93.5904C563.137,-85.0279 585.168,-75.0998 606,-70 696.656,-47.8065 954.822,-9.62826 1026,-70 1054.12,-93.8543 1019.1,-123.797 1044,-151 1051.36,-159.042 1061.19,-164.612 1071.48,-168.465"/>
<polygon fill="midnightblue" stroke="midnightblue" points="544.51,-90.6605 537.304,-98.4272 547.78,-96.8496 544.51,-90.6605"/>
</g>
<!-- Node7&#45;&gt;Node10 -->
<g id="edge24" class="edge"><title>Node7&#45;&gt;Node10</title>
<path fill="none" stroke="midnightblue" d="M533.23,-127.509C548.948,-146.626 576.03,-175.874 606,-192 609.371,-193.814 696.348,-213.432 755.914,-226.742"/>
<polygon fill="midnightblue" stroke="midnightblue" points="535.82,-125.143 526.839,-119.521 530.354,-129.516 535.82,-125.143"/>
</g>
<!-- Node28 -->
<g id="node71" class="node"><title>Node28</title>
<a xlink:href="class_hydrax_1_1_god_rays_manager_1_1_depth_map_listener.html" target="_top" xlink:title="Hydrax::GodRaysManager\l::DepthMapListener">
<polygon fill="white" stroke="black" points="1886.5,-537 1886.5,-571 2019.5,-571 2019.5,-537 1886.5,-537"/>
<text text-anchor="start" x="1894.5" y="-558" font-family="Helvetica,sans-Serif" font-size="10.00">Hydrax::GodRaysManager</text>
<text text-anchor="middle" x="1953" y="-545" font-family="Helvetica,sans-Serif" font-size="10.00">::DepthMapListener</text>
</a>
</g>
<!-- Node7&#45;&gt;Node28 -->
<g id="edge90" class="edge"><title>Node7&#45;&gt;Node28</title>
<path fill="none" stroke="midnightblue" d="M537.975,-91.3469C554.666,-76.7736 580.254,-56.6574 606,-45 690.976,-6.52465 717.72,-0 811,-0 811,-0 811,-0 1691,-0 1812.82,-0 1926.35,-443.303 1948.94,-536.812"/>
<polygon fill="midnightblue" stroke="midnightblue" points="535.223,-89.1124 530.104,-98.3883 539.891,-94.3294 535.223,-89.1124"/>
</g>
<!-- Node7&#45;&gt;Node30 -->
<g id="edge102" class="edge"><title>Node7&#45;&gt;Node30</title>
<path fill="none" stroke="midnightblue" d="M584.227,-97.8498C627.321,-94.0146 683.169,-96.1326 724,-123 738.612,-132.615 728.943,-146.36 742,-158 745.822,-161.407 750.135,-164.385 754.691,-166.983"/>
<polygon fill="midnightblue" stroke="midnightblue" points="583.718,-94.3834 574.123,-98.8772 584.426,-101.348 583.718,-94.3834"/>
</g>
<!-- Node7&#45;&gt;Node31 -->
<g id="edge110" class="edge"><title>Node7&#45;&gt;Node31</title>
<path fill="none" stroke="midnightblue" d="M522.916,-129.462C531.259,-167.431 554.403,-248.926 606,-293 644.348,-325.756 699.807,-340.643 743.375,-347.401"/>
<polygon fill="midnightblue" stroke="midnightblue" points="526.322,-128.65 520.865,-119.569 519.468,-130.071 526.322,-128.65"/>
</g>
<!-- Node8&#45;&gt;Node6 -->
<g id="edge16" class="edge"><title>Node8&#45;&gt;Node6</title>
<path fill="none" stroke="#9a32cd" stroke-dasharray="5,2" d="M878.572,-380.914C879.063,-380.288 879.54,-379.65 880,-379 901.685,-348.348 872.004,-238.092 898,-211 903.983,-204.764 1005.71,-191.462 1071.25,-183.47"/>
<polygon fill="#9a32cd" stroke="#9a32cd" points="875.799,-378.748 871.398,-388.386 880.849,-383.596 875.799,-378.748"/>
<text text-anchor="middle" x="962" y="-215" font-family="Helvetica,sans-Serif" font-size="10.00"> mCReflectionQueueListener</text>
</g>
<!-- Node9 -->
<g id="node17" class="node"><title>Node9</title>
<polygon fill="white" stroke="#bfbfbf" points="450,-486.5 450,-507.5 588,-507.5 588,-486.5 450,-486.5"/>
<text text-anchor="middle" x="519" y="-494.5" font-family="Helvetica,sans-Serif" font-size="10.00">Ogre::RenderQueueListener</text>
</g>
<!-- Node9&#45;&gt;Node8 -->
<g id="edge18" class="edge"><title>Node9&#45;&gt;Node8</title>
<path fill="none" stroke="midnightblue" d="M584.515,-508.58C627.734,-512.601 683.613,-510.53 724,-483 739.442,-472.474 728.81,-458.239 742,-445 745.374,-441.613 749.163,-438.527 753.185,-435.723"/>
<polygon fill="midnightblue" stroke="midnightblue" points="584.692,-505.079 574.379,-507.505 583.954,-512.04 584.692,-505.079"/>
</g>
<!-- Node10&#45;&gt;Node3 -->
<g id="edge22" class="edge"><title>Node10&#45;&gt;Node3</title>
<path fill="none" stroke="#9a32cd" stroke-dasharray="5,2" d="M745.406,-224.683C703.278,-218.901 648.665,-217.997 606,-240 559.55,-263.956 532.236,-325.443 522.78,-350.317"/>
<polygon fill="#9a32cd" stroke="#9a32cd" points="745.151,-228.184 755.559,-226.203 746.187,-221.261 745.151,-228.184"/>
<text text-anchor="middle" x="665" y="-244" font-family="Helvetica,sans-Serif" font-size="10.00"> mRefractionListener</text>
</g>
<!-- Node11&#45;&gt;Node3 -->
<g id="edge28" class="edge"><title>Node11&#45;&gt;Node3</title>
<path fill="none" stroke="#9a32cd" stroke-dasharray="5,2" d="M779.503,-515.174C767.702,-509.557 754.201,-503.056 742,-497 681.107,-466.776 663.519,-463.235 606,-427 578.089,-409.417 547.928,-385.245 531.469,-371.565"/>
<polygon fill="#9a32cd" stroke="#9a32cd" points="778.011,-518.34 788.546,-519.464 781.011,-512.016 778.011,-518.34"/>
<text text-anchor="middle" x="665" y="-491" font-family="Helvetica,sans-Serif" font-size="10.00"> mHydrax</text>
</g>
<!-- Node12 -->
<g id="node26" class="node"><title>Node12</title>
<a xlink:href="class_hydrax_1_1_mesh.html" target="_top" xlink:title="Hydrax::Mesh">
<polygon fill="white" stroke="black" points="1087,-537.5 1087,-558.5 1165,-558.5 1165,-537.5 1087,-537.5"/>
<text text-anchor="middle" x="1126" y="-545.5" font-family="Helvetica,sans-Serif" font-size="10.00">Hydrax::Mesh</text>
</a>
</g>
<!-- Node11&#45;&gt;Node12 -->
<g id="edge32" class="edge"><title>Node11&#45;&gt;Node12</title>
<path fill="none" stroke="#9a32cd" stroke-dasharray="5,2" d="M864.17,-521.12C907.845,-515.241 971.211,-509.959 1026,-518 1051.11,-521.685 1078.66,-530.312 1098.48,-537.373"/>
<polygon fill="#9a32cd" stroke="#9a32cd" points="863.477,-517.683 854.06,-522.539 864.45,-524.615 863.477,-517.683"/>
<text text-anchor="middle" x="962" y="-522" font-family="Helvetica,sans-Serif" font-size="10.00"> mHydrax</text>
</g>
<!-- Node14 -->
<g id="node32" class="node"><title>Node14</title>
<a xlink:href="class_hydrax_1_1_material_manager.html" target="_top" xlink:title="Hydrax::MaterialManager">
<polygon fill="white" stroke="black" points="1063,-223.5 1063,-244.5 1189,-244.5 1189,-223.5 1063,-223.5"/>
<text text-anchor="middle" x="1126" y="-231.5" font-family="Helvetica,sans-Serif" font-size="10.00">Hydrax::MaterialManager</text>
</a>
</g>
<!-- Node11&#45;&gt;Node14 -->
<g id="edge40" class="edge"><title>Node11&#45;&gt;Node14</title>
<path fill="none" stroke="#9a32cd" stroke-dasharray="5,2" d="M859.644,-514.875C867.594,-510.334 874.889,-504.491 880,-497 911.017,-451.538 859.033,-288.863 898,-250 920.407,-227.653 1003.4,-226.942 1062.78,-229.581"/>
<polygon fill="#9a32cd" stroke="#9a32cd" points="857.847,-511.861 850.472,-519.467 860.981,-518.12 857.847,-511.861"/>
<text text-anchor="middle" x="962" y="-254" font-family="Helvetica,sans-Serif" font-size="10.00"> mHydrax</text>
</g>
<!-- Node18 -->
<g id="node42" class="node"><title>Node18</title>
<a xlink:href="class_hydrax_1_1_decals_manager.html" target="_top" xlink:title="Hydrax::DecalsManager">
<polygon fill="white" stroke="black" points="1065,-417.5 1065,-438.5 1187,-438.5 1187,-417.5 1065,-417.5"/>
<text text-anchor="middle" x="1126" y="-425.5" font-family="Helvetica,sans-Serif" font-size="10.00">Hydrax::DecalsManager</text>
</a>
</g>
<!-- Node11&#45;&gt;Node18 -->
<g id="edge52" class="edge"><title>Node11&#45;&gt;Node18</title>
<path fill="none" stroke="#9a32cd" stroke-dasharray="5,2" d="M857.199,-515.089C865.81,-510.477 873.98,-504.552 880,-497 902.717,-468.502 869.542,-439.767 898,-417 923.878,-396.298 1013.26,-407.341 1072.12,-417.486"/>
<polygon fill="#9a32cd" stroke="#9a32cd" points="855.641,-511.955 848.137,-519.434 858.668,-518.267 855.641,-511.955"/>
<text text-anchor="middle" x="962" y="-421" font-family="Helvetica,sans-Serif" font-size="10.00"> mHydrax</text>
</g>
<!-- Node19 -->
<g id="node46" class="node"><title>Node19</title>
<a xlink:href="class_hydrax_1_1_hydrax_1_1_device_listener.html" target="_top" xlink:title="Hydrax::Hydrax::DeviceListener">
<polygon fill="white" stroke="black" points="1047.5,-332.5 1047.5,-353.5 1204.5,-353.5 1204.5,-332.5 1047.5,-332.5"/>
<text text-anchor="middle" x="1126" y="-340.5" font-family="Helvetica,sans-Serif" font-size="10.00">Hydrax::Hydrax::DeviceListener</text>
</a>
</g>
<!-- Node11&#45;&gt;Node19 -->
<g id="edge60" class="edge"><title>Node11&#45;&gt;Node19</title>
<path fill="none" stroke="#9a32cd" stroke-dasharray="5,2" d="M858.328,-514.921C866.62,-510.351 874.378,-504.485 880,-497 909.487,-457.739 863.827,-423.257 898,-388 908.776,-376.882 988.602,-362.918 1050.8,-353.518"/>
<polygon fill="#9a32cd" stroke="#9a32cd" points="856.642,-511.849 849.197,-519.386 859.718,-518.137 856.642,-511.849"/>
<text text-anchor="middle" x="962" y="-392" font-family="Helvetica,sans-Serif" font-size="10.00"> mHydrax</text>
</g>
<!-- Node11&#45;&gt;Node23 -->
<g id="edge70" class="edge"><title>Node11&#45;&gt;Node23</title>
<path fill="none" stroke="#9a32cd" stroke-dasharray="5,2" d="M815.375,-550.375C827.122,-602.977 860.982,-741.035 898,-767 920.928,-783.082 988.167,-781.691 1043.73,-777.23"/>
<polygon fill="#9a32cd" stroke="#9a32cd" points="818.774,-549.536 813.21,-540.519 811.937,-551.037 818.774,-549.536"/>
<text text-anchor="middle" x="962" y="-784" font-family="Helvetica,sans-Serif" font-size="10.00"> mHydrax</text>
</g>
<!-- Node24 -->
<g id="node60" class="node"><title>Node24</title>
<a xlink:href="class_hydrax_1_1_cfg_file_manager.html" target="_top" xlink:title="Hydrax::CfgFileManager">
<polygon fill="white" stroke="black" points="1064.5,-706.5 1064.5,-727.5 1187.5,-727.5 1187.5,-706.5 1064.5,-706.5"/>
<text text-anchor="middle" x="1126" y="-714.5" font-family="Helvetica,sans-Serif" font-size="10.00">Hydrax::CfgFileManager</text>
</a>
</g>
<!-- Node11&#45;&gt;Node24 -->
<g id="edge76" class="edge"><title>Node11&#45;&gt;Node24</title>
<path fill="none" stroke="#9a32cd" stroke-dasharray="5,2" d="M815.258,-550.75C823.875,-586.901 847.063,-660.829 898,-695 924.337,-712.668 1006.36,-716.86 1064.46,-717.51"/>
<polygon fill="#9a32cd" stroke="#9a32cd" points="818.637,-549.824 813.037,-540.83 811.806,-551.353 818.637,-549.824"/>
<text text-anchor="middle" x="962" y="-720" font-family="Helvetica,sans-Serif" font-size="10.00"> mHydrax</text>
</g>
<!-- Node25 -->
<g id="node63" class="node"><title>Node25</title>
<a xlink:href="class_hydrax_1_1_god_rays_manager.html" target="_top" xlink:title="Hydrax::GodRaysManager">
<polygon fill="white" stroke="black" points="1624.5,-579.5 1624.5,-600.5 1757.5,-600.5 1757.5,-579.5 1624.5,-579.5"/>
<text text-anchor="middle" x="1691" y="-587.5" font-family="Helvetica,sans-Serif" font-size="10.00">Hydrax::GodRaysManager</text>
</a>
</g>
<!-- Node11&#45;&gt;Node25 -->
<g id="edge94" class="edge"><title>Node11&#45;&gt;Node25</title>
<path fill="none" stroke="#9a32cd" stroke-dasharray="5,2" d="M856.122,-516.963C869.486,-513.687 884.23,-510.638 898,-509 954.49,-502.279 969.188,-506.043 1026,-509 1248.71,-520.594 1510.88,-560.263 1628.45,-579.445"/>
<polygon fill="#9a32cd" stroke="#9a32cd" points="855.034,-513.628 846.211,-519.493 856.766,-520.411 855.034,-513.628"/>
<text text-anchor="middle" x="1300" y="-545" font-family="Helvetica,sans-Serif" font-size="10.00"> mHydrax</text>
</g>
<!-- Node29 -->
<g id="node76" class="node"><title>Node29</title>
<a xlink:href="class_hydrax_1_1_texture_manager.html" target="_top" xlink:title="Hydrax::TextureManager">
<polygon fill="white" stroke="black" points="1063.5,-593.5 1063.5,-614.5 1188.5,-614.5 1188.5,-593.5 1063.5,-593.5"/>
<text text-anchor="middle" x="1126" y="-601.5" font-family="Helvetica,sans-Serif" font-size="10.00">Hydrax::TextureManager</text>
</a>
</g>
<!-- Node11&#45;&gt;Node29 -->
<g id="edge98" class="edge"><title>Node11&#45;&gt;Node29</title>
<path fill="none" stroke="#9a32cd" stroke-dasharray="5,2" d="M827.18,-547.994C843.281,-564.476 869.627,-587.808 898,-598 951.29,-617.143 1016.19,-616.772 1063.1,-612.714"/>
<polygon fill="#9a32cd" stroke="#9a32cd" points="829.547,-545.404 820.134,-540.541 824.461,-550.213 829.547,-545.404"/>
<text text-anchor="middle" x="962" y="-618" font-family="Helvetica,sans-Serif" font-size="10.00"> mHydrax</text>
</g>
<!-- Node12&#45;&gt;Node11 -->
<g id="edge30" class="edge"><title>Node12&#45;&gt;Node11</title>
<path fill="none" stroke="#9a32cd" stroke-dasharray="5,2" d="M1076.67,-545.181C1015.52,-541.687 912.277,-535.787 854.139,-532.465"/>
<polygon fill="#9a32cd" stroke="#9a32cd" points="1076.66,-548.686 1086.85,-545.763 1077.06,-541.698 1076.66,-548.686"/>
<text text-anchor="middle" x="962" y="-546" font-family="Helvetica,sans-Serif" font-size="10.00"> mMesh</text>
</g>
<!-- Node13&#45;&gt;Node12 -->
<g id="edge34" class="edge"><title>Node13&#45;&gt;Node12</title>
<path fill="none" stroke="#9a32cd" stroke-dasharray="5,2" d="M292.292,-607.222C305.266,-627.196 328.603,-657.278 358,-670 392.059,-684.739 997.196,-693.4 1026,-670 1056.31,-645.378 1019.39,-614.322 1044,-584 1054.78,-570.72 1071.43,-562.206 1086.92,-556.814"/>
<polygon fill="#9a32cd" stroke="#9a32cd" points="295.182,-605.241 286.925,-598.602 289.239,-608.941 295.182,-605.241"/>
<text text-anchor="middle" x="665" y="-688" font-family="Helvetica,sans-Serif" font-size="10.00"> mOptions</text>
</g>
<!-- Node21 -->
<g id="node51" class="node"><title>Node21</title>
<a xlink:href="class_hydrax_1_1_module_1_1_module.html" target="_top" xlink:title="Hydrax::Module::Module">
<polygon fill="white" stroke="black" points="457.5,-577.5 457.5,-598.5 580.5,-598.5 580.5,-577.5 457.5,-577.5"/>
<text text-anchor="middle" x="519" y="-585.5" font-family="Helvetica,sans-Serif" font-size="10.00">Hydrax::Module::Module</text>
</a>
</g>
<!-- Node13&#45;&gt;Node21 -->
<g id="edge66" class="edge"><title>Node13&#45;&gt;Node21</title>
<path fill="none" stroke="#9a32cd" stroke-dasharray="5,2" d="M350.406,-588C384.216,-588 424.531,-588 457.26,-588"/>
<polygon fill="#9a32cd" stroke="#9a32cd" points="350.137,-584.5 340.137,-588 350.137,-591.5 350.137,-584.5"/>
<text text-anchor="middle" x="395" y="-592" font-family="Helvetica,sans-Serif" font-size="10.00"> mMeshOptions</text>
</g>
<!-- Node14&#45;&gt;Node11 -->
<g id="edge38" class="edge"><title>Node14&#45;&gt;Node11</title>
<path fill="none" stroke="#9a32cd" stroke-dasharray="5,2" d="M1082.11,-247.671C1017.55,-267.971 903.927,-304.505 898,-312 846.76,-376.799 927.382,-429.328 880,-497 872.841,-507.225 861.636,-514.39 850.322,-519.364"/>
<polygon fill="#9a32cd" stroke="#9a32cd" points="1083.53,-250.893 1092.03,-244.559 1081.44,-244.214 1083.53,-250.893"/>
<text text-anchor="middle" x="962" y="-316" font-family="Helvetica,sans-Serif" font-size="10.00"> mMaterialManager</text>
</g>
<!-- Node15 -->
<g id="node35" class="node"><title>Node15</title>
<a xlink:href="class_hydrax_1_1_material_manager_1_1_underwater_compositor_listener.html" target="_top" xlink:title="Hydrax::MaterialManager\l::UnderwaterCompositorListener">
<polygon fill="white" stroke="black" points="1392,-181 1392,-215 1550,-215 1550,-181 1392,-181"/>
<text text-anchor="start" x="1400" y="-202" font-family="Helvetica,sans-Serif" font-size="10.00">Hydrax::MaterialManager</text>
<text text-anchor="middle" x="1471" y="-189" font-family="Helvetica,sans-Serif" font-size="10.00">::UnderwaterCompositorListener</text>
</a>
</g>
<!-- Node14&#45;&gt;Node15 -->
<g id="edge46" class="edge"><title>Node14&#45;&gt;Node15</title>
<path fill="none" stroke="#9a32cd" stroke-dasharray="5,2" d="M1199.31,-228.558C1248.74,-224.628 1315.38,-218.825 1374,-212 1379.83,-211.321 1385.85,-210.571 1391.91,-209.781"/>
<polygon fill="#9a32cd" stroke="#9a32cd" points="1198.73,-225.093 1189.04,-229.368 1199.28,-232.071 1198.73,-225.093"/>
<text text-anchor="middle" x="1300" y="-231" font-family="Helvetica,sans-Serif" font-size="10.00"> mMaterialManager</text>
</g>
<!-- Node15&#45;&gt;Node14 -->
<g id="edge42" class="edge"><title>Node15&#45;&gt;Node14</title>
<path fill="none" stroke="#9a32cd" stroke-dasharray="5,2" d="M1381.71,-191.295C1335,-189.564 1277.06,-190.215 1226,-199 1211.77,-201.448 1177.38,-214.058 1152.91,-223.444"/>
<polygon fill="#9a32cd" stroke="#9a32cd" points="1381.67,-194.796 1391.81,-191.712 1381.96,-187.802 1381.67,-194.796"/>
<text text-anchor="middle" x="1300" y="-203" font-family="Helvetica,sans-Serif" font-size="10.00"> mUnderwaterCompositorListener</text>
</g>
<!-- Node16 -->
<g id="node37" class="node"><title>Node16</title>
<polygon fill="white" stroke="#bfbfbf" points="1100.5,-120.5 1100.5,-141.5 1151.5,-141.5 1151.5,-120.5 1100.5,-120.5"/>
<text text-anchor="middle" x="1126" y="-128.5" font-family="Helvetica,sans-Serif" font-size="10.00">Listener</text>
</g>
<!-- Node16&#45;&gt;Node15 -->
<g id="edge44" class="edge"><title>Node16&#45;&gt;Node15</title>
<path fill="none" stroke="midnightblue" d="M1161.76,-137.944C1215.74,-148.427 1319.4,-168.559 1391.76,-182.611"/>
<polygon fill="midnightblue" stroke="midnightblue" points="1162.13,-134.452 1151.65,-135.981 1160.8,-141.323 1162.13,-134.452"/>
</g>
<!-- Node17 -->
<g id="node40" class="node"><title>Node17</title>
<a xlink:href="struct_hydrax_1_1_material_manager_1_1_options.html" target="_top" xlink:title="Hydrax::MaterialManager\l::Options">
<polygon fill="white" stroke="black" points="748,-115 748,-149 874,-149 874,-115 748,-115"/>
<text text-anchor="start" x="756" y="-136" font-family="Helvetica,sans-Serif" font-size="10.00">Hydrax::MaterialManager</text>
<text text-anchor="middle" x="811" y="-123" font-family="Helvetica,sans-Serif" font-size="10.00">::Options</text>
</a>
</g>
<!-- Node17&#45;&gt;Node14 -->
<g id="edge48" class="edge"><title>Node17&#45;&gt;Node14</title>
<path fill="none" stroke="#9a32cd" stroke-dasharray="5,2" d="M884.506,-132.59C928.842,-136.188 984.567,-146.75 1026,-175 1038.22,-183.334 1032.5,-193.692 1044,-203 1055.24,-212.096 1069.43,-218.711 1082.83,-223.432"/>
<polygon fill="#9a32cd" stroke="#9a32cd" points="884.587,-129.087 874.365,-131.871 884.092,-136.07 884.587,-129.087"/>
<text text-anchor="middle" x="962" y="-179" font-family="Helvetica,sans-Serif" font-size="10.00"> mOptions</text>
</g>
<!-- Node18&#45;&gt;Node11 -->
<g id="edge50" class="edge"><title>Node18&#45;&gt;Node11</title>
<path fill="none" stroke="#9a32cd" stroke-dasharray="5,2" d="M1054.55,-431.834C992.402,-435.767 910.385,-442.632 898,-452 880.82,-464.995 894.724,-481.277 880,-497 870.651,-506.983 857.656,-514.275 845.461,-519.425"/>
<polygon fill="#9a32cd" stroke="#9a32cd" points="1054.97,-435.315 1064.73,-431.205 1054.53,-428.328 1054.97,-435.315"/>
<text text-anchor="middle" x="962" y="-456" font-family="Helvetica,sans-Serif" font-size="10.00"> mDecalsManager</text>
</g>
<!-- Node19&#45;&gt;Node11 -->
<g id="edge56" class="edge"><title>Node19&#45;&gt;Node11</title>
<path fill="none" stroke="#9a32cd" stroke-dasharray="5,2" d="M1037.08,-331.736C982.075,-326.921 918.219,-325.941 898,-344 872.467,-366.805 899.917,-469.155 880,-497 872.661,-507.26 861.267,-514.45 849.838,-519.435"/>
<polygon fill="#9a32cd" stroke="#9a32cd" points="1036.96,-335.239 1047.24,-332.676 1037.6,-328.269 1036.96,-335.239"/>
<text text-anchor="middle" x="962" y="-348" font-family="Helvetica,sans-Serif" font-size="10.00"> mDeviceListener</text>
</g>
<!-- Node20 -->
<g id="node48" class="node"><title>Node20</title>
<polygon fill="white" stroke="#bfbfbf" points="756.5,-454 756.5,-488 865.5,-488 865.5,-454 756.5,-454"/>
<text text-anchor="start" x="764.5" y="-475" font-family="Helvetica,sans-Serif" font-size="10.00">Ogre::RenderSystem</text>
<text text-anchor="middle" x="811" y="-462" font-family="Helvetica,sans-Serif" font-size="10.00">::Listener</text>
</g>
<!-- Node20&#45;&gt;Node19 -->
<g id="edge58" class="edge"><title>Node20&#45;&gt;Node19</title>
<path fill="none" stroke="midnightblue" d="M873.939,-451.354C876.153,-449.431 878.192,-447.319 880,-445 901.595,-417.307 871.792,-311.375 898,-288 961.511,-231.354 1073.29,-303.859 1112.19,-332.391"/>
<polygon fill="midnightblue" stroke="midnightblue" points="871.892,-448.515 865.818,-457.195 875.98,-454.197 871.892,-448.515"/>
</g>
<!-- Node21&#45;&gt;Node11 -->
<g id="edge62" class="edge"><title>Node21&#45;&gt;Node11</title>
<path fill="none" stroke="#9a32cd" stroke-dasharray="5,2" d="M581.692,-575.547C637.716,-564.419 718.337,-548.406 767.552,-538.63"/>
<polygon fill="#9a32cd" stroke="#9a32cd" points="581.005,-572.115 571.879,-577.497 582.369,-578.981 581.005,-572.115"/>
<text text-anchor="middle" x="665" y="-573" font-family="Helvetica,sans-Serif" font-size="10.00"> mModule</text>
</g>
<!-- Node22 -->
<g id="node53" class="node"><title>Node22</title>
<a xlink:href="class_hydrax_1_1_noise_1_1_noise.html" target="_top" xlink:title="Hydrax::Noise::Noise">
<polygon fill="white" stroke="black" points="225.5,-739.5 225.5,-760.5 336.5,-760.5 336.5,-739.5 225.5,-739.5"/>
<text text-anchor="middle" x="281" y="-747.5" font-family="Helvetica,sans-Serif" font-size="10.00">Hydrax::Noise::Noise</text>
</a>
</g>
<!-- Node22&#45;&gt;Node21 -->
<g id="edge64" class="edge"><title>Node22&#45;&gt;Node21</title>
<path fill="none" stroke="#9a32cd" stroke-dasharray="5,2" d="M304.961,-733.69C353.584,-700.594 462.665,-626.346 503.327,-598.668"/>
<polygon fill="#9a32cd" stroke="#9a32cd" points="302.913,-730.85 296.616,-739.371 306.852,-736.637 302.913,-730.85"/>
<text text-anchor="middle" x="395" y="-696" font-family="Helvetica,sans-Serif" font-size="10.00"> mNoise</text>
</g>
<!-- Node26 -->
<g id="node65" class="node"><title>Node26</title>
<a xlink:href="class_hydrax_1_1_noise_1_1_perlin.html" target="_top" xlink:title="Hydrax::Noise::Perlin">
<polygon fill="white" stroke="black" points="1416,-691.5 1416,-712.5 1526,-712.5 1526,-691.5 1416,-691.5"/>
<text text-anchor="middle" x="1471" y="-699.5" font-family="Helvetica,sans-Serif" font-size="10.00">Hydrax::Noise::Perlin</text>
</a>
</g>
<!-- Node22&#45;&gt;Node26 -->
<g id="edge82" class="edge"><title>Node22&#45;&gt;Node26</title>
<path fill="none" stroke="midnightblue" d="M344.786,-762.398C473.487,-785.902 773.511,-833.046 1026,-815 1181.86,-803.861 1227.73,-819.951 1374,-765 1407.27,-752.501 1440.91,-727.169 1458.49,-712.725"/>
<polygon fill="midnightblue" stroke="midnightblue" points="345.18,-758.912 334.711,-760.542 343.911,-765.796 345.18,-758.912"/>
</g>
<!-- Node23&#45;&gt;Node11 -->
<g id="edge68" class="edge"><title>Node23&#45;&gt;Node11</title>
<path fill="none" stroke="#9a32cd" stroke-dasharray="5,2" d="M1040.14,-756.019C977.953,-747.028 903.807,-735.522 898,-731 834.096,-681.241 816.304,-575.136 812.13,-540.896"/>
<polygon fill="#9a32cd" stroke="#9a32cd" points="1040,-759.535 1050.4,-757.496 1041,-752.607 1040,-759.535"/>
<text text-anchor="middle" x="962" y="-757" font-family="Helvetica,sans-Serif" font-size="10.00"> mGPUNormalMapManager</text>
</g>
<!-- Node23&#45;&gt;Node26 -->
<g id="edge86" class="edge"><title>Node23&#45;&gt;Node26</title>
<path fill="none" stroke="#9a32cd" stroke-dasharray="5,2" d="M1191.17,-755.533C1256.1,-743.111 1354.7,-724.249 1415.86,-712.548"/>
<polygon fill="#9a32cd" stroke="#9a32cd" points="1190.21,-752.152 1181.05,-757.469 1191.53,-759.028 1190.21,-752.152"/>
<text text-anchor="middle" x="1300" y="-752" font-family="Helvetica,sans-Serif" font-size="10.00"> mGPUNormalMapManager</text>
</g>
<!-- Node24&#45;&gt;Node11 -->
<g id="edge74" class="edge"><title>Node24&#45;&gt;Node11</title>
<path fill="none" stroke="#9a32cd" stroke-dasharray="5,2" d="M1058.56,-703.235C1053.54,-701.401 1048.62,-699.332 1044,-697 1034.7,-692.312 1034.95,-687.327 1026,-682 973.38,-650.676 947.86,-666.554 898,-631 861.633,-605.068 830.652,-560.831 817.606,-540.628"/>
<polygon fill="#9a32cd" stroke="#9a32cd" points="1057.75,-706.651 1068.34,-706.481 1059.95,-700.008 1057.75,-706.651"/>
<text text-anchor="middle" x="962" y="-686" font-family="Helvetica,sans-Serif" font-size="10.00"> mCfgFileManager</text>
</g>
<!-- Node25&#45;&gt;Node11 -->
<g id="edge78" class="edge"><title>Node25&#45;&gt;Node11</title>
<path fill="none" stroke="#9a32cd" stroke-dasharray="5,2" d="M1676.33,-608.925C1652.86,-637.854 1603.99,-692.784 1550,-722 1293.47,-860.827 1118.8,-987.609 898,-797 877.256,-779.092 887.976,-701.218 880,-675 863.935,-622.19 831.444,-564.331 817.547,-540.824"/>
<polygon fill="#9a32cd" stroke="#9a32cd" points="1679.28,-610.84 1682.78,-600.839 1673.81,-606.477 1679.28,-610.84"/>
<text text-anchor="middle" x="1300" y="-881" font-family="Helvetica,sans-Serif" font-size="10.00"> mGodRaysManager</text>
</g>
<!-- Node25&#45;&gt;Node28 -->
<g id="edge92" class="edge"><title>Node25&#45;&gt;Node28</title>
<path fill="none" stroke="#9a32cd" stroke-dasharray="5,2" d="M1717.05,-574.481C1733.37,-565.683 1755.18,-555.548 1776,-551 1811.88,-543.161 1852.83,-543.295 1886.3,-545.665"/>
<polygon fill="#9a32cd" stroke="#9a32cd" points="1715.16,-571.529 1708.13,-579.454 1718.57,-577.643 1715.16,-571.529"/>
<text text-anchor="middle" x="1822" y="-555" font-family="Helvetica,sans-Serif" font-size="10.00"> mGodRaysManager</text>
</g>
<!-- Node26&#45;&gt;Node25 -->
<g id="edge80" class="edge"><title>Node26&#45;&gt;Node25</title>
<path fill="none" stroke="#9a32cd" stroke-dasharray="5,2" d="M1500.72,-686.872C1545.95,-663.842 1630.97,-620.561 1670.2,-600.59"/>
<polygon fill="#9a32cd" stroke="#9a32cd" points="1499.02,-683.807 1491.7,-691.463 1502.2,-690.046 1499.02,-683.807"/>
<text text-anchor="middle" x="1587" y="-653" font-family="Helvetica,sans-Serif" font-size="10.00"> mPerlin</text>
</g>
<!-- Node27 -->
<g id="node68" class="node"><title>Node27</title>
<a xlink:href="struct_hydrax_1_1_noise_1_1_perlin_1_1_options.html" target="_top" xlink:title="Hydrax::Noise::Perlin\l::Options">
<polygon fill="white" stroke="black" points="1071,-654 1071,-688 1181,-688 1181,-654 1071,-654"/>
<text text-anchor="start" x="1079" y="-675" font-family="Helvetica,sans-Serif" font-size="10.00">Hydrax::Noise::Perlin</text>
<text text-anchor="middle" x="1126" y="-662" font-family="Helvetica,sans-Serif" font-size="10.00">::Options</text>
</a>
</g>
<!-- Node27&#45;&gt;Node26 -->
<g id="edge84" class="edge"><title>Node27&#45;&gt;Node26</title>
<path fill="none" stroke="#9a32cd" stroke-dasharray="5,2" d="M1191.17,-676.856C1256.1,-682.69 1354.7,-691.55 1415.86,-697.046"/>
<polygon fill="#9a32cd" stroke="#9a32cd" points="1191.32,-673.355 1181.05,-675.946 1190.69,-680.327 1191.32,-673.355"/>
<text text-anchor="middle" x="1300" y="-696" font-family="Helvetica,sans-Serif" font-size="10.00"> mOptions</text>
</g>
<!-- Node28&#45;&gt;Node25 -->
<g id="edge88" class="edge"><title>Node28&#45;&gt;Node25</title>
<path fill="none" stroke="#9a32cd" stroke-dasharray="5,2" d="M1876.17,-566.796C1873.41,-567.21 1870.68,-567.612 1868,-568 1831.68,-573.246 1791.06,-578.349 1757.9,-582.318"/>
<polygon fill="#9a32cd" stroke="#9a32cd" points="1876.87,-570.229 1886.22,-565.255 1875.81,-563.31 1876.87,-570.229"/>
<text text-anchor="middle" x="1822" y="-584" font-family="Helvetica,sans-Serif" font-size="10.00"> mDepthMapListener</text>
</g>
<!-- Node29&#45;&gt;Node11 -->
<g id="edge96" class="edge"><title>Node29&#45;&gt;Node11</title>
<path fill="none" stroke="#9a32cd" stroke-dasharray="5,2" d="M1060.54,-591.52C998.859,-579.688 913.612,-563.125 898,-559 878.297,-553.794 856.547,-546.544 839.723,-540.596"/>
<polygon fill="#9a32cd" stroke="#9a32cd" points="1060.13,-595.005 1070.61,-593.45 1061.45,-588.13 1060.13,-595.005"/>
<text text-anchor="middle" x="962" y="-587" font-family="Helvetica,sans-Serif" font-size="10.00"> mTextureManager</text>
</g>
<!-- Node30&#45;&gt;Node3 -->
<g id="edge100" class="edge"><title>Node30&#45;&gt;Node3</title>
<path fill="none" stroke="#9a32cd" stroke-dasharray="5,2" d="M731.874,-175.521C691.209,-175.052 642.642,-180.885 606,-205 552.12,-240.46 528.362,-321.282 521.346,-350.343"/>
<polygon fill="#9a32cd" stroke="#9a32cd" points="731.947,-179.024 742.03,-175.769 732.118,-172.026 731.947,-179.024"/>
<text text-anchor="middle" x="665" y="-209" font-family="Helvetica,sans-Serif" font-size="10.00"> mGPUNormalMapListener</text>
</g>
<!-- Node31&#45;&gt;Node3 -->
<g id="edge108" class="edge"><title>Node31&#45;&gt;Node3</title>
<path fill="none" stroke="#9a32cd" stroke-dasharray="5,2" d="M741.866,-372.118C735.858,-373.28 729.844,-374.273 724,-375 671.957,-381.478 658.278,-379.179 606,-375 594.868,-374.11 583.01,-372.589 571.746,-370.87"/>
<polygon fill="#9a32cd" stroke="#9a32cd" points="742.864,-375.485 751.938,-370.016 741.434,-368.632 742.864,-375.485"/>
<text text-anchor="middle" x="665" y="-383" font-family="Helvetica,sans-Serif" font-size="10.00"> mDepthReflectionListener</text>
</g>
</g>
</svg>
