<?xml version="1.0" encoding="UTF-8" standalone="no"?>
<!DOCTYPE svg PUBLIC "-//W3C//DTD SVG 1.1//EN"
 "http://www.w3.org/Graphics/SVG/1.1/DTD/svg11.dtd">
<!-- Generated by graphviz version 2.26.3 (20100126.1600)
 -->
<!-- Title: Hydrax::Module::SimpleGrid::_performChoppyWaves Pages: 1 -->
<svg width="322pt" height="94pt"
 viewBox="0.00 0.00 322.00 94.00" xmlns="http://www.w3.org/2000/svg" xmlns:xlink="http://www.w3.org/1999/xlink">
<g id="graph1" class="graph" transform="scale(1 1) rotate(0) translate(4 90)">
<title>Hydrax::Module::SimpleGrid::_performChoppyWaves</title>
<polygon fill="white" stroke="white" points="-4,5 -4,-90 319,-90 319,5 -4,5"/>
<!-- Node1 -->
<g id="node1" class="node"><title>Node1</title>
<polygon fill="#bfbfbf" stroke="black" points="0,-26 0,-60 140,-60 140,-26 0,-26"/>
<text text-anchor="start" x="8" y="-47" font-family="Helvetica,sans-Serif" font-size="10.00">Hydrax::Module::SimpleGrid</text>
<text text-anchor="middle" x="70" y="-34" font-family="Helvetica,sans-Serif" font-size="10.00">::_performChoppyWaves</text>
</g>
<!-- Node2 -->
<g id="node3" class="node"><title>Node2</title>
<a xlink:href="class_hydrax_1_1_module_1_1_module.html#af5cfbabb783d9ded22f30f779c83c1c4" target="_top" xlink:title="Hydrax::Module::Module\l::getNormalMode">
<polygon fill="white" stroke="black" points="183.5,-52 183.5,-86 306.5,-86 306.5,-52 183.5,-52"/>
<text text-anchor="start" x="191.5" y="-73" font-family="Helvetica,sans-Serif" font-size="10.00">Hydrax::Module::Module</text>
<text text-anchor="middle" x="245" y="-60" font-family="Helvetica,sans-Serif" font-size="10.00">::getNormalMode</text>
</a>
</g>
<!-- Node1&#45;&gt;Node2 -->
<g id="edge2" class="edge"><title>Node1&#45;&gt;Node2</title>
<path fill="none" stroke="midnightblue" d="M140.171,-53.4254C151.091,-55.0479 162.387,-56.7261 173.34,-58.3534"/>
<polygon fill="midnightblue" stroke="midnightblue" points="172.877,-61.8228 183.282,-59.8305 173.905,-54.8988 172.877,-61.8228"/>
</g>
<!-- Node3 -->
<g id="node5" class="node"><title>Node3</title>
<a xlink:href="class_hydrax_1_1_hydrax.html#a1532419b2859aed22a63d913c527ce21" target="_top" xlink:title="Hydrax::Hydrax::_isCurrent\lFrameUnderwater">
<polygon fill="white" stroke="black" points="176.5,-0 176.5,-34 313.5,-34 313.5,-0 176.5,-0"/>
<text text-anchor="start" x="184.5" y="-21" font-family="Helvetica,sans-Serif" font-size="10.00">Hydrax::Hydrax::_isCurrent</text>
<text text-anchor="middle" x="245" y="-8" font-family="Helvetica,sans-Serif" font-size="10.00">FrameUnderwater</text>
</a>
</g>
<!-- Node1&#45;&gt;Node3 -->
<g id="edge4" class="edge"><title>Node1&#45;&gt;Node3</title>
<path fill="none" stroke="midnightblue" d="M140.171,-32.5746C148.714,-31.3053 157.487,-30.0019 166.146,-28.7155"/>
<polygon fill="midnightblue" stroke="midnightblue" points="166.861,-32.1478 176.238,-27.2161 165.832,-25.2238 166.861,-32.1478"/>
</g>
</g>
</svg>
