<?xml version="1.0" encoding="UTF-8" standalone="no"?>
<!DOCTYPE svg PUBLIC "-//W3C//DTD SVG 1.1//EN"
 "http://www.w3.org/Graphics/SVG/1.1/DTD/svg11.dtd">
<!-- Generated by graphviz version 2.26.3 (20100126.1600)
 -->
<!-- Title: G Pages: 1 -->
<svg width="412pt" height="146pt"
 viewBox="0.00 0.00 412.00 146.00" xmlns="http://www.w3.org/2000/svg" xmlns:xlink="http://www.w3.org/1999/xlink">
<g id="graph1" class="graph" transform="scale(1 1) rotate(0) translate(4 142)">
<title>G</title>
<polygon fill="white" stroke="white" points="-4,5 -4,-142 409,-142 409,5 -4,5"/>
<!-- Node1 -->
<g id="node1" class="node"><title>Node1</title>
<polygon fill="#bfbfbf" stroke="black" points="186,-0.5 186,-21.5 290,-21.5 290,-0.5 186,-0.5"/>
<text text-anchor="middle" x="238" y="-8.5" font-family="Helvetica,sans-Serif" font-size="10.00">ChatSystemFactory</text>
</g>
<!-- Node2 -->
<g id="node2" class="node"><title>Node2</title>
<a xlink:href="class_streamable_factory.html" target="_top" xlink:title="StreamableFactory\&lt; ChatSystemFactory, ChatSystem \&gt;">
<polygon fill="white" stroke="black" points="0,-58.5 0,-79.5 266,-79.5 266,-58.5 0,-58.5"/>
<text text-anchor="middle" x="133" y="-66.5" font-family="Helvetica,sans-Serif" font-size="10.00">StreamableFactory&lt; ChatSystemFactory, ChatSystem &gt;</text>
</a>
</g>
<!-- Node2&#45;&gt;Node1 -->
<g id="edge2" class="edge"><title>Node2&#45;&gt;Node1</title>
<path fill="none" stroke="midnightblue" d="M161.029,-53.5175C179.311,-43.4189 202.692,-30.5032 218.863,-21.5707"/>
<polygon fill="midnightblue" stroke="midnightblue" points="159.32,-50.463 152.259,-58.3619 162.704,-56.5903 159.32,-50.463"/>
</g>
<!-- Node3 -->
<g id="node4" class="node"><title>Node3</title>
<a xlink:href="class_streamable_factory_interface.html" target="_top" xlink:title="StreamableFactoryInterface">
<polygon fill="white" stroke="black" points="64.5,-116.5 64.5,-137.5 201.5,-137.5 201.5,-116.5 64.5,-116.5"/>
<text text-anchor="middle" x="133" y="-124.5" font-family="Helvetica,sans-Serif" font-size="10.00">StreamableFactoryInterface</text>
</a>
</g>
<!-- Node3&#45;&gt;Node2 -->
<g id="edge4" class="edge"><title>Node3&#45;&gt;Node2</title>
<path fill="none" stroke="midnightblue" d="M133,-106.191C133,-97.1684 133,-86.9941 133,-79.5707"/>
<polygon fill="midnightblue" stroke="midnightblue" points="129.5,-106.362 133,-116.362 136.5,-106.362 129.5,-106.362"/>
</g>
<!-- Node4 -->
<g id="node6" class="node"><title>Node4</title>
<a xlink:href="class_zeroed_memory_allocator.html" target="_top" xlink:title="ZeroedMemoryAllocator">
<polygon fill="white" stroke="black" points="284,-58.5 284,-79.5 404,-79.5 404,-58.5 284,-58.5"/>
<text text-anchor="middle" x="344" y="-66.5" font-family="Helvetica,sans-Serif" font-size="10.00">ZeroedMemoryAllocator</text>
</a>
</g>
<!-- Node4&#45;&gt;Node1 -->
<g id="edge6" class="edge"><title>Node4&#45;&gt;Node1</title>
<path fill="none" stroke="midnightblue" d="M315.704,-53.5175C297.248,-43.4189 273.644,-30.5032 257.319,-21.5707"/>
<polygon fill="midnightblue" stroke="midnightblue" points="314.105,-56.6322 324.558,-58.3619 317.465,-50.4913 314.105,-56.6322"/>
</g>
</g>
</svg>
