<?xml version="1.0" encoding="UTF-8" standalone="no"?>
<!DOCTYPE svg PUBLIC "-//W3C//DTD SVG 1.1//EN"
 "http://www.w3.org/Graphics/SVG/1.1/DTD/svg11.dtd">
<!-- Generated by graphviz version 2.26.3 (20100126.1600)
 -->
<!-- Title: CameraBehaviorOrbit::mouseMoved Pages: 1 -->
<svg width="304pt" height="94pt"
 viewBox="0.00 0.00 304.00 94.00" xmlns="http://www.w3.org/2000/svg" xmlns:xlink="http://www.w3.org/1999/xlink">
<g id="graph1" class="graph" transform="scale(1 1) rotate(0) translate(4 90)">
<title>CameraBehaviorOrbit::mouseMoved</title>
<polygon fill="white" stroke="white" points="-4,5 -4,-90 301,-90 301,5 -4,5"/>
<!-- Node1 -->
<g id="node1" class="node"><title>Node1</title>
<polygon fill="#bfbfbf" stroke="black" points="0,-26 0,-60 110,-60 110,-26 0,-26"/>
<text text-anchor="start" x="8" y="-47" font-family="Helvetica,sans-Serif" font-size="10.00">CameraBehaviorOrbit</text>
<text text-anchor="middle" x="55" y="-34" font-family="Helvetica,sans-Serif" font-size="10.00">::mouseMoved</text>
</g>
<!-- Node2 -->
<g id="node3" class="node"><title>Node2</title>
<a xlink:href="class_camera_behavior_character.html#a3da8cbc0998e56cb30434bba70fa8f7b" target="_top" xlink:title="CameraBehaviorCharacter\l::mouseMoved">
<polygon fill="white" stroke="black" points="155,-52 155,-86 287,-86 287,-52 155,-52"/>
<text text-anchor="start" x="163" y="-73" font-family="Helvetica,sans-Serif" font-size="10.00">CameraBehaviorCharacter</text>
<text text-anchor="middle" x="221" y="-60" font-family="Helvetica,sans-Serif" font-size="10.00">::mouseMoved</text>
</a>
</g>
<!-- Node1&#45;&gt;Node2 -->
<g id="edge2" class="edge"><title>Node1&#45;&gt;Node2</title>
<path fill="none" stroke="midnightblue" d="M120.467,-53.2538C131.729,-55.0179 143.443,-56.8526 154.727,-58.6199"/>
<polygon fill="midnightblue" stroke="midnightblue" points="120.697,-49.7473 110.276,-51.6576 119.614,-56.6629 120.697,-49.7473"/>
</g>
<!-- Node3 -->
<g id="node5" class="node"><title>Node3</title>
<a xlink:href="class_camera_behavior_vehicle_spline.html#ac84c557678d0f4ccfd8d092235922ddf" target="_top" xlink:title="CameraBehaviorVehicleSpline\l::mouseMoved">
<polygon fill="white" stroke="black" points="146.5,-0 146.5,-34 295.5,-34 295.5,-0 146.5,-0"/>
<text text-anchor="start" x="154.5" y="-21" font-family="Helvetica,sans-Serif" font-size="10.00">CameraBehaviorVehicleSpline</text>
<text text-anchor="middle" x="221" y="-8" font-family="Helvetica,sans-Serif" font-size="10.00">::mouseMoved</text>
</a>
</g>
<!-- Node1&#45;&gt;Node3 -->
<g id="edge4" class="edge"><title>Node1&#45;&gt;Node3</title>
<path fill="none" stroke="midnightblue" d="M120.234,-32.7826C128.842,-31.4344 137.717,-30.0443 146.465,-28.6741"/>
<polygon fill="midnightblue" stroke="midnightblue" points="119.614,-29.337 110.276,-34.3424 120.697,-36.2527 119.614,-29.337"/>
</g>
</g>
</svg>
