<?xml version="1.0" encoding="UTF-8" standalone="no"?>
<!DOCTYPE svg PUBLIC "-//W3C//DTD SVG 1.1//EN"
 "http://www.w3.org/Graphics/SVG/1.1/DTD/svg11.dtd">
<!-- Generated by graphviz version 2.26.3 (20100126.1600)
 -->
<!-- Title: Ogre::Canvas::Context::drawImage Pages: 1 -->
<!--zoomable 354 -->
<svg id="main" version="1.1" xmlns="http://www.w3.org/2000/svg" xmlns:xlink="http://www.w3.org/1999/xlink" xml:space="preserve" onload="init(evt)">
<style type="text/css"><![CDATA[
.edge:hover path { stroke: red; }
.edge:hover polygon { stroke: red; fill: red; }
]]></style>
<script type="text/javascript"><![CDATA[
var edges = document.getElementsByTagName('g');
if (edges && edges.length) {
  for (var i=0;i<edges.length;i++) {
    if (edges[i].id.substr(0,4)=='edge') {
      edges[i].setAttribute('class','edge');
    }
  }
}
]]></script>
        <defs>
                <circle id="rim" cx="0" cy="0" r="7"/>
                <circle id="rim2" cx="0" cy="0" r="3.5"/>
                <g id="zoomPlus">
                        <use xlink:href="#rim" fill="#404040">
                                <set attributeName="fill" to="#808080" begin="zoomplus.mouseover" end="zoomplus.mouseout"/>
                        </use>
                        <path d="M-4,0h8M0,-4v8" fill="none" stroke="white" stroke-width="1.5" pointer-events="none"/>
                </g>
                <g id="zoomMin">
                        <use xlink:href="#rim" fill="#404040">
                                <set attributeName="fill" to="#808080" begin="zoomminus.mouseover" end="zoomminus.mouseout"/>
                        </use>
                        <path d="M-4,0h8" fill="none" stroke="white" stroke-width="1.5" pointer-events="none"/>
                </g>
                <g id="dirArrow">
                        <path fill="none" stroke="white" stroke-width="1.5" d="M0,-3.0v7 M-2.5,-0.5L0,-3.0L2.5,-0.5"/>
                </g>
               <g id="resetDef">
                       <use xlink:href="#rim2" fill="#404040">
                               <set attributeName="fill" to="#808080" begin="reset.mouseover" end="reset.mouseout"/>
                       </use>
               </g>
        </defs>

<script type="text/javascript">
var viewWidth = 588;
var viewHeight = 354;
var sectionId = 'dynsection-25';
</script>
<script xlink:href="svgpan.js"/>
<svg id="graph" class="graph">
<g id="viewport">
<title>Ogre::Canvas::Context::drawImage</title>
<polygon fill="white" stroke="white" points="-4,5 -4,-350 585,-350 585,5 -4,5"/>
<!-- Node1 -->
<g id="node1" class="node"><title>Node1</title>
<polygon fill="#bfbfbf" stroke="black" points="0,-156 0,-190 118,-190 118,-156 0,-156"/>
<text text-anchor="start" x="8" y="-177" font-family="Helvetica,sans-Serif" font-size="10.00">Ogre::Canvas::Context</text>
<text text-anchor="middle" x="59" y="-164" font-family="Helvetica,sans-Serif" font-size="10.00">::drawImage</text>
</g>
<!-- Node2 -->
<g id="node3" class="node"><title>Node2</title>
<a xlink:href="class_ogre_1_1_canvas_1_1_context.html#a9aed24cef6da01d1188a7b3a78704081" target="_top" xlink:title="Ogre::Canvas::Context\l::drawImage">
<polygon fill="white" stroke="black" points="154,-156 154,-190 272,-190 272,-156 154,-156"/>
<text text-anchor="start" x="162" y="-177" font-family="Helvetica,sans-Serif" font-size="10.00">Ogre::Canvas::Context</text>
<text text-anchor="middle" x="213" y="-164" font-family="Helvetica,sans-Serif" font-size="10.00">::drawImage</text>
</a>
</g>
<!-- Node1&#45;&gt;Node2 -->
<g id="edge2" class="edge"><title>Node1&#45;&gt;Node2</title>
<path fill="none" stroke="midnightblue" d="M118.1,-173C126.422,-173 135.039,-173 143.533,-173"/>
<polygon fill="midnightblue" stroke="midnightblue" points="143.804,-176.5 153.804,-173 143.804,-169.5 143.804,-176.5"/>
</g>
<!-- Node3 -->
<g id="node5" class="node"><title>Node3</title>
<a xlink:href="class_ogre_1_1_canvas_1_1_context.html#a2edd1ac82fe9da543745dd2ed3d5c7ff" target="_top" xlink:title="Ogre::Canvas::Context\l::createPattern">
<polygon fill="white" stroke="black" points="308,-312 308,-346 426,-346 426,-312 308,-312"/>
<text text-anchor="start" x="316" y="-333" font-family="Helvetica,sans-Serif" font-size="10.00">Ogre::Canvas::Context</text>
<text text-anchor="middle" x="367" y="-320" font-family="Helvetica,sans-Serif" font-size="10.00">::createPattern</text>
</a>
</g>
<!-- Node2&#45;&gt;Node3 -->
<g id="edge4" class="edge"><title>Node2&#45;&gt;Node3</title>
<path fill="none" stroke="midnightblue" d="M221.806,-190.415C236.379,-217.708 267.922,-270.763 308,-303 309.537,-304.237 311.143,-305.426 312.799,-306.569"/>
<polygon fill="midnightblue" stroke="midnightblue" points="311.085,-309.624 321.433,-311.901 314.763,-303.668 311.085,-309.624"/>
</g>
<!-- Node4 -->
<g id="node7" class="node"><title>Node4</title>
<a xlink:href="class_ogre_1_1_canvas_1_1_context.html#ae8e77428b0783171f61450862d066dff" target="_top" xlink:title="Ogre::Canvas::Context\l::save">
<polygon fill="white" stroke="black" points="308,-260 308,-294 426,-294 426,-260 308,-260"/>
<text text-anchor="start" x="316" y="-281" font-family="Helvetica,sans-Serif" font-size="10.00">Ogre::Canvas::Context</text>
<text text-anchor="middle" x="367" y="-268" font-family="Helvetica,sans-Serif" font-size="10.00">::save</text>
</a>
</g>
<!-- Node2&#45;&gt;Node4 -->
<g id="edge6" class="edge"><title>Node2&#45;&gt;Node4</title>
<path fill="none" stroke="midnightblue" d="M230.788,-190.135C249.076,-207.119 278.914,-233.117 308,-251 310.333,-252.435 312.759,-253.832 315.239,-255.187"/>
<polygon fill="midnightblue" stroke="midnightblue" points="313.893,-258.431 324.386,-259.896 317.097,-252.207 313.893,-258.431"/>
</g>
<!-- Node6 -->
<g id="node11" class="node"><title>Node6</title>
<a xlink:href="class_ogre_1_1_canvas_1_1_context.html#aa89bcf7189c5d64e5aa44acbf2ea6616" target="_top" xlink:title="Ogre::Canvas::Context\l::translate">
<polygon fill="white" stroke="black" points="308,-208 308,-242 426,-242 426,-208 308,-208"/>
<text text-anchor="start" x="316" y="-229" font-family="Helvetica,sans-Serif" font-size="10.00">Ogre::Canvas::Context</text>
<text text-anchor="middle" x="367" y="-216" font-family="Helvetica,sans-Serif" font-size="10.00">::translate</text>
</a>
</g>
<!-- Node2&#45;&gt;Node6 -->
<g id="edge10" class="edge"><title>Node2&#45;&gt;Node6</title>
<path fill="none" stroke="midnightblue" d="M263.425,-190.027C277.252,-194.696 292.382,-199.804 306.703,-204.64"/>
<polygon fill="midnightblue" stroke="midnightblue" points="305.867,-208.052 316.461,-207.935 308.107,-201.42 305.867,-208.052"/>
</g>
<!-- Node7 -->
<g id="node13" class="node"><title>Node7</title>
<a xlink:href="class_ogre_1_1_canvas_1_1_context.html#ae7c4bb5074c01bc2a17923897827ed76" target="_top" xlink:title="Ogre::Canvas::Context\l::fillStyle">
<polygon fill="white" stroke="black" points="308,-156 308,-190 426,-190 426,-156 308,-156"/>
<text text-anchor="start" x="316" y="-177" font-family="Helvetica,sans-Serif" font-size="10.00">Ogre::Canvas::Context</text>
<text text-anchor="middle" x="367" y="-164" font-family="Helvetica,sans-Serif" font-size="10.00">::fillStyle</text>
</a>
</g>
<!-- Node2&#45;&gt;Node7 -->
<g id="edge12" class="edge"><title>Node2&#45;&gt;Node7</title>
<path fill="none" stroke="midnightblue" d="M272.1,-173C280.422,-173 289.039,-173 297.533,-173"/>
<polygon fill="midnightblue" stroke="midnightblue" points="297.804,-176.5 307.804,-173 297.804,-169.5 297.804,-176.5"/>
</g>
<!-- Node8 -->
<g id="node16" class="node"><title>Node8</title>
<a xlink:href="class_ogre_1_1_canvas_1_1_context.html#a9e9e34999d54e2eee82b26ea55fd001f" target="_top" xlink:title="Ogre::Canvas::Context\l::scale">
<polygon fill="white" stroke="black" points="308,-104 308,-138 426,-138 426,-104 308,-104"/>
<text text-anchor="start" x="316" y="-125" font-family="Helvetica,sans-Serif" font-size="10.00">Ogre::Canvas::Context</text>
<text text-anchor="middle" x="367" y="-112" font-family="Helvetica,sans-Serif" font-size="10.00">::scale</text>
</a>
</g>
<!-- Node2&#45;&gt;Node8 -->
<g id="edge16" class="edge"><title>Node2&#45;&gt;Node8</title>
<path fill="none" stroke="midnightblue" d="M263.425,-155.973C277.252,-151.304 292.382,-146.196 306.703,-141.36"/>
<polygon fill="midnightblue" stroke="midnightblue" points="308.107,-144.58 316.461,-138.065 305.867,-137.948 308.107,-144.58"/>
</g>
<!-- Node9 -->
<g id="node18" class="node"><title>Node9</title>
<a xlink:href="class_ogre_1_1_canvas_1_1_context.html#aa938fc4e0062dd4ad7684a996e78a5b5" target="_top" xlink:title="Ogre::Canvas::Context\l::fillRect">
<polygon fill="white" stroke="black" points="308,-52 308,-86 426,-86 426,-52 308,-52"/>
<text text-anchor="start" x="316" y="-73" font-family="Helvetica,sans-Serif" font-size="10.00">Ogre::Canvas::Context</text>
<text text-anchor="middle" x="367" y="-60" font-family="Helvetica,sans-Serif" font-size="10.00">::fillRect</text>
</a>
</g>
<!-- Node2&#45;&gt;Node9 -->
<g id="edge18" class="edge"><title>Node2&#45;&gt;Node9</title>
<path fill="none" stroke="midnightblue" d="M230.788,-155.865C249.076,-138.881 278.914,-112.883 308,-95 310.333,-93.5655 312.759,-92.1676 315.239,-90.8126"/>
<polygon fill="midnightblue" stroke="midnightblue" points="317.097,-93.793 324.386,-86.104 313.893,-87.5693 317.097,-93.793"/>
</g>
<!-- Node10 -->
<g id="node20" class="node"><title>Node10</title>
<a xlink:href="class_ogre_1_1_canvas_1_1_context.html#aedd6cb09a586bec9c9e1431cdc0bc45d" target="_top" xlink:title="Ogre::Canvas::Context\l::restore">
<polygon fill="white" stroke="black" points="308,-0 308,-34 426,-34 426,-0 308,-0"/>
<text text-anchor="start" x="316" y="-21" font-family="Helvetica,sans-Serif" font-size="10.00">Ogre::Canvas::Context</text>
<text text-anchor="middle" x="367" y="-8" font-family="Helvetica,sans-Serif" font-size="10.00">::restore</text>
</a>
</g>
<!-- Node2&#45;&gt;Node10 -->
<g id="edge20" class="edge"><title>Node2&#45;&gt;Node10</title>
<path fill="none" stroke="midnightblue" d="M221.806,-155.585C236.379,-128.292 267.922,-75.2374 308,-43 309.537,-41.7635 311.143,-40.574 312.799,-39.4309"/>
<polygon fill="midnightblue" stroke="midnightblue" points="314.763,-42.3315 321.433,-34.0993 311.085,-36.3756 314.763,-42.3315"/>
</g>
<!-- Node5 -->
<g id="node9" class="node"><title>Node5</title>
<a xlink:href="class_ogre_1_1_canvas_1_1_context.html#a082ff2e97331fd49e6e98bf1f192d223" target="_top" xlink:title="Ogre::Canvas::Context\l::getCurrentState">
<polygon fill="white" stroke="black" points="462,-208 462,-242 580,-242 580,-208 462,-208"/>
<text text-anchor="start" x="470" y="-229" font-family="Helvetica,sans-Serif" font-size="10.00">Ogre::Canvas::Context</text>
<text text-anchor="middle" x="521" y="-216" font-family="Helvetica,sans-Serif" font-size="10.00">::getCurrentState</text>
</a>
</g>
<!-- Node4&#45;&gt;Node5 -->
<g id="edge8" class="edge"><title>Node4&#45;&gt;Node5</title>
<path fill="none" stroke="midnightblue" d="M417.425,-259.973C431.252,-255.304 446.382,-250.196 460.703,-245.36"/>
<polygon fill="midnightblue" stroke="midnightblue" points="462.107,-248.58 470.461,-242.065 459.867,-241.948 462.107,-248.58"/>
</g>
<!-- Node7&#45;&gt;Node5 -->
<g id="edge14" class="edge"><title>Node7&#45;&gt;Node5</title>
<path fill="none" stroke="midnightblue" d="M417.425,-190.027C431.252,-194.696 446.382,-199.804 460.703,-204.64"/>
<polygon fill="midnightblue" stroke="midnightblue" points="459.867,-208.052 470.461,-207.935 462.107,-201.42 459.867,-208.052"/>
</g>
</g>
</svg>
        <g id="navigator" transform="translate(0 0)" fill="#404254">
                <rect fill="#f2f5e9" fill-opacity="0.5" stroke="#606060" stroke-width=".5" x="0" y="0" width="60" height="60"/>
                <use id="zoomplus" xlink:href="#zoomPlus" x="17" y="9" onmousedown="handleZoom(evt,'in')"/>
                <use id="zoomminus" xlink:href="#zoomMin" x="42" y="9" onmousedown="handleZoom(evt,'out')"/>
                <use id="reset" xlink:href="#resetDef" x="30" y="36" onmousedown="handleReset()"/>
                <g id="arrowUp" xlink:href="#dirArrow" transform="translate(30 24)" onmousedown="handlePan(0,-1)">
                  <use xlink:href="#rim" fill="#404040">
                        <set attributeName="fill" to="#808080" begin="arrowUp.mouseover" end="arrowUp.mouseout"/>
                  </use>
                  <path fill="none" stroke="white" stroke-width="1.5" d="M0,-3.0v7 M-2.5,-0.5L0,-3.0L2.5,-0.5"/>
                </g>
                <g id="arrowRight" xlink:href="#dirArrow" transform="rotate(90) translate(36 -43)" onmousedown="handlePan(1,0)">
                  <use xlink:href="#rim" fill="#404040">
                        <set attributeName="fill" to="#808080" begin="arrowRight.mouseover" end="arrowRight.mouseout"/>
                  </use>
                  <path fill="none" stroke="white" stroke-width="1.5" d="M0,-3.0v7 M-2.5,-0.5L0,-3.0L2.5,-0.5"/>
                </g>
                <g id="arrowDown" xlink:href="#dirArrow" transform="rotate(180) translate(-30 -48)" onmousedown="handlePan(0,1)">
                  <use xlink:href="#rim" fill="#404040">
                        <set attributeName="fill" to="#808080" begin="arrowDown.mouseover" end="arrowDown.mouseout"/>
                  </use>
                  <path fill="none" stroke="white" stroke-width="1.5" d="M0,-3.0v7 M-2.5,-0.5L0,-3.0L2.5,-0.5"/>
                </g>
                <g id="arrowLeft" xlink:href="#dirArrow" transform="rotate(270) translate(-36 17)" onmousedown="handlePan(-1,0)">
                  <use xlink:href="#rim" fill="#404040">
                        <set attributeName="fill" to="#808080" begin="arrowLeft.mouseover" end="arrowLeft.mouseout"/>
                  </use>
                  <path fill="none" stroke="white" stroke-width="1.5" d="M0,-3.0v7 M-2.5,-0.5L0,-3.0L2.5,-0.5"/>
                </g>
        </g>
        <svg viewBox="0 0 15 15" width="100%" height="30px" preserveAspectRatio="xMaxYMin meet">
         <g id="arrow_out" transform="scale(0.3 0.3)">
          <a xlink:href="class_ogre_1_1_canvas_1_1_context_ad539afeefbca814afbdd0710261de5e0_cgraph_org.svg" target="_base">
           <rect id="button" ry="5" rx="5" y="6" x="6" height="38" width="38"
                fill="#f2f5e9" fill-opacity="0.5" stroke="#606060" stroke-width="1.0"/>
           <path id="arrow"
             d="M 11.500037,31.436501 C 11.940474,20.09759 22.043105,11.32322 32.158766,21.979434 L 37.068811,17.246167 C 37.068811,17.246167 37.088388,32 37.088388,32 L 22.160133,31.978069 C 22.160133,31.978069 26.997745,27.140456 26.997745,27.140456 C 18.528582,18.264221 13.291696,25.230495 11.500037,31.436501 z"
             style="fill:#404040;"/>
          </a>
         </g>
        </svg>
</svg>
