<?xml version="1.0" encoding="UTF-8" standalone="no"?>
<!DOCTYPE svg PUBLIC "-//W3C//DTD SVG 1.1//EN"
 "http://www.w3.org/Graphics/SVG/1.1/DTD/svg11.dtd">
<!-- Generated by graphviz version 2.26.3 (20100126.1600)
 -->
<!-- Title: G Pages: 1 -->
<!--zoomable 130 -->
<svg id="main" version="1.1" xmlns="http://www.w3.org/2000/svg" xmlns:xlink="http://www.w3.org/1999/xlink" xml:space="preserve" onload="init(evt)">
        <defs>
                <circle id="rim" cx="0" cy="0" r="7"/>
                <circle id="rim2" cx="0" cy="0" r="3.5"/>
                <g id="zoomPlus">
                        <use xlink:href="#rim" fill="#404040">
                                <set attributeName="fill" to="#808080" begin="zoomplus.mouseover" end="zoomplus.mouseout"/>
                        </use>
                        <path d="M-4,0h8M0,-4v8" fill="none" stroke="white" stroke-width="1.5" pointer-events="none"/>
                </g>
                <g id="zoomMin">
                        <use xlink:href="#rim" fill="#404040">
                                <set attributeName="fill" to="#808080" begin="zoomminus.mouseover" end="zoomminus.mouseout"/>
                        </use>
                        <path d="M-4,0h8" fill="none" stroke="white" stroke-width="1.5" pointer-events="none"/>
                </g>
                <g id="dirArrow">
                        <path fill="none" stroke="white" stroke-width="1.5" d="M0,-3.0v7 M-2.5,-0.5L0,-3.0L2.5,-0.5"/>
                </g>
               <g id="resetDef">
                       <use xlink:href="#rim2" fill="#404040">
                               <set attributeName="fill" to="#808080" begin="reset.mouseover" end="reset.mouseout"/>
                       </use>
               </g>
        </defs>

<script type="text/javascript">
var viewWidth = 1198;
var viewHeight = 130;
var sectionId = 'dynsection-99';
</script>
<script xlink:href="svgpan.js"/>
<svg id="graph" class="graph">
<g id="viewport">
<title>G</title>
<polygon fill="white" stroke="white" points="-4,5 -4,-126 1195,-126 1195,5 -4,5"/>
<!-- Node1 -->
<g id="node1" class="node"><title>Node1</title>
<polygon fill="#bfbfbf" stroke="black" points="0.5,-60.5 0.5,-81.5 227.5,-81.5 227.5,-60.5 0.5,-60.5"/>
<text text-anchor="middle" x="114" y="-68.5" font-family="Helvetica,sans-Serif" font-size="10.00">RigDef::Parser::ParseDirectiveSetNodeDefaults</text>
</g>
<!-- Node2 -->
<g id="node3" class="node"><title>Node2</title>
<a xlink:href="class_rig_def_1_1_parser.html#a572673469cf88cdebbd30e04df5629ff" target="_top" xlink:title="RigDef::Parser::ParseLine">
<polygon fill="white" stroke="black" points="264.5,-60.5 264.5,-81.5 395.5,-81.5 395.5,-60.5 264.5,-60.5"/>
<text text-anchor="middle" x="330" y="-68.5" font-family="Helvetica,sans-Serif" font-size="10.00">RigDef::Parser::ParseLine</text>
</a>
</g>
<!-- Node1&#45;&gt;Node2 -->
<g id="edge2" class="edge"><title>Node1&#45;&gt;Node2</title>
<path fill="none" stroke="midnightblue" d="M237.911,-71C246.917,-71 255.772,-71 264.218,-71"/>
<polygon fill="midnightblue" stroke="midnightblue" points="237.693,-67.5001 227.693,-71 237.693,-74.5001 237.693,-67.5001"/>
</g>
<!-- Node3 -->
<g id="node5" class="node"><title>Node3</title>
<a xlink:href="class_beam.html#a866f7eb5e93d6c476fa1bd0a4b7dcdf5" target="_top" xlink:title="Beam::LoadTruck">
<polygon fill="white" stroke="black" points="477,-100.5 477,-121.5 571,-121.5 571,-100.5 477,-100.5"/>
<text text-anchor="middle" x="524" y="-108.5" font-family="Helvetica,sans-Serif" font-size="10.00">Beam::LoadTruck</text>
</a>
</g>
<!-- Node2&#45;&gt;Node3 -->
<g id="edge4" class="edge"><title>Node2&#45;&gt;Node3</title>
<path fill="none" stroke="midnightblue" d="M390.943,-83.5657C418.627,-89.2737 450.88,-95.9237 476.697,-101.247"/>
<polygon fill="midnightblue" stroke="midnightblue" points="391.472,-80.1011 380.971,-81.5095 390.058,-86.9569 391.472,-80.1011"/>
</g>
<!-- Node5 -->
<g id="node9" class="node"><title>Node5</title>
<a xlink:href="class_cache_system.html#ad640fd28c3075eb6310d8d8f3475cefb" target="_top" xlink:title="CacheSystem::fillTruckDetailInfo">
<polygon fill="white" stroke="black" points="443.5,-60.5 443.5,-81.5 604.5,-81.5 604.5,-60.5 443.5,-60.5"/>
<text text-anchor="middle" x="524" y="-68.5" font-family="Helvetica,sans-Serif" font-size="10.00">CacheSystem::fillTruckDetailInfo</text>
</a>
</g>
<!-- Node2&#45;&gt;Node5 -->
<g id="edge8" class="edge"><title>Node2&#45;&gt;Node5</title>
<path fill="none" stroke="midnightblue" d="M405.855,-71C418.123,-71 430.866,-71 443.245,-71"/>
<polygon fill="midnightblue" stroke="midnightblue" points="405.68,-67.5001 395.68,-71 405.68,-74.5001 405.68,-67.5001"/>
</g>
<!-- Node6 -->
<g id="node11" class="node"><title>Node6</title>
<a xlink:href="class_ro_r_1_1_rig_editor_1_1_main.html#a0ae39993d636eacc5dfe567c5f5ac4b9" target="_top" xlink:title="RoR::RigEditor::Main::LoadRigDefFile">
<polygon fill="white" stroke="black" points="432,-20.5 432,-41.5 616,-41.5 616,-20.5 432,-20.5"/>
<text text-anchor="middle" x="524" y="-28.5" font-family="Helvetica,sans-Serif" font-size="10.00">RoR::RigEditor::Main::LoadRigDefFile</text>
</a>
</g>
<!-- Node2&#45;&gt;Node6 -->
<g id="edge10" class="edge"><title>Node2&#45;&gt;Node6</title>
<path fill="none" stroke="midnightblue" d="M390.868,-58.45C417.274,-53.0054 447.848,-46.7014 473.033,-41.5087"/>
<polygon fill="midnightblue" stroke="midnightblue" points="390.058,-55.0431 380.971,-60.4905 391.472,-61.8989 390.058,-55.0431"/>
</g>
<!-- Node4 -->
<g id="node7" class="node"><title>Node4</title>
<a xlink:href="class_beam.html#ac3b331240d6084f4a5116f6c862b65ad" target="_top" xlink:title="Beam::Beam">
<polygon fill="white" stroke="black" points="726,-100.5 726,-121.5 800,-121.5 800,-100.5 726,-100.5"/>
<text text-anchor="middle" x="763" y="-108.5" font-family="Helvetica,sans-Serif" font-size="10.00">Beam::Beam</text>
</a>
</g>
<!-- Node3&#45;&gt;Node4 -->
<g id="edge6" class="edge"><title>Node3&#45;&gt;Node4</title>
<path fill="none" stroke="midnightblue" d="M581.369,-111C626.14,-111 687.03,-111 725.679,-111"/>
<polygon fill="midnightblue" stroke="midnightblue" points="581.219,-107.5 571.219,-111 581.219,-114.5 581.219,-107.5"/>
</g>
<!-- Node7 -->
<g id="node13" class="node"><title>Node7</title>
<a xlink:href="class_ro_r_1_1_rig_editor_1_1_main.html#a35a10d6c23920802442d32fab1a8d470" target="_top" xlink:title="RoR::RigEditor::Main::NotifyFileSelectorEnded">
<polygon fill="white" stroke="black" points="652,-20.5 652,-41.5 874,-41.5 874,-20.5 652,-20.5"/>
<text text-anchor="middle" x="763" y="-28.5" font-family="Helvetica,sans-Serif" font-size="10.00">RoR::RigEditor::Main::NotifyFileSelectorEnded</text>
</a>
</g>
<!-- Node6&#45;&gt;Node7 -->
<g id="edge12" class="edge"><title>Node6&#45;&gt;Node7</title>
<path fill="none" stroke="midnightblue" d="M626.292,-31C634.736,-31 643.298,-31 651.803,-31"/>
<polygon fill="midnightblue" stroke="midnightblue" points="626.062,-27.5001 616.062,-31 626.062,-34.5001 626.062,-27.5001"/>
</g>
<!-- Node8 -->
<g id="node15" class="node"><title>Node8</title>
<a xlink:href="class_ro_r_1_1_rig_editor_1_1_main.html#a4f73e9dc5632524ca803864460b82bb5" target="_top" xlink:title="RoR::RigEditor::Main::CommandShowDialogOpenRigFile">
<polygon fill="white" stroke="black" points="916,-40.5 916,-61.5 1184,-61.5 1184,-40.5 916,-40.5"/>
<text text-anchor="middle" x="1050" y="-48.5" font-family="Helvetica,sans-Serif" font-size="10.00">RoR::RigEditor::Main::CommandShowDialogOpenRigFile</text>
</a>
</g>
<!-- Node7&#45;&gt;Node8 -->
<g id="edge14" class="edge"><title>Node7&#45;&gt;Node8</title>
<path fill="none" stroke="midnightblue" d="M884.603,-39.4741C894.893,-40.1911 905.336,-40.9189 915.715,-41.6422"/>
<polygon fill="midnightblue" stroke="midnightblue" points="884.592,-35.9649 874.372,-38.7611 884.105,-42.9479 884.592,-35.9649"/>
</g>
<!-- Node9 -->
<g id="node17" class="node"><title>Node9</title>
<a xlink:href="class_ro_r_1_1_rig_editor_1_1_main.html#acb4af1361d9233f5ee2fa658536a7658" target="_top" xlink:title="RoR::RigEditor::Main::CommandShowDialogSaveRigFileAs">
<polygon fill="white" stroke="black" points="910.5,-0.5 910.5,-21.5 1189.5,-21.5 1189.5,-0.5 910.5,-0.5"/>
<text text-anchor="middle" x="1050" y="-8.5" font-family="Helvetica,sans-Serif" font-size="10.00">RoR::RigEditor::Main::CommandShowDialogSaveRigFileAs</text>
</a>
</g>
<!-- Node7&#45;&gt;Node9 -->
<g id="edge16" class="edge"><title>Node7&#45;&gt;Node9</title>
<path fill="none" stroke="midnightblue" d="M884.409,-22.5395C893.007,-21.9403 901.713,-21.3336 910.401,-20.7282"/>
<polygon fill="midnightblue" stroke="midnightblue" points="884.105,-19.052 874.372,-23.2389 884.592,-26.0351 884.105,-19.052"/>
</g>
</g>
</svg>
        <g id="navigator" transform="translate(0 0)" fill="#404254">
                <rect fill="#f2f5e9" fill-opacity="0.5" stroke="#606060" stroke-width=".5" x="0" y="0" width="60" height="60"/>
                <use id="zoomplus" xlink:href="#zoomPlus" x="17" y="9" onmousedown="handleZoom(evt,'in')"/>
                <use id="zoomminus" xlink:href="#zoomMin" x="42" y="9" onmousedown="handleZoom(evt,'out')"/>
                <use id="reset" xlink:href="#resetDef" x="30" y="36" onmousedown="handleReset()"/>
                <g id="arrowUp" xlink:href="#dirArrow" transform="translate(30 24)" onmousedown="handlePan(0,-1)">
                  <use xlink:href="#rim" fill="#404040">
                        <set attributeName="fill" to="#808080" begin="arrowUp.mouseover" end="arrowUp.mouseout"/>
                  </use>
                  <path fill="none" stroke="white" stroke-width="1.5" d="M0,-3.0v7 M-2.5,-0.5L0,-3.0L2.5,-0.5"/>
                </g>
                <g id="arrowRight" xlink:href="#dirArrow" transform="rotate(90) translate(36 -43)" onmousedown="handlePan(1,0)">
                  <use xlink:href="#rim" fill="#404040">
                        <set attributeName="fill" to="#808080" begin="arrowRight.mouseover" end="arrowRight.mouseout"/>
                  </use>
                  <path fill="none" stroke="white" stroke-width="1.5" d="M0,-3.0v7 M-2.5,-0.5L0,-3.0L2.5,-0.5"/>
                </g>
                <g id="arrowDown" xlink:href="#dirArrow" transform="rotate(180) translate(-30 -48)" onmousedown="handlePan(0,1)">
                  <use xlink:href="#rim" fill="#404040">
                        <set attributeName="fill" to="#808080" begin="arrowDown.mouseover" end="arrowDown.mouseout"/>
                  </use>
                  <path fill="none" stroke="white" stroke-width="1.5" d="M0,-3.0v7 M-2.5,-0.5L0,-3.0L2.5,-0.5"/>
                </g>
                <g id="arrowLeft" xlink:href="#dirArrow" transform="rotate(270) translate(-36 17)" onmousedown="handlePan(-1,0)">
                  <use xlink:href="#rim" fill="#404040">
                        <set attributeName="fill" to="#808080" begin="arrowLeft.mouseover" end="arrowLeft.mouseout"/>
                  </use>
                  <path fill="none" stroke="white" stroke-width="1.5" d="M0,-3.0v7 M-2.5,-0.5L0,-3.0L2.5,-0.5"/>
                </g>
        </g>
</svg>
