<?xml version="1.0" encoding="UTF-8" standalone="no"?>
<!DOCTYPE svg PUBLIC "-//W3C//DTD SVG 1.1//EN"
 "http://www.w3.org/Graphics/SVG/1.1/DTD/svg11.dtd">
<!-- Generated by graphviz version 2.26.3 (20100126.1600)
 -->
<!-- Title: GameScript::repairVehicle Pages: 1 -->
<!--zoomable 156 -->
<svg id="main" version="1.1" xmlns="http://www.w3.org/2000/svg" xmlns:xlink="http://www.w3.org/1999/xlink" xml:space="preserve" onload="init(evt)">
<style type="text/css"><![CDATA[
.edge:hover path { stroke: red; }
.edge:hover polygon { stroke: red; fill: red; }
]]></style>
<script type="text/javascript"><![CDATA[
var edges = document.getElementsByTagName('g');
if (edges && edges.length) {
  for (var i=0;i<edges.length;i++) {
    if (edges[i].id.substr(0,4)=='edge') {
      edges[i].setAttribute('class','edge');
    }
  }
}
]]></script>
        <defs>
                <circle id="rim" cx="0" cy="0" r="7"/>
                <circle id="rim2" cx="0" cy="0" r="3.5"/>
                <g id="zoomPlus">
                        <use xlink:href="#rim" fill="#404040">
                                <set attributeName="fill" to="#808080" begin="zoomplus.mouseover" end="zoomplus.mouseout"/>
                        </use>
                        <path d="M-4,0h8M0,-4v8" fill="none" stroke="white" stroke-width="1.5" pointer-events="none"/>
                </g>
                <g id="zoomMin">
                        <use xlink:href="#rim" fill="#404040">
                                <set attributeName="fill" to="#808080" begin="zoomminus.mouseover" end="zoomminus.mouseout"/>
                        </use>
                        <path d="M-4,0h8" fill="none" stroke="white" stroke-width="1.5" pointer-events="none"/>
                </g>
                <g id="dirArrow">
                        <path fill="none" stroke="white" stroke-width="1.5" d="M0,-3.0v7 M-2.5,-0.5L0,-3.0L2.5,-0.5"/>
                </g>
               <g id="resetDef">
                       <use xlink:href="#rim2" fill="#404040">
                               <set attributeName="fill" to="#808080" begin="reset.mouseover" end="reset.mouseout"/>
                       </use>
               </g>
        </defs>

<script type="text/javascript">
var viewWidth = 674;
var viewHeight = 156;
var sectionId = 'dynsection-32';
</script>
<script xlink:href="svgpan.js"/>
<svg id="graph" class="graph">
<g id="viewport">
<title>GameScript::repairVehicle</title>
<polygon fill="white" stroke="white" points="-4,5 -4,-152 671,-152 671,5 -4,5"/>
<!-- Node1 -->
<g id="node1" class="node"><title>Node1</title>
<polygon fill="#bfbfbf" stroke="black" points="0.5,-86.5 0.5,-107.5 131.5,-107.5 131.5,-86.5 0.5,-86.5"/>
<text text-anchor="middle" x="66" y="-94.5" font-family="Helvetica,sans-Serif" font-size="10.00">GameScript::repairVehicle</text>
</g>
<!-- Node2 -->
<g id="node3" class="node"><title>Node2</title>
<a xlink:href="class_streamable_factory.html#a233cafcf6f87f5779b1a26a5a48d8f6d" target="_top" xlink:title="StreamableFactory\&lt;\l BeamFactory, Beam \&gt;\l::getSingleton">
<polygon fill="white" stroke="black" points="173.5,-100.5 173.5,-147.5 292.5,-147.5 292.5,-100.5 173.5,-100.5"/>
<text text-anchor="start" x="181.5" y="-134.5" font-family="Helvetica,sans-Serif" font-size="10.00">StreamableFactory&lt;</text>
<text text-anchor="start" x="181.5" y="-121.5" font-family="Helvetica,sans-Serif" font-size="10.00"> BeamFactory, Beam &gt;</text>
<text text-anchor="middle" x="233" y="-108.5" font-family="Helvetica,sans-Serif" font-size="10.00">::getSingleton</text>
</a>
</g>
<!-- Node1&#45;&gt;Node2 -->
<g id="edge2" class="edge"><title>Node1&#45;&gt;Node2</title>
<path fill="none" stroke="midnightblue" d="M131.045,-107.516C141.594,-109.222 152.557,-110.994 163.214,-112.717"/>
<polygon fill="midnightblue" stroke="midnightblue" points="162.883,-116.209 173.313,-114.35 164,-109.299 162.883,-116.209"/>
</g>
<!-- Node3 -->
<g id="node5" class="node"><title>Node3</title>
<a xlink:href="class_beam_factory.html#a508cb7a834236ed7786f780bbe6f84f6" target="_top" xlink:title="BeamFactory::repairTruck">
<polygon fill="white" stroke="black" points="168,-60.5 168,-81.5 298,-81.5 298,-60.5 168,-60.5"/>
<text text-anchor="middle" x="233" y="-68.5" font-family="Helvetica,sans-Serif" font-size="10.00">BeamFactory::repairTruck</text>
</a>
</g>
<!-- Node1&#45;&gt;Node3 -->
<g id="edge4" class="edge"><title>Node1&#45;&gt;Node3</title>
<path fill="none" stroke="midnightblue" d="M131.524,-86.7987C140.221,-85.4446 149.192,-84.048 158.033,-82.6715"/>
<polygon fill="midnightblue" stroke="midnightblue" points="158.597,-86.126 167.939,-81.1292 157.52,-79.2093 158.597,-86.126"/>
</g>
<!-- Node4 -->
<g id="node7" class="node"><title>Node4</title>
<a xlink:href="class_beam_factory.html#a1be739481d24f2f05c0620c7f176c0a3" target="_top" xlink:title="BeamFactory::findTruckInsideBox">
<polygon fill="white" stroke="black" points="334.5,-120.5 334.5,-141.5 499.5,-141.5 499.5,-120.5 334.5,-120.5"/>
<text text-anchor="middle" x="417" y="-128.5" font-family="Helvetica,sans-Serif" font-size="10.00">BeamFactory::findTruckInsideBox</text>
</a>
</g>
<!-- Node3&#45;&gt;Node4 -->
<g id="edge6" class="edge"><title>Node3&#45;&gt;Node4</title>
<path fill="none" stroke="midnightblue" d="M271.972,-81.5416C280.663,-84.2909 289.745,-87.4826 298,-91 314.838,-98.1748 316.947,-104.351 334,-111 340.309,-113.46 347.01,-115.679 353.762,-117.665"/>
<polygon fill="midnightblue" stroke="midnightblue" points="353.079,-121.107 363.651,-120.408 354.95,-114.362 353.079,-121.107"/>
</g>
<!-- Node6 -->
<g id="node11" class="node"><title>Node6</title>
<a xlink:href="class_beam.html#a078999d6e513dd4830721a9b373d6925" target="_top" xlink:title="Beam::reset">
<polygon fill="white" stroke="black" points="382,-80.5 382,-101.5 452,-101.5 452,-80.5 382,-80.5"/>
<text text-anchor="middle" x="417" y="-88.5" font-family="Helvetica,sans-Serif" font-size="10.00">Beam::reset</text>
</a>
</g>
<!-- Node3&#45;&gt;Node6 -->
<g id="edge10" class="edge"><title>Node3&#45;&gt;Node6</title>
<path fill="none" stroke="midnightblue" d="M298.13,-78.0794C322.495,-80.7277 349.615,-83.6756 371.792,-86.0861"/>
<polygon fill="midnightblue" stroke="midnightblue" points="371.606,-89.5864 381.926,-87.1876 372.363,-82.6274 371.606,-89.5864"/>
</g>
<!-- Node7 -->
<g id="node13" class="node"><title>Node7</title>
<a xlink:href="class_beam.html#a45e5bfb79be383f661885fadbeddf105" target="_top" xlink:title="Beam::resetPosition">
<polygon fill="white" stroke="black" points="364.5,-40.5 364.5,-61.5 469.5,-61.5 469.5,-40.5 364.5,-40.5"/>
<text text-anchor="middle" x="417" y="-48.5" font-family="Helvetica,sans-Serif" font-size="10.00">Beam::resetPosition</text>
</a>
</g>
<!-- Node3&#45;&gt;Node7 -->
<g id="edge12" class="edge"><title>Node3&#45;&gt;Node7</title>
<path fill="none" stroke="midnightblue" d="M298.13,-63.9206C316.363,-61.9388 336.14,-59.7891 354.233,-57.8225"/>
<polygon fill="midnightblue" stroke="midnightblue" points="354.815,-61.28 364.378,-56.7198 354.058,-54.321 354.815,-61.28"/>
</g>
<!-- Node10 -->
<g id="node19" class="node"><title>Node10</title>
<a xlink:href="class_beam.html#a006ef9ec922c3ba72b4e53288779a548" target="_top" xlink:title="Beam::updateVisual">
<polygon fill="white" stroke="black" points="365,-0.5 365,-21.5 469,-21.5 469,-0.5 365,-0.5"/>
<text text-anchor="middle" x="417" y="-8.5" font-family="Helvetica,sans-Serif" font-size="10.00">Beam::updateVisual</text>
</a>
</g>
<!-- Node3&#45;&gt;Node10 -->
<g id="edge18" class="edge"><title>Node3&#45;&gt;Node10</title>
<path fill="none" stroke="midnightblue" d="M256.737,-60.4995C276.991,-51.8076 307.031,-39.543 334,-31 341.735,-28.5497 349.957,-26.2328 358.105,-24.1043"/>
<polygon fill="midnightblue" stroke="midnightblue" points="359.134,-27.4543 367.968,-21.6052 357.415,-20.6687 359.134,-27.4543"/>
</g>
<!-- Node5 -->
<g id="node9" class="node"><title>Node5</title>
<a xlink:href="class_collisions.html#af4afe6b0f900dcf87cb6bd70e98be890" target="_top" xlink:title="Collisions::isInside">
<polygon fill="white" stroke="black" points="551.5,-120.5 551.5,-141.5 650.5,-141.5 650.5,-120.5 551.5,-120.5"/>
<text text-anchor="middle" x="601" y="-128.5" font-family="Helvetica,sans-Serif" font-size="10.00">Collisions::isInside</text>
</a>
</g>
<!-- Node4&#45;&gt;Node5 -->
<g id="edge8" class="edge"><title>Node4&#45;&gt;Node5</title>
<path fill="none" stroke="midnightblue" d="M499.581,-131C513.527,-131 527.765,-131 540.995,-131"/>
<polygon fill="midnightblue" stroke="midnightblue" points="541.364,-134.5 551.364,-131 541.364,-127.5 541.364,-134.5"/>
</g>
<!-- Node8 -->
<g id="node15" class="node"><title>Node8</title>
<a xlink:href="class_terrain_manager.html#a1d0227a71a4e114099797646ff6756b7" target="_top" xlink:title="TerrainManager::getWater">
<polygon fill="white" stroke="black" points="536,-60.5 536,-81.5 666,-81.5 666,-60.5 536,-60.5"/>
<text text-anchor="middle" x="601" y="-68.5" font-family="Helvetica,sans-Serif" font-size="10.00">TerrainManager::getWater</text>
</a>
</g>
<!-- Node7&#45;&gt;Node8 -->
<g id="edge14" class="edge"><title>Node7&#45;&gt;Node8</title>
<path fill="none" stroke="midnightblue" d="M469.727,-56.7312C487.19,-58.6294 506.978,-60.7802 525.795,-62.8255"/>
<polygon fill="midnightblue" stroke="midnightblue" points="525.507,-66.3148 535.827,-63.916 526.264,-59.3558 525.507,-66.3148"/>
</g>
<!-- Node9 -->
<g id="node17" class="node"><title>Node9</title>
<a xlink:href="class_i_water.html#ad2499255884025d55a940eb24ecd8e4d" target="_top" xlink:title="IWater::getHeight">
<polygon fill="white" stroke="black" points="554,-20.5 554,-41.5 648,-41.5 648,-20.5 554,-20.5"/>
<text text-anchor="middle" x="601" y="-28.5" font-family="Helvetica,sans-Serif" font-size="10.00">IWater::getHeight</text>
</a>
</g>
<!-- Node7&#45;&gt;Node9 -->
<g id="edge16" class="edge"><title>Node7&#45;&gt;Node9</title>
<path fill="none" stroke="midnightblue" d="M469.727,-45.2688C492.853,-42.7551 520.056,-39.7983 543.683,-37.2301"/>
<polygon fill="midnightblue" stroke="midnightblue" points="544.349,-40.6784 553.912,-36.1182 543.592,-33.7194 544.349,-40.6784"/>
</g>
</g>
</svg>
        <g id="navigator" transform="translate(0 0)" fill="#404254">
                <rect fill="#f2f5e9" fill-opacity="0.5" stroke="#606060" stroke-width=".5" x="0" y="0" width="60" height="60"/>
                <use id="zoomplus" xlink:href="#zoomPlus" x="17" y="9" onmousedown="handleZoom(evt,'in')"/>
                <use id="zoomminus" xlink:href="#zoomMin" x="42" y="9" onmousedown="handleZoom(evt,'out')"/>
                <use id="reset" xlink:href="#resetDef" x="30" y="36" onmousedown="handleReset()"/>
                <g id="arrowUp" xlink:href="#dirArrow" transform="translate(30 24)" onmousedown="handlePan(0,-1)">
                  <use xlink:href="#rim" fill="#404040">
                        <set attributeName="fill" to="#808080" begin="arrowUp.mouseover" end="arrowUp.mouseout"/>
                  </use>
                  <path fill="none" stroke="white" stroke-width="1.5" d="M0,-3.0v7 M-2.5,-0.5L0,-3.0L2.5,-0.5"/>
                </g>
                <g id="arrowRight" xlink:href="#dirArrow" transform="rotate(90) translate(36 -43)" onmousedown="handlePan(1,0)">
                  <use xlink:href="#rim" fill="#404040">
                        <set attributeName="fill" to="#808080" begin="arrowRight.mouseover" end="arrowRight.mouseout"/>
                  </use>
                  <path fill="none" stroke="white" stroke-width="1.5" d="M0,-3.0v7 M-2.5,-0.5L0,-3.0L2.5,-0.5"/>
                </g>
                <g id="arrowDown" xlink:href="#dirArrow" transform="rotate(180) translate(-30 -48)" onmousedown="handlePan(0,1)">
                  <use xlink:href="#rim" fill="#404040">
                        <set attributeName="fill" to="#808080" begin="arrowDown.mouseover" end="arrowDown.mouseout"/>
                  </use>
                  <path fill="none" stroke="white" stroke-width="1.5" d="M0,-3.0v7 M-2.5,-0.5L0,-3.0L2.5,-0.5"/>
                </g>
                <g id="arrowLeft" xlink:href="#dirArrow" transform="rotate(270) translate(-36 17)" onmousedown="handlePan(-1,0)">
                  <use xlink:href="#rim" fill="#404040">
                        <set attributeName="fill" to="#808080" begin="arrowLeft.mouseover" end="arrowLeft.mouseout"/>
                  </use>
                  <path fill="none" stroke="white" stroke-width="1.5" d="M0,-3.0v7 M-2.5,-0.5L0,-3.0L2.5,-0.5"/>
                </g>
        </g>
        <svg viewBox="0 0 15 15" width="100%" height="30px" preserveAspectRatio="xMaxYMin meet">
         <g id="arrow_out" transform="scale(0.3 0.3)">
          <a xlink:href="class_game_script_ae03ec6ab884db49101677f34621651b7_cgraph_org.svg" target="_base">
           <rect id="button" ry="5" rx="5" y="6" x="6" height="38" width="38"
                fill="#f2f5e9" fill-opacity="0.5" stroke="#606060" stroke-width="1.0"/>
           <path id="arrow"
             d="M 11.500037,31.436501 C 11.940474,20.09759 22.043105,11.32322 32.158766,21.979434 L 37.068811,17.246167 C 37.068811,17.246167 37.088388,32 37.088388,32 L 22.160133,31.978069 C 22.160133,31.978069 26.997745,27.140456 26.997745,27.140456 C 18.528582,18.264221 13.291696,25.230495 11.500037,31.436501 z"
             style="fill:#404040;"/>
          </a>
         </g>
        </svg>
</svg>
