<?xml version="1.0" encoding="UTF-8" standalone="no"?>
<!DOCTYPE svg PUBLIC "-//W3C//DTD SVG 1.1//EN"
 "http://www.w3.org/Graphics/SVG/1.1/DTD/svg11.dtd">
<!-- Generated by graphviz version 2.26.3 (20100126.1600)
 -->
<!-- Title: RigDef::Parser::ParseTies Pages: 1 -->
<svg width="516pt" height="82pt"
 viewBox="0.00 0.00 516.00 82.00" xmlns="http://www.w3.org/2000/svg" xmlns:xlink="http://www.w3.org/1999/xlink">
<g id="graph1" class="graph" transform="scale(1 1) rotate(0) translate(4 78)">
<title>RigDef::Parser::ParseTies</title>
<polygon fill="white" stroke="white" points="-4,5 -4,-78 513,-78 513,5 -4,5"/>
<!-- Node1 -->
<g id="node1" class="node"><title>Node1</title>
<polygon fill="#bfbfbf" stroke="black" points="0,-32.5 0,-53.5 132,-53.5 132,-32.5 0,-32.5"/>
<text text-anchor="middle" x="66" y="-40.5" font-family="Helvetica,sans-Serif" font-size="10.00">RigDef::Parser::ParseTies</text>
</g>
<!-- Node2 -->
<g id="node3" class="node"><title>Node2</title>
<a xlink:href="class_rig_def_1_1_parser.html#a7da949423835fe3241f2ac4c5ac8ebb1" target="_top" xlink:title="RigDef::Parser::AddMessage">
<polygon fill="white" stroke="black" points="362.5,-52.5 362.5,-73.5 507.5,-73.5 507.5,-52.5 362.5,-52.5"/>
<text text-anchor="middle" x="435" y="-60.5" font-family="Helvetica,sans-Serif" font-size="10.00">RigDef::Parser::AddMessage</text>
</a>
</g>
<!-- Node1&#45;&gt;Node2 -->
<g id="edge2" class="edge"><title>Node1&#45;&gt;Node2</title>
<path fill="none" stroke="midnightblue" d="M132.396,-46.5987C193.973,-49.9362 285.83,-54.9149 352.178,-58.511"/>
<polygon fill="midnightblue" stroke="midnightblue" points="352.012,-62.0071 362.187,-59.0535 352.391,-55.0173 352.012,-62.0071"/>
</g>
<!-- Node3 -->
<g id="node5" class="node"><title>Node3</title>
<a xlink:href="class_rig_def_1_1_parser.html#a38e4135df406da0cc2f0fc4afb34ddb3" target="_top" xlink:title="RigDef::Parser::_ParseNodeRef">
<polygon fill="white" stroke="black" points="168,-13.5 168,-34.5 326,-34.5 326,-13.5 168,-13.5"/>
<text text-anchor="middle" x="247" y="-21.5" font-family="Helvetica,sans-Serif" font-size="10.00">RigDef::Parser::_ParseNodeRef</text>
</a>
</g>
<!-- Node1&#45;&gt;Node3 -->
<g id="edge4" class="edge"><title>Node1&#45;&gt;Node3</title>
<path fill="none" stroke="midnightblue" d="M132.113,-36.0599C140.461,-35.1837 149.107,-34.2761 157.738,-33.37"/>
<polygon fill="midnightblue" stroke="midnightblue" points="158.265,-36.8341 167.845,-32.3091 157.534,-29.8723 158.265,-36.8341"/>
</g>
<!-- Node3&#45;&gt;Node2 -->
<g id="edge8" class="edge"><title>Node3&#45;&gt;Node2</title>
<path fill="none" stroke="midnightblue" d="M297.876,-34.554C321.387,-39.4314 349.494,-45.2621 374.123,-50.3713"/>
<polygon fill="midnightblue" stroke="midnightblue" points="373.581,-53.8333 384.084,-52.4376 375.003,-46.9793 373.581,-53.8333"/>
</g>
<!-- Node4 -->
<g id="node7" class="node"><title>Node4</title>
<a xlink:href="class_rig_def_1_1_sequential_importer.html#a04d293d8b1f94b9a722e83715911e547" target="_top" xlink:title="RigDef::SequentialImporter\l::IsEnabled">
<polygon fill="white" stroke="black" points="367.5,-0 367.5,-34 502.5,-34 502.5,-0 367.5,-0"/>
<text text-anchor="start" x="375.5" y="-21" font-family="Helvetica,sans-Serif" font-size="10.00">RigDef::SequentialImporter</text>
<text text-anchor="middle" x="435" y="-8" font-family="Helvetica,sans-Serif" font-size="10.00">::IsEnabled</text>
</a>
</g>
<!-- Node3&#45;&gt;Node4 -->
<g id="edge6" class="edge"><title>Node3&#45;&gt;Node4</title>
<path fill="none" stroke="midnightblue" d="M326.184,-21.0517C336.42,-20.6705 346.896,-20.2805 357.11,-19.9001"/>
<polygon fill="midnightblue" stroke="midnightblue" points="357.356,-23.3935 367.219,-19.5238 357.096,-16.3984 357.356,-23.3935"/>
</g>
</g>
</svg>
