<?xml version="1.0" encoding="UTF-8" standalone="no"?>
<!DOCTYPE svg PUBLIC "-//W3C//DTD SVG 1.1//EN"
 "http://www.w3.org/Graphics/SVG/1.1/DTD/svg11.dtd">
<!-- Generated by graphviz version 2.26.3 (20100126.1600)
 -->
<!-- Title: RoR::MainThread::UnloadTerrain Pages: 1 -->
<svg width="1504pt" height="819pt"
 viewBox="0.00 0.00 1504.00 818.99" xmlns="http://www.w3.org/2000/svg" xmlns:xlink="http://www.w3.org/1999/xlink">
<g id="graph1" class="graph" transform="scale(1 1) rotate(0) translate(4 814.993)">
<title>RoR::MainThread::UnloadTerrain</title>
<polygon fill="white" stroke="white" points="-4,5 -4,-814.993 1501,-814.993 1501,5 -4,5"/>
<!-- Node1 -->
<g id="node1" class="node"><title>Node1</title>
<polygon fill="#bfbfbf" stroke="black" points="0.5,-528.493 0.5,-549.493 161.5,-549.493 161.5,-528.493 0.5,-528.493"/>
<text text-anchor="middle" x="81" y="-536.493" font-family="Helvetica,sans-Serif" font-size="10.00">RoR::MainThread::UnloadTerrain</text>
</g>
<!-- Node2 -->
<g id="node3" class="node"><title>Node2</title>
<a xlink:href="class_ro_r_frame_listener.html#ac3781516d790b1076e5af2278e996596" target="_top" xlink:title="RoRFrameListener::hideMap">
<polygon fill="white" stroke="black" points="205,-763.493 205,-784.493 347,-784.493 347,-763.493 205,-763.493"/>
<text text-anchor="middle" x="276" y="-771.493" font-family="Helvetica,sans-Serif" font-size="10.00">RoRFrameListener::hideMap</text>
</a>
</g>
<!-- Node1&#45;&gt;Node2 -->
<g id="edge2" class="edge"><title>Node1&#45;&gt;Node2</title>
<path fill="none" stroke="midnightblue" d="M83.6209,-549.943C92.6997,-585.417 126.254,-698.113 198,-753.993 200.199,-755.706 202.528,-757.273 204.955,-758.707"/>
<polygon fill="midnightblue" stroke="midnightblue" points="203.602,-761.945 214.105,-763.338 206.763,-755.699 203.602,-761.945"/>
</g>
<!-- Node3 -->
<g id="node5" class="node"><title>Node3</title>
<a xlink:href="class_ro_r_1_1_application.html#a3db1b8c7dc6bf465f5ed653ef4a8ce9a" target="_top" xlink:title="RoR::Application::GetGui\lManager">
<polygon fill="white" stroke="black" points="212,-710.993 212,-744.993 340,-744.993 340,-710.993 212,-710.993"/>
<text text-anchor="start" x="220" y="-731.993" font-family="Helvetica,sans-Serif" font-size="10.00">RoR::Application::GetGui</text>
<text text-anchor="middle" x="276" y="-718.993" font-family="Helvetica,sans-Serif" font-size="10.00">Manager</text>
</a>
</g>
<!-- Node1&#45;&gt;Node3 -->
<g id="edge4" class="edge"><title>Node1&#45;&gt;Node3</title>
<path fill="none" stroke="midnightblue" d="M85.6452,-549.503C98.8873,-578.271 139.668,-659.015 198,-701.993 199.867,-703.369 201.812,-704.675 203.817,-705.914"/>
<polygon fill="midnightblue" stroke="midnightblue" points="202.487,-709.177 212.935,-710.932 205.862,-703.045 202.487,-709.177"/>
</g>
<!-- Node4 -->
<g id="node7" class="node"><title>Node4</title>
<a xlink:href="class_ro_r_1_1_g_u_i_manager.html#a811ed5322cfb842c8fca91d5aa82644e" target="_top" xlink:title="RoR::GUIManager::getMain\lSelector">
<polygon fill="white" stroke="black" points="206.5,-658.993 206.5,-692.993 345.5,-692.993 345.5,-658.993 206.5,-658.993"/>
<text text-anchor="start" x="214.5" y="-679.993" font-family="Helvetica,sans-Serif" font-size="10.00">RoR::GUIManager::getMain</text>
<text text-anchor="middle" x="276" y="-666.993" font-family="Helvetica,sans-Serif" font-size="10.00">Selector</text>
</a>
</g>
<!-- Node1&#45;&gt;Node4 -->
<g id="edge6" class="edge"><title>Node1&#45;&gt;Node4</title>
<path fill="none" stroke="midnightblue" d="M90.3224,-549.686C108.949,-570.499 152.869,-616.874 198,-644.993 203.651,-648.514 209.769,-651.765 216.007,-654.731"/>
<polygon fill="midnightblue" stroke="midnightblue" points="214.638,-657.953 225.193,-658.871 217.514,-651.571 214.638,-657.953"/>
</g>
<!-- Node5 -->
<g id="node9" class="node"><title>Node5</title>
<a xlink:href="class_ro_r_1_1_application.html#a59a97190a3dea812d1f28504db82dc95" target="_top" xlink:title="RoR::Application::GetOverlay\lWrapper">
<polygon fill="white" stroke="black" points="949,-776.993 949,-810.993 1095,-810.993 1095,-776.993 949,-776.993"/>
<text text-anchor="start" x="957" y="-797.993" font-family="Helvetica,sans-Serif" font-size="10.00">RoR::Application::GetOverlay</text>
<text text-anchor="middle" x="1022" y="-784.993" font-family="Helvetica,sans-Serif" font-size="10.00">Wrapper</text>
</a>
</g>
<!-- Node1&#45;&gt;Node5 -->
<g id="edge8" class="edge"><title>Node1&#45;&gt;Node5</title>
<path fill="none" stroke="midnightblue" d="M105.325,-549.598C128.767,-559.569 165.382,-574.491 198,-584.993 464.759,-670.885 789.137,-744.346 938.89,-776.56"/>
<polygon fill="midnightblue" stroke="midnightblue" points="938.421,-780.04 948.933,-778.715 939.89,-773.195 938.421,-780.04"/>
</g>
<!-- Node6 -->
<g id="node11" class="node"><title>Node6</title>
<a xlink:href="class_ro_r_frame_listener.html#a8970611c63a05d2a5272fa2f58cba3ec" target="_top" xlink:title="RoRFrameListener::StopRace\lTimer">
<polygon fill="white" stroke="black" points="390.5,-575.993 390.5,-609.993 539.5,-609.993 539.5,-575.993 390.5,-575.993"/>
<text text-anchor="start" x="398.5" y="-596.993" font-family="Helvetica,sans-Serif" font-size="10.00">RoRFrameListener::StopRace</text>
<text text-anchor="middle" x="465" y="-583.993" font-family="Helvetica,sans-Serif" font-size="10.00">Timer</text>
</a>
</g>
<!-- Node1&#45;&gt;Node6 -->
<g id="edge10" class="edge"><title>Node1&#45;&gt;Node6</title>
<path fill="none" stroke="midnightblue" d="M130.09,-549.534C150.96,-553.784 175.603,-558.497 198,-561.993 258.75,-571.476 327.694,-579.409 380.304,-584.876"/>
<polygon fill="midnightblue" stroke="midnightblue" points="379.96,-588.359 390.266,-585.902 380.677,-581.396 379.96,-588.359"/>
</g>
<!-- Node7 -->
<g id="node14" class="node"><title>Node7</title>
<a xlink:href="class_overlay_wrapper.html#ac410083818e29a4d7848e97348f780be" target="_top" xlink:title="OverlayWrapper::HideRacing\lOverlay">
<polygon fill="white" stroke="black" points="204,-389.993 204,-423.993 348,-423.993 348,-389.993 204,-389.993"/>
<text text-anchor="start" x="212" y="-410.993" font-family="Helvetica,sans-Serif" font-size="10.00">OverlayWrapper::HideRacing</text>
<text text-anchor="middle" x="276" y="-397.993" font-family="Helvetica,sans-Serif" font-size="10.00">Overlay</text>
</a>
</g>
<!-- Node1&#45;&gt;Node7 -->
<g id="edge14" class="edge"><title>Node1&#45;&gt;Node7</title>
<path fill="none" stroke="midnightblue" d="M91.0216,-528.221C110.162,-508.165 153.948,-464.712 198,-437.993 203.776,-434.49 210.018,-431.238 216.368,-428.263"/>
<polygon fill="midnightblue" stroke="midnightblue" points="217.995,-431.37 225.706,-424.104 215.147,-424.975 217.995,-431.37"/>
</g>
<!-- Node8 -->
<g id="node16" class="node"><title>Node8</title>
<a xlink:href="class_overlay_wrapper.html#a581b30b171c031156c074e70d697ee20" target="_top" xlink:title="OverlayWrapper::HideDirection\lOverlay">
<polygon fill="white" stroke="black" points="200,-337.993 200,-371.993 352,-371.993 352,-337.993 200,-337.993"/>
<text text-anchor="start" x="208" y="-358.993" font-family="Helvetica,sans-Serif" font-size="10.00">OverlayWrapper::HideDirection</text>
<text text-anchor="middle" x="276" y="-345.993" font-family="Helvetica,sans-Serif" font-size="10.00">Overlay</text>
</a>
</g>
<!-- Node1&#45;&gt;Node8 -->
<g id="edge16" class="edge"><title>Node1&#45;&gt;Node8</title>
<path fill="none" stroke="midnightblue" d="M85.9326,-528.403C99.609,-500.179 140.808,-422.48 198,-380.993 199.878,-379.631 201.831,-378.337 203.843,-377.108"/>
<polygon fill="midnightblue" stroke="midnightblue" points="205.881,-379.984 212.989,-372.127 202.533,-373.837 205.881,-379.984"/>
</g>
<!-- Node9 -->
<g id="node18" class="node"><title>Node9</title>
<a xlink:href="class_streamable_factory.html#a233cafcf6f87f5779b1a26a5a48d8f6d" target="_top" xlink:title="StreamableFactory\&lt;\l BeamFactory, Beam \&gt;\l::getSingleton">
<polygon fill="white" stroke="black" points="962.5,-711.493 962.5,-758.493 1081.5,-758.493 1081.5,-711.493 962.5,-711.493"/>
<text text-anchor="start" x="970.5" y="-745.493" font-family="Helvetica,sans-Serif" font-size="10.00">StreamableFactory&lt;</text>
<text text-anchor="start" x="970.5" y="-732.493" font-family="Helvetica,sans-Serif" font-size="10.00"> BeamFactory, Beam &gt;</text>
<text text-anchor="middle" x="1022" y="-719.493" font-family="Helvetica,sans-Serif" font-size="10.00">::getSingleton</text>
</a>
</g>
<!-- Node1&#45;&gt;Node9 -->
<g id="edge110" class="edge"><title>Node1&#45;&gt;Node9</title>
<path fill="none" stroke="midnightblue" d="M161.536,-532.079C239.235,-529.993 360.167,-529.993 465,-529.993 465,-529.993 465,-529.993 652,-529.993 765.772,-529.993 818.894,-499.488 904,-574.993 945.016,-611.382 902.941,-652.582 940,-692.993 944.849,-698.28 950.661,-702.737 956.924,-706.545"/>
<polygon fill="midnightblue" stroke="midnightblue" points="955.243,-709.615 965.694,-711.353 958.608,-703.477 955.243,-709.615"/>
</g>
<!-- Node1&#45;&gt;Node9 -->
<g id="edge18" class="edge"><title>Node1&#45;&gt;Node9</title>
<path fill="none" stroke="midnightblue" d="M161.536,-545.907C239.235,-547.993 360.167,-547.993 465,-547.993 465,-547.993 465,-547.993 652,-547.993 765.772,-547.993 818.894,-517.488 904,-592.993 945.016,-629.382 902.941,-670.582 940,-710.993 943.987,-715.34 948.625,-719.126 953.629,-722.39"/>
<polygon fill="midnightblue" stroke="midnightblue" points="951.931,-725.451 962.345,-727.399 955.419,-719.382 951.931,-725.451"/>
</g>
<!-- Node10 -->
<g id="node20" class="node"><title>Node10</title>
<a xlink:href="class_beam_factory.html#a089236a1b1ee4dc3b6efa157a784d69c" target="_top" xlink:title="BeamFactory::removeAllTrucks">
<polygon fill="white" stroke="black" points="198.5,-480.493 198.5,-501.493 353.5,-501.493 353.5,-480.493 198.5,-480.493"/>
<text text-anchor="middle" x="276" y="-488.493" font-family="Helvetica,sans-Serif" font-size="10.00">BeamFactory::removeAllTrucks</text>
</a>
</g>
<!-- Node1&#45;&gt;Node10 -->
<g id="edge20" class="edge"><title>Node1&#45;&gt;Node10</title>
<path fill="none" stroke="midnightblue" d="M123.794,-528.459C153.131,-521.238 192.239,-511.611 223.467,-503.924"/>
<polygon fill="midnightblue" stroke="midnightblue" points="224.433,-507.291 233.306,-501.502 222.76,-500.494 224.433,-507.291"/>
</g>
<!-- Node24 -->
<g id="node48" class="node"><title>Node24</title>
<a xlink:href="class_character.html#a9431f9de49989e5bbf7e02810aca1f14" target="_top" xlink:title="Character::setVisible">
<polygon fill="white" stroke="black" points="1168,-161.493 1168,-182.493 1276,-182.493 1276,-161.493 1168,-161.493"/>
<text text-anchor="middle" x="1222" y="-169.493" font-family="Helvetica,sans-Serif" font-size="10.00">Character::setVisible</text>
</a>
</g>
<!-- Node1&#45;&gt;Node24 -->
<g id="edge106" class="edge"><title>Node1&#45;&gt;Node24</title>
<path fill="none" stroke="midnightblue" d="M96.1618,-528.251C117.795,-513.385 159.206,-486.61 198,-470.993 264.198,-444.344 301.755,-481.602 354,-432.993 392.28,-397.377 364.06,-366.391 390,-320.993 451.69,-213.028 471.08,-178.731 576,-111.993 775.115,14.6612 885.596,33.3813 1104,-55.9929 1152.01,-75.6405 1191.01,-125.291 1209.81,-152.839"/>
<polygon fill="midnightblue" stroke="midnightblue" points="1206.95,-154.862 1215.4,-161.259 1212.79,-150.991 1206.95,-154.862"/>
</g>
<!-- Node47 -->
<g id="node101" class="node"><title>Node47</title>
<a xlink:href="class_ro_r_1_1_application.html#ac10f59290ea215b07e53d3fc0206a962" target="_top" xlink:title="RoR::Application::Delete\lSceneMouse">
<polygon fill="white" stroke="black" points="213.5,-285.993 213.5,-319.993 338.5,-319.993 338.5,-285.993 213.5,-285.993"/>
<text text-anchor="start" x="221.5" y="-306.993" font-family="Helvetica,sans-Serif" font-size="10.00">RoR::Application::Delete</text>
<text text-anchor="middle" x="276" y="-293.993" font-family="Helvetica,sans-Serif" font-size="10.00">SceneMouse</text>
</a>
</g>
<!-- Node1&#45;&gt;Node47 -->
<g id="edge108" class="edge"><title>Node1&#45;&gt;Node47</title>
<path fill="none" stroke="midnightblue" d="M83.8619,-528.493C93.679,-494.441 129.238,-385.99 198,-328.993 200.019,-327.319 202.151,-325.752 204.367,-324.284"/>
<polygon fill="midnightblue" stroke="midnightblue" points="206.397,-327.152 213.286,-319.102 202.881,-321.1 206.397,-327.152"/>
</g>
<!-- Node48 -->
<g id="node104" class="node"><title>Node48</title>
<a xlink:href="class_character_factory.html#ad71015f567d69271e88269e994da747b" target="_top" xlink:title="CharacterFactory::create\lLocal">
<polygon fill="white" stroke="black" points="213.5,-233.993 213.5,-267.993 338.5,-267.993 338.5,-233.993 213.5,-233.993"/>
<text text-anchor="start" x="221.5" y="-254.993" font-family="Helvetica,sans-Serif" font-size="10.00">CharacterFactory::create</text>
<text text-anchor="middle" x="276" y="-241.993" font-family="Helvetica,sans-Serif" font-size="10.00">Local</text>
</a>
</g>
<!-- Node1&#45;&gt;Node48 -->
<g id="edge112" class="edge"><title>Node1&#45;&gt;Node48</title>
<path fill="none" stroke="midnightblue" d="M82.6043,-528.48C89.1381,-489.271 117.347,-350.087 198,-276.993 199.99,-275.19 202.108,-273.511 204.326,-271.948"/>
<polygon fill="midnightblue" stroke="midnightblue" points="206.588,-274.669 213.308,-266.478 202.947,-268.69 206.588,-274.669"/>
</g>
<!-- Node6&#45;&gt;Node5 -->
<g id="edge12" class="edge"><title>Node6&#45;&gt;Node5</title>
<path fill="none" stroke="midnightblue" d="M539.576,-588.109C650.227,-582.504 850.593,-579.177 904,-623.993 954.535,-666.399 894.822,-719.92 940,-767.993 940.793,-768.836 941.612,-769.653 942.457,-770.442"/>
<polygon fill="midnightblue" stroke="midnightblue" points="940.631,-773.458 950.664,-776.863 944.944,-767.944 940.631,-773.458"/>
</g>
<!-- Node11 -->
<g id="node22" class="node"><title>Node11</title>
<a xlink:href="class_beam_factory.html#a59b66e06ec1f1d1f9adb0d299da15265" target="_top" xlink:title="BeamFactory::p_removeAll\lTrucks">
<polygon fill="white" stroke="black" points="397.5,-329.993 397.5,-363.993 532.5,-363.993 532.5,-329.993 397.5,-329.993"/>
<text text-anchor="start" x="405.5" y="-350.993" font-family="Helvetica,sans-Serif" font-size="10.00">BeamFactory::p_removeAll</text>
<text text-anchor="middle" x="465" y="-337.993" font-family="Helvetica,sans-Serif" font-size="10.00">Trucks</text>
</a>
</g>
<!-- Node10&#45;&gt;Node11 -->
<g id="edge22" class="edge"><title>Node10&#45;&gt;Node11</title>
<path fill="none" stroke="midnightblue" d="M322.287,-480.43C333.173,-476.812 344.393,-472.086 354,-465.993 393.183,-441.144 427.774,-399.204 447.539,-372.328"/>
<polygon fill="midnightblue" stroke="midnightblue" points="450.411,-374.329 453.422,-364.171 444.734,-370.234 450.411,-374.329"/>
</g>
<!-- Node12 -->
<g id="node24" class="node"><title>Node12</title>
<a xlink:href="class_beam.html#aad55f7c8f894c1946f21a2ddbd5e950a" target="_top" xlink:title="Beam::StopAllSounds">
<polygon fill="white" stroke="black" points="595.5,-336.493 595.5,-357.493 708.5,-357.493 708.5,-336.493 595.5,-336.493"/>
<text text-anchor="middle" x="652" y="-344.493" font-family="Helvetica,sans-Serif" font-size="10.00">Beam::StopAllSounds</text>
</a>
</g>
<!-- Node11&#45;&gt;Node12 -->
<g id="edge24" class="edge"><title>Node11&#45;&gt;Node12</title>
<path fill="none" stroke="midnightblue" d="M532.511,-346.993C549.579,-346.993 567.901,-346.993 584.946,-346.993"/>
<polygon fill="midnightblue" stroke="midnightblue" points="585.371,-350.493 595.37,-346.993 585.37,-343.493 585.371,-350.493"/>
</g>
<!-- Node13 -->
<g id="node26" class="node"><title>Node13</title>
<a xlink:href="class_beam_factory.html#ac70a8aa131a6709ebf05dc3c0f6dab10" target="_top" xlink:title="BeamFactory::setCurrentTruck">
<polygon fill="white" stroke="black" points="576,-436.493 576,-457.493 728,-457.493 728,-436.493 576,-436.493"/>
<text text-anchor="middle" x="652" y="-444.493" font-family="Helvetica,sans-Serif" font-size="10.00">BeamFactory::setCurrentTruck</text>
</a>
</g>
<!-- Node11&#45;&gt;Node13 -->
<g id="edge26" class="edge"><title>Node11&#45;&gt;Node13</title>
<path fill="none" stroke="midnightblue" d="M497.146,-364.184C532.655,-383.172 589.299,-413.463 623.344,-431.669"/>
<polygon fill="midnightblue" stroke="midnightblue" points="621.842,-434.835 632.311,-436.464 625.143,-428.662 621.842,-434.835"/>
</g>
<!-- Node40 -->
<g id="node84" class="node"><title>Node40</title>
<a xlink:href="class_beam_factory.html#a15e7b1c2101d7e6fce4f8a19bf139ed1" target="_top" xlink:title="BeamFactory::removeBeam">
<polygon fill="white" stroke="black" points="582.5,-236.493 582.5,-257.493 721.5,-257.493 721.5,-236.493 582.5,-236.493"/>
<text text-anchor="middle" x="652" y="-244.493" font-family="Helvetica,sans-Serif" font-size="10.00">BeamFactory::removeBeam</text>
</a>
</g>
<!-- Node11&#45;&gt;Node40 -->
<g id="edge88" class="edge"><title>Node11&#45;&gt;Node40</title>
<path fill="none" stroke="midnightblue" d="M497.146,-329.802C532.655,-310.814 589.299,-280.523 623.344,-262.317"/>
<polygon fill="midnightblue" stroke="midnightblue" points="625.143,-265.324 632.311,-257.522 621.842,-259.151 625.143,-265.324"/>
</g>
<!-- Node44 -->
<g id="node93" class="node"><title>Node44</title>
<a xlink:href="class_beam_factory.html#a86a2ef18fac92980cba91aece61dc928" target="_top" xlink:title="BeamFactory::_deleteTruck">
<polygon fill="white" stroke="black" points="765.5,-65.4929 765.5,-86.4929 902.5,-86.4929 902.5,-65.4929 765.5,-65.4929"/>
<text text-anchor="middle" x="834" y="-73.4929" font-family="Helvetica,sans-Serif" font-size="10.00">BeamFactory::_deleteTruck</text>
</a>
</g>
<!-- Node11&#45;&gt;Node44 -->
<g id="edge104" class="edge"><title>Node11&#45;&gt;Node44</title>
<path fill="none" stroke="midnightblue" d="M479.025,-329.6C499.122,-305.224 537.905,-260.167 576,-226.993 652.801,-160.113 672.01,-139.687 764,-95.9929 768.731,-93.7458 773.764,-91.7022 778.878,-89.855"/>
<polygon fill="midnightblue" stroke="midnightblue" points="780.385,-93.0412 788.753,-86.5431 778.16,-86.4045 780.385,-93.0412"/>
</g>
<!-- Node14 -->
<g id="node28" class="node"><title>Node14</title>
<a xlink:href="class_beam.html#af9b4ba90d62be6ca00cdd101a7db6314" target="_top" xlink:title="Beam::desactivate">
<polygon fill="white" stroke="black" points="973,-671.493 973,-692.493 1071,-692.493 1071,-671.493 973,-671.493"/>
<text text-anchor="middle" x="1022" y="-679.493" font-family="Helvetica,sans-Serif" font-size="10.00">Beam::desactivate</text>
</a>
</g>
<!-- Node13&#45;&gt;Node14 -->
<g id="edge28" class="edge"><title>Node13&#45;&gt;Node14</title>
<path fill="none" stroke="midnightblue" d="M694.878,-457.535C764.845,-474.904 896.579,-508.38 904,-515.993 950.651,-563.849 892.683,-614.795 940,-661.993 946.407,-668.384 954.495,-672.855 963.08,-675.961"/>
<polygon fill="midnightblue" stroke="midnightblue" points="962.337,-679.392 972.921,-678.918 964.351,-672.688 962.337,-679.392"/>
</g>
<!-- Node15 -->
<g id="node30" class="node"><title>Node15</title>
<a xlink:href="class_ro_r_1_1_main_thread.html#af7d1f53cf02660323c9dfe6cc5a1e7e1" target="_top" xlink:title="RoR::MainThread::Changed\lCurrentVehicle">
<polygon fill="white" stroke="black" points="764.5,-429.993 764.5,-463.993 903.5,-463.993 903.5,-429.993 764.5,-429.993"/>
<text text-anchor="start" x="772.5" y="-450.993" font-family="Helvetica,sans-Serif" font-size="10.00">RoR::MainThread::Changed</text>
<text text-anchor="middle" x="834" y="-437.993" font-family="Helvetica,sans-Serif" font-size="10.00">CurrentVehicle</text>
</a>
</g>
<!-- Node13&#45;&gt;Node15 -->
<g id="edge30" class="edge"><title>Node13&#45;&gt;Node15</title>
<path fill="none" stroke="midnightblue" d="M728.13,-446.993C736.741,-446.993 745.535,-446.993 754.192,-446.993"/>
<polygon fill="midnightblue" stroke="midnightblue" points="754.272,-450.493 764.272,-446.993 754.272,-443.493 754.272,-450.493"/>
</g>
<!-- Node15&#45;&gt;Node5 -->
<g id="edge60" class="edge"><title>Node15&#45;&gt;Node5</title>
<path fill="none" stroke="midnightblue" d="M844.963,-464.314C860.409,-489.485 888.428,-538.082 904,-582.993 931.442,-662.135 884.267,-705.461 940,-767.993 940.745,-768.829 941.517,-769.639 942.314,-770.422"/>
<polygon fill="midnightblue" stroke="midnightblue" points="940.134,-773.161 950.084,-776.801 944.575,-767.751 940.134,-773.161"/>
</g>
<!-- Node15&#45;&gt;Node9 -->
<g id="edge68" class="edge"><title>Node15&#45;&gt;Node9</title>
<path fill="none" stroke="midnightblue" d="M857.818,-464.228C873.406,-476.807 892.878,-495.236 904,-515.993 943.767,-590.211 886.423,-637.037 940,-701.993 943.816,-706.619 948.377,-710.602 953.368,-714.03"/>
<polygon fill="midnightblue" stroke="midnightblue" points="951.743,-717.137 962.116,-719.291 955.35,-711.138 951.743,-717.137"/>
</g>
<!-- Node15&#45;&gt;Node14 -->
<g id="edge74" class="edge"><title>Node15&#45;&gt;Node14</title>
<path fill="none" stroke="midnightblue" d="M887.952,-464.171C894.031,-467.932 899.606,-472.487 904,-477.993 955.978,-543.123 882.449,-601.731 940,-661.993 946.25,-668.538 954.257,-673.088 962.809,-676.227"/>
<polygon fill="midnightblue" stroke="midnightblue" points="962.046,-679.653 972.632,-679.201 964.075,-672.953 962.046,-679.653"/>
</g>
<!-- Node16 -->
<g id="node32" class="node"><title>Node16</title>
<a xlink:href="class_character.html#aa761e344c2aa6df9205bfa6bf1d3ea13" target="_top" xlink:title="Character::setBeamCoupling">
<polygon fill="white" stroke="black" points="950.5,-367.493 950.5,-388.493 1093.5,-388.493 1093.5,-367.493 950.5,-367.493"/>
<text text-anchor="middle" x="1022" y="-375.493" font-family="Helvetica,sans-Serif" font-size="10.00">Character::setBeamCoupling</text>
</a>
</g>
<!-- Node15&#45;&gt;Node16 -->
<g id="edge32" class="edge"><title>Node15&#45;&gt;Node16</title>
<path fill="none" stroke="midnightblue" d="M866.734,-429.854C887.343,-419.571 914.736,-406.82 940,-397.993 947.118,-395.506 954.687,-393.211 962.238,-391.131"/>
<polygon fill="midnightblue" stroke="midnightblue" points="963.341,-394.46 972.116,-388.523 961.554,-387.692 963.341,-394.46"/>
</g>
<!-- Node25 -->
<g id="node50" class="node"><title>Node25</title>
<a xlink:href="class_character.html#a1884d7f3e305d9b23164fdbf208f1cc6" target="_top" xlink:title="Character::setPosition">
<polygon fill="white" stroke="black" points="965,-327.493 965,-348.493 1079,-348.493 1079,-327.493 965,-327.493"/>
<text text-anchor="middle" x="1022" y="-335.493" font-family="Helvetica,sans-Serif" font-size="10.00">Character::setPosition</text>
</a>
</g>
<!-- Node15&#45;&gt;Node25 -->
<g id="edge50" class="edge"><title>Node15&#45;&gt;Node25</title>
<path fill="none" stroke="midnightblue" d="M852.211,-429.932C877.127,-406.909 920.922,-367.656 940,-357.993 944.82,-355.551 949.953,-353.398 955.209,-351.501"/>
<polygon fill="midnightblue" stroke="midnightblue" points="956.357,-354.808 964.761,-348.356 954.168,-348.159 956.357,-354.808"/>
</g>
<!-- Node26 -->
<g id="node52" class="node"><title>Node26</title>
<a xlink:href="class_beam.html#a1294bf3dfa3848211b06a82020c53e72" target="_top" xlink:title="Beam::getPosition">
<polygon fill="white" stroke="black" points="973.5,-287.493 973.5,-308.493 1070.5,-308.493 1070.5,-287.493 973.5,-287.493"/>
<text text-anchor="middle" x="1022" y="-295.493" font-family="Helvetica,sans-Serif" font-size="10.00">Beam::getPosition</text>
</a>
</g>
<!-- Node15&#45;&gt;Node26 -->
<g id="edge52" class="edge"><title>Node15&#45;&gt;Node26</title>
<path fill="none" stroke="midnightblue" d="M856.636,-429.943C871.321,-418.13 890.215,-401.44 904,-383.993 924.714,-357.775 913.509,-338.356 940,-317.993 947.006,-312.608 955.262,-308.65 963.789,-305.745"/>
<polygon fill="midnightblue" stroke="midnightblue" points="964.875,-309.074 973.481,-302.894 962.899,-302.359 964.875,-309.074"/>
</g>
<!-- Node27 -->
<g id="node54" class="node"><title>Node27</title>
<a xlink:href="class_character.html#acfb1f4e5d1cb5da7d438466ff398bf93" target="_top" xlink:title="Character::updateCharacter\lRotation">
<polygon fill="white" stroke="black" points="953.5,-234.993 953.5,-268.993 1090.5,-268.993 1090.5,-234.993 953.5,-234.993"/>
<text text-anchor="start" x="961.5" y="-255.993" font-family="Helvetica,sans-Serif" font-size="10.00">Character::updateCharacter</text>
<text text-anchor="middle" x="1022" y="-242.993" font-family="Helvetica,sans-Serif" font-size="10.00">Rotation</text>
</a>
</g>
<!-- Node15&#45;&gt;Node27 -->
<g id="edge54" class="edge"><title>Node15&#45;&gt;Node27</title>
<path fill="none" stroke="midnightblue" d="M858.663,-429.912C873.608,-418.445 892.034,-402.15 904,-383.993 931.378,-342.449 904.462,-312.814 940,-277.993 941.48,-276.543 943.041,-275.173 944.669,-273.88"/>
<polygon fill="midnightblue" stroke="midnightblue" points="946.991,-276.535 953.309,-268.03 943.066,-270.738 946.991,-276.535"/>
</g>
<!-- Node29 -->
<g id="node58" class="node"><title>Node29</title>
<a xlink:href="class_force_feedback.html#ac80c88ae853f3df8b7b1613a70545647" target="_top" xlink:title="ForceFeedback::setEnabled">
<polygon fill="white" stroke="black" points="952.5,-195.493 952.5,-216.493 1091.5,-216.493 1091.5,-195.493 952.5,-195.493"/>
<text text-anchor="middle" x="1022" y="-203.493" font-family="Helvetica,sans-Serif" font-size="10.00">ForceFeedback::setEnabled</text>
</a>
</g>
<!-- Node15&#45;&gt;Node29 -->
<g id="edge58" class="edge"><title>Node15&#45;&gt;Node29</title>
<path fill="none" stroke="midnightblue" d="M860.012,-429.81C875.078,-418.526 893.154,-402.462 904,-383.993 940.472,-321.888 889.462,-277.306 940,-225.993 941.272,-224.701 942.614,-223.487 944.014,-222.347"/>
<polygon fill="midnightblue" stroke="midnightblue" points="946.248,-225.063 952.61,-216.591 942.353,-219.246 946.248,-225.063"/>
</g>
<!-- Node30 -->
<g id="node61" class="node"><title>Node30</title>
<a xlink:href="class_truck_h_u_d.html#abfc37f8d68c2f2b589138b31028eef31" target="_top" xlink:title="TruckHUD::show">
<polygon fill="white" stroke="black" points="975.5,-155.493 975.5,-176.493 1068.5,-176.493 1068.5,-155.493 975.5,-155.493"/>
<text text-anchor="middle" x="1022" y="-163.493" font-family="Helvetica,sans-Serif" font-size="10.00">TruckHUD::show</text>
</a>
</g>
<!-- Node15&#45;&gt;Node30 -->
<g id="edge62" class="edge"><title>Node15&#45;&gt;Node30</title>
<path fill="none" stroke="midnightblue" d="M860.306,-429.978C875.479,-418.756 893.564,-402.697 904,-383.993 947.579,-305.885 878.66,-251.088 940,-185.993 946.859,-178.714 955.889,-173.895 965.445,-170.741"/>
<polygon fill="midnightblue" stroke="midnightblue" points="966.383,-174.114 975.115,-168.113 964.547,-167.359 966.383,-174.114"/>
</g>
<!-- Node31 -->
<g id="node63" class="node"><title>Node31</title>
<a xlink:href="class_beam.html#a3304824c3e7285047f007c956318de09" target="_top" xlink:title="Beam::prepareInside">
<polygon fill="white" stroke="black" points="968.5,-631.493 968.5,-652.493 1075.5,-652.493 1075.5,-631.493 968.5,-631.493"/>
<text text-anchor="middle" x="1022" y="-639.493" font-family="Helvetica,sans-Serif" font-size="10.00">Beam::prepareInside</text>
</a>
</g>
<!-- Node15&#45;&gt;Node31 -->
<g id="edge64" class="edge"><title>Node15&#45;&gt;Node31</title>
<path fill="none" stroke="midnightblue" d="M887.339,-464.178C893.593,-467.946 899.379,-472.501 904,-477.993 946.471,-528.473 893.219,-575.48 940,-621.993 945.287,-627.249 951.71,-631.206 958.611,-634.173"/>
<polygon fill="midnightblue" stroke="midnightblue" points="957.659,-637.55 968.254,-637.633 960.023,-630.961 957.659,-637.55"/>
</g>
<!-- Node32 -->
<g id="node65" class="node"><title>Node32</title>
<a xlink:href="class_overlay_wrapper.html#a086d876abbbac640d88b09b2bbfe7d0f" target="_top" xlink:title="OverlayWrapper::showDashboard\lOverlays">
<polygon fill="white" stroke="black" points="940,-578.993 940,-612.993 1104,-612.993 1104,-578.993 940,-578.993"/>
<text text-anchor="start" x="948" y="-599.993" font-family="Helvetica,sans-Serif" font-size="10.00">OverlayWrapper::showDashboard</text>
<text text-anchor="middle" x="1022" y="-586.993" font-family="Helvetica,sans-Serif" font-size="10.00">Overlays</text>
</a>
</g>
<!-- Node15&#45;&gt;Node32 -->
<g id="edge66" class="edge"><title>Node15&#45;&gt;Node32</title>
<path fill="none" stroke="midnightblue" d="M885.639,-464.145C892.386,-467.947 898.762,-472.52 904,-477.993 934.358,-509.715 907.946,-539.986 940,-569.993 941.124,-571.045 942.291,-572.055 943.495,-573.024"/>
<polygon fill="midnightblue" stroke="midnightblue" points="941.709,-576.044 951.927,-578.845 945.686,-570.283 941.709,-576.044"/>
</g>
<!-- Node33 -->
<g id="node68" class="node"><title>Node33</title>
<a xlink:href="class_beam_factory.html#a5f3755f8cd44e6972e463cc6aaa9f181" target="_top" xlink:title="BeamFactory::getTruckCount">
<polygon fill="white" stroke="black" points="949,-539.493 949,-560.493 1095,-560.493 1095,-539.493 949,-539.493"/>
<text text-anchor="middle" x="1022" y="-547.493" font-family="Helvetica,sans-Serif" font-size="10.00">BeamFactory::getTruckCount</text>
</a>
</g>
<!-- Node15&#45;&gt;Node33 -->
<g id="edge70" class="edge"><title>Node15&#45;&gt;Node33</title>
<path fill="none" stroke="midnightblue" d="M882.002,-464C889.793,-467.923 897.445,-472.571 904,-477.993 925.66,-495.909 916.836,-514.069 940,-529.993 942.864,-531.962 945.901,-533.738 949.055,-535.339"/>
<polygon fill="midnightblue" stroke="midnightblue" points="947.645,-538.542 958.205,-539.407 950.489,-532.146 947.645,-538.542"/>
</g>
<!-- Node34 -->
<g id="node70" class="node"><title>Node34</title>
<a xlink:href="class_beam_factory.html#aa7c42481b46a78459831fa0900ab8d67" target="_top" xlink:title="BeamFactory::getTrucks">
<polygon fill="white" stroke="black" points="959.5,-499.493 959.5,-520.493 1084.5,-520.493 1084.5,-499.493 959.5,-499.493"/>
<text text-anchor="middle" x="1022" y="-507.493" font-family="Helvetica,sans-Serif" font-size="10.00">BeamFactory::getTrucks</text>
</a>
</g>
<!-- Node15&#45;&gt;Node34 -->
<g id="edge72" class="edge"><title>Node15&#45;&gt;Node34</title>
<path fill="none" stroke="midnightblue" d="M872.266,-464.095C892.201,-472.6 917.133,-482.61 940,-489.993 947.634,-492.458 955.752,-494.783 963.799,-496.915"/>
<polygon fill="midnightblue" stroke="midnightblue" points="962.985,-500.32 973.541,-499.417 964.726,-493.54 962.985,-500.32"/>
</g>
<!-- Node35 -->
<g id="node73" class="node"><title>Node35</title>
<a xlink:href="class_beam.html#ab8f22ee06cd65bb94d4bacda1de7c35b" target="_top" xlink:title="Beam::activate">
<polygon fill="white" stroke="black" points="980.5,-459.493 980.5,-480.493 1063.5,-480.493 1063.5,-459.493 980.5,-459.493"/>
<text text-anchor="middle" x="1022" y="-467.493" font-family="Helvetica,sans-Serif" font-size="10.00">Beam::activate</text>
</a>
</g>
<!-- Node15&#45;&gt;Node35 -->
<g id="edge76" class="edge"><title>Node15&#45;&gt;Node35</title>
<path fill="none" stroke="midnightblue" d="M903.737,-455.525C925.818,-458.226 949.815,-461.162 970.387,-463.679"/>
<polygon fill="midnightblue" stroke="midnightblue" points="970.144,-467.175 980.495,-464.915 970.994,-460.227 970.144,-467.175"/>
</g>
<!-- Node36 -->
<g id="node75" class="node"><title>Node36</title>
<a xlink:href="class_camera_manager.html#a737fe1d8d82faf6d9a3981eb713ec82c" target="_top" xlink:title="CameraManager::NotifyVehicle\lChanged">
<polygon fill="white" stroke="black" points="945.5,-406.993 945.5,-440.993 1098.5,-440.993 1098.5,-406.993 945.5,-406.993"/>
<text text-anchor="start" x="953.5" y="-427.993" font-family="Helvetica,sans-Serif" font-size="10.00">CameraManager::NotifyVehicle</text>
<text text-anchor="middle" x="1022" y="-414.993" font-family="Helvetica,sans-Serif" font-size="10.00">Changed</text>
</a>
</g>
<!-- Node15&#45;&gt;Node36 -->
<g id="edge78" class="edge"><title>Node15&#45;&gt;Node36</title>
<path fill="none" stroke="midnightblue" d="M903.737,-438.461C914.032,-437.202 924.743,-435.891 935.33,-434.596"/>
<polygon fill="midnightblue" stroke="midnightblue" points="935.923,-438.05 945.424,-433.361 935.073,-431.102 935.923,-438.05"/>
</g>
<!-- Node17 -->
<g id="node34" class="node"><title>Node17</title>
<a xlink:href="class_character.html#ad78f70dcdb7ed4ccd8e97824f62847e1" target="_top" xlink:title="Character::setPhysicsEnabled">
<polygon fill="white" stroke="black" points="1147.5,-284.493 1147.5,-305.493 1296.5,-305.493 1296.5,-284.493 1147.5,-284.493"/>
<text text-anchor="middle" x="1222" y="-292.493" font-family="Helvetica,sans-Serif" font-size="10.00">Character::setPhysicsEnabled</text>
</a>
</g>
<!-- Node16&#45;&gt;Node17 -->
<g id="edge34" class="edge"><title>Node16&#45;&gt;Node17</title>
<path fill="none" stroke="midnightblue" d="M1084.18,-367.35C1091.14,-364.859 1097.9,-361.786 1104,-357.993 1125.16,-344.827 1118.84,-328.159 1140,-314.993 1143.33,-312.919 1146.87,-311.06 1150.53,-309.393"/>
<polygon fill="midnightblue" stroke="midnightblue" points="1151.86,-312.629 1159.82,-305.636 1149.24,-306.139 1151.86,-312.629"/>
</g>
<!-- Node18 -->
<g id="node36" class="node"><title>Node18</title>
<a xlink:href="class_streamable.html#a3eda07bf069a63209f3fb18cb0b3d835" target="_top" xlink:title="Streamable::getSourceID">
<polygon fill="white" stroke="black" points="1158.5,-244.493 1158.5,-265.493 1285.5,-265.493 1285.5,-244.493 1158.5,-244.493"/>
<text text-anchor="middle" x="1222" y="-252.493" font-family="Helvetica,sans-Serif" font-size="10.00">Streamable::getSourceID</text>
</a>
</g>
<!-- Node16&#45;&gt;Node18 -->
<g id="edge36" class="edge"><title>Node16&#45;&gt;Node18</title>
<path fill="none" stroke="midnightblue" d="M1089.05,-367.373C1094.44,-364.856 1099.52,-361.771 1104,-357.993 1134.74,-332.077 1109.26,-300.909 1140,-274.993 1142.86,-272.585 1145.96,-270.458 1149.23,-268.58"/>
<polygon fill="midnightblue" stroke="midnightblue" points="1150.78,-271.716 1158.22,-264.169 1147.7,-265.431 1150.78,-271.716"/>
</g>
<!-- Node19 -->
<g id="node38" class="node"><title>Node19</title>
<a xlink:href="class_streamable.html#a9f197258ebb8984ee75ce0481cf67f20" target="_top" xlink:title="Streamable::getStreamID">
<polygon fill="white" stroke="black" points="1158,-404.493 1158,-425.493 1286,-425.493 1286,-404.493 1158,-404.493"/>
<text text-anchor="middle" x="1222" y="-412.493" font-family="Helvetica,sans-Serif" font-size="10.00">Streamable::getStreamID</text>
</a>
</g>
<!-- Node16&#45;&gt;Node19 -->
<g id="edge38" class="edge"><title>Node16&#45;&gt;Node19</title>
<path fill="none" stroke="midnightblue" d="M1078.78,-388.497C1102.53,-392.891 1130.31,-398.03 1155.05,-402.607"/>
<polygon fill="midnightblue" stroke="midnightblue" points="1154.61,-406.085 1165.08,-404.463 1155.88,-399.202 1154.61,-406.085"/>
</g>
<!-- Node20 -->
<g id="node40" class="node"><title>Node20</title>
<a xlink:href="class_streamable.html#ad3380f9c932381bb9a862f40177aa58c" target="_top" xlink:title="Streamable::addPacket">
<polygon fill="white" stroke="black" points="1162.5,-324.493 1162.5,-345.493 1281.5,-345.493 1281.5,-324.493 1162.5,-324.493"/>
<text text-anchor="middle" x="1222" y="-332.493" font-family="Helvetica,sans-Serif" font-size="10.00">Streamable::addPacket</text>
</a>
</g>
<!-- Node16&#45;&gt;Node20 -->
<g id="edge40" class="edge"><title>Node16&#45;&gt;Node20</title>
<path fill="none" stroke="midnightblue" d="M1070.93,-367.474C1098.65,-361.513 1133.53,-354.013 1162.79,-347.723"/>
<polygon fill="midnightblue" stroke="midnightblue" points="1163.85,-351.076 1172.89,-345.552 1162.37,-344.233 1163.85,-351.076"/>
</g>
<!-- Node23 -->
<g id="node46" class="node"><title>Node23</title>
<a xlink:href="class_beam.html#adfe810237f6498de41657429ad35ee38" target="_top" xlink:title="Beam::hasDriverSeat">
<polygon fill="white" stroke="black" points="1167,-364.493 1167,-385.493 1277,-385.493 1277,-364.493 1167,-364.493"/>
<text text-anchor="middle" x="1222" y="-372.493" font-family="Helvetica,sans-Serif" font-size="10.00">Beam::hasDriverSeat</text>
</a>
</g>
<!-- Node16&#45;&gt;Node23 -->
<g id="edge46" class="edge"><title>Node16&#45;&gt;Node23</title>
<path fill="none" stroke="midnightblue" d="M1093.64,-376.918C1114.26,-376.609 1136.62,-376.274 1156.83,-375.971"/>
<polygon fill="midnightblue" stroke="midnightblue" points="1156.91,-379.47 1166.86,-375.82 1156.81,-372.47 1156.91,-379.47"/>
</g>
<!-- Node16&#45;&gt;Node24 -->
<g id="edge48" class="edge"><title>Node16&#45;&gt;Node24</title>
<path fill="none" stroke="midnightblue" d="M1091.42,-367.422C1096.04,-364.869 1100.31,-361.764 1104,-357.993 1155.88,-304.962 1089.03,-248.904 1140,-194.993 1145.17,-189.527 1151.52,-185.325 1158.38,-182.101"/>
<polygon fill="midnightblue" stroke="midnightblue" points="1159.99,-185.228 1167.99,-178.283 1157.41,-178.723 1159.99,-185.228"/>
</g>
<!-- Node21 -->
<g id="node42" class="node"><title>Node21</title>
<a xlink:href="class_ro_r_singleton.html#a18a797fc35bd8cfa8a2affdd197cbfee" target="_top" xlink:title="RoRSingleton\&lt; NetworkStream\lManager \&gt;::getSingleton">
<polygon fill="white" stroke="black" points="1340.5,-182.993 1340.5,-216.993 1495.5,-216.993 1495.5,-182.993 1340.5,-182.993"/>
<text text-anchor="start" x="1348.5" y="-203.993" font-family="Helvetica,sans-Serif" font-size="10.00">RoRSingleton&lt; NetworkStream</text>
<text text-anchor="middle" x="1418" y="-190.993" font-family="Helvetica,sans-Serif" font-size="10.00">Manager &gt;::getSingleton</text>
</a>
</g>
<!-- Node20&#45;&gt;Node21 -->
<g id="edge42" class="edge"><title>Node20&#45;&gt;Node21</title>
<path fill="none" stroke="midnightblue" d="M1281.73,-324.56C1289.48,-322.028 1297.11,-318.887 1304,-314.993 1343.97,-292.398 1379.34,-251.826 1399.71,-225.411"/>
<polygon fill="midnightblue" stroke="midnightblue" points="1402.55,-227.462 1405.79,-217.373 1396.96,-223.242 1402.55,-227.462"/>
</g>
<!-- Node22 -->
<g id="node44" class="node"><title>Node22</title>
<a xlink:href="class_network_stream_manager.html#a35a0f97374d09e9269ac1650932a1e07" target="_top" xlink:title="NetworkStreamManager\l::triggerSend">
<polygon fill="white" stroke="black" points="1357,-317.993 1357,-351.993 1479,-351.993 1479,-317.993 1357,-317.993"/>
<text text-anchor="start" x="1365" y="-338.993" font-family="Helvetica,sans-Serif" font-size="10.00">NetworkStreamManager</text>
<text text-anchor="middle" x="1418" y="-325.993" font-family="Helvetica,sans-Serif" font-size="10.00">::triggerSend</text>
</a>
</g>
<!-- Node20&#45;&gt;Node22 -->
<g id="edge44" class="edge"><title>Node20&#45;&gt;Node22</title>
<path fill="none" stroke="midnightblue" d="M1281.6,-334.993C1302.22,-334.993 1325.52,-334.993 1346.96,-334.993"/>
<polygon fill="midnightblue" stroke="midnightblue" points="1346.99,-338.493 1356.99,-334.993 1346.99,-331.493 1346.99,-338.493"/>
</g>
<!-- Node28 -->
<g id="node56" class="node"><title>Node28</title>
<a xlink:href="class_character.html#a305f94b58e7e8b61cc6829e4aba7a060" target="_top" xlink:title="Character::setRotation">
<polygon fill="white" stroke="black" points="1164,-204.493 1164,-225.493 1280,-225.493 1280,-204.493 1164,-204.493"/>
<text text-anchor="middle" x="1222" y="-212.493" font-family="Helvetica,sans-Serif" font-size="10.00">Character::setRotation</text>
</a>
</g>
<!-- Node27&#45;&gt;Node28 -->
<g id="edge56" class="edge"><title>Node27&#45;&gt;Node28</title>
<path fill="none" stroke="midnightblue" d="M1090.55,-239.311C1111.44,-235.446 1134.37,-231.204 1155.15,-227.36"/>
<polygon fill="midnightblue" stroke="midnightblue" points="1155.97,-230.769 1165.16,-225.508 1154.69,-223.886 1155.97,-230.769"/>
</g>
<!-- Node37 -->
<g id="node77" class="node"><title>Node37</title>
<a xlink:href="class_camera_manager.html#a6f50a61b22fd1193ec25c5c2dc8f3ae3" target="_top" xlink:title="CameraManager::switchBehavior">
<polygon fill="white" stroke="black" points="1141.5,-496.493 1141.5,-517.493 1302.5,-517.493 1302.5,-496.493 1141.5,-496.493"/>
<text text-anchor="middle" x="1222" y="-504.493" font-family="Helvetica,sans-Serif" font-size="10.00">CameraManager::switchBehavior</text>
</a>
</g>
<!-- Node36&#45;&gt;Node37 -->
<g id="edge80" class="edge"><title>Node36&#45;&gt;Node37</title>
<path fill="none" stroke="midnightblue" d="M1086.49,-441.033C1092.59,-443.646 1098.54,-446.619 1104,-449.993 1123.52,-462.045 1120.08,-475.609 1140,-486.993 1143.9,-489.221 1148.04,-491.202 1152.31,-492.963"/>
<polygon fill="midnightblue" stroke="midnightblue" points="1151.22,-496.291 1161.81,-496.479 1153.64,-489.726 1151.22,-496.291"/>
</g>
<!-- Node38 -->
<g id="node79" class="node"><title>Node38</title>
<a xlink:href="class_beam.html#a39d38800d5ab3b85b305d94b2c8ea502" target="_top" xlink:title="Beam::GetCameraContext">
<polygon fill="white" stroke="black" points="1351.5,-515.493 1351.5,-536.493 1484.5,-536.493 1484.5,-515.493 1351.5,-515.493"/>
<text text-anchor="middle" x="1418" y="-523.493" font-family="Helvetica,sans-Serif" font-size="10.00">Beam::GetCameraContext</text>
</a>
</g>
<!-- Node36&#45;&gt;Node38 -->
<g id="edge84" class="edge"><title>Node36&#45;&gt;Node38</title>
<path fill="none" stroke="midnightblue" d="M1091.43,-441.183C1095.93,-443.726 1100.18,-446.644 1104,-449.993 1132.4,-474.91 1108.13,-506.711 1140,-526.993 1212.02,-572.826 1317.23,-554.846 1375.39,-539.354"/>
<polygon fill="midnightblue" stroke="midnightblue" points="1376.63,-542.642 1385.34,-536.605 1374.77,-535.895 1376.63,-542.642"/>
</g>
<!-- Node39 -->
<g id="node82" class="node"><title>Node39</title>
<a xlink:href="class_camera_manager.html#a522774afcf439b4e08bc364259d97062" target="_top" xlink:title="CameraManager::SwitchBehavior\lOnVehicleChange">
<polygon fill="white" stroke="black" points="1140.5,-443.993 1140.5,-477.993 1303.5,-477.993 1303.5,-443.993 1140.5,-443.993"/>
<text text-anchor="start" x="1148.5" y="-464.993" font-family="Helvetica,sans-Serif" font-size="10.00">CameraManager::SwitchBehavior</text>
<text text-anchor="middle" x="1222" y="-451.993" font-family="Helvetica,sans-Serif" font-size="10.00">OnVehicleChange</text>
</a>
</g>
<!-- Node36&#45;&gt;Node39 -->
<g id="edge86" class="edge"><title>Node36&#45;&gt;Node39</title>
<path fill="none" stroke="midnightblue" d="M1098.75,-438.192C1109.1,-440.107 1119.81,-442.087 1130.39,-444.044"/>
<polygon fill="midnightblue" stroke="midnightblue" points="1130,-447.533 1140.47,-445.91 1131.28,-440.649 1130,-447.533"/>
</g>
<!-- Node37&#45;&gt;Node38 -->
<g id="edge82" class="edge"><title>Node37&#45;&gt;Node38</title>
<path fill="none" stroke="midnightblue" d="M1302.57,-514.803C1315.4,-516.047 1328.64,-517.331 1341.38,-518.565"/>
<polygon fill="midnightblue" stroke="midnightblue" points="1341.17,-522.062 1351.46,-519.543 1341.85,-515.094 1341.17,-522.062"/>
</g>
<!-- Node40&#45;&gt;Node21 -->
<g id="edge94" class="edge"><title>Node40&#45;&gt;Node21</title>
<path fill="none" stroke="midnightblue" d="M670.791,-257.659C716.111,-281.811 832.921,-334.497 904,-279.993 952.936,-242.468 891.064,-183.517 940,-145.993 997.841,-101.64 1031.12,-144.9 1104,-145.993 1192.92,-147.326 1217.1,-133.085 1304,-151.993 1329.22,-157.482 1355.9,-168.4 1377.09,-178.438"/>
<polygon fill="midnightblue" stroke="midnightblue" points="1375.6,-181.602 1386.12,-182.816 1378.65,-175.303 1375.6,-181.602"/>
</g>
<!-- Node41 -->
<g id="node86" class="node"><title>Node41</title>
<a xlink:href="class_streamable_factory.html#ae48eb0007578a22c2c857f72d1471a84" target="_top" xlink:title="StreamableFactory\&lt;\l BeamFactory, Beam \&gt;\l::lockStreams">
<polygon fill="white" stroke="black" points="774.5,-223.493 774.5,-270.493 893.5,-270.493 893.5,-223.493 774.5,-223.493"/>
<text text-anchor="start" x="782.5" y="-257.493" font-family="Helvetica,sans-Serif" font-size="10.00">StreamableFactory&lt;</text>
<text text-anchor="start" x="782.5" y="-244.493" font-family="Helvetica,sans-Serif" font-size="10.00"> BeamFactory, Beam &gt;</text>
<text text-anchor="middle" x="834" y="-231.493" font-family="Helvetica,sans-Serif" font-size="10.00">::lockStreams</text>
</a>
</g>
<!-- Node40&#45;&gt;Node41 -->
<g id="edge90" class="edge"><title>Node40&#45;&gt;Node41</title>
<path fill="none" stroke="midnightblue" d="M721.585,-246.993C735.555,-246.993 750.239,-246.993 764.216,-246.993"/>
<polygon fill="midnightblue" stroke="midnightblue" points="764.247,-250.493 774.247,-246.993 764.247,-243.493 764.247,-250.493"/>
</g>
<!-- Node42 -->
<g id="node88" class="node"><title>Node42</title>
<a xlink:href="class_streamable_factory.html#a144cbd4edd29595ee5c36bf9aa3b461c" target="_top" xlink:title="StreamableFactory\&lt;\l BeamFactory, Beam \&gt;\l::getStreams">
<polygon fill="white" stroke="black" points="774.5,-157.493 774.5,-204.493 893.5,-204.493 893.5,-157.493 774.5,-157.493"/>
<text text-anchor="start" x="782.5" y="-191.493" font-family="Helvetica,sans-Serif" font-size="10.00">StreamableFactory&lt;</text>
<text text-anchor="start" x="782.5" y="-178.493" font-family="Helvetica,sans-Serif" font-size="10.00"> BeamFactory, Beam &gt;</text>
<text text-anchor="middle" x="834" y="-165.493" font-family="Helvetica,sans-Serif" font-size="10.00">::getStreams</text>
</a>
</g>
<!-- Node40&#45;&gt;Node42 -->
<g id="edge92" class="edge"><title>Node40&#45;&gt;Node42</title>
<path fill="none" stroke="midnightblue" d="M681.241,-236.389C703.721,-228.237 735.719,-216.633 764.627,-206.15"/>
<polygon fill="midnightblue" stroke="midnightblue" points="766.086,-209.344 774.294,-202.644 763.7,-202.763 766.086,-209.344"/>
</g>
<!-- Node43 -->
<g id="node91" class="node"><title>Node43</title>
<a xlink:href="class_network_stream_manager.html#a94019d2a87c1f8346f6adb0e76b4b5a2" target="_top" xlink:title="NetworkStreamManager\l::removeStream">
<polygon fill="white" stroke="black" points="773,-104.993 773,-138.993 895,-138.993 895,-104.993 773,-104.993"/>
<text text-anchor="start" x="781" y="-125.993" font-family="Helvetica,sans-Serif" font-size="10.00">NetworkStreamManager</text>
<text text-anchor="middle" x="834" y="-112.993" font-family="Helvetica,sans-Serif" font-size="10.00">::removeStream</text>
</a>
</g>
<!-- Node40&#45;&gt;Node43 -->
<g id="edge96" class="edge"><title>Node40&#45;&gt;Node43</title>
<path fill="none" stroke="midnightblue" d="M667.857,-236.287C683.754,-225.241 708.588,-207.115 728,-188.993 745.726,-172.445 744.026,-161.744 764,-147.993 766.102,-146.546 768.295,-145.167 770.552,-143.855"/>
<polygon fill="midnightblue" stroke="midnightblue" points="772.31,-146.885 779.521,-139.123 769.044,-140.694 772.31,-146.885"/>
</g>
<!-- Node40&#45;&gt;Node44 -->
<g id="edge98" class="edge"><title>Node40&#45;&gt;Node44</title>
<path fill="none" stroke="midnightblue" d="M671.271,-236.441C688.266,-226.269 712.651,-209.432 728,-188.993 754.616,-153.552 731.266,-125.875 764,-95.9929 765.706,-94.4351 767.526,-92.9978 769.434,-91.6718"/>
<polygon fill="midnightblue" stroke="midnightblue" points="771.391,-94.583 778.289,-86.5413 767.882,-88.5262 771.391,-94.583"/>
</g>
<!-- Node46 -->
<g id="node97" class="node"><title>Node46</title>
<a xlink:href="class_streamable_factory.html#a903fef78ba76e72a0536ff615c5952d4" target="_top" xlink:title="StreamableFactory\&lt;\l BeamFactory, Beam \&gt;\l::unlockStreams">
<polygon fill="white" stroke="black" points="774.5,-327.493 774.5,-374.493 893.5,-374.493 893.5,-327.493 774.5,-327.493"/>
<text text-anchor="start" x="782.5" y="-361.493" font-family="Helvetica,sans-Serif" font-size="10.00">StreamableFactory&lt;</text>
<text text-anchor="start" x="782.5" y="-348.493" font-family="Helvetica,sans-Serif" font-size="10.00"> BeamFactory, Beam &gt;</text>
<text text-anchor="middle" x="834" y="-335.493" font-family="Helvetica,sans-Serif" font-size="10.00">::unlockStreams</text>
</a>
</g>
<!-- Node40&#45;&gt;Node46 -->
<g id="edge102" class="edge"><title>Node40&#45;&gt;Node46</title>
<path fill="none" stroke="midnightblue" d="M669.734,-257.704C691.722,-270.924 730.411,-293.987 764,-312.993 769.45,-316.076 775.161,-319.258 780.872,-322.407"/>
<polygon fill="midnightblue" stroke="midnightblue" points="779.357,-325.567 789.807,-327.308 782.723,-319.43 779.357,-325.567"/>
</g>
<!-- Node45 -->
<g id="node95" class="node"><title>Node45</title>
<a xlink:href="class_beam_factory.html#aba95d975d7ec4c7c61249852f7a80990" target="_top" xlink:title="BeamFactory::_WorkerWait\lForSync">
<polygon fill="white" stroke="black" points="953,-64.9929 953,-98.9929 1091,-98.9929 1091,-64.9929 953,-64.9929"/>
<text text-anchor="start" x="961" y="-85.9929" font-family="Helvetica,sans-Serif" font-size="10.00">BeamFactory::_WorkerWait</text>
<text text-anchor="middle" x="1022" y="-72.9929" font-family="Helvetica,sans-Serif" font-size="10.00">ForSync</text>
</a>
</g>
<!-- Node44&#45;&gt;Node45 -->
<g id="edge100" class="edge"><title>Node44&#45;&gt;Node45</title>
<path fill="none" stroke="midnightblue" d="M902.67,-78.1845C915.71,-78.6007 929.452,-79.0393 942.787,-79.4648"/>
<polygon fill="midnightblue" stroke="midnightblue" points="942.78,-82.9663 952.886,-79.7872 943.003,-75.9699 942.78,-82.9663"/>
</g>
</g>
</svg>
