<?xml version="1.0" encoding="UTF-8" standalone="no"?>
<!DOCTYPE svg PUBLIC "-//W3C//DTD SVG 1.1//EN"
 "http://www.w3.org/Graphics/SVG/1.1/DTD/svg11.dtd">
<!-- Generated by graphviz version 2.26.3 (20100126.1600)
 -->
<!-- Title: Hydrax::MaterialManager::_createWaterMaterial Pages: 1 -->
<svg width="536pt" height="922pt"
 viewBox="0.00 0.00 536.00 922.00" xmlns="http://www.w3.org/2000/svg" xmlns:xlink="http://www.w3.org/1999/xlink">
<g id="graph1" class="graph" transform="scale(1 1) rotate(0) translate(4 918)">
<title>Hydrax::MaterialManager::_createWaterMaterial</title>
<polygon fill="white" stroke="white" points="-4,5 -4,-918 533,-918 533,5 -4,5"/>
<!-- Node1 -->
<g id="node1" class="node"><title>Node1</title>
<polygon fill="#bfbfbf" stroke="black" points="0,-401 0,-435 126,-435 126,-401 0,-401"/>
<text text-anchor="start" x="8" y="-422" font-family="Helvetica,sans-Serif" font-size="10.00">Hydrax::MaterialManager</text>
<text text-anchor="middle" x="63" y="-409" font-family="Helvetica,sans-Serif" font-size="10.00">::_createWaterMaterial</text>
</g>
<!-- Node2 -->
<g id="node3" class="node"><title>Node2</title>
<a xlink:href="class_hydrax_1_1_material_manager.html#ae7b2cfea68cac81f2a366f005410e0d9" target="_top" xlink:title="Hydrax::MaterialManager\l::_isComponent">
<polygon fill="white" stroke="black" points="194,-880 194,-914 320,-914 320,-880 194,-880"/>
<text text-anchor="start" x="202" y="-901" font-family="Helvetica,sans-Serif" font-size="10.00">Hydrax::MaterialManager</text>
<text text-anchor="middle" x="257" y="-888" font-family="Helvetica,sans-Serif" font-size="10.00">::_isComponent</text>
</a>
</g>
<!-- Node1&#45;&gt;Node2 -->
<g id="edge2" class="edge"><title>Node1&#45;&gt;Node2</title>
<path fill="none" stroke="midnightblue" d="M64.4085,-435.145C70.8803,-509.816 100.132,-805.829 162,-871 168.311,-877.648 176.145,-882.652 184.588,-886.409"/>
<polygon fill="midnightblue" stroke="midnightblue" points="183.354,-889.685 193.944,-890.015 185.872,-883.153 183.354,-889.685"/>
</g>
<!-- Node3 -->
<g id="node5" class="node"><title>Node3</title>
<a xlink:href="class_hydrax_1_1_material_manager.html#a648e7cd626194ea34c31a4bf422cdf4d" target="_top" xlink:title="Hydrax::MaterialManager\l::getMaterial">
<polygon fill="white" stroke="black" points="194,-828 194,-862 320,-862 320,-828 194,-828"/>
<text text-anchor="start" x="202" y="-849" font-family="Helvetica,sans-Serif" font-size="10.00">Hydrax::MaterialManager</text>
<text text-anchor="middle" x="257" y="-836" font-family="Helvetica,sans-Serif" font-size="10.00">::getMaterial</text>
</a>
</g>
<!-- Node1&#45;&gt;Node3 -->
<g id="edge4" class="edge"><title>Node1&#45;&gt;Node3</title>
<path fill="none" stroke="midnightblue" d="M64.9433,-435.256C73.0927,-504.641 106.678,-762.272 162,-819 168.245,-825.404 175.905,-830.277 184.141,-833.976"/>
<polygon fill="midnightblue" stroke="midnightblue" points="183.05,-837.307 193.639,-837.673 185.59,-830.784 183.05,-837.307"/>
</g>
<!-- Node4 -->
<g id="node7" class="node"><title>Node4</title>
<a xlink:href="class_hydrax_1_1_material_manager.html#a9374e09a2d918becab5db16240d2b8e1" target="_top" xlink:title="Hydrax::MaterialManager\l::fillGpuProgramsToPass">
<polygon fill="white" stroke="black" points="194,-776 194,-810 320,-810 320,-776 194,-776"/>
<text text-anchor="start" x="202" y="-797" font-family="Helvetica,sans-Serif" font-size="10.00">Hydrax::MaterialManager</text>
<text text-anchor="middle" x="257" y="-784" font-family="Helvetica,sans-Serif" font-size="10.00">::fillGpuProgramsToPass</text>
</a>
</g>
<!-- Node1&#45;&gt;Node4 -->
<g id="edge6" class="edge"><title>Node1&#45;&gt;Node4</title>
<path fill="none" stroke="midnightblue" d="M65.6041,-435.155C75.5597,-498.57 113.122,-718.572 162,-767 168.354,-773.296 176.079,-778.104 184.348,-781.77"/>
<polygon fill="midnightblue" stroke="midnightblue" points="183.282,-785.11 193.871,-785.443 185.8,-778.579 183.282,-785.11"/>
</g>
<!-- Node6 -->
<g id="node11" class="node"><title>Node6</title>
<a xlink:href="class_hydrax_1_1_hydrax.html#aac55c7b84c7d6e067010526a91d1ee00" target="_top" xlink:title="Hydrax::Hydrax::getFullReflection\lDistance">
<polygon fill="white" stroke="black" points="174.5,-724 174.5,-758 339.5,-758 339.5,-724 174.5,-724"/>
<text text-anchor="start" x="182.5" y="-745" font-family="Helvetica,sans-Serif" font-size="10.00">Hydrax::Hydrax::getFullReflection</text>
<text text-anchor="middle" x="257" y="-732" font-family="Helvetica,sans-Serif" font-size="10.00">Distance</text>
</a>
</g>
<!-- Node1&#45;&gt;Node6 -->
<g id="edge10" class="edge"><title>Node1&#45;&gt;Node6</title>
<path fill="none" stroke="midnightblue" d="M66.5399,-435.323C78.5816,-492.647 119.573,-674.828 162,-715 163.28,-716.212 164.612,-717.369 165.988,-718.473"/>
<polygon fill="midnightblue" stroke="midnightblue" points="164.102,-721.424 174.318,-724.234 168.084,-715.667 164.102,-721.424"/>
</g>
<!-- Node7 -->
<g id="node13" class="node"><title>Node7</title>
<a xlink:href="class_hydrax_1_1_hydrax.html#a9f71ca1190dd56802a9a0d5e6fe7b73d" target="_top" xlink:title="Hydrax::Hydrax::getGlobal\lTransparency">
<polygon fill="white" stroke="black" points="190.5,-672 190.5,-706 323.5,-706 323.5,-672 190.5,-672"/>
<text text-anchor="start" x="198.5" y="-693" font-family="Helvetica,sans-Serif" font-size="10.00">Hydrax::Hydrax::getGlobal</text>
<text text-anchor="middle" x="257" y="-680" font-family="Helvetica,sans-Serif" font-size="10.00">Transparency</text>
</a>
</g>
<!-- Node1&#45;&gt;Node7 -->
<g id="edge12" class="edge"><title>Node1&#45;&gt;Node7</title>
<path fill="none" stroke="midnightblue" d="M64.7733,-435.199C70.3118,-479.823 91.3862,-600.192 162,-663 167.534,-667.922 173.915,-671.923 180.697,-675.174"/>
<polygon fill="midnightblue" stroke="midnightblue" points="179.579,-678.5 190.154,-679.157 182.297,-672.049 179.579,-678.5"/>
</g>
<!-- Node8 -->
<g id="node15" class="node"><title>Node8</title>
<a xlink:href="class_hydrax_1_1_hydrax.html#a129ecf4478ecca15299d9f25e9074b90" target="_top" xlink:title="Hydrax::Hydrax::getNormal\lDistortion">
<polygon fill="white" stroke="black" points="188.5,-620 188.5,-654 325.5,-654 325.5,-620 188.5,-620"/>
<text text-anchor="start" x="196.5" y="-641" font-family="Helvetica,sans-Serif" font-size="10.00">Hydrax::Hydrax::getNormal</text>
<text text-anchor="middle" x="257" y="-628" font-family="Helvetica,sans-Serif" font-size="10.00">Distortion</text>
</a>
</g>
<!-- Node1&#45;&gt;Node8 -->
<g id="edge14" class="edge"><title>Node1&#45;&gt;Node8</title>
<path fill="none" stroke="midnightblue" d="M66.8155,-435.133C76.1328,-472.887 103.677,-563.644 162,-611 167.053,-615.103 172.703,-618.56 178.662,-621.473"/>
<polygon fill="midnightblue" stroke="midnightblue" points="177.669,-624.858 188.237,-625.618 180.45,-618.434 177.669,-624.858"/>
</g>
<!-- Node9 -->
<g id="node17" class="node"><title>Node9</title>
<a xlink:href="class_hydrax_1_1_hydrax.html#a0e0da539fe181e84a115368e97eff0c6" target="_top" xlink:title="Hydrax::Hydrax::getWater\lColor">
<polygon fill="white" stroke="black" points="191.5,-568 191.5,-602 322.5,-602 322.5,-568 191.5,-568"/>
<text text-anchor="start" x="199.5" y="-589" font-family="Helvetica,sans-Serif" font-size="10.00">Hydrax::Hydrax::getWater</text>
<text text-anchor="middle" x="257" y="-576" font-family="Helvetica,sans-Serif" font-size="10.00">Color</text>
</a>
</g>
<!-- Node1&#45;&gt;Node9 -->
<g id="edge16" class="edge"><title>Node1&#45;&gt;Node9</title>
<path fill="none" stroke="midnightblue" d="M70.2918,-435.236C83.8346,-465.125 115.758,-526.481 162,-559 168.058,-563.26 174.786,-566.823 181.783,-569.803"/>
<polygon fill="midnightblue" stroke="midnightblue" points="180.864,-573.199 191.454,-573.515 183.372,-566.664 180.864,-573.199"/>
</g>
<!-- Node10 -->
<g id="node19" class="node"><title>Node10</title>
<a xlink:href="class_hydrax_1_1_hydrax.html#aaae88f80029fa6fd3b11e646ae740cd3" target="_top" xlink:title="Hydrax::Hydrax::getSmooth\lPower">
<polygon fill="white" stroke="black" points="187.5,-516 187.5,-550 326.5,-550 326.5,-516 187.5,-516"/>
<text text-anchor="start" x="195.5" y="-537" font-family="Helvetica,sans-Serif" font-size="10.00">Hydrax::Hydrax::getSmooth</text>
<text text-anchor="middle" x="257" y="-524" font-family="Helvetica,sans-Serif" font-size="10.00">Power</text>
</a>
</g>
<!-- Node1&#45;&gt;Node10 -->
<g id="edge18" class="edge"><title>Node1&#45;&gt;Node10</title>
<path fill="none" stroke="midnightblue" d="M77.3355,-435.01C95.1728,-455.104 127.514,-488.174 162,-507 167.048,-509.756 172.409,-512.236 177.914,-514.466"/>
<polygon fill="midnightblue" stroke="midnightblue" points="176.693,-517.746 187.285,-517.986 179.155,-511.193 176.693,-517.746"/>
</g>
<!-- Node11 -->
<g id="node21" class="node"><title>Node11</title>
<a xlink:href="class_hydrax_1_1_hydrax.html#a1940a144c486915885ed19026839d381" target="_top" xlink:title="Hydrax::Hydrax::getMesh">
<polygon fill="white" stroke="black" points="192.5,-476.5 192.5,-497.5 321.5,-497.5 321.5,-476.5 192.5,-476.5"/>
<text text-anchor="middle" x="257" y="-484.5" font-family="Helvetica,sans-Serif" font-size="10.00">Hydrax::Hydrax::getMesh</text>
</a>
</g>
<!-- Node1&#45;&gt;Node11 -->
<g id="edge20" class="edge"><title>Node1&#45;&gt;Node11</title>
<path fill="none" stroke="midnightblue" d="M92.4782,-435.046C111.732,-445.556 137.718,-458.587 162,-467 169.642,-469.648 177.758,-472.006 185.9,-474.09"/>
<polygon fill="midnightblue" stroke="midnightblue" points="185.273,-477.539 195.816,-476.497 186.924,-470.737 185.273,-477.539"/>
</g>
<!-- Node12 -->
<g id="node23" class="node"><title>Node12</title>
<a xlink:href="class_hydrax_1_1_mesh.html#a999d2b1a4ce0ccc1b23ebe80541e4a97" target="_top" xlink:title="Hydrax::Mesh::getObjectSpace\lPosition">
<polygon fill="white" stroke="black" points="180,-424 180,-458 334,-458 334,-424 180,-424"/>
<text text-anchor="start" x="188" y="-445" font-family="Helvetica,sans-Serif" font-size="10.00">Hydrax::Mesh::getObjectSpace</text>
<text text-anchor="middle" x="257" y="-432" font-family="Helvetica,sans-Serif" font-size="10.00">Position</text>
</a>
</g>
<!-- Node1&#45;&gt;Node12 -->
<g id="edge22" class="edge"><title>Node1&#45;&gt;Node12</title>
<path fill="none" stroke="midnightblue" d="M126.254,-425.499C140.18,-427.15 155.165,-428.927 169.846,-430.667"/>
<polygon fill="midnightblue" stroke="midnightblue" points="169.602,-434.163 179.945,-431.865 170.426,-427.211 169.602,-434.163"/>
</g>
<!-- Node14 -->
<g id="node27" class="node"><title>Node14</title>
<a xlink:href="class_hydrax_1_1_hydrax.html#a6391180e70faf46ee681466620a85f4d" target="_top" xlink:title="Hydrax::Hydrax::getSunPosition">
<polygon fill="white" stroke="black" points="178,-384.5 178,-405.5 336,-405.5 336,-384.5 178,-384.5"/>
<text text-anchor="middle" x="257" y="-392.5" font-family="Helvetica,sans-Serif" font-size="10.00">Hydrax::Hydrax::getSunPosition</text>
</a>
</g>
<!-- Node1&#45;&gt;Node14 -->
<g id="edge26" class="edge"><title>Node1&#45;&gt;Node14</title>
<path fill="none" stroke="midnightblue" d="M126.254,-410.501C139.512,-408.929 153.73,-407.243 167.732,-405.583"/>
<polygon fill="midnightblue" stroke="midnightblue" points="168.354,-409.034 177.873,-404.381 167.53,-402.083 168.354,-409.034"/>
</g>
<!-- Node15 -->
<g id="node29" class="node"><title>Node15</title>
<a xlink:href="class_hydrax_1_1_hydrax.html#aacad398f575cb867b93eee4c7397c14b" target="_top" xlink:title="Hydrax::Hydrax::getSunStrength">
<polygon fill="white" stroke="black" points="177.5,-344.5 177.5,-365.5 336.5,-365.5 336.5,-344.5 177.5,-344.5"/>
<text text-anchor="middle" x="257" y="-352.5" font-family="Helvetica,sans-Serif" font-size="10.00">Hydrax::Hydrax::getSunStrength</text>
</a>
</g>
<!-- Node1&#45;&gt;Node15 -->
<g id="edge28" class="edge"><title>Node1&#45;&gt;Node15</title>
<path fill="none" stroke="midnightblue" d="M97.6174,-400.91C116.328,-392.201 140.04,-382.001 162,-375 170.284,-372.359 179.087,-369.97 187.863,-367.839"/>
<polygon fill="midnightblue" stroke="midnightblue" points="188.785,-371.218 197.731,-365.543 187.198,-364.401 188.785,-371.218"/>
</g>
<!-- Node16 -->
<g id="node31" class="node"><title>Node16</title>
<a xlink:href="class_hydrax_1_1_hydrax.html#a881b74b5c9a3c830317174cf610d6867" target="_top" xlink:title="Hydrax::Hydrax::getSunArea">
<polygon fill="white" stroke="black" points="185.5,-304.5 185.5,-325.5 328.5,-325.5 328.5,-304.5 185.5,-304.5"/>
<text text-anchor="middle" x="257" y="-312.5" font-family="Helvetica,sans-Serif" font-size="10.00">Hydrax::Hydrax::getSunArea</text>
</a>
</g>
<!-- Node1&#45;&gt;Node16 -->
<g id="edge30" class="edge"><title>Node1&#45;&gt;Node16</title>
<path fill="none" stroke="midnightblue" d="M78.3631,-400.819C96.4489,-381.71 128.315,-351.38 162,-335 166.926,-332.605 172.133,-330.495 177.469,-328.637"/>
<polygon fill="midnightblue" stroke="midnightblue" points="178.707,-331.917 187.182,-325.558 176.592,-325.244 178.707,-331.917"/>
</g>
<!-- Node17 -->
<g id="node33" class="node"><title>Node17</title>
<a xlink:href="class_hydrax_1_1_hydrax.html#a7b40b2febde3f65bf5b2532a9cb752ff" target="_top" xlink:title="Hydrax::Hydrax::getSunColor">
<polygon fill="white" stroke="black" points="184,-264.5 184,-285.5 330,-285.5 330,-264.5 184,-264.5"/>
<text text-anchor="middle" x="257" y="-272.5" font-family="Helvetica,sans-Serif" font-size="10.00">Hydrax::Hydrax::getSunColor</text>
</a>
</g>
<!-- Node1&#45;&gt;Node17 -->
<g id="edge32" class="edge"><title>Node1&#45;&gt;Node17</title>
<path fill="none" stroke="midnightblue" d="M71.6465,-400.984C86.3224,-373.944 118.775,-321.519 162,-295 165.904,-292.605 170.049,-290.493 174.34,-288.631"/>
<polygon fill="midnightblue" stroke="midnightblue" points="175.855,-291.799 183.932,-284.942 173.342,-285.265 175.855,-291.799"/>
</g>
<!-- Node18 -->
<g id="node35" class="node"><title>Node18</title>
<a xlink:href="class_hydrax_1_1_mesh.html#a691d01cdbb82e5d3cd92397fd17d97f6" target="_top" xlink:title="Hydrax::Mesh::getOptions">
<polygon fill="white" stroke="black" points="191.5,-224.5 191.5,-245.5 322.5,-245.5 322.5,-224.5 191.5,-224.5"/>
<text text-anchor="middle" x="257" y="-232.5" font-family="Helvetica,sans-Serif" font-size="10.00">Hydrax::Mesh::getOptions</text>
</a>
</g>
<!-- Node1&#45;&gt;Node18 -->
<g id="edge34" class="edge"><title>Node1&#45;&gt;Node18</title>
<path fill="none" stroke="midnightblue" d="M68.2967,-400.743C79.6032,-366.974 109.448,-292.22 162,-255 167.957,-250.781 174.618,-247.417 181.574,-244.739"/>
<polygon fill="midnightblue" stroke="midnightblue" points="182.843,-248.005 191.204,-241.498 180.61,-241.371 182.843,-248.005"/>
</g>
<!-- Node19 -->
<g id="node37" class="node"><title>Node19</title>
<a xlink:href="class_hydrax_1_1_hydrax.html#a942025a1a9f93e24221b618b4130732a" target="_top" xlink:title="Hydrax::Hydrax::getFoamMax\lDistance">
<polygon fill="white" stroke="black" points="182.5,-172 182.5,-206 331.5,-206 331.5,-172 182.5,-172"/>
<text text-anchor="start" x="190.5" y="-193" font-family="Helvetica,sans-Serif" font-size="10.00">Hydrax::Hydrax::getFoamMax</text>
<text text-anchor="middle" x="257" y="-180" font-family="Helvetica,sans-Serif" font-size="10.00">Distance</text>
</a>
</g>
<!-- Node1&#45;&gt;Node19 -->
<g id="edge36" class="edge"><title>Node1&#45;&gt;Node19</title>
<path fill="none" stroke="midnightblue" d="M66.3429,-400.881C74.8963,-361.755 101.321,-265.295 162,-215 165.501,-212.098 169.3,-209.518 173.297,-207.226"/>
<polygon fill="midnightblue" stroke="midnightblue" points="174.987,-210.293 182.325,-202.65 171.823,-204.049 174.987,-210.293"/>
</g>
<!-- Node20 -->
<g id="node39" class="node"><title>Node20</title>
<a xlink:href="class_hydrax_1_1_hydrax.html#a23f873e4659628d36274dfce9a76bc5c" target="_top" xlink:title="Hydrax::Hydrax::getFoamScale">
<polygon fill="white" stroke="black" points="179.5,-132.5 179.5,-153.5 334.5,-153.5 334.5,-132.5 179.5,-132.5"/>
<text text-anchor="middle" x="257" y="-140.5" font-family="Helvetica,sans-Serif" font-size="10.00">Hydrax::Hydrax::getFoamScale</text>
</a>
</g>
<!-- Node1&#45;&gt;Node20 -->
<g id="edge38" class="edge"><title>Node1&#45;&gt;Node20</title>
<path fill="none" stroke="midnightblue" d="M64.2254,-400.878C68.4966,-354.699 86.8844,-226.782 162,-163 164.57,-160.818 167.317,-158.855 170.2,-157.09"/>
<polygon fill="midnightblue" stroke="midnightblue" points="171.977,-160.111 179.209,-152.368 168.727,-153.911 171.977,-160.111"/>
</g>
<!-- Node21 -->
<g id="node41" class="node"><title>Node21</title>
<a xlink:href="class_hydrax_1_1_hydrax.html#aa89f420e1adfd5bf578ba12fa0a3104e" target="_top" xlink:title="Hydrax::Hydrax::getFoamStart">
<polygon fill="white" stroke="black" points="181.5,-92.5 181.5,-113.5 332.5,-113.5 332.5,-92.5 181.5,-92.5"/>
<text text-anchor="middle" x="257" y="-100.5" font-family="Helvetica,sans-Serif" font-size="10.00">Hydrax::Hydrax::getFoamStart</text>
</a>
</g>
<!-- Node1&#45;&gt;Node21 -->
<g id="edge40" class="edge"><title>Node1&#45;&gt;Node21</title>
<path fill="none" stroke="midnightblue" d="M66.4665,-400.694C78.276,-343.441 118.619,-161.609 162,-123 165.187,-120.164 168.672,-117.693 172.366,-115.543"/>
<polygon fill="midnightblue" stroke="midnightblue" points="173.927,-118.675 181.321,-111.087 170.809,-112.408 173.927,-118.675"/>
</g>
<!-- Node22 -->
<g id="node43" class="node"><title>Node22</title>
<a xlink:href="class_hydrax_1_1_hydrax.html#aaa96bcad2550ec7eb1430a6af5a237d3" target="_top" xlink:title="Hydrax::Hydrax::getFoamTransparency">
<polygon fill="white" stroke="black" points="162.5,-52.5 162.5,-73.5 351.5,-73.5 351.5,-52.5 162.5,-52.5"/>
<text text-anchor="middle" x="257" y="-60.5" font-family="Helvetica,sans-Serif" font-size="10.00">Hydrax::Hydrax::getFoamTransparency</text>
</a>
</g>
<!-- Node1&#45;&gt;Node22 -->
<g id="edge42" class="edge"><title>Node1&#45;&gt;Node22</title>
<path fill="none" stroke="midnightblue" d="M65.7558,-400.584C75.9624,-338.271 113.54,-127.737 162,-83 163.533,-81.5852 165.139,-80.2604 166.808,-79.0203"/>
<polygon fill="midnightblue" stroke="midnightblue" points="169.011,-81.7711 175.632,-73.5002 165.298,-75.8367 169.011,-81.7711"/>
</g>
<!-- Node23 -->
<g id="node45" class="node"><title>Node23</title>
<a xlink:href="class_hydrax_1_1_hydrax.html#ad857d60009cbc99335081bc65a25b719" target="_top" xlink:title="Hydrax::Hydrax::getCaustics\lPower">
<polygon fill="white" stroke="black" points="185,-0 185,-34 329,-34 329,-0 185,-0"/>
<text text-anchor="start" x="193" y="-21" font-family="Helvetica,sans-Serif" font-size="10.00">Hydrax::Hydrax::getCaustics</text>
<text text-anchor="middle" x="257" y="-8" font-family="Helvetica,sans-Serif" font-size="10.00">Power</text>
</a>
</g>
<!-- Node1&#45;&gt;Node23 -->
<g id="edge44" class="edge"><title>Node1&#45;&gt;Node23</title>
<path fill="none" stroke="midnightblue" d="M65.2296,-400.96C74.2224,-334.744 109.863,-95.6101 162,-43 165.987,-38.9767 170.533,-35.5593 175.426,-32.6584"/>
<polygon fill="midnightblue" stroke="midnightblue" points="177.261,-35.651 184.564,-27.975 174.068,-29.4216 177.261,-35.651"/>
</g>
<!-- Node5 -->
<g id="node9" class="node"><title>Node5</title>
<a xlink:href="class_hydrax_1_1_material_manager.html#ac0f7c351a7df142a04023c3409d6d871" target="_top" xlink:title="Hydrax::MaterialManager\l::createGpuProgram">
<polygon fill="white" stroke="black" points="395,-776 395,-810 521,-810 521,-776 395,-776"/>
<text text-anchor="start" x="403" y="-797" font-family="Helvetica,sans-Serif" font-size="10.00">Hydrax::MaterialManager</text>
<text text-anchor="middle" x="458" y="-784" font-family="Helvetica,sans-Serif" font-size="10.00">::createGpuProgram</text>
</a>
</g>
<!-- Node4&#45;&gt;Node5 -->
<g id="edge8" class="edge"><title>Node4&#45;&gt;Node5</title>
<path fill="none" stroke="midnightblue" d="M320.046,-793C340.527,-793 363.429,-793 384.598,-793"/>
<polygon fill="midnightblue" stroke="midnightblue" points="384.832,-796.5 394.832,-793 384.832,-789.5 384.832,-796.5"/>
</g>
<!-- Node13 -->
<g id="node25" class="node"><title>Node13</title>
<a xlink:href="class_hydrax_1_1_hydrax.html#a011da649ae072cce9c6db28620b67a42" target="_top" xlink:title="Hydrax::Hydrax::getPosition">
<polygon fill="white" stroke="black" points="388,-430.5 388,-451.5 528,-451.5 528,-430.5 388,-430.5"/>
<text text-anchor="middle" x="458" y="-438.5" font-family="Helvetica,sans-Serif" font-size="10.00">Hydrax::Hydrax::getPosition</text>
</a>
</g>
<!-- Node12&#45;&gt;Node13 -->
<g id="edge24" class="edge"><title>Node12&#45;&gt;Node13</title>
<path fill="none" stroke="midnightblue" d="M334.137,-441C348.391,-441 363.308,-441 377.655,-441"/>
<polygon fill="midnightblue" stroke="midnightblue" points="377.982,-444.5 387.982,-441 377.982,-437.5 377.982,-444.5"/>
</g>
</g>
</svg>
