<?xml version="1.0" encoding="UTF-8" standalone="no"?>
<!DOCTYPE svg PUBLIC "-//W3C//DTD SVG 1.1//EN"
 "http://www.w3.org/Graphics/SVG/1.1/DTD/svg11.dtd">
<!-- Generated by graphviz version 2.26.3 (20100126.1600)
 -->
<!-- Title: G Pages: 1 -->
<!--zoomable 926 -->
<svg id="main" version="1.1" xmlns="http://www.w3.org/2000/svg" xmlns:xlink="http://www.w3.org/1999/xlink" xml:space="preserve" onload="init(evt)">
        <defs>
                <circle id="rim" cx="0" cy="0" r="7"/>
                <circle id="rim2" cx="0" cy="0" r="3.5"/>
                <g id="zoomPlus">
                        <use xlink:href="#rim" fill="#404040">
                                <set attributeName="fill" to="#808080" begin="zoomplus.mouseover" end="zoomplus.mouseout"/>
                        </use>
                        <path d="M-4,0h8M0,-4v8" fill="none" stroke="white" stroke-width="1.5" pointer-events="none"/>
                </g>
                <g id="zoomMin">
                        <use xlink:href="#rim" fill="#404040">
                                <set attributeName="fill" to="#808080" begin="zoomminus.mouseover" end="zoomminus.mouseout"/>
                        </use>
                        <path d="M-4,0h8" fill="none" stroke="white" stroke-width="1.5" pointer-events="none"/>
                </g>
                <g id="dirArrow">
                        <path fill="none" stroke="white" stroke-width="1.5" d="M0,-3.0v7 M-2.5,-0.5L0,-3.0L2.5,-0.5"/>
                </g>
               <g id="resetDef">
                       <use xlink:href="#rim2" fill="#404040">
                               <set attributeName="fill" to="#808080" begin="reset.mouseover" end="reset.mouseout"/>
                       </use>
               </g>
        </defs>

<script type="text/javascript">
var viewWidth = 1522;
var viewHeight = 926;
var sectionId = 'dynsection-36';
</script>
<script xlink:href="svgpan.js"/>
<svg id="graph" class="graph">
<g id="viewport">
<title>G</title>
<polygon fill="white" stroke="white" points="-4,5 -4,-922 1519,-922 1519,5 -4,5"/>
<!-- Node1 -->
<g id="node1" class="node"><title>Node1</title>
<polygon fill="#bfbfbf" stroke="black" points="0.5,-480.5 0.5,-501.5 245.5,-501.5 245.5,-480.5 0.5,-480.5"/>
<text text-anchor="middle" x="123" y="-488.5" font-family="Helvetica,sans-Serif" font-size="10.00">Hydrax::MaterialManager::setGpuProgramParameter</text>
</g>
<!-- Node2 -->
<g id="node3" class="node"><title>Node2</title>
<a xlink:href="class_hydrax_1_1_hydrax.html#a26f48dec7e37c8f352570192ef38fb90" target="_top" xlink:title="Hydrax::Hydrax::setPosition">
<polygon fill="white" stroke="black" points="560,-896.5 560,-917.5 700,-917.5 700,-896.5 560,-896.5"/>
<text text-anchor="middle" x="630" y="-904.5" font-family="Helvetica,sans-Serif" font-size="10.00">Hydrax::Hydrax::setPosition</text>
</a>
</g>
<!-- Node1&#45;&gt;Node2 -->
<g id="edge2" class="edge"><title>Node1&#45;&gt;Node2</title>
<path fill="none" stroke="midnightblue" d="M125.211,-511.848C133.12,-575.144 166.04,-766.178 282,-855 362.018,-916.291 483.454,-920.176 559.677,-915.193"/>
<polygon fill="midnightblue" stroke="midnightblue" points="128.647,-511.096 124.011,-501.569 121.695,-511.908 128.647,-511.096"/>
</g>
<!-- Node8 -->
<g id="node17" class="node"><title>Node8</title>
<a xlink:href="class_hydrax_1_1_hydrax.html#aa1c3ac9b604a3116fbd5b4d55429811d" target="_top" xlink:title="Hydrax::Hydrax::_setStrength">
<polygon fill="white" stroke="black" points="303.5,-100.5 303.5,-121.5 450.5,-121.5 450.5,-100.5 303.5,-100.5"/>
<text text-anchor="middle" x="377" y="-108.5" font-family="Helvetica,sans-Serif" font-size="10.00">Hydrax::Hydrax::_setStrength</text>
</a>
</g>
<!-- Node1&#45;&gt;Node8 -->
<g id="edge18" class="edge"><title>Node1&#45;&gt;Node8</title>
<path fill="none" stroke="midnightblue" d="M125.587,-470.261C134.498,-408.086 169.826,-221.932 282,-131 288.285,-125.905 295.552,-122.018 303.214,-119.065"/>
<polygon fill="midnightblue" stroke="midnightblue" points="122.09,-469.998 124.217,-480.377 129.027,-470.937 122.09,-469.998"/>
</g>
<!-- Node18 -->
<g id="node37" class="node"><title>Node18</title>
<a xlink:href="class_hydrax_1_1_hydrax.html#ae4a765e38a2d81a180b9e74a002e8010" target="_top" xlink:title="Hydrax::Hydrax::setFullReflectionDistance">
<polygon fill="white" stroke="black" points="528,-816.5 528,-837.5 732,-837.5 732,-816.5 528,-816.5"/>
<text text-anchor="middle" x="630" y="-824.5" font-family="Helvetica,sans-Serif" font-size="10.00">Hydrax::Hydrax::setFullReflectionDistance</text>
</a>
</g>
<!-- Node1&#45;&gt;Node18 -->
<g id="edge38" class="edge"><title>Node1&#45;&gt;Node18</title>
<path fill="none" stroke="midnightblue" d="M128.283,-511.448C142.887,-563.552 189.013,-701.78 282,-767 353.524,-817.167 453.249,-830.075 527.618,-831.659"/>
<polygon fill="midnightblue" stroke="midnightblue" points="131.633,-510.431 125.64,-501.694 124.877,-512.262 131.633,-510.431"/>
</g>
<!-- Node19 -->
<g id="node40" class="node"><title>Node19</title>
<a xlink:href="class_hydrax_1_1_hydrax.html#ab601c8008ca2bc47e66d9a5e4e4b63a7" target="_top" xlink:title="Hydrax::Hydrax::setGlobalTransparency">
<polygon fill="white" stroke="black" points="534,-656.5 534,-677.5 726,-677.5 726,-656.5 534,-656.5"/>
<text text-anchor="middle" x="630" y="-664.5" font-family="Helvetica,sans-Serif" font-size="10.00">Hydrax::Hydrax::setGlobalTransparency</text>
</a>
</g>
<!-- Node1&#45;&gt;Node19 -->
<g id="edge42" class="edge"><title>Node1&#45;&gt;Node19</title>
<path fill="none" stroke="midnightblue" d="M133.075,-510.618C154.359,-549.604 208.084,-635.915 282,-669 325.358,-688.407 446.755,-683.218 533.959,-676.326"/>
<polygon fill="midnightblue" stroke="midnightblue" points="136.162,-508.967 128.371,-501.787 129.984,-512.258 136.162,-508.967"/>
</g>
<!-- Node20 -->
<g id="node43" class="node"><title>Node20</title>
<a xlink:href="class_hydrax_1_1_hydrax.html#ae931996f1e97b983a4e3ea57a30a8d47" target="_top" xlink:title="Hydrax::Hydrax::setWaterColor">
<polygon fill="white" stroke="black" points="552.5,-616.5 552.5,-637.5 707.5,-637.5 707.5,-616.5 552.5,-616.5"/>
<text text-anchor="middle" x="630" y="-624.5" font-family="Helvetica,sans-Serif" font-size="10.00">Hydrax::Hydrax::setWaterColor</text>
</a>
</g>
<!-- Node1&#45;&gt;Node20 -->
<g id="edge46" class="edge"><title>Node1&#45;&gt;Node20</title>
<path fill="none" stroke="midnightblue" d="M134.551,-510.152C157.411,-545.949 212.3,-622.001 282,-651 332.462,-671.995 484.768,-651.452 570.215,-637.51"/>
<polygon fill="midnightblue" stroke="midnightblue" points="137.466,-508.212 129.202,-501.582 131.527,-511.918 137.466,-508.212"/>
</g>
<!-- Node21 -->
<g id="node46" class="node"><title>Node21</title>
<a xlink:href="class_hydrax_1_1_hydrax.html#ab745c19968fdc47b71d65bb88679d447" target="_top" xlink:title="Hydrax::Hydrax::setNormalDistortion">
<polygon fill="white" stroke="black" points="540.5,-856.5 540.5,-877.5 719.5,-877.5 719.5,-856.5 540.5,-856.5"/>
<text text-anchor="middle" x="630" y="-864.5" font-family="Helvetica,sans-Serif" font-size="10.00">Hydrax::Hydrax::setNormalDistortion</text>
</a>
</g>
<!-- Node1&#45;&gt;Node21 -->
<g id="edge50" class="edge"><title>Node1&#45;&gt;Node21</title>
<path fill="none" stroke="midnightblue" d="M126.617,-511.964C137.84,-570.129 177.791,-734.283 282,-811 356.536,-865.872 464.473,-875.453 540.325,-874.107"/>
<polygon fill="midnightblue" stroke="midnightblue" points="129.999,-511.002 124.745,-501.801 123.115,-512.27 129.999,-511.002"/>
</g>
<!-- Node22 -->
<g id="node49" class="node"><title>Node22</title>
<a xlink:href="class_hydrax_1_1_hydrax.html#a86467f51a5b69343a97ff6536c922929" target="_top" xlink:title="Hydrax::Hydrax::setSunPosition">
<polygon fill="white" stroke="black" points="298,-736.5 298,-757.5 456,-757.5 456,-736.5 298,-736.5"/>
<text text-anchor="middle" x="377" y="-744.5" font-family="Helvetica,sans-Serif" font-size="10.00">Hydrax::Hydrax::setSunPosition</text>
</a>
</g>
<!-- Node1&#45;&gt;Node22 -->
<g id="edge54" class="edge"><title>Node1&#45;&gt;Node22</title>
<path fill="none" stroke="midnightblue" d="M130.949,-511.023C149.897,-556.084 202.181,-665.899 282,-722 290.93,-728.276 301.332,-732.977 311.913,-736.498"/>
<polygon fill="midnightblue" stroke="midnightblue" points="134.168,-509.648 127.131,-501.728 127.693,-512.307 134.168,-509.648"/>
</g>
<!-- Node29 -->
<g id="node65" class="node"><title>Node29</title>
<a xlink:href="class_hydrax_1_1_hydrax.html#aad0a9050fe394da479b1e0431d99a151" target="_top" xlink:title="Hydrax::Hydrax::setSunStrength">
<polygon fill="white" stroke="black" points="297.5,-580.5 297.5,-601.5 456.5,-601.5 456.5,-580.5 297.5,-580.5"/>
<text text-anchor="middle" x="377" y="-588.5" font-family="Helvetica,sans-Serif" font-size="10.00">Hydrax::Hydrax::setSunStrength</text>
</a>
</g>
<!-- Node1&#45;&gt;Node29 -->
<g id="edge72" class="edge"><title>Node1&#45;&gt;Node29</title>
<path fill="none" stroke="midnightblue" d="M149.267,-506.889C180.057,-524.87 233.103,-553.878 282,-571 292.658,-574.732 304.244,-577.881 315.543,-580.495"/>
<polygon fill="midnightblue" stroke="midnightblue" points="150.847,-503.757 140.456,-501.688 147.289,-509.785 150.847,-503.757"/>
</g>
<!-- Node30 -->
<g id="node68" class="node"><title>Node30</title>
<a xlink:href="class_hydrax_1_1_hydrax.html#a276bb2f6256badf7c3a72fd758732e00" target="_top" xlink:title="Hydrax::Hydrax::setSunArea">
<polygon fill="white" stroke="black" points="305.5,-540.5 305.5,-561.5 448.5,-561.5 448.5,-540.5 305.5,-540.5"/>
<text text-anchor="middle" x="377" y="-548.5" font-family="Helvetica,sans-Serif" font-size="10.00">Hydrax::Hydrax::setSunArea</text>
</a>
</g>
<!-- Node1&#45;&gt;Node30 -->
<g id="edge76" class="edge"><title>Node1&#45;&gt;Node30</title>
<path fill="none" stroke="midnightblue" d="M172.87,-504.076C204.141,-512.144 245.337,-522.532 282,-531 295.959,-534.224 311.122,-537.512 325.15,-540.466"/>
<polygon fill="midnightblue" stroke="midnightblue" points="173.642,-500.661 163.084,-501.544 171.888,-507.437 173.642,-500.661"/>
</g>
<!-- Node31 -->
<g id="node71" class="node"><title>Node31</title>
<a xlink:href="class_hydrax_1_1_hydrax.html#adc74459b43cd00a19b60b8391531cb17" target="_top" xlink:title="Hydrax::Hydrax::setSunColor">
<polygon fill="white" stroke="black" points="304,-620.5 304,-641.5 450,-641.5 450,-620.5 304,-620.5"/>
<text text-anchor="middle" x="377" y="-628.5" font-family="Helvetica,sans-Serif" font-size="10.00">Hydrax::Hydrax::setSunColor</text>
</a>
</g>
<!-- Node1&#45;&gt;Node31 -->
<g id="edge80" class="edge"><title>Node1&#45;&gt;Node31</title>
<path fill="none" stroke="midnightblue" d="M140.801,-508.736C168.496,-535.261 224.7,-584.928 282,-611 290.438,-614.839 299.635,-617.952 308.876,-620.473"/>
<polygon fill="midnightblue" stroke="midnightblue" points="143.07,-506.061 133.459,-501.602 138.192,-511.081 143.07,-506.061"/>
</g>
<!-- Node33 -->
<g id="node77" class="node"><title>Node33</title>
<a xlink:href="class_hydrax_1_1_hydrax.html#a7a741e312c15cc17958dd09e39b7f4fe" target="_top" xlink:title="Hydrax::Hydrax::setFoamMaxDistance">
<polygon fill="white" stroke="black" points="283,-500.5 283,-521.5 471,-521.5 471,-500.5 283,-500.5"/>
<text text-anchor="middle" x="377" y="-508.5" font-family="Helvetica,sans-Serif" font-size="10.00">Hydrax::Hydrax::setFoamMaxDistance</text>
</a>
</g>
<!-- Node1&#45;&gt;Node33 -->
<g id="edge88" class="edge"><title>Node1&#45;&gt;Node33</title>
<path fill="none" stroke="midnightblue" d="M255.547,-501.437C264.768,-502.163 273.949,-502.886 282.896,-503.59"/>
<polygon fill="midnightblue" stroke="midnightblue" points="255.78,-497.944 245.536,-500.649 255.23,-504.923 255.78,-497.944"/>
</g>
<!-- Node34 -->
<g id="node80" class="node"><title>Node34</title>
<a xlink:href="class_hydrax_1_1_hydrax.html#a9332262daefd2ba3ee72f8e07b642b98" target="_top" xlink:title="Hydrax::Hydrax::setFoamScale">
<polygon fill="white" stroke="black" points="299.5,-460.5 299.5,-481.5 454.5,-481.5 454.5,-460.5 299.5,-460.5"/>
<text text-anchor="middle" x="377" y="-468.5" font-family="Helvetica,sans-Serif" font-size="10.00">Hydrax::Hydrax::setFoamScale</text>
</a>
</g>
<!-- Node1&#45;&gt;Node34 -->
<g id="edge92" class="edge"><title>Node1&#45;&gt;Node34</title>
<path fill="none" stroke="midnightblue" d="M255.815,-480.542C270.652,-479.374 285.383,-478.214 299.195,-477.126"/>
<polygon fill="midnightblue" stroke="midnightblue" points="255.23,-477.077 245.536,-481.351 255.78,-484.056 255.23,-477.077"/>
</g>
<!-- Node35 -->
<g id="node83" class="node"><title>Node35</title>
<a xlink:href="class_hydrax_1_1_hydrax.html#a5eaf61497bb4e306a64ab6828acf95e5" target="_top" xlink:title="Hydrax::Hydrax::setFoamStart">
<polygon fill="white" stroke="black" points="301.5,-420.5 301.5,-441.5 452.5,-441.5 452.5,-420.5 301.5,-420.5"/>
<text text-anchor="middle" x="377" y="-428.5" font-family="Helvetica,sans-Serif" font-size="10.00">Hydrax::Hydrax::setFoamStart</text>
</a>
</g>
<!-- Node1&#45;&gt;Node35 -->
<g id="edge96" class="edge"><title>Node1&#45;&gt;Node35</title>
<path fill="none" stroke="midnightblue" d="M172.87,-477.924C204.141,-469.856 245.337,-459.468 282,-451 295.959,-447.776 311.122,-444.488 325.15,-441.534"/>
<polygon fill="midnightblue" stroke="midnightblue" points="171.888,-474.563 163.084,-480.456 173.642,-481.339 171.888,-474.563"/>
</g>
<!-- Node36 -->
<g id="node86" class="node"><title>Node36</title>
<a xlink:href="class_hydrax_1_1_hydrax.html#a031be3ce2201a6087ecb6185309acc4e" target="_top" xlink:title="Hydrax::Hydrax::setFoamTransparency">
<polygon fill="white" stroke="black" points="282.5,-380.5 282.5,-401.5 471.5,-401.5 471.5,-380.5 282.5,-380.5"/>
<text text-anchor="middle" x="377" y="-388.5" font-family="Helvetica,sans-Serif" font-size="10.00">Hydrax::Hydrax::setFoamTransparency</text>
</a>
</g>
<!-- Node1&#45;&gt;Node36 -->
<g id="edge100" class="edge"><title>Node1&#45;&gt;Node36</title>
<path fill="none" stroke="midnightblue" d="M149.267,-475.111C180.057,-457.13 233.103,-428.122 282,-411 292.658,-407.268 304.244,-404.119 315.543,-401.505"/>
<polygon fill="midnightblue" stroke="midnightblue" points="147.289,-472.215 140.456,-480.312 150.847,-478.243 147.289,-472.215"/>
</g>
<!-- Node37 -->
<g id="node89" class="node"><title>Node37</title>
<a xlink:href="class_hydrax_1_1_hydrax.html#a83f64aa230e64e83d9732290b50f3787" target="_top" xlink:title="Hydrax::Hydrax::setDepthLimit">
<polygon fill="white" stroke="black" points="301,-340.5 301,-361.5 453,-361.5 453,-340.5 301,-340.5"/>
<text text-anchor="middle" x="377" y="-348.5" font-family="Helvetica,sans-Serif" font-size="10.00">Hydrax::Hydrax::setDepthLimit</text>
</a>
</g>
<!-- Node1&#45;&gt;Node37 -->
<g id="edge104" class="edge"><title>Node1&#45;&gt;Node37</title>
<path fill="none" stroke="midnightblue" d="M140.801,-473.264C168.496,-446.739 224.7,-397.072 282,-371 290.438,-367.161 299.635,-364.048 308.876,-361.527"/>
<polygon fill="midnightblue" stroke="midnightblue" points="138.192,-470.919 133.459,-480.398 143.07,-475.939 138.192,-470.919"/>
</g>
<!-- Node38 -->
<g id="node92" class="node"><title>Node38</title>
<a xlink:href="class_hydrax_1_1_hydrax.html#a2674e1b13b5f97167663219fa9b64ada" target="_top" xlink:title="Hydrax::Hydrax::setDistLimit">
<polygon fill="white" stroke="black" points="305,-300.5 305,-321.5 449,-321.5 449,-300.5 305,-300.5"/>
<text text-anchor="middle" x="377" y="-308.5" font-family="Helvetica,sans-Serif" font-size="10.00">Hydrax::Hydrax::setDistLimit</text>
</a>
</g>
<!-- Node1&#45;&gt;Node38 -->
<g id="edge108" class="edge"><title>Node1&#45;&gt;Node38</title>
<path fill="none" stroke="midnightblue" d="M136.173,-471.734C160.637,-437.555 216.589,-366.566 282,-331 289.108,-327.135 296.89,-324.017 304.843,-321.501"/>
<polygon fill="midnightblue" stroke="midnightblue" points="133.012,-470.144 130.126,-480.338 138.739,-474.169 133.012,-470.144"/>
</g>
<!-- Node39 -->
<g id="node95" class="node"><title>Node39</title>
<a xlink:href="class_hydrax_1_1_hydrax.html#aa8f4c456888deffc3cbe523c0666a66b" target="_top" xlink:title="Hydrax::Hydrax::setSmoothPower">
<polygon fill="white" stroke="black" points="293.5,-260.5 293.5,-281.5 460.5,-281.5 460.5,-260.5 293.5,-260.5"/>
<text text-anchor="middle" x="377" y="-268.5" font-family="Helvetica,sans-Serif" font-size="10.00">Hydrax::Hydrax::setSmoothPower</text>
</a>
</g>
<!-- Node1&#45;&gt;Node39 -->
<g id="edge112" class="edge"><title>Node1&#45;&gt;Node39</title>
<path fill="none" stroke="midnightblue" d="M132.668,-471.205C153.698,-430.389 207.738,-336.869 282,-291 288.166,-287.191 294.941,-284.098 301.946,-281.587"/>
<polygon fill="midnightblue" stroke="midnightblue" points="129.525,-469.665 128.147,-480.17 135.775,-472.817 129.525,-469.665"/>
</g>
<!-- Node40 -->
<g id="node98" class="node"><title>Node40</title>
<a xlink:href="class_hydrax_1_1_hydrax.html#aa0d4bb8262e28ef9e6ff273503266889" target="_top" xlink:title="Hydrax::Hydrax::setCausticsScale">
<polygon fill="white" stroke="black" points="292.5,-220.5 292.5,-241.5 461.5,-241.5 461.5,-220.5 292.5,-220.5"/>
<text text-anchor="middle" x="377" y="-228.5" font-family="Helvetica,sans-Serif" font-size="10.00">Hydrax::Hydrax::setCausticsScale</text>
</a>
</g>
<!-- Node1&#45;&gt;Node40 -->
<g id="edge116" class="edge"><title>Node1&#45;&gt;Node40</title>
<path fill="none" stroke="midnightblue" d="M130.148,-470.889C147.877,-424.107 198.569,-307.662 282,-251 287.577,-247.212 293.731,-244.12 300.145,-241.598"/>
<polygon fill="midnightblue" stroke="midnightblue" points="126.783,-469.899 126.605,-480.492 133.35,-472.322 126.783,-469.899"/>
</g>
<!-- Node41 -->
<g id="node101" class="node"><title>Node41</title>
<a xlink:href="class_hydrax_1_1_hydrax.html#a78ed497eda748ca0699f170cbc491e13" target="_top" xlink:title="Hydrax::Hydrax::setCausticsPower">
<polygon fill="white" stroke="black" points="291,-180.5 291,-201.5 463,-201.5 463,-180.5 291,-180.5"/>
<text text-anchor="middle" x="377" y="-188.5" font-family="Helvetica,sans-Serif" font-size="10.00">Hydrax::Hydrax::setCausticsPower</text>
</a>
</g>
<!-- Node1&#45;&gt;Node41 -->
<g id="edge120" class="edge"><title>Node1&#45;&gt;Node41</title>
<path fill="none" stroke="midnightblue" d="M128.315,-470.439C142.995,-418.014 189.287,-278.73 282,-211 287.172,-207.222 292.901,-204.125 298.909,-201.59"/>
<polygon fill="midnightblue" stroke="midnightblue" points="124.894,-469.683 125.657,-480.25 131.65,-471.513 124.894,-469.683"/>
</g>
<!-- Node42 -->
<g id="node104" class="node"><title>Node42</title>
<a xlink:href="class_hydrax_1_1_hydrax.html#af194156ce3a8647bcb447a2ce8d8c932" target="_top" xlink:title="Hydrax::Hydrax::setCausticsEnd">
<polygon fill="white" stroke="black" points="296.5,-140.5 296.5,-161.5 457.5,-161.5 457.5,-140.5 296.5,-140.5"/>
<text text-anchor="middle" x="377" y="-148.5" font-family="Helvetica,sans-Serif" font-size="10.00">Hydrax::Hydrax::setCausticsEnd</text>
</a>
</g>
<!-- Node1&#45;&gt;Node42 -->
<g id="edge124" class="edge"><title>Node1&#45;&gt;Node42</title>
<path fill="none" stroke="midnightblue" d="M126.81,-470.291C138.532,-412.788 179.66,-250.193 282,-171 286.799,-167.287 292.126,-164.222 297.739,-161.698"/>
<polygon fill="midnightblue" stroke="midnightblue" points="123.33,-469.849 124.848,-480.335 130.2,-471.191 123.33,-469.849"/>
</g>
<!-- Node3 -->
<g id="node5" class="node"><title>Node3</title>
<a xlink:href="class_hydrax_1_1_cfg_file_manager.html#a7d283a6b6b61ad70292c7cb24cd3543c" target="_top" xlink:title="Hydrax::CfgFileManager::load">
<polygon fill="white" stroke="black" points="822.5,-816.5 822.5,-837.5 969.5,-837.5 969.5,-816.5 822.5,-816.5"/>
<text text-anchor="middle" x="896" y="-824.5" font-family="Helvetica,sans-Serif" font-size="10.00">Hydrax::CfgFileManager::load</text>
</a>
</g>
<!-- Node2&#45;&gt;Node3 -->
<g id="edge4" class="edge"><title>Node2&#45;&gt;Node3</title>
<path fill="none" stroke="midnightblue" d="M710.055,-900.51C724.46,-897.506 739.011,-893.187 752,-887 771.326,-877.793 769.113,-865.078 788,-855 802.355,-847.34 818.917,-841.693 834.693,-837.561"/>
<polygon fill="midnightblue" stroke="midnightblue" points="709.303,-897.09 700.127,-902.386 710.603,-903.968 709.303,-897.09"/>
</g>
<!-- Node5 -->
<g id="node9" class="node"><title>Node5</title>
<a xlink:href="class_hydrax_water.html#aedfd9537f96021b60a195b2bb6a9ee2d" target="_top" xlink:title="HydraxWater::InitHydrax">
<polygon fill="white" stroke="black" points="1214.5,-857.5 1214.5,-878.5 1339.5,-878.5 1339.5,-857.5 1214.5,-857.5"/>
<text text-anchor="middle" x="1277" y="-865.5" font-family="Helvetica,sans-Serif" font-size="10.00">HydraxWater::InitHydrax</text>
</a>
</g>
<!-- Node2&#45;&gt;Node5 -->
<g id="edge16" class="edge"><title>Node2&#45;&gt;Node5</title>
<path fill="none" stroke="midnightblue" d="M710.434,-908.34C817.532,-909.182 1012.68,-907.431 1178,-888 1196.11,-885.871 1215.85,-882.171 1232.9,-878.528"/>
<polygon fill="midnightblue" stroke="midnightblue" points="710.379,-904.839 700.349,-908.251 710.317,-911.839 710.379,-904.839"/>
</g>
<!-- Node7 -->
<g id="node13" class="node"><title>Node7</title>
<a xlink:href="class_hydrax_1_1_hydrax.html#a3f678db49fe45320efb237d145ec63e4" target="_top" xlink:title="Hydrax::Hydrax::setModule">
<polygon fill="white" stroke="black" points="1040.5,-857.5 1040.5,-878.5 1177.5,-878.5 1177.5,-857.5 1040.5,-857.5"/>
<text text-anchor="middle" x="1109" y="-865.5" font-family="Helvetica,sans-Serif" font-size="10.00">Hydrax::Hydrax::setModule</text>
</a>
</g>
<!-- Node2&#45;&gt;Node7 -->
<g id="edge12" class="edge"><title>Node2&#45;&gt;Node7</title>
<path fill="none" stroke="midnightblue" d="M710.49,-899.701C735.338,-897.493 762.795,-895.098 788,-893 875.039,-885.755 975.411,-878.04 1040.42,-873.129"/>
<polygon fill="midnightblue" stroke="midnightblue" points="710.03,-896.228 700.38,-900.602 710.651,-903.201 710.03,-896.228"/>
</g>
<!-- Node4 -->
<g id="node7" class="node"><title>Node4</title>
<a xlink:href="class_hydrax_1_1_hydrax.html#a1a9a011581dc097e3928511632b534da" target="_top" xlink:title="Hydrax::Hydrax::loadCfg">
<polygon fill="white" stroke="black" points="1046.5,-817.5 1046.5,-838.5 1171.5,-838.5 1171.5,-817.5 1046.5,-817.5"/>
<text text-anchor="middle" x="1109" y="-825.5" font-family="Helvetica,sans-Serif" font-size="10.00">Hydrax::Hydrax::loadCfg</text>
</a>
</g>
<!-- Node3&#45;&gt;Node4 -->
<g id="edge6" class="edge"><title>Node3&#45;&gt;Node4</title>
<path fill="none" stroke="midnightblue" d="M979.694,-827.393C1001.91,-827.497 1025.51,-827.608 1046.38,-827.706"/>
<polygon fill="midnightblue" stroke="midnightblue" points="979.617,-823.893 969.601,-827.346 979.584,-830.893 979.617,-823.893"/>
</g>
<!-- Node4&#45;&gt;Node5 -->
<g id="edge8" class="edge"><title>Node4&#45;&gt;Node5</title>
<path fill="none" stroke="midnightblue" d="M1162.92,-840.839C1185.51,-846.216 1211.44,-852.39 1232.86,-857.491"/>
<polygon fill="midnightblue" stroke="midnightblue" points="1163.68,-837.421 1153.14,-838.51 1162.06,-844.231 1163.68,-837.421"/>
</g>
<!-- Node6 -->
<g id="node11" class="node"><title>Node6</title>
<a xlink:href="class_hydrax_water.html#a20bb0db860124c8e18903f5d640f88db" target="_top" xlink:title="HydraxWater::HydraxWater">
<polygon fill="white" stroke="black" points="1376,-857.5 1376,-878.5 1514,-878.5 1514,-857.5 1376,-857.5"/>
<text text-anchor="middle" x="1445" y="-865.5" font-family="Helvetica,sans-Serif" font-size="10.00">HydraxWater::HydraxWater</text>
</a>
</g>
<!-- Node5&#45;&gt;Node6 -->
<g id="edge10" class="edge"><title>Node5&#45;&gt;Node6</title>
<path fill="none" stroke="midnightblue" d="M1349.68,-868C1358.38,-868 1367.25,-868 1375.9,-868"/>
<polygon fill="midnightblue" stroke="midnightblue" points="1349.56,-864.5 1339.56,-868 1349.56,-871.5 1349.56,-864.5"/>
</g>
<!-- Node7&#45;&gt;Node5 -->
<g id="edge14" class="edge"><title>Node7&#45;&gt;Node5</title>
<path fill="none" stroke="midnightblue" d="M1187.85,-868C1196.79,-868 1205.81,-868 1214.5,-868"/>
<polygon fill="midnightblue" stroke="midnightblue" points="1187.82,-864.5 1177.82,-868 1187.82,-871.5 1187.82,-864.5"/>
</g>
<!-- Node9 -->
<g id="node19" class="node"><title>Node9</title>
<a xlink:href="class_hydrax_1_1_module_1_1_projected_grid.html#a04d04b9cfc173538038a5f51094c1ffa" target="_top" xlink:title="Hydrax::Module::ProjectedGrid::setOptions">
<polygon fill="white" stroke="black" points="528,-160.5 528,-181.5 732,-181.5 732,-160.5 528,-160.5"/>
<text text-anchor="middle" x="630" y="-168.5" font-family="Helvetica,sans-Serif" font-size="10.00">Hydrax::Module::ProjectedGrid::setOptions</text>
</a>
</g>
<!-- Node8&#45;&gt;Node9 -->
<g id="edge20" class="edge"><title>Node8&#45;&gt;Node9</title>
<path fill="none" stroke="midnightblue" d="M438.874,-123.648C449.923,-126.014 461.315,-128.524 472,-131 512.383,-140.359 558.29,-152.106 590.173,-160.442"/>
<polygon fill="midnightblue" stroke="midnightblue" points="439.363,-120.174 428.854,-121.52 437.909,-127.021 439.363,-120.174"/>
</g>
<!-- Node12 -->
<g id="node25" class="node"><title>Node12</title>
<a xlink:href="class_hydrax_1_1_module_1_1_radial_grid.html#acfc2ae157df9b6159302a90561ffc038" target="_top" xlink:title="Hydrax::Module::RadialGrid::setOptions">
<polygon fill="white" stroke="black" points="534.5,-100.5 534.5,-121.5 725.5,-121.5 725.5,-100.5 534.5,-100.5"/>
<text text-anchor="middle" x="630" y="-108.5" font-family="Helvetica,sans-Serif" font-size="10.00">Hydrax::Module::RadialGrid::setOptions</text>
</a>
</g>
<!-- Node8&#45;&gt;Node12 -->
<g id="edge26" class="edge"><title>Node8&#45;&gt;Node12</title>
<path fill="none" stroke="midnightblue" d="M460.788,-111C484.28,-111 509.997,-111 534.132,-111"/>
<polygon fill="midnightblue" stroke="midnightblue" points="460.518,-107.5 450.518,-111 460.518,-114.5 460.518,-107.5"/>
</g>
<!-- Node15 -->
<g id="node31" class="node"><title>Node15</title>
<a xlink:href="class_hydrax_1_1_module_1_1_simple_grid.html#a6b83cb95b2803b068a53bf76afaa9ac4" target="_top" xlink:title="Hydrax::Module::SimpleGrid::setOptions">
<polygon fill="white" stroke="black" points="533.5,-40.5 533.5,-61.5 726.5,-61.5 726.5,-40.5 533.5,-40.5"/>
<text text-anchor="middle" x="630" y="-48.5" font-family="Helvetica,sans-Serif" font-size="10.00">Hydrax::Module::SimpleGrid::setOptions</text>
</a>
</g>
<!-- Node8&#45;&gt;Node15 -->
<g id="edge32" class="edge"><title>Node8&#45;&gt;Node15</title>
<path fill="none" stroke="midnightblue" d="M431.178,-98.1515C477.275,-87.2193 542.668,-71.7111 585.692,-61.5078"/>
<polygon fill="midnightblue" stroke="midnightblue" points="430.281,-94.767 421.359,-100.48 431.897,-101.578 430.281,-94.767"/>
</g>
<!-- Node10 -->
<g id="node21" class="node"><title>Node10</title>
<a xlink:href="class_hydrax_1_1_module_1_1_projected_grid.html#aa9308990b99866cbd09edd3600972443" target="_top" xlink:title="Hydrax::Module::ProjectedGrid::ProjectedGrid">
<polygon fill="white" stroke="black" points="788,-200.5 788,-221.5 1004,-221.5 1004,-200.5 788,-200.5"/>
<text text-anchor="middle" x="896" y="-208.5" font-family="Helvetica,sans-Serif" font-size="10.00">Hydrax::Module::ProjectedGrid::ProjectedGrid</text>
</a>
</g>
<!-- Node9&#45;&gt;Node10 -->
<g id="edge22" class="edge"><title>Node9&#45;&gt;Node10</title>
<path fill="none" stroke="midnightblue" d="M710.125,-183.049C747.072,-188.605 790.521,-195.138 826.117,-200.491"/>
<polygon fill="midnightblue" stroke="midnightblue" points="710.298,-179.536 699.888,-181.51 709.257,-186.458 710.298,-179.536"/>
</g>
<!-- Node11 -->
<g id="node23" class="node"><title>Node11</title>
<a xlink:href="class_hydrax_1_1_module_1_1_projected_grid.html#af951c58cc93cf75d57e69aa14a668d3e" target="_top" xlink:title="Hydrax::Module::ProjectedGrid::loadCfg">
<polygon fill="white" stroke="black" points="800.5,-160.5 800.5,-181.5 991.5,-181.5 991.5,-160.5 800.5,-160.5"/>
<text text-anchor="middle" x="896" y="-168.5" font-family="Helvetica,sans-Serif" font-size="10.00">Hydrax::Module::ProjectedGrid::loadCfg</text>
</a>
</g>
<!-- Node9&#45;&gt;Node11 -->
<g id="edge24" class="edge"><title>Node9&#45;&gt;Node11</title>
<path fill="none" stroke="midnightblue" d="M742.137,-171C761.488,-171 781.443,-171 800.308,-171"/>
<polygon fill="midnightblue" stroke="midnightblue" points="742.082,-167.5 732.082,-171 742.082,-174.5 742.082,-167.5"/>
</g>
<!-- Node13 -->
<g id="node27" class="node"><title>Node13</title>
<a xlink:href="class_hydrax_1_1_module_1_1_radial_grid.html#abc52ff8727a537d5303fabc1179fa45f" target="_top" xlink:title="Hydrax::Module::RadialGrid::RadialGrid">
<polygon fill="white" stroke="black" points="801.5,-120.5 801.5,-141.5 990.5,-141.5 990.5,-120.5 801.5,-120.5"/>
<text text-anchor="middle" x="896" y="-128.5" font-family="Helvetica,sans-Serif" font-size="10.00">Hydrax::Module::RadialGrid::RadialGrid</text>
</a>
</g>
<!-- Node12&#45;&gt;Node13 -->
<g id="edge28" class="edge"><title>Node12&#45;&gt;Node13</title>
<path fill="none" stroke="midnightblue" d="M735.83,-118.957C757.423,-120.581 780.013,-122.279 801.192,-123.872"/>
<polygon fill="midnightblue" stroke="midnightblue" points="735.891,-115.452 725.656,-118.192 735.366,-122.432 735.891,-115.452"/>
</g>
<!-- Node14 -->
<g id="node29" class="node"><title>Node14</title>
<a xlink:href="class_hydrax_1_1_module_1_1_radial_grid.html#a31b3bab8e74f2f1e316a1800470ac685" target="_top" xlink:title="Hydrax::Module::RadialGrid::loadCfg">
<polygon fill="white" stroke="black" points="807.5,-80.5 807.5,-101.5 984.5,-101.5 984.5,-80.5 807.5,-80.5"/>
<text text-anchor="middle" x="896" y="-88.5" font-family="Helvetica,sans-Serif" font-size="10.00">Hydrax::Module::RadialGrid::loadCfg</text>
</a>
</g>
<!-- Node12&#45;&gt;Node14 -->
<g id="edge30" class="edge"><title>Node12&#45;&gt;Node14</title>
<path fill="none" stroke="midnightblue" d="M735.747,-103.049C759.487,-101.264 784.437,-99.3882 807.393,-97.6622"/>
<polygon fill="midnightblue" stroke="midnightblue" points="735.366,-99.5678 725.656,-103.808 735.891,-106.548 735.366,-99.5678"/>
</g>
<!-- Node16 -->
<g id="node33" class="node"><title>Node16</title>
<a xlink:href="class_hydrax_1_1_module_1_1_simple_grid.html#aae091cd103798dcc8f8b92af7dbfccef" target="_top" xlink:title="Hydrax::Module::SimpleGrid::SimpleGrid">
<polygon fill="white" stroke="black" points="799,-40.5 799,-61.5 993,-61.5 993,-40.5 799,-40.5"/>
<text text-anchor="middle" x="896" y="-48.5" font-family="Helvetica,sans-Serif" font-size="10.00">Hydrax::Module::SimpleGrid::SimpleGrid</text>
</a>
</g>
<!-- Node15&#45;&gt;Node16 -->
<g id="edge34" class="edge"><title>Node15&#45;&gt;Node16</title>
<path fill="none" stroke="midnightblue" d="M737.053,-51C757.477,-51 778.749,-51 798.842,-51"/>
<polygon fill="midnightblue" stroke="midnightblue" points="736.785,-47.5001 726.785,-51 736.785,-54.5001 736.785,-47.5001"/>
</g>
<!-- Node17 -->
<g id="node35" class="node"><title>Node17</title>
<a xlink:href="class_hydrax_1_1_module_1_1_simple_grid.html#a3741ec1a3df1863e730711fd9d3b14e1" target="_top" xlink:title="Hydrax::Module::SimpleGrid::loadCfg">
<polygon fill="white" stroke="black" points="806.5,-0.5 806.5,-21.5 985.5,-21.5 985.5,-0.5 806.5,-0.5"/>
<text text-anchor="middle" x="896" y="-8.5" font-family="Helvetica,sans-Serif" font-size="10.00">Hydrax::Module::SimpleGrid::loadCfg</text>
</a>
</g>
<!-- Node15&#45;&gt;Node17 -->
<g id="edge36" class="edge"><title>Node15&#45;&gt;Node17</title>
<path fill="none" stroke="midnightblue" d="M710.125,-38.9511C747.072,-33.3953 790.521,-26.8615 826.117,-21.5087"/>
<polygon fill="midnightblue" stroke="midnightblue" points="709.257,-35.5423 699.888,-40.4905 710.298,-42.4644 709.257,-35.5423"/>
</g>
<!-- Node18&#45;&gt;Node3 -->
<g id="edge40" class="edge"><title>Node18&#45;&gt;Node3</title>
<path fill="none" stroke="midnightblue" d="M742.365,-827C769.37,-827 797.538,-827 822.268,-827"/>
<polygon fill="midnightblue" stroke="midnightblue" points="742.082,-823.5 732.082,-827 742.082,-830.5 742.082,-823.5"/>
</g>
<!-- Node19&#45;&gt;Node3 -->
<g id="edge44" class="edge"><title>Node19&#45;&gt;Node3</title>
<path fill="none" stroke="midnightblue" d="M735.652,-680.068C741.294,-682.073 746.782,-684.37 752,-687 815.828,-719.174 869.772,-789.594 888.732,-816.376"/>
<polygon fill="midnightblue" stroke="midnightblue" points="736.624,-676.704 726.033,-676.962 734.474,-683.365 736.624,-676.704"/>
</g>
<!-- Node20&#45;&gt;Node3 -->
<g id="edge48" class="edge"><title>Node20&#45;&gt;Node3</title>
<path fill="none" stroke="midnightblue" d="M717.884,-633.394C729.847,-636.522 741.579,-640.904 752,-647 824.888,-689.635 875.449,-784.269 890.972,-816.222"/>
<polygon fill="midnightblue" stroke="midnightblue" points="718.337,-629.906 707.804,-631.051 716.752,-636.724 718.337,-629.906"/>
</g>
<!-- Node21&#45;&gt;Node3 -->
<g id="edge52" class="edge"><title>Node21&#45;&gt;Node3</title>
<path fill="none" stroke="midnightblue" d="M710.125,-854.951C747.072,-849.395 790.521,-842.862 826.117,-837.509"/>
<polygon fill="midnightblue" stroke="midnightblue" points="709.257,-851.542 699.888,-856.49 710.298,-858.464 709.257,-851.542"/>
</g>
<!-- Node22&#45;&gt;Node2 -->
<g id="edge60" class="edge"><title>Node22&#45;&gt;Node2</title>
<path fill="none" stroke="midnightblue" d="M388.849,-766.245C409.084,-797.287 453.452,-857.867 508,-887 523.714,-895.393 542.063,-900.445 559.686,-903.442"/>
<polygon fill="midnightblue" stroke="midnightblue" points="391.684,-764.181 383.359,-757.628 385.78,-767.942 391.684,-764.181"/>
</g>
<!-- Node23 -->
<g id="node51" class="node"><title>Node23</title>
<a xlink:href="class_hydrax_1_1_cfg_file_manager.html#a6717ef4e731b3c22d71260aaa6d0336a" target="_top" xlink:title="Hydrax::CfgFileManager::_loadComponentsSettings">
<polygon fill="white" stroke="black" points="508,-420.5 508,-441.5 752,-441.5 752,-420.5 508,-420.5"/>
<text text-anchor="middle" x="630" y="-428.5" font-family="Helvetica,sans-Serif" font-size="10.00">Hydrax::CfgFileManager::_loadComponentsSettings</text>
</a>
</g>
<!-- Node22&#45;&gt;Node23 -->
<g id="edge56" class="edge"><title>Node22&#45;&gt;Node23</title>
<path fill="none" stroke="midnightblue" d="M399.483,-729.909C421.075,-712.355 453.12,-683.123 472,-651 501.078,-601.526 475.914,-574.578 508,-527 534.522,-487.672 582.24,-457.045 609.474,-441.744"/>
<polygon fill="midnightblue" stroke="midnightblue" points="397.142,-727.299 391.493,-736.262 401.498,-732.778 397.142,-727.299"/>
</g>
<!-- Node24 -->
<g id="node55" class="node"><title>Node24</title>
<a xlink:href="class_hydrax_1_1_hydrax.html#a35958e296923f17c5eab19840d3711e2" target="_top" xlink:title="Hydrax::Hydrax::rotate">
<polygon fill="white" stroke="black" points="572,-776.5 572,-797.5 688,-797.5 688,-776.5 572,-776.5"/>
<text text-anchor="middle" x="630" y="-784.5" font-family="Helvetica,sans-Serif" font-size="10.00">Hydrax::Hydrax::rotate</text>
</a>
</g>
<!-- Node22&#45;&gt;Node24 -->
<g id="edge62" class="edge"><title>Node22&#45;&gt;Node24</title>
<path fill="none" stroke="midnightblue" d="M453.469,-759.09C491.443,-765.094 536.588,-772.231 571.718,-777.786"/>
<polygon fill="midnightblue" stroke="midnightblue" points="453.897,-755.614 443.473,-757.51 452.803,-762.528 453.897,-755.614"/>
</g>
<!-- Node25 -->
<g id="node57" class="node"><title>Node25</title>
<a xlink:href="class_hydrax_1_1_module_1_1_projected_grid.html#a8d7a8efcd6b7fd0e4313c9114bd2c061" target="_top" xlink:title="Hydrax::Module::ProjectedGrid::update">
<polygon fill="white" stroke="black" points="537,-736.5 537,-757.5 723,-757.5 723,-736.5 537,-736.5"/>
<text text-anchor="middle" x="630" y="-744.5" font-family="Helvetica,sans-Serif" font-size="10.00">Hydrax::Module::ProjectedGrid::update</text>
</a>
</g>
<!-- Node22&#45;&gt;Node25 -->
<g id="edge64" class="edge"><title>Node22&#45;&gt;Node25</title>
<path fill="none" stroke="midnightblue" d="M466.075,-747C489.04,-747 513.813,-747 536.973,-747"/>
<polygon fill="midnightblue" stroke="midnightblue" points="466.01,-743.5 456.01,-747 466.01,-750.5 466.01,-743.5"/>
</g>
<!-- Node26 -->
<g id="node59" class="node"><title>Node26</title>
<a xlink:href="class_hydrax_water.html#aa179b211992ec42447dc861ece4b3e3e" target="_top" xlink:title="HydraxWater::update">
<polygon fill="white" stroke="black" points="575,-576.5 575,-597.5 685,-597.5 685,-576.5 575,-576.5"/>
<text text-anchor="middle" x="630" y="-584.5" font-family="Helvetica,sans-Serif" font-size="10.00">HydraxWater::update</text>
</a>
</g>
<!-- Node22&#45;&gt;Node26 -->
<g id="edge66" class="edge"><title>Node22&#45;&gt;Node26</title>
<path fill="none" stroke="midnightblue" d="M395.524,-729.303C415.062,-710.404 446.492,-679.335 472,-651 488.905,-632.221 486.12,-619.637 508,-607 528.073,-595.406 552.922,-590.035 574.946,-587.7"/>
<polygon fill="midnightblue" stroke="midnightblue" points="392.947,-726.925 388.172,-736.383 397.803,-731.967 392.947,-726.925"/>
</g>
<!-- Node28 -->
<g id="node63" class="node"><title>Node28</title>
<a xlink:href="class_hydrax_water.html#a283fbde037aa39623f121f2877b15d06" target="_top" xlink:title="HydraxWater::setSunPosition">
<polygon fill="white" stroke="black" points="557,-696.5 557,-717.5 703,-717.5 703,-696.5 557,-696.5"/>
<text text-anchor="middle" x="630" y="-704.5" font-family="Helvetica,sans-Serif" font-size="10.00">HydraxWater::setSunPosition</text>
</a>
</g>
<!-- Node22&#45;&gt;Node28 -->
<g id="edge70" class="edge"><title>Node22&#45;&gt;Node28</title>
<path fill="none" stroke="midnightblue" d="M453.66,-734.88C488.703,-729.339 529.82,-722.839 563.532,-717.509"/>
<polygon fill="midnightblue" stroke="midnightblue" points="452.803,-731.472 443.473,-736.49 453.897,-738.386 452.803,-731.472"/>
</g>
<!-- Node23&#45;&gt;Node3 -->
<g id="edge58" class="edge"><title>Node23&#45;&gt;Node3</title>
<path fill="none" stroke="midnightblue" d="M656.983,-446.782C684.005,-463.722 725.306,-492.851 752,-527 776.012,-557.718 771.407,-571.717 788,-607 826.026,-687.856 874.34,-784.099 890.475,-816.075"/>
<polygon fill="midnightblue" stroke="midnightblue" points="658.761,-443.767 648.408,-441.515 655.097,-449.731 658.761,-443.767"/>
</g>
<!-- Node27 -->
<g id="node61" class="node"><title>Node27</title>
<a xlink:href="class_hydrax_water.html#a00888728a3ac027b68807892c1ec614b" target="_top" xlink:title="HydraxWater::framestep">
<polygon fill="white" stroke="black" points="834,-576.5 834,-597.5 958,-597.5 958,-576.5 834,-576.5"/>
<text text-anchor="middle" x="896" y="-584.5" font-family="Helvetica,sans-Serif" font-size="10.00">HydraxWater::framestep</text>
</a>
</g>
<!-- Node26&#45;&gt;Node27 -->
<g id="edge68" class="edge"><title>Node26&#45;&gt;Node27</title>
<path fill="none" stroke="midnightblue" d="M695.309,-587C737.602,-587 792.347,-587 833.973,-587"/>
<polygon fill="midnightblue" stroke="midnightblue" points="695.115,-583.5 685.115,-587 695.115,-590.5 695.115,-583.5"/>
</g>
<!-- Node29&#45;&gt;Node23 -->
<g id="edge74" class="edge"><title>Node29&#45;&gt;Node23</title>
<path fill="none" stroke="midnightblue" d="M461.106,-576.685C464.881,-574.995 468.535,-573.107 472,-571 493.59,-557.873 489.964,-544.696 508,-527 543.206,-492.458 590.421,-458.244 614.485,-441.54"/>
<polygon fill="midnightblue" stroke="midnightblue" points="459.511,-573.553 451.509,-580.496 462.094,-580.059 459.511,-573.553"/>
</g>
<!-- Node30&#45;&gt;Node23 -->
<g id="edge78" class="edge"><title>Node30&#45;&gt;Node23</title>
<path fill="none" stroke="midnightblue" d="M452.269,-537.778C459.037,-535.805 465.705,-533.557 472,-531 530.347,-507.297 590.998,-462.091 616.954,-441.584"/>
<polygon fill="midnightblue" stroke="midnightblue" points="451.052,-534.481 442.315,-540.474 452.882,-541.238 451.052,-534.481"/>
</g>
<!-- Node31&#45;&gt;Node23 -->
<g id="edge82" class="edge"><title>Node31&#45;&gt;Node23</title>
<path fill="none" stroke="midnightblue" d="M459.66,-619.043C464.051,-616.769 468.208,-614.109 472,-611 503.411,-585.249 483.274,-559.224 508,-527 537.205,-488.94 584.779,-457.395 611.058,-441.706"/>
<polygon fill="midnightblue" stroke="midnightblue" points="458.072,-615.919 450.363,-623.188 460.922,-622.313 458.072,-615.919"/>
</g>
<!-- Node31&#45;&gt;Node26 -->
<g id="edge84" class="edge"><title>Node31&#45;&gt;Node26</title>
<path fill="none" stroke="midnightblue" d="M443.054,-618.65C463.825,-614.833 486.856,-610.67 508,-607 529.782,-603.22 553.785,-599.244 574.697,-595.842"/>
<polygon fill="midnightblue" stroke="midnightblue" points="442.257,-615.238 433.057,-620.492 443.526,-622.122 442.257,-615.238"/>
</g>
<!-- Node32 -->
<g id="node75" class="node"><title>Node32</title>
<a xlink:href="class_hydrax_water.html#ac41640486265432e8457c6a4ab01ac29" target="_top" xlink:title="HydraxWater::setFadeColour">
<polygon fill="white" stroke="black" points="558,-536.5 558,-557.5 702,-557.5 702,-536.5 558,-536.5"/>
<text text-anchor="middle" x="630" y="-544.5" font-family="Helvetica,sans-Serif" font-size="10.00">HydraxWater::setFadeColour</text>
</a>
</g>
<!-- Node31&#45;&gt;Node32 -->
<g id="edge86" class="edge"><title>Node31&#45;&gt;Node32</title>
<path fill="none" stroke="midnightblue" d="M459.637,-617.331C463.934,-615.479 468.087,-613.379 472,-611 493.59,-597.873 486.12,-579.637 508,-567 522.962,-558.358 540.577,-553.174 557.698,-550.127"/>
<polygon fill="midnightblue" stroke="midnightblue" points="458.124,-614.162 450.035,-621.004 460.625,-620.7 458.124,-614.162"/>
</g>
<!-- Node33&#45;&gt;Node23 -->
<g id="edge90" class="edge"><title>Node33&#45;&gt;Node23</title>
<path fill="none" stroke="midnightblue" d="M443.938,-498.275C453.418,-496.077 462.997,-493.64 472,-491 520.429,-476.8 575.105,-454.597 605.772,-441.554"/>
<polygon fill="midnightblue" stroke="midnightblue" points="443.115,-494.873 434.124,-500.478 444.648,-501.703 443.115,-494.873"/>
</g>
<!-- Node34&#45;&gt;Node23 -->
<g id="edge94" class="edge"><title>Node34&#45;&gt;Node23</title>
<path fill="none" stroke="midnightblue" d="M453.66,-458.88C488.703,-453.339 529.82,-446.839 563.532,-441.509"/>
<polygon fill="midnightblue" stroke="midnightblue" points="452.803,-455.472 443.473,-460.49 453.897,-462.386 452.803,-455.472"/>
</g>
<!-- Node35&#45;&gt;Node23 -->
<g id="edge98" class="edge"><title>Node35&#45;&gt;Node23</title>
<path fill="none" stroke="midnightblue" d="M462.969,-431C477.467,-431 492.758,-431 507.964,-431"/>
<polygon fill="midnightblue" stroke="midnightblue" points="462.566,-427.5 452.566,-431 462.566,-434.5 462.566,-427.5"/>
</g>
<!-- Node36&#45;&gt;Node23 -->
<g id="edge102" class="edge"><title>Node36&#45;&gt;Node23</title>
<path fill="none" stroke="midnightblue" d="M453.66,-403.12C488.703,-408.661 529.82,-415.161 563.532,-420.491"/>
<polygon fill="midnightblue" stroke="midnightblue" points="453.897,-399.614 443.473,-401.51 452.803,-406.528 453.897,-399.614"/>
</g>
<!-- Node37&#45;&gt;Node23 -->
<g id="edge106" class="edge"><title>Node37&#45;&gt;Node23</title>
<path fill="none" stroke="midnightblue" d="M443.938,-363.725C453.418,-365.923 462.997,-368.36 472,-371 520.429,-385.2 575.105,-407.403 605.772,-420.446"/>
<polygon fill="midnightblue" stroke="midnightblue" points="444.648,-360.297 434.124,-361.522 443.115,-367.127 444.648,-360.297"/>
</g>
<!-- Node38&#45;&gt;Node23 -->
<g id="edge110" class="edge"><title>Node38&#45;&gt;Node23</title>
<path fill="none" stroke="midnightblue" d="M452.269,-324.222C459.037,-326.195 465.705,-328.443 472,-331 530.347,-354.703 590.998,-399.909 616.954,-420.416"/>
<polygon fill="midnightblue" stroke="midnightblue" points="452.882,-320.762 442.315,-321.526 451.052,-327.519 452.882,-320.762"/>
</g>
<!-- Node39&#45;&gt;Node23 -->
<g id="edge114" class="edge"><title>Node39&#45;&gt;Node23</title>
<path fill="none" stroke="midnightblue" d="M457.304,-284.734C462.378,-286.567 467.321,-288.645 472,-291 538.784,-324.612 599.462,-393.556 621.358,-420.178"/>
<polygon fill="midnightblue" stroke="midnightblue" points="458.013,-281.283 447.42,-281.501 455.837,-287.936 458.013,-281.283"/>
</g>
<!-- Node40&#45;&gt;Node23 -->
<g id="edge118" class="edge"><title>Node40&#45;&gt;Node23</title>
<path fill="none" stroke="midnightblue" d="M460.425,-245.207C464.433,-246.924 468.317,-248.847 472,-251 547.746,-295.274 605.965,-388.846 624.092,-420.374"/>
<polygon fill="midnightblue" stroke="midnightblue" points="461.471,-241.861 450.881,-241.563 458.974,-248.4 461.471,-241.861"/>
</g>
<!-- Node41&#45;&gt;Node23 -->
<g id="edge122" class="edge"><title>Node41&#45;&gt;Node23</title>
<path fill="none" stroke="midnightblue" d="M462.627,-205.7C465.875,-207.293 469.015,-209.054 472,-211 556.89,-266.343 610.822,-384.408 625.762,-420.379"/>
<polygon fill="midnightblue" stroke="midnightblue" points="463.789,-202.39 453.221,-201.64 461.015,-208.816 463.789,-202.39"/>
</g>
<!-- Node42&#45;&gt;Node23 -->
<g id="edge126" class="edge"><title>Node42&#45;&gt;Node23</title>
<path fill="none" stroke="midnightblue" d="M463.563,-165.807C466.493,-167.375 469.318,-169.101 472,-171 566.406,-237.846 614.918,-380.598 626.969,-420.465"/>
<polygon fill="midnightblue" stroke="midnightblue" points="465.034,-162.631 454.493,-161.561 462.066,-168.971 465.034,-162.631"/>
</g>
</g>
</svg>
        <g id="navigator" transform="translate(0 0)" fill="#404254">
                <rect fill="#f2f5e9" fill-opacity="0.5" stroke="#606060" stroke-width=".5" x="0" y="0" width="60" height="60"/>
                <use id="zoomplus" xlink:href="#zoomPlus" x="17" y="9" onmousedown="handleZoom(evt,'in')"/>
                <use id="zoomminus" xlink:href="#zoomMin" x="42" y="9" onmousedown="handleZoom(evt,'out')"/>
                <use id="reset" xlink:href="#resetDef" x="30" y="36" onmousedown="handleReset()"/>
                <g id="arrowUp" xlink:href="#dirArrow" transform="translate(30 24)" onmousedown="handlePan(0,-1)">
                  <use xlink:href="#rim" fill="#404040">
                        <set attributeName="fill" to="#808080" begin="arrowUp.mouseover" end="arrowUp.mouseout"/>
                  </use>
                  <path fill="none" stroke="white" stroke-width="1.5" d="M0,-3.0v7 M-2.5,-0.5L0,-3.0L2.5,-0.5"/>
                </g>
                <g id="arrowRight" xlink:href="#dirArrow" transform="rotate(90) translate(36 -43)" onmousedown="handlePan(1,0)">
                  <use xlink:href="#rim" fill="#404040">
                        <set attributeName="fill" to="#808080" begin="arrowRight.mouseover" end="arrowRight.mouseout"/>
                  </use>
                  <path fill="none" stroke="white" stroke-width="1.5" d="M0,-3.0v7 M-2.5,-0.5L0,-3.0L2.5,-0.5"/>
                </g>
                <g id="arrowDown" xlink:href="#dirArrow" transform="rotate(180) translate(-30 -48)" onmousedown="handlePan(0,1)">
                  <use xlink:href="#rim" fill="#404040">
                        <set attributeName="fill" to="#808080" begin="arrowDown.mouseover" end="arrowDown.mouseout"/>
                  </use>
                  <path fill="none" stroke="white" stroke-width="1.5" d="M0,-3.0v7 M-2.5,-0.5L0,-3.0L2.5,-0.5"/>
                </g>
                <g id="arrowLeft" xlink:href="#dirArrow" transform="rotate(270) translate(-36 17)" onmousedown="handlePan(-1,0)">
                  <use xlink:href="#rim" fill="#404040">
                        <set attributeName="fill" to="#808080" begin="arrowLeft.mouseover" end="arrowLeft.mouseout"/>
                  </use>
                  <path fill="none" stroke="white" stroke-width="1.5" d="M0,-3.0v7 M-2.5,-0.5L0,-3.0L2.5,-0.5"/>
                </g>
        </g>
</svg>
