<?xml version="1.0" encoding="UTF-8" standalone="no"?>
<!DOCTYPE svg PUBLIC "-//W3C//DTD SVG 1.1//EN"
 "http://www.w3.org/Graphics/SVG/1.1/DTD/svg11.dtd">
<!-- Generated by graphviz version 2.26.3 (20100126.1600)
 -->
<!-- Title: RoR::GUI::RigEditorDeleteMenu Pages: 1 -->
<svg width="266pt" height="160pt"
 viewBox="0.00 0.00 266.00 160.00" xmlns="http://www.w3.org/2000/svg" xmlns:xlink="http://www.w3.org/1999/xlink">
<g id="graph1" class="graph" transform="scale(1 1) rotate(0) translate(4 156)">
<title>RoR::GUI::RigEditorDeleteMenu</title>
<polygon fill="white" stroke="white" points="-4,5 -4,-156 263,-156 263,5 -4,5"/>
<!-- Node1 -->
<g id="node1" class="node"><title>Node1</title>
<polygon fill="#bfbfbf" stroke="black" points="57,-0.5 57,-21.5 217,-21.5 217,-0.5 57,-0.5"/>
<text text-anchor="middle" x="137" y="-8.5" font-family="Helvetica,sans-Serif" font-size="10.00">RoR::GUI::RigEditorDeleteMenu</text>
</g>
<!-- Node2 -->
<g id="node2" class="node"><title>Node2</title>
<a xlink:href="class_ro_r_1_1_g_u_i_1_1_rig_editor_delete_menu_layout.html" target="_top" xlink:title="RoR::GUI::RigEditorDelete\lMenuLayout">
<polygon fill="white" stroke="black" points="0,-59 0,-93 136,-93 136,-59 0,-59"/>
<text text-anchor="start" x="8" y="-80" font-family="Helvetica,sans-Serif" font-size="10.00">RoR::GUI::RigEditorDelete</text>
<text text-anchor="middle" x="68" y="-67" font-family="Helvetica,sans-Serif" font-size="10.00">MenuLayout</text>
</a>
</g>
<!-- Node2&#45;&gt;Node1 -->
<g id="edge2" class="edge"><title>Node2&#45;&gt;Node1</title>
<path fill="none" stroke="midnightblue" d="M93.4672,-52.0092C104.458,-41.656 116.763,-30.0634 125.48,-21.8521"/>
<polygon fill="midnightblue" stroke="midnightblue" points="91.0079,-49.5174 86.1289,-58.922 95.8078,-54.6127 91.0079,-49.5174"/>
</g>
<!-- Node3 -->
<g id="node4" class="node"><title>Node3</title>
<a xlink:href="classwraps_1_1_base_layout.html" target="_top" xlink:title="wraps::BaseLayout">
<polygon fill="white" stroke="black" points="17.5,-130.5 17.5,-151.5 118.5,-151.5 118.5,-130.5 17.5,-130.5"/>
<text text-anchor="middle" x="68" y="-138.5" font-family="Helvetica,sans-Serif" font-size="10.00">wraps::BaseLayout</text>
</a>
</g>
<!-- Node3&#45;&gt;Node2 -->
<g id="edge4" class="edge"><title>Node3&#45;&gt;Node2</title>
<path fill="none" stroke="midnightblue" d="M68,-120.131C68,-111.405 68,-101.391 68,-93.1099"/>
<polygon fill="midnightblue" stroke="midnightblue" points="64.5001,-120.267 68,-130.267 71.5001,-120.267 64.5001,-120.267"/>
</g>
<!-- Node4 -->
<g id="node6" class="node"><title>Node4</title>
<a xlink:href="class_ro_r_1_1_gui_panel_base.html" target="_top" xlink:title="RoR::GuiPanelBase">
<polygon fill="white" stroke="black" points="153.5,-65.5 153.5,-86.5 258.5,-86.5 258.5,-65.5 153.5,-65.5"/>
<text text-anchor="middle" x="206" y="-73.5" font-family="Helvetica,sans-Serif" font-size="10.00">RoR::GuiPanelBase</text>
</a>
</g>
<!-- Node4&#45;&gt;Node1 -->
<g id="edge6" class="edge"><title>Node4&#45;&gt;Node1</title>
<path fill="none" stroke="midnightblue" d="M186.998,-58.0992C174.532,-46.3566 158.66,-31.4043 148.182,-21.5337"/>
<polygon fill="midnightblue" stroke="midnightblue" points="184.927,-60.9572 194.606,-65.2666 189.727,-55.862 184.927,-60.9572"/>
</g>
</g>
</svg>
