<?xml version="1.0" encoding="UTF-8" standalone="no"?>
<!DOCTYPE svg PUBLIC "-//W3C//DTD SVG 1.1//EN"
 "http://www.w3.org/Graphics/SVG/1.1/DTD/svg11.dtd">
<!-- Generated by graphviz version 2.26.3 (20100126.1600)
 -->
<!-- Title: RoR::GUI::RigEditorNodePanel::HideAndReset Pages: 1 -->
<svg width="350pt" height="82pt"
 viewBox="0.00 0.00 350.00 82.00" xmlns="http://www.w3.org/2000/svg" xmlns:xlink="http://www.w3.org/1999/xlink">
<g id="graph1" class="graph" transform="scale(1 1) rotate(0) translate(4 78)">
<title>RoR::GUI::RigEditorNodePanel::HideAndReset</title>
<polygon fill="white" stroke="white" points="-4,5 -4,-78 347,-78 347,5 -4,5"/>
<!-- Node1 -->
<g id="node1" class="node"><title>Node1</title>
<polygon fill="#bfbfbf" stroke="black" points="0.5,-23 0.5,-57 155.5,-57 155.5,-23 0.5,-23"/>
<text text-anchor="start" x="8.5" y="-44" font-family="Helvetica,sans-Serif" font-size="10.00">RoR::GUI::RigEditorNodePanel</text>
<text text-anchor="middle" x="78" y="-31" font-family="Helvetica,sans-Serif" font-size="10.00">::HideAndReset</text>
</g>
<!-- Node2 -->
<g id="node3" class="node"><title>Node2</title>
<a xlink:href="class_ro_r_1_1_gui_panel_base.html#a892310a2b92bdafbb83287b0c906b3a8" target="_top" xlink:title="RoR::GuiPanelBase::Hide">
<polygon fill="white" stroke="black" points="201.5,-52.5 201.5,-73.5 332.5,-73.5 332.5,-52.5 201.5,-52.5"/>
<text text-anchor="middle" x="267" y="-60.5" font-family="Helvetica,sans-Serif" font-size="10.00">RoR::GuiPanelBase::Hide</text>
</a>
</g>
<!-- Node1&#45;&gt;Node2 -->
<g id="edge2" class="edge"><title>Node1&#45;&gt;Node2</title>
<path fill="none" stroke="midnightblue" d="M155.692,-49.4545C167.425,-50.8824 179.515,-52.3537 191.208,-53.7766"/>
<polygon fill="midnightblue" stroke="midnightblue" points="191.012,-57.2785 201.362,-55.0123 191.858,-50.3298 191.012,-57.2785"/>
</g>
<!-- Node3 -->
<g id="node5" class="node"><title>Node3</title>
<a xlink:href="struct_ro_r_1_1_rig_editor_1_1_rig_aggregate_nodes_data.html#af4af63aec10847fc053339770ae5e437" target="_top" xlink:title="RoR::RigEditor::RigAggregate\lNodesData::Reset">
<polygon fill="white" stroke="black" points="192.5,-0 192.5,-34 341.5,-34 341.5,-0 192.5,-0"/>
<text text-anchor="start" x="200.5" y="-21" font-family="Helvetica,sans-Serif" font-size="10.00">RoR::RigEditor::RigAggregate</text>
<text text-anchor="middle" x="267" y="-8" font-family="Helvetica,sans-Serif" font-size="10.00">NodesData::Reset</text>
</a>
</g>
<!-- Node1&#45;&gt;Node3 -->
<g id="edge4" class="edge"><title>Node1&#45;&gt;Node3</title>
<path fill="none" stroke="midnightblue" d="M155.692,-30.5455C164.495,-29.4742 173.499,-28.3785 182.385,-27.2971"/>
<polygon fill="midnightblue" stroke="midnightblue" points="182.846,-30.7668 192.35,-26.0843 182.001,-23.8181 182.846,-30.7668"/>
</g>
</g>
</svg>
