<?xml version="1.0" encoding="UTF-8" standalone="no"?>
<!DOCTYPE svg PUBLIC "-//W3C//DTD SVG 1.1//EN"
 "http://www.w3.org/Graphics/SVG/1.1/DTD/svg11.dtd">
<!-- Generated by graphviz version 2.26.3 (20100126.1600)
 -->
<!-- Title: Hydrax::GodRaysManager::areObjectsIntersectionsEnabled Pages: 1 -->
<svg width="504pt" height="42pt"
 viewBox="0.00 0.00 504.00 42.00" xmlns="http://www.w3.org/2000/svg" xmlns:xlink="http://www.w3.org/1999/xlink">
<g id="graph1" class="graph" transform="scale(1 1) rotate(0) translate(4 38)">
<title>Hydrax::GodRaysManager::areObjectsIntersectionsEnabled</title>
<polygon fill="white" stroke="white" points="-4,5 -4,-38 501,-38 501,5 -4,5"/>
<!-- Node1 -->
<g id="node1" class="node"><title>Node1</title>
<polygon fill="#bfbfbf" stroke="black" points="0.5,-0 0.5,-34 161.5,-34 161.5,-0 0.5,-0"/>
<text text-anchor="start" x="8.5" y="-21" font-family="Helvetica,sans-Serif" font-size="10.00">Hydrax::GodRaysManager</text>
<text text-anchor="middle" x="81" y="-8" font-family="Helvetica,sans-Serif" font-size="10.00">::areObjectsIntersectionsEnabled</text>
</g>
<!-- Node2 -->
<g id="node3" class="node"><title>Node2</title>
<a xlink:href="class_hydrax_1_1_cfg_file_manager.html#a4397ab1deeabca41d9743e52b295e51d" target="_top" xlink:title="Hydrax::CfgFileManager\l::_getComponentsCfgString">
<polygon fill="white" stroke="black" points="198,-0 198,-34 336,-34 336,-0 198,-0"/>
<text text-anchor="start" x="206" y="-21" font-family="Helvetica,sans-Serif" font-size="10.00">Hydrax::CfgFileManager</text>
<text text-anchor="middle" x="267" y="-8" font-family="Helvetica,sans-Serif" font-size="10.00">::_getComponentsCfgString</text>
</a>
</g>
<!-- Node1&#45;&gt;Node2 -->
<g id="edge2" class="edge"><title>Node1&#45;&gt;Node2</title>
<path fill="none" stroke="midnightblue" d="M171.739,-17C180.487,-17 189.262,-17 197.754,-17"/>
<polygon fill="midnightblue" stroke="midnightblue" points="171.501,-13.5001 161.501,-17 171.5,-20.5001 171.501,-13.5001"/>
</g>
<!-- Node3 -->
<g id="node5" class="node"><title>Node3</title>
<a xlink:href="class_hydrax_1_1_cfg_file_manager.html#a5bdea43e50f5a1662e2dc80e68e0d8a6" target="_top" xlink:title="Hydrax::CfgFileManager\l::save">
<polygon fill="white" stroke="black" points="372.5,-0 372.5,-34 495.5,-34 495.5,-0 372.5,-0"/>
<text text-anchor="start" x="380.5" y="-21" font-family="Helvetica,sans-Serif" font-size="10.00">Hydrax::CfgFileManager</text>
<text text-anchor="middle" x="434" y="-8" font-family="Helvetica,sans-Serif" font-size="10.00">::save</text>
</a>
</g>
<!-- Node2&#45;&gt;Node3 -->
<g id="edge4" class="edge"><title>Node2&#45;&gt;Node3</title>
<path fill="none" stroke="midnightblue" d="M346.5,-17C355.169,-17 363.896,-17 372.306,-17"/>
<polygon fill="midnightblue" stroke="midnightblue" points="346.372,-13.5001 336.372,-17 346.372,-20.5001 346.372,-13.5001"/>
</g>
</g>
</svg>
