<?xml version="1.0" encoding="UTF-8" standalone="no"?>
<!DOCTYPE svg PUBLIC "-//W3C//DTD SVG 1.1//EN"
 "http://www.w3.org/Graphics/SVG/1.1/DTD/svg11.dtd">
<!-- Generated by graphviz version 2.26.3 (20100126.1600)
 -->
<!-- Title: Beam::activate Pages: 1 -->
<svg width="1560pt" height="304pt"
 viewBox="0.00 0.00 1560.00 304.00" xmlns="http://www.w3.org/2000/svg" xmlns:xlink="http://www.w3.org/1999/xlink">
<g id="graph1" class="graph" transform="scale(1 1) rotate(0) translate(4 300)">
<title>Beam::activate</title>
<polygon fill="white" stroke="white" points="-4,5 -4,-300 1557,-300 1557,5 -4,5"/>
<!-- Node1 -->
<g id="node1" class="node"><title>Node1</title>
<polygon fill="#bfbfbf" stroke="black" points="0.5,-230.5 0.5,-251.5 83.5,-251.5 83.5,-230.5 0.5,-230.5"/>
<text text-anchor="middle" x="42" y="-238.5" font-family="Helvetica,sans-Serif" font-size="10.00">Beam::activate</text>
</g>
<!-- Node2 -->
<g id="node3" class="node"><title>Node2</title>
<a xlink:href="class_ro_r_frame_listener.html#abbab3f9d2773790f0d8567ee4434a739" target="_top" xlink:title="RoRFrameListener::InitTrucks">
<polygon fill="white" stroke="black" points="484.5,-274.5 484.5,-295.5 633.5,-295.5 633.5,-274.5 484.5,-274.5"/>
<text text-anchor="middle" x="559" y="-282.5" font-family="Helvetica,sans-Serif" font-size="10.00">RoRFrameListener::InitTrucks</text>
</a>
</g>
<!-- Node1&#45;&gt;Node2 -->
<g id="edge2" class="edge"><title>Node1&#45;&gt;Node2</title>
<path fill="none" stroke="midnightblue" d="M94.0646,-245.431C186.176,-253.27 378.138,-269.607 484.33,-278.645"/>
<polygon fill="midnightblue" stroke="midnightblue" points="94.1312,-241.924 83.8703,-244.563 93.5375,-248.899 94.1312,-241.924"/>
</g>
<!-- Node11 -->
<g id="node21" class="node"><title>Node11</title>
<a xlink:href="class_ro_r_1_1_main_thread.html#af7d1f53cf02660323c9dfe6cc5a1e7e1" target="_top" xlink:title="RoR::MainThread::Changed\lCurrentVehicle">
<polygon fill="white" stroke="black" points="120.5,-191 120.5,-225 259.5,-225 259.5,-191 120.5,-191"/>
<text text-anchor="start" x="128.5" y="-212" font-family="Helvetica,sans-Serif" font-size="10.00">RoR::MainThread::Changed</text>
<text text-anchor="middle" x="190" y="-199" font-family="Helvetica,sans-Serif" font-size="10.00">CurrentVehicle</text>
</a>
</g>
<!-- Node1&#45;&gt;Node11 -->
<g id="edge20" class="edge"><title>Node1&#45;&gt;Node11</title>
<path fill="none" stroke="midnightblue" d="M93.5603,-229.503C102.233,-227.57 111.36,-225.535 120.4,-223.519"/>
<polygon fill="midnightblue" stroke="midnightblue" points="92.6187,-226.127 83.6201,-231.72 94.1422,-232.96 92.6187,-226.127"/>
</g>
<!-- Node3 -->
<g id="node5" class="node"><title>Node3</title>
<a xlink:href="class_ro_r_frame_listener.html#a6b384193b130f7c1fff95d2e740a370e" target="_top" xlink:title="RoRFrameListener::update\lEvents">
<polygon fill="white" stroke="black" points="681,-223 681,-257 815,-257 815,-223 681,-223"/>
<text text-anchor="start" x="689" y="-244" font-family="Helvetica,sans-Serif" font-size="10.00">RoRFrameListener::update</text>
<text text-anchor="middle" x="748" y="-231" font-family="Helvetica,sans-Serif" font-size="10.00">Events</text>
</a>
</g>
<!-- Node2&#45;&gt;Node3 -->
<g id="edge4" class="edge"><title>Node2&#45;&gt;Node3</title>
<path fill="none" stroke="midnightblue" d="M613.047,-272.132C634.105,-267.118 658.466,-261.318 680.647,-256.036"/>
<polygon fill="midnightblue" stroke="midnightblue" points="612.229,-268.728 603.312,-274.449 613.851,-275.538 612.229,-268.728"/>
</g>
<!-- Node5 -->
<g id="node9" class="node"><title>Node5</title>
<a xlink:href="class_ro_r_1_1_main_thread.html#aa3feeebda7f3f4c31a6cb96ea60c09e0" target="_top" xlink:title="RoR::MainThread::SetupGameplayLoop">
<polygon fill="white" stroke="black" points="862.5,-271.5 862.5,-292.5 1053.5,-292.5 1053.5,-271.5 862.5,-271.5"/>
<text text-anchor="middle" x="958" y="-279.5" font-family="Helvetica,sans-Serif" font-size="10.00">RoR::MainThread::SetupGameplayLoop</text>
</a>
</g>
<!-- Node2&#45;&gt;Node5 -->
<g id="edge8" class="edge"><title>Node2&#45;&gt;Node5</title>
<path fill="none" stroke="midnightblue" d="M643.645,-284.364C707.677,-283.882 795.648,-283.221 862.248,-282.72"/>
<polygon fill="midnightblue" stroke="midnightblue" points="643.554,-280.864 633.581,-284.439 643.607,-287.864 643.554,-280.864"/>
</g>
<!-- Node4 -->
<g id="node7" class="node"><title>Node4</title>
<a xlink:href="class_ro_r_frame_listener.html#acd8647e188fb8e838689492965b86faf" target="_top" xlink:title="RoRFrameListener::frameStarted">
<polygon fill="white" stroke="black" points="877.5,-229.5 877.5,-250.5 1038.5,-250.5 1038.5,-229.5 877.5,-229.5"/>
<text text-anchor="middle" x="958" y="-237.5" font-family="Helvetica,sans-Serif" font-size="10.00">RoRFrameListener::frameStarted</text>
</a>
</g>
<!-- Node3&#45;&gt;Node4 -->
<g id="edge6" class="edge"><title>Node3&#45;&gt;Node4</title>
<path fill="none" stroke="midnightblue" d="M825.402,-240C842.314,-240 860.254,-240 877.291,-240"/>
<polygon fill="midnightblue" stroke="midnightblue" points="825.023,-236.5 815.023,-240 825.023,-243.5 825.023,-236.5"/>
</g>
<!-- Node6 -->
<g id="node11" class="node"><title>Node6</title>
<a xlink:href="class_ro_r_1_1_main_thread.html#a7e4d0bd23a40e509892883af75ea0dbf" target="_top" xlink:title="RoR::MainThread::Go">
<polygon fill="white" stroke="black" points="1090.5,-213.5 1090.5,-234.5 1203.5,-234.5 1203.5,-213.5 1090.5,-213.5"/>
<text text-anchor="middle" x="1147" y="-221.5" font-family="Helvetica,sans-Serif" font-size="10.00">RoR::MainThread::Go</text>
</a>
</g>
<!-- Node5&#45;&gt;Node6 -->
<g id="edge10" class="edge"><title>Node5&#45;&gt;Node6</title>
<path fill="none" stroke="midnightblue" d="M1020.05,-269.16C1031.42,-266.417 1043.13,-263.332 1054,-260 1077.67,-252.747 1103.92,-242.364 1122.47,-234.611"/>
<polygon fill="midnightblue" stroke="midnightblue" points="1019.11,-265.785 1010.18,-271.479 1020.71,-272.6 1019.11,-265.785"/>
</g>
<!-- Node7 -->
<g id="node13" class="node"><title>Node7</title>
<a xlink:href="main_2main__sim_2main_8cpp.html#a0ddf1224851353fc92bfbff6f499fa97" target="_top" xlink:title="main">
<polygon fill="white" stroke="black" points="1290,-236.5 1290,-257.5 1328,-257.5 1328,-236.5 1290,-236.5"/>
<text text-anchor="middle" x="1309" y="-244.5" font-family="Helvetica,sans-Serif" font-size="10.00">main</text>
</a>
</g>
<!-- Node6&#45;&gt;Node7 -->
<g id="edge12" class="edge"><title>Node6&#45;&gt;Node7</title>
<path fill="none" stroke="midnightblue" d="M1213.69,-233.469C1241.27,-237.384 1271.14,-241.624 1289.95,-244.295"/>
<polygon fill="midnightblue" stroke="midnightblue" points="1214.05,-229.985 1203.66,-232.044 1213.07,-236.915 1214.05,-229.985"/>
</g>
<!-- Node9 -->
<g id="node17" class="node"><title>Node9</title>
<a xlink:href="class_ro_r_1_1_main_thread.html#a7a2db954fd2f35d63982d8603d2b9614" target="_top" xlink:title="RoR::MainThread::Request\lRestart">
<polygon fill="white" stroke="black" points="1240.5,-184 1240.5,-218 1377.5,-218 1377.5,-184 1240.5,-184"/>
<text text-anchor="start" x="1248.5" y="-205" font-family="Helvetica,sans-Serif" font-size="10.00">RoR::MainThread::Request</text>
<text text-anchor="middle" x="1309" y="-192" font-family="Helvetica,sans-Serif" font-size="10.00">Restart</text>
</a>
</g>
<!-- Node6&#45;&gt;Node9 -->
<g id="edge16" class="edge"><title>Node6&#45;&gt;Node9</title>
<path fill="none" stroke="midnightblue" d="M1213.82,-214.513C1222.59,-213.267 1231.59,-211.99 1240.39,-210.741"/>
<polygon fill="midnightblue" stroke="midnightblue" points="1213.07,-211.085 1203.66,-215.956 1214.05,-218.015 1213.07,-211.085"/>
</g>
<!-- Node8 -->
<g id="node15" class="node"><title>Node8</title>
<a xlink:href="main_2main__sim_2main_8cpp.html#a2922bc5d5c2d77a3020cfbf9df12aab0" target="_top" xlink:title="WinMain">
<polygon fill="white" stroke="black" points="1455.5,-236.5 1455.5,-257.5 1510.5,-257.5 1510.5,-236.5 1455.5,-236.5"/>
<text text-anchor="middle" x="1483" y="-244.5" font-family="Helvetica,sans-Serif" font-size="10.00">WinMain</text>
</a>
</g>
<!-- Node7&#45;&gt;Node8 -->
<g id="edge14" class="edge"><title>Node7&#45;&gt;Node8</title>
<path fill="none" stroke="midnightblue" d="M1338.56,-247C1371.23,-247 1423.44,-247 1455.33,-247"/>
<polygon fill="midnightblue" stroke="midnightblue" points="1338.29,-243.5 1328.29,-247 1338.29,-250.5 1338.29,-243.5"/>
</g>
<!-- Node10 -->
<g id="node19" class="node"><title>Node10</title>
<a xlink:href="class_ro_r_frame_listener.html#af2779b96aa0f91920bd100bc30261402" target="_top" xlink:title="RoRFrameListener::Restart">
<polygon fill="white" stroke="black" points="1414.5,-190.5 1414.5,-211.5 1551.5,-211.5 1551.5,-190.5 1414.5,-190.5"/>
<text text-anchor="middle" x="1483" y="-198.5" font-family="Helvetica,sans-Serif" font-size="10.00">RoRFrameListener::Restart</text>
</a>
</g>
<!-- Node9&#45;&gt;Node10 -->
<g id="edge18" class="edge"><title>Node9&#45;&gt;Node10</title>
<path fill="none" stroke="midnightblue" d="M1388.04,-201C1396.86,-201 1405.78,-201 1414.45,-201"/>
<polygon fill="midnightblue" stroke="midnightblue" points="1387.77,-197.5 1377.77,-201 1387.77,-204.5 1387.77,-197.5"/>
</g>
<!-- Node12 -->
<g id="node23" class="node"><title>Node12</title>
<a xlink:href="class_beam_factory.html#ac70a8aa131a6709ebf05dc3c0f6dab10" target="_top" xlink:title="BeamFactory::setCurrentTruck">
<polygon fill="white" stroke="black" points="296,-155.5 296,-176.5 448,-176.5 448,-155.5 296,-155.5"/>
<text text-anchor="middle" x="372" y="-163.5" font-family="Helvetica,sans-Serif" font-size="10.00">BeamFactory::setCurrentTruck</text>
</a>
</g>
<!-- Node11&#45;&gt;Node12 -->
<g id="edge22" class="edge"><title>Node11&#45;&gt;Node12</title>
<path fill="none" stroke="midnightblue" d="M269.386,-189.68C288.878,-185.182 309.093,-180.517 326.374,-176.529"/>
<polygon fill="midnightblue" stroke="midnightblue" points="268.542,-186.283 259.585,-191.942 270.116,-193.104 268.542,-186.283"/>
</g>
<!-- Node12&#45;&gt;Node2 -->
<g id="edge26" class="edge"><title>Node12&#45;&gt;Node2</title>
<path fill="none" stroke="midnightblue" d="M388.908,-183.799C409.583,-204.652 446.478,-239.012 484,-260 494.541,-265.896 506.698,-270.693 518.113,-274.449"/>
<polygon fill="midnightblue" stroke="midnightblue" points="391.299,-181.239 381.811,-176.525 386.289,-186.127 391.299,-181.239"/>
</g>
<!-- Node12&#45;&gt;Node3 -->
<g id="edge24" class="edge"><title>Node12&#45;&gt;Node3</title>
<path fill="none" stroke="midnightblue" d="M394.801,-182.445C416.542,-197.114 450.801,-217.67 484,-227 549.051,-245.281 626.613,-246.833 680.77,-244.852"/>
<polygon fill="midnightblue" stroke="midnightblue" points="396.507,-179.37 386.289,-176.568 392.53,-185.13 396.507,-179.37"/>
</g>
<!-- Node13 -->
<g id="node27" class="node"><title>Node13</title>
<a xlink:href="class_ro_r_frame_listener.html#accf1a2895ee6b67789cfaa570bfa01cb" target="_top" xlink:title="RoRFrameListener::reload\lCurrentTruck">
<polygon fill="white" stroke="black" points="493.5,-184 493.5,-218 624.5,-218 624.5,-184 493.5,-184"/>
<text text-anchor="start" x="501.5" y="-205" font-family="Helvetica,sans-Serif" font-size="10.00">RoRFrameListener::reload</text>
<text text-anchor="middle" x="559" y="-192" font-family="Helvetica,sans-Serif" font-size="10.00">CurrentTruck</text>
</a>
</g>
<!-- Node12&#45;&gt;Node13 -->
<g id="edge28" class="edge"><title>Node12&#45;&gt;Node13</title>
<path fill="none" stroke="midnightblue" d="M438.18,-178.387C456.106,-181.742 475.5,-185.372 493.393,-188.721"/>
<polygon fill="midnightblue" stroke="midnightblue" points="438.579,-174.901 428.106,-176.501 437.292,-181.781 438.579,-174.901"/>
</g>
<!-- Node14 -->
<g id="node30" class="node"><title>Node14</title>
<a xlink:href="class_preview_renderer.html#a5ea6b4611b45965e072266211dc60ba8" target="_top" xlink:title="PreviewRenderer::render">
<polygon fill="white" stroke="black" points="496.5,-144.5 496.5,-165.5 621.5,-165.5 621.5,-144.5 496.5,-144.5"/>
<text text-anchor="middle" x="559" y="-152.5" font-family="Helvetica,sans-Serif" font-size="10.00">PreviewRenderer::render</text>
</a>
</g>
<!-- Node12&#45;&gt;Node14 -->
<g id="edge32" class="edge"><title>Node12&#45;&gt;Node14</title>
<path fill="none" stroke="midnightblue" d="M458.311,-160.923C471.164,-160.167 484.2,-159.4 496.439,-158.68"/>
<polygon fill="midnightblue" stroke="midnightblue" points="457.837,-157.445 448.06,-161.526 458.248,-164.433 457.837,-157.445"/>
</g>
<!-- Node15 -->
<g id="node32" class="node"><title>Node15</title>
<a xlink:href="class_beam_factory.html#a49a4ee797005fff135d8f88a085986a0" target="_top" xlink:title="BeamFactory::removeTruck">
<polygon fill="white" stroke="black" points="490,-104.5 490,-125.5 628,-125.5 628,-104.5 490,-104.5"/>
<text text-anchor="middle" x="559" y="-112.5" font-family="Helvetica,sans-Serif" font-size="10.00">BeamFactory::removeTruck</text>
</a>
</g>
<!-- Node12&#45;&gt;Node15 -->
<g id="edge34" class="edge"><title>Node12&#45;&gt;Node15</title>
<path fill="none" stroke="midnightblue" d="M419.58,-152.724C439.477,-147.2 462.847,-140.748 484,-135 495.444,-131.89 507.882,-128.555 519.279,-125.517"/>
<polygon fill="midnightblue" stroke="midnightblue" points="418.518,-149.386 409.821,-155.436 420.393,-156.131 418.518,-149.386"/>
</g>
<!-- Node16 -->
<g id="node34" class="node"><title>Node16</title>
<a xlink:href="class_beam_factory.html#a59b66e06ec1f1d1f9adb0d299da15265" target="_top" xlink:title="BeamFactory::p_removeAll\lTrucks">
<polygon fill="white" stroke="black" points="491.5,-52 491.5,-86 626.5,-86 626.5,-52 491.5,-52"/>
<text text-anchor="start" x="499.5" y="-73" font-family="Helvetica,sans-Serif" font-size="10.00">BeamFactory::p_removeAll</text>
<text text-anchor="middle" x="559" y="-60" font-family="Helvetica,sans-Serif" font-size="10.00">Trucks</text>
</a>
</g>
<!-- Node12&#45;&gt;Node16 -->
<g id="edge36" class="edge"><title>Node12&#45;&gt;Node16</title>
<path fill="none" stroke="midnightblue" d="M394.551,-149.498C416.551,-133.943 451.376,-110.733 484,-95 490.579,-91.8273 497.648,-88.8539 504.723,-86.1333"/>
<polygon fill="midnightblue" stroke="midnightblue" points="392.325,-146.788 386.228,-155.452 396.398,-152.481 392.325,-146.788"/>
</g>
<!-- Node19 -->
<g id="node41" class="node"><title>Node19</title>
<a xlink:href="class_beam_factory.html#a297cce523629edad68ff2c05bcaa44ac" target="_top" xlink:title="BeamFactory::enterRescue\lTruck">
<polygon fill="white" stroke="black" points="490.5,-0 490.5,-34 627.5,-34 627.5,-0 490.5,-0"/>
<text text-anchor="start" x="498.5" y="-21" font-family="Helvetica,sans-Serif" font-size="10.00">BeamFactory::enterRescue</text>
<text text-anchor="middle" x="559" y="-8" font-family="Helvetica,sans-Serif" font-size="10.00">Truck</text>
</a>
</g>
<!-- Node12&#45;&gt;Node19 -->
<g id="edge44" class="edge"><title>Node12&#45;&gt;Node19</title>
<path fill="none" stroke="midnightblue" d="M384.618,-146.992C403.319,-120.203 440.864,-71.4427 484,-43 489.062,-39.6621 494.6,-36.7035 500.3,-34.0925"/>
<polygon fill="midnightblue" stroke="midnightblue" points="381.568,-145.252 378.811,-155.482 387.346,-149.204 381.568,-145.252"/>
</g>
<!-- Node13&#45;&gt;Node3 -->
<g id="edge30" class="edge"><title>Node13&#45;&gt;Node3</title>
<path fill="none" stroke="midnightblue" d="M634.537,-216.587C649.879,-219.753 665.916,-223.062 680.941,-226.162"/>
<polygon fill="midnightblue" stroke="midnightblue" points="635.074,-213.124 624.573,-214.531 633.659,-219.98 635.074,-213.124"/>
</g>
<!-- Node17 -->
<g id="node36" class="node"><title>Node17</title>
<a xlink:href="class_beam_factory.html#a089236a1b1ee4dc3b6efa157a784d69c" target="_top" xlink:title="BeamFactory::removeAllTrucks">
<polygon fill="white" stroke="black" points="670.5,-121.5 670.5,-142.5 825.5,-142.5 825.5,-121.5 670.5,-121.5"/>
<text text-anchor="middle" x="748" y="-129.5" font-family="Helvetica,sans-Serif" font-size="10.00">BeamFactory::removeAllTrucks</text>
</a>
</g>
<!-- Node16&#45;&gt;Node17 -->
<g id="edge38" class="edge"><title>Node16&#45;&gt;Node17</title>
<path fill="none" stroke="midnightblue" d="M619.908,-89.3028C652.044,-100.015 690.139,-112.713 716.384,-121.461"/>
<polygon fill="midnightblue" stroke="midnightblue" points="620.74,-85.8907 610.146,-86.0487 618.526,-92.5314 620.74,-85.8907"/>
</g>
<!-- Node18 -->
<g id="node38" class="node"><title>Node18</title>
<a xlink:href="class_ro_r_1_1_main_thread.html#a19637f726d0913e26e0d0548448d8c91" target="_top" xlink:title="RoR::MainThread::UnloadTerrain">
<polygon fill="white" stroke="black" points="877.5,-155.5 877.5,-176.5 1038.5,-176.5 1038.5,-155.5 877.5,-155.5"/>
<text text-anchor="middle" x="958" y="-163.5" font-family="Helvetica,sans-Serif" font-size="10.00">RoR::MainThread::UnloadTerrain</text>
</a>
</g>
<!-- Node17&#45;&gt;Node18 -->
<g id="edge40" class="edge"><title>Node17&#45;&gt;Node18</title>
<path fill="none" stroke="midnightblue" d="M823.004,-144.143C845.863,-147.845 870.794,-151.881 892.938,-155.466"/>
<polygon fill="midnightblue" stroke="midnightblue" points="823.438,-140.668 813.007,-142.525 822.319,-147.578 823.438,-140.668"/>
</g>
<!-- Node18&#45;&gt;Node6 -->
<g id="edge42" class="edge"><title>Node18&#45;&gt;Node6</title>
<path fill="none" stroke="midnightblue" d="M1001.84,-179.454C1035.6,-189.814 1081.61,-203.933 1112.71,-213.477"/>
<polygon fill="midnightblue" stroke="midnightblue" points="1002.81,-176.091 992.226,-176.503 1000.76,-182.783 1002.81,-176.091"/>
</g>
</g>
</svg>
