<?xml version="1.0" encoding="UTF-8" standalone="no"?>
<!DOCTYPE svg PUBLIC "-//W3C//DTD SVG 1.1//EN"
 "http://www.w3.org/Graphics/SVG/1.1/DTD/svg11.dtd">
<!-- Generated by graphviz version 2.26.3 (20100126.1600)
 -->
<!-- Title: Ogre::TerrainPSSMMaterialGenerator::SM2Profile::getMaxLayers Pages: 1 -->
<svg width="380pt" height="344pt"
 viewBox="0.00 0.00 380.00 344.00" xmlns="http://www.w3.org/2000/svg" xmlns:xlink="http://www.w3.org/1999/xlink">
<g id="graph1" class="graph" transform="scale(1 1) rotate(0) translate(4 340)">
<title>Ogre::TerrainPSSMMaterialGenerator::SM2Profile::getMaxLayers</title>
<polygon fill="white" stroke="white" points="-4,5 -4,-340 377,-340 377,5 -4,5"/>
<!-- Node1 -->
<g id="node1" class="node"><title>Node1</title>
<polygon fill="#bfbfbf" stroke="black" points="0.5,-132.5 0.5,-179.5 137.5,-179.5 137.5,-132.5 0.5,-132.5"/>
<text text-anchor="start" x="8.5" y="-166.5" font-family="Helvetica,sans-Serif" font-size="10.00">Ogre::TerrainPSSMMaterial</text>
<text text-anchor="start" x="8.5" y="-153.5" font-family="Helvetica,sans-Serif" font-size="10.00">Generator::SM2Profile::</text>
<text text-anchor="middle" x="69" y="-140.5" font-family="Helvetica,sans-Serif" font-size="10.00">getMaxLayers</text>
</g>
<!-- Node2 -->
<g id="node3" class="node"><title>Node2</title>
<a xlink:href="class_ogre_1_1_terrain_p_s_s_m_material_generator_1_1_s_m2_profile_1_1_shader_helper.html#a8d75e688e198777489e38fe9a8642853" target="_top" xlink:title="Ogre::TerrainPSSMMaterial\lGenerator::SM2Profile::\lShaderHelper::generateVertexProgram\lSource">
<polygon fill="white" stroke="black" points="180.5,-276 180.5,-336 365.5,-336 365.5,-276 180.5,-276"/>
<text text-anchor="start" x="188.5" y="-323" font-family="Helvetica,sans-Serif" font-size="10.00">Ogre::TerrainPSSMMaterial</text>
<text text-anchor="start" x="188.5" y="-310" font-family="Helvetica,sans-Serif" font-size="10.00">Generator::SM2Profile::</text>
<text text-anchor="start" x="188.5" y="-297" font-family="Helvetica,sans-Serif" font-size="10.00">ShaderHelper::generateVertexProgram</text>
<text text-anchor="middle" x="273" y="-284" font-family="Helvetica,sans-Serif" font-size="10.00">Source</text>
</a>
</g>
<!-- Node1&#45;&gt;Node2 -->
<g id="edge2" class="edge"><title>Node1&#45;&gt;Node2</title>
<path fill="none" stroke="midnightblue" d="M92.5456,-187.637C112.09,-212.061 141.812,-245.251 174,-267 178.668,-270.154 183.63,-273.111 188.748,-275.872"/>
<polygon fill="midnightblue" stroke="midnightblue" points="95.2518,-185.416 86.3189,-179.719 89.7494,-189.743 95.2518,-185.416"/>
</g>
<!-- Node3 -->
<g id="node5" class="node"><title>Node3</title>
<a xlink:href="class_ogre_1_1_terrain_p_s_s_m_material_generator_1_1_s_m2_profile_1_1_shader_helper.html#a358ed3ca82844d3bf0c0c901e4904c95" target="_top" xlink:title="Ogre::TerrainPSSMMaterial\lGenerator::SM2Profile::\lShaderHelper::generateFragmentProgram\lSource">
<polygon fill="white" stroke="black" points="174.5,-198 174.5,-258 371.5,-258 371.5,-198 174.5,-198"/>
<text text-anchor="start" x="182.5" y="-245" font-family="Helvetica,sans-Serif" font-size="10.00">Ogre::TerrainPSSMMaterial</text>
<text text-anchor="start" x="182.5" y="-232" font-family="Helvetica,sans-Serif" font-size="10.00">Generator::SM2Profile::</text>
<text text-anchor="start" x="182.5" y="-219" font-family="Helvetica,sans-Serif" font-size="10.00">ShaderHelper::generateFragmentProgram</text>
<text text-anchor="middle" x="273" y="-206" font-family="Helvetica,sans-Serif" font-size="10.00">Source</text>
</a>
</g>
<!-- Node1&#45;&gt;Node3 -->
<g id="edge4" class="edge"><title>Node1&#45;&gt;Node3</title>
<path fill="none" stroke="midnightblue" d="M145.28,-182.922C159.155,-187.819 173.708,-192.956 187.82,-197.936"/>
<polygon fill="midnightblue" stroke="midnightblue" points="146.392,-179.603 135.797,-179.575 144.062,-186.204 146.392,-179.603"/>
</g>
<!-- Node4 -->
<g id="node7" class="node"><title>Node4</title>
<a xlink:href="class_ogre_1_1_terrain_p_s_s_m_material_generator_1_1_s_m2_profile_1_1_shader_helper.html#a097f056863a7c0f6a23065bfed11d9f9" target="_top" xlink:title="Ogre::TerrainPSSMMaterial\lGenerator::SM2Profile::\lShaderHelper::updateVpParams">
<polygon fill="white" stroke="black" points="194.5,-132.5 194.5,-179.5 351.5,-179.5 351.5,-132.5 194.5,-132.5"/>
<text text-anchor="start" x="202.5" y="-166.5" font-family="Helvetica,sans-Serif" font-size="10.00">Ogre::TerrainPSSMMaterial</text>
<text text-anchor="start" x="202.5" y="-153.5" font-family="Helvetica,sans-Serif" font-size="10.00">Generator::SM2Profile::</text>
<text text-anchor="middle" x="273" y="-140.5" font-family="Helvetica,sans-Serif" font-size="10.00">ShaderHelper::updateVpParams</text>
</a>
</g>
<!-- Node1&#45;&gt;Node4 -->
<g id="edge6" class="edge"><title>Node1&#45;&gt;Node4</title>
<path fill="none" stroke="midnightblue" d="M148.145,-156C163.304,-156 179.173,-156 194.318,-156"/>
<polygon fill="midnightblue" stroke="midnightblue" points="147.781,-152.5 137.781,-156 147.781,-159.5 147.781,-152.5"/>
</g>
<!-- Node5 -->
<g id="node9" class="node"><title>Node5</title>
<a xlink:href="class_ogre_1_1_terrain_p_s_s_m_material_generator_1_1_s_m2_profile_1_1_shader_helper_cg.html#a4455989ab6e1c73c771f44d0e7a42e48" target="_top" xlink:title="Ogre::TerrainPSSMMaterial\lGenerator::SM2Profile::\lShaderHelperCg::generateVpHeader">
<polygon fill="white" stroke="black" points="185,-66.5 185,-113.5 361,-113.5 361,-66.5 185,-66.5"/>
<text text-anchor="start" x="193" y="-100.5" font-family="Helvetica,sans-Serif" font-size="10.00">Ogre::TerrainPSSMMaterial</text>
<text text-anchor="start" x="193" y="-87.5" font-family="Helvetica,sans-Serif" font-size="10.00">Generator::SM2Profile::</text>
<text text-anchor="middle" x="273" y="-74.5" font-family="Helvetica,sans-Serif" font-size="10.00">ShaderHelperCg::generateVpHeader</text>
</a>
</g>
<!-- Node1&#45;&gt;Node5 -->
<g id="edge8" class="edge"><title>Node1&#45;&gt;Node5</title>
<path fill="none" stroke="midnightblue" d="M147.343,-130.654C164.761,-125.019 183.152,-119.068 200.331,-113.511"/>
<polygon fill="midnightblue" stroke="midnightblue" points="146.218,-127.339 137.781,-133.747 148.373,-133.999 146.218,-127.339"/>
</g>
<!-- Node6 -->
<g id="node11" class="node"><title>Node6</title>
<a xlink:href="class_ogre_1_1_terrain_p_s_s_m_material_generator_1_1_s_m2_profile_1_1_shader_helper_cg.html#af37481d514eac4b4cf22db170c54756e" target="_top" xlink:title="Ogre::TerrainPSSMMaterial\lGenerator::SM2Profile::\lShaderHelperCg::generateFpHeader">
<polygon fill="white" stroke="black" points="185.5,-0.5 185.5,-47.5 360.5,-47.5 360.5,-0.5 185.5,-0.5"/>
<text text-anchor="start" x="193.5" y="-34.5" font-family="Helvetica,sans-Serif" font-size="10.00">Ogre::TerrainPSSMMaterial</text>
<text text-anchor="start" x="193.5" y="-21.5" font-family="Helvetica,sans-Serif" font-size="10.00">Generator::SM2Profile::</text>
<text text-anchor="middle" x="273" y="-8.5" font-family="Helvetica,sans-Serif" font-size="10.00">ShaderHelperCg::generateFpHeader</text>
</a>
</g>
<!-- Node1&#45;&gt;Node6 -->
<g id="edge10" class="edge"><title>Node1&#45;&gt;Node6</title>
<path fill="none" stroke="midnightblue" d="M95.6677,-124.448C115.385,-102.852 143.932,-74.9777 174,-57 179.753,-53.56 185.912,-50.4251 192.238,-47.5789"/>
<polygon fill="midnightblue" stroke="midnightblue" points="92.8855,-122.308 88.8165,-132.091 98.0977,-126.981 92.8855,-122.308"/>
</g>
</g>
</svg>
