<?xml version="1.0" encoding="UTF-8" standalone="no"?>
<!DOCTYPE svg PUBLIC "-//W3C//DTD SVG 1.1//EN"
 "http://www.w3.org/Graphics/SVG/1.1/DTD/svg11.dtd">
<!-- Generated by graphviz version 2.26.3 (20100126.1600)
 -->
<!-- Title: Hydrax::Module::ProjectedGrid::saveCfg Pages: 1 -->
<svg width="302pt" height="94pt"
 viewBox="0.00 0.00 302.00 94.00" xmlns="http://www.w3.org/2000/svg" xmlns:xlink="http://www.w3.org/1999/xlink">
<g id="graph1" class="graph" transform="scale(1 1) rotate(0) translate(4 90)">
<title>Hydrax::Module::ProjectedGrid::saveCfg</title>
<polygon fill="white" stroke="white" points="-4,5 -4,-90 299,-90 299,5 -4,5"/>
<!-- Node1 -->
<g id="node1" class="node"><title>Node1</title>
<polygon fill="#bfbfbf" stroke="black" points="0.5,-26 0.5,-60 133.5,-60 133.5,-26 0.5,-26"/>
<text text-anchor="start" x="8.5" y="-47" font-family="Helvetica,sans-Serif" font-size="10.00">Hydrax::Module::Projected</text>
<text text-anchor="middle" x="67" y="-34" font-family="Helvetica,sans-Serif" font-size="10.00">Grid::saveCfg</text>
</g>
<!-- Node2 -->
<g id="node3" class="node"><title>Node2</title>
<a xlink:href="class_hydrax_1_1_module_1_1_module.html#a998a5baf42f57b02ca7bc20bc12f95a9" target="_top" xlink:title="Hydrax::Module::Module\l::saveCfg">
<polygon fill="white" stroke="black" points="170.5,-52 170.5,-86 293.5,-86 293.5,-52 170.5,-52"/>
<text text-anchor="start" x="178.5" y="-73" font-family="Helvetica,sans-Serif" font-size="10.00">Hydrax::Module::Module</text>
<text text-anchor="middle" x="232" y="-60" font-family="Helvetica,sans-Serif" font-size="10.00">::saveCfg</text>
</a>
</g>
<!-- Node1&#45;&gt;Node2 -->
<g id="edge2" class="edge"><title>Node1&#45;&gt;Node2</title>
<path fill="none" stroke="midnightblue" d="M133.636,-53.5003C142.474,-54.8929 151.564,-56.3253 160.48,-57.7302"/>
<polygon fill="midnightblue" stroke="midnightblue" points="160.027,-61.2019 170.45,-59.3012 161.117,-54.2873 160.027,-61.2019"/>
</g>
<!-- Node3 -->
<g id="node5" class="node"><title>Node3</title>
<a xlink:href="class_hydrax_1_1_cfg_file_manager.html#a020c0d58713f7ecbd396101247bcab1b" target="_top" xlink:title="Hydrax::CfgFileManager\l::_getCfgString">
<polygon fill="white" stroke="black" points="170.5,-0 170.5,-34 293.5,-34 293.5,-0 170.5,-0"/>
<text text-anchor="start" x="178.5" y="-21" font-family="Helvetica,sans-Serif" font-size="10.00">Hydrax::CfgFileManager</text>
<text text-anchor="middle" x="232" y="-8" font-family="Helvetica,sans-Serif" font-size="10.00">::_getCfgString</text>
</a>
</g>
<!-- Node1&#45;&gt;Node3 -->
<g id="edge4" class="edge"><title>Node1&#45;&gt;Node3</title>
<path fill="none" stroke="midnightblue" d="M133.636,-32.4997C142.474,-31.1071 151.564,-29.6747 160.48,-28.2698"/>
<polygon fill="midnightblue" stroke="midnightblue" points="161.117,-31.7127 170.45,-26.6988 160.027,-24.7981 161.117,-31.7127"/>
</g>
</g>
</svg>
