<?xml version="1.0" encoding="UTF-8" standalone="no"?>
<!DOCTYPE svg PUBLIC "-//W3C//DTD SVG 1.1//EN"
 "http://www.w3.org/Graphics/SVG/1.1/DTD/svg11.dtd">
<!-- Generated by graphviz version 2.26.3 (20100126.1600)
 -->
<!-- Title: Beam::getMinimalCameraRadius Pages: 1 -->
<svg width="542pt" height="146pt"
 viewBox="0.00 0.00 542.00 146.00" xmlns="http://www.w3.org/2000/svg" xmlns:xlink="http://www.w3.org/1999/xlink">
<g id="graph1" class="graph" transform="scale(1 1) rotate(0) translate(4 142)">
<title>Beam::getMinimalCameraRadius</title>
<polygon fill="white" stroke="white" points="-4,5 -4,-142 539,-142 539,5 -4,5"/>
<!-- Node1 -->
<g id="node1" class="node"><title>Node1</title>
<polygon fill="#bfbfbf" stroke="black" points="0.5,-58.5 0.5,-79.5 161.5,-79.5 161.5,-58.5 0.5,-58.5"/>
<text text-anchor="middle" x="81" y="-66.5" font-family="Helvetica,sans-Serif" font-size="10.00">Beam::getMinimalCameraRadius</text>
</g>
<!-- Node2 -->
<g id="node3" class="node"><title>Node2</title>
<a xlink:href="class_camera_behavior_vehicle.html#ae4defc34198f6a82cfb86ede290d055f" target="_top" xlink:title="CameraBehaviorVehicle\l::update">
<polygon fill="white" stroke="black" points="212,-104 212,-138 334,-138 334,-104 212,-104"/>
<text text-anchor="start" x="220" y="-125" font-family="Helvetica,sans-Serif" font-size="10.00">CameraBehaviorVehicle</text>
<text text-anchor="middle" x="273" y="-112" font-family="Helvetica,sans-Serif" font-size="10.00">::update</text>
</a>
</g>
<!-- Node1&#45;&gt;Node2 -->
<g id="edge2" class="edge"><title>Node1&#45;&gt;Node2</title>
<path fill="none" stroke="midnightblue" d="M129.821,-82.2224C154.776,-88.9811 185.393,-97.273 211.9,-104.452"/>
<polygon fill="midnightblue" stroke="midnightblue" points="130.421,-78.7589 119.854,-79.523 128.591,-85.5155 130.421,-78.7589"/>
</g>
<!-- Node3 -->
<g id="node5" class="node"><title>Node3</title>
<a xlink:href="class_camera_behavior_vehicle.html#ae7d045ecadf875c717d7318980228b57" target="_top" xlink:title="CameraBehaviorVehicle\l::reset">
<polygon fill="white" stroke="black" points="212,-52 212,-86 334,-86 334,-52 212,-52"/>
<text text-anchor="start" x="220" y="-73" font-family="Helvetica,sans-Serif" font-size="10.00">CameraBehaviorVehicle</text>
<text text-anchor="middle" x="273" y="-60" font-family="Helvetica,sans-Serif" font-size="10.00">::reset</text>
</a>
</g>
<!-- Node1&#45;&gt;Node3 -->
<g id="edge4" class="edge"><title>Node1&#45;&gt;Node3</title>
<path fill="none" stroke="midnightblue" d="M171.909,-69C185.46,-69 199.147,-69 211.885,-69"/>
<polygon fill="midnightblue" stroke="midnightblue" points="171.591,-65.5001 161.591,-69 171.591,-72.5001 171.591,-65.5001"/>
</g>
<!-- Node5 -->
<g id="node9" class="node"><title>Node5</title>
<a xlink:href="class_camera_behavior_vehicle_spline.html#a40f9e100be8f69c825f7ade503ba21ed" target="_top" xlink:title="CameraBehaviorVehicleSpline\l::reset">
<polygon fill="white" stroke="black" points="198.5,-0 198.5,-34 347.5,-34 347.5,-0 198.5,-0"/>
<text text-anchor="start" x="206.5" y="-21" font-family="Helvetica,sans-Serif" font-size="10.00">CameraBehaviorVehicleSpline</text>
<text text-anchor="middle" x="273" y="-8" font-family="Helvetica,sans-Serif" font-size="10.00">::reset</text>
</a>
</g>
<!-- Node1&#45;&gt;Node5 -->
<g id="edge8" class="edge"><title>Node1&#45;&gt;Node5</title>
<path fill="none" stroke="midnightblue" d="M129.607,-55.8356C154.013,-49.2256 183.874,-41.1383 210.016,-34.0582"/>
<polygon fill="midnightblue" stroke="midnightblue" points="128.591,-52.4845 119.854,-58.477 130.421,-59.2411 128.591,-52.4845"/>
</g>
<!-- Node4 -->
<g id="node7" class="node"><title>Node4</title>
<a xlink:href="class_camera_behavior_vehicle.html#afa9373e339c7daaa524512dd45944503" target="_top" xlink:title="CameraBehaviorVehicle\l::activate">
<polygon fill="white" stroke="black" points="398,-52 398,-86 520,-86 520,-52 398,-52"/>
<text text-anchor="start" x="406" y="-73" font-family="Helvetica,sans-Serif" font-size="10.00">CameraBehaviorVehicle</text>
<text text-anchor="middle" x="459" y="-60" font-family="Helvetica,sans-Serif" font-size="10.00">::activate</text>
</a>
</g>
<!-- Node3&#45;&gt;Node4 -->
<g id="edge6" class="edge"><title>Node3&#45;&gt;Node4</title>
<path fill="none" stroke="midnightblue" d="M344.387,-69C362.004,-69 380.717,-69 397.802,-69"/>
<polygon fill="midnightblue" stroke="midnightblue" points="344.161,-65.5001 334.161,-69 344.161,-72.5001 344.161,-65.5001"/>
</g>
<!-- Node6 -->
<g id="node11" class="node"><title>Node6</title>
<a xlink:href="class_camera_behavior_vehicle_spline.html#acde6a5bb0ea7e85846a15ee908e28425" target="_top" xlink:title="CameraBehaviorVehicleSpline\l::activate">
<polygon fill="white" stroke="black" points="384.5,-0 384.5,-34 533.5,-34 533.5,-0 384.5,-0"/>
<text text-anchor="start" x="392.5" y="-21" font-family="Helvetica,sans-Serif" font-size="10.00">CameraBehaviorVehicleSpline</text>
<text text-anchor="middle" x="459" y="-8" font-family="Helvetica,sans-Serif" font-size="10.00">::activate</text>
</a>
</g>
<!-- Node5&#45;&gt;Node6 -->
<g id="edge10" class="edge"><title>Node5&#45;&gt;Node6</title>
<path fill="none" stroke="midnightblue" d="M357.61,-17C366.548,-17 375.59,-17 384.402,-17"/>
<polygon fill="midnightblue" stroke="midnightblue" points="357.582,-13.5001 347.582,-17 357.582,-20.5001 357.582,-13.5001"/>
</g>
</g>
</svg>
