<?xml version="1.0" encoding="UTF-8" standalone="no"?>
<!DOCTYPE svg PUBLIC "-//W3C//DTD SVG 1.1//EN"
 "http://www.w3.org/Graphics/SVG/1.1/DTD/svg11.dtd">
<!-- Generated by graphviz version 2.26.3 (20100126.1600)
 -->
<!-- Title: CacheSystem::CacheSystem Pages: 1 -->
<!--zoomable 134 -->
<svg id="main" version="1.1" xmlns="http://www.w3.org/2000/svg" xmlns:xlink="http://www.w3.org/1999/xlink" xml:space="preserve" onload="init(evt)">
<style type="text/css"><![CDATA[
.edge:hover path { stroke: red; }
.edge:hover polygon { stroke: red; fill: red; }
]]></style>
<script type="text/javascript"><![CDATA[
var edges = document.getElementsByTagName('g');
if (edges && edges.length) {
  for (var i=0;i<edges.length;i++) {
    if (edges[i].id.substr(0,4)=='edge') {
      edges[i].setAttribute('class','edge');
    }
  }
}
]]></script>
        <defs>
                <circle id="rim" cx="0" cy="0" r="7"/>
                <circle id="rim2" cx="0" cy="0" r="3.5"/>
                <g id="zoomPlus">
                        <use xlink:href="#rim" fill="#404040">
                                <set attributeName="fill" to="#808080" begin="zoomplus.mouseover" end="zoomplus.mouseout"/>
                        </use>
                        <path d="M-4,0h8M0,-4v8" fill="none" stroke="white" stroke-width="1.5" pointer-events="none"/>
                </g>
                <g id="zoomMin">
                        <use xlink:href="#rim" fill="#404040">
                                <set attributeName="fill" to="#808080" begin="zoomminus.mouseover" end="zoomminus.mouseout"/>
                        </use>
                        <path d="M-4,0h8" fill="none" stroke="white" stroke-width="1.5" pointer-events="none"/>
                </g>
                <g id="dirArrow">
                        <path fill="none" stroke="white" stroke-width="1.5" d="M0,-3.0v7 M-2.5,-0.5L0,-3.0L2.5,-0.5"/>
                </g>
               <g id="resetDef">
                       <use xlink:href="#rim2" fill="#404040">
                               <set attributeName="fill" to="#808080" begin="reset.mouseover" end="reset.mouseout"/>
                       </use>
               </g>
        </defs>

<script type="text/javascript">
var viewWidth = 882;
var viewHeight = 134;
var sectionId = 'dynsection-2';
</script>
<script xlink:href="svgpan.js"/>
<svg id="graph" class="graph">
<g id="viewport">
<title>CacheSystem::CacheSystem</title>
<polygon fill="white" stroke="white" points="-4,5 -4,-130 879,-130 879,5 -4,5"/>
<!-- Node1 -->
<g id="node1" class="node"><title>Node1</title>
<polygon fill="#bfbfbf" stroke="black" points="0.5,-48.5 0.5,-69.5 147.5,-69.5 147.5,-48.5 0.5,-48.5"/>
<text text-anchor="middle" x="74" y="-56.5" font-family="Helvetica,sans-Serif" font-size="10.00">CacheSystem::CacheSystem</text>
</g>
<!-- Node2 -->
<g id="node3" class="node"><title>Node2</title>
<a xlink:href="class_cache_system.html#acc1b2003b744f01de2fb69596ff12f18" target="_top" xlink:title="CacheSystem::writeStream\lCache">
<polygon fill="white" stroke="black" points="184.5,-65 184.5,-99 321.5,-99 321.5,-65 184.5,-65"/>
<text text-anchor="start" x="192.5" y="-86" font-family="Helvetica,sans-Serif" font-size="10.00">CacheSystem::writeStream</text>
<text text-anchor="middle" x="253" y="-73" font-family="Helvetica,sans-Serif" font-size="10.00">Cache</text>
</a>
</g>
<!-- Node1&#45;&gt;Node2 -->
<g id="edge2" class="edge"><title>Node1&#45;&gt;Node2</title>
<path fill="none" stroke="midnightblue" d="M147.581,-68.4545C156.409,-69.5888 165.45,-70.7505 174.346,-71.8936"/>
<polygon fill="midnightblue" stroke="midnightblue" points="173.944,-75.3707 184.309,-73.1738 174.836,-68.4278 173.944,-75.3707"/>
</g>
<!-- Node10 -->
<g id="node19" class="node"><title>Node10</title>
<a xlink:href="namespace_profiler.html#af79bb59414ef3ba134213bb6f2f2d292" target="_top" xlink:title="Profiler::exit">
<polygon fill="white" stroke="black" points="218.5,-25.5 218.5,-46.5 287.5,-46.5 287.5,-25.5 218.5,-25.5"/>
<text text-anchor="middle" x="253" y="-33.5" font-family="Helvetica,sans-Serif" font-size="10.00">Profiler::exit</text>
</a>
</g>
<!-- Node1&#45;&gt;Node10 -->
<g id="edge18" class="edge"><title>Node1&#45;&gt;Node10</title>
<path fill="none" stroke="midnightblue" d="M147.581,-49.5455C168.151,-46.9024 189.88,-44.1104 208.231,-41.7524"/>
<polygon fill="midnightblue" stroke="midnightblue" points="208.858,-45.2007 218.33,-40.4548 207.966,-38.2578 208.858,-45.2007"/>
</g>
<!-- Node3 -->
<g id="node5" class="node"><title>Node3</title>
<a xlink:href="class_cache_system.html#abc3162d131888cb772c7c9b95f626cb2" target="_top" xlink:title="CacheSystem::formatEntry">
<polygon fill="white" stroke="black" points="359,-95.5 359,-116.5 495,-116.5 495,-95.5 359,-95.5"/>
<text text-anchor="middle" x="427" y="-103.5" font-family="Helvetica,sans-Serif" font-size="10.00">CacheSystem::formatEntry</text>
</a>
</g>
<!-- Node2&#45;&gt;Node3 -->
<g id="edge4" class="edge"><title>Node2&#45;&gt;Node3</title>
<path fill="none" stroke="midnightblue" d="M321.769,-91.4854C330.604,-92.704 339.701,-93.9587 348.673,-95.1963"/>
<polygon fill="midnightblue" stroke="midnightblue" points="348.346,-98.6842 358.73,-96.5834 349.302,-91.7498 348.346,-98.6842"/>
</g>
<!-- Node6 -->
<g id="node11" class="node"><title>Node6</title>
<a xlink:href="class_cache_system.html#ab2574f48bbb2956d4a280c27ffdb8917" target="_top" xlink:title="CacheSystem::generateFile\lCache">
<polygon fill="white" stroke="black" points="358,-40 358,-74 496,-74 496,-40 358,-40"/>
<text text-anchor="start" x="366" y="-61" font-family="Helvetica,sans-Serif" font-size="10.00">CacheSystem::generateFile</text>
<text text-anchor="middle" x="427" y="-48" font-family="Helvetica,sans-Serif" font-size="10.00">Cache</text>
</a>
</g>
<!-- Node2&#45;&gt;Node6 -->
<g id="edge10" class="edge"><title>Node2&#45;&gt;Node6</title>
<path fill="none" stroke="midnightblue" d="M321.769,-72.1193C330.304,-70.8931 339.083,-69.6317 347.759,-68.3852"/>
<polygon fill="midnightblue" stroke="midnightblue" points="348.475,-71.8184 357.875,-66.9317 347.479,-64.8896 348.475,-71.8184"/>
</g>
<!-- Node4 -->
<g id="node7" class="node"><title>Node4</title>
<a xlink:href="class_cache_system.html#ac06b01a5da9ef6e3ba0cac0438690dde" target="_top" xlink:title="CacheSystem::formatInner\lEntry">
<polygon fill="white" stroke="black" points="543,-92 543,-126 677,-126 677,-92 543,-92"/>
<text text-anchor="start" x="551" y="-113" font-family="Helvetica,sans-Serif" font-size="10.00">CacheSystem::formatInner</text>
<text text-anchor="middle" x="610" y="-100" font-family="Helvetica,sans-Serif" font-size="10.00">Entry</text>
</a>
</g>
<!-- Node3&#45;&gt;Node4 -->
<g id="edge6" class="edge"><title>Node3&#45;&gt;Node4</title>
<path fill="none" stroke="midnightblue" d="M495.142,-107.117C507.289,-107.316 520.025,-107.525 532.412,-107.728"/>
<polygon fill="midnightblue" stroke="midnightblue" points="532.658,-111.232 542.714,-107.897 532.773,-104.233 532.658,-111.232"/>
</g>
<!-- Node5 -->
<g id="node9" class="node"><title>Node5</title>
<a xlink:href="class_cache_system.html#a8435323b525de173677910c670291846" target="_top" xlink:title="CacheSystem::normalizeText">
<polygon fill="white" stroke="black" points="726,-98.5 726,-119.5 872,-119.5 872,-98.5 726,-98.5"/>
<text text-anchor="middle" x="799" y="-106.5" font-family="Helvetica,sans-Serif" font-size="10.00">CacheSystem::normalizeText</text>
</a>
</g>
<!-- Node4&#45;&gt;Node5 -->
<g id="edge8" class="edge"><title>Node4&#45;&gt;Node5</title>
<path fill="none" stroke="midnightblue" d="M677.166,-109C689.641,-109 702.811,-109 715.698,-109"/>
<polygon fill="midnightblue" stroke="midnightblue" points="715.955,-112.5 725.955,-109 715.955,-105.5 715.955,-112.5"/>
</g>
<!-- Node7 -->
<g id="node13" class="node"><title>Node7</title>
<a xlink:href="class_cache_system.html#ac4859d57b61190b38e7f999ca09bf09e" target="_top" xlink:title="CacheSystem::detectFiles\lMiniType">
<polygon fill="white" stroke="black" points="543.5,-40 543.5,-74 676.5,-74 676.5,-40 543.5,-40"/>
<text text-anchor="start" x="551.5" y="-61" font-family="Helvetica,sans-Serif" font-size="10.00">CacheSystem::detectFiles</text>
<text text-anchor="middle" x="610" y="-48" font-family="Helvetica,sans-Serif" font-size="10.00">MiniType</text>
</a>
</g>
<!-- Node6&#45;&gt;Node7 -->
<g id="edge12" class="edge"><title>Node6&#45;&gt;Node7</title>
<path fill="none" stroke="midnightblue" d="M496.184,-57C508.283,-57 520.936,-57 533.225,-57"/>
<polygon fill="midnightblue" stroke="midnightblue" points="533.441,-60.5001 543.441,-57 533.441,-53.5001 533.441,-60.5001"/>
</g>
<!-- Node9 -->
<g id="node17" class="node"><title>Node9</title>
<a xlink:href="class_cache_system.html#a2684743363220c7b1ce312914261b978" target="_top" xlink:title="CacheSystem::deleteFileCache">
<polygon fill="white" stroke="black" points="532.5,-0.5 532.5,-21.5 687.5,-21.5 687.5,-0.5 532.5,-0.5"/>
<text text-anchor="middle" x="610" y="-8.5" font-family="Helvetica,sans-Serif" font-size="10.00">CacheSystem::deleteFileCache</text>
</a>
</g>
<!-- Node6&#45;&gt;Node9 -->
<g id="edge16" class="edge"><title>Node6&#45;&gt;Node9</title>
<path fill="none" stroke="midnightblue" d="M494.882,-39.9367C515.758,-34.6893 538.394,-28.9994 558.025,-24.0648"/>
<polygon fill="midnightblue" stroke="midnightblue" points="559.146,-27.3918 567.991,-21.5595 557.44,-20.603 559.146,-27.3918"/>
</g>
<!-- Node8 -->
<g id="node15" class="node"><title>Node8</title>
<a xlink:href="class_cache_system.html#aa025222e89657b72478453191ee04878" target="_top" xlink:title="CacheSystem::resourceExists\lInAllGroups">
<polygon fill="white" stroke="black" points="724,-40 724,-74 874,-74 874,-40 724,-40"/>
<text text-anchor="start" x="732" y="-61" font-family="Helvetica,sans-Serif" font-size="10.00">CacheSystem::resourceExists</text>
<text text-anchor="middle" x="799" y="-48" font-family="Helvetica,sans-Serif" font-size="10.00">InAllGroups</text>
</a>
</g>
<!-- Node7&#45;&gt;Node8 -->
<g id="edge14" class="edge"><title>Node7&#45;&gt;Node8</title>
<path fill="none" stroke="midnightblue" d="M676.634,-57C688.591,-57 701.2,-57 713.599,-57"/>
<polygon fill="midnightblue" stroke="midnightblue" points="713.946,-60.5001 723.946,-57 713.946,-53.5001 713.946,-60.5001"/>
</g>
</g>
</svg>
        <g id="navigator" transform="translate(0 0)" fill="#404254">
                <rect fill="#f2f5e9" fill-opacity="0.5" stroke="#606060" stroke-width=".5" x="0" y="0" width="60" height="60"/>
                <use id="zoomplus" xlink:href="#zoomPlus" x="17" y="9" onmousedown="handleZoom(evt,'in')"/>
                <use id="zoomminus" xlink:href="#zoomMin" x="42" y="9" onmousedown="handleZoom(evt,'out')"/>
                <use id="reset" xlink:href="#resetDef" x="30" y="36" onmousedown="handleReset()"/>
                <g id="arrowUp" xlink:href="#dirArrow" transform="translate(30 24)" onmousedown="handlePan(0,-1)">
                  <use xlink:href="#rim" fill="#404040">
                        <set attributeName="fill" to="#808080" begin="arrowUp.mouseover" end="arrowUp.mouseout"/>
                  </use>
                  <path fill="none" stroke="white" stroke-width="1.5" d="M0,-3.0v7 M-2.5,-0.5L0,-3.0L2.5,-0.5"/>
                </g>
                <g id="arrowRight" xlink:href="#dirArrow" transform="rotate(90) translate(36 -43)" onmousedown="handlePan(1,0)">
                  <use xlink:href="#rim" fill="#404040">
                        <set attributeName="fill" to="#808080" begin="arrowRight.mouseover" end="arrowRight.mouseout"/>
                  </use>
                  <path fill="none" stroke="white" stroke-width="1.5" d="M0,-3.0v7 M-2.5,-0.5L0,-3.0L2.5,-0.5"/>
                </g>
                <g id="arrowDown" xlink:href="#dirArrow" transform="rotate(180) translate(-30 -48)" onmousedown="handlePan(0,1)">
                  <use xlink:href="#rim" fill="#404040">
                        <set attributeName="fill" to="#808080" begin="arrowDown.mouseover" end="arrowDown.mouseout"/>
                  </use>
                  <path fill="none" stroke="white" stroke-width="1.5" d="M0,-3.0v7 M-2.5,-0.5L0,-3.0L2.5,-0.5"/>
                </g>
                <g id="arrowLeft" xlink:href="#dirArrow" transform="rotate(270) translate(-36 17)" onmousedown="handlePan(-1,0)">
                  <use xlink:href="#rim" fill="#404040">
                        <set attributeName="fill" to="#808080" begin="arrowLeft.mouseover" end="arrowLeft.mouseout"/>
                  </use>
                  <path fill="none" stroke="white" stroke-width="1.5" d="M0,-3.0v7 M-2.5,-0.5L0,-3.0L2.5,-0.5"/>
                </g>
        </g>
        <svg viewBox="0 0 15 15" width="100%" height="30px" preserveAspectRatio="xMaxYMin meet">
         <g id="arrow_out" transform="scale(0.3 0.3)">
          <a xlink:href="class_cache_system_aa5bac5c4f4161879c67f9e09e28a82d5_cgraph_org.svg" target="_base">
           <rect id="button" ry="5" rx="5" y="6" x="6" height="38" width="38"
                fill="#f2f5e9" fill-opacity="0.5" stroke="#606060" stroke-width="1.0"/>
           <path id="arrow"
             d="M 11.500037,31.436501 C 11.940474,20.09759 22.043105,11.32322 32.158766,21.979434 L 37.068811,17.246167 C 37.068811,17.246167 37.088388,32 37.088388,32 L 22.160133,31.978069 C 22.160133,31.978069 26.997745,27.140456 26.997745,27.140456 C 18.528582,18.264221 13.291696,25.230495 11.500037,31.436501 z"
             style="fill:#404040;"/>
          </a>
         </g>
        </svg>
</svg>
