<?xml version="1.0" encoding="UTF-8" standalone="no"?>
<!DOCTYPE svg PUBLIC "-//W3C//DTD SVG 1.1//EN"
 "http://www.w3.org/Graphics/SVG/1.1/DTD/svg11.dtd">
<!-- Generated by graphviz version 2.26.3 (20100126.1600)
 -->
<!-- Title: G Pages: 1 -->
<!--zoomable 150 -->
<svg id="main" version="1.1" xmlns="http://www.w3.org/2000/svg" xmlns:xlink="http://www.w3.org/1999/xlink" xml:space="preserve" onload="init(evt)">
        <defs>
                <circle id="rim" cx="0" cy="0" r="7"/>
                <circle id="rim2" cx="0" cy="0" r="3.5"/>
                <g id="zoomPlus">
                        <use xlink:href="#rim" fill="#404040">
                                <set attributeName="fill" to="#808080" begin="zoomplus.mouseover" end="zoomplus.mouseout"/>
                        </use>
                        <path d="M-4,0h8M0,-4v8" fill="none" stroke="white" stroke-width="1.5" pointer-events="none"/>
                </g>
                <g id="zoomMin">
                        <use xlink:href="#rim" fill="#404040">
                                <set attributeName="fill" to="#808080" begin="zoomminus.mouseover" end="zoomminus.mouseout"/>
                        </use>
                        <path d="M-4,0h8" fill="none" stroke="white" stroke-width="1.5" pointer-events="none"/>
                </g>
                <g id="dirArrow">
                        <path fill="none" stroke="white" stroke-width="1.5" d="M0,-3.0v7 M-2.5,-0.5L0,-3.0L2.5,-0.5"/>
                </g>
               <g id="resetDef">
                       <use xlink:href="#rim2" fill="#404040">
                               <set attributeName="fill" to="#808080" begin="reset.mouseover" end="reset.mouseout"/>
                       </use>
               </g>
        </defs>

<script type="text/javascript">
var viewWidth = 1784;
var viewHeight = 150;
var sectionId = 'dynsection-15';
</script>
<script xlink:href="svgpan.js"/>
<svg id="graph" class="graph">
<g id="viewport">
<title>G</title>
<polygon fill="white" stroke="white" points="-4,5 -4,-146 1781,-146 1781,5 -4,5"/>
<!-- Node1 -->
<g id="node1" class="node"><title>Node1</title>
<polygon fill="#bfbfbf" stroke="black" points="0.5,-40.5 0.5,-61.5 159.5,-61.5 159.5,-40.5 0.5,-40.5"/>
<text text-anchor="middle" x="80" y="-48.5" font-family="Helvetica,sans-Serif" font-size="10.00">RoR::RigEditor::Beam::SetColor</text>
</g>
<!-- Node2 -->
<g id="node3" class="node"><title>Node2</title>
<a xlink:href="class_ro_r_1_1_rig_editor_1_1_rig.html#a313a85e2e173bd3d0ea38e5135f68e1b" target="_top" xlink:title="RoR::RigEditor::Rig::Build">
<polygon fill="white" stroke="black" points="223,-60.5 223,-81.5 355,-81.5 355,-60.5 223,-60.5"/>
<text text-anchor="middle" x="289" y="-68.5" font-family="Helvetica,sans-Serif" font-size="10.00">RoR::RigEditor::Rig::Build</text>
</a>
</g>
<!-- Node1&#45;&gt;Node2 -->
<g id="edge2" class="edge"><title>Node1&#45;&gt;Node2</title>
<path fill="none" stroke="midnightblue" d="M169.985,-59.611C187.744,-61.3104 206.073,-63.0644 222.868,-64.6716"/>
<polygon fill="midnightblue" stroke="midnightblue" points="169.898,-56.0868 159.61,-58.6182 169.231,-63.055 169.898,-56.0868"/>
</g>
<!-- Node8 -->
<g id="node15" class="node"><title>Node8</title>
<a xlink:href="class_ro_r_1_1_rig_editor_1_1_rig.html#a4795b1722f94f9584b91c0074c62161d" target="_top" xlink:title="RoR::RigEditor::Rig::CreateNewBeam">
<polygon fill="white" stroke="black" points="196.5,-20.5 196.5,-41.5 381.5,-41.5 381.5,-20.5 196.5,-20.5"/>
<text text-anchor="middle" x="289" y="-28.5" font-family="Helvetica,sans-Serif" font-size="10.00">RoR::RigEditor::Rig::CreateNewBeam</text>
</a>
</g>
<!-- Node1&#45;&gt;Node8 -->
<g id="edge14" class="edge"><title>Node1&#45;&gt;Node8</title>
<path fill="none" stroke="midnightblue" d="M169.828,-42.404C178.6,-41.5646 187.513,-40.7117 196.312,-39.8696"/>
<polygon fill="midnightblue" stroke="midnightblue" points="169.231,-38.945 159.61,-43.3818 169.898,-45.9132 169.231,-38.945"/>
</g>
<!-- Node3 -->
<g id="node5" class="node"><title>Node3</title>
<a xlink:href="class_ro_r_1_1_rig_editor_1_1_main.html#a0ae39993d636eacc5dfe567c5f5ac4b9" target="_top" xlink:title="RoR::RigEditor::Main::LoadRigDefFile">
<polygon fill="white" stroke="black" points="453,-100.5 453,-121.5 637,-121.5 637,-100.5 453,-100.5"/>
<text text-anchor="middle" x="545" y="-108.5" font-family="Helvetica,sans-Serif" font-size="10.00">RoR::RigEditor::Main::LoadRigDefFile</text>
</a>
</g>
<!-- Node2&#45;&gt;Node3 -->
<g id="edge4" class="edge"><title>Node2&#45;&gt;Node3</title>
<path fill="none" stroke="midnightblue" d="M365.156,-82.8994C400.898,-88.484 443.128,-95.0826 477.683,-100.482"/>
<polygon fill="midnightblue" stroke="midnightblue" points="365.68,-79.4388 355.259,-81.353 364.599,-86.3549 365.68,-79.4388"/>
</g>
<!-- Node7 -->
<g id="node13" class="node"><title>Node7</title>
<a xlink:href="class_ro_r_1_1_rig_editor_1_1_main.html#ad136bb804b1accbfed00705895f86362" target="_top" xlink:title="RoR::RigEditor::Main::CommandCreateNewEmptyRig">
<polygon fill="white" stroke="black" points="418,-60.5 418,-81.5 672,-81.5 672,-60.5 418,-60.5"/>
<text text-anchor="middle" x="545" y="-68.5" font-family="Helvetica,sans-Serif" font-size="10.00">RoR::RigEditor::Main::CommandCreateNewEmptyRig</text>
</a>
</g>
<!-- Node2&#45;&gt;Node7 -->
<g id="edge12" class="edge"><title>Node2&#45;&gt;Node7</title>
<path fill="none" stroke="midnightblue" d="M365.395,-71C381.981,-71 399.956,-71 417.907,-71"/>
<polygon fill="midnightblue" stroke="midnightblue" points="365.259,-67.5001 355.259,-71 365.259,-74.5001 365.259,-67.5001"/>
</g>
<!-- Node4 -->
<g id="node7" class="node"><title>Node4</title>
<a xlink:href="class_ro_r_1_1_rig_editor_1_1_main.html#a35a10d6c23920802442d32fab1a8d470" target="_top" xlink:title="RoR::RigEditor::Main::NotifyFileSelectorEnded">
<polygon fill="white" stroke="black" points="708,-100.5 708,-121.5 930,-121.5 930,-100.5 708,-100.5"/>
<text text-anchor="middle" x="819" y="-108.5" font-family="Helvetica,sans-Serif" font-size="10.00">RoR::RigEditor::Main::NotifyFileSelectorEnded</text>
</a>
</g>
<!-- Node3&#45;&gt;Node4 -->
<g id="edge6" class="edge"><title>Node3&#45;&gt;Node4</title>
<path fill="none" stroke="midnightblue" d="M647.221,-111C666.965,-111 687.74,-111 707.754,-111"/>
<polygon fill="midnightblue" stroke="midnightblue" points="647,-107.5 637,-111 647,-114.5 647,-107.5"/>
</g>
<!-- Node5 -->
<g id="node9" class="node"><title>Node5</title>
<a xlink:href="class_ro_r_1_1_rig_editor_1_1_main.html#a4f73e9dc5632524ca803864460b82bb5" target="_top" xlink:title="RoR::RigEditor::Main::CommandShowDialogOpenRigFile">
<polygon fill="white" stroke="black" points="972,-120.5 972,-141.5 1240,-141.5 1240,-120.5 972,-120.5"/>
<text text-anchor="middle" x="1106" y="-128.5" font-family="Helvetica,sans-Serif" font-size="10.00">RoR::RigEditor::Main::CommandShowDialogOpenRigFile</text>
</a>
</g>
<!-- Node4&#45;&gt;Node5 -->
<g id="edge8" class="edge"><title>Node4&#45;&gt;Node5</title>
<path fill="none" stroke="midnightblue" d="M940.603,-119.474C950.893,-120.191 961.336,-120.919 971.715,-121.642"/>
<polygon fill="midnightblue" stroke="midnightblue" points="940.592,-115.965 930.372,-118.761 940.105,-122.948 940.592,-115.965"/>
</g>
<!-- Node6 -->
<g id="node11" class="node"><title>Node6</title>
<a xlink:href="class_ro_r_1_1_rig_editor_1_1_main.html#acb4af1361d9233f5ee2fa658536a7658" target="_top" xlink:title="RoR::RigEditor::Main::CommandShowDialogSaveRigFileAs">
<polygon fill="white" stroke="black" points="966.5,-80.5 966.5,-101.5 1245.5,-101.5 1245.5,-80.5 966.5,-80.5"/>
<text text-anchor="middle" x="1106" y="-88.5" font-family="Helvetica,sans-Serif" font-size="10.00">RoR::RigEditor::Main::CommandShowDialogSaveRigFileAs</text>
</a>
</g>
<!-- Node4&#45;&gt;Node6 -->
<g id="edge10" class="edge"><title>Node4&#45;&gt;Node6</title>
<path fill="none" stroke="midnightblue" d="M940.409,-102.539C949.007,-101.94 957.713,-101.334 966.401,-100.728"/>
<polygon fill="midnightblue" stroke="midnightblue" points="940.105,-99.052 930.372,-103.239 940.592,-106.035 940.105,-99.052"/>
</g>
<!-- Node9 -->
<g id="node17" class="node"><title>Node9</title>
<a xlink:href="class_ro_r_1_1_rig_editor_1_1_rig.html#a3c57ce426944230414c3b6bc6afad637" target="_top" xlink:title="RoR::RigEditor::Rig::ExtrudeSelectedNodes">
<polygon fill="white" stroke="black" points="439.5,-20.5 439.5,-41.5 650.5,-41.5 650.5,-20.5 439.5,-20.5"/>
<text text-anchor="middle" x="545" y="-28.5" font-family="Helvetica,sans-Serif" font-size="10.00">RoR::RigEditor::Rig::ExtrudeSelectedNodes</text>
</a>
</g>
<!-- Node8&#45;&gt;Node9 -->
<g id="edge16" class="edge"><title>Node8&#45;&gt;Node9</title>
<path fill="none" stroke="midnightblue" d="M391.906,-31C407.436,-31 423.479,-31 439.072,-31"/>
<polygon fill="midnightblue" stroke="midnightblue" points="391.784,-27.5001 381.784,-31 391.784,-34.5001 391.784,-27.5001"/>
</g>
<!-- Node10 -->
<g id="node19" class="node"><title>Node10</title>
<a xlink:href="class_ro_r_1_1_rig_editor_1_1_main.html#abe2179248ae5a8d9fc4a8ed136a18c46" target="_top" xlink:title="RoR::RigEditor::Main::UpdateMainLoop">
<polygon fill="white" stroke="black" points="724,-20.5 724,-41.5 914,-41.5 914,-20.5 724,-20.5"/>
<text text-anchor="middle" x="819" y="-28.5" font-family="Helvetica,sans-Serif" font-size="10.00">RoR::RigEditor::Main::UpdateMainLoop</text>
</a>
</g>
<!-- Node9&#45;&gt;Node10 -->
<g id="edge18" class="edge"><title>Node9&#45;&gt;Node10</title>
<path fill="none" stroke="midnightblue" d="M660.792,-31C681.799,-31 703.487,-31 723.817,-31"/>
<polygon fill="midnightblue" stroke="midnightblue" points="660.544,-27.5001 650.544,-31 660.544,-34.5001 660.544,-27.5001"/>
</g>
<!-- Node11 -->
<g id="node21" class="node"><title>Node11</title>
<a xlink:href="class_ro_r_1_1_rig_editor_1_1_main.html#a8cd11f0150b5e247b6d9f00212d42b0d" target="_top" xlink:title="RoR::RigEditor::Main::EnterMainLoop">
<polygon fill="white" stroke="black" points="1015,-20.5 1015,-41.5 1197,-41.5 1197,-20.5 1015,-20.5"/>
<text text-anchor="middle" x="1106" y="-28.5" font-family="Helvetica,sans-Serif" font-size="10.00">RoR::RigEditor::Main::EnterMainLoop</text>
</a>
</g>
<!-- Node10&#45;&gt;Node11 -->
<g id="edge20" class="edge"><title>Node10&#45;&gt;Node11</title>
<path fill="none" stroke="midnightblue" d="M924.169,-31C953.952,-31 986.112,-31 1014.98,-31"/>
<polygon fill="midnightblue" stroke="midnightblue" points="924.168,-27.5001 914.168,-31 924.168,-34.5001 924.168,-27.5001"/>
</g>
<!-- Node12 -->
<g id="node23" class="node"><title>Node12</title>
<a xlink:href="class_ro_r_1_1_main_thread.html#a7e4d0bd23a40e509892883af75ea0dbf" target="_top" xlink:title="RoR::MainThread::Go">
<polygon fill="white" stroke="black" points="1282.5,-20.5 1282.5,-41.5 1395.5,-41.5 1395.5,-20.5 1282.5,-20.5"/>
<text text-anchor="middle" x="1339" y="-28.5" font-family="Helvetica,sans-Serif" font-size="10.00">RoR::MainThread::Go</text>
</a>
</g>
<!-- Node11&#45;&gt;Node12 -->
<g id="edge22" class="edge"><title>Node11&#45;&gt;Node12</title>
<path fill="none" stroke="midnightblue" d="M1207.26,-31C1232.97,-31 1259.69,-31 1282.29,-31"/>
<polygon fill="midnightblue" stroke="midnightblue" points="1207.08,-27.5001 1197.08,-31 1207.08,-34.5001 1207.08,-27.5001"/>
</g>
<!-- Node13 -->
<g id="node25" class="node"><title>Node13</title>
<a xlink:href="main_2main__sim_2main_8cpp.html#a0ddf1224851353fc92bfbff6f499fa97" target="_top" xlink:title="main">
<polygon fill="white" stroke="black" points="1498,-40.5 1498,-61.5 1536,-61.5 1536,-40.5 1498,-40.5"/>
<text text-anchor="middle" x="1517" y="-48.5" font-family="Helvetica,sans-Serif" font-size="10.00">main</text>
</a>
</g>
<!-- Node12&#45;&gt;Node13 -->
<g id="edge24" class="edge"><title>Node12&#45;&gt;Node13</title>
<path fill="none" stroke="midnightblue" d="M1405.83,-38.5095C1438.65,-42.1966 1475.76,-46.3661 1497.72,-48.8341"/>
<polygon fill="midnightblue" stroke="midnightblue" points="1406.14,-35.0217 1395.81,-37.3831 1405.36,-41.9779 1406.14,-35.0217"/>
</g>
<!-- Node14 -->
<g id="node27" class="node"><title>Node14</title>
<a xlink:href="class_ro_r_1_1_main_thread.html#a7a2db954fd2f35d63982d8603d2b9614" target="_top" xlink:title="RoR::MainThread::RequestRestart">
<polygon fill="white" stroke="black" points="1432.5,-0.5 1432.5,-21.5 1601.5,-21.5 1601.5,-0.5 1432.5,-0.5"/>
<text text-anchor="middle" x="1517" y="-8.5" font-family="Helvetica,sans-Serif" font-size="10.00">RoR::MainThread::RequestRestart</text>
</a>
</g>
<!-- Node12&#45;&gt;Node14 -->
<g id="edge26" class="edge"><title>Node12&#45;&gt;Node14</title>
<path fill="none" stroke="midnightblue" d="M1405.78,-23.4972C1414.4,-22.5283 1423.32,-21.5259 1432.18,-20.5298"/>
<polygon fill="midnightblue" stroke="midnightblue" points="1405.36,-20.0221 1395.81,-24.6169 1406.14,-26.9783 1405.36,-20.0221"/>
</g>
<!-- Node15 -->
<g id="node29" class="node"><title>Node15</title>
<a xlink:href="class_ro_r_frame_listener.html#af2779b96aa0f91920bd100bc30261402" target="_top" xlink:title="RoRFrameListener::Restart">
<polygon fill="white" stroke="black" points="1638.5,-0.5 1638.5,-21.5 1775.5,-21.5 1775.5,-0.5 1638.5,-0.5"/>
<text text-anchor="middle" x="1707" y="-8.5" font-family="Helvetica,sans-Serif" font-size="10.00">RoRFrameListener::Restart</text>
</a>
</g>
<!-- Node14&#45;&gt;Node15 -->
<g id="edge28" class="edge"><title>Node14&#45;&gt;Node15</title>
<path fill="none" stroke="midnightblue" d="M1611.82,-11C1620.78,-11 1629.75,-11 1638.4,-11"/>
<polygon fill="midnightblue" stroke="midnightblue" points="1611.72,-7.5001 1601.72,-11 1611.72,-14.5001 1611.72,-7.5001"/>
</g>
</g>
</svg>
        <g id="navigator" transform="translate(0 0)" fill="#404254">
                <rect fill="#f2f5e9" fill-opacity="0.5" stroke="#606060" stroke-width=".5" x="0" y="0" width="60" height="60"/>
                <use id="zoomplus" xlink:href="#zoomPlus" x="17" y="9" onmousedown="handleZoom(evt,'in')"/>
                <use id="zoomminus" xlink:href="#zoomMin" x="42" y="9" onmousedown="handleZoom(evt,'out')"/>
                <use id="reset" xlink:href="#resetDef" x="30" y="36" onmousedown="handleReset()"/>
                <g id="arrowUp" xlink:href="#dirArrow" transform="translate(30 24)" onmousedown="handlePan(0,-1)">
                  <use xlink:href="#rim" fill="#404040">
                        <set attributeName="fill" to="#808080" begin="arrowUp.mouseover" end="arrowUp.mouseout"/>
                  </use>
                  <path fill="none" stroke="white" stroke-width="1.5" d="M0,-3.0v7 M-2.5,-0.5L0,-3.0L2.5,-0.5"/>
                </g>
                <g id="arrowRight" xlink:href="#dirArrow" transform="rotate(90) translate(36 -43)" onmousedown="handlePan(1,0)">
                  <use xlink:href="#rim" fill="#404040">
                        <set attributeName="fill" to="#808080" begin="arrowRight.mouseover" end="arrowRight.mouseout"/>
                  </use>
                  <path fill="none" stroke="white" stroke-width="1.5" d="M0,-3.0v7 M-2.5,-0.5L0,-3.0L2.5,-0.5"/>
                </g>
                <g id="arrowDown" xlink:href="#dirArrow" transform="rotate(180) translate(-30 -48)" onmousedown="handlePan(0,1)">
                  <use xlink:href="#rim" fill="#404040">
                        <set attributeName="fill" to="#808080" begin="arrowDown.mouseover" end="arrowDown.mouseout"/>
                  </use>
                  <path fill="none" stroke="white" stroke-width="1.5" d="M0,-3.0v7 M-2.5,-0.5L0,-3.0L2.5,-0.5"/>
                </g>
                <g id="arrowLeft" xlink:href="#dirArrow" transform="rotate(270) translate(-36 17)" onmousedown="handlePan(-1,0)">
                  <use xlink:href="#rim" fill="#404040">
                        <set attributeName="fill" to="#808080" begin="arrowLeft.mouseover" end="arrowLeft.mouseout"/>
                  </use>
                  <path fill="none" stroke="white" stroke-width="1.5" d="M0,-3.0v7 M-2.5,-0.5L0,-3.0L2.5,-0.5"/>
                </g>
        </g>
</svg>
