<?xml version="1.0" encoding="UTF-8" standalone="no"?>
<!DOCTYPE svg PUBLIC "-//W3C//DTD SVG 1.1//EN"
 "http://www.w3.org/Graphics/SVG/1.1/DTD/svg11.dtd">
<!-- Generated by graphviz version 2.26.3 (20100126.1600)
 -->
<!-- Title: RoR::GUI::RigSpawnerReportWindow::RigSpawnerReportWindow Pages: 1 -->
<svg width="574pt" height="82pt"
 viewBox="0.00 0.00 574.00 82.00" xmlns="http://www.w3.org/2000/svg" xmlns:xlink="http://www.w3.org/1999/xlink">
<g id="graph1" class="graph" transform="scale(1 1) rotate(0) translate(4 78)">
<title>RoR::GUI::RigSpawnerReportWindow::RigSpawnerReportWindow</title>
<polygon fill="white" stroke="white" points="-4,5 -4,-78 571,-78 571,5 -4,5"/>
<!-- Node1 -->
<g id="node1" class="node"><title>Node1</title>
<polygon fill="#bfbfbf" stroke="black" points="0,-17 0,-51 176,-51 176,-17 0,-17"/>
<text text-anchor="start" x="8" y="-38" font-family="Helvetica,sans-Serif" font-size="10.00">RoR::GUI::RigSpawnerReport</text>
<text text-anchor="middle" x="88" y="-25" font-family="Helvetica,sans-Serif" font-size="10.00">Window::RigSpawnerReportWindow</text>
</g>
<!-- Node2 -->
<g id="node3" class="node"><title>Node2</title>
<a xlink:href="class_ro_r_1_1_g_u_i_1_1_rig_spawner_report_window.html#ab97bfe2264cb9cd5a8560e47a9766e93" target="_top" xlink:title="RoR::GUI::RigSpawnerReport\lWindow::WindowButtonClicked">
<polygon fill="white" stroke="black" points="212.5,-40 212.5,-74 367.5,-74 367.5,-40 212.5,-40"/>
<text text-anchor="start" x="220.5" y="-61" font-family="Helvetica,sans-Serif" font-size="10.00">RoR::GUI::RigSpawnerReport</text>
<text text-anchor="middle" x="290" y="-48" font-family="Helvetica,sans-Serif" font-size="10.00">Window::WindowButtonClicked</text>
</a>
</g>
<!-- Node1&#45;&gt;Node2 -->
<g id="edge2" class="edge"><title>Node1&#45;&gt;Node2</title>
<path fill="none" stroke="midnightblue" d="M176.013,-44.0212C184.724,-45.0131 193.566,-46.0199 202.275,-47.0115"/>
<polygon fill="midnightblue" stroke="midnightblue" points="202.089,-50.5128 212.421,-48.1667 202.881,-43.5578 202.089,-50.5128"/>
</g>
<!-- Node4 -->
<g id="node7" class="node"><title>Node4</title>
<a xlink:href="class_ro_r_1_1_gui_panel_base.html#a892310a2b92bdafbb83287b0c906b3a8" target="_top" xlink:title="RoR::GuiPanelBase::Hide">
<polygon fill="white" stroke="black" points="224.5,-0.5 224.5,-21.5 355.5,-21.5 355.5,-0.5 224.5,-0.5"/>
<text text-anchor="middle" x="290" y="-8.5" font-family="Helvetica,sans-Serif" font-size="10.00">RoR::GuiPanelBase::Hide</text>
</a>
</g>
<!-- Node1&#45;&gt;Node4 -->
<g id="edge6" class="edge"><title>Node1&#45;&gt;Node4</title>
<path fill="none" stroke="midnightblue" d="M176.013,-23.9788C188.721,-22.5318 201.708,-21.053 214.151,-19.6362"/>
<polygon fill="midnightblue" stroke="midnightblue" points="214.918,-23.0716 224.458,-18.4627 214.126,-16.1166 214.918,-23.0716"/>
</g>
<!-- Node3 -->
<g id="node5" class="node"><title>Node3</title>
<a xlink:href="class_ro_r_1_1_gui_manager_interface.html#a2a8e24c1aa2b5a87e39f5441c5a8280e" target="_top" xlink:title="RoR::GuiManagerInterface\l::HideRigSpawnerReportWindow">
<polygon fill="white" stroke="black" points="404.5,-40 404.5,-74 565.5,-74 565.5,-40 404.5,-40"/>
<text text-anchor="start" x="412.5" y="-61" font-family="Helvetica,sans-Serif" font-size="10.00">RoR::GuiManagerInterface</text>
<text text-anchor="middle" x="485" y="-48" font-family="Helvetica,sans-Serif" font-size="10.00">::HideRigSpawnerReportWindow</text>
</a>
</g>
<!-- Node2&#45;&gt;Node3 -->
<g id="edge4" class="edge"><title>Node2&#45;&gt;Node3</title>
<path fill="none" stroke="midnightblue" d="M367.629,-57C376.427,-57 385.449,-57 394.394,-57"/>
<polygon fill="midnightblue" stroke="midnightblue" points="394.444,-60.5001 404.444,-57 394.444,-53.5001 394.444,-60.5001"/>
</g>
</g>
</svg>
