<?xml version="1.0" encoding="UTF-8" standalone="no"?>
<!DOCTYPE svg PUBLIC "-//W3C//DTD SVG 1.1//EN"
 "http://www.w3.org/Graphics/SVG/1.1/DTD/svg11.dtd">
<!-- Generated by graphviz version 2.26.3 (20100126.1600)
 -->
<!-- Title: G Pages: 1 -->
<!--zoomable 418 -->
<svg id="main" version="1.1" xmlns="http://www.w3.org/2000/svg" xmlns:xlink="http://www.w3.org/1999/xlink" xml:space="preserve" onload="init(evt)">
        <defs>
                <circle id="rim" cx="0" cy="0" r="7"/>
                <circle id="rim2" cx="0" cy="0" r="3.5"/>
                <g id="zoomPlus">
                        <use xlink:href="#rim" fill="#404040">
                                <set attributeName="fill" to="#808080" begin="zoomplus.mouseover" end="zoomplus.mouseout"/>
                        </use>
                        <path d="M-4,0h8M0,-4v8" fill="none" stroke="white" stroke-width="1.5" pointer-events="none"/>
                </g>
                <g id="zoomMin">
                        <use xlink:href="#rim" fill="#404040">
                                <set attributeName="fill" to="#808080" begin="zoomminus.mouseover" end="zoomminus.mouseout"/>
                        </use>
                        <path d="M-4,0h8" fill="none" stroke="white" stroke-width="1.5" pointer-events="none"/>
                </g>
                <g id="dirArrow">
                        <path fill="none" stroke="white" stroke-width="1.5" d="M0,-3.0v7 M-2.5,-0.5L0,-3.0L2.5,-0.5"/>
                </g>
               <g id="resetDef">
                       <use xlink:href="#rim2" fill="#404040">
                               <set attributeName="fill" to="#808080" begin="reset.mouseover" end="reset.mouseout"/>
                       </use>
               </g>
        </defs>

<script type="text/javascript">
var viewWidth = 618;
var viewHeight = 418;
var sectionId = 'dynsection-0';
</script>
<script xlink:href="svgpan.js"/>
<svg id="graph" class="graph">
<g id="viewport">
<title>G</title>
<polygon fill="white" stroke="white" points="-4,5 -4,-414.384 615,-414.384 615,5 -4,5"/>
<!-- Node1 -->
<g id="node1" class="node"><title>Node1</title>
<polygon fill="#bfbfbf" stroke="black" points="462.5,-192.884 462.5,-213.884 609.5,-213.884 609.5,-192.884 462.5,-192.884"/>
<text text-anchor="middle" x="536" y="-200.884" font-family="Helvetica,sans-Serif" font-size="10.00">Ogre::ShaderParticleRenderer</text>
</g>
<!-- Node2 -->
<g id="node2" class="node"><title>Node2</title>
<a xlink:href="class_ogre_1_1_shader_particle_renderer_1_1_cmd_vertex_format_rotation_speed.html" target="_top" xlink:title="rotation speed (rad/s)">
<polygon fill="white" stroke="black" points="0,-372.884 0,-393.884 298,-393.884 298,-372.884 0,-372.884"/>
<text text-anchor="middle" x="149" y="-380.884" font-family="Helvetica,sans-Serif" font-size="10.00">Ogre::ShaderParticleRenderer::CmdVertexFormatRotationSpeed</text>
</a>
</g>
<!-- Node2&#45;&gt;Node1 -->
<g id="edge2" class="edge"><title>Node2&#45;&gt;Node1</title>
<path fill="none" stroke="#9a32cd" stroke-dasharray="5,2" d="M215.869,-395.161C279.481,-402.72 375.393,-404.3 444,-361.384 499.974,-326.371 525.725,-243.95 533.413,-214.272"/>
<polygon fill="#9a32cd" stroke="#9a32cd" points="216.307,-391.689 205.946,-393.902 215.426,-398.633 216.307,-391.689"/>
<text text-anchor="middle" x="380" y="-401.384" font-family="Helvetica,sans-Serif" font-size="10.00"> msVertexFmtRotationSpeed</text>
</g>
<!-- Node3 -->
<g id="node4" class="node"><title>Node3</title>
<a xlink:href="class_ogre_1_1_shader_particle_renderer_1_1_cmd_vertex_format_total_t_t_l.html" target="_top" xlink:title="total time&#45;to&#45;live">
<polygon fill="white" stroke="black" points="13,-332.884 13,-353.884 285,-353.884 285,-332.884 13,-332.884"/>
<text text-anchor="middle" x="149" y="-340.884" font-family="Helvetica,sans-Serif" font-size="10.00">Ogre::ShaderParticleRenderer::CmdVertexFormatTotalTTL</text>
</a>
</g>
<!-- Node3&#45;&gt;Node1 -->
<g id="edge4" class="edge"><title>Node3&#45;&gt;Node1</title>
<path fill="none" stroke="#9a32cd" stroke-dasharray="5,2" d="M295.39,-349.609C344.955,-346.236 399.087,-336.181 444,-312.384 487.325,-289.428 518.667,-236.778 530.644,-214.099"/>
<polygon fill="#9a32cd" stroke="#9a32cd" points="294.99,-346.126 285.215,-350.213 295.405,-353.114 294.99,-346.126"/>
<text text-anchor="middle" x="380" y="-350.384" font-family="Helvetica,sans-Serif" font-size="10.00"> msVertexFmtTotalTTL</text>
</g>
<!-- Node4 -->
<g id="node6" class="node"><title>Node4</title>
<a xlink:href="class_ogre_1_1_shader_particle_renderer_1_1_cmd_vertex_format_texture.html" target="_top" xlink:title="general texture coord">
<polygon fill="white" stroke="black" points="16,-292.884 16,-313.884 282,-313.884 282,-292.884 16,-292.884"/>
<text text-anchor="middle" x="149" y="-300.884" font-family="Helvetica,sans-Serif" font-size="10.00">Ogre::ShaderParticleRenderer::CmdVertexFormatTexture</text>
</a>
</g>
<!-- Node4&#45;&gt;Node1 -->
<g id="edge6" class="edge"><title>Node4&#45;&gt;Node1</title>
<path fill="none" stroke="#9a32cd" stroke-dasharray="5,2" d="M292.309,-299.111C341.613,-294.092 396.367,-284.455 444,-266.384 476.217,-254.162 508.111,-228.478 524.555,-213.962"/>
<polygon fill="#9a32cd" stroke="#9a32cd" points="291.819,-295.642 282.201,-300.084 292.49,-302.61 291.819,-295.642"/>
<text text-anchor="middle" x="380" y="-299.384" font-family="Helvetica,sans-Serif" font-size="10.00"> msVertexFmtTexture</text>
</g>
<!-- Node5 -->
<g id="node8" class="node"><title>Node5</title>
<a xlink:href="class_ogre_1_1_shader_particle_renderer_1_1_cmd_vertex_format_time_frag_inv.html" target="_top" xlink:title="1.0f &#45; TTL / total_TTL">
<polygon fill="white" stroke="black" points="5,-252.884 5,-273.884 293,-273.884 293,-252.884 5,-252.884"/>
<text text-anchor="middle" x="149" y="-260.884" font-family="Helvetica,sans-Serif" font-size="10.00">Ogre::ShaderParticleRenderer::CmdVertexFormatTimeFragInv</text>
</a>
</g>
<!-- Node5&#45;&gt;Node1 -->
<g id="edge8" class="edge"><title>Node5&#45;&gt;Node1</title>
<path fill="none" stroke="#9a32cd" stroke-dasharray="5,2" d="M303.103,-252.172C348.737,-247.373 398.625,-240.665 444,-231.384 465.264,-227.035 488.656,-219.883 506.532,-213.895"/>
<polygon fill="#9a32cd" stroke="#9a32cd" points="302.719,-248.693 293.13,-253.198 303.435,-255.656 302.719,-248.693"/>
<text text-anchor="middle" x="380" y="-253.384" font-family="Helvetica,sans-Serif" font-size="10.00"> msVertexFmtTimeFragInv</text>
</g>
<!-- Node6 -->
<g id="node10" class="node"><title>Node6</title>
<a xlink:href="class_ogre_1_1_shader_particle_renderer_1_1_cmd_vertex_format_rotation.html" target="_top" xlink:title="rotation">
<polygon fill="white" stroke="black" points="14,-212.884 14,-233.884 284,-233.884 284,-212.884 14,-212.884"/>
<text text-anchor="middle" x="149" y="-220.884" font-family="Helvetica,sans-Serif" font-size="10.00">Ogre::ShaderParticleRenderer::CmdVertexFormatRotation</text>
</a>
</g>
<!-- Node6&#45;&gt;Node1 -->
<g id="edge10" class="edge"><title>Node6&#45;&gt;Node1</title>
<path fill="none" stroke="#9a32cd" stroke-dasharray="5,2" d="M294.327,-215.874C351.594,-212.914 414.872,-209.644 462.309,-207.192"/>
<polygon fill="#9a32cd" stroke="#9a32cd" points="293.888,-212.392 284.082,-216.403 294.249,-219.382 293.888,-212.392"/>
<text text-anchor="middle" x="380" y="-218.384" font-family="Helvetica,sans-Serif" font-size="10.00"> msVertexFmtRotation</text>
</g>
<!-- Node7 -->
<g id="node12" class="node"><title>Node7</title>
<a xlink:href="class_ogre_1_1_shader_particle_renderer_1_1_cmd_vertex_format_colour.html" target="_top" xlink:title="Ogre::ShaderParticleRenderer::CmdVertexFormatColour">
<polygon fill="white" stroke="black" points="18,-172.884 18,-193.884 280,-193.884 280,-172.884 18,-172.884"/>
<text text-anchor="middle" x="149" y="-180.884" font-family="Helvetica,sans-Serif" font-size="10.00">Ogre::ShaderParticleRenderer::CmdVertexFormatColour</text>
</a>
</g>
<!-- Node7&#45;&gt;Node1 -->
<g id="edge12" class="edge"><title>Node7&#45;&gt;Node1</title>
<path fill="none" stroke="#9a32cd" stroke-dasharray="5,2" d="M290.534,-183.396C339.237,-184.288 394.069,-186.278 444,-190.384 451.717,-191.019 459.774,-191.872 467.773,-192.841"/>
<polygon fill="#9a32cd" stroke="#9a32cd" points="290.297,-179.891 280.239,-183.222 290.178,-186.89 290.297,-179.891"/>
<text text-anchor="middle" x="380" y="-194.384" font-family="Helvetica,sans-Serif" font-size="10.00"> msVertexFmtColour</text>
</g>
<!-- Node8 -->
<g id="node14" class="node"><title>Node8</title>
<a xlink:href="class_ogre_1_1_shader_particle_renderer_1_1_cmd_vertex_format_t_t_l.html" target="_top" xlink:title="time&#45;to&#45;live">
<polygon fill="white" stroke="black" points="23.5,-132.884 23.5,-153.884 274.5,-153.884 274.5,-132.884 23.5,-132.884"/>
<text text-anchor="middle" x="149" y="-140.884" font-family="Helvetica,sans-Serif" font-size="10.00">Ogre::ShaderParticleRenderer::CmdVertexFormatTTL</text>
</a>
</g>
<!-- Node8&#45;&gt;Node1 -->
<g id="edge14" class="edge"><title>Node8&#45;&gt;Node1</title>
<path fill="none" stroke="#9a32cd" stroke-dasharray="5,2" d="M284.813,-145.329C335.315,-148.305 392.772,-154.384 444,-166.384 469.31,-172.313 496.771,-184.12 515.039,-192.809"/>
<polygon fill="#9a32cd" stroke="#9a32cd" points="284.988,-141.834 274.809,-144.775 284.6,-148.823 284.988,-141.834"/>
<text text-anchor="middle" x="380" y="-170.384" font-family="Helvetica,sans-Serif" font-size="10.00"> msVertexFmtTTL</text>
</g>
<!-- Node9 -->
<g id="node16" class="node"><title>Node9</title>
<a xlink:href="class_ogre_1_1_shader_particle_renderer_1_1_cmd_vertex_format_direction.html" target="_top" xlink:title="direction">
<polygon fill="white" stroke="black" points="13,-92.8841 13,-113.884 285,-113.884 285,-92.8841 13,-92.8841"/>
<text text-anchor="middle" x="149" y="-100.884" font-family="Helvetica,sans-Serif" font-size="10.00">Ogre::ShaderParticleRenderer::CmdVertexFormatDirection</text>
</a>
</g>
<!-- Node9&#45;&gt;Node1 -->
<g id="edge16" class="edge"><title>Node9&#45;&gt;Node1</title>
<path fill="none" stroke="#9a32cd" stroke-dasharray="5,2" d="M295.349,-100.218C344.053,-103.453 397.661,-111.821 444,-130.384 478.826,-144.335 511.117,-175.943 526.526,-192.62"/>
<polygon fill="#9a32cd" stroke="#9a32cd" points="295.548,-96.7237 285.357,-99.6207 295.13,-103.711 295.548,-96.7237"/>
<text text-anchor="middle" x="380" y="-134.384" font-family="Helvetica,sans-Serif" font-size="10.00"> msVertexFmtDirection</text>
</g>
<!-- Node10 -->
<g id="node18" class="node"><title>Node10</title>
<a xlink:href="class_ogre_1_1_shader_particle_renderer_1_1_cmd_vertex_format_time_frag.html" target="_top" xlink:title="TTL / total_TTL.">
<polygon fill="white" stroke="black" points="11.5,-52.8841 11.5,-73.8841 286.5,-73.8841 286.5,-52.8841 11.5,-52.8841"/>
<text text-anchor="middle" x="149" y="-60.8841" font-family="Helvetica,sans-Serif" font-size="10.00">Ogre::ShaderParticleRenderer::CmdVertexFormatTimeFrag</text>
</a>
</g>
<!-- Node10&#45;&gt;Node1 -->
<g id="edge18" class="edge"><title>Node10&#45;&gt;Node1</title>
<path fill="none" stroke="#9a32cd" stroke-dasharray="5,2" d="M230.059,-51.9904C292.251,-47.1513 378.3,-49.1825 444,-84.3841 490.267,-109.173 520.595,-168.396 531.492,-192.699"/>
<polygon fill="#9a32cd" stroke="#9a32cd" points="229.567,-48.5195 219.901,-52.8579 230.163,-55.4942 229.567,-48.5195"/>
<text text-anchor="middle" x="380" y="-88.3841" font-family="Helvetica,sans-Serif" font-size="10.00"> msVertexFmtTimeFrag</text>
</g>
<!-- Node11 -->
<g id="node20" class="node"><title>Node11</title>
<a xlink:href="class_ogre_1_1_shader_particle_renderer_1_1_cmd_vertex_format_size.html" target="_top" xlink:title="particle size">
<polygon fill="white" stroke="black" points="22.5,-12.8841 22.5,-33.8841 275.5,-33.8841 275.5,-12.8841 22.5,-12.8841"/>
<text text-anchor="middle" x="149" y="-20.8841" font-family="Helvetica,sans-Serif" font-size="10.00">Ogre::ShaderParticleRenderer::CmdVertexFormatSize</text>
</a>
</g>
<!-- Node11&#45;&gt;Node1 -->
<g id="edge20" class="edge"><title>Node11&#45;&gt;Node1</title>
<path fill="none" stroke="#9a32cd" stroke-dasharray="5,2" d="M200.873,-10.8442C263.52,1.24023 369.72,11.647 444,-34.3841 503.631,-71.3372 527.338,-161.386 533.932,-192.555"/>
<polygon fill="#9a32cd" stroke="#9a32cd" points="199.94,-7.46184 190.828,-12.8686 201.323,-14.3239 199.94,-7.46184"/>
<text text-anchor="middle" x="380" y="-38.3841" font-family="Helvetica,sans-Serif" font-size="10.00"> msVertexFmtSize</text>
</g>
</g>
</svg>
        <g id="navigator" transform="translate(0 0)" fill="#404254">
                <rect fill="#f2f5e9" fill-opacity="0.5" stroke="#606060" stroke-width=".5" x="0" y="0" width="60" height="60"/>
                <use id="zoomplus" xlink:href="#zoomPlus" x="17" y="9" onmousedown="handleZoom(evt,'in')"/>
                <use id="zoomminus" xlink:href="#zoomMin" x="42" y="9" onmousedown="handleZoom(evt,'out')"/>
                <use id="reset" xlink:href="#resetDef" x="30" y="36" onmousedown="handleReset()"/>
                <g id="arrowUp" xlink:href="#dirArrow" transform="translate(30 24)" onmousedown="handlePan(0,-1)">
                  <use xlink:href="#rim" fill="#404040">
                        <set attributeName="fill" to="#808080" begin="arrowUp.mouseover" end="arrowUp.mouseout"/>
                  </use>
                  <path fill="none" stroke="white" stroke-width="1.5" d="M0,-3.0v7 M-2.5,-0.5L0,-3.0L2.5,-0.5"/>
                </g>
                <g id="arrowRight" xlink:href="#dirArrow" transform="rotate(90) translate(36 -43)" onmousedown="handlePan(1,0)">
                  <use xlink:href="#rim" fill="#404040">
                        <set attributeName="fill" to="#808080" begin="arrowRight.mouseover" end="arrowRight.mouseout"/>
                  </use>
                  <path fill="none" stroke="white" stroke-width="1.5" d="M0,-3.0v7 M-2.5,-0.5L0,-3.0L2.5,-0.5"/>
                </g>
                <g id="arrowDown" xlink:href="#dirArrow" transform="rotate(180) translate(-30 -48)" onmousedown="handlePan(0,1)">
                  <use xlink:href="#rim" fill="#404040">
                        <set attributeName="fill" to="#808080" begin="arrowDown.mouseover" end="arrowDown.mouseout"/>
                  </use>
                  <path fill="none" stroke="white" stroke-width="1.5" d="M0,-3.0v7 M-2.5,-0.5L0,-3.0L2.5,-0.5"/>
                </g>
                <g id="arrowLeft" xlink:href="#dirArrow" transform="rotate(270) translate(-36 17)" onmousedown="handlePan(-1,0)">
                  <use xlink:href="#rim" fill="#404040">
                        <set attributeName="fill" to="#808080" begin="arrowLeft.mouseover" end="arrowLeft.mouseout"/>
                  </use>
                  <path fill="none" stroke="white" stroke-width="1.5" d="M0,-3.0v7 M-2.5,-0.5L0,-3.0L2.5,-0.5"/>
                </g>
        </g>
</svg>
