<?xml version="1.0" encoding="UTF-8" standalone="no"?>
<!DOCTYPE svg PUBLIC "-//W3C//DTD SVG 1.1//EN"
 "http://www.w3.org/Graphics/SVG/1.1/DTD/svg11.dtd">
<!-- Generated by graphviz version 2.26.3 (20100126.1600)
 -->
<!-- Title: G Pages: 1 -->
<svg width="372pt" height="70pt"
 viewBox="0.00 0.00 372.00 70.00" xmlns="http://www.w3.org/2000/svg" xmlns:xlink="http://www.w3.org/1999/xlink">
<g id="graph1" class="graph" transform="scale(1 1) rotate(0) translate(4 66)">
<title>G</title>
<polygon fill="white" stroke="white" points="-4,5 -4,-66 369,-66 369,5 -4,5"/>
<!-- Node1 -->
<g id="node1" class="node"><title>Node1</title>
<polygon fill="#bfbfbf" stroke="black" points="0,-20.5 0,-41.5 160,-41.5 160,-20.5 0,-20.5"/>
<text text-anchor="middle" x="80" y="-28.5" font-family="Helvetica,sans-Serif" font-size="10.00">TerrainManager::getTerrainName</text>
</g>
<!-- Node2 -->
<g id="node3" class="node"><title>Node2</title>
<a xlink:href="class_cache_system.html#a8c919d3618cc1b8924fc17f2c8cf4155" target="_top" xlink:title="CacheSystem::fillTerrainDetailInfo">
<polygon fill="white" stroke="black" points="196.5,-40.5 196.5,-61.5 363.5,-61.5 363.5,-40.5 196.5,-40.5"/>
<text text-anchor="middle" x="280" y="-48.5" font-family="Helvetica,sans-Serif" font-size="10.00">CacheSystem::fillTerrainDetailInfo</text>
</a>
</g>
<!-- Node1&#45;&gt;Node2 -->
<g id="edge2" class="edge"><title>Node1&#45;&gt;Node2</title>
<path fill="none" stroke="midnightblue" d="M170.266,-40.0266C178.896,-40.8896 187.624,-41.7624 196.189,-42.6189"/>
<polygon fill="midnightblue" stroke="midnightblue" points="170.494,-36.532 160.195,-39.0195 169.797,-43.4973 170.494,-36.532"/>
</g>
<!-- Node3 -->
<g id="node5" class="node"><title>Node3</title>
<a xlink:href="class_game_script.html#a310cb78a33cc17d2e25360b6a865c908" target="_top" xlink:title="GameScript::getLoadedTerrain">
<polygon fill="white" stroke="black" points="205.5,-0.5 205.5,-21.5 354.5,-21.5 354.5,-0.5 205.5,-0.5"/>
<text text-anchor="middle" x="280" y="-8.5" font-family="Helvetica,sans-Serif" font-size="10.00">GameScript::getLoadedTerrain</text>
</a>
</g>
<!-- Node1&#45;&gt;Node3 -->
<g id="edge4" class="edge"><title>Node1&#45;&gt;Node3</title>
<path fill="none" stroke="midnightblue" d="M170.393,-21.9607C182.066,-20.7934 193.916,-19.6084 205.299,-18.4701"/>
<polygon fill="midnightblue" stroke="midnightblue" points="169.797,-18.5027 160.195,-22.9805 170.494,-25.468 169.797,-18.5027"/>
</g>
</g>
</svg>
