<?xml version="1.0" encoding="UTF-8" standalone="no"?>
<!DOCTYPE svg PUBLIC "-//W3C//DTD SVG 1.1//EN"
 "http://www.w3.org/Graphics/SVG/1.1/DTD/svg11.dtd">
<!-- Generated by graphviz version 2.26.3 (20100126.1600)
 -->
<!-- Title: TerrainManager::initScripting Pages: 1 -->
<!--zoomable 93 -->
<svg id="main" version="1.1" xmlns="http://www.w3.org/2000/svg" xmlns:xlink="http://www.w3.org/1999/xlink" xml:space="preserve" onload="init(evt)">
<style type="text/css"><![CDATA[
.edge:hover path { stroke: red; }
.edge:hover polygon { stroke: red; fill: red; }
]]></style>
<script type="text/javascript"><![CDATA[
var edges = document.getElementsByTagName('g');
if (edges && edges.length) {
  for (var i=0;i<edges.length;i++) {
    if (edges[i].id.substr(0,4)=='edge') {
      edges[i].setAttribute('class','edge');
    }
  }
}
]]></script>
        <defs>
                <circle id="rim" cx="0" cy="0" r="7"/>
                <circle id="rim2" cx="0" cy="0" r="3.5"/>
                <g id="zoomPlus">
                        <use xlink:href="#rim" fill="#404040">
                                <set attributeName="fill" to="#808080" begin="zoomplus.mouseover" end="zoomplus.mouseout"/>
                        </use>
                        <path d="M-4,0h8M0,-4v8" fill="none" stroke="white" stroke-width="1.5" pointer-events="none"/>
                </g>
                <g id="zoomMin">
                        <use xlink:href="#rim" fill="#404040">
                                <set attributeName="fill" to="#808080" begin="zoomminus.mouseover" end="zoomminus.mouseout"/>
                        </use>
                        <path d="M-4,0h8" fill="none" stroke="white" stroke-width="1.5" pointer-events="none"/>
                </g>
                <g id="dirArrow">
                        <path fill="none" stroke="white" stroke-width="1.5" d="M0,-3.0v7 M-2.5,-0.5L0,-3.0L2.5,-0.5"/>
                </g>
               <g id="resetDef">
                       <use xlink:href="#rim2" fill="#404040">
                               <set attributeName="fill" to="#808080" begin="reset.mouseover" end="reset.mouseout"/>
                       </use>
               </g>
        </defs>

<script type="text/javascript">
var viewWidth = 1434;
var viewHeight = 93;
var sectionId = 'dynsection-38';
</script>
<script xlink:href="svgpan.js"/>
<svg id="graph" class="graph">
<g id="viewport">
<title>TerrainManager::initScripting</title>
<polygon fill="white" stroke="white" points="-4,5 -4,-89 1431,-89 1431,5 -4,5"/>
<!-- Node1 -->
<g id="node1" class="node"><title>Node1</title>
<polygon fill="#bfbfbf" stroke="black" points="0.5,-20.5 0.5,-41.5 141.5,-41.5 141.5,-20.5 0.5,-20.5"/>
<text text-anchor="middle" x="71" y="-28.5" font-family="Helvetica,sans-Serif" font-size="10.00">TerrainManager::initScripting</text>
</g>
<!-- Node2 -->
<g id="node3" class="node"><title>Node2</title>
<a xlink:href="class_terrain_manager.html#a13e84f666b59e55f3c67ee345bda5873" target="_top" xlink:title="TerrainManager::initSubSystems">
<polygon fill="white" stroke="black" points="178.5,-20.5 178.5,-41.5 337.5,-41.5 337.5,-20.5 178.5,-20.5"/>
<text text-anchor="middle" x="258" y="-28.5" font-family="Helvetica,sans-Serif" font-size="10.00">TerrainManager::initSubSystems</text>
</a>
</g>
<!-- Node1&#45;&gt;Node2 -->
<g id="edge2" class="edge"><title>Node1&#45;&gt;Node2</title>
<path fill="none" stroke="midnightblue" d="M151.927,-31C160.717,-31 169.659,-31 178.432,-31"/>
<polygon fill="midnightblue" stroke="midnightblue" points="151.697,-27.5001 141.697,-31 151.697,-34.5001 151.697,-27.5001"/>
</g>
<!-- Node3 -->
<g id="node5" class="node"><title>Node3</title>
<a xlink:href="class_terrain_manager.html#a9a04c837bf2ea6528c465b27ca62f730" target="_top" xlink:title="TerrainManager::loadTerrain">
<polygon fill="white" stroke="black" points="374,-20.5 374,-41.5 512,-41.5 512,-20.5 374,-20.5"/>
<text text-anchor="middle" x="443" y="-28.5" font-family="Helvetica,sans-Serif" font-size="10.00">TerrainManager::loadTerrain</text>
</a>
</g>
<!-- Node2&#45;&gt;Node3 -->
<g id="edge4" class="edge"><title>Node2&#45;&gt;Node3</title>
<path fill="none" stroke="midnightblue" d="M347.746,-31C356.477,-31 365.241,-31 373.726,-31"/>
<polygon fill="midnightblue" stroke="midnightblue" points="347.53,-27.5001 337.53,-31 347.53,-34.5001 347.53,-27.5001"/>
</g>
<!-- Node4 -->
<g id="node7" class="node"><title>Node4</title>
<a xlink:href="class_ro_r_1_1_main_thread.html#a60603be78a54ae5a24ca1c00509aca1f" target="_top" xlink:title="RoR::MainThread::LoadTerrain">
<polygon fill="white" stroke="black" points="548.5,-20.5 548.5,-41.5 699.5,-41.5 699.5,-20.5 548.5,-20.5"/>
<text text-anchor="middle" x="624" y="-28.5" font-family="Helvetica,sans-Serif" font-size="10.00">RoR::MainThread::LoadTerrain</text>
</a>
</g>
<!-- Node3&#45;&gt;Node4 -->
<g id="edge6" class="edge"><title>Node3&#45;&gt;Node4</title>
<path fill="none" stroke="midnightblue" d="M522.241,-31C530.863,-31 539.623,-31 548.201,-31"/>
<polygon fill="midnightblue" stroke="midnightblue" points="522.203,-27.5001 512.203,-31 522.203,-34.5001 522.203,-27.5001"/>
</g>
<!-- Node5 -->
<g id="node9" class="node"><title>Node5</title>
<a xlink:href="class_ro_r_1_1_main_thread.html#aa3feeebda7f3f4c31a6cb96ea60c09e0" target="_top" xlink:title="RoR::MainThread::SetupGameplayLoop">
<polygon fill="white" stroke="black" points="736.5,-40.5 736.5,-61.5 927.5,-61.5 927.5,-40.5 736.5,-40.5"/>
<text text-anchor="middle" x="832" y="-48.5" font-family="Helvetica,sans-Serif" font-size="10.00">RoR::MainThread::SetupGameplayLoop</text>
</a>
</g>
<!-- Node4&#45;&gt;Node5 -->
<g id="edge8" class="edge"><title>Node4&#45;&gt;Node5</title>
<path fill="none" stroke="midnightblue" d="M709.889,-39.2585C718.667,-40.1026 727.623,-40.9637 736.495,-41.8169"/>
<polygon fill="midnightblue" stroke="midnightblue" points="709.97,-35.7503 699.681,-38.277 709.3,-42.7182 709.97,-35.7503"/>
</g>
<!-- Node11 -->
<g id="node21" class="node"><title>Node11</title>
<a xlink:href="class_game_script.html#ac1cba3fc83facbad8281ff80d4ab0f0b" target="_top" xlink:title="GameScript::loadTerrain">
<polygon fill="white" stroke="black" points="771,-0.5 771,-21.5 893,-21.5 893,-0.5 771,-0.5"/>
<text text-anchor="middle" x="832" y="-8.5" font-family="Helvetica,sans-Serif" font-size="10.00">GameScript::loadTerrain</text>
</a>
</g>
<!-- Node4&#45;&gt;Node11 -->
<g id="edge20" class="edge"><title>Node4&#45;&gt;Node11</title>
<path fill="none" stroke="midnightblue" d="M709.639,-22.7655C730.113,-20.7969 751.567,-18.734 770.691,-16.8951"/>
<polygon fill="midnightblue" stroke="midnightblue" points="709.3,-19.2818 699.681,-23.723 709.97,-26.2497 709.3,-19.2818"/>
</g>
<!-- Node6 -->
<g id="node11" class="node"><title>Node6</title>
<a xlink:href="class_ro_r_1_1_main_thread.html#a7e4d0bd23a40e509892883af75ea0dbf" target="_top" xlink:title="RoR::MainThread::Go">
<polygon fill="white" stroke="black" points="964.5,-40.5 964.5,-61.5 1077.5,-61.5 1077.5,-40.5 964.5,-40.5"/>
<text text-anchor="middle" x="1021" y="-48.5" font-family="Helvetica,sans-Serif" font-size="10.00">RoR::MainThread::Go</text>
</a>
</g>
<!-- Node5&#45;&gt;Node6 -->
<g id="edge10" class="edge"><title>Node5&#45;&gt;Node6</title>
<path fill="none" stroke="midnightblue" d="M937.873,-51C946.928,-51 955.842,-51 964.276,-51"/>
<polygon fill="midnightblue" stroke="midnightblue" points="937.607,-47.5001 927.607,-51 937.607,-54.5001 937.607,-47.5001"/>
</g>
<!-- Node7 -->
<g id="node13" class="node"><title>Node7</title>
<a xlink:href="main_2main__sim_2main_8cpp.html#a0ddf1224851353fc92bfbff6f499fa97" target="_top" xlink:title="main">
<polygon fill="white" stroke="black" points="1164,-63.5 1164,-84.5 1202,-84.5 1202,-63.5 1164,-63.5"/>
<text text-anchor="middle" x="1183" y="-71.5" font-family="Helvetica,sans-Serif" font-size="10.00">main</text>
</a>
</g>
<!-- Node6&#45;&gt;Node7 -->
<g id="edge12" class="edge"><title>Node6&#45;&gt;Node7</title>
<path fill="none" stroke="midnightblue" d="M1087.69,-60.4687C1115.27,-64.3843 1145.14,-68.6243 1163.95,-71.2947"/>
<polygon fill="midnightblue" stroke="midnightblue" points="1088.05,-56.9848 1077.66,-59.0443 1087.07,-63.9153 1088.05,-56.9848"/>
</g>
<!-- Node9 -->
<g id="node17" class="node"><title>Node9</title>
<a xlink:href="class_ro_r_1_1_main_thread.html#a7a2db954fd2f35d63982d8603d2b9614" target="_top" xlink:title="RoR::MainThread::Request\lRestart">
<polygon fill="white" stroke="black" points="1114.5,-11 1114.5,-45 1251.5,-45 1251.5,-11 1114.5,-11"/>
<text text-anchor="start" x="1122.5" y="-32" font-family="Helvetica,sans-Serif" font-size="10.00">RoR::MainThread::Request</text>
<text text-anchor="middle" x="1183" y="-19" font-family="Helvetica,sans-Serif" font-size="10.00">Restart</text>
</a>
</g>
<!-- Node6&#45;&gt;Node9 -->
<g id="edge16" class="edge"><title>Node6&#45;&gt;Node9</title>
<path fill="none" stroke="midnightblue" d="M1087.82,-41.5126C1096.59,-40.2674 1105.59,-38.9898 1114.39,-37.7405"/>
<polygon fill="midnightblue" stroke="midnightblue" points="1087.07,-38.0847 1077.66,-42.9557 1088.05,-45.0152 1087.07,-38.0847"/>
</g>
<!-- Node8 -->
<g id="node15" class="node"><title>Node8</title>
<a xlink:href="main_2main__sim_2main_8cpp.html#a2922bc5d5c2d77a3020cfbf9df12aab0" target="_top" xlink:title="WinMain">
<polygon fill="white" stroke="black" points="1329.5,-63.5 1329.5,-84.5 1384.5,-84.5 1384.5,-63.5 1329.5,-63.5"/>
<text text-anchor="middle" x="1357" y="-71.5" font-family="Helvetica,sans-Serif" font-size="10.00">WinMain</text>
</a>
</g>
<!-- Node7&#45;&gt;Node8 -->
<g id="edge14" class="edge"><title>Node7&#45;&gt;Node8</title>
<path fill="none" stroke="midnightblue" d="M1212.56,-74C1245.23,-74 1297.44,-74 1329.33,-74"/>
<polygon fill="midnightblue" stroke="midnightblue" points="1212.29,-70.5001 1202.29,-74 1212.29,-77.5001 1212.29,-70.5001"/>
</g>
<!-- Node10 -->
<g id="node19" class="node"><title>Node10</title>
<a xlink:href="class_ro_r_frame_listener.html#af2779b96aa0f91920bd100bc30261402" target="_top" xlink:title="RoRFrameListener::Restart">
<polygon fill="white" stroke="black" points="1288.5,-17.5 1288.5,-38.5 1425.5,-38.5 1425.5,-17.5 1288.5,-17.5"/>
<text text-anchor="middle" x="1357" y="-25.5" font-family="Helvetica,sans-Serif" font-size="10.00">RoRFrameListener::Restart</text>
</a>
</g>
<!-- Node9&#45;&gt;Node10 -->
<g id="edge18" class="edge"><title>Node9&#45;&gt;Node10</title>
<path fill="none" stroke="midnightblue" d="M1262.04,-28C1270.86,-28 1279.78,-28 1288.45,-28"/>
<polygon fill="midnightblue" stroke="midnightblue" points="1261.77,-24.5001 1251.77,-28 1261.77,-31.5001 1261.77,-24.5001"/>
</g>
</g>
</svg>
        <g id="navigator" transform="translate(0 0)" fill="#404254">
                <rect fill="#f2f5e9" fill-opacity="0.5" stroke="#606060" stroke-width=".5" x="0" y="0" width="60" height="60"/>
                <use id="zoomplus" xlink:href="#zoomPlus" x="17" y="9" onmousedown="handleZoom(evt,'in')"/>
                <use id="zoomminus" xlink:href="#zoomMin" x="42" y="9" onmousedown="handleZoom(evt,'out')"/>
                <use id="reset" xlink:href="#resetDef" x="30" y="36" onmousedown="handleReset()"/>
                <g id="arrowUp" xlink:href="#dirArrow" transform="translate(30 24)" onmousedown="handlePan(0,-1)">
                  <use xlink:href="#rim" fill="#404040">
                        <set attributeName="fill" to="#808080" begin="arrowUp.mouseover" end="arrowUp.mouseout"/>
                  </use>
                  <path fill="none" stroke="white" stroke-width="1.5" d="M0,-3.0v7 M-2.5,-0.5L0,-3.0L2.5,-0.5"/>
                </g>
                <g id="arrowRight" xlink:href="#dirArrow" transform="rotate(90) translate(36 -43)" onmousedown="handlePan(1,0)">
                  <use xlink:href="#rim" fill="#404040">
                        <set attributeName="fill" to="#808080" begin="arrowRight.mouseover" end="arrowRight.mouseout"/>
                  </use>
                  <path fill="none" stroke="white" stroke-width="1.5" d="M0,-3.0v7 M-2.5,-0.5L0,-3.0L2.5,-0.5"/>
                </g>
                <g id="arrowDown" xlink:href="#dirArrow" transform="rotate(180) translate(-30 -48)" onmousedown="handlePan(0,1)">
                  <use xlink:href="#rim" fill="#404040">
                        <set attributeName="fill" to="#808080" begin="arrowDown.mouseover" end="arrowDown.mouseout"/>
                  </use>
                  <path fill="none" stroke="white" stroke-width="1.5" d="M0,-3.0v7 M-2.5,-0.5L0,-3.0L2.5,-0.5"/>
                </g>
                <g id="arrowLeft" xlink:href="#dirArrow" transform="rotate(270) translate(-36 17)" onmousedown="handlePan(-1,0)">
                  <use xlink:href="#rim" fill="#404040">
                        <set attributeName="fill" to="#808080" begin="arrowLeft.mouseover" end="arrowLeft.mouseout"/>
                  </use>
                  <path fill="none" stroke="white" stroke-width="1.5" d="M0,-3.0v7 M-2.5,-0.5L0,-3.0L2.5,-0.5"/>
                </g>
        </g>
        <svg viewBox="0 0 15 15" width="100%" height="30px" preserveAspectRatio="xMaxYMin meet">
         <g id="arrow_out" transform="scale(0.3 0.3)">
          <a xlink:href="class_terrain_manager_aab929f1c780a2f8351025987b7930a6d_icgraph_org.svg" target="_base">
           <rect id="button" ry="5" rx="5" y="6" x="6" height="38" width="38"
                fill="#f2f5e9" fill-opacity="0.5" stroke="#606060" stroke-width="1.0"/>
           <path id="arrow"
             d="M 11.500037,31.436501 C 11.940474,20.09759 22.043105,11.32322 32.158766,21.979434 L 37.068811,17.246167 C 37.068811,17.246167 37.088388,32 37.088388,32 L 22.160133,31.978069 C 22.160133,31.978069 26.997745,27.140456 26.997745,27.140456 C 18.528582,18.264221 13.291696,25.230495 11.500037,31.436501 z"
             style="fill:#404040;"/>
          </a>
         </g>
        </svg>
</svg>
