<?xml version="1.0" encoding="UTF-8" standalone="no"?>
<!DOCTYPE svg PUBLIC "-//W3C//DTD SVG 1.1//EN"
 "http://www.w3.org/Graphics/SVG/1.1/DTD/svg11.dtd">
<!-- Generated by graphviz version 2.26.3 (20100126.1600)
 -->
<!-- Title: wraps::BaseLayout Pages: 1 -->
<svg width="526pt" height="1262pt"
 viewBox="0.00 0.00 526.00 1262.00" xmlns="http://www.w3.org/2000/svg" xmlns:xlink="http://www.w3.org/1999/xlink">
<g id="graph1" class="graph" transform="scale(1 1) rotate(0) translate(4 1258)">
<title>wraps::BaseLayout</title>
<polygon fill="white" stroke="white" points="-4,5 -4,-1258 523,-1258 523,5 -4,5"/>
<!-- Node1 -->
<g id="node1" class="node"><title>Node1</title>
<polygon fill="#bfbfbf" stroke="black" points="0.5,-670.5 0.5,-691.5 101.5,-691.5 101.5,-670.5 0.5,-670.5"/>
<text text-anchor="middle" x="51" y="-678.5" font-family="Helvetica,sans-Serif" font-size="10.00">wraps::BaseLayout</text>
</g>
<!-- Node2 -->
<g id="node3" class="node"><title>Node2</title>
<a xlink:href="class_ro_r_1_1_g_u_i_1_1_debug_options_layout.html" target="_top" xlink:title="RoR::GUI::DebugOptionsLayout">
<polygon fill="white" stroke="black" points="146,-1232.5 146,-1253.5 304,-1253.5 304,-1232.5 146,-1232.5"/>
<text text-anchor="middle" x="225" y="-1240.5" font-family="Helvetica,sans-Serif" font-size="10.00">RoR::GUI::DebugOptionsLayout</text>
</a>
</g>
<!-- Node1&#45;&gt;Node2 -->
<g id="edge2" class="edge"><title>Node1&#45;&gt;Node2</title>
<path fill="none" stroke="midnightblue" d="M51.3467,-701.872C53.2741,-791.835 65.4246,-1145.41 138,-1223 141.494,-1226.74 145.532,-1229.84 149.917,-1232.41"/>
<polygon fill="midnightblue" stroke="midnightblue" points="54.8451,-701.748 51.1516,-691.818 47.8464,-701.884 54.8451,-701.748"/>
</g>
<!-- Node4 -->
<g id="node7" class="node"><title>Node4</title>
<a xlink:href="class_ro_r_1_1_g_u_i_1_1_dialog.html" target="_top" xlink:title="RoR::GUI::Dialog">
<polygon fill="white" stroke="black" points="177.5,-1192.5 177.5,-1213.5 272.5,-1213.5 272.5,-1192.5 177.5,-1192.5"/>
<text text-anchor="middle" x="225" y="-1200.5" font-family="Helvetica,sans-Serif" font-size="10.00">RoR::GUI::Dialog</text>
</a>
</g>
<!-- Node1&#45;&gt;Node4 -->
<g id="edge6" class="edge"><title>Node1&#45;&gt;Node4</title>
<path fill="none" stroke="midnightblue" d="M51.642,-701.958C54.7058,-787.863 70.6234,-1111.86 138,-1183 148.124,-1193.69 162.715,-1199.2 177.063,-1201.9"/>
<polygon fill="midnightblue" stroke="midnightblue" points="55.137,-701.748 51.3036,-691.871 48.141,-701.983 55.137,-701.748"/>
</g>
<!-- Node6 -->
<g id="node11" class="node"><title>Node6</title>
<a xlink:href="class_ro_r_1_1_g_u_i_1_1_game_about_layout.html" target="_top" xlink:title="RoR::GUI::GameAboutLayout">
<polygon fill="white" stroke="black" points="151,-1152.5 151,-1173.5 299,-1173.5 299,-1152.5 151,-1152.5"/>
<text text-anchor="middle" x="225" y="-1160.5" font-family="Helvetica,sans-Serif" font-size="10.00">RoR::GUI::GameAboutLayout</text>
</a>
</g>
<!-- Node1&#45;&gt;Node6 -->
<g id="edge10" class="edge"><title>Node1&#45;&gt;Node6</title>
<path fill="none" stroke="midnightblue" d="M51.9785,-701.837C56.2267,-783.205 75.7516,-1078.22 138,-1143 141.758,-1146.91 146.115,-1150.13 150.837,-1152.76"/>
<polygon fill="midnightblue" stroke="midnightblue" points="55.4728,-701.633 51.4776,-691.82 48.4815,-701.982 55.4728,-701.633"/>
</g>
<!-- Node8 -->
<g id="node15" class="node"><title>Node8</title>
<a xlink:href="class_ro_r_1_1_g_u_i_1_1_game_chat_box_layout.html" target="_top" xlink:title="RoR::GUI::GameChatBoxLayout">
<polygon fill="white" stroke="black" points="144.5,-1112.5 144.5,-1133.5 305.5,-1133.5 305.5,-1112.5 144.5,-1112.5"/>
<text text-anchor="middle" x="225" y="-1120.5" font-family="Helvetica,sans-Serif" font-size="10.00">RoR::GUI::GameChatBoxLayout</text>
</a>
</g>
<!-- Node1&#45;&gt;Node8 -->
<g id="edge14" class="edge"><title>Node1&#45;&gt;Node8</title>
<path fill="none" stroke="midnightblue" d="M52.3916,-701.968C57.9277,-778.959 80.9243,-1044.62 138,-1103 141.684,-1106.77 145.923,-1109.89 150.506,-1112.47"/>
<polygon fill="midnightblue" stroke="midnightblue" points="55.8599,-701.39 51.6748,-691.656 48.8767,-701.875 55.8599,-701.39"/>
</g>
<!-- Node10 -->
<g id="node19" class="node"><title>Node10</title>
<a xlink:href="class_ro_r_1_1_g_u_i_1_1_game_console_layout.html" target="_top" xlink:title="RoR::GUI::GameConsoleLayout">
<polygon fill="white" stroke="black" points="146,-1072.5 146,-1093.5 304,-1093.5 304,-1072.5 146,-1072.5"/>
<text text-anchor="middle" x="225" y="-1080.5" font-family="Helvetica,sans-Serif" font-size="10.00">RoR::GUI::GameConsoleLayout</text>
</a>
</g>
<!-- Node1&#45;&gt;Node10 -->
<g id="edge18" class="edge"><title>Node1&#45;&gt;Node10</title>
<path fill="none" stroke="midnightblue" d="M52.8673,-701.833C59.7452,-773.877 86.008,-1010.9 138,-1063 141.722,-1066.73 145.99,-1069.82 150.594,-1072.38"/>
<polygon fill="midnightblue" stroke="midnightblue" points="56.3397,-701.373 51.9289,-691.74 49.3698,-702.021 56.3397,-701.373"/>
</g>
<!-- Node11 -->
<g id="node21" class="node"><title>Node11</title>
<a xlink:href="class_ro_r_1_1_g_u_i_1_1_game_main_menu_layout.html" target="_top" xlink:title="RoR::GUI::GameMainMenuLayout">
<polygon fill="white" stroke="black" points="141.5,-1032.5 141.5,-1053.5 308.5,-1053.5 308.5,-1032.5 141.5,-1032.5"/>
<text text-anchor="middle" x="225" y="-1040.5" font-family="Helvetica,sans-Serif" font-size="10.00">RoR::GUI::GameMainMenuLayout</text>
</a>
</g>
<!-- Node1&#45;&gt;Node11 -->
<g id="edge20" class="edge"><title>Node1&#45;&gt;Node11</title>
<path fill="none" stroke="midnightblue" d="M53.4574,-701.79C61.7892,-768.76 91.0878,-977.161 138,-1023 141.88,-1026.79 146.325,-1029.92 151.108,-1032.49"/>
<polygon fill="midnightblue" stroke="midnightblue" points="56.9054,-701.15 52.2226,-691.646 49.9567,-701.996 56.9054,-701.15"/>
</g>
<!-- Node13 -->
<g id="node25" class="node"><title>Node13</title>
<a xlink:href="class_ro_r_1_1_g_u_i_1_1_game_pause_menu_layout.html" target="_top" xlink:title="RoR::GUI::GamePauseMenuLayout">
<polygon fill="white" stroke="black" points="138,-992.5 138,-1013.5 312,-1013.5 312,-992.5 138,-992.5"/>
<text text-anchor="middle" x="225" y="-1000.5" font-family="Helvetica,sans-Serif" font-size="10.00">RoR::GUI::GamePauseMenuLayout</text>
</a>
</g>
<!-- Node1&#45;&gt;Node13 -->
<g id="edge24" class="edge"><title>Node1&#45;&gt;Node13</title>
<path fill="none" stroke="midnightblue" d="M54.1962,-701.742C64.0982,-763.337 96.1334,-943.356 138,-983 141.939,-986.73 146.427,-989.813 151.24,-992.358"/>
<polygon fill="midnightblue" stroke="midnightblue" points="57.6243,-701.011 52.6075,-691.679 50.71,-702.103 57.6243,-701.011"/>
</g>
<!-- Node15 -->
<g id="node29" class="node"><title>Node15</title>
<a xlink:href="class_ro_r_1_1_g_u_i_1_1_game_settings_layout.html" target="_top" xlink:title="RoR::GUI::GameSettingsLayout">
<polygon fill="white" stroke="black" points="146,-952.5 146,-973.5 304,-973.5 304,-952.5 146,-952.5"/>
<text text-anchor="middle" x="225" y="-960.5" font-family="Helvetica,sans-Serif" font-size="10.00">RoR::GUI::GameSettingsLayout</text>
</a>
</g>
<!-- Node1&#45;&gt;Node15 -->
<g id="edge28" class="edge"><title>Node1&#45;&gt;Node15</title>
<path fill="none" stroke="midnightblue" d="M55.1189,-701.541C66.6974,-757.279 101.104,-909.441 138,-943 142.127,-946.754 146.814,-949.848 151.822,-952.393"/>
<polygon fill="midnightblue" stroke="midnightblue" points="58.5476,-700.838 53.1136,-691.743 51.6897,-702.241 58.5476,-700.838"/>
</g>
<!-- Node17 -->
<g id="node33" class="node"><title>Node17</title>
<a xlink:href="class_ro_r_1_1_g_u_i_1_1_main_selector_layout.html" target="_top" xlink:title="RoR::GUI::MainSelectorLayout">
<polygon fill="white" stroke="black" points="148.5,-912.5 148.5,-933.5 301.5,-933.5 301.5,-912.5 148.5,-912.5"/>
<text text-anchor="middle" x="225" y="-920.5" font-family="Helvetica,sans-Serif" font-size="10.00">RoR::GUI::MainSelectorLayout</text>
</a>
</g>
<!-- Node1&#45;&gt;Node17 -->
<g id="edge32" class="edge"><title>Node1&#45;&gt;Node17</title>
<path fill="none" stroke="midnightblue" d="M52.7969,-701.617C57.7859,-745.689 75.8531,-849.407 138,-903 142.343,-906.745 147.247,-909.825 152.461,-912.354"/>
<polygon fill="midnightblue" stroke="midnightblue" points="56.2656,-701.131 51.7709,-691.536 49.3015,-701.839 56.2656,-701.131"/>
</g>
<!-- Node19 -->
<g id="node37" class="node"><title>Node19</title>
<a xlink:href="class_ro_r_1_1_g_u_i_1_1_message_box_layout.html" target="_top" xlink:title="RoR::GUI::MessageBoxLayout">
<polygon fill="white" stroke="black" points="148.5,-872.5 148.5,-893.5 301.5,-893.5 301.5,-872.5 148.5,-872.5"/>
<text text-anchor="middle" x="225" y="-880.5" font-family="Helvetica,sans-Serif" font-size="10.00">RoR::GUI::MessageBoxLayout</text>
</a>
</g>
<!-- Node1&#45;&gt;Node19 -->
<g id="edge36" class="edge"><title>Node1&#45;&gt;Node19</title>
<path fill="none" stroke="midnightblue" d="M54.7487,-701.529C62.8132,-739.568 85.5099,-820.949 138,-863 142.717,-866.779 148.016,-869.871 153.61,-872.397"/>
<polygon fill="midnightblue" stroke="midnightblue" points="58.1593,-700.735 52.7736,-691.611 51.2941,-702.102 58.1593,-700.735"/>
</g>
<!-- Node21 -->
<g id="node41" class="node"><title>Node21</title>
<a xlink:href="class_ro_r_1_1_g_u_i_1_1_multiplayer_selector_layout.html" target="_top" xlink:title="RoR::GUI::MultiplayerSelector\lLayout">
<polygon fill="white" stroke="black" points="150,-820 150,-854 300,-854 300,-820 150,-820"/>
<text text-anchor="start" x="158" y="-841" font-family="Helvetica,sans-Serif" font-size="10.00">RoR::GUI::MultiplayerSelector</text>
<text text-anchor="middle" x="225" y="-828" font-family="Helvetica,sans-Serif" font-size="10.00">Layout</text>
</a>
</g>
<!-- Node1&#45;&gt;Node21 -->
<g id="edge40" class="edge"><title>Node1&#45;&gt;Node21</title>
<path fill="none" stroke="midnightblue" d="M59.0701,-700.94C71.6623,-729.551 98.6868,-781.991 138,-811 142.566,-814.37 147.569,-817.306 152.795,-819.863"/>
<polygon fill="midnightblue" stroke="midnightblue" points="62.2189,-699.401 55.0879,-691.565 55.776,-702.137 62.2189,-699.401"/>
</g>
<!-- Node23 -->
<g id="node45" class="node"><title>Node23</title>
<a xlink:href="class_ro_r_1_1_g_u_i_1_1_rig_editor_beams_panel_layout.html" target="_top" xlink:title="RoR::GUI::RigEditorBeams\lPanelLayout">
<polygon fill="white" stroke="black" points="156,-768 156,-802 294,-802 294,-768 156,-768"/>
<text text-anchor="start" x="164" y="-789" font-family="Helvetica,sans-Serif" font-size="10.00">RoR::GUI::RigEditorBeams</text>
<text text-anchor="middle" x="225" y="-776" font-family="Helvetica,sans-Serif" font-size="10.00">PanelLayout</text>
</a>
</g>
<!-- Node1&#45;&gt;Node23 -->
<g id="edge44" class="edge"><title>Node1&#45;&gt;Node23</title>
<path fill="none" stroke="midnightblue" d="M67.1551,-699.611C83.409,-717.253 110.015,-743.322 138,-759 143.914,-762.313 150.296,-765.247 156.821,-767.835"/>
<polygon fill="midnightblue" stroke="midnightblue" points="69.3371,-696.804 60.0469,-691.71 64.1331,-701.485 69.3371,-696.804"/>
</g>
<!-- Node25 -->
<g id="node49" class="node"><title>Node25</title>
<a xlink:href="class_ro_r_1_1_g_u_i_1_1_rig_editor_commands2_panel_layout.html" target="_top" xlink:title="RoR::GUI::RigEditorCommands2\lPanelLayout">
<polygon fill="white" stroke="black" points="143.5,-716 143.5,-750 306.5,-750 306.5,-716 143.5,-716"/>
<text text-anchor="start" x="151.5" y="-737" font-family="Helvetica,sans-Serif" font-size="10.00">RoR::GUI::RigEditorCommands2</text>
<text text-anchor="middle" x="225" y="-724" font-family="Helvetica,sans-Serif" font-size="10.00">PanelLayout</text>
</a>
</g>
<!-- Node1&#45;&gt;Node25 -->
<g id="edge48" class="edge"><title>Node1&#45;&gt;Node25</title>
<path fill="none" stroke="midnightblue" d="M95.9376,-694.43C117.889,-700.99 144.545,-708.956 167.92,-715.942"/>
<polygon fill="midnightblue" stroke="midnightblue" points="96.795,-691.033 86.2115,-691.523 94.7906,-697.74 96.795,-691.033"/>
</g>
<!-- Node27 -->
<g id="node53" class="node"><title>Node27</title>
<a xlink:href="class_ro_r_1_1_g_u_i_1_1_rig_editor_delete_menu_layout.html" target="_top" xlink:title="RoR::GUI::RigEditorDelete\lMenuLayout">
<polygon fill="white" stroke="black" points="157,-664 157,-698 293,-698 293,-664 157,-664"/>
<text text-anchor="start" x="165" y="-685" font-family="Helvetica,sans-Serif" font-size="10.00">RoR::GUI::RigEditorDelete</text>
<text text-anchor="middle" x="225" y="-672" font-family="Helvetica,sans-Serif" font-size="10.00">MenuLayout</text>
</a>
</g>
<!-- Node1&#45;&gt;Node27 -->
<g id="edge52" class="edge"><title>Node1&#45;&gt;Node27</title>
<path fill="none" stroke="midnightblue" d="M112.144,-681C126.646,-681 142.204,-681 156.991,-681"/>
<polygon fill="midnightblue" stroke="midnightblue" points="111.796,-677.5 101.796,-681 111.796,-684.5 111.796,-677.5"/>
</g>
<!-- Node29 -->
<g id="node57" class="node"><title>Node29</title>
<a xlink:href="class_ro_r_1_1_g_u_i_1_1_rig_editor_flex_body_wheels_panel_layout.html" target="_top" xlink:title="RoR::GUI::RigEditorFlexBody\lWheelsPanelLayout">
<polygon fill="white" stroke="black" points="150.5,-612 150.5,-646 299.5,-646 299.5,-612 150.5,-612"/>
<text text-anchor="start" x="158.5" y="-633" font-family="Helvetica,sans-Serif" font-size="10.00">RoR::GUI::RigEditorFlexBody</text>
<text text-anchor="middle" x="225" y="-620" font-family="Helvetica,sans-Serif" font-size="10.00">WheelsPanelLayout</text>
</a>
</g>
<!-- Node1&#45;&gt;Node29 -->
<g id="edge56" class="edge"><title>Node1&#45;&gt;Node29</title>
<path fill="none" stroke="midnightblue" d="M95.9376,-667.57C117.889,-661.01 144.545,-653.044 167.92,-646.058"/>
<polygon fill="midnightblue" stroke="midnightblue" points="94.7906,-664.26 86.2115,-670.477 96.795,-670.967 94.7906,-664.26"/>
</g>
<!-- Node31 -->
<g id="node61" class="node"><title>Node31</title>
<a xlink:href="class_ro_r_1_1_g_u_i_1_1_rig_editor_help_window_layout.html" target="_top" xlink:title="RoR::GUI::RigEditorHelpWindow\lLayout">
<polygon fill="white" stroke="black" points="143.5,-560 143.5,-594 306.5,-594 306.5,-560 143.5,-560"/>
<text text-anchor="start" x="151.5" y="-581" font-family="Helvetica,sans-Serif" font-size="10.00">RoR::GUI::RigEditorHelpWindow</text>
<text text-anchor="middle" x="225" y="-568" font-family="Helvetica,sans-Serif" font-size="10.00">Layout</text>
</a>
</g>
<!-- Node1&#45;&gt;Node31 -->
<g id="edge60" class="edge"><title>Node1&#45;&gt;Node31</title>
<path fill="none" stroke="midnightblue" d="M67.1551,-662.389C83.409,-644.747 110.015,-618.678 138,-603 143.914,-599.687 150.296,-596.753 156.821,-594.165"/>
<polygon fill="midnightblue" stroke="midnightblue" points="64.1331,-660.515 60.0469,-670.29 69.3371,-665.196 64.1331,-660.515"/>
</g>
<!-- Node33 -->
<g id="node65" class="node"><title>Node33</title>
<a xlink:href="class_ro_r_1_1_g_u_i_1_1_rig_editor_hydros_panel_layout.html" target="_top" xlink:title="RoR::GUI::RigEditorHydros\lPanelLayout">
<polygon fill="white" stroke="black" points="155.5,-508 155.5,-542 294.5,-542 294.5,-508 155.5,-508"/>
<text text-anchor="start" x="163.5" y="-529" font-family="Helvetica,sans-Serif" font-size="10.00">RoR::GUI::RigEditorHydros</text>
<text text-anchor="middle" x="225" y="-516" font-family="Helvetica,sans-Serif" font-size="10.00">PanelLayout</text>
</a>
</g>
<!-- Node1&#45;&gt;Node33 -->
<g id="edge64" class="edge"><title>Node1&#45;&gt;Node33</title>
<path fill="none" stroke="midnightblue" d="M59.0701,-661.06C71.6623,-632.449 98.6868,-580.009 138,-551 143.328,-547.069 149.249,-543.728 155.425,-540.889"/>
<polygon fill="midnightblue" stroke="midnightblue" points="55.776,-659.863 55.0879,-670.435 62.2189,-662.599 55.776,-659.863"/>
</g>
<!-- Node35 -->
<g id="node69" class="node"><title>Node35</title>
<a xlink:href="class_ro_r_1_1_g_u_i_1_1_rig_editor_land_vehicle_properties_window_layout.html" target="_top" xlink:title="RoR::GUI::RigEditorLandVehicle\lPropertiesWindowLayout">
<polygon fill="white" stroke="black" points="144.5,-456 144.5,-490 305.5,-490 305.5,-456 144.5,-456"/>
<text text-anchor="start" x="152.5" y="-477" font-family="Helvetica,sans-Serif" font-size="10.00">RoR::GUI::RigEditorLandVehicle</text>
<text text-anchor="middle" x="225" y="-464" font-family="Helvetica,sans-Serif" font-size="10.00">PropertiesWindowLayout</text>
</a>
</g>
<!-- Node1&#45;&gt;Node35 -->
<g id="edge68" class="edge"><title>Node1&#45;&gt;Node35</title>
<path fill="none" stroke="midnightblue" d="M55.1292,-660.247C63.726,-622.503 87.1341,-542.513 138,-499 141.953,-495.618 146.333,-492.676 150.963,-490.117"/>
<polygon fill="midnightblue" stroke="midnightblue" points="51.6882,-659.601 53.0042,-670.114 58.5313,-661.075 51.6882,-659.601"/>
</g>
<!-- Node37 -->
<g id="node73" class="node"><title>Node37</title>
<a xlink:href="class_ro_r_1_1_g_u_i_1_1_rig_editor_menubar_layout.html" target="_top" xlink:title="RoR::GUI::RigEditorMenubar\lLayout">
<polygon fill="white" stroke="black" points="152.5,-404 152.5,-438 297.5,-438 297.5,-404 152.5,-404"/>
<text text-anchor="start" x="160.5" y="-425" font-family="Helvetica,sans-Serif" font-size="10.00">RoR::GUI::RigEditorMenubar</text>
<text text-anchor="middle" x="225" y="-412" font-family="Helvetica,sans-Serif" font-size="10.00">Layout</text>
</a>
</g>
<!-- Node1&#45;&gt;Node37 -->
<g id="edge72" class="edge"><title>Node1&#45;&gt;Node37</title>
<path fill="none" stroke="midnightblue" d="M52.6467,-660.218C57.3726,-614.788 75.0062,-505.994 138,-447 142.257,-443.013 147.101,-439.635 152.274,-436.774"/>
<polygon fill="midnightblue" stroke="midnightblue" points="49.1471,-660.052 51.7035,-670.334 56.1168,-660.702 49.1471,-660.052"/>
</g>
<!-- Node39 -->
<g id="node77" class="node"><title>Node39</title>
<a xlink:href="class_ro_r_1_1_g_u_i_1_1_rig_editor_mesh_wheels2_panel_layout.html" target="_top" xlink:title="RoR::GUI::RigEditorMeshWheels2\lPanelLayout">
<polygon fill="white" stroke="black" points="140,-352 140,-386 310,-386 310,-352 140,-352"/>
<text text-anchor="start" x="148" y="-373" font-family="Helvetica,sans-Serif" font-size="10.00">RoR::GUI::RigEditorMeshWheels2</text>
<text text-anchor="middle" x="225" y="-360" font-family="Helvetica,sans-Serif" font-size="10.00">PanelLayout</text>
</a>
</g>
<!-- Node1&#45;&gt;Node39 -->
<g id="edge76" class="edge"><title>Node1&#45;&gt;Node39</title>
<path fill="none" stroke="midnightblue" d="M54.681,-660.312C65.5852,-601.215 99.3784,-433.433 138,-395 141.352,-391.664 145.114,-388.753 149.142,-386.213"/>
<polygon fill="midnightblue" stroke="midnightblue" points="51.2067,-659.855 52.8628,-670.32 58.094,-661.107 51.2067,-659.855"/>
</g>
<!-- Node41 -->
<g id="node81" class="node"><title>Node41</title>
<a xlink:href="class_ro_r_1_1_g_u_i_1_1_rig_editor_node_panel_layout.html" target="_top" xlink:title="RoR::GUI::RigEditorNodePanel\lLayout">
<polygon fill="white" stroke="black" points="147.5,-300 147.5,-334 302.5,-334 302.5,-300 147.5,-300"/>
<text text-anchor="start" x="155.5" y="-321" font-family="Helvetica,sans-Serif" font-size="10.00">RoR::GUI::RigEditorNodePanel</text>
<text text-anchor="middle" x="225" y="-308" font-family="Helvetica,sans-Serif" font-size="10.00">Layout</text>
</a>
</g>
<!-- Node1&#45;&gt;Node41 -->
<g id="edge80" class="edge"><title>Node1&#45;&gt;Node41</title>
<path fill="none" stroke="midnightblue" d="M53.6714,-660.131C62.5571,-593.834 93.1207,-389.64 138,-343 141.279,-339.592 144.985,-336.626 148.971,-334.045"/>
<polygon fill="midnightblue" stroke="midnightblue" points="50.1817,-659.824 52.3483,-670.195 57.122,-660.737 50.1817,-659.824"/>
</g>
<!-- Node43 -->
<g id="node85" class="node"><title>Node43</title>
<a xlink:href="class_ro_r_1_1_g_u_i_1_1_rig_editor_rig_properties_window_layout.html" target="_top" xlink:title="RoR::GUI::RigEditorRigProperties\lWindowLayout">
<polygon fill="white" stroke="black" points="141.5,-248 141.5,-282 308.5,-282 308.5,-248 141.5,-248"/>
<text text-anchor="start" x="149.5" y="-269" font-family="Helvetica,sans-Serif" font-size="10.00">RoR::GUI::RigEditorRigProperties</text>
<text text-anchor="middle" x="225" y="-256" font-family="Helvetica,sans-Serif" font-size="10.00">WindowLayout</text>
</a>
</g>
<!-- Node1&#45;&gt;Node43 -->
<g id="edge84" class="edge"><title>Node1&#45;&gt;Node43</title>
<path fill="none" stroke="midnightblue" d="M52.8802,-660.335C59.8829,-587.774 86.7214,-346.051 138,-291 141.116,-287.655 144.642,-284.734 148.446,-282.184"/>
<polygon fill="midnightblue" stroke="midnightblue" points="49.3785,-660.189 51.926,-670.473 56.3477,-660.845 49.3785,-660.189"/>
</g>
<!-- Node45 -->
<g id="node89" class="node"><title>Node45</title>
<a xlink:href="class_ro_r_1_1_g_u_i_1_1_rig_editor_shocks2_panel_layout.html" target="_top" xlink:title="RoR::GUI::RigEditorShocks2\lPanelLayout">
<polygon fill="white" stroke="red" points="152,-196 152,-230 298,-230 298,-196 152,-196"/>
<text text-anchor="start" x="160" y="-217" font-family="Helvetica,sans-Serif" font-size="10.00">RoR::GUI::RigEditorShocks2</text>
<text text-anchor="middle" x="225" y="-204" font-family="Helvetica,sans-Serif" font-size="10.00">PanelLayout</text>
</a>
</g>
<!-- Node1&#45;&gt;Node45 -->
<g id="edge88" class="edge"><title>Node1&#45;&gt;Node45</title>
<path fill="none" stroke="midnightblue" d="M52.3024,-660.179C57.6419,-581.348 80.3641,-302.456 138,-239 142.028,-234.566 146.776,-230.875 151.944,-227.805"/>
<polygon fill="midnightblue" stroke="midnightblue" points="48.8001,-660.101 51.6387,-670.309 55.7851,-660.559 48.8001,-660.101"/>
</g>
<!-- Node46 -->
<g id="node91" class="node"><title>Node46</title>
<a xlink:href="class_ro_r_1_1_g_u_i_1_1_rig_editor_shocks_panel_layout.html" target="_top" xlink:title="RoR::GUI::RigEditorShocks\lPanelLayout">
<polygon fill="white" stroke="red" points="155,-144 155,-178 295,-178 295,-144 155,-144"/>
<text text-anchor="start" x="163" y="-165" font-family="Helvetica,sans-Serif" font-size="10.00">RoR::GUI::RigEditorShocks</text>
<text text-anchor="middle" x="225" y="-152" font-family="Helvetica,sans-Serif" font-size="10.00">PanelLayout</text>
</a>
</g>
<!-- Node1&#45;&gt;Node46 -->
<g id="edge90" class="edge"><title>Node1&#45;&gt;Node46</title>
<path fill="none" stroke="midnightblue" d="M51.8293,-660.229C55.6137,-575.744 73.9237,-258.982 138,-187 142.717,-181.701 148.463,-177.462 154.732,-174.074"/>
<polygon fill="midnightblue" stroke="midnightblue" points="48.3265,-660.221 51.3964,-670.361 55.3201,-660.52 48.3265,-660.221"/>
</g>
<!-- Node47 -->
<g id="node93" class="node"><title>Node47</title>
<a xlink:href="class_ro_r_1_1_g_u_i_1_1_rig_spawner_report_window_layout.html" target="_top" xlink:title="RoR::GUI::RigSpawnerReport\lWindowLayout">
<polygon fill="white" stroke="red" points="150.5,-92 150.5,-126 299.5,-126 299.5,-92 150.5,-92"/>
<text text-anchor="start" x="158.5" y="-113" font-family="Helvetica,sans-Serif" font-size="10.00">RoR::GUI::RigSpawnerReport</text>
<text text-anchor="middle" x="225" y="-100" font-family="Helvetica,sans-Serif" font-size="10.00">WindowLayout</text>
</a>
</g>
<!-- Node1&#45;&gt;Node47 -->
<g id="edge92" class="edge"><title>Node1&#45;&gt;Node47</title>
<path fill="none" stroke="midnightblue" d="M51.4506,-660.091C53.8108,-569.951 67.5042,-215.506 138,-135 141.531,-130.968 145.659,-127.548 150.162,-124.649"/>
<polygon fill="midnightblue" stroke="midnightblue" points="47.9499,-660.082 51.2064,-670.164 54.9478,-660.252 47.9499,-660.082"/>
</g>
<!-- Node48 -->
<g id="node95" class="node"><title>Node48</title>
<a xlink:href="class_ro_r_1_1_g_u_i_1_1_sim_utils_layout.html" target="_top" xlink:title="RoR::GUI::SimUtilsLayout">
<polygon fill="white" stroke="red" points="158,-52.5 158,-73.5 292,-73.5 292,-52.5 158,-52.5"/>
<text text-anchor="middle" x="225" y="-60.5" font-family="Helvetica,sans-Serif" font-size="10.00">RoR::GUI::SimUtilsLayout</text>
</a>
</g>
<!-- Node1&#45;&gt;Node48 -->
<g id="edge94" class="edge"><title>Node1&#45;&gt;Node48</title>
<path fill="none" stroke="midnightblue" d="M52.6711,-659.812C60.8468,-558.498 97.8639,-126.548 138,-83 143.462,-77.074 150.294,-72.7303 157.715,-69.5705"/>
<polygon fill="midnightblue" stroke="midnightblue" points="49.1639,-659.765 51.8558,-670.012 56.1416,-660.322 49.1639,-659.765"/>
</g>
<!-- Node49 -->
<g id="node97" class="node"><title>Node49</title>
<a xlink:href="class_ro_r_1_1_g_u_i_1_1_vehicle_description_layout.html" target="_top" xlink:title="RoR::GUI::VehicleDescription\lLayout">
<polygon fill="white" stroke="red" points="150.5,-0 150.5,-34 299.5,-34 299.5,-0 150.5,-0"/>
<text text-anchor="start" x="158.5" y="-21" font-family="Helvetica,sans-Serif" font-size="10.00">RoR::GUI::VehicleDescription</text>
<text text-anchor="middle" x="225" y="-8" font-family="Helvetica,sans-Serif" font-size="10.00">Layout</text>
</a>
</g>
<!-- Node1&#45;&gt;Node49 -->
<g id="edge96" class="edge"><title>Node1&#45;&gt;Node49</title>
<path fill="none" stroke="midnightblue" d="M52.5091,-660.136C60.2508,-555.522 96.7474,-91.1929 138,-43 141.588,-38.8084 145.821,-35.277 150.456,-32.3035"/>
<polygon fill="midnightblue" stroke="midnightblue" points="49.0014,-660.114 51.761,-670.344 55.9827,-660.626 49.0014,-660.114"/>
</g>
<!-- Node3 -->
<g id="node5" class="node"><title>Node3</title>
<a xlink:href="class_ro_r_1_1_g_u_i_1_1_debug_options.html" target="_top" xlink:title="RoR::GUI::DebugOptions">
<polygon fill="white" stroke="black" points="368.5,-1232.5 368.5,-1253.5 497.5,-1253.5 497.5,-1232.5 368.5,-1232.5"/>
<text text-anchor="middle" x="433" y="-1240.5" font-family="Helvetica,sans-Serif" font-size="10.00">RoR::GUI::DebugOptions</text>
</a>
</g>
<!-- Node2&#45;&gt;Node3 -->
<g id="edge4" class="edge"><title>Node2&#45;&gt;Node3</title>
<path fill="none" stroke="midnightblue" d="M314.475,-1243C332.524,-1243 351.169,-1243 368.177,-1243"/>
<polygon fill="midnightblue" stroke="midnightblue" points="314.229,-1239.5 304.229,-1243 314.229,-1246.5 314.229,-1239.5"/>
</g>
<!-- Node5 -->
<g id="node9" class="node"><title>Node5</title>
<a xlink:href="class_ro_r_1_1_g_u_i_1_1_open_save_file_dialog.html" target="_top" xlink:title="RoR::GUI::OpenSaveFileDialog">
<polygon fill="white" stroke="black" points="355,-1192.5 355,-1213.5 511,-1213.5 511,-1192.5 355,-1192.5"/>
<text text-anchor="middle" x="433" y="-1200.5" font-family="Helvetica,sans-Serif" font-size="10.00">RoR::GUI::OpenSaveFileDialog</text>
</a>
</g>
<!-- Node4&#45;&gt;Node5 -->
<g id="edge8" class="edge"><title>Node4&#45;&gt;Node5</title>
<path fill="none" stroke="midnightblue" d="M283.014,-1203C305.286,-1203 331.081,-1203 354.932,-1203"/>
<polygon fill="midnightblue" stroke="midnightblue" points="282.719,-1199.5 272.719,-1203 282.719,-1206.5 282.719,-1199.5"/>
</g>
<!-- Node7 -->
<g id="node13" class="node"><title>Node7</title>
<a xlink:href="class_ro_r_1_1_g_u_i_1_1_game_about.html" target="_top" xlink:title="RoR::GUI::GameAbout">
<polygon fill="white" stroke="black" points="373.5,-1152.5 373.5,-1173.5 492.5,-1173.5 492.5,-1152.5 373.5,-1152.5"/>
<text text-anchor="middle" x="433" y="-1160.5" font-family="Helvetica,sans-Serif" font-size="10.00">RoR::GUI::GameAbout</text>
</a>
</g>
<!-- Node6&#45;&gt;Node7 -->
<g id="edge12" class="edge"><title>Node6&#45;&gt;Node7</title>
<path fill="none" stroke="midnightblue" d="M309.283,-1163C330.694,-1163 353.263,-1163 373.178,-1163"/>
<polygon fill="midnightblue" stroke="midnightblue" points="309.212,-1159.5 299.212,-1163 309.212,-1166.5 309.212,-1159.5"/>
</g>
<!-- Node9 -->
<g id="node17" class="node"><title>Node9</title>
<a xlink:href="class_ro_r_1_1_g_u_i_1_1_game_chat_box.html" target="_top" xlink:title="RoR::GUI::GameChatBox">
<polygon fill="white" stroke="black" points="367.5,-1112.5 367.5,-1133.5 498.5,-1133.5 498.5,-1112.5 367.5,-1112.5"/>
<text text-anchor="middle" x="433" y="-1120.5" font-family="Helvetica,sans-Serif" font-size="10.00">RoR::GUI::GameChatBox</text>
</a>
</g>
<!-- Node8&#45;&gt;Node9 -->
<g id="edge16" class="edge"><title>Node8&#45;&gt;Node9</title>
<path fill="none" stroke="midnightblue" d="M315.864,-1123C333.222,-1123 351.076,-1123 367.45,-1123"/>
<polygon fill="midnightblue" stroke="midnightblue" points="315.716,-1119.5 305.716,-1123 315.716,-1126.5 315.716,-1119.5"/>
</g>
<!-- Node12 -->
<g id="node23" class="node"><title>Node12</title>
<a xlink:href="class_ro_r_1_1_g_u_i_1_1_game_main_menu.html" target="_top" xlink:title="RoR::GUI::GameMainMenu">
<polygon fill="white" stroke="black" points="364,-1032.5 364,-1053.5 502,-1053.5 502,-1032.5 364,-1032.5"/>
<text text-anchor="middle" x="433" y="-1040.5" font-family="Helvetica,sans-Serif" font-size="10.00">RoR::GUI::GameMainMenu</text>
</a>
</g>
<!-- Node11&#45;&gt;Node12 -->
<g id="edge22" class="edge"><title>Node11&#45;&gt;Node12</title>
<path fill="none" stroke="midnightblue" d="M319.065,-1043C334.121,-1043 349.458,-1043 363.797,-1043"/>
<polygon fill="midnightblue" stroke="midnightblue" points="318.702,-1039.5 308.702,-1043 318.702,-1046.5 318.702,-1039.5"/>
</g>
<!-- Node14 -->
<g id="node27" class="node"><title>Node14</title>
<a xlink:href="class_ro_r_1_1_g_u_i_1_1_game_pause_menu.html" target="_top" xlink:title="RoR::GUI::GamePauseMenu">
<polygon fill="white" stroke="black" points="360.5,-992.5 360.5,-1013.5 505.5,-1013.5 505.5,-992.5 360.5,-992.5"/>
<text text-anchor="middle" x="433" y="-1000.5" font-family="Helvetica,sans-Serif" font-size="10.00">RoR::GUI::GamePauseMenu</text>
</a>
</g>
<!-- Node13&#45;&gt;Node14 -->
<g id="edge26" class="edge"><title>Node13&#45;&gt;Node14</title>
<path fill="none" stroke="midnightblue" d="M322.209,-1003C334.987,-1003 347.902,-1003 360.179,-1003"/>
<polygon fill="midnightblue" stroke="midnightblue" points="322.006,-999.5 312.006,-1003 322.006,-1006.5 322.006,-999.5"/>
</g>
<!-- Node16 -->
<g id="node31" class="node"><title>Node16</title>
<a xlink:href="class_ro_r_1_1_g_u_i_1_1_game_settings.html" target="_top" xlink:title="RoR::GUI::GameSettings">
<polygon fill="white" stroke="black" points="368.5,-952.5 368.5,-973.5 497.5,-973.5 497.5,-952.5 368.5,-952.5"/>
<text text-anchor="middle" x="433" y="-960.5" font-family="Helvetica,sans-Serif" font-size="10.00">RoR::GUI::GameSettings</text>
</a>
</g>
<!-- Node15&#45;&gt;Node16 -->
<g id="edge30" class="edge"><title>Node15&#45;&gt;Node16</title>
<path fill="none" stroke="midnightblue" d="M314.475,-963C332.524,-963 351.169,-963 368.177,-963"/>
<polygon fill="midnightblue" stroke="midnightblue" points="314.229,-959.5 304.229,-963 314.229,-966.5 314.229,-959.5"/>
</g>
<!-- Node18 -->
<g id="node35" class="node"><title>Node18</title>
<a xlink:href="class_ro_r_1_1_g_u_i_1_1_main_selector.html" target="_top" xlink:title="RoR::GUI::MainSelector">
<polygon fill="white" stroke="black" points="371,-912.5 371,-933.5 495,-933.5 495,-912.5 371,-912.5"/>
<text text-anchor="middle" x="433" y="-920.5" font-family="Helvetica,sans-Serif" font-size="10.00">RoR::GUI::MainSelector</text>
</a>
</g>
<!-- Node17&#45;&gt;Node18 -->
<g id="edge34" class="edge"><title>Node17&#45;&gt;Node18</title>
<path fill="none" stroke="midnightblue" d="M311.837,-923C331.658,-923 352.335,-923 370.879,-923"/>
<polygon fill="midnightblue" stroke="midnightblue" points="311.565,-919.5 301.565,-923 311.565,-926.5 311.565,-919.5"/>
</g>
<!-- Node20 -->
<g id="node39" class="node"><title>Node20</title>
<a xlink:href="class_ro_r_1_1_g_u_i_1_1g_message_box.html" target="_top" xlink:title="RoR::GUI::gMessageBox">
<polygon fill="white" stroke="black" points="368.5,-872.5 368.5,-893.5 497.5,-893.5 497.5,-872.5 368.5,-872.5"/>
<text text-anchor="middle" x="433" y="-880.5" font-family="Helvetica,sans-Serif" font-size="10.00">RoR::GUI::gMessageBox</text>
</a>
</g>
<!-- Node19&#45;&gt;Node20 -->
<g id="edge38" class="edge"><title>Node19&#45;&gt;Node20</title>
<path fill="none" stroke="midnightblue" d="M311.678,-883C330.602,-883 350.314,-883 368.212,-883"/>
<polygon fill="midnightblue" stroke="midnightblue" points="311.565,-879.5 301.565,-883 311.565,-886.5 311.565,-879.5"/>
</g>
<!-- Node22 -->
<g id="node43" class="node"><title>Node22</title>
<a xlink:href="class_ro_r_1_1_g_u_i_1_1_multiplayer_selector.html" target="_top" xlink:title="RoR::GUI::MultiplayerSelector">
<polygon fill="white" stroke="black" points="358,-826.5 358,-847.5 508,-847.5 508,-826.5 358,-826.5"/>
<text text-anchor="middle" x="433" y="-834.5" font-family="Helvetica,sans-Serif" font-size="10.00">RoR::GUI::MultiplayerSelector</text>
</a>
</g>
<!-- Node21&#45;&gt;Node22 -->
<g id="edge42" class="edge"><title>Node21&#45;&gt;Node22</title>
<path fill="none" stroke="midnightblue" d="M310.308,-837C326.005,-837 342.29,-837 357.668,-837"/>
<polygon fill="midnightblue" stroke="midnightblue" points="310.093,-833.5 300.093,-837 310.093,-840.5 310.093,-833.5"/>
</g>
<!-- Node24 -->
<g id="node47" class="node"><title>Node24</title>
<a xlink:href="class_ro_r_1_1_g_u_i_1_1_rig_editor_beams_panel.html" target="_top" xlink:title="RoR::GUI::RigEditorBeams\lPanel">
<polygon fill="white" stroke="black" points="364,-768 364,-802 502,-802 502,-768 364,-768"/>
<text text-anchor="start" x="372" y="-789" font-family="Helvetica,sans-Serif" font-size="10.00">RoR::GUI::RigEditorBeams</text>
<text text-anchor="middle" x="433" y="-776" font-family="Helvetica,sans-Serif" font-size="10.00">Panel</text>
</a>
</g>
<!-- Node23&#45;&gt;Node24 -->
<g id="edge46" class="edge"><title>Node23&#45;&gt;Node24</title>
<path fill="none" stroke="midnightblue" d="M304.351,-785C323.891,-785 344.664,-785 363.687,-785"/>
<polygon fill="midnightblue" stroke="midnightblue" points="304.261,-781.5 294.261,-785 304.261,-788.5 304.261,-781.5"/>
</g>
<!-- Node26 -->
<g id="node51" class="node"><title>Node26</title>
<a xlink:href="class_ro_r_1_1_g_u_i_1_1_rig_editor_commands2_panel.html" target="_top" xlink:title="RoR::GUI::RigEditorCommands2\lPanel">
<polygon fill="white" stroke="black" points="351.5,-716 351.5,-750 514.5,-750 514.5,-716 351.5,-716"/>
<text text-anchor="start" x="359.5" y="-737" font-family="Helvetica,sans-Serif" font-size="10.00">RoR::GUI::RigEditorCommands2</text>
<text text-anchor="middle" x="433" y="-724" font-family="Helvetica,sans-Serif" font-size="10.00">Panel</text>
</a>
</g>
<!-- Node25&#45;&gt;Node26 -->
<g id="edge50" class="edge"><title>Node25&#45;&gt;Node26</title>
<path fill="none" stroke="midnightblue" d="M316.671,-733C328.196,-733 339.926,-733 351.284,-733"/>
<polygon fill="midnightblue" stroke="midnightblue" points="316.61,-729.5 306.61,-733 316.61,-736.5 316.61,-729.5"/>
</g>
<!-- Node28 -->
<g id="node55" class="node"><title>Node28</title>
<a xlink:href="class_ro_r_1_1_g_u_i_1_1_rig_editor_delete_menu.html" target="_top" xlink:title="RoR::GUI::RigEditorDeleteMenu">
<polygon fill="white" stroke="black" points="353,-670.5 353,-691.5 513,-691.5 513,-670.5 353,-670.5"/>
<text text-anchor="middle" x="433" y="-678.5" font-family="Helvetica,sans-Serif" font-size="10.00">RoR::GUI::RigEditorDeleteMenu</text>
</a>
</g>
<!-- Node27&#45;&gt;Node28 -->
<g id="edge54" class="edge"><title>Node27&#45;&gt;Node28</title>
<path fill="none" stroke="midnightblue" d="M303.55,-681C319.658,-681 336.635,-681 352.8,-681"/>
<polygon fill="midnightblue" stroke="midnightblue" points="303.107,-677.5 293.107,-681 303.107,-684.5 303.107,-677.5"/>
</g>
<!-- Node30 -->
<g id="node59" class="node"><title>Node30</title>
<a xlink:href="class_ro_r_1_1_g_u_i_1_1_rig_editor_flex_body_wheels_panel.html" target="_top" xlink:title="RoR::GUI::RigEditorFlexBody\lWheelsPanel">
<polygon fill="white" stroke="black" points="358.5,-612 358.5,-646 507.5,-646 507.5,-612 358.5,-612"/>
<text text-anchor="start" x="366.5" y="-633" font-family="Helvetica,sans-Serif" font-size="10.00">RoR::GUI::RigEditorFlexBody</text>
<text text-anchor="middle" x="433" y="-620" font-family="Helvetica,sans-Serif" font-size="10.00">WheelsPanel</text>
</a>
</g>
<!-- Node29&#45;&gt;Node30 -->
<g id="edge58" class="edge"><title>Node29&#45;&gt;Node30</title>
<path fill="none" stroke="midnightblue" d="M309.934,-629C325.967,-629 342.626,-629 358.316,-629"/>
<polygon fill="midnightblue" stroke="midnightblue" points="309.505,-625.5 299.505,-629 309.505,-632.5 309.505,-625.5"/>
</g>
<!-- Node32 -->
<g id="node63" class="node"><title>Node32</title>
<a xlink:href="class_ro_r_1_1_g_u_i_1_1_rig_editor_help_window.html" target="_top" xlink:title="RoR::GUI::RigEditorHelpWindow">
<polygon fill="white" stroke="black" points="351.5,-566.5 351.5,-587.5 514.5,-587.5 514.5,-566.5 351.5,-566.5"/>
<text text-anchor="middle" x="433" y="-574.5" font-family="Helvetica,sans-Serif" font-size="10.00">RoR::GUI::RigEditorHelpWindow</text>
</a>
</g>
<!-- Node31&#45;&gt;Node32 -->
<g id="edge62" class="edge"><title>Node31&#45;&gt;Node32</title>
<path fill="none" stroke="midnightblue" d="M316.671,-577C328.196,-577 339.926,-577 351.284,-577"/>
<polygon fill="midnightblue" stroke="midnightblue" points="316.61,-573.5 306.61,-577 316.61,-580.5 316.61,-573.5"/>
</g>
<!-- Node34 -->
<g id="node67" class="node"><title>Node34</title>
<a xlink:href="class_ro_r_1_1_g_u_i_1_1_rig_editor_hydros_panel.html" target="_top" xlink:title="RoR::GUI::RigEditorHydros\lPanel">
<polygon fill="white" stroke="black" points="363.5,-508 363.5,-542 502.5,-542 502.5,-508 363.5,-508"/>
<text text-anchor="start" x="371.5" y="-529" font-family="Helvetica,sans-Serif" font-size="10.00">RoR::GUI::RigEditorHydros</text>
<text text-anchor="middle" x="433" y="-516" font-family="Helvetica,sans-Serif" font-size="10.00">Panel</text>
</a>
</g>
<!-- Node33&#45;&gt;Node34 -->
<g id="edge66" class="edge"><title>Node33&#45;&gt;Node34</title>
<path fill="none" stroke="midnightblue" d="M304.79,-525C324.022,-525 344.424,-525 363.161,-525"/>
<polygon fill="midnightblue" stroke="midnightblue" points="304.55,-521.5 294.55,-525 304.55,-528.5 304.55,-521.5"/>
</g>
<!-- Node36 -->
<g id="node71" class="node"><title>Node36</title>
<a xlink:href="class_ro_r_1_1_g_u_i_1_1_rig_editor_land_vehicle_properties_window.html" target="_top" xlink:title="RoR::GUI::RigEditorLandVehicle\lPropertiesWindow">
<polygon fill="white" stroke="black" points="352.5,-456 352.5,-490 513.5,-490 513.5,-456 352.5,-456"/>
<text text-anchor="start" x="360.5" y="-477" font-family="Helvetica,sans-Serif" font-size="10.00">RoR::GUI::RigEditorLandVehicle</text>
<text text-anchor="middle" x="433" y="-464" font-family="Helvetica,sans-Serif" font-size="10.00">PropertiesWindow</text>
</a>
</g>
<!-- Node35&#45;&gt;Node36 -->
<g id="edge70" class="edge"><title>Node35&#45;&gt;Node36</title>
<path fill="none" stroke="midnightblue" d="M315.845,-473C327.989,-473 340.376,-473 352.329,-473"/>
<polygon fill="midnightblue" stroke="midnightblue" points="315.716,-469.5 305.716,-473 315.716,-476.5 315.716,-469.5"/>
</g>
<!-- Node38 -->
<g id="node75" class="node"><title>Node38</title>
<a xlink:href="class_ro_r_1_1_g_u_i_1_1_rig_editor_menubar.html" target="_top" xlink:title="RoR::GUI::RigEditorMenubar">
<polygon fill="white" stroke="black" points="360.5,-410.5 360.5,-431.5 505.5,-431.5 505.5,-410.5 360.5,-410.5"/>
<text text-anchor="middle" x="433" y="-418.5" font-family="Helvetica,sans-Serif" font-size="10.00">RoR::GUI::RigEditorMenubar</text>
</a>
</g>
<!-- Node37&#45;&gt;Node38 -->
<g id="edge74" class="edge"><title>Node37&#45;&gt;Node38</title>
<path fill="none" stroke="midnightblue" d="M307.849,-421C325.191,-421 343.353,-421 360.293,-421"/>
<polygon fill="midnightblue" stroke="midnightblue" points="307.748,-417.5 297.748,-421 307.748,-424.5 307.748,-417.5"/>
</g>
<!-- Node40 -->
<g id="node79" class="node"><title>Node40</title>
<a xlink:href="class_ro_r_1_1_g_u_i_1_1_rig_editor_mesh_wheels2_panel.html" target="_top" xlink:title="RoR::GUI::RigEditorMeshWheels2\lPanel">
<polygon fill="white" stroke="black" points="348,-352 348,-386 518,-386 518,-352 348,-352"/>
<text text-anchor="start" x="356" y="-373" font-family="Helvetica,sans-Serif" font-size="10.00">RoR::GUI::RigEditorMeshWheels2</text>
<text text-anchor="middle" x="433" y="-360" font-family="Helvetica,sans-Serif" font-size="10.00">Panel</text>
</a>
</g>
<!-- Node39&#45;&gt;Node40 -->
<g id="edge78" class="edge"><title>Node39&#45;&gt;Node40</title>
<path fill="none" stroke="midnightblue" d="M320.485,-369C329.641,-369 338.885,-369 347.931,-369"/>
<polygon fill="midnightblue" stroke="midnightblue" points="320.202,-365.5 310.202,-369 320.202,-372.5 320.202,-365.5"/>
</g>
<!-- Node42 -->
<g id="node83" class="node"><title>Node42</title>
<a xlink:href="class_ro_r_1_1_g_u_i_1_1_rig_editor_node_panel.html" target="_top" xlink:title="RoR::GUI::RigEditorNodePanel">
<polygon fill="white" stroke="black" points="355.5,-306.5 355.5,-327.5 510.5,-327.5 510.5,-306.5 355.5,-306.5"/>
<text text-anchor="middle" x="433" y="-314.5" font-family="Helvetica,sans-Serif" font-size="10.00">RoR::GUI::RigEditorNodePanel</text>
</a>
</g>
<!-- Node41&#45;&gt;Node42 -->
<g id="edge82" class="edge"><title>Node41&#45;&gt;Node42</title>
<path fill="none" stroke="midnightblue" d="M312.923,-317C327.017,-317 341.515,-317 355.347,-317"/>
<polygon fill="midnightblue" stroke="midnightblue" points="312.747,-313.5 302.747,-317 312.747,-320.5 312.747,-313.5"/>
</g>
<!-- Node44 -->
<g id="node87" class="node"><title>Node44</title>
<a xlink:href="class_ro_r_1_1_g_u_i_1_1_rig_editor_rig_properties_window.html" target="_top" xlink:title="RoR::GUI::RigEditorRigProperties\lWindow">
<polygon fill="white" stroke="black" points="349.5,-248 349.5,-282 516.5,-282 516.5,-248 349.5,-248"/>
<text text-anchor="start" x="357.5" y="-269" font-family="Helvetica,sans-Serif" font-size="10.00">RoR::GUI::RigEditorRigProperties</text>
<text text-anchor="middle" x="433" y="-256" font-family="Helvetica,sans-Serif" font-size="10.00">Window</text>
</a>
</g>
<!-- Node43&#45;&gt;Node44 -->
<g id="edge86" class="edge"><title>Node43&#45;&gt;Node44</title>
<path fill="none" stroke="midnightblue" d="M318.851,-265C329.058,-265 339.397,-265 349.469,-265"/>
<polygon fill="midnightblue" stroke="midnightblue" points="318.702,-261.5 308.702,-265 318.702,-268.5 318.702,-261.5"/>
</g>
</g>
</svg>
