<?xml version="1.0" encoding="UTF-8" standalone="no"?>
<!DOCTYPE svg PUBLIC "-//W3C//DTD SVG 1.1//EN"
 "http://www.w3.org/Graphics/SVG/1.1/DTD/svg11.dtd">
<!-- Generated by graphviz version 2.26.3 (20100126.1600)
 -->
<!-- Title: BeamFactory::localUserAttributesChanged Pages: 1 -->
<svg width="328pt" height="188pt"
 viewBox="0.00 0.00 328.00 188.00" xmlns="http://www.w3.org/2000/svg" xmlns:xlink="http://www.w3.org/1999/xlink">
<g id="graph1" class="graph" transform="scale(1 1) rotate(0) translate(4 184)">
<title>BeamFactory::localUserAttributesChanged</title>
<polygon fill="white" stroke="white" points="-4,5 -4,-184 325,-184 325,5 -4,5"/>
<!-- Node1 -->
<g id="node1" class="node"><title>Node1</title>
<polygon fill="#bfbfbf" stroke="black" points="0,-73 0,-107 164,-107 164,-73 0,-73"/>
<text text-anchor="start" x="8" y="-94" font-family="Helvetica,sans-Serif" font-size="10.00">BeamFactory::localUserAttributes</text>
<text text-anchor="middle" x="82" y="-81" font-family="Helvetica,sans-Serif" font-size="10.00">Changed</text>
</g>
<!-- Node2 -->
<g id="node3" class="node"><title>Node2</title>
<a xlink:href="class_streamable_factory.html#ae48eb0007578a22c2c857f72d1471a84" target="_top" xlink:title="StreamableFactory\&lt;\l BeamFactory, Beam \&gt;\l::lockStreams">
<polygon fill="white" stroke="black" points="200.5,-132.5 200.5,-179.5 319.5,-179.5 319.5,-132.5 200.5,-132.5"/>
<text text-anchor="start" x="208.5" y="-166.5" font-family="Helvetica,sans-Serif" font-size="10.00">StreamableFactory&lt;</text>
<text text-anchor="start" x="208.5" y="-153.5" font-family="Helvetica,sans-Serif" font-size="10.00"> BeamFactory, Beam &gt;</text>
<text text-anchor="middle" x="260" y="-140.5" font-family="Helvetica,sans-Serif" font-size="10.00">::lockStreams</text>
</a>
</g>
<!-- Node1&#45;&gt;Node2 -->
<g id="edge2" class="edge"><title>Node1&#45;&gt;Node2</title>
<path fill="none" stroke="midnightblue" d="M128.303,-107.168C147.419,-114.256 169.979,-122.622 190.976,-130.407"/>
<polygon fill="midnightblue" stroke="midnightblue" points="189.902,-133.741 200.495,-133.936 192.335,-127.178 189.902,-133.741"/>
</g>
<!-- Node3 -->
<g id="node5" class="node"><title>Node3</title>
<a xlink:href="class_streamable_factory.html#a144cbd4edd29595ee5c36bf9aa3b461c" target="_top" xlink:title="StreamableFactory\&lt;\l BeamFactory, Beam \&gt;\l::getStreams">
<polygon fill="white" stroke="black" points="200.5,-66.5 200.5,-113.5 319.5,-113.5 319.5,-66.5 200.5,-66.5"/>
<text text-anchor="start" x="208.5" y="-100.5" font-family="Helvetica,sans-Serif" font-size="10.00">StreamableFactory&lt;</text>
<text text-anchor="start" x="208.5" y="-87.5" font-family="Helvetica,sans-Serif" font-size="10.00"> BeamFactory, Beam &gt;</text>
<text text-anchor="middle" x="260" y="-74.5" font-family="Helvetica,sans-Serif" font-size="10.00">::getStreams</text>
</a>
</g>
<!-- Node1&#45;&gt;Node3 -->
<g id="edge4" class="edge"><title>Node1&#45;&gt;Node3</title>
<path fill="none" stroke="midnightblue" d="M164.227,-90C172.904,-90 181.669,-90 190.187,-90"/>
<polygon fill="midnightblue" stroke="midnightblue" points="190.433,-93.5001 200.433,-90 190.433,-86.5001 190.433,-93.5001"/>
</g>
<!-- Node4 -->
<g id="node7" class="node"><title>Node4</title>
<a xlink:href="class_streamable_factory.html#a903fef78ba76e72a0536ff615c5952d4" target="_top" xlink:title="StreamableFactory\&lt;\l BeamFactory, Beam \&gt;\l::unlockStreams">
<polygon fill="white" stroke="black" points="200.5,-0.5 200.5,-47.5 319.5,-47.5 319.5,-0.5 200.5,-0.5"/>
<text text-anchor="start" x="208.5" y="-34.5" font-family="Helvetica,sans-Serif" font-size="10.00">StreamableFactory&lt;</text>
<text text-anchor="start" x="208.5" y="-21.5" font-family="Helvetica,sans-Serif" font-size="10.00"> BeamFactory, Beam &gt;</text>
<text text-anchor="middle" x="260" y="-8.5" font-family="Helvetica,sans-Serif" font-size="10.00">::unlockStreams</text>
</a>
</g>
<!-- Node1&#45;&gt;Node4 -->
<g id="edge6" class="edge"><title>Node1&#45;&gt;Node4</title>
<path fill="none" stroke="midnightblue" d="M128.303,-72.8316C147.419,-65.7435 169.979,-57.3785 190.976,-49.5933"/>
<polygon fill="midnightblue" stroke="midnightblue" points="192.335,-52.8221 200.495,-46.0638 189.902,-46.2587 192.335,-52.8221"/>
</g>
</g>
</svg>
