<?xml version="1.0" encoding="UTF-8" standalone="no"?>
<!DOCTYPE svg PUBLIC "-//W3C//DTD SVG 1.1//EN"
 "http://www.w3.org/Graphics/SVG/1.1/DTD/svg11.dtd">
<!-- Generated by graphviz version 2.26.3 (20100126.1600)
 -->
<!-- Title: G Pages: 1 -->
<!--zoomable 189 -->
<svg id="main" version="1.1" xmlns="http://www.w3.org/2000/svg" xmlns:xlink="http://www.w3.org/1999/xlink" xml:space="preserve" onload="init(evt)">
        <defs>
                <circle id="rim" cx="0" cy="0" r="7"/>
                <circle id="rim2" cx="0" cy="0" r="3.5"/>
                <g id="zoomPlus">
                        <use xlink:href="#rim" fill="#404040">
                                <set attributeName="fill" to="#808080" begin="zoomplus.mouseover" end="zoomplus.mouseout"/>
                        </use>
                        <path d="M-4,0h8M0,-4v8" fill="none" stroke="white" stroke-width="1.5" pointer-events="none"/>
                </g>
                <g id="zoomMin">
                        <use xlink:href="#rim" fill="#404040">
                                <set attributeName="fill" to="#808080" begin="zoomminus.mouseover" end="zoomminus.mouseout"/>
                        </use>
                        <path d="M-4,0h8" fill="none" stroke="white" stroke-width="1.5" pointer-events="none"/>
                </g>
                <g id="dirArrow">
                        <path fill="none" stroke="white" stroke-width="1.5" d="M0,-3.0v7 M-2.5,-0.5L0,-3.0L2.5,-0.5"/>
                </g>
               <g id="resetDef">
                       <use xlink:href="#rim2" fill="#404040">
                               <set attributeName="fill" to="#808080" begin="reset.mouseover" end="reset.mouseout"/>
                       </use>
               </g>
        </defs>

<script type="text/javascript">
var viewWidth = 1726;
var viewHeight = 189;
var sectionId = 'dynsection-30';
</script>
<script xlink:href="svgpan.js"/>
<svg id="graph" class="graph">
<g id="viewport">
<title>G</title>
<polygon fill="white" stroke="white" points="-4,5 -4,-185 1723,-185 1723,5 -4,5"/>
<!-- Node1 -->
<g id="node1" class="node"><title>Node1</title>
<polygon fill="#bfbfbf" stroke="black" points="0.5,-60.5 0.5,-81.5 107.5,-81.5 107.5,-60.5 0.5,-60.5"/>
<text text-anchor="middle" x="54" y="-68.5" font-family="Helvetica,sans-Serif" font-size="10.00">Collisions::hash_find</text>
</g>
<!-- Node2 -->
<g id="node3" class="node"><title>Node2</title>
<a xlink:href="class_collisions.html#a76f3fda7383ac14c38f2f31f3ba9e691" target="_top" xlink:title="Collisions::collisionCorrect">
<polygon fill="white" stroke="black" points="184.5,-100.5 184.5,-121.5 317.5,-121.5 317.5,-100.5 184.5,-100.5"/>
<text text-anchor="middle" x="251" y="-108.5" font-family="Helvetica,sans-Serif" font-size="10.00">Collisions::collisionCorrect</text>
</a>
</g>
<!-- Node1&#45;&gt;Node2 -->
<g id="edge2" class="edge"><title>Node1&#45;&gt;Node2</title>
<path fill="none" stroke="midnightblue" d="M110.266,-83.8112C121.429,-86.2661 133.074,-88.7656 144,-91 159.738,-94.2185 176.821,-97.5046 192.621,-100.459"/>
<polygon fill="midnightblue" stroke="midnightblue" points="110.704,-80.3234 100.184,-81.5781 109.19,-87.1578 110.704,-80.3234"/>
</g>
<!-- Node8 -->
<g id="node16" class="node"><title>Node8</title>
<a xlink:href="class_collisions.html#a7d672022c769ed5db3ea6aaf08117212" target="_top" xlink:title="Collisions::nodeCollision">
<polygon fill="white" stroke="black" points="189,-60.5 189,-81.5 313,-81.5 313,-60.5 189,-60.5"/>
<text text-anchor="middle" x="251" y="-68.5" font-family="Helvetica,sans-Serif" font-size="10.00">Collisions::nodeCollision</text>
</a>
</g>
<!-- Node1&#45;&gt;Node8 -->
<g id="edge16" class="edge"><title>Node1&#45;&gt;Node8</title>
<path fill="none" stroke="midnightblue" d="M117.799,-71C140.538,-71 166.106,-71 188.717,-71"/>
<polygon fill="midnightblue" stroke="midnightblue" points="117.571,-67.5001 107.571,-71 117.571,-74.5001 117.571,-67.5001"/>
</g>
<!-- Node10 -->
<g id="node20" class="node"><title>Node10</title>
<a xlink:href="class_collisions.html#a671f48109ee3e019d5eb10cc93ea3383" target="_top" xlink:title="Collisions::createCollisionDebugVisualization">
<polygon fill="white" stroke="black" points="144,-20.5 144,-41.5 358,-41.5 358,-20.5 144,-20.5"/>
<text text-anchor="middle" x="251" y="-28.5" font-family="Helvetica,sans-Serif" font-size="10.00">Collisions::createCollisionDebugVisualization</text>
</a>
</g>
<!-- Node1&#45;&gt;Node10 -->
<g id="edge20" class="edge"><title>Node1&#45;&gt;Node10</title>
<path fill="none" stroke="midnightblue" d="M110.266,-58.1888C121.429,-55.7339 133.074,-53.2344 144,-51 159.738,-47.7815 176.821,-44.4954 192.621,-41.5414"/>
<polygon fill="midnightblue" stroke="midnightblue" points="109.19,-54.8422 100.184,-60.4219 110.704,-61.6766 109.19,-54.8422"/>
</g>
<!-- Node3 -->
<g id="node5" class="node"><title>Node3</title>
<a xlink:href="class_character.html#a4806a9150eb30673bab3d0b47e05d135" target="_top" xlink:title="Character::update">
<polygon fill="white" stroke="black" points="422.5,-140.5 422.5,-161.5 517.5,-161.5 517.5,-140.5 422.5,-140.5"/>
<text text-anchor="middle" x="470" y="-148.5" font-family="Helvetica,sans-Serif" font-size="10.00">Character::update</text>
</a>
</g>
<!-- Node2&#45;&gt;Node3 -->
<g id="edge4" class="edge"><title>Node2&#45;&gt;Node3</title>
<path fill="none" stroke="midnightblue" d="M318.752,-123.375C352.353,-129.512 392.123,-136.776 422.447,-142.314"/>
<polygon fill="midnightblue" stroke="midnightblue" points="319.006,-119.863 308.54,-121.51 317.748,-126.749 319.006,-119.863"/>
</g>
<!-- Node7 -->
<g id="node14" class="node"><title>Node7</title>
<a xlink:href="class_beam.html#af9a3fa1db5b9d76b667a7edf83a1b8ab" target="_top" xlink:title="Beam::resetPosition">
<polygon fill="white" stroke="black" points="417.5,-100.5 417.5,-121.5 522.5,-121.5 522.5,-100.5 417.5,-100.5"/>
<text text-anchor="middle" x="470" y="-108.5" font-family="Helvetica,sans-Serif" font-size="10.00">Beam::resetPosition</text>
</a>
</g>
<!-- Node2&#45;&gt;Node7 -->
<g id="edge14" class="edge"><title>Node2&#45;&gt;Node7</title>
<path fill="none" stroke="midnightblue" d="M327.89,-111C357.44,-111 390.477,-111 417.256,-111"/>
<polygon fill="midnightblue" stroke="midnightblue" points="327.599,-107.5 317.599,-111 327.599,-114.5 327.599,-107.5"/>
</g>
<!-- Node4 -->
<g id="node7" class="node"><title>Node4</title>
<a xlink:href="class_character_factory.html#a70f849028ea8a2372700fe92b44dba7b" target="_top" xlink:title="CharacterFactory::updateCharacters">
<polygon fill="white" stroke="black" points="582,-159.5 582,-180.5 758,-180.5 758,-159.5 582,-159.5"/>
<text text-anchor="middle" x="670" y="-167.5" font-family="Helvetica,sans-Serif" font-size="10.00">CharacterFactory::updateCharacters</text>
</a>
</g>
<!-- Node3&#45;&gt;Node4 -->
<g id="edge6" class="edge"><title>Node3&#45;&gt;Node4</title>
<path fill="none" stroke="midnightblue" d="M527.898,-156.5C544.8,-158.106 563.664,-159.898 581.984,-161.639"/>
<polygon fill="midnightblue" stroke="midnightblue" points="527.937,-152.988 517.651,-155.527 527.275,-159.957 527.937,-152.988"/>
</g>
<!-- Node5 -->
<g id="node9" class="node"><title>Node5</title>
<a xlink:href="class_ro_r_frame_listener.html#a6b384193b130f7c1fff95d2e740a370e" target="_top" xlink:title="RoRFrameListener::updateEvents">
<polygon fill="white" stroke="black" points="794.5,-139.5 794.5,-160.5 959.5,-160.5 959.5,-139.5 794.5,-139.5"/>
<text text-anchor="middle" x="877" y="-147.5" font-family="Helvetica,sans-Serif" font-size="10.00">RoRFrameListener::updateEvents</text>
</a>
</g>
<!-- Node3&#45;&gt;Node5 -->
<g id="edge12" class="edge"><title>Node3&#45;&gt;Node5</title>
<path fill="none" stroke="midnightblue" d="M527.726,-150.386C545.165,-150.227 564.364,-150.079 582,-150 653.701,-149.68 735.205,-149.71 794.347,-149.803"/>
<polygon fill="midnightblue" stroke="midnightblue" points="527.653,-146.887 517.686,-150.48 527.719,-153.886 527.653,-146.887"/>
</g>
<!-- Node4&#45;&gt;Node5 -->
<g id="edge8" class="edge"><title>Node4&#45;&gt;Node5</title>
<path fill="none" stroke="midnightblue" d="M768.259,-160.506C776.957,-159.666 785.703,-158.821 794.253,-157.995"/>
<polygon fill="midnightblue" stroke="midnightblue" points="767.704,-157.044 758.087,-161.489 768.377,-164.011 767.704,-157.044"/>
</g>
<!-- Node6 -->
<g id="node11" class="node"><title>Node6</title>
<a xlink:href="class_ro_r_frame_listener.html#acd8647e188fb8e838689492965b86faf" target="_top" xlink:title="RoRFrameListener::frameStarted">
<polygon fill="white" stroke="black" points="1011.5,-139.5 1011.5,-160.5 1172.5,-160.5 1172.5,-139.5 1011.5,-139.5"/>
<text text-anchor="middle" x="1092" y="-147.5" font-family="Helvetica,sans-Serif" font-size="10.00">RoRFrameListener::frameStarted</text>
</a>
</g>
<!-- Node5&#45;&gt;Node6 -->
<g id="edge10" class="edge"><title>Node5&#45;&gt;Node6</title>
<path fill="none" stroke="midnightblue" d="M969.589,-150C983.534,-150 997.819,-150 1011.48,-150"/>
<polygon fill="midnightblue" stroke="midnightblue" points="969.51,-146.5 959.51,-150 969.51,-153.5 969.51,-146.5"/>
</g>
<!-- Node9 -->
<g id="node18" class="node"><title>Node9</title>
<a xlink:href="class_beam.html#a406010888acacc4e279c04312d386d2c" target="_top" xlink:title="Beam::calcNodes">
<polygon fill="white" stroke="black" points="422.5,-60.5 422.5,-81.5 517.5,-81.5 517.5,-60.5 422.5,-60.5"/>
<text text-anchor="middle" x="470" y="-68.5" font-family="Helvetica,sans-Serif" font-size="10.00">Beam::calcNodes</text>
</a>
</g>
<!-- Node8&#45;&gt;Node9 -->
<g id="edge18" class="edge"><title>Node8&#45;&gt;Node9</title>
<path fill="none" stroke="midnightblue" d="M323.529,-71C356.017,-71 393.424,-71 422.303,-71"/>
<polygon fill="midnightblue" stroke="midnightblue" points="323.171,-67.5001 313.171,-71 323.171,-74.5001 323.171,-67.5001"/>
</g>
<!-- Node11 -->
<g id="node22" class="node"><title>Node11</title>
<a xlink:href="class_collisions.html#ae63812137037d5a0e4da7cfb6d3b9ed0" target="_top" xlink:title="Collisions::finishLoadingTerrain">
<polygon fill="white" stroke="black" points="394,-20.5 394,-41.5 546,-41.5 546,-20.5 394,-20.5"/>
<text text-anchor="middle" x="470" y="-28.5" font-family="Helvetica,sans-Serif" font-size="10.00">Collisions::finishLoadingTerrain</text>
</a>
</g>
<!-- Node10&#45;&gt;Node11 -->
<g id="edge22" class="edge"><title>Node10&#45;&gt;Node11</title>
<path fill="none" stroke="midnightblue" d="M368.4,-31C377.028,-31 385.59,-31 393.871,-31"/>
<polygon fill="midnightblue" stroke="midnightblue" points="368.255,-27.5001 358.255,-31 368.254,-34.5001 368.255,-27.5001"/>
</g>
<!-- Node12 -->
<g id="node24" class="node"><title>Node12</title>
<a xlink:href="class_terrain_manager.html#a9a04c837bf2ea6528c465b27ca62f730" target="_top" xlink:title="TerrainManager::loadTerrain">
<polygon fill="white" stroke="black" points="601,-20.5 601,-41.5 739,-41.5 739,-20.5 601,-20.5"/>
<text text-anchor="middle" x="670" y="-28.5" font-family="Helvetica,sans-Serif" font-size="10.00">TerrainManager::loadTerrain</text>
</a>
</g>
<!-- Node11&#45;&gt;Node12 -->
<g id="edge24" class="edge"><title>Node11&#45;&gt;Node12</title>
<path fill="none" stroke="midnightblue" d="M556.402,-31C571.283,-31 586.573,-31 600.921,-31"/>
<polygon fill="midnightblue" stroke="midnightblue" points="556.182,-27.5001 546.182,-31 556.182,-34.5001 556.182,-27.5001"/>
</g>
<!-- Node13 -->
<g id="node26" class="node"><title>Node13</title>
<a xlink:href="class_ro_r_1_1_main_thread.html#a60603be78a54ae5a24ca1c00509aca1f" target="_top" xlink:title="RoR::MainThread::LoadTerrain">
<polygon fill="white" stroke="black" points="801.5,-20.5 801.5,-41.5 952.5,-41.5 952.5,-20.5 801.5,-20.5"/>
<text text-anchor="middle" x="877" y="-28.5" font-family="Helvetica,sans-Serif" font-size="10.00">RoR::MainThread::LoadTerrain</text>
</a>
</g>
<!-- Node12&#45;&gt;Node13 -->
<g id="edge26" class="edge"><title>Node12&#45;&gt;Node13</title>
<path fill="none" stroke="midnightblue" d="M749.671,-31C766.679,-31 784.595,-31 801.443,-31"/>
<polygon fill="midnightblue" stroke="midnightblue" points="749.216,-27.5001 739.216,-31 749.216,-34.5001 749.216,-27.5001"/>
</g>
<!-- Node14 -->
<g id="node28" class="node"><title>Node14</title>
<a xlink:href="class_ro_r_1_1_main_thread.html#aa3feeebda7f3f4c31a6cb96ea60c09e0" target="_top" xlink:title="RoR::MainThread::SetupGameplayLoop">
<polygon fill="white" stroke="black" points="996.5,-40.5 996.5,-61.5 1187.5,-61.5 1187.5,-40.5 996.5,-40.5"/>
<text text-anchor="middle" x="1092" y="-48.5" font-family="Helvetica,sans-Serif" font-size="10.00">RoR::MainThread::SetupGameplayLoop</text>
</a>
</g>
<!-- Node13&#45;&gt;Node14 -->
<g id="edge28" class="edge"><title>Node13&#45;&gt;Node14</title>
<path fill="none" stroke="midnightblue" d="M962.778,-38.9794C973.754,-40.0003 985.045,-41.0507 996.167,-42.0853"/>
<polygon fill="midnightblue" stroke="midnightblue" points="963.082,-35.4926 952.801,-38.0513 962.434,-42.4625 963.082,-35.4926"/>
</g>
<!-- Node19 -->
<g id="node38" class="node"><title>Node19</title>
<a xlink:href="class_game_script.html#ac1cba3fc83facbad8281ff80d4ab0f0b" target="_top" xlink:title="GameScript::loadTerrain">
<polygon fill="white" stroke="black" points="1031,-0.5 1031,-21.5 1153,-21.5 1153,-0.5 1031,-0.5"/>
<text text-anchor="middle" x="1092" y="-8.5" font-family="Helvetica,sans-Serif" font-size="10.00">GameScript::loadTerrain</text>
</a>
</g>
<!-- Node13&#45;&gt;Node19 -->
<g id="edge38" class="edge"><title>Node13&#45;&gt;Node19</title>
<path fill="none" stroke="midnightblue" d="M962.782,-23.0202C985.497,-20.9073 1009.56,-18.6687 1030.69,-16.7035"/>
<polygon fill="midnightblue" stroke="midnightblue" points="962.434,-19.5375 952.801,-23.9487 963.082,-26.5074 962.434,-19.5375"/>
</g>
<!-- Node15 -->
<g id="node30" class="node"><title>Node15</title>
<a xlink:href="class_ro_r_1_1_main_thread.html#a7e4d0bd23a40e509892883af75ea0dbf" target="_top" xlink:title="RoR::MainThread::Go">
<polygon fill="white" stroke="black" points="1224.5,-40.5 1224.5,-61.5 1337.5,-61.5 1337.5,-40.5 1224.5,-40.5"/>
<text text-anchor="middle" x="1281" y="-48.5" font-family="Helvetica,sans-Serif" font-size="10.00">RoR::MainThread::Go</text>
</a>
</g>
<!-- Node14&#45;&gt;Node15 -->
<g id="edge30" class="edge"><title>Node14&#45;&gt;Node15</title>
<path fill="none" stroke="midnightblue" d="M1197.87,-51C1206.93,-51 1215.84,-51 1224.28,-51"/>
<polygon fill="midnightblue" stroke="midnightblue" points="1197.61,-47.5001 1187.61,-51 1197.61,-54.5001 1197.61,-47.5001"/>
</g>
<!-- Node16 -->
<g id="node32" class="node"><title>Node16</title>
<a xlink:href="main_2main__sim_2main_8cpp.html#a0ddf1224851353fc92bfbff6f499fa97" target="_top" xlink:title="main">
<polygon fill="white" stroke="black" points="1440,-60.5 1440,-81.5 1478,-81.5 1478,-60.5 1440,-60.5"/>
<text text-anchor="middle" x="1459" y="-68.5" font-family="Helvetica,sans-Serif" font-size="10.00">main</text>
</a>
</g>
<!-- Node15&#45;&gt;Node16 -->
<g id="edge32" class="edge"><title>Node15&#45;&gt;Node16</title>
<path fill="none" stroke="midnightblue" d="M1347.83,-58.5095C1380.65,-62.1966 1417.76,-66.3661 1439.72,-68.8341"/>
<polygon fill="midnightblue" stroke="midnightblue" points="1348.14,-55.0217 1337.81,-57.3831 1347.36,-61.9779 1348.14,-55.0217"/>
</g>
<!-- Node17 -->
<g id="node34" class="node"><title>Node17</title>
<a xlink:href="class_ro_r_1_1_main_thread.html#a7a2db954fd2f35d63982d8603d2b9614" target="_top" xlink:title="RoR::MainThread::RequestRestart">
<polygon fill="white" stroke="black" points="1374.5,-20.5 1374.5,-41.5 1543.5,-41.5 1543.5,-20.5 1374.5,-20.5"/>
<text text-anchor="middle" x="1459" y="-28.5" font-family="Helvetica,sans-Serif" font-size="10.00">RoR::MainThread::RequestRestart</text>
</a>
</g>
<!-- Node15&#45;&gt;Node17 -->
<g id="edge34" class="edge"><title>Node15&#45;&gt;Node17</title>
<path fill="none" stroke="midnightblue" d="M1347.78,-43.4972C1356.4,-42.5283 1365.32,-41.5259 1374.18,-40.5298"/>
<polygon fill="midnightblue" stroke="midnightblue" points="1347.36,-40.0221 1337.81,-44.6169 1348.14,-46.9783 1347.36,-40.0221"/>
</g>
<!-- Node18 -->
<g id="node36" class="node"><title>Node18</title>
<a xlink:href="class_ro_r_frame_listener.html#af2779b96aa0f91920bd100bc30261402" target="_top" xlink:title="RoRFrameListener::Restart">
<polygon fill="white" stroke="black" points="1580.5,-20.5 1580.5,-41.5 1717.5,-41.5 1717.5,-20.5 1580.5,-20.5"/>
<text text-anchor="middle" x="1649" y="-28.5" font-family="Helvetica,sans-Serif" font-size="10.00">RoRFrameListener::Restart</text>
</a>
</g>
<!-- Node17&#45;&gt;Node18 -->
<g id="edge36" class="edge"><title>Node17&#45;&gt;Node18</title>
<path fill="none" stroke="midnightblue" d="M1553.82,-31C1562.78,-31 1571.75,-31 1580.4,-31"/>
<polygon fill="midnightblue" stroke="midnightblue" points="1553.72,-27.5001 1543.72,-31 1553.72,-34.5001 1553.72,-27.5001"/>
</g>
</g>
</svg>
        <g id="navigator" transform="translate(0 0)" fill="#404254">
                <rect fill="#f2f5e9" fill-opacity="0.5" stroke="#606060" stroke-width=".5" x="0" y="0" width="60" height="60"/>
                <use id="zoomplus" xlink:href="#zoomPlus" x="17" y="9" onmousedown="handleZoom(evt,'in')"/>
                <use id="zoomminus" xlink:href="#zoomMin" x="42" y="9" onmousedown="handleZoom(evt,'out')"/>
                <use id="reset" xlink:href="#resetDef" x="30" y="36" onmousedown="handleReset()"/>
                <g id="arrowUp" xlink:href="#dirArrow" transform="translate(30 24)" onmousedown="handlePan(0,-1)">
                  <use xlink:href="#rim" fill="#404040">
                        <set attributeName="fill" to="#808080" begin="arrowUp.mouseover" end="arrowUp.mouseout"/>
                  </use>
                  <path fill="none" stroke="white" stroke-width="1.5" d="M0,-3.0v7 M-2.5,-0.5L0,-3.0L2.5,-0.5"/>
                </g>
                <g id="arrowRight" xlink:href="#dirArrow" transform="rotate(90) translate(36 -43)" onmousedown="handlePan(1,0)">
                  <use xlink:href="#rim" fill="#404040">
                        <set attributeName="fill" to="#808080" begin="arrowRight.mouseover" end="arrowRight.mouseout"/>
                  </use>
                  <path fill="none" stroke="white" stroke-width="1.5" d="M0,-3.0v7 M-2.5,-0.5L0,-3.0L2.5,-0.5"/>
                </g>
                <g id="arrowDown" xlink:href="#dirArrow" transform="rotate(180) translate(-30 -48)" onmousedown="handlePan(0,1)">
                  <use xlink:href="#rim" fill="#404040">
                        <set attributeName="fill" to="#808080" begin="arrowDown.mouseover" end="arrowDown.mouseout"/>
                  </use>
                  <path fill="none" stroke="white" stroke-width="1.5" d="M0,-3.0v7 M-2.5,-0.5L0,-3.0L2.5,-0.5"/>
                </g>
                <g id="arrowLeft" xlink:href="#dirArrow" transform="rotate(270) translate(-36 17)" onmousedown="handlePan(-1,0)">
                  <use xlink:href="#rim" fill="#404040">
                        <set attributeName="fill" to="#808080" begin="arrowLeft.mouseover" end="arrowLeft.mouseout"/>
                  </use>
                  <path fill="none" stroke="white" stroke-width="1.5" d="M0,-3.0v7 M-2.5,-0.5L0,-3.0L2.5,-0.5"/>
                </g>
        </g>
</svg>
