<?xml version="1.0" encoding="UTF-8" standalone="no"?>
<!DOCTYPE svg PUBLIC "-//W3C//DTD SVG 1.1//EN"
 "http://www.w3.org/Graphics/SVG/1.1/DTD/svg11.dtd">
<!-- Generated by graphviz version 2.26.3 (20100126.1600)
 -->
<!-- Title: wraps::BaseLayout::initialiseByAttributes Pages: 1 -->
<svg width="340pt" height="1496pt"
 viewBox="0.00 0.00 340.00 1496.00" xmlns="http://www.w3.org/2000/svg" xmlns:xlink="http://www.w3.org/1999/xlink">
<g id="graph1" class="graph" transform="scale(1 1) rotate(0) translate(4 1492)">
<title>wraps::BaseLayout::initialiseByAttributes</title>
<polygon fill="white" stroke="white" points="-4,5 -4,-1492 337,-1492 337,5 -4,5"/>
<!-- Node1 -->
<g id="node1" class="node"><title>Node1</title>
<polygon fill="#bfbfbf" stroke="black" points="0.5,-762 0.5,-796 107.5,-796 107.5,-762 0.5,-762"/>
<text text-anchor="start" x="8.5" y="-783" font-family="Helvetica,sans-Serif" font-size="10.00">wraps::BaseLayout::</text>
<text text-anchor="middle" x="54" y="-770" font-family="Helvetica,sans-Serif" font-size="10.00">initialiseByAttributes</text>
</g>
<!-- Node2 -->
<g id="node3" class="node"><title>Node2</title>
<a xlink:href="class_ro_r_1_1_g_u_i_1_1_debug_options_layout.html#a1a1ad6dd54af7eeaaee8187da42532b1" target="_top" xlink:title="RoR::GUI::DebugOptionsLayout\l::DebugOptionsLayout">
<polygon fill="white" stroke="black" points="159,-1454 159,-1488 317,-1488 317,-1454 159,-1454"/>
<text text-anchor="start" x="167" y="-1475" font-family="Helvetica,sans-Serif" font-size="10.00">RoR::GUI::DebugOptionsLayout</text>
<text text-anchor="middle" x="238" y="-1462" font-family="Helvetica,sans-Serif" font-size="10.00">::DebugOptionsLayout</text>
</a>
</g>
<!-- Node1&#45;&gt;Node2 -->
<g id="edge2" class="edge"><title>Node1&#45;&gt;Node2</title>
<path fill="none" stroke="midnightblue" d="M55.9079,-806.067C64.5086,-924.805 101.125,-1395.88 144,-1445 148.231,-1449.85 153.277,-1453.83 158.803,-1457.09"/>
<polygon fill="midnightblue" stroke="midnightblue" points="59.3924,-805.724 55.185,-796 52.4104,-806.225 59.3924,-805.724"/>
</g>
<!-- Node3 -->
<g id="node5" class="node"><title>Node3</title>
<a xlink:href="class_ro_r_1_1_g_u_i_1_1_game_about_layout.html#a36e21a95b99f558600cb9e4fe7b1539b" target="_top" xlink:title="RoR::GUI::GameAboutLayout\l::GameAboutLayout">
<polygon fill="white" stroke="black" points="164,-1402 164,-1436 312,-1436 312,-1402 164,-1402"/>
<text text-anchor="start" x="172" y="-1423" font-family="Helvetica,sans-Serif" font-size="10.00">RoR::GUI::GameAboutLayout</text>
<text text-anchor="middle" x="238" y="-1410" font-family="Helvetica,sans-Serif" font-size="10.00">::GameAboutLayout</text>
</a>
</g>
<!-- Node1&#45;&gt;Node3 -->
<g id="edge4" class="edge"><title>Node1&#45;&gt;Node3</title>
<path fill="none" stroke="midnightblue" d="M56.2647,-806.454C65.8552,-919.889 104.452,-1348.2 144,-1393 149.491,-1399.22 156.324,-1404.01 163.784,-1407.69"/>
<polygon fill="midnightblue" stroke="midnightblue" points="59.7278,-805.867 55.4041,-796.195 52.7523,-806.452 59.7278,-805.867"/>
</g>
<!-- Node4 -->
<g id="node7" class="node"><title>Node4</title>
<a xlink:href="class_ro_r_1_1_g_u_i_1_1_game_chat_box_layout.html#a81f2ed163ed219bc38a70b20491722fc" target="_top" xlink:title="RoR::GUI::GameChatBoxLayout\l::GameChatBoxLayout">
<polygon fill="white" stroke="black" points="157.5,-1350 157.5,-1384 318.5,-1384 318.5,-1350 157.5,-1350"/>
<text text-anchor="start" x="165.5" y="-1371" font-family="Helvetica,sans-Serif" font-size="10.00">RoR::GUI::GameChatBoxLayout</text>
<text text-anchor="middle" x="238" y="-1358" font-family="Helvetica,sans-Serif" font-size="10.00">::GameChatBoxLayout</text>
</a>
</g>
<!-- Node1&#45;&gt;Node4 -->
<g id="edge6" class="edge"><title>Node1&#45;&gt;Node4</title>
<path fill="none" stroke="midnightblue" d="M54.5838,-806.079C57.3108,-907.12 71.9283,-1260.44 144,-1341 147.839,-1345.29 152.316,-1348.9 157.194,-1351.93"/>
<polygon fill="midnightblue" stroke="midnightblue" points="58.0823,-805.972 54.3308,-796.064 51.0845,-806.149 58.0823,-805.972"/>
</g>
<!-- Node5 -->
<g id="node9" class="node"><title>Node5</title>
<a xlink:href="class_ro_r_1_1_g_u_i_1_1_game_console_layout.html#a10309dc3e63f9c27fd46fe939d385ba0" target="_top" xlink:title="RoR::GUI::GameConsoleLayout\l::GameConsoleLayout">
<polygon fill="white" stroke="black" points="159,-1298 159,-1332 317,-1332 317,-1298 159,-1298"/>
<text text-anchor="start" x="167" y="-1319" font-family="Helvetica,sans-Serif" font-size="10.00">RoR::GUI::GameConsoleLayout</text>
<text text-anchor="middle" x="238" y="-1306" font-family="Helvetica,sans-Serif" font-size="10.00">::GameConsoleLayout</text>
</a>
</g>
<!-- Node1&#45;&gt;Node5 -->
<g id="edge8" class="edge"><title>Node1&#45;&gt;Node5</title>
<path fill="none" stroke="midnightblue" d="M55.0806,-806.309C59.3972,-901.519 78.4792,-1216.93 144,-1289 148.214,-1293.64 153.174,-1297.47 158.575,-1300.65"/>
<polygon fill="midnightblue" stroke="midnightblue" points="58.5663,-805.903 54.6353,-796.064 51.5729,-806.207 58.5663,-805.903"/>
</g>
<!-- Node6 -->
<g id="node11" class="node"><title>Node6</title>
<a xlink:href="class_ro_r_1_1_g_u_i_1_1_game_main_menu_layout.html#a3de0b8e25ebb02ab85a1d58fce1a3c03" target="_top" xlink:title="RoR::GUI::GameMainMenuLayout\l::GameMainMenuLayout">
<polygon fill="white" stroke="black" points="154.5,-1246 154.5,-1280 321.5,-1280 321.5,-1246 154.5,-1246"/>
<text text-anchor="start" x="162.5" y="-1267" font-family="Helvetica,sans-Serif" font-size="10.00">RoR::GUI::GameMainMenuLayout</text>
<text text-anchor="middle" x="238" y="-1254" font-family="Helvetica,sans-Serif" font-size="10.00">::GameMainMenuLayout</text>
</a>
</g>
<!-- Node1&#45;&gt;Node6 -->
<g id="edge10" class="edge"><title>Node1&#45;&gt;Node6</title>
<path fill="none" stroke="midnightblue" d="M55.6665,-806.117C61.6482,-894.658 84.9047,-1173.25 144,-1237 147.108,-1240.35 150.606,-1243.29 154.377,-1245.86"/>
<polygon fill="midnightblue" stroke="midnightblue" points="59.1539,-805.809 55.0068,-796.059 52.1689,-806.267 59.1539,-805.809"/>
</g>
<!-- Node7 -->
<g id="node13" class="node"><title>Node7</title>
<a xlink:href="class_ro_r_1_1_g_u_i_1_1_game_pause_menu_layout.html#aa8a86f0bbe7120c724ff08a1114b64fd" target="_top" xlink:title="RoR::GUI::GamePauseMenuLayout\l::GamePauseMenuLayout">
<polygon fill="white" stroke="black" points="151,-1194 151,-1228 325,-1228 325,-1194 151,-1194"/>
<text text-anchor="start" x="159" y="-1215" font-family="Helvetica,sans-Serif" font-size="10.00">RoR::GUI::GamePauseMenuLayout</text>
<text text-anchor="middle" x="238" y="-1202" font-family="Helvetica,sans-Serif" font-size="10.00">::GamePauseMenuLayout</text>
</a>
</g>
<!-- Node1&#45;&gt;Node7 -->
<g id="edge12" class="edge"><title>Node1&#45;&gt;Node7</title>
<path fill="none" stroke="midnightblue" d="M56.4468,-806.515C64.2912,-888.624 91.426,-1129.64 144,-1185 147.148,-1188.32 150.678,-1191.22 154.473,-1193.76"/>
<polygon fill="midnightblue" stroke="midnightblue" points="59.9214,-806.079 55.5063,-796.448 52.9517,-806.73 59.9214,-806.079"/>
</g>
<!-- Node8 -->
<g id="node15" class="node"><title>Node8</title>
<a xlink:href="class_ro_r_1_1_g_u_i_1_1_game_settings_layout.html#a24618c05e36beb6da47c5a2adbc92b06" target="_top" xlink:title="RoR::GUI::GameSettingsLayout\l::GameSettingsLayout">
<polygon fill="white" stroke="black" points="159,-1142 159,-1176 317,-1176 317,-1142 159,-1142"/>
<text text-anchor="start" x="167" y="-1163" font-family="Helvetica,sans-Serif" font-size="10.00">RoR::GUI::GameSettingsLayout</text>
<text text-anchor="middle" x="238" y="-1150" font-family="Helvetica,sans-Serif" font-size="10.00">::GameSettingsLayout</text>
</a>
</g>
<!-- Node1&#45;&gt;Node8 -->
<g id="edge14" class="edge"><title>Node1&#45;&gt;Node8</title>
<path fill="none" stroke="midnightblue" d="M57.4024,-806.421C67.2061,-881.129 97.7987,-1085.82 144,-1133 148.383,-1137.48 153.463,-1141.2 158.947,-1144.3"/>
<polygon fill="midnightblue" stroke="midnightblue" points="60.8574,-805.847 56.1074,-796.376 53.9148,-806.742 60.8574,-805.847"/>
</g>
<!-- Node9 -->
<g id="node17" class="node"><title>Node9</title>
<a xlink:href="class_ro_r_1_1_g_u_i_1_1_main_selector_layout.html#a9f9d5ddb03582b032db18dfcbf9b9a01" target="_top" xlink:title="RoR::GUI::MainSelectorLayout\l::MainSelectorLayout">
<polygon fill="white" stroke="black" points="161.5,-1090 161.5,-1124 314.5,-1124 314.5,-1090 161.5,-1090"/>
<text text-anchor="start" x="169.5" y="-1111" font-family="Helvetica,sans-Serif" font-size="10.00">RoR::GUI::MainSelectorLayout</text>
<text text-anchor="middle" x="238" y="-1098" font-family="Helvetica,sans-Serif" font-size="10.00">::MainSelectorLayout</text>
</a>
</g>
<!-- Node1&#45;&gt;Node9 -->
<g id="edge16" class="edge"><title>Node1&#45;&gt;Node9</title>
<path fill="none" stroke="midnightblue" d="M58.6754,-806.35C70.6166,-873.132 104.126,-1041.91 144,-1081 149.078,-1085.98 155.02,-1090.02 161.406,-1093.31"/>
<polygon fill="midnightblue" stroke="midnightblue" points="62.0666,-805.426 56.8843,-796.185 55.1728,-806.641 62.0666,-805.426"/>
</g>
<!-- Node10 -->
<g id="node19" class="node"><title>Node10</title>
<a xlink:href="class_ro_r_1_1_g_u_i_1_1_message_box_layout.html#a61a47d5efab2e34bd90c9ab6ebb87da6" target="_top" xlink:title="RoR::GUI::MessageBoxLayout\l::MessageBoxLayout">
<polygon fill="white" stroke="black" points="161.5,-1038 161.5,-1072 314.5,-1072 314.5,-1038 161.5,-1038"/>
<text text-anchor="start" x="169.5" y="-1059" font-family="Helvetica,sans-Serif" font-size="10.00">RoR::GUI::MessageBoxLayout</text>
<text text-anchor="middle" x="238" y="-1046" font-family="Helvetica,sans-Serif" font-size="10.00">::MessageBoxLayout</text>
</a>
</g>
<!-- Node1&#45;&gt;Node10 -->
<g id="edge18" class="edge"><title>Node1&#45;&gt;Node10</title>
<path fill="none" stroke="midnightblue" d="M55.8228,-806.142C60.7505,-857.362 78.7808,-968.54 144,-1029 149.091,-1033.72 154.963,-1037.59 161.234,-1040.77"/>
<polygon fill="midnightblue" stroke="midnightblue" points="59.3084,-805.823 54.9579,-796.163 52.3345,-806.427 59.3084,-805.823"/>
</g>
<!-- Node11 -->
<g id="node21" class="node"><title>Node11</title>
<a xlink:href="class_ro_r_1_1_g_u_i_1_1_multiplayer_selector_layout.html#aec0c9c664628549aa22026e5e1b2bb4b" target="_top" xlink:title="RoR::GUI::MultiplayerSelector\lLayout::MultiplayerSelectorLayout">
<polygon fill="white" stroke="black" points="156,-986 156,-1020 320,-1020 320,-986 156,-986"/>
<text text-anchor="start" x="164" y="-1007" font-family="Helvetica,sans-Serif" font-size="10.00">RoR::GUI::MultiplayerSelector</text>
<text text-anchor="middle" x="238" y="-994" font-family="Helvetica,sans-Serif" font-size="10.00">Layout::MultiplayerSelectorLayout</text>
</a>
</g>
<!-- Node1&#45;&gt;Node11 -->
<g id="edge20" class="edge"><title>Node1&#45;&gt;Node11</title>
<path fill="none" stroke="midnightblue" d="M58.7628,-806.205C67.697,-848.991 91.068,-931.778 144,-977 147.991,-980.41 152.394,-983.375 157.05,-985.953"/>
<polygon fill="midnightblue" stroke="midnightblue" points="62.1652,-805.369 56.7932,-796.237 55.2979,-806.725 62.1652,-805.369"/>
</g>
<!-- Node12 -->
<g id="node23" class="node"><title>Node12</title>
<a xlink:href="class_ro_r_1_1_g_u_i_1_1_rig_editor_beams_panel_layout.html#a063580c9c0abdde1512d4d452759dec6" target="_top" xlink:title="RoR::GUI::RigEditorBeams\lPanelLayout::RigEditorBeamsPanel\lLayout">
<polygon fill="white" stroke="black" points="151.5,-920.5 151.5,-967.5 324.5,-967.5 324.5,-920.5 151.5,-920.5"/>
<text text-anchor="start" x="159.5" y="-954.5" font-family="Helvetica,sans-Serif" font-size="10.00">RoR::GUI::RigEditorBeams</text>
<text text-anchor="start" x="159.5" y="-941.5" font-family="Helvetica,sans-Serif" font-size="10.00">PanelLayout::RigEditorBeamsPanel</text>
<text text-anchor="middle" x="238" y="-928.5" font-family="Helvetica,sans-Serif" font-size="10.00">Layout</text>
</a>
</g>
<!-- Node1&#45;&gt;Node12 -->
<g id="edge22" class="edge"><title>Node1&#45;&gt;Node12</title>
<path fill="none" stroke="midnightblue" d="M65.7222,-805.48C80.1232,-835.146 107.242,-882.765 144,-911 148.526,-914.477 153.448,-917.606 158.587,-920.418"/>
<polygon fill="midnightblue" stroke="midnightblue" points="68.7597,-803.715 61.3304,-796.162 62.4278,-806.7 68.7597,-803.715"/>
</g>
<!-- Node13 -->
<g id="node25" class="node"><title>Node13</title>
<a xlink:href="class_ro_r_1_1_g_u_i_1_1_rig_editor_commands2_panel_layout.html#aa74b3372da473c21473afefc804c3062" target="_top" xlink:title="RoR::GUI::RigEditorCommands2\lPanelLayout::RigEditorCommands2\lPanelLayout">
<polygon fill="white" stroke="black" points="151.5,-854.5 151.5,-901.5 324.5,-901.5 324.5,-854.5 151.5,-854.5"/>
<text text-anchor="start" x="159.5" y="-888.5" font-family="Helvetica,sans-Serif" font-size="10.00">RoR::GUI::RigEditorCommands2</text>
<text text-anchor="start" x="159.5" y="-875.5" font-family="Helvetica,sans-Serif" font-size="10.00">PanelLayout::RigEditorCommands2</text>
<text text-anchor="middle" x="238" y="-862.5" font-family="Helvetica,sans-Serif" font-size="10.00">PanelLayout</text>
</a>
</g>
<!-- Node1&#45;&gt;Node13 -->
<g id="edge24" class="edge"><title>Node1&#45;&gt;Node13</title>
<path fill="none" stroke="midnightblue" d="M81.5058,-802.491C98.6379,-816.254 121.611,-833.196 144,-845 150.426,-848.388 157.273,-851.552 164.231,-854.475"/>
<polygon fill="midnightblue" stroke="midnightblue" points="83.5515,-799.643 73.593,-796.027 79.1228,-805.064 83.5515,-799.643"/>
</g>
<!-- Node14 -->
<g id="node27" class="node"><title>Node14</title>
<a xlink:href="class_ro_r_1_1_g_u_i_1_1_rig_editor_delete_menu_layout.html#a6cfd01d0a4e7cd5c256dd77c9b9572df" target="_top" xlink:title="RoR::GUI::RigEditorDelete\lMenuLayout::RigEditorDeleteMenu\lLayout">
<polygon fill="white" stroke="black" points="153.5,-788.5 153.5,-835.5 322.5,-835.5 322.5,-788.5 153.5,-788.5"/>
<text text-anchor="start" x="161.5" y="-822.5" font-family="Helvetica,sans-Serif" font-size="10.00">RoR::GUI::RigEditorDelete</text>
<text text-anchor="start" x="161.5" y="-809.5" font-family="Helvetica,sans-Serif" font-size="10.00">MenuLayout::RigEditorDeleteMenu</text>
<text text-anchor="middle" x="238" y="-796.5" font-family="Helvetica,sans-Serif" font-size="10.00">Layout</text>
</a>
</g>
<!-- Node1&#45;&gt;Node14 -->
<g id="edge26" class="edge"><title>Node1&#45;&gt;Node14</title>
<path fill="none" stroke="midnightblue" d="M117.659,-790.417C129.192,-792.485 141.383,-794.672 153.404,-796.828"/>
<polygon fill="midnightblue" stroke="midnightblue" points="118.176,-786.954 107.715,-788.634 116.94,-793.844 118.176,-786.954"/>
</g>
<!-- Node15 -->
<g id="node29" class="node"><title>Node15</title>
<a xlink:href="class_ro_r_1_1_g_u_i_1_1_rig_editor_flex_body_wheels_panel_layout.html#ac504cb61706d07835cad68de338d94d6" target="_top" xlink:title="RoR::GUI::RigEditorFlexBody\lWheelsPanelLayout::RigEditorFlex\lBodyWheelsPanelLayout">
<polygon fill="white" stroke="black" points="153.5,-722.5 153.5,-769.5 322.5,-769.5 322.5,-722.5 153.5,-722.5"/>
<text text-anchor="start" x="161.5" y="-756.5" font-family="Helvetica,sans-Serif" font-size="10.00">RoR::GUI::RigEditorFlexBody</text>
<text text-anchor="start" x="161.5" y="-743.5" font-family="Helvetica,sans-Serif" font-size="10.00">WheelsPanelLayout::RigEditorFlex</text>
<text text-anchor="middle" x="238" y="-730.5" font-family="Helvetica,sans-Serif" font-size="10.00">BodyWheelsPanelLayout</text>
</a>
</g>
<!-- Node1&#45;&gt;Node15 -->
<g id="edge28" class="edge"><title>Node1&#45;&gt;Node15</title>
<path fill="none" stroke="midnightblue" d="M117.659,-767.583C129.192,-765.515 141.383,-763.328 153.404,-761.172"/>
<polygon fill="midnightblue" stroke="midnightblue" points="116.94,-764.156 107.715,-769.366 118.176,-771.046 116.94,-764.156"/>
</g>
<!-- Node16 -->
<g id="node31" class="node"><title>Node16</title>
<a xlink:href="class_ro_r_1_1_g_u_i_1_1_rig_editor_help_window_layout.html#a63fa99efa506c9bcbd8c7ba8c6f0f8f7" target="_top" xlink:title="RoR::GUI::RigEditorHelpWindow\lLayout::RigEditorHelpWindowLayout">
<polygon fill="white" stroke="black" points="149.5,-670 149.5,-704 326.5,-704 326.5,-670 149.5,-670"/>
<text text-anchor="start" x="157.5" y="-691" font-family="Helvetica,sans-Serif" font-size="10.00">RoR::GUI::RigEditorHelpWindow</text>
<text text-anchor="middle" x="238" y="-678" font-family="Helvetica,sans-Serif" font-size="10.00">Layout::RigEditorHelpWindowLayout</text>
</a>
</g>
<!-- Node1&#45;&gt;Node16 -->
<g id="edge30" class="edge"><title>Node1&#45;&gt;Node16</title>
<path fill="none" stroke="midnightblue" d="M80.892,-755.233C97.9565,-741.219 121.074,-724.111 144,-713 150.857,-709.677 158.207,-706.719 165.666,-704.1"/>
<polygon fill="midnightblue" stroke="midnightblue" points="78.444,-752.718 73.0284,-761.824 82.9407,-758.083 78.444,-752.718"/>
</g>
<!-- Node17 -->
<g id="node33" class="node"><title>Node17</title>
<a xlink:href="class_ro_r_1_1_g_u_i_1_1_rig_editor_hydros_panel_layout.html#aaf78880f63711cc4ac3e059d098cceb8" target="_top" xlink:title="RoR::GUI::RigEditorHydros\lPanelLayout::RigEditorHydrosPanel\lLayout">
<polygon fill="white" stroke="black" points="151.5,-604.5 151.5,-651.5 324.5,-651.5 324.5,-604.5 151.5,-604.5"/>
<text text-anchor="start" x="159.5" y="-638.5" font-family="Helvetica,sans-Serif" font-size="10.00">RoR::GUI::RigEditorHydros</text>
<text text-anchor="start" x="159.5" y="-625.5" font-family="Helvetica,sans-Serif" font-size="10.00">PanelLayout::RigEditorHydrosPanel</text>
<text text-anchor="middle" x="238" y="-612.5" font-family="Helvetica,sans-Serif" font-size="10.00">Layout</text>
</a>
</g>
<!-- Node1&#45;&gt;Node17 -->
<g id="edge32" class="edge"><title>Node1&#45;&gt;Node17</title>
<path fill="none" stroke="midnightblue" d="M67.8602,-752.835C83.1932,-726.227 110.254,-685.523 144,-661 148.757,-657.543 153.909,-654.422 159.266,-651.609"/>
<polygon fill="midnightblue" stroke="midnightblue" points="64.7779,-751.176 62.9341,-761.609 70.8817,-754.603 64.7779,-751.176"/>
</g>
<!-- Node18 -->
<g id="node35" class="node"><title>Node18</title>
<a xlink:href="class_ro_r_1_1_g_u_i_1_1_rig_editor_land_vehicle_properties_window_layout.html#acee17a958903af47d9bbd25bc1cc4a42" target="_top" xlink:title="RoR::GUI::RigEditorLandVehicle\lPropertiesWindowLayout::RigEditor\lLandVehiclePropertiesWindowLayout">
<polygon fill="white" stroke="black" points="148.5,-538.5 148.5,-585.5 327.5,-585.5 327.5,-538.5 148.5,-538.5"/>
<text text-anchor="start" x="156.5" y="-572.5" font-family="Helvetica,sans-Serif" font-size="10.00">RoR::GUI::RigEditorLandVehicle</text>
<text text-anchor="start" x="156.5" y="-559.5" font-family="Helvetica,sans-Serif" font-size="10.00">PropertiesWindowLayout::RigEditor</text>
<text text-anchor="middle" x="238" y="-546.5" font-family="Helvetica,sans-Serif" font-size="10.00">LandVehiclePropertiesWindowLayout</text>
</a>
</g>
<!-- Node1&#45;&gt;Node18 -->
<g id="edge34" class="edge"><title>Node1&#45;&gt;Node18</title>
<path fill="none" stroke="midnightblue" d="M60.2098,-752.084C70.7417,-712.285 95.8179,-637.838 144,-595 147.878,-591.552 152.138,-588.46 156.637,-585.686"/>
<polygon fill="midnightblue" stroke="midnightblue" points="56.7921,-751.323 57.7287,-761.877 63.5777,-753.043 56.7921,-751.323"/>
</g>
<!-- Node19 -->
<g id="node37" class="node"><title>Node19</title>
<a xlink:href="class_ro_r_1_1_g_u_i_1_1_rig_editor_menubar_layout.html#a648544defa36aa8152b0b1a34d8c4d62" target="_top" xlink:title="RoR::GUI::RigEditorMenubar\lLayout::RigEditorMenubarLayout">
<polygon fill="white" stroke="black" points="158.5,-486 158.5,-520 317.5,-520 317.5,-486 158.5,-486"/>
<text text-anchor="start" x="166.5" y="-507" font-family="Helvetica,sans-Serif" font-size="10.00">RoR::GUI::RigEditorMenubar</text>
<text text-anchor="middle" x="238" y="-494" font-family="Helvetica,sans-Serif" font-size="10.00">Layout::RigEditorMenubarLayout</text>
</a>
</g>
<!-- Node1&#45;&gt;Node19 -->
<g id="edge36" class="edge"><title>Node1&#45;&gt;Node19</title>
<path fill="none" stroke="midnightblue" d="M55.8228,-751.858C60.7505,-700.638 78.7808,-589.46 144,-529 148.222,-525.086 152.98,-521.753 158.059,-518.916"/>
<polygon fill="midnightblue" stroke="midnightblue" points="52.3345,-751.573 54.9579,-761.837 59.3084,-752.177 52.3345,-751.573"/>
</g>
<!-- Node20 -->
<g id="node39" class="node"><title>Node20</title>
<a xlink:href="class_ro_r_1_1_g_u_i_1_1_rig_editor_mesh_wheels2_panel_layout.html#a5ba731c071a08df4f3d8f65f5272a151" target="_top" xlink:title="RoR::GUI::RigEditorMeshWheels2\lPanelLayout::RigEditorMeshWheels2\lPanelLayout">
<polygon fill="white" stroke="black" points="148.5,-420.5 148.5,-467.5 327.5,-467.5 327.5,-420.5 148.5,-420.5"/>
<text text-anchor="start" x="156.5" y="-454.5" font-family="Helvetica,sans-Serif" font-size="10.00">RoR::GUI::RigEditorMeshWheels2</text>
<text text-anchor="start" x="156.5" y="-441.5" font-family="Helvetica,sans-Serif" font-size="10.00">PanelLayout::RigEditorMeshWheels2</text>
<text text-anchor="middle" x="238" y="-428.5" font-family="Helvetica,sans-Serif" font-size="10.00">PanelLayout</text>
</a>
</g>
<!-- Node1&#45;&gt;Node20 -->
<g id="edge38" class="edge"><title>Node1&#45;&gt;Node20</title>
<path fill="none" stroke="midnightblue" d="M58.8414,-751.813C71.1625,-685.407 105.473,-517.421 144,-477 147.341,-473.494 151.076,-470.361 155.079,-467.56"/>
<polygon fill="midnightblue" stroke="midnightblue" points="55.3492,-751.453 56.9911,-761.92 62.2348,-752.714 55.3492,-751.453"/>
</g>
<!-- Node21 -->
<g id="node41" class="node"><title>Node21</title>
<a xlink:href="class_ro_r_1_1_g_u_i_1_1_rig_editor_node_panel_layout.html#a623810586b98bc2a28b8007b004e8f47" target="_top" xlink:title="RoR::GUI::RigEditorNodePanel\lLayout::RigEditorNodePanelLayout">
<polygon fill="white" stroke="black" points="153,-368 153,-402 323,-402 323,-368 153,-368"/>
<text text-anchor="start" x="161" y="-389" font-family="Helvetica,sans-Serif" font-size="10.00">RoR::GUI::RigEditorNodePanel</text>
<text text-anchor="middle" x="238" y="-376" font-family="Helvetica,sans-Serif" font-size="10.00">Layout::RigEditorNodePanelLayout</text>
</a>
</g>
<!-- Node1&#45;&gt;Node21 -->
<g id="edge40" class="edge"><title>Node1&#45;&gt;Node21</title>
<path fill="none" stroke="midnightblue" d="M57.1186,-751.563C66.3774,-674.822 96.0854,-460.374 144,-411 147.302,-407.598 151.006,-404.629 154.985,-402.039"/>
<polygon fill="midnightblue" stroke="midnightblue" points="53.6008,-751.508 55.9012,-761.85 60.5522,-752.33 53.6008,-751.508"/>
</g>
<!-- Node22 -->
<g id="node43" class="node"><title>Node22</title>
<a xlink:href="class_ro_r_1_1_g_u_i_1_1_rig_editor_rig_properties_window_layout.html#a7372b62e7ce24702c81116a2d41b6601" target="_top" xlink:title="RoR::GUI::RigEditorRigProperties\lWindowLayout::RigEditorRigProperties\lWindowLayout">
<polygon fill="white" stroke="black" points="144.5,-302.5 144.5,-349.5 331.5,-349.5 331.5,-302.5 144.5,-302.5"/>
<text text-anchor="start" x="152.5" y="-336.5" font-family="Helvetica,sans-Serif" font-size="10.00">RoR::GUI::RigEditorRigProperties</text>
<text text-anchor="start" x="152.5" y="-323.5" font-family="Helvetica,sans-Serif" font-size="10.00">WindowLayout::RigEditorRigProperties</text>
<text text-anchor="middle" x="238" y="-310.5" font-family="Helvetica,sans-Serif" font-size="10.00">WindowLayout</text>
</a>
</g>
<!-- Node1&#45;&gt;Node22 -->
<g id="edge42" class="edge"><title>Node1&#45;&gt;Node22</title>
<path fill="none" stroke="midnightblue" d="M56.4096,-751.536C64.2669,-667.889 91.7024,-418.372 144,-359 147.087,-355.496 150.568,-352.364 154.326,-349.564"/>
<polygon fill="midnightblue" stroke="midnightblue" points="52.9193,-751.27 55.4888,-761.549 59.8899,-751.911 52.9193,-751.27"/>
</g>
<!-- Node23 -->
<g id="node45" class="node"><title>Node23</title>
<a xlink:href="class_ro_r_1_1_g_u_i_1_1_rig_editor_shocks2_panel_layout.html#a96edc88831f8e34b4331950705f478f9" target="_top" xlink:title="RoR::GUI::RigEditorShocks2\lPanelLayout::RigEditorShocks2Panel\lLayout">
<polygon fill="white" stroke="black" points="148,-236.5 148,-283.5 328,-283.5 328,-236.5 148,-236.5"/>
<text text-anchor="start" x="156" y="-270.5" font-family="Helvetica,sans-Serif" font-size="10.00">RoR::GUI::RigEditorShocks2</text>
<text text-anchor="start" x="156" y="-257.5" font-family="Helvetica,sans-Serif" font-size="10.00">PanelLayout::RigEditorShocks2Panel</text>
<text text-anchor="middle" x="238" y="-244.5" font-family="Helvetica,sans-Serif" font-size="10.00">Layout</text>
</a>
</g>
<!-- Node1&#45;&gt;Node23 -->
<g id="edge44" class="edge"><title>Node1&#45;&gt;Node23</title>
<path fill="none" stroke="midnightblue" d="M55.5302,-751.618C61.198,-659.585 83.8647,-363.227 144,-293 146.925,-289.584 150.225,-286.522 153.795,-283.777"/>
<polygon fill="midnightblue" stroke="midnightblue" points="52.0246,-751.609 54.9219,-761.8 59.0122,-752.027 52.0246,-751.609"/>
</g>
<!-- Node24 -->
<g id="node47" class="node"><title>Node24</title>
<a xlink:href="class_ro_r_1_1_g_u_i_1_1_rig_editor_shocks_panel_layout.html#a8d4333aae2e9bafad736c728434bec55" target="_top" xlink:title="RoR::GUI::RigEditorShocks\lPanelLayout::RigEditorShocksPanel\lLayout">
<polygon fill="white" stroke="black" points="150.5,-170.5 150.5,-217.5 325.5,-217.5 325.5,-170.5 150.5,-170.5"/>
<text text-anchor="start" x="158.5" y="-204.5" font-family="Helvetica,sans-Serif" font-size="10.00">RoR::GUI::RigEditorShocks</text>
<text text-anchor="start" x="158.5" y="-191.5" font-family="Helvetica,sans-Serif" font-size="10.00">PanelLayout::RigEditorShocksPanel</text>
<text text-anchor="middle" x="238" y="-178.5" font-family="Helvetica,sans-Serif" font-size="10.00">Layout</text>
</a>
</g>
<!-- Node1&#45;&gt;Node24 -->
<g id="edge46" class="edge"><title>Node1&#45;&gt;Node24</title>
<path fill="none" stroke="midnightblue" d="M54.8636,-751.589C58.5446,-651.608 76.005,-308.154 144,-227 146.888,-223.553 150.159,-220.466 153.705,-217.701"/>
<polygon fill="midnightblue" stroke="midnightblue" points="51.3589,-751.663 54.5058,-761.78 58.3546,-751.909 51.3589,-751.663"/>
</g>
<!-- Node25 -->
<g id="node49" class="node"><title>Node25</title>
<a xlink:href="class_ro_r_1_1_g_u_i_1_1_rig_spawner_report_window_layout.html#ac50c03ff065001480c477be9619e9401" target="_top" xlink:title="RoR::GUI::RigSpawnerReport\lWindowLayout::RigSpawnerReport\lWindowLayout">
<polygon fill="white" stroke="black" points="153,-104.5 153,-151.5 323,-151.5 323,-104.5 153,-104.5"/>
<text text-anchor="start" x="161" y="-138.5" font-family="Helvetica,sans-Serif" font-size="10.00">RoR::GUI::RigSpawnerReport</text>
<text text-anchor="start" x="161" y="-125.5" font-family="Helvetica,sans-Serif" font-size="10.00">WindowLayout::RigSpawnerReport</text>
<text text-anchor="middle" x="238" y="-112.5" font-family="Helvetica,sans-Serif" font-size="10.00">WindowLayout</text>
</a>
</g>
<!-- Node1&#45;&gt;Node25 -->
<g id="edge48" class="edge"><title>Node1&#45;&gt;Node25</title>
<path fill="none" stroke="midnightblue" d="M54.3357,-751.54C56.1872,-644.037 68.1133,-253.154 144,-161 146.859,-157.529 150.106,-154.422 153.634,-151.642"/>
<polygon fill="midnightblue" stroke="midnightblue" points="50.8312,-751.809 54.1746,-761.862 57.8303,-751.918 50.8312,-751.809"/>
</g>
<!-- Node26 -->
<g id="node51" class="node"><title>Node26</title>
<a xlink:href="class_ro_r_1_1_g_u_i_1_1_sim_utils_layout.html#ae1122724b7c4e2af9e1adfeb0bcc0fb1" target="_top" xlink:title="RoR::GUI::SimUtilsLayout\l::SimUtilsLayout">
<polygon fill="white" stroke="black" points="171,-52 171,-86 305,-86 305,-52 171,-52"/>
<text text-anchor="start" x="179" y="-73" font-family="Helvetica,sans-Serif" font-size="10.00">RoR::GUI::SimUtilsLayout</text>
<text text-anchor="middle" x="238" y="-60" font-family="Helvetica,sans-Serif" font-size="10.00">::SimUtilsLayout</text>
</a>
</g>
<!-- Node1&#45;&gt;Node26 -->
<g id="edge50" class="edge"><title>Node1&#45;&gt;Node26</title>
<path fill="none" stroke="midnightblue" d="M55.83,-751.6C64.1644,-630.318 100.027,-145.554 144,-95 151.112,-86.8237 160.543,-81.1105 170.689,-77.1399"/>
<polygon fill="midnightblue" stroke="midnightblue" points="52.3181,-751.657 55.1305,-761.871 59.3019,-752.132 52.3181,-751.657"/>
</g>
<!-- Node27 -->
<g id="node53" class="node"><title>Node27</title>
<a xlink:href="class_ro_r_1_1_g_u_i_1_1_vehicle_description_layout.html#a2c8869906689b16b409e526063f5dcbb" target="_top" xlink:title="RoR::GUI::VehicleDescription\lLayout::VehicleDescriptionLayout">
<polygon fill="white" stroke="black" points="156.5,-0 156.5,-34 319.5,-34 319.5,-0 156.5,-0"/>
<text text-anchor="start" x="164.5" y="-21" font-family="Helvetica,sans-Serif" font-size="10.00">RoR::GUI::VehicleDescription</text>
<text text-anchor="middle" x="238" y="-8" font-family="Helvetica,sans-Serif" font-size="10.00">Layout::VehicleDescriptionLayout</text>
</a>
</g>
<!-- Node1&#45;&gt;Node27 -->
<g id="edge52" class="edge"><title>Node1&#45;&gt;Node27</title>
<path fill="none" stroke="midnightblue" d="M55.5415,-751.964C62.9726,-625.702 96.6892,-97.8968 144,-43 147.537,-38.8956 151.659,-35.4111 156.164,-32.4555"/>
<polygon fill="midnightblue" stroke="midnightblue" points="52.0468,-751.773 54.959,-761.959 59.035,-752.18 52.0468,-751.773"/>
</g>
</g>
</svg>
