<?xml version="1.0" encoding="UTF-8" standalone="no"?>
<!DOCTYPE svg PUBLIC "-//W3C//DTD SVG 1.1//EN"
 "http://www.w3.org/Graphics/SVG/1.1/DTD/svg11.dtd">
<!-- Generated by graphviz version 2.26.3 (20100126.1600)
 -->
<!-- Title: Hydrax::Noise::Real::loadCfg Pages: 1 -->
<!--zoomable 302 -->
<svg id="main" version="1.1" xmlns="http://www.w3.org/2000/svg" xmlns:xlink="http://www.w3.org/1999/xlink" xml:space="preserve" onload="init(evt)">
<style type="text/css"><![CDATA[
.edge:hover path { stroke: red; }
.edge:hover polygon { stroke: red; fill: red; }
]]></style>
<script type="text/javascript"><![CDATA[
var edges = document.getElementsByTagName('g');
if (edges && edges.length) {
  for (var i=0;i<edges.length;i++) {
    if (edges[i].id.substr(0,4)=='edge') {
      edges[i].setAttribute('class','edge');
    }
  }
}
]]></script>
        <defs>
                <circle id="rim" cx="0" cy="0" r="7"/>
                <circle id="rim2" cx="0" cy="0" r="3.5"/>
                <g id="zoomPlus">
                        <use xlink:href="#rim" fill="#404040">
                                <set attributeName="fill" to="#808080" begin="zoomplus.mouseover" end="zoomplus.mouseout"/>
                        </use>
                        <path d="M-4,0h8M0,-4v8" fill="none" stroke="white" stroke-width="1.5" pointer-events="none"/>
                </g>
                <g id="zoomMin">
                        <use xlink:href="#rim" fill="#404040">
                                <set attributeName="fill" to="#808080" begin="zoomminus.mouseover" end="zoomminus.mouseout"/>
                        </use>
                        <path d="M-4,0h8" fill="none" stroke="white" stroke-width="1.5" pointer-events="none"/>
                </g>
                <g id="dirArrow">
                        <path fill="none" stroke="white" stroke-width="1.5" d="M0,-3.0v7 M-2.5,-0.5L0,-3.0L2.5,-0.5"/>
                </g>
               <g id="resetDef">
                       <use xlink:href="#rim2" fill="#404040">
                               <set attributeName="fill" to="#808080" begin="reset.mouseover" end="reset.mouseout"/>
                       </use>
               </g>
        </defs>

<script type="text/javascript">
var viewWidth = 572;
var viewHeight = 302;
var sectionId = 'dynsection-5';
</script>
<script xlink:href="svgpan.js"/>
<svg id="graph" class="graph">
<g id="viewport">
<title>Hydrax::Noise::Real::loadCfg</title>
<polygon fill="white" stroke="white" points="-4,5 -4,-298 569,-298 569,5 -4,5"/>
<!-- Node1 -->
<g id="node1" class="node"><title>Node1</title>
<polygon fill="#bfbfbf" stroke="black" points="0,-104 0,-138 106,-138 106,-104 0,-104"/>
<text text-anchor="start" x="8" y="-125" font-family="Helvetica,sans-Serif" font-size="10.00">Hydrax::Noise::Real</text>
<text text-anchor="middle" x="53" y="-112" font-family="Helvetica,sans-Serif" font-size="10.00">::loadCfg</text>
</g>
<!-- Node2 -->
<g id="node3" class="node"><title>Node2</title>
<a xlink:href="class_hydrax_1_1_noise_1_1_noise.html#a5ef6e71282a9dfcefc09e3ba84a7578f" target="_top" xlink:title="Hydrax::Noise::Noise\l::loadCfg">
<polygon fill="white" stroke="black" points="148.5,-208 148.5,-242 259.5,-242 259.5,-208 148.5,-208"/>
<text text-anchor="start" x="156.5" y="-229" font-family="Helvetica,sans-Serif" font-size="10.00">Hydrax::Noise::Noise</text>
<text text-anchor="middle" x="204" y="-216" font-family="Helvetica,sans-Serif" font-size="10.00">::loadCfg</text>
</a>
</g>
<!-- Node1&#45;&gt;Node2 -->
<g id="edge2" class="edge"><title>Node1&#45;&gt;Node2</title>
<path fill="none" stroke="midnightblue" d="M69.082,-138.012C85.9765,-155.143 113.945,-181.475 142,-199 144.413,-200.507 146.929,-201.963 149.505,-203.364"/>
<polygon fill="midnightblue" stroke="midnightblue" points="147.941,-206.495 158.442,-207.908 151.114,-200.256 147.941,-206.495"/>
</g>
<!-- Node3 -->
<g id="node5" class="node"><title>Node3</title>
<a xlink:href="class_hydrax_1_1_noise_1_1_perlin.html#af32b1054557536eb5073e9ad1251a4cf" target="_top" xlink:title="Hydrax::Noise::Perlin\l::setOptions">
<polygon fill="white" stroke="black" points="149,-156 149,-190 259,-190 259,-156 149,-156"/>
<text text-anchor="start" x="157" y="-177" font-family="Helvetica,sans-Serif" font-size="10.00">Hydrax::Noise::Perlin</text>
<text text-anchor="middle" x="204" y="-164" font-family="Helvetica,sans-Serif" font-size="10.00">::setOptions</text>
</a>
</g>
<!-- Node1&#45;&gt;Node3 -->
<g id="edge4" class="edge"><title>Node1&#45;&gt;Node3</title>
<path fill="none" stroke="midnightblue" d="M102.443,-138.027C116.001,-142.696 130.836,-147.804 144.877,-152.64"/>
<polygon fill="midnightblue" stroke="midnightblue" points="143.851,-155.988 154.446,-155.935 146.13,-149.37 143.851,-155.988"/>
</g>
<!-- Node8 -->
<g id="node15" class="node"><title>Node8</title>
<a xlink:href="class_hydrax_1_1_cfg_file_manager.html#af55d91d6fe191edaf32752db39bde7ee" target="_top" xlink:title="Hydrax::CfgFileManager\l::_getIntValue">
<polygon fill="white" stroke="black" points="142.5,-104 142.5,-138 265.5,-138 265.5,-104 142.5,-104"/>
<text text-anchor="start" x="150.5" y="-125" font-family="Helvetica,sans-Serif" font-size="10.00">Hydrax::CfgFileManager</text>
<text text-anchor="middle" x="204" y="-112" font-family="Helvetica,sans-Serif" font-size="10.00">::_getIntValue</text>
</a>
</g>
<!-- Node1&#45;&gt;Node8 -->
<g id="edge14" class="edge"><title>Node1&#45;&gt;Node8</title>
<path fill="none" stroke="midnightblue" d="M106.237,-121C114.659,-121 123.487,-121 132.247,-121"/>
<polygon fill="midnightblue" stroke="midnightblue" points="132.472,-124.5 142.472,-121 132.472,-117.5 132.472,-124.5"/>
</g>
<!-- Node11 -->
<g id="node21" class="node"><title>Node11</title>
<a xlink:href="class_hydrax_1_1_cfg_file_manager.html#a6d5259e0ccd2bd730310c7229c16eecb" target="_top" xlink:title="Hydrax::CfgFileManager\l::_getFloatValue">
<polygon fill="white" stroke="black" points="142.5,-52 142.5,-86 265.5,-86 265.5,-52 142.5,-52"/>
<text text-anchor="start" x="150.5" y="-73" font-family="Helvetica,sans-Serif" font-size="10.00">Hydrax::CfgFileManager</text>
<text text-anchor="middle" x="204" y="-60" font-family="Helvetica,sans-Serif" font-size="10.00">::_getFloatValue</text>
</a>
</g>
<!-- Node1&#45;&gt;Node11 -->
<g id="edge20" class="edge"><title>Node1&#45;&gt;Node11</title>
<path fill="none" stroke="midnightblue" d="M102.443,-103.973C116.001,-99.3044 130.836,-94.1956 144.877,-89.3601"/>
<polygon fill="midnightblue" stroke="midnightblue" points="146.13,-92.6304 154.446,-86.065 143.851,-86.0118 146.13,-92.6304"/>
</g>
<!-- Node12 -->
<g id="node23" class="node"><title>Node12</title>
<a xlink:href="class_hydrax_1_1_cfg_file_manager.html#a573e9bca71aa4fffbf84c5409c84f9ae" target="_top" xlink:title="Hydrax::CfgFileManager\l::_getVector3Value">
<polygon fill="white" stroke="black" points="142.5,-0 142.5,-34 265.5,-34 265.5,-0 142.5,-0"/>
<text text-anchor="start" x="150.5" y="-21" font-family="Helvetica,sans-Serif" font-size="10.00">Hydrax::CfgFileManager</text>
<text text-anchor="middle" x="204" y="-8" font-family="Helvetica,sans-Serif" font-size="10.00">::_getVector3Value</text>
</a>
</g>
<!-- Node1&#45;&gt;Node12 -->
<g id="edge22" class="edge"><title>Node1&#45;&gt;Node12</title>
<path fill="none" stroke="midnightblue" d="M69.082,-103.988C85.9765,-86.8573 113.945,-60.5246 142,-43 144.413,-41.4927 146.929,-40.0368 149.505,-38.636"/>
<polygon fill="midnightblue" stroke="midnightblue" points="151.114,-41.7444 158.442,-34.0919 147.941,-35.5048 151.114,-41.7444"/>
</g>
<!-- Node4 -->
<g id="node7" class="node"><title>Node4</title>
<a xlink:href="class_hydrax_1_1_noise_1_1_noise.html#a94f5963b8f6fed2fb22149ff22e1166f" target="_top" xlink:title="Hydrax::Noise::Noise\l::isCreated">
<polygon fill="white" stroke="black" points="341.5,-260 341.5,-294 452.5,-294 452.5,-260 341.5,-260"/>
<text text-anchor="start" x="349.5" y="-281" font-family="Helvetica,sans-Serif" font-size="10.00">Hydrax::Noise::Noise</text>
<text text-anchor="middle" x="397" y="-268" font-family="Helvetica,sans-Serif" font-size="10.00">::isCreated</text>
</a>
</g>
<!-- Node3&#45;&gt;Node4 -->
<g id="edge6" class="edge"><title>Node3&#45;&gt;Node4</title>
<path fill="none" stroke="midnightblue" d="M252.611,-190.132C257.358,-192.745 261.92,-195.693 266,-199 287.836,-216.7 279.061,-234.755 302,-251 310.868,-257.28 321.187,-262.044 331.69,-265.658"/>
<polygon fill="midnightblue" stroke="midnightblue" points="330.763,-269.035 341.351,-268.665 332.843,-262.352 330.763,-269.035"/>
</g>
<!-- Node5 -->
<g id="node9" class="node"><title>Node5</title>
<a xlink:href="class_hydrax_1_1_noise_1_1_noise.html#a20e13eb2f5cc93d384bb846b05d7aaeb" target="_top" xlink:title="Hydrax::Noise::Noise\l::isGPUNormalMapSupported">
<polygon fill="white" stroke="black" points="324,-208 324,-242 470,-242 470,-208 324,-208"/>
<text text-anchor="start" x="332" y="-229" font-family="Helvetica,sans-Serif" font-size="10.00">Hydrax::Noise::Noise</text>
<text text-anchor="middle" x="397" y="-216" font-family="Helvetica,sans-Serif" font-size="10.00">::isGPUNormalMapSupported</text>
</a>
</g>
<!-- Node3&#45;&gt;Node5 -->
<g id="edge8" class="edge"><title>Node3&#45;&gt;Node5</title>
<path fill="none" stroke="midnightblue" d="M259.048,-187.832C279.241,-193.272 302.425,-199.519 323.951,-205.318"/>
<polygon fill="midnightblue" stroke="midnightblue" points="323.142,-208.725 333.708,-207.947 324.963,-201.966 323.142,-208.725"/>
</g>
<!-- Node6 -->
<g id="node11" class="node"><title>Node6</title>
<a xlink:href="class_hydrax_1_1_noise_1_1_noise.html#ae2260556005e5a5eaebae94d936b60c0" target="_top" xlink:title="Hydrax::Noise::Noise\l::areGPUNormalMapResourcesCreated">
<polygon fill="white" stroke="black" points="302,-156 302,-190 492,-190 492,-156 302,-156"/>
<text text-anchor="start" x="310" y="-177" font-family="Helvetica,sans-Serif" font-size="10.00">Hydrax::Noise::Noise</text>
<text text-anchor="middle" x="397" y="-164" font-family="Helvetica,sans-Serif" font-size="10.00">::areGPUNormalMapResourcesCreated</text>
</a>
</g>
<!-- Node3&#45;&gt;Node6 -->
<g id="edge10" class="edge"><title>Node3&#45;&gt;Node6</title>
<path fill="none" stroke="midnightblue" d="M259.048,-173C269.284,-173 280.289,-173 291.457,-173"/>
<polygon fill="midnightblue" stroke="midnightblue" points="291.741,-176.5 301.741,-173 291.741,-169.5 291.741,-176.5"/>
</g>
<!-- Node7 -->
<g id="node13" class="node"><title>Node7</title>
<a xlink:href="class_hydrax_1_1_g_p_u_normal_map_manager.html#a03dbe50e39daea6c40ac192c0afa1936" target="_top" xlink:title="Hydrax::GPUNormalMapManager\l::getNormalMapMaterial">
<polygon fill="white" stroke="black" points="315,-104 315,-138 479,-138 479,-104 315,-104"/>
<text text-anchor="start" x="323" y="-125" font-family="Helvetica,sans-Serif" font-size="10.00">Hydrax::GPUNormalMapManager</text>
<text text-anchor="middle" x="397" y="-112" font-family="Helvetica,sans-Serif" font-size="10.00">::getNormalMapMaterial</text>
</a>
</g>
<!-- Node3&#45;&gt;Node7 -->
<g id="edge12" class="edge"><title>Node3&#45;&gt;Node7</title>
<path fill="none" stroke="midnightblue" d="M259.048,-158.168C279.241,-152.728 302.425,-146.481 323.951,-140.682"/>
<polygon fill="midnightblue" stroke="midnightblue" points="324.963,-144.034 333.708,-138.053 323.142,-137.275 324.963,-144.034"/>
</g>
<!-- Node9 -->
<g id="node17" class="node"><title>Node9</title>
<a xlink:href="scriptstdstring_8cpp.html#ab33d705eee9afd65e8991f82d9c71fe3" target="_top" xlink:title="parseInt">
<polygon fill="white" stroke="black" points="371,-64.5 371,-85.5 423,-85.5 423,-64.5 371,-64.5"/>
<text text-anchor="middle" x="397" y="-72.5" font-family="Helvetica,sans-Serif" font-size="10.00">parseInt</text>
</a>
</g>
<!-- Node8&#45;&gt;Node9 -->
<g id="edge16" class="edge"><title>Node8&#45;&gt;Node9</title>
<path fill="none" stroke="midnightblue" d="M265.564,-104.145C277.618,-100.993 290.184,-97.8093 302,-95 321.327,-90.405 342.996,-85.8015 360.753,-82.1715"/>
<polygon fill="midnightblue" stroke="midnightblue" points="361.603,-85.5704 370.708,-80.1541 360.212,-78.7099 361.603,-85.5704"/>
</g>
<!-- Node10 -->
<g id="node19" class="node"><title>Node10</title>
<a xlink:href="_approx_math_8h.html#ad685178dbcfdd207c7306561512e1582" target="_top" xlink:title="sign">
<polygon fill="white" stroke="black" points="528.5,-64.5 528.5,-85.5 563.5,-85.5 563.5,-64.5 528.5,-64.5"/>
<text text-anchor="middle" x="546" y="-72.5" font-family="Helvetica,sans-Serif" font-size="10.00">sign</text>
</a>
</g>
<!-- Node9&#45;&gt;Node10 -->
<g id="edge18" class="edge"><title>Node9&#45;&gt;Node10</title>
<path fill="none" stroke="midnightblue" d="M423.295,-75C449.994,-75 491.169,-75 518.346,-75"/>
<polygon fill="midnightblue" stroke="midnightblue" points="518.363,-78.5001 528.363,-75 518.363,-71.5001 518.363,-78.5001"/>
</g>
</g>
</svg>
        <g id="navigator" transform="translate(0 0)" fill="#404254">
                <rect fill="#f2f5e9" fill-opacity="0.5" stroke="#606060" stroke-width=".5" x="0" y="0" width="60" height="60"/>
                <use id="zoomplus" xlink:href="#zoomPlus" x="17" y="9" onmousedown="handleZoom(evt,'in')"/>
                <use id="zoomminus" xlink:href="#zoomMin" x="42" y="9" onmousedown="handleZoom(evt,'out')"/>
                <use id="reset" xlink:href="#resetDef" x="30" y="36" onmousedown="handleReset()"/>
                <g id="arrowUp" xlink:href="#dirArrow" transform="translate(30 24)" onmousedown="handlePan(0,-1)">
                  <use xlink:href="#rim" fill="#404040">
                        <set attributeName="fill" to="#808080" begin="arrowUp.mouseover" end="arrowUp.mouseout"/>
                  </use>
                  <path fill="none" stroke="white" stroke-width="1.5" d="M0,-3.0v7 M-2.5,-0.5L0,-3.0L2.5,-0.5"/>
                </g>
                <g id="arrowRight" xlink:href="#dirArrow" transform="rotate(90) translate(36 -43)" onmousedown="handlePan(1,0)">
                  <use xlink:href="#rim" fill="#404040">
                        <set attributeName="fill" to="#808080" begin="arrowRight.mouseover" end="arrowRight.mouseout"/>
                  </use>
                  <path fill="none" stroke="white" stroke-width="1.5" d="M0,-3.0v7 M-2.5,-0.5L0,-3.0L2.5,-0.5"/>
                </g>
                <g id="arrowDown" xlink:href="#dirArrow" transform="rotate(180) translate(-30 -48)" onmousedown="handlePan(0,1)">
                  <use xlink:href="#rim" fill="#404040">
                        <set attributeName="fill" to="#808080" begin="arrowDown.mouseover" end="arrowDown.mouseout"/>
                  </use>
                  <path fill="none" stroke="white" stroke-width="1.5" d="M0,-3.0v7 M-2.5,-0.5L0,-3.0L2.5,-0.5"/>
                </g>
                <g id="arrowLeft" xlink:href="#dirArrow" transform="rotate(270) translate(-36 17)" onmousedown="handlePan(-1,0)">
                  <use xlink:href="#rim" fill="#404040">
                        <set attributeName="fill" to="#808080" begin="arrowLeft.mouseover" end="arrowLeft.mouseout"/>
                  </use>
                  <path fill="none" stroke="white" stroke-width="1.5" d="M0,-3.0v7 M-2.5,-0.5L0,-3.0L2.5,-0.5"/>
                </g>
        </g>
        <svg viewBox="0 0 15 15" width="100%" height="30px" preserveAspectRatio="xMaxYMin meet">
         <g id="arrow_out" transform="scale(0.3 0.3)">
          <a xlink:href="class_hydrax_1_1_noise_1_1_real_af858ae00b9af27b190ca5653b42bfc7f_cgraph_org.svg" target="_base">
           <rect id="button" ry="5" rx="5" y="6" x="6" height="38" width="38"
                fill="#f2f5e9" fill-opacity="0.5" stroke="#606060" stroke-width="1.0"/>
           <path id="arrow"
             d="M 11.500037,31.436501 C 11.940474,20.09759 22.043105,11.32322 32.158766,21.979434 L 37.068811,17.246167 C 37.068811,17.246167 37.088388,32 37.088388,32 L 22.160133,31.978069 C 22.160133,31.978069 26.997745,27.140456 26.997745,27.140456 C 18.528582,18.264221 13.291696,25.230495 11.500037,31.436501 z"
             style="fill:#404040;"/>
          </a>
         </g>
        </svg>
</svg>
