<?xml version="1.0" encoding="UTF-8" standalone="no"?>
<!DOCTYPE svg PUBLIC "-//W3C//DTD SVG 1.1//EN"
 "http://www.w3.org/Graphics/SVG/1.1/DTD/svg11.dtd">
<!-- Generated by graphviz version 2.26.3 (20100126.1600)
 -->
<!-- Title: G Pages: 1 -->
<!--zoomable 257 -->
<svg id="main" version="1.1" xmlns="http://www.w3.org/2000/svg" xmlns:xlink="http://www.w3.org/1999/xlink" xml:space="preserve" onload="init(evt)">
        <defs>
                <circle id="rim" cx="0" cy="0" r="7"/>
                <circle id="rim2" cx="0" cy="0" r="3.5"/>
                <g id="zoomPlus">
                        <use xlink:href="#rim" fill="#404040">
                                <set attributeName="fill" to="#808080" begin="zoomplus.mouseover" end="zoomplus.mouseout"/>
                        </use>
                        <path d="M-4,0h8M0,-4v8" fill="none" stroke="white" stroke-width="1.5" pointer-events="none"/>
                </g>
                <g id="zoomMin">
                        <use xlink:href="#rim" fill="#404040">
                                <set attributeName="fill" to="#808080" begin="zoomminus.mouseover" end="zoomminus.mouseout"/>
                        </use>
                        <path d="M-4,0h8" fill="none" stroke="white" stroke-width="1.5" pointer-events="none"/>
                </g>
                <g id="dirArrow">
                        <path fill="none" stroke="white" stroke-width="1.5" d="M0,-3.0v7 M-2.5,-0.5L0,-3.0L2.5,-0.5"/>
                </g>
               <g id="resetDef">
                       <use xlink:href="#rim2" fill="#404040">
                               <set attributeName="fill" to="#808080" begin="reset.mouseover" end="reset.mouseout"/>
                       </use>
               </g>
        </defs>

<script type="text/javascript">
var viewWidth = 1738;
var viewHeight = 257;
var sectionId = 'dynsection-80';
</script>
<script xlink:href="svgpan.js"/>
<svg id="graph" class="graph">
<g id="viewport">
<title>G</title>
<polygon fill="white" stroke="white" points="-4,5 -4,-252.614 1735,-252.614 1735,5 -4,5"/>
<!-- Node1 -->
<g id="node1" class="node"><title>Node1</title>
<polygon fill="#bfbfbf" stroke="black" points="0.5,-160.5 0.5,-181.5 107.5,-181.5 107.5,-160.5 0.5,-160.5"/>
<text text-anchor="middle" x="54" y="-168.5" font-family="Helvetica,sans-Serif" font-size="10.00">Beam::prepareInside</text>
</g>
<!-- Node2 -->
<g id="node3" class="node"><title>Node2</title>
<a xlink:href="class_camera_behavior_vehicle_cine_cam.html#a21a3912237dcbc89df32a1e393204cc0" target="_top" xlink:title="CameraBehaviorVehicleCineCam::activate">
<polygon fill="white" stroke="black" points="149.5,-200.5 149.5,-221.5 352.5,-221.5 352.5,-200.5 149.5,-200.5"/>
<text text-anchor="middle" x="251" y="-208.5" font-family="Helvetica,sans-Serif" font-size="10.00">CameraBehaviorVehicleCineCam::activate</text>
</a>
</g>
<!-- Node1&#45;&gt;Node2 -->
<g id="edge2" class="edge"><title>Node1&#45;&gt;Node2</title>
<path fill="none" stroke="midnightblue" d="M110.266,-183.811C121.429,-186.266 133.074,-188.766 144,-191 159.738,-194.218 176.821,-197.505 192.621,-200.459"/>
<polygon fill="midnightblue" stroke="midnightblue" points="110.704,-180.323 100.184,-181.578 109.19,-187.158 110.704,-180.323"/>
</g>
<!-- Node3 -->
<g id="node5" class="node"><title>Node3</title>
<a xlink:href="class_camera_behavior_vehicle_cine_cam.html#a58aa453475d7ec367d28112855c7693b" target="_top" xlink:title="CameraBehaviorVehicleCineCam::deactivate">
<polygon fill="white" stroke="black" points="144,-160.5 144,-181.5 358,-181.5 358,-160.5 144,-160.5"/>
<text text-anchor="middle" x="251" y="-168.5" font-family="Helvetica,sans-Serif" font-size="10.00">CameraBehaviorVehicleCineCam::deactivate</text>
</a>
</g>
<!-- Node1&#45;&gt;Node3 -->
<g id="edge4" class="edge"><title>Node1&#45;&gt;Node3</title>
<path fill="none" stroke="midnightblue" d="M117.687,-171C126.157,-171 135.022,-171 143.981,-171"/>
<polygon fill="midnightblue" stroke="midnightblue" points="117.571,-167.5 107.571,-171 117.571,-174.5 117.571,-167.5"/>
</g>
<!-- Node4 -->
<g id="node7" class="node"><title>Node4</title>
<a xlink:href="class_ro_r_1_1_main_thread.html#af7d1f53cf02660323c9dfe6cc5a1e7e1" target="_top" xlink:title="RoR::MainThread::ChangedCurrentVehicle">
<polygon fill="white" stroke="black" points="149.5,-120.5 149.5,-141.5 352.5,-141.5 352.5,-120.5 149.5,-120.5"/>
<text text-anchor="middle" x="251" y="-128.5" font-family="Helvetica,sans-Serif" font-size="10.00">RoR::MainThread::ChangedCurrentVehicle</text>
</a>
</g>
<!-- Node1&#45;&gt;Node4 -->
<g id="edge6" class="edge"><title>Node1&#45;&gt;Node4</title>
<path fill="none" stroke="midnightblue" d="M110.266,-158.189C121.429,-155.734 133.074,-153.234 144,-151 159.738,-147.782 176.821,-144.495 192.621,-141.541"/>
<polygon fill="midnightblue" stroke="midnightblue" points="109.19,-154.842 100.184,-160.422 110.704,-161.677 109.19,-154.842"/>
</g>
<!-- Node5 -->
<g id="node9" class="node"><title>Node5</title>
<a xlink:href="class_beam_factory.html#ac70a8aa131a6709ebf05dc3c0f6dab10" target="_top" xlink:title="BeamFactory::setCurrentTruck">
<polygon fill="white" stroke="black" points="394,-120.5 394,-141.5 546,-141.5 546,-120.5 394,-120.5"/>
<text text-anchor="middle" x="470" y="-128.5" font-family="Helvetica,sans-Serif" font-size="10.00">BeamFactory::setCurrentTruck</text>
</a>
</g>
<!-- Node4&#45;&gt;Node5 -->
<g id="edge8" class="edge"><title>Node4&#45;&gt;Node5</title>
<path fill="none" stroke="midnightblue" d="M362.886,-131C373.403,-131 383.891,-131 393.961,-131"/>
<polygon fill="midnightblue" stroke="midnightblue" points="362.806,-127.5 352.806,-131 362.806,-134.5 362.806,-127.5"/>
</g>
<!-- Node6 -->
<g id="node11" class="node"><title>Node6</title>
<a xlink:href="class_ro_r_frame_listener.html#a6b384193b130f7c1fff95d2e740a370e" target="_top" xlink:title="RoRFrameListener::updateEvents">
<polygon fill="white" stroke="black" points="806.5,-200.5 806.5,-221.5 971.5,-221.5 971.5,-200.5 806.5,-200.5"/>
<text text-anchor="middle" x="889" y="-208.5" font-family="Helvetica,sans-Serif" font-size="10.00">RoRFrameListener::updateEvents</text>
</a>
</g>
<!-- Node5&#45;&gt;Node6 -->
<g id="edge10" class="edge"><title>Node5&#45;&gt;Node6</title>
<path fill="none" stroke="midnightblue" d="M483.595,-149.628C502.501,-173.77 539.268,-214.699 582,-231 676.818,-267.17 799.999,-238.633 857.212,-221.515"/>
<polygon fill="midnightblue" stroke="midnightblue" points="486.302,-147.406 477.459,-141.57 480.732,-151.647 486.302,-147.406"/>
</g>
<!-- Node8 -->
<g id="node15" class="node"><title>Node8</title>
<a xlink:href="class_ro_r_frame_listener.html#abbab3f9d2773790f0d8567ee4434a739" target="_top" xlink:title="RoRFrameListener::InitTrucks">
<polygon fill="white" stroke="black" points="601.5,-160.5 601.5,-181.5 750.5,-181.5 750.5,-160.5 601.5,-160.5"/>
<text text-anchor="middle" x="676" y="-168.5" font-family="Helvetica,sans-Serif" font-size="10.00">RoRFrameListener::InitTrucks</text>
</a>
</g>
<!-- Node5&#45;&gt;Node8 -->
<g id="edge14" class="edge"><title>Node5&#45;&gt;Node8</title>
<path fill="none" stroke="midnightblue" d="M534.262,-143.478C562.386,-148.939 595.02,-155.276 621.88,-160.491"/>
<polygon fill="midnightblue" stroke="midnightblue" points="534.608,-139.98 524.124,-141.51 533.274,-146.852 534.608,-139.98"/>
</g>
<!-- Node14 -->
<g id="node28" class="node"><title>Node14</title>
<a xlink:href="class_ro_r_frame_listener.html#accf1a2895ee6b67789cfaa570bfa01cb" target="_top" xlink:title="RoRFrameListener::reloadCurrentTruck">
<polygon fill="white" stroke="black" points="582,-200.5 582,-221.5 770,-221.5 770,-200.5 582,-200.5"/>
<text text-anchor="middle" x="676" y="-208.5" font-family="Helvetica,sans-Serif" font-size="10.00">RoRFrameListener::reloadCurrentTruck</text>
</a>
</g>
<!-- Node5&#45;&gt;Node14 -->
<g id="edge28" class="edge"><title>Node5&#45;&gt;Node14</title>
<path fill="none" stroke="midnightblue" d="M495.117,-147.125C517.207,-160.644 550.641,-179.527 582,-191 592.263,-194.755 603.428,-197.897 614.362,-200.495"/>
<polygon fill="midnightblue" stroke="midnightblue" points="496.724,-144.003 486.384,-141.697 493.029,-149.948 496.724,-144.003"/>
</g>
<!-- Node15 -->
<g id="node31" class="node"><title>Node15</title>
<a xlink:href="class_preview_renderer.html#a5ea6b4611b45965e072266211dc60ba8" target="_top" xlink:title="PreviewRenderer::render">
<polygon fill="white" stroke="black" points="613.5,-120.5 613.5,-141.5 738.5,-141.5 738.5,-120.5 613.5,-120.5"/>
<text text-anchor="middle" x="676" y="-128.5" font-family="Helvetica,sans-Serif" font-size="10.00">PreviewRenderer::render</text>
</a>
</g>
<!-- Node5&#45;&gt;Node15 -->
<g id="edge32" class="edge"><title>Node5&#45;&gt;Node15</title>
<path fill="none" stroke="midnightblue" d="M556.339,-131C575.461,-131 595.369,-131 613.333,-131"/>
<polygon fill="midnightblue" stroke="midnightblue" points="556.122,-127.5 546.122,-131 556.121,-134.5 556.122,-127.5"/>
</g>
<!-- Node16 -->
<g id="node33" class="node"><title>Node16</title>
<a xlink:href="class_beam_factory.html#a49a4ee797005fff135d8f88a085986a0" target="_top" xlink:title="BeamFactory::removeTruck">
<polygon fill="white" stroke="black" points="607,-80.5 607,-101.5 745,-101.5 745,-80.5 607,-80.5"/>
<text text-anchor="middle" x="676" y="-88.5" font-family="Helvetica,sans-Serif" font-size="10.00">BeamFactory::removeTruck</text>
</a>
</g>
<!-- Node5&#45;&gt;Node16 -->
<g id="edge34" class="edge"><title>Node5&#45;&gt;Node16</title>
<path fill="none" stroke="midnightblue" d="M534.262,-118.522C562.386,-113.061 595.02,-106.724 621.88,-101.509"/>
<polygon fill="midnightblue" stroke="midnightblue" points="533.274,-115.148 524.124,-120.49 534.608,-122.02 533.274,-115.148"/>
</g>
<!-- Node17 -->
<g id="node35" class="node"><title>Node17</title>
<a xlink:href="class_beam_factory.html#a59b66e06ec1f1d1f9adb0d299da15265" target="_top" xlink:title="BeamFactory::p_removeAllTrucks">
<polygon fill="white" stroke="black" points="593.5,-40.5 593.5,-61.5 758.5,-61.5 758.5,-40.5 593.5,-40.5"/>
<text text-anchor="middle" x="676" y="-48.5" font-family="Helvetica,sans-Serif" font-size="10.00">BeamFactory::p_removeAllTrucks</text>
</a>
</g>
<!-- Node5&#45;&gt;Node17 -->
<g id="edge36" class="edge"><title>Node5&#45;&gt;Node17</title>
<path fill="none" stroke="midnightblue" d="M495.117,-114.875C517.207,-101.356 550.641,-82.4726 582,-71 592.263,-67.2452 603.428,-64.1025 614.362,-61.5045"/>
<polygon fill="midnightblue" stroke="midnightblue" points="493.029,-112.052 486.384,-120.303 496.724,-117.997 493.029,-112.052"/>
</g>
<!-- Node20 -->
<g id="node42" class="node"><title>Node20</title>
<a xlink:href="class_beam_factory.html#a297cce523629edad68ff2c05bcaa44ac" target="_top" xlink:title="BeamFactory::enterRescueTruck">
<polygon fill="white" stroke="black" points="595.5,-0.5 595.5,-21.5 756.5,-21.5 756.5,-0.5 595.5,-0.5"/>
<text text-anchor="middle" x="676" y="-8.5" font-family="Helvetica,sans-Serif" font-size="10.00">BeamFactory::enterRescueTruck</text>
</a>
</g>
<!-- Node5&#45;&gt;Node20 -->
<g id="edge44" class="edge"><title>Node5&#45;&gt;Node20</title>
<path fill="none" stroke="midnightblue" d="M485.076,-112.625C504.864,-89.7944 541.829,-51.3674 582,-31 589.589,-27.152 597.886,-24.0434 606.306,-21.5324"/>
<polygon fill="midnightblue" stroke="midnightblue" points="482.392,-110.38 478.589,-120.269 487.729,-114.909 482.392,-110.38"/>
</g>
<!-- Node7 -->
<g id="node13" class="node"><title>Node7</title>
<a xlink:href="class_ro_r_frame_listener.html#acd8647e188fb8e838689492965b86faf" target="_top" xlink:title="RoRFrameListener::frameStarted">
<polygon fill="white" stroke="black" points="1023.5,-200.5 1023.5,-221.5 1184.5,-221.5 1184.5,-200.5 1023.5,-200.5"/>
<text text-anchor="middle" x="1104" y="-208.5" font-family="Helvetica,sans-Serif" font-size="10.00">RoRFrameListener::frameStarted</text>
</a>
</g>
<!-- Node6&#45;&gt;Node7 -->
<g id="edge12" class="edge"><title>Node6&#45;&gt;Node7</title>
<path fill="none" stroke="midnightblue" d="M981.589,-211C995.534,-211 1009.82,-211 1023.48,-211"/>
<polygon fill="midnightblue" stroke="midnightblue" points="981.51,-207.5 971.51,-211 981.51,-214.5 981.51,-207.5"/>
</g>
<!-- Node8&#45;&gt;Node6 -->
<g id="edge16" class="edge"><title>Node8&#45;&gt;Node6</title>
<path fill="none" stroke="midnightblue" d="M742.064,-183.406C771.229,-188.883 805.146,-195.253 833.041,-200.491"/>
<polygon fill="midnightblue" stroke="midnightblue" points="742.437,-179.915 731.963,-181.51 741.145,-186.795 742.437,-179.915"/>
</g>
<!-- Node9 -->
<g id="node18" class="node"><title>Node9</title>
<a xlink:href="class_ro_r_1_1_main_thread.html#aa3feeebda7f3f4c31a6cb96ea60c09e0" target="_top" xlink:title="RoR::MainThread::SetupGameplayLoop">
<polygon fill="white" stroke="black" points="1008.5,-145.5 1008.5,-166.5 1199.5,-166.5 1199.5,-145.5 1008.5,-145.5"/>
<text text-anchor="middle" x="1104" y="-153.5" font-family="Helvetica,sans-Serif" font-size="10.00">RoR::MainThread::SetupGameplayLoop</text>
</a>
</g>
<!-- Node8&#45;&gt;Node9 -->
<g id="edge18" class="edge"><title>Node8&#45;&gt;Node9</title>
<path fill="none" stroke="midnightblue" d="M760.841,-168.027C832.126,-165.528 933.961,-161.959 1008.17,-159.358"/>
<polygon fill="midnightblue" stroke="midnightblue" points="760.423,-164.539 750.552,-168.387 760.668,-171.535 760.423,-164.539"/>
</g>
<!-- Node10 -->
<g id="node20" class="node"><title>Node10</title>
<a xlink:href="class_ro_r_1_1_main_thread.html#a7e4d0bd23a40e509892883af75ea0dbf" target="_top" xlink:title="RoR::MainThread::Go">
<polygon fill="white" stroke="black" points="1236.5,-105.5 1236.5,-126.5 1349.5,-126.5 1349.5,-105.5 1236.5,-105.5"/>
<text text-anchor="middle" x="1293" y="-113.5" font-family="Helvetica,sans-Serif" font-size="10.00">RoR::MainThread::Go</text>
</a>
</g>
<!-- Node9&#45;&gt;Node10 -->
<g id="edge20" class="edge"><title>Node9&#45;&gt;Node10</title>
<path fill="none" stroke="midnightblue" d="M1163.64,-143.378C1189.29,-137.95 1218.92,-131.679 1243.35,-126.509"/>
<polygon fill="midnightblue" stroke="midnightblue" points="1162.72,-139.996 1153.66,-145.49 1164.17,-146.844 1162.72,-139.996"/>
</g>
<!-- Node11 -->
<g id="node22" class="node"><title>Node11</title>
<a xlink:href="main_2main__sim_2main_8cpp.html#a0ddf1224851353fc92bfbff6f499fa97" target="_top" xlink:title="main">
<polygon fill="white" stroke="black" points="1452,-125.5 1452,-146.5 1490,-146.5 1490,-125.5 1452,-125.5"/>
<text text-anchor="middle" x="1471" y="-133.5" font-family="Helvetica,sans-Serif" font-size="10.00">main</text>
</a>
</g>
<!-- Node10&#45;&gt;Node11 -->
<g id="edge22" class="edge"><title>Node10&#45;&gt;Node11</title>
<path fill="none" stroke="midnightblue" d="M1359.83,-123.509C1392.65,-127.197 1429.76,-131.366 1451.72,-133.834"/>
<polygon fill="midnightblue" stroke="midnightblue" points="1360.14,-120.022 1349.81,-122.383 1359.36,-126.978 1360.14,-120.022"/>
</g>
<!-- Node12 -->
<g id="node24" class="node"><title>Node12</title>
<a xlink:href="class_ro_r_1_1_main_thread.html#a7a2db954fd2f35d63982d8603d2b9614" target="_top" xlink:title="RoR::MainThread::RequestRestart">
<polygon fill="white" stroke="black" points="1386.5,-85.5 1386.5,-106.5 1555.5,-106.5 1555.5,-85.5 1386.5,-85.5"/>
<text text-anchor="middle" x="1471" y="-93.5" font-family="Helvetica,sans-Serif" font-size="10.00">RoR::MainThread::RequestRestart</text>
</a>
</g>
<!-- Node10&#45;&gt;Node12 -->
<g id="edge24" class="edge"><title>Node10&#45;&gt;Node12</title>
<path fill="none" stroke="midnightblue" d="M1359.78,-108.497C1368.4,-107.528 1377.32,-106.526 1386.18,-105.53"/>
<polygon fill="midnightblue" stroke="midnightblue" points="1359.36,-105.022 1349.81,-109.617 1360.14,-111.978 1359.36,-105.022"/>
</g>
<!-- Node13 -->
<g id="node26" class="node"><title>Node13</title>
<a xlink:href="class_ro_r_frame_listener.html#af2779b96aa0f91920bd100bc30261402" target="_top" xlink:title="RoRFrameListener::Restart">
<polygon fill="white" stroke="black" points="1592.5,-85.5 1592.5,-106.5 1729.5,-106.5 1729.5,-85.5 1592.5,-85.5"/>
<text text-anchor="middle" x="1661" y="-93.5" font-family="Helvetica,sans-Serif" font-size="10.00">RoRFrameListener::Restart</text>
</a>
</g>
<!-- Node12&#45;&gt;Node13 -->
<g id="edge26" class="edge"><title>Node12&#45;&gt;Node13</title>
<path fill="none" stroke="midnightblue" d="M1565.82,-96C1574.78,-96 1583.75,-96 1592.4,-96"/>
<polygon fill="midnightblue" stroke="midnightblue" points="1565.72,-92.5001 1555.72,-96 1565.72,-99.5001 1565.72,-92.5001"/>
</g>
<!-- Node14&#45;&gt;Node6 -->
<g id="edge30" class="edge"><title>Node14&#45;&gt;Node6</title>
<path fill="none" stroke="midnightblue" d="M780.237,-211C788.94,-211 797.662,-211 806.172,-211"/>
<polygon fill="midnightblue" stroke="midnightblue" points="780.045,-207.5 770.045,-211 780.045,-214.5 780.045,-207.5"/>
</g>
<!-- Node18 -->
<g id="node37" class="node"><title>Node18</title>
<a xlink:href="class_beam_factory.html#a089236a1b1ee4dc3b6efa157a784d69c" target="_top" xlink:title="BeamFactory::removeAllTrucks">
<polygon fill="white" stroke="black" points="811.5,-60.5 811.5,-81.5 966.5,-81.5 966.5,-60.5 811.5,-60.5"/>
<text text-anchor="middle" x="889" y="-68.5" font-family="Helvetica,sans-Serif" font-size="10.00">BeamFactory::removeAllTrucks</text>
</a>
</g>
<!-- Node17&#45;&gt;Node18 -->
<g id="edge38" class="edge"><title>Node17&#45;&gt;Node18</title>
<path fill="none" stroke="midnightblue" d="M768.884,-59.7215C783.029,-61.0496 797.499,-62.4084 811.276,-63.7019"/>
<polygon fill="midnightblue" stroke="midnightblue" points="768.94,-56.2114 758.656,-58.7611 768.285,-63.1808 768.94,-56.2114"/>
</g>
<!-- Node19 -->
<g id="node39" class="node"><title>Node19</title>
<a xlink:href="class_ro_r_1_1_main_thread.html#a19637f726d0913e26e0d0548448d8c91" target="_top" xlink:title="RoR::MainThread::UnloadTerrain">
<polygon fill="white" stroke="black" points="1023.5,-65.5 1023.5,-86.5 1184.5,-86.5 1184.5,-65.5 1023.5,-65.5"/>
<text text-anchor="middle" x="1104" y="-73.5" font-family="Helvetica,sans-Serif" font-size="10.00">RoR::MainThread::UnloadTerrain</text>
</a>
</g>
<!-- Node18&#45;&gt;Node19 -->
<g id="edge40" class="edge"><title>Node18&#45;&gt;Node19</title>
<path fill="none" stroke="midnightblue" d="M976.649,-73.0384C992.056,-73.3967 1008.03,-73.7681 1023.23,-74.1217"/>
<polygon fill="midnightblue" stroke="midnightblue" points="976.699,-69.5387 966.62,-72.8051 976.536,-76.5368 976.699,-69.5387"/>
</g>
<!-- Node19&#45;&gt;Node10 -->
<g id="edge42" class="edge"><title>Node19&#45;&gt;Node10</title>
<path fill="none" stroke="midnightblue" d="M1163.64,-88.622C1189.29,-94.0501 1218.92,-100.321 1243.35,-105.491"/>
<polygon fill="midnightblue" stroke="midnightblue" points="1164.17,-85.156 1153.66,-86.5095 1162.72,-92.0043 1164.17,-85.156"/>
</g>
</g>
</svg>
        <g id="navigator" transform="translate(0 0)" fill="#404254">
                <rect fill="#f2f5e9" fill-opacity="0.5" stroke="#606060" stroke-width=".5" x="0" y="0" width="60" height="60"/>
                <use id="zoomplus" xlink:href="#zoomPlus" x="17" y="9" onmousedown="handleZoom(evt,'in')"/>
                <use id="zoomminus" xlink:href="#zoomMin" x="42" y="9" onmousedown="handleZoom(evt,'out')"/>
                <use id="reset" xlink:href="#resetDef" x="30" y="36" onmousedown="handleReset()"/>
                <g id="arrowUp" xlink:href="#dirArrow" transform="translate(30 24)" onmousedown="handlePan(0,-1)">
                  <use xlink:href="#rim" fill="#404040">
                        <set attributeName="fill" to="#808080" begin="arrowUp.mouseover" end="arrowUp.mouseout"/>
                  </use>
                  <path fill="none" stroke="white" stroke-width="1.5" d="M0,-3.0v7 M-2.5,-0.5L0,-3.0L2.5,-0.5"/>
                </g>
                <g id="arrowRight" xlink:href="#dirArrow" transform="rotate(90) translate(36 -43)" onmousedown="handlePan(1,0)">
                  <use xlink:href="#rim" fill="#404040">
                        <set attributeName="fill" to="#808080" begin="arrowRight.mouseover" end="arrowRight.mouseout"/>
                  </use>
                  <path fill="none" stroke="white" stroke-width="1.5" d="M0,-3.0v7 M-2.5,-0.5L0,-3.0L2.5,-0.5"/>
                </g>
                <g id="arrowDown" xlink:href="#dirArrow" transform="rotate(180) translate(-30 -48)" onmousedown="handlePan(0,1)">
                  <use xlink:href="#rim" fill="#404040">
                        <set attributeName="fill" to="#808080" begin="arrowDown.mouseover" end="arrowDown.mouseout"/>
                  </use>
                  <path fill="none" stroke="white" stroke-width="1.5" d="M0,-3.0v7 M-2.5,-0.5L0,-3.0L2.5,-0.5"/>
                </g>
                <g id="arrowLeft" xlink:href="#dirArrow" transform="rotate(270) translate(-36 17)" onmousedown="handlePan(-1,0)">
                  <use xlink:href="#rim" fill="#404040">
                        <set attributeName="fill" to="#808080" begin="arrowLeft.mouseover" end="arrowLeft.mouseout"/>
                  </use>
                  <path fill="none" stroke="white" stroke-width="1.5" d="M0,-3.0v7 M-2.5,-0.5L0,-3.0L2.5,-0.5"/>
                </g>
        </g>
</svg>
