<?xml version="1.0" encoding="UTF-8" standalone="no"?>
<!DOCTYPE svg PUBLIC "-//W3C//DTD SVG 1.1//EN"
 "http://www.w3.org/Graphics/SVG/1.1/DTD/svg11.dtd">
<!-- Generated by graphviz version 2.26.3 (20100126.1600)
 -->
<!-- Title: RigDef::Parser::ParseMeshWheel2Unsafe Pages: 1 -->
<svg width="1072pt" height="148pt"
 viewBox="0.00 0.00 1072.00 148.00" xmlns="http://www.w3.org/2000/svg" xmlns:xlink="http://www.w3.org/1999/xlink">
<g id="graph1" class="graph" transform="scale(1 1) rotate(0) translate(4 144)">
<title>RigDef::Parser::ParseMeshWheel2Unsafe</title>
<polygon fill="white" stroke="white" points="-4,5 -4,-144 1069,-144 1069,5 -4,5"/>
<!-- Node1 -->
<g id="node1" class="node"><title>Node1</title>
<polygon fill="#bfbfbf" stroke="black" points="0.5,-72 0.5,-106 137.5,-106 137.5,-72 0.5,-72"/>
<text text-anchor="start" x="8.5" y="-93" font-family="Helvetica,sans-Serif" font-size="10.00">RigDef::Parser::ParseMesh</text>
<text text-anchor="middle" x="69" y="-80" font-family="Helvetica,sans-Serif" font-size="10.00">Wheel2Unsafe</text>
</g>
<!-- Node2 -->
<g id="node3" class="node"><title>Node2</title>
<a xlink:href="class_rig_def_1_1_parser.html#a7ed61128050ad919e11f37ae76f82851" target="_top" xlink:title="RigDef::Parser::ParseMesh\lWheel2">
<polygon fill="white" stroke="black" points="174.5,-72 174.5,-106 311.5,-106 311.5,-72 174.5,-72"/>
<text text-anchor="start" x="182.5" y="-93" font-family="Helvetica,sans-Serif" font-size="10.00">RigDef::Parser::ParseMesh</text>
<text text-anchor="middle" x="243" y="-80" font-family="Helvetica,sans-Serif" font-size="10.00">Wheel2</text>
</a>
</g>
<!-- Node1&#45;&gt;Node2 -->
<g id="edge2" class="edge"><title>Node1&#45;&gt;Node2</title>
<path fill="none" stroke="midnightblue" d="M148.043,-89C156.856,-89 165.778,-89 174.445,-89"/>
<polygon fill="midnightblue" stroke="midnightblue" points="147.769,-85.5001 137.769,-89 147.769,-92.5001 147.769,-85.5001"/>
</g>
<!-- Node3 -->
<g id="node5" class="node"><title>Node3</title>
<a xlink:href="class_rig_def_1_1_parser.html#a572673469cf88cdebbd30e04df5629ff" target="_top" xlink:title="RigDef::Parser::ParseLine">
<polygon fill="white" stroke="black" points="348.5,-78.5 348.5,-99.5 479.5,-99.5 479.5,-78.5 348.5,-78.5"/>
<text text-anchor="middle" x="414" y="-86.5" font-family="Helvetica,sans-Serif" font-size="10.00">RigDef::Parser::ParseLine</text>
</a>
</g>
<!-- Node2&#45;&gt;Node3 -->
<g id="edge4" class="edge"><title>Node2&#45;&gt;Node3</title>
<path fill="none" stroke="midnightblue" d="M321.638,-89C330.614,-89 339.693,-89 348.473,-89"/>
<polygon fill="midnightblue" stroke="midnightblue" points="321.567,-85.5001 311.567,-89 321.567,-92.5001 321.567,-85.5001"/>
</g>
<!-- Node4 -->
<g id="node7" class="node"><title>Node4</title>
<a xlink:href="class_beam.html#a866f7eb5e93d6c476fa1bd0a4b7dcdf5" target="_top" xlink:title="Beam::LoadTruck">
<polygon fill="white" stroke="black" points="550,-118.5 550,-139.5 644,-139.5 644,-118.5 550,-118.5"/>
<text text-anchor="middle" x="597" y="-126.5" font-family="Helvetica,sans-Serif" font-size="10.00">Beam::LoadTruck</text>
</a>
</g>
<!-- Node3&#45;&gt;Node4 -->
<g id="edge6" class="edge"><title>Node3&#45;&gt;Node4</title>
<path fill="none" stroke="midnightblue" d="M471.863,-101.648C497.003,-107.143 526.079,-113.498 549.873,-118.699"/>
<polygon fill="midnightblue" stroke="midnightblue" points="472.598,-98.2257 462.081,-99.5095 471.103,-105.064 472.598,-98.2257"/>
</g>
<!-- Node6 -->
<g id="node11" class="node"><title>Node6</title>
<a xlink:href="class_cache_system.html#ad640fd28c3075eb6310d8d8f3475cefb" target="_top" xlink:title="CacheSystem::fillTruckDetailInfo">
<polygon fill="white" stroke="black" points="516.5,-78.5 516.5,-99.5 677.5,-99.5 677.5,-78.5 516.5,-78.5"/>
<text text-anchor="middle" x="597" y="-86.5" font-family="Helvetica,sans-Serif" font-size="10.00">CacheSystem::fillTruckDetailInfo</text>
</a>
</g>
<!-- Node3&#45;&gt;Node6 -->
<g id="edge10" class="edge"><title>Node3&#45;&gt;Node6</title>
<path fill="none" stroke="midnightblue" d="M489.72,-89C498.477,-89 507.434,-89 516.255,-89"/>
<polygon fill="midnightblue" stroke="midnightblue" points="489.55,-85.5001 479.55,-89 489.55,-92.5001 489.55,-85.5001"/>
</g>
<!-- Node7 -->
<g id="node13" class="node"><title>Node7</title>
<a xlink:href="class_ro_r_1_1_rig_editor_1_1_main.html#a0ae39993d636eacc5dfe567c5f5ac4b9" target="_top" xlink:title="RoR::RigEditor::Main\l::LoadRigDefFile">
<polygon fill="white" stroke="black" points="542,-26 542,-60 652,-60 652,-26 542,-26"/>
<text text-anchor="start" x="550" y="-47" font-family="Helvetica,sans-Serif" font-size="10.00">RoR::RigEditor::Main</text>
<text text-anchor="middle" x="597" y="-34" font-family="Helvetica,sans-Serif" font-size="10.00">::LoadRigDefFile</text>
</a>
</g>
<!-- Node3&#45;&gt;Node7 -->
<g id="edge12" class="edge"><title>Node3&#45;&gt;Node7</title>
<path fill="none" stroke="midnightblue" d="M465.838,-75.9696C489.517,-70.0176 517.59,-62.9611 541.676,-56.9066"/>
<polygon fill="midnightblue" stroke="midnightblue" points="464.829,-72.6144 455.984,-78.4467 466.535,-79.4032 464.829,-72.6144"/>
</g>
<!-- Node5 -->
<g id="node9" class="node"><title>Node5</title>
<a xlink:href="class_beam.html#ac3b331240d6084f4a5116f6c862b65ad" target="_top" xlink:title="Beam::Beam">
<polygon fill="white" stroke="black" points="741,-118.5 741,-139.5 815,-139.5 815,-118.5 741,-118.5"/>
<text text-anchor="middle" x="778" y="-126.5" font-family="Helvetica,sans-Serif" font-size="10.00">Beam::Beam</text>
</a>
</g>
<!-- Node4&#45;&gt;Node5 -->
<g id="edge8" class="edge"><title>Node4&#45;&gt;Node5</title>
<path fill="none" stroke="midnightblue" d="M654.259,-129C682.567,-129 715.914,-129 740.853,-129"/>
<polygon fill="midnightblue" stroke="midnightblue" points="654.083,-125.5 644.083,-129 654.083,-132.5 654.083,-125.5"/>
</g>
<!-- Node8 -->
<g id="node15" class="node"><title>Node8</title>
<a xlink:href="class_ro_r_1_1_rig_editor_1_1_main.html#a35a10d6c23920802442d32fab1a8d470" target="_top" xlink:title="RoR::RigEditor::Main\l::NotifyFileSelectorEnded">
<polygon fill="white" stroke="black" points="714,-26 714,-60 842,-60 842,-26 714,-26"/>
<text text-anchor="start" x="722" y="-47" font-family="Helvetica,sans-Serif" font-size="10.00">RoR::RigEditor::Main</text>
<text text-anchor="middle" x="778" y="-34" font-family="Helvetica,sans-Serif" font-size="10.00">::NotifyFileSelectorEnded</text>
</a>
</g>
<!-- Node7&#45;&gt;Node8 -->
<g id="edge14" class="edge"><title>Node7&#45;&gt;Node8</title>
<path fill="none" stroke="midnightblue" d="M662.519,-43C679.24,-43 697.196,-43 713.848,-43"/>
<polygon fill="midnightblue" stroke="midnightblue" points="662.289,-39.5001 652.289,-43 662.289,-46.5001 662.289,-39.5001"/>
</g>
<!-- Node9 -->
<g id="node17" class="node"><title>Node9</title>
<a xlink:href="class_ro_r_1_1_rig_editor_1_1_main.html#a4f73e9dc5632524ca803864460b82bb5" target="_top" xlink:title="RoR::RigEditor::Main\l::CommandShowDialogOpenRigFile">
<polygon fill="white" stroke="black" points="884,-52 884,-86 1058,-86 1058,-52 884,-52"/>
<text text-anchor="start" x="892" y="-73" font-family="Helvetica,sans-Serif" font-size="10.00">RoR::RigEditor::Main</text>
<text text-anchor="middle" x="971" y="-60" font-family="Helvetica,sans-Serif" font-size="10.00">::CommandShowDialogOpenRigFile</text>
</a>
</g>
<!-- Node8&#45;&gt;Node9 -->
<g id="edge16" class="edge"><title>Node8&#45;&gt;Node9</title>
<path fill="none" stroke="midnightblue" d="M852.456,-53.0303C862.783,-54.4216 873.466,-55.8607 883.997,-57.2794"/>
<polygon fill="midnightblue" stroke="midnightblue" points="852.644,-49.5241 842.266,-51.6576 851.709,-56.4615 852.644,-49.5241"/>
</g>
<!-- Node10 -->
<g id="node19" class="node"><title>Node10</title>
<a xlink:href="class_ro_r_1_1_rig_editor_1_1_main.html#acb4af1361d9233f5ee2fa658536a7658" target="_top" xlink:title="RoR::RigEditor::Main\l::CommandShowDialogSaveRigFileAs">
<polygon fill="white" stroke="black" points="878.5,-0 878.5,-34 1063.5,-34 1063.5,-0 878.5,-0"/>
<text text-anchor="start" x="886.5" y="-21" font-family="Helvetica,sans-Serif" font-size="10.00">RoR::RigEditor::Main</text>
<text text-anchor="middle" x="971" y="-8" font-family="Helvetica,sans-Serif" font-size="10.00">::CommandShowDialogSaveRigFileAs</text>
</a>
</g>
<!-- Node8&#45;&gt;Node10 -->
<g id="edge18" class="edge"><title>Node8&#45;&gt;Node10</title>
<path fill="none" stroke="midnightblue" d="M852.223,-33.001C860.818,-31.8432 869.662,-30.6518 878.461,-29.4663"/>
<polygon fill="midnightblue" stroke="midnightblue" points="851.709,-29.5385 842.266,-34.3424 852.644,-36.4759 851.709,-29.5385"/>
</g>
</g>
</svg>
