<?xml version="1.0" encoding="UTF-8" standalone="no"?>
<!DOCTYPE svg PUBLIC "-//W3C//DTD SVG 1.1//EN"
 "http://www.w3.org/Graphics/SVG/1.1/DTD/svg11.dtd">
<!-- Generated by graphviz version 2.26.3 (20100126.1600)
 -->
<!-- Title: RoR::RigEditor::Rig::SelectedShocks2UpdateAttributes Pages: 1 -->
<svg width="1022pt" height="125pt"
 viewBox="0.00 0.00 1022.00 125.00" xmlns="http://www.w3.org/2000/svg" xmlns:xlink="http://www.w3.org/1999/xlink">
<g id="graph1" class="graph" transform="scale(1 1) rotate(0) translate(4 121)">
<title>RoR::RigEditor::Rig::SelectedShocks2UpdateAttributes</title>
<polygon fill="white" stroke="white" points="-4,5 -4,-121 1019,-121 1019,5 -4,5"/>
<!-- Node1 -->
<g id="node1" class="node"><title>Node1</title>
<polygon fill="#bfbfbf" stroke="black" points="0.5,-36 0.5,-70 173.5,-70 173.5,-36 0.5,-36"/>
<text text-anchor="start" x="8.5" y="-57" font-family="Helvetica,sans-Serif" font-size="10.00">RoR::RigEditor::Rig</text>
<text text-anchor="middle" x="87" y="-44" font-family="Helvetica,sans-Serif" font-size="10.00">::SelectedShocks2UpdateAttributes</text>
</g>
<!-- Node2 -->
<g id="node3" class="node"><title>Node2</title>
<a xlink:href="class_ro_r_1_1_rig_editor_1_1_main.html#abe2179248ae5a8d9fc4a8ed136a18c46" target="_top" xlink:title="RoR::RigEditor::Main\l::UpdateMainLoop">
<polygon fill="white" stroke="black" points="235,-66 235,-100 345,-100 345,-66 235,-66"/>
<text text-anchor="start" x="243" y="-87" font-family="Helvetica,sans-Serif" font-size="10.00">RoR::RigEditor::Main</text>
<text text-anchor="middle" x="290" y="-74" font-family="Helvetica,sans-Serif" font-size="10.00">::UpdateMainLoop</text>
</a>
</g>
<!-- Node1&#45;&gt;Node2 -->
<g id="edge2" class="edge"><title>Node1&#45;&gt;Node2</title>
<path fill="none" stroke="midnightblue" d="M183.915,-67.3224C201.362,-69.9007 218.989,-72.5058 234.73,-74.8321"/>
<polygon fill="midnightblue" stroke="midnightblue" points="184.083,-63.8094 173.679,-65.8097 183.06,-70.7342 184.083,-63.8094"/>
</g>
<!-- Node9 -->
<g id="node17" class="node"><title>Node9</title>
<a xlink:href="class_ro_r_1_1_rig_editor_1_1_main.html#a2b5781ac3dc16dea6aeace8abfc8824d" target="_top" xlink:title="RoR::RigEditor::Main\l::CommandRigSelectedShocks2\lUpdateAttributes">
<polygon fill="white" stroke="black" points="210.5,-0.5 210.5,-47.5 369.5,-47.5 369.5,-0.5 210.5,-0.5"/>
<text text-anchor="start" x="218.5" y="-34.5" font-family="Helvetica,sans-Serif" font-size="10.00">RoR::RigEditor::Main</text>
<text text-anchor="start" x="218.5" y="-21.5" font-family="Helvetica,sans-Serif" font-size="10.00">::CommandRigSelectedShocks2</text>
<text text-anchor="middle" x="290" y="-8.5" font-family="Helvetica,sans-Serif" font-size="10.00">UpdateAttributes</text>
</a>
</g>
<!-- Node1&#45;&gt;Node9 -->
<g id="edge16" class="edge"><title>Node1&#45;&gt;Node9</title>
<path fill="none" stroke="midnightblue" d="M183.719,-39.183C192.643,-37.9082 201.616,-36.6263 210.362,-35.3769"/>
<polygon fill="midnightblue" stroke="midnightblue" points="183.084,-35.7381 173.679,-40.6173 184.074,-42.6678 183.084,-35.7381"/>
</g>
<!-- Node3 -->
<g id="node5" class="node"><title>Node3</title>
<a xlink:href="class_ro_r_1_1_rig_editor_1_1_main.html#a8cd11f0150b5e247b6d9f00212d42b0d" target="_top" xlink:title="RoR::RigEditor::Main\l::EnterMainLoop">
<polygon fill="white" stroke="black" points="406,-66 406,-100 516,-100 516,-66 406,-66"/>
<text text-anchor="start" x="414" y="-87" font-family="Helvetica,sans-Serif" font-size="10.00">RoR::RigEditor::Main</text>
<text text-anchor="middle" x="461" y="-74" font-family="Helvetica,sans-Serif" font-size="10.00">::EnterMainLoop</text>
</a>
</g>
<!-- Node2&#45;&gt;Node3 -->
<g id="edge4" class="edge"><title>Node2&#45;&gt;Node3</title>
<path fill="none" stroke="midnightblue" d="M355.254,-83C371.914,-83 389.661,-83 405.763,-83"/>
<polygon fill="midnightblue" stroke="midnightblue" points="355.047,-79.5001 345.047,-83 355.047,-86.5001 355.047,-79.5001"/>
</g>
<!-- Node4 -->
<g id="node7" class="node"><title>Node4</title>
<a xlink:href="class_ro_r_1_1_main_thread.html#a7e4d0bd23a40e509892883af75ea0dbf" target="_top" xlink:title="RoR::MainThread::Go">
<polygon fill="white" stroke="black" points="552.5,-72.5 552.5,-93.5 665.5,-93.5 665.5,-72.5 552.5,-72.5"/>
<text text-anchor="middle" x="609" y="-80.5" font-family="Helvetica,sans-Serif" font-size="10.00">RoR::MainThread::Go</text>
</a>
</g>
<!-- Node3&#45;&gt;Node4 -->
<g id="edge6" class="edge"><title>Node3&#45;&gt;Node4</title>
<path fill="none" stroke="midnightblue" d="M526.23,-83C534.94,-83 543.814,-83 552.361,-83"/>
<polygon fill="midnightblue" stroke="midnightblue" points="526.11,-79.5001 516.11,-83 526.11,-86.5001 526.11,-79.5001"/>
</g>
<!-- Node5 -->
<g id="node9" class="node"><title>Node5</title>
<a xlink:href="main_2main__sim_2main_8cpp.html#a0ddf1224851353fc92bfbff6f499fa97" target="_top" xlink:title="main">
<polygon fill="white" stroke="black" points="752,-95.5 752,-116.5 790,-116.5 790,-95.5 752,-95.5"/>
<text text-anchor="middle" x="771" y="-103.5" font-family="Helvetica,sans-Serif" font-size="10.00">main</text>
</a>
</g>
<!-- Node4&#45;&gt;Node5 -->
<g id="edge8" class="edge"><title>Node4&#45;&gt;Node5</title>
<path fill="none" stroke="midnightblue" d="M675.692,-92.4687C703.272,-96.3843 733.136,-100.624 751.945,-103.295"/>
<polygon fill="midnightblue" stroke="midnightblue" points="676.052,-88.9848 665.66,-91.0443 675.068,-95.9153 676.052,-88.9848"/>
</g>
<!-- Node7 -->
<g id="node13" class="node"><title>Node7</title>
<a xlink:href="class_ro_r_1_1_main_thread.html#a7a2db954fd2f35d63982d8603d2b9614" target="_top" xlink:title="RoR::MainThread::Request\lRestart">
<polygon fill="white" stroke="black" points="702.5,-43 702.5,-77 839.5,-77 839.5,-43 702.5,-43"/>
<text text-anchor="start" x="710.5" y="-64" font-family="Helvetica,sans-Serif" font-size="10.00">RoR::MainThread::Request</text>
<text text-anchor="middle" x="771" y="-51" font-family="Helvetica,sans-Serif" font-size="10.00">Restart</text>
</a>
</g>
<!-- Node4&#45;&gt;Node7 -->
<g id="edge12" class="edge"><title>Node4&#45;&gt;Node7</title>
<path fill="none" stroke="midnightblue" d="M675.824,-73.5126C684.595,-72.2674 693.594,-70.9898 702.393,-69.7405"/>
<polygon fill="midnightblue" stroke="midnightblue" points="675.068,-70.0847 665.66,-74.9557 676.052,-77.0152 675.068,-70.0847"/>
</g>
<!-- Node6 -->
<g id="node11" class="node"><title>Node6</title>
<a xlink:href="main_2main__sim_2main_8cpp.html#a2922bc5d5c2d77a3020cfbf9df12aab0" target="_top" xlink:title="WinMain">
<polygon fill="white" stroke="black" points="917.5,-95.5 917.5,-116.5 972.5,-116.5 972.5,-95.5 917.5,-95.5"/>
<text text-anchor="middle" x="945" y="-103.5" font-family="Helvetica,sans-Serif" font-size="10.00">WinMain</text>
</a>
</g>
<!-- Node5&#45;&gt;Node6 -->
<g id="edge10" class="edge"><title>Node5&#45;&gt;Node6</title>
<path fill="none" stroke="midnightblue" d="M800.559,-106C833.23,-106 885.439,-106 917.332,-106"/>
<polygon fill="midnightblue" stroke="midnightblue" points="800.286,-102.5 790.286,-106 800.286,-109.5 800.286,-102.5"/>
</g>
<!-- Node8 -->
<g id="node15" class="node"><title>Node8</title>
<a xlink:href="class_ro_r_frame_listener.html#af2779b96aa0f91920bd100bc30261402" target="_top" xlink:title="RoRFrameListener::Restart">
<polygon fill="white" stroke="black" points="876.5,-49.5 876.5,-70.5 1013.5,-70.5 1013.5,-49.5 876.5,-49.5"/>
<text text-anchor="middle" x="945" y="-57.5" font-family="Helvetica,sans-Serif" font-size="10.00">RoRFrameListener::Restart</text>
</a>
</g>
<!-- Node7&#45;&gt;Node8 -->
<g id="edge14" class="edge"><title>Node7&#45;&gt;Node8</title>
<path fill="none" stroke="midnightblue" d="M850.043,-60C858.856,-60 867.778,-60 876.445,-60"/>
<polygon fill="midnightblue" stroke="midnightblue" points="849.769,-56.5001 839.769,-60 849.769,-63.5001 849.769,-56.5001"/>
</g>
</g>
</svg>
