<?xml version="1.0" encoding="UTF-8" standalone="no"?>
<!DOCTYPE svg PUBLIC "-//W3C//DTD SVG 1.1//EN"
 "http://www.w3.org/Graphics/SVG/1.1/DTD/svg11.dtd">
<!-- Generated by graphviz version 2.26.3 (20100126.1600)
 -->
<!-- Title: Hydrax::Noise::Perlin::saveCfg Pages: 1 -->
<svg width="278pt" height="94pt"
 viewBox="0.00 0.00 278.00 94.00" xmlns="http://www.w3.org/2000/svg" xmlns:xlink="http://www.w3.org/1999/xlink">
<g id="graph1" class="graph" transform="scale(1 1) rotate(0) translate(4 90)">
<title>Hydrax::Noise::Perlin::saveCfg</title>
<polygon fill="white" stroke="white" points="-4,5 -4,-90 275,-90 275,5 -4,5"/>
<!-- Node1 -->
<g id="node1" class="node"><title>Node1</title>
<polygon fill="#bfbfbf" stroke="black" points="0,-26 0,-60 110,-60 110,-26 0,-26"/>
<text text-anchor="start" x="8" y="-47" font-family="Helvetica,sans-Serif" font-size="10.00">Hydrax::Noise::Perlin</text>
<text text-anchor="middle" x="55" y="-34" font-family="Helvetica,sans-Serif" font-size="10.00">::saveCfg</text>
</g>
<!-- Node2 -->
<g id="node3" class="node"><title>Node2</title>
<a xlink:href="class_hydrax_1_1_noise_1_1_noise.html#aac0a9fe1533ddd87467edb954f8abea8" target="_top" xlink:title="Hydrax::Noise::Noise\l::saveCfg">
<polygon fill="white" stroke="black" points="152.5,-52 152.5,-86 263.5,-86 263.5,-52 152.5,-52"/>
<text text-anchor="start" x="160.5" y="-73" font-family="Helvetica,sans-Serif" font-size="10.00">Hydrax::Noise::Noise</text>
<text text-anchor="middle" x="208" y="-60" font-family="Helvetica,sans-Serif" font-size="10.00">::saveCfg</text>
</a>
</g>
<!-- Node1&#45;&gt;Node2 -->
<g id="edge2" class="edge"><title>Node1&#45;&gt;Node2</title>
<path fill="none" stroke="midnightblue" d="M110.237,-52.3866C120.615,-54.1503 131.561,-56.0103 142.223,-57.8222"/>
<polygon fill="midnightblue" stroke="midnightblue" points="141.886,-61.315 152.331,-59.5399 143.058,-54.4139 141.886,-61.315"/>
</g>
<!-- Node3 -->
<g id="node5" class="node"><title>Node3</title>
<a xlink:href="class_hydrax_1_1_cfg_file_manager.html#a020c0d58713f7ecbd396101247bcab1b" target="_top" xlink:title="Hydrax::CfgFileManager\l::_getCfgString">
<polygon fill="white" stroke="black" points="146.5,-0 146.5,-34 269.5,-34 269.5,-0 146.5,-0"/>
<text text-anchor="start" x="154.5" y="-21" font-family="Helvetica,sans-Serif" font-size="10.00">Hydrax::CfgFileManager</text>
<text text-anchor="middle" x="208" y="-8" font-family="Helvetica,sans-Serif" font-size="10.00">::_getCfgString</text>
</a>
</g>
<!-- Node1&#45;&gt;Node3 -->
<g id="edge4" class="edge"><title>Node1&#45;&gt;Node3</title>
<path fill="none" stroke="midnightblue" d="M110.237,-33.6134C118.757,-32.1655 127.659,-30.6527 136.473,-29.1549"/>
<polygon fill="midnightblue" stroke="midnightblue" points="137.089,-32.6005 146.362,-27.4745 135.916,-25.6994 137.089,-32.6005"/>
</g>
</g>
</svg>
