<?xml version="1.0" encoding="UTF-8" standalone="no"?>
<!DOCTYPE svg PUBLIC "-//W3C//DTD SVG 1.1//EN"
 "http://www.w3.org/Graphics/SVG/1.1/DTD/svg11.dtd">
<!-- Generated by graphviz version 2.26.3 (20100126.1600)
 -->
<!-- Title: G Pages: 1 -->
<!--zoomable 190 -->
<svg id="main" version="1.1" xmlns="http://www.w3.org/2000/svg" xmlns:xlink="http://www.w3.org/1999/xlink" xml:space="preserve" onload="init(evt)">
        <defs>
                <circle id="rim" cx="0" cy="0" r="7"/>
                <circle id="rim2" cx="0" cy="0" r="3.5"/>
                <g id="zoomPlus">
                        <use xlink:href="#rim" fill="#404040">
                                <set attributeName="fill" to="#808080" begin="zoomplus.mouseover" end="zoomplus.mouseout"/>
                        </use>
                        <path d="M-4,0h8M0,-4v8" fill="none" stroke="white" stroke-width="1.5" pointer-events="none"/>
                </g>
                <g id="zoomMin">
                        <use xlink:href="#rim" fill="#404040">
                                <set attributeName="fill" to="#808080" begin="zoomminus.mouseover" end="zoomminus.mouseout"/>
                        </use>
                        <path d="M-4,0h8" fill="none" stroke="white" stroke-width="1.5" pointer-events="none"/>
                </g>
                <g id="dirArrow">
                        <path fill="none" stroke="white" stroke-width="1.5" d="M0,-3.0v7 M-2.5,-0.5L0,-3.0L2.5,-0.5"/>
                </g>
               <g id="resetDef">
                       <use xlink:href="#rim2" fill="#404040">
                               <set attributeName="fill" to="#808080" begin="reset.mouseover" end="reset.mouseout"/>
                       </use>
               </g>
        </defs>

<script type="text/javascript">
var viewWidth = 810;
var viewHeight = 190;
var sectionId = 'dynsection-11';
</script>
<script xlink:href="svgpan.js"/>
<svg id="graph" class="graph">
<g id="viewport">
<title>G</title>
<polygon fill="white" stroke="white" points="-4,5 -4,-186 807,-186 807,5 -4,5"/>
<!-- Node1 -->
<g id="node1" class="node"><title>Node1</title>
<polygon fill="#bfbfbf" stroke="black" points="0.5,-80.5 0.5,-101.5 133.5,-101.5 133.5,-80.5 0.5,-80.5"/>
<text text-anchor="middle" x="67" y="-88.5" font-family="Helvetica,sans-Serif" font-size="10.00">Collisions::collisionCorrect</text>
</g>
<!-- Node2 -->
<g id="node3" class="node"><title>Node2</title>
<a xlink:href="class_terrain_manager.html#a41fdd66a57990a5fb33d253213fd04e3" target="_top" xlink:title="TerrainManager::getMaxTerrainSize">
<polygon fill="white" stroke="black" points="170,-160.5 170,-181.5 342,-181.5 342,-160.5 170,-160.5"/>
<text text-anchor="middle" x="256" y="-168.5" font-family="Helvetica,sans-Serif" font-size="10.00">TerrainManager::getMaxTerrainSize</text>
</a>
</g>
<!-- Node1&#45;&gt;Node2 -->
<g id="edge2" class="edge"><title>Node1&#45;&gt;Node2</title>
<path fill="none" stroke="midnightblue" d="M81.9674,-101.665C101.385,-115.032 136.725,-137.787 170,-151 176.318,-153.509 183.027,-155.748 189.803,-157.737"/>
<polygon fill="midnightblue" stroke="midnightblue" points="189.169,-161.193 199.74,-160.473 191.028,-154.444 189.169,-161.193"/>
</g>
<!-- Node4 -->
<g id="node7" class="node"><title>Node4</title>
<a xlink:href="class_collisions.html#a4d438eb211fe0953343dc39f478e14e0" target="_top" xlink:title="Collisions::hash_find">
<polygon fill="white" stroke="black" points="202.5,-120.5 202.5,-141.5 309.5,-141.5 309.5,-120.5 202.5,-120.5"/>
<text text-anchor="middle" x="256" y="-128.5" font-family="Helvetica,sans-Serif" font-size="10.00">Collisions::hash_find</text>
</a>
</g>
<!-- Node1&#45;&gt;Node4 -->
<g id="edge6" class="edge"><title>Node1&#45;&gt;Node4</title>
<path fill="none" stroke="midnightblue" d="M116.658,-101.51C141.085,-106.679 170.718,-112.951 196.365,-118.379"/>
<polygon fill="midnightblue" stroke="midnightblue" points="195.838,-121.845 206.346,-120.491 197.288,-114.997 195.838,-121.845"/>
</g>
<!-- Node6 -->
<g id="node11" class="node"><title>Node6</title>
<a xlink:href="class_collisions.html#a169c711864e32721fb5daab7d7d01df4" target="_top" xlink:title="Collisions::permitEvent">
<polygon fill="white" stroke="black" points="197,-80.5 197,-101.5 315,-101.5 315,-80.5 197,-80.5"/>
<text text-anchor="middle" x="256" y="-88.5" font-family="Helvetica,sans-Serif" font-size="10.00">Collisions::permitEvent</text>
</a>
</g>
<!-- Node1&#45;&gt;Node6 -->
<g id="edge10" class="edge"><title>Node1&#45;&gt;Node6</title>
<path fill="none" stroke="midnightblue" d="M133.634,-91C150.87,-91 169.463,-91 186.825,-91"/>
<polygon fill="midnightblue" stroke="midnightblue" points="186.886,-94.5001 196.886,-91 186.886,-87.5001 186.886,-94.5001"/>
</g>
<!-- Node10 -->
<g id="node19" class="node"><title>Node10</title>
<a xlink:href="class_collisions.html#afab554d00436aa9157c93a4eaecf8d74" target="_top" xlink:title="Collisions::envokeScriptCallback">
<polygon fill="white" stroke="black" points="175.5,-40.5 175.5,-61.5 336.5,-61.5 336.5,-40.5 175.5,-40.5"/>
<text text-anchor="middle" x="256" y="-48.5" font-family="Helvetica,sans-Serif" font-size="10.00">Collisions::envokeScriptCallback</text>
</a>
</g>
<!-- Node1&#45;&gt;Node10 -->
<g id="edge18" class="edge"><title>Node1&#45;&gt;Node10</title>
<path fill="none" stroke="midnightblue" d="M116.658,-80.4905C141.085,-75.3205 170.718,-69.0492 196.365,-63.6212"/>
<polygon fill="midnightblue" stroke="midnightblue" points="197.288,-67.0035 206.346,-61.5087 195.838,-60.1552 197.288,-67.0035"/>
</g>
<!-- Node12 -->
<g id="node23" class="node"><title>Node12</title>
<a xlink:href="class_collisions.html#accb10540c3aa849f57b7fd3b9da2e1c6" target="_top" xlink:title="Collisions::calcCollidedSide">
<polygon fill="white" stroke="black" points="187,-0.5 187,-21.5 325,-21.5 325,-0.5 187,-0.5"/>
<text text-anchor="middle" x="256" y="-8.5" font-family="Helvetica,sans-Serif" font-size="10.00">Collisions::calcCollidedSide</text>
</a>
</g>
<!-- Node1&#45;&gt;Node12 -->
<g id="edge22" class="edge"><title>Node1&#45;&gt;Node12</title>
<path fill="none" stroke="midnightblue" d="M81.9674,-80.3352C101.385,-66.9683 136.725,-44.2126 170,-31 176.318,-28.4914 183.027,-26.2518 189.803,-24.2633"/>
<polygon fill="midnightblue" stroke="midnightblue" points="191.028,-27.5563 199.74,-21.5274 189.169,-20.8075 191.028,-27.5563"/>
</g>
<!-- Node3 -->
<g id="node5" class="node"><title>Node3</title>
<a xlink:href="class_terrain_geometry_manager.html#afead68b5ff7a0b77395065ab8ea855e3" target="_top" xlink:title="TerrainGeometryManager::getMaxTerrainSize">
<polygon fill="white" stroke="black" points="404.5,-160.5 404.5,-181.5 619.5,-181.5 619.5,-160.5 404.5,-160.5"/>
<text text-anchor="middle" x="512" y="-168.5" font-family="Helvetica,sans-Serif" font-size="10.00">TerrainGeometryManager::getMaxTerrainSize</text>
</a>
</g>
<!-- Node2&#45;&gt;Node3 -->
<g id="edge4" class="edge"><title>Node2&#45;&gt;Node3</title>
<path fill="none" stroke="midnightblue" d="M342.313,-171C358.937,-171 376.613,-171 394.04,-171"/>
<polygon fill="midnightblue" stroke="midnightblue" points="394.263,-174.5 404.263,-171 394.263,-167.5 394.263,-174.5"/>
</g>
<!-- Node5 -->
<g id="node9" class="node"><title>Node5</title>
<a xlink:href="class_collisions.html#a7e21c069d16d661d211d0cb896577edf" target="_top" xlink:title="Collisions::hashfunc">
<polygon fill="white" stroke="black" points="459.5,-120.5 459.5,-141.5 564.5,-141.5 564.5,-120.5 459.5,-120.5"/>
<text text-anchor="middle" x="512" y="-128.5" font-family="Helvetica,sans-Serif" font-size="10.00">Collisions::hashfunc</text>
</a>
</g>
<!-- Node4&#45;&gt;Node5 -->
<g id="edge8" class="edge"><title>Node4&#45;&gt;Node5</title>
<path fill="none" stroke="midnightblue" d="M309.666,-131C350.386,-131 406.466,-131 449.26,-131"/>
<polygon fill="midnightblue" stroke="midnightblue" points="449.282,-134.5 459.282,-131 449.282,-127.5 449.282,-134.5"/>
</g>
<!-- Node7 -->
<g id="node13" class="node"><title>Node7</title>
<a xlink:href="class_streamable_factory.html#a233cafcf6f87f5779b1a26a5a48d8f6d" target="_top" xlink:title="StreamableFactory\&lt; BeamFactory, Beam \&gt;::getSingleton">
<polygon fill="white" stroke="black" points="378.5,-80.5 378.5,-101.5 645.5,-101.5 645.5,-80.5 378.5,-80.5"/>
<text text-anchor="middle" x="512" y="-88.5" font-family="Helvetica,sans-Serif" font-size="10.00">StreamableFactory&lt; BeamFactory, Beam &gt;::getSingleton</text>
</a>
</g>
<!-- Node6&#45;&gt;Node7 -->
<g id="edge12" class="edge"><title>Node6&#45;&gt;Node7</title>
<path fill="none" stroke="midnightblue" d="M315.053,-91C331.262,-91 349.574,-91 368.341,-91"/>
<polygon fill="midnightblue" stroke="midnightblue" points="368.495,-94.5001 378.495,-91 368.495,-87.5001 368.495,-94.5001"/>
</g>
<!-- Node8 -->
<g id="node15" class="node"><title>Node8</title>
<a xlink:href="class_beam_factory.html#aeb17b3a10c961e56770f7dc87a16625c" target="_top" xlink:title="BeamFactory::getCurrentTruck">
<polygon fill="white" stroke="black" points="436,-40.5 436,-61.5 588,-61.5 588,-40.5 436,-40.5"/>
<text text-anchor="middle" x="512" y="-48.5" font-family="Helvetica,sans-Serif" font-size="10.00">BeamFactory::getCurrentTruck</text>
</a>
</g>
<!-- Node6&#45;&gt;Node8 -->
<g id="edge14" class="edge"><title>Node6&#45;&gt;Node8</title>
<path fill="none" stroke="midnightblue" d="M315.233,-81.1146C335.166,-77.8346 357.537,-74.2042 378,-71 394.901,-68.3536 413.013,-65.5967 430.285,-63.0057"/>
<polygon fill="midnightblue" stroke="midnightblue" points="430.97,-66.4423 440.342,-61.5014 429.934,-59.5193 430.97,-66.4423"/>
</g>
<!-- Node9 -->
<g id="node17" class="node"><title>Node9</title>
<a xlink:href="class_beam_factory.html#aadb09a68dc35fad593189242429df218" target="_top" xlink:title="BeamFactory::getTruck">
<polygon fill="white" stroke="black" points="682.5,-40.5 682.5,-61.5 801.5,-61.5 801.5,-40.5 682.5,-40.5"/>
<text text-anchor="middle" x="742" y="-48.5" font-family="Helvetica,sans-Serif" font-size="10.00">BeamFactory::getTruck</text>
</a>
</g>
<!-- Node8&#45;&gt;Node9 -->
<g id="edge16" class="edge"><title>Node8&#45;&gt;Node9</title>
<path fill="none" stroke="midnightblue" d="M588.267,-51C615.28,-51 645.521,-51 671.988,-51"/>
<polygon fill="midnightblue" stroke="midnightblue" points="672.312,-54.5001 682.312,-51 672.312,-47.5001 672.312,-54.5001"/>
</g>
<!-- Node11 -->
<g id="node21" class="node"><title>Node11</title>
<a xlink:href="class_ro_r_singleton_no_creation.html#a5e7a47f4b2d6d0abaa3a1ea5ca1f216a" target="_top" xlink:title="RoRSingletonNoCreation\&lt; ScriptEngine \&gt;::getSingleton">
<polygon fill="white" stroke="black" points="382,-0.5 382,-21.5 642,-21.5 642,-0.5 382,-0.5"/>
<text text-anchor="middle" x="512" y="-8.5" font-family="Helvetica,sans-Serif" font-size="10.00">RoRSingletonNoCreation&lt; ScriptEngine &gt;::getSingleton</text>
</a>
</g>
<!-- Node10&#45;&gt;Node11 -->
<g id="edge20" class="edge"><title>Node10&#45;&gt;Node11</title>
<path fill="none" stroke="midnightblue" d="M318.978,-40.4989C337.941,-37.3848 358.81,-34.0049 378,-31 394.901,-28.3536 413.013,-25.5967 430.285,-23.0057"/>
<polygon fill="midnightblue" stroke="midnightblue" points="430.97,-26.4423 440.342,-21.5014 429.934,-19.5193 430.97,-26.4423"/>
</g>
</g>
</svg>
        <g id="navigator" transform="translate(0 0)" fill="#404254">
                <rect fill="#f2f5e9" fill-opacity="0.5" stroke="#606060" stroke-width=".5" x="0" y="0" width="60" height="60"/>
                <use id="zoomplus" xlink:href="#zoomPlus" x="17" y="9" onmousedown="handleZoom(evt,'in')"/>
                <use id="zoomminus" xlink:href="#zoomMin" x="42" y="9" onmousedown="handleZoom(evt,'out')"/>
                <use id="reset" xlink:href="#resetDef" x="30" y="36" onmousedown="handleReset()"/>
                <g id="arrowUp" xlink:href="#dirArrow" transform="translate(30 24)" onmousedown="handlePan(0,-1)">
                  <use xlink:href="#rim" fill="#404040">
                        <set attributeName="fill" to="#808080" begin="arrowUp.mouseover" end="arrowUp.mouseout"/>
                  </use>
                  <path fill="none" stroke="white" stroke-width="1.5" d="M0,-3.0v7 M-2.5,-0.5L0,-3.0L2.5,-0.5"/>
                </g>
                <g id="arrowRight" xlink:href="#dirArrow" transform="rotate(90) translate(36 -43)" onmousedown="handlePan(1,0)">
                  <use xlink:href="#rim" fill="#404040">
                        <set attributeName="fill" to="#808080" begin="arrowRight.mouseover" end="arrowRight.mouseout"/>
                  </use>
                  <path fill="none" stroke="white" stroke-width="1.5" d="M0,-3.0v7 M-2.5,-0.5L0,-3.0L2.5,-0.5"/>
                </g>
                <g id="arrowDown" xlink:href="#dirArrow" transform="rotate(180) translate(-30 -48)" onmousedown="handlePan(0,1)">
                  <use xlink:href="#rim" fill="#404040">
                        <set attributeName="fill" to="#808080" begin="arrowDown.mouseover" end="arrowDown.mouseout"/>
                  </use>
                  <path fill="none" stroke="white" stroke-width="1.5" d="M0,-3.0v7 M-2.5,-0.5L0,-3.0L2.5,-0.5"/>
                </g>
                <g id="arrowLeft" xlink:href="#dirArrow" transform="rotate(270) translate(-36 17)" onmousedown="handlePan(-1,0)">
                  <use xlink:href="#rim" fill="#404040">
                        <set attributeName="fill" to="#808080" begin="arrowLeft.mouseover" end="arrowLeft.mouseout"/>
                  </use>
                  <path fill="none" stroke="white" stroke-width="1.5" d="M0,-3.0v7 M-2.5,-0.5L0,-3.0L2.5,-0.5"/>
                </g>
        </g>
</svg>
