<?xml version="1.0" encoding="UTF-8" standalone="no"?>
<!DOCTYPE svg PUBLIC "-//W3C//DTD SVG 1.1//EN"
 "http://www.w3.org/Graphics/SVG/1.1/DTD/svg11.dtd">
<!-- Generated by graphviz version 2.26.3 (20100126.1600)
 -->
<!-- Title: G Pages: 1 -->
<!--zoomable 544 -->
<svg id="main" version="1.1" xmlns="http://www.w3.org/2000/svg" xmlns:xlink="http://www.w3.org/1999/xlink" xml:space="preserve" onload="init(evt)">
        <defs>
                <circle id="rim" cx="0" cy="0" r="7"/>
                <circle id="rim2" cx="0" cy="0" r="3.5"/>
                <g id="zoomPlus">
                        <use xlink:href="#rim" fill="#404040">
                                <set attributeName="fill" to="#808080" begin="zoomplus.mouseover" end="zoomplus.mouseout"/>
                        </use>
                        <path d="M-4,0h8M0,-4v8" fill="none" stroke="white" stroke-width="1.5" pointer-events="none"/>
                </g>
                <g id="zoomMin">
                        <use xlink:href="#rim" fill="#404040">
                                <set attributeName="fill" to="#808080" begin="zoomminus.mouseover" end="zoomminus.mouseout"/>
                        </use>
                        <path d="M-4,0h8" fill="none" stroke="white" stroke-width="1.5" pointer-events="none"/>
                </g>
                <g id="dirArrow">
                        <path fill="none" stroke="white" stroke-width="1.5" d="M0,-3.0v7 M-2.5,-0.5L0,-3.0L2.5,-0.5"/>
                </g>
               <g id="resetDef">
                       <use xlink:href="#rim2" fill="#404040">
                               <set attributeName="fill" to="#808080" begin="reset.mouseover" end="reset.mouseout"/>
                       </use>
               </g>
        </defs>

<script type="text/javascript">
var viewWidth = 1062;
var viewHeight = 544;
var sectionId = 'dynsection-4';
</script>
<script xlink:href="svgpan.js"/>
<svg id="graph" class="graph">
<g id="viewport">
<title>G</title>
<polygon fill="white" stroke="white" points="-4,5 -4,-539.758 1059,-539.758 1059,5 -4,5"/>
<!-- Node1 -->
<g id="node1" class="node"><title>Node1</title>
<polygon fill="#bfbfbf" stroke="black" points="0,-342.258 0,-363.258 80,-363.258 80,-342.258 0,-342.258"/>
<text text-anchor="middle" x="40" y="-350.258" font-family="Helvetica,sans-Serif" font-size="10.00">MyApp::OnInit</text>
</g>
<!-- Node2 -->
<g id="node3" class="node"><title>Node2</title>
<a xlink:href="_configurator_8cpp.html#a7f043c024c49dd695741e4dc6aacc575" target="_top" xlink:title="initLanguage">
<polygon fill="white" stroke="black" points="286.5,-452.258 286.5,-473.258 357.5,-473.258 357.5,-452.258 286.5,-452.258"/>
<text text-anchor="middle" x="322" y="-460.258" font-family="Helvetica,sans-Serif" font-size="10.00">initLanguage</text>
</a>
</g>
<!-- Node1&#45;&gt;Node2 -->
<g id="edge2" class="edge"><title>Node1&#45;&gt;Node2</title>
<path fill="none" stroke="midnightblue" d="M63.6008,-363.31C103.311,-380.883 186.193,-416.773 258,-442.758 263.962,-444.915 270.285,-447.06 276.544,-449.1"/>
<polygon fill="midnightblue" stroke="midnightblue" points="275.677,-452.497 286.268,-452.206 277.807,-445.829 275.677,-452.497"/>
</g>
<!-- Node8 -->
<g id="node16" class="node"><title>Node8</title>
<a xlink:href="class_my_dialog.html#a730ceb49055449013bde3aff7119870f" target="_top" xlink:title="MyDialog::MyDialog">
<polygon fill="white" stroke="black" points="116.5,-293.258 116.5,-314.258 221.5,-314.258 221.5,-293.258 116.5,-293.258"/>
<text text-anchor="middle" x="169" y="-301.258" font-family="Helvetica,sans-Serif" font-size="10.00">MyDialog::MyDialog</text>
</a>
</g>
<!-- Node1&#45;&gt;Node8 -->
<g id="edge16" class="edge"><title>Node1&#45;&gt;Node8</title>
<path fill="none" stroke="midnightblue" d="M67.6737,-342.246C86.2512,-335.189 110.958,-325.805 131.324,-318.069"/>
<polygon fill="midnightblue" stroke="midnightblue" points="132.821,-321.244 140.927,-314.421 130.336,-314.7 132.821,-321.244"/>
</g>
<!-- Node3 -->
<g id="node5" class="node"><title>Node3</title>
<a xlink:href="_configurator_8cpp.html#ae5140fc7ff43820e66715eb89ee010fe" target="_top" xlink:title="getAvLang">
<polygon fill="white" stroke="black" points="473.5,-474.258 473.5,-495.258 536.5,-495.258 536.5,-474.258 473.5,-474.258"/>
<text text-anchor="middle" x="505" y="-482.258" font-family="Helvetica,sans-Serif" font-size="10.00">getAvLang</text>
</a>
</g>
<!-- Node2&#45;&gt;Node3 -->
<g id="edge4" class="edge"><title>Node2&#45;&gt;Node3</title>
<path fill="none" stroke="midnightblue" d="M357.719,-467.052C387.904,-470.68 431.186,-475.884 463.021,-479.711"/>
<polygon fill="midnightblue" stroke="midnightblue" points="462.997,-483.233 473.343,-480.952 463.833,-476.283 462.997,-483.233"/>
</g>
<!-- Node4 -->
<g id="node7" class="node"><title>Node4</title>
<a xlink:href="_configurator_8cpp.html#ae6ced51ff22b15a7f7456649c851bbf4" target="_top" xlink:title="getLanguageInfoByName">
<polygon fill="white" stroke="black" points="673.5,-474.258 673.5,-495.258 800.5,-495.258 800.5,-474.258 673.5,-474.258"/>
<text text-anchor="middle" x="737" y="-482.258" font-family="Helvetica,sans-Serif" font-size="10.00">getLanguageInfoByName</text>
</a>
</g>
<!-- Node2&#45;&gt;Node4 -->
<g id="edge12" class="edge"><title>Node2&#45;&gt;Node4</title>
<path fill="none" stroke="midnightblue" d="M357.766,-461.601C408.889,-460.271 505.77,-458.953 588,-464.758 612.603,-466.494 639.346,-469.674 663.296,-472.995"/>
<polygon fill="midnightblue" stroke="midnightblue" points="662.983,-476.486 673.375,-474.423 663.965,-469.555 662.983,-476.486"/>
</g>
<!-- Node5 -->
<g id="node9" class="node"><title>Node5</title>
<a xlink:href="class_ogre_1_1_improved_config_file.html#a1bd08528976d0cb5d9cca130c9868039" target="_top" xlink:title="Ogre::ImprovedConfigFile::load">
<polygon fill="white" stroke="black" points="429,-395.258 429,-416.258 581,-416.258 581,-395.258 429,-395.258"/>
<text text-anchor="middle" x="505" y="-403.258" font-family="Helvetica,sans-Serif" font-size="10.00">Ogre::ImprovedConfigFile::load</text>
</a>
</g>
<!-- Node2&#45;&gt;Node5 -->
<g id="edge8" class="edge"><title>Node2&#45;&gt;Node5</title>
<path fill="none" stroke="midnightblue" d="M355.992,-452.17C385.78,-442.892 429.243,-429.354 461.55,-419.291"/>
<polygon fill="midnightblue" stroke="midnightblue" points="462.683,-422.604 471.19,-416.289 460.602,-415.921 462.683,-422.604"/>
</g>
<!-- Node6 -->
<g id="node11" class="node"><title>Node6</title>
<a xlink:href="wxutils_8h.html#acea10d469893caac689206a073cc165e" target="_top" xlink:title="conv">
<polygon fill="white" stroke="black" points="718,-156.258 718,-177.258 756,-177.258 756,-156.258 718,-156.258"/>
<text text-anchor="middle" x="737" y="-164.258" font-family="Helvetica,sans-Serif" font-size="10.00">conv</text>
</a>
</g>
<!-- Node2&#45;&gt;Node6 -->
<g id="edge10" class="edge"><title>Node2&#45;&gt;Node6</title>
<path fill="none" stroke="midnightblue" d="M357.824,-458.787C368.283,-455.904 378.819,-451.015 386,-442.758 450.441,-368.657 353.339,-294.966 422,-224.758 461.488,-184.379 636.641,-171.562 707.299,-167.991"/>
<polygon fill="midnightblue" stroke="midnightblue" points="707.883,-171.467 717.705,-167.494 707.55,-164.475 707.883,-171.467"/>
</g>
<!-- Node7 -->
<g id="node14" class="node"><title>Node7</title>
<a xlink:href="_settings_8cpp.html#a90c833708cf01165349a2dc66bed99f1" target="_top" xlink:title="FileExists">
<polygon fill="white" stroke="black" points="475,-514.258 475,-535.258 535,-535.258 535,-514.258 475,-514.258"/>
<text text-anchor="middle" x="505" y="-522.258" font-family="Helvetica,sans-Serif" font-size="10.00">FileExists</text>
</a>
</g>
<!-- Node2&#45;&gt;Node7 -->
<g id="edge14" class="edge"><title>Node2&#45;&gt;Node7</title>
<path fill="none" stroke="midnightblue" d="M344.244,-473.322C364.253,-482.528 394.626,-495.776 422,-504.758 435.692,-509.25 450.954,-513.215 464.62,-516.405"/>
<polygon fill="midnightblue" stroke="midnightblue" points="464.181,-519.894 474.707,-518.689 465.727,-513.067 464.181,-519.894"/>
</g>
<!-- Node3&#45;&gt;Node4 -->
<g id="edge6" class="edge"><title>Node3&#45;&gt;Node4</title>
<path fill="none" stroke="midnightblue" d="M536.772,-484.758C569.171,-484.758 620.589,-484.758 663.206,-484.758"/>
<polygon fill="midnightblue" stroke="midnightblue" points="663.272,-488.258 673.272,-484.758 663.272,-481.258 663.272,-488.258"/>
</g>
<!-- Node8&#45;&gt;Node6 -->
<g id="edge26" class="edge"><title>Node8&#45;&gt;Node6</title>
<path fill="none" stroke="midnightblue" d="M170.908,-292.814C177.039,-261.271 199.365,-169.812 258,-128.758 400.535,-28.9605 628.784,-117.011 708.454,-153.056"/>
<polygon fill="midnightblue" stroke="midnightblue" points="707.295,-156.376 717.842,-157.377 710.221,-150.017 707.295,-156.376"/>
</g>
<!-- Node9 -->
<g id="node18" class="node"><title>Node9</title>
<a xlink:href="classwx_value_choice.html#a11c538b33449b38e2b78d0356a178dab" target="_top" xlink:title="wxValueChoice::AppendValueItem">
<polygon fill="white" stroke="black" points="653,-20.2576 653,-41.2576 821,-41.2576 821,-20.2576 653,-20.2576"/>
<text text-anchor="middle" x="737" y="-28.2576" font-family="Helvetica,sans-Serif" font-size="10.00">wxValueChoice::AppendValueItem</text>
</a>
</g>
<!-- Node8&#45;&gt;Node9 -->
<g id="edge18" class="edge"><title>Node8&#45;&gt;Node9</title>
<path fill="none" stroke="midnightblue" d="M170.041,-293.098C174.093,-257.479 192.028,-141.42 258,-80.7576 375.995,27.7412 585.899,1.77473 683.877,-18.1079"/>
<polygon fill="midnightblue" stroke="midnightblue" points="683.346,-21.5723 693.85,-20.1897 684.776,-14.72 683.346,-21.5723"/>
</g>
<!-- Node10 -->
<g id="node20" class="node"><title>Node10</title>
<a xlink:href="class_my_dialog.html#a9a5c67128193b0be680fcafeb2aa5e80" target="_top" xlink:title="MyDialog::addAboutTitle">
<polygon fill="white" stroke="black" points="260,-412.258 260,-433.258 384,-433.258 384,-412.258 260,-412.258"/>
<text text-anchor="middle" x="322" y="-420.258" font-family="Helvetica,sans-Serif" font-size="10.00">MyDialog::addAboutTitle</text>
</a>
</g>
<!-- Node8&#45;&gt;Node10 -->
<g id="edge20" class="edge"><title>Node8&#45;&gt;Node10</title>
<path fill="none" stroke="midnightblue" d="M175.697,-314.415C188.94,-334.628 220.463,-378.66 258,-402.758 261.123,-404.762 264.46,-406.578 267.91,-408.22"/>
<polygon fill="midnightblue" stroke="midnightblue" points="266.662,-411.493 277.235,-412.174 269.395,-405.048 266.662,-411.493"/>
</g>
<!-- Node11 -->
<g id="node22" class="node"><title>Node11</title>
<a xlink:href="class_my_dialog.html#a729c3806e34abac1fa38302f554866c6" target="_top" xlink:title="MyDialog::addAboutEntry">
<polygon fill="white" stroke="black" points="258,-332.258 258,-353.258 386,-353.258 386,-332.258 258,-332.258"/>
<text text-anchor="middle" x="322" y="-340.258" font-family="Helvetica,sans-Serif" font-size="10.00">MyDialog::addAboutEntry</text>
</a>
</g>
<!-- Node8&#45;&gt;Node11 -->
<g id="edge22" class="edge"><title>Node8&#45;&gt;Node11</title>
<path fill="none" stroke="midnightblue" d="M210.404,-314.312C229.028,-319.059 251.196,-324.709 270.847,-329.719"/>
<polygon fill="midnightblue" stroke="midnightblue" points="270.008,-333.117 280.563,-332.195 271.737,-326.334 270.008,-333.117"/>
</g>
<!-- Node12 -->
<g id="node24" class="node"><title>Node12</title>
<a xlink:href="class_my_dialog.html#a06f8e4181518a6c11e84c55e6f59eed8" target="_top" xlink:title="MyDialog::OnScrollForceFeedback">
<polygon fill="white" stroke="black" points="652.5,-274.258 652.5,-295.258 821.5,-295.258 821.5,-274.258 652.5,-274.258"/>
<text text-anchor="middle" x="737" y="-282.258" font-family="Helvetica,sans-Serif" font-size="10.00">MyDialog::OnScrollForceFeedback</text>
</a>
</g>
<!-- Node8&#45;&gt;Node12 -->
<g id="edge24" class="edge"><title>Node8&#45;&gt;Node12</title>
<path fill="none" stroke="midnightblue" d="M221.672,-301.996C317.474,-298.791 521.459,-291.968 642.073,-287.933"/>
<polygon fill="midnightblue" stroke="midnightblue" points="642.524,-291.42 652.402,-287.587 642.29,-284.424 642.524,-291.42"/>
</g>
<!-- Node13 -->
<g id="node27" class="node"><title>Node13</title>
<a xlink:href="class_my_dialog.html#a30829bbf050a53f6d5c0e1d6abcd29e8" target="_top" xlink:title="MyDialog::SetDefaults">
<polygon fill="white" stroke="black" points="264,-254.258 264,-275.258 380,-275.258 380,-254.258 264,-254.258"/>
<text text-anchor="middle" x="322" y="-262.258" font-family="Helvetica,sans-Serif" font-size="10.00">MyDialog::SetDefaults</text>
</a>
</g>
<!-- Node8&#45;&gt;Node13 -->
<g id="edge28" class="edge"><title>Node8&#45;&gt;Node13</title>
<path fill="none" stroke="midnightblue" d="M210.404,-293.204C229.028,-288.456 251.196,-282.806 270.847,-277.797"/>
<polygon fill="midnightblue" stroke="midnightblue" points="271.737,-281.182 280.563,-275.32 270.008,-274.399 271.737,-281.182"/>
</g>
<!-- Node17 -->
<g id="node38" class="node"><title>Node17</title>
<a xlink:href="class_my_dialog.html#a3a49421662fe7600e722c3ca32b48a4d" target="_top" xlink:title="MyDialog::LoadConfig">
<polygon fill="white" stroke="black" points="265.5,-372.258 265.5,-393.258 378.5,-393.258 378.5,-372.258 265.5,-372.258"/>
<text text-anchor="middle" x="322" y="-380.258" font-family="Helvetica,sans-Serif" font-size="10.00">MyDialog::LoadConfig</text>
</a>
</g>
<!-- Node8&#45;&gt;Node17 -->
<g id="edge42" class="edge"><title>Node8&#45;&gt;Node17</title>
<path fill="none" stroke="midnightblue" d="M182.453,-314.447C199.281,-327.388 229.375,-349.136 258,-362.758 262.612,-364.952 267.523,-366.982 272.495,-368.839"/>
<polygon fill="midnightblue" stroke="midnightblue" points="271.474,-372.19 282.069,-372.195 273.79,-365.584 271.474,-372.19"/>
</g>
<!-- Node23 -->
<g id="node53" class="node"><title>Node23</title>
<a xlink:href="class_my_dialog.html#acd3952b4ebf8cc601045d3ba2f2946f1" target="_top" xlink:title="MyDialog::loadOgre">
<polygon fill="white" stroke="black" points="270.5,-138.258 270.5,-159.258 373.5,-159.258 373.5,-138.258 270.5,-138.258"/>
<text text-anchor="middle" x="322" y="-146.258" font-family="Helvetica,sans-Serif" font-size="10.00">MyDialog::loadOgre</text>
</a>
</g>
<!-- Node8&#45;&gt;Node23 -->
<g id="edge60" class="edge"><title>Node8&#45;&gt;Node23</title>
<path fill="none" stroke="midnightblue" d="M179.516,-293.104C205.283,-267 271.807,-199.606 304.009,-166.984"/>
<polygon fill="midnightblue" stroke="midnightblue" points="306.876,-169.062 311.41,-159.486 301.894,-164.144 306.876,-169.062"/>
</g>
<!-- Node13&#45;&gt;Node12 -->
<g id="edge30" class="edge"><title>Node13&#45;&gt;Node12</title>
<path fill="none" stroke="midnightblue" d="M380.141,-267.56C448.062,-270.833 561.402,-276.295 642.122,-280.185"/>
<polygon fill="midnightblue" stroke="midnightblue" points="642.137,-283.69 652.294,-280.675 642.474,-276.698 642.137,-283.69"/>
</g>
<!-- Node14 -->
<g id="node30" class="node"><title>Node14</title>
<a xlink:href="class_my_dialog.html#a9dda5ceed397209fea3b86bf17b183d1" target="_top" xlink:title="MyDialog::getSettingsControls">
<polygon fill="white" stroke="black" points="430,-234.258 430,-255.258 580,-255.258 580,-234.258 430,-234.258"/>
<text text-anchor="middle" x="505" y="-242.258" font-family="Helvetica,sans-Serif" font-size="10.00">MyDialog::getSettingsControls</text>
</a>
</g>
<!-- Node13&#45;&gt;Node14 -->
<g id="edge32" class="edge"><title>Node13&#45;&gt;Node14</title>
<path fill="none" stroke="midnightblue" d="M380.154,-258.402C392.747,-257.026 406.317,-255.543 419.708,-254.079"/>
<polygon fill="midnightblue" stroke="midnightblue" points="420.334,-257.532 429.895,-252.966 419.574,-250.573 420.334,-257.532"/>
</g>
<!-- Node14&#45;&gt;Node6 -->
<g id="edge34" class="edge"><title>Node14&#45;&gt;Node6</title>
<path fill="none" stroke="midnightblue" d="M553.477,-234.133C565.205,-230.502 577.405,-225.785 588,-219.758 606.866,-209.025 604.537,-196.366 624,-186.758 650.337,-173.756 683.814,-169.097 707.474,-167.483"/>
<polygon fill="midnightblue" stroke="midnightblue" points="707.796,-170.971 717.593,-166.937 707.419,-163.981 707.796,-170.971"/>
</g>
<!-- Node15 -->
<g id="node33" class="node"><title>Node15</title>
<a xlink:href="classwx_value_choice.html#a929749fefe92945893e8fc62107c770f" target="_top" xlink:title="wxValueChoice::getSelectedValueAsSTDString">
<polygon fill="white" stroke="black" points="624.5,-196.258 624.5,-217.258 849.5,-217.258 849.5,-196.258 624.5,-196.258"/>
<text text-anchor="middle" x="737" y="-204.258" font-family="Helvetica,sans-Serif" font-size="10.00">wxValueChoice::getSelectedValueAsSTDString</text>
</a>
</g>
<!-- Node14&#45;&gt;Node15 -->
<g id="edge36" class="edge"><title>Node14&#45;&gt;Node15</title>
<path fill="none" stroke="midnightblue" d="M569.317,-234.223C598.232,-229.487 632.533,-223.869 662.555,-218.951"/>
<polygon fill="midnightblue" stroke="midnightblue" points="663.255,-222.383 672.558,-217.313 662.124,-215.475 663.255,-222.383"/>
</g>
<!-- Node16 -->
<g id="node35" class="node"><title>Node16</title>
<a xlink:href="classwx_value_choice.html#a9193f92274299f15adefdb340ad58abe" target="_top" xlink:title="wxValueChoice::getSelectedValue">
<polygon fill="white" stroke="black" points="886.5,-215.258 886.5,-236.258 1053.5,-236.258 1053.5,-215.258 886.5,-215.258"/>
<text text-anchor="middle" x="970" y="-223.258" font-family="Helvetica,sans-Serif" font-size="10.00">wxValueChoice::getSelectedValue</text>
</a>
</g>
<!-- Node14&#45;&gt;Node16 -->
<g id="edge40" class="edge"><title>Node14&#45;&gt;Node16</title>
<path fill="none" stroke="midnightblue" d="M580.227,-241.684C660.831,-238.39 788.911,-233.157 876.076,-229.595"/>
<polygon fill="midnightblue" stroke="midnightblue" points="876.383,-233.086 886.232,-229.18 876.097,-226.092 876.383,-233.086"/>
</g>
<!-- Node15&#45;&gt;Node16 -->
<g id="edge38" class="edge"><title>Node15&#45;&gt;Node16</title>
<path fill="none" stroke="midnightblue" d="M849.746,-215.952C858.596,-216.673 867.475,-217.397 876.178,-218.107"/>
<polygon fill="midnightblue" stroke="midnightblue" points="876.051,-221.608 886.302,-218.932 876.62,-214.631 876.051,-221.608"/>
</g>
<!-- Node17&#45;&gt;Node5 -->
<g id="edge44" class="edge"><title>Node17&#45;&gt;Node5</title>
<path fill="none" stroke="midnightblue" d="M378.899,-389.909C391.524,-391.496 405.18,-393.212 418.685,-394.909"/>
<polygon fill="midnightblue" stroke="midnightblue" points="418.604,-398.427 428.963,-396.201 419.477,-391.481 418.604,-398.427"/>
</g>
<!-- Node18 -->
<g id="node41" class="node"><title>Node18</title>
<a xlink:href="class_my_dialog.html#a008219b2fc5f082cc4fbbb46f87ac74f" target="_top" xlink:title="MyDialog::updateSettingsControls">
<polygon fill="white" stroke="black" points="422,-354.258 422,-375.258 588,-375.258 588,-354.258 422,-354.258"/>
<text text-anchor="middle" x="505" y="-362.258" font-family="Helvetica,sans-Serif" font-size="10.00">MyDialog::updateSettingsControls</text>
</a>
</g>
<!-- Node17&#45;&gt;Node18 -->
<g id="edge46" class="edge"><title>Node17&#45;&gt;Node18</title>
<path fill="none" stroke="midnightblue" d="M378.899,-377.161C389.342,-376.134 400.49,-375.037 411.675,-373.937"/>
<polygon fill="midnightblue" stroke="midnightblue" points="412.328,-377.39 421.938,-372.928 411.643,-370.423 412.328,-377.39"/>
</g>
<!-- Node18&#45;&gt;Node6 -->
<g id="edge50" class="edge"><title>Node18&#45;&gt;Node6</title>
<path fill="none" stroke="midnightblue" d="M515.474,-354.096C532.306,-336.565 565.737,-300.064 588,-264.758 608.365,-232.461 593.762,-210.07 624,-186.758 647.778,-168.426 682.719,-164.746 707.441,-164.821"/>
<polygon fill="midnightblue" stroke="midnightblue" points="707.595,-168.325 717.675,-165.065 707.762,-161.327 707.595,-168.325"/>
</g>
<!-- Node18&#45;&gt;Node12 -->
<g id="edge52" class="edge"><title>Node18&#45;&gt;Node12</title>
<path fill="none" stroke="midnightblue" d="M544.752,-354.214C558.913,-349.605 574.648,-343.465 588,-335.758 606.287,-325.202 604.924,-313.809 624,-304.758 629.986,-301.917 636.324,-299.477 642.822,-297.382"/>
<polygon fill="midnightblue" stroke="midnightblue" points="643.829,-300.734 652.432,-294.551 641.851,-294.019 643.829,-300.734"/>
</g>
<!-- Node19 -->
<g id="node43" class="node"><title>Node19</title>
<a xlink:href="classwx_value_choice.html#a15cefdf22a40c016ae2474430cdde209" target="_top" xlink:title="wxValueChoice::setSelectedValue">
<polygon fill="white" stroke="black" points="653.5,-434.258 653.5,-455.258 820.5,-455.258 820.5,-434.258 653.5,-434.258"/>
<text text-anchor="middle" x="737" y="-442.258" font-family="Helvetica,sans-Serif" font-size="10.00">wxValueChoice::setSelectedValue</text>
</a>
</g>
<!-- Node18&#45;&gt;Node19 -->
<g id="edge48" class="edge"><title>Node18&#45;&gt;Node19</title>
<path fill="none" stroke="midnightblue" d="M564.723,-375.391C572.85,-378.104 580.846,-381.502 588,-385.758 608.274,-397.817 603.302,-413.443 624,-424.758 630.108,-428.096 636.653,-430.896 643.402,-433.242"/>
<polygon fill="midnightblue" stroke="midnightblue" points="642.822,-436.728 653.41,-436.365 644.907,-430.045 642.822,-436.728"/>
</g>
<!-- Node20 -->
<g id="node47" class="node"><title>Node20</title>
<a xlink:href="class_my_dialog.html#ad9f1ebe0db24ab553e8d54c13912b3b9" target="_top" xlink:title="MyDialog::OnScrollSightRange">
<polygon fill="white" stroke="black" points="661,-394.258 661,-415.258 813,-415.258 813,-394.258 661,-394.258"/>
<text text-anchor="middle" x="737" y="-402.258" font-family="Helvetica,sans-Serif" font-size="10.00">MyDialog::OnScrollSightRange</text>
</a>
</g>
<!-- Node18&#45;&gt;Node20 -->
<g id="edge54" class="edge"><title>Node18&#45;&gt;Node20</title>
<path fill="none" stroke="midnightblue" d="M565.955,-375.267C596.604,-380.551 633.927,-386.986 665.879,-392.495"/>
<polygon fill="midnightblue" stroke="midnightblue" points="665.6,-395.999 676.049,-394.249 666.79,-389.101 665.6,-395.999"/>
</g>
<!-- Node21 -->
<g id="node49" class="node"><title>Node21</title>
<a xlink:href="class_my_dialog.html#ada3c5edc423258c55ac677f3de37cedc" target="_top" xlink:title="MyDialog::OnScrollVolume">
<polygon fill="white" stroke="black" points="670,-354.258 670,-375.258 804,-375.258 804,-354.258 670,-354.258"/>
<text text-anchor="middle" x="737" y="-362.258" font-family="Helvetica,sans-Serif" font-size="10.00">MyDialog::OnScrollVolume</text>
</a>
</g>
<!-- Node18&#45;&gt;Node21 -->
<g id="edge56" class="edge"><title>Node18&#45;&gt;Node21</title>
<path fill="none" stroke="midnightblue" d="M588.102,-364.758C611.433,-364.758 636.7,-364.758 659.68,-364.758"/>
<polygon fill="midnightblue" stroke="midnightblue" points="659.718,-368.258 669.718,-364.758 659.718,-361.258 659.718,-368.258"/>
</g>
<!-- Node22 -->
<g id="node51" class="node"><title>Node22</title>
<a xlink:href="class_my_dialog.html#aa8a51e501e6db082f2b1d7dc43a96d5e" target="_top" xlink:title="MyDialog::OnScrollFPSLimiter">
<polygon fill="white" stroke="black" points="662,-314.258 662,-335.258 812,-335.258 812,-314.258 662,-314.258"/>
<text text-anchor="middle" x="737" y="-322.258" font-family="Helvetica,sans-Serif" font-size="10.00">MyDialog::OnScrollFPSLimiter</text>
</a>
</g>
<!-- Node18&#45;&gt;Node22 -->
<g id="edge58" class="edge"><title>Node18&#45;&gt;Node22</title>
<path fill="none" stroke="midnightblue" d="M565.955,-354.248C596.604,-348.964 633.927,-342.529 665.879,-337.02"/>
<polygon fill="midnightblue" stroke="midnightblue" points="666.79,-340.415 676.049,-335.266 665.6,-333.516 666.79,-340.415"/>
</g>
<!-- Node23&#45;&gt;Node6 -->
<g id="edge66" class="edge"><title>Node23&#45;&gt;Node6</title>
<path fill="none" stroke="midnightblue" d="M373.721,-151.001C461.789,-154.821 638.083,-162.467 707.727,-165.488"/>
<polygon fill="midnightblue" stroke="midnightblue" points="707.816,-168.995 717.959,-165.932 708.12,-162.002 707.816,-168.995"/>
</g>
<!-- Node24 -->
<g id="node55" class="node"><title>Node24</title>
<a xlink:href="class_my_dialog.html#aba6a7daf42cb713a175d666da8fb24ea" target="_top" xlink:title="MyDialog::loadOgrePlugins">
<polygon fill="white" stroke="black" points="437.5,-118.258 437.5,-139.258 572.5,-139.258 572.5,-118.258 437.5,-118.258"/>
<text text-anchor="middle" x="505" y="-126.258" font-family="Helvetica,sans-Serif" font-size="10.00">MyDialog::loadOgrePlugins</text>
</a>
</g>
<!-- Node23&#45;&gt;Node24 -->
<g id="edge62" class="edge"><title>Node23&#45;&gt;Node24</title>
<path fill="none" stroke="midnightblue" d="M373.951,-143.08C390.458,-141.276 409.091,-139.239 427.016,-137.28"/>
<polygon fill="midnightblue" stroke="midnightblue" points="427.614,-140.736 437.174,-136.17 426.853,-133.777 427.614,-140.736"/>
</g>
<!-- Node25 -->
<g id="node59" class="node"><title>Node25</title>
<a xlink:href="class_my_dialog.html#a2db16bbab43a0aaf98ac4cf0787814be" target="_top" xlink:title="MyDialog::updateRendersystems">
<polygon fill="white" stroke="black" points="424,-40.2576 424,-61.2576 586,-61.2576 586,-40.2576 424,-40.2576"/>
<text text-anchor="middle" x="505" y="-48.2576" font-family="Helvetica,sans-Serif" font-size="10.00">MyDialog::updateRendersystems</text>
</a>
</g>
<!-- Node23&#45;&gt;Node25 -->
<g id="edge68" class="edge"><title>Node23&#45;&gt;Node25</title>
<path fill="none" stroke="midnightblue" d="M341.933,-138.083C374.469,-120.659 439.105,-86.0455 476.488,-66.0262"/>
<polygon fill="midnightblue" stroke="midnightblue" points="478.206,-69.0768 485.369,-61.2704 474.901,-62.9059 478.206,-69.0768"/>
</g>
<!-- Node24&#45;&gt;Node6 -->
<g id="edge64" class="edge"><title>Node24&#45;&gt;Node6</title>
<path fill="none" stroke="midnightblue" d="M569.317,-139.292C614.768,-146.737 673.527,-156.361 708.056,-162.017"/>
<polygon fill="midnightblue" stroke="midnightblue" points="707.518,-165.475 717.952,-163.638 708.649,-158.567 707.518,-165.475"/>
</g>
<!-- Node25&#45;&gt;Node6 -->
<g id="edge72" class="edge"><title>Node25&#45;&gt;Node6</title>
<path fill="none" stroke="midnightblue" d="M547.558,-61.3093C560.776,-65.1841 575.223,-70.0453 588,-75.7576 635.192,-96.8559 685.633,-130.229 714.051,-150.16"/>
<polygon fill="midnightblue" stroke="midnightblue" points="712.288,-153.2 722.471,-156.125 716.335,-147.488 712.288,-153.2"/>
</g>
<!-- Node25&#45;&gt;Node9 -->
<g id="edge70" class="edge"><title>Node25&#45;&gt;Node9</title>
<path fill="none" stroke="midnightblue" d="M586.142,-43.7626C604.418,-42.1871 623.966,-40.5019 642.728,-38.8845"/>
<polygon fill="midnightblue" stroke="midnightblue" points="643.093,-42.3661 652.756,-38.0201 642.492,-35.392 643.093,-42.3661"/>
</g>
</g>
</svg>
        <g id="navigator" transform="translate(0 0)" fill="#404254">
                <rect fill="#f2f5e9" fill-opacity="0.5" stroke="#606060" stroke-width=".5" x="0" y="0" width="60" height="60"/>
                <use id="zoomplus" xlink:href="#zoomPlus" x="17" y="9" onmousedown="handleZoom(evt,'in')"/>
                <use id="zoomminus" xlink:href="#zoomMin" x="42" y="9" onmousedown="handleZoom(evt,'out')"/>
                <use id="reset" xlink:href="#resetDef" x="30" y="36" onmousedown="handleReset()"/>
                <g id="arrowUp" xlink:href="#dirArrow" transform="translate(30 24)" onmousedown="handlePan(0,-1)">
                  <use xlink:href="#rim" fill="#404040">
                        <set attributeName="fill" to="#808080" begin="arrowUp.mouseover" end="arrowUp.mouseout"/>
                  </use>
                  <path fill="none" stroke="white" stroke-width="1.5" d="M0,-3.0v7 M-2.5,-0.5L0,-3.0L2.5,-0.5"/>
                </g>
                <g id="arrowRight" xlink:href="#dirArrow" transform="rotate(90) translate(36 -43)" onmousedown="handlePan(1,0)">
                  <use xlink:href="#rim" fill="#404040">
                        <set attributeName="fill" to="#808080" begin="arrowRight.mouseover" end="arrowRight.mouseout"/>
                  </use>
                  <path fill="none" stroke="white" stroke-width="1.5" d="M0,-3.0v7 M-2.5,-0.5L0,-3.0L2.5,-0.5"/>
                </g>
                <g id="arrowDown" xlink:href="#dirArrow" transform="rotate(180) translate(-30 -48)" onmousedown="handlePan(0,1)">
                  <use xlink:href="#rim" fill="#404040">
                        <set attributeName="fill" to="#808080" begin="arrowDown.mouseover" end="arrowDown.mouseout"/>
                  </use>
                  <path fill="none" stroke="white" stroke-width="1.5" d="M0,-3.0v7 M-2.5,-0.5L0,-3.0L2.5,-0.5"/>
                </g>
                <g id="arrowLeft" xlink:href="#dirArrow" transform="rotate(270) translate(-36 17)" onmousedown="handlePan(-1,0)">
                  <use xlink:href="#rim" fill="#404040">
                        <set attributeName="fill" to="#808080" begin="arrowLeft.mouseover" end="arrowLeft.mouseout"/>
                  </use>
                  <path fill="none" stroke="white" stroke-width="1.5" d="M0,-3.0v7 M-2.5,-0.5L0,-3.0L2.5,-0.5"/>
                </g>
        </g>
</svg>
