<?xml version="1.0" encoding="UTF-8" standalone="no"?>
<!DOCTYPE svg PUBLIC "-//W3C//DTD SVG 1.1//EN"
 "http://www.w3.org/Graphics/SVG/1.1/DTD/svg11.dtd">
<!-- Generated by graphviz version 2.26.3 (20100126.1600)
 -->
<!-- Title: RoR::RigEditor::Beam::GetDefinitionPlainBeam Pages: 1 -->
<!--zoomable 174 -->
<svg id="main" version="1.1" xmlns="http://www.w3.org/2000/svg" xmlns:xlink="http://www.w3.org/1999/xlink" xml:space="preserve" onload="init(evt)">
<style type="text/css"><![CDATA[
.edge:hover path { stroke: red; }
.edge:hover polygon { stroke: red; fill: red; }
]]></style>
<script type="text/javascript"><![CDATA[
var edges = document.getElementsByTagName('g');
if (edges && edges.length) {
  for (var i=0;i<edges.length;i++) {
    if (edges[i].id.substr(0,4)=='edge') {
      edges[i].setAttribute('class','edge');
    }
  }
}
]]></script>
        <defs>
                <circle id="rim" cx="0" cy="0" r="7"/>
                <circle id="rim2" cx="0" cy="0" r="3.5"/>
                <g id="zoomPlus">
                        <use xlink:href="#rim" fill="#404040">
                                <set attributeName="fill" to="#808080" begin="zoomplus.mouseover" end="zoomplus.mouseout"/>
                        </use>
                        <path d="M-4,0h8M0,-4v8" fill="none" stroke="white" stroke-width="1.5" pointer-events="none"/>
                </g>
                <g id="zoomMin">
                        <use xlink:href="#rim" fill="#404040">
                                <set attributeName="fill" to="#808080" begin="zoomminus.mouseover" end="zoomminus.mouseout"/>
                        </use>
                        <path d="M-4,0h8" fill="none" stroke="white" stroke-width="1.5" pointer-events="none"/>
                </g>
                <g id="dirArrow">
                        <path fill="none" stroke="white" stroke-width="1.5" d="M0,-3.0v7 M-2.5,-0.5L0,-3.0L2.5,-0.5"/>
                </g>
               <g id="resetDef">
                       <use xlink:href="#rim2" fill="#404040">
                               <set attributeName="fill" to="#808080" begin="reset.mouseover" end="reset.mouseout"/>
                       </use>
               </g>
        </defs>

<script type="text/javascript">
var viewWidth = 1176;
var viewHeight = 174;
var sectionId = 'dynsection-7';
</script>
<script xlink:href="svgpan.js"/>
<svg id="graph" class="graph">
<g id="viewport">
<title>RoR::RigEditor::Beam::GetDefinitionPlainBeam</title>
<polygon fill="white" stroke="white" points="-4,5 -4,-170 1173,-170 1173,5 -4,5"/>
<!-- Node1 -->
<g id="node1" class="node"><title>Node1</title>
<polygon fill="#bfbfbf" stroke="black" points="0.5,-73 0.5,-107 127.5,-107 127.5,-73 0.5,-73"/>
<text text-anchor="start" x="8.5" y="-94" font-family="Helvetica,sans-Serif" font-size="10.00">RoR::RigEditor::Beam</text>
<text text-anchor="middle" x="64" y="-81" font-family="Helvetica,sans-Serif" font-size="10.00">::GetDefinitionPlainBeam</text>
</g>
<!-- Node2 -->
<g id="node3" class="node"><title>Node2</title>
<a xlink:href="class_ro_r_1_1_rig_editor_1_1_rig.html#a764684782f54dfeffee4a7c6d112b15b" target="_top" xlink:title="RoR::RigEditor::Rig\l::QuerySelectedBeamsData">
<polygon fill="white" stroke="black" points="169.5,-132 169.5,-166 308.5,-166 308.5,-132 169.5,-132"/>
<text text-anchor="start" x="177.5" y="-153" font-family="Helvetica,sans-Serif" font-size="10.00">RoR::RigEditor::Rig</text>
<text text-anchor="middle" x="239" y="-140" font-family="Helvetica,sans-Serif" font-size="10.00">::QuerySelectedBeamsData</text>
</a>
</g>
<!-- Node1&#45;&gt;Node2 -->
<g id="edge2" class="edge"><title>Node1&#45;&gt;Node2</title>
<path fill="none" stroke="midnightblue" d="M124.356,-110.349C145.263,-117.397 168.465,-125.22 188.497,-131.973"/>
<polygon fill="midnightblue" stroke="midnightblue" points="125.211,-106.943 114.617,-107.065 122.975,-113.577 125.211,-106.943"/>
</g>
<!-- Node10 -->
<g id="node19" class="node"><title>Node10</title>
<a xlink:href="class_ro_r_1_1_rig_editor_1_1_rig.html#ab26eeed75a6c2d466b38dda6a6a33bf6" target="_top" xlink:title="RoR::RigEditor::Rig\l::SelectedPlainBeamsUpdate\lAttributes">
<polygon fill="white" stroke="black" points="166.5,-0.5 166.5,-47.5 311.5,-47.5 311.5,-0.5 166.5,-0.5"/>
<text text-anchor="start" x="174.5" y="-34.5" font-family="Helvetica,sans-Serif" font-size="10.00">RoR::RigEditor::Rig</text>
<text text-anchor="start" x="174.5" y="-21.5" font-family="Helvetica,sans-Serif" font-size="10.00">::SelectedPlainBeamsUpdate</text>
<text text-anchor="middle" x="239" y="-8.5" font-family="Helvetica,sans-Serif" font-size="10.00">Attributes</text>
</a>
</g>
<!-- Node1&#45;&gt;Node10 -->
<g id="edge18" class="edge"><title>Node1&#45;&gt;Node10</title>
<path fill="none" stroke="midnightblue" d="M119.129,-69.2086C137.381,-62.325 157.82,-54.6165 176.579,-47.5415"/>
<polygon fill="midnightblue" stroke="midnightblue" points="117.644,-66.0279 109.522,-72.8316 120.114,-72.5775 117.644,-66.0279"/>
</g>
<!-- Node12 -->
<g id="node24" class="node"><title>Node12</title>
<a xlink:href="class_ro_r_1_1_rig_editor_1_1_rig.html#a3ecc59a5f44f8b27ecc5f2bc66f21a38" target="_top" xlink:title="RoR::RigEditor::Rig\l::SelectedMixedBeamsUpdate\lAttributes">
<polygon fill="white" stroke="black" points="164.5,-66.5 164.5,-113.5 313.5,-113.5 313.5,-66.5 164.5,-66.5"/>
<text text-anchor="start" x="172.5" y="-100.5" font-family="Helvetica,sans-Serif" font-size="10.00">RoR::RigEditor::Rig</text>
<text text-anchor="start" x="172.5" y="-87.5" font-family="Helvetica,sans-Serif" font-size="10.00">::SelectedMixedBeamsUpdate</text>
<text text-anchor="middle" x="239" y="-74.5" font-family="Helvetica,sans-Serif" font-size="10.00">Attributes</text>
</a>
</g>
<!-- Node1&#45;&gt;Node12 -->
<g id="edge24" class="edge"><title>Node1&#45;&gt;Node12</title>
<path fill="none" stroke="midnightblue" d="M137.864,-90C146.636,-90 155.595,-90 164.378,-90"/>
<polygon fill="midnightblue" stroke="midnightblue" points="137.674,-86.5001 127.674,-90 137.674,-93.5001 137.674,-86.5001"/>
</g>
<!-- Node3 -->
<g id="node5" class="node"><title>Node3</title>
<a xlink:href="class_ro_r_1_1_rig_editor_1_1_main.html#abe2179248ae5a8d9fc4a8ed136a18c46" target="_top" xlink:title="RoR::RigEditor::Main\l::UpdateMainLoop">
<polygon fill="white" stroke="black" points="382,-73 382,-107 492,-107 492,-73 382,-73"/>
<text text-anchor="start" x="390" y="-94" font-family="Helvetica,sans-Serif" font-size="10.00">RoR::RigEditor::Main</text>
<text text-anchor="middle" x="437" y="-81" font-family="Helvetica,sans-Serif" font-size="10.00">::UpdateMainLoop</text>
</a>
</g>
<!-- Node2&#45;&gt;Node3 -->
<g id="edge4" class="edge"><title>Node2&#45;&gt;Node3</title>
<path fill="none" stroke="midnightblue" d="M305.937,-129.054C330.652,-121.69 358.356,-113.434 381.904,-106.418"/>
<polygon fill="midnightblue" stroke="midnightblue" points="304.854,-125.725 296.27,-131.935 306.853,-132.433 304.854,-125.725"/>
</g>
<!-- Node4 -->
<g id="node7" class="node"><title>Node4</title>
<a xlink:href="class_ro_r_1_1_rig_editor_1_1_main.html#a8cd11f0150b5e247b6d9f00212d42b0d" target="_top" xlink:title="RoR::RigEditor::Main\l::EnterMainLoop">
<polygon fill="white" stroke="black" points="560,-73 560,-107 670,-107 670,-73 560,-73"/>
<text text-anchor="start" x="568" y="-94" font-family="Helvetica,sans-Serif" font-size="10.00">RoR::RigEditor::Main</text>
<text text-anchor="middle" x="615" y="-81" font-family="Helvetica,sans-Serif" font-size="10.00">::EnterMainLoop</text>
</a>
</g>
<!-- Node3&#45;&gt;Node4 -->
<g id="edge6" class="edge"><title>Node3&#45;&gt;Node4</title>
<path fill="none" stroke="midnightblue" d="M502.379,-90C521.306,-90 541.77,-90 559.996,-90"/>
<polygon fill="midnightblue" stroke="midnightblue" points="502.345,-86.5001 492.345,-90 502.345,-93.5001 502.345,-86.5001"/>
</g>
<!-- Node5 -->
<g id="node9" class="node"><title>Node5</title>
<a xlink:href="class_ro_r_1_1_main_thread.html#a7e4d0bd23a40e509892883af75ea0dbf" target="_top" xlink:title="RoR::MainThread::Go">
<polygon fill="white" stroke="black" points="706.5,-79.5 706.5,-100.5 819.5,-100.5 819.5,-79.5 706.5,-79.5"/>
<text text-anchor="middle" x="763" y="-87.5" font-family="Helvetica,sans-Serif" font-size="10.00">RoR::MainThread::Go</text>
</a>
</g>
<!-- Node4&#45;&gt;Node5 -->
<g id="edge8" class="edge"><title>Node4&#45;&gt;Node5</title>
<path fill="none" stroke="midnightblue" d="M680.23,-90C688.94,-90 697.814,-90 706.361,-90"/>
<polygon fill="midnightblue" stroke="midnightblue" points="680.11,-86.5001 670.11,-90 680.11,-93.5001 680.11,-86.5001"/>
</g>
<!-- Node6 -->
<g id="node11" class="node"><title>Node6</title>
<a xlink:href="main_2main__sim_2main_8cpp.html#a0ddf1224851353fc92bfbff6f499fa97" target="_top" xlink:title="main">
<polygon fill="white" stroke="black" points="906,-102.5 906,-123.5 944,-123.5 944,-102.5 906,-102.5"/>
<text text-anchor="middle" x="925" y="-110.5" font-family="Helvetica,sans-Serif" font-size="10.00">main</text>
</a>
</g>
<!-- Node5&#45;&gt;Node6 -->
<g id="edge10" class="edge"><title>Node5&#45;&gt;Node6</title>
<path fill="none" stroke="midnightblue" d="M829.692,-99.4687C857.272,-103.384 887.136,-107.624 905.945,-110.295"/>
<polygon fill="midnightblue" stroke="midnightblue" points="830.052,-95.9848 819.66,-98.0443 829.068,-102.915 830.052,-95.9848"/>
</g>
<!-- Node8 -->
<g id="node15" class="node"><title>Node8</title>
<a xlink:href="class_ro_r_1_1_main_thread.html#a7a2db954fd2f35d63982d8603d2b9614" target="_top" xlink:title="RoR::MainThread::Request\lRestart">
<polygon fill="white" stroke="black" points="856.5,-50 856.5,-84 993.5,-84 993.5,-50 856.5,-50"/>
<text text-anchor="start" x="864.5" y="-71" font-family="Helvetica,sans-Serif" font-size="10.00">RoR::MainThread::Request</text>
<text text-anchor="middle" x="925" y="-58" font-family="Helvetica,sans-Serif" font-size="10.00">Restart</text>
</a>
</g>
<!-- Node5&#45;&gt;Node8 -->
<g id="edge14" class="edge"><title>Node5&#45;&gt;Node8</title>
<path fill="none" stroke="midnightblue" d="M829.824,-80.5126C838.595,-79.2674 847.594,-77.9898 856.393,-76.7405"/>
<polygon fill="midnightblue" stroke="midnightblue" points="829.068,-77.0847 819.66,-81.9557 830.052,-84.0152 829.068,-77.0847"/>
</g>
<!-- Node7 -->
<g id="node13" class="node"><title>Node7</title>
<a xlink:href="main_2main__sim_2main_8cpp.html#a2922bc5d5c2d77a3020cfbf9df12aab0" target="_top" xlink:title="WinMain">
<polygon fill="white" stroke="black" points="1071.5,-102.5 1071.5,-123.5 1126.5,-123.5 1126.5,-102.5 1071.5,-102.5"/>
<text text-anchor="middle" x="1099" y="-110.5" font-family="Helvetica,sans-Serif" font-size="10.00">WinMain</text>
</a>
</g>
<!-- Node6&#45;&gt;Node7 -->
<g id="edge12" class="edge"><title>Node6&#45;&gt;Node7</title>
<path fill="none" stroke="midnightblue" d="M954.559,-113C987.23,-113 1039.44,-113 1071.33,-113"/>
<polygon fill="midnightblue" stroke="midnightblue" points="954.286,-109.5 944.286,-113 954.286,-116.5 954.286,-109.5"/>
</g>
<!-- Node9 -->
<g id="node17" class="node"><title>Node9</title>
<a xlink:href="class_ro_r_frame_listener.html#af2779b96aa0f91920bd100bc30261402" target="_top" xlink:title="RoRFrameListener::Restart">
<polygon fill="white" stroke="black" points="1030.5,-56.5 1030.5,-77.5 1167.5,-77.5 1167.5,-56.5 1030.5,-56.5"/>
<text text-anchor="middle" x="1099" y="-64.5" font-family="Helvetica,sans-Serif" font-size="10.00">RoRFrameListener::Restart</text>
</a>
</g>
<!-- Node8&#45;&gt;Node9 -->
<g id="edge16" class="edge"><title>Node8&#45;&gt;Node9</title>
<path fill="none" stroke="midnightblue" d="M1004.04,-67C1012.86,-67 1021.78,-67 1030.45,-67"/>
<polygon fill="midnightblue" stroke="midnightblue" points="1003.77,-63.5001 993.769,-67 1003.77,-70.5001 1003.77,-63.5001"/>
</g>
<!-- Node10&#45;&gt;Node3 -->
<g id="edge20" class="edge"><title>Node10&#45;&gt;Node3</title>
<path fill="none" stroke="midnightblue" d="M319.209,-50.7364C341.754,-58.2515 365.649,-66.2164 385.982,-72.9941"/>
<polygon fill="midnightblue" stroke="midnightblue" points="320.238,-47.3899 309.644,-47.548 318.024,-54.0307 320.238,-47.3899"/>
</g>
<!-- Node11 -->
<g id="node22" class="node"><title>Node11</title>
<a xlink:href="class_ro_r_1_1_rig_editor_1_1_main.html#a8256e56d78527a665598fc29a40b6469" target="_top" xlink:title="RoR::RigEditor::Main\l::CommandRigSelectedPlainBeams\lUpdateAttributes">
<polygon fill="white" stroke="black" points="350.5,-0.5 350.5,-47.5 523.5,-47.5 523.5,-0.5 350.5,-0.5"/>
<text text-anchor="start" x="358.5" y="-34.5" font-family="Helvetica,sans-Serif" font-size="10.00">RoR::RigEditor::Main</text>
<text text-anchor="start" x="358.5" y="-21.5" font-family="Helvetica,sans-Serif" font-size="10.00">::CommandRigSelectedPlainBeams</text>
<text text-anchor="middle" x="437" y="-8.5" font-family="Helvetica,sans-Serif" font-size="10.00">UpdateAttributes</text>
</a>
</g>
<!-- Node10&#45;&gt;Node11 -->
<g id="edge22" class="edge"><title>Node10&#45;&gt;Node11</title>
<path fill="none" stroke="midnightblue" d="M321.743,-24C331.176,-24 340.811,-24 350.294,-24"/>
<polygon fill="midnightblue" stroke="midnightblue" points="321.604,-20.5001 311.604,-24 321.604,-27.5001 321.604,-20.5001"/>
</g>
<!-- Node12&#45;&gt;Node3 -->
<g id="edge26" class="edge"><title>Node12&#45;&gt;Node3</title>
<path fill="none" stroke="midnightblue" d="M323.782,-90C343.47,-90 363.924,-90 381.942,-90"/>
<polygon fill="midnightblue" stroke="midnightblue" points="323.573,-86.5001 313.573,-90 323.573,-93.5001 323.573,-86.5001"/>
</g>
</g>
</svg>
        <g id="navigator" transform="translate(0 0)" fill="#404254">
                <rect fill="#f2f5e9" fill-opacity="0.5" stroke="#606060" stroke-width=".5" x="0" y="0" width="60" height="60"/>
                <use id="zoomplus" xlink:href="#zoomPlus" x="17" y="9" onmousedown="handleZoom(evt,'in')"/>
                <use id="zoomminus" xlink:href="#zoomMin" x="42" y="9" onmousedown="handleZoom(evt,'out')"/>
                <use id="reset" xlink:href="#resetDef" x="30" y="36" onmousedown="handleReset()"/>
                <g id="arrowUp" xlink:href="#dirArrow" transform="translate(30 24)" onmousedown="handlePan(0,-1)">
                  <use xlink:href="#rim" fill="#404040">
                        <set attributeName="fill" to="#808080" begin="arrowUp.mouseover" end="arrowUp.mouseout"/>
                  </use>
                  <path fill="none" stroke="white" stroke-width="1.5" d="M0,-3.0v7 M-2.5,-0.5L0,-3.0L2.5,-0.5"/>
                </g>
                <g id="arrowRight" xlink:href="#dirArrow" transform="rotate(90) translate(36 -43)" onmousedown="handlePan(1,0)">
                  <use xlink:href="#rim" fill="#404040">
                        <set attributeName="fill" to="#808080" begin="arrowRight.mouseover" end="arrowRight.mouseout"/>
                  </use>
                  <path fill="none" stroke="white" stroke-width="1.5" d="M0,-3.0v7 M-2.5,-0.5L0,-3.0L2.5,-0.5"/>
                </g>
                <g id="arrowDown" xlink:href="#dirArrow" transform="rotate(180) translate(-30 -48)" onmousedown="handlePan(0,1)">
                  <use xlink:href="#rim" fill="#404040">
                        <set attributeName="fill" to="#808080" begin="arrowDown.mouseover" end="arrowDown.mouseout"/>
                  </use>
                  <path fill="none" stroke="white" stroke-width="1.5" d="M0,-3.0v7 M-2.5,-0.5L0,-3.0L2.5,-0.5"/>
                </g>
                <g id="arrowLeft" xlink:href="#dirArrow" transform="rotate(270) translate(-36 17)" onmousedown="handlePan(-1,0)">
                  <use xlink:href="#rim" fill="#404040">
                        <set attributeName="fill" to="#808080" begin="arrowLeft.mouseover" end="arrowLeft.mouseout"/>
                  </use>
                  <path fill="none" stroke="white" stroke-width="1.5" d="M0,-3.0v7 M-2.5,-0.5L0,-3.0L2.5,-0.5"/>
                </g>
        </g>
        <svg viewBox="0 0 15 15" width="100%" height="30px" preserveAspectRatio="xMaxYMin meet">
         <g id="arrow_out" transform="scale(0.3 0.3)">
          <a xlink:href="class_ro_r_1_1_rig_editor_1_1_beam_ac15172c3a25da402883a2771edb39eeb_icgraph_org.svg" target="_base">
           <rect id="button" ry="5" rx="5" y="6" x="6" height="38" width="38"
                fill="#f2f5e9" fill-opacity="0.5" stroke="#606060" stroke-width="1.0"/>
           <path id="arrow"
             d="M 11.500037,31.436501 C 11.940474,20.09759 22.043105,11.32322 32.158766,21.979434 L 37.068811,17.246167 C 37.068811,17.246167 37.088388,32 37.088388,32 L 22.160133,31.978069 C 22.160133,31.978069 26.997745,27.140456 26.997745,27.140456 C 18.528582,18.264221 13.291696,25.230495 11.500037,31.436501 z"
             style="fill:#404040;"/>
          </a>
         </g>
        </svg>
</svg>
