<?xml version="1.0" encoding="UTF-8" standalone="no"?>
<!DOCTYPE svg PUBLIC "-//W3C//DTD SVG 1.1//EN"
 "http://www.w3.org/Graphics/SVG/1.1/DTD/svg11.dtd">
<!-- Generated by graphviz version 2.26.3 (20100126.1600)
 -->
<!-- Title: G Pages: 1 -->
<svg width="390pt" height="30pt"
 viewBox="0.00 0.00 390.00 30.00" xmlns="http://www.w3.org/2000/svg" xmlns:xlink="http://www.w3.org/1999/xlink">
<g id="graph1" class="graph" transform="scale(1 1) rotate(0) translate(4 26)">
<title>G</title>
<polygon fill="white" stroke="white" points="-4,5 -4,-26 387,-26 387,5 -4,5"/>
<!-- Node1 -->
<g id="node1" class="node"><title>Node1</title>
<polygon fill="#bfbfbf" stroke="black" points="0,-0.5 0,-21.5 124,-21.5 124,-0.5 0,-0.5"/>
<text text-anchor="middle" x="62" y="-8.5" font-family="Helvetica,sans-Serif" font-size="10.00">MyDialog::addAboutTitle</text>
</g>
<!-- Node2 -->
<g id="node3" class="node"><title>Node2</title>
<a xlink:href="class_my_dialog.html#a730ceb49055449013bde3aff7119870f" target="_top" xlink:title="MyDialog::MyDialog">
<polygon fill="white" stroke="black" points="160.5,-0.5 160.5,-21.5 265.5,-21.5 265.5,-0.5 160.5,-0.5"/>
<text text-anchor="middle" x="213" y="-8.5" font-family="Helvetica,sans-Serif" font-size="10.00">MyDialog::MyDialog</text>
</a>
</g>
<!-- Node1&#45;&gt;Node2 -->
<g id="edge2" class="edge"><title>Node1&#45;&gt;Node2</title>
<path fill="none" stroke="midnightblue" d="M134.515,-11C143.271,-11 152.081,-11 160.472,-11"/>
<polygon fill="midnightblue" stroke="midnightblue" points="134.289,-7.5001 124.289,-11 134.289,-14.5001 134.289,-7.5001"/>
</g>
<!-- Node3 -->
<g id="node5" class="node"><title>Node3</title>
<a xlink:href="class_my_app.html#a79fa75d1155f0e85e20f2869538296d6" target="_top" xlink:title="MyApp::OnInit">
<polygon fill="white" stroke="black" points="302,-0.5 302,-21.5 382,-21.5 382,-0.5 302,-0.5"/>
<text text-anchor="middle" x="342" y="-8.5" font-family="Helvetica,sans-Serif" font-size="10.00">MyApp::OnInit</text>
</a>
</g>
<!-- Node2&#45;&gt;Node3 -->
<g id="edge4" class="edge"><title>Node2&#45;&gt;Node3</title>
<path fill="none" stroke="midnightblue" d="M276.032,-11C284.76,-11 293.524,-11 301.684,-11"/>
<polygon fill="midnightblue" stroke="midnightblue" points="275.841,-7.5001 265.841,-11 275.841,-14.5001 275.841,-7.5001"/>
</g>
</g>
</svg>
