<?xml version="1.0" encoding="UTF-8" standalone="no"?>
<!DOCTYPE svg PUBLIC "-//W3C//DTD SVG 1.1//EN"
 "http://www.w3.org/Graphics/SVG/1.1/DTD/svg11.dtd">
<!-- Generated by graphviz version 2.26.3 (20100126.1600)
 -->
<!-- Title: BeamFactory::getPhysFrame Pages: 1 -->
<svg width="838pt" height="70pt"
 viewBox="0.00 0.00 838.00 70.00" xmlns="http://www.w3.org/2000/svg" xmlns:xlink="http://www.w3.org/1999/xlink">
<g id="graph1" class="graph" transform="scale(1 1) rotate(0) translate(4 66)">
<title>BeamFactory::getPhysFrame</title>
<polygon fill="white" stroke="white" points="-4,5 -4,-66 835,-66 835,5 -4,5"/>
<!-- Node1 -->
<g id="node1" class="node"><title>Node1</title>
<polygon fill="#bfbfbf" stroke="black" points="0.5,-20.5 0.5,-41.5 145.5,-41.5 145.5,-20.5 0.5,-20.5"/>
<text text-anchor="middle" x="73" y="-28.5" font-family="Helvetica,sans-Serif" font-size="10.00">BeamFactory::getPhysFrame</text>
</g>
<!-- Node2 -->
<g id="node3" class="node"><title>Node2</title>
<a xlink:href="class_two_d_replay.html#a4b479652a9394ba9e8b7e08e33dbbb7a" target="_top" xlink:title="TwoDReplay::recordFrame">
<polygon fill="white" stroke="black" points="182,-20.5 182,-41.5 316,-41.5 316,-20.5 182,-20.5"/>
<text text-anchor="middle" x="249" y="-28.5" font-family="Helvetica,sans-Serif" font-size="10.00">TwoDReplay::recordFrame</text>
</a>
</g>
<!-- Node1&#45;&gt;Node2 -->
<g id="edge2" class="edge"><title>Node1&#45;&gt;Node2</title>
<path fill="none" stroke="midnightblue" d="M155.822,-31C164.572,-31 173.391,-31 181.93,-31"/>
<polygon fill="midnightblue" stroke="midnightblue" points="155.602,-27.5001 145.602,-31 155.602,-34.5001 155.602,-27.5001"/>
</g>
<!-- Node3 -->
<g id="node5" class="node"><title>Node3</title>
<a xlink:href="class_two_d_replay.html#abceb8a16da69e16f581128ae0e111a12" target="_top" xlink:title="TwoDReplay::update">
<polygon fill="white" stroke="black" points="352.5,-20.5 352.5,-41.5 461.5,-41.5 461.5,-20.5 352.5,-20.5"/>
<text text-anchor="middle" x="407" y="-28.5" font-family="Helvetica,sans-Serif" font-size="10.00">TwoDReplay::update</text>
</a>
</g>
<!-- Node2&#45;&gt;Node3 -->
<g id="edge4" class="edge"><title>Node2&#45;&gt;Node3</title>
<path fill="none" stroke="midnightblue" d="M326.29,-31C335.084,-31 343.907,-31 352.321,-31"/>
<polygon fill="midnightblue" stroke="midnightblue" points="326.006,-27.5001 316.006,-31 326.006,-34.5001 326.006,-27.5001"/>
</g>
<!-- Node4 -->
<g id="node7" class="node"><title>Node4</title>
<a xlink:href="class_beam_factory.html#a6fa954b906b6dc808a34e69ac2d018d3" target="_top" xlink:title="BeamFactory::calcPhysics">
<polygon fill="white" stroke="black" points="498,-20.5 498,-41.5 632,-41.5 632,-20.5 498,-20.5"/>
<text text-anchor="middle" x="565" y="-28.5" font-family="Helvetica,sans-Serif" font-size="10.00">BeamFactory::calcPhysics</text>
</a>
</g>
<!-- Node3&#45;&gt;Node4 -->
<g id="edge6" class="edge"><title>Node3&#45;&gt;Node4</title>
<path fill="none" stroke="midnightblue" d="M472.03,-31C480.516,-31 489.224,-31 497.745,-31"/>
<polygon fill="midnightblue" stroke="midnightblue" points="471.817,-27.5001 461.817,-31 471.817,-34.5001 471.817,-27.5001"/>
</g>
<!-- Node5 -->
<g id="node9" class="node"><title>Node5</title>
<a xlink:href="class_ro_r_frame_listener.html#acd8647e188fb8e838689492965b86faf" target="_top" xlink:title="RoRFrameListener::frameStarted">
<polygon fill="white" stroke="black" points="668.5,-40.5 668.5,-61.5 829.5,-61.5 829.5,-40.5 668.5,-40.5"/>
<text text-anchor="middle" x="749" y="-48.5" font-family="Helvetica,sans-Serif" font-size="10.00">RoRFrameListener::frameStarted</text>
</a>
</g>
<!-- Node4&#45;&gt;Node5 -->
<g id="edge8" class="edge"><title>Node4&#45;&gt;Node5</title>
<path fill="none" stroke="midnightblue" d="M642.203,-39.3916C650.8,-40.3261 659.575,-41.2799 668.216,-42.2192"/>
<polygon fill="midnightblue" stroke="midnightblue" points="642.529,-35.9065 632.209,-38.3054 641.772,-42.8655 642.529,-35.9065"/>
</g>
<!-- Node6 -->
<g id="node11" class="node"><title>Node6</title>
<a xlink:href="class_preview_renderer.html#a5ea6b4611b45965e072266211dc60ba8" target="_top" xlink:title="PreviewRenderer::render">
<polygon fill="white" stroke="black" points="686.5,-0.5 686.5,-21.5 811.5,-21.5 811.5,-0.5 686.5,-0.5"/>
<text text-anchor="middle" x="749" y="-8.5" font-family="Helvetica,sans-Serif" font-size="10.00">PreviewRenderer::render</text>
</a>
</g>
<!-- Node4&#45;&gt;Node6 -->
<g id="edge10" class="edge"><title>Node4&#45;&gt;Node6</title>
<path fill="none" stroke="midnightblue" d="M642.262,-22.602C656.927,-21.0079 672.106,-19.358 686.255,-17.8202"/>
<polygon fill="midnightblue" stroke="midnightblue" points="641.772,-19.1345 632.209,-23.6946 642.529,-26.0935 641.772,-19.1345"/>
</g>
</g>
</svg>
