<?xml version="1.0" encoding="UTF-8" standalone="no"?>
<!DOCTYPE svg PUBLIC "-//W3C//DTD SVG 1.1//EN"
 "http://www.w3.org/Graphics/SVG/1.1/DTD/svg11.dtd">
<!-- Generated by graphviz version 2.26.3 (20100126.1600)
 -->
<!-- Title: RoR::GUI::OpenSaveFileDialog::notifyDirectoryComboChangePosition Pages: 1 -->
<!--zoomable 108 -->
<svg id="main" version="1.1" xmlns="http://www.w3.org/2000/svg" xmlns:xlink="http://www.w3.org/1999/xlink" xml:space="preserve" onload="init(evt)">
<style type="text/css"><![CDATA[
.edge:hover path { stroke: red; }
.edge:hover polygon { stroke: red; fill: red; }
]]></style>
<script type="text/javascript"><![CDATA[
var edges = document.getElementsByTagName('g');
if (edges && edges.length) {
  for (var i=0;i<edges.length;i++) {
    if (edges[i].id.substr(0,4)=='edge') {
      edges[i].setAttribute('class','edge');
    }
  }
}
]]></script>
        <defs>
                <circle id="rim" cx="0" cy="0" r="7"/>
                <circle id="rim2" cx="0" cy="0" r="3.5"/>
                <g id="zoomPlus">
                        <use xlink:href="#rim" fill="#404040">
                                <set attributeName="fill" to="#808080" begin="zoomplus.mouseover" end="zoomplus.mouseout"/>
                        </use>
                        <path d="M-4,0h8M0,-4v8" fill="none" stroke="white" stroke-width="1.5" pointer-events="none"/>
                </g>
                <g id="zoomMin">
                        <use xlink:href="#rim" fill="#404040">
                                <set attributeName="fill" to="#808080" begin="zoomminus.mouseover" end="zoomminus.mouseout"/>
                        </use>
                        <path d="M-4,0h8" fill="none" stroke="white" stroke-width="1.5" pointer-events="none"/>
                </g>
                <g id="dirArrow">
                        <path fill="none" stroke="white" stroke-width="1.5" d="M0,-3.0v7 M-2.5,-0.5L0,-3.0L2.5,-0.5"/>
                </g>
               <g id="resetDef">
                       <use xlink:href="#rim2" fill="#404040">
                               <set attributeName="fill" to="#808080" begin="reset.mouseover" end="reset.mouseout"/>
                       </use>
               </g>
        </defs>

<script type="text/javascript">
var viewWidth = 1170;
var viewHeight = 108;
var sectionId = 'dynsection-7';
</script>
<script xlink:href="svgpan.js"/>
<svg id="graph" class="graph">
<g id="viewport">
<title>RoR::GUI::OpenSaveFileDialog::notifyDirectoryComboChangePosition</title>
<polygon fill="white" stroke="white" points="-4,5 -4,-104 1167,-104 1167,5 -4,5"/>
<!-- Node1 -->
<g id="node1" class="node"><title>Node1</title>
<polygon fill="#bfbfbf" stroke="black" points="0.5,-40 0.5,-74 187.5,-74 187.5,-40 0.5,-40"/>
<text text-anchor="start" x="8.5" y="-61" font-family="Helvetica,sans-Serif" font-size="10.00">RoR::GUI::OpenSaveFileDialog</text>
<text text-anchor="middle" x="94" y="-48" font-family="Helvetica,sans-Serif" font-size="10.00">::notifyDirectoryComboChangePosition</text>
</g>
<!-- Node2 -->
<g id="node3" class="node"><title>Node2</title>
<a xlink:href="class_ro_r_1_1_g_u_i_1_1_open_save_file_dialog.html#a9ea53706725c664f1977f406e7bad2d3" target="_top" xlink:title="RoR::GUI::OpenSaveFileDialog\l::setCurrentFolder">
<polygon fill="white" stroke="black" points="224,-40 224,-74 380,-74 380,-40 224,-40"/>
<text text-anchor="start" x="232" y="-61" font-family="Helvetica,sans-Serif" font-size="10.00">RoR::GUI::OpenSaveFileDialog</text>
<text text-anchor="middle" x="302" y="-48" font-family="Helvetica,sans-Serif" font-size="10.00">::setCurrentFolder</text>
</a>
</g>
<!-- Node1&#45;&gt;Node2 -->
<g id="edge2" class="edge"><title>Node1&#45;&gt;Node2</title>
<path fill="none" stroke="midnightblue" d="M187.656,-57C196.336,-57 205.113,-57 213.743,-57"/>
<polygon fill="midnightblue" stroke="midnightblue" points="213.79,-60.5001 223.79,-57 213.79,-53.5001 213.79,-60.5001"/>
</g>
<!-- Node3 -->
<g id="node5" class="node"><title>Node3</title>
<a xlink:href="namespace_ro_r_1_1_file_system.html#a3661a8bb720171f041d3470a4537f54f" target="_top" xlink:title="RoR::FileSystem::getSystem\lCurrentFolder">
<polygon fill="white" stroke="black" points="421,-66 421,-100 567,-100 567,-66 421,-66"/>
<text text-anchor="start" x="429" y="-87" font-family="Helvetica,sans-Serif" font-size="10.00">RoR::FileSystem::getSystem</text>
<text text-anchor="middle" x="494" y="-74" font-family="Helvetica,sans-Serif" font-size="10.00">CurrentFolder</text>
</a>
</g>
<!-- Node2&#45;&gt;Node3 -->
<g id="edge4" class="edge"><title>Node2&#45;&gt;Node3</title>
<path fill="none" stroke="midnightblue" d="M380.094,-67.5752C390.216,-68.946 400.614,-70.354 410.816,-71.7354"/>
<polygon fill="midnightblue" stroke="midnightblue" points="410.555,-75.232 420.934,-73.1056 411.494,-68.2953 410.555,-75.232"/>
</g>
<!-- Node4 -->
<g id="node7" class="node"><title>Node4</title>
<a xlink:href="class_ro_r_1_1_g_u_i_1_1_open_save_file_dialog.html#a8c1b024be96a42a6be82b75bad012e1e" target="_top" xlink:title="RoR::GUI::OpenSaveFileDialog\l::update">
<polygon fill="white" stroke="black" points="416,-14 416,-48 572,-48 572,-14 416,-14"/>
<text text-anchor="start" x="424" y="-35" font-family="Helvetica,sans-Serif" font-size="10.00">RoR::GUI::OpenSaveFileDialog</text>
<text text-anchor="middle" x="494" y="-22" font-family="Helvetica,sans-Serif" font-size="10.00">::update</text>
</a>
</g>
<!-- Node2&#45;&gt;Node4 -->
<g id="edge6" class="edge"><title>Node2&#45;&gt;Node4</title>
<path fill="none" stroke="midnightblue" d="M380.094,-46.4248C388.601,-45.2728 397.302,-44.0945 405.918,-42.9278"/>
<polygon fill="midnightblue" stroke="midnightblue" points="406.536,-46.3762 415.975,-41.5658 405.596,-39.4395 406.536,-46.3762"/>
</g>
<!-- Node5 -->
<g id="node9" class="node"><title>Node5</title>
<a xlink:href="namespace_ro_r_1_1_file_system.html#ae33ccfefa159afb285835c8fa5498a8b" target="_top" xlink:title="RoR::FileSystem::getSystem\lFileList">
<polygon fill="white" stroke="black" points="608,-14 608,-48 754,-48 754,-14 608,-14"/>
<text text-anchor="start" x="616" y="-35" font-family="Helvetica,sans-Serif" font-size="10.00">RoR::FileSystem::getSystem</text>
<text text-anchor="middle" x="681" y="-22" font-family="Helvetica,sans-Serif" font-size="10.00">FileList</text>
</a>
</g>
<!-- Node4&#45;&gt;Node5 -->
<g id="edge8" class="edge"><title>Node4&#45;&gt;Node5</title>
<path fill="none" stroke="midnightblue" d="M572.221,-31C580.617,-31 589.182,-31 597.636,-31"/>
<polygon fill="midnightblue" stroke="midnightblue" points="597.872,-34.5001 607.872,-31 597.872,-27.5001 597.872,-34.5001"/>
</g>
<!-- Node6 -->
<g id="node11" class="node"><title>Node6</title>
<a xlink:href="namespace_ro_r_1_1_file_system.html#a78a496cdd3796294fcd6c3c452a23f10" target="_top" xlink:title="RoR::FileSystem::concatenatePath">
<polygon fill="white" stroke="black" points="790,-40.5 790,-61.5 962,-61.5 962,-40.5 790,-40.5"/>
<text text-anchor="middle" x="876" y="-48.5" font-family="Helvetica,sans-Serif" font-size="10.00">RoR::FileSystem::concatenatePath</text>
</a>
</g>
<!-- Node5&#45;&gt;Node6 -->
<g id="edge10" class="edge"><title>Node5&#45;&gt;Node6</title>
<path fill="none" stroke="midnightblue" d="M754.166,-38.5042C762.555,-39.3646 771.2,-40.2513 779.832,-41.1366"/>
<polygon fill="midnightblue" stroke="midnightblue" points="779.638,-44.6349 789.942,-42.1736 780.352,-37.6715 779.638,-44.6349"/>
</g>
<!-- Node8 -->
<g id="node15" class="node"><title>Node8</title>
<a xlink:href="namespace_ro_r_1_1_file_system.html#aefc2f14edd3f91d6c92ac4d9cfac865f" target="_top" xlink:title="RoR::FileSystem::isReservedDir">
<polygon fill="white" stroke="black" points="795.5,-0.5 795.5,-21.5 956.5,-21.5 956.5,-0.5 795.5,-0.5"/>
<text text-anchor="middle" x="876" y="-8.5" font-family="Helvetica,sans-Serif" font-size="10.00">RoR::FileSystem::isReservedDir</text>
</a>
</g>
<!-- Node5&#45;&gt;Node8 -->
<g id="edge14" class="edge"><title>Node5&#45;&gt;Node8</title>
<path fill="none" stroke="midnightblue" d="M754.166,-23.4958C764.321,-22.4543 774.852,-21.3741 785.28,-20.3046"/>
<polygon fill="midnightblue" stroke="midnightblue" points="785.639,-23.7862 795.23,-19.2841 784.925,-16.8227 785.639,-23.7862"/>
</g>
<!-- Node7 -->
<g id="node13" class="node"><title>Node7</title>
<a xlink:href="namespace_ro_r_1_1_file_system.html#af8e0cce7d301d79f48f0367827a18ba2" target="_top" xlink:title="RoR::FileSystem::isAbsolutePath">
<polygon fill="white" stroke="black" points="998,-40.5 998,-61.5 1162,-61.5 1162,-40.5 998,-40.5"/>
<text text-anchor="middle" x="1080" y="-48.5" font-family="Helvetica,sans-Serif" font-size="10.00">RoR::FileSystem::isAbsolutePath</text>
</a>
</g>
<!-- Node6&#45;&gt;Node7 -->
<g id="edge12" class="edge"><title>Node6&#45;&gt;Node7</title>
<path fill="none" stroke="midnightblue" d="M962.219,-51C970.738,-51 979.408,-51 987.983,-51"/>
<polygon fill="midnightblue" stroke="midnightblue" points="987.99,-54.5001 997.99,-51 987.99,-47.5001 987.99,-54.5001"/>
</g>
</g>
</svg>
        <g id="navigator" transform="translate(0 0)" fill="#404254">
                <rect fill="#f2f5e9" fill-opacity="0.5" stroke="#606060" stroke-width=".5" x="0" y="0" width="60" height="60"/>
                <use id="zoomplus" xlink:href="#zoomPlus" x="17" y="9" onmousedown="handleZoom(evt,'in')"/>
                <use id="zoomminus" xlink:href="#zoomMin" x="42" y="9" onmousedown="handleZoom(evt,'out')"/>
                <use id="reset" xlink:href="#resetDef" x="30" y="36" onmousedown="handleReset()"/>
                <g id="arrowUp" xlink:href="#dirArrow" transform="translate(30 24)" onmousedown="handlePan(0,-1)">
                  <use xlink:href="#rim" fill="#404040">
                        <set attributeName="fill" to="#808080" begin="arrowUp.mouseover" end="arrowUp.mouseout"/>
                  </use>
                  <path fill="none" stroke="white" stroke-width="1.5" d="M0,-3.0v7 M-2.5,-0.5L0,-3.0L2.5,-0.5"/>
                </g>
                <g id="arrowRight" xlink:href="#dirArrow" transform="rotate(90) translate(36 -43)" onmousedown="handlePan(1,0)">
                  <use xlink:href="#rim" fill="#404040">
                        <set attributeName="fill" to="#808080" begin="arrowRight.mouseover" end="arrowRight.mouseout"/>
                  </use>
                  <path fill="none" stroke="white" stroke-width="1.5" d="M0,-3.0v7 M-2.5,-0.5L0,-3.0L2.5,-0.5"/>
                </g>
                <g id="arrowDown" xlink:href="#dirArrow" transform="rotate(180) translate(-30 -48)" onmousedown="handlePan(0,1)">
                  <use xlink:href="#rim" fill="#404040">
                        <set attributeName="fill" to="#808080" begin="arrowDown.mouseover" end="arrowDown.mouseout"/>
                  </use>
                  <path fill="none" stroke="white" stroke-width="1.5" d="M0,-3.0v7 M-2.5,-0.5L0,-3.0L2.5,-0.5"/>
                </g>
                <g id="arrowLeft" xlink:href="#dirArrow" transform="rotate(270) translate(-36 17)" onmousedown="handlePan(-1,0)">
                  <use xlink:href="#rim" fill="#404040">
                        <set attributeName="fill" to="#808080" begin="arrowLeft.mouseover" end="arrowLeft.mouseout"/>
                  </use>
                  <path fill="none" stroke="white" stroke-width="1.5" d="M0,-3.0v7 M-2.5,-0.5L0,-3.0L2.5,-0.5"/>
                </g>
        </g>
        <svg viewBox="0 0 15 15" width="100%" height="30px" preserveAspectRatio="xMaxYMin meet">
         <g id="arrow_out" transform="scale(0.3 0.3)">
          <a xlink:href="class_ro_r_1_1_g_u_i_1_1_open_save_file_dialog_a037b18921b0deef4ca97e9f865c6540b_cgraph_org.svg" target="_base">
           <rect id="button" ry="5" rx="5" y="6" x="6" height="38" width="38"
                fill="#f2f5e9" fill-opacity="0.5" stroke="#606060" stroke-width="1.0"/>
           <path id="arrow"
             d="M 11.500037,31.436501 C 11.940474,20.09759 22.043105,11.32322 32.158766,21.979434 L 37.068811,17.246167 C 37.068811,17.246167 37.088388,32 37.088388,32 L 22.160133,31.978069 C 22.160133,31.978069 26.997745,27.140456 26.997745,27.140456 C 18.528582,18.264221 13.291696,25.230495 11.500037,31.436501 z"
             style="fill:#404040;"/>
          </a>
         </g>
        </svg>
</svg>
