<?xml version="1.0" encoding="UTF-8" standalone="no"?>
<!DOCTYPE svg PUBLIC "-//W3C//DTD SVG 1.1//EN"
 "http://www.w3.org/Graphics/SVG/1.1/DTD/svg11.dtd">
<!-- Generated by graphviz version 2.26.3 (20100126.1600)
 -->
<!-- Title: MyDialog::OnButPlay Pages: 1 -->
<!--zoomable 105 -->
<svg id="main" version="1.1" xmlns="http://www.w3.org/2000/svg" xmlns:xlink="http://www.w3.org/1999/xlink" xml:space="preserve" onload="init(evt)">
<style type="text/css"><![CDATA[
.edge:hover path { stroke: red; }
.edge:hover polygon { stroke: red; fill: red; }
]]></style>
<script type="text/javascript"><![CDATA[
var edges = document.getElementsByTagName('g');
if (edges && edges.length) {
  for (var i=0;i<edges.length;i++) {
    if (edges[i].id.substr(0,4)=='edge') {
      edges[i].setAttribute('class','edge');
    }
  }
}
]]></script>
        <defs>
                <circle id="rim" cx="0" cy="0" r="7"/>
                <circle id="rim2" cx="0" cy="0" r="3.5"/>
                <g id="zoomPlus">
                        <use xlink:href="#rim" fill="#404040">
                                <set attributeName="fill" to="#808080" begin="zoomplus.mouseover" end="zoomplus.mouseout"/>
                        </use>
                        <path d="M-4,0h8M0,-4v8" fill="none" stroke="white" stroke-width="1.5" pointer-events="none"/>
                </g>
                <g id="zoomMin">
                        <use xlink:href="#rim" fill="#404040">
                                <set attributeName="fill" to="#808080" begin="zoomminus.mouseover" end="zoomminus.mouseout"/>
                        </use>
                        <path d="M-4,0h8" fill="none" stroke="white" stroke-width="1.5" pointer-events="none"/>
                </g>
                <g id="dirArrow">
                        <path fill="none" stroke="white" stroke-width="1.5" d="M0,-3.0v7 M-2.5,-0.5L0,-3.0L2.5,-0.5"/>
                </g>
               <g id="resetDef">
                       <use xlink:href="#rim2" fill="#404040">
                               <set attributeName="fill" to="#808080" begin="reset.mouseover" end="reset.mouseout"/>
                       </use>
               </g>
        </defs>

<script type="text/javascript">
var viewWidth = 818;
var viewHeight = 105;
var sectionId = 'dynsection-17';
</script>
<script xlink:href="svgpan.js"/>
<svg id="graph" class="graph">
<g id="viewport">
<title>MyDialog::OnButPlay</title>
<polygon fill="white" stroke="white" points="-4,5 -4,-101 815,-101 815,5 -4,5"/>
<!-- Node1 -->
<g id="node1" class="node"><title>Node1</title>
<polygon fill="#bfbfbf" stroke="black" points="0.5,-32.5 0.5,-53.5 111.5,-53.5 111.5,-32.5 0.5,-32.5"/>
<text text-anchor="middle" x="56" y="-40.5" font-family="Helvetica,sans-Serif" font-size="10.00">MyDialog::OnButPlay</text>
</g>
<!-- Node2 -->
<g id="node3" class="node"><title>Node2</title>
<a xlink:href="class_my_dialog.html#a9a7ec676289d323dc4fa0f0766b30c12" target="_top" xlink:title="MyDialog::SaveConfig">
<polygon fill="white" stroke="black" points="148.5,-52.5 148.5,-73.5 263.5,-73.5 263.5,-52.5 148.5,-52.5"/>
<text text-anchor="middle" x="206" y="-60.5" font-family="Helvetica,sans-Serif" font-size="10.00">MyDialog::SaveConfig</text>
</a>
</g>
<!-- Node1&#45;&gt;Node2 -->
<g id="edge2" class="edge"><title>Node1&#45;&gt;Node2</title>
<path fill="none" stroke="midnightblue" d="M111.854,-50.4473C120.509,-51.6012 129.527,-52.8037 138.406,-53.9875"/>
<polygon fill="midnightblue" stroke="midnightblue" points="137.97,-57.4602 148.345,-55.3126 138.895,-50.5216 137.97,-57.4602"/>
</g>
<!-- Node7 -->
<g id="node15" class="node"><title>Node7</title>
<a xlink:href="namespace_profiler.html#af79bb59414ef3ba134213bb6f2f2d292" target="_top" xlink:title="Profiler::exit">
<polygon fill="white" stroke="black" points="171.5,-12.5 171.5,-33.5 240.5,-33.5 240.5,-12.5 171.5,-12.5"/>
<text text-anchor="middle" x="206" y="-20.5" font-family="Helvetica,sans-Serif" font-size="10.00">Profiler::exit</text>
</a>
</g>
<!-- Node1&#45;&gt;Node7 -->
<g id="edge16" class="edge"><title>Node1&#45;&gt;Node7</title>
<path fill="none" stroke="midnightblue" d="M111.854,-35.5527C128.097,-33.3871 145.623,-31.0502 161.1,-28.9867"/>
<polygon fill="midnightblue" stroke="midnightblue" points="161.996,-32.3983 171.446,-27.6072 161.071,-25.4597 161.996,-32.3983"/>
</g>
<!-- Node3 -->
<g id="node5" class="node"><title>Node3</title>
<a xlink:href="class_my_dialog.html#a9dda5ceed397209fea3b86bf17b183d1" target="_top" xlink:title="MyDialog::getSettingsControls">
<polygon fill="white" stroke="black" points="300,-31.5 300,-52.5 450,-52.5 450,-31.5 300,-31.5"/>
<text text-anchor="middle" x="375" y="-39.5" font-family="Helvetica,sans-Serif" font-size="10.00">MyDialog::getSettingsControls</text>
</a>
</g>
<!-- Node2&#45;&gt;Node3 -->
<g id="edge4" class="edge"><title>Node2&#45;&gt;Node3</title>
<path fill="none" stroke="midnightblue" d="M263.688,-55.8317C272.163,-54.7785 281.041,-53.6754 289.927,-52.5712"/>
<polygon fill="midnightblue" stroke="midnightblue" points="290.45,-56.0332 299.942,-51.3267 289.587,-49.0867 290.45,-56.0332"/>
</g>
<!-- Node4 -->
<g id="node7" class="node"><title>Node4</title>
<a xlink:href="wxutils_8h.html#acea10d469893caac689206a073cc165e" target="_top" xlink:title="conv">
<polygon fill="white" stroke="black" points="539,-75.5 539,-96.5 577,-96.5 577,-75.5 539,-75.5"/>
<text text-anchor="middle" x="558" y="-83.5" font-family="Helvetica,sans-Serif" font-size="10.00">conv</text>
</a>
</g>
<!-- Node2&#45;&gt;Node4 -->
<g id="edge14" class="edge"><title>Node2&#45;&gt;Node4</title>
<path fill="none" stroke="midnightblue" d="M263.731,-66.7722C339.748,-71.7392 470.548,-80.2858 528.68,-84.0842"/>
<polygon fill="midnightblue" stroke="midnightblue" points="528.452,-87.5767 538.659,-84.7363 528.909,-80.5916 528.452,-87.5767"/>
</g>
<!-- Node3&#45;&gt;Node4 -->
<g id="edge6" class="edge"><title>Node3&#45;&gt;Node4</title>
<path fill="none" stroke="midnightblue" d="M418.833,-52.5391C452.885,-60.7264 499.156,-71.8517 528.805,-78.9803"/>
<polygon fill="midnightblue" stroke="midnightblue" points="528.01,-82.389 538.551,-81.3238 529.647,-75.5829 528.01,-82.389"/>
</g>
<!-- Node5 -->
<g id="node9" class="node"><title>Node5</title>
<a xlink:href="classwx_value_choice.html#a929749fefe92945893e8fc62107c770f" target="_top" xlink:title="wxValueChoice::getSelected\lValueAsSTDString">
<polygon fill="white" stroke="black" points="486.5,-23 486.5,-57 629.5,-57 629.5,-23 486.5,-23"/>
<text text-anchor="start" x="494.5" y="-44" font-family="Helvetica,sans-Serif" font-size="10.00">wxValueChoice::getSelected</text>
<text text-anchor="middle" x="558" y="-31" font-family="Helvetica,sans-Serif" font-size="10.00">ValueAsSTDString</text>
</a>
</g>
<!-- Node3&#45;&gt;Node5 -->
<g id="edge8" class="edge"><title>Node3&#45;&gt;Node5</title>
<path fill="none" stroke="midnightblue" d="M450.225,-41.1779C458.799,-41.0842 467.569,-40.9883 476.223,-40.8937"/>
<polygon fill="midnightblue" stroke="midnightblue" points="476.347,-44.3927 486.308,-40.7835 476.27,-37.3931 476.347,-44.3927"/>
</g>
<!-- Node6 -->
<g id="node11" class="node"><title>Node6</title>
<a xlink:href="classwx_value_choice.html#a9193f92274299f15adefdb340ad58abe" target="_top" xlink:title="wxValueChoice::getSelected\lValue">
<polygon fill="white" stroke="black" points="666.5,-0 666.5,-34 809.5,-34 809.5,-0 666.5,-0"/>
<text text-anchor="start" x="674.5" y="-21" font-family="Helvetica,sans-Serif" font-size="10.00">wxValueChoice::getSelected</text>
<text text-anchor="middle" x="738" y="-8" font-family="Helvetica,sans-Serif" font-size="10.00">Value</text>
</a>
</g>
<!-- Node3&#45;&gt;Node6 -->
<g id="edge12" class="edge"><title>Node3&#45;&gt;Node6</title>
<path fill="none" stroke="midnightblue" d="M408.107,-31.3633C429.962,-24.9122 459.374,-17.3065 486,-14 542.565,-6.97571 606.819,-7.87745 656.288,-10.4574"/>
<polygon fill="midnightblue" stroke="midnightblue" points="656.116,-13.9531 666.294,-11.0124 656.503,-6.96385 656.116,-13.9531"/>
</g>
<!-- Node5&#45;&gt;Node6 -->
<g id="edge10" class="edge"><title>Node5&#45;&gt;Node6</title>
<path fill="none" stroke="midnightblue" d="M629.658,-30.8437C638.419,-29.7242 647.423,-28.5737 656.318,-27.4372"/>
<polygon fill="midnightblue" stroke="midnightblue" points="656.819,-30.9017 666.295,-26.1624 655.932,-23.9582 656.819,-30.9017"/>
</g>
</g>
</svg>
        <g id="navigator" transform="translate(0 0)" fill="#404254">
                <rect fill="#f2f5e9" fill-opacity="0.5" stroke="#606060" stroke-width=".5" x="0" y="0" width="60" height="60"/>
                <use id="zoomplus" xlink:href="#zoomPlus" x="17" y="9" onmousedown="handleZoom(evt,'in')"/>
                <use id="zoomminus" xlink:href="#zoomMin" x="42" y="9" onmousedown="handleZoom(evt,'out')"/>
                <use id="reset" xlink:href="#resetDef" x="30" y="36" onmousedown="handleReset()"/>
                <g id="arrowUp" xlink:href="#dirArrow" transform="translate(30 24)" onmousedown="handlePan(0,-1)">
                  <use xlink:href="#rim" fill="#404040">
                        <set attributeName="fill" to="#808080" begin="arrowUp.mouseover" end="arrowUp.mouseout"/>
                  </use>
                  <path fill="none" stroke="white" stroke-width="1.5" d="M0,-3.0v7 M-2.5,-0.5L0,-3.0L2.5,-0.5"/>
                </g>
                <g id="arrowRight" xlink:href="#dirArrow" transform="rotate(90) translate(36 -43)" onmousedown="handlePan(1,0)">
                  <use xlink:href="#rim" fill="#404040">
                        <set attributeName="fill" to="#808080" begin="arrowRight.mouseover" end="arrowRight.mouseout"/>
                  </use>
                  <path fill="none" stroke="white" stroke-width="1.5" d="M0,-3.0v7 M-2.5,-0.5L0,-3.0L2.5,-0.5"/>
                </g>
                <g id="arrowDown" xlink:href="#dirArrow" transform="rotate(180) translate(-30 -48)" onmousedown="handlePan(0,1)">
                  <use xlink:href="#rim" fill="#404040">
                        <set attributeName="fill" to="#808080" begin="arrowDown.mouseover" end="arrowDown.mouseout"/>
                  </use>
                  <path fill="none" stroke="white" stroke-width="1.5" d="M0,-3.0v7 M-2.5,-0.5L0,-3.0L2.5,-0.5"/>
                </g>
                <g id="arrowLeft" xlink:href="#dirArrow" transform="rotate(270) translate(-36 17)" onmousedown="handlePan(-1,0)">
                  <use xlink:href="#rim" fill="#404040">
                        <set attributeName="fill" to="#808080" begin="arrowLeft.mouseover" end="arrowLeft.mouseout"/>
                  </use>
                  <path fill="none" stroke="white" stroke-width="1.5" d="M0,-3.0v7 M-2.5,-0.5L0,-3.0L2.5,-0.5"/>
                </g>
        </g>
        <svg viewBox="0 0 15 15" width="100%" height="30px" preserveAspectRatio="xMaxYMin meet">
         <g id="arrow_out" transform="scale(0.3 0.3)">
          <a xlink:href="class_my_dialog_a9b49bcd44430e4de9b82daa8a97885f6_cgraph_org.svg" target="_base">
           <rect id="button" ry="5" rx="5" y="6" x="6" height="38" width="38"
                fill="#f2f5e9" fill-opacity="0.5" stroke="#606060" stroke-width="1.0"/>
           <path id="arrow"
             d="M 11.500037,31.436501 C 11.940474,20.09759 22.043105,11.32322 32.158766,21.979434 L 37.068811,17.246167 C 37.068811,17.246167 37.088388,32 37.088388,32 L 22.160133,31.978069 C 22.160133,31.978069 26.997745,27.140456 26.997745,27.140456 C 18.528582,18.264221 13.291696,25.230495 11.500037,31.436501 z"
             style="fill:#404040;"/>
          </a>
         </g>
        </svg>
</svg>
