<?xml version="1.0" encoding="UTF-8" standalone="no"?>
<!DOCTYPE svg PUBLIC "-//W3C//DTD SVG 1.1//EN"
 "http://www.w3.org/Graphics/SVG/1.1/DTD/svg11.dtd">
<!-- Generated by graphviz version 2.26.3 (20100126.1600)
 -->
<!-- Title: RoR::RigEditor::InputHandler::ResetEvents Pages: 1 -->
<svg width="390pt" height="160pt"
 viewBox="0.00 0.00 390.00 160.00" xmlns="http://www.w3.org/2000/svg" xmlns:xlink="http://www.w3.org/1999/xlink">
<g id="graph1" class="graph" transform="scale(1 1) rotate(0) translate(4 156)">
<title>RoR::RigEditor::InputHandler::ResetEvents</title>
<polygon fill="white" stroke="white" points="-4,5 -4,-156 387,-156 387,5 -4,5"/>
<!-- Node1 -->
<g id="node1" class="node"><title>Node1</title>
<polygon fill="#bfbfbf" stroke="black" points="0.5,-59 0.5,-93 145.5,-93 145.5,-59 0.5,-59"/>
<text text-anchor="start" x="8.5" y="-80" font-family="Helvetica,sans-Serif" font-size="10.00">RoR::RigEditor::InputHandler</text>
<text text-anchor="middle" x="73" y="-67" font-family="Helvetica,sans-Serif" font-size="10.00">::ResetEvents</text>
</g>
<!-- Node2 -->
<g id="node3" class="node"><title>Node2</title>
<a xlink:href="struct_ro_r_1_1_rig_editor_1_1_input_handler_1_1_mouse_motion_event.html#a79e96f955b32eb788f763cddd7e5fd70" target="_top" xlink:title="RoR::RigEditor::InputHandler\l::MouseMotionEvent::ResetRelativeMove">
<polygon fill="white" stroke="black" points="182.5,-118 182.5,-152 381.5,-152 381.5,-118 182.5,-118"/>
<text text-anchor="start" x="190.5" y="-139" font-family="Helvetica,sans-Serif" font-size="10.00">RoR::RigEditor::InputHandler</text>
<text text-anchor="middle" x="282" y="-126" font-family="Helvetica,sans-Serif" font-size="10.00">::MouseMotionEvent::ResetRelativeMove</text>
</a>
</g>
<!-- Node1&#45;&gt;Node2 -->
<g id="edge2" class="edge"><title>Node1&#45;&gt;Node2</title>
<path fill="none" stroke="midnightblue" d="M127.768,-93.0439C145.074,-98.305 164.299,-104.021 182,-109 189.467,-111.1 197.265,-113.233 205.069,-115.327"/>
<polygon fill="midnightblue" stroke="midnightblue" points="204.368,-118.762 214.932,-117.953 206.169,-111.998 204.368,-118.762"/>
</g>
<!-- Node3 -->
<g id="node5" class="node"><title>Node3</title>
<a xlink:href="struct_ro_r_1_1_rig_editor_1_1_input_handler_1_1_mouse_motion_event.html#a3ea963d1406c81f971bcca3813bad643" target="_top" xlink:title="RoR::RigEditor::InputHandler\l::MouseMotionEvent::ResetRelative\lScroll">
<polygon fill="white" stroke="black" points="194.5,-52.5 194.5,-99.5 369.5,-99.5 369.5,-52.5 194.5,-52.5"/>
<text text-anchor="start" x="202.5" y="-86.5" font-family="Helvetica,sans-Serif" font-size="10.00">RoR::RigEditor::InputHandler</text>
<text text-anchor="start" x="202.5" y="-73.5" font-family="Helvetica,sans-Serif" font-size="10.00">::MouseMotionEvent::ResetRelative</text>
<text text-anchor="middle" x="282" y="-60.5" font-family="Helvetica,sans-Serif" font-size="10.00">Scroll</text>
</a>
</g>
<!-- Node1&#45;&gt;Node3 -->
<g id="edge4" class="edge"><title>Node1&#45;&gt;Node3</title>
<path fill="none" stroke="midnightblue" d="M145.512,-76C157.977,-76 171.116,-76 184.117,-76"/>
<polygon fill="midnightblue" stroke="midnightblue" points="184.498,-79.5001 194.498,-76 184.498,-72.5001 184.498,-79.5001"/>
</g>
<!-- Node4 -->
<g id="node7" class="node"><title>Node4</title>
<a xlink:href="struct_ro_r_1_1_rig_editor_1_1_input_handler_1_1_mouse_button_event.html#a6a0b563742608e611ebb56fbce6f6073" target="_top" xlink:title="RoR::RigEditor::InputHandler\l::MouseButtonEvent::ResetEvents">
<polygon fill="white" stroke="black" points="197.5,-0 197.5,-34 366.5,-34 366.5,-0 197.5,-0"/>
<text text-anchor="start" x="205.5" y="-21" font-family="Helvetica,sans-Serif" font-size="10.00">RoR::RigEditor::InputHandler</text>
<text text-anchor="middle" x="282" y="-8" font-family="Helvetica,sans-Serif" font-size="10.00">::MouseButtonEvent::ResetEvents</text>
</a>
</g>
<!-- Node1&#45;&gt;Node4 -->
<g id="edge6" class="edge"><title>Node1&#45;&gt;Node4</title>
<path fill="none" stroke="midnightblue" d="M127.768,-58.9561C145.074,-53.695 164.299,-47.9785 182,-43 189.467,-40.8998 197.265,-38.7673 205.069,-36.6733"/>
<polygon fill="midnightblue" stroke="midnightblue" points="206.169,-40.0022 214.932,-34.0468 204.368,-33.2379 206.169,-40.0022"/>
</g>
</g>
</svg>
