<?xml version="1.0" encoding="UTF-8" standalone="no"?>
<!DOCTYPE svg PUBLIC "-//W3C//DTD SVG 1.1//EN"
 "http://www.w3.org/Graphics/SVG/1.1/DTD/svg11.dtd">
<!-- Generated by graphviz version 2.26.3 (20100126.1600)
 -->
<!-- Title: Character::updateCharacterRotation Pages: 1 -->
<!--zoomable 290 -->
<svg id="main" version="1.1" xmlns="http://www.w3.org/2000/svg" xmlns:xlink="http://www.w3.org/1999/xlink" xml:space="preserve" onload="init(evt)">
<style type="text/css"><![CDATA[
.edge:hover path { stroke: red; }
.edge:hover polygon { stroke: red; fill: red; }
]]></style>
<script type="text/javascript"><![CDATA[
var edges = document.getElementsByTagName('g');
if (edges && edges.length) {
  for (var i=0;i<edges.length;i++) {
    if (edges[i].id.substr(0,4)=='edge') {
      edges[i].setAttribute('class','edge');
    }
  }
}
]]></script>
        <defs>
                <circle id="rim" cx="0" cy="0" r="7"/>
                <circle id="rim2" cx="0" cy="0" r="3.5"/>
                <g id="zoomPlus">
                        <use xlink:href="#rim" fill="#404040">
                                <set attributeName="fill" to="#808080" begin="zoomplus.mouseover" end="zoomplus.mouseout"/>
                        </use>
                        <path d="M-4,0h8M0,-4v8" fill="none" stroke="white" stroke-width="1.5" pointer-events="none"/>
                </g>
                <g id="zoomMin">
                        <use xlink:href="#rim" fill="#404040">
                                <set attributeName="fill" to="#808080" begin="zoomminus.mouseover" end="zoomminus.mouseout"/>
                        </use>
                        <path d="M-4,0h8" fill="none" stroke="white" stroke-width="1.5" pointer-events="none"/>
                </g>
                <g id="dirArrow">
                        <path fill="none" stroke="white" stroke-width="1.5" d="M0,-3.0v7 M-2.5,-0.5L0,-3.0L2.5,-0.5"/>
                </g>
               <g id="resetDef">
                       <use xlink:href="#rim2" fill="#404040">
                               <set attributeName="fill" to="#808080" begin="reset.mouseover" end="reset.mouseout"/>
                       </use>
               </g>
        </defs>

<script type="text/javascript">
var viewWidth = 1614;
var viewHeight = 290;
var sectionId = 'dynsection-27';
</script>
<script xlink:href="svgpan.js"/>
<svg id="graph" class="graph">
<g id="viewport">
<title>Character::updateCharacterRotation</title>
<polygon fill="white" stroke="white" points="-4,5 -4,-286.065 1611,-286.065 1611,5 -4,5"/>
<!-- Node1 -->
<g id="node1" class="node"><title>Node1</title>
<polygon fill="#bfbfbf" stroke="black" points="0.5,-138 0.5,-172 137.5,-172 137.5,-138 0.5,-138"/>
<text text-anchor="start" x="8.5" y="-159" font-family="Helvetica,sans-Serif" font-size="10.00">Character::updateCharacter</text>
<text text-anchor="middle" x="69" y="-146" font-family="Helvetica,sans-Serif" font-size="10.00">Rotation</text>
</g>
<!-- Node2 -->
<g id="node3" class="node"><title>Node2</title>
<a xlink:href="class_ro_r_1_1_main_thread.html#af7d1f53cf02660323c9dfe6cc5a1e7e1" target="_top" xlink:title="RoR::MainThread::Changed\lCurrentVehicle">
<polygon fill="white" stroke="black" points="174.5,-138 174.5,-172 313.5,-172 313.5,-138 174.5,-138"/>
<text text-anchor="start" x="182.5" y="-159" font-family="Helvetica,sans-Serif" font-size="10.00">RoR::MainThread::Changed</text>
<text text-anchor="middle" x="244" y="-146" font-family="Helvetica,sans-Serif" font-size="10.00">CurrentVehicle</text>
</a>
</g>
<!-- Node1&#45;&gt;Node2 -->
<g id="edge2" class="edge"><title>Node1&#45;&gt;Node2</title>
<path fill="none" stroke="midnightblue" d="M147.94,-155C156.759,-155 165.695,-155 174.386,-155"/>
<polygon fill="midnightblue" stroke="midnightblue" points="147.662,-151.5 137.662,-155 147.662,-158.5 147.662,-151.5"/>
</g>
<!-- Node3 -->
<g id="node5" class="node"><title>Node3</title>
<a xlink:href="class_beam_factory.html#ac70a8aa131a6709ebf05dc3c0f6dab10" target="_top" xlink:title="BeamFactory::setCurrentTruck">
<polygon fill="white" stroke="black" points="350,-144.5 350,-165.5 502,-165.5 502,-144.5 350,-144.5"/>
<text text-anchor="middle" x="426" y="-152.5" font-family="Helvetica,sans-Serif" font-size="10.00">BeamFactory::setCurrentTruck</text>
</a>
</g>
<!-- Node2&#45;&gt;Node3 -->
<g id="edge4" class="edge"><title>Node2&#45;&gt;Node3</title>
<path fill="none" stroke="midnightblue" d="M323.679,-155C332.348,-155 341.156,-155 349.783,-155"/>
<polygon fill="midnightblue" stroke="midnightblue" points="323.585,-151.5 313.585,-155 323.585,-158.5 323.585,-151.5"/>
</g>
<!-- Node4 -->
<g id="node7" class="node"><title>Node4</title>
<a xlink:href="class_ro_r_frame_listener.html#a6b384193b130f7c1fff95d2e740a370e" target="_top" xlink:title="RoRFrameListener::update\lEvents">
<polygon fill="white" stroke="black" points="735,-224 735,-258 869,-258 869,-224 735,-224"/>
<text text-anchor="start" x="743" y="-245" font-family="Helvetica,sans-Serif" font-size="10.00">RoRFrameListener::update</text>
<text text-anchor="middle" x="802" y="-232" font-family="Helvetica,sans-Serif" font-size="10.00">Events</text>
</a>
</g>
<!-- Node3&#45;&gt;Node4 -->
<g id="edge6" class="edge"><title>Node3&#45;&gt;Node4</title>
<path fill="none" stroke="midnightblue" d="M437.988,-174.232C455.924,-200.961 492.548,-248.173 538,-267 610.121,-296.874 702.473,-275.79 756.648,-258.131"/>
<polygon fill="midnightblue" stroke="midnightblue" points="440.83,-172.182 432.439,-165.712 434.964,-176.002 440.83,-172.182"/>
</g>
<!-- Node6 -->
<g id="node11" class="node"><title>Node6</title>
<a xlink:href="class_ro_r_frame_listener.html#abbab3f9d2773790f0d8567ee4434a739" target="_top" xlink:title="RoRFrameListener::InitTrucks">
<polygon fill="white" stroke="black" points="538.5,-184.5 538.5,-205.5 687.5,-205.5 687.5,-184.5 538.5,-184.5"/>
<text text-anchor="middle" x="613" y="-192.5" font-family="Helvetica,sans-Serif" font-size="10.00">RoRFrameListener::InitTrucks</text>
</a>
</g>
<!-- Node3&#45;&gt;Node6 -->
<g id="edge10" class="edge"><title>Node3&#45;&gt;Node6</title>
<path fill="none" stroke="midnightblue" d="M485.008,-167.622C510.384,-173.05 539.703,-179.321 563.872,-184.491"/>
<polygon fill="midnightblue" stroke="midnightblue" points="485.643,-164.179 475.132,-165.51 484.179,-171.024 485.643,-164.179"/>
</g>
<!-- Node13 -->
<g id="node26" class="node"><title>Node13</title>
<a xlink:href="class_ro_r_frame_listener.html#accf1a2895ee6b67789cfaa570bfa01cb" target="_top" xlink:title="RoRFrameListener::reload\lCurrentTruck">
<polygon fill="white" stroke="black" points="547.5,-224 547.5,-258 678.5,-258 678.5,-224 547.5,-224"/>
<text text-anchor="start" x="555.5" y="-245" font-family="Helvetica,sans-Serif" font-size="10.00">RoRFrameListener::reload</text>
<text text-anchor="middle" x="613" y="-232" font-family="Helvetica,sans-Serif" font-size="10.00">CurrentTruck</text>
</a>
</g>
<!-- Node3&#45;&gt;Node13 -->
<g id="edge26" class="edge"><title>Node3&#45;&gt;Node13</title>
<path fill="none" stroke="midnightblue" d="M452.676,-170.838C475.002,-183.714 507.943,-201.838 538,-215 545.069,-218.096 552.635,-221.081 560.141,-223.857"/>
<polygon fill="midnightblue" stroke="midnightblue" points="454.2,-167.676 443.797,-165.671 450.679,-173.726 454.2,-167.676"/>
</g>
<!-- Node14 -->
<g id="node29" class="node"><title>Node14</title>
<a xlink:href="class_preview_renderer.html#a5ea6b4611b45965e072266211dc60ba8" target="_top" xlink:title="PreviewRenderer::render">
<polygon fill="white" stroke="black" points="550.5,-144.5 550.5,-165.5 675.5,-165.5 675.5,-144.5 550.5,-144.5"/>
<text text-anchor="middle" x="613" y="-152.5" font-family="Helvetica,sans-Serif" font-size="10.00">PreviewRenderer::render</text>
</a>
</g>
<!-- Node3&#45;&gt;Node14 -->
<g id="edge30" class="edge"><title>Node3&#45;&gt;Node14</title>
<path fill="none" stroke="midnightblue" d="M512.311,-155C525.164,-155 538.2,-155 550.439,-155"/>
<polygon fill="midnightblue" stroke="midnightblue" points="512.06,-151.5 502.06,-155 512.06,-158.5 512.06,-151.5"/>
</g>
<!-- Node15 -->
<g id="node31" class="node"><title>Node15</title>
<a xlink:href="class_beam_factory.html#a49a4ee797005fff135d8f88a085986a0" target="_top" xlink:title="BeamFactory::removeTruck">
<polygon fill="white" stroke="black" points="544,-104.5 544,-125.5 682,-125.5 682,-104.5 544,-104.5"/>
<text text-anchor="middle" x="613" y="-112.5" font-family="Helvetica,sans-Serif" font-size="10.00">BeamFactory::removeTruck</text>
</a>
</g>
<!-- Node3&#45;&gt;Node15 -->
<g id="edge32" class="edge"><title>Node3&#45;&gt;Node15</title>
<path fill="none" stroke="midnightblue" d="M485.008,-142.378C510.384,-136.95 539.703,-130.679 563.872,-125.509"/>
<polygon fill="midnightblue" stroke="midnightblue" points="484.179,-138.976 475.132,-144.49 485.643,-145.821 484.179,-138.976"/>
</g>
<!-- Node16 -->
<g id="node33" class="node"><title>Node16</title>
<a xlink:href="class_beam_factory.html#a59b66e06ec1f1d1f9adb0d299da15265" target="_top" xlink:title="BeamFactory::p_removeAll\lTrucks">
<polygon fill="white" stroke="black" points="545.5,-52 545.5,-86 680.5,-86 680.5,-52 545.5,-52"/>
<text text-anchor="start" x="553.5" y="-73" font-family="Helvetica,sans-Serif" font-size="10.00">BeamFactory::p_removeAll</text>
<text text-anchor="middle" x="613" y="-60" font-family="Helvetica,sans-Serif" font-size="10.00">Trucks</text>
</a>
</g>
<!-- Node3&#45;&gt;Node16 -->
<g id="edge34" class="edge"><title>Node3&#45;&gt;Node16</title>
<path fill="none" stroke="midnightblue" d="M452.676,-139.162C475.002,-126.286 507.943,-108.162 538,-95 545.069,-91.9043 552.635,-88.9188 560.141,-86.1435"/>
<polygon fill="midnightblue" stroke="midnightblue" points="450.679,-136.274 443.797,-144.329 454.2,-142.324 450.679,-136.274"/>
</g>
<!-- Node19 -->
<g id="node40" class="node"><title>Node19</title>
<a xlink:href="class_beam_factory.html#a297cce523629edad68ff2c05bcaa44ac" target="_top" xlink:title="BeamFactory::enterRescue\lTruck">
<polygon fill="white" stroke="black" points="544.5,-0 544.5,-34 681.5,-34 681.5,-0 544.5,-0"/>
<text text-anchor="start" x="552.5" y="-21" font-family="Helvetica,sans-Serif" font-size="10.00">BeamFactory::enterRescue</text>
<text text-anchor="middle" x="613" y="-8" font-family="Helvetica,sans-Serif" font-size="10.00">Truck</text>
</a>
</g>
<!-- Node3&#45;&gt;Node19 -->
<g id="edge42" class="edge"><title>Node3&#45;&gt;Node19</title>
<path fill="none" stroke="midnightblue" d="M440.142,-136.32C459.661,-111.725 497.111,-68.6098 538,-43 543.256,-39.7082 548.981,-36.7703 554.849,-34.1636"/>
<polygon fill="midnightblue" stroke="midnightblue" points="437.172,-134.437 433.789,-144.477 442.695,-138.738 437.172,-134.437"/>
</g>
<!-- Node5 -->
<g id="node9" class="node"><title>Node5</title>
<a xlink:href="class_ro_r_frame_listener.html#acd8647e188fb8e838689492965b86faf" target="_top" xlink:title="RoRFrameListener::frameStarted">
<polygon fill="white" stroke="black" points="931.5,-230.5 931.5,-251.5 1092.5,-251.5 1092.5,-230.5 931.5,-230.5"/>
<text text-anchor="middle" x="1012" y="-238.5" font-family="Helvetica,sans-Serif" font-size="10.00">RoRFrameListener::frameStarted</text>
</a>
</g>
<!-- Node4&#45;&gt;Node5 -->
<g id="edge8" class="edge"><title>Node4&#45;&gt;Node5</title>
<path fill="none" stroke="midnightblue" d="M879.402,-241C896.314,-241 914.254,-241 931.291,-241"/>
<polygon fill="midnightblue" stroke="midnightblue" points="879.023,-237.5 869.023,-241 879.023,-244.5 879.023,-237.5"/>
</g>
<!-- Node6&#45;&gt;Node4 -->
<g id="edge12" class="edge"><title>Node6&#45;&gt;Node4</title>
<path fill="none" stroke="midnightblue" d="M666.189,-207.945C687.476,-213.126 712.244,-219.155 734.755,-224.634"/>
<polygon fill="midnightblue" stroke="midnightblue" points="666.904,-204.518 656.36,-205.553 665.249,-211.319 666.904,-204.518"/>
</g>
<!-- Node7 -->
<g id="node14" class="node"><title>Node7</title>
<a xlink:href="class_ro_r_1_1_main_thread.html#aa3feeebda7f3f4c31a6cb96ea60c09e0" target="_top" xlink:title="RoR::MainThread::SetupGameplayLoop">
<polygon fill="white" stroke="black" points="916.5,-168.5 916.5,-189.5 1107.5,-189.5 1107.5,-168.5 916.5,-168.5"/>
<text text-anchor="middle" x="1012" y="-176.5" font-family="Helvetica,sans-Serif" font-size="10.00">RoR::MainThread::SetupGameplayLoop</text>
</a>
</g>
<!-- Node6&#45;&gt;Node7 -->
<g id="edge14" class="edge"><title>Node6&#45;&gt;Node7</title>
<path fill="none" stroke="midnightblue" d="M697.645,-191.606C761.677,-189.038 849.648,-185.51 916.248,-182.84"/>
<polygon fill="midnightblue" stroke="midnightblue" points="697.432,-188.111 687.581,-192.009 697.713,-195.106 697.432,-188.111"/>
</g>
<!-- Node8 -->
<g id="node16" class="node"><title>Node8</title>
<a xlink:href="class_ro_r_1_1_main_thread.html#a7e4d0bd23a40e509892883af75ea0dbf" target="_top" xlink:title="RoR::MainThread::Go">
<polygon fill="white" stroke="black" points="1144.5,-126.5 1144.5,-147.5 1257.5,-147.5 1257.5,-126.5 1144.5,-126.5"/>
<text text-anchor="middle" x="1201" y="-134.5" font-family="Helvetica,sans-Serif" font-size="10.00">RoR::MainThread::Go</text>
</a>
</g>
<!-- Node7&#45;&gt;Node8 -->
<g id="edge16" class="edge"><title>Node7&#45;&gt;Node8</title>
<path fill="none" stroke="midnightblue" d="M1069.74,-166.168C1096.62,-160.195 1128.2,-153.177 1153.65,-147.522"/>
<polygon fill="midnightblue" stroke="midnightblue" points="1068.7,-162.816 1059.69,-168.402 1070.21,-169.649 1068.7,-162.816"/>
</g>
<!-- Node9 -->
<g id="node18" class="node"><title>Node9</title>
<a xlink:href="main_2main__sim_2main_8cpp.html#a0ddf1224851353fc92bfbff6f499fa97" target="_top" xlink:title="main">
<polygon fill="white" stroke="black" points="1344,-149.5 1344,-170.5 1382,-170.5 1382,-149.5 1344,-149.5"/>
<text text-anchor="middle" x="1363" y="-157.5" font-family="Helvetica,sans-Serif" font-size="10.00">main</text>
</a>
</g>
<!-- Node8&#45;&gt;Node9 -->
<g id="edge18" class="edge"><title>Node8&#45;&gt;Node9</title>
<path fill="none" stroke="midnightblue" d="M1267.69,-146.469C1295.27,-150.384 1325.14,-154.624 1343.95,-157.295"/>
<polygon fill="midnightblue" stroke="midnightblue" points="1268.05,-142.985 1257.66,-145.044 1267.07,-149.915 1268.05,-142.985"/>
</g>
<!-- Node11 -->
<g id="node22" class="node"><title>Node11</title>
<a xlink:href="class_ro_r_1_1_main_thread.html#a7a2db954fd2f35d63982d8603d2b9614" target="_top" xlink:title="RoR::MainThread::Request\lRestart">
<polygon fill="white" stroke="black" points="1294.5,-97 1294.5,-131 1431.5,-131 1431.5,-97 1294.5,-97"/>
<text text-anchor="start" x="1302.5" y="-118" font-family="Helvetica,sans-Serif" font-size="10.00">RoR::MainThread::Request</text>
<text text-anchor="middle" x="1363" y="-105" font-family="Helvetica,sans-Serif" font-size="10.00">Restart</text>
</a>
</g>
<!-- Node8&#45;&gt;Node11 -->
<g id="edge22" class="edge"><title>Node8&#45;&gt;Node11</title>
<path fill="none" stroke="midnightblue" d="M1267.82,-127.513C1276.59,-126.267 1285.59,-124.99 1294.39,-123.741"/>
<polygon fill="midnightblue" stroke="midnightblue" points="1267.07,-124.085 1257.66,-128.956 1268.05,-131.015 1267.07,-124.085"/>
</g>
<!-- Node10 -->
<g id="node20" class="node"><title>Node10</title>
<a xlink:href="main_2main__sim_2main_8cpp.html#a2922bc5d5c2d77a3020cfbf9df12aab0" target="_top" xlink:title="WinMain">
<polygon fill="white" stroke="black" points="1509.5,-149.5 1509.5,-170.5 1564.5,-170.5 1564.5,-149.5 1509.5,-149.5"/>
<text text-anchor="middle" x="1537" y="-157.5" font-family="Helvetica,sans-Serif" font-size="10.00">WinMain</text>
</a>
</g>
<!-- Node9&#45;&gt;Node10 -->
<g id="edge20" class="edge"><title>Node9&#45;&gt;Node10</title>
<path fill="none" stroke="midnightblue" d="M1392.56,-160C1425.23,-160 1477.44,-160 1509.33,-160"/>
<polygon fill="midnightblue" stroke="midnightblue" points="1392.29,-156.5 1382.29,-160 1392.29,-163.5 1392.29,-156.5"/>
</g>
<!-- Node12 -->
<g id="node24" class="node"><title>Node12</title>
<a xlink:href="class_ro_r_frame_listener.html#af2779b96aa0f91920bd100bc30261402" target="_top" xlink:title="RoRFrameListener::Restart">
<polygon fill="white" stroke="black" points="1468.5,-103.5 1468.5,-124.5 1605.5,-124.5 1605.5,-103.5 1468.5,-103.5"/>
<text text-anchor="middle" x="1537" y="-111.5" font-family="Helvetica,sans-Serif" font-size="10.00">RoRFrameListener::Restart</text>
</a>
</g>
<!-- Node11&#45;&gt;Node12 -->
<g id="edge24" class="edge"><title>Node11&#45;&gt;Node12</title>
<path fill="none" stroke="midnightblue" d="M1442.04,-114C1450.86,-114 1459.78,-114 1468.45,-114"/>
<polygon fill="midnightblue" stroke="midnightblue" points="1441.77,-110.5 1431.77,-114 1441.77,-117.5 1441.77,-110.5"/>
</g>
<!-- Node13&#45;&gt;Node4 -->
<g id="edge28" class="edge"><title>Node13&#45;&gt;Node4</title>
<path fill="none" stroke="midnightblue" d="M688.975,-241C704.184,-241 720.059,-241 734.941,-241"/>
<polygon fill="midnightblue" stroke="midnightblue" points="688.573,-237.5 678.573,-241 688.573,-244.5 688.573,-237.5"/>
</g>
<!-- Node17 -->
<g id="node35" class="node"><title>Node17</title>
<a xlink:href="class_beam_factory.html#a089236a1b1ee4dc3b6efa157a784d69c" target="_top" xlink:title="BeamFactory::removeAllTrucks">
<polygon fill="white" stroke="black" points="724.5,-79.5 724.5,-100.5 879.5,-100.5 879.5,-79.5 724.5,-79.5"/>
<text text-anchor="middle" x="802" y="-87.5" font-family="Helvetica,sans-Serif" font-size="10.00">BeamFactory::removeAllTrucks</text>
</a>
</g>
<!-- Node16&#45;&gt;Node17 -->
<g id="edge36" class="edge"><title>Node16&#45;&gt;Node17</title>
<path fill="none" stroke="midnightblue" d="M690.806,-77.6451C701.928,-78.8809 713.369,-80.1521 724.485,-81.3872"/>
<polygon fill="midnightblue" stroke="midnightblue" points="691.025,-74.148 680.7,-76.5222 690.252,-81.1052 691.025,-74.148"/>
</g>
<!-- Node18 -->
<g id="node37" class="node"><title>Node18</title>
<a xlink:href="class_ro_r_1_1_main_thread.html#a19637f726d0913e26e0d0548448d8c91" target="_top" xlink:title="RoR::MainThread::UnloadTerrain">
<polygon fill="white" stroke="black" points="931.5,-85.5 931.5,-106.5 1092.5,-106.5 1092.5,-85.5 931.5,-85.5"/>
<text text-anchor="middle" x="1012" y="-93.5" font-family="Helvetica,sans-Serif" font-size="10.00">RoR::MainThread::UnloadTerrain</text>
</a>
</g>
<!-- Node17&#45;&gt;Node18 -->
<g id="edge38" class="edge"><title>Node17&#45;&gt;Node18</title>
<path fill="none" stroke="midnightblue" d="M889.961,-92.5132C903.633,-92.9038 917.7,-93.3057 931.203,-93.6915"/>
<polygon fill="midnightblue" stroke="midnightblue" points="889.696,-89.0043 879.6,-92.2171 889.496,-96.0014 889.696,-89.0043"/>
</g>
<!-- Node18&#45;&gt;Node8 -->
<g id="edge40" class="edge"><title>Node18&#45;&gt;Node8</title>
<path fill="none" stroke="midnightblue" d="M1070.52,-108.694C1096.82,-114.4 1127.5,-121.055 1152.49,-126.477"/>
<polygon fill="midnightblue" stroke="midnightblue" points="1071.19,-105.258 1060.67,-106.559 1069.7,-112.099 1071.19,-105.258"/>
</g>
</g>
</svg>
        <g id="navigator" transform="translate(0 0)" fill="#404254">
                <rect fill="#f2f5e9" fill-opacity="0.5" stroke="#606060" stroke-width=".5" x="0" y="0" width="60" height="60"/>
                <use id="zoomplus" xlink:href="#zoomPlus" x="17" y="9" onmousedown="handleZoom(evt,'in')"/>
                <use id="zoomminus" xlink:href="#zoomMin" x="42" y="9" onmousedown="handleZoom(evt,'out')"/>
                <use id="reset" xlink:href="#resetDef" x="30" y="36" onmousedown="handleReset()"/>
                <g id="arrowUp" xlink:href="#dirArrow" transform="translate(30 24)" onmousedown="handlePan(0,-1)">
                  <use xlink:href="#rim" fill="#404040">
                        <set attributeName="fill" to="#808080" begin="arrowUp.mouseover" end="arrowUp.mouseout"/>
                  </use>
                  <path fill="none" stroke="white" stroke-width="1.5" d="M0,-3.0v7 M-2.5,-0.5L0,-3.0L2.5,-0.5"/>
                </g>
                <g id="arrowRight" xlink:href="#dirArrow" transform="rotate(90) translate(36 -43)" onmousedown="handlePan(1,0)">
                  <use xlink:href="#rim" fill="#404040">
                        <set attributeName="fill" to="#808080" begin="arrowRight.mouseover" end="arrowRight.mouseout"/>
                  </use>
                  <path fill="none" stroke="white" stroke-width="1.5" d="M0,-3.0v7 M-2.5,-0.5L0,-3.0L2.5,-0.5"/>
                </g>
                <g id="arrowDown" xlink:href="#dirArrow" transform="rotate(180) translate(-30 -48)" onmousedown="handlePan(0,1)">
                  <use xlink:href="#rim" fill="#404040">
                        <set attributeName="fill" to="#808080" begin="arrowDown.mouseover" end="arrowDown.mouseout"/>
                  </use>
                  <path fill="none" stroke="white" stroke-width="1.5" d="M0,-3.0v7 M-2.5,-0.5L0,-3.0L2.5,-0.5"/>
                </g>
                <g id="arrowLeft" xlink:href="#dirArrow" transform="rotate(270) translate(-36 17)" onmousedown="handlePan(-1,0)">
                  <use xlink:href="#rim" fill="#404040">
                        <set attributeName="fill" to="#808080" begin="arrowLeft.mouseover" end="arrowLeft.mouseout"/>
                  </use>
                  <path fill="none" stroke="white" stroke-width="1.5" d="M0,-3.0v7 M-2.5,-0.5L0,-3.0L2.5,-0.5"/>
                </g>
        </g>
        <svg viewBox="0 0 15 15" width="100%" height="30px" preserveAspectRatio="xMaxYMin meet">
         <g id="arrow_out" transform="scale(0.3 0.3)">
          <a xlink:href="class_character_acfb1f4e5d1cb5da7d438466ff398bf93_icgraph_org.svg" target="_base">
           <rect id="button" ry="5" rx="5" y="6" x="6" height="38" width="38"
                fill="#f2f5e9" fill-opacity="0.5" stroke="#606060" stroke-width="1.0"/>
           <path id="arrow"
             d="M 11.500037,31.436501 C 11.940474,20.09759 22.043105,11.32322 32.158766,21.979434 L 37.068811,17.246167 C 37.068811,17.246167 37.088388,32 37.088388,32 L 22.160133,31.978069 C 22.160133,31.978069 26.997745,27.140456 26.997745,27.140456 C 18.528582,18.264221 13.291696,25.230495 11.500037,31.436501 z"
             style="fill:#404040;"/>
          </a>
         </g>
        </svg>
</svg>
