<?xml version="1.0" encoding="UTF-8" standalone="no"?>
<!DOCTYPE svg PUBLIC "-//W3C//DTD SVG 1.1//EN"
 "http://www.w3.org/Graphics/SVG/1.1/DTD/svg11.dtd">
<!-- Generated by graphviz version 2.26.3 (20100126.1600)
 -->
<!-- Title: G Pages: 1 -->
<!--zoomable 135 -->
<svg id="main" version="1.1" xmlns="http://www.w3.org/2000/svg" xmlns:xlink="http://www.w3.org/1999/xlink" xml:space="preserve" onload="init(evt)">
        <defs>
                <circle id="rim" cx="0" cy="0" r="7"/>
                <circle id="rim2" cx="0" cy="0" r="3.5"/>
                <g id="zoomPlus">
                        <use xlink:href="#rim" fill="#404040">
                                <set attributeName="fill" to="#808080" begin="zoomplus.mouseover" end="zoomplus.mouseout"/>
                        </use>
                        <path d="M-4,0h8M0,-4v8" fill="none" stroke="white" stroke-width="1.5" pointer-events="none"/>
                </g>
                <g id="zoomMin">
                        <use xlink:href="#rim" fill="#404040">
                                <set attributeName="fill" to="#808080" begin="zoomminus.mouseover" end="zoomminus.mouseout"/>
                        </use>
                        <path d="M-4,0h8" fill="none" stroke="white" stroke-width="1.5" pointer-events="none"/>
                </g>
                <g id="dirArrow">
                        <path fill="none" stroke="white" stroke-width="1.5" d="M0,-3.0v7 M-2.5,-0.5L0,-3.0L2.5,-0.5"/>
                </g>
               <g id="resetDef">
                       <use xlink:href="#rim2" fill="#404040">
                               <set attributeName="fill" to="#808080" begin="reset.mouseover" end="reset.mouseout"/>
                       </use>
               </g>
        </defs>

<script type="text/javascript">
var viewWidth = 2048;
var viewHeight = 135;
var sectionId = 'dynsection-5';
</script>
<script xlink:href="svgpan.js"/>
<svg id="graph" class="graph">
<g id="viewport">
<title>G</title>
<polygon fill="white" stroke="white" points="-4,5 -4,-130.709 2045,-130.709 2045,5 -4,5"/>
<!-- Node1 -->
<g id="node1" class="node"><title>Node1</title>
<polygon fill="#bfbfbf" stroke="black" points="0.5,-46.2091 0.5,-67.2091 161.5,-67.2091 161.5,-46.2091 0.5,-46.2091"/>
<text text-anchor="middle" x="81" y="-54.2091" font-family="Helvetica,sans-Serif" font-size="10.00">RoR::RigLoadingProfiler::Restart</text>
</g>
<!-- Node2 -->
<g id="node3" class="node"><title>Node2</title>
<a xlink:href="class_ro_r_1_1_rig_loading_profiler.html#a1ce25890979cc7d857976ce706973717" target="_top" xlink:title="RoR::RigLoadingProfiler::Report">
<polygon fill="white" stroke="black" points="198,-46.2091 198,-67.2091 356,-67.2091 356,-46.2091 198,-46.2091"/>
<text text-anchor="middle" x="277" y="-54.2091" font-family="Helvetica,sans-Serif" font-size="10.00">RoR::RigLoadingProfiler::Report</text>
</a>
</g>
<!-- Node1&#45;&gt;Node2 -->
<g id="edge2" class="edge"><title>Node1&#45;&gt;Node2</title>
<path fill="none" stroke="midnightblue" d="M171.704,-56.7091C180.382,-56.7091 189.136,-56.7091 197.693,-56.7091"/>
<polygon fill="midnightblue" stroke="midnightblue" points="171.569,-53.2092 161.569,-56.7091 171.569,-60.2092 171.569,-53.2092"/>
</g>
<!-- Node3 -->
<g id="node5" class="node"><title>Node3</title>
<a xlink:href="class_beam_factory.html#a6eb09f405c2dc496a687caf0014800b0" target="_top" xlink:title="BeamFactory::CreateLocalRigInstance">
<polygon fill="white" stroke="black" points="392,-46.2091 392,-67.2091 578,-67.2091 578,-46.2091 392,-46.2091"/>
<text text-anchor="middle" x="485" y="-54.2091" font-family="Helvetica,sans-Serif" font-size="10.00">BeamFactory::CreateLocalRigInstance</text>
</a>
</g>
<!-- Node2&#45;&gt;Node3 -->
<g id="edge4" class="edge"><title>Node2&#45;&gt;Node3</title>
<path fill="none" stroke="midnightblue" d="M366.379,-56.7091C374.765,-56.7091 383.28,-56.7091 391.701,-56.7091"/>
<polygon fill="midnightblue" stroke="midnightblue" points="366.229,-53.2092 356.229,-56.7091 366.229,-60.2092 366.229,-53.2092"/>
</g>
<!-- Node4 -->
<g id="node7" class="node"><title>Node4</title>
<a xlink:href="class_ro_r_frame_listener.html#a6b384193b130f7c1fff95d2e740a370e" target="_top" xlink:title="RoRFrameListener::updateEvents">
<polygon fill="white" stroke="black" points="1283.5,-67.2091 1283.5,-88.2091 1448.5,-88.2091 1448.5,-67.2091 1283.5,-67.2091"/>
<text text-anchor="middle" x="1366" y="-75.2091" font-family="Helvetica,sans-Serif" font-size="10.00">RoRFrameListener::updateEvents</text>
</a>
</g>
<!-- Node3&#45;&gt;Node4 -->
<g id="edge6" class="edge"><title>Node3&#45;&gt;Node4</title>
<path fill="none" stroke="midnightblue" d="M588.116,-59.167C764.808,-63.3787 1121.98,-71.8924 1283.44,-75.741"/>
<polygon fill="midnightblue" stroke="midnightblue" points="588.113,-55.666 578.032,-58.9266 587.946,-62.664 588.113,-55.666"/>
</g>
<!-- Node6 -->
<g id="node11" class="node"><title>Node6</title>
<a xlink:href="class_ro_r_frame_listener.html#abbab3f9d2773790f0d8567ee4434a739" target="_top" xlink:title="RoRFrameListener::InitTrucks">
<polygon fill="white" stroke="black" points="1084.5,-27.2091 1084.5,-48.2091 1233.5,-48.2091 1233.5,-27.2091 1084.5,-27.2091"/>
<text text-anchor="middle" x="1159" y="-35.2091" font-family="Helvetica,sans-Serif" font-size="10.00">RoRFrameListener::InitTrucks</text>
</a>
</g>
<!-- Node3&#45;&gt;Node6 -->
<g id="edge10" class="edge"><title>Node3&#45;&gt;Node6</title>
<path fill="none" stroke="midnightblue" d="M521.266,-42.6187C546.764,-33.4914 581.92,-22.4523 614,-17.7091 804.814,10.5044 855.877,-0.538904 1048,-17.7091 1068.87,-19.5741 1091.68,-23.374 1111.17,-27.1656"/>
<polygon fill="midnightblue" stroke="midnightblue" points="519.842,-39.4124 511.652,-46.1332 522.246,-45.9869 519.842,-39.4124"/>
</g>
<!-- Node12 -->
<g id="node24" class="node"><title>Node12</title>
<a xlink:href="class_ro_r_frame_listener.html#accf1a2895ee6b67789cfaa570bfa01cb" target="_top" xlink:title="RoRFrameListener::reloadCurrentTruck">
<polygon fill="white" stroke="black" points="860,-105.209 860,-126.209 1048,-126.209 1048,-105.209 860,-105.209"/>
<text text-anchor="middle" x="954" y="-113.209" font-family="Helvetica,sans-Serif" font-size="10.00">RoRFrameListener::reloadCurrentTruck</text>
</a>
</g>
<!-- Node3&#45;&gt;Node12 -->
<g id="edge24" class="edge"><title>Node3&#45;&gt;Node12</title>
<path fill="none" stroke="midnightblue" d="M527.897,-70.1403C552.791,-77.3977 584.887,-85.8449 614,-90.7091 696.313,-104.462 791.095,-110.649 859.641,-113.433"/>
<polygon fill="midnightblue" stroke="midnightblue" points="528.626,-66.7061 518.044,-67.2208 526.637,-73.4176 528.626,-66.7061"/>
</g>
<!-- Node13 -->
<g id="node27" class="node"><title>Node13</title>
<a xlink:href="class_terrain_object_manager.html#a202d577cb222f42c46e5b6600c9626a4" target="_top" xlink:title="TerrainObjectManager::loadPreloadedTrucks">
<polygon fill="white" stroke="black" points="614,-27.2091 614,-48.2091 824,-48.2091 824,-27.2091 614,-27.2091"/>
<text text-anchor="middle" x="719" y="-35.2091" font-family="Helvetica,sans-Serif" font-size="10.00">TerrainObjectManager::loadPreloadedTrucks</text>
</a>
</g>
<!-- Node3&#45;&gt;Node13 -->
<g id="edge28" class="edge"><title>Node3&#45;&gt;Node13</title>
<path fill="none" stroke="midnightblue" d="M588.395,-48.3137C596.839,-47.6281 605.378,-46.9347 613.834,-46.2481"/>
<polygon fill="midnightblue" stroke="midnightblue" points="587.839,-44.8472 578.155,-49.1452 588.406,-51.8243 587.839,-44.8472"/>
</g>
<!-- Node5 -->
<g id="node9" class="node"><title>Node5</title>
<a xlink:href="class_ro_r_frame_listener.html#acd8647e188fb8e838689492965b86faf" target="_top" xlink:title="RoRFrameListener::frameStarted">
<polygon fill="white" stroke="black" points="1498.5,-67.2091 1498.5,-88.2091 1659.5,-88.2091 1659.5,-67.2091 1498.5,-67.2091"/>
<text text-anchor="middle" x="1579" y="-75.2091" font-family="Helvetica,sans-Serif" font-size="10.00">RoRFrameListener::frameStarted</text>
</a>
</g>
<!-- Node4&#45;&gt;Node5 -->
<g id="edge8" class="edge"><title>Node4&#45;&gt;Node5</title>
<path fill="none" stroke="midnightblue" d="M1458.72,-77.7091C1471.96,-77.7091 1485.5,-77.7091 1498.49,-77.7091"/>
<polygon fill="midnightblue" stroke="midnightblue" points="1458.66,-74.2092 1448.66,-77.7091 1458.66,-81.2092 1458.66,-74.2092"/>
</g>
<!-- Node6&#45;&gt;Node4 -->
<g id="edge12" class="edge"><title>Node6&#45;&gt;Node4</title>
<path fill="none" stroke="midnightblue" d="M1223.57,-50.1872C1251.83,-55.6481 1284.63,-61.9848 1311.62,-67.2003"/>
<polygon fill="midnightblue" stroke="midnightblue" points="1223.87,-46.6795 1213.39,-48.2186 1222.54,-53.5524 1223.87,-46.6795"/>
</g>
<!-- Node7 -->
<g id="node14" class="node"><title>Node7</title>
<a xlink:href="class_ro_r_1_1_main_thread.html#aa3feeebda7f3f4c31a6cb96ea60c09e0" target="_top" xlink:title="RoR::MainThread::SetupGameplayLoop">
<polygon fill="white" stroke="black" points="1270.5,-27.2091 1270.5,-48.2091 1461.5,-48.2091 1461.5,-27.2091 1270.5,-27.2091"/>
<text text-anchor="middle" x="1366" y="-35.2091" font-family="Helvetica,sans-Serif" font-size="10.00">RoR::MainThread::SetupGameplayLoop</text>
</a>
</g>
<!-- Node6&#45;&gt;Node7 -->
<g id="edge14" class="edge"><title>Node6&#45;&gt;Node7</title>
<path fill="none" stroke="midnightblue" d="M1243.91,-37.7091C1252.67,-37.7091 1261.61,-37.7091 1270.47,-37.7091"/>
<polygon fill="midnightblue" stroke="midnightblue" points="1243.73,-34.2092 1233.73,-37.7091 1243.73,-41.2092 1243.73,-34.2092"/>
</g>
<!-- Node8 -->
<g id="node16" class="node"><title>Node8</title>
<a xlink:href="class_ro_r_1_1_main_thread.html#a7e4d0bd23a40e509892883af75ea0dbf" target="_top" xlink:title="RoR::MainThread::Go">
<polygon fill="white" stroke="black" points="1522.5,-27.2091 1522.5,-48.2091 1635.5,-48.2091 1635.5,-27.2091 1522.5,-27.2091"/>
<text text-anchor="middle" x="1579" y="-35.2091" font-family="Helvetica,sans-Serif" font-size="10.00">RoR::MainThread::Go</text>
</a>
</g>
<!-- Node7&#45;&gt;Node8 -->
<g id="edge16" class="edge"><title>Node7&#45;&gt;Node8</title>
<path fill="none" stroke="midnightblue" d="M1471.86,-37.7091C1489.32,-37.7091 1506.81,-37.7091 1522.44,-37.7091"/>
<polygon fill="midnightblue" stroke="midnightblue" points="1471.6,-34.2092 1461.6,-37.7091 1471.6,-41.2092 1471.6,-34.2092"/>
</g>
<!-- Node9 -->
<g id="node18" class="node"><title>Node9</title>
<a xlink:href="main_2main__sim_2main_8cpp.html#a0ddf1224851353fc92bfbff6f499fa97" target="_top" xlink:title="main">
<polygon fill="white" stroke="black" points="1762,-47.2091 1762,-68.2091 1800,-68.2091 1800,-47.2091 1762,-47.2091"/>
<text text-anchor="middle" x="1781" y="-55.2091" font-family="Helvetica,sans-Serif" font-size="10.00">main</text>
</a>
</g>
<!-- Node8&#45;&gt;Node9 -->
<g id="edge18" class="edge"><title>Node8&#45;&gt;Node9</title>
<path fill="none" stroke="midnightblue" d="M1645.66,-44.3089C1686.25,-48.3283 1735.25,-53.1797 1761.74,-55.8021"/>
<polygon fill="midnightblue" stroke="midnightblue" points="1645.83,-40.8092 1635.54,-43.3068 1645.14,-47.7751 1645.83,-40.8092"/>
</g>
<!-- Node10 -->
<g id="node20" class="node"><title>Node10</title>
<a xlink:href="class_ro_r_1_1_main_thread.html#a7a2db954fd2f35d63982d8603d2b9614" target="_top" xlink:title="RoR::MainThread::RequestRestart">
<polygon fill="white" stroke="black" points="1696.5,-7.20905 1696.5,-28.2091 1865.5,-28.2091 1865.5,-7.20905 1696.5,-7.20905"/>
<text text-anchor="middle" x="1781" y="-15.2091" font-family="Helvetica,sans-Serif" font-size="10.00">RoR::MainThread::RequestRestart</text>
</a>
</g>
<!-- Node8&#45;&gt;Node10 -->
<g id="edge20" class="edge"><title>Node8&#45;&gt;Node10</title>
<path fill="none" stroke="midnightblue" d="M1645.89,-31.0858C1661.97,-29.4938 1679.36,-27.7724 1696.14,-26.1114"/>
<polygon fill="midnightblue" stroke="midnightblue" points="1645.14,-27.643 1635.54,-32.1113 1645.83,-34.6089 1645.14,-27.643"/>
</g>
<!-- Node11 -->
<g id="node22" class="node"><title>Node11</title>
<a xlink:href="class_ro_r_frame_listener.html#af2779b96aa0f91920bd100bc30261402" target="_top" xlink:title="RoRFrameListener::Restart">
<polygon fill="white" stroke="black" points="1902.5,-7.20905 1902.5,-28.2091 2039.5,-28.2091 2039.5,-7.20905 1902.5,-7.20905"/>
<text text-anchor="middle" x="1971" y="-15.2091" font-family="Helvetica,sans-Serif" font-size="10.00">RoRFrameListener::Restart</text>
</a>
</g>
<!-- Node10&#45;&gt;Node11 -->
<g id="edge22" class="edge"><title>Node10&#45;&gt;Node11</title>
<path fill="none" stroke="midnightblue" d="M1875.82,-17.7091C1884.78,-17.7091 1893.75,-17.7091 1902.4,-17.7091"/>
<polygon fill="midnightblue" stroke="midnightblue" points="1875.72,-14.2092 1865.72,-17.7091 1875.72,-21.2092 1875.72,-14.2092"/>
</g>
<!-- Node12&#45;&gt;Node4 -->
<g id="edge26" class="edge"><title>Node12&#45;&gt;Node4</title>
<path fill="none" stroke="midnightblue" d="M1058.34,-106.621C1111.02,-101.974 1175.91,-96.1626 1234,-90.7091 1249.93,-89.2131 1266.95,-87.5713 1283.27,-85.973"/>
<polygon fill="midnightblue" stroke="midnightblue" points="1057.97,-103.14 1048.31,-107.504 1058.58,-110.113 1057.97,-103.14"/>
</g>
<!-- Node14 -->
<g id="node29" class="node"><title>Node14</title>
<a xlink:href="class_terrain_manager.html#ac666fc0221c16001186b83cd6df66691" target="_top" xlink:title="TerrainManager::loadPreloadedTrucks">
<polygon fill="white" stroke="black" points="863,-27.2091 863,-48.2091 1045,-48.2091 1045,-27.2091 863,-27.2091"/>
<text text-anchor="middle" x="954" y="-35.2091" font-family="Helvetica,sans-Serif" font-size="10.00">TerrainManager::loadPreloadedTrucks</text>
</a>
</g>
<!-- Node13&#45;&gt;Node14 -->
<g id="edge30" class="edge"><title>Node13&#45;&gt;Node14</title>
<path fill="none" stroke="midnightblue" d="M834.176,-37.7091C843.837,-37.7091 853.518,-37.7091 862.959,-37.7091"/>
<polygon fill="midnightblue" stroke="midnightblue" points="834.128,-34.2092 824.128,-37.7091 834.128,-41.2092 834.128,-34.2092"/>
</g>
<!-- Node14&#45;&gt;Node6 -->
<g id="edge32" class="edge"><title>Node14&#45;&gt;Node6</title>
<path fill="none" stroke="midnightblue" d="M1055.32,-37.7091C1065.13,-37.7091 1074.96,-37.7091 1084.45,-37.7091"/>
<polygon fill="midnightblue" stroke="midnightblue" points="1055.11,-34.2092 1045.11,-37.7091 1055.11,-41.2092 1055.11,-34.2092"/>
</g>
</g>
</svg>
        <g id="navigator" transform="translate(0 0)" fill="#404254">
                <rect fill="#f2f5e9" fill-opacity="0.5" stroke="#606060" stroke-width=".5" x="0" y="0" width="60" height="60"/>
                <use id="zoomplus" xlink:href="#zoomPlus" x="17" y="9" onmousedown="handleZoom(evt,'in')"/>
                <use id="zoomminus" xlink:href="#zoomMin" x="42" y="9" onmousedown="handleZoom(evt,'out')"/>
                <use id="reset" xlink:href="#resetDef" x="30" y="36" onmousedown="handleReset()"/>
                <g id="arrowUp" xlink:href="#dirArrow" transform="translate(30 24)" onmousedown="handlePan(0,-1)">
                  <use xlink:href="#rim" fill="#404040">
                        <set attributeName="fill" to="#808080" begin="arrowUp.mouseover" end="arrowUp.mouseout"/>
                  </use>
                  <path fill="none" stroke="white" stroke-width="1.5" d="M0,-3.0v7 M-2.5,-0.5L0,-3.0L2.5,-0.5"/>
                </g>
                <g id="arrowRight" xlink:href="#dirArrow" transform="rotate(90) translate(36 -43)" onmousedown="handlePan(1,0)">
                  <use xlink:href="#rim" fill="#404040">
                        <set attributeName="fill" to="#808080" begin="arrowRight.mouseover" end="arrowRight.mouseout"/>
                  </use>
                  <path fill="none" stroke="white" stroke-width="1.5" d="M0,-3.0v7 M-2.5,-0.5L0,-3.0L2.5,-0.5"/>
                </g>
                <g id="arrowDown" xlink:href="#dirArrow" transform="rotate(180) translate(-30 -48)" onmousedown="handlePan(0,1)">
                  <use xlink:href="#rim" fill="#404040">
                        <set attributeName="fill" to="#808080" begin="arrowDown.mouseover" end="arrowDown.mouseout"/>
                  </use>
                  <path fill="none" stroke="white" stroke-width="1.5" d="M0,-3.0v7 M-2.5,-0.5L0,-3.0L2.5,-0.5"/>
                </g>
                <g id="arrowLeft" xlink:href="#dirArrow" transform="rotate(270) translate(-36 17)" onmousedown="handlePan(-1,0)">
                  <use xlink:href="#rim" fill="#404040">
                        <set attributeName="fill" to="#808080" begin="arrowLeft.mouseover" end="arrowLeft.mouseout"/>
                  </use>
                  <path fill="none" stroke="white" stroke-width="1.5" d="M0,-3.0v7 M-2.5,-0.5L0,-3.0L2.5,-0.5"/>
                </g>
        </g>
</svg>
