<?xml version="1.0" encoding="UTF-8" standalone="no"?>
<!DOCTYPE svg PUBLIC "-//W3C//DTD SVG 1.1//EN"
 "http://www.w3.org/Graphics/SVG/1.1/DTD/svg11.dtd">
<!-- Generated by graphviz version 2.26.3 (20100126.1600)
 -->
<!-- Title: G Pages: 1 -->
<!--zoomable 386 -->
<svg id="main" version="1.1" xmlns="http://www.w3.org/2000/svg" xmlns:xlink="http://www.w3.org/1999/xlink" xml:space="preserve" onload="init(evt)">
        <defs>
                <circle id="rim" cx="0" cy="0" r="7"/>
                <circle id="rim2" cx="0" cy="0" r="3.5"/>
                <g id="zoomPlus">
                        <use xlink:href="#rim" fill="#404040">
                                <set attributeName="fill" to="#808080" begin="zoomplus.mouseover" end="zoomplus.mouseout"/>
                        </use>
                        <path d="M-4,0h8M0,-4v8" fill="none" stroke="white" stroke-width="1.5" pointer-events="none"/>
                </g>
                <g id="zoomMin">
                        <use xlink:href="#rim" fill="#404040">
                                <set attributeName="fill" to="#808080" begin="zoomminus.mouseover" end="zoomminus.mouseout"/>
                        </use>
                        <path d="M-4,0h8" fill="none" stroke="white" stroke-width="1.5" pointer-events="none"/>
                </g>
                <g id="dirArrow">
                        <path fill="none" stroke="white" stroke-width="1.5" d="M0,-3.0v7 M-2.5,-0.5L0,-3.0L2.5,-0.5"/>
                </g>
               <g id="resetDef">
                       <use xlink:href="#rim2" fill="#404040">
                               <set attributeName="fill" to="#808080" begin="reset.mouseover" end="reset.mouseout"/>
                       </use>
               </g>
        </defs>

<script type="text/javascript">
var viewWidth = 1600;
var viewHeight = 386;
var sectionId = 'dynsection-1';
</script>
<script xlink:href="svgpan.js"/>
<svg id="graph" class="graph">
<g id="viewport">
<title>G</title>
<polygon fill="white" stroke="white" points="-4,5 -4,-382 1597,-382 1597,5 -4,5"/>
<!-- Node1 -->
<g id="node1" class="node"><title>Node1</title>
<polygon fill="#bfbfbf" stroke="black" points="0,-199.5 0,-220.5 284,-220.5 284,-199.5 0,-199.5"/>
<text text-anchor="middle" x="142" y="-207.5" font-family="Helvetica,sans-Serif" font-size="10.00">Hydrax::Noise::Noise::areGPUNormalMapResourcesCreated</text>
</g>
<!-- Node2 -->
<g id="node3" class="node"><title>Node2</title>
<a xlink:href="class_hydrax_1_1_noise_1_1_f_f_t.html#a9567d90d8fae8dbd74d05d1e3b8281e4" target="_top" xlink:title="Hydrax::Noise::FFT::remove">
<polygon fill="white" stroke="black" points="331,-356.5 331,-377.5 473,-377.5 473,-356.5 331,-356.5"/>
<text text-anchor="middle" x="402" y="-364.5" font-family="Helvetica,sans-Serif" font-size="10.00">Hydrax::Noise::FFT::remove</text>
</a>
</g>
<!-- Node1&#45;&gt;Node2 -->
<g id="edge2" class="edge"><title>Node1&#45;&gt;Node2</title>
<path fill="none" stroke="midnightblue" d="M159.812,-227.922C190.036,-257.294 254.49,-315.549 320,-347 327.926,-350.805 336.641,-353.925 345.34,-356.473"/>
<polygon fill="midnightblue" stroke="midnightblue" points="162.136,-225.298 152.553,-220.779 157.226,-230.288 162.136,-225.298"/>
</g>
<!-- Node3 -->
<g id="node5" class="node"><title>Node3</title>
<a xlink:href="class_hydrax_1_1_noise_1_1_f_f_t.html#a1d7ec06eb11cda608cc8f73256c35be5" target="_top" xlink:title="Hydrax::Noise::FFT::setOptions">
<polygon fill="white" stroke="black" points="323.5,-316.5 323.5,-337.5 480.5,-337.5 480.5,-316.5 323.5,-316.5"/>
<text text-anchor="middle" x="402" y="-324.5" font-family="Helvetica,sans-Serif" font-size="10.00">Hydrax::Noise::FFT::setOptions</text>
</a>
</g>
<!-- Node1&#45;&gt;Node3 -->
<g id="edge4" class="edge"><title>Node1&#45;&gt;Node3</title>
<path fill="none" stroke="midnightblue" d="M166.645,-226.132C200.116,-247.399 262.395,-284.717 320,-307 329.43,-310.648 339.734,-313.782 349.755,-316.415"/>
<polygon fill="midnightblue" stroke="midnightblue" points="168.303,-223.038 157.996,-220.585 164.524,-228.93 168.303,-223.038"/>
</g>
<!-- Node5 -->
<g id="node9" class="node"><title>Node5</title>
<a xlink:href="class_hydrax_1_1_noise_1_1_f_f_t.html#aedb7b8614828cda29b62aa6c1509e22a" target="_top" xlink:title="Hydrax::Noise::FFT::update">
<polygon fill="white" stroke="black" points="332.5,-276.5 332.5,-297.5 471.5,-297.5 471.5,-276.5 332.5,-276.5"/>
<text text-anchor="middle" x="402" y="-284.5" font-family="Helvetica,sans-Serif" font-size="10.00">Hydrax::Noise::FFT::update</text>
</a>
</g>
<!-- Node1&#45;&gt;Node5 -->
<g id="edge8" class="edge"><title>Node1&#45;&gt;Node5</title>
<path fill="none" stroke="midnightblue" d="M187.364,-223.435C238.29,-238.517 319.867,-262.676 366.407,-276.459"/>
<polygon fill="midnightblue" stroke="midnightblue" points="188.189,-220.029 177.607,-220.545 186.201,-226.741 188.189,-220.029"/>
</g>
<!-- Node6 -->
<g id="node11" class="node"><title>Node6</title>
<a xlink:href="class_hydrax_1_1_hydrax.html#aaf840e19208614533a6b344e32965ee2" target="_top" xlink:title="Hydrax::Hydrax::create">
<polygon fill="white" stroke="black" points="1129.5,-180.5 1129.5,-201.5 1248.5,-201.5 1248.5,-180.5 1129.5,-180.5"/>
<text text-anchor="middle" x="1189" y="-188.5" font-family="Helvetica,sans-Serif" font-size="10.00">Hydrax::Hydrax::create</text>
</a>
</g>
<!-- Node1&#45;&gt;Node6 -->
<g id="edge10" class="edge"><title>Node1&#45;&gt;Node6</title>
<path fill="none" stroke="midnightblue" d="M294.073,-210C384.177,-210 500.598,-210 604,-210 604,-210 604,-210 811,-210 923.689,-210 1055.04,-201.473 1129.47,-195.844"/>
<polygon fill="midnightblue" stroke="midnightblue" points="294.052,-206.5 284.052,-210 294.052,-213.5 294.052,-206.5"/>
</g>
<!-- Node9 -->
<g id="node17" class="node"><title>Node9</title>
<a xlink:href="class_hydrax_1_1_hydrax.html#a3f678db49fe45320efb237d145ec63e4" target="_top" xlink:title="Hydrax::Hydrax::setModule">
<polygon fill="white" stroke="black" points="742.5,-238.5 742.5,-259.5 879.5,-259.5 879.5,-238.5 742.5,-238.5"/>
<text text-anchor="middle" x="811" y="-246.5" font-family="Helvetica,sans-Serif" font-size="10.00">Hydrax::Hydrax::setModule</text>
</a>
</g>
<!-- Node1&#45;&gt;Node9 -->
<g id="edge16" class="edge"><title>Node1&#45;&gt;Node9</title>
<path fill="none" stroke="midnightblue" d="M280.506,-221.269C293.85,-222.241 307.182,-223.17 320,-224 470.547,-233.751 647.266,-241.955 742.253,-246.099"/>
<polygon fill="midnightblue" stroke="midnightblue" points="280.538,-217.762 270.308,-220.517 280.023,-224.743 280.538,-217.762"/>
</g>
<!-- Node10 -->
<g id="node20" class="node"><title>Node10</title>
<a xlink:href="class_hydrax_1_1_noise_1_1_perlin.html#a666010a5142bbb2b03c97aa5aa7bdef1" target="_top" xlink:title="Hydrax::Noise::Perlin::remove">
<polygon fill="white" stroke="black" points="327.5,-122.5 327.5,-143.5 476.5,-143.5 476.5,-122.5 327.5,-122.5"/>
<text text-anchor="middle" x="402" y="-130.5" font-family="Helvetica,sans-Serif" font-size="10.00">Hydrax::Noise::Perlin::remove</text>
</a>
</g>
<!-- Node1&#45;&gt;Node10 -->
<g id="edge20" class="edge"><title>Node1&#45;&gt;Node10</title>
<path fill="none" stroke="midnightblue" d="M187.364,-196.565C238.29,-181.483 319.867,-157.324 366.407,-143.541"/>
<polygon fill="midnightblue" stroke="midnightblue" points="186.201,-193.259 177.607,-199.455 188.189,-199.971 186.201,-193.259"/>
</g>
<!-- Node11 -->
<g id="node22" class="node"><title>Node11</title>
<a xlink:href="class_hydrax_1_1_noise_1_1_real.html#a2d87dc48e9afca9c4f220ae2ef57aed0" target="_top" xlink:title="Hydrax::Noise::Real::remove">
<polygon fill="white" stroke="black" points="532,-160.5 532,-181.5 676,-181.5 676,-160.5 532,-160.5"/>
<text text-anchor="middle" x="604" y="-168.5" font-family="Helvetica,sans-Serif" font-size="10.00">Hydrax::Noise::Real::remove</text>
</a>
</g>
<!-- Node1&#45;&gt;Node11 -->
<g id="edge52" class="edge"><title>Node1&#45;&gt;Node11</title>
<path fill="none" stroke="midnightblue" d="M276.484,-198.647C359.911,-191.605 463.816,-182.834 531.933,-177.084"/>
<polygon fill="midnightblue" stroke="midnightblue" points="276.085,-195.169 266.415,-199.497 276.674,-202.144 276.085,-195.169"/>
</g>
<!-- Node12 -->
<g id="node24" class="node"><title>Node12</title>
<a xlink:href="class_hydrax_1_1_noise_1_1_perlin.html#af32b1054557536eb5073e9ad1251a4cf" target="_top" xlink:title="Hydrax::Noise::Perlin::setOptions">
<polygon fill="white" stroke="black" points="320,-82.5 320,-103.5 484,-103.5 484,-82.5 320,-82.5"/>
<text text-anchor="middle" x="402" y="-90.5" font-family="Helvetica,sans-Serif" font-size="10.00">Hydrax::Noise::Perlin::setOptions</text>
</a>
</g>
<!-- Node1&#45;&gt;Node12 -->
<g id="edge24" class="edge"><title>Node1&#45;&gt;Node12</title>
<path fill="none" stroke="midnightblue" d="M166.645,-193.868C200.116,-172.601 262.395,-135.283 320,-113 329.43,-109.352 339.734,-106.218 349.755,-103.585"/>
<polygon fill="midnightblue" stroke="midnightblue" points="164.524,-191.07 157.996,-199.415 168.303,-196.962 164.524,-191.07"/>
</g>
<!-- Node15 -->
<g id="node30" class="node"><title>Node15</title>
<a xlink:href="class_hydrax_1_1_noise_1_1_perlin.html#a2037c02fa7d577eb72487a1b778b62dd" target="_top" xlink:title="Hydrax::Noise::Perlin::update">
<polygon fill="white" stroke="black" points="329,-40.5 329,-61.5 475,-61.5 475,-40.5 329,-40.5"/>
<text text-anchor="middle" x="402" y="-48.5" font-family="Helvetica,sans-Serif" font-size="10.00">Hydrax::Noise::Perlin::update</text>
</a>
</g>
<!-- Node1&#45;&gt;Node15 -->
<g id="edge30" class="edge"><title>Node1&#45;&gt;Node15</title>
<path fill="none" stroke="midnightblue" d="M159.893,-192.244C190.234,-163.113 254.855,-105.199 320,-73 329.382,-68.363 339.867,-64.6059 350.122,-61.5972"/>
<polygon fill="midnightblue" stroke="midnightblue" points="157.337,-189.847 152.604,-199.325 162.215,-194.868 157.337,-189.847"/>
</g>
<!-- Node4 -->
<g id="node7" class="node"><title>Node4</title>
<a xlink:href="class_hydrax_1_1_noise_1_1_f_f_t.html#a64245b9e56eeb8627ac3f5260dc203dd" target="_top" xlink:title="Hydrax::Noise::FFT::loadCfg">
<polygon fill="white" stroke="black" points="532.5,-316.5 532.5,-337.5 675.5,-337.5 675.5,-316.5 532.5,-316.5"/>
<text text-anchor="middle" x="604" y="-324.5" font-family="Helvetica,sans-Serif" font-size="10.00">Hydrax::Noise::FFT::loadCfg</text>
</a>
</g>
<!-- Node3&#45;&gt;Node4 -->
<g id="edge6" class="edge"><title>Node3&#45;&gt;Node4</title>
<path fill="none" stroke="midnightblue" d="M490.76,-327C504.705,-327 518.966,-327 532.458,-327"/>
<polygon fill="midnightblue" stroke="midnightblue" points="490.677,-323.5 480.677,-327 490.677,-330.5 490.677,-323.5"/>
</g>
<!-- Node7 -->
<g id="node13" class="node"><title>Node7</title>
<a xlink:href="class_hydrax_water.html#aedfd9537f96021b60a195b2bb6a9ee2d" target="_top" xlink:title="HydraxWater::InitHydrax">
<polygon fill="white" stroke="black" points="1292.5,-180.5 1292.5,-201.5 1417.5,-201.5 1417.5,-180.5 1292.5,-180.5"/>
<text text-anchor="middle" x="1355" y="-188.5" font-family="Helvetica,sans-Serif" font-size="10.00">HydraxWater::InitHydrax</text>
</a>
</g>
<!-- Node6&#45;&gt;Node7 -->
<g id="edge12" class="edge"><title>Node6&#45;&gt;Node7</title>
<path fill="none" stroke="midnightblue" d="M1258.99,-191C1270.07,-191 1281.46,-191 1292.36,-191"/>
<polygon fill="midnightblue" stroke="midnightblue" points="1258.93,-187.5 1248.93,-191 1258.93,-194.5 1258.93,-187.5"/>
</g>
<!-- Node8 -->
<g id="node15" class="node"><title>Node8</title>
<a xlink:href="class_hydrax_water.html#a20bb0db860124c8e18903f5d640f88db" target="_top" xlink:title="HydraxWater::HydraxWater">
<polygon fill="white" stroke="black" points="1454,-180.5 1454,-201.5 1592,-201.5 1592,-180.5 1454,-180.5"/>
<text text-anchor="middle" x="1523" y="-188.5" font-family="Helvetica,sans-Serif" font-size="10.00">HydraxWater::HydraxWater</text>
</a>
</g>
<!-- Node7&#45;&gt;Node8 -->
<g id="edge14" class="edge"><title>Node7&#45;&gt;Node8</title>
<path fill="none" stroke="midnightblue" d="M1427.68,-191C1436.38,-191 1445.25,-191 1453.9,-191"/>
<polygon fill="midnightblue" stroke="midnightblue" points="1427.56,-187.5 1417.56,-191 1427.56,-194.5 1427.56,-187.5"/>
</g>
<!-- Node9&#45;&gt;Node7 -->
<g id="edge18" class="edge"><title>Node9&#45;&gt;Node7</title>
<path fill="none" stroke="midnightblue" d="M889.539,-245.011C978.693,-239.853 1128.33,-229.287 1256,-211 1273.18,-208.539 1291.88,-204.99 1308.35,-201.563"/>
<polygon fill="midnightblue" stroke="midnightblue" points="889.29,-241.519 879.506,-245.583 889.689,-248.508 889.29,-241.519"/>
</g>
<!-- Node10&#45;&gt;Node11 -->
<g id="edge22" class="edge"><title>Node10&#45;&gt;Node11</title>
<path fill="none" stroke="midnightblue" d="M468.072,-145.429C493.872,-150.283 523.139,-155.789 547.891,-160.445"/>
<polygon fill="midnightblue" stroke="midnightblue" points="468.475,-141.944 458,-143.535 467.181,-148.823 468.475,-141.944"/>
</g>
<!-- Node13 -->
<g id="node26" class="node"><title>Node13</title>
<a xlink:href="class_hydrax_1_1_noise_1_1_perlin.html#a3a2dab14cfbda1ccf8fc5de4bb89f124" target="_top" xlink:title="Hydrax::Noise::Perlin::loadCfg">
<polygon fill="white" stroke="black" points="529,-120.5 529,-141.5 679,-141.5 679,-120.5 529,-120.5"/>
<text text-anchor="middle" x="604" y="-128.5" font-family="Helvetica,sans-Serif" font-size="10.00">Hydrax::Noise::Perlin::loadCfg</text>
</a>
</g>
<!-- Node12&#45;&gt;Node13 -->
<g id="edge26" class="edge"><title>Node12&#45;&gt;Node13</title>
<path fill="none" stroke="midnightblue" d="M468.072,-105.429C493.872,-110.283 523.139,-115.789 547.891,-120.445"/>
<polygon fill="midnightblue" stroke="midnightblue" points="468.475,-101.944 458,-103.535 467.181,-108.823 468.475,-101.944"/>
</g>
<!-- Node14 -->
<g id="node28" class="node"><title>Node14</title>
<a xlink:href="class_hydrax_1_1_noise_1_1_real.html#af858ae00b9af27b190ca5653b42bfc7f" target="_top" xlink:title="Hydrax::Noise::Real::loadCfg">
<polygon fill="white" stroke="black" points="531,-80.5 531,-101.5 677,-101.5 677,-80.5 531,-80.5"/>
<text text-anchor="middle" x="604" y="-88.5" font-family="Helvetica,sans-Serif" font-size="10.00">Hydrax::Noise::Real::loadCfg</text>
</a>
</g>
<!-- Node12&#45;&gt;Node14 -->
<g id="edge28" class="edge"><title>Node12&#45;&gt;Node14</title>
<path fill="none" stroke="midnightblue" d="M494.339,-92.0857C506.523,-91.9651 518.875,-91.8428 530.681,-91.7259"/>
<polygon fill="midnightblue" stroke="midnightblue" points="494.126,-88.5876 484.161,-92.1865 494.195,-95.5872 494.126,-88.5876"/>
</g>
<!-- Node16 -->
<g id="node32" class="node"><title>Node16</title>
<a xlink:href="class_hydrax_1_1_god_rays_manager.html#a90ec2ead8e869ab4388641de1edeba11" target="_top" xlink:title="Hydrax::GodRaysManager::update">
<polygon fill="white" stroke="black" points="520,-40.5 520,-61.5 688,-61.5 688,-40.5 520,-40.5"/>
<text text-anchor="middle" x="604" y="-48.5" font-family="Helvetica,sans-Serif" font-size="10.00">Hydrax::GodRaysManager::update</text>
</a>
</g>
<!-- Node15&#45;&gt;Node16 -->
<g id="edge32" class="edge"><title>Node15&#45;&gt;Node16</title>
<path fill="none" stroke="midnightblue" d="M485.493,-51C496.798,-51 508.405,-51 519.723,-51"/>
<polygon fill="midnightblue" stroke="midnightblue" points="485.212,-47.5001 475.212,-51 485.212,-54.5001 485.212,-47.5001"/>
</g>
<!-- Node23 -->
<g id="node48" class="node"><title>Node23</title>
<a xlink:href="class_hydrax_1_1_noise_1_1_real.html#a436ebf5d7564c7c200619f8f4d192183" target="_top" xlink:title="Hydrax::Noise::Real::update">
<polygon fill="white" stroke="black" points="533.5,-0.5 533.5,-21.5 674.5,-21.5 674.5,-0.5 533.5,-0.5"/>
<text text-anchor="middle" x="604" y="-8.5" font-family="Helvetica,sans-Serif" font-size="10.00">Hydrax::Noise::Real::update</text>
</a>
</g>
<!-- Node15&#45;&gt;Node23 -->
<g id="edge50" class="edge"><title>Node15&#45;&gt;Node23</title>
<path fill="none" stroke="midnightblue" d="M465.015,-38.5219C492.592,-33.061 524.592,-26.7243 550.931,-21.5087"/>
<polygon fill="midnightblue" stroke="midnightblue" points="464.203,-35.1146 455.073,-40.4905 465.563,-41.9812 464.203,-35.1146"/>
</g>
<!-- Node17 -->
<g id="node34" class="node"><title>Node17</title>
<a xlink:href="class_hydrax_1_1_hydrax.html#a571ddf613078bcaae4b45c22074e53bc" target="_top" xlink:title="Hydrax::Hydrax::_checkUnderwater">
<polygon fill="white" stroke="black" points="724.5,-102.5 724.5,-123.5 897.5,-123.5 897.5,-102.5 724.5,-102.5"/>
<text text-anchor="middle" x="811" y="-110.5" font-family="Helvetica,sans-Serif" font-size="10.00">Hydrax::Hydrax::_checkUnderwater</text>
</a>
</g>
<!-- Node16&#45;&gt;Node17 -->
<g id="edge34" class="edge"><title>Node16&#45;&gt;Node17</title>
<path fill="none" stroke="midnightblue" d="M661.644,-63.956C670.507,-66.1695 679.525,-68.55 688,-71 720.733,-80.4619 757.645,-93.3742 782.417,-102.375"/>
<polygon fill="midnightblue" stroke="midnightblue" points="662.285,-60.5098 651.74,-61.5331 660.622,-67.3093 662.285,-60.5098"/>
</g>
<!-- Node17&#45;&gt;Node6 -->
<g id="edge36" class="edge"><title>Node17&#45;&gt;Node6</title>
<path fill="none" stroke="midnightblue" d="M848.443,-126.976C872.579,-135.534 904.8,-146.127 934,-153 1000.12,-168.562 1077.45,-179.027 1129.47,-184.97"/>
<polygon fill="midnightblue" stroke="midnightblue" points="849.551,-123.655 838.956,-123.569 847.185,-130.243 849.551,-123.655"/>
</g>
<!-- Node18 -->
<g id="node37" class="node"><title>Node18</title>
<a xlink:href="class_hydrax_1_1_hydrax.html#a8564eb97a6a5085af5d0475947af1599" target="_top" xlink:title="Hydrax::Hydrax::_checkVisible">
<polygon fill="white" stroke="black" points="934,-122.5 934,-143.5 1086,-143.5 1086,-122.5 934,-122.5"/>
<text text-anchor="middle" x="1010" y="-130.5" font-family="Helvetica,sans-Serif" font-size="10.00">Hydrax::Hydrax::_checkVisible</text>
</a>
</g>
<!-- Node17&#45;&gt;Node18 -->
<g id="edge38" class="edge"><title>Node17&#45;&gt;Node18</title>
<path fill="none" stroke="midnightblue" d="M907.913,-122.74C916.632,-123.616 925.377,-124.495 933.882,-125.35"/>
<polygon fill="midnightblue" stroke="midnightblue" points="908.005,-119.232 897.705,-121.714 907.305,-126.197 908.005,-119.232"/>
</g>
<!-- Node21 -->
<g id="node44" class="node"><title>Node21</title>
<a xlink:href="class_hydrax_1_1_hydrax.html#ac584e30a6cbfb5d8884afb182c29d36a" target="_top" xlink:title="Hydrax::Hydrax::update">
<polygon fill="white" stroke="black" points="949.5,-82.5 949.5,-103.5 1070.5,-103.5 1070.5,-82.5 949.5,-82.5"/>
<text text-anchor="middle" x="1010" y="-90.5" font-family="Helvetica,sans-Serif" font-size="10.00">Hydrax::Hydrax::update</text>
</a>
</g>
<!-- Node17&#45;&gt;Node21 -->
<g id="edge46" class="edge"><title>Node17&#45;&gt;Node21</title>
<path fill="none" stroke="midnightblue" d="M907.937,-103.258C922.028,-101.841 936.188,-100.418 949.284,-99.1021"/>
<polygon fill="midnightblue" stroke="midnightblue" points="907.305,-99.8034 897.705,-104.286 908.005,-106.768 907.305,-99.8034"/>
</g>
<!-- Node18&#45;&gt;Node6 -->
<g id="edge40" class="edge"><title>Node18&#45;&gt;Node6</title>
<path fill="none" stroke="midnightblue" d="M1051.93,-146.587C1083.87,-156.935 1127.2,-170.974 1156.52,-180.477"/>
<polygon fill="midnightblue" stroke="midnightblue" points="1053.01,-143.256 1042.42,-143.503 1050.85,-149.915 1053.01,-143.256"/>
</g>
<!-- Node19 -->
<g id="node40" class="node"><title>Node19</title>
<a xlink:href="class_hydrax_1_1_hydrax.html#a2c6e89c89098c1ae2f152b0cac0ecfde" target="_top" xlink:title="Hydrax::Hydrax::setVisible">
<polygon fill="white" stroke="black" points="1122,-122.5 1122,-143.5 1256,-143.5 1256,-122.5 1122,-122.5"/>
<text text-anchor="middle" x="1189" y="-130.5" font-family="Helvetica,sans-Serif" font-size="10.00">Hydrax::Hydrax::setVisible</text>
</a>
</g>
<!-- Node18&#45;&gt;Node19 -->
<g id="edge42" class="edge"><title>Node18&#45;&gt;Node19</title>
<path fill="none" stroke="midnightblue" d="M1096.26,-133C1104.89,-133 1113.56,-133 1121.95,-133"/>
<polygon fill="midnightblue" stroke="midnightblue" points="1096.17,-129.5 1086.17,-133 1096.17,-136.5 1096.17,-129.5"/>
</g>
<!-- Node20 -->
<g id="node42" class="node"><title>Node20</title>
<a xlink:href="class_hydrax_water.html#a21b7f14c1cce1f562a596543dc335a4c" target="_top" xlink:title="HydraxWater::setVisible">
<polygon fill="white" stroke="black" points="1293.5,-122.5 1293.5,-143.5 1416.5,-143.5 1416.5,-122.5 1293.5,-122.5"/>
<text text-anchor="middle" x="1355" y="-130.5" font-family="Helvetica,sans-Serif" font-size="10.00">HydraxWater::setVisible</text>
</a>
</g>
<!-- Node19&#45;&gt;Node20 -->
<g id="edge44" class="edge"><title>Node19&#45;&gt;Node20</title>
<path fill="none" stroke="midnightblue" d="M1266.24,-133C1275.33,-133 1284.51,-133 1293.34,-133"/>
<polygon fill="midnightblue" stroke="midnightblue" points="1266.04,-129.5 1256.04,-133 1266.04,-136.5 1266.04,-129.5"/>
</g>
<!-- Node22 -->
<g id="node46" class="node"><title>Node22</title>
<a xlink:href="class_hydrax_water.html#a00888728a3ac027b68807892c1ec614b" target="_top" xlink:title="HydraxWater::framestep">
<polygon fill="white" stroke="black" points="1127,-82.5 1127,-103.5 1251,-103.5 1251,-82.5 1127,-82.5"/>
<text text-anchor="middle" x="1189" y="-90.5" font-family="Helvetica,sans-Serif" font-size="10.00">HydraxWater::framestep</text>
</a>
</g>
<!-- Node21&#45;&gt;Node22 -->
<g id="edge48" class="edge"><title>Node21&#45;&gt;Node22</title>
<path fill="none" stroke="midnightblue" d="M1080.98,-93C1096.17,-93 1112.11,-93 1126.94,-93"/>
<polygon fill="midnightblue" stroke="midnightblue" points="1080.6,-89.5001 1070.6,-93 1080.6,-96.5001 1080.6,-89.5001"/>
</g>
</g>
</svg>
        <g id="navigator" transform="translate(0 0)" fill="#404254">
                <rect fill="#f2f5e9" fill-opacity="0.5" stroke="#606060" stroke-width=".5" x="0" y="0" width="60" height="60"/>
                <use id="zoomplus" xlink:href="#zoomPlus" x="17" y="9" onmousedown="handleZoom(evt,'in')"/>
                <use id="zoomminus" xlink:href="#zoomMin" x="42" y="9" onmousedown="handleZoom(evt,'out')"/>
                <use id="reset" xlink:href="#resetDef" x="30" y="36" onmousedown="handleReset()"/>
                <g id="arrowUp" xlink:href="#dirArrow" transform="translate(30 24)" onmousedown="handlePan(0,-1)">
                  <use xlink:href="#rim" fill="#404040">
                        <set attributeName="fill" to="#808080" begin="arrowUp.mouseover" end="arrowUp.mouseout"/>
                  </use>
                  <path fill="none" stroke="white" stroke-width="1.5" d="M0,-3.0v7 M-2.5,-0.5L0,-3.0L2.5,-0.5"/>
                </g>
                <g id="arrowRight" xlink:href="#dirArrow" transform="rotate(90) translate(36 -43)" onmousedown="handlePan(1,0)">
                  <use xlink:href="#rim" fill="#404040">
                        <set attributeName="fill" to="#808080" begin="arrowRight.mouseover" end="arrowRight.mouseout"/>
                  </use>
                  <path fill="none" stroke="white" stroke-width="1.5" d="M0,-3.0v7 M-2.5,-0.5L0,-3.0L2.5,-0.5"/>
                </g>
                <g id="arrowDown" xlink:href="#dirArrow" transform="rotate(180) translate(-30 -48)" onmousedown="handlePan(0,1)">
                  <use xlink:href="#rim" fill="#404040">
                        <set attributeName="fill" to="#808080" begin="arrowDown.mouseover" end="arrowDown.mouseout"/>
                  </use>
                  <path fill="none" stroke="white" stroke-width="1.5" d="M0,-3.0v7 M-2.5,-0.5L0,-3.0L2.5,-0.5"/>
                </g>
                <g id="arrowLeft" xlink:href="#dirArrow" transform="rotate(270) translate(-36 17)" onmousedown="handlePan(-1,0)">
                  <use xlink:href="#rim" fill="#404040">
                        <set attributeName="fill" to="#808080" begin="arrowLeft.mouseover" end="arrowLeft.mouseout"/>
                  </use>
                  <path fill="none" stroke="white" stroke-width="1.5" d="M0,-3.0v7 M-2.5,-0.5L0,-3.0L2.5,-0.5"/>
                </g>
        </g>
</svg>
