<?xml version="1.0" encoding="UTF-8" standalone="no"?>
<!DOCTYPE svg PUBLIC "-//W3C//DTD SVG 1.1//EN"
 "http://www.w3.org/Graphics/SVG/1.1/DTD/svg11.dtd">
<!-- Generated by graphviz version 2.26.3 (20100126.1600)
 -->
<!-- Title: G Pages: 1 -->
<!--zoomable 110 -->
<svg id="main" version="1.1" xmlns="http://www.w3.org/2000/svg" xmlns:xlink="http://www.w3.org/1999/xlink" xml:space="preserve" onload="init(evt)">
        <defs>
                <circle id="rim" cx="0" cy="0" r="7"/>
                <circle id="rim2" cx="0" cy="0" r="3.5"/>
                <g id="zoomPlus">
                        <use xlink:href="#rim" fill="#404040">
                                <set attributeName="fill" to="#808080" begin="zoomplus.mouseover" end="zoomplus.mouseout"/>
                        </use>
                        <path d="M-4,0h8M0,-4v8" fill="none" stroke="white" stroke-width="1.5" pointer-events="none"/>
                </g>
                <g id="zoomMin">
                        <use xlink:href="#rim" fill="#404040">
                                <set attributeName="fill" to="#808080" begin="zoomminus.mouseover" end="zoomminus.mouseout"/>
                        </use>
                        <path d="M-4,0h8" fill="none" stroke="white" stroke-width="1.5" pointer-events="none"/>
                </g>
                <g id="dirArrow">
                        <path fill="none" stroke="white" stroke-width="1.5" d="M0,-3.0v7 M-2.5,-0.5L0,-3.0L2.5,-0.5"/>
                </g>
               <g id="resetDef">
                       <use xlink:href="#rim2" fill="#404040">
                               <set attributeName="fill" to="#808080" begin="reset.mouseover" end="reset.mouseout"/>
                       </use>
               </g>
        </defs>

<script type="text/javascript">
var viewWidth = 1568;
var viewHeight = 110;
var sectionId = 'dynsection-11';
</script>
<script xlink:href="svgpan.js"/>
<svg id="graph" class="graph">
<g id="viewport">
<title>G</title>
<polygon fill="white" stroke="white" points="-4,5 -4,-106 1565,-106 1565,5 -4,5"/>
<!-- Node1 -->
<g id="node1" class="node"><title>Node1</title>
<polygon fill="#bfbfbf" stroke="black" points="0,-20.5 0,-41.5 270,-41.5 270,-20.5 0,-20.5"/>
<text text-anchor="middle" x="135" y="-28.5" font-family="Helvetica,sans-Serif" font-size="10.00">Hydrax::Noise::Perlin::_updateGPUNormalMapResources</text>
</g>
<!-- Node2 -->
<g id="node3" class="node"><title>Node2</title>
<a xlink:href="class_hydrax_1_1_noise_1_1_perlin.html#a2037c02fa7d577eb72487a1b778b62dd" target="_top" xlink:title="Hydrax::Noise::Perlin::update">
<polygon fill="white" stroke="black" points="306,-20.5 306,-41.5 452,-41.5 452,-20.5 306,-20.5"/>
<text text-anchor="middle" x="379" y="-28.5" font-family="Helvetica,sans-Serif" font-size="10.00">Hydrax::Noise::Perlin::update</text>
</a>
</g>
<!-- Node1&#45;&gt;Node2 -->
<g id="edge2" class="edge"><title>Node1&#45;&gt;Node2</title>
<path fill="none" stroke="midnightblue" d="M280.446,-31C289.118,-31 297.626,-31 305.785,-31"/>
<polygon fill="midnightblue" stroke="midnightblue" points="280.202,-27.5001 270.202,-31 280.202,-34.5001 280.202,-27.5001"/>
</g>
<!-- Node3 -->
<g id="node5" class="node"><title>Node3</title>
<a xlink:href="class_hydrax_1_1_god_rays_manager.html#a90ec2ead8e869ab4388641de1edeba11" target="_top" xlink:title="Hydrax::GodRaysManager::update">
<polygon fill="white" stroke="black" points="488,-40.5 488,-61.5 656,-61.5 656,-40.5 488,-40.5"/>
<text text-anchor="middle" x="572" y="-48.5" font-family="Helvetica,sans-Serif" font-size="10.00">Hydrax::GodRaysManager::update</text>
</a>
</g>
<!-- Node2&#45;&gt;Node3 -->
<g id="edge4" class="edge"><title>Node2&#45;&gt;Node3</title>
<path fill="none" stroke="midnightblue" d="M462.422,-39.6448C470.839,-40.517 479.391,-41.4033 487.816,-42.2763"/>
<polygon fill="midnightblue" stroke="midnightblue" points="462.548,-36.1391 452.24,-38.5897 461.826,-43.1019 462.548,-36.1391"/>
</g>
<!-- Node13 -->
<g id="node26" class="node"><title>Node13</title>
<a xlink:href="class_hydrax_1_1_noise_1_1_real.html#a436ebf5d7564c7c200619f8f4d192183" target="_top" xlink:title="Hydrax::Noise::Real::update">
<polygon fill="white" stroke="black" points="501.5,-0.5 501.5,-21.5 642.5,-21.5 642.5,-0.5 501.5,-0.5"/>
<text text-anchor="middle" x="572" y="-8.5" font-family="Helvetica,sans-Serif" font-size="10.00">Hydrax::Noise::Real::update</text>
</a>
</g>
<!-- Node2&#45;&gt;Node13 -->
<g id="edge26" class="edge"><title>Node2&#45;&gt;Node13</title>
<path fill="none" stroke="midnightblue" d="M462.534,-22.3436C475.478,-21.0023 488.738,-19.6282 501.361,-18.3201"/>
<polygon fill="midnightblue" stroke="midnightblue" points="461.826,-18.8981 452.24,-23.4103 462.548,-25.8609 461.826,-18.8981"/>
</g>
<!-- Node4 -->
<g id="node7" class="node"><title>Node4</title>
<a xlink:href="class_hydrax_1_1_hydrax.html#a571ddf613078bcaae4b45c22074e53bc" target="_top" xlink:title="Hydrax::Hydrax::_checkUnderwater">
<polygon fill="white" stroke="black" points="692.5,-40.5 692.5,-61.5 865.5,-61.5 865.5,-40.5 692.5,-40.5"/>
<text text-anchor="middle" x="779" y="-48.5" font-family="Helvetica,sans-Serif" font-size="10.00">Hydrax::Hydrax::_checkUnderwater</text>
</a>
</g>
<!-- Node3&#45;&gt;Node4 -->
<g id="edge6" class="edge"><title>Node3&#45;&gt;Node4</title>
<path fill="none" stroke="midnightblue" d="M666.274,-51C674.907,-51 683.626,-51 692.188,-51"/>
<polygon fill="midnightblue" stroke="midnightblue" points="666.195,-47.5001 656.195,-51 666.195,-54.5001 666.195,-47.5001"/>
</g>
<!-- Node5 -->
<g id="node9" class="node"><title>Node5</title>
<a xlink:href="class_hydrax_1_1_hydrax.html#aaf840e19208614533a6b344e32965ee2" target="_top" xlink:title="Hydrax::Hydrax::create">
<polygon fill="white" stroke="black" points="1097.5,-80.5 1097.5,-101.5 1216.5,-101.5 1216.5,-80.5 1097.5,-80.5"/>
<text text-anchor="middle" x="1157" y="-88.5" font-family="Helvetica,sans-Serif" font-size="10.00">Hydrax::Hydrax::create</text>
</a>
</g>
<!-- Node4&#45;&gt;Node5 -->
<g id="edge8" class="edge"><title>Node4&#45;&gt;Node5</title>
<path fill="none" stroke="midnightblue" d="M847.595,-63.1864C865.28,-66.0441 884.314,-68.8722 902,-71 968.684,-79.0226 1045.58,-84.5467 1097.35,-87.7243"/>
<polygon fill="midnightblue" stroke="midnightblue" points="847.794,-59.6722 837.359,-61.5054 846.66,-66.5797 847.794,-59.6722"/>
</g>
<!-- Node8 -->
<g id="node15" class="node"><title>Node8</title>
<a xlink:href="class_hydrax_1_1_hydrax.html#a8564eb97a6a5085af5d0475947af1599" target="_top" xlink:title="Hydrax::Hydrax::_checkVisible">
<polygon fill="white" stroke="black" points="902,-40.5 902,-61.5 1054,-61.5 1054,-40.5 902,-40.5"/>
<text text-anchor="middle" x="978" y="-48.5" font-family="Helvetica,sans-Serif" font-size="10.00">Hydrax::Hydrax::_checkVisible</text>
</a>
</g>
<!-- Node4&#45;&gt;Node8 -->
<g id="edge14" class="edge"><title>Node4&#45;&gt;Node8</title>
<path fill="none" stroke="midnightblue" d="M875.913,-51C884.632,-51 893.377,-51 901.882,-51"/>
<polygon fill="midnightblue" stroke="midnightblue" points="875.705,-47.5001 865.705,-51 875.705,-54.5001 875.705,-47.5001"/>
</g>
<!-- Node11 -->
<g id="node22" class="node"><title>Node11</title>
<a xlink:href="class_hydrax_1_1_hydrax.html#ac584e30a6cbfb5d8884afb182c29d36a" target="_top" xlink:title="Hydrax::Hydrax::update">
<polygon fill="white" stroke="black" points="917.5,-0.5 917.5,-21.5 1038.5,-21.5 1038.5,-0.5 917.5,-0.5"/>
<text text-anchor="middle" x="978" y="-8.5" font-family="Helvetica,sans-Serif" font-size="10.00">Hydrax::Hydrax::update</text>
</a>
</g>
<!-- Node4&#45;&gt;Node11 -->
<g id="edge22" class="edge"><title>Node4&#45;&gt;Node11</title>
<path fill="none" stroke="midnightblue" d="M841.436,-38.45C868.523,-33.0054 899.885,-26.7014 925.719,-21.5087"/>
<polygon fill="midnightblue" stroke="midnightblue" points="840.399,-35.0884 831.285,-40.4905 841.779,-41.9511 840.399,-35.0884"/>
</g>
<!-- Node6 -->
<g id="node11" class="node"><title>Node6</title>
<a xlink:href="class_hydrax_water.html#aedfd9537f96021b60a195b2bb6a9ee2d" target="_top" xlink:title="HydraxWater::InitHydrax">
<polygon fill="white" stroke="black" points="1260.5,-80.5 1260.5,-101.5 1385.5,-101.5 1385.5,-80.5 1260.5,-80.5"/>
<text text-anchor="middle" x="1323" y="-88.5" font-family="Helvetica,sans-Serif" font-size="10.00">HydraxWater::InitHydrax</text>
</a>
</g>
<!-- Node5&#45;&gt;Node6 -->
<g id="edge10" class="edge"><title>Node5&#45;&gt;Node6</title>
<path fill="none" stroke="midnightblue" d="M1226.99,-91C1238.07,-91 1249.46,-91 1260.36,-91"/>
<polygon fill="midnightblue" stroke="midnightblue" points="1226.93,-87.5001 1216.93,-91 1226.93,-94.5001 1226.93,-87.5001"/>
</g>
<!-- Node7 -->
<g id="node13" class="node"><title>Node7</title>
<a xlink:href="class_hydrax_water.html#a20bb0db860124c8e18903f5d640f88db" target="_top" xlink:title="HydraxWater::HydraxWater">
<polygon fill="white" stroke="black" points="1422,-80.5 1422,-101.5 1560,-101.5 1560,-80.5 1422,-80.5"/>
<text text-anchor="middle" x="1491" y="-88.5" font-family="Helvetica,sans-Serif" font-size="10.00">HydraxWater::HydraxWater</text>
</a>
</g>
<!-- Node6&#45;&gt;Node7 -->
<g id="edge12" class="edge"><title>Node6&#45;&gt;Node7</title>
<path fill="none" stroke="midnightblue" d="M1395.68,-91C1404.38,-91 1413.25,-91 1421.9,-91"/>
<polygon fill="midnightblue" stroke="midnightblue" points="1395.56,-87.5001 1385.56,-91 1395.56,-94.5001 1395.56,-87.5001"/>
</g>
<!-- Node8&#45;&gt;Node5 -->
<g id="edge16" class="edge"><title>Node8&#45;&gt;Node5</title>
<path fill="none" stroke="midnightblue" d="M1034.81,-63.6941C1059.02,-69.1056 1086.94,-75.3443 1109.97,-80.4913"/>
<polygon fill="midnightblue" stroke="midnightblue" points="1035.55,-60.2747 1025.03,-61.5095 1034.03,-67.1062 1035.55,-60.2747"/>
</g>
<!-- Node9 -->
<g id="node18" class="node"><title>Node9</title>
<a xlink:href="class_hydrax_1_1_hydrax.html#a2c6e89c89098c1ae2f152b0cac0ecfde" target="_top" xlink:title="Hydrax::Hydrax::setVisible">
<polygon fill="white" stroke="black" points="1090,-40.5 1090,-61.5 1224,-61.5 1224,-40.5 1090,-40.5"/>
<text text-anchor="middle" x="1157" y="-48.5" font-family="Helvetica,sans-Serif" font-size="10.00">Hydrax::Hydrax::setVisible</text>
</a>
</g>
<!-- Node8&#45;&gt;Node9 -->
<g id="edge18" class="edge"><title>Node8&#45;&gt;Node9</title>
<path fill="none" stroke="midnightblue" d="M1064.26,-51C1072.89,-51 1081.56,-51 1089.95,-51"/>
<polygon fill="midnightblue" stroke="midnightblue" points="1064.17,-47.5001 1054.17,-51 1064.17,-54.5001 1064.17,-47.5001"/>
</g>
<!-- Node10 -->
<g id="node20" class="node"><title>Node10</title>
<a xlink:href="class_hydrax_water.html#a21b7f14c1cce1f562a596543dc335a4c" target="_top" xlink:title="HydraxWater::setVisible">
<polygon fill="white" stroke="black" points="1261.5,-40.5 1261.5,-61.5 1384.5,-61.5 1384.5,-40.5 1261.5,-40.5"/>
<text text-anchor="middle" x="1323" y="-48.5" font-family="Helvetica,sans-Serif" font-size="10.00">HydraxWater::setVisible</text>
</a>
</g>
<!-- Node9&#45;&gt;Node10 -->
<g id="edge20" class="edge"><title>Node9&#45;&gt;Node10</title>
<path fill="none" stroke="midnightblue" d="M1234.24,-51C1243.33,-51 1252.51,-51 1261.34,-51"/>
<polygon fill="midnightblue" stroke="midnightblue" points="1234.04,-47.5001 1224.04,-51 1234.04,-54.5001 1234.04,-47.5001"/>
</g>
<!-- Node12 -->
<g id="node24" class="node"><title>Node12</title>
<a xlink:href="class_hydrax_water.html#a00888728a3ac027b68807892c1ec614b" target="_top" xlink:title="HydraxWater::framestep">
<polygon fill="white" stroke="black" points="1095,-0.5 1095,-21.5 1219,-21.5 1219,-0.5 1095,-0.5"/>
<text text-anchor="middle" x="1157" y="-8.5" font-family="Helvetica,sans-Serif" font-size="10.00">HydraxWater::framestep</text>
</a>
</g>
<!-- Node11&#45;&gt;Node12 -->
<g id="edge24" class="edge"><title>Node11&#45;&gt;Node12</title>
<path fill="none" stroke="midnightblue" d="M1048.98,-11C1064.17,-11 1080.11,-11 1094.94,-11"/>
<polygon fill="midnightblue" stroke="midnightblue" points="1048.6,-7.5001 1038.6,-11 1048.6,-14.5001 1048.6,-7.5001"/>
</g>
</g>
</svg>
        <g id="navigator" transform="translate(0 0)" fill="#404254">
                <rect fill="#f2f5e9" fill-opacity="0.5" stroke="#606060" stroke-width=".5" x="0" y="0" width="60" height="60"/>
                <use id="zoomplus" xlink:href="#zoomPlus" x="17" y="9" onmousedown="handleZoom(evt,'in')"/>
                <use id="zoomminus" xlink:href="#zoomMin" x="42" y="9" onmousedown="handleZoom(evt,'out')"/>
                <use id="reset" xlink:href="#resetDef" x="30" y="36" onmousedown="handleReset()"/>
                <g id="arrowUp" xlink:href="#dirArrow" transform="translate(30 24)" onmousedown="handlePan(0,-1)">
                  <use xlink:href="#rim" fill="#404040">
                        <set attributeName="fill" to="#808080" begin="arrowUp.mouseover" end="arrowUp.mouseout"/>
                  </use>
                  <path fill="none" stroke="white" stroke-width="1.5" d="M0,-3.0v7 M-2.5,-0.5L0,-3.0L2.5,-0.5"/>
                </g>
                <g id="arrowRight" xlink:href="#dirArrow" transform="rotate(90) translate(36 -43)" onmousedown="handlePan(1,0)">
                  <use xlink:href="#rim" fill="#404040">
                        <set attributeName="fill" to="#808080" begin="arrowRight.mouseover" end="arrowRight.mouseout"/>
                  </use>
                  <path fill="none" stroke="white" stroke-width="1.5" d="M0,-3.0v7 M-2.5,-0.5L0,-3.0L2.5,-0.5"/>
                </g>
                <g id="arrowDown" xlink:href="#dirArrow" transform="rotate(180) translate(-30 -48)" onmousedown="handlePan(0,1)">
                  <use xlink:href="#rim" fill="#404040">
                        <set attributeName="fill" to="#808080" begin="arrowDown.mouseover" end="arrowDown.mouseout"/>
                  </use>
                  <path fill="none" stroke="white" stroke-width="1.5" d="M0,-3.0v7 M-2.5,-0.5L0,-3.0L2.5,-0.5"/>
                </g>
                <g id="arrowLeft" xlink:href="#dirArrow" transform="rotate(270) translate(-36 17)" onmousedown="handlePan(-1,0)">
                  <use xlink:href="#rim" fill="#404040">
                        <set attributeName="fill" to="#808080" begin="arrowLeft.mouseover" end="arrowLeft.mouseout"/>
                  </use>
                  <path fill="none" stroke="white" stroke-width="1.5" d="M0,-3.0v7 M-2.5,-0.5L0,-3.0L2.5,-0.5"/>
                </g>
        </g>
</svg>
