<?xml version="1.0" encoding="UTF-8" standalone="no"?>
<!DOCTYPE svg PUBLIC "-//W3C//DTD SVG 1.1//EN"
 "http://www.w3.org/Graphics/SVG/1.1/DTD/svg11.dtd">
<!-- Generated by graphviz version 2.26.3 (20100126.1600)
 -->
<!-- Title: RoR::RigEditor::RigProperties::GetEngoption Pages: 1 -->
<svg width="384pt" height="56pt"
 viewBox="0.00 0.00 384.00 56.00" xmlns="http://www.w3.org/2000/svg" xmlns:xlink="http://www.w3.org/1999/xlink">
<g id="graph1" class="graph" transform="scale(1 1) rotate(0) translate(4 52)">
<title>RoR::RigEditor::RigProperties::GetEngoption</title>
<polygon fill="white" stroke="white" points="-4,5 -4,-52 381,-52 381,5 -4,5"/>
<!-- Node1 -->
<g id="node1" class="node"><title>Node1</title>
<polygon fill="#bfbfbf" stroke="black" points="0.5,-7 0.5,-41 149.5,-41 149.5,-7 0.5,-7"/>
<text text-anchor="start" x="8.5" y="-28" font-family="Helvetica,sans-Serif" font-size="10.00">RoR::RigEditor::RigProperties</text>
<text text-anchor="middle" x="75" y="-15" font-family="Helvetica,sans-Serif" font-size="10.00">::GetEngoption</text>
</g>
<!-- Node2 -->
<g id="node3" class="node"><title>Node2</title>
<a xlink:href="class_ro_r_1_1_rig_editor_1_1_main.html#a7cc0b6e0fae2e32cc38ff3270f7f6648" target="_top" xlink:title="RoR::RigEditor::Main\l::CommandShowLandVehicleProperties\lWindow">
<polygon fill="white" stroke="black" points="186,-0.5 186,-47.5 376,-47.5 376,-0.5 186,-0.5"/>
<text text-anchor="start" x="194" y="-34.5" font-family="Helvetica,sans-Serif" font-size="10.00">RoR::RigEditor::Main</text>
<text text-anchor="start" x="194" y="-21.5" font-family="Helvetica,sans-Serif" font-size="10.00">::CommandShowLandVehicleProperties</text>
<text text-anchor="middle" x="281" y="-8.5" font-family="Helvetica,sans-Serif" font-size="10.00">Window</text>
</a>
</g>
<!-- Node1&#45;&gt;Node2 -->
<g id="edge2" class="edge"><title>Node1&#45;&gt;Node2</title>
<path fill="none" stroke="midnightblue" d="M159.683,-24C168.301,-24 177.097,-24 185.817,-24"/>
<polygon fill="midnightblue" stroke="midnightblue" points="159.662,-20.5001 149.662,-24 159.662,-27.5001 159.662,-20.5001"/>
</g>
</g>
</svg>
