<?xml version="1.0" encoding="UTF-8" standalone="no"?>
<!DOCTYPE svg PUBLIC "-//W3C//DTD SVG 1.1//EN"
 "http://www.w3.org/Graphics/SVG/1.1/DTD/svg11.dtd">
<!-- Generated by graphviz version 2.26.3 (20100126.1600)
 -->
<!-- Title: BeamFactory::getBeam Pages: 1 -->
<svg width="284pt" height="188pt"
 viewBox="0.00 0.00 284.00 188.00" xmlns="http://www.w3.org/2000/svg" xmlns:xlink="http://www.w3.org/1999/xlink">
<g id="graph1" class="graph" transform="scale(1 1) rotate(0) translate(4 184)">
<title>BeamFactory::getBeam</title>
<polygon fill="white" stroke="white" points="-4,5 -4,-184 281,-184 281,5 -4,5"/>
<!-- Node1 -->
<g id="node1" class="node"><title>Node1</title>
<polygon fill="#bfbfbf" stroke="black" points="0,-79.5 0,-100.5 120,-100.5 120,-79.5 0,-79.5"/>
<text text-anchor="middle" x="60" y="-87.5" font-family="Helvetica,sans-Serif" font-size="10.00">BeamFactory::getBeam</text>
</g>
<!-- Node2 -->
<g id="node3" class="node"><title>Node2</title>
<a xlink:href="class_streamable_factory.html#ae48eb0007578a22c2c857f72d1471a84" target="_top" xlink:title="StreamableFactory\&lt;\l BeamFactory, Beam \&gt;\l::lockStreams">
<polygon fill="white" stroke="black" points="156.5,-132.5 156.5,-179.5 275.5,-179.5 275.5,-132.5 156.5,-132.5"/>
<text text-anchor="start" x="164.5" y="-166.5" font-family="Helvetica,sans-Serif" font-size="10.00">StreamableFactory&lt;</text>
<text text-anchor="start" x="164.5" y="-153.5" font-family="Helvetica,sans-Serif" font-size="10.00"> BeamFactory, Beam &gt;</text>
<text text-anchor="middle" x="216" y="-140.5" font-family="Helvetica,sans-Serif" font-size="10.00">::lockStreams</text>
</a>
</g>
<!-- Node1&#45;&gt;Node2 -->
<g id="edge2" class="edge"><title>Node1&#45;&gt;Node2</title>
<path fill="none" stroke="midnightblue" d="M85.0641,-100.604C102.853,-108.13 127.598,-118.599 150.791,-128.412"/>
<polygon fill="midnightblue" stroke="midnightblue" points="149.694,-131.748 160.267,-132.421 152.421,-125.301 149.694,-131.748"/>
</g>
<!-- Node3 -->
<g id="node5" class="node"><title>Node3</title>
<a xlink:href="class_streamable_factory.html#a144cbd4edd29595ee5c36bf9aa3b461c" target="_top" xlink:title="StreamableFactory\&lt;\l BeamFactory, Beam \&gt;\l::getStreams">
<polygon fill="white" stroke="black" points="156.5,-66.5 156.5,-113.5 275.5,-113.5 275.5,-66.5 156.5,-66.5"/>
<text text-anchor="start" x="164.5" y="-100.5" font-family="Helvetica,sans-Serif" font-size="10.00">StreamableFactory&lt;</text>
<text text-anchor="start" x="164.5" y="-87.5" font-family="Helvetica,sans-Serif" font-size="10.00"> BeamFactory, Beam &gt;</text>
<text text-anchor="middle" x="216" y="-74.5" font-family="Helvetica,sans-Serif" font-size="10.00">::getStreams</text>
</a>
</g>
<!-- Node1&#45;&gt;Node3 -->
<g id="edge4" class="edge"><title>Node1&#45;&gt;Node3</title>
<path fill="none" stroke="midnightblue" d="M120.314,-90C128.818,-90 137.618,-90 146.281,-90"/>
<polygon fill="midnightblue" stroke="midnightblue" points="146.361,-93.5001 156.361,-90 146.361,-86.5001 146.361,-93.5001"/>
</g>
<!-- Node4 -->
<g id="node7" class="node"><title>Node4</title>
<a xlink:href="class_streamable_factory.html#a903fef78ba76e72a0536ff615c5952d4" target="_top" xlink:title="StreamableFactory\&lt;\l BeamFactory, Beam \&gt;\l::unlockStreams">
<polygon fill="white" stroke="black" points="156.5,-0.5 156.5,-47.5 275.5,-47.5 275.5,-0.5 156.5,-0.5"/>
<text text-anchor="start" x="164.5" y="-34.5" font-family="Helvetica,sans-Serif" font-size="10.00">StreamableFactory&lt;</text>
<text text-anchor="start" x="164.5" y="-21.5" font-family="Helvetica,sans-Serif" font-size="10.00"> BeamFactory, Beam &gt;</text>
<text text-anchor="middle" x="216" y="-8.5" font-family="Helvetica,sans-Serif" font-size="10.00">::unlockStreams</text>
</a>
</g>
<!-- Node1&#45;&gt;Node4 -->
<g id="edge6" class="edge"><title>Node1&#45;&gt;Node4</title>
<path fill="none" stroke="midnightblue" d="M85.0641,-79.396C102.853,-71.8698 127.598,-61.4009 150.791,-51.5883"/>
<polygon fill="midnightblue" stroke="midnightblue" points="152.421,-54.6991 160.267,-47.5793 149.694,-48.2523 152.421,-54.6991"/>
</g>
</g>
</svg>
