<?xml version="1.0" encoding="UTF-8" standalone="no"?>
<!DOCTYPE svg PUBLIC "-//W3C//DTD SVG 1.1//EN"
 "http://www.w3.org/Graphics/SVG/1.1/DTD/svg11.dtd">
<!-- Generated by graphviz version 2.26.3 (20100126.1600)
 -->
<!-- Title: G Pages: 1 -->
<!--zoomable 170 -->
<svg id="main" version="1.1" xmlns="http://www.w3.org/2000/svg" xmlns:xlink="http://www.w3.org/1999/xlink" xml:space="preserve" onload="init(evt)">
        <defs>
                <circle id="rim" cx="0" cy="0" r="7"/>
                <circle id="rim2" cx="0" cy="0" r="3.5"/>
                <g id="zoomPlus">
                        <use xlink:href="#rim" fill="#404040">
                                <set attributeName="fill" to="#808080" begin="zoomplus.mouseover" end="zoomplus.mouseout"/>
                        </use>
                        <path d="M-4,0h8M0,-4v8" fill="none" stroke="white" stroke-width="1.5" pointer-events="none"/>
                </g>
                <g id="zoomMin">
                        <use xlink:href="#rim" fill="#404040">
                                <set attributeName="fill" to="#808080" begin="zoomminus.mouseover" end="zoomminus.mouseout"/>
                        </use>
                        <path d="M-4,0h8" fill="none" stroke="white" stroke-width="1.5" pointer-events="none"/>
                </g>
                <g id="dirArrow">
                        <path fill="none" stroke="white" stroke-width="1.5" d="M0,-3.0v7 M-2.5,-0.5L0,-3.0L2.5,-0.5"/>
                </g>
               <g id="resetDef">
                       <use xlink:href="#rim2" fill="#404040">
                               <set attributeName="fill" to="#808080" begin="reset.mouseover" end="reset.mouseout"/>
                       </use>
               </g>
        </defs>

<script type="text/javascript">
var viewWidth = 1832;
var viewHeight = 170;
var sectionId = 'dynsection-7';
</script>
<script xlink:href="svgpan.js"/>
<svg id="graph" class="graph">
<g id="viewport">
<title>G</title>
<polygon fill="white" stroke="white" points="-4,5 -4,-166 1829,-166 1829,5 -4,5"/>
<!-- Node1 -->
<g id="node1" class="node"><title>Node1</title>
<polygon fill="#bfbfbf" stroke="black" points="0,-80.5 0,-101.5 216,-101.5 216,-80.5 0,-80.5"/>
<text text-anchor="middle" x="108" y="-88.5" font-family="Helvetica,sans-Serif" font-size="10.00">Hydrax::GPUNormalMapManager::getTexture</text>
</g>
<!-- Node2 -->
<g id="node3" class="node"><title>Node2</title>
<a xlink:href="class_hydrax_1_1_noise_1_1_f_f_t.html#aa8e2b9d2b8307c07be2d2cd9cf115560" target="_top" xlink:title="Hydrax::Noise::FFT::createGPUNormalMapResources">
<polygon fill="white" stroke="black" points="259,-140.5 259,-161.5 515,-161.5 515,-140.5 259,-140.5"/>
<text text-anchor="middle" x="387" y="-148.5" font-family="Helvetica,sans-Serif" font-size="10.00">Hydrax::Noise::FFT::createGPUNormalMapResources</text>
</a>
</g>
<!-- Node1&#45;&gt;Node2 -->
<g id="edge2" class="edge"><title>Node1&#45;&gt;Node2</title>
<path fill="none" stroke="midnightblue" d="M151.088,-104.476C179.521,-112.994 217.716,-123.728 252,-131 268.92,-134.589 287.167,-137.757 304.61,-140.453"/>
<polygon fill="midnightblue" stroke="midnightblue" points="152.045,-101.109 141.46,-101.565 150.019,-107.809 152.045,-101.109"/>
</g>
<!-- Node5 -->
<g id="node9" class="node"><title>Node5</title>
<a xlink:href="class_hydrax_1_1_noise_1_1_f_f_t.html#abb326736cb1e265555c2503fce850a70" target="_top" xlink:title="Hydrax::Noise::FFT::_updateGPUNormalMapResources">
<polygon fill="white" stroke="black" points="255.5,-100.5 255.5,-121.5 518.5,-121.5 518.5,-100.5 255.5,-100.5"/>
<text text-anchor="middle" x="387" y="-108.5" font-family="Helvetica,sans-Serif" font-size="10.00">Hydrax::Noise::FFT::_updateGPUNormalMapResources</text>
</a>
</g>
<!-- Node1&#45;&gt;Node5 -->
<g id="edge8" class="edge"><title>Node1&#45;&gt;Node5</title>
<path fill="none" stroke="midnightblue" d="M226.468,-99.4923C235.923,-100.17 245.51,-100.857 255.05,-101.541"/>
<polygon fill="midnightblue" stroke="midnightblue" points="226.493,-95.9852 216.268,-98.7611 225.992,-102.967 226.493,-95.9852"/>
</g>
<!-- Node7 -->
<g id="node13" class="node"><title>Node7</title>
<a xlink:href="class_hydrax_1_1_noise_1_1_perlin.html#adb347b98692bd7ce6ad7ce76c605d15a" target="_top" xlink:title="Hydrax::Noise::Perlin::createGPUNormalMapResources">
<polygon fill="white" stroke="black" points="255.5,-60.5 255.5,-81.5 518.5,-81.5 518.5,-60.5 255.5,-60.5"/>
<text text-anchor="middle" x="387" y="-68.5" font-family="Helvetica,sans-Serif" font-size="10.00">Hydrax::Noise::Perlin::createGPUNormalMapResources</text>
</a>
</g>
<!-- Node1&#45;&gt;Node7 -->
<g id="edge12" class="edge"><title>Node1&#45;&gt;Node7</title>
<path fill="none" stroke="midnightblue" d="M226.468,-82.5077C235.923,-81.8299 245.51,-81.1426 255.05,-80.4588"/>
<polygon fill="midnightblue" stroke="midnightblue" points="225.992,-79.0327 216.268,-83.2389 226.493,-86.0148 225.992,-79.0327"/>
</g>
<!-- Node8 -->
<g id="node15" class="node"><title>Node8</title>
<a xlink:href="class_hydrax_1_1_noise_1_1_perlin.html#a225baecfe2444d488568fb373f279322" target="_top" xlink:title="Hydrax::Noise::Perlin::_updateGPUNormalMapResources">
<polygon fill="white" stroke="black" points="252,-20.5 252,-41.5 522,-41.5 522,-20.5 252,-20.5"/>
<text text-anchor="middle" x="387" y="-28.5" font-family="Helvetica,sans-Serif" font-size="10.00">Hydrax::Noise::Perlin::_updateGPUNormalMapResources</text>
</a>
</g>
<!-- Node1&#45;&gt;Node8 -->
<g id="edge14" class="edge"><title>Node1&#45;&gt;Node8</title>
<path fill="none" stroke="midnightblue" d="M151.088,-77.5242C179.521,-69.0061 217.716,-58.2721 252,-51 268.92,-47.4112 287.167,-44.2428 304.61,-41.5469"/>
<polygon fill="midnightblue" stroke="midnightblue" points="150.019,-74.1908 141.46,-80.4354 152.045,-80.8912 150.019,-74.1908"/>
</g>
<!-- Node3 -->
<g id="node5" class="node"><title>Node3</title>
<a xlink:href="class_hydrax_1_1_noise_1_1_f_f_t.html#a1d7ec06eb11cda608cc8f73256c35be5" target="_top" xlink:title="Hydrax::Noise::FFT::setOptions">
<polygon fill="white" stroke="black" points="558.5,-140.5 558.5,-161.5 715.5,-161.5 715.5,-140.5 558.5,-140.5"/>
<text text-anchor="middle" x="637" y="-148.5" font-family="Helvetica,sans-Serif" font-size="10.00">Hydrax::Noise::FFT::setOptions</text>
</a>
</g>
<!-- Node2&#45;&gt;Node3 -->
<g id="edge4" class="edge"><title>Node2&#45;&gt;Node3</title>
<path fill="none" stroke="midnightblue" d="M525.559,-151C536.702,-151 547.7,-151 558.192,-151"/>
<polygon fill="midnightblue" stroke="midnightblue" points="525.296,-147.5 515.296,-151 525.296,-154.5 525.296,-147.5"/>
</g>
<!-- Node4 -->
<g id="node7" class="node"><title>Node4</title>
<a xlink:href="class_hydrax_1_1_noise_1_1_f_f_t.html#a64245b9e56eeb8627ac3f5260dc203dd" target="_top" xlink:title="Hydrax::Noise::FFT::loadCfg">
<polygon fill="white" stroke="black" points="764.5,-140.5 764.5,-161.5 907.5,-161.5 907.5,-140.5 764.5,-140.5"/>
<text text-anchor="middle" x="836" y="-148.5" font-family="Helvetica,sans-Serif" font-size="10.00">Hydrax::Noise::FFT::loadCfg</text>
</a>
</g>
<!-- Node3&#45;&gt;Node4 -->
<g id="edge6" class="edge"><title>Node3&#45;&gt;Node4</title>
<path fill="none" stroke="midnightblue" d="M725.91,-151C738.787,-151 751.905,-151 764.385,-151"/>
<polygon fill="midnightblue" stroke="midnightblue" points="725.65,-147.5 715.65,-151 725.65,-154.5 725.65,-147.5"/>
</g>
<!-- Node6 -->
<g id="node11" class="node"><title>Node6</title>
<a xlink:href="class_hydrax_1_1_noise_1_1_f_f_t.html#aedb7b8614828cda29b62aa6c1509e22a" target="_top" xlink:title="Hydrax::Noise::FFT::update">
<polygon fill="white" stroke="black" points="567.5,-100.5 567.5,-121.5 706.5,-121.5 706.5,-100.5 567.5,-100.5"/>
<text text-anchor="middle" x="637" y="-108.5" font-family="Helvetica,sans-Serif" font-size="10.00">Hydrax::Noise::FFT::update</text>
</a>
</g>
<!-- Node5&#45;&gt;Node6 -->
<g id="edge10" class="edge"><title>Node5&#45;&gt;Node6</title>
<path fill="none" stroke="midnightblue" d="M528.81,-111C542.123,-111 555.176,-111 567.352,-111"/>
<polygon fill="midnightblue" stroke="midnightblue" points="528.589,-107.5 518.589,-111 528.589,-114.5 528.589,-107.5"/>
</g>
<!-- Node9 -->
<g id="node17" class="node"><title>Node9</title>
<a xlink:href="class_hydrax_1_1_noise_1_1_perlin.html#a2037c02fa7d577eb72487a1b778b62dd" target="_top" xlink:title="Hydrax::Noise::Perlin::update">
<polygon fill="white" stroke="black" points="564,-20.5 564,-41.5 710,-41.5 710,-20.5 564,-20.5"/>
<text text-anchor="middle" x="637" y="-28.5" font-family="Helvetica,sans-Serif" font-size="10.00">Hydrax::Noise::Perlin::update</text>
</a>
</g>
<!-- Node8&#45;&gt;Node9 -->
<g id="edge16" class="edge"><title>Node8&#45;&gt;Node9</title>
<path fill="none" stroke="midnightblue" d="M532.567,-31C543.279,-31 553.783,-31 563.755,-31"/>
<polygon fill="midnightblue" stroke="midnightblue" points="532.244,-27.5001 522.244,-31 532.244,-34.5001 532.244,-27.5001"/>
</g>
<!-- Node10 -->
<g id="node19" class="node"><title>Node10</title>
<a xlink:href="class_hydrax_1_1_god_rays_manager.html#a90ec2ead8e869ab4388641de1edeba11" target="_top" xlink:title="Hydrax::GodRaysManager::update">
<polygon fill="white" stroke="black" points="752,-40.5 752,-61.5 920,-61.5 920,-40.5 752,-40.5"/>
<text text-anchor="middle" x="836" y="-48.5" font-family="Helvetica,sans-Serif" font-size="10.00">Hydrax::GodRaysManager::update</text>
</a>
</g>
<!-- Node9&#45;&gt;Node10 -->
<g id="edge18" class="edge"><title>Node9&#45;&gt;Node10</title>
<path fill="none" stroke="midnightblue" d="M720.506,-39.3926C730.856,-40.4328 741.443,-41.4968 751.803,-42.538"/>
<polygon fill="midnightblue" stroke="midnightblue" points="720.552,-35.8797 710.252,-38.3621 719.852,-42.8446 720.552,-35.8797"/>
</g>
<!-- Node20 -->
<g id="node40" class="node"><title>Node20</title>
<a xlink:href="class_hydrax_1_1_noise_1_1_real.html#a436ebf5d7564c7c200619f8f4d192183" target="_top" xlink:title="Hydrax::Noise::Real::update">
<polygon fill="white" stroke="black" points="765.5,-0.5 765.5,-21.5 906.5,-21.5 906.5,-0.5 765.5,-0.5"/>
<text text-anchor="middle" x="836" y="-8.5" font-family="Helvetica,sans-Serif" font-size="10.00">Hydrax::Noise::Real::update</text>
</a>
</g>
<!-- Node9&#45;&gt;Node20 -->
<g id="edge40" class="edge"><title>Node9&#45;&gt;Node20</title>
<path fill="none" stroke="midnightblue" d="M720.464,-22.6117C735.351,-21.1154 750.731,-19.5697 765.222,-18.1134"/>
<polygon fill="midnightblue" stroke="midnightblue" points="719.852,-19.1554 710.252,-23.6379 720.552,-26.1203 719.852,-19.1554"/>
</g>
<!-- Node11 -->
<g id="node21" class="node"><title>Node11</title>
<a xlink:href="class_hydrax_1_1_hydrax.html#a571ddf613078bcaae4b45c22074e53bc" target="_top" xlink:title="Hydrax::Hydrax::_checkUnderwater">
<polygon fill="white" stroke="black" points="956.5,-40.5 956.5,-61.5 1129.5,-61.5 1129.5,-40.5 956.5,-40.5"/>
<text text-anchor="middle" x="1043" y="-48.5" font-family="Helvetica,sans-Serif" font-size="10.00">Hydrax::Hydrax::_checkUnderwater</text>
</a>
</g>
<!-- Node10&#45;&gt;Node11 -->
<g id="edge20" class="edge"><title>Node10&#45;&gt;Node11</title>
<path fill="none" stroke="midnightblue" d="M930.274,-51C938.907,-51 947.626,-51 956.188,-51"/>
<polygon fill="midnightblue" stroke="midnightblue" points="930.195,-47.5001 920.195,-51 930.195,-54.5001 930.195,-47.5001"/>
</g>
<!-- Node12 -->
<g id="node23" class="node"><title>Node12</title>
<a xlink:href="class_hydrax_1_1_hydrax.html#aaf840e19208614533a6b344e32965ee2" target="_top" xlink:title="Hydrax::Hydrax::create">
<polygon fill="white" stroke="black" points="1361.5,-80.5 1361.5,-101.5 1480.5,-101.5 1480.5,-80.5 1361.5,-80.5"/>
<text text-anchor="middle" x="1421" y="-88.5" font-family="Helvetica,sans-Serif" font-size="10.00">Hydrax::Hydrax::create</text>
</a>
</g>
<!-- Node11&#45;&gt;Node12 -->
<g id="edge22" class="edge"><title>Node11&#45;&gt;Node12</title>
<path fill="none" stroke="midnightblue" d="M1111.6,-63.1864C1129.28,-66.0441 1148.31,-68.8722 1166,-71 1232.68,-79.0226 1309.58,-84.5467 1361.35,-87.7243"/>
<polygon fill="midnightblue" stroke="midnightblue" points="1111.79,-59.6722 1101.36,-61.5054 1110.66,-66.5797 1111.79,-59.6722"/>
</g>
<!-- Node15 -->
<g id="node29" class="node"><title>Node15</title>
<a xlink:href="class_hydrax_1_1_hydrax.html#a8564eb97a6a5085af5d0475947af1599" target="_top" xlink:title="Hydrax::Hydrax::_checkVisible">
<polygon fill="white" stroke="black" points="1166,-40.5 1166,-61.5 1318,-61.5 1318,-40.5 1166,-40.5"/>
<text text-anchor="middle" x="1242" y="-48.5" font-family="Helvetica,sans-Serif" font-size="10.00">Hydrax::Hydrax::_checkVisible</text>
</a>
</g>
<!-- Node11&#45;&gt;Node15 -->
<g id="edge28" class="edge"><title>Node11&#45;&gt;Node15</title>
<path fill="none" stroke="midnightblue" d="M1139.91,-51C1148.63,-51 1157.38,-51 1165.88,-51"/>
<polygon fill="midnightblue" stroke="midnightblue" points="1139.71,-47.5001 1129.71,-51 1139.71,-54.5001 1139.71,-47.5001"/>
</g>
<!-- Node18 -->
<g id="node36" class="node"><title>Node18</title>
<a xlink:href="class_hydrax_1_1_hydrax.html#ac584e30a6cbfb5d8884afb182c29d36a" target="_top" xlink:title="Hydrax::Hydrax::update">
<polygon fill="white" stroke="black" points="1181.5,-0.5 1181.5,-21.5 1302.5,-21.5 1302.5,-0.5 1181.5,-0.5"/>
<text text-anchor="middle" x="1242" y="-8.5" font-family="Helvetica,sans-Serif" font-size="10.00">Hydrax::Hydrax::update</text>
</a>
</g>
<!-- Node11&#45;&gt;Node18 -->
<g id="edge36" class="edge"><title>Node11&#45;&gt;Node18</title>
<path fill="none" stroke="midnightblue" d="M1105.44,-38.45C1132.52,-33.0054 1163.89,-26.7014 1189.72,-21.5087"/>
<polygon fill="midnightblue" stroke="midnightblue" points="1104.4,-35.0884 1095.28,-40.4905 1105.78,-41.9511 1104.4,-35.0884"/>
</g>
<!-- Node13 -->
<g id="node25" class="node"><title>Node13</title>
<a xlink:href="class_hydrax_water.html#aedfd9537f96021b60a195b2bb6a9ee2d" target="_top" xlink:title="HydraxWater::InitHydrax">
<polygon fill="white" stroke="black" points="1524.5,-80.5 1524.5,-101.5 1649.5,-101.5 1649.5,-80.5 1524.5,-80.5"/>
<text text-anchor="middle" x="1587" y="-88.5" font-family="Helvetica,sans-Serif" font-size="10.00">HydraxWater::InitHydrax</text>
</a>
</g>
<!-- Node12&#45;&gt;Node13 -->
<g id="edge24" class="edge"><title>Node12&#45;&gt;Node13</title>
<path fill="none" stroke="midnightblue" d="M1490.99,-91C1502.07,-91 1513.46,-91 1524.36,-91"/>
<polygon fill="midnightblue" stroke="midnightblue" points="1490.93,-87.5001 1480.93,-91 1490.93,-94.5001 1490.93,-87.5001"/>
</g>
<!-- Node14 -->
<g id="node27" class="node"><title>Node14</title>
<a xlink:href="class_hydrax_water.html#a20bb0db860124c8e18903f5d640f88db" target="_top" xlink:title="HydraxWater::HydraxWater">
<polygon fill="white" stroke="black" points="1686,-80.5 1686,-101.5 1824,-101.5 1824,-80.5 1686,-80.5"/>
<text text-anchor="middle" x="1755" y="-88.5" font-family="Helvetica,sans-Serif" font-size="10.00">HydraxWater::HydraxWater</text>
</a>
</g>
<!-- Node13&#45;&gt;Node14 -->
<g id="edge26" class="edge"><title>Node13&#45;&gt;Node14</title>
<path fill="none" stroke="midnightblue" d="M1659.68,-91C1668.38,-91 1677.25,-91 1685.9,-91"/>
<polygon fill="midnightblue" stroke="midnightblue" points="1659.56,-87.5001 1649.56,-91 1659.56,-94.5001 1659.56,-87.5001"/>
</g>
<!-- Node15&#45;&gt;Node12 -->
<g id="edge30" class="edge"><title>Node15&#45;&gt;Node12</title>
<path fill="none" stroke="midnightblue" d="M1298.81,-63.6941C1323.02,-69.1056 1350.94,-75.3443 1373.97,-80.4913"/>
<polygon fill="midnightblue" stroke="midnightblue" points="1299.55,-60.2747 1289.03,-61.5095 1298.03,-67.1062 1299.55,-60.2747"/>
</g>
<!-- Node16 -->
<g id="node32" class="node"><title>Node16</title>
<a xlink:href="class_hydrax_1_1_hydrax.html#a2c6e89c89098c1ae2f152b0cac0ecfde" target="_top" xlink:title="Hydrax::Hydrax::setVisible">
<polygon fill="white" stroke="black" points="1354,-40.5 1354,-61.5 1488,-61.5 1488,-40.5 1354,-40.5"/>
<text text-anchor="middle" x="1421" y="-48.5" font-family="Helvetica,sans-Serif" font-size="10.00">Hydrax::Hydrax::setVisible</text>
</a>
</g>
<!-- Node15&#45;&gt;Node16 -->
<g id="edge32" class="edge"><title>Node15&#45;&gt;Node16</title>
<path fill="none" stroke="midnightblue" d="M1328.26,-51C1336.89,-51 1345.56,-51 1353.95,-51"/>
<polygon fill="midnightblue" stroke="midnightblue" points="1328.17,-47.5001 1318.17,-51 1328.17,-54.5001 1328.17,-47.5001"/>
</g>
<!-- Node17 -->
<g id="node34" class="node"><title>Node17</title>
<a xlink:href="class_hydrax_water.html#a21b7f14c1cce1f562a596543dc335a4c" target="_top" xlink:title="HydraxWater::setVisible">
<polygon fill="white" stroke="black" points="1525.5,-40.5 1525.5,-61.5 1648.5,-61.5 1648.5,-40.5 1525.5,-40.5"/>
<text text-anchor="middle" x="1587" y="-48.5" font-family="Helvetica,sans-Serif" font-size="10.00">HydraxWater::setVisible</text>
</a>
</g>
<!-- Node16&#45;&gt;Node17 -->
<g id="edge34" class="edge"><title>Node16&#45;&gt;Node17</title>
<path fill="none" stroke="midnightblue" d="M1498.24,-51C1507.33,-51 1516.51,-51 1525.34,-51"/>
<polygon fill="midnightblue" stroke="midnightblue" points="1498.04,-47.5001 1488.04,-51 1498.04,-54.5001 1498.04,-47.5001"/>
</g>
<!-- Node19 -->
<g id="node38" class="node"><title>Node19</title>
<a xlink:href="class_hydrax_water.html#a00888728a3ac027b68807892c1ec614b" target="_top" xlink:title="HydraxWater::framestep">
<polygon fill="white" stroke="black" points="1359,-0.5 1359,-21.5 1483,-21.5 1483,-0.5 1359,-0.5"/>
<text text-anchor="middle" x="1421" y="-8.5" font-family="Helvetica,sans-Serif" font-size="10.00">HydraxWater::framestep</text>
</a>
</g>
<!-- Node18&#45;&gt;Node19 -->
<g id="edge38" class="edge"><title>Node18&#45;&gt;Node19</title>
<path fill="none" stroke="midnightblue" d="M1312.98,-11C1328.17,-11 1344.11,-11 1358.94,-11"/>
<polygon fill="midnightblue" stroke="midnightblue" points="1312.6,-7.5001 1302.6,-11 1312.6,-14.5001 1312.6,-7.5001"/>
</g>
</g>
</svg>
        <g id="navigator" transform="translate(0 0)" fill="#404254">
                <rect fill="#f2f5e9" fill-opacity="0.5" stroke="#606060" stroke-width=".5" x="0" y="0" width="60" height="60"/>
                <use id="zoomplus" xlink:href="#zoomPlus" x="17" y="9" onmousedown="handleZoom(evt,'in')"/>
                <use id="zoomminus" xlink:href="#zoomMin" x="42" y="9" onmousedown="handleZoom(evt,'out')"/>
                <use id="reset" xlink:href="#resetDef" x="30" y="36" onmousedown="handleReset()"/>
                <g id="arrowUp" xlink:href="#dirArrow" transform="translate(30 24)" onmousedown="handlePan(0,-1)">
                  <use xlink:href="#rim" fill="#404040">
                        <set attributeName="fill" to="#808080" begin="arrowUp.mouseover" end="arrowUp.mouseout"/>
                  </use>
                  <path fill="none" stroke="white" stroke-width="1.5" d="M0,-3.0v7 M-2.5,-0.5L0,-3.0L2.5,-0.5"/>
                </g>
                <g id="arrowRight" xlink:href="#dirArrow" transform="rotate(90) translate(36 -43)" onmousedown="handlePan(1,0)">
                  <use xlink:href="#rim" fill="#404040">
                        <set attributeName="fill" to="#808080" begin="arrowRight.mouseover" end="arrowRight.mouseout"/>
                  </use>
                  <path fill="none" stroke="white" stroke-width="1.5" d="M0,-3.0v7 M-2.5,-0.5L0,-3.0L2.5,-0.5"/>
                </g>
                <g id="arrowDown" xlink:href="#dirArrow" transform="rotate(180) translate(-30 -48)" onmousedown="handlePan(0,1)">
                  <use xlink:href="#rim" fill="#404040">
                        <set attributeName="fill" to="#808080" begin="arrowDown.mouseover" end="arrowDown.mouseout"/>
                  </use>
                  <path fill="none" stroke="white" stroke-width="1.5" d="M0,-3.0v7 M-2.5,-0.5L0,-3.0L2.5,-0.5"/>
                </g>
                <g id="arrowLeft" xlink:href="#dirArrow" transform="rotate(270) translate(-36 17)" onmousedown="handlePan(-1,0)">
                  <use xlink:href="#rim" fill="#404040">
                        <set attributeName="fill" to="#808080" begin="arrowLeft.mouseover" end="arrowLeft.mouseout"/>
                  </use>
                  <path fill="none" stroke="white" stroke-width="1.5" d="M0,-3.0v7 M-2.5,-0.5L0,-3.0L2.5,-0.5"/>
                </g>
        </g>
</svg>
