<?xml version="1.0" encoding="UTF-8" standalone="no"?>
<!DOCTYPE svg PUBLIC "-//W3C//DTD SVG 1.1//EN"
 "http://www.w3.org/Graphics/SVG/1.1/DTD/svg11.dtd">
<!-- Generated by graphviz version 2.26.3 (20100126.1600)
 -->
<!-- Title: RoR::GUIManager Pages: 1 -->
<svg width="276pt" height="190pt"
 viewBox="0.00 0.00 276.00 190.00" xmlns="http://www.w3.org/2000/svg" xmlns:xlink="http://www.w3.org/1999/xlink">
<g id="graph1" class="graph" transform="scale(1 1) rotate(0) translate(4 186)">
<title>RoR::GUIManager</title>
<polygon fill="white" stroke="white" points="-4,5 -4,-186 273,-186 273,5 -4,5"/>
<!-- Node1 -->
<g id="node1" class="node"><title>Node1</title>
<polygon fill="#bfbfbf" stroke="black" points="170,-80.5 170,-101.5 268,-101.5 268,-80.5 170,-80.5"/>
<text text-anchor="middle" x="219" y="-88.5" font-family="Helvetica,sans-Serif" font-size="10.00">RoR::GUIManager</text>
</g>
<!-- Node2 -->
<g id="node2" class="node"><title>Node2</title>
<polygon fill="white" stroke="#bfbfbf" points="20,-160.5 20,-181.5 114,-181.5 114,-160.5 20,-160.5"/>
<text text-anchor="middle" x="67" y="-168.5" font-family="Helvetica,sans-Serif" font-size="10.00">GUIInputManager</text>
</g>
<!-- Node2&#45;&gt;Node1 -->
<g id="edge2" class="edge"><title>Node2&#45;&gt;Node1</title>
<path fill="none" stroke="midnightblue" d="M119.552,-157.116C124.519,-155.269 129.409,-153.231 134,-151 162.106,-137.341 191.043,-114.742 206.852,-101.524"/>
<polygon fill="midnightblue" stroke="midnightblue" points="118.267,-153.857 109.963,-160.436 120.557,-160.472 118.267,-153.857"/>
</g>
<!-- Node3 -->
<g id="node4" class="node"><title>Node3</title>
<polygon fill="white" stroke="#bfbfbf" points="27.5,-120.5 27.5,-141.5 106.5,-141.5 106.5,-120.5 27.5,-120.5"/>
<text text-anchor="middle" x="67" y="-128.5" font-family="Helvetica,sans-Serif" font-size="10.00">FrameListener</text>
</g>
<!-- Node3&#45;&gt;Node1 -->
<g id="edge4" class="edge"><title>Node3&#45;&gt;Node1</title>
<path fill="none" stroke="midnightblue" d="M116.222,-118.047C136.484,-112.715 159.658,-106.616 178.866,-101.562"/>
<polygon fill="midnightblue" stroke="midnightblue" points="115.319,-114.665 106.539,-120.595 117.101,-121.435 115.319,-114.665"/>
</g>
<!-- Node4 -->
<g id="node6" class="node"><title>Node4</title>
<polygon fill="white" stroke="#bfbfbf" points="11,-80.5 11,-101.5 123,-101.5 123,-80.5 11,-80.5"/>
<text text-anchor="middle" x="67" y="-88.5" font-family="Helvetica,sans-Serif" font-size="10.00">WindowEventListener</text>
</g>
<!-- Node4&#45;&gt;Node1 -->
<g id="edge6" class="edge"><title>Node4&#45;&gt;Node1</title>
<path fill="none" stroke="midnightblue" d="M133.293,-91C145.475,-91 157.995,-91 169.574,-91"/>
<polygon fill="midnightblue" stroke="midnightblue" points="133.167,-87.5001 123.167,-91 133.167,-94.5001 133.167,-87.5001"/>
</g>
<!-- Node5 -->
<g id="node8" class="node"><title>Node5</title>
<a xlink:href="class_zeroed_memory_allocator.html" target="_top" xlink:title="ZeroedMemoryAllocator">
<polygon fill="white" stroke="black" points="7,-40.5 7,-61.5 127,-61.5 127,-40.5 7,-40.5"/>
<text text-anchor="middle" x="67" y="-48.5" font-family="Helvetica,sans-Serif" font-size="10.00">ZeroedMemoryAllocator</text>
</a>
</g>
<!-- Node5&#45;&gt;Node1 -->
<g id="edge8" class="edge"><title>Node5&#45;&gt;Node1</title>
<path fill="none" stroke="midnightblue" d="M116.613,-64.0561C136.853,-69.3823 159.943,-75.4587 179.067,-80.4913"/>
<polygon fill="midnightblue" stroke="midnightblue" points="117.498,-60.6698 106.936,-61.5095 115.716,-67.4393 117.498,-60.6698"/>
</g>
<!-- Node6 -->
<g id="node10" class="node"><title>Node6</title>
<a xlink:href="class_ro_r_1_1_gui_manager_interface.html" target="_top" xlink:title="RoR::GuiManagerInterface">
<polygon fill="white" stroke="black" points="0,-0.5 0,-21.5 134,-21.5 134,-0.5 0,-0.5"/>
<text text-anchor="middle" x="67" y="-8.5" font-family="Helvetica,sans-Serif" font-size="10.00">RoR::GuiManagerInterface</text>
</a>
</g>
<!-- Node6&#45;&gt;Node1 -->
<g id="edge10" class="edge"><title>Node6&#45;&gt;Node1</title>
<path fill="none" stroke="midnightblue" d="M119.552,-24.8836C124.519,-26.7313 129.409,-28.769 134,-31 162.106,-44.6591 191.043,-67.2579 206.852,-80.476"/>
<polygon fill="midnightblue" stroke="midnightblue" points="120.557,-21.528 109.963,-21.5638 118.267,-28.1428 120.557,-21.528"/>
</g>
</g>
</svg>
