<?xml version="1.0" encoding="UTF-8" standalone="no"?>
<!DOCTYPE svg PUBLIC "-//W3C//DTD SVG 1.1//EN"
 "http://www.w3.org/Graphics/SVG/1.1/DTD/svg11.dtd">
<!-- Generated by graphviz version 2.26.3 (20100126.1600)
 -->
<!-- Title: G Pages: 1 -->
<!--zoomable 150 -->
<svg id="main" version="1.1" xmlns="http://www.w3.org/2000/svg" xmlns:xlink="http://www.w3.org/1999/xlink" xml:space="preserve" onload="init(evt)">
        <defs>
                <circle id="rim" cx="0" cy="0" r="7"/>
                <circle id="rim2" cx="0" cy="0" r="3.5"/>
                <g id="zoomPlus">
                        <use xlink:href="#rim" fill="#404040">
                                <set attributeName="fill" to="#808080" begin="zoomplus.mouseover" end="zoomplus.mouseout"/>
                        </use>
                        <path d="M-4,0h8M0,-4v8" fill="none" stroke="white" stroke-width="1.5" pointer-events="none"/>
                </g>
                <g id="zoomMin">
                        <use xlink:href="#rim" fill="#404040">
                                <set attributeName="fill" to="#808080" begin="zoomminus.mouseover" end="zoomminus.mouseout"/>
                        </use>
                        <path d="M-4,0h8" fill="none" stroke="white" stroke-width="1.5" pointer-events="none"/>
                </g>
                <g id="dirArrow">
                        <path fill="none" stroke="white" stroke-width="1.5" d="M0,-3.0v7 M-2.5,-0.5L0,-3.0L2.5,-0.5"/>
                </g>
               <g id="resetDef">
                       <use xlink:href="#rim2" fill="#404040">
                               <set attributeName="fill" to="#808080" begin="reset.mouseover" end="reset.mouseout"/>
                       </use>
               </g>
        </defs>

<script type="text/javascript">
var viewWidth = 650;
var viewHeight = 150;
var sectionId = 'dynsection-58';
</script>
<script xlink:href="svgpan.js"/>
<svg id="graph" class="graph">
<g id="viewport">
<title>G</title>
<polygon fill="white" stroke="white" points="-4,5 -4,-146 647,-146 647,5 -4,5"/>
<!-- Node1 -->
<g id="node1" class="node"><title>Node1</title>
<polygon fill="#bfbfbf" stroke="black" points="0.5,-80.5 0.5,-101.5 131.5,-101.5 131.5,-80.5 0.5,-80.5"/>
<text text-anchor="middle" x="66" y="-88.5" font-family="Helvetica,sans-Serif" font-size="10.00">CacheSystem::loadCache</text>
</g>
<!-- Node2 -->
<g id="node3" class="node"><title>Node2</title>
<a xlink:href="class_cache_system.html#a48763a6f943698105e8f2947d07e8110" target="_top" xlink:title="CacheSystem::getCacheConfigFilename">
<polygon fill="white" stroke="black" points="171.5,-120.5 171.5,-141.5 366.5,-141.5 366.5,-120.5 171.5,-120.5"/>
<text text-anchor="middle" x="269" y="-128.5" font-family="Helvetica,sans-Serif" font-size="10.00">CacheSystem::getCacheConfigFilename</text>
</a>
</g>
<!-- Node1&#45;&gt;Node2 -->
<g id="edge2" class="edge"><title>Node1&#45;&gt;Node2</title>
<path fill="none" stroke="midnightblue" d="M119.336,-101.51C145.805,-106.725 177.964,-113.062 205.678,-118.523"/>
<polygon fill="midnightblue" stroke="midnightblue" points="205.18,-121.992 215.668,-120.491 206.534,-115.124 205.18,-121.992"/>
</g>
<!-- Node3 -->
<g id="node5" class="node"><title>Node3</title>
<a xlink:href="class_cache_system.html#aa025222e89657b72478453191ee04878" target="_top" xlink:title="CacheSystem::resourceExistsInAllGroups">
<polygon fill="white" stroke="black" points="168.5,-80.5 168.5,-101.5 369.5,-101.5 369.5,-80.5 168.5,-80.5"/>
<text text-anchor="middle" x="269" y="-88.5" font-family="Helvetica,sans-Serif" font-size="10.00">CacheSystem::resourceExistsInAllGroups</text>
</a>
</g>
<!-- Node1&#45;&gt;Node3 -->
<g id="edge4" class="edge"><title>Node1&#45;&gt;Node3</title>
<path fill="none" stroke="midnightblue" d="M131.628,-91C140.129,-91 149.014,-91 158,-91"/>
<polygon fill="midnightblue" stroke="midnightblue" points="158.173,-94.5001 168.173,-91 158.173,-87.5001 158.173,-94.5001"/>
</g>
<!-- Node4 -->
<g id="node7" class="node"><title>Node4</title>
<a xlink:href="class_cache_system.html#a56c6220bad73c66209212753882d7f82" target="_top" xlink:title="CacheSystem::parseModAttribute">
<polygon fill="white" stroke="black" points="187,-40.5 187,-61.5 351,-61.5 351,-40.5 187,-40.5"/>
<text text-anchor="middle" x="269" y="-48.5" font-family="Helvetica,sans-Serif" font-size="10.00">CacheSystem::parseModAttribute</text>
</a>
</g>
<!-- Node1&#45;&gt;Node4 -->
<g id="edge6" class="edge"><title>Node1&#45;&gt;Node4</title>
<path fill="none" stroke="midnightblue" d="M119.336,-80.4905C145.805,-75.2748 177.964,-68.9381 205.678,-63.4773"/>
<polygon fill="midnightblue" stroke="midnightblue" points="206.534,-66.876 215.668,-61.5087 205.18,-60.0081 206.534,-66.876"/>
</g>
<!-- Node5 -->
<g id="node9" class="node"><title>Node5</title>
<a xlink:href="class_cache_system.html#aac096285e86a0452ef689f6a50e4b6d8" target="_top" xlink:title="CacheSystem::logBadTruckAttrib">
<polygon fill="white" stroke="black" points="406.5,-80.5 406.5,-101.5 569.5,-101.5 569.5,-80.5 406.5,-80.5"/>
<text text-anchor="middle" x="488" y="-88.5" font-family="Helvetica,sans-Serif" font-size="10.00">CacheSystem::logBadTruckAttrib</text>
</a>
</g>
<!-- Node4&#45;&gt;Node5 -->
<g id="edge8" class="edge"><title>Node4&#45;&gt;Node5</title>
<path fill="none" stroke="midnightblue" d="M326.54,-61.5095C355.346,-66.771 390.398,-73.1732 420.473,-78.6662"/>
<polygon fill="midnightblue" stroke="midnightblue" points="419.999,-82.1375 430.465,-80.4913 421.256,-75.2514 419.999,-82.1375"/>
</g>
<!-- Node6 -->
<g id="node11" class="node"><title>Node6</title>
<a xlink:href="scriptstdstring_8cpp.html#ab33d705eee9afd65e8991f82d9c71fe3" target="_top" xlink:title="parseInt">
<polygon fill="white" stroke="black" points="462,-40.5 462,-61.5 514,-61.5 514,-40.5 462,-40.5"/>
<text text-anchor="middle" x="488" y="-48.5" font-family="Helvetica,sans-Serif" font-size="10.00">parseInt</text>
</a>
</g>
<!-- Node4&#45;&gt;Node6 -->
<g id="edge10" class="edge"><title>Node4&#45;&gt;Node6</title>
<path fill="none" stroke="midnightblue" d="M351.171,-51C385.779,-51 424.279,-51 451.602,-51"/>
<polygon fill="midnightblue" stroke="midnightblue" points="451.856,-54.5001 461.856,-51 451.856,-47.5001 451.856,-54.5001"/>
</g>
<!-- Node8 -->
<g id="node15" class="node"><title>Node8</title>
<a xlink:href="class_cache_system.html#a184e43c9fc5e12003e0f3895de93060f" target="_top" xlink:title="CacheSystem::deNormalizeText">
<polygon fill="white" stroke="black" points="408.5,-0.5 408.5,-21.5 567.5,-21.5 567.5,-0.5 408.5,-0.5"/>
<text text-anchor="middle" x="488" y="-8.5" font-family="Helvetica,sans-Serif" font-size="10.00">CacheSystem::deNormalizeText</text>
</a>
</g>
<!-- Node4&#45;&gt;Node8 -->
<g id="edge14" class="edge"><title>Node4&#45;&gt;Node8</title>
<path fill="none" stroke="midnightblue" d="M326.54,-40.4905C355.346,-35.229 390.398,-28.8268 420.473,-23.3338"/>
<polygon fill="midnightblue" stroke="midnightblue" points="421.256,-26.7486 430.465,-21.5087 419.999,-19.8625 421.256,-26.7486"/>
</g>
<!-- Node7 -->
<g id="node13" class="node"><title>Node7</title>
<a xlink:href="_approx_math_8h.html#ad685178dbcfdd207c7306561512e1582" target="_top" xlink:title="sign">
<polygon fill="white" stroke="black" points="606.5,-40.5 606.5,-61.5 641.5,-61.5 641.5,-40.5 606.5,-40.5"/>
<text text-anchor="middle" x="624" y="-48.5" font-family="Helvetica,sans-Serif" font-size="10.00">sign</text>
</a>
</g>
<!-- Node6&#45;&gt;Node7 -->
<g id="edge12" class="edge"><title>Node6&#45;&gt;Node7</title>
<path fill="none" stroke="midnightblue" d="M514.222,-51C537.784,-51 572.271,-51 596.281,-51"/>
<polygon fill="midnightblue" stroke="midnightblue" points="596.499,-54.5001 606.499,-51 596.499,-47.5001 596.499,-54.5001"/>
</g>
</g>
</svg>
        <g id="navigator" transform="translate(0 0)" fill="#404254">
                <rect fill="#f2f5e9" fill-opacity="0.5" stroke="#606060" stroke-width=".5" x="0" y="0" width="60" height="60"/>
                <use id="zoomplus" xlink:href="#zoomPlus" x="17" y="9" onmousedown="handleZoom(evt,'in')"/>
                <use id="zoomminus" xlink:href="#zoomMin" x="42" y="9" onmousedown="handleZoom(evt,'out')"/>
                <use id="reset" xlink:href="#resetDef" x="30" y="36" onmousedown="handleReset()"/>
                <g id="arrowUp" xlink:href="#dirArrow" transform="translate(30 24)" onmousedown="handlePan(0,-1)">
                  <use xlink:href="#rim" fill="#404040">
                        <set attributeName="fill" to="#808080" begin="arrowUp.mouseover" end="arrowUp.mouseout"/>
                  </use>
                  <path fill="none" stroke="white" stroke-width="1.5" d="M0,-3.0v7 M-2.5,-0.5L0,-3.0L2.5,-0.5"/>
                </g>
                <g id="arrowRight" xlink:href="#dirArrow" transform="rotate(90) translate(36 -43)" onmousedown="handlePan(1,0)">
                  <use xlink:href="#rim" fill="#404040">
                        <set attributeName="fill" to="#808080" begin="arrowRight.mouseover" end="arrowRight.mouseout"/>
                  </use>
                  <path fill="none" stroke="white" stroke-width="1.5" d="M0,-3.0v7 M-2.5,-0.5L0,-3.0L2.5,-0.5"/>
                </g>
                <g id="arrowDown" xlink:href="#dirArrow" transform="rotate(180) translate(-30 -48)" onmousedown="handlePan(0,1)">
                  <use xlink:href="#rim" fill="#404040">
                        <set attributeName="fill" to="#808080" begin="arrowDown.mouseover" end="arrowDown.mouseout"/>
                  </use>
                  <path fill="none" stroke="white" stroke-width="1.5" d="M0,-3.0v7 M-2.5,-0.5L0,-3.0L2.5,-0.5"/>
                </g>
                <g id="arrowLeft" xlink:href="#dirArrow" transform="rotate(270) translate(-36 17)" onmousedown="handlePan(-1,0)">
                  <use xlink:href="#rim" fill="#404040">
                        <set attributeName="fill" to="#808080" begin="arrowLeft.mouseover" end="arrowLeft.mouseout"/>
                  </use>
                  <path fill="none" stroke="white" stroke-width="1.5" d="M0,-3.0v7 M-2.5,-0.5L0,-3.0L2.5,-0.5"/>
                </g>
        </g>
</svg>
