<?xml version="1.0" encoding="UTF-8" standalone="no"?>
<!DOCTYPE svg PUBLIC "-//W3C//DTD SVG 1.1//EN"
 "http://www.w3.org/Graphics/SVG/1.1/DTD/svg11.dtd">
<!-- Generated by graphviz version 2.26.3 (20100126.1600)
 -->
<!-- Title: CameraManager::NotifyVehicleChanged Pages: 1 -->
<svg width="532pt" height="120pt"
 viewBox="0.00 0.00 532.00 120.00" xmlns="http://www.w3.org/2000/svg" xmlns:xlink="http://www.w3.org/1999/xlink">
<g id="graph1" class="graph" transform="scale(1 1) rotate(0) translate(4 116)">
<title>CameraManager::NotifyVehicleChanged</title>
<polygon fill="white" stroke="white" points="-4,5 -4,-116 529,-116 529,5 -4,5"/>
<!-- Node1 -->
<g id="node1" class="node"><title>Node1</title>
<polygon fill="#bfbfbf" stroke="black" points="0.5,-45 0.5,-79 153.5,-79 153.5,-45 0.5,-45"/>
<text text-anchor="start" x="8.5" y="-66" font-family="Helvetica,sans-Serif" font-size="10.00">CameraManager::NotifyVehicle</text>
<text text-anchor="middle" x="77" y="-53" font-family="Helvetica,sans-Serif" font-size="10.00">Changed</text>
</g>
<!-- Node2 -->
<g id="node3" class="node"><title>Node2</title>
<a xlink:href="class_camera_manager.html#a6f50a61b22fd1193ec25c5c2dc8f3ae3" target="_top" xlink:title="CameraManager::switchBehavior">
<polygon fill="white" stroke="black" points="191.5,-90.5 191.5,-111.5 352.5,-111.5 352.5,-90.5 191.5,-90.5"/>
<text text-anchor="middle" x="272" y="-98.5" font-family="Helvetica,sans-Serif" font-size="10.00">CameraManager::switchBehavior</text>
</a>
</g>
<!-- Node1&#45;&gt;Node2 -->
<g id="edge2" class="edge"><title>Node1&#45;&gt;Node2</title>
<path fill="none" stroke="midnightblue" d="M153.509,-77.3019C171.973,-80.9945 191.49,-84.898 209.24,-88.4481"/>
<polygon fill="midnightblue" stroke="midnightblue" points="208.974,-91.964 219.466,-90.4932 210.347,-85.0999 208.974,-91.964"/>
</g>
<!-- Node3 -->
<g id="node5" class="node"><title>Node3</title>
<a xlink:href="class_beam.html#a39d38800d5ab3b85b305d94b2c8ea502" target="_top" xlink:title="Beam::GetCameraContext">
<polygon fill="white" stroke="black" points="390.5,-70.5 390.5,-91.5 523.5,-91.5 523.5,-70.5 390.5,-70.5"/>
<text text-anchor="middle" x="457" y="-78.5" font-family="Helvetica,sans-Serif" font-size="10.00">Beam::GetCameraContext</text>
</a>
</g>
<!-- Node1&#45;&gt;Node3 -->
<g id="edge6" class="edge"><title>Node1&#45;&gt;Node3</title>
<path fill="none" stroke="midnightblue" d="M153.899,-65.8449C219.773,-69.1386 314.165,-73.8583 380.053,-77.1527"/>
<polygon fill="midnightblue" stroke="midnightblue" points="380.212,-80.6649 390.374,-77.6687 380.562,-73.6736 380.212,-80.6649"/>
</g>
<!-- Node4 -->
<g id="node8" class="node"><title>Node4</title>
<a xlink:href="class_camera_manager.html#a522774afcf439b4e08bc364259d97062" target="_top" xlink:title="CameraManager::SwitchBehavior\lOnVehicleChange">
<polygon fill="white" stroke="black" points="190.5,-0 190.5,-34 353.5,-34 353.5,-0 190.5,-0"/>
<text text-anchor="start" x="198.5" y="-21" font-family="Helvetica,sans-Serif" font-size="10.00">CameraManager::SwitchBehavior</text>
<text text-anchor="middle" x="272" y="-8" font-family="Helvetica,sans-Serif" font-size="10.00">OnVehicleChange</text>
</a>
</g>
<!-- Node1&#45;&gt;Node4 -->
<g id="edge8" class="edge"><title>Node1&#45;&gt;Node4</title>
<path fill="none" stroke="midnightblue" d="M150.721,-44.9874C162.976,-42.1594 175.764,-39.2082 188.246,-36.3278"/>
<polygon fill="midnightblue" stroke="midnightblue" points="189.218,-39.6957 198.175,-34.0366 187.644,-32.8749 189.218,-39.6957"/>
</g>
<!-- Node2&#45;&gt;Node3 -->
<g id="edge4" class="edge"><title>Node2&#45;&gt;Node3</title>
<path fill="none" stroke="midnightblue" d="M352.606,-92.2859C361.732,-91.2993 371.015,-90.2957 380.092,-89.3144"/>
<polygon fill="midnightblue" stroke="midnightblue" points="380.667,-92.7727 390.233,-88.218 379.915,-85.8132 380.667,-92.7727"/>
</g>
</g>
</svg>
