<?xml version="1.0" encoding="UTF-8" standalone="no"?>
<!DOCTYPE svg PUBLIC "-//W3C//DTD SVG 1.1//EN"
 "http://www.w3.org/Graphics/SVG/1.1/DTD/svg11.dtd">
<!-- Generated by graphviz version 2.26.3 (20100126.1600)
 -->
<!-- Title: RoR::Application::GetOverlayWrapper Pages: 1 -->
<svg width="1652pt" height="1072pt"
 viewBox="0.00 0.00 1652.00 1072.00" xmlns="http://www.w3.org/2000/svg" xmlns:xlink="http://www.w3.org/1999/xlink">
<g id="graph1" class="graph" transform="scale(1 1) rotate(0) translate(4 1068)">
<title>RoR::Application::GetOverlayWrapper</title>
<polygon fill="white" stroke="white" points="-4,5 -4,-1068 1649,-1068 1649,5 -4,5"/>
<!-- Node1 -->
<g id="node1" class="node"><title>Node1</title>
<polygon fill="#bfbfbf" stroke="black" points="0,-388 0,-422 146,-422 146,-388 0,-388"/>
<text text-anchor="start" x="8" y="-409" font-family="Helvetica,sans-Serif" font-size="10.00">RoR::Application::GetOverlay</text>
<text text-anchor="middle" x="73" y="-396" font-family="Helvetica,sans-Serif" font-size="10.00">Wrapper</text>
</g>
<!-- Node2 -->
<g id="node3" class="node"><title>Node2</title>
<a xlink:href="struct_ro_r_1_1_aircraft_simulation.html#a3db164bd65ba10630912b8a76537f69f" target="_top" xlink:title="RoR::AircraftSimulation\l::UpdateVehicle">
<polygon fill="white" stroke="black" points="201,-1030 201,-1064 321,-1064 321,-1030 201,-1030"/>
<text text-anchor="start" x="209" y="-1051" font-family="Helvetica,sans-Serif" font-size="10.00">RoR::AircraftSimulation</text>
<text text-anchor="middle" x="261" y="-1038" font-family="Helvetica,sans-Serif" font-size="10.00">::UpdateVehicle</text>
</a>
</g>
<!-- Node1&#45;&gt;Node2 -->
<g id="edge2" class="edge"><title>Node1&#45;&gt;Node2</title>
<path fill="none" stroke="midnightblue" d="M74.1883,-432.133C79.403,-539.15 103.614,-930.536 182,-1021 187.2,-1027 193.813,-1031.62 200.99,-1035.18"/>
<polygon fill="midnightblue" stroke="midnightblue" points="77.6842,-431.961 73.7168,-422.137 70.692,-432.291 77.6842,-431.961"/>
</g>
<!-- Node3 -->
<g id="node5" class="node"><title>Node3</title>
<a xlink:href="class_ro_r_frame_listener.html#a1e91cc99dc0376d460ded48d85e07d82" target="_top" xlink:title="RoRFrameListener::StartRace\lTimer">
<polygon fill="white" stroke="black" points="186.5,-978 186.5,-1012 335.5,-1012 335.5,-978 186.5,-978"/>
<text text-anchor="start" x="194.5" y="-999" font-family="Helvetica,sans-Serif" font-size="10.00">RoRFrameListener::StartRace</text>
<text text-anchor="middle" x="261" y="-986" font-family="Helvetica,sans-Serif" font-size="10.00">Timer</text>
</a>
</g>
<!-- Node1&#45;&gt;Node3 -->
<g id="edge4" class="edge"><title>Node1&#45;&gt;Node3</title>
<path fill="none" stroke="midnightblue" d="M74.8988,-432.382C82.3867,-533.049 112.906,-881.083 182,-964 186.622,-969.546 192.368,-974.105 198.64,-977.851"/>
<polygon fill="midnightblue" stroke="midnightblue" points="78.3694,-431.851 74.153,-422.131 71.3879,-432.359 78.3694,-431.851"/>
</g>
<!-- Node5 -->
<g id="node9" class="node"><title>Node5</title>
<a xlink:href="class_ro_r_frame_listener.html#a8970611c63a05d2a5272fa2f58cba3ec" target="_top" xlink:title="RoRFrameListener::StopRace\lTimer">
<polygon fill="white" stroke="black" points="570.5,-343 570.5,-377 719.5,-377 719.5,-343 570.5,-343"/>
<text text-anchor="start" x="578.5" y="-364" font-family="Helvetica,sans-Serif" font-size="10.00">RoRFrameListener::StopRace</text>
<text text-anchor="middle" x="645" y="-351" font-family="Helvetica,sans-Serif" font-size="10.00">Timer</text>
</a>
</g>
<!-- Node1&#45;&gt;Node5 -->
<g id="edge8" class="edge"><title>Node1&#45;&gt;Node5</title>
<path fill="none" stroke="midnightblue" d="M156.35,-393.766C165.004,-392.758 173.675,-391.813 182,-391 318.708,-377.656 478.693,-368.336 570.309,-363.599"/>
<polygon fill="midnightblue" stroke="midnightblue" points="155.736,-390.314 146.221,-394.974 156.565,-397.265 155.736,-390.314"/>
</g>
<!-- Node6 -->
<g id="node11" class="node"><title>Node6</title>
<a xlink:href="class_ro_r_frame_listener.html#a6b384193b130f7c1fff95d2e740a370e" target="_top" xlink:title="RoRFrameListener::update\lEvents">
<polygon fill="white" stroke="black" points="785,-733 785,-767 919,-767 919,-733 785,-733"/>
<text text-anchor="start" x="793" y="-754" font-family="Helvetica,sans-Serif" font-size="10.00">RoRFrameListener::update</text>
<text text-anchor="middle" x="852" y="-741" font-family="Helvetica,sans-Serif" font-size="10.00">Events</text>
</a>
</g>
<!-- Node1&#45;&gt;Node6 -->
<g id="edge32" class="edge"><title>Node1&#45;&gt;Node6</title>
<path fill="none" stroke="midnightblue" d="M78.8983,-432.296C90.6133,-480.525 121.106,-581.423 182,-642 313.301,-772.617 387.141,-764.616 570,-794 635.822,-804.577 654.194,-804.679 720,-794 751.832,-788.834 786.361,-777.091 812.118,-767.034"/>
<polygon fill="midnightblue" stroke="midnightblue" points="82.2449,-431.237 76.5574,-422.298 75.4292,-432.832 82.2449,-431.237"/>
</g>
<!-- Node7 -->
<g id="node13" class="node"><title>Node7</title>
<a xlink:href="class_ro_r_frame_listener.html#acd8647e188fb8e838689492965b86faf" target="_top" xlink:title="RoRFrameListener::frameStarted">
<polygon fill="white" stroke="black" points="984.5,-849.5 984.5,-870.5 1145.5,-870.5 1145.5,-849.5 984.5,-849.5"/>
<text text-anchor="middle" x="1065" y="-857.5" font-family="Helvetica,sans-Serif" font-size="10.00">RoRFrameListener::frameStarted</text>
</a>
</g>
<!-- Node1&#45;&gt;Node7 -->
<g id="edge34" class="edge"><title>Node1&#45;&gt;Node7</title>
<path fill="none" stroke="midnightblue" d="M75.4453,-432.618C82.046,-491.171 105.279,-628.952 182,-709 291.833,-823.596 787.914,-851.447 984.452,-858.028"/>
<polygon fill="midnightblue" stroke="midnightblue" points="78.8895,-431.902 74.3665,-422.321 71.9277,-432.631 78.8895,-431.902"/>
</g>
<!-- Node8 -->
<g id="node15" class="node"><title>Node8</title>
<a xlink:href="class_ro_r_1_1_main_thread.html#a19637f726d0913e26e0d0548448d8c91" target="_top" xlink:title="RoR::MainThread::UnloadTerrain">
<polygon fill="white" stroke="black" points="984.5,-349.5 984.5,-370.5 1145.5,-370.5 1145.5,-349.5 984.5,-349.5"/>
<text text-anchor="middle" x="1065" y="-357.5" font-family="Helvetica,sans-Serif" font-size="10.00">RoR::MainThread::UnloadTerrain</text>
</a>
</g>
<!-- Node1&#45;&gt;Node8 -->
<g id="edge74" class="edge"><title>Node1&#45;&gt;Node8</title>
<path fill="none" stroke="midnightblue" d="M135.521,-385.202C150.617,-380.983 166.785,-376.925 182,-374 417.46,-328.739 480.398,-324.984 720,-334 810.635,-337.41 914.38,-345.843 984.236,-352.187"/>
<polygon fill="midnightblue" stroke="midnightblue" points="134.43,-381.873 125.776,-387.987 136.353,-388.604 134.43,-381.873"/>
</g>
<!-- Node9 -->
<g id="node17" class="node"><title>Node9</title>
<a xlink:href="class_ro_r_1_1_main_thread.html#a7e4d0bd23a40e509892883af75ea0dbf" target="_top" xlink:title="RoR::MainThread::Go">
<polygon fill="white" stroke="black" points="1182.5,-349.5 1182.5,-370.5 1295.5,-370.5 1295.5,-349.5 1182.5,-349.5"/>
<text text-anchor="middle" x="1239" y="-357.5" font-family="Helvetica,sans-Serif" font-size="10.00">RoR::MainThread::Go</text>
</a>
</g>
<!-- Node1&#45;&gt;Node9 -->
<g id="edge62" class="edge"><title>Node1&#45;&gt;Node9</title>
<path fill="none" stroke="midnightblue" d="M86.0634,-378.709C103.295,-347.144 136.809,-295.415 182,-271 212.022,-254.78 609.128,-232 645,-232 645,-232 645,-232 852,-232 983.754,-232 1027.29,-212.837 1146,-270 1184.87,-288.716 1217.75,-329.983 1231.76,-349.447"/>
<polygon fill="midnightblue" stroke="midnightblue" points="82.8331,-377.33 81.2433,-387.805 89.0183,-380.607 82.8331,-377.33"/>
</g>
<!-- Node15 -->
<g id="node29" class="node"><title>Node15</title>
<a xlink:href="class_ro_r_frame_listener.html#a862b5aac31577f96f840615a8d722c68" target="_top" xlink:title="RoRFrameListener::Update\lRacingGui">
<polygon fill="white" stroke="black" points="783.5,-888 783.5,-922 920.5,-922 920.5,-888 783.5,-888"/>
<text text-anchor="start" x="791.5" y="-909" font-family="Helvetica,sans-Serif" font-size="10.00">RoRFrameListener::Update</text>
<text text-anchor="middle" x="852" y="-896" font-family="Helvetica,sans-Serif" font-size="10.00">RacingGui</text>
</a>
</g>
<!-- Node1&#45;&gt;Node15 -->
<g id="edge28" class="edge"><title>Node1&#45;&gt;Node15</title>
<path fill="none" stroke="midnightblue" d="M74.9378,-432.263C82.1468,-525.093 110.759,-826.361 182,-885 271.962,-959.048 631.141,-929.489 783.314,-913.103"/>
<polygon fill="midnightblue" stroke="midnightblue" points="78.4244,-431.953 74.1808,-422.245 71.4443,-432.48 78.4244,-431.953"/>
</g>
<!-- Node16 -->
<g id="node34" class="node"><title>Node16</title>
<a xlink:href="class_ro_r_frame_listener.html#adcab3ee32adad6b77c62c8d4ee40e922" target="_top" xlink:title="RoRFrameListener::frameEnded">
<polygon fill="white" stroke="black" points="182,-196.5 182,-217.5 340,-217.5 340,-196.5 182,-196.5"/>
<text text-anchor="middle" x="261" y="-204.5" font-family="Helvetica,sans-Serif" font-size="10.00">RoRFrameListener::frameEnded</text>
</a>
</g>
<!-- Node1&#45;&gt;Node16 -->
<g id="edge36" class="edge"><title>Node1&#45;&gt;Node16</title>
<path fill="none" stroke="midnightblue" d="M82.7636,-378.587C98.1115,-340.655 131.446,-271.035 182,-232 190.084,-225.758 199.761,-221.055 209.525,-217.518"/>
<polygon fill="midnightblue" stroke="midnightblue" points="79.4832,-377.366 79.0805,-387.953 85.9975,-379.927 79.4832,-377.366"/>
</g>
<!-- Node17 -->
<g id="node36" class="node"><title>Node17</title>
<a xlink:href="class_ro_r_frame_listener.html#aeb797acb04a6e1b17e9b9a76eb2eb89f" target="_top" xlink:title="RoRFrameListener::setDirection\lArrow">
<polygon fill="white" stroke="black" points="182,-144 182,-178 340,-178 340,-144 182,-144"/>
<text text-anchor="start" x="190" y="-165" font-family="Helvetica,sans-Serif" font-size="10.00">RoRFrameListener::setDirection</text>
<text text-anchor="middle" x="261" y="-152" font-family="Helvetica,sans-Serif" font-size="10.00">Arrow</text>
</a>
</g>
<!-- Node1&#45;&gt;Node17 -->
<g id="edge38" class="edge"><title>Node1&#45;&gt;Node17</title>
<path fill="none" stroke="midnightblue" d="M79.2702,-377.938C91.2798,-332.065 121.847,-238.971 182,-187 185.933,-183.602 190.323,-180.645 194.962,-178.073"/>
<polygon fill="midnightblue" stroke="midnightblue" points="75.8458,-377.204 76.7964,-387.756 82.6336,-378.914 75.8458,-377.204"/>
</g>
<!-- Node20 -->
<g id="node42" class="node"><title>Node20</title>
<a xlink:href="class_ro_r_frame_listener.html#a967b4a6d8650f6655e436dfeee0172b2" target="_top" xlink:title="RoRFrameListener::window\lResized">
<polygon fill="white" stroke="black" points="996,-911 996,-945 1134,-945 1134,-911 996,-911"/>
<text text-anchor="start" x="1004" y="-932" font-family="Helvetica,sans-Serif" font-size="10.00">RoRFrameListener::window</text>
<text text-anchor="middle" x="1065" y="-919" font-family="Helvetica,sans-Serif" font-size="10.00">Resized</text>
</a>
</g>
<!-- Node1&#45;&gt;Node20 -->
<g id="edge44" class="edge"><title>Node1&#45;&gt;Node20</title>
<path fill="none" stroke="midnightblue" d="M74.6887,-432.405C81.2527,-529.289 108.452,-853.404 182,-920 272.482,-1001.93 332.936,-950 455,-950 455,-950 455,-950 645,-950 768.763,-950 912.76,-940.355 995.941,-933.838"/>
<polygon fill="midnightblue" stroke="midnightblue" points="78.1692,-431.992 74.0203,-422.243 71.1843,-432.452 78.1692,-431.992"/>
</g>
<!-- Node21 -->
<g id="node45" class="node"><title>Node21</title>
<a xlink:href="class_ro_r_frame_listener.html#afb0bc8ea3d0074704bc564ec8ebe79cc" target="_top" xlink:title="RoRFrameListener::hideGUI">
<polygon fill="white" stroke="black" points="384.5,-699.5 384.5,-720.5 525.5,-720.5 525.5,-699.5 384.5,-699.5"/>
<text text-anchor="middle" x="455" y="-707.5" font-family="Helvetica,sans-Serif" font-size="10.00">RoRFrameListener::hideGUI</text>
</a>
</g>
<!-- Node1&#45;&gt;Node21 -->
<g id="edge48" class="edge"><title>Node1&#45;&gt;Node21</title>
<path fill="none" stroke="midnightblue" d="M83.2113,-431.487C99.1159,-469.689 133.136,-540.436 182,-584 251.55,-646.007 356.838,-682.802 414.211,-699.397"/>
<polygon fill="midnightblue" stroke="midnightblue" points="86.391,-430.015 79.3838,-422.068 79.906,-432.65 86.391,-430.015"/>
</g>
<!-- Node22 -->
<g id="node48" class="node"><title>Node22</title>
<a xlink:href="class_camera_behavior_vehicle_cine_cam.html#a21a3912237dcbc89df32a1e393204cc0" target="_top" xlink:title="CameraBehaviorVehicleCine\lCam::activate">
<polygon fill="white" stroke="black" points="190,-92 190,-126 332,-126 332,-92 190,-92"/>
<text text-anchor="start" x="198" y="-113" font-family="Helvetica,sans-Serif" font-size="10.00">CameraBehaviorVehicleCine</text>
<text text-anchor="middle" x="261" y="-100" font-family="Helvetica,sans-Serif" font-size="10.00">Cam::activate</text>
</a>
</g>
<!-- Node1&#45;&gt;Node22 -->
<g id="edge52" class="edge"><title>Node1&#45;&gt;Node22</title>
<path fill="none" stroke="midnightblue" d="M76.4115,-377.453C84.572,-323.26 110.194,-202.233 182,-135 185.584,-131.645 189.609,-128.722 193.895,-126.176"/>
<polygon fill="midnightblue" stroke="midnightblue" points="72.9025,-377.27 74.9641,-387.663 79.8332,-378.253 72.9025,-377.27"/>
</g>
<!-- Node23 -->
<g id="node50" class="node"><title>Node23</title>
<a xlink:href="class_camera_behavior_vehicle_cine_cam.html#a58aa453475d7ec367d28112855c7693b" target="_top" xlink:title="CameraBehaviorVehicleCine\lCam::deactivate">
<polygon fill="white" stroke="black" points="190,-40 190,-74 332,-74 332,-40 190,-40"/>
<text text-anchor="start" x="198" y="-61" font-family="Helvetica,sans-Serif" font-size="10.00">CameraBehaviorVehicleCine</text>
<text text-anchor="middle" x="261" y="-48" font-family="Helvetica,sans-Serif" font-size="10.00">Cam::deactivate</text>
</a>
</g>
<!-- Node1&#45;&gt;Node23 -->
<g id="edge54" class="edge"><title>Node1&#45;&gt;Node23</title>
<path fill="none" stroke="midnightblue" d="M74.3023,-377.874C78.7121,-316.59 97.9883,-166.304 182,-83 185.383,-79.645 189.207,-76.7229 193.302,-74.1779"/>
<polygon fill="midnightblue" stroke="midnightblue" points="70.8056,-377.713 73.658,-387.917 77.7912,-378.162 70.8056,-377.713"/>
</g>
<!-- Node24 -->
<g id="node52" class="node"><title>Node24</title>
<a xlink:href="class_overlay_wrapper.html#a05a9be3b4ab3cf395e0efbec3d1d0ab9" target="_top" xlink:title="OverlayWrapper::SetupDirection\lArrow">
<polygon fill="white" stroke="black" points="376,-433 376,-467 534,-467 534,-433 376,-433"/>
<text text-anchor="start" x="384" y="-454" font-family="Helvetica,sans-Serif" font-size="10.00">OverlayWrapper::SetupDirection</text>
<text text-anchor="middle" x="455" y="-441" font-family="Helvetica,sans-Serif" font-size="10.00">Arrow</text>
</a>
</g>
<!-- Node1&#45;&gt;Node24 -->
<g id="edge56" class="edge"><title>Node1&#45;&gt;Node24</title>
<path fill="none" stroke="midnightblue" d="M156.393,-415.839C165.039,-416.924 173.696,-417.995 182,-419 247.232,-426.892 321.306,-435.267 375.82,-441.319"/>
<polygon fill="midnightblue" stroke="midnightblue" points="156.631,-412.341 146.272,-414.561 155.754,-419.286 156.631,-412.341"/>
</g>
<!-- Node25 -->
<g id="node54" class="node"><title>Node25</title>
<a xlink:href="class_ro_r_1_1_main_thread.html#aa3feeebda7f3f4c31a6cb96ea60c09e0" target="_top" xlink:title="RoR::MainThread::SetupGameplayLoop">
<polygon fill="white" stroke="black" points="756.5,-430.5 756.5,-451.5 947.5,-451.5 947.5,-430.5 756.5,-430.5"/>
<text text-anchor="middle" x="852" y="-438.5" font-family="Helvetica,sans-Serif" font-size="10.00">RoR::MainThread::SetupGameplayLoop</text>
</a>
</g>
<!-- Node1&#45;&gt;Node25 -->
<g id="edge64" class="edge"><title>Node1&#45;&gt;Node25</title>
<path fill="none" stroke="midnightblue" d="M156.19,-408.123C248.516,-411.66 401.929,-417.748 534,-424 608.692,-427.536 693.223,-432.08 756.347,-435.581"/>
<polygon fill="midnightblue" stroke="midnightblue" points="156.195,-404.62 146.068,-407.736 155.927,-411.615 156.195,-404.62"/>
</g>
<!-- Node26 -->
<g id="node59" class="node"><title>Node26</title>
<a xlink:href="class_ro_r_1_1_main_thread.html#a74fc7727056db97d2e0fb789343babd2" target="_top" xlink:title="RoR::MainThread::MainMenu\lLoopUpdateEvents">
<polygon fill="white" stroke="black" points="382.5,-260 382.5,-294 527.5,-294 527.5,-260 382.5,-260"/>
<text text-anchor="start" x="390.5" y="-281" font-family="Helvetica,sans-Serif" font-size="10.00">RoR::MainThread::MainMenu</text>
<text text-anchor="middle" x="455" y="-268" font-family="Helvetica,sans-Serif" font-size="10.00">LoopUpdateEvents</text>
</a>
</g>
<!-- Node1&#45;&gt;Node26 -->
<g id="edge66" class="edge"><title>Node1&#45;&gt;Node26</title>
<path fill="none" stroke="midnightblue" d="M92.8377,-380.17C112.736,-357.213 145.587,-324.267 182,-308 245.586,-279.594 325.439,-273.505 382.323,-273.518"/>
<polygon fill="midnightblue" stroke="midnightblue" points="90.1434,-377.936 86.355,-387.83 95.4868,-382.458 90.1434,-377.936"/>
</g>
<!-- Node29 -->
<g id="node67" class="node"><title>Node29</title>
<a xlink:href="class_ro_r_1_1_main_thread.html#af7d1f53cf02660323c9dfe6cc5a1e7e1" target="_top" xlink:title="RoR::MainThread::Changed\lCurrentVehicle">
<polygon fill="white" stroke="black" points="191.5,-541 191.5,-575 330.5,-575 330.5,-541 191.5,-541"/>
<text text-anchor="start" x="199.5" y="-562" font-family="Helvetica,sans-Serif" font-size="10.00">RoR::MainThread::Changed</text>
<text text-anchor="middle" x="261" y="-549" font-family="Helvetica,sans-Serif" font-size="10.00">CurrentVehicle</text>
</a>
</g>
<!-- Node1&#45;&gt;Node29 -->
<g id="edge76" class="edge"><title>Node1&#45;&gt;Node29</title>
<path fill="none" stroke="midnightblue" d="M102.362,-428.896C140.531,-459.959 206.269,-513.458 239.877,-540.809"/>
<polygon fill="midnightblue" stroke="midnightblue" points="104.166,-425.851 94.2005,-422.254 99.7474,-431.28 104.166,-425.851"/>
</g>
<!-- Node38 -->
<g id="node90" class="node"><title>Node38</title>
<a xlink:href="class_beam.html#ade4ffe1ab119440e6b0f6a8181f0c021" target="_top" xlink:title="Beam::updateDashBoards">
<polygon fill="white" stroke="black" points="195.5,-0.5 195.5,-21.5 326.5,-21.5 326.5,-0.5 195.5,-0.5"/>
<text text-anchor="middle" x="261" y="-8.5" font-family="Helvetica,sans-Serif" font-size="10.00">Beam::updateDashBoards</text>
</a>
</g>
<!-- Node1&#45;&gt;Node38 -->
<g id="edge104" class="edge"><title>Node1&#45;&gt;Node38</title>
<path fill="none" stroke="midnightblue" d="M77.3219,-378.019C90.2429,-300.636 130.871,-80.3391 182,-31 185.869,-27.2668 190.33,-24.2012 195.121,-21.6872"/>
<polygon fill="midnightblue" stroke="midnightblue" points="73.8568,-377.521 75.6843,-387.957 80.7637,-378.659 73.8568,-377.521"/>
</g>
<!-- Node4 -->
<g id="node7" class="node"><title>Node4</title>
<a xlink:href="class_game_script.html#a0fe2327a5fc91ab482dbddb928521f0a" target="_top" xlink:title="GameScript::startTimer">
<polygon fill="white" stroke="black" points="395.5,-984.5 395.5,-1005.5 514.5,-1005.5 514.5,-984.5 395.5,-984.5"/>
<text text-anchor="middle" x="455" y="-992.5" font-family="Helvetica,sans-Serif" font-size="10.00">GameScript::startTimer</text>
</a>
</g>
<!-- Node3&#45;&gt;Node4 -->
<g id="edge6" class="edge"><title>Node3&#45;&gt;Node4</title>
<path fill="none" stroke="midnightblue" d="M346.007,-995C362.645,-995 379.76,-995 395.355,-995"/>
<polygon fill="midnightblue" stroke="midnightblue" points="345.728,-991.5 335.728,-995 345.728,-998.5 345.728,-991.5"/>
</g>
<!-- Node5&#45;&gt;Node6 -->
<g id="edge10" class="edge"><title>Node5&#45;&gt;Node6</title>
<path fill="none" stroke="midnightblue" d="M665.874,-385.304C681.846,-405.356 703.808,-434.484 720,-462 777.603,-559.887 828.164,-687.248 845.564,-732.84"/>
<polygon fill="midnightblue" stroke="midnightblue" points="668.426,-382.892 659.43,-377.296 662.973,-387.281 668.426,-382.892"/>
</g>
<!-- Node5&#45;&gt;Node8 -->
<g id="edge14" class="edge"><title>Node5&#45;&gt;Node8</title>
<path fill="none" stroke="midnightblue" d="M729.858,-360C804.13,-360 911.276,-360 984.289,-360"/>
<polygon fill="midnightblue" stroke="midnightblue" points="729.604,-356.5 719.604,-360 729.604,-363.5 729.604,-356.5"/>
</g>
<!-- Node14 -->
<g id="node27" class="node"><title>Node14</title>
<a xlink:href="class_game_script.html#a532f282660f5153ba1cf73a6c8642557" target="_top" xlink:title="GameScript::stopTimer">
<polygon fill="white" stroke="black" points="793,-388.5 793,-409.5 911,-409.5 911,-388.5 793,-388.5"/>
<text text-anchor="middle" x="852" y="-396.5" font-family="Helvetica,sans-Serif" font-size="10.00">GameScript::stopTimer</text>
</a>
</g>
<!-- Node5&#45;&gt;Node14 -->
<g id="edge26" class="edge"><title>Node5&#45;&gt;Node14</title>
<path fill="none" stroke="midnightblue" d="M729.604,-375.94C752.056,-380.17 775.735,-384.631 796.221,-388.491"/>
<polygon fill="midnightblue" stroke="midnightblue" points="730.207,-372.492 719.732,-374.08 728.911,-379.371 730.207,-372.492"/>
</g>
<!-- Node6&#45;&gt;Node7 -->
<g id="edge12" class="edge"><title>Node6&#45;&gt;Node7</title>
<path fill="none" stroke="midnightblue" d="M894.295,-771.842C939.713,-795.298 1009.99,-831.59 1044.48,-849.403"/>
<polygon fill="midnightblue" stroke="midnightblue" points="895.772,-768.666 885.281,-767.188 892.56,-774.886 895.772,-768.666"/>
</g>
<!-- Node8&#45;&gt;Node9 -->
<g id="edge16" class="edge"><title>Node8&#45;&gt;Node9</title>
<path fill="none" stroke="midnightblue" d="M1155.86,-360C1164.92,-360 1173.92,-360 1182.47,-360"/>
<polygon fill="midnightblue" stroke="midnightblue" points="1155.63,-356.5 1145.63,-360 1155.63,-363.5 1155.63,-356.5"/>
</g>
<!-- Node10 -->
<g id="node19" class="node"><title>Node10</title>
<a xlink:href="main_2main__sim_2main_8cpp.html#a0ddf1224851353fc92bfbff6f499fa97" target="_top" xlink:title="main">
<polygon fill="white" stroke="black" points="1382,-372.5 1382,-393.5 1420,-393.5 1420,-372.5 1382,-372.5"/>
<text text-anchor="middle" x="1401" y="-380.5" font-family="Helvetica,sans-Serif" font-size="10.00">main</text>
</a>
</g>
<!-- Node9&#45;&gt;Node10 -->
<g id="edge18" class="edge"><title>Node9&#45;&gt;Node10</title>
<path fill="none" stroke="midnightblue" d="M1305.69,-369.469C1333.27,-373.384 1363.14,-377.624 1381.95,-380.295"/>
<polygon fill="midnightblue" stroke="midnightblue" points="1306.05,-365.985 1295.66,-368.044 1305.07,-372.915 1306.05,-365.985"/>
</g>
<!-- Node12 -->
<g id="node23" class="node"><title>Node12</title>
<a xlink:href="class_ro_r_1_1_main_thread.html#a7a2db954fd2f35d63982d8603d2b9614" target="_top" xlink:title="RoR::MainThread::Request\lRestart">
<polygon fill="white" stroke="black" points="1332.5,-320 1332.5,-354 1469.5,-354 1469.5,-320 1332.5,-320"/>
<text text-anchor="start" x="1340.5" y="-341" font-family="Helvetica,sans-Serif" font-size="10.00">RoR::MainThread::Request</text>
<text text-anchor="middle" x="1401" y="-328" font-family="Helvetica,sans-Serif" font-size="10.00">Restart</text>
</a>
</g>
<!-- Node9&#45;&gt;Node12 -->
<g id="edge22" class="edge"><title>Node9&#45;&gt;Node12</title>
<path fill="none" stroke="midnightblue" d="M1305.82,-350.513C1314.59,-349.267 1323.59,-347.99 1332.39,-346.741"/>
<polygon fill="midnightblue" stroke="midnightblue" points="1305.07,-347.085 1295.66,-351.956 1306.05,-354.015 1305.07,-347.085"/>
</g>
<!-- Node11 -->
<g id="node21" class="node"><title>Node11</title>
<a xlink:href="main_2main__sim_2main_8cpp.html#a2922bc5d5c2d77a3020cfbf9df12aab0" target="_top" xlink:title="WinMain">
<polygon fill="white" stroke="black" points="1547.5,-372.5 1547.5,-393.5 1602.5,-393.5 1602.5,-372.5 1547.5,-372.5"/>
<text text-anchor="middle" x="1575" y="-380.5" font-family="Helvetica,sans-Serif" font-size="10.00">WinMain</text>
</a>
</g>
<!-- Node10&#45;&gt;Node11 -->
<g id="edge20" class="edge"><title>Node10&#45;&gt;Node11</title>
<path fill="none" stroke="midnightblue" d="M1430.56,-383C1463.23,-383 1515.44,-383 1547.33,-383"/>
<polygon fill="midnightblue" stroke="midnightblue" points="1430.29,-379.5 1420.29,-383 1430.29,-386.5 1430.29,-379.5"/>
</g>
<!-- Node13 -->
<g id="node25" class="node"><title>Node13</title>
<a xlink:href="class_ro_r_frame_listener.html#af2779b96aa0f91920bd100bc30261402" target="_top" xlink:title="RoRFrameListener::Restart">
<polygon fill="white" stroke="black" points="1506.5,-326.5 1506.5,-347.5 1643.5,-347.5 1643.5,-326.5 1506.5,-326.5"/>
<text text-anchor="middle" x="1575" y="-334.5" font-family="Helvetica,sans-Serif" font-size="10.00">RoRFrameListener::Restart</text>
</a>
</g>
<!-- Node12&#45;&gt;Node13 -->
<g id="edge24" class="edge"><title>Node12&#45;&gt;Node13</title>
<path fill="none" stroke="midnightblue" d="M1480.04,-337C1488.86,-337 1497.78,-337 1506.45,-337"/>
<polygon fill="midnightblue" stroke="midnightblue" points="1479.77,-333.5 1469.77,-337 1479.77,-340.5 1479.77,-333.5"/>
</g>
<!-- Node15&#45;&gt;Node7 -->
<g id="edge30" class="edge"><title>Node15&#45;&gt;Node7</title>
<path fill="none" stroke="midnightblue" d="M930.45,-888.426C958.768,-882.443 989.934,-875.859 1015.13,-870.535"/>
<polygon fill="midnightblue" stroke="midnightblue" points="929.628,-885.022 920.567,-890.514 931.075,-891.871 929.628,-885.022"/>
</g>
<!-- Node18 -->
<g id="node38" class="node"><title>Node18</title>
<a xlink:href="class_game_script.html#ae54cf00c2a516f4dd893d3ec582b7a27" target="_top" xlink:title="GameScript::setDirection\lArrow">
<polygon fill="white" stroke="black" points="391.5,-105 391.5,-139 518.5,-139 518.5,-105 391.5,-105"/>
<text text-anchor="start" x="399.5" y="-126" font-family="Helvetica,sans-Serif" font-size="10.00">GameScript::setDirection</text>
<text text-anchor="middle" x="455" y="-113" font-family="Helvetica,sans-Serif" font-size="10.00">Arrow</text>
</a>
</g>
<!-- Node17&#45;&gt;Node18 -->
<g id="edge40" class="edge"><title>Node17&#45;&gt;Node18</title>
<path fill="none" stroke="midnightblue" d="M350.264,-143.055C364.178,-140.258 378.306,-137.418 391.492,-134.767"/>
<polygon fill="midnightblue" stroke="midnightblue" points="349.301,-139.679 340.187,-145.081 350.681,-146.541 349.301,-139.679"/>
</g>
<!-- Node19 -->
<g id="node40" class="node"><title>Node19</title>
<a xlink:href="class_game_script.html#ab656935867c0cac45d7b814c8a78a1df" target="_top" xlink:title="GameScript::hideDirection\lArrow">
<polygon fill="white" stroke="black" points="389.5,-157 389.5,-191 520.5,-191 520.5,-157 389.5,-157"/>
<text text-anchor="start" x="397.5" y="-178" font-family="Helvetica,sans-Serif" font-size="10.00">GameScript::hideDirection</text>
<text text-anchor="middle" x="455" y="-165" font-family="Helvetica,sans-Serif" font-size="10.00">Arrow</text>
</a>
</g>
<!-- Node17&#45;&gt;Node19 -->
<g id="edge42" class="edge"><title>Node17&#45;&gt;Node19</title>
<path fill="none" stroke="midnightblue" d="M350.217,-166.978C363.404,-167.862 376.784,-168.759 389.373,-169.602"/>
<polygon fill="midnightblue" stroke="midnightblue" points="350.399,-163.483 340.187,-166.306 349.931,-170.467 350.399,-163.483"/>
</g>
<!-- Node20&#45;&gt;Node9 -->
<g id="edge46" class="edge"><title>Node20&#45;&gt;Node9</title>
<path fill="none" stroke="midnightblue" d="M1117.44,-905.879C1128.34,-899.051 1138.72,-890.492 1146,-880 1206.63,-792.584 1233.75,-436.539 1238.3,-370.549"/>
<polygon fill="midnightblue" stroke="midnightblue" points="1115.52,-902.944 1108.62,-910.987 1119.03,-909.001 1115.52,-902.944"/>
</g>
<!-- Node21&#45;&gt;Node6 -->
<g id="edge50" class="edge"><title>Node21&#45;&gt;Node6</title>
<path fill="none" stroke="midnightblue" d="M476.389,-726.892C498.404,-743.115 534.42,-766.516 570,-776 645.536,-796.135 736.026,-781.229 793.755,-767.042"/>
<polygon fill="midnightblue" stroke="midnightblue" points="478.214,-723.885 468.124,-720.651 473.995,-729.471 478.214,-723.885"/>
</g>
<!-- Node24&#45;&gt;Node25 -->
<g id="edge58" class="edge"><title>Node24&#45;&gt;Node25</title>
<path fill="none" stroke="midnightblue" d="M544.709,-447.966C607.747,-446.537 691.966,-444.628 756.294,-443.17"/>
<polygon fill="midnightblue" stroke="midnightblue" points="544.303,-444.475 534.385,-448.2 544.462,-451.473 544.303,-444.475"/>
</g>
<!-- Node25&#45;&gt;Node9 -->
<g id="edge60" class="edge"><title>Node25&#45;&gt;Node9</title>
<path fill="none" stroke="midnightblue" d="M913.256,-428.425C972.747,-416.181 1065.6,-396.985 1146,-380 1160.38,-376.962 1176,-373.619 1190.27,-370.55"/>
<polygon fill="midnightblue" stroke="midnightblue" points="912.365,-425.035 903.275,-430.479 913.775,-431.892 912.365,-425.035"/>
</g>
<!-- Node27 -->
<g id="node61" class="node"><title>Node27</title>
<a xlink:href="class_ro_r_1_1_main_thread.html#ab48ab040ee463287f7953eef17ad4c62" target="_top" xlink:title="RoR::MainThread::MainMenu\lLoopUpdate">
<polygon fill="white" stroke="black" points="779.5,-260 779.5,-294 924.5,-294 924.5,-260 779.5,-260"/>
<text text-anchor="start" x="787.5" y="-281" font-family="Helvetica,sans-Serif" font-size="10.00">RoR::MainThread::MainMenu</text>
<text text-anchor="middle" x="852" y="-268" font-family="Helvetica,sans-Serif" font-size="10.00">LoopUpdate</text>
</a>
</g>
<!-- Node26&#45;&gt;Node27 -->
<g id="edge68" class="edge"><title>Node26&#45;&gt;Node27</title>
<path fill="none" stroke="midnightblue" d="M538.11,-277C609.426,-277 711.185,-277 779.31,-277"/>
<polygon fill="midnightblue" stroke="midnightblue" points="537.816,-273.5 527.816,-277 537.816,-280.5 537.816,-273.5"/>
</g>
<!-- Node28 -->
<g id="node63" class="node"><title>Node28</title>
<a xlink:href="class_ro_r_1_1_main_thread.html#a0be80b570e45a4de035b1f1b9684497c" target="_top" xlink:title="RoR::MainThread::EnterMain\lMenuLoop">
<polygon fill="white" stroke="black" points="993,-279 993,-313 1137,-313 1137,-279 993,-279"/>
<text text-anchor="start" x="1001" y="-300" font-family="Helvetica,sans-Serif" font-size="10.00">RoR::MainThread::EnterMain</text>
<text text-anchor="middle" x="1065" y="-287" font-family="Helvetica,sans-Serif" font-size="10.00">MenuLoop</text>
</a>
</g>
<!-- Node27&#45;&gt;Node28 -->
<g id="edge70" class="edge"><title>Node27&#45;&gt;Node28</title>
<path fill="none" stroke="midnightblue" d="M934.921,-284.397C954.087,-286.106 974.326,-287.912 992.982,-289.576"/>
<polygon fill="midnightblue" stroke="midnightblue" points="934.978,-280.888 924.707,-283.486 934.356,-287.86 934.978,-280.888"/>
</g>
<!-- Node28&#45;&gt;Node9 -->
<g id="edge72" class="edge"><title>Node28&#45;&gt;Node9</title>
<path fill="none" stroke="midnightblue" d="M1121.07,-316.622C1150.8,-327.56 1186.08,-340.535 1210.26,-349.427"/>
<polygon fill="midnightblue" stroke="midnightblue" points="1122.22,-313.318 1111.63,-313.151 1119.81,-319.888 1122.22,-313.318"/>
</g>
<!-- Node30 -->
<g id="node69" class="node"><title>Node30</title>
<a xlink:href="class_beam_factory.html#ac70a8aa131a6709ebf05dc3c0f6dab10" target="_top" xlink:title="BeamFactory::setCurrentTruck">
<polygon fill="white" stroke="black" points="379,-594.5 379,-615.5 531,-615.5 531,-594.5 379,-594.5"/>
<text text-anchor="middle" x="455" y="-602.5" font-family="Helvetica,sans-Serif" font-size="10.00">BeamFactory::setCurrentTruck</text>
</a>
</g>
<!-- Node29&#45;&gt;Node30 -->
<g id="edge78" class="edge"><title>Node29&#45;&gt;Node30</title>
<path fill="none" stroke="midnightblue" d="M340.669,-577.301C364.876,-583.166 390.572,-589.391 411.459,-594.451"/>
<polygon fill="midnightblue" stroke="midnightblue" points="341.307,-573.855 330.764,-574.902 339.659,-580.658 341.307,-573.855"/>
</g>
<!-- Node30&#45;&gt;Node6 -->
<g id="edge80" class="edge"><title>Node30&#45;&gt;Node6</title>
<path fill="none" stroke="midnightblue" d="M541.129,-606.274C594.558,-609.787 663.54,-619.37 720,-644 768.221,-665.036 813.544,-708.479 836.446,-732.709"/>
<polygon fill="midnightblue" stroke="midnightblue" points="541.192,-602.771 531,-605.668 540.774,-609.759 541.192,-602.771"/>
</g>
<!-- Node31 -->
<g id="node72" class="node"><title>Node31</title>
<a xlink:href="class_ro_r_frame_listener.html#abbab3f9d2773790f0d8567ee4434a739" target="_top" xlink:title="RoRFrameListener::InitTrucks">
<polygon fill="white" stroke="black" points="570.5,-575.5 570.5,-596.5 719.5,-596.5 719.5,-575.5 570.5,-575.5"/>
<text text-anchor="middle" x="645" y="-583.5" font-family="Helvetica,sans-Serif" font-size="10.00">RoRFrameListener::InitTrucks</text>
</a>
</g>
<!-- Node30&#45;&gt;Node31 -->
<g id="edge82" class="edge"><title>Node30&#45;&gt;Node31</title>
<path fill="none" stroke="midnightblue" d="M541.246,-596.375C550.959,-595.404 560.795,-594.42 570.344,-593.466"/>
<polygon fill="midnightblue" stroke="midnightblue" points="540.788,-592.904 531.185,-597.381 541.484,-599.869 540.788,-592.904"/>
</g>
<!-- Node32 -->
<g id="node76" class="node"><title>Node32</title>
<a xlink:href="class_ro_r_frame_listener.html#accf1a2895ee6b67789cfaa570bfa01cb" target="_top" xlink:title="RoRFrameListener::reload\lCurrentTruck">
<polygon fill="white" stroke="black" points="579.5,-733 579.5,-767 710.5,-767 710.5,-733 579.5,-733"/>
<text text-anchor="start" x="587.5" y="-754" font-family="Helvetica,sans-Serif" font-size="10.00">RoRFrameListener::reload</text>
<text text-anchor="middle" x="645" y="-741" font-family="Helvetica,sans-Serif" font-size="10.00">CurrentTruck</text>
</a>
</g>
<!-- Node30&#45;&gt;Node32 -->
<g id="edge88" class="edge"><title>Node30&#45;&gt;Node32</title>
<path fill="none" stroke="midnightblue" d="M471.687,-623.177C500.71,-654.651 558.495,-716.657 570,-724 575.227,-727.337 580.934,-730.303 586.791,-732.928"/>
<polygon fill="midnightblue" stroke="midnightblue" points="473.997,-620.518 464.649,-615.531 468.847,-625.259 473.997,-620.518"/>
</g>
<!-- Node33 -->
<g id="node79" class="node"><title>Node33</title>
<a xlink:href="class_preview_renderer.html#a5ea6b4611b45965e072266211dc60ba8" target="_top" xlink:title="PreviewRenderer::render">
<polygon fill="white" stroke="black" points="582.5,-693.5 582.5,-714.5 707.5,-714.5 707.5,-693.5 582.5,-693.5"/>
<text text-anchor="middle" x="645" y="-701.5" font-family="Helvetica,sans-Serif" font-size="10.00">PreviewRenderer::render</text>
</a>
</g>
<!-- Node30&#45;&gt;Node33 -->
<g id="edge92" class="edge"><title>Node30&#45;&gt;Node33</title>
<path fill="none" stroke="midnightblue" d="M475.174,-622.063C497.173,-639.873 534.062,-667.463 570,-684 578.08,-687.718 586.978,-690.848 595.737,-693.446"/>
<polygon fill="midnightblue" stroke="midnightblue" points="477.184,-619.185 467.237,-615.537 472.738,-624.592 477.184,-619.185"/>
</g>
<!-- Node34 -->
<g id="node81" class="node"><title>Node34</title>
<a xlink:href="class_beam_factory.html#a49a4ee797005fff135d8f88a085986a0" target="_top" xlink:title="BeamFactory::removeTruck">
<polygon fill="white" stroke="black" points="576,-653.5 576,-674.5 714,-674.5 714,-653.5 576,-653.5"/>
<text text-anchor="middle" x="645" y="-661.5" font-family="Helvetica,sans-Serif" font-size="10.00">BeamFactory::removeTruck</text>
</a>
</g>
<!-- Node30&#45;&gt;Node34 -->
<g id="edge94" class="edge"><title>Node30&#45;&gt;Node34</title>
<path fill="none" stroke="midnightblue" d="M498.684,-618.565C532.832,-629.169 579.618,-643.697 611.006,-653.444"/>
<polygon fill="midnightblue" stroke="midnightblue" points="499.556,-615.171 488.968,-615.548 497.48,-621.856 499.556,-615.171"/>
</g>
<!-- Node35 -->
<g id="node83" class="node"><title>Node35</title>
<a xlink:href="class_beam_factory.html#a59b66e06ec1f1d1f9adb0d299da15265" target="_top" xlink:title="BeamFactory::p_removeAll\lTrucks">
<polygon fill="white" stroke="black" points="577.5,-471 577.5,-505 712.5,-505 712.5,-471 577.5,-471"/>
<text text-anchor="start" x="585.5" y="-492" font-family="Helvetica,sans-Serif" font-size="10.00">BeamFactory::p_removeAll</text>
<text text-anchor="middle" x="645" y="-479" font-family="Helvetica,sans-Serif" font-size="10.00">Trucks</text>
</a>
</g>
<!-- Node30&#45;&gt;Node35 -->
<g id="edge96" class="edge"><title>Node30&#45;&gt;Node35</title>
<path fill="none" stroke="midnightblue" d="M473.287,-587.277C494.874,-567.169 532.587,-534.515 570,-514 575.921,-510.753 582.323,-507.797 588.805,-505.139"/>
<polygon fill="midnightblue" stroke="midnightblue" points="470.702,-584.905 465.838,-594.317 475.51,-589.992 470.702,-584.905"/>
</g>
<!-- Node37 -->
<g id="node88" class="node"><title>Node37</title>
<a xlink:href="class_beam_factory.html#a297cce523629edad68ff2c05bcaa44ac" target="_top" xlink:title="BeamFactory::enterRescue\lTruck">
<polygon fill="white" stroke="black" points="576.5,-523 576.5,-557 713.5,-557 713.5,-523 576.5,-523"/>
<text text-anchor="start" x="584.5" y="-544" font-family="Helvetica,sans-Serif" font-size="10.00">BeamFactory::enterRescue</text>
<text text-anchor="middle" x="645" y="-531" font-family="Helvetica,sans-Serif" font-size="10.00">Truck</text>
</a>
</g>
<!-- Node30&#45;&gt;Node37 -->
<g id="edge102" class="edge"><title>Node30&#45;&gt;Node37</title>
<path fill="none" stroke="midnightblue" d="M495.785,-591.047C524.879,-581.094 564.171,-567.652 595.131,-557.06"/>
<polygon fill="midnightblue" stroke="midnightblue" points="494.278,-587.863 485.95,-594.412 496.544,-594.487 494.278,-587.863"/>
</g>
<!-- Node31&#45;&gt;Node6 -->
<g id="edge84" class="edge"><title>Node31&#45;&gt;Node6</title>
<path fill="none" stroke="midnightblue" d="M698.276,-600.119C705.849,-603.151 713.323,-606.753 720,-611 772.792,-644.577 819.234,-703.801 840.182,-732.895"/>
<polygon fill="midnightblue" stroke="midnightblue" points="699.276,-596.757 688.683,-596.577 696.852,-603.324 699.276,-596.757"/>
</g>
<!-- Node31&#45;&gt;Node25 -->
<g id="edge86" class="edge"><title>Node31&#45;&gt;Node25</title>
<path fill="none" stroke="midnightblue" d="M714.626,-570.326C716.51,-568.997 718.309,-567.558 720,-566 755.047,-533.709 720.702,-497.017 756,-465 762.235,-459.344 769.601,-454.975 777.435,-451.606"/>
<polygon fill="midnightblue" stroke="midnightblue" points="712.72,-567.387 705.88,-575.478 716.273,-573.418 712.72,-567.387"/>
</g>
<!-- Node32&#45;&gt;Node6 -->
<g id="edge90" class="edge"><title>Node32&#45;&gt;Node6</title>
<path fill="none" stroke="midnightblue" d="M720.933,-750C741.916,-750 764.529,-750 784.967,-750"/>
<polygon fill="midnightblue" stroke="midnightblue" points="720.781,-746.5 710.781,-750 720.78,-753.5 720.781,-746.5"/>
</g>
<!-- Node36 -->
<g id="node85" class="node"><title>Node36</title>
<a xlink:href="class_beam_factory.html#a089236a1b1ee4dc3b6efa157a784d69c" target="_top" xlink:title="BeamFactory::removeAllTrucks">
<polygon fill="white" stroke="black" points="774.5,-474.5 774.5,-495.5 929.5,-495.5 929.5,-474.5 774.5,-474.5"/>
<text text-anchor="middle" x="852" y="-482.5" font-family="Helvetica,sans-Serif" font-size="10.00">BeamFactory::removeAllTrucks</text>
</a>
</g>
<!-- Node35&#45;&gt;Node36 -->
<g id="edge98" class="edge"><title>Node35&#45;&gt;Node36</title>
<path fill="none" stroke="midnightblue" d="M723.09,-486.868C739.873,-486.625 757.607,-486.368 774.373,-486.125"/>
<polygon fill="midnightblue" stroke="midnightblue" points="722.728,-483.373 712.78,-487.018 722.829,-490.372 722.728,-483.373"/>
</g>
<!-- Node36&#45;&gt;Node8 -->
<g id="edge100" class="edge"><title>Node36&#45;&gt;Node8</title>
<path fill="none" stroke="midnightblue" d="M922.176,-471.549C931.109,-468.662 939.937,-465.183 948,-461 994.21,-437.027 1037.57,-391.386 1055.87,-370.685"/>
<polygon fill="midnightblue" stroke="midnightblue" points="921.049,-468.233 912.474,-474.455 923.058,-474.939 921.049,-468.233"/>
</g>
</g>
</svg>
