<?xml version="1.0" encoding="UTF-8" standalone="no"?>
<!DOCTYPE svg PUBLIC "-//W3C//DTD SVG 1.1//EN"
 "http://www.w3.org/Graphics/SVG/1.1/DTD/svg11.dtd">
<!-- Generated by graphviz version 2.26.3 (20100126.1600)
 -->
<!-- Title: G Pages: 1 -->
<!--zoomable 90 -->
<svg id="main" version="1.1" xmlns="http://www.w3.org/2000/svg" xmlns:xlink="http://www.w3.org/1999/xlink" xml:space="preserve" onload="init(evt)">
        <defs>
                <circle id="rim" cx="0" cy="0" r="7"/>
                <circle id="rim2" cx="0" cy="0" r="3.5"/>
                <g id="zoomPlus">
                        <use xlink:href="#rim" fill="#404040">
                                <set attributeName="fill" to="#808080" begin="zoomplus.mouseover" end="zoomplus.mouseout"/>
                        </use>
                        <path d="M-4,0h8M0,-4v8" fill="none" stroke="white" stroke-width="1.5" pointer-events="none"/>
                </g>
                <g id="zoomMin">
                        <use xlink:href="#rim" fill="#404040">
                                <set attributeName="fill" to="#808080" begin="zoomminus.mouseover" end="zoomminus.mouseout"/>
                        </use>
                        <path d="M-4,0h8" fill="none" stroke="white" stroke-width="1.5" pointer-events="none"/>
                </g>
                <g id="dirArrow">
                        <path fill="none" stroke="white" stroke-width="1.5" d="M0,-3.0v7 M-2.5,-0.5L0,-3.0L2.5,-0.5"/>
                </g>
               <g id="resetDef">
                       <use xlink:href="#rim2" fill="#404040">
                               <set attributeName="fill" to="#808080" begin="reset.mouseover" end="reset.mouseout"/>
                       </use>
               </g>
        </defs>

<script type="text/javascript">
var viewWidth = 1432;
var viewHeight = 90;
var sectionId = 'dynsection-5';
</script>
<script xlink:href="svgpan.js"/>
<svg id="graph" class="graph">
<g id="viewport">
<title>G</title>
<polygon fill="white" stroke="white" points="-4,5 -4,-86 1429,-86 1429,5 -4,5"/>
<!-- Node1 -->
<g id="node1" class="node"><title>Node1</title>
<polygon fill="#bfbfbf" stroke="black" points="0,-40.5 0,-61.5 288,-61.5 288,-40.5 0,-40.5"/>
<text text-anchor="middle" x="144" y="-48.5" font-family="Helvetica,sans-Serif" font-size="10.00">RoR::GUI::OpenSaveFileDialog::notifyDirectoryComboAccept</text>
</g>
<!-- Node2 -->
<g id="node3" class="node"><title>Node2</title>
<a xlink:href="class_ro_r_1_1_g_u_i_1_1_open_save_file_dialog.html#a9ea53706725c664f1977f406e7bad2d3" target="_top" xlink:title="RoR::GUI::OpenSaveFileDialog::setCurrentFolder">
<polygon fill="white" stroke="black" points="324.5,-40.5 324.5,-61.5 559.5,-61.5 559.5,-40.5 324.5,-40.5"/>
<text text-anchor="middle" x="442" y="-48.5" font-family="Helvetica,sans-Serif" font-size="10.00">RoR::GUI::OpenSaveFileDialog::setCurrentFolder</text>
</a>
</g>
<!-- Node1&#45;&gt;Node2 -->
<g id="edge2" class="edge"><title>Node1&#45;&gt;Node2</title>
<path fill="none" stroke="midnightblue" d="M288.199,-51C296.848,-51 305.519,-51 314.095,-51"/>
<polygon fill="midnightblue" stroke="midnightblue" points="314.111,-54.5001 324.111,-51 314.111,-47.5001 314.111,-54.5001"/>
</g>
<!-- Node3 -->
<g id="node5" class="node"><title>Node3</title>
<a xlink:href="namespace_ro_r_1_1_file_system.html#a3661a8bb720171f041d3470a4537f54f" target="_top" xlink:title="RoR::FileSystem::getSystemCurrentFolder">
<polygon fill="white" stroke="black" points="596.5,-60.5 596.5,-81.5 801.5,-81.5 801.5,-60.5 596.5,-60.5"/>
<text text-anchor="middle" x="699" y="-68.5" font-family="Helvetica,sans-Serif" font-size="10.00">RoR::FileSystem::getSystemCurrentFolder</text>
</a>
</g>
<!-- Node2&#45;&gt;Node3 -->
<g id="edge4" class="edge"><title>Node2&#45;&gt;Node3</title>
<path fill="none" stroke="midnightblue" d="M559.594,-60.1513C568.525,-60.8463 577.527,-61.5468 586.425,-62.2393"/>
<polygon fill="midnightblue" stroke="midnightblue" points="586.176,-65.7304 596.418,-63.0169 586.719,-58.7515 586.176,-65.7304"/>
</g>
<!-- Node4 -->
<g id="node7" class="node"><title>Node4</title>
<a xlink:href="class_ro_r_1_1_g_u_i_1_1_open_save_file_dialog.html#a8c1b024be96a42a6be82b75bad012e1e" target="_top" xlink:title="RoR::GUI::OpenSaveFileDialog::update">
<polygon fill="white" stroke="black" points="603.5,-20.5 603.5,-41.5 794.5,-41.5 794.5,-20.5 603.5,-20.5"/>
<text text-anchor="middle" x="699" y="-28.5" font-family="Helvetica,sans-Serif" font-size="10.00">RoR::GUI::OpenSaveFileDialog::update</text>
</a>
</g>
<!-- Node2&#45;&gt;Node4 -->
<g id="edge6" class="edge"><title>Node2&#45;&gt;Node4</title>
<path fill="none" stroke="midnightblue" d="M559.594,-41.8487C570.827,-40.9746 582.171,-40.0917 593.281,-39.2272"/>
<polygon fill="midnightblue" stroke="midnightblue" points="593.709,-42.7045 603.408,-38.4391 593.166,-35.7256 593.709,-42.7045"/>
</g>
<!-- Node5 -->
<g id="node9" class="node"><title>Node5</title>
<a xlink:href="namespace_ro_r_1_1_file_system.html#ae33ccfefa159afb285835c8fa5498a8b" target="_top" xlink:title="RoR::FileSystem::getSystemFileList">
<polygon fill="white" stroke="black" points="838.5,-20.5 838.5,-41.5 1015.5,-41.5 1015.5,-20.5 838.5,-20.5"/>
<text text-anchor="middle" x="927" y="-28.5" font-family="Helvetica,sans-Serif" font-size="10.00">RoR::FileSystem::getSystemFileList</text>
</a>
</g>
<!-- Node4&#45;&gt;Node5 -->
<g id="edge8" class="edge"><title>Node4&#45;&gt;Node5</title>
<path fill="none" stroke="midnightblue" d="M794.702,-31C805.805,-31 817.145,-31 828.288,-31"/>
<polygon fill="midnightblue" stroke="midnightblue" points="828.452,-34.5001 838.452,-31 828.452,-27.5001 828.452,-34.5001"/>
</g>
<!-- Node6 -->
<g id="node11" class="node"><title>Node6</title>
<a xlink:href="namespace_ro_r_1_1_file_system.html#a78a496cdd3796294fcd6c3c452a23f10" target="_top" xlink:title="RoR::FileSystem::concatenatePath">
<polygon fill="white" stroke="black" points="1052,-40.5 1052,-61.5 1224,-61.5 1224,-40.5 1052,-40.5"/>
<text text-anchor="middle" x="1138" y="-48.5" font-family="Helvetica,sans-Serif" font-size="10.00">RoR::FileSystem::concatenatePath</text>
</a>
</g>
<!-- Node5&#45;&gt;Node6 -->
<g id="edge10" class="edge"><title>Node5&#45;&gt;Node6</title>
<path fill="none" stroke="midnightblue" d="M1015.57,-39.3949C1024.16,-40.2093 1032.9,-41.0383 1041.57,-41.8596"/>
<polygon fill="midnightblue" stroke="midnightblue" points="1041.4,-45.3593 1051.69,-42.8187 1042.06,-38.3906 1041.4,-45.3593"/>
</g>
<!-- Node8 -->
<g id="node15" class="node"><title>Node8</title>
<a xlink:href="namespace_ro_r_1_1_file_system.html#aefc2f14edd3f91d6c92ac4d9cfac865f" target="_top" xlink:title="RoR::FileSystem::isReservedDir">
<polygon fill="white" stroke="black" points="1057.5,-0.5 1057.5,-21.5 1218.5,-21.5 1218.5,-0.5 1057.5,-0.5"/>
<text text-anchor="middle" x="1138" y="-8.5" font-family="Helvetica,sans-Serif" font-size="10.00">RoR::FileSystem::isReservedDir</text>
</a>
</g>
<!-- Node5&#45;&gt;Node8 -->
<g id="edge14" class="edge"><title>Node5&#45;&gt;Node8</title>
<path fill="none" stroke="midnightblue" d="M1015.57,-22.6051C1026.08,-21.6087 1036.82,-20.5905 1047.36,-19.5914"/>
<polygon fill="midnightblue" stroke="midnightblue" points="1047.77,-23.0688 1057.39,-18.6407 1047.11,-16.1 1047.77,-23.0688"/>
</g>
<!-- Node7 -->
<g id="node13" class="node"><title>Node7</title>
<a xlink:href="namespace_ro_r_1_1_file_system.html#af8e0cce7d301d79f48f0367827a18ba2" target="_top" xlink:title="RoR::FileSystem::isAbsolutePath">
<polygon fill="white" stroke="black" points="1260,-40.5 1260,-61.5 1424,-61.5 1424,-40.5 1260,-40.5"/>
<text text-anchor="middle" x="1342" y="-48.5" font-family="Helvetica,sans-Serif" font-size="10.00">RoR::FileSystem::isAbsolutePath</text>
</a>
</g>
<!-- Node6&#45;&gt;Node7 -->
<g id="edge12" class="edge"><title>Node6&#45;&gt;Node7</title>
<path fill="none" stroke="midnightblue" d="M1224.22,-51C1232.74,-51 1241.41,-51 1249.98,-51"/>
<polygon fill="midnightblue" stroke="midnightblue" points="1249.99,-54.5001 1259.99,-51 1249.99,-47.5001 1249.99,-54.5001"/>
</g>
</g>
</svg>
        <g id="navigator" transform="translate(0 0)" fill="#404254">
                <rect fill="#f2f5e9" fill-opacity="0.5" stroke="#606060" stroke-width=".5" x="0" y="0" width="60" height="60"/>
                <use id="zoomplus" xlink:href="#zoomPlus" x="17" y="9" onmousedown="handleZoom(evt,'in')"/>
                <use id="zoomminus" xlink:href="#zoomMin" x="42" y="9" onmousedown="handleZoom(evt,'out')"/>
                <use id="reset" xlink:href="#resetDef" x="30" y="36" onmousedown="handleReset()"/>
                <g id="arrowUp" xlink:href="#dirArrow" transform="translate(30 24)" onmousedown="handlePan(0,-1)">
                  <use xlink:href="#rim" fill="#404040">
                        <set attributeName="fill" to="#808080" begin="arrowUp.mouseover" end="arrowUp.mouseout"/>
                  </use>
                  <path fill="none" stroke="white" stroke-width="1.5" d="M0,-3.0v7 M-2.5,-0.5L0,-3.0L2.5,-0.5"/>
                </g>
                <g id="arrowRight" xlink:href="#dirArrow" transform="rotate(90) translate(36 -43)" onmousedown="handlePan(1,0)">
                  <use xlink:href="#rim" fill="#404040">
                        <set attributeName="fill" to="#808080" begin="arrowRight.mouseover" end="arrowRight.mouseout"/>
                  </use>
                  <path fill="none" stroke="white" stroke-width="1.5" d="M0,-3.0v7 M-2.5,-0.5L0,-3.0L2.5,-0.5"/>
                </g>
                <g id="arrowDown" xlink:href="#dirArrow" transform="rotate(180) translate(-30 -48)" onmousedown="handlePan(0,1)">
                  <use xlink:href="#rim" fill="#404040">
                        <set attributeName="fill" to="#808080" begin="arrowDown.mouseover" end="arrowDown.mouseout"/>
                  </use>
                  <path fill="none" stroke="white" stroke-width="1.5" d="M0,-3.0v7 M-2.5,-0.5L0,-3.0L2.5,-0.5"/>
                </g>
                <g id="arrowLeft" xlink:href="#dirArrow" transform="rotate(270) translate(-36 17)" onmousedown="handlePan(-1,0)">
                  <use xlink:href="#rim" fill="#404040">
                        <set attributeName="fill" to="#808080" begin="arrowLeft.mouseover" end="arrowLeft.mouseout"/>
                  </use>
                  <path fill="none" stroke="white" stroke-width="1.5" d="M0,-3.0v7 M-2.5,-0.5L0,-3.0L2.5,-0.5"/>
                </g>
        </g>
</svg>
