<?xml version="1.0" encoding="UTF-8" standalone="no"?>
<!DOCTYPE svg PUBLIC "-//W3C//DTD SVG 1.1//EN"
 "http://www.w3.org/Graphics/SVG/1.1/DTD/svg11.dtd">
<!-- Generated by graphviz version 2.26.3 (20100126.1600)
 -->
<!-- Title: MeshObject::operationCompleted Pages: 1 -->
<svg width="732pt" height="134pt"
 viewBox="0.00 0.00 732.00 134.00" xmlns="http://www.w3.org/2000/svg" xmlns:xlink="http://www.w3.org/1999/xlink">
<g id="graph1" class="graph" transform="scale(1 1) rotate(0) translate(4 130)">
<title>MeshObject::operationCompleted</title>
<polygon fill="white" stroke="white" points="-4,5 -4,-130 729,-130 729,5 -4,5"/>
<!-- Node1 -->
<g id="node1" class="node"><title>Node1</title>
<polygon fill="#bfbfbf" stroke="black" points="0,-52.5 0,-73.5 162,-73.5 162,-52.5 0,-52.5"/>
<text text-anchor="middle" x="81" y="-60.5" font-family="Helvetica,sans-Serif" font-size="10.00">MeshObject::operationCompleted</text>
</g>
<!-- Node2 -->
<g id="node3" class="node"><title>Node2</title>
<a xlink:href="class_mesh_object.html#a02f1d3412dfdec5ab09967f8ab86486c" target="_top" xlink:title="MeshObject::postProcess">
<polygon fill="white" stroke="black" points="198,-52.5 198,-73.5 328,-73.5 328,-52.5 198,-52.5"/>
<text text-anchor="middle" x="263" y="-60.5" font-family="Helvetica,sans-Serif" font-size="10.00">MeshObject::postProcess</text>
</a>
</g>
<!-- Node1&#45;&gt;Node2 -->
<g id="edge2" class="edge"><title>Node1&#45;&gt;Node2</title>
<path fill="none" stroke="midnightblue" d="M162.153,-63C170.644,-63 179.251,-63 187.673,-63"/>
<polygon fill="midnightblue" stroke="midnightblue" points="187.835,-66.5001 197.835,-63 187.835,-59.5001 187.835,-66.5001"/>
</g>
<!-- Node3 -->
<g id="node5" class="node"><title>Node3</title>
<a xlink:href="class_material_function_mapper.html#abee8fd1cc0b52699d3babb4b5e84b477" target="_top" xlink:title="MaterialFunctionMapper\l::replaceSimpleMeshMaterials">
<polygon fill="white" stroke="black" points="364,-92 364,-126 512,-126 512,-92 364,-92"/>
<text text-anchor="start" x="372" y="-113" font-family="Helvetica,sans-Serif" font-size="10.00">MaterialFunctionMapper</text>
<text text-anchor="middle" x="438" y="-100" font-family="Helvetica,sans-Serif" font-size="10.00">::replaceSimpleMeshMaterials</text>
</a>
</g>
<!-- Node2&#45;&gt;Node3 -->
<g id="edge4" class="edge"><title>Node2&#45;&gt;Node3</title>
<path fill="none" stroke="midnightblue" d="M303.149,-73.5533C321.007,-78.2475 342.631,-83.9316 363.284,-89.3603"/>
<polygon fill="midnightblue" stroke="midnightblue" points="362.443,-92.7582 373.005,-91.9155 364.223,-85.9882 362.443,-92.7582"/>
</g>
<!-- Node4 -->
<g id="node7" class="node"><title>Node4</title>
<a xlink:href="class_skin.html#a71fc9fb4b831906e7ee3c4bce8e6a541" target="_top" xlink:title="Skin::replaceMeshMaterials">
<polygon fill="white" stroke="black" points="369.5,-52.5 369.5,-73.5 506.5,-73.5 506.5,-52.5 369.5,-52.5"/>
<text text-anchor="middle" x="438" y="-60.5" font-family="Helvetica,sans-Serif" font-size="10.00">Skin::replaceMeshMaterials</text>
</a>
</g>
<!-- Node2&#45;&gt;Node4 -->
<g id="edge6" class="edge"><title>Node2&#45;&gt;Node4</title>
<path fill="none" stroke="midnightblue" d="M328.164,-63C338.221,-63 348.701,-63 359.022,-63"/>
<polygon fill="midnightblue" stroke="midnightblue" points="359.267,-66.5001 369.267,-63 359.267,-59.5001 359.267,-66.5001"/>
</g>
<!-- Node8 -->
<g id="node15" class="node"><title>Node8</title>
<a xlink:href="class_material_function_mapper.html#aab97adc6de3c318a5243a777adeaed62" target="_top" xlink:title="MaterialFunctionMapper\l::replaceMeshMaterials">
<polygon fill="white" stroke="black" points="377.5,-0 377.5,-34 498.5,-34 498.5,-0 377.5,-0"/>
<text text-anchor="start" x="385.5" y="-21" font-family="Helvetica,sans-Serif" font-size="10.00">MaterialFunctionMapper</text>
<text text-anchor="middle" x="438" y="-8" font-family="Helvetica,sans-Serif" font-size="10.00">::replaceMeshMaterials</text>
</a>
</g>
<!-- Node2&#45;&gt;Node8 -->
<g id="edge14" class="edge"><title>Node2&#45;&gt;Node8</title>
<path fill="none" stroke="midnightblue" d="M303.149,-52.4467C322.225,-47.4322 345.599,-41.2882 367.496,-35.5325"/>
<polygon fill="midnightblue" stroke="midnightblue" points="368.651,-38.848 377.432,-32.9207 366.871,-32.078 368.651,-38.848"/>
</g>
<!-- Node5 -->
<g id="node9" class="node"><title>Node5</title>
<a xlink:href="class_skin.html#acfb65fd10c0a5b1745257b68d6bf41d4" target="_top" xlink:title="Skin::uniquifyMeshMaterials">
<polygon fill="white" stroke="black" points="566,-92.5 566,-113.5 706,-113.5 706,-92.5 566,-92.5"/>
<text text-anchor="middle" x="636" y="-100.5" font-family="Helvetica,sans-Serif" font-size="10.00">Skin::uniquifyMeshMaterials</text>
</a>
</g>
<!-- Node4&#45;&gt;Node5 -->
<g id="edge8" class="edge"><title>Node4&#45;&gt;Node5</title>
<path fill="none" stroke="midnightblue" d="M490.022,-73.5095C515.727,-78.7023 546.931,-85.0064 573.882,-90.4508"/>
<polygon fill="midnightblue" stroke="midnightblue" points="573.487,-93.9417 583.982,-92.4913 574.873,-87.0803 573.487,-93.9417"/>
</g>
<!-- Node6 -->
<g id="node11" class="node"><title>Node6</title>
<a xlink:href="class_skin.html#a5fe437e01b688302b2c3417f0c9c3502" target="_top" xlink:title="Skin::stripMaterialNameUniqueNess">
<polygon fill="white" stroke="black" points="548,-52.5 548,-73.5 724,-73.5 724,-52.5 548,-52.5"/>
<text text-anchor="middle" x="636" y="-60.5" font-family="Helvetica,sans-Serif" font-size="10.00">Skin::stripMaterialNameUniqueNess</text>
</a>
</g>
<!-- Node4&#45;&gt;Node6 -->
<g id="edge10" class="edge"><title>Node4&#45;&gt;Node6</title>
<path fill="none" stroke="midnightblue" d="M506.695,-63C516.768,-63 527.303,-63 537.827,-63"/>
<polygon fill="midnightblue" stroke="midnightblue" points="537.896,-66.5001 547.896,-63 537.896,-59.5001 537.896,-66.5001"/>
</g>
<!-- Node7 -->
<g id="node13" class="node"><title>Node7</title>
<a xlink:href="class_skin.html#ab424d671c22c485a040e9b43fbc46376" target="_top" xlink:title="Skin::replaceMaterialTextures">
<polygon fill="white" stroke="black" points="563,-12.5 563,-33.5 709,-33.5 709,-12.5 563,-12.5"/>
<text text-anchor="middle" x="636" y="-20.5" font-family="Helvetica,sans-Serif" font-size="10.00">Skin::replaceMaterialTextures</text>
</a>
</g>
<!-- Node4&#45;&gt;Node7 -->
<g id="edge12" class="edge"><title>Node4&#45;&gt;Node7</title>
<path fill="none" stroke="midnightblue" d="M490.022,-52.4905C515.727,-47.2977 546.931,-40.9936 573.882,-35.5492"/>
<polygon fill="midnightblue" stroke="midnightblue" points="574.873,-38.9197 583.982,-33.5087 573.487,-32.0583 574.873,-38.9197"/>
</g>
</g>
</svg>
