<?xml version="1.0" encoding="UTF-8" standalone="no"?>
<!DOCTYPE svg PUBLIC "-//W3C//DTD SVG 1.1//EN"
 "http://www.w3.org/Graphics/SVG/1.1/DTD/svg11.dtd">
<!-- Generated by graphviz version 2.26.3 (20100126.1600)
 -->
<!-- Title: HDRListener::notifyCompositor Pages: 1 -->
<!--zoomable 93 -->
<svg id="main" version="1.1" xmlns="http://www.w3.org/2000/svg" xmlns:xlink="http://www.w3.org/1999/xlink" xml:space="preserve" onload="init(evt)">
<style type="text/css"><![CDATA[
.edge:hover path { stroke: red; }
.edge:hover polygon { stroke: red; fill: red; }
]]></style>
<script type="text/javascript"><![CDATA[
var edges = document.getElementsByTagName('g');
if (edges && edges.length) {
  for (var i=0;i<edges.length;i++) {
    if (edges[i].id.substr(0,4)=='edge') {
      edges[i].setAttribute('class','edge');
    }
  }
}
]]></script>
        <defs>
                <circle id="rim" cx="0" cy="0" r="7"/>
                <circle id="rim2" cx="0" cy="0" r="3.5"/>
                <g id="zoomPlus">
                        <use xlink:href="#rim" fill="#404040">
                                <set attributeName="fill" to="#808080" begin="zoomplus.mouseover" end="zoomplus.mouseout"/>
                        </use>
                        <path d="M-4,0h8M0,-4v8" fill="none" stroke="white" stroke-width="1.5" pointer-events="none"/>
                </g>
                <g id="zoomMin">
                        <use xlink:href="#rim" fill="#404040">
                                <set attributeName="fill" to="#808080" begin="zoomminus.mouseover" end="zoomminus.mouseout"/>
                        </use>
                        <path d="M-4,0h8" fill="none" stroke="white" stroke-width="1.5" pointer-events="none"/>
                </g>
                <g id="dirArrow">
                        <path fill="none" stroke="white" stroke-width="1.5" d="M0,-3.0v7 M-2.5,-0.5L0,-3.0L2.5,-0.5"/>
                </g>
               <g id="resetDef">
                       <use xlink:href="#rim2" fill="#404040">
                               <set attributeName="fill" to="#808080" begin="reset.mouseover" end="reset.mouseout"/>
                       </use>
               </g>
        </defs>

<script type="text/javascript">
var viewWidth = 1608;
var viewHeight = 93;
var sectionId = 'dynsection-2';
</script>
<script xlink:href="svgpan.js"/>
<svg id="graph" class="graph">
<g id="viewport">
<title>HDRListener::notifyCompositor</title>
<polygon fill="white" stroke="white" points="-4,5 -4,-89 1605,-89 1605,5 -4,5"/>
<!-- Node1 -->
<g id="node1" class="node"><title>Node1</title>
<polygon fill="#bfbfbf" stroke="black" points="0,-20.5 0,-41.5 154,-41.5 154,-20.5 0,-20.5"/>
<text text-anchor="middle" x="77" y="-28.5" font-family="Helvetica,sans-Serif" font-size="10.00">HDRListener::notifyCompositor</text>
</g>
<!-- Node2 -->
<g id="node3" class="node"><title>Node2</title>
<a xlink:href="class_terrain_manager.html#a6f09339480ad21843f45c3fd319fdb5a" target="_top" xlink:title="TerrainManager::initHDR">
<polygon fill="white" stroke="black" points="190.5,-20.5 190.5,-41.5 315.5,-41.5 315.5,-20.5 190.5,-20.5"/>
<text text-anchor="middle" x="253" y="-28.5" font-family="Helvetica,sans-Serif" font-size="10.00">TerrainManager::initHDR</text>
</a>
</g>
<!-- Node1&#45;&gt;Node2 -->
<g id="edge2" class="edge"><title>Node1&#45;&gt;Node2</title>
<path fill="none" stroke="midnightblue" d="M164.45,-31C173.205,-31 181.967,-31 190.39,-31"/>
<polygon fill="midnightblue" stroke="midnightblue" points="164.196,-27.5001 154.196,-31 164.196,-34.5001 164.196,-27.5001"/>
</g>
<!-- Node3 -->
<g id="node5" class="node"><title>Node3</title>
<a xlink:href="class_terrain_manager.html#a13e84f666b59e55f3c67ee345bda5873" target="_top" xlink:title="TerrainManager::initSubSystems">
<polygon fill="white" stroke="black" points="352.5,-20.5 352.5,-41.5 511.5,-41.5 511.5,-20.5 352.5,-20.5"/>
<text text-anchor="middle" x="432" y="-28.5" font-family="Helvetica,sans-Serif" font-size="10.00">TerrainManager::initSubSystems</text>
</a>
</g>
<!-- Node2&#45;&gt;Node3 -->
<g id="edge4" class="edge"><title>Node2&#45;&gt;Node3</title>
<path fill="none" stroke="midnightblue" d="M325.788,-31C334.567,-31 343.568,-31 352.437,-31"/>
<polygon fill="midnightblue" stroke="midnightblue" points="325.606,-27.5001 315.606,-31 325.605,-34.5001 325.606,-27.5001"/>
</g>
<!-- Node4 -->
<g id="node7" class="node"><title>Node4</title>
<a xlink:href="class_terrain_manager.html#a9a04c837bf2ea6528c465b27ca62f730" target="_top" xlink:title="TerrainManager::loadTerrain">
<polygon fill="white" stroke="black" points="548,-20.5 548,-41.5 686,-41.5 686,-20.5 548,-20.5"/>
<text text-anchor="middle" x="617" y="-28.5" font-family="Helvetica,sans-Serif" font-size="10.00">TerrainManager::loadTerrain</text>
</a>
</g>
<!-- Node3&#45;&gt;Node4 -->
<g id="edge6" class="edge"><title>Node3&#45;&gt;Node4</title>
<path fill="none" stroke="midnightblue" d="M521.746,-31C530.477,-31 539.241,-31 547.726,-31"/>
<polygon fill="midnightblue" stroke="midnightblue" points="521.53,-27.5001 511.53,-31 521.53,-34.5001 521.53,-27.5001"/>
</g>
<!-- Node5 -->
<g id="node9" class="node"><title>Node5</title>
<a xlink:href="class_ro_r_1_1_main_thread.html#a60603be78a54ae5a24ca1c00509aca1f" target="_top" xlink:title="RoR::MainThread::LoadTerrain">
<polygon fill="white" stroke="black" points="722.5,-20.5 722.5,-41.5 873.5,-41.5 873.5,-20.5 722.5,-20.5"/>
<text text-anchor="middle" x="798" y="-28.5" font-family="Helvetica,sans-Serif" font-size="10.00">RoR::MainThread::LoadTerrain</text>
</a>
</g>
<!-- Node4&#45;&gt;Node5 -->
<g id="edge8" class="edge"><title>Node4&#45;&gt;Node5</title>
<path fill="none" stroke="midnightblue" d="M696.241,-31C704.863,-31 713.623,-31 722.201,-31"/>
<polygon fill="midnightblue" stroke="midnightblue" points="696.203,-27.5001 686.203,-31 696.203,-34.5001 696.203,-27.5001"/>
</g>
<!-- Node6 -->
<g id="node11" class="node"><title>Node6</title>
<a xlink:href="class_ro_r_1_1_main_thread.html#aa3feeebda7f3f4c31a6cb96ea60c09e0" target="_top" xlink:title="RoR::MainThread::SetupGameplayLoop">
<polygon fill="white" stroke="black" points="910.5,-40.5 910.5,-61.5 1101.5,-61.5 1101.5,-40.5 910.5,-40.5"/>
<text text-anchor="middle" x="1006" y="-48.5" font-family="Helvetica,sans-Serif" font-size="10.00">RoR::MainThread::SetupGameplayLoop</text>
</a>
</g>
<!-- Node5&#45;&gt;Node6 -->
<g id="edge10" class="edge"><title>Node5&#45;&gt;Node6</title>
<path fill="none" stroke="midnightblue" d="M883.889,-39.2585C892.667,-40.1026 901.623,-40.9637 910.495,-41.8169"/>
<polygon fill="midnightblue" stroke="midnightblue" points="883.97,-35.7503 873.681,-38.277 883.3,-42.7182 883.97,-35.7503"/>
</g>
<!-- Node12 -->
<g id="node23" class="node"><title>Node12</title>
<a xlink:href="class_game_script.html#ac1cba3fc83facbad8281ff80d4ab0f0b" target="_top" xlink:title="GameScript::loadTerrain">
<polygon fill="white" stroke="black" points="945,-0.5 945,-21.5 1067,-21.5 1067,-0.5 945,-0.5"/>
<text text-anchor="middle" x="1006" y="-8.5" font-family="Helvetica,sans-Serif" font-size="10.00">GameScript::loadTerrain</text>
</a>
</g>
<!-- Node5&#45;&gt;Node12 -->
<g id="edge22" class="edge"><title>Node5&#45;&gt;Node12</title>
<path fill="none" stroke="midnightblue" d="M883.639,-22.7655C904.113,-20.7969 925.567,-18.734 944.691,-16.8951"/>
<polygon fill="midnightblue" stroke="midnightblue" points="883.3,-19.2818 873.681,-23.723 883.97,-26.2497 883.3,-19.2818"/>
</g>
<!-- Node7 -->
<g id="node13" class="node"><title>Node7</title>
<a xlink:href="class_ro_r_1_1_main_thread.html#a7e4d0bd23a40e509892883af75ea0dbf" target="_top" xlink:title="RoR::MainThread::Go">
<polygon fill="white" stroke="black" points="1138.5,-40.5 1138.5,-61.5 1251.5,-61.5 1251.5,-40.5 1138.5,-40.5"/>
<text text-anchor="middle" x="1195" y="-48.5" font-family="Helvetica,sans-Serif" font-size="10.00">RoR::MainThread::Go</text>
</a>
</g>
<!-- Node6&#45;&gt;Node7 -->
<g id="edge12" class="edge"><title>Node6&#45;&gt;Node7</title>
<path fill="none" stroke="midnightblue" d="M1111.87,-51C1120.93,-51 1129.84,-51 1138.28,-51"/>
<polygon fill="midnightblue" stroke="midnightblue" points="1111.61,-47.5001 1101.61,-51 1111.61,-54.5001 1111.61,-47.5001"/>
</g>
<!-- Node8 -->
<g id="node15" class="node"><title>Node8</title>
<a xlink:href="main_2main__sim_2main_8cpp.html#a0ddf1224851353fc92bfbff6f499fa97" target="_top" xlink:title="main">
<polygon fill="white" stroke="black" points="1338,-63.5 1338,-84.5 1376,-84.5 1376,-63.5 1338,-63.5"/>
<text text-anchor="middle" x="1357" y="-71.5" font-family="Helvetica,sans-Serif" font-size="10.00">main</text>
</a>
</g>
<!-- Node7&#45;&gt;Node8 -->
<g id="edge14" class="edge"><title>Node7&#45;&gt;Node8</title>
<path fill="none" stroke="midnightblue" d="M1261.69,-60.4687C1289.27,-64.3843 1319.14,-68.6243 1337.95,-71.2947"/>
<polygon fill="midnightblue" stroke="midnightblue" points="1262.05,-56.9848 1251.66,-59.0443 1261.07,-63.9153 1262.05,-56.9848"/>
</g>
<!-- Node10 -->
<g id="node19" class="node"><title>Node10</title>
<a xlink:href="class_ro_r_1_1_main_thread.html#a7a2db954fd2f35d63982d8603d2b9614" target="_top" xlink:title="RoR::MainThread::Request\lRestart">
<polygon fill="white" stroke="black" points="1288.5,-11 1288.5,-45 1425.5,-45 1425.5,-11 1288.5,-11"/>
<text text-anchor="start" x="1296.5" y="-32" font-family="Helvetica,sans-Serif" font-size="10.00">RoR::MainThread::Request</text>
<text text-anchor="middle" x="1357" y="-19" font-family="Helvetica,sans-Serif" font-size="10.00">Restart</text>
</a>
</g>
<!-- Node7&#45;&gt;Node10 -->
<g id="edge18" class="edge"><title>Node7&#45;&gt;Node10</title>
<path fill="none" stroke="midnightblue" d="M1261.82,-41.5126C1270.59,-40.2674 1279.59,-38.9898 1288.39,-37.7405"/>
<polygon fill="midnightblue" stroke="midnightblue" points="1261.07,-38.0847 1251.66,-42.9557 1262.05,-45.0152 1261.07,-38.0847"/>
</g>
<!-- Node9 -->
<g id="node17" class="node"><title>Node9</title>
<a xlink:href="main_2main__sim_2main_8cpp.html#a2922bc5d5c2d77a3020cfbf9df12aab0" target="_top" xlink:title="WinMain">
<polygon fill="white" stroke="black" points="1503.5,-63.5 1503.5,-84.5 1558.5,-84.5 1558.5,-63.5 1503.5,-63.5"/>
<text text-anchor="middle" x="1531" y="-71.5" font-family="Helvetica,sans-Serif" font-size="10.00">WinMain</text>
</a>
</g>
<!-- Node8&#45;&gt;Node9 -->
<g id="edge16" class="edge"><title>Node8&#45;&gt;Node9</title>
<path fill="none" stroke="midnightblue" d="M1386.56,-74C1419.23,-74 1471.44,-74 1503.33,-74"/>
<polygon fill="midnightblue" stroke="midnightblue" points="1386.29,-70.5001 1376.29,-74 1386.29,-77.5001 1386.29,-70.5001"/>
</g>
<!-- Node11 -->
<g id="node21" class="node"><title>Node11</title>
<a xlink:href="class_ro_r_frame_listener.html#af2779b96aa0f91920bd100bc30261402" target="_top" xlink:title="RoRFrameListener::Restart">
<polygon fill="white" stroke="black" points="1462.5,-17.5 1462.5,-38.5 1599.5,-38.5 1599.5,-17.5 1462.5,-17.5"/>
<text text-anchor="middle" x="1531" y="-25.5" font-family="Helvetica,sans-Serif" font-size="10.00">RoRFrameListener::Restart</text>
</a>
</g>
<!-- Node10&#45;&gt;Node11 -->
<g id="edge20" class="edge"><title>Node10&#45;&gt;Node11</title>
<path fill="none" stroke="midnightblue" d="M1436.04,-28C1444.86,-28 1453.78,-28 1462.45,-28"/>
<polygon fill="midnightblue" stroke="midnightblue" points="1435.77,-24.5001 1425.77,-28 1435.77,-31.5001 1435.77,-24.5001"/>
</g>
</g>
</svg>
        <g id="navigator" transform="translate(0 0)" fill="#404254">
                <rect fill="#f2f5e9" fill-opacity="0.5" stroke="#606060" stroke-width=".5" x="0" y="0" width="60" height="60"/>
                <use id="zoomplus" xlink:href="#zoomPlus" x="17" y="9" onmousedown="handleZoom(evt,'in')"/>
                <use id="zoomminus" xlink:href="#zoomMin" x="42" y="9" onmousedown="handleZoom(evt,'out')"/>
                <use id="reset" xlink:href="#resetDef" x="30" y="36" onmousedown="handleReset()"/>
                <g id="arrowUp" xlink:href="#dirArrow" transform="translate(30 24)" onmousedown="handlePan(0,-1)">
                  <use xlink:href="#rim" fill="#404040">
                        <set attributeName="fill" to="#808080" begin="arrowUp.mouseover" end="arrowUp.mouseout"/>
                  </use>
                  <path fill="none" stroke="white" stroke-width="1.5" d="M0,-3.0v7 M-2.5,-0.5L0,-3.0L2.5,-0.5"/>
                </g>
                <g id="arrowRight" xlink:href="#dirArrow" transform="rotate(90) translate(36 -43)" onmousedown="handlePan(1,0)">
                  <use xlink:href="#rim" fill="#404040">
                        <set attributeName="fill" to="#808080" begin="arrowRight.mouseover" end="arrowRight.mouseout"/>
                  </use>
                  <path fill="none" stroke="white" stroke-width="1.5" d="M0,-3.0v7 M-2.5,-0.5L0,-3.0L2.5,-0.5"/>
                </g>
                <g id="arrowDown" xlink:href="#dirArrow" transform="rotate(180) translate(-30 -48)" onmousedown="handlePan(0,1)">
                  <use xlink:href="#rim" fill="#404040">
                        <set attributeName="fill" to="#808080" begin="arrowDown.mouseover" end="arrowDown.mouseout"/>
                  </use>
                  <path fill="none" stroke="white" stroke-width="1.5" d="M0,-3.0v7 M-2.5,-0.5L0,-3.0L2.5,-0.5"/>
                </g>
                <g id="arrowLeft" xlink:href="#dirArrow" transform="rotate(270) translate(-36 17)" onmousedown="handlePan(-1,0)">
                  <use xlink:href="#rim" fill="#404040">
                        <set attributeName="fill" to="#808080" begin="arrowLeft.mouseover" end="arrowLeft.mouseout"/>
                  </use>
                  <path fill="none" stroke="white" stroke-width="1.5" d="M0,-3.0v7 M-2.5,-0.5L0,-3.0L2.5,-0.5"/>
                </g>
        </g>
        <svg viewBox="0 0 15 15" width="100%" height="30px" preserveAspectRatio="xMaxYMin meet">
         <g id="arrow_out" transform="scale(0.3 0.3)">
          <a xlink:href="class_h_d_r_listener_af50c6069424ace2a1b4fc77af69d418c_icgraph_org.svg" target="_base">
           <rect id="button" ry="5" rx="5" y="6" x="6" height="38" width="38"
                fill="#f2f5e9" fill-opacity="0.5" stroke="#606060" stroke-width="1.0"/>
           <path id="arrow"
             d="M 11.500037,31.436501 C 11.940474,20.09759 22.043105,11.32322 32.158766,21.979434 L 37.068811,17.246167 C 37.068811,17.246167 37.088388,32 37.088388,32 L 22.160133,31.978069 C 22.160133,31.978069 26.997745,27.140456 26.997745,27.140456 C 18.528582,18.264221 13.291696,25.230495 11.500037,31.436501 z"
             style="fill:#404040;"/>
          </a>
         </g>
        </svg>
</svg>
