<?xml version="1.0" encoding="UTF-8" standalone="no"?>
<!DOCTYPE svg PUBLIC "-//W3C//DTD SVG 1.1//EN"
 "http://www.w3.org/Graphics/SVG/1.1/DTD/svg11.dtd">
<!-- Generated by graphviz version 2.26.3 (20100126.1600)
 -->
<!-- Title: G Pages: 1 -->
<!--zoomable 109 -->
<svg id="main" version="1.1" xmlns="http://www.w3.org/2000/svg" xmlns:xlink="http://www.w3.org/1999/xlink" xml:space="preserve" onload="init(evt)">
        <defs>
                <circle id="rim" cx="0" cy="0" r="7"/>
                <circle id="rim2" cx="0" cy="0" r="3.5"/>
                <g id="zoomPlus">
                        <use xlink:href="#rim" fill="#404040">
                                <set attributeName="fill" to="#808080" begin="zoomplus.mouseover" end="zoomplus.mouseout"/>
                        </use>
                        <path d="M-4,0h8M0,-4v8" fill="none" stroke="white" stroke-width="1.5" pointer-events="none"/>
                </g>
                <g id="zoomMin">
                        <use xlink:href="#rim" fill="#404040">
                                <set attributeName="fill" to="#808080" begin="zoomminus.mouseover" end="zoomminus.mouseout"/>
                        </use>
                        <path d="M-4,0h8" fill="none" stroke="white" stroke-width="1.5" pointer-events="none"/>
                </g>
                <g id="dirArrow">
                        <path fill="none" stroke="white" stroke-width="1.5" d="M0,-3.0v7 M-2.5,-0.5L0,-3.0L2.5,-0.5"/>
                </g>
               <g id="resetDef">
                       <use xlink:href="#rim2" fill="#404040">
                               <set attributeName="fill" to="#808080" begin="reset.mouseover" end="reset.mouseout"/>
                       </use>
               </g>
        </defs>

<script type="text/javascript">
var viewWidth = 878;
var viewHeight = 109;
var sectionId = 'dynsection-15';
</script>
<script xlink:href="svgpan.js"/>
<svg id="graph" class="graph">
<g id="viewport">
<title>G</title>
<polygon fill="white" stroke="white" points="-4,5 -4,-105 875,-105 875,5 -4,5"/>
<!-- Node1 -->
<g id="node1" class="node"><title>Node1</title>
<polygon fill="#bfbfbf" stroke="black" points="0,-40.5 0,-61.5 120,-61.5 120,-40.5 0,-40.5"/>
<text text-anchor="middle" x="60" y="-48.5" font-family="Helvetica,sans-Serif" font-size="10.00">BeamEngine::getClutch</text>
</g>
<!-- Node2 -->
<g id="node3" class="node"><title>Node2</title>
<a xlink:href="class_out_protocol.html#a04436a996c74893dc5eda26782be06ee" target="_top" xlink:title="OutProtocol::update">
<polygon fill="white" stroke="black" points="329,-40.5 329,-61.5 433,-61.5 433,-40.5 329,-40.5"/>
<text text-anchor="middle" x="381" y="-48.5" font-family="Helvetica,sans-Serif" font-size="10.00">OutProtocol::update</text>
</a>
</g>
<!-- Node1&#45;&gt;Node2 -->
<g id="edge2" class="edge"><title>Node1&#45;&gt;Node2</title>
<path fill="none" stroke="midnightblue" d="M130.142,-51C190.079,-51 274.953,-51 328.986,-51"/>
<polygon fill="midnightblue" stroke="midnightblue" points="130.001,-47.5001 120.001,-51 130.001,-54.5001 130.001,-47.5001"/>
</g>
<!-- Node4 -->
<g id="node7" class="node"><title>Node4</title>
<a xlink:href="class_two_d_replay.html#a4b479652a9394ba9e8b7e08e33dbbb7a" target="_top" xlink:title="TwoDReplay::recordFrame">
<polygon fill="white" stroke="black" points="156,-1.5 156,-22.5 290,-22.5 290,-1.5 156,-1.5"/>
<text text-anchor="middle" x="223" y="-9.5" font-family="Helvetica,sans-Serif" font-size="10.00">TwoDReplay::recordFrame</text>
</a>
</g>
<!-- Node1&#45;&gt;Node4 -->
<g id="edge6" class="edge"><title>Node1&#45;&gt;Node4</title>
<path fill="none" stroke="midnightblue" d="M113.886,-38.107C134.96,-33.0648 158.827,-27.3542 178.855,-22.5624"/>
<polygon fill="midnightblue" stroke="midnightblue" points="113.021,-34.7151 104.11,-40.446 114.65,-41.5229 113.021,-34.7151"/>
</g>
<!-- Node8 -->
<g id="node16" class="node"><title>Node8</title>
<a xlink:href="class_overlay_wrapper.html#af60b94483d2976f1356c3450cc1d70e8" target="_top" xlink:title="OverlayWrapper::UpdateLandVehicleHUD">
<polygon fill="white" stroke="black" points="472,-79.5 472,-100.5 672,-100.5 672,-79.5 472,-79.5"/>
<text text-anchor="middle" x="572" y="-87.5" font-family="Helvetica,sans-Serif" font-size="10.00">OverlayWrapper::UpdateLandVehicleHUD</text>
</a>
</g>
<!-- Node1&#45;&gt;Node8 -->
<g id="edge16" class="edge"><title>Node1&#45;&gt;Node8</title>
<path fill="none" stroke="midnightblue" d="M130.195,-61.9371C138.872,-63.0822 147.631,-64.1398 156,-65 263.6,-76.0589 387.398,-82.7273 471.78,-86.3617"/>
<polygon fill="midnightblue" stroke="midnightblue" points="130.455,-58.4403 120.075,-60.5592 129.511,-65.3764 130.455,-58.4403"/>
</g>
<!-- Node3 -->
<g id="node5" class="node"><title>Node3</title>
<a xlink:href="class_ro_r_frame_listener.html#acd8647e188fb8e838689492965b86faf" target="_top" xlink:title="RoRFrameListener::frameStarted">
<polygon fill="white" stroke="black" points="708.5,-40.5 708.5,-61.5 869.5,-61.5 869.5,-40.5 708.5,-40.5"/>
<text text-anchor="middle" x="789" y="-48.5" font-family="Helvetica,sans-Serif" font-size="10.00">RoRFrameListener::frameStarted</text>
</a>
</g>
<!-- Node2&#45;&gt;Node3 -->
<g id="edge4" class="edge"><title>Node2&#45;&gt;Node3</title>
<path fill="none" stroke="midnightblue" d="M443.225,-51C514.227,-51 630.559,-51 708.434,-51"/>
<polygon fill="midnightblue" stroke="midnightblue" points="443.088,-47.5001 433.088,-51 443.088,-54.5001 443.088,-47.5001"/>
</g>
<!-- Node5 -->
<g id="node9" class="node"><title>Node5</title>
<a xlink:href="class_two_d_replay.html#abceb8a16da69e16f581128ae0e111a12" target="_top" xlink:title="TwoDReplay::update">
<polygon fill="white" stroke="black" points="326.5,-0.5 326.5,-21.5 435.5,-21.5 435.5,-0.5 326.5,-0.5"/>
<text text-anchor="middle" x="381" y="-8.5" font-family="Helvetica,sans-Serif" font-size="10.00">TwoDReplay::update</text>
</a>
</g>
<!-- Node4&#45;&gt;Node5 -->
<g id="edge8" class="edge"><title>Node4&#45;&gt;Node5</title>
<path fill="none" stroke="midnightblue" d="M300.29,-11.5108C309.084,-11.4552 317.907,-11.3993 326.321,-11.3461"/>
<polygon fill="midnightblue" stroke="midnightblue" points="299.984,-8.01259 290.006,-11.5759 300.028,-15.0125 299.984,-8.01259"/>
</g>
<!-- Node6 -->
<g id="node11" class="node"><title>Node6</title>
<a xlink:href="class_beam_factory.html#a6fa954b906b6dc808a34e69ac2d018d3" target="_top" xlink:title="BeamFactory::calcPhysics">
<polygon fill="white" stroke="black" points="505,-0.5 505,-21.5 639,-21.5 639,-0.5 505,-0.5"/>
<text text-anchor="middle" x="572" y="-8.5" font-family="Helvetica,sans-Serif" font-size="10.00">BeamFactory::calcPhysics</text>
</a>
</g>
<!-- Node5&#45;&gt;Node6 -->
<g id="edge10" class="edge"><title>Node5&#45;&gt;Node6</title>
<path fill="none" stroke="midnightblue" d="M445.773,-11C464.758,-11 485.556,-11 504.695,-11"/>
<polygon fill="midnightblue" stroke="midnightblue" points="445.733,-7.5001 435.733,-11 445.733,-14.5001 445.733,-7.5001"/>
</g>
<!-- Node6&#45;&gt;Node3 -->
<g id="edge12" class="edge"><title>Node6&#45;&gt;Node3</title>
<path fill="none" stroke="midnightblue" d="M638.915,-23.3346C668.716,-28.8278 703.448,-35.23 731.99,-40.4913"/>
<polygon fill="midnightblue" stroke="midnightblue" points="639.483,-19.8804 629.014,-21.5095 638.214,-26.7644 639.483,-19.8804"/>
</g>
<!-- Node7 -->
<g id="node14" class="node"><title>Node7</title>
<a xlink:href="class_preview_renderer.html#a5ea6b4611b45965e072266211dc60ba8" target="_top" xlink:title="PreviewRenderer::render">
<polygon fill="white" stroke="black" points="726.5,-0.5 726.5,-21.5 851.5,-21.5 851.5,-0.5 726.5,-0.5"/>
<text text-anchor="middle" x="789" y="-8.5" font-family="Helvetica,sans-Serif" font-size="10.00">PreviewRenderer::render</text>
</a>
</g>
<!-- Node6&#45;&gt;Node7 -->
<g id="edge14" class="edge"><title>Node6&#45;&gt;Node7</title>
<path fill="none" stroke="midnightblue" d="M649.429,-11C674.613,-11 702.236,-11 726.214,-11"/>
<polygon fill="midnightblue" stroke="midnightblue" points="649.174,-7.5001 639.174,-11 649.174,-14.5001 649.174,-7.5001"/>
</g>
<!-- Node8&#45;&gt;Node3 -->
<g id="edge18" class="edge"><title>Node8&#45;&gt;Node3</title>
<path fill="none" stroke="midnightblue" d="M640.465,-77.6953C669.38,-72.4985 702.708,-66.5087 730.458,-61.5213"/>
<polygon fill="midnightblue" stroke="midnightblue" points="639.661,-74.2836 630.437,-79.4974 640.899,-81.1732 639.661,-74.2836"/>
</g>
</g>
</svg>
        <g id="navigator" transform="translate(0 0)" fill="#404254">
                <rect fill="#f2f5e9" fill-opacity="0.5" stroke="#606060" stroke-width=".5" x="0" y="0" width="60" height="60"/>
                <use id="zoomplus" xlink:href="#zoomPlus" x="17" y="9" onmousedown="handleZoom(evt,'in')"/>
                <use id="zoomminus" xlink:href="#zoomMin" x="42" y="9" onmousedown="handleZoom(evt,'out')"/>
                <use id="reset" xlink:href="#resetDef" x="30" y="36" onmousedown="handleReset()"/>
                <g id="arrowUp" xlink:href="#dirArrow" transform="translate(30 24)" onmousedown="handlePan(0,-1)">
                  <use xlink:href="#rim" fill="#404040">
                        <set attributeName="fill" to="#808080" begin="arrowUp.mouseover" end="arrowUp.mouseout"/>
                  </use>
                  <path fill="none" stroke="white" stroke-width="1.5" d="M0,-3.0v7 M-2.5,-0.5L0,-3.0L2.5,-0.5"/>
                </g>
                <g id="arrowRight" xlink:href="#dirArrow" transform="rotate(90) translate(36 -43)" onmousedown="handlePan(1,0)">
                  <use xlink:href="#rim" fill="#404040">
                        <set attributeName="fill" to="#808080" begin="arrowRight.mouseover" end="arrowRight.mouseout"/>
                  </use>
                  <path fill="none" stroke="white" stroke-width="1.5" d="M0,-3.0v7 M-2.5,-0.5L0,-3.0L2.5,-0.5"/>
                </g>
                <g id="arrowDown" xlink:href="#dirArrow" transform="rotate(180) translate(-30 -48)" onmousedown="handlePan(0,1)">
                  <use xlink:href="#rim" fill="#404040">
                        <set attributeName="fill" to="#808080" begin="arrowDown.mouseover" end="arrowDown.mouseout"/>
                  </use>
                  <path fill="none" stroke="white" stroke-width="1.5" d="M0,-3.0v7 M-2.5,-0.5L0,-3.0L2.5,-0.5"/>
                </g>
                <g id="arrowLeft" xlink:href="#dirArrow" transform="rotate(270) translate(-36 17)" onmousedown="handlePan(-1,0)">
                  <use xlink:href="#rim" fill="#404040">
                        <set attributeName="fill" to="#808080" begin="arrowLeft.mouseover" end="arrowLeft.mouseout"/>
                  </use>
                  <path fill="none" stroke="white" stroke-width="1.5" d="M0,-3.0v7 M-2.5,-0.5L0,-3.0L2.5,-0.5"/>
                </g>
        </g>
</svg>
