<?xml version="1.0" encoding="UTF-8" standalone="no"?>
<!DOCTYPE svg PUBLIC "-//W3C//DTD SVG 1.1//EN"
 "http://www.w3.org/Graphics/SVG/1.1/DTD/svg11.dtd">
<!-- Generated by graphviz version 2.26.3 (20100126.1600)
 -->
<!-- Title: MyDialog::LoadConfig Pages: 1 -->
<svg width="380pt" height="30pt"
 viewBox="0.00 0.00 380.00 30.00" xmlns="http://www.w3.org/2000/svg" xmlns:xlink="http://www.w3.org/1999/xlink">
<g id="graph1" class="graph" transform="scale(1 1) rotate(0) translate(4 26)">
<title>MyDialog::LoadConfig</title>
<polygon fill="white" stroke="white" points="-4,5 -4,-26 377,-26 377,5 -4,5"/>
<!-- Node1 -->
<g id="node1" class="node"><title>Node1</title>
<polygon fill="#bfbfbf" stroke="black" points="0.5,-0.5 0.5,-21.5 113.5,-21.5 113.5,-0.5 0.5,-0.5"/>
<text text-anchor="middle" x="57" y="-8.5" font-family="Helvetica,sans-Serif" font-size="10.00">MyDialog::LoadConfig</text>
</g>
<!-- Node2 -->
<g id="node3" class="node"><title>Node2</title>
<a xlink:href="class_my_dialog.html#a730ceb49055449013bde3aff7119870f" target="_top" xlink:title="MyDialog::MyDialog">
<polygon fill="white" stroke="black" points="150.5,-0.5 150.5,-21.5 255.5,-21.5 255.5,-0.5 150.5,-0.5"/>
<text text-anchor="middle" x="203" y="-8.5" font-family="Helvetica,sans-Serif" font-size="10.00">MyDialog::MyDialog</text>
</a>
</g>
<!-- Node1&#45;&gt;Node2 -->
<g id="edge2" class="edge"><title>Node1&#45;&gt;Node2</title>
<path fill="none" stroke="midnightblue" d="M124.114,-11C132.915,-11 141.831,-11 150.345,-11"/>
<polygon fill="midnightblue" stroke="midnightblue" points="123.866,-7.5001 113.865,-11 123.865,-14.5001 123.866,-7.5001"/>
</g>
<!-- Node3 -->
<g id="node5" class="node"><title>Node3</title>
<a xlink:href="class_my_app.html#a79fa75d1155f0e85e20f2869538296d6" target="_top" xlink:title="MyApp::OnInit">
<polygon fill="white" stroke="black" points="292,-0.5 292,-21.5 372,-21.5 372,-0.5 292,-0.5"/>
<text text-anchor="middle" x="332" y="-8.5" font-family="Helvetica,sans-Serif" font-size="10.00">MyApp::OnInit</text>
</a>
</g>
<!-- Node2&#45;&gt;Node3 -->
<g id="edge4" class="edge"><title>Node2&#45;&gt;Node3</title>
<path fill="none" stroke="midnightblue" d="M266.032,-11C274.76,-11 283.524,-11 291.684,-11"/>
<polygon fill="midnightblue" stroke="midnightblue" points="265.841,-7.5001 255.841,-11 265.841,-14.5001 265.841,-7.5001"/>
</g>
</g>
</svg>
