<?xml version="1.0" encoding="UTF-8" standalone="no"?>
<!DOCTYPE svg PUBLIC "-//W3C//DTD SVG 1.1//EN"
 "http://www.w3.org/Graphics/SVG/1.1/DTD/svg11.dtd">
<!-- Generated by graphviz version 2.26.3 (20100126.1600)
 -->
<!-- Title: LocalStorage::getDegree Pages: 1 -->
<svg width="298pt" height="82pt"
 viewBox="0.00 0.00 298.00 82.00" xmlns="http://www.w3.org/2000/svg" xmlns:xlink="http://www.w3.org/1999/xlink">
<g id="graph1" class="graph" transform="scale(1 1) rotate(0) translate(4 78)">
<title>LocalStorage::getDegree</title>
<polygon fill="white" stroke="white" points="-4,5 -4,-78 295,-78 295,5 -4,5"/>
<!-- Node1 -->
<g id="node1" class="node"><title>Node1</title>
<polygon fill="#bfbfbf" stroke="black" points="0.5,-29.5 0.5,-50.5 125.5,-50.5 125.5,-29.5 0.5,-29.5"/>
<text text-anchor="middle" x="63" y="-37.5" font-family="Helvetica,sans-Serif" font-size="10.00">LocalStorage::getDegree</text>
</g>
<!-- Node2 -->
<g id="node3" class="node"><title>Node2</title>
<a xlink:href="class_local_storage.html#aa18cb1ed34366948bbdd4d01775121a5" target="_top" xlink:title="LocalStorage::parseKey">
<polygon fill="white" stroke="black" points="165.5,-52.5 165.5,-73.5 286.5,-73.5 286.5,-52.5 165.5,-52.5"/>
<text text-anchor="middle" x="226" y="-60.5" font-family="Helvetica,sans-Serif" font-size="10.00">LocalStorage::parseKey</text>
</a>
</g>
<!-- Node1&#45;&gt;Node2 -->
<g id="edge2" class="edge"><title>Node1&#45;&gt;Node2</title>
<path fill="none" stroke="midnightblue" d="M125.554,-48.8266C135.282,-50.1993 145.392,-51.6259 155.286,-53.0219"/>
<polygon fill="midnightblue" stroke="midnightblue" points="155.102,-56.5306 165.493,-54.4622 156.08,-49.5993 155.102,-56.5306"/>
</g>
<!-- Node3 -->
<g id="node5" class="node"><title>Node3</title>
<a xlink:href="class_ogre_1_1_improved_config_file.html#a6714cb5a2e2c6acf6ba459a90e481fe6" target="_top" xlink:title="Ogre::ImprovedConfigFile\l::getSettingRadian">
<polygon fill="white" stroke="black" points="162,-0 162,-34 290,-34 290,-0 162,-0"/>
<text text-anchor="start" x="170" y="-21" font-family="Helvetica,sans-Serif" font-size="10.00">Ogre::ImprovedConfigFile</text>
<text text-anchor="middle" x="226" y="-8" font-family="Helvetica,sans-Serif" font-size="10.00">::getSettingRadian</text>
</a>
</g>
<!-- Node1&#45;&gt;Node3 -->
<g id="edge4" class="edge"><title>Node1&#45;&gt;Node3</title>
<path fill="none" stroke="midnightblue" d="M125.554,-31.1734C134.229,-29.9492 143.208,-28.6823 152.067,-27.4323"/>
<polygon fill="midnightblue" stroke="midnightblue" points="152.582,-30.8944 161.995,-26.0314 151.604,-23.963 152.582,-30.8944"/>
</g>
</g>
</svg>
