<?xml version="1.0" encoding="UTF-8" standalone="no"?>
<!DOCTYPE svg PUBLIC "-//W3C//DTD SVG 1.1//EN"
 "http://www.w3.org/Graphics/SVG/1.1/DTD/svg11.dtd">
<!-- Generated by graphviz version 2.26.3 (20100126.1600)
 -->
<!-- Title: RoR::RigEditor::Main::CommandCurrentRigDeleteSelectedBeams Pages: 1 -->
<!--zoomable 354 -->
<svg id="main" version="1.1" xmlns="http://www.w3.org/2000/svg" xmlns:xlink="http://www.w3.org/1999/xlink" xml:space="preserve" onload="init(evt)">
<style type="text/css"><![CDATA[
.edge:hover path { stroke: red; }
.edge:hover polygon { stroke: red; fill: red; }
]]></style>
<script type="text/javascript"><![CDATA[
var edges = document.getElementsByTagName('g');
if (edges && edges.length) {
  for (var i=0;i<edges.length;i++) {
    if (edges[i].id.substr(0,4)=='edge') {
      edges[i].setAttribute('class','edge');
    }
  }
}
]]></script>
        <defs>
                <circle id="rim" cx="0" cy="0" r="7"/>
                <circle id="rim2" cx="0" cy="0" r="3.5"/>
                <g id="zoomPlus">
                        <use xlink:href="#rim" fill="#404040">
                                <set attributeName="fill" to="#808080" begin="zoomplus.mouseover" end="zoomplus.mouseout"/>
                        </use>
                        <path d="M-4,0h8M0,-4v8" fill="none" stroke="white" stroke-width="1.5" pointer-events="none"/>
                </g>
                <g id="zoomMin">
                        <use xlink:href="#rim" fill="#404040">
                                <set attributeName="fill" to="#808080" begin="zoomminus.mouseover" end="zoomminus.mouseout"/>
                        </use>
                        <path d="M-4,0h8" fill="none" stroke="white" stroke-width="1.5" pointer-events="none"/>
                </g>
                <g id="dirArrow">
                        <path fill="none" stroke="white" stroke-width="1.5" d="M0,-3.0v7 M-2.5,-0.5L0,-3.0L2.5,-0.5"/>
                </g>
               <g id="resetDef">
                       <use xlink:href="#rim2" fill="#404040">
                               <set attributeName="fill" to="#808080" begin="reset.mouseover" end="reset.mouseout"/>
                       </use>
               </g>
        </defs>

<script type="text/javascript">
var viewWidth = 538;
var viewHeight = 354;
var sectionId = 'dynsection-7';
</script>
<script xlink:href="svgpan.js"/>
<svg id="graph" class="graph">
<g id="viewport">
<title>RoR::RigEditor::Main::CommandCurrentRigDeleteSelectedBeams</title>
<polygon fill="white" stroke="white" points="-4,5 -4,-350 535,-350 535,5 -4,5"/>
<!-- Node1 -->
<g id="node1" class="node"><title>Node1</title>
<polygon fill="#bfbfbf" stroke="black" points="0,-171.5 0,-218.5 182,-218.5 182,-171.5 0,-171.5"/>
<text text-anchor="start" x="8" y="-205.5" font-family="Helvetica,sans-Serif" font-size="10.00">RoR::RigEditor::Main</text>
<text text-anchor="start" x="8" y="-192.5" font-family="Helvetica,sans-Serif" font-size="10.00">::CommandCurrentRigDeleteSelected</text>
<text text-anchor="middle" x="91" y="-179.5" font-family="Helvetica,sans-Serif" font-size="10.00">Beams</text>
</g>
<!-- Node2 -->
<g id="node3" class="node"><title>Node2</title>
<a xlink:href="class_ro_r_1_1_rig_editor_1_1_main.html#a4e9ceeb031f661d90ee6220ffc994377" target="_top" xlink:title="RoR::RigEditor::Main\l::HideAllNodeBeamGuiPanels">
<polygon fill="white" stroke="black" points="224,-267 224,-301 372,-301 372,-267 224,-267"/>
<text text-anchor="start" x="232" y="-288" font-family="Helvetica,sans-Serif" font-size="10.00">RoR::RigEditor::Main</text>
<text text-anchor="middle" x="298" y="-275" font-family="Helvetica,sans-Serif" font-size="10.00">::HideAllNodeBeamGuiPanels</text>
</a>
</g>
<!-- Node1&#45;&gt;Node2 -->
<g id="edge2" class="edge"><title>Node1&#45;&gt;Node2</title>
<path fill="none" stroke="midnightblue" d="M134.645,-218.629C158.815,-231.208 189.628,-246.425 218,-258 222.697,-259.916 227.592,-261.791 232.545,-263.6"/>
<polygon fill="midnightblue" stroke="midnightblue" points="231.509,-266.947 242.104,-266.993 233.851,-260.35 231.509,-266.947"/>
</g>
<!-- Node3 -->
<g id="node5" class="node"><title>Node3</title>
<a xlink:href="class_ro_r_1_1_rig_editor_1_1_rig.html#aa1d9bda9db234aec6f6efb182ba8e4ab" target="_top" xlink:title="RoR::RigEditor::Rig\l::DeleteBeamsBetweenSelected\lNodes">
<polygon fill="white" stroke="black" points="219,-201.5 219,-248.5 377,-248.5 377,-201.5 219,-201.5"/>
<text text-anchor="start" x="227" y="-235.5" font-family="Helvetica,sans-Serif" font-size="10.00">RoR::RigEditor::Rig</text>
<text text-anchor="start" x="227" y="-222.5" font-family="Helvetica,sans-Serif" font-size="10.00">::DeleteBeamsBetweenSelected</text>
<text text-anchor="middle" x="298" y="-209.5" font-family="Helvetica,sans-Serif" font-size="10.00">Nodes</text>
</a>
</g>
<!-- Node1&#45;&gt;Node3 -->
<g id="edge4" class="edge"><title>Node1&#45;&gt;Node3</title>
<path fill="none" stroke="midnightblue" d="M182.094,-208.202C191,-209.493 200.03,-210.801 208.915,-212.089"/>
<polygon fill="midnightblue" stroke="midnightblue" points="208.472,-215.561 218.871,-213.532 209.476,-208.634 208.472,-215.561"/>
</g>
<!-- Node9 -->
<g id="node17" class="node"><title>Node9</title>
<a xlink:href="class_ro_r_1_1_rig_editor_1_1_rig.html#a13ddf0660af7c1c101915c9b1efd2c90" target="_top" xlink:title="RoR::RigEditor::Rig\l::RefreshBeamsDynamicMesh">
<polygon fill="white" stroke="black" points="222.5,-97 222.5,-131 373.5,-131 373.5,-97 222.5,-97"/>
<text text-anchor="start" x="230.5" y="-118" font-family="Helvetica,sans-Serif" font-size="10.00">RoR::RigEditor::Rig</text>
<text text-anchor="middle" x="298" y="-105" font-family="Helvetica,sans-Serif" font-size="10.00">::RefreshBeamsDynamicMesh</text>
</a>
</g>
<!-- Node1&#45;&gt;Node9 -->
<g id="edge16" class="edge"><title>Node1&#45;&gt;Node9</title>
<path fill="none" stroke="midnightblue" d="M142.451,-171.404C165.373,-161.234 192.828,-149.517 218,-140 223.037,-138.096 228.283,-136.2 233.573,-134.351"/>
<polygon fill="midnightblue" stroke="midnightblue" points="234.784,-137.636 243.107,-131.08 232.513,-131.015 234.784,-137.636"/>
</g>
<!-- Node12 -->
<g id="node25" class="node"><title>Node12</title>
<a xlink:href="class_ro_r_1_1_rig_editor_1_1_rig.html#a717b168d21a24ac0338f2c6ae60c881b" target="_top" xlink:title="RoR::RigEditor::Rig\l::RefreshNodesDynamicMeshes">
<polygon fill="white" stroke="black" points="218.5,-149 218.5,-183 377.5,-183 377.5,-149 218.5,-149"/>
<text text-anchor="start" x="226.5" y="-170" font-family="Helvetica,sans-Serif" font-size="10.00">RoR::RigEditor::Rig</text>
<text text-anchor="middle" x="298" y="-157" font-family="Helvetica,sans-Serif" font-size="10.00">::RefreshNodesDynamicMeshes</text>
</a>
</g>
<!-- Node1&#45;&gt;Node12 -->
<g id="edge26" class="edge"><title>Node1&#45;&gt;Node12</title>
<path fill="none" stroke="midnightblue" d="M182.094,-182.238C190.748,-181.026 199.519,-179.797 208.161,-178.586"/>
<polygon fill="midnightblue" stroke="midnightblue" points="208.814,-182.029 218.232,-177.175 207.843,-175.097 208.814,-182.029"/>
</g>
<!-- Node4 -->
<g id="node7" class="node"><title>Node4</title>
<a xlink:href="class_ro_r_1_1_rig_editor_1_1_node.html#a96df42eb7849b0a74a0332ca22b71993" target="_top" xlink:title="RoR::RigEditor::Node\l::IsSelected">
<polygon fill="white" stroke="black" points="415.5,-208 415.5,-242 528.5,-242 528.5,-208 415.5,-208"/>
<text text-anchor="start" x="423.5" y="-229" font-family="Helvetica,sans-Serif" font-size="10.00">RoR::RigEditor::Node</text>
<text text-anchor="middle" x="472" y="-216" font-family="Helvetica,sans-Serif" font-size="10.00">::IsSelected</text>
</a>
</g>
<!-- Node3&#45;&gt;Node4 -->
<g id="edge6" class="edge"><title>Node3&#45;&gt;Node4</title>
<path fill="none" stroke="midnightblue" d="M377.108,-225C386.501,-225 396.017,-225 405.215,-225"/>
<polygon fill="midnightblue" stroke="midnightblue" points="405.44,-228.5 415.44,-225 405.44,-221.5 405.44,-228.5"/>
</g>
<!-- Node5 -->
<g id="node9" class="node"><title>Node5</title>
<a xlink:href="class_ro_r_1_1_rig_editor_1_1_beam.html#a961667e55f0d41fdacab764270939969" target="_top" xlink:title="RoR::RigEditor::Beam\l::GetNodeA">
<polygon fill="white" stroke="black" points="414.5,-104 414.5,-138 529.5,-138 529.5,-104 414.5,-104"/>
<text text-anchor="start" x="422.5" y="-125" font-family="Helvetica,sans-Serif" font-size="10.00">RoR::RigEditor::Beam</text>
<text text-anchor="middle" x="472" y="-112" font-family="Helvetica,sans-Serif" font-size="10.00">::GetNodeA</text>
</a>
</g>
<!-- Node3&#45;&gt;Node5 -->
<g id="edge8" class="edge"><title>Node3&#45;&gt;Node5</title>
<path fill="none" stroke="midnightblue" d="M363.3,-201.419C368.459,-198.562 373.433,-195.426 378,-192 398.488,-176.63 393.747,-162.678 414,-147 415.603,-145.759 417.275,-144.562 418.998,-143.409"/>
<polygon fill="midnightblue" stroke="midnightblue" points="421.19,-146.175 427.948,-138.015 417.577,-140.179 421.19,-146.175"/>
</g>
<!-- Node6 -->
<g id="node11" class="node"><title>Node6</title>
<a xlink:href="class_ro_r_1_1_rig_editor_1_1_beam.html#a9e107c4bb884aeed653419a8fa5f21ba" target="_top" xlink:title="RoR::RigEditor::Beam\l::GetNodeB">
<polygon fill="white" stroke="black" points="414.5,-156 414.5,-190 529.5,-190 529.5,-156 414.5,-156"/>
<text text-anchor="start" x="422.5" y="-177" font-family="Helvetica,sans-Serif" font-size="10.00">RoR::RigEditor::Beam</text>
<text text-anchor="middle" x="472" y="-164" font-family="Helvetica,sans-Serif" font-size="10.00">::GetNodeB</text>
</a>
</g>
<!-- Node3&#45;&gt;Node6 -->
<g id="edge10" class="edge"><title>Node3&#45;&gt;Node6</title>
<path fill="none" stroke="midnightblue" d="M376.854,-201.434C386.398,-198.582 396.073,-195.691 405.415,-192.899"/>
<polygon fill="midnightblue" stroke="midnightblue" points="406.432,-196.248 415.011,-190.031 404.427,-189.541 406.432,-196.248"/>
</g>
<!-- Node7 -->
<g id="node13" class="node"><title>Node7</title>
<a xlink:href="class_ro_r_1_1_rig_editor_1_1_node.html#afa889e9cb11afbad0efa8de446dff40c" target="_top" xlink:title="RoR::RigEditor::Node\l::UnlinkBeam">
<polygon fill="white" stroke="black" points="415.5,-260 415.5,-294 528.5,-294 528.5,-260 415.5,-260"/>
<text text-anchor="start" x="423.5" y="-281" font-family="Helvetica,sans-Serif" font-size="10.00">RoR::RigEditor::Node</text>
<text text-anchor="middle" x="472" y="-268" font-family="Helvetica,sans-Serif" font-size="10.00">::UnlinkBeam</text>
</a>
</g>
<!-- Node3&#45;&gt;Node7 -->
<g id="edge12" class="edge"><title>Node3&#45;&gt;Node7</title>
<path fill="none" stroke="midnightblue" d="M376.854,-248.566C386.464,-251.438 396.208,-254.35 405.611,-257.16"/>
<polygon fill="midnightblue" stroke="midnightblue" points="404.683,-260.535 415.267,-260.045 406.688,-253.828 404.683,-260.535"/>
</g>
<!-- Node8 -->
<g id="node15" class="node"><title>Node8</title>
<a xlink:href="class_ro_r_1_1_rig_editor_1_1_rig.html#a207d2ac614bc6b07715776729dfa4dbe" target="_top" xlink:title="RoR::RigEditor::Rig\l::DeleteBeam">
<polygon fill="white" stroke="black" points="420,-312 420,-346 524,-346 524,-312 420,-312"/>
<text text-anchor="start" x="428" y="-333" font-family="Helvetica,sans-Serif" font-size="10.00">RoR::RigEditor::Rig</text>
<text text-anchor="middle" x="472" y="-320" font-family="Helvetica,sans-Serif" font-size="10.00">::DeleteBeam</text>
</a>
</g>
<!-- Node3&#45;&gt;Node8 -->
<g id="edge14" class="edge"><title>Node3&#45;&gt;Node8</title>
<path fill="none" stroke="midnightblue" d="M363.3,-248.581C368.459,-251.438 373.433,-254.574 378,-258 398.488,-273.37 393.747,-287.322 414,-303 415.603,-304.241 417.275,-305.438 418.998,-306.591"/>
<polygon fill="midnightblue" stroke="midnightblue" points="417.577,-309.821 427.948,-311.985 421.19,-303.825 417.577,-309.821"/>
</g>
<!-- Node9&#45;&gt;Node5 -->
<g id="edge18" class="edge"><title>Node9&#45;&gt;Node5</title>
<path fill="none" stroke="midnightblue" d="M373.56,-117.04C383.702,-117.448 394.056,-117.864 404.056,-118.267"/>
<polygon fill="midnightblue" stroke="midnightblue" points="404.193,-121.775 414.325,-118.68 404.474,-114.781 404.193,-121.775"/>
</g>
<!-- Node9&#45;&gt;Node6 -->
<g id="edge24" class="edge"><title>Node9&#45;&gt;Node6</title>
<path fill="none" stroke="midnightblue" d="M350.988,-131.028C360.013,-133.984 369.284,-137.054 378,-140 389.895,-144.02 402.602,-148.414 414.705,-152.646"/>
<polygon fill="midnightblue" stroke="midnightblue" points="413.66,-155.988 424.254,-155.995 415.976,-149.383 413.66,-155.988"/>
</g>
<!-- Node10 -->
<g id="node20" class="node"><title>Node10</title>
<a xlink:href="class_ro_r_1_1_rig_editor_1_1_node.html#aefebb9cd1a67bbb2afc980b0f8baab12" target="_top" xlink:title="RoR::RigEditor::Node\l::GetPosition">
<polygon fill="white" stroke="black" points="415.5,-52 415.5,-86 528.5,-86 528.5,-52 415.5,-52"/>
<text text-anchor="start" x="423.5" y="-73" font-family="Helvetica,sans-Serif" font-size="10.00">RoR::RigEditor::Node</text>
<text text-anchor="middle" x="472" y="-60" font-family="Helvetica,sans-Serif" font-size="10.00">::GetPosition</text>
</a>
</g>
<!-- Node9&#45;&gt;Node10 -->
<g id="edge20" class="edge"><title>Node9&#45;&gt;Node10</title>
<path fill="none" stroke="midnightblue" d="M363.782,-96.9874C377.412,-93.4625 391.781,-89.7462 405.439,-86.2142"/>
<polygon fill="midnightblue" stroke="midnightblue" points="406.431,-89.5726 415.237,-83.6802 404.679,-82.7956 406.431,-89.5726"/>
</g>
<!-- Node11 -->
<g id="node22" class="node"><title>Node11</title>
<a xlink:href="class_ro_r_1_1_rig_editor_1_1_beam.html#ad280482e0eea91ada6435db2046e4c13" target="_top" xlink:title="RoR::RigEditor::Beam\l::GetColor">
<polygon fill="white" stroke="black" points="414.5,-0 414.5,-34 529.5,-34 529.5,-0 414.5,-0"/>
<text text-anchor="start" x="422.5" y="-21" font-family="Helvetica,sans-Serif" font-size="10.00">RoR::RigEditor::Beam</text>
<text text-anchor="middle" x="472" y="-8" font-family="Helvetica,sans-Serif" font-size="10.00">::GetColor</text>
</a>
</g>
<!-- Node9&#45;&gt;Node11 -->
<g id="edge22" class="edge"><title>Node9&#45;&gt;Node11</title>
<path fill="none" stroke="midnightblue" d="M323.706,-96.9526C346.853,-81.922 382.046,-59.8529 414,-43 416.879,-41.4814 419.865,-39.9675 422.895,-38.4775"/>
<polygon fill="midnightblue" stroke="midnightblue" points="424.541,-41.5698 432.053,-34.0978 421.521,-35.2548 424.541,-41.5698"/>
</g>
<!-- Node12&#45;&gt;Node4 -->
<g id="edge28" class="edge"><title>Node12&#45;&gt;Node4</title>
<path fill="none" stroke="midnightblue" d="M350.988,-183.028C360.013,-185.984 369.284,-189.054 378,-192 389.895,-196.02 402.602,-200.414 414.705,-204.646"/>
<polygon fill="midnightblue" stroke="midnightblue" points="413.66,-207.988 424.254,-207.995 415.976,-201.383 413.66,-207.988"/>
</g>
<!-- Node12&#45;&gt;Node10 -->
<g id="edge30" class="edge"><title>Node12&#45;&gt;Node10</title>
<path fill="none" stroke="midnightblue" d="M362.081,-148.995C367.677,-146.388 373.076,-143.406 378,-140 399.064,-125.43 393.747,-110.678 414,-95 415.603,-93.7588 417.275,-92.5619 418.998,-91.4092"/>
<polygon fill="midnightblue" stroke="midnightblue" points="421.19,-94.1746 427.948,-86.015 417.577,-88.1794 421.19,-94.1746"/>
</g>
</g>
</svg>
        <g id="navigator" transform="translate(0 0)" fill="#404254">
                <rect fill="#f2f5e9" fill-opacity="0.5" stroke="#606060" stroke-width=".5" x="0" y="0" width="60" height="60"/>
                <use id="zoomplus" xlink:href="#zoomPlus" x="17" y="9" onmousedown="handleZoom(evt,'in')"/>
                <use id="zoomminus" xlink:href="#zoomMin" x="42" y="9" onmousedown="handleZoom(evt,'out')"/>
                <use id="reset" xlink:href="#resetDef" x="30" y="36" onmousedown="handleReset()"/>
                <g id="arrowUp" xlink:href="#dirArrow" transform="translate(30 24)" onmousedown="handlePan(0,-1)">
                  <use xlink:href="#rim" fill="#404040">
                        <set attributeName="fill" to="#808080" begin="arrowUp.mouseover" end="arrowUp.mouseout"/>
                  </use>
                  <path fill="none" stroke="white" stroke-width="1.5" d="M0,-3.0v7 M-2.5,-0.5L0,-3.0L2.5,-0.5"/>
                </g>
                <g id="arrowRight" xlink:href="#dirArrow" transform="rotate(90) translate(36 -43)" onmousedown="handlePan(1,0)">
                  <use xlink:href="#rim" fill="#404040">
                        <set attributeName="fill" to="#808080" begin="arrowRight.mouseover" end="arrowRight.mouseout"/>
                  </use>
                  <path fill="none" stroke="white" stroke-width="1.5" d="M0,-3.0v7 M-2.5,-0.5L0,-3.0L2.5,-0.5"/>
                </g>
                <g id="arrowDown" xlink:href="#dirArrow" transform="rotate(180) translate(-30 -48)" onmousedown="handlePan(0,1)">
                  <use xlink:href="#rim" fill="#404040">
                        <set attributeName="fill" to="#808080" begin="arrowDown.mouseover" end="arrowDown.mouseout"/>
                  </use>
                  <path fill="none" stroke="white" stroke-width="1.5" d="M0,-3.0v7 M-2.5,-0.5L0,-3.0L2.5,-0.5"/>
                </g>
                <g id="arrowLeft" xlink:href="#dirArrow" transform="rotate(270) translate(-36 17)" onmousedown="handlePan(-1,0)">
                  <use xlink:href="#rim" fill="#404040">
                        <set attributeName="fill" to="#808080" begin="arrowLeft.mouseover" end="arrowLeft.mouseout"/>
                  </use>
                  <path fill="none" stroke="white" stroke-width="1.5" d="M0,-3.0v7 M-2.5,-0.5L0,-3.0L2.5,-0.5"/>
                </g>
        </g>
        <svg viewBox="0 0 15 15" width="100%" height="30px" preserveAspectRatio="xMaxYMin meet">
         <g id="arrow_out" transform="scale(0.3 0.3)">
          <a xlink:href="class_ro_r_1_1_rig_editor_1_1_main_ae35ae0a10dd9ccbe9f6aa3270d61c2fb_cgraph_org.svg" target="_base">
           <rect id="button" ry="5" rx="5" y="6" x="6" height="38" width="38"
                fill="#f2f5e9" fill-opacity="0.5" stroke="#606060" stroke-width="1.0"/>
           <path id="arrow"
             d="M 11.500037,31.436501 C 11.940474,20.09759 22.043105,11.32322 32.158766,21.979434 L 37.068811,17.246167 C 37.068811,17.246167 37.088388,32 37.088388,32 L 22.160133,31.978069 C 22.160133,31.978069 26.997745,27.140456 26.997745,27.140456 C 18.528582,18.264221 13.291696,25.230495 11.500037,31.436501 z"
             style="fill:#404040;"/>
          </a>
         </g>
        </svg>
</svg>
