<?xml version="1.0" encoding="UTF-8" standalone="no"?>
<!DOCTYPE svg PUBLIC "-//W3C//DTD SVG 1.1//EN"
 "http://www.w3.org/Graphics/SVG/1.1/DTD/svg11.dtd">
<!-- Generated by graphviz version 2.26.3 (20100126.1600)
 -->
<!-- Title: BeamFactory::p_removeAllTrucks Pages: 1 -->
<svg width="1032pt" height="82pt"
 viewBox="0.00 0.00 1032.00 82.00" xmlns="http://www.w3.org/2000/svg" xmlns:xlink="http://www.w3.org/1999/xlink">
<g id="graph1" class="graph" transform="scale(1 1) rotate(0) translate(4 78)">
<title>BeamFactory::p_removeAllTrucks</title>
<polygon fill="white" stroke="white" points="-4,5 -4,-78 1029,-78 1029,5 -4,5"/>
<!-- Node1 -->
<g id="node1" class="node"><title>Node1</title>
<polygon fill="#bfbfbf" stroke="black" points="0.5,-23 0.5,-57 135.5,-57 135.5,-23 0.5,-23"/>
<text text-anchor="start" x="8.5" y="-44" font-family="Helvetica,sans-Serif" font-size="10.00">BeamFactory::p_removeAll</text>
<text text-anchor="middle" x="68" y="-31" font-family="Helvetica,sans-Serif" font-size="10.00">Trucks</text>
</g>
<!-- Node2 -->
<g id="node3" class="node"><title>Node2</title>
<a xlink:href="class_beam_factory.html#a089236a1b1ee4dc3b6efa157a784d69c" target="_top" xlink:title="BeamFactory::removeAllTrucks">
<polygon fill="white" stroke="black" points="172.5,-29.5 172.5,-50.5 327.5,-50.5 327.5,-29.5 172.5,-29.5"/>
<text text-anchor="middle" x="250" y="-37.5" font-family="Helvetica,sans-Serif" font-size="10.00">BeamFactory::removeAllTrucks</text>
</a>
</g>
<!-- Node1&#45;&gt;Node2 -->
<g id="edge2" class="edge"><title>Node1&#45;&gt;Node2</title>
<path fill="none" stroke="midnightblue" d="M145.788,-40C154.626,-40 163.634,-40 172.469,-40"/>
<polygon fill="midnightblue" stroke="midnightblue" points="145.511,-36.5001 135.511,-40 145.511,-43.5001 145.511,-36.5001"/>
</g>
<!-- Node3 -->
<g id="node5" class="node"><title>Node3</title>
<a xlink:href="class_ro_r_1_1_main_thread.html#a19637f726d0913e26e0d0548448d8c91" target="_top" xlink:title="RoR::MainThread::UnloadTerrain">
<polygon fill="white" stroke="black" points="364.5,-29.5 364.5,-50.5 525.5,-50.5 525.5,-29.5 364.5,-29.5"/>
<text text-anchor="middle" x="445" y="-37.5" font-family="Helvetica,sans-Serif" font-size="10.00">RoR::MainThread::UnloadTerrain</text>
</a>
</g>
<!-- Node2&#45;&gt;Node3 -->
<g id="edge4" class="edge"><title>Node2&#45;&gt;Node3</title>
<path fill="none" stroke="midnightblue" d="M337.641,-40C346.565,-40 355.6,-40 364.444,-40"/>
<polygon fill="midnightblue" stroke="midnightblue" points="337.63,-36.5001 327.629,-40 337.629,-43.5001 337.63,-36.5001"/>
</g>
<!-- Node4 -->
<g id="node7" class="node"><title>Node4</title>
<a xlink:href="class_ro_r_1_1_main_thread.html#a7e4d0bd23a40e509892883af75ea0dbf" target="_top" xlink:title="RoR::MainThread::Go">
<polygon fill="white" stroke="black" points="562.5,-29.5 562.5,-50.5 675.5,-50.5 675.5,-29.5 562.5,-29.5"/>
<text text-anchor="middle" x="619" y="-37.5" font-family="Helvetica,sans-Serif" font-size="10.00">RoR::MainThread::Go</text>
</a>
</g>
<!-- Node3&#45;&gt;Node4 -->
<g id="edge6" class="edge"><title>Node3&#45;&gt;Node4</title>
<path fill="none" stroke="midnightblue" d="M535.86,-40C544.917,-40 553.917,-40 562.468,-40"/>
<polygon fill="midnightblue" stroke="midnightblue" points="535.633,-36.5001 525.633,-40 535.633,-43.5001 535.633,-36.5001"/>
</g>
<!-- Node5 -->
<g id="node9" class="node"><title>Node5</title>
<a xlink:href="main_2main__sim_2main_8cpp.html#a0ddf1224851353fc92bfbff6f499fa97" target="_top" xlink:title="main">
<polygon fill="white" stroke="black" points="762,-52.5 762,-73.5 800,-73.5 800,-52.5 762,-52.5"/>
<text text-anchor="middle" x="781" y="-60.5" font-family="Helvetica,sans-Serif" font-size="10.00">main</text>
</a>
</g>
<!-- Node4&#45;&gt;Node5 -->
<g id="edge8" class="edge"><title>Node4&#45;&gt;Node5</title>
<path fill="none" stroke="midnightblue" d="M685.692,-49.4687C713.272,-53.3843 743.136,-57.6243 761.945,-60.2947"/>
<polygon fill="midnightblue" stroke="midnightblue" points="686.052,-45.9848 675.66,-48.0443 685.068,-52.9153 686.052,-45.9848"/>
</g>
<!-- Node7 -->
<g id="node13" class="node"><title>Node7</title>
<a xlink:href="class_ro_r_1_1_main_thread.html#a7a2db954fd2f35d63982d8603d2b9614" target="_top" xlink:title="RoR::MainThread::Request\lRestart">
<polygon fill="white" stroke="black" points="712.5,-0 712.5,-34 849.5,-34 849.5,-0 712.5,-0"/>
<text text-anchor="start" x="720.5" y="-21" font-family="Helvetica,sans-Serif" font-size="10.00">RoR::MainThread::Request</text>
<text text-anchor="middle" x="781" y="-8" font-family="Helvetica,sans-Serif" font-size="10.00">Restart</text>
</a>
</g>
<!-- Node4&#45;&gt;Node7 -->
<g id="edge12" class="edge"><title>Node4&#45;&gt;Node7</title>
<path fill="none" stroke="midnightblue" d="M685.824,-30.5126C694.595,-29.2674 703.594,-27.9898 712.393,-26.7405"/>
<polygon fill="midnightblue" stroke="midnightblue" points="685.068,-27.0847 675.66,-31.9557 686.052,-34.0152 685.068,-27.0847"/>
</g>
<!-- Node6 -->
<g id="node11" class="node"><title>Node6</title>
<a xlink:href="main_2main__sim_2main_8cpp.html#a2922bc5d5c2d77a3020cfbf9df12aab0" target="_top" xlink:title="WinMain">
<polygon fill="white" stroke="black" points="927.5,-52.5 927.5,-73.5 982.5,-73.5 982.5,-52.5 927.5,-52.5"/>
<text text-anchor="middle" x="955" y="-60.5" font-family="Helvetica,sans-Serif" font-size="10.00">WinMain</text>
</a>
</g>
<!-- Node5&#45;&gt;Node6 -->
<g id="edge10" class="edge"><title>Node5&#45;&gt;Node6</title>
<path fill="none" stroke="midnightblue" d="M810.559,-63C843.23,-63 895.439,-63 927.332,-63"/>
<polygon fill="midnightblue" stroke="midnightblue" points="810.286,-59.5001 800.286,-63 810.286,-66.5001 810.286,-59.5001"/>
</g>
<!-- Node8 -->
<g id="node15" class="node"><title>Node8</title>
<a xlink:href="class_ro_r_frame_listener.html#af2779b96aa0f91920bd100bc30261402" target="_top" xlink:title="RoRFrameListener::Restart">
<polygon fill="white" stroke="black" points="886.5,-6.5 886.5,-27.5 1023.5,-27.5 1023.5,-6.5 886.5,-6.5"/>
<text text-anchor="middle" x="955" y="-14.5" font-family="Helvetica,sans-Serif" font-size="10.00">RoRFrameListener::Restart</text>
</a>
</g>
<!-- Node7&#45;&gt;Node8 -->
<g id="edge14" class="edge"><title>Node7&#45;&gt;Node8</title>
<path fill="none" stroke="midnightblue" d="M860.043,-17C868.856,-17 877.778,-17 886.445,-17"/>
<polygon fill="midnightblue" stroke="midnightblue" points="859.769,-13.5001 849.769,-17 859.769,-20.5001 859.769,-13.5001"/>
</g>
</g>
</svg>
