<?xml version="1.0" encoding="UTF-8" standalone="no"?>
<!DOCTYPE svg PUBLIC "-//W3C//DTD SVG 1.1//EN"
 "http://www.w3.org/Graphics/SVG/1.1/DTD/svg11.dtd">
<!-- Generated by graphviz version 2.26.3 (20100126.1600)
 -->
<!-- Title: RigDef::Node::Id::Str Pages: 1 -->
<!--zoomable 233 -->
<svg id="main" version="1.1" xmlns="http://www.w3.org/2000/svg" xmlns:xlink="http://www.w3.org/1999/xlink" xml:space="preserve" onload="init(evt)">
<style type="text/css"><![CDATA[
.edge:hover path { stroke: red; }
.edge:hover polygon { stroke: red; fill: red; }
]]></style>
<script type="text/javascript"><![CDATA[
var edges = document.getElementsByTagName('g');
if (edges && edges.length) {
  for (var i=0;i<edges.length;i++) {
    if (edges[i].id.substr(0,4)=='edge') {
      edges[i].setAttribute('class','edge');
    }
  }
}
]]></script>
        <defs>
                <circle id="rim" cx="0" cy="0" r="7"/>
                <circle id="rim2" cx="0" cy="0" r="3.5"/>
                <g id="zoomPlus">
                        <use xlink:href="#rim" fill="#404040">
                                <set attributeName="fill" to="#808080" begin="zoomplus.mouseover" end="zoomplus.mouseout"/>
                        </use>
                        <path d="M-4,0h8M0,-4v8" fill="none" stroke="white" stroke-width="1.5" pointer-events="none"/>
                </g>
                <g id="zoomMin">
                        <use xlink:href="#rim" fill="#404040">
                                <set attributeName="fill" to="#808080" begin="zoomminus.mouseover" end="zoomminus.mouseout"/>
                        </use>
                        <path d="M-4,0h8" fill="none" stroke="white" stroke-width="1.5" pointer-events="none"/>
                </g>
                <g id="dirArrow">
                        <path fill="none" stroke="white" stroke-width="1.5" d="M0,-3.0v7 M-2.5,-0.5L0,-3.0L2.5,-0.5"/>
                </g>
               <g id="resetDef">
                       <use xlink:href="#rim2" fill="#404040">
                               <set attributeName="fill" to="#808080" begin="reset.mouseover" end="reset.mouseout"/>
                       </use>
               </g>
        </defs>

<script type="text/javascript">
var viewWidth = 1336;
var viewHeight = 233;
var sectionId = 'dynsection-6';
</script>
<script xlink:href="svgpan.js"/>
<svg id="graph" class="graph">
<g id="viewport">
<title>RigDef::Node::Id::Str</title>
<polygon fill="white" stroke="white" points="-4,5 -4,-229 1333,-229 1333,5 -4,5"/>
<!-- Node1 -->
<g id="node1" class="node"><title>Node1</title>
<polygon fill="#bfbfbf" stroke="black" points="0,-129.5 0,-150.5 110,-150.5 110,-129.5 0,-129.5"/>
<text text-anchor="middle" x="55" y="-137.5" font-family="Helvetica,sans-Serif" font-size="10.00">RigDef::Node::Id::Str</text>
</g>
<!-- Node2 -->
<g id="node3" class="node"><title>Node2</title>
<a xlink:href="class_ro_r_1_1_rig_editor_1_1_rig.html#a313a85e2e173bd3d0ea38e5135f68e1b" target="_top" xlink:title="RoR::RigEditor::Rig\l::Build">
<polygon fill="white" stroke="black" points="146,-123 146,-157 250,-157 250,-123 146,-123"/>
<text text-anchor="start" x="154" y="-144" font-family="Helvetica,sans-Serif" font-size="10.00">RoR::RigEditor::Rig</text>
<text text-anchor="middle" x="198" y="-131" font-family="Helvetica,sans-Serif" font-size="10.00">::Build</text>
</a>
</g>
<!-- Node1&#45;&gt;Node2 -->
<g id="edge2" class="edge"><title>Node1&#45;&gt;Node2</title>
<path fill="none" stroke="midnightblue" d="M120.494,-140C128.934,-140 137.485,-140 145.675,-140"/>
<polygon fill="midnightblue" stroke="midnightblue" points="120.288,-136.5 110.288,-140 120.287,-143.5 120.288,-136.5"/>
</g>
<!-- Node8 -->
<g id="node15" class="node"><title>Node8</title>
<a xlink:href="class_ro_r_1_1_rig_editor_1_1_rig.html#a9b03472fe7e8b7d0aebba72c14a5af5e" target="_top" xlink:title="RoR::RigEditor::Rig\l::CreateNewNode">
<polygon fill="white" stroke="black" points="146,-56 146,-90 250,-90 250,-56 146,-56"/>
<text text-anchor="start" x="154" y="-77" font-family="Helvetica,sans-Serif" font-size="10.00">RoR::RigEditor::Rig</text>
<text text-anchor="middle" x="198" y="-64" font-family="Helvetica,sans-Serif" font-size="10.00">::CreateNewNode</text>
</a>
</g>
<!-- Node1&#45;&gt;Node8 -->
<g id="edge14" class="edge"><title>Node1&#45;&gt;Node8</title>
<path fill="none" stroke="midnightblue" d="M86.9419,-125.034C109.042,-114.68 138.5,-100.878 161.523,-90.0905"/>
<polygon fill="midnightblue" stroke="midnightblue" points="85.2292,-121.972 77.6588,-129.384 88.1991,-128.31 85.2292,-121.972"/>
</g>
<!-- Node17 -->
<g id="node34" class="node"><title>Node17</title>
<a xlink:href="class_rig_def_1_1_serializer.html#a8c9186f75ca10d02b4557395a8076f02" target="_top" xlink:title="RigDef::Serializer\l::ProcessNodes">
<polygon fill="white" stroke="black" points="151,-183 151,-217 245,-217 245,-183 151,-183"/>
<text text-anchor="start" x="159" y="-204" font-family="Helvetica,sans-Serif" font-size="10.00">RigDef::Serializer</text>
<text text-anchor="middle" x="198" y="-191" font-family="Helvetica,sans-Serif" font-size="10.00">::ProcessNodes</text>
</a>
</g>
<!-- Node1&#45;&gt;Node17 -->
<g id="edge34" class="edge"><title>Node1&#45;&gt;Node17</title>
<path fill="none" stroke="midnightblue" d="M89.4836,-154.469C109.913,-163.041 135.911,-173.948 157.337,-182.939"/>
<polygon fill="midnightblue" stroke="midnightblue" points="90.8117,-151.23 80.2364,-150.589 88.1034,-157.685 90.8117,-151.23"/>
</g>
<!-- Node3 -->
<g id="node5" class="node"><title>Node3</title>
<a xlink:href="class_ro_r_1_1_rig_editor_1_1_main.html#a0ae39993d636eacc5dfe567c5f5ac4b9" target="_top" xlink:title="RoR::RigEditor::Main\l::LoadRigDefFile">
<polygon fill="white" stroke="black" points="484,-101 484,-135 594,-135 594,-101 484,-101"/>
<text text-anchor="start" x="492" y="-122" font-family="Helvetica,sans-Serif" font-size="10.00">RoR::RigEditor::Main</text>
<text text-anchor="middle" x="539" y="-109" font-family="Helvetica,sans-Serif" font-size="10.00">::LoadRigDefFile</text>
</a>
</g>
<!-- Node2&#45;&gt;Node3 -->
<g id="edge4" class="edge"><title>Node2&#45;&gt;Node3</title>
<path fill="none" stroke="midnightblue" d="M260.148,-132.422C268.822,-131.515 277.628,-130.674 286,-130 353.939,-124.535 432.356,-121.288 483.657,-119.578"/>
<polygon fill="midnightblue" stroke="midnightblue" points="259.628,-128.958 250.061,-133.511 260.379,-135.917 259.628,-128.958"/>
</g>
<!-- Node7 -->
<g id="node13" class="node"><title>Node7</title>
<a xlink:href="class_ro_r_1_1_rig_editor_1_1_main.html#ad136bb804b1accbfed00705895f86362" target="_top" xlink:title="RoR::RigEditor::Main\l::CommandCreateNewEmptyRig">
<polygon fill="white" stroke="black" points="286.5,-139 286.5,-173 447.5,-173 447.5,-139 286.5,-139"/>
<text text-anchor="start" x="294.5" y="-160" font-family="Helvetica,sans-Serif" font-size="10.00">RoR::RigEditor::Main</text>
<text text-anchor="middle" x="367" y="-147" font-family="Helvetica,sans-Serif" font-size="10.00">::CommandCreateNewEmptyRig</text>
</a>
</g>
<!-- Node2&#45;&gt;Node7 -->
<g id="edge12" class="edge"><title>Node2&#45;&gt;Node7</title>
<path fill="none" stroke="midnightblue" d="M260.306,-145.899C268.838,-146.707 277.696,-147.545 286.495,-148.378"/>
<polygon fill="midnightblue" stroke="midnightblue" points="260.37,-142.389 250.085,-144.931 259.71,-149.358 260.37,-142.389"/>
</g>
<!-- Node4 -->
<g id="node7" class="node"><title>Node4</title>
<a xlink:href="class_ro_r_1_1_rig_editor_1_1_main.html#a35a10d6c23920802442d32fab1a8d470" target="_top" xlink:title="RoR::RigEditor::Main\l::NotifyFileSelectorEnded">
<polygon fill="white" stroke="black" points="630,-105 630,-139 758,-139 758,-105 630,-105"/>
<text text-anchor="start" x="638" y="-126" font-family="Helvetica,sans-Serif" font-size="10.00">RoR::RigEditor::Main</text>
<text text-anchor="middle" x="694" y="-113" font-family="Helvetica,sans-Serif" font-size="10.00">::NotifyFileSelectorEnded</text>
</a>
</g>
<!-- Node3&#45;&gt;Node4 -->
<g id="edge6" class="edge"><title>Node3&#45;&gt;Node4</title>
<path fill="none" stroke="midnightblue" d="M604.274,-119.685C612.733,-119.903 621.391,-120.126 629.831,-120.344"/>
<polygon fill="midnightblue" stroke="midnightblue" points="604.171,-116.181 594.084,-119.422 603.99,-123.178 604.171,-116.181"/>
</g>
<!-- Node5 -->
<g id="node9" class="node"><title>Node5</title>
<a xlink:href="class_ro_r_1_1_rig_editor_1_1_main.html#a4f73e9dc5632524ca803864460b82bb5" target="_top" xlink:title="RoR::RigEditor::Main\l::CommandShowDialogOpenRigFile">
<polygon fill="white" stroke="black" points="800,-93 800,-127 974,-127 974,-93 800,-93"/>
<text text-anchor="start" x="808" y="-114" font-family="Helvetica,sans-Serif" font-size="10.00">RoR::RigEditor::Main</text>
<text text-anchor="middle" x="887" y="-101" font-family="Helvetica,sans-Serif" font-size="10.00">::CommandShowDialogOpenRigFile</text>
</a>
</g>
<!-- Node4&#45;&gt;Node5 -->
<g id="edge8" class="edge"><title>Node4&#45;&gt;Node5</title>
<path fill="none" stroke="midnightblue" d="M768.456,-117.371C778.783,-116.729 789.466,-116.064 799.997,-115.41"/>
<polygon fill="midnightblue" stroke="midnightblue" points="768.03,-113.89 758.266,-118.004 768.464,-120.877 768.03,-113.89"/>
</g>
<!-- Node6 -->
<g id="node11" class="node"><title>Node6</title>
<a xlink:href="class_ro_r_1_1_rig_editor_1_1_main.html#acb4af1361d9233f5ee2fa658536a7658" target="_top" xlink:title="RoR::RigEditor::Main\l::CommandShowDialogSaveRigFileAs">
<polygon fill="white" stroke="black" points="794.5,-145 794.5,-179 979.5,-179 979.5,-145 794.5,-145"/>
<text text-anchor="start" x="802.5" y="-166" font-family="Helvetica,sans-Serif" font-size="10.00">RoR::RigEditor::Main</text>
<text text-anchor="middle" x="887" y="-153" font-family="Helvetica,sans-Serif" font-size="10.00">::CommandShowDialogSaveRigFileAs</text>
</a>
</g>
<!-- Node4&#45;&gt;Node6 -->
<g id="edge10" class="edge"><title>Node4&#45;&gt;Node6</title>
<path fill="none" stroke="midnightblue" d="M768.202,-137.379C780.187,-139.863 792.658,-142.447 804.818,-144.968"/>
<polygon fill="midnightblue" stroke="midnightblue" points="768.768,-133.922 758.266,-135.319 767.348,-140.776 768.768,-133.922"/>
</g>
<!-- Node9 -->
<g id="node17" class="node"><title>Node9</title>
<a xlink:href="class_ro_r_1_1_rig_editor_1_1_rig.html#a3c57ce426944230414c3b6bc6afad637" target="_top" xlink:title="RoR::RigEditor::Rig\l::ExtrudeSelectedNodes">
<polygon fill="white" stroke="black" points="305.5,-11 305.5,-45 428.5,-45 428.5,-11 305.5,-11"/>
<text text-anchor="start" x="313.5" y="-32" font-family="Helvetica,sans-Serif" font-size="10.00">RoR::RigEditor::Rig</text>
<text text-anchor="middle" x="367" y="-19" font-family="Helvetica,sans-Serif" font-size="10.00">::ExtrudeSelectedNodes</text>
</a>
</g>
<!-- Node8&#45;&gt;Node9 -->
<g id="edge16" class="edge"><title>Node8&#45;&gt;Node9</title>
<path fill="none" stroke="midnightblue" d="M260.109,-56.462C274.851,-52.5367 290.572,-48.3505 305.296,-44.4301"/>
<polygon fill="midnightblue" stroke="midnightblue" points="258.847,-53.176 250.085,-59.1313 260.648,-59.9403 258.847,-53.176"/>
</g>
<!-- Node10 -->
<g id="node19" class="node"><title>Node10</title>
<a xlink:href="class_ro_r_1_1_rig_editor_1_1_main.html#abe2179248ae5a8d9fc4a8ed136a18c46" target="_top" xlink:title="RoR::RigEditor::Main\l::UpdateMainLoop">
<polygon fill="white" stroke="black" points="484,-23 484,-57 594,-57 594,-23 484,-23"/>
<text text-anchor="start" x="492" y="-44" font-family="Helvetica,sans-Serif" font-size="10.00">RoR::RigEditor::Main</text>
<text text-anchor="middle" x="539" y="-31" font-family="Helvetica,sans-Serif" font-size="10.00">::UpdateMainLoop</text>
</a>
</g>
<!-- Node8&#45;&gt;Node10 -->
<g id="edge32" class="edge"><title>Node8&#45;&gt;Node10</title>
<path fill="none" stroke="midnightblue" d="M260.439,-69.589C311.089,-66.5012 384.28,-61.3119 448,-54 459.593,-52.6697 471.973,-50.9597 483.75,-49.1947"/>
<polygon fill="midnightblue" stroke="midnightblue" points="260.075,-66.1045 250.302,-70.1972 260.494,-73.0919 260.075,-66.1045"/>
</g>
<!-- Node9&#45;&gt;Node10 -->
<g id="edge18" class="edge"><title>Node9&#45;&gt;Node10</title>
<path fill="none" stroke="midnightblue" d="M438.891,-33.0156C453.91,-34.0635 469.52,-35.1525 483.819,-36.1502"/>
<polygon fill="midnightblue" stroke="midnightblue" points="438.83,-29.5029 428.61,-32.2984 438.342,-36.486 438.83,-29.5029"/>
</g>
<!-- Node11 -->
<g id="node21" class="node"><title>Node11</title>
<a xlink:href="class_ro_r_1_1_rig_editor_1_1_main.html#a8cd11f0150b5e247b6d9f00212d42b0d" target="_top" xlink:title="RoR::RigEditor::Main\l::EnterMainLoop">
<polygon fill="white" stroke="black" points="639,-23 639,-57 749,-57 749,-23 639,-23"/>
<text text-anchor="start" x="647" y="-44" font-family="Helvetica,sans-Serif" font-size="10.00">RoR::RigEditor::Main</text>
<text text-anchor="middle" x="694" y="-31" font-family="Helvetica,sans-Serif" font-size="10.00">::EnterMainLoop</text>
</a>
</g>
<!-- Node10&#45;&gt;Node11 -->
<g id="edge20" class="edge"><title>Node10&#45;&gt;Node11</title>
<path fill="none" stroke="midnightblue" d="M604.111,-40C615.662,-40 627.59,-40 638.833,-40"/>
<polygon fill="midnightblue" stroke="midnightblue" points="604.084,-36.5001 594.084,-40 604.084,-43.5001 604.084,-36.5001"/>
</g>
<!-- Node12 -->
<g id="node23" class="node"><title>Node12</title>
<a xlink:href="class_ro_r_1_1_main_thread.html#a7e4d0bd23a40e509892883af75ea0dbf" target="_top" xlink:title="RoR::MainThread::Go">
<polygon fill="white" stroke="black" points="830.5,-29.5 830.5,-50.5 943.5,-50.5 943.5,-29.5 830.5,-29.5"/>
<text text-anchor="middle" x="887" y="-37.5" font-family="Helvetica,sans-Serif" font-size="10.00">RoR::MainThread::Go</text>
</a>
</g>
<!-- Node11&#45;&gt;Node12 -->
<g id="edge22" class="edge"><title>Node11&#45;&gt;Node12</title>
<path fill="none" stroke="midnightblue" d="M759.088,-40C782.145,-40 807.888,-40 830.201,-40"/>
<polygon fill="midnightblue" stroke="midnightblue" points="759.048,-36.5001 749.048,-40 759.048,-43.5001 759.048,-36.5001"/>
</g>
<!-- Node13 -->
<g id="node25" class="node"><title>Node13</title>
<a xlink:href="main_2main__sim_2main_8cpp.html#a0ddf1224851353fc92bfbff6f499fa97" target="_top" xlink:title="main">
<polygon fill="white" stroke="black" points="1066,-52.5 1066,-73.5 1104,-73.5 1104,-52.5 1066,-52.5"/>
<text text-anchor="middle" x="1085" y="-60.5" font-family="Helvetica,sans-Serif" font-size="10.00">main</text>
</a>
</g>
<!-- Node12&#45;&gt;Node13 -->
<g id="edge24" class="edge"><title>Node12&#45;&gt;Node13</title>
<path fill="none" stroke="midnightblue" d="M953.833,-47.7635C993.224,-52.3392 1040.24,-57.8004 1065.92,-60.7836"/>
<polygon fill="midnightblue" stroke="midnightblue" points="954.076,-44.2682 943.739,-46.5909 953.268,-51.2214 954.076,-44.2682"/>
</g>
<!-- Node15 -->
<g id="node29" class="node"><title>Node15</title>
<a xlink:href="class_ro_r_1_1_main_thread.html#a7a2db954fd2f35d63982d8603d2b9614" target="_top" xlink:title="RoR::MainThread::Request\lRestart">
<polygon fill="white" stroke="black" points="1016.5,-0 1016.5,-34 1153.5,-34 1153.5,-0 1016.5,-0"/>
<text text-anchor="start" x="1024.5" y="-21" font-family="Helvetica,sans-Serif" font-size="10.00">RoR::MainThread::Request</text>
<text text-anchor="middle" x="1085" y="-8" font-family="Helvetica,sans-Serif" font-size="10.00">Restart</text>
</a>
</g>
<!-- Node12&#45;&gt;Node15 -->
<g id="edge28" class="edge"><title>Node12&#45;&gt;Node15</title>
<path fill="none" stroke="midnightblue" d="M953.758,-32.2453C973.9,-29.9055 996.041,-27.3336 1016.31,-24.9795"/>
<polygon fill="midnightblue" stroke="midnightblue" points="953.268,-28.7786 943.739,-33.4091 954.076,-35.7318 953.268,-28.7786"/>
</g>
<!-- Node14 -->
<g id="node27" class="node"><title>Node14</title>
<a xlink:href="main_2main__sim_2main_8cpp.html#a2922bc5d5c2d77a3020cfbf9df12aab0" target="_top" xlink:title="WinMain">
<polygon fill="white" stroke="black" points="1231.5,-52.5 1231.5,-73.5 1286.5,-73.5 1286.5,-52.5 1231.5,-52.5"/>
<text text-anchor="middle" x="1259" y="-60.5" font-family="Helvetica,sans-Serif" font-size="10.00">WinMain</text>
</a>
</g>
<!-- Node13&#45;&gt;Node14 -->
<g id="edge26" class="edge"><title>Node13&#45;&gt;Node14</title>
<path fill="none" stroke="midnightblue" d="M1114.56,-63C1147.23,-63 1199.44,-63 1231.33,-63"/>
<polygon fill="midnightblue" stroke="midnightblue" points="1114.29,-59.5001 1104.29,-63 1114.29,-66.5001 1114.29,-59.5001"/>
</g>
<!-- Node16 -->
<g id="node31" class="node"><title>Node16</title>
<a xlink:href="class_ro_r_frame_listener.html#af2779b96aa0f91920bd100bc30261402" target="_top" xlink:title="RoRFrameListener::Restart">
<polygon fill="white" stroke="black" points="1190.5,-6.5 1190.5,-27.5 1327.5,-27.5 1327.5,-6.5 1190.5,-6.5"/>
<text text-anchor="middle" x="1259" y="-14.5" font-family="Helvetica,sans-Serif" font-size="10.00">RoRFrameListener::Restart</text>
</a>
</g>
<!-- Node15&#45;&gt;Node16 -->
<g id="edge30" class="edge"><title>Node15&#45;&gt;Node16</title>
<path fill="none" stroke="midnightblue" d="M1164.04,-17C1172.86,-17 1181.78,-17 1190.45,-17"/>
<polygon fill="midnightblue" stroke="midnightblue" points="1163.77,-13.5001 1153.77,-17 1163.77,-20.5001 1163.77,-13.5001"/>
</g>
<!-- Node18 -->
<g id="node36" class="node"><title>Node18</title>
<a xlink:href="class_rig_def_1_1_serializer.html#a0d25ba7124bac77109b3251d0d5014ec" target="_top" xlink:title="RigDef::Serializer\l::Serialize">
<polygon fill="white" stroke="black" points="320,-191 320,-225 414,-225 414,-191 320,-191"/>
<text text-anchor="start" x="328" y="-212" font-family="Helvetica,sans-Serif" font-size="10.00">RigDef::Serializer</text>
<text text-anchor="middle" x="367" y="-199" font-family="Helvetica,sans-Serif" font-size="10.00">::Serialize</text>
</a>
</g>
<!-- Node17&#45;&gt;Node18 -->
<g id="edge36" class="edge"><title>Node17&#45;&gt;Node18</title>
<path fill="none" stroke="midnightblue" d="M255.18,-202.707C276.232,-203.703 299.819,-204.82 319.884,-205.77"/>
<polygon fill="midnightblue" stroke="midnightblue" points="255.23,-199.205 245.076,-202.228 254.899,-206.197 255.23,-199.205"/>
</g>
<!-- Node19 -->
<g id="node38" class="node"><title>Node19</title>
<a xlink:href="class_ro_r_1_1_rig_editor_1_1_main.html#a9e367d1e6cc15d9481e2cf07e178b074" target="_top" xlink:title="RoR::RigEditor::Main\l::SaveRigDefFile">
<polygon fill="white" stroke="black" points="484,-175 484,-209 594,-209 594,-175 484,-175"/>
<text text-anchor="start" x="492" y="-196" font-family="Helvetica,sans-Serif" font-size="10.00">RoR::RigEditor::Main</text>
<text text-anchor="middle" x="539" y="-183" font-family="Helvetica,sans-Serif" font-size="10.00">::SaveRigDefFile</text>
</a>
</g>
<!-- Node18&#45;&gt;Node19 -->
<g id="edge38" class="edge"><title>Node18&#45;&gt;Node19</title>
<path fill="none" stroke="midnightblue" d="M424.527,-202.649C443.635,-200.871 464.857,-198.897 483.787,-197.136"/>
<polygon fill="midnightblue" stroke="midnightblue" points="424.088,-199.174 414.455,-203.586 424.736,-206.144 424.088,-199.174"/>
</g>
<!-- Node19&#45;&gt;Node4 -->
<g id="edge40" class="edge"><title>Node19&#45;&gt;Node4</title>
<path fill="none" stroke="midnightblue" d="M586.258,-170.658C608.69,-160.527 635.131,-148.586 656.206,-139.068"/>
<polygon fill="midnightblue" stroke="midnightblue" points="584.59,-167.57 576.917,-174.876 587.472,-173.95 584.59,-167.57"/>
</g>
</g>
</svg>
        <g id="navigator" transform="translate(0 0)" fill="#404254">
                <rect fill="#f2f5e9" fill-opacity="0.5" stroke="#606060" stroke-width=".5" x="0" y="0" width="60" height="60"/>
                <use id="zoomplus" xlink:href="#zoomPlus" x="17" y="9" onmousedown="handleZoom(evt,'in')"/>
                <use id="zoomminus" xlink:href="#zoomMin" x="42" y="9" onmousedown="handleZoom(evt,'out')"/>
                <use id="reset" xlink:href="#resetDef" x="30" y="36" onmousedown="handleReset()"/>
                <g id="arrowUp" xlink:href="#dirArrow" transform="translate(30 24)" onmousedown="handlePan(0,-1)">
                  <use xlink:href="#rim" fill="#404040">
                        <set attributeName="fill" to="#808080" begin="arrowUp.mouseover" end="arrowUp.mouseout"/>
                  </use>
                  <path fill="none" stroke="white" stroke-width="1.5" d="M0,-3.0v7 M-2.5,-0.5L0,-3.0L2.5,-0.5"/>
                </g>
                <g id="arrowRight" xlink:href="#dirArrow" transform="rotate(90) translate(36 -43)" onmousedown="handlePan(1,0)">
                  <use xlink:href="#rim" fill="#404040">
                        <set attributeName="fill" to="#808080" begin="arrowRight.mouseover" end="arrowRight.mouseout"/>
                  </use>
                  <path fill="none" stroke="white" stroke-width="1.5" d="M0,-3.0v7 M-2.5,-0.5L0,-3.0L2.5,-0.5"/>
                </g>
                <g id="arrowDown" xlink:href="#dirArrow" transform="rotate(180) translate(-30 -48)" onmousedown="handlePan(0,1)">
                  <use xlink:href="#rim" fill="#404040">
                        <set attributeName="fill" to="#808080" begin="arrowDown.mouseover" end="arrowDown.mouseout"/>
                  </use>
                  <path fill="none" stroke="white" stroke-width="1.5" d="M0,-3.0v7 M-2.5,-0.5L0,-3.0L2.5,-0.5"/>
                </g>
                <g id="arrowLeft" xlink:href="#dirArrow" transform="rotate(270) translate(-36 17)" onmousedown="handlePan(-1,0)">
                  <use xlink:href="#rim" fill="#404040">
                        <set attributeName="fill" to="#808080" begin="arrowLeft.mouseover" end="arrowLeft.mouseout"/>
                  </use>
                  <path fill="none" stroke="white" stroke-width="1.5" d="M0,-3.0v7 M-2.5,-0.5L0,-3.0L2.5,-0.5"/>
                </g>
        </g>
        <svg viewBox="0 0 15 15" width="100%" height="30px" preserveAspectRatio="xMaxYMin meet">
         <g id="arrow_out" transform="scale(0.3 0.3)">
          <a xlink:href="class_rig_def_1_1_node_1_1_id_a83e169095cd7d288c1b94fb952a83f9b_icgraph_org.svg" target="_base">
           <rect id="button" ry="5" rx="5" y="6" x="6" height="38" width="38"
                fill="#f2f5e9" fill-opacity="0.5" stroke="#606060" stroke-width="1.0"/>
           <path id="arrow"
             d="M 11.500037,31.436501 C 11.940474,20.09759 22.043105,11.32322 32.158766,21.979434 L 37.068811,17.246167 C 37.068811,17.246167 37.088388,32 37.088388,32 L 22.160133,31.978069 C 22.160133,31.978069 26.997745,27.140456 26.997745,27.140456 C 18.528582,18.264221 13.291696,25.230495 11.500037,31.436501 z"
             style="fill:#404040;"/>
          </a>
         </g>
        </svg>
</svg>
