<?xml version="1.0" encoding="UTF-8" standalone="no"?>
<!DOCTYPE svg PUBLIC "-//W3C//DTD SVG 1.1//EN"
 "http://www.w3.org/Graphics/SVG/1.1/DTD/svg11.dtd">
<!-- Generated by graphviz version 2.26.3 (20100126.1600)
 -->
<!-- Title: G Pages: 1 -->
<!--zoomable 230 -->
<svg id="main" version="1.1" xmlns="http://www.w3.org/2000/svg" xmlns:xlink="http://www.w3.org/1999/xlink" xml:space="preserve" onload="init(evt)">
        <defs>
                <circle id="rim" cx="0" cy="0" r="7"/>
                <circle id="rim2" cx="0" cy="0" r="3.5"/>
                <g id="zoomPlus">
                        <use xlink:href="#rim" fill="#404040">
                                <set attributeName="fill" to="#808080" begin="zoomplus.mouseover" end="zoomplus.mouseout"/>
                        </use>
                        <path d="M-4,0h8M0,-4v8" fill="none" stroke="white" stroke-width="1.5" pointer-events="none"/>
                </g>
                <g id="zoomMin">
                        <use xlink:href="#rim" fill="#404040">
                                <set attributeName="fill" to="#808080" begin="zoomminus.mouseover" end="zoomminus.mouseout"/>
                        </use>
                        <path d="M-4,0h8" fill="none" stroke="white" stroke-width="1.5" pointer-events="none"/>
                </g>
                <g id="dirArrow">
                        <path fill="none" stroke="white" stroke-width="1.5" d="M0,-3.0v7 M-2.5,-0.5L0,-3.0L2.5,-0.5"/>
                </g>
               <g id="resetDef">
                       <use xlink:href="#rim2" fill="#404040">
                               <set attributeName="fill" to="#808080" begin="reset.mouseover" end="reset.mouseout"/>
                       </use>
               </g>
        </defs>

<script type="text/javascript">
var viewWidth = 1294;
var viewHeight = 230;
var sectionId = 'dynsection-9';
</script>
<script xlink:href="svgpan.js"/>
<svg id="graph" class="graph">
<g id="viewport">
<title>G</title>
<polygon fill="white" stroke="white" points="-4,5 -4,-226 1291,-226 1291,5 -4,5"/>
<!-- Node1 -->
<g id="node1" class="node"><title>Node1</title>
<polygon fill="#bfbfbf" stroke="black" points="0,-100.5 0,-121.5 152,-121.5 152,-100.5 0,-100.5"/>
<text text-anchor="middle" x="76" y="-108.5" font-family="Helvetica,sans-Serif" font-size="10.00">Ogre::ImprovedConfigFile::load</text>
</g>
<!-- Node2 -->
<g id="node3" class="node"><title>Node2</title>
<a xlink:href="_configurator_8cpp.html#a7f043c024c49dd695741e4dc6aacc575" target="_top" xlink:title="initLanguage">
<polygon fill="white" stroke="black" points="457.5,-200.5 457.5,-221.5 528.5,-221.5 528.5,-200.5 457.5,-200.5"/>
<text text-anchor="middle" x="493" y="-208.5" font-family="Helvetica,sans-Serif" font-size="10.00">initLanguage</text>
</a>
</g>
<!-- Node1&#45;&gt;Node2 -->
<g id="edge2" class="edge"><title>Node1&#45;&gt;Node2</title>
<path fill="none" stroke="midnightblue" d="M93.9551,-128.777C114.654,-147.997 150.65,-177.667 188,-191 280.706,-224.093 399.204,-219.728 457.439,-214.814"/>
<polygon fill="midnightblue" stroke="midnightblue" points="96.2118,-126.093 86.5535,-121.738 91.3879,-131.166 96.2118,-126.093"/>
</g>
<!-- Node4 -->
<g id="node7" class="node"><title>Node4</title>
<a xlink:href="class_my_dialog.html#a3a49421662fe7600e722c3ca32b48a4d" target="_top" xlink:title="MyDialog::LoadConfig">
<polygon fill="white" stroke="black" points="231.5,-160.5 231.5,-181.5 344.5,-181.5 344.5,-160.5 231.5,-160.5"/>
<text text-anchor="middle" x="288" y="-168.5" font-family="Helvetica,sans-Serif" font-size="10.00">MyDialog::LoadConfig</text>
</a>
</g>
<!-- Node1&#45;&gt;Node4 -->
<g id="edge6" class="edge"><title>Node1&#45;&gt;Node4</title>
<path fill="none" stroke="midnightblue" d="M111.849,-125.309C133.621,-133.62 162.117,-143.831 188,-151 201.906,-154.852 217.093,-158.278 231.336,-161.159"/>
<polygon fill="midnightblue" stroke="midnightblue" points="112.942,-121.98 102.353,-121.642 110.421,-128.51 112.942,-121.98"/>
</g>
<!-- Node6 -->
<g id="node12" class="node"><title>Node6</title>
<a xlink:href="class_cache_system.html#a51fe1554d751cdaeab716e7a4255bd8a" target="_top" xlink:title="Checks if update is needed.">
<polygon fill="white" stroke="black" points="216.5,-120.5 216.5,-141.5 359.5,-141.5 359.5,-120.5 216.5,-120.5"/>
<text text-anchor="middle" x="288" y="-128.5" font-family="Helvetica,sans-Serif" font-size="10.00">CacheSystem::IsCacheValid</text>
</a>
</g>
<!-- Node1&#45;&gt;Node6 -->
<g id="edge12" class="edge"><title>Node1&#45;&gt;Node6</title>
<path fill="none" stroke="midnightblue" d="M162.39,-119.15C180.31,-120.841 199.005,-122.604 216.328,-124.238"/>
<polygon fill="midnightblue" stroke="midnightblue" points="162.522,-115.647 152.237,-118.192 161.864,-122.616 162.522,-115.647"/>
</g>
<!-- Node13 -->
<g id="node27" class="node"><title>Node13</title>
<a xlink:href="class_local_storage.html#ad35d3da4e6ee6b215878cc6f5fa70669" target="_top" xlink:title="LocalStorage::loadDict">
<polygon fill="white" stroke="black" points="230,-80.5 230,-101.5 346,-101.5 346,-80.5 230,-80.5"/>
<text text-anchor="middle" x="288" y="-88.5" font-family="Helvetica,sans-Serif" font-size="10.00">LocalStorage::loadDict</text>
</a>
</g>
<!-- Node1&#45;&gt;Node13 -->
<g id="edge28" class="edge"><title>Node1&#45;&gt;Node13</title>
<path fill="none" stroke="midnightblue" d="M162.218,-102.866C184.917,-100.725 208.871,-98.465 229.715,-96.4986"/>
<polygon fill="midnightblue" stroke="midnightblue" points="161.864,-99.384 152.237,-103.808 162.522,-106.353 161.864,-99.384"/>
</g>
<!-- Node15 -->
<g id="node31" class="node"><title>Node15</title>
<a xlink:href="class_ogre_1_1_improved_config_file.html#a684370e58c7523188dd2c772d1857007" target="_top" xlink:title="Ogre::ImprovedConfigFile::load">
<polygon fill="white" stroke="black" points="212,-40.5 212,-61.5 364,-61.5 364,-40.5 212,-40.5"/>
<text text-anchor="middle" x="288" y="-48.5" font-family="Helvetica,sans-Serif" font-size="10.00">Ogre::ImprovedConfigFile::load</text>
</a>
</g>
<!-- Node1&#45;&gt;Node15 -->
<g id="edge32" class="edge"><title>Node1&#45;&gt;Node15</title>
<path fill="none" stroke="midnightblue" d="M111.849,-96.6907C133.621,-88.3802 162.117,-78.1692 188,-71 200.797,-67.4555 214.679,-64.2712 227.911,-61.5403"/>
<polygon fill="midnightblue" stroke="midnightblue" points="110.421,-93.4904 102.353,-100.358 112.942,-100.02 110.421,-93.4904"/>
</g>
<!-- Node16 -->
<g id="node33" class="node"><title>Node16</title>
<a xlink:href="class_ogre_1_1_improved_config_file.html#a57e74b2661b9a10057c66830dd9652ad" target="_top" xlink:title="Ogre::ImprovedConfigFile::loadFromString">
<polygon fill="white" stroke="black" points="188,-0.5 188,-21.5 388,-21.5 388,-0.5 188,-0.5"/>
<text text-anchor="middle" x="288" y="-8.5" font-family="Helvetica,sans-Serif" font-size="10.00">Ogre::ImprovedConfigFile::loadFromString</text>
</a>
</g>
<!-- Node1&#45;&gt;Node16 -->
<g id="edge34" class="edge"><title>Node1&#45;&gt;Node16</title>
<path fill="none" stroke="midnightblue" d="M94.9872,-93.5344C116.101,-75.0996 151.997,-46.5978 188,-31 196.854,-27.1642 206.47,-24.0551 216.123,-21.5372"/>
<polygon fill="midnightblue" stroke="midnightblue" points="92.5391,-91.0277 87.3948,-100.29 97.1923,-96.2573 92.5391,-91.0277"/>
</g>
<!-- Node3 -->
<g id="node5" class="node"><title>Node3</title>
<a xlink:href="class_my_app.html#a79fa75d1155f0e85e20f2869538296d6" target="_top" xlink:title="MyApp::OnInit">
<polygon fill="white" stroke="black" points="637,-179.5 637,-200.5 717,-200.5 717,-179.5 637,-179.5"/>
<text text-anchor="middle" x="677" y="-187.5" font-family="Helvetica,sans-Serif" font-size="10.00">MyApp::OnInit</text>
</a>
</g>
<!-- Node2&#45;&gt;Node3 -->
<g id="edge4" class="edge"><title>Node2&#45;&gt;Node3</title>
<path fill="none" stroke="midnightblue" d="M539.135,-205.735C569.152,-202.309 607.921,-197.884 636.699,-194.6"/>
<polygon fill="midnightblue" stroke="midnightblue" points="538.452,-202.29 528.914,-206.901 539.246,-209.245 538.452,-202.29"/>
</g>
<!-- Node5 -->
<g id="node9" class="node"><title>Node5</title>
<a xlink:href="class_my_dialog.html#a730ceb49055449013bde3aff7119870f" target="_top" xlink:title="MyDialog::MyDialog">
<polygon fill="white" stroke="black" points="440.5,-160.5 440.5,-181.5 545.5,-181.5 545.5,-160.5 440.5,-160.5"/>
<text text-anchor="middle" x="493" y="-168.5" font-family="Helvetica,sans-Serif" font-size="10.00">MyDialog::MyDialog</text>
</a>
</g>
<!-- Node4&#45;&gt;Node5 -->
<g id="edge8" class="edge"><title>Node4&#45;&gt;Node5</title>
<path fill="none" stroke="midnightblue" d="M354.617,-171C382.463,-171 414.351,-171 440.493,-171"/>
<polygon fill="midnightblue" stroke="midnightblue" points="354.56,-167.5 344.56,-171 354.56,-174.5 354.56,-167.5"/>
</g>
<!-- Node5&#45;&gt;Node3 -->
<g id="edge10" class="edge"><title>Node5&#45;&gt;Node3</title>
<path fill="none" stroke="midnightblue" d="M555.804,-177.485C582.626,-180.255 613.142,-183.406 636.843,-185.853"/>
<polygon fill="midnightblue" stroke="midnightblue" points="556.034,-173.99 545.727,-176.445 555.315,-180.953 556.034,-173.99"/>
</g>
<!-- Node7 -->
<g id="node14" class="node"><title>Node7</title>
<a xlink:href="class_cache_system.html#ae010322c2422bf8f8dbfce904257da31" target="_top" xlink:title="CacheSystem::Startup">
<polygon fill="white" stroke="black" points="435,-120.5 435,-141.5 551,-141.5 551,-120.5 435,-120.5"/>
<text text-anchor="middle" x="493" y="-128.5" font-family="Helvetica,sans-Serif" font-size="10.00">CacheSystem::Startup</text>
</a>
</g>
<!-- Node6&#45;&gt;Node7 -->
<g id="edge14" class="edge"><title>Node6&#45;&gt;Node7</title>
<path fill="none" stroke="midnightblue" d="M369.916,-131C391.659,-131 414.69,-131 434.876,-131"/>
<polygon fill="midnightblue" stroke="midnightblue" points="369.699,-127.5 359.699,-131 369.699,-134.5 369.699,-127.5"/>
</g>
<!-- Node8 -->
<g id="node16" class="node"><title>Node8</title>
<a xlink:href="class_ro_r_1_1_main_thread.html#a7e4d0bd23a40e509892883af75ea0dbf" target="_top" xlink:title="RoR::MainThread::Go">
<polygon fill="white" stroke="black" points="792.5,-120.5 792.5,-141.5 905.5,-141.5 905.5,-120.5 792.5,-120.5"/>
<text text-anchor="middle" x="849" y="-128.5" font-family="Helvetica,sans-Serif" font-size="10.00">RoR::MainThread::Go</text>
</a>
</g>
<!-- Node7&#45;&gt;Node8 -->
<g id="edge16" class="edge"><title>Node7&#45;&gt;Node8</title>
<path fill="none" stroke="midnightblue" d="M561.21,-131.744C573.458,-131.851 586.108,-131.943 598,-132 668.221,-132.334 685.779,-132.378 756,-132 767.787,-131.937 780.414,-131.828 792.443,-131.705"/>
<polygon fill="midnightblue" stroke="midnightblue" points="561.072,-128.243 551.041,-131.652 561.008,-135.242 561.072,-128.243"/>
</g>
<!-- Node12 -->
<g id="node24" class="node"><title>Node12</title>
<a xlink:href="class_ro_r_1_1_main_thread.html#a50730ae3f8aae89aa0120b4b78b6db29" target="_top" xlink:title="RoR::MainThread::RegenCache">
<polygon fill="white" stroke="black" points="598.5,-101.5 598.5,-122.5 755.5,-122.5 755.5,-101.5 598.5,-101.5"/>
<text text-anchor="middle" x="677" y="-109.5" font-family="Helvetica,sans-Serif" font-size="10.00">RoR::MainThread::RegenCache</text>
</a>
</g>
<!-- Node7&#45;&gt;Node12 -->
<g id="edge24" class="edge"><title>Node7&#45;&gt;Node12</title>
<path fill="none" stroke="midnightblue" d="M561.208,-123.957C573.289,-122.709 585.958,-121.401 598.3,-120.127"/>
<polygon fill="midnightblue" stroke="midnightblue" points="560.806,-120.48 551.219,-124.988 561.525,-127.443 560.806,-120.48"/>
</g>
<!-- Node9 -->
<g id="node18" class="node"><title>Node9</title>
<a xlink:href="main_2main__sim_2main_8cpp.html#a0ddf1224851353fc92bfbff6f499fa97" target="_top" xlink:title="main">
<polygon fill="white" stroke="black" points="1008,-140.5 1008,-161.5 1046,-161.5 1046,-140.5 1008,-140.5"/>
<text text-anchor="middle" x="1027" y="-148.5" font-family="Helvetica,sans-Serif" font-size="10.00">main</text>
</a>
</g>
<!-- Node8&#45;&gt;Node9 -->
<g id="edge18" class="edge"><title>Node8&#45;&gt;Node9</title>
<path fill="none" stroke="midnightblue" d="M915.834,-138.509C948.649,-142.197 985.758,-146.366 1007.72,-148.834"/>
<polygon fill="midnightblue" stroke="midnightblue" points="916.138,-135.022 905.81,-137.383 915.356,-141.978 916.138,-135.022"/>
</g>
<!-- Node10 -->
<g id="node20" class="node"><title>Node10</title>
<a xlink:href="class_ro_r_1_1_main_thread.html#a7a2db954fd2f35d63982d8603d2b9614" target="_top" xlink:title="RoR::MainThread::RequestRestart">
<polygon fill="white" stroke="black" points="942.5,-100.5 942.5,-121.5 1111.5,-121.5 1111.5,-100.5 942.5,-100.5"/>
<text text-anchor="middle" x="1027" y="-108.5" font-family="Helvetica,sans-Serif" font-size="10.00">RoR::MainThread::RequestRestart</text>
</a>
</g>
<!-- Node8&#45;&gt;Node10 -->
<g id="edge20" class="edge"><title>Node8&#45;&gt;Node10</title>
<path fill="none" stroke="midnightblue" d="M915.775,-123.497C924.399,-122.528 933.319,-121.526 942.185,-120.53"/>
<polygon fill="midnightblue" stroke="midnightblue" points="915.356,-120.022 905.81,-124.617 916.138,-126.978 915.356,-120.022"/>
</g>
<!-- Node11 -->
<g id="node22" class="node"><title>Node11</title>
<a xlink:href="class_ro_r_frame_listener.html#af2779b96aa0f91920bd100bc30261402" target="_top" xlink:title="RoRFrameListener::Restart">
<polygon fill="white" stroke="black" points="1148.5,-100.5 1148.5,-121.5 1285.5,-121.5 1285.5,-100.5 1148.5,-100.5"/>
<text text-anchor="middle" x="1217" y="-108.5" font-family="Helvetica,sans-Serif" font-size="10.00">RoRFrameListener::Restart</text>
</a>
</g>
<!-- Node10&#45;&gt;Node11 -->
<g id="edge22" class="edge"><title>Node10&#45;&gt;Node11</title>
<path fill="none" stroke="midnightblue" d="M1121.82,-111C1130.78,-111 1139.75,-111 1148.4,-111"/>
<polygon fill="midnightblue" stroke="midnightblue" points="1121.72,-107.5 1111.72,-111 1121.72,-114.5 1121.72,-107.5"/>
</g>
<!-- Node12&#45;&gt;Node8 -->
<g id="edge26" class="edge"><title>Node12&#45;&gt;Node8</title>
<path fill="none" stroke="midnightblue" d="M765.884,-121.819C774.906,-122.815 783.886,-123.807 792.426,-124.751"/>
<polygon fill="midnightblue" stroke="midnightblue" points="766.025,-118.313 755.701,-120.694 765.256,-125.271 766.025,-118.313"/>
</g>
<!-- Node14 -->
<g id="node29" class="node"><title>Node14</title>
<a xlink:href="class_local_storage.html#a5605f8d9ff2c066699febb21fd919a3d" target="_top" xlink:title="LocalStorage::LocalStorage">
<polygon fill="white" stroke="black" points="424.5,-80.5 424.5,-101.5 561.5,-101.5 561.5,-80.5 424.5,-80.5"/>
<text text-anchor="middle" x="493" y="-88.5" font-family="Helvetica,sans-Serif" font-size="10.00">LocalStorage::LocalStorage</text>
</a>
</g>
<!-- Node13&#45;&gt;Node14 -->
<g id="edge30" class="edge"><title>Node13&#45;&gt;Node14</title>
<path fill="none" stroke="midnightblue" d="M356.412,-91C378.323,-91 402.58,-91 424.498,-91"/>
<polygon fill="midnightblue" stroke="midnightblue" points="356.196,-87.5001 346.196,-91 356.196,-94.5001 356.196,-87.5001"/>
</g>
</g>
</svg>
        <g id="navigator" transform="translate(0 0)" fill="#404254">
                <rect fill="#f2f5e9" fill-opacity="0.5" stroke="#606060" stroke-width=".5" x="0" y="0" width="60" height="60"/>
                <use id="zoomplus" xlink:href="#zoomPlus" x="17" y="9" onmousedown="handleZoom(evt,'in')"/>
                <use id="zoomminus" xlink:href="#zoomMin" x="42" y="9" onmousedown="handleZoom(evt,'out')"/>
                <use id="reset" xlink:href="#resetDef" x="30" y="36" onmousedown="handleReset()"/>
                <g id="arrowUp" xlink:href="#dirArrow" transform="translate(30 24)" onmousedown="handlePan(0,-1)">
                  <use xlink:href="#rim" fill="#404040">
                        <set attributeName="fill" to="#808080" begin="arrowUp.mouseover" end="arrowUp.mouseout"/>
                  </use>
                  <path fill="none" stroke="white" stroke-width="1.5" d="M0,-3.0v7 M-2.5,-0.5L0,-3.0L2.5,-0.5"/>
                </g>
                <g id="arrowRight" xlink:href="#dirArrow" transform="rotate(90) translate(36 -43)" onmousedown="handlePan(1,0)">
                  <use xlink:href="#rim" fill="#404040">
                        <set attributeName="fill" to="#808080" begin="arrowRight.mouseover" end="arrowRight.mouseout"/>
                  </use>
                  <path fill="none" stroke="white" stroke-width="1.5" d="M0,-3.0v7 M-2.5,-0.5L0,-3.0L2.5,-0.5"/>
                </g>
                <g id="arrowDown" xlink:href="#dirArrow" transform="rotate(180) translate(-30 -48)" onmousedown="handlePan(0,1)">
                  <use xlink:href="#rim" fill="#404040">
                        <set attributeName="fill" to="#808080" begin="arrowDown.mouseover" end="arrowDown.mouseout"/>
                  </use>
                  <path fill="none" stroke="white" stroke-width="1.5" d="M0,-3.0v7 M-2.5,-0.5L0,-3.0L2.5,-0.5"/>
                </g>
                <g id="arrowLeft" xlink:href="#dirArrow" transform="rotate(270) translate(-36 17)" onmousedown="handlePan(-1,0)">
                  <use xlink:href="#rim" fill="#404040">
                        <set attributeName="fill" to="#808080" begin="arrowLeft.mouseover" end="arrowLeft.mouseout"/>
                  </use>
                  <path fill="none" stroke="white" stroke-width="1.5" d="M0,-3.0v7 M-2.5,-0.5L0,-3.0L2.5,-0.5"/>
                </g>
        </g>
</svg>
