<?xml version="1.0" encoding="UTF-8" standalone="no"?>
<!DOCTYPE svg PUBLIC "-//W3C//DTD SVG 1.1//EN"
 "http://www.w3.org/Graphics/SVG/1.1/DTD/svg11.dtd">
<!-- Generated by graphviz version 2.26.3 (20100126.1600)
 -->
<!-- Title: libirc_find_dcc_session Pages: 1 -->
<svg width="426pt" height="240pt"
 viewBox="0.00 0.00 426.00 240.00" xmlns="http://www.w3.org/2000/svg" xmlns:xlink="http://www.w3.org/1999/xlink">
<g id="graph1" class="graph" transform="scale(1 1) rotate(0) translate(4 236)">
<title>libirc_find_dcc_session</title>
<polygon fill="white" stroke="white" points="-4,5 -4,-236 423,-236 423,5 -4,5"/>
<!-- Node1 -->
<g id="node1" class="node"><title>Node1</title>
<polygon fill="#bfbfbf" stroke="black" points="0,-79.5 0,-100.5 118,-100.5 118,-79.5 0,-79.5"/>
<text text-anchor="middle" x="59" y="-87.5" font-family="Helvetica,sans-Serif" font-size="10.00">libirc_find_dcc_session</text>
</g>
<!-- Node2 -->
<g id="node3" class="node"><title>Node2</title>
<a xlink:href="dcc_8c_09_09.html#a464aa8105fc2454a8d12c532cdf8413f" target="_top" xlink:title="libirc_dcc_destroy\l_nolock">
<polygon fill="white" stroke="black" points="154.5,-156 154.5,-190 249.5,-190 249.5,-156 154.5,-156"/>
<text text-anchor="start" x="162.5" y="-177" font-family="Helvetica,sans-Serif" font-size="10.00">libirc_dcc_destroy</text>
<text text-anchor="middle" x="202" y="-164" font-family="Helvetica,sans-Serif" font-size="10.00">_nolock</text>
</a>
</g>
<!-- Node1&#45;&gt;Node2 -->
<g id="edge2" class="edge"><title>Node1&#45;&gt;Node2</title>
<path fill="none" stroke="midnightblue" d="M85.9573,-105.647C110.671,-119.991 147.184,-141.184 172.63,-155.953"/>
<polygon fill="midnightblue" stroke="midnightblue" points="87.5168,-102.505 77.111,-100.512 84.0028,-108.559 87.5168,-102.505"/>
</g>
<!-- Node5 -->
<g id="node9" class="node"><title>Node5</title>
<a xlink:href="libircclient_8h.html#a43f747d3b2252109f9d811ea8414745b" target="_top" xlink:title="Accepts a remote DCC CHAT or DCC RECVFILE request. ">
<polygon fill="white" stroke="black" points="310.5,-118.5 310.5,-139.5 393.5,-139.5 393.5,-118.5 310.5,-118.5"/>
<text text-anchor="middle" x="352" y="-126.5" font-family="Helvetica,sans-Serif" font-size="10.00">irc_dcc_accept</text>
</a>
</g>
<!-- Node1&#45;&gt;Node5 -->
<g id="edge16" class="edge"><title>Node1&#45;&gt;Node5</title>
<path fill="none" stroke="midnightblue" d="M128.173,-99.5103C136.867,-100.693 145.64,-101.879 154,-103 207.949,-110.233 270.197,-118.373 310.273,-123.588"/>
<polygon fill="midnightblue" stroke="midnightblue" points="128.413,-96.0108 118.032,-98.1287 127.468,-102.947 128.413,-96.0108"/>
</g>
<!-- Node6 -->
<g id="node11" class="node"><title>Node6</title>
<a xlink:href="libircclient_8h.html#a3ff4ca78d346b7acf847cf28a7211bf4" target="_top" xlink:title="Declines a remote DCC CHAT or DCC RECVFILE request. ">
<polygon fill="white" stroke="black" points="310,-78.5 310,-99.5 394,-99.5 394,-78.5 310,-78.5"/>
<text text-anchor="middle" x="352" y="-86.5" font-family="Helvetica,sans-Serif" font-size="10.00">irc_dcc_decline</text>
</a>
</g>
<!-- Node1&#45;&gt;Node6 -->
<g id="edge18" class="edge"><title>Node1&#45;&gt;Node6</title>
<path fill="none" stroke="midnightblue" d="M128.558,-89.7626C184.921,-89.5702 262.498,-89.3055 309.845,-89.1439"/>
<polygon fill="midnightblue" stroke="midnightblue" points="128.281,-86.2634 118.293,-89.7976 128.305,-93.2634 128.281,-86.2634"/>
</g>
<!-- Node7 -->
<g id="node13" class="node"><title>Node7</title>
<a xlink:href="libircclient_8h.html#a8b8aa3363ee93cc395bc89ac5cc9501c" target="_top" xlink:title="Destroys a DCC session. ">
<polygon fill="white" stroke="black" points="159,-40.5 159,-61.5 245,-61.5 245,-40.5 159,-40.5"/>
<text text-anchor="middle" x="202" y="-48.5" font-family="Helvetica,sans-Serif" font-size="10.00">irc_dcc_destroy</text>
</a>
</g>
<!-- Node1&#45;&gt;Node7 -->
<g id="edge12" class="edge"><title>Node1&#45;&gt;Node7</title>
<path fill="none" stroke="midnightblue" d="M107.533,-76.7638C125.708,-71.8069 146.099,-66.2458 163.271,-61.5624"/>
<polygon fill="midnightblue" stroke="midnightblue" points="106.425,-73.4381 97.6979,-79.446 108.266,-80.1915 106.425,-73.4381"/>
</g>
<!-- Node8 -->
<g id="node15" class="node"><title>Node8</title>
<a xlink:href="libircclient_8h.html#ab98b7ea58a36d7649c2dca6c4b3c8a7d" target="_top" xlink:title="Sends the message to the specific DCC CHAT. ">
<polygon fill="white" stroke="black" points="166,-0.5 166,-21.5 238,-21.5 238,-0.5 166,-0.5"/>
<text text-anchor="middle" x="202" y="-8.5" font-family="Helvetica,sans-Serif" font-size="10.00">irc_dcc_msg</text>
</a>
</g>
<!-- Node1&#45;&gt;Node8 -->
<g id="edge14" class="edge"><title>Node1&#45;&gt;Node8</title>
<path fill="none" stroke="midnightblue" d="M82.8834,-73.6684C101.728,-61.1547 128.928,-43.9025 154,-31 160.502,-27.6539 167.695,-24.423 174.491,-21.5694"/>
<polygon fill="midnightblue" stroke="midnightblue" points="80.7058,-70.9146 74.3498,-79.3911 84.6045,-76.7283 80.7058,-70.9146"/>
</g>
<!-- Node3 -->
<g id="node5" class="node"><title>Node3</title>
<a xlink:href="dcc_8c_09_09.html#a803edc073a809a99cdc9b83a321396ae" target="_top" xlink:title="libirc_dcc_add_descriptors">
<polygon fill="white" stroke="black" points="286,-210.5 286,-231.5 418,-231.5 418,-210.5 286,-210.5"/>
<text text-anchor="middle" x="352" y="-218.5" font-family="Helvetica,sans-Serif" font-size="10.00">libirc_dcc_add_descriptors</text>
</a>
</g>
<!-- Node2&#45;&gt;Node3 -->
<g id="edge4" class="edge"><title>Node2&#45;&gt;Node3</title>
<path fill="none" stroke="midnightblue" d="M259.431,-192.377C268.314,-195.306 277.394,-198.262 286,-201 295.926,-204.158 306.728,-207.479 316.665,-210.488"/>
<polygon fill="midnightblue" stroke="midnightblue" points="260.494,-189.042 249.9,-189.22 258.292,-195.687 260.494,-189.042"/>
</g>
<!-- Node4 -->
<g id="node7" class="node"><title>Node4</title>
<a xlink:href="dcc_8c_09_09.html#a9a7cc94e78b507f62eb6b8a444c29277" target="_top" xlink:title="libirc_dcc_process\l_descriptors">
<polygon fill="white" stroke="black" points="303,-158 303,-192 401,-192 401,-158 303,-158"/>
<text text-anchor="start" x="311" y="-179" font-family="Helvetica,sans-Serif" font-size="10.00">libirc_dcc_process</text>
<text text-anchor="middle" x="352" y="-166" font-family="Helvetica,sans-Serif" font-size="10.00">_descriptors</text>
</a>
</g>
<!-- Node2&#45;&gt;Node4 -->
<g id="edge6" class="edge"><title>Node2&#45;&gt;Node4</title>
<path fill="none" stroke="midnightblue" d="M259.982,-173.773C274.114,-173.962 289.096,-174.161 302.776,-174.344"/>
<polygon fill="midnightblue" stroke="midnightblue" points="259.919,-170.272 249.873,-173.638 259.826,-177.271 259.919,-170.272"/>
</g>
<!-- Node2&#45;&gt;Node5 -->
<g id="edge8" class="edge"><title>Node2&#45;&gt;Node5</title>
<path fill="none" stroke="midnightblue" d="M259.617,-156.099C278.575,-150.538 299.102,-144.517 315.98,-139.566"/>
<polygon fill="midnightblue" stroke="midnightblue" points="258.484,-152.784 249.873,-158.957 260.454,-159.501 258.484,-152.784"/>
</g>
<!-- Node2&#45;&gt;Node6 -->
<g id="edge10" class="edge"><title>Node2&#45;&gt;Node6</title>
<path fill="none" stroke="midnightblue" d="M228.113,-149.196C243.913,-135.83 265.01,-119.732 286,-109 293.462,-105.185 301.778,-101.96 309.923,-99.2892"/>
<polygon fill="midnightblue" stroke="midnightblue" points="225.64,-146.707 220.362,-155.893 230.217,-152.003 225.64,-146.707"/>
</g>
</g>
</svg>
