<?xml version="1.0" encoding="UTF-8" standalone="no"?>
<!DOCTYPE svg PUBLIC "-//W3C//DTD SVG 1.1//EN"
 "http://www.w3.org/Graphics/SVG/1.1/DTD/svg11.dtd">
<!-- Generated by graphviz version 2.26.3 (20100126.1600)
 -->
<!-- Title: libirc_new_dcc_session Pages: 1 -->
<svg width="260pt" height="110pt"
 viewBox="0.00 0.00 260.00 110.00" xmlns="http://www.w3.org/2000/svg" xmlns:xlink="http://www.w3.org/1999/xlink">
<g id="graph1" class="graph" transform="scale(1 1) rotate(0) translate(4 106)">
<title>libirc_new_dcc_session</title>
<polygon fill="white" stroke="white" points="-4,5 -4,-106 257,-106 257,5 -4,5"/>
<!-- Node1 -->
<g id="node1" class="node"><title>Node1</title>
<polygon fill="#bfbfbf" stroke="black" points="0,-40.5 0,-61.5 120,-61.5 120,-40.5 0,-40.5"/>
<text text-anchor="middle" x="60" y="-48.5" font-family="Helvetica,sans-Serif" font-size="10.00">libirc_new_dcc_session</text>
</g>
<!-- Node2 -->
<g id="node3" class="node"><title>Node2</title>
<a xlink:href="libircclient_8h.html#ad6958aac6d67f595966949d1ec5ae4a0" target="_top" xlink:title="Initiates a DCC CHAT. ">
<polygon fill="white" stroke="black" points="168,-80.5 168,-101.5 240,-101.5 240,-80.5 168,-80.5"/>
<text text-anchor="middle" x="204" y="-88.5" font-family="Helvetica,sans-Serif" font-size="10.00">irc_dcc_chat</text>
</a>
</g>
<!-- Node1&#45;&gt;Node2 -->
<g id="edge2" class="edge"><title>Node1&#45;&gt;Node2</title>
<path fill="none" stroke="midnightblue" d="M107.532,-64.2033C127.197,-69.666 149.627,-75.8964 167.907,-80.9741"/>
<polygon fill="midnightblue" stroke="midnightblue" points="108.406,-60.8137 97.8343,-61.5095 106.533,-67.5584 108.406,-60.8137"/>
</g>
<!-- Node3 -->
<g id="node5" class="node"><title>Node3</title>
<a xlink:href="dcc_8c_09_09.html#a6a8177b1b447379f2ac6371edee71a0b" target="_top" xlink:title="libirc_dcc_request">
<polygon fill="white" stroke="black" points="156.5,-40.5 156.5,-61.5 251.5,-61.5 251.5,-40.5 156.5,-40.5"/>
<text text-anchor="middle" x="204" y="-48.5" font-family="Helvetica,sans-Serif" font-size="10.00">libirc_dcc_request</text>
</a>
</g>
<!-- Node1&#45;&gt;Node3 -->
<g id="edge4" class="edge"><title>Node1&#45;&gt;Node3</title>
<path fill="none" stroke="midnightblue" d="M130.455,-51C139.199,-51 147.974,-51 156.263,-51"/>
<polygon fill="midnightblue" stroke="midnightblue" points="130.235,-47.5001 120.235,-51 130.235,-54.5001 130.235,-47.5001"/>
</g>
<!-- Node4 -->
<g id="node7" class="node"><title>Node4</title>
<a xlink:href="libircclient_8h.html#af9e8a307113cd27d08e082fda6264262" target="_top" xlink:title="Sends a file via DCC. ">
<polygon fill="white" stroke="black" points="160.5,-0.5 160.5,-21.5 247.5,-21.5 247.5,-0.5 160.5,-0.5"/>
<text text-anchor="middle" x="204" y="-8.5" font-family="Helvetica,sans-Serif" font-size="10.00">irc_dcc_sendfile</text>
</a>
</g>
<!-- Node1&#45;&gt;Node4 -->
<g id="edge6" class="edge"><title>Node1&#45;&gt;Node4</title>
<path fill="none" stroke="midnightblue" d="M107.486,-37.8094C126.456,-32.5401 148.003,-26.5548 165.918,-21.5782"/>
<polygon fill="midnightblue" stroke="midnightblue" points="106.533,-34.4416 97.8343,-40.4905 108.406,-41.1863 106.533,-34.4416"/>
</g>
</g>
</svg>
