<?xml version="1.0" encoding="UTF-8" standalone="no"?>
<!DOCTYPE svg PUBLIC "-//W3C//DTD SVG 1.1//EN"
 "http://www.w3.org/Graphics/SVG/1.1/DTD/svg11.dtd">
<!-- Generated by graphviz version 2.26.3 (20100126.1600)
 -->
<!-- Title: libirc_dcc_destroy_nolock Pages: 1 -->
<svg width="398pt" height="90pt"
 viewBox="0.00 0.00 398.00 90.00" xmlns="http://www.w3.org/2000/svg" xmlns:xlink="http://www.w3.org/1999/xlink">
<g id="graph1" class="graph" transform="scale(1 1) rotate(0) translate(4 86)">
<title>libirc_dcc_destroy_nolock</title>
<polygon fill="white" stroke="white" points="-4,5 -4,-86 395,-86 395,5 -4,5"/>
<!-- Node1 -->
<g id="node1" class="node"><title>Node1</title>
<polygon fill="#bfbfbf" stroke="black" points="0.5,-14 0.5,-48 95.5,-48 95.5,-14 0.5,-14"/>
<text text-anchor="start" x="8.5" y="-35" font-family="Helvetica,sans-Serif" font-size="10.00">libirc_dcc_destroy</text>
<text text-anchor="middle" x="48" y="-22" font-family="Helvetica,sans-Serif" font-size="10.00">_nolock</text>
</g>
<!-- Node2 -->
<g id="node3" class="node"><title>Node2</title>
<a xlink:href="dcc_8c_09_09.html#aa2d9c696dcb8b122fa25a031f3a72ca9" target="_top" xlink:title="libirc_find_dcc_session">
<polygon fill="white" stroke="black" points="132,-40.5 132,-61.5 250,-61.5 250,-40.5 132,-40.5"/>
<text text-anchor="middle" x="191" y="-48.5" font-family="Helvetica,sans-Serif" font-size="10.00">libirc_find_dcc_session</text>
</a>
</g>
<!-- Node1&#45;&gt;Node2 -->
<g id="edge2" class="edge"><title>Node1&#45;&gt;Node2</title>
<path fill="none" stroke="midnightblue" d="M95.6169,-37.6597C104.058,-38.8403 113.002,-40.0911 121.896,-41.335"/>
<polygon fill="midnightblue" stroke="midnightblue" points="121.498,-44.8134 131.887,-42.7324 122.468,-37.8809 121.498,-44.8134"/>
</g>
<!-- Node5 -->
<g id="node9" class="node"><title>Node5</title>
<a xlink:href="sockets_8c_09_09.html#ad13636246822f43abd7f3c351915435b" target="_top" xlink:title="socket_close">
<polygon fill="white" stroke="black" points="154,-0.5 154,-21.5 228,-21.5 228,-0.5 154,-0.5"/>
<text text-anchor="middle" x="191" y="-8.5" font-family="Helvetica,sans-Serif" font-size="10.00">socket_close</text>
</a>
</g>
<!-- Node1&#45;&gt;Node5 -->
<g id="edge8" class="edge"><title>Node1&#45;&gt;Node5</title>
<path fill="none" stroke="midnightblue" d="M95.6169,-24.3403C111.213,-22.1591 128.521,-19.7383 144.066,-17.5642"/>
<polygon fill="midnightblue" stroke="midnightblue" points="144.572,-21.0276 153.991,-16.1761 143.602,-14.095 144.572,-21.0276"/>
</g>
<!-- Node3 -->
<g id="node5" class="node"><title>Node3</title>
<a xlink:href="portable_8c_09_09.html#a9646a2024e4129ba4fbb30452f083e33" target="_top" xlink:title="libirc_mutex_lock">
<polygon fill="white" stroke="black" points="292,-60.5 292,-81.5 384,-81.5 384,-60.5 292,-60.5"/>
<text text-anchor="middle" x="338" y="-68.5" font-family="Helvetica,sans-Serif" font-size="10.00">libirc_mutex_lock</text>
</a>
</g>
<!-- Node2&#45;&gt;Node3 -->
<g id="edge4" class="edge"><title>Node2&#45;&gt;Node3</title>
<path fill="none" stroke="midnightblue" d="M250.367,-59.0771C260.765,-60.4919 271.556,-61.9601 281.864,-63.3625"/>
<polygon fill="midnightblue" stroke="midnightblue" points="281.598,-66.8584 291.978,-64.7385 282.541,-59.9223 281.598,-66.8584"/>
</g>
<!-- Node4 -->
<g id="node7" class="node"><title>Node4</title>
<a xlink:href="portable_8c_09_09.html#a214ac94a66d2c51f5c25f84aa3642699" target="_top" xlink:title="libirc_mutex_unlock">
<polygon fill="white" stroke="black" points="286.5,-20.5 286.5,-41.5 389.5,-41.5 389.5,-20.5 286.5,-20.5"/>
<text text-anchor="middle" x="338" y="-28.5" font-family="Helvetica,sans-Serif" font-size="10.00">libirc_mutex_unlock</text>
</a>
</g>
<!-- Node2&#45;&gt;Node4 -->
<g id="edge6" class="edge"><title>Node2&#45;&gt;Node4</title>
<path fill="none" stroke="midnightblue" d="M250.367,-42.9229C258.958,-41.7541 267.816,-40.5488 276.449,-39.3743"/>
<polygon fill="midnightblue" stroke="midnightblue" points="277.013,-42.8299 286.449,-38.0137 276.069,-35.8938 277.013,-42.8299"/>
</g>
</g>
</svg>
