<?xml version="1.0" encoding="UTF-8" standalone="no"?>
<!DOCTYPE svg PUBLIC "-//W3C//DTD SVG 1.1//EN"
 "http://www.w3.org/Graphics/SVG/1.1/DTD/svg11.dtd">
<!-- Generated by graphviz version 2.26.3 (20100126.1600)
 -->
<!-- Title: source/main/terrain/map Pages: 1 -->
<svg width="134pt" height="297pt"
 viewBox="0.00 0.00 134.00 297.00" xmlns="http://www.w3.org/2000/svg" xmlns:xlink="http://www.w3.org/1999/xlink">
<g id="graph1" class="graph" transform="scale(1 1) rotate(0) translate(4 293)">
<title>source/main/terrain/map</title>
<polygon fill="white" stroke="white" points="-4,5 -4,-293 131,-293 131,5 -4,5"/>
<g id="graph2" class="cluster"><title>clusterdir_fe8549edcaa31ab7d8cdf25ea64c5f0b</title>
<a xlink:href="dir_fe8549edcaa31ab7d8cdf25ea64c5f0b.html" target="_top" xlink:title="terrain">
<polygon fill="#ddddee" stroke="black" points="48,-208 48,-281 118,-281 118,-208 48,-208"/>
<text text-anchor="middle" x="83" y="-268" font-family="Helvetica,sans-Serif" font-size="10.00">terrain</text>
</a>
</g>
<!-- dir_5dece025cc07ba0d3a8e3cafa3ed0daf -->
<g id="node2" class="node"><title>dir_5dece025cc07ba0d3a8e3cafa3ed0daf</title>
<a xlink:href="dir_5dece025cc07ba0d3a8e3cafa3ed0daf.html" target="_top" xlink:title="map">
<polygon fill="#eeeeff" stroke="black" points="110,-252 56,-252 56,-216 110,-216 110,-252"/>
<text text-anchor="middle" x="83" y="-231.5" font-family="Helvetica,sans-Serif" font-size="10.00">map</text>
</a>
</g>
<!-- dir_9080132d8b60aab10dfc81aa674559e3 -->
<g id="node3" class="node"><title>dir_9080132d8b60aab10dfc81aa674559e3</title>
<a xlink:href="dir_9080132d8b60aab10dfc81aa674559e3.html" target="_top" xlink:title="physics">
<polygon fill="white" stroke="red" points="110,-180 56,-180 56,-144 110,-144 110,-180"/>
<text text-anchor="middle" x="83" y="-159.5" font-family="Helvetica,sans-Serif" font-size="10.00">physics</text>
</a>
</g>
<!-- dir_5dece025cc07ba0d3a8e3cafa3ed0daf&#45;&gt;dir_9080132d8b60aab10dfc81aa674559e3 -->
<g id="edge13" class="edge"><title>dir_5dece025cc07ba0d3a8e3cafa3ed0daf&#45;&gt;dir_9080132d8b60aab10dfc81aa674559e3</title>
<path fill="none" stroke="black" d="M83,-215.831C83,-208.131 83,-198.974 83,-190.417"/>
<polygon fill="black" stroke="black" points="86.5001,-190.413 83,-180.413 79.5001,-190.413 86.5001,-190.413"/>
<a xlink:href="dir_000051_000038.html" target="_top" xlink:title="1">
<text text-anchor="middle" x="89.3393" y="-191.508" font-family="Helvetica,sans-Serif" font-size="10.00">1</text>
</a>
</g>
<!-- dir_f0f7d06cdd3afa32db540a94ff15e354 -->
<g id="node4" class="node"><title>dir_f0f7d06cdd3afa32db540a94ff15e354</title>
<a xlink:href="dir_f0f7d06cdd3afa32db540a94ff15e354.html" target="_top" xlink:title="utils">
<polygon fill="white" stroke="red" points="54,-108 2.13163e-14,-108 0,-72 54,-72 54,-108"/>
<text text-anchor="middle" x="27" y="-87.5" font-family="Helvetica,sans-Serif" font-size="10.00">utils</text>
</a>
</g>
<!-- dir_5dece025cc07ba0d3a8e3cafa3ed0daf&#45;&gt;dir_f0f7d06cdd3afa32db540a94ff15e354 -->
<g id="edge15" class="edge"><title>dir_5dece025cc07ba0d3a8e3cafa3ed0daf&#45;&gt;dir_f0f7d06cdd3afa32db540a94ff15e354</title>
<path fill="none" stroke="black" d="M68.5303,-215.984C61.1013,-205.921 52.4837,-192.85 47,-180 38.545,-160.187 33.4523,-136.331 30.5234,-118.16"/>
<polygon fill="black" stroke="black" points="33.9738,-117.567 29.0399,-108.191 27.0501,-118.597 33.9738,-117.567"/>
<a xlink:href="dir_000051_000053.html" target="_top" xlink:title="1">
<text text-anchor="middle" x="37.3112" y="-118.205" font-family="Helvetica,sans-Serif" font-size="10.00">1</text>
</a>
</g>
<!-- dir_0bd5307e14ef78d30f1665dd8a71b0d5 -->
<g id="node5" class="node"><title>dir_0bd5307e14ef78d30f1665dd8a71b0d5</title>
<a xlink:href="dir_0bd5307e14ef78d30f1665dd8a71b0d5.html" target="_top" xlink:title="gfx">
<polygon fill="white" stroke="red" points="118,-36 64,-36 64,-1.77636e-14 118,-3.55271e-15 118,-36"/>
<text text-anchor="middle" x="91" y="-15.5" font-family="Helvetica,sans-Serif" font-size="10.00">gfx</text>
</a>
</g>
<!-- dir_5dece025cc07ba0d3a8e3cafa3ed0daf&#45;&gt;dir_0bd5307e14ef78d30f1665dd8a71b0d5 -->
<g id="edge17" class="edge"><title>dir_5dece025cc07ba0d3a8e3cafa3ed0daf&#45;&gt;dir_0bd5307e14ef78d30f1665dd8a71b0d5</title>
<path fill="none" stroke="black" d="M98.9905,-215.917C106.654,-206.037 115.017,-193.156 119,-180 132.942,-133.953 116.384,-78.3096 103.447,-45.6709"/>
<polygon fill="black" stroke="black" points="106.637,-44.2247 99.5863,-36.3164 100.166,-46.8953 106.637,-44.2247"/>
<a xlink:href="dir_000051_000026.html" target="_top" xlink:title="1">
<text text-anchor="middle" x="110.633" y="-43.9642" font-family="Helvetica,sans-Serif" font-size="10.00">1</text>
</a>
</g>
<!-- dir_9080132d8b60aab10dfc81aa674559e3&#45;&gt;dir_f0f7d06cdd3afa32db540a94ff15e354 -->
<g id="edge3" class="edge"><title>dir_9080132d8b60aab10dfc81aa674559e3&#45;&gt;dir_f0f7d06cdd3afa32db540a94ff15e354</title>
<path fill="none" stroke="black" d="M68.8688,-143.831C62.4189,-135.539 54.6555,-125.557 47.5748,-116.453"/>
<polygon fill="black" stroke="black" points="50.2236,-114.158 41.3214,-108.413 44.6981,-118.456 50.2236,-114.158"/>
<a xlink:href="dir_000038_000053.html" target="_top" xlink:title="28">
<text text-anchor="middle" x="54.6716" y="-112.752" font-family="Helvetica,sans-Serif" font-size="10.00">28</text>
</a>
</g>
<!-- dir_9080132d8b60aab10dfc81aa674559e3&#45;&gt;dir_0bd5307e14ef78d30f1665dd8a71b0d5 -->
<g id="edge5" class="edge"><title>dir_9080132d8b60aab10dfc81aa674559e3&#45;&gt;dir_0bd5307e14ef78d30f1665dd8a71b0d5</title>
<path fill="none" stroke="black" d="M79.34,-143.762C78.2447,-119.201 80.4119,-75.2474 83.9274,-46.3541"/>
<polygon fill="black" stroke="black" points="87.4438,-46.4728 85.3367,-36.0896 80.5089,-45.5205 87.4438,-46.4728"/>
<a xlink:href="dir_000038_000026.html" target="_top" xlink:title="21">
<text text-anchor="middle" x="89.7678" y="-47.9202" font-family="Helvetica,sans-Serif" font-size="10.00">21</text>
</a>
</g>
<!-- dir_f0f7d06cdd3afa32db540a94ff15e354&#45;&gt;dir_0bd5307e14ef78d30f1665dd8a71b0d5 -->
<g id="edge7" class="edge"><title>dir_f0f7d06cdd3afa32db540a94ff15e354&#45;&gt;dir_0bd5307e14ef78d30f1665dd8a71b0d5</title>
<path fill="none" stroke="black" d="M37.1975,-71.8314C43.8946,-63.3694 52.7943,-53.1489 61.4724,-43.8971"/>
<polygon fill="black" stroke="black" points="64.2563,-46.0511 68.6566,-36.4133 59.2065,-41.2034 64.2563,-46.0511"/>
<a xlink:href="dir_000053_000026.html" target="_top" xlink:title="2">
<text text-anchor="middle" x="63.8152" y="-48.1105" font-family="Helvetica,sans-Serif" font-size="10.00">2</text>
</a>
</g>
<!-- dir_0bd5307e14ef78d30f1665dd8a71b0d5&#45;&gt;dir_9080132d8b60aab10dfc81aa674559e3 -->
<g id="edge9" class="edge"><title>dir_0bd5307e14ef78d30f1665dd8a71b0d5&#45;&gt;dir_9080132d8b60aab10dfc81aa674559e3</title>
<path fill="none" stroke="black" d="M94.6533,-36.0896C95.7666,-60.6805 93.5848,-104.905 90.0474,-133.853"/>
<polygon fill="black" stroke="black" points="86.5797,-133.379 88.6864,-143.762 93.5146,-134.332 86.5797,-133.379"/>
<a xlink:href="dir_000026_000038.html" target="_top" xlink:title="17">
<text text-anchor="middle" x="84.2559" y="-126.932" font-family="Helvetica,sans-Serif" font-size="10.00">17</text>
</a>
</g>
<!-- dir_0bd5307e14ef78d30f1665dd8a71b0d5&#45;&gt;dir_f0f7d06cdd3afa32db540a94ff15e354 -->
<g id="edge11" class="edge"><title>dir_0bd5307e14ef78d30f1665dd8a71b0d5&#45;&gt;dir_f0f7d06cdd3afa32db540a94ff15e354</title>
<path fill="none" stroke="black" d="M80.6087,-36.4133C73.8694,-44.9088 64.9509,-55.1366 56.2773,-64.3696"/>
<polygon fill="black" stroke="black" points="53.5106,-62.1972 49.1023,-71.8314 58.5564,-67.049 53.5106,-62.1972"/>
<a xlink:href="dir_000026_000053.html" target="_top" xlink:title="43">
<text text-anchor="middle" x="53.9555" y="-55.1382" font-family="Helvetica,sans-Serif" font-size="10.00">43</text>
</a>
</g>
</g>
</svg>
