<?xml version="1.0" encoding="UTF-8" standalone="no"?>
<!DOCTYPE svg PUBLIC "-//W3C//DTD SVG 1.1//EN"
 "http://www.w3.org/Graphics/SVG/1.1/DTD/svg11.dtd">
<!-- Generated by graphviz version 2.26.3 (20100126.1600)
 -->
<!-- Title: G Pages: 1 -->
<!--zoomable 264 -->
<svg id="main" version="1.1" xmlns="http://www.w3.org/2000/svg" xmlns:xlink="http://www.w3.org/1999/xlink" xml:space="preserve" onload="init(evt)">
        <defs>
                <circle id="rim" cx="0" cy="0" r="7"/>
                <circle id="rim2" cx="0" cy="0" r="3.5"/>
                <g id="zoomPlus">
                        <use xlink:href="#rim" fill="#404040">
                                <set attributeName="fill" to="#808080" begin="zoomplus.mouseover" end="zoomplus.mouseout"/>
                        </use>
                        <path d="M-4,0h8M0,-4v8" fill="none" stroke="white" stroke-width="1.5" pointer-events="none"/>
                </g>
                <g id="zoomMin">
                        <use xlink:href="#rim" fill="#404040">
                                <set attributeName="fill" to="#808080" begin="zoomminus.mouseover" end="zoomminus.mouseout"/>
                        </use>
                        <path d="M-4,0h8" fill="none" stroke="white" stroke-width="1.5" pointer-events="none"/>
                </g>
                <g id="dirArrow">
                        <path fill="none" stroke="white" stroke-width="1.5" d="M0,-3.0v7 M-2.5,-0.5L0,-3.0L2.5,-0.5"/>
                </g>
               <g id="resetDef">
                       <use xlink:href="#rim2" fill="#404040">
                               <set attributeName="fill" to="#808080" begin="reset.mouseover" end="reset.mouseout"/>
                       </use>
               </g>
        </defs>

<script type="text/javascript">
var viewWidth = 1768;
var viewHeight = 264;
var sectionId = 'dynsection-3';
</script>
<script xlink:href="svgpan.js"/>
<svg id="graph" class="graph">
<g id="viewport">
<title>G</title>
<polygon fill="white" stroke="white" points="-4,5 -4,-260 1765,-260 1765,5 -4,5"/>
<!-- Node1 -->
<g id="node1" class="node"><title>Node1</title>
<polygon fill="#bfbfbf" stroke="black" points="0.5,-138.5 0.5,-159.5 75.5,-159.5 75.5,-138.5 0.5,-138.5"/>
<text text-anchor="middle" x="38" y="-146.5" font-family="Helvetica,sans-Serif" font-size="10.00">Profiler::reset</text>
</g>
<!-- Node2 -->
<g id="node3" class="node"><title>Node2</title>
<a xlink:href="class_autopilot.html#a5309da7574018e676a75c5f73a34a553" target="_top" xlink:title="Autopilot::Autopilot">
<polygon fill="white" stroke="black" points="155.5,-218.5 155.5,-239.5 254.5,-239.5 254.5,-218.5 155.5,-218.5"/>
<text text-anchor="middle" x="205" y="-226.5" font-family="Helvetica,sans-Serif" font-size="10.00">Autopilot::Autopilot</text>
</a>
</g>
<!-- Node1&#45;&gt;Node2 -->
<g id="edge2" class="edge"><title>Node1&#45;&gt;Node2</title>
<path fill="none" stroke="midnightblue" d="M55.341,-167.09C69.3714,-180.658 90.3018,-198.61 112,-209 125.406,-215.419 140.88,-219.797 155.312,-222.775"/>
<polygon fill="midnightblue" stroke="midnightblue" points="57.4778,-164.278 47.9238,-159.699 52.5367,-169.237 57.4778,-164.278"/>
</g>
<!-- Node3 -->
<g id="node5" class="node"><title>Node3</title>
<a xlink:href="class_turboprop.html#a64ce2d3ed7d5e760f4f64cf85157938e" target="_top" xlink:title="Turboprop::Turboprop">
<polygon fill="white" stroke="black" points="150,-178.5 150,-199.5 260,-199.5 260,-178.5 150,-178.5"/>
<text text-anchor="middle" x="205" y="-186.5" font-family="Helvetica,sans-Serif" font-size="10.00">Turboprop::Turboprop</text>
</a>
</g>
<!-- Node1&#45;&gt;Node3 -->
<g id="edge4" class="edge"><title>Node1&#45;&gt;Node3</title>
<path fill="none" stroke="midnightblue" d="M85.3395,-162.188C94.1792,-164.539 103.355,-166.904 112,-169 125.482,-172.269 140.129,-175.546 153.726,-178.474"/>
<polygon fill="midnightblue" stroke="midnightblue" points="86.114,-158.772 75.5481,-159.555 84.2963,-165.532 86.114,-158.772"/>
</g>
<!-- Node4 -->
<g id="node7" class="node"><title>Node4</title>
<a xlink:href="class_beam.html#a305ac27eb231b889a058575508f3d626" target="_top" xlink:title="Beam::SyncReset">
<polygon fill="white" stroke="black" points="156.5,-138.5 156.5,-159.5 253.5,-159.5 253.5,-138.5 156.5,-138.5"/>
<text text-anchor="middle" x="205" y="-146.5" font-family="Helvetica,sans-Serif" font-size="10.00">Beam::SyncReset</text>
</a>
</g>
<!-- Node1&#45;&gt;Node4 -->
<g id="edge6" class="edge"><title>Node1&#45;&gt;Node4</title>
<path fill="none" stroke="midnightblue" d="M86.0537,-149C108.147,-149 134.306,-149 156.458,-149"/>
<polygon fill="midnightblue" stroke="midnightblue" points="85.8949,-145.5 75.8949,-149 85.8949,-152.5 85.8949,-145.5"/>
</g>
<!-- Node9 -->
<g id="node17" class="node"><title>Node9</title>
<a xlink:href="class_beam_factory.html#a6eb09f405c2dc496a687caf0014800b0" target="_top" xlink:title="BeamFactory::CreateLocalRigInstance">
<polygon fill="white" stroke="black" points="112,-98.5 112,-119.5 298,-119.5 298,-98.5 112,-98.5"/>
<text text-anchor="middle" x="205" y="-106.5" font-family="Helvetica,sans-Serif" font-size="10.00">BeamFactory::CreateLocalRigInstance</text>
</a>
</g>
<!-- Node1&#45;&gt;Node9 -->
<g id="edge16" class="edge"><title>Node1&#45;&gt;Node9</title>
<path fill="none" stroke="midnightblue" d="M85.3395,-135.812C94.1792,-133.461 103.355,-131.096 112,-129 125.482,-125.731 140.129,-122.454 153.726,-119.526"/>
<polygon fill="midnightblue" stroke="midnightblue" points="84.2963,-132.468 75.5481,-138.445 86.114,-139.228 84.2963,-132.468"/>
</g>
<!-- Node20 -->
<g id="node43" class="node"><title>Node20</title>
<a xlink:href="class_script_engine.html#aec64d59067a79c9fe0b88c150c901147" target="_top" xlink:title="ScriptEngine::init">
<polygon fill="white" stroke="black" points="159.5,-39.5 159.5,-60.5 250.5,-60.5 250.5,-39.5 159.5,-39.5"/>
<text text-anchor="middle" x="205" y="-47.5" font-family="Helvetica,sans-Serif" font-size="10.00">ScriptEngine::init</text>
</a>
</g>
<!-- Node1&#45;&gt;Node20 -->
<g id="edge46" class="edge"><title>Node1&#45;&gt;Node20</title>
<path fill="none" stroke="midnightblue" d="M56.9309,-131.106C71.2504,-118.227 91.8304,-101.068 112,-89 131.531,-77.3139 155.208,-67.4394 173.784,-60.5502"/>
<polygon fill="midnightblue" stroke="midnightblue" points="54.2813,-128.787 49.2737,-138.123 59.0108,-133.947 54.2813,-128.787"/>
</g>
<!-- Node5 -->
<g id="node9" class="node"><title>Node5</title>
<a xlink:href="class_beam.html#ac5430b47f97dc513c9e8a0a3caa00cc2" target="_top" xlink:title="Beam::frameStep">
<polygon fill="white" stroke="black" points="392.5,-196.5 392.5,-217.5 485.5,-217.5 485.5,-196.5 392.5,-196.5"/>
<text text-anchor="middle" x="439" y="-204.5" font-family="Helvetica,sans-Serif" font-size="10.00">Beam::frameStep</text>
</a>
</g>
<!-- Node4&#45;&gt;Node5 -->
<g id="edge8" class="edge"><title>Node4&#45;&gt;Node5</title>
<path fill="none" stroke="midnightblue" d="M263.537,-160.33C275.032,-162.908 286.949,-165.832 298,-169 314.353,-173.688 317.7,-177.133 334,-182 352.943,-187.656 374.106,-192.896 392.441,-197.102"/>
<polygon fill="midnightblue" stroke="midnightblue" points="264.092,-156.869 253.576,-158.156 262.599,-163.708 264.092,-156.869"/>
</g>
<!-- Node6 -->
<g id="node11" class="node"><title>Node6</title>
<a xlink:href="class_beam_factory.html#a6fa954b906b6dc808a34e69ac2d018d3" target="_top" xlink:title="BeamFactory::calcPhysics">
<polygon fill="white" stroke="black" points="607,-196.5 607,-217.5 741,-217.5 741,-196.5 607,-196.5"/>
<text text-anchor="middle" x="674" y="-204.5" font-family="Helvetica,sans-Serif" font-size="10.00">BeamFactory::calcPhysics</text>
</a>
</g>
<!-- Node5&#45;&gt;Node6 -->
<g id="edge10" class="edge"><title>Node5&#45;&gt;Node6</title>
<path fill="none" stroke="midnightblue" d="M495.787,-207C529.256,-207 571.787,-207 606.905,-207"/>
<polygon fill="midnightblue" stroke="midnightblue" points="495.709,-203.5 485.709,-207 495.709,-210.5 495.709,-203.5"/>
</g>
<!-- Node7 -->
<g id="node13" class="node"><title>Node7</title>
<a xlink:href="class_ro_r_frame_listener.html#acd8647e188fb8e838689492965b86faf" target="_top" xlink:title="RoRFrameListener::frameStarted">
<polygon fill="white" stroke="black" points="1218.5,-137.5 1218.5,-158.5 1379.5,-158.5 1379.5,-137.5 1218.5,-137.5"/>
<text text-anchor="middle" x="1299" y="-145.5" font-family="Helvetica,sans-Serif" font-size="10.00">RoRFrameListener::frameStarted</text>
</a>
</g>
<!-- Node6&#45;&gt;Node7 -->
<g id="edge12" class="edge"><title>Node6&#45;&gt;Node7</title>
<path fill="none" stroke="midnightblue" d="M751.164,-203.306C850.912,-198.02 1029.87,-186.801 1182,-168 1202.25,-165.498 1224.33,-161.94 1243.8,-158.517"/>
<polygon fill="midnightblue" stroke="midnightblue" points="750.975,-199.811 741.172,-203.829 751.342,-206.801 750.975,-199.811"/>
</g>
<!-- Node8 -->
<g id="node15" class="node"><title>Node8</title>
<a xlink:href="class_preview_renderer.html#a5ea6b4611b45965e072266211dc60ba8" target="_top" xlink:title="PreviewRenderer::render">
<polygon fill="white" stroke="black" points="816.5,-234.5 816.5,-255.5 941.5,-255.5 941.5,-234.5 816.5,-234.5"/>
<text text-anchor="middle" x="879" y="-242.5" font-family="Helvetica,sans-Serif" font-size="10.00">PreviewRenderer::render</text>
</a>
</g>
<!-- Node6&#45;&gt;Node8 -->
<g id="edge14" class="edge"><title>Node6&#45;&gt;Node8</title>
<path fill="none" stroke="midnightblue" d="M740.706,-219.365C766.973,-224.234 796.827,-229.768 822.058,-234.445"/>
<polygon fill="midnightblue" stroke="midnightblue" points="741.302,-215.916 730.832,-217.535 740.026,-222.799 741.302,-215.916"/>
</g>
<!-- Node10 -->
<g id="node19" class="node"><title>Node10</title>
<a xlink:href="class_ro_r_frame_listener.html#a6b384193b130f7c1fff95d2e740a370e" target="_top" xlink:title="RoRFrameListener::updateEvents">
<polygon fill="white" stroke="black" points="1003.5,-137.5 1003.5,-158.5 1168.5,-158.5 1168.5,-137.5 1003.5,-137.5"/>
<text text-anchor="middle" x="1086" y="-145.5" font-family="Helvetica,sans-Serif" font-size="10.00">RoRFrameListener::updateEvents</text>
</a>
</g>
<!-- Node9&#45;&gt;Node10 -->
<g id="edge18" class="edge"><title>Node9&#45;&gt;Node10</title>
<path fill="none" stroke="midnightblue" d="M263.92,-121.488C285.834,-125.729 310.968,-130.119 334,-133 575.651,-163.229 864.322,-157.374 1003.25,-151.968"/>
<polygon fill="midnightblue" stroke="midnightblue" points="264.584,-118.052 254.097,-119.556 263.233,-124.92 264.584,-118.052"/>
</g>
<!-- Node11 -->
<g id="node22" class="node"><title>Node11</title>
<a xlink:href="class_ro_r_frame_listener.html#abbab3f9d2773790f0d8567ee4434a739" target="_top" xlink:title="RoRFrameListener::InitTrucks">
<polygon fill="white" stroke="black" points="804.5,-78.5 804.5,-99.5 953.5,-99.5 953.5,-78.5 804.5,-78.5"/>
<text text-anchor="middle" x="879" y="-86.5" font-family="Helvetica,sans-Serif" font-size="10.00">RoRFrameListener::InitTrucks</text>
</a>
</g>
<!-- Node9&#45;&gt;Node11 -->
<g id="edge22" class="edge"><title>Node9&#45;&gt;Node11</title>
<path fill="none" stroke="midnightblue" d="M241.272,-94.9508C266.773,-85.8422 301.93,-74.8084 334,-70 524.757,-41.3987 575.876,-51.8298 768,-69 788.869,-70.865 811.684,-74.665 831.173,-78.4566"/>
<polygon fill="midnightblue" stroke="midnightblue" points="239.852,-91.7429 231.657,-98.4573 242.251,-98.3192 239.852,-91.7429"/>
</g>
<!-- Node17 -->
<g id="node35" class="node"><title>Node17</title>
<a xlink:href="class_ro_r_frame_listener.html#accf1a2895ee6b67789cfaa570bfa01cb" target="_top" xlink:title="RoRFrameListener::reloadCurrentTruck">
<polygon fill="white" stroke="black" points="580,-118.5 580,-139.5 768,-139.5 768,-118.5 580,-118.5"/>
<text text-anchor="middle" x="674" y="-126.5" font-family="Helvetica,sans-Serif" font-size="10.00">RoRFrameListener::reloadCurrentTruck</text>
</a>
</g>
<!-- Node9&#45;&gt;Node17 -->
<g id="edge36" class="edge"><title>Node9&#45;&gt;Node17</title>
<path fill="none" stroke="midnightblue" d="M308.441,-113.411C389.45,-116.866 501.198,-121.631 579.752,-124.981"/>
<polygon fill="midnightblue" stroke="midnightblue" points="308.36,-109.905 298.22,-112.975 308.062,-116.898 308.36,-109.905"/>
</g>
<!-- Node18 -->
<g id="node38" class="node"><title>Node18</title>
<a xlink:href="class_terrain_object_manager.html#a202d577cb222f42c46e5b6600c9626a4" target="_top" xlink:title="TerrainObjectManager::loadPreloadedTrucks">
<polygon fill="white" stroke="black" points="334,-79.5 334,-100.5 544,-100.5 544,-79.5 334,-79.5"/>
<text text-anchor="middle" x="439" y="-87.5" font-family="Helvetica,sans-Serif" font-size="10.00">TerrainObjectManager::loadPreloadedTrucks</text>
</a>
</g>
<!-- Node9&#45;&gt;Node18 -->
<g id="edge40" class="edge"><title>Node9&#45;&gt;Node18</title>
<path fill="none" stroke="midnightblue" d="M308.395,-100.605C316.839,-99.9191 325.378,-99.2257 333.834,-98.5391"/>
<polygon fill="midnightblue" stroke="midnightblue" points="307.839,-97.1382 298.155,-101.436 308.406,-104.115 307.839,-97.1382"/>
</g>
<!-- Node10&#45;&gt;Node7 -->
<g id="edge20" class="edge"><title>Node10&#45;&gt;Node7</title>
<path fill="none" stroke="midnightblue" d="M1178.72,-148C1191.96,-148 1205.5,-148 1218.49,-148"/>
<polygon fill="midnightblue" stroke="midnightblue" points="1178.66,-144.5 1168.66,-148 1178.66,-151.5 1178.66,-144.5"/>
</g>
<!-- Node11&#45;&gt;Node10 -->
<g id="edge24" class="edge"><title>Node11&#45;&gt;Node10</title>
<path fill="none" stroke="midnightblue" d="M925.638,-102.293C962.92,-112.919 1014.47,-127.614 1048.96,-137.444"/>
<polygon fill="midnightblue" stroke="midnightblue" points="926.584,-98.9232 916.007,-99.548 924.665,-105.655 926.584,-98.9232"/>
</g>
<!-- Node12 -->
<g id="node25" class="node"><title>Node12</title>
<a xlink:href="class_ro_r_1_1_main_thread.html#aa3feeebda7f3f4c31a6cb96ea60c09e0" target="_top" xlink:title="RoR::MainThread::SetupGameplayLoop">
<polygon fill="white" stroke="black" points="990.5,-78.5 990.5,-99.5 1181.5,-99.5 1181.5,-78.5 990.5,-78.5"/>
<text text-anchor="middle" x="1086" y="-86.5" font-family="Helvetica,sans-Serif" font-size="10.00">RoR::MainThread::SetupGameplayLoop</text>
</a>
</g>
<!-- Node11&#45;&gt;Node12 -->
<g id="edge26" class="edge"><title>Node11&#45;&gt;Node12</title>
<path fill="none" stroke="midnightblue" d="M963.912,-89C972.669,-89 981.609,-89 990.472,-89"/>
<polygon fill="midnightblue" stroke="midnightblue" points="963.732,-85.5001 953.732,-89 963.732,-92.5001 963.732,-85.5001"/>
</g>
<!-- Node13 -->
<g id="node27" class="node"><title>Node13</title>
<a xlink:href="class_ro_r_1_1_main_thread.html#a7e4d0bd23a40e509892883af75ea0dbf" target="_top" xlink:title="RoR::MainThread::Go">
<polygon fill="white" stroke="black" points="1242.5,-78.5 1242.5,-99.5 1355.5,-99.5 1355.5,-78.5 1242.5,-78.5"/>
<text text-anchor="middle" x="1299" y="-86.5" font-family="Helvetica,sans-Serif" font-size="10.00">RoR::MainThread::Go</text>
</a>
</g>
<!-- Node12&#45;&gt;Node13 -->
<g id="edge28" class="edge"><title>Node12&#45;&gt;Node13</title>
<path fill="none" stroke="midnightblue" d="M1191.86,-89C1209.32,-89 1226.81,-89 1242.44,-89"/>
<polygon fill="midnightblue" stroke="midnightblue" points="1191.6,-85.5001 1181.6,-89 1191.6,-92.5001 1191.6,-85.5001"/>
</g>
<!-- Node14 -->
<g id="node29" class="node"><title>Node14</title>
<a xlink:href="main_2main__sim_2main_8cpp.html#a0ddf1224851353fc92bfbff6f499fa97" target="_top" xlink:title="main">
<polygon fill="white" stroke="black" points="1482,-98.5 1482,-119.5 1520,-119.5 1520,-98.5 1482,-98.5"/>
<text text-anchor="middle" x="1501" y="-106.5" font-family="Helvetica,sans-Serif" font-size="10.00">main</text>
</a>
</g>
<!-- Node13&#45;&gt;Node14 -->
<g id="edge30" class="edge"><title>Node13&#45;&gt;Node14</title>
<path fill="none" stroke="midnightblue" d="M1365.66,-95.5998C1406.25,-99.6193 1455.25,-104.471 1481.74,-107.093"/>
<polygon fill="midnightblue" stroke="midnightblue" points="1365.83,-92.1001 1355.54,-94.5977 1365.14,-99.066 1365.83,-92.1001"/>
</g>
<!-- Node15 -->
<g id="node31" class="node"><title>Node15</title>
<a xlink:href="class_ro_r_1_1_main_thread.html#a7a2db954fd2f35d63982d8603d2b9614" target="_top" xlink:title="RoR::MainThread::RequestRestart">
<polygon fill="white" stroke="black" points="1416.5,-58.5 1416.5,-79.5 1585.5,-79.5 1585.5,-58.5 1416.5,-58.5"/>
<text text-anchor="middle" x="1501" y="-66.5" font-family="Helvetica,sans-Serif" font-size="10.00">RoR::MainThread::RequestRestart</text>
</a>
</g>
<!-- Node13&#45;&gt;Node15 -->
<g id="edge32" class="edge"><title>Node13&#45;&gt;Node15</title>
<path fill="none" stroke="midnightblue" d="M1365.89,-82.3767C1381.97,-80.7847 1399.36,-79.0634 1416.14,-77.4024"/>
<polygon fill="midnightblue" stroke="midnightblue" points="1365.14,-78.934 1355.54,-83.4023 1365.83,-85.8999 1365.14,-78.934"/>
</g>
<!-- Node16 -->
<g id="node33" class="node"><title>Node16</title>
<a xlink:href="class_ro_r_frame_listener.html#af2779b96aa0f91920bd100bc30261402" target="_top" xlink:title="RoRFrameListener::Restart">
<polygon fill="white" stroke="black" points="1622.5,-58.5 1622.5,-79.5 1759.5,-79.5 1759.5,-58.5 1622.5,-58.5"/>
<text text-anchor="middle" x="1691" y="-66.5" font-family="Helvetica,sans-Serif" font-size="10.00">RoRFrameListener::Restart</text>
</a>
</g>
<!-- Node15&#45;&gt;Node16 -->
<g id="edge34" class="edge"><title>Node15&#45;&gt;Node16</title>
<path fill="none" stroke="midnightblue" d="M1595.82,-69C1604.78,-69 1613.75,-69 1622.4,-69"/>
<polygon fill="midnightblue" stroke="midnightblue" points="1595.72,-65.5001 1585.72,-69 1595.72,-72.5001 1595.72,-65.5001"/>
</g>
<!-- Node17&#45;&gt;Node10 -->
<g id="edge38" class="edge"><title>Node17&#45;&gt;Node10</title>
<path fill="none" stroke="midnightblue" d="M778.136,-133.802C847.865,-137.018 938.401,-141.193 1003.21,-144.182"/>
<polygon fill="midnightblue" stroke="midnightblue" points="778.155,-130.3 768.005,-133.335 777.833,-137.292 778.155,-130.3"/>
</g>
<!-- Node19 -->
<g id="node40" class="node"><title>Node19</title>
<a xlink:href="class_terrain_manager.html#ac666fc0221c16001186b83cd6df66691" target="_top" xlink:title="TerrainManager::loadPreloadedTrucks">
<polygon fill="white" stroke="black" points="583,-78.5 583,-99.5 765,-99.5 765,-78.5 583,-78.5"/>
<text text-anchor="middle" x="674" y="-86.5" font-family="Helvetica,sans-Serif" font-size="10.00">TerrainManager::loadPreloadedTrucks</text>
</a>
</g>
<!-- Node18&#45;&gt;Node19 -->
<g id="edge42" class="edge"><title>Node18&#45;&gt;Node19</title>
<path fill="none" stroke="midnightblue" d="M554.176,-89.5099C563.837,-89.4688 573.518,-89.4276 582.959,-89.3874"/>
<polygon fill="midnightblue" stroke="midnightblue" points="554.113,-86.01 544.128,-89.5526 554.143,-93.01 554.113,-86.01"/>
</g>
<!-- Node19&#45;&gt;Node11 -->
<g id="edge44" class="edge"><title>Node19&#45;&gt;Node11</title>
<path fill="none" stroke="midnightblue" d="M775.318,-89C785.134,-89 794.964,-89 804.448,-89"/>
<polygon fill="midnightblue" stroke="midnightblue" points="775.11,-85.5001 765.11,-89 775.11,-92.5001 775.11,-85.5001"/>
</g>
<!-- Node21 -->
<g id="node45" class="node"><title>Node21</title>
<a xlink:href="class_script_engine.html#a05631d095d3ed370791fb2e67344da32" target="_top" xlink:title="ScriptEngine::ScriptEngine">
<polygon fill="white" stroke="black" points="372,-0.5 372,-21.5 506,-21.5 506,-0.5 372,-0.5"/>
<text text-anchor="middle" x="439" y="-8.5" font-family="Helvetica,sans-Serif" font-size="10.00">ScriptEngine::ScriptEngine</text>
</a>
</g>
<!-- Node20&#45;&gt;Node21 -->
<g id="edge48" class="edge"><title>Node20&#45;&gt;Node21</title>
<path fill="none" stroke="midnightblue" d="M260.608,-40.7319C295.205,-34.9658 339.795,-27.5342 375.739,-21.5435"/>
<polygon fill="midnightblue" stroke="midnightblue" points="259.962,-37.2914 250.673,-42.3878 261.112,-44.1961 259.962,-37.2914"/>
</g>
</g>
</svg>
        <g id="navigator" transform="translate(0 0)" fill="#404254">
                <rect fill="#f2f5e9" fill-opacity="0.5" stroke="#606060" stroke-width=".5" x="0" y="0" width="60" height="60"/>
                <use id="zoomplus" xlink:href="#zoomPlus" x="17" y="9" onmousedown="handleZoom(evt,'in')"/>
                <use id="zoomminus" xlink:href="#zoomMin" x="42" y="9" onmousedown="handleZoom(evt,'out')"/>
                <use id="reset" xlink:href="#resetDef" x="30" y="36" onmousedown="handleReset()"/>
                <g id="arrowUp" xlink:href="#dirArrow" transform="translate(30 24)" onmousedown="handlePan(0,-1)">
                  <use xlink:href="#rim" fill="#404040">
                        <set attributeName="fill" to="#808080" begin="arrowUp.mouseover" end="arrowUp.mouseout"/>
                  </use>
                  <path fill="none" stroke="white" stroke-width="1.5" d="M0,-3.0v7 M-2.5,-0.5L0,-3.0L2.5,-0.5"/>
                </g>
                <g id="arrowRight" xlink:href="#dirArrow" transform="rotate(90) translate(36 -43)" onmousedown="handlePan(1,0)">
                  <use xlink:href="#rim" fill="#404040">
                        <set attributeName="fill" to="#808080" begin="arrowRight.mouseover" end="arrowRight.mouseout"/>
                  </use>
                  <path fill="none" stroke="white" stroke-width="1.5" d="M0,-3.0v7 M-2.5,-0.5L0,-3.0L2.5,-0.5"/>
                </g>
                <g id="arrowDown" xlink:href="#dirArrow" transform="rotate(180) translate(-30 -48)" onmousedown="handlePan(0,1)">
                  <use xlink:href="#rim" fill="#404040">
                        <set attributeName="fill" to="#808080" begin="arrowDown.mouseover" end="arrowDown.mouseout"/>
                  </use>
                  <path fill="none" stroke="white" stroke-width="1.5" d="M0,-3.0v7 M-2.5,-0.5L0,-3.0L2.5,-0.5"/>
                </g>
                <g id="arrowLeft" xlink:href="#dirArrow" transform="rotate(270) translate(-36 17)" onmousedown="handlePan(-1,0)">
                  <use xlink:href="#rim" fill="#404040">
                        <set attributeName="fill" to="#808080" begin="arrowLeft.mouseover" end="arrowLeft.mouseout"/>
                  </use>
                  <path fill="none" stroke="white" stroke-width="1.5" d="M0,-3.0v7 M-2.5,-0.5L0,-3.0L2.5,-0.5"/>
                </g>
        </g>
</svg>
