<?xml version="1.0" encoding="UTF-8" standalone="no"?>
<!DOCTYPE svg PUBLIC "-//W3C//DTD SVG 1.1//EN"
 "http://www.w3.org/Graphics/SVG/1.1/DTD/svg11.dtd">
<!-- Generated by graphviz version 2.26.3 (20100126.1600)
 -->
<!-- Title: RoR::FileSystem::isAbsolutePath Pages: 1 -->
<svg width="1362pt" height="416pt"
 viewBox="0.00 0.00 1362.00 416.00" xmlns="http://www.w3.org/2000/svg" xmlns:xlink="http://www.w3.org/1999/xlink">
<g id="graph1" class="graph" transform="scale(1 1) rotate(0) translate(4 412)">
<title>RoR::FileSystem::isAbsolutePath</title>
<polygon fill="white" stroke="white" points="-4,5 -4,-412 1359,-412 1359,5 -4,5"/>
<!-- Node1 -->
<g id="node1" class="node"><title>Node1</title>
<polygon fill="#bfbfbf" stroke="black" points="0,-335.5 0,-356.5 164,-356.5 164,-335.5 0,-335.5"/>
<text text-anchor="middle" x="82" y="-343.5" font-family="Helvetica,sans-Serif" font-size="10.00">RoR::FileSystem::isAbsolutePath</text>
</g>
<!-- Node2 -->
<g id="node3" class="node"><title>Node2</title>
<a xlink:href="namespace_ro_r_1_1_file_system.html#a78a496cdd3796294fcd6c3c452a23f10" target="_top" xlink:title="RoR::FileSystem::concatenatePath">
<polygon fill="white" stroke="black" points="200,-335.5 200,-356.5 372,-356.5 372,-335.5 200,-335.5"/>
<text text-anchor="middle" x="286" y="-343.5" font-family="Helvetica,sans-Serif" font-size="10.00">RoR::FileSystem::concatenatePath</text>
</a>
</g>
<!-- Node1&#45;&gt;Node2 -->
<g id="edge2" class="edge"><title>Node1&#45;&gt;Node2</title>
<path fill="none" stroke="midnightblue" d="M174.346,-346C182.801,-346 191.345,-346 199.743,-346"/>
<polygon fill="midnightblue" stroke="midnightblue" points="174.093,-342.5 164.093,-346 174.093,-349.5 174.093,-342.5"/>
</g>
<!-- Node3 -->
<g id="node5" class="node"><title>Node3</title>
<a xlink:href="class_ro_r_1_1_g_u_i_1_1_open_save_file_dialog.html#ae04117018b6a0c82aee604912d9e7831" target="_top" xlink:title="RoR::GUI::OpenSaveFileDialog\l::notifyListSelectAccept">
<polygon fill="white" stroke="black" points="990,-239 990,-273 1146,-273 1146,-239 990,-239"/>
<text text-anchor="start" x="998" y="-260" font-family="Helvetica,sans-Serif" font-size="10.00">RoR::GUI::OpenSaveFileDialog</text>
<text text-anchor="middle" x="1068" y="-247" font-family="Helvetica,sans-Serif" font-size="10.00">::notifyListSelectAccept</text>
</a>
</g>
<!-- Node2&#45;&gt;Node3 -->
<g id="edge4" class="edge"><title>Node2&#45;&gt;Node3</title>
<path fill="none" stroke="midnightblue" d="M382.162,-350.824C538.243,-357.384 839.227,-364.397 938,-327 957.478,-319.625 956.277,-307.94 974,-297 988.847,-287.835 1006.1,-279.679 1021.75,-273.102"/>
<polygon fill="midnightblue" stroke="midnightblue" points="382.235,-347.324 372.094,-350.393 381.935,-354.317 382.235,-347.324"/>
</g>
<!-- Node5 -->
<g id="node9" class="node"><title>Node5</title>
<a xlink:href="class_ro_r_1_1_g_u_i_1_1_open_save_file_dialog.html#acd8a186858a3b784b4ec6dc5f070b61a" target="_top" xlink:title="RoR::GUI::OpenSaveFileDialog\l::accept">
<polygon fill="white" stroke="black" points="782,-374 782,-408 938,-408 938,-374 782,-374"/>
<text text-anchor="start" x="790" y="-395" font-family="Helvetica,sans-Serif" font-size="10.00">RoR::GUI::OpenSaveFileDialog</text>
<text text-anchor="middle" x="860" y="-382" font-family="Helvetica,sans-Serif" font-size="10.00">::accept</text>
</a>
</g>
<!-- Node2&#45;&gt;Node5 -->
<g id="edge8" class="edge"><title>Node2&#45;&gt;Node5</title>
<path fill="none" stroke="midnightblue" d="M382.407,-357.477C391.056,-358.381 399.684,-359.238 408,-360 539.004,-372.003 691.759,-381.554 781.928,-386.734"/>
<polygon fill="midnightblue" stroke="midnightblue" points="382.575,-353.975 372.261,-356.396 381.834,-360.936 382.575,-353.975"/>
</g>
<!-- Node8 -->
<g id="node18" class="node"><title>Node8</title>
<a xlink:href="namespace_ro_r_1_1_file_system.html#ae33ccfefa159afb285835c8fa5498a8b" target="_top" xlink:title="RoR::FileSystem::getSystem\lFileList">
<polygon fill="white" stroke="black" points="408,-194 408,-228 554,-228 554,-194 408,-194"/>
<text text-anchor="start" x="416" y="-215" font-family="Helvetica,sans-Serif" font-size="10.00">RoR::FileSystem::getSystem</text>
<text text-anchor="middle" x="481" y="-202" font-family="Helvetica,sans-Serif" font-size="10.00">FileList</text>
</a>
</g>
<!-- Node2&#45;&gt;Node8 -->
<g id="edge20" class="edge"><title>Node2&#45;&gt;Node8</title>
<path fill="none" stroke="midnightblue" d="M309.988,-329.393C347.203,-303.629 418.483,-254.281 456.192,-228.175"/>
<polygon fill="midnightblue" stroke="midnightblue" points="307.531,-326.837 301.301,-335.407 311.516,-332.592 307.531,-326.837"/>
</g>
<!-- Node4 -->
<g id="node7" class="node"><title>Node4</title>
<a xlink:href="class_ro_r_1_1_g_u_i_1_1_open_save_file_dialog.html#a14c64d9f8f06ca966e37cb11d63fe28b" target="_top" xlink:title="RoR::GUI::OpenSaveFileDialog\l::OpenSaveFileDialog">
<polygon fill="white" stroke="black" points="1198,-142 1198,-176 1354,-176 1354,-142 1198,-142"/>
<text text-anchor="start" x="1206" y="-163" font-family="Helvetica,sans-Serif" font-size="10.00">RoR::GUI::OpenSaveFileDialog</text>
<text text-anchor="middle" x="1276" y="-150" font-family="Helvetica,sans-Serif" font-size="10.00">::OpenSaveFileDialog</text>
</a>
</g>
<!-- Node3&#45;&gt;Node4 -->
<g id="edge6" class="edge"><title>Node3&#45;&gt;Node4</title>
<path fill="none" stroke="midnightblue" d="M1113.95,-234.57C1151.67,-216.98 1204.37,-192.403 1239.31,-176.11"/>
<polygon fill="midnightblue" stroke="midnightblue" points="1112.29,-231.483 1104.71,-238.882 1115.25,-237.827 1112.29,-231.483"/>
</g>
<!-- Node5&#45;&gt;Node3 -->
<g id="edge18" class="edge"><title>Node5&#45;&gt;Node3</title>
<path fill="none" stroke="midnightblue" d="M925.282,-369.135C929.809,-366.412 934.111,-363.377 938,-360 962.352,-338.858 950.001,-318.541 974,-297 985.13,-287.01 999.076,-279.162 1012.79,-273.125"/>
<polygon fill="midnightblue" stroke="midnightblue" points="923.46,-366.142 916.35,-373.997 926.806,-372.29 923.46,-366.142"/>
</g>
<!-- Node6 -->
<g id="node11" class="node"><title>Node6</title>
<a xlink:href="class_ro_r_1_1_g_u_i_1_1_open_save_file_dialog.html#ade891e7428df4a7a4f99765b0c492361" target="_top" xlink:title="RoR::GUI::OpenSaveFileDialog\l::notifyEditSelectAccept">
<polygon fill="white" stroke="black" points="990,-306 990,-340 1146,-340 1146,-306 990,-306"/>
<text text-anchor="start" x="998" y="-327" font-family="Helvetica,sans-Serif" font-size="10.00">RoR::GUI::OpenSaveFileDialog</text>
<text text-anchor="middle" x="1068" y="-314" font-family="Helvetica,sans-Serif" font-size="10.00">::notifyEditSelectAccept</text>
</a>
</g>
<!-- Node5&#45;&gt;Node6 -->
<g id="edge10" class="edge"><title>Node5&#45;&gt;Node6</title>
<path fill="none" stroke="midnightblue" d="M922.11,-370.695C951.953,-360.938 987.322,-349.376 1015.76,-340.079"/>
<polygon fill="midnightblue" stroke="midnightblue" points="920.636,-367.494 912.219,-373.929 922.811,-374.148 920.636,-367.494"/>
</g>
<!-- Node7 -->
<g id="node14" class="node"><title>Node7</title>
<a xlink:href="class_ro_r_1_1_g_u_i_1_1_open_save_file_dialog.html#a8ff36b68147395ca8b37ad485471f79d" target="_top" xlink:title="RoR::GUI::OpenSaveFileDialog\l::notifyMouseButtonClick">
<polygon fill="white" stroke="black" points="990,-366 990,-400 1146,-400 1146,-366 990,-366"/>
<text text-anchor="start" x="998" y="-387" font-family="Helvetica,sans-Serif" font-size="10.00">RoR::GUI::OpenSaveFileDialog</text>
<text text-anchor="middle" x="1068" y="-374" font-family="Helvetica,sans-Serif" font-size="10.00">::notifyMouseButtonClick</text>
</a>
</g>
<!-- Node5&#45;&gt;Node7 -->
<g id="edge14" class="edge"><title>Node5&#45;&gt;Node7</title>
<path fill="none" stroke="midnightblue" d="M948.07,-387.613C961.954,-387.079 976.227,-386.53 989.865,-386.005"/>
<polygon fill="midnightblue" stroke="midnightblue" points="947.901,-384.116 938.043,-387.998 948.17,-391.111 947.901,-384.116"/>
</g>
<!-- Node6&#45;&gt;Node4 -->
<g id="edge12" class="edge"><title>Node6&#45;&gt;Node4</title>
<path fill="none" stroke="midnightblue" d="M1126.63,-301.886C1138.83,-296.289 1151.24,-289.638 1162,-282 1205.21,-251.326 1244.6,-202.099 1263.76,-176.202"/>
<polygon fill="midnightblue" stroke="midnightblue" points="1125.12,-298.728 1117.38,-305.959 1127.94,-305.135 1125.12,-298.728"/>
</g>
<!-- Node7&#45;&gt;Node4 -->
<g id="edge16" class="edge"><title>Node7&#45;&gt;Node4</title>
<path fill="none" stroke="midnightblue" d="M1143.15,-361.312C1149.87,-357.78 1156.29,-353.701 1162,-349 1192.29,-324.063 1246.7,-218.217 1267.55,-176.247"/>
<polygon fill="midnightblue" stroke="midnightblue" points="1141.31,-358.31 1133.82,-365.798 1144.35,-364.619 1141.31,-358.31"/>
</g>
<!-- Node9 -->
<g id="node20" class="node"><title>Node9</title>
<a xlink:href="class_ro_r_1_1_g_u_i_1_1_open_save_file_dialog.html#a8c1b024be96a42a6be82b75bad012e1e" target="_top" xlink:title="RoR::GUI::OpenSaveFileDialog\l::update">
<polygon fill="white" stroke="black" points="590,-194 590,-228 746,-228 746,-194 590,-194"/>
<text text-anchor="start" x="598" y="-215" font-family="Helvetica,sans-Serif" font-size="10.00">RoR::GUI::OpenSaveFileDialog</text>
<text text-anchor="middle" x="668" y="-202" font-family="Helvetica,sans-Serif" font-size="10.00">::update</text>
</a>
</g>
<!-- Node8&#45;&gt;Node9 -->
<g id="edge22" class="edge"><title>Node8&#45;&gt;Node9</title>
<path fill="none" stroke="midnightblue" d="M564.323,-211C572.762,-211 581.313,-211 589.697,-211"/>
<polygon fill="midnightblue" stroke="midnightblue" points="564.103,-207.5 554.103,-211 564.102,-214.5 564.103,-207.5"/>
</g>
<!-- Node17 -->
<g id="node42" class="node"><title>Node17</title>
<a xlink:href="namespace_ro_r_1_1_file_system.html#adf08cda1b817d4d2bdc9393529069c72" target="_top" xlink:title="RoR::FileSystem::scanFolder">
<polygon fill="white" stroke="black" points="595,-154.5 595,-175.5 741,-175.5 741,-154.5 595,-154.5"/>
<text text-anchor="middle" x="668" y="-162.5" font-family="Helvetica,sans-Serif" font-size="10.00">RoR::FileSystem::scanFolder</text>
</a>
</g>
<!-- Node8&#45;&gt;Node17 -->
<g id="edge50" class="edge"><title>Node8&#45;&gt;Node17</title>
<path fill="none" stroke="midnightblue" d="M560.16,-191.527C582.424,-186.051 605.799,-180.301 625.073,-175.56"/>
<polygon fill="midnightblue" stroke="midnightblue" points="559.241,-188.149 550.366,-193.937 560.913,-194.947 559.241,-188.149"/>
</g>
<!-- Node9&#45;&gt;Node3 -->
<g id="edge26" class="edge"><title>Node9&#45;&gt;Node3</title>
<path fill="none" stroke="midnightblue" d="M744.489,-230.186C756.964,-232.812 769.796,-235.214 782,-237 851.918,-247.23 932.267,-251.957 989.962,-254.138"/>
<polygon fill="midnightblue" stroke="midnightblue" points="745.093,-226.736 734.579,-228.039 743.611,-233.577 745.093,-226.736"/>
</g>
<!-- Node9&#45;&gt;Node4 -->
<g id="edge24" class="edge"><title>Node9&#45;&gt;Node4</title>
<path fill="none" stroke="midnightblue" d="M740.364,-188.869C742.307,-187.646 744.191,-186.357 746,-185 768.487,-168.135 757.102,-146.046 782,-133 856.799,-93.8088 1078.09,-123.552 1162,-133 1178.64,-134.874 1196.4,-138.24 1212.82,-141.942"/>
<polygon fill="midnightblue" stroke="midnightblue" points="738.532,-185.883 731.521,-193.826 741.955,-191.989 738.532,-185.883"/>
</g>
<!-- Node10 -->
<g id="node24" class="node"><title>Node10</title>
<a xlink:href="class_ro_r_1_1_g_u_i_1_1_open_save_file_dialog.html#af224be69b772262517ad470e2c9977c8" target="_top" xlink:title="RoR::GUI::OpenSaveFileDialog\l::upFolder">
<polygon fill="white" stroke="black" points="782,-142 782,-176 938,-176 938,-142 782,-142"/>
<text text-anchor="start" x="790" y="-163" font-family="Helvetica,sans-Serif" font-size="10.00">RoR::GUI::OpenSaveFileDialog</text>
<text text-anchor="middle" x="860" y="-150" font-family="Helvetica,sans-Serif" font-size="10.00">::upFolder</text>
</a>
</g>
<!-- Node9&#45;&gt;Node10 -->
<g id="edge28" class="edge"><title>Node9&#45;&gt;Node10</title>
<path fill="none" stroke="midnightblue" d="M740.719,-191.305C759.242,-186.288 778.997,-180.938 796.991,-176.065"/>
<polygon fill="midnightblue" stroke="midnightblue" points="739.605,-187.981 730.868,-193.973 741.435,-194.737 739.605,-187.981"/>
</g>
<!-- Node12 -->
<g id="node30" class="node"><title>Node12</title>
<a xlink:href="class_ro_r_1_1_g_u_i_1_1_open_save_file_dialog.html#a9ea53706725c664f1977f406e7bad2d3" target="_top" xlink:title="RoR::GUI::OpenSaveFileDialog\l::setCurrentFolder">
<polygon fill="white" stroke="black" points="782,-52 782,-86 938,-86 938,-52 782,-52"/>
<text text-anchor="start" x="790" y="-73" font-family="Helvetica,sans-Serif" font-size="10.00">RoR::GUI::OpenSaveFileDialog</text>
<text text-anchor="middle" x="860" y="-60" font-family="Helvetica,sans-Serif" font-size="10.00">::setCurrentFolder</text>
</a>
</g>
<!-- Node9&#45;&gt;Node12 -->
<g id="edge36" class="edge"><title>Node9&#45;&gt;Node12</title>
<path fill="none" stroke="midnightblue" d="M742.433,-188.051C743.662,-187.076 744.853,-186.06 746,-185 776.131,-157.156 752.668,-128.684 782,-100 787.626,-94.4983 794.349,-89.9384 801.456,-86.1676"/>
<polygon fill="midnightblue" stroke="midnightblue" points="740.123,-185.389 733.821,-193.906 744.059,-191.178 740.123,-185.389"/>
</g>
<!-- Node15 -->
<g id="node38" class="node"><title>Node15</title>
<a xlink:href="class_ro_r_1_1_g_u_i_1_1_open_save_file_dialog.html#a8c491ab1e94d314e5bbcda1f01a47199" target="_top" xlink:title="RoR::GUI::OpenSaveFileDialog\l::setFileMask">
<polygon fill="white" stroke="black" points="782,-284 782,-318 938,-318 938,-284 782,-284"/>
<text text-anchor="start" x="790" y="-305" font-family="Helvetica,sans-Serif" font-size="10.00">RoR::GUI::OpenSaveFileDialog</text>
<text text-anchor="middle" x="860" y="-292" font-family="Helvetica,sans-Serif" font-size="10.00">::setFileMask</text>
</a>
</g>
<!-- Node9&#45;&gt;Node15 -->
<g id="edge46" class="edge"><title>Node9&#45;&gt;Node15</title>
<path fill="none" stroke="midnightblue" d="M707.946,-232.911C729.603,-244.474 756.985,-258.59 782,-270 792.474,-274.777 803.911,-279.558 814.72,-283.886"/>
<polygon fill="midnightblue" stroke="midnightblue" points="709.505,-229.775 699.039,-228.127 706.193,-235.942 709.505,-229.775"/>
</g>
<!-- Node16 -->
<g id="node40" class="node"><title>Node16</title>
<a xlink:href="class_ro_r_1_1_g_u_i_1_1_open_save_file_dialog.html#ab9fd3841c9e9b1807e2cfa64f4f1e623" target="_top" xlink:title="RoR::GUI::OpenSaveFileDialog\l::onDoModal">
<polygon fill="white" stroke="black" points="782,-194 782,-228 938,-228 938,-194 782,-194"/>
<text text-anchor="start" x="790" y="-215" font-family="Helvetica,sans-Serif" font-size="10.00">RoR::GUI::OpenSaveFileDialog</text>
<text text-anchor="middle" x="860" y="-202" font-family="Helvetica,sans-Serif" font-size="10.00">::onDoModal</text>
</a>
</g>
<!-- Node9&#45;&gt;Node16 -->
<g id="edge48" class="edge"><title>Node9&#45;&gt;Node16</title>
<path fill="none" stroke="midnightblue" d="M756.153,-211C764.769,-211 773.47,-211 781.975,-211"/>
<polygon fill="midnightblue" stroke="midnightblue" points="756.094,-207.5 746.094,-211 756.094,-214.5 756.094,-207.5"/>
</g>
<!-- Node10&#45;&gt;Node3 -->
<g id="edge34" class="edge"><title>Node10&#45;&gt;Node3</title>
<path fill="none" stroke="midnightblue" d="M925.114,-179.725C929.508,-181.424 933.839,-183.187 938,-185 974.543,-200.918 1014.49,-223.589 1040.33,-238.999"/>
<polygon fill="midnightblue" stroke="midnightblue" points="926.028,-176.331 915.435,-176.117 923.582,-182.89 926.028,-176.331"/>
</g>
<!-- Node11 -->
<g id="node26" class="node"><title>Node11</title>
<a xlink:href="class_ro_r_1_1_g_u_i_1_1_open_save_file_dialog.html#a4ef8849803f1eb561068375f50c7919b" target="_top" xlink:title="RoR::GUI::OpenSaveFileDialog\l::notifyUpButtonClick">
<polygon fill="white" stroke="black" points="990,-142 990,-176 1146,-176 1146,-142 990,-142"/>
<text text-anchor="start" x="998" y="-163" font-family="Helvetica,sans-Serif" font-size="10.00">RoR::GUI::OpenSaveFileDialog</text>
<text text-anchor="middle" x="1068" y="-150" font-family="Helvetica,sans-Serif" font-size="10.00">::notifyUpButtonClick</text>
</a>
</g>
<!-- Node10&#45;&gt;Node11 -->
<g id="edge30" class="edge"><title>Node10&#45;&gt;Node11</title>
<path fill="none" stroke="midnightblue" d="M948.07,-159C961.954,-159 976.227,-159 989.865,-159"/>
<polygon fill="midnightblue" stroke="midnightblue" points="948.043,-155.5 938.043,-159 948.043,-162.5 948.043,-155.5"/>
</g>
<!-- Node11&#45;&gt;Node4 -->
<g id="edge32" class="edge"><title>Node11&#45;&gt;Node4</title>
<path fill="none" stroke="midnightblue" d="M1156.07,-159C1169.95,-159 1184.23,-159 1197.87,-159"/>
<polygon fill="midnightblue" stroke="midnightblue" points="1156.04,-155.5 1146.04,-159 1156.04,-162.5 1156.04,-155.5"/>
</g>
<!-- Node13 -->
<g id="node32" class="node"><title>Node13</title>
<a xlink:href="class_ro_r_1_1_g_u_i_1_1_open_save_file_dialog.html#a9267253699dd8441295323f62b23afb9" target="_top" xlink:title="RoR::GUI::OpenSaveFileDialog\l::notifyDirectoryComboAccept">
<polygon fill="white" stroke="black" points="990,-0 990,-34 1146,-34 1146,-0 990,-0"/>
<text text-anchor="start" x="998" y="-21" font-family="Helvetica,sans-Serif" font-size="10.00">RoR::GUI::OpenSaveFileDialog</text>
<text text-anchor="middle" x="1068" y="-8" font-family="Helvetica,sans-Serif" font-size="10.00">::notifyDirectoryComboAccept</text>
</a>
</g>
<!-- Node12&#45;&gt;Node13 -->
<g id="edge38" class="edge"><title>Node12&#45;&gt;Node13</title>
<path fill="none" stroke="midnightblue" d="M937.947,-49.5132C958.254,-44.4365 979.977,-39.0057 999.74,-34.065"/>
<polygon fill="midnightblue" stroke="midnightblue" points="936.96,-46.1523 928.107,-51.9733 938.657,-52.9433 936.96,-46.1523"/>
</g>
<!-- Node14 -->
<g id="node35" class="node"><title>Node14</title>
<a xlink:href="class_ro_r_1_1_g_u_i_1_1_open_save_file_dialog.html#a037b18921b0deef4ca97e9f865c6540b" target="_top" xlink:title="RoR::GUI::OpenSaveFileDialog\l::notifyDirectoryComboChangePosition">
<polygon fill="white" stroke="black" points="974.5,-52 974.5,-86 1161.5,-86 1161.5,-52 974.5,-52"/>
<text text-anchor="start" x="982.5" y="-73" font-family="Helvetica,sans-Serif" font-size="10.00">RoR::GUI::OpenSaveFileDialog</text>
<text text-anchor="middle" x="1068" y="-60" font-family="Helvetica,sans-Serif" font-size="10.00">::notifyDirectoryComboChangePosition</text>
</a>
</g>
<!-- Node12&#45;&gt;Node14 -->
<g id="edge42" class="edge"><title>Node12&#45;&gt;Node14</title>
<path fill="none" stroke="midnightblue" d="M948.161,-69C956.851,-69 965.693,-69 974.435,-69"/>
<polygon fill="midnightblue" stroke="midnightblue" points="948.043,-65.5001 938.043,-69 948.043,-72.5001 948.043,-65.5001"/>
</g>
<!-- Node13&#45;&gt;Node4 -->
<g id="edge40" class="edge"><title>Node13&#45;&gt;Node4</title>
<path fill="none" stroke="midnightblue" d="M1153.16,-38.2824C1156.2,-39.7547 1159.15,-41.3252 1162,-43 1206.04,-68.9235 1244.8,-116.177 1263.72,-141.64"/>
<polygon fill="midnightblue" stroke="midnightblue" points="1154.41,-35.0087 1143.85,-34.1534 1151.57,-41.4075 1154.41,-35.0087"/>
</g>
<!-- Node14&#45;&gt;Node4 -->
<g id="edge44" class="edge"><title>Node14&#45;&gt;Node4</title>
<path fill="none" stroke="midnightblue" d="M1134.4,-89.4282C1143.76,-92.731 1153.18,-96.2921 1162,-100 1191.38,-112.353 1223.5,-129.315 1246.14,-141.883"/>
<polygon fill="midnightblue" stroke="midnightblue" points="1135.3,-86.0366 1124.71,-86.0845 1133.02,-92.654 1135.3,-86.0366"/>
</g>
</g>
</svg>
