<?xml version="1.0" encoding="UTF-8" standalone="no"?>
<!DOCTYPE svg PUBLIC "-//W3C//DTD SVG 1.1//EN"
 "http://www.w3.org/Graphics/SVG/1.1/DTD/svg11.dtd">
<!-- Generated by graphviz version 2.26.3 (20100126.1600)
 -->
<!-- Title: G Pages: 1 -->
<!--zoomable 344 -->
<svg id="main" version="1.1" xmlns="http://www.w3.org/2000/svg" xmlns:xlink="http://www.w3.org/1999/xlink" xml:space="preserve" onload="init(evt)">
        <defs>
                <circle id="rim" cx="0" cy="0" r="7"/>
                <circle id="rim2" cx="0" cy="0" r="3.5"/>
                <g id="zoomPlus">
                        <use xlink:href="#rim" fill="#404040">
                                <set attributeName="fill" to="#808080" begin="zoomplus.mouseover" end="zoomplus.mouseout"/>
                        </use>
                        <path d="M-4,0h8M0,-4v8" fill="none" stroke="white" stroke-width="1.5" pointer-events="none"/>
                </g>
                <g id="zoomMin">
                        <use xlink:href="#rim" fill="#404040">
                                <set attributeName="fill" to="#808080" begin="zoomminus.mouseover" end="zoomminus.mouseout"/>
                        </use>
                        <path d="M-4,0h8" fill="none" stroke="white" stroke-width="1.5" pointer-events="none"/>
                </g>
                <g id="dirArrow">
                        <path fill="none" stroke="white" stroke-width="1.5" d="M0,-3.0v7 M-2.5,-0.5L0,-3.0L2.5,-0.5"/>
                </g>
               <g id="resetDef">
                       <use xlink:href="#rim2" fill="#404040">
                               <set attributeName="fill" to="#808080" begin="reset.mouseover" end="reset.mouseout"/>
                       </use>
               </g>
        </defs>

<script type="text/javascript">
var viewWidth = 1544;
var viewHeight = 344;
var sectionId = 'dynsection-1';
</script>
<script xlink:href="svgpan.js"/>
<svg id="graph" class="graph">
<g id="viewport">
<title>G</title>
<polygon fill="white" stroke="white" points="-4,5 -4,-340 1541,-340 1541,5 -4,5"/>
<!-- Node1 -->
<g id="node1" class="node"><title>Node1</title>
<polygon fill="#bfbfbf" stroke="black" points="0,-275.5 0,-296.5 172,-296.5 172,-275.5 0,-275.5"/>
<text text-anchor="middle" x="86" y="-283.5" font-family="Helvetica,sans-Serif" font-size="10.00">RoR::FileSystem::concatenatePath</text>
</g>
<!-- Node2 -->
<g id="node3" class="node"><title>Node2</title>
<a xlink:href="class_ro_r_1_1_g_u_i_1_1_open_save_file_dialog.html#ae04117018b6a0c82aee604912d9e7831" target="_top" xlink:title="RoR::GUI::OpenSaveFileDialog::notifyListSelectAccept">
<polygon fill="white" stroke="black" points="955,-197.5 955,-218.5 1215,-218.5 1215,-197.5 955,-197.5"/>
<text text-anchor="middle" x="1085" y="-205.5" font-family="Helvetica,sans-Serif" font-size="10.00">RoR::GUI::OpenSaveFileDialog::notifyListSelectAccept</text>
</a>
</g>
<!-- Node1&#45;&gt;Node2 -->
<g id="edge2" class="edge"><title>Node1&#45;&gt;Node2</title>
<path fill="none" stroke="midnightblue" d="M182.387,-289.695C365.428,-295.727 756.611,-303.634 886,-267 903.823,-261.954 904.788,-252.846 922,-246 953.185,-233.596 989.41,-224.65 1019.78,-218.566"/>
<polygon fill="midnightblue" stroke="midnightblue" points="182.343,-286.191 172.231,-289.355 182.109,-293.187 182.343,-286.191"/>
</g>
<!-- Node4 -->
<g id="node7" class="node"><title>Node4</title>
<a xlink:href="class_ro_r_1_1_g_u_i_1_1_open_save_file_dialog.html#acd8a186858a3b784b4ec6dc5f070b61a" target="_top" xlink:title="RoR::GUI::OpenSaveFileDialog::accept">
<polygon fill="white" stroke="black" points="672.5,-314.5 672.5,-335.5 863.5,-335.5 863.5,-314.5 672.5,-314.5"/>
<text text-anchor="middle" x="768" y="-322.5" font-family="Helvetica,sans-Serif" font-size="10.00">RoR::GUI::OpenSaveFileDialog::accept</text>
</a>
</g>
<!-- Node1&#45;&gt;Node4 -->
<g id="edge6" class="edge"><title>Node1&#45;&gt;Node4</title>
<path fill="none" stroke="midnightblue" d="M181.143,-297.567C190.212,-298.474 199.276,-299.306 208,-300 370.738,-312.954 560.655,-319.666 672.254,-322.754"/>
<polygon fill="midnightblue" stroke="midnightblue" points="181.225,-294.057 170.919,-296.514 180.507,-301.02 181.225,-294.057"/>
</g>
<!-- Node7 -->
<g id="node16" class="node"><title>Node7</title>
<a xlink:href="namespace_ro_r_1_1_file_system.html#ae33ccfefa159afb285835c8fa5498a8b" target="_top" xlink:title="RoR::FileSystem::getSystemFileList">
<polygon fill="white" stroke="black" points="208.5,-158.5 208.5,-179.5 385.5,-179.5 385.5,-158.5 208.5,-158.5"/>
<text text-anchor="middle" x="297" y="-166.5" font-family="Helvetica,sans-Serif" font-size="10.00">RoR::FileSystem::getSystemFileList</text>
</a>
</g>
<!-- Node1&#45;&gt;Node7 -->
<g id="edge18" class="edge"><title>Node1&#45;&gt;Node7</title>
<path fill="none" stroke="midnightblue" d="M114.016,-270.465C157.564,-246.317 240.375,-200.399 277.794,-179.65"/>
<polygon fill="midnightblue" stroke="midnightblue" points="112.145,-267.5 105.097,-275.411 115.54,-273.622 112.145,-267.5"/>
</g>
<!-- Node3 -->
<g id="node5" class="node"><title>Node3</title>
<a xlink:href="class_ro_r_1_1_g_u_i_1_1_open_save_file_dialog.html#a14c64d9f8f06ca966e37cb11d63fe28b" target="_top" xlink:title="RoR::GUI::OpenSaveFileDialog::OpenSaveFileDialog">
<polygon fill="white" stroke="black" points="1284.5,-118.5 1284.5,-139.5 1535.5,-139.5 1535.5,-118.5 1284.5,-118.5"/>
<text text-anchor="middle" x="1410" y="-126.5" font-family="Helvetica,sans-Serif" font-size="10.00">RoR::GUI::OpenSaveFileDialog::OpenSaveFileDialog</text>
</a>
</g>
<!-- Node2&#45;&gt;Node3 -->
<g id="edge4" class="edge"><title>Node2&#45;&gt;Node3</title>
<path fill="none" stroke="midnightblue" d="M1138.37,-195.028C1202.19,-179.513 1307.79,-153.844 1366.76,-139.51"/>
<polygon fill="midnightblue" stroke="midnightblue" points="1137.38,-191.665 1128.49,-197.428 1139.04,-198.467 1137.38,-191.665"/>
</g>
<!-- Node4&#45;&gt;Node2 -->
<g id="edge16" class="edge"><title>Node4&#45;&gt;Node2</title>
<path fill="none" stroke="midnightblue" d="M865.289,-310.941C872.595,-307.944 879.602,-304.338 886,-300 909.875,-283.814 898.29,-262.427 922,-246 940.988,-232.844 963.903,-224.194 986.474,-218.521"/>
<polygon fill="midnightblue" stroke="midnightblue" points="864.059,-307.664 855.897,-314.418 866.49,-314.228 864.059,-307.664"/>
</g>
<!-- Node5 -->
<g id="node9" class="node"><title>Node5</title>
<a xlink:href="class_ro_r_1_1_g_u_i_1_1_open_save_file_dialog.html#ade891e7428df4a7a4f99765b0c492361" target="_top" xlink:title="RoR::GUI::OpenSaveFileDialog::notifyEditSelectAccept">
<polygon fill="white" stroke="black" points="954,-255.5 954,-276.5 1216,-276.5 1216,-255.5 954,-255.5"/>
<text text-anchor="middle" x="1085" y="-263.5" font-family="Helvetica,sans-Serif" font-size="10.00">RoR::GUI::OpenSaveFileDialog::notifyEditSelectAccept</text>
</a>
</g>
<!-- Node4&#45;&gt;Node5 -->
<g id="edge8" class="edge"><title>Node4&#45;&gt;Node5</title>
<path fill="none" stroke="midnightblue" d="M831.064,-312.474C858.918,-307.003 892.07,-300.577 922,-295 955.908,-288.681 993.843,-281.914 1024.58,-276.508"/>
<polygon fill="midnightblue" stroke="midnightblue" points="830.193,-309.078 821.057,-314.443 831.544,-315.946 830.193,-309.078"/>
</g>
<!-- Node6 -->
<g id="node12" class="node"><title>Node6</title>
<a xlink:href="class_ro_r_1_1_g_u_i_1_1_open_save_file_dialog.html#a8ff36b68147395ca8b37ad485471f79d" target="_top" xlink:title="RoR::GUI::OpenSaveFileDialog::notifyMouseButtonClick">
<polygon fill="white" stroke="black" points="952,-304.5 952,-325.5 1218,-325.5 1218,-304.5 952,-304.5"/>
<text text-anchor="middle" x="1085" y="-312.5" font-family="Helvetica,sans-Serif" font-size="10.00">RoR::GUI::OpenSaveFileDialog::notifyMouseButtonClick</text>
</a>
</g>
<!-- Node4&#45;&gt;Node6 -->
<g id="edge12" class="edge"><title>Node4&#45;&gt;Node6</title>
<path fill="none" stroke="midnightblue" d="M873.768,-321.663C898.804,-320.874 925.821,-320.021 951.896,-319.199"/>
<polygon fill="midnightblue" stroke="midnightblue" points="873.425,-318.172 863.54,-321.986 873.646,-325.169 873.425,-318.172"/>
</g>
<!-- Node5&#45;&gt;Node3 -->
<g id="edge10" class="edge"><title>Node5&#45;&gt;Node3</title>
<path fill="none" stroke="midnightblue" d="M1161.6,-253.406C1189.41,-247.473 1220.7,-239.184 1248,-228 1306.87,-203.885 1369.05,-159.862 1396.09,-139.655"/>
<polygon fill="midnightblue" stroke="midnightblue" points="1160.61,-250.036 1151.52,-255.486 1162.02,-256.892 1160.61,-250.036"/>
</g>
<!-- Node6&#45;&gt;Node3 -->
<g id="edge14" class="edge"><title>Node6&#45;&gt;Node3</title>
<path fill="none" stroke="midnightblue" d="M1205.48,-301.998C1220.25,-297.982 1234.78,-292.766 1248,-286 1320.52,-248.895 1382.14,-168.441 1402.7,-139.575"/>
<polygon fill="midnightblue" stroke="midnightblue" points="1204.59,-298.614 1195.76,-304.468 1206.31,-305.399 1204.59,-298.614"/>
</g>
<!-- Node8 -->
<g id="node18" class="node"><title>Node8</title>
<a xlink:href="class_ro_r_1_1_g_u_i_1_1_open_save_file_dialog.html#a8c1b024be96a42a6be82b75bad012e1e" target="_top" xlink:title="RoR::GUI::OpenSaveFileDialog::update">
<polygon fill="white" stroke="black" points="422.5,-158.5 422.5,-179.5 613.5,-179.5 613.5,-158.5 422.5,-158.5"/>
<text text-anchor="middle" x="518" y="-166.5" font-family="Helvetica,sans-Serif" font-size="10.00">RoR::GUI::OpenSaveFileDialog::update</text>
</a>
</g>
<!-- Node7&#45;&gt;Node8 -->
<g id="edge20" class="edge"><title>Node7&#45;&gt;Node8</title>
<path fill="none" stroke="midnightblue" d="M395.635,-169C404.559,-169 413.588,-169 422.484,-169"/>
<polygon fill="midnightblue" stroke="midnightblue" points="395.616,-165.5 385.616,-169 395.616,-172.5 395.616,-165.5"/>
</g>
<!-- Node16 -->
<g id="node40" class="node"><title>Node16</title>
<a xlink:href="namespace_ro_r_1_1_file_system.html#adf08cda1b817d4d2bdc9393529069c72" target="_top" xlink:title="RoR::FileSystem::scanFolder">
<polygon fill="white" stroke="black" points="445,-118.5 445,-139.5 591,-139.5 591,-118.5 445,-118.5"/>
<text text-anchor="middle" x="518" y="-126.5" font-family="Helvetica,sans-Serif" font-size="10.00">RoR::FileSystem::scanFolder</text>
</a>
</g>
<!-- Node7&#45;&gt;Node16 -->
<g id="edge48" class="edge"><title>Node7&#45;&gt;Node16</title>
<path fill="none" stroke="midnightblue" d="M365.149,-156.665C395.498,-151.172 430.871,-144.77 459.939,-139.509"/>
<polygon fill="midnightblue" stroke="midnightblue" points="364.282,-153.265 355.065,-158.49 365.529,-160.153 364.282,-153.265"/>
</g>
<!-- Node8&#45;&gt;Node2 -->
<g id="edge24" class="edge"><title>Node8&#45;&gt;Node2</title>
<path fill="none" stroke="midnightblue" d="M588.21,-181.06C608.127,-184.094 629.87,-187.041 650,-189 752.135,-198.939 868.268,-203.68 954.835,-205.941"/>
<polygon fill="midnightblue" stroke="midnightblue" points="588.706,-177.595 578.287,-179.519 587.632,-184.512 588.706,-177.595"/>
</g>
<!-- Node8&#45;&gt;Node3 -->
<g id="edge22" class="edge"><title>Node8&#45;&gt;Node3</title>
<path fill="none" stroke="midnightblue" d="M602.269,-154.779C606.328,-153.066 610.264,-151.148 614,-149 634.736,-137.081 628.151,-118.731 650,-109 771.394,-54.9357 1115.36,-100.843 1248,-109 1278.27,-110.861 1311.53,-114.66 1340,-118.453"/>
<polygon fill="midnightblue" stroke="midnightblue" points="600.733,-151.618 592.608,-158.417 603.199,-158.169 600.733,-151.618"/>
</g>
<!-- Node9 -->
<g id="node22" class="node"><title>Node9</title>
<a xlink:href="class_ro_r_1_1_g_u_i_1_1_open_save_file_dialog.html#af224be69b772262517ad470e2c9977c8" target="_top" xlink:title="RoR::GUI::OpenSaveFileDialog::upFolder">
<polygon fill="white" stroke="black" points="668,-118.5 668,-139.5 868,-139.5 868,-118.5 668,-118.5"/>
<text text-anchor="middle" x="768" y="-126.5" font-family="Helvetica,sans-Serif" font-size="10.00">RoR::GUI::OpenSaveFileDialog::upFolder</text>
</a>
</g>
<!-- Node8&#45;&gt;Node9 -->
<g id="edge26" class="edge"><title>Node8&#45;&gt;Node9</title>
<path fill="none" stroke="midnightblue" d="M593.751,-156.88C628.379,-151.339 669.008,-144.839 702.321,-139.509"/>
<polygon fill="midnightblue" stroke="midnightblue" points="593.006,-153.454 583.685,-158.49 594.112,-160.367 593.006,-153.454"/>
</g>
<!-- Node11 -->
<g id="node28" class="node"><title>Node11</title>
<a xlink:href="class_ro_r_1_1_g_u_i_1_1_open_save_file_dialog.html#a9ea53706725c664f1977f406e7bad2d3" target="_top" xlink:title="RoR::GUI::OpenSaveFileDialog::setCurrentFolder">
<polygon fill="white" stroke="black" points="650.5,-40.5 650.5,-61.5 885.5,-61.5 885.5,-40.5 650.5,-40.5"/>
<text text-anchor="middle" x="768" y="-48.5" font-family="Helvetica,sans-Serif" font-size="10.00">RoR::GUI::OpenSaveFileDialog::setCurrentFolder</text>
</a>
</g>
<!-- Node8&#45;&gt;Node11 -->
<g id="edge34" class="edge"><title>Node8&#45;&gt;Node11</title>
<path fill="none" stroke="midnightblue" d="M607.353,-153.556C609.658,-152.157 611.88,-150.642 614,-149 642.6,-126.848 621.438,-98.1999 650,-76 657.854,-69.8958 666.855,-65.1962 676.309,-61.59"/>
<polygon fill="midnightblue" stroke="midnightblue" points="605.345,-150.657 598.103,-158.39 608.587,-156.86 605.345,-150.657"/>
</g>
<!-- Node14 -->
<g id="node36" class="node"><title>Node14</title>
<a xlink:href="class_ro_r_1_1_g_u_i_1_1_open_save_file_dialog.html#a8c491ab1e94d314e5bbcda1f01a47199" target="_top" xlink:title="RoR::GUI::OpenSaveFileDialog::setFileMask">
<polygon fill="white" stroke="black" points="660.5,-236.5 660.5,-257.5 875.5,-257.5 875.5,-236.5 660.5,-236.5"/>
<text text-anchor="middle" x="768" y="-244.5" font-family="Helvetica,sans-Serif" font-size="10.00">RoR::GUI::OpenSaveFileDialog::setFileMask</text>
</a>
</g>
<!-- Node8&#45;&gt;Node14 -->
<g id="edge44" class="edge"><title>Node8&#45;&gt;Node14</title>
<path fill="none" stroke="midnightblue" d="M550.071,-183.697C576.46,-195.345 615.07,-211.375 650,-222 668.732,-227.698 689.522,-232.569 708.367,-236.456"/>
<polygon fill="midnightblue" stroke="midnightblue" points="551.489,-180.498 540.931,-179.622 548.639,-186.891 551.489,-180.498"/>
</g>
<!-- Node15 -->
<g id="node38" class="node"><title>Node15</title>
<a xlink:href="class_ro_r_1_1_g_u_i_1_1_open_save_file_dialog.html#ab9fd3841c9e9b1807e2cfa64f4f1e623" target="_top" xlink:title="RoR::GUI::OpenSaveFileDialog::onDoModal">
<polygon fill="white" stroke="black" points="662,-158.5 662,-179.5 874,-179.5 874,-158.5 662,-158.5"/>
<text text-anchor="middle" x="768" y="-166.5" font-family="Helvetica,sans-Serif" font-size="10.00">RoR::GUI::OpenSaveFileDialog::onDoModal</text>
</a>
</g>
<!-- Node8&#45;&gt;Node15 -->
<g id="edge46" class="edge"><title>Node8&#45;&gt;Node15</title>
<path fill="none" stroke="midnightblue" d="M623.606,-169C636.187,-169 649.036,-169 661.628,-169"/>
<polygon fill="midnightblue" stroke="midnightblue" points="623.584,-165.5 613.584,-169 623.584,-172.5 623.584,-165.5"/>
</g>
<!-- Node9&#45;&gt;Node2 -->
<g id="edge32" class="edge"><title>Node9&#45;&gt;Node2</title>
<path fill="none" stroke="midnightblue" d="M848.507,-141.312C861.106,-143.622 873.942,-146.201 886,-149 946.024,-162.932 1014.65,-184.576 1053.6,-197.414"/>
<polygon fill="midnightblue" stroke="midnightblue" points="848.933,-137.833 838.473,-139.518 847.7,-144.723 848.933,-137.833"/>
</g>
<!-- Node10 -->
<g id="node24" class="node"><title>Node10</title>
<a xlink:href="class_ro_r_1_1_g_u_i_1_1_open_save_file_dialog.html#a4ef8849803f1eb561068375f50c7919b" target="_top" xlink:title="RoR::GUI::OpenSaveFileDialog::notifyUpButtonClick">
<polygon fill="white" stroke="black" points="960,-118.5 960,-139.5 1210,-139.5 1210,-118.5 960,-118.5"/>
<text text-anchor="middle" x="1085" y="-126.5" font-family="Helvetica,sans-Serif" font-size="10.00">RoR::GUI::OpenSaveFileDialog::notifyUpButtonClick</text>
</a>
</g>
<!-- Node9&#45;&gt;Node10 -->
<g id="edge28" class="edge"><title>Node9&#45;&gt;Node10</title>
<path fill="none" stroke="midnightblue" d="M878.305,-129C904.677,-129 933.016,-129 959.998,-129"/>
<polygon fill="midnightblue" stroke="midnightblue" points="878.301,-125.5 868.301,-129 878.301,-132.5 878.301,-125.5"/>
</g>
<!-- Node10&#45;&gt;Node3 -->
<g id="edge30" class="edge"><title>Node10&#45;&gt;Node3</title>
<path fill="none" stroke="midnightblue" d="M1220.22,-129C1241.46,-129 1263.33,-129 1284.34,-129"/>
<polygon fill="midnightblue" stroke="midnightblue" points="1220.19,-125.5 1210.19,-129 1220.19,-132.5 1220.19,-125.5"/>
</g>
<!-- Node12 -->
<g id="node30" class="node"><title>Node12</title>
<a xlink:href="class_ro_r_1_1_g_u_i_1_1_open_save_file_dialog.html#a9267253699dd8441295323f62b23afb9" target="_top" xlink:title="RoR::GUI::OpenSaveFileDialog::notifyDirectoryComboAccept">
<polygon fill="white" stroke="black" points="941,-0.5 941,-21.5 1229,-21.5 1229,-0.5 941,-0.5"/>
<text text-anchor="middle" x="1085" y="-8.5" font-family="Helvetica,sans-Serif" font-size="10.00">RoR::GUI::OpenSaveFileDialog::notifyDirectoryComboAccept</text>
</a>
</g>
<!-- Node11&#45;&gt;Node12 -->
<g id="edge36" class="edge"><title>Node11&#45;&gt;Node12</title>
<path fill="none" stroke="midnightblue" d="M858.445,-39.1455C879.315,-36.4403 901.427,-33.598 922,-31 946.75,-27.8744 973.624,-24.549 998.278,-21.5254"/>
<polygon fill="midnightblue" stroke="midnightblue" points="857.779,-35.7026 848.313,-40.4608 858.68,-42.6443 857.779,-35.7026"/>
</g>
<!-- Node13 -->
<g id="node33" class="node"><title>Node13</title>
<a xlink:href="class_ro_r_1_1_g_u_i_1_1_open_save_file_dialog.html#a037b18921b0deef4ca97e9f865c6540b" target="_top" xlink:title="RoR::GUI::OpenSaveFileDialog::notifyDirectoryComboChangePosition">
<polygon fill="white" stroke="black" points="922,-40.5 922,-61.5 1248,-61.5 1248,-40.5 922,-40.5"/>
<text text-anchor="middle" x="1085" y="-48.5" font-family="Helvetica,sans-Serif" font-size="10.00">RoR::GUI::OpenSaveFileDialog::notifyDirectoryComboChangePosition</text>
</a>
</g>
<!-- Node11&#45;&gt;Node13 -->
<g id="edge40" class="edge"><title>Node11&#45;&gt;Node13</title>
<path fill="none" stroke="midnightblue" d="M895.696,-51C904.361,-51 913.154,-51 921.965,-51"/>
<polygon fill="midnightblue" stroke="midnightblue" points="895.589,-47.5001 885.589,-51 895.589,-54.5001 895.589,-47.5001"/>
</g>
<!-- Node12&#45;&gt;Node3 -->
<g id="edge38" class="edge"><title>Node12&#45;&gt;Node3</title>
<path fill="none" stroke="midnightblue" d="M1223.37,-23.8133C1231.79,-25.8736 1240.06,-28.2531 1248,-31 1308.26,-51.8489 1370.22,-97.3781 1396.7,-118.208"/>
<polygon fill="midnightblue" stroke="midnightblue" points="1223.95,-20.3564 1213.42,-21.5384 1222.39,-27.1802 1223.95,-20.3564"/>
</g>
<!-- Node13&#45;&gt;Node3 -->
<g id="edge42" class="edge"><title>Node13&#45;&gt;Node3</title>
<path fill="none" stroke="midnightblue" d="M1181.4,-63.1071C1203.42,-66.6129 1226.63,-70.9013 1248,-76 1296.07,-87.4676 1350.36,-106.528 1382.3,-118.395"/>
<polygon fill="midnightblue" stroke="midnightblue" points="1181.79,-59.6266 1171.38,-61.5513 1180.72,-66.5437 1181.79,-59.6266"/>
</g>
</g>
</svg>
        <g id="navigator" transform="translate(0 0)" fill="#404254">
                <rect fill="#f2f5e9" fill-opacity="0.5" stroke="#606060" stroke-width=".5" x="0" y="0" width="60" height="60"/>
                <use id="zoomplus" xlink:href="#zoomPlus" x="17" y="9" onmousedown="handleZoom(evt,'in')"/>
                <use id="zoomminus" xlink:href="#zoomMin" x="42" y="9" onmousedown="handleZoom(evt,'out')"/>
                <use id="reset" xlink:href="#resetDef" x="30" y="36" onmousedown="handleReset()"/>
                <g id="arrowUp" xlink:href="#dirArrow" transform="translate(30 24)" onmousedown="handlePan(0,-1)">
                  <use xlink:href="#rim" fill="#404040">
                        <set attributeName="fill" to="#808080" begin="arrowUp.mouseover" end="arrowUp.mouseout"/>
                  </use>
                  <path fill="none" stroke="white" stroke-width="1.5" d="M0,-3.0v7 M-2.5,-0.5L0,-3.0L2.5,-0.5"/>
                </g>
                <g id="arrowRight" xlink:href="#dirArrow" transform="rotate(90) translate(36 -43)" onmousedown="handlePan(1,0)">
                  <use xlink:href="#rim" fill="#404040">
                        <set attributeName="fill" to="#808080" begin="arrowRight.mouseover" end="arrowRight.mouseout"/>
                  </use>
                  <path fill="none" stroke="white" stroke-width="1.5" d="M0,-3.0v7 M-2.5,-0.5L0,-3.0L2.5,-0.5"/>
                </g>
                <g id="arrowDown" xlink:href="#dirArrow" transform="rotate(180) translate(-30 -48)" onmousedown="handlePan(0,1)">
                  <use xlink:href="#rim" fill="#404040">
                        <set attributeName="fill" to="#808080" begin="arrowDown.mouseover" end="arrowDown.mouseout"/>
                  </use>
                  <path fill="none" stroke="white" stroke-width="1.5" d="M0,-3.0v7 M-2.5,-0.5L0,-3.0L2.5,-0.5"/>
                </g>
                <g id="arrowLeft" xlink:href="#dirArrow" transform="rotate(270) translate(-36 17)" onmousedown="handlePan(-1,0)">
                  <use xlink:href="#rim" fill="#404040">
                        <set attributeName="fill" to="#808080" begin="arrowLeft.mouseover" end="arrowLeft.mouseout"/>
                  </use>
                  <path fill="none" stroke="white" stroke-width="1.5" d="M0,-3.0v7 M-2.5,-0.5L0,-3.0L2.5,-0.5"/>
                </g>
        </g>
</svg>
