<?xml version="1.0" encoding="UTF-8" standalone="no"?>
<!DOCTYPE svg PUBLIC "-//W3C//DTD SVG 1.1//EN"
 "http://www.w3.org/Graphics/SVG/1.1/DTD/svg11.dtd">
<!-- Generated by graphviz version 2.26.3 (20100126.1600)
 -->
<!-- Title: G Pages: 1 -->
<!--zoomable 344 -->
<svg id="main" version="1.1" xmlns="http://www.w3.org/2000/svg" xmlns:xlink="http://www.w3.org/1999/xlink" xml:space="preserve" onload="init(evt)">
        <defs>
                <circle id="rim" cx="0" cy="0" r="7"/>
                <circle id="rim2" cx="0" cy="0" r="3.5"/>
                <g id="zoomPlus">
                        <use xlink:href="#rim" fill="#404040">
                                <set attributeName="fill" to="#808080" begin="zoomplus.mouseover" end="zoomplus.mouseout"/>
                        </use>
                        <path d="M-4,0h8M0,-4v8" fill="none" stroke="white" stroke-width="1.5" pointer-events="none"/>
                </g>
                <g id="zoomMin">
                        <use xlink:href="#rim" fill="#404040">
                                <set attributeName="fill" to="#808080" begin="zoomminus.mouseover" end="zoomminus.mouseout"/>
                        </use>
                        <path d="M-4,0h8" fill="none" stroke="white" stroke-width="1.5" pointer-events="none"/>
                </g>
                <g id="dirArrow">
                        <path fill="none" stroke="white" stroke-width="1.5" d="M0,-3.0v7 M-2.5,-0.5L0,-3.0L2.5,-0.5"/>
                </g>
               <g id="resetDef">
                       <use xlink:href="#rim2" fill="#404040">
                               <set attributeName="fill" to="#808080" begin="reset.mouseover" end="reset.mouseout"/>
                       </use>
               </g>
        </defs>

<script type="text/javascript">
var viewWidth = 1744;
var viewHeight = 344;
var sectionId = 'dynsection-5';
</script>
<script xlink:href="svgpan.js"/>
<svg id="graph" class="graph">
<g id="viewport">
<title>G</title>
<polygon fill="white" stroke="white" points="-4,5 -4,-340 1741,-340 1741,5 -4,5"/>
<!-- Node1 -->
<g id="node1" class="node"><title>Node1</title>
<polygon fill="#bfbfbf" stroke="black" points="0,-275.5 0,-296.5 164,-296.5 164,-275.5 0,-275.5"/>
<text text-anchor="middle" x="82" y="-283.5" font-family="Helvetica,sans-Serif" font-size="10.00">RoR::FileSystem::isAbsolutePath</text>
</g>
<!-- Node2 -->
<g id="node3" class="node"><title>Node2</title>
<a xlink:href="namespace_ro_r_1_1_file_system.html#a78a496cdd3796294fcd6c3c452a23f10" target="_top" xlink:title="RoR::FileSystem::concatenatePath">
<polygon fill="white" stroke="black" points="200,-275.5 200,-296.5 372,-296.5 372,-275.5 200,-275.5"/>
<text text-anchor="middle" x="286" y="-283.5" font-family="Helvetica,sans-Serif" font-size="10.00">RoR::FileSystem::concatenatePath</text>
</a>
</g>
<!-- Node1&#45;&gt;Node2 -->
<g id="edge2" class="edge"><title>Node1&#45;&gt;Node2</title>
<path fill="none" stroke="midnightblue" d="M174.346,-286C182.801,-286 191.345,-286 199.743,-286"/>
<polygon fill="midnightblue" stroke="midnightblue" points="174.093,-282.5 164.093,-286 174.093,-289.5 174.093,-282.5"/>
</g>
<!-- Node3 -->
<g id="node5" class="node"><title>Node3</title>
<a xlink:href="class_ro_r_1_1_g_u_i_1_1_open_save_file_dialog.html#ae04117018b6a0c82aee604912d9e7831" target="_top" xlink:title="RoR::GUI::OpenSaveFileDialog::notifyListSelectAccept">
<polygon fill="white" stroke="black" points="1155,-197.5 1155,-218.5 1415,-218.5 1415,-197.5 1155,-197.5"/>
<text text-anchor="middle" x="1285" y="-205.5" font-family="Helvetica,sans-Serif" font-size="10.00">RoR::GUI::OpenSaveFileDialog::notifyListSelectAccept</text>
</a>
</g>
<!-- Node2&#45;&gt;Node3 -->
<g id="edge4" class="edge"><title>Node2&#45;&gt;Node3</title>
<path fill="none" stroke="midnightblue" d="M382.387,-289.695C565.428,-295.727 956.611,-303.634 1086,-267 1103.82,-261.954 1104.79,-252.846 1122,-246 1153.19,-233.596 1189.41,-224.65 1219.78,-218.566"/>
<polygon fill="midnightblue" stroke="midnightblue" points="382.343,-286.191 372.231,-289.355 382.109,-293.187 382.343,-286.191"/>
</g>
<!-- Node5 -->
<g id="node9" class="node"><title>Node5</title>
<a xlink:href="class_ro_r_1_1_g_u_i_1_1_open_save_file_dialog.html#acd8a186858a3b784b4ec6dc5f070b61a" target="_top" xlink:title="RoR::GUI::OpenSaveFileDialog::accept">
<polygon fill="white" stroke="black" points="872.5,-314.5 872.5,-335.5 1063.5,-335.5 1063.5,-314.5 872.5,-314.5"/>
<text text-anchor="middle" x="968" y="-322.5" font-family="Helvetica,sans-Serif" font-size="10.00">RoR::GUI::OpenSaveFileDialog::accept</text>
</a>
</g>
<!-- Node2&#45;&gt;Node5 -->
<g id="edge8" class="edge"><title>Node2&#45;&gt;Node5</title>
<path fill="none" stroke="midnightblue" d="M381.143,-297.567C390.212,-298.474 399.276,-299.306 408,-300 570.738,-312.954 760.655,-319.666 872.254,-322.754"/>
<polygon fill="midnightblue" stroke="midnightblue" points="381.225,-294.057 370.919,-296.514 380.507,-301.02 381.225,-294.057"/>
</g>
<!-- Node8 -->
<g id="node18" class="node"><title>Node8</title>
<a xlink:href="namespace_ro_r_1_1_file_system.html#ae33ccfefa159afb285835c8fa5498a8b" target="_top" xlink:title="RoR::FileSystem::getSystemFileList">
<polygon fill="white" stroke="black" points="408.5,-158.5 408.5,-179.5 585.5,-179.5 585.5,-158.5 408.5,-158.5"/>
<text text-anchor="middle" x="497" y="-166.5" font-family="Helvetica,sans-Serif" font-size="10.00">RoR::FileSystem::getSystemFileList</text>
</a>
</g>
<!-- Node2&#45;&gt;Node8 -->
<g id="edge20" class="edge"><title>Node2&#45;&gt;Node8</title>
<path fill="none" stroke="midnightblue" d="M314.016,-270.465C357.564,-246.317 440.375,-200.399 477.794,-179.65"/>
<polygon fill="midnightblue" stroke="midnightblue" points="312.145,-267.5 305.097,-275.411 315.54,-273.622 312.145,-267.5"/>
</g>
<!-- Node4 -->
<g id="node7" class="node"><title>Node4</title>
<a xlink:href="class_ro_r_1_1_g_u_i_1_1_open_save_file_dialog.html#a14c64d9f8f06ca966e37cb11d63fe28b" target="_top" xlink:title="RoR::GUI::OpenSaveFileDialog::OpenSaveFileDialog">
<polygon fill="white" stroke="black" points="1484.5,-118.5 1484.5,-139.5 1735.5,-139.5 1735.5,-118.5 1484.5,-118.5"/>
<text text-anchor="middle" x="1610" y="-126.5" font-family="Helvetica,sans-Serif" font-size="10.00">RoR::GUI::OpenSaveFileDialog::OpenSaveFileDialog</text>
</a>
</g>
<!-- Node3&#45;&gt;Node4 -->
<g id="edge6" class="edge"><title>Node3&#45;&gt;Node4</title>
<path fill="none" stroke="midnightblue" d="M1338.37,-195.028C1402.19,-179.513 1507.79,-153.844 1566.76,-139.51"/>
<polygon fill="midnightblue" stroke="midnightblue" points="1337.38,-191.665 1328.49,-197.428 1339.04,-198.467 1337.38,-191.665"/>
</g>
<!-- Node5&#45;&gt;Node3 -->
<g id="edge18" class="edge"><title>Node5&#45;&gt;Node3</title>
<path fill="none" stroke="midnightblue" d="M1065.29,-310.941C1072.6,-307.944 1079.6,-304.338 1086,-300 1109.87,-283.814 1098.29,-262.427 1122,-246 1140.99,-232.844 1163.9,-224.194 1186.47,-218.521"/>
<polygon fill="midnightblue" stroke="midnightblue" points="1064.06,-307.664 1055.9,-314.418 1066.49,-314.228 1064.06,-307.664"/>
</g>
<!-- Node6 -->
<g id="node11" class="node"><title>Node6</title>
<a xlink:href="class_ro_r_1_1_g_u_i_1_1_open_save_file_dialog.html#ade891e7428df4a7a4f99765b0c492361" target="_top" xlink:title="RoR::GUI::OpenSaveFileDialog::notifyEditSelectAccept">
<polygon fill="white" stroke="black" points="1154,-255.5 1154,-276.5 1416,-276.5 1416,-255.5 1154,-255.5"/>
<text text-anchor="middle" x="1285" y="-263.5" font-family="Helvetica,sans-Serif" font-size="10.00">RoR::GUI::OpenSaveFileDialog::notifyEditSelectAccept</text>
</a>
</g>
<!-- Node5&#45;&gt;Node6 -->
<g id="edge10" class="edge"><title>Node5&#45;&gt;Node6</title>
<path fill="none" stroke="midnightblue" d="M1031.06,-312.474C1058.92,-307.003 1092.07,-300.577 1122,-295 1155.91,-288.681 1193.84,-281.914 1224.58,-276.508"/>
<polygon fill="midnightblue" stroke="midnightblue" points="1030.19,-309.078 1021.06,-314.443 1031.54,-315.946 1030.19,-309.078"/>
</g>
<!-- Node7 -->
<g id="node14" class="node"><title>Node7</title>
<a xlink:href="class_ro_r_1_1_g_u_i_1_1_open_save_file_dialog.html#a8ff36b68147395ca8b37ad485471f79d" target="_top" xlink:title="RoR::GUI::OpenSaveFileDialog::notifyMouseButtonClick">
<polygon fill="white" stroke="black" points="1152,-304.5 1152,-325.5 1418,-325.5 1418,-304.5 1152,-304.5"/>
<text text-anchor="middle" x="1285" y="-312.5" font-family="Helvetica,sans-Serif" font-size="10.00">RoR::GUI::OpenSaveFileDialog::notifyMouseButtonClick</text>
</a>
</g>
<!-- Node5&#45;&gt;Node7 -->
<g id="edge14" class="edge"><title>Node5&#45;&gt;Node7</title>
<path fill="none" stroke="midnightblue" d="M1073.77,-321.663C1098.8,-320.874 1125.82,-320.021 1151.9,-319.199"/>
<polygon fill="midnightblue" stroke="midnightblue" points="1073.42,-318.172 1063.54,-321.986 1073.65,-325.169 1073.42,-318.172"/>
</g>
<!-- Node6&#45;&gt;Node4 -->
<g id="edge12" class="edge"><title>Node6&#45;&gt;Node4</title>
<path fill="none" stroke="midnightblue" d="M1361.6,-253.406C1389.41,-247.473 1420.7,-239.184 1448,-228 1506.87,-203.885 1569.05,-159.862 1596.09,-139.655"/>
<polygon fill="midnightblue" stroke="midnightblue" points="1360.61,-250.036 1351.52,-255.486 1362.02,-256.892 1360.61,-250.036"/>
</g>
<!-- Node7&#45;&gt;Node4 -->
<g id="edge16" class="edge"><title>Node7&#45;&gt;Node4</title>
<path fill="none" stroke="midnightblue" d="M1405.48,-301.998C1420.25,-297.982 1434.78,-292.766 1448,-286 1520.52,-248.895 1582.14,-168.441 1602.7,-139.575"/>
<polygon fill="midnightblue" stroke="midnightblue" points="1404.59,-298.614 1395.76,-304.468 1406.31,-305.399 1404.59,-298.614"/>
</g>
<!-- Node9 -->
<g id="node20" class="node"><title>Node9</title>
<a xlink:href="class_ro_r_1_1_g_u_i_1_1_open_save_file_dialog.html#a8c1b024be96a42a6be82b75bad012e1e" target="_top" xlink:title="RoR::GUI::OpenSaveFileDialog::update">
<polygon fill="white" stroke="black" points="622.5,-158.5 622.5,-179.5 813.5,-179.5 813.5,-158.5 622.5,-158.5"/>
<text text-anchor="middle" x="718" y="-166.5" font-family="Helvetica,sans-Serif" font-size="10.00">RoR::GUI::OpenSaveFileDialog::update</text>
</a>
</g>
<!-- Node8&#45;&gt;Node9 -->
<g id="edge22" class="edge"><title>Node8&#45;&gt;Node9</title>
<path fill="none" stroke="midnightblue" d="M595.635,-169C604.559,-169 613.588,-169 622.484,-169"/>
<polygon fill="midnightblue" stroke="midnightblue" points="595.616,-165.5 585.616,-169 595.616,-172.5 595.616,-165.5"/>
</g>
<!-- Node17 -->
<g id="node42" class="node"><title>Node17</title>
<a xlink:href="namespace_ro_r_1_1_file_system.html#adf08cda1b817d4d2bdc9393529069c72" target="_top" xlink:title="RoR::FileSystem::scanFolder">
<polygon fill="white" stroke="black" points="645,-118.5 645,-139.5 791,-139.5 791,-118.5 645,-118.5"/>
<text text-anchor="middle" x="718" y="-126.5" font-family="Helvetica,sans-Serif" font-size="10.00">RoR::FileSystem::scanFolder</text>
</a>
</g>
<!-- Node8&#45;&gt;Node17 -->
<g id="edge50" class="edge"><title>Node8&#45;&gt;Node17</title>
<path fill="none" stroke="midnightblue" d="M565.149,-156.665C595.498,-151.172 630.871,-144.77 659.939,-139.509"/>
<polygon fill="midnightblue" stroke="midnightblue" points="564.282,-153.265 555.065,-158.49 565.529,-160.153 564.282,-153.265"/>
</g>
<!-- Node9&#45;&gt;Node3 -->
<g id="edge26" class="edge"><title>Node9&#45;&gt;Node3</title>
<path fill="none" stroke="midnightblue" d="M788.21,-181.06C808.127,-184.094 829.87,-187.041 850,-189 952.135,-198.939 1068.27,-203.68 1154.84,-205.941"/>
<polygon fill="midnightblue" stroke="midnightblue" points="788.706,-177.595 778.287,-179.519 787.632,-184.512 788.706,-177.595"/>
</g>
<!-- Node9&#45;&gt;Node4 -->
<g id="edge24" class="edge"><title>Node9&#45;&gt;Node4</title>
<path fill="none" stroke="midnightblue" d="M802.269,-154.779C806.328,-153.066 810.264,-151.148 814,-149 834.736,-137.081 828.151,-118.731 850,-109 971.394,-54.9357 1315.36,-100.843 1448,-109 1478.27,-110.861 1511.53,-114.66 1540,-118.453"/>
<polygon fill="midnightblue" stroke="midnightblue" points="800.733,-151.618 792.608,-158.417 803.199,-158.169 800.733,-151.618"/>
</g>
<!-- Node10 -->
<g id="node24" class="node"><title>Node10</title>
<a xlink:href="class_ro_r_1_1_g_u_i_1_1_open_save_file_dialog.html#af224be69b772262517ad470e2c9977c8" target="_top" xlink:title="RoR::GUI::OpenSaveFileDialog::upFolder">
<polygon fill="white" stroke="black" points="868,-118.5 868,-139.5 1068,-139.5 1068,-118.5 868,-118.5"/>
<text text-anchor="middle" x="968" y="-126.5" font-family="Helvetica,sans-Serif" font-size="10.00">RoR::GUI::OpenSaveFileDialog::upFolder</text>
</a>
</g>
<!-- Node9&#45;&gt;Node10 -->
<g id="edge28" class="edge"><title>Node9&#45;&gt;Node10</title>
<path fill="none" stroke="midnightblue" d="M793.751,-156.88C828.379,-151.339 869.008,-144.839 902.321,-139.509"/>
<polygon fill="midnightblue" stroke="midnightblue" points="793.006,-153.454 783.685,-158.49 794.112,-160.367 793.006,-153.454"/>
</g>
<!-- Node12 -->
<g id="node30" class="node"><title>Node12</title>
<a xlink:href="class_ro_r_1_1_g_u_i_1_1_open_save_file_dialog.html#a9ea53706725c664f1977f406e7bad2d3" target="_top" xlink:title="RoR::GUI::OpenSaveFileDialog::setCurrentFolder">
<polygon fill="white" stroke="black" points="850.5,-40.5 850.5,-61.5 1085.5,-61.5 1085.5,-40.5 850.5,-40.5"/>
<text text-anchor="middle" x="968" y="-48.5" font-family="Helvetica,sans-Serif" font-size="10.00">RoR::GUI::OpenSaveFileDialog::setCurrentFolder</text>
</a>
</g>
<!-- Node9&#45;&gt;Node12 -->
<g id="edge36" class="edge"><title>Node9&#45;&gt;Node12</title>
<path fill="none" stroke="midnightblue" d="M807.353,-153.556C809.658,-152.157 811.88,-150.642 814,-149 842.6,-126.848 821.438,-98.1999 850,-76 857.854,-69.8958 866.855,-65.1962 876.309,-61.59"/>
<polygon fill="midnightblue" stroke="midnightblue" points="805.345,-150.657 798.103,-158.39 808.587,-156.86 805.345,-150.657"/>
</g>
<!-- Node15 -->
<g id="node38" class="node"><title>Node15</title>
<a xlink:href="class_ro_r_1_1_g_u_i_1_1_open_save_file_dialog.html#a8c491ab1e94d314e5bbcda1f01a47199" target="_top" xlink:title="RoR::GUI::OpenSaveFileDialog::setFileMask">
<polygon fill="white" stroke="black" points="860.5,-236.5 860.5,-257.5 1075.5,-257.5 1075.5,-236.5 860.5,-236.5"/>
<text text-anchor="middle" x="968" y="-244.5" font-family="Helvetica,sans-Serif" font-size="10.00">RoR::GUI::OpenSaveFileDialog::setFileMask</text>
</a>
</g>
<!-- Node9&#45;&gt;Node15 -->
<g id="edge46" class="edge"><title>Node9&#45;&gt;Node15</title>
<path fill="none" stroke="midnightblue" d="M750.071,-183.697C776.46,-195.345 815.07,-211.375 850,-222 868.732,-227.698 889.522,-232.569 908.367,-236.456"/>
<polygon fill="midnightblue" stroke="midnightblue" points="751.489,-180.498 740.931,-179.622 748.639,-186.891 751.489,-180.498"/>
</g>
<!-- Node16 -->
<g id="node40" class="node"><title>Node16</title>
<a xlink:href="class_ro_r_1_1_g_u_i_1_1_open_save_file_dialog.html#ab9fd3841c9e9b1807e2cfa64f4f1e623" target="_top" xlink:title="RoR::GUI::OpenSaveFileDialog::onDoModal">
<polygon fill="white" stroke="black" points="862,-158.5 862,-179.5 1074,-179.5 1074,-158.5 862,-158.5"/>
<text text-anchor="middle" x="968" y="-166.5" font-family="Helvetica,sans-Serif" font-size="10.00">RoR::GUI::OpenSaveFileDialog::onDoModal</text>
</a>
</g>
<!-- Node9&#45;&gt;Node16 -->
<g id="edge48" class="edge"><title>Node9&#45;&gt;Node16</title>
<path fill="none" stroke="midnightblue" d="M823.606,-169C836.187,-169 849.036,-169 861.628,-169"/>
<polygon fill="midnightblue" stroke="midnightblue" points="823.584,-165.5 813.584,-169 823.584,-172.5 823.584,-165.5"/>
</g>
<!-- Node10&#45;&gt;Node3 -->
<g id="edge34" class="edge"><title>Node10&#45;&gt;Node3</title>
<path fill="none" stroke="midnightblue" d="M1048.51,-141.312C1061.11,-143.622 1073.94,-146.201 1086,-149 1146.02,-162.932 1214.65,-184.576 1253.6,-197.414"/>
<polygon fill="midnightblue" stroke="midnightblue" points="1048.93,-137.833 1038.47,-139.518 1047.7,-144.723 1048.93,-137.833"/>
</g>
<!-- Node11 -->
<g id="node26" class="node"><title>Node11</title>
<a xlink:href="class_ro_r_1_1_g_u_i_1_1_open_save_file_dialog.html#a4ef8849803f1eb561068375f50c7919b" target="_top" xlink:title="RoR::GUI::OpenSaveFileDialog::notifyUpButtonClick">
<polygon fill="white" stroke="black" points="1160,-118.5 1160,-139.5 1410,-139.5 1410,-118.5 1160,-118.5"/>
<text text-anchor="middle" x="1285" y="-126.5" font-family="Helvetica,sans-Serif" font-size="10.00">RoR::GUI::OpenSaveFileDialog::notifyUpButtonClick</text>
</a>
</g>
<!-- Node10&#45;&gt;Node11 -->
<g id="edge30" class="edge"><title>Node10&#45;&gt;Node11</title>
<path fill="none" stroke="midnightblue" d="M1078.3,-129C1104.68,-129 1133.02,-129 1160,-129"/>
<polygon fill="midnightblue" stroke="midnightblue" points="1078.3,-125.5 1068.3,-129 1078.3,-132.5 1078.3,-125.5"/>
</g>
<!-- Node11&#45;&gt;Node4 -->
<g id="edge32" class="edge"><title>Node11&#45;&gt;Node4</title>
<path fill="none" stroke="midnightblue" d="M1420.22,-129C1441.46,-129 1463.33,-129 1484.34,-129"/>
<polygon fill="midnightblue" stroke="midnightblue" points="1420.19,-125.5 1410.19,-129 1420.19,-132.5 1420.19,-125.5"/>
</g>
<!-- Node13 -->
<g id="node32" class="node"><title>Node13</title>
<a xlink:href="class_ro_r_1_1_g_u_i_1_1_open_save_file_dialog.html#a9267253699dd8441295323f62b23afb9" target="_top" xlink:title="RoR::GUI::OpenSaveFileDialog::notifyDirectoryComboAccept">
<polygon fill="white" stroke="black" points="1141,-0.5 1141,-21.5 1429,-21.5 1429,-0.5 1141,-0.5"/>
<text text-anchor="middle" x="1285" y="-8.5" font-family="Helvetica,sans-Serif" font-size="10.00">RoR::GUI::OpenSaveFileDialog::notifyDirectoryComboAccept</text>
</a>
</g>
<!-- Node12&#45;&gt;Node13 -->
<g id="edge38" class="edge"><title>Node12&#45;&gt;Node13</title>
<path fill="none" stroke="midnightblue" d="M1058.45,-39.1455C1079.31,-36.4403 1101.43,-33.598 1122,-31 1146.75,-27.8744 1173.62,-24.549 1198.28,-21.5254"/>
<polygon fill="midnightblue" stroke="midnightblue" points="1057.78,-35.7026 1048.31,-40.4608 1058.68,-42.6443 1057.78,-35.7026"/>
</g>
<!-- Node14 -->
<g id="node35" class="node"><title>Node14</title>
<a xlink:href="class_ro_r_1_1_g_u_i_1_1_open_save_file_dialog.html#a037b18921b0deef4ca97e9f865c6540b" target="_top" xlink:title="RoR::GUI::OpenSaveFileDialog::notifyDirectoryComboChangePosition">
<polygon fill="white" stroke="black" points="1122,-40.5 1122,-61.5 1448,-61.5 1448,-40.5 1122,-40.5"/>
<text text-anchor="middle" x="1285" y="-48.5" font-family="Helvetica,sans-Serif" font-size="10.00">RoR::GUI::OpenSaveFileDialog::notifyDirectoryComboChangePosition</text>
</a>
</g>
<!-- Node12&#45;&gt;Node14 -->
<g id="edge42" class="edge"><title>Node12&#45;&gt;Node14</title>
<path fill="none" stroke="midnightblue" d="M1095.7,-51C1104.36,-51 1113.15,-51 1121.97,-51"/>
<polygon fill="midnightblue" stroke="midnightblue" points="1095.59,-47.5001 1085.59,-51 1095.59,-54.5001 1095.59,-47.5001"/>
</g>
<!-- Node13&#45;&gt;Node4 -->
<g id="edge40" class="edge"><title>Node13&#45;&gt;Node4</title>
<path fill="none" stroke="midnightblue" d="M1423.37,-23.8133C1431.79,-25.8736 1440.06,-28.2531 1448,-31 1508.26,-51.8489 1570.22,-97.3781 1596.7,-118.208"/>
<polygon fill="midnightblue" stroke="midnightblue" points="1423.95,-20.3564 1413.42,-21.5384 1422.39,-27.1802 1423.95,-20.3564"/>
</g>
<!-- Node14&#45;&gt;Node4 -->
<g id="edge44" class="edge"><title>Node14&#45;&gt;Node4</title>
<path fill="none" stroke="midnightblue" d="M1381.4,-63.1071C1403.42,-66.6129 1426.63,-70.9013 1448,-76 1496.07,-87.4676 1550.36,-106.528 1582.3,-118.395"/>
<polygon fill="midnightblue" stroke="midnightblue" points="1381.79,-59.6266 1371.38,-61.5513 1380.72,-66.5437 1381.79,-59.6266"/>
</g>
</g>
</svg>
        <g id="navigator" transform="translate(0 0)" fill="#404254">
                <rect fill="#f2f5e9" fill-opacity="0.5" stroke="#606060" stroke-width=".5" x="0" y="0" width="60" height="60"/>
                <use id="zoomplus" xlink:href="#zoomPlus" x="17" y="9" onmousedown="handleZoom(evt,'in')"/>
                <use id="zoomminus" xlink:href="#zoomMin" x="42" y="9" onmousedown="handleZoom(evt,'out')"/>
                <use id="reset" xlink:href="#resetDef" x="30" y="36" onmousedown="handleReset()"/>
                <g id="arrowUp" xlink:href="#dirArrow" transform="translate(30 24)" onmousedown="handlePan(0,-1)">
                  <use xlink:href="#rim" fill="#404040">
                        <set attributeName="fill" to="#808080" begin="arrowUp.mouseover" end="arrowUp.mouseout"/>
                  </use>
                  <path fill="none" stroke="white" stroke-width="1.5" d="M0,-3.0v7 M-2.5,-0.5L0,-3.0L2.5,-0.5"/>
                </g>
                <g id="arrowRight" xlink:href="#dirArrow" transform="rotate(90) translate(36 -43)" onmousedown="handlePan(1,0)">
                  <use xlink:href="#rim" fill="#404040">
                        <set attributeName="fill" to="#808080" begin="arrowRight.mouseover" end="arrowRight.mouseout"/>
                  </use>
                  <path fill="none" stroke="white" stroke-width="1.5" d="M0,-3.0v7 M-2.5,-0.5L0,-3.0L2.5,-0.5"/>
                </g>
                <g id="arrowDown" xlink:href="#dirArrow" transform="rotate(180) translate(-30 -48)" onmousedown="handlePan(0,1)">
                  <use xlink:href="#rim" fill="#404040">
                        <set attributeName="fill" to="#808080" begin="arrowDown.mouseover" end="arrowDown.mouseout"/>
                  </use>
                  <path fill="none" stroke="white" stroke-width="1.5" d="M0,-3.0v7 M-2.5,-0.5L0,-3.0L2.5,-0.5"/>
                </g>
                <g id="arrowLeft" xlink:href="#dirArrow" transform="rotate(270) translate(-36 17)" onmousedown="handlePan(-1,0)">
                  <use xlink:href="#rim" fill="#404040">
                        <set attributeName="fill" to="#808080" begin="arrowLeft.mouseover" end="arrowLeft.mouseout"/>
                  </use>
                  <path fill="none" stroke="white" stroke-width="1.5" d="M0,-3.0v7 M-2.5,-0.5L0,-3.0L2.5,-0.5"/>
                </g>
        </g>
</svg>
