<?xml version="1.0" encoding="UTF-8" standalone="no"?>
<!DOCTYPE svg PUBLIC "-//W3C//DTD SVG 1.1//EN"
 "http://www.w3.org/Graphics/SVG/1.1/DTD/svg11.dtd">
<!-- Generated by graphviz version 2.26.3 (20100126.1600)
 -->
<!-- Title: Profiler::exit Pages: 1 -->
<!--zoomable 1022 -->
<svg id="main" version="1.1" xmlns="http://www.w3.org/2000/svg" xmlns:xlink="http://www.w3.org/1999/xlink" xml:space="preserve" onload="init(evt)">
<style type="text/css"><![CDATA[
.edge:hover path { stroke: red; }
.edge:hover polygon { stroke: red; fill: red; }
]]></style>
<script type="text/javascript"><![CDATA[
var edges = document.getElementsByTagName('g');
if (edges && edges.length) {
  for (var i=0;i<edges.length;i++) {
    if (edges[i].id.substr(0,4)=='edge') {
      edges[i].setAttribute('class','edge');
    }
  }
}
]]></script>
        <defs>
                <circle id="rim" cx="0" cy="0" r="7"/>
                <circle id="rim2" cx="0" cy="0" r="3.5"/>
                <g id="zoomPlus">
                        <use xlink:href="#rim" fill="#404040">
                                <set attributeName="fill" to="#808080" begin="zoomplus.mouseover" end="zoomplus.mouseout"/>
                        </use>
                        <path d="M-4,0h8M0,-4v8" fill="none" stroke="white" stroke-width="1.5" pointer-events="none"/>
                </g>
                <g id="zoomMin">
                        <use xlink:href="#rim" fill="#404040">
                                <set attributeName="fill" to="#808080" begin="zoomminus.mouseover" end="zoomminus.mouseout"/>
                        </use>
                        <path d="M-4,0h8" fill="none" stroke="white" stroke-width="1.5" pointer-events="none"/>
                </g>
                <g id="dirArrow">
                        <path fill="none" stroke="white" stroke-width="1.5" d="M0,-3.0v7 M-2.5,-0.5L0,-3.0L2.5,-0.5"/>
                </g>
               <g id="resetDef">
                       <use xlink:href="#rim2" fill="#404040">
                               <set attributeName="fill" to="#808080" begin="reset.mouseover" end="reset.mouseout"/>
                       </use>
               </g>
        </defs>

<script type="text/javascript">
var viewWidth = 1928;
var viewHeight = 1022;
var sectionId = 'dynsection-2';
</script>
<script xlink:href="svgpan.js"/>
<svg id="graph" class="graph">
<g id="viewport">
<title>Profiler::exit</title>
<polygon fill="white" stroke="white" points="-4,5 -4,-1018 1925,-1018 1925,5 -4,5"/>
<!-- Node1 -->
<g id="node1" class="node"><title>Node1</title>
<polygon fill="#bfbfbf" stroke="black" points="0.5,-568.5 0.5,-589.5 69.5,-589.5 69.5,-568.5 0.5,-568.5"/>
<text text-anchor="middle" x="35" y="-576.5" font-family="Helvetica,sans-Serif" font-size="10.00">Profiler::exit</text>
</g>
<!-- Node2 -->
<g id="node3" class="node"><title>Node2</title>
<a xlink:href="class_my_app.html#a8ec07e9ee5f893831d05e2731b52162b" target="_top" xlink:title="MyApp::checkUserPath">
<polygon fill="white" stroke="black" points="121.5,-992.5 121.5,-1013.5 242.5,-1013.5 242.5,-992.5 121.5,-992.5"/>
<text text-anchor="middle" x="182" y="-1000.5" font-family="Helvetica,sans-Serif" font-size="10.00">MyApp::checkUserPath</text>
</a>
</g>
<!-- Node1&#45;&gt;Node2 -->
<g id="edge2" class="edge"><title>Node1&#45;&gt;Node2</title>
<path fill="none" stroke="midnightblue" d="M35.7825,-599.929C38.9962,-674.533 53.5985,-926.038 106,-983 110.341,-987.719 115.651,-991.38 121.426,-994.211"/>
<polygon fill="midnightblue" stroke="midnightblue" points="39.2633,-599.381 35.3605,-589.531 32.269,-599.665 39.2633,-599.381"/>
</g>
<!-- Node3 -->
<g id="node5" class="node"><title>Node3</title>
<a xlink:href="class_my_dialog.html#a0201fad69958238f51320195afcb1a05" target="_top" xlink:title="MyDialog::OnQuit">
<polygon fill="white" stroke="black" points="134.5,-952.5 134.5,-973.5 229.5,-973.5 229.5,-952.5 134.5,-952.5"/>
<text text-anchor="middle" x="182" y="-960.5" font-family="Helvetica,sans-Serif" font-size="10.00">MyDialog::OnQuit</text>
</a>
</g>
<!-- Node1&#45;&gt;Node3 -->
<g id="edge4" class="edge"><title>Node1&#45;&gt;Node3</title>
<path fill="none" stroke="midnightblue" d="M36.2063,-599.645C40.6759,-669.04 58.5557,-892.383 106,-943 113.464,-950.964 123.685,-955.903 134.211,-958.931"/>
<polygon fill="midnightblue" stroke="midnightblue" points="39.6922,-599.308 35.5817,-589.543 32.7056,-599.74 39.6922,-599.308"/>
</g>
<!-- Node4 -->
<g id="node7" class="node"><title>Node4</title>
<a xlink:href="class_my_dialog.html#a74d2abdecaf0a25ee94483519e369419" target="_top" xlink:title="MyDialog::OnButCancel">
<polygon fill="white" stroke="black" points="121,-912.5 121,-933.5 243,-933.5 243,-912.5 121,-912.5"/>
<text text-anchor="middle" x="182" y="-920.5" font-family="Helvetica,sans-Serif" font-size="10.00">MyDialog::OnButCancel</text>
</a>
</g>
<!-- Node1&#45;&gt;Node4 -->
<g id="edge6" class="edge"><title>Node1&#45;&gt;Node4</title>
<path fill="none" stroke="midnightblue" d="M36.7657,-599.854C42.6402,-664.333 63.6003,-858.799 106,-903 110.25,-907.431 115.354,-910.922 120.881,-913.667"/>
<polygon fill="midnightblue" stroke="midnightblue" points="40.2357,-599.359 35.8694,-589.706 33.2629,-599.975 40.2357,-599.359"/>
</g>
<!-- Node5 -->
<g id="node9" class="node"><title>Node5</title>
<a xlink:href="class_my_dialog.html#a9b49bcd44430e4de9b82daa8a97885f6" target="_top" xlink:title="MyDialog::OnButPlay">
<polygon fill="white" stroke="black" points="126.5,-872.5 126.5,-893.5 237.5,-893.5 237.5,-872.5 126.5,-872.5"/>
<text text-anchor="middle" x="182" y="-880.5" font-family="Helvetica,sans-Serif" font-size="10.00">MyDialog::OnButPlay</text>
</a>
</g>
<!-- Node1&#45;&gt;Node5 -->
<g id="edge8" class="edge"><title>Node1&#45;&gt;Node5</title>
<path fill="none" stroke="midnightblue" d="M37.4244,-599.563C44.7537,-658.3 68.5052,-825.039 106,-863 111.657,-868.727 118.743,-872.877 126.299,-875.872"/>
<polygon fill="midnightblue" stroke="midnightblue" points="40.8963,-599.119 36.2126,-589.616 33.9476,-599.966 40.8963,-599.119"/>
</g>
<!-- Node6 -->
<g id="node11" class="node"><title>Node6</title>
<a xlink:href="class_my_dialog.html#a296eb00017a644c6bedb925dbad7fd25" target="_top" xlink:title="MyDialog::OnButSave">
<polygon fill="white" stroke="black" points="125,-832.5 125,-853.5 239,-853.5 239,-832.5 125,-832.5"/>
<text text-anchor="middle" x="182" y="-840.5" font-family="Helvetica,sans-Serif" font-size="10.00">MyDialog::OnButSave</text>
</a>
</g>
<!-- Node1&#45;&gt;Node6 -->
<g id="edge10" class="edge"><title>Node1&#45;&gt;Node6</title>
<path fill="none" stroke="midnightblue" d="M38.3007,-599.409C47.231,-652.18 73.4042,-791.236 106,-823 111.374,-828.237 117.947,-832.147 124.956,-835.058"/>
<polygon fill="midnightblue" stroke="midnightblue" points="41.7508,-598.82 36.6607,-589.528 34.8453,-599.966 41.7508,-598.82"/>
</g>
<!-- Node7 -->
<g id="node13" class="node"><title>Node7</title>
<a xlink:href="class_my_dialog.html#a9f8c0adbd7ffd8c69dfc1fbc44a39873" target="_top" xlink:title="MyDialog::updateRoR">
<polygon fill="white" stroke="black" points="125.5,-792.5 125.5,-813.5 238.5,-813.5 238.5,-792.5 125.5,-792.5"/>
<text text-anchor="middle" x="182" y="-800.5" font-family="Helvetica,sans-Serif" font-size="10.00">MyDialog::updateRoR</text>
</a>
</g>
<!-- Node1&#45;&gt;Node7 -->
<g id="edge12" class="edge"><title>Node1&#45;&gt;Node7</title>
<path fill="none" stroke="midnightblue" d="M36.5521,-600.013C40.646,-640.228 55.2239,-728.473 106,-778 112.364,-784.207 120.296,-788.873 128.614,-792.381"/>
<polygon fill="midnightblue" stroke="midnightblue" points="40.0159,-599.451 35.6377,-589.803 33.0438,-600.075 40.0159,-599.451"/>
</g>
<!-- Node9 -->
<g id="node17" class="node"><title>Node9</title>
<a xlink:href="class_ro_r_1_1_ogre_subsystem.html#adac15fe2de5856cb1a1befa681eec2e6" target="_top" xlink:title="RoR::OgreSubsystem\l::Configure">
<polygon fill="white" stroke="black" points="125.5,-664 125.5,-698 238.5,-698 238.5,-664 125.5,-664"/>
<text text-anchor="start" x="133.5" y="-685" font-family="Helvetica,sans-Serif" font-size="10.00">RoR::OgreSubsystem</text>
<text text-anchor="middle" x="182" y="-672" font-family="Helvetica,sans-Serif" font-size="10.00">::Configure</text>
</a>
</g>
<!-- Node1&#45;&gt;Node9 -->
<g id="edge16" class="edge"><title>Node1&#45;&gt;Node9</title>
<path fill="none" stroke="midnightblue" d="M49.9607,-597.674C63.3034,-613.341 84.0696,-635.432 106,-650 113.953,-655.283 122.948,-659.924 131.896,-663.897"/>
<polygon fill="midnightblue" stroke="midnightblue" points="52.4344,-595.175 43.3516,-589.72 47.0503,-599.648 52.4344,-595.175"/>
</g>
<!-- Node10 -->
<g id="node19" class="node"><title>Node10</title>
<a xlink:href="class_ro_r_1_1_ogre_subsystem.html#a0f2d050c3ab94d88c1c92750c744d264" target="_top" xlink:title="RoR::OgreSubsystem\l::StartOgre">
<polygon fill="white" stroke="black" points="310.5,-664 310.5,-698 423.5,-698 423.5,-664 310.5,-664"/>
<text text-anchor="start" x="318.5" y="-685" font-family="Helvetica,sans-Serif" font-size="10.00">RoR::OgreSubsystem</text>
<text text-anchor="middle" x="367" y="-672" font-family="Helvetica,sans-Serif" font-size="10.00">::StartOgre</text>
</a>
</g>
<!-- Node1&#45;&gt;Node10 -->
<g id="edge32" class="edge"><title>Node1&#45;&gt;Node10</title>
<path fill="none" stroke="midnightblue" d="M39.5319,-599.613C47.3271,-629.46 66.4099,-683.687 106,-707 176.042,-748.244 275.301,-719.331 328.98,-698.046"/>
<polygon fill="midnightblue" stroke="midnightblue" points="42.9152,-598.713 37.1536,-589.821 36.113,-600.365 42.9152,-598.713"/>
</g>
<!-- Node12 -->
<g id="node23" class="node"><title>Node12</title>
<a xlink:href="class_ro_r_1_1_main_thread.html#a7e4d0bd23a40e509892883af75ea0dbf" target="_top" xlink:title="RoR::MainThread::Go">
<polygon fill="white" stroke="black" points="1458.5,-625.5 1458.5,-646.5 1571.5,-646.5 1571.5,-625.5 1458.5,-625.5"/>
<text text-anchor="middle" x="1515" y="-633.5" font-family="Helvetica,sans-Serif" font-size="10.00">RoR::MainThread::Go</text>
</a>
</g>
<!-- Node1&#45;&gt;Node12 -->
<g id="edge34" class="edge"><title>Node1&#45;&gt;Node12</title>
<path fill="none" stroke="midnightblue" d="M38.2047,-599.735C44.5814,-633.328 62.2247,-699.097 106,-731 200.492,-799.865 250.076,-764 367,-764 367,-764 367,-764 1118,-764 1270.44,-764 1440.61,-677.457 1496.28,-646.693"/>
<polygon fill="midnightblue" stroke="midnightblue" points="41.6161,-598.923 36.4526,-589.672 34.7198,-600.124 41.6161,-598.923"/>
</g>
<!-- Node17 -->
<g id="node35" class="node"><title>Node17</title>
<a xlink:href="class_ro_r_1_1_main_thread.html#aa3feeebda7f3f4c31a6cb96ea60c09e0" target="_top" xlink:title="RoR::MainThread::SetupGameplayLoop">
<polygon fill="white" stroke="black" points="1230.5,-625.5 1230.5,-646.5 1421.5,-646.5 1421.5,-625.5 1230.5,-625.5"/>
<text text-anchor="middle" x="1326" y="-633.5" font-family="Helvetica,sans-Serif" font-size="10.00">RoR::MainThread::SetupGameplayLoop</text>
</a>
</g>
<!-- Node1&#45;&gt;Node17 -->
<g id="edge36" class="edge"><title>Node1&#45;&gt;Node17</title>
<path fill="none" stroke="midnightblue" d="M70.0939,-593.049C81.4029,-597.117 94.0928,-601.209 106,-604 219.784,-630.675 250.131,-636 367,-636 367,-636 367,-636 927,-636 1030.73,-636 1149.64,-636 1230.47,-636"/>
<polygon fill="midnightblue" stroke="midnightblue" points="71.1584,-589.711 60.5654,-589.513 68.7232,-596.274 71.1584,-589.711"/>
</g>
<!-- Node18 -->
<g id="node38" class="node"><title>Node18</title>
<a xlink:href="class_ro_r_1_1_main_thread.html#a60603be78a54ae5a24ca1c00509aca1f" target="_top" xlink:title="RoR::MainThread::LoadTerrain">
<polygon fill="white" stroke="black" points="1042.5,-585.5 1042.5,-606.5 1193.5,-606.5 1193.5,-585.5 1042.5,-585.5"/>
<text text-anchor="middle" x="1118" y="-593.5" font-family="Helvetica,sans-Serif" font-size="10.00">RoR::MainThread::LoadTerrain</text>
</a>
</g>
<!-- Node1&#45;&gt;Node18 -->
<g id="edge40" class="edge"><title>Node1&#45;&gt;Node18</title>
<path fill="none" stroke="midnightblue" d="M79.9688,-583.209C143.753,-588.805 264.185,-598 367,-598 367,-598 367,-598 743,-598 846.68,-598 966.482,-597.226 1042.23,-596.641"/>
<polygon fill="midnightblue" stroke="midnightblue" points="80.1263,-579.709 69.8557,-582.31 79.5064,-586.681 80.1263,-579.709"/>
</g>
<!-- Node20 -->
<g id="node43" class="node"><title>Node20</title>
<a xlink:href="class_ro_r_1_1_main_thread.html#a50730ae3f8aae89aa0120b4b78b6db29" target="_top" xlink:title="RoR::MainThread::RegenCache">
<polygon fill="white" stroke="black" points="848.5,-289.5 848.5,-310.5 1005.5,-310.5 1005.5,-289.5 848.5,-289.5"/>
<text text-anchor="middle" x="927" y="-297.5" font-family="Helvetica,sans-Serif" font-size="10.00">RoR::MainThread::RegenCache</text>
</a>
</g>
<!-- Node1&#45;&gt;Node20 -->
<g id="edge46" class="edge"><title>Node1&#45;&gt;Node20</title>
<path fill="none" stroke="midnightblue" d="M39.1457,-558.445C49.3026,-510.066 76.744,-391.045 106,-364 193.703,-282.924 247.563,-300 367,-300 367,-300 367,-300 557,-300 657.53,-300 773.423,-300 848.326,-300"/>
<polygon fill="midnightblue" stroke="midnightblue" points="35.6872,-557.887 37.0942,-568.388 42.5428,-559.302 35.6872,-557.887"/>
</g>
<!-- Node21 -->
<g id="node46" class="node"><title>Node21</title>
<a xlink:href="class_beam.html#a5775838873dc77ae441c167114e058df" target="_top" xlink:title="Beam::sendStreamData">
<polygon fill="white" stroke="black" points="121,-160.5 121,-181.5 243,-181.5 243,-160.5 121,-160.5"/>
<text text-anchor="middle" x="182" y="-168.5" font-family="Helvetica,sans-Serif" font-size="10.00">Beam::sendStreamData</text>
</a>
</g>
<!-- Node1&#45;&gt;Node21 -->
<g id="edge50" class="edge"><title>Node1&#45;&gt;Node21</title>
<path fill="none" stroke="midnightblue" d="M35.9552,-557.944C39.6847,-485.111 55.6393,-245.36 106,-191 110.173,-186.496 115.227,-182.958 120.723,-180.184"/>
<polygon fill="midnightblue" stroke="midnightblue" points="32.449,-557.987 35.4582,-568.146 39.4407,-558.328 32.449,-557.987"/>
</g>
<!-- Node25 -->
<g id="node54" class="node"><title>Node25</title>
<a xlink:href="class_beam_factory.html#a9f98e215931056bf8d6af8bf05b1d2fc" target="_top" xlink:title="BeamFactory::BeamFactory">
<polygon fill="white" stroke="black" points="112,-120.5 112,-141.5 252,-141.5 252,-120.5 112,-120.5"/>
<text text-anchor="middle" x="182" y="-128.5" font-family="Helvetica,sans-Serif" font-size="10.00">BeamFactory::BeamFactory</text>
</a>
</g>
<!-- Node1&#45;&gt;Node25 -->
<g id="edge58" class="edge"><title>Node1&#45;&gt;Node25</title>
<path fill="none" stroke="midnightblue" d="M35.5636,-557.835C38.0644,-480.107 50.6313,-211.769 106,-151 109.4,-147.268 113.405,-144.198 117.768,-141.675"/>
<polygon fill="midnightblue" stroke="midnightblue" points="32.0529,-558.145 35.2536,-568.245 39.0498,-558.353 32.0529,-558.145"/>
</g>
<!-- Node26 -->
<g id="node56" class="node"><title>Node26</title>
<a xlink:href="class_collisions.html#a3f2acd0249632458dd92a551210f83a1" target="_top" xlink:title="Collisions::loadGroundModels\lConfigFile">
<polygon fill="white" stroke="black" points="109,-478 109,-512 255,-512 255,-478 109,-478"/>
<text text-anchor="start" x="117" y="-499" font-family="Helvetica,sans-Serif" font-size="10.00">Collisions::loadGroundModels</text>
<text text-anchor="middle" x="182" y="-486" font-family="Helvetica,sans-Serif" font-size="10.00">ConfigFile</text>
</a>
</g>
<!-- Node1&#45;&gt;Node26 -->
<g id="edge60" class="edge"><title>Node1&#45;&gt;Node26</title>
<path fill="none" stroke="midnightblue" d="M62.4055,-563.34C87.9032,-548.77 125.81,-527.108 152.085,-512.094"/>
<polygon fill="midnightblue" stroke="midnightblue" points="60.5636,-560.361 53.6177,-568.361 64.0366,-566.439 60.5636,-560.361"/>
</g>
<!-- Node35 -->
<g id="node74" class="node"><title>Node35</title>
<a xlink:href="class_terrain_manager.html#a9a04c837bf2ea6528c465b27ca62f730" target="_top" xlink:title="TerrainManager::loadTerrain">
<polygon fill="white" stroke="black" points="858,-516.5 858,-537.5 996,-537.5 996,-516.5 858,-516.5"/>
<text text-anchor="middle" x="927" y="-524.5" font-family="Helvetica,sans-Serif" font-size="10.00">TerrainManager::loadTerrain</text>
</a>
</g>
<!-- Node1&#45;&gt;Node35 -->
<g id="edge106" class="edge"><title>Node1&#45;&gt;Node35</title>
<path fill="none" stroke="midnightblue" d="M79.9688,-574.791C143.753,-569.195 264.185,-560 367,-560 367,-560 367,-560 557,-560 662.282,-560 783.751,-546.58 857.948,-536.856"/>
<polygon fill="midnightblue" stroke="midnightblue" points="79.5064,-571.319 69.8557,-575.69 80.1263,-578.291 79.5064,-571.319"/>
</g>
<!-- Node36 -->
<g id="node77" class="node"><title>Node36</title>
<a xlink:href="class_cache_system.html#aa5bac5c4f4161879c67f9e09e28a82d5" target="_top" xlink:title="CacheSystem::CacheSystem">
<polygon fill="white" stroke="black" points="108.5,-80.5 108.5,-101.5 255.5,-101.5 255.5,-80.5 108.5,-80.5"/>
<text text-anchor="middle" x="182" y="-88.5" font-family="Helvetica,sans-Serif" font-size="10.00">CacheSystem::CacheSystem</text>
</a>
</g>
<!-- Node1&#45;&gt;Node36 -->
<g id="edge82" class="edge"><title>Node1&#45;&gt;Node36</title>
<path fill="none" stroke="midnightblue" d="M35.2302,-557.99C36.5599,-475.935 45.5408,-178.285 106,-111 109.374,-107.245 113.36,-104.158 117.711,-101.623"/>
<polygon fill="midnightblue" stroke="midnightblue" points="31.7292,-558.044 35.0888,-568.092 38.7285,-558.142 31.7292,-558.044"/>
</g>
<!-- Node37 -->
<g id="node79" class="node"><title>Node37</title>
<a xlink:href="class_cache_system.html#ae010322c2422bf8f8dbfce904257da31" target="_top" xlink:title="CacheSystem::Startup">
<polygon fill="white" stroke="black" points="685,-250.5 685,-271.5 801,-271.5 801,-250.5 685,-250.5"/>
<text text-anchor="middle" x="743" y="-258.5" font-family="Helvetica,sans-Serif" font-size="10.00">CacheSystem::Startup</text>
</a>
</g>
<!-- Node1&#45;&gt;Node37 -->
<g id="edge84" class="edge"><title>Node1&#45;&gt;Node37</title>
<path fill="none" stroke="midnightblue" d="M36.8577,-558.185C42.7655,-497.19 63.2961,-320.969 106,-286 150.126,-249.867 536.166,-255.713 684.911,-259.363"/>
<polygon fill="midnightblue" stroke="midnightblue" points="33.342,-558.191 35.8957,-568.474 40.3116,-558.843 33.342,-558.191"/>
</g>
<!-- Node38 -->
<g id="node83" class="node"><title>Node38</title>
<a xlink:href="class_cache_system.html#abf52dfca224df5030c669e68fc87edc3" target="_top" xlink:title="CacheSystem::writeGenerated\lCache">
<polygon fill="white" stroke="black" points="106.5,-200 106.5,-234 257.5,-234 257.5,-200 106.5,-200"/>
<text text-anchor="start" x="114.5" y="-221" font-family="Helvetica,sans-Serif" font-size="10.00">CacheSystem::writeGenerated</text>
<text text-anchor="middle" x="182" y="-208" font-family="Helvetica,sans-Serif" font-size="10.00">Cache</text>
</a>
</g>
<!-- Node1&#45;&gt;Node38 -->
<g id="edge90" class="edge"><title>Node1&#45;&gt;Node38</title>
<path fill="none" stroke="midnightblue" d="M36.9588,-557.932C43.4016,-492.757 65.8527,-295.917 106,-248 110.667,-242.429 116.491,-237.848 122.826,-234.083"/>
<polygon fill="midnightblue" stroke="midnightblue" points="33.446,-557.898 35.971,-568.187 40.4137,-558.569 33.446,-557.898"/>
</g>
<!-- Node41 -->
<g id="node91" class="node"><title>Node41</title>
<a xlink:href="class_terrain_manager.html#a789b99cd4906c01d9db9aa6dfb275a52" target="_top" xlink:title="TerrainManager::loadTerrain\lConfigBasics">
<polygon fill="white" stroke="black" points="113,-373 113,-407 251,-407 251,-373 113,-373"/>
<text text-anchor="start" x="121" y="-394" font-family="Helvetica,sans-Serif" font-size="10.00">TerrainManager::loadTerrain</text>
<text text-anchor="middle" x="182" y="-381" font-family="Helvetica,sans-Serif" font-size="10.00">ConfigBasics</text>
</a>
</g>
<!-- Node1&#45;&gt;Node41 -->
<g id="edge100" class="edge"><title>Node1&#45;&gt;Node41</title>
<path fill="none" stroke="midnightblue" d="M45.9991,-559.556C59.1282,-536.957 82.2987,-498.94 106,-469 123.955,-446.319 147.381,-422.721 163.452,-407.291"/>
<polygon fill="midnightblue" stroke="midnightblue" points="42.9632,-557.814 41.0149,-568.228 49.0323,-561.302 42.9632,-557.814"/>
</g>
<!-- Node43 -->
<g id="node97" class="node"><title>Node43</title>
<a xlink:href="class_thread_worker.html#a8a8bf91150f0c835f81dd5d0deb234e3" target="_top" xlink:title="ThreadWorker::ThreadWorker">
<polygon fill="white" stroke="black" points="109,-40.5 109,-61.5 255,-61.5 255,-40.5 109,-40.5"/>
<text text-anchor="middle" x="182" y="-48.5" font-family="Helvetica,sans-Serif" font-size="10.00">ThreadWorker::ThreadWorker</text>
</a>
</g>
<!-- Node1&#45;&gt;Node43 -->
<g id="edge108" class="edge"><title>Node1&#45;&gt;Node43</title>
<path fill="none" stroke="midnightblue" d="M36.5502,-558.246C43.509,-467.468 72.9688,-108.196 106,-71 109.352,-67.2254 113.323,-64.1241 117.663,-61.5803"/>
<polygon fill="midnightblue" stroke="midnightblue" points="33.0484,-558.138 35.7823,-568.374 40.0284,-558.668 33.0484,-558.138"/>
</g>
<!-- Node44 -->
<g id="node99" class="node"><title>Node44</title>
<a xlink:href="class_settings.html#af1c188c95e0b9fe09d369a58259a9ddc" target="_top" xlink:title="Settings::setupPaths">
<polygon fill="white" stroke="black" points="128,-0.5 128,-21.5 236,-21.5 236,-0.5 128,-0.5"/>
<text text-anchor="middle" x="182" y="-8.5" font-family="Helvetica,sans-Serif" font-size="10.00">Settings::setupPaths</text>
</a>
</g>
<!-- Node1&#45;&gt;Node44 -->
<g id="edge110" class="edge"><title>Node1&#45;&gt;Node44</title>
<path fill="none" stroke="midnightblue" d="M36.3155,-558.444C42.56,-463.642 70.393,-71.5031 106,-31 111.855,-24.3395 119.637,-19.7719 127.989,-16.6638"/>
<polygon fill="midnightblue" stroke="midnightblue" points="32.8188,-558.282 35.662,-568.488 39.804,-558.737 32.8188,-558.282"/>
</g>
<!-- Node8 -->
<g id="node15" class="node"><title>Node8</title>
<a xlink:href="class_my_dialog.html#a1b20c7a54617318d74124edba0623ec4" target="_top" xlink:title="MyDialog::OnButUpdateRoR">
<polygon fill="white" stroke="black" points="295.5,-792.5 295.5,-813.5 438.5,-813.5 438.5,-792.5 295.5,-792.5"/>
<text text-anchor="middle" x="367" y="-800.5" font-family="Helvetica,sans-Serif" font-size="10.00">MyDialog::OnButUpdateRoR</text>
</a>
</g>
<!-- Node7&#45;&gt;Node8 -->
<g id="edge14" class="edge"><title>Node7&#45;&gt;Node8</title>
<path fill="none" stroke="midnightblue" d="M248.817,-803C263.964,-803 280.11,-803 295.445,-803"/>
<polygon fill="midnightblue" stroke="midnightblue" points="248.511,-799.5 238.511,-803 248.511,-806.5 248.511,-799.5"/>
</g>
<!-- Node9&#45;&gt;Node10 -->
<g id="edge18" class="edge"><title>Node9&#45;&gt;Node10</title>
<path fill="none" stroke="midnightblue" d="M248.566,-681C268.747,-681 290.719,-681 310.197,-681"/>
<polygon fill="midnightblue" stroke="midnightblue" points="248.511,-677.5 238.511,-681 248.511,-684.5 248.511,-677.5"/>
</g>
<!-- Node11 -->
<g id="node21" class="node"><title>Node11</title>
<a xlink:href="class_ro_r_1_1_application.html#a86952e2d8958b73638b328cf6132618c" target="_top" xlink:title="RoR::Application::StartOgre\lSubsystem">
<polygon fill="white" stroke="black" points="1048.5,-664 1048.5,-698 1187.5,-698 1187.5,-664 1048.5,-664"/>
<text text-anchor="start" x="1056.5" y="-685" font-family="Helvetica,sans-Serif" font-size="10.00">RoR::Application::StartOgre</text>
<text text-anchor="middle" x="1118" y="-672" font-family="Helvetica,sans-Serif" font-size="10.00">Subsystem</text>
</a>
</g>
<!-- Node10&#45;&gt;Node11 -->
<g id="edge20" class="edge"><title>Node10&#45;&gt;Node11</title>
<path fill="none" stroke="midnightblue" d="M434.035,-681C575.724,-681 904.405,-681 1048.36,-681"/>
<polygon fill="midnightblue" stroke="midnightblue" points="433.755,-677.5 423.755,-681 433.755,-684.5 433.755,-677.5"/>
</g>
<!-- Node11&#45;&gt;Node12 -->
<g id="edge22" class="edge"><title>Node11&#45;&gt;Node12</title>
<path fill="none" stroke="midnightblue" d="M1197.75,-677.277C1259.26,-673.721 1346.33,-667.2 1422,-656 1438.34,-653.582 1456.1,-650.001 1471.69,-646.535"/>
<polygon fill="midnightblue" stroke="midnightblue" points="1197.5,-673.785 1187.72,-677.843 1197.9,-680.773 1197.5,-673.785"/>
</g>
<!-- Node13 -->
<g id="node25" class="node"><title>Node13</title>
<a xlink:href="main_2main__sim_2main_8cpp.html#a0ddf1224851353fc92bfbff6f499fa97" target="_top" xlink:title="main">
<polygon fill="white" stroke="black" points="1658,-648.5 1658,-669.5 1696,-669.5 1696,-648.5 1658,-648.5"/>
<text text-anchor="middle" x="1677" y="-656.5" font-family="Helvetica,sans-Serif" font-size="10.00">main</text>
</a>
</g>
<!-- Node12&#45;&gt;Node13 -->
<g id="edge24" class="edge"><title>Node12&#45;&gt;Node13</title>
<path fill="none" stroke="midnightblue" d="M1581.69,-645.469C1609.27,-649.384 1639.14,-653.624 1657.95,-656.295"/>
<polygon fill="midnightblue" stroke="midnightblue" points="1582.05,-641.985 1571.66,-644.044 1581.07,-648.915 1582.05,-641.985"/>
</g>
<!-- Node15 -->
<g id="node29" class="node"><title>Node15</title>
<a xlink:href="class_ro_r_1_1_main_thread.html#a7a2db954fd2f35d63982d8603d2b9614" target="_top" xlink:title="RoR::MainThread::Request\lRestart">
<polygon fill="white" stroke="black" points="1608.5,-596 1608.5,-630 1745.5,-630 1745.5,-596 1608.5,-596"/>
<text text-anchor="start" x="1616.5" y="-617" font-family="Helvetica,sans-Serif" font-size="10.00">RoR::MainThread::Request</text>
<text text-anchor="middle" x="1677" y="-604" font-family="Helvetica,sans-Serif" font-size="10.00">Restart</text>
</a>
</g>
<!-- Node12&#45;&gt;Node15 -->
<g id="edge28" class="edge"><title>Node12&#45;&gt;Node15</title>
<path fill="none" stroke="midnightblue" d="M1581.82,-626.513C1590.59,-625.267 1599.59,-623.99 1608.39,-622.741"/>
<polygon fill="midnightblue" stroke="midnightblue" points="1581.07,-623.085 1571.66,-627.956 1582.05,-630.015 1581.07,-623.085"/>
</g>
<!-- Node14 -->
<g id="node27" class="node"><title>Node14</title>
<a xlink:href="main_2main__sim_2main_8cpp.html#a2922bc5d5c2d77a3020cfbf9df12aab0" target="_top" xlink:title="WinMain">
<polygon fill="white" stroke="black" points="1823.5,-648.5 1823.5,-669.5 1878.5,-669.5 1878.5,-648.5 1823.5,-648.5"/>
<text text-anchor="middle" x="1851" y="-656.5" font-family="Helvetica,sans-Serif" font-size="10.00">WinMain</text>
</a>
</g>
<!-- Node13&#45;&gt;Node14 -->
<g id="edge26" class="edge"><title>Node13&#45;&gt;Node14</title>
<path fill="none" stroke="midnightblue" d="M1706.56,-659C1739.23,-659 1791.44,-659 1823.33,-659"/>
<polygon fill="midnightblue" stroke="midnightblue" points="1706.29,-655.5 1696.29,-659 1706.29,-662.5 1706.29,-655.5"/>
</g>
<!-- Node16 -->
<g id="node31" class="node"><title>Node16</title>
<a xlink:href="class_ro_r_frame_listener.html#af2779b96aa0f91920bd100bc30261402" target="_top" xlink:title="RoRFrameListener::Restart">
<polygon fill="white" stroke="black" points="1782.5,-602.5 1782.5,-623.5 1919.5,-623.5 1919.5,-602.5 1782.5,-602.5"/>
<text text-anchor="middle" x="1851" y="-610.5" font-family="Helvetica,sans-Serif" font-size="10.00">RoRFrameListener::Restart</text>
</a>
</g>
<!-- Node15&#45;&gt;Node16 -->
<g id="edge30" class="edge"><title>Node15&#45;&gt;Node16</title>
<path fill="none" stroke="midnightblue" d="M1756.04,-613C1764.86,-613 1773.78,-613 1782.45,-613"/>
<polygon fill="midnightblue" stroke="midnightblue" points="1755.77,-609.5 1745.77,-613 1755.77,-616.5 1755.77,-609.5"/>
</g>
<!-- Node17&#45;&gt;Node12 -->
<g id="edge38" class="edge"><title>Node17&#45;&gt;Node12</title>
<path fill="none" stroke="midnightblue" d="M1431.87,-636C1440.93,-636 1449.84,-636 1458.28,-636"/>
<polygon fill="midnightblue" stroke="midnightblue" points="1431.61,-632.5 1421.61,-636 1431.61,-639.5 1431.61,-632.5"/>
</g>
<!-- Node18&#45;&gt;Node17 -->
<g id="edge42" class="edge"><title>Node18&#45;&gt;Node17</title>
<path fill="none" stroke="midnightblue" d="M1182.51,-608.406C1210.99,-613.883 1244.11,-620.253 1271.35,-625.491"/>
<polygon fill="midnightblue" stroke="midnightblue" points="1183.13,-604.961 1172.65,-606.51 1181.81,-611.835 1183.13,-604.961"/>
</g>
<!-- Node19 -->
<g id="node41" class="node"><title>Node19</title>
<a xlink:href="class_game_script.html#ac1cba3fc83facbad8281ff80d4ab0f0b" target="_top" xlink:title="GameScript::loadTerrain">
<polygon fill="white" stroke="black" points="1265,-585.5 1265,-606.5 1387,-606.5 1387,-585.5 1265,-585.5"/>
<text text-anchor="middle" x="1326" y="-593.5" font-family="Helvetica,sans-Serif" font-size="10.00">GameScript::loadTerrain</text>
</a>
</g>
<!-- Node18&#45;&gt;Node19 -->
<g id="edge44" class="edge"><title>Node18&#45;&gt;Node19</title>
<path fill="none" stroke="midnightblue" d="M1203.92,-596C1224.31,-596 1245.65,-596 1264.69,-596"/>
<polygon fill="midnightblue" stroke="midnightblue" points="1203.68,-592.5 1193.68,-596 1203.68,-599.5 1203.68,-592.5"/>
</g>
<!-- Node20&#45;&gt;Node12 -->
<g id="edge48" class="edge"><title>Node20&#45;&gt;Node12</title>
<path fill="none" stroke="midnightblue" d="M956.182,-315.423C1033.22,-356.319 1248.08,-471.558 1422,-576 1449.67,-592.619 1481.08,-613.265 1499.4,-625.496"/>
<polygon fill="midnightblue" stroke="midnightblue" points="957.542,-312.182 947.068,-310.59 954.263,-318.367 957.542,-312.182"/>
</g>
<!-- Node22 -->
<g id="node48" class="node"><title>Node22</title>
<a xlink:href="class_beam_factory.html#a6fa954b906b6dc808a34e69ac2d018d3" target="_top" xlink:title="BeamFactory::calcPhysics">
<polygon fill="white" stroke="black" points="300,-122.5 300,-143.5 434,-143.5 434,-122.5 300,-122.5"/>
<text text-anchor="middle" x="367" y="-130.5" font-family="Helvetica,sans-Serif" font-size="10.00">BeamFactory::calcPhysics</text>
</a>
</g>
<!-- Node21&#45;&gt;Node22 -->
<g id="edge52" class="edge"><title>Node21&#45;&gt;Node22</title>
<path fill="none" stroke="midnightblue" d="M243.381,-158.392C266.842,-153.573 293.325,-148.133 315.744,-143.528"/>
<polygon fill="midnightblue" stroke="midnightblue" points="242.624,-154.974 233.533,-160.415 244.033,-161.831 242.624,-154.974"/>
</g>
<!-- Node23 -->
<g id="node50" class="node"><title>Node23</title>
<a xlink:href="class_ro_r_frame_listener.html#acd8647e188fb8e838689492965b86faf" target="_top" xlink:title="RoRFrameListener::frameStarted">
<polygon fill="white" stroke="black" points="476.5,-102.5 476.5,-123.5 637.5,-123.5 637.5,-102.5 476.5,-102.5"/>
<text text-anchor="middle" x="557" y="-110.5" font-family="Helvetica,sans-Serif" font-size="10.00">RoRFrameListener::frameStarted</text>
</a>
</g>
<!-- Node22&#45;&gt;Node23 -->
<g id="edge54" class="edge"><title>Node22&#45;&gt;Node23</title>
<path fill="none" stroke="midnightblue" d="M444.312,-124.862C454.918,-123.745 465.83,-122.597 476.492,-121.475"/>
<polygon fill="midnightblue" stroke="midnightblue" points="443.833,-121.393 434.254,-125.921 444.566,-128.354 443.833,-121.393"/>
</g>
<!-- Node24 -->
<g id="node52" class="node"><title>Node24</title>
<a xlink:href="class_preview_renderer.html#a5ea6b4611b45965e072266211dc60ba8" target="_top" xlink:title="PreviewRenderer::render">
<polygon fill="white" stroke="black" points="494.5,-142.5 494.5,-163.5 619.5,-163.5 619.5,-142.5 494.5,-142.5"/>
<text text-anchor="middle" x="557" y="-150.5" font-family="Helvetica,sans-Serif" font-size="10.00">PreviewRenderer::render</text>
</a>
</g>
<!-- Node22&#45;&gt;Node24 -->
<g id="edge56" class="edge"><title>Node22&#45;&gt;Node24</title>
<path fill="none" stroke="midnightblue" d="M444.461,-141.154C461.036,-142.899 478.349,-144.721 494.287,-146.399"/>
<polygon fill="midnightblue" stroke="midnightblue" points="444.566,-137.646 434.254,-140.079 443.833,-144.607 444.566,-137.646"/>
</g>
<!-- Node27 -->
<g id="node58" class="node"><title>Node27</title>
<a xlink:href="class_landusemap.html#a15032fdc9b8480990b2d102d91c50122" target="_top" xlink:title="Landusemap::loadConfig">
<polygon fill="white" stroke="black" points="304.5,-418.5 304.5,-439.5 429.5,-439.5 429.5,-418.5 304.5,-418.5"/>
<text text-anchor="middle" x="367" y="-426.5" font-family="Helvetica,sans-Serif" font-size="10.00">Landusemap::loadConfig</text>
</a>
</g>
<!-- Node26&#45;&gt;Node27 -->
<g id="edge62" class="edge"><title>Node26&#45;&gt;Node27</title>
<path fill="none" stroke="midnightblue" d="M229.554,-473.964C249.285,-465.632 272.542,-456.315 294,-449 303.95,-445.608 314.81,-442.383 325.04,-439.551"/>
<polygon fill="midnightblue" stroke="midnightblue" points="228.001,-470.821 220.174,-477.963 230.746,-477.261 228.001,-470.821"/>
</g>
<!-- Node29 -->
<g id="node62" class="node"><title>Node29</title>
<a xlink:href="class_collisions.html#ab787df47353b8b839cf2187ab61ee514" target="_top" xlink:title="Collisions::loadDefaultModels">
<polygon fill="white" stroke="black" points="294,-510.5 294,-531.5 440,-531.5 440,-510.5 294,-510.5"/>
<text text-anchor="middle" x="367" y="-518.5" font-family="Helvetica,sans-Serif" font-size="10.00">Collisions::loadDefaultModels</text>
</a>
</g>
<!-- Node26&#45;&gt;Node29 -->
<g id="edge66" class="edge"><title>Node26&#45;&gt;Node29</title>
<path fill="none" stroke="midnightblue" d="M265.044,-506.671C274.635,-508.019 284.362,-509.386 293.808,-510.714"/>
<polygon fill="midnightblue" stroke="midnightblue" points="265.507,-503.202 255.117,-505.276 264.532,-510.134 265.507,-503.202"/>
</g>
<!-- Node31 -->
<g id="node66" class="node"><title>Node31</title>
<a xlink:href="class_terrain_object_manager.html#a62a108ad201e16585ab3115befedae60" target="_top" xlink:title="TerrainObjectManager\l::loadObject">
<polygon fill="white" stroke="black" points="310.5,-458 310.5,-492 423.5,-492 423.5,-458 310.5,-458"/>
<text text-anchor="start" x="318.5" y="-479" font-family="Helvetica,sans-Serif" font-size="10.00">TerrainObjectManager</text>
<text text-anchor="middle" x="367" y="-466" font-family="Helvetica,sans-Serif" font-size="10.00">::loadObject</text>
</a>
</g>
<!-- Node26&#45;&gt;Node31 -->
<g id="edge70" class="edge"><title>Node26&#45;&gt;Node31</title>
<path fill="none" stroke="midnightblue" d="M265.111,-486.015C280.424,-484.36 296.082,-482.667 310.386,-481.12"/>
<polygon fill="midnightblue" stroke="midnightblue" points="264.683,-482.541 255.117,-487.095 265.435,-489.5 264.683,-482.541"/>
</g>
<!-- Node28 -->
<g id="node60" class="node"><title>Node28</title>
<a xlink:href="class_landusemap.html#ac804af3e0f5a61516c7de9e4eb8165f5" target="_top" xlink:title="Landusemap::Landusemap">
<polygon fill="white" stroke="black" points="490,-378.5 490,-399.5 624,-399.5 624,-378.5 490,-378.5"/>
<text text-anchor="middle" x="557" y="-386.5" font-family="Helvetica,sans-Serif" font-size="10.00">Landusemap::Landusemap</text>
</a>
</g>
<!-- Node27&#45;&gt;Node28 -->
<g id="edge64" class="edge"><title>Node27&#45;&gt;Node28</title>
<path fill="none" stroke="midnightblue" d="M426.955,-416.378C452.738,-410.95 482.527,-404.679 507.084,-399.509"/>
<polygon fill="midnightblue" stroke="midnightblue" points="425.985,-413.005 416.92,-418.49 427.427,-419.855 425.985,-413.005"/>
</g>
<!-- Node30 -->
<g id="node64" class="node"><title>Node30</title>
<a xlink:href="class_collisions.html#a006630da4b62b10ebf123c6333c2b198" target="_top" xlink:title="Collisions::Collisions">
<polygon fill="white" stroke="black" points="503,-510.5 503,-531.5 611,-531.5 611,-510.5 503,-510.5"/>
<text text-anchor="middle" x="557" y="-518.5" font-family="Helvetica,sans-Serif" font-size="10.00">Collisions::Collisions</text>
</a>
</g>
<!-- Node29&#45;&gt;Node30 -->
<g id="edge68" class="edge"><title>Node29&#45;&gt;Node30</title>
<path fill="none" stroke="midnightblue" d="M450.526,-521C468.225,-521 486.462,-521 502.733,-521"/>
<polygon fill="midnightblue" stroke="midnightblue" points="450.187,-517.5 440.187,-521 450.187,-524.5 450.187,-517.5"/>
</g>
<!-- Node32 -->
<g id="node68" class="node"><title>Node32</title>
<a xlink:href="class_game_script.html#adc155d46516906fb9bfddde649c02ee6" target="_top" xlink:title="GameScript::spawnObject">
<polygon fill="white" stroke="black" points="491.5,-418.5 491.5,-439.5 622.5,-439.5 622.5,-418.5 491.5,-418.5"/>
<text text-anchor="middle" x="557" y="-426.5" font-family="Helvetica,sans-Serif" font-size="10.00">GameScript::spawnObject</text>
</a>
</g>
<!-- Node31&#45;&gt;Node32 -->
<g id="edge72" class="edge"><title>Node31&#45;&gt;Node32</title>
<path fill="none" stroke="midnightblue" d="M433.719,-458.847C460.196,-452.437 489.898,-445.246 513.512,-439.529"/>
<polygon fill="midnightblue" stroke="midnightblue" points="432.645,-455.506 423.749,-461.261 434.292,-462.309 432.645,-455.506"/>
</g>
<!-- Node33 -->
<g id="node70" class="node"><title>Node33</title>
<a xlink:href="class_terrain_object_manager.html#a45ccbf51f9c0ecac68927fed5e52eaa4" target="_top" xlink:title="TerrainObjectManager\l::loadObjectConfigFile">
<polygon fill="white" stroke="black" points="500.5,-458 500.5,-492 613.5,-492 613.5,-458 500.5,-458"/>
<text text-anchor="start" x="508.5" y="-479" font-family="Helvetica,sans-Serif" font-size="10.00">TerrainObjectManager</text>
<text text-anchor="middle" x="557" y="-466" font-family="Helvetica,sans-Serif" font-size="10.00">::loadObjectConfigFile</text>
</a>
</g>
<!-- Node31&#45;&gt;Node33 -->
<g id="edge74" class="edge"><title>Node31&#45;&gt;Node33</title>
<path fill="none" stroke="midnightblue" d="M433.863,-475C455.533,-475 479.35,-475 500.215,-475"/>
<polygon fill="midnightblue" stroke="midnightblue" points="433.749,-471.5 423.749,-475 433.749,-478.5 433.749,-471.5"/>
</g>
<!-- Node34 -->
<g id="node72" class="node"><title>Node34</title>
<a xlink:href="class_terrain_manager.html#a4ad87b973cb6af52daaf530a5feff167" target="_top" xlink:title="TerrainManager::loadTerrain\lObjects">
<polygon fill="white" stroke="black" points="674,-478 674,-512 812,-512 812,-478 674,-478"/>
<text text-anchor="start" x="682" y="-499" font-family="Helvetica,sans-Serif" font-size="10.00">TerrainManager::loadTerrain</text>
<text text-anchor="middle" x="743" y="-486" font-family="Helvetica,sans-Serif" font-size="10.00">Objects</text>
</a>
</g>
<!-- Node33&#45;&gt;Node34 -->
<g id="edge76" class="edge"><title>Node33&#45;&gt;Node34</title>
<path fill="none" stroke="midnightblue" d="M623.567,-482.158C639.912,-483.915 657.446,-485.801 673.907,-487.571"/>
<polygon fill="midnightblue" stroke="midnightblue" points="623.881,-478.671 613.564,-481.082 623.132,-485.631 623.881,-478.671"/>
</g>
<!-- Node34&#45;&gt;Node35 -->
<g id="edge78" class="edge"><title>Node34&#45;&gt;Node35</title>
<path fill="none" stroke="midnightblue" d="M822.187,-508.772C836.978,-511.344 852.22,-513.995 866.342,-516.451"/>
<polygon fill="midnightblue" stroke="midnightblue" points="822.49,-505.272 812.038,-507.007 821.291,-512.168 822.49,-505.272"/>
</g>
<!-- Node35&#45;&gt;Node18 -->
<g id="edge80" class="edge"><title>Node35&#45;&gt;Node18</title>
<path fill="none" stroke="midnightblue" d="M966.219,-541.168C1002.65,-554.329 1056.07,-573.627 1088.85,-585.471"/>
<polygon fill="midnightblue" stroke="midnightblue" points="967.019,-537.736 956.425,-537.63 964.641,-544.32 967.019,-537.736"/>
</g>
<!-- Node37&#45;&gt;Node12 -->
<g id="edge86" class="edge"><title>Node37&#45;&gt;Node12</title>
<path fill="none" stroke="midnightblue" d="M811.107,-259.892C864.755,-260.456 941.066,-264.456 1006,-280 1202.79,-327.108 1274.49,-326.491 1422,-465 1473.24,-513.115 1502.61,-595.93 1511.82,-625.294"/>
<polygon fill="midnightblue" stroke="midnightblue" points="811.049,-256.392 801.025,-259.824 811.001,-263.392 811.049,-256.392"/>
</g>
<!-- Node37&#45;&gt;Node20 -->
<g id="edge88" class="edge"><title>Node37&#45;&gt;Node20</title>
<path fill="none" stroke="midnightblue" d="M802.861,-273.688C826.885,-278.78 854.253,-284.581 877.167,-289.438"/>
<polygon fill="midnightblue" stroke="midnightblue" points="803.301,-270.204 792.793,-271.554 801.85,-277.051 803.301,-270.204"/>
</g>
<!-- Node39 -->
<g id="node85" class="node"><title>Node39</title>
<a xlink:href="class_cache_system.html#a4439130b97404a54bca3ca9768586c48" target="_top" xlink:title="CacheSystem::incremental\lCacheUpdate">
<polygon fill="white" stroke="black" points="299.5,-200 299.5,-234 434.5,-234 434.5,-200 299.5,-200"/>
<text text-anchor="start" x="307.5" y="-221" font-family="Helvetica,sans-Serif" font-size="10.00">CacheSystem::incremental</text>
<text text-anchor="middle" x="367" y="-208" font-family="Helvetica,sans-Serif" font-size="10.00">CacheUpdate</text>
</a>
</g>
<!-- Node38&#45;&gt;Node39 -->
<g id="edge92" class="edge"><title>Node38&#45;&gt;Node39</title>
<path fill="none" stroke="midnightblue" d="M267.678,-217C278.338,-217 289.12,-217 299.453,-217"/>
<polygon fill="midnightblue" stroke="midnightblue" points="267.513,-213.5 257.513,-217 267.513,-220.5 267.513,-213.5"/>
</g>
<!-- Node40 -->
<g id="node87" class="node"><title>Node40</title>
<a xlink:href="class_cache_system.html#a37e784da57c57f56a428f61a53b4d618" target="_top" xlink:title="CacheSystem::generateCache">
<polygon fill="white" stroke="black" points="481.5,-206.5 481.5,-227.5 632.5,-227.5 632.5,-206.5 481.5,-206.5"/>
<text text-anchor="middle" x="557" y="-214.5" font-family="Helvetica,sans-Serif" font-size="10.00">CacheSystem::generateCache</text>
</a>
</g>
<!-- Node38&#45;&gt;Node40 -->
<g id="edge98" class="edge"><title>Node38&#45;&gt;Node40</title>
<path fill="none" stroke="midnightblue" d="M254.031,-197.738C267.234,-194.935 280.962,-192.493 294,-191 358.467,-183.615 375.499,-183.92 440,-191 466.889,-193.952 496.64,-200.61 519.412,-206.45"/>
<polygon fill="midnightblue" stroke="midnightblue" points="253.065,-194.367 244.056,-199.943 254.576,-201.202 253.065,-194.367"/>
</g>
<!-- Node39&#45;&gt;Node40 -->
<g id="edge94" class="edge"><title>Node39&#45;&gt;Node40</title>
<path fill="none" stroke="midnightblue" d="M444.59,-217C456.707,-217 469.214,-217 481.288,-217"/>
<polygon fill="midnightblue" stroke="midnightblue" points="444.522,-213.5 434.522,-217 444.522,-220.5 444.522,-213.5"/>
</g>
<!-- Node40&#45;&gt;Node37 -->
<g id="edge96" class="edge"><title>Node40&#45;&gt;Node37</title>
<path fill="none" stroke="midnightblue" d="M611.476,-229.887C639.156,-236.435 672.366,-244.291 698.49,-250.471"/>
<polygon fill="midnightblue" stroke="midnightblue" points="612.089,-226.435 601.552,-227.539 610.477,-233.247 612.089,-226.435"/>
</g>
<!-- Node41&#45;&gt;Node35 -->
<g id="edge104" class="edge"><title>Node41&#45;&gt;Node35</title>
<path fill="none" stroke="midnightblue" d="M261.216,-384.049C340.962,-378.105 455.096,-369.746 476,-369 547.954,-366.433 568.241,-351.176 638,-369 754.345,-398.727 874.283,-486.003 913.63,-516.408"/>
<polygon fill="midnightblue" stroke="midnightblue" points="260.895,-380.563 251.183,-384.798 261.416,-387.544 260.895,-380.563"/>
</g>
<!-- Node42 -->
<g id="node93" class="node"><title>Node42</title>
<a xlink:href="class_cache_system.html#a8c919d3618cc1b8924fc17f2c8cf4155" target="_top" xlink:title="CacheSystem::fillTerrain\lDetailInfo">
<polygon fill="white" stroke="black" points="304.5,-328 304.5,-362 429.5,-362 429.5,-328 304.5,-328"/>
<text text-anchor="start" x="312.5" y="-349" font-family="Helvetica,sans-Serif" font-size="10.00">CacheSystem::fillTerrain</text>
<text text-anchor="middle" x="367" y="-336" font-family="Helvetica,sans-Serif" font-size="10.00">DetailInfo</text>
</a>
</g>
<!-- Node41&#45;&gt;Node42 -->
<g id="edge102" class="edge"><title>Node41&#45;&gt;Node42</title>
<path fill="none" stroke="midnightblue" d="M261.071,-370.766C275.531,-367.249 290.438,-363.623 304.338,-360.242"/>
<polygon fill="midnightblue" stroke="midnightblue" points="260.04,-367.415 251.15,-373.18 261.694,-374.217 260.04,-367.415"/>
</g>
</g>
</svg>
        <g id="navigator" transform="translate(0 0)" fill="#404254">
                <rect fill="#f2f5e9" fill-opacity="0.5" stroke="#606060" stroke-width=".5" x="0" y="0" width="60" height="60"/>
                <use id="zoomplus" xlink:href="#zoomPlus" x="17" y="9" onmousedown="handleZoom(evt,'in')"/>
                <use id="zoomminus" xlink:href="#zoomMin" x="42" y="9" onmousedown="handleZoom(evt,'out')"/>
                <use id="reset" xlink:href="#resetDef" x="30" y="36" onmousedown="handleReset()"/>
                <g id="arrowUp" xlink:href="#dirArrow" transform="translate(30 24)" onmousedown="handlePan(0,-1)">
                  <use xlink:href="#rim" fill="#404040">
                        <set attributeName="fill" to="#808080" begin="arrowUp.mouseover" end="arrowUp.mouseout"/>
                  </use>
                  <path fill="none" stroke="white" stroke-width="1.5" d="M0,-3.0v7 M-2.5,-0.5L0,-3.0L2.5,-0.5"/>
                </g>
                <g id="arrowRight" xlink:href="#dirArrow" transform="rotate(90) translate(36 -43)" onmousedown="handlePan(1,0)">
                  <use xlink:href="#rim" fill="#404040">
                        <set attributeName="fill" to="#808080" begin="arrowRight.mouseover" end="arrowRight.mouseout"/>
                  </use>
                  <path fill="none" stroke="white" stroke-width="1.5" d="M0,-3.0v7 M-2.5,-0.5L0,-3.0L2.5,-0.5"/>
                </g>
                <g id="arrowDown" xlink:href="#dirArrow" transform="rotate(180) translate(-30 -48)" onmousedown="handlePan(0,1)">
                  <use xlink:href="#rim" fill="#404040">
                        <set attributeName="fill" to="#808080" begin="arrowDown.mouseover" end="arrowDown.mouseout"/>
                  </use>
                  <path fill="none" stroke="white" stroke-width="1.5" d="M0,-3.0v7 M-2.5,-0.5L0,-3.0L2.5,-0.5"/>
                </g>
                <g id="arrowLeft" xlink:href="#dirArrow" transform="rotate(270) translate(-36 17)" onmousedown="handlePan(-1,0)">
                  <use xlink:href="#rim" fill="#404040">
                        <set attributeName="fill" to="#808080" begin="arrowLeft.mouseover" end="arrowLeft.mouseout"/>
                  </use>
                  <path fill="none" stroke="white" stroke-width="1.5" d="M0,-3.0v7 M-2.5,-0.5L0,-3.0L2.5,-0.5"/>
                </g>
        </g>
        <svg viewBox="0 0 15 15" width="100%" height="30px" preserveAspectRatio="xMaxYMin meet">
         <g id="arrow_out" transform="scale(0.3 0.3)">
          <a xlink:href="namespace_profiler_af79bb59414ef3ba134213bb6f2f2d292_icgraph_org.svg" target="_base">
           <rect id="button" ry="5" rx="5" y="6" x="6" height="38" width="38"
                fill="#f2f5e9" fill-opacity="0.5" stroke="#606060" stroke-width="1.0"/>
           <path id="arrow"
             d="M 11.500037,31.436501 C 11.940474,20.09759 22.043105,11.32322 32.158766,21.979434 L 37.068811,17.246167 C 37.068811,17.246167 37.088388,32 37.088388,32 L 22.160133,31.978069 C 22.160133,31.978069 26.997745,27.140456 26.997745,27.140456 C 18.528582,18.264221 13.291696,25.230495 11.500037,31.436501 z"
             style="fill:#404040;"/>
          </a>
         </g>
        </svg>
</svg>
