<?xml version="1.0" encoding="UTF-8" standalone="no"?>
<!DOCTYPE svg PUBLIC "-//W3C//DTD SVG 1.1//EN"
 "http://www.w3.org/Graphics/SVG/1.1/DTD/svg11.dtd">
<!-- Generated by graphviz version 2.26.3 (20100126.1600)
 -->
<!-- Title: AssignBoolToString Pages: 1 -->
<svg width="704pt" height="30pt"
 viewBox="0.00 0.00 704.00 30.00" xmlns="http://www.w3.org/2000/svg" xmlns:xlink="http://www.w3.org/1999/xlink">
<g id="graph1" class="graph" transform="scale(1 1) rotate(0) translate(4 26)">
<title>AssignBoolToString</title>
<polygon fill="white" stroke="white" points="-4,5 -4,-26 701,-26 701,5 -4,5"/>
<!-- Node1 -->
<g id="node1" class="node"><title>Node1</title>
<polygon fill="#bfbfbf" stroke="black" points="0.5,-0.5 0.5,-21.5 103.5,-21.5 103.5,-0.5 0.5,-0.5"/>
<text text-anchor="middle" x="52" y="-8.5" font-family="Helvetica,sans-Serif" font-size="10.00">AssignBoolToString</text>
</g>
<!-- Node2 -->
<g id="node3" class="node"><title>Node2</title>
<a xlink:href="scriptstdstring_8cpp.html#a657654b75330de77f99c893c3961e7a4" target="_top" xlink:title="RegisterStdString_Native">
<polygon fill="white" stroke="black" points="140,-0.5 140,-21.5 268,-21.5 268,-0.5 140,-0.5"/>
<text text-anchor="middle" x="204" y="-8.5" font-family="Helvetica,sans-Serif" font-size="10.00">RegisterStdString_Native</text>
</a>
</g>
<!-- Node1&#45;&gt;Node2 -->
<g id="edge2" class="edge"><title>Node1&#45;&gt;Node2</title>
<path fill="none" stroke="midnightblue" d="M114.133,-11C122.657,-11 131.422,-11 139.98,-11"/>
<polygon fill="midnightblue" stroke="midnightblue" points="113.885,-7.5001 103.885,-11 113.885,-14.5001 113.885,-7.5001"/>
</g>
<!-- Node3 -->
<g id="node5" class="node"><title>Node3</title>
<a xlink:href="scriptstdstring_8h.html#a287e4fc1f4c8621cfd2f1793f9e70f39" target="_top" xlink:title="RegisterStdString">
<polygon fill="white" stroke="black" points="304,-0.5 304,-21.5 398,-21.5 398,-0.5 304,-0.5"/>
<text text-anchor="middle" x="351" y="-8.5" font-family="Helvetica,sans-Serif" font-size="10.00">RegisterStdString</text>
</a>
</g>
<!-- Node2&#45;&gt;Node3 -->
<g id="edge4" class="edge"><title>Node2&#45;&gt;Node3</title>
<path fill="none" stroke="midnightblue" d="M278.285,-11C287.024,-11 295.749,-11 303.964,-11"/>
<polygon fill="midnightblue" stroke="midnightblue" points="278.049,-7.5001 268.049,-11 278.049,-14.5001 278.049,-7.5001"/>
</g>
<!-- Node4 -->
<g id="node7" class="node"><title>Node4</title>
<a xlink:href="class_script_engine.html#aec64d59067a79c9fe0b88c150c901147" target="_top" xlink:title="ScriptEngine::init">
<polygon fill="white" stroke="black" points="434.5,-0.5 434.5,-21.5 525.5,-21.5 525.5,-0.5 434.5,-0.5"/>
<text text-anchor="middle" x="480" y="-8.5" font-family="Helvetica,sans-Serif" font-size="10.00">ScriptEngine::init</text>
</a>
</g>
<!-- Node3&#45;&gt;Node4 -->
<g id="edge6" class="edge"><title>Node3&#45;&gt;Node4</title>
<path fill="none" stroke="midnightblue" d="M408.41,-11C417.122,-11 426.008,-11 434.423,-11"/>
<polygon fill="midnightblue" stroke="midnightblue" points="408.302,-7.5001 398.302,-11 408.302,-14.5001 408.302,-7.5001"/>
</g>
<!-- Node5 -->
<g id="node9" class="node"><title>Node5</title>
<a xlink:href="class_script_engine.html#a05631d095d3ed370791fb2e67344da32" target="_top" xlink:title="ScriptEngine::ScriptEngine">
<polygon fill="white" stroke="black" points="562,-0.5 562,-21.5 696,-21.5 696,-0.5 562,-0.5"/>
<text text-anchor="middle" x="629" y="-8.5" font-family="Helvetica,sans-Serif" font-size="10.00">ScriptEngine::ScriptEngine</text>
</a>
</g>
<!-- Node4&#45;&gt;Node5 -->
<g id="edge8" class="edge"><title>Node4&#45;&gt;Node5</title>
<path fill="none" stroke="midnightblue" d="M535.699,-11C544.218,-11 553.087,-11 561.822,-11"/>
<polygon fill="midnightblue" stroke="midnightblue" points="535.515,-7.5001 525.515,-11 535.514,-14.5001 535.515,-7.5001"/>
</g>
</g>
</svg>
