<?xml version="1.0" encoding="UTF-8" standalone="no"?>
<!DOCTYPE svg PUBLIC "-//W3C//DTD SVG 1.1//EN"
 "http://www.w3.org/Graphics/SVG/1.1/DTD/svg11.dtd">
<!-- Generated by graphviz version 2.26.3 (20100126.1600)
 -->
<!-- Title: G Pages: 1 -->
<svg width="444pt" height="30pt"
 viewBox="0.00 0.00 444.00 30.00" xmlns="http://www.w3.org/2000/svg" xmlns:xlink="http://www.w3.org/1999/xlink">
<g id="graph1" class="graph" transform="scale(1 1) rotate(0) translate(4 26)">
<title>G</title>
<polygon fill="white" stroke="white" points="-4,5 -4,-26 441,-26 441,5 -4,5"/>
<!-- Node1 -->
<g id="node1" class="node"><title>Node1</title>
<polygon fill="#bfbfbf" stroke="black" points="0,-0.5 0,-21.5 134,-21.5 134,-0.5 0,-0.5"/>
<text text-anchor="middle" x="67" y="-8.5" font-family="Helvetica,sans-Serif" font-size="10.00">ScriptFile_SetPos_Generic</text>
</g>
<!-- Node2 -->
<g id="node3" class="node"><title>Node2</title>
<a xlink:href="scriptfile_8h.html#a4c85875641bf5149b9303620ae2504c7" target="_top" xlink:title="RegisterScriptFile_Generic">
<polygon fill="white" stroke="black" points="170,-0.5 170,-21.5 304,-21.5 304,-0.5 170,-0.5"/>
<text text-anchor="middle" x="237" y="-8.5" font-family="Helvetica,sans-Serif" font-size="10.00">RegisterScriptFile_Generic</text>
</a>
</g>
<!-- Node1&#45;&gt;Node2 -->
<g id="edge2" class="edge"><title>Node1&#45;&gt;Node2</title>
<path fill="none" stroke="midnightblue" d="M144.425,-11C152.876,-11 161.428,-11 169.743,-11"/>
<polygon fill="midnightblue" stroke="midnightblue" points="144.189,-7.5001 134.189,-11 144.188,-14.5001 144.189,-7.5001"/>
</g>
<!-- Node3 -->
<g id="node5" class="node"><title>Node3</title>
<a xlink:href="scriptfile_8h.html#a31f6b5871cb6d1af1f74087e744103a4" target="_top" xlink:title="RegisterScriptFile">
<polygon fill="white" stroke="black" points="340.5,-0.5 340.5,-21.5 435.5,-21.5 435.5,-0.5 340.5,-0.5"/>
<text text-anchor="middle" x="388" y="-8.5" font-family="Helvetica,sans-Serif" font-size="10.00">RegisterScriptFile</text>
</a>
</g>
<!-- Node2&#45;&gt;Node3 -->
<g id="edge4" class="edge"><title>Node2&#45;&gt;Node3</title>
<path fill="none" stroke="midnightblue" d="M314.386,-11C323.15,-11 331.881,-11 340.104,-11"/>
<polygon fill="midnightblue" stroke="midnightblue" points="314.11,-7.5001 304.11,-11 314.11,-14.5001 314.11,-7.5001"/>
</g>
</g>
</svg>
