<?xml version="1.0" encoding="UTF-8" standalone="no"?>
<!DOCTYPE svg PUBLIC "-//W3C//DTD SVG 1.1//EN"
 "http://www.w3.org/Graphics/SVG/1.1/DTD/svg11.dtd">
<!-- Generated by graphviz version 2.26.3 (20100126.1600)
 -->
<!-- Title: G Pages: 1 -->
<svg width="302pt" height="146pt"
 viewBox="0.00 0.00 302.00 146.00" xmlns="http://www.w3.org/2000/svg" xmlns:xlink="http://www.w3.org/1999/xlink">
<g id="graph1" class="graph" transform="scale(1 1) rotate(0) translate(4 142)">
<title>G</title>
<polygon fill="white" stroke="white" points="-4,5 -4,-142 299,-142 299,5 -4,5"/>
<!-- Node1 -->
<g id="node1" class="node"><title>Node1</title>
<polygon fill="#bfbfbf" stroke="black" points="0,-116.5 0,-137.5 254,-137.5 254,-116.5 0,-116.5"/>
<text text-anchor="middle" x="127" y="-124.5" font-family="Helvetica,sans-Serif" font-size="10.00">source/angelscript_addons/scriptstring/scriptstring.cpp</text>
</g>
<!-- Node2 -->
<g id="node3" class="node"><title>Node2</title>
<polygon fill="white" stroke="#bfbfbf" points="1,-58.5 1,-79.5 53,-79.5 53,-58.5 1,-58.5"/>
<text text-anchor="middle" x="27" y="-66.5" font-family="Helvetica,sans-Serif" font-size="10.00">assert.h</text>
</g>
<!-- Node1&#45;&gt;Node2 -->
<g id="edge2" class="edge"><title>Node1&#45;&gt;Node2</title>
<path fill="none" stroke="midnightblue" d="M108.658,-116.362C93.4345,-107.532 71.5585,-94.844 54.28,-84.8224"/>
<polygon fill="midnightblue" stroke="midnightblue" points="55.6316,-81.5603 45.2253,-79.5707 52.1196,-87.6155 55.6316,-81.5603"/>
</g>
<!-- Node3 -->
<g id="node5" class="node"><title>Node3</title>
<polygon fill="white" stroke="#bfbfbf" points="70.5,-58.5 70.5,-79.5 119.5,-79.5 119.5,-58.5 70.5,-58.5"/>
<text text-anchor="middle" x="95" y="-66.5" font-family="Helvetica,sans-Serif" font-size="10.00">string.h</text>
</g>
<!-- Node1&#45;&gt;Node3 -->
<g id="edge4" class="edge"><title>Node1&#45;&gt;Node3</title>
<path fill="none" stroke="midnightblue" d="M121.131,-116.362C116.845,-108.595 110.913,-97.8426 105.784,-88.5458"/>
<polygon fill="midnightblue" stroke="midnightblue" points="108.727,-86.6357 100.832,-79.5707 102.598,-90.0172 108.727,-86.6357"/>
</g>
<!-- Node4 -->
<g id="node7" class="node"><title>Node4</title>
<polygon fill="white" stroke="#bfbfbf" points="137,-58.5 137,-79.5 183,-79.5 183,-58.5 137,-58.5"/>
<text text-anchor="middle" x="160" y="-66.5" font-family="Helvetica,sans-Serif" font-size="10.00">stdio.h</text>
</g>
<!-- Node1&#45;&gt;Node4 -->
<g id="edge6" class="edge"><title>Node1&#45;&gt;Node4</title>
<path fill="none" stroke="midnightblue" d="M133.053,-116.362C137.472,-108.595 143.59,-97.8426 148.879,-88.5458"/>
<polygon fill="midnightblue" stroke="midnightblue" points="152.082,-89.9932 153.986,-79.5707 145.998,-86.5315 152.082,-89.9932"/>
</g>
<!-- Node5 -->
<g id="node9" class="node"><title>Node5</title>
<a xlink:href="scriptstring_8h.html" target="_top" xlink:title="scriptstring.h">
<polygon fill="white" stroke="black" points="200.5,-58.5 200.5,-79.5 273.5,-79.5 273.5,-58.5 200.5,-58.5"/>
<text text-anchor="middle" x="237" y="-66.5" font-family="Helvetica,sans-Serif" font-size="10.00">scriptstring.h</text>
</a>
</g>
<!-- Node1&#45;&gt;Node5 -->
<g id="edge8" class="edge"><title>Node1&#45;&gt;Node5</title>
<path fill="none" stroke="midnightblue" d="M146.92,-116.497C163.946,-107.519 188.669,-94.4835 207.909,-84.3387"/>
<polygon fill="midnightblue" stroke="midnightblue" points="209.643,-87.3814 216.856,-79.6212 206.378,-81.1894 209.643,-87.3814"/>
</g>
<!-- Node6 -->
<g id="node11" class="node"><title>Node6</title>
<polygon fill="white" stroke="#bfbfbf" points="164,-0.5 164,-21.5 236,-21.5 236,-0.5 164,-0.5"/>
<text text-anchor="middle" x="200" y="-8.5" font-family="Helvetica,sans-Serif" font-size="10.00">angelscript.h</text>
</g>
<!-- Node5&#45;&gt;Node6 -->
<g id="edge10" class="edge"><title>Node5&#45;&gt;Node6</title>
<path fill="none" stroke="midnightblue" d="M230.214,-58.3619C225.207,-50.5131 218.255,-39.6159 212.282,-30.2527"/>
<polygon fill="midnightblue" stroke="midnightblue" points="215.072,-28.1189 206.743,-21.5707 209.171,-31.8837 215.072,-28.1189"/>
</g>
<!-- Node7 -->
<g id="node13" class="node"><title>Node7</title>
<polygon fill="white" stroke="#bfbfbf" points="253.5,-0.5 253.5,-21.5 294.5,-21.5 294.5,-0.5 253.5,-0.5"/>
<text text-anchor="middle" x="274" y="-8.5" font-family="Helvetica,sans-Serif" font-size="10.00">string</text>
</g>
<!-- Node5&#45;&gt;Node7 -->
<g id="edge12" class="edge"><title>Node5&#45;&gt;Node7</title>
<path fill="none" stroke="midnightblue" d="M243.786,-58.3619C248.793,-50.5131 255.745,-39.6159 261.718,-30.2527"/>
<polygon fill="midnightblue" stroke="midnightblue" points="264.829,-31.8837 267.257,-21.5707 258.928,-28.1189 264.829,-31.8837"/>
</g>
</g>
</svg>
