<?xml version="1.0" encoding="UTF-8" standalone="no"?>
<!DOCTYPE svg PUBLIC "-//W3C//DTD SVG 1.1//EN"
 "http://www.w3.org/Graphics/SVG/1.1/DTD/svg11.dtd">
<!-- Generated by graphviz version 2.26.3 (20100126.1600)
 -->
<!-- Title: RegisterScriptStringUtils Pages: 1 -->
<!--zoomable 650 -->
<svg id="main" version="1.1" xmlns="http://www.w3.org/2000/svg" xmlns:xlink="http://www.w3.org/1999/xlink" xml:space="preserve" onload="init(evt)">
<style type="text/css"><![CDATA[
.edge:hover path { stroke: red; }
.edge:hover polygon { stroke: red; fill: red; }
]]></style>
<script type="text/javascript"><![CDATA[
var edges = document.getElementsByTagName('g');
if (edges && edges.length) {
  for (var i=0;i<edges.length;i++) {
    if (edges[i].id.substr(0,4)=='edge') {
      edges[i].setAttribute('class','edge');
    }
  }
}
]]></script>
        <defs>
                <circle id="rim" cx="0" cy="0" r="7"/>
                <circle id="rim2" cx="0" cy="0" r="3.5"/>
                <g id="zoomPlus">
                        <use xlink:href="#rim" fill="#404040">
                                <set attributeName="fill" to="#808080" begin="zoomplus.mouseover" end="zoomplus.mouseout"/>
                        </use>
                        <path d="M-4,0h8M0,-4v8" fill="none" stroke="white" stroke-width="1.5" pointer-events="none"/>
                </g>
                <g id="zoomMin">
                        <use xlink:href="#rim" fill="#404040">
                                <set attributeName="fill" to="#808080" begin="zoomminus.mouseover" end="zoomminus.mouseout"/>
                        </use>
                        <path d="M-4,0h8" fill="none" stroke="white" stroke-width="1.5" pointer-events="none"/>
                </g>
                <g id="dirArrow">
                        <path fill="none" stroke="white" stroke-width="1.5" d="M0,-3.0v7 M-2.5,-0.5L0,-3.0L2.5,-0.5"/>
                </g>
               <g id="resetDef">
                       <use xlink:href="#rim2" fill="#404040">
                               <set attributeName="fill" to="#808080" begin="reset.mouseover" end="reset.mouseout"/>
                       </use>
               </g>
        </defs>

<script type="text/javascript">
var viewWidth = 636;
var viewHeight = 650;
var sectionId = 'dynsection-1';
</script>
<script xlink:href="svgpan.js"/>
<svg id="graph" class="graph">
<g id="viewport">
<title>RegisterScriptStringUtils</title>
<polygon fill="white" stroke="white" points="-4,5 -4,-646 633,-646 633,5 -4,5"/>
<!-- Node1 -->
<g id="node1" class="node"><title>Node1</title>
<polygon fill="#bfbfbf" stroke="black" points="0.5,-322.5 0.5,-343.5 125.5,-343.5 125.5,-322.5 0.5,-322.5"/>
<text text-anchor="middle" x="63" y="-330.5" font-family="Helvetica,sans-Serif" font-size="10.00">RegisterScriptStringUtils</text>
</g>
<!-- Node2 -->
<g id="node3" class="node"><title>Node2</title>
<a xlink:href="scriptstring__utils_8cpp.html#abfeaf7494e329887d2bacb17fa8fac7b" target="_top" xlink:title="StringSubString_Generic">
<polygon fill="white" stroke="black" points="167,-620.5 167,-641.5 291,-641.5 291,-620.5 167,-620.5"/>
<text text-anchor="middle" x="229" y="-628.5" font-family="Helvetica,sans-Serif" font-size="10.00">StringSubString_Generic</text>
</a>
</g>
<!-- Node1&#45;&gt;Node2 -->
<g id="edge2" class="edge"><title>Node1&#45;&gt;Node2</title>
<path fill="none" stroke="midnightblue" d="M63.4897,-343.621C65.9606,-384.544 80.44,-533.577 162,-611 163.645,-612.562 165.407,-614.002 167.26,-615.33"/>
<polygon fill="midnightblue" stroke="midnightblue" points="165.505,-618.359 175.888,-620.466 169.085,-612.344 165.505,-618.359"/>
</g>
<!-- Node3 -->
<g id="node5" class="node"><title>Node3</title>
<a xlink:href="scriptstring__utils_8cpp.html#ad5cd7554684266122126c23ca9c87240" target="_top" xlink:title="StringFindFirst0_Generic">
<polygon fill="white" stroke="black" points="166.5,-580.5 166.5,-601.5 291.5,-601.5 291.5,-580.5 166.5,-580.5"/>
<text text-anchor="middle" x="229" y="-588.5" font-family="Helvetica,sans-Serif" font-size="10.00">StringFindFirst0_Generic</text>
</a>
</g>
<!-- Node1&#45;&gt;Node3 -->
<g id="edge4" class="edge"><title>Node1&#45;&gt;Node3</title>
<path fill="none" stroke="midnightblue" d="M64.2024,-343.618C68.9808,-380.766 90.0186,-506.148 162,-571 163.722,-572.551 165.56,-573.983 167.487,-575.303"/>
<polygon fill="midnightblue" stroke="midnightblue" points="166.003,-578.486 176.421,-580.411 169.477,-572.409 166.003,-578.486"/>
</g>
<!-- Node4 -->
<g id="node7" class="node"><title>Node4</title>
<a xlink:href="scriptstring__utils_8cpp.html#a1328c114bce351e76b54c339845cc750" target="_top" xlink:title="StringFindFirst_Generic">
<polygon fill="white" stroke="black" points="169.5,-540.5 169.5,-561.5 288.5,-561.5 288.5,-540.5 169.5,-540.5"/>
<text text-anchor="middle" x="229" y="-548.5" font-family="Helvetica,sans-Serif" font-size="10.00">StringFindFirst_Generic</text>
</a>
</g>
<!-- Node1&#45;&gt;Node4 -->
<g id="edge6" class="edge"><title>Node1&#45;&gt;Node4</title>
<path fill="none" stroke="midnightblue" d="M65.2392,-343.893C72.6604,-377.2 99.6107,-478.597 162,-531 163.993,-532.674 166.121,-534.207 168.35,-535.613"/>
<polygon fill="midnightblue" stroke="midnightblue" points="166.888,-538.8 177.358,-540.422 170.185,-532.625 166.888,-538.8"/>
</g>
<!-- Node5 -->
<g id="node9" class="node"><title>Node5</title>
<a xlink:href="scriptstring__utils_8cpp.html#a0c37f24195c9e29da25805d215dd6049" target="_top" xlink:title="StringFindLast0_Generic">
<polygon fill="white" stroke="black" points="167,-500.5 167,-521.5 291,-521.5 291,-500.5 167,-500.5"/>
<text text-anchor="middle" x="229" y="-508.5" font-family="Helvetica,sans-Serif" font-size="10.00">StringFindLast0_Generic</text>
</a>
</g>
<!-- Node1&#45;&gt;Node5 -->
<g id="edge8" class="edge"><title>Node1&#45;&gt;Node5</title>
<path fill="none" stroke="midnightblue" d="M66.6322,-343.689C76.86,-372.16 108.68,-450.418 162,-491 164.355,-492.792 166.868,-494.424 169.489,-495.911"/>
<polygon fill="midnightblue" stroke="midnightblue" points="168.217,-499.184 178.739,-500.423 171.286,-492.893 168.217,-499.184"/>
</g>
<!-- Node6 -->
<g id="node11" class="node"><title>Node6</title>
<a xlink:href="scriptstring__utils_8cpp.html#a17f49cff3fd18ae100d28ac8b470803a" target="_top" xlink:title="StringFindLast_Generic">
<polygon fill="white" stroke="black" points="169.5,-460.5 169.5,-481.5 288.5,-481.5 288.5,-460.5 169.5,-460.5"/>
<text text-anchor="middle" x="229" y="-468.5" font-family="Helvetica,sans-Serif" font-size="10.00">StringFindLast_Generic</text>
</a>
</g>
<!-- Node1&#45;&gt;Node6 -->
<g id="edge10" class="edge"><title>Node1&#45;&gt;Node6</title>
<path fill="none" stroke="midnightblue" d="M68.9243,-343.598C82.3744,-366.682 117.529,-421.774 162,-451 165.072,-453.019 168.354,-454.84 171.755,-456.482"/>
<polygon fill="midnightblue" stroke="midnightblue" points="170.397,-459.708 180.968,-460.422 173.15,-453.271 170.397,-459.708"/>
</g>
<!-- Node7 -->
<g id="node13" class="node"><title>Node7</title>
<a xlink:href="scriptstring__utils_8cpp.html#ad76e171548399c73e71d9d89d2e80471" target="_top" xlink:title="StringFindFirstOf0\l_Generic">
<polygon fill="white" stroke="black" points="181,-408 181,-442 277,-442 277,-408 181,-408"/>
<text text-anchor="start" x="189" y="-429" font-family="Helvetica,sans-Serif" font-size="10.00">StringFindFirstOf0</text>
<text text-anchor="middle" x="229" y="-416" font-family="Helvetica,sans-Serif" font-size="10.00">_Generic</text>
</a>
</g>
<!-- Node1&#45;&gt;Node7 -->
<g id="edge12" class="edge"><title>Node1&#45;&gt;Node7</title>
<path fill="none" stroke="midnightblue" d="M76.8269,-343.636C95.4369,-357.613 129.92,-382.336 162,-399 165.235,-400.681 168.605,-402.316 172.036,-403.895"/>
<polygon fill="midnightblue" stroke="midnightblue" points="170.649,-407.109 181.211,-407.935 173.469,-400.702 170.649,-407.109"/>
</g>
<!-- Node8 -->
<g id="node15" class="node"><title>Node8</title>
<a xlink:href="scriptstring__utils_8cpp.html#a3c88fa09d38efa0f8b79a805c7df7745" target="_top" xlink:title="StringFindFirstOf_Generic">
<polygon fill="white" stroke="black" points="164,-368.5 164,-389.5 294,-389.5 294,-368.5 164,-368.5"/>
<text text-anchor="middle" x="229" y="-376.5" font-family="Helvetica,sans-Serif" font-size="10.00">StringFindFirstOf_Generic</text>
</a>
</g>
<!-- Node1&#45;&gt;Node8 -->
<g id="edge14" class="edge"><title>Node1&#45;&gt;Node8</title>
<path fill="none" stroke="midnightblue" d="M101.084,-343.553C124.914,-350.157 155.812,-358.719 181.272,-365.774"/>
<polygon fill="midnightblue" stroke="midnightblue" points="180.522,-369.198 191.093,-368.496 182.391,-362.452 180.522,-369.198"/>
</g>
<!-- Node9 -->
<g id="node17" class="node"><title>Node9</title>
<a xlink:href="scriptstring__utils_8cpp.html#af72f1ab7188b0f1be595979fa9439f0f" target="_top" xlink:title="StringFindFirstNotOf0\l_Generic">
<polygon fill="white" stroke="black" points="173,-316 173,-350 285,-350 285,-316 173,-316"/>
<text text-anchor="start" x="181" y="-337" font-family="Helvetica,sans-Serif" font-size="10.00">StringFindFirstNotOf0</text>
<text text-anchor="middle" x="229" y="-324" font-family="Helvetica,sans-Serif" font-size="10.00">_Generic</text>
</a>
</g>
<!-- Node1&#45;&gt;Node9 -->
<g id="edge16" class="edge"><title>Node1&#45;&gt;Node9</title>
<path fill="none" stroke="midnightblue" d="M125.757,-333C137.88,-333 150.615,-333 162.842,-333"/>
<polygon fill="midnightblue" stroke="midnightblue" points="162.968,-336.5 172.968,-333 162.968,-329.5 162.968,-336.5"/>
</g>
<!-- Node10 -->
<g id="node19" class="node"><title>Node10</title>
<a xlink:href="scriptstring__utils_8cpp.html#a4a75c85b597a8cf4dbca4c5a0d6cf0d4" target="_top" xlink:title="StringFindFirstNotOf\l_Generic">
<polygon fill="white" stroke="black" points="175.5,-264 175.5,-298 282.5,-298 282.5,-264 175.5,-264"/>
<text text-anchor="start" x="183.5" y="-285" font-family="Helvetica,sans-Serif" font-size="10.00">StringFindFirstNotOf</text>
<text text-anchor="middle" x="229" y="-272" font-family="Helvetica,sans-Serif" font-size="10.00">_Generic</text>
</a>
</g>
<!-- Node1&#45;&gt;Node10 -->
<g id="edge18" class="edge"><title>Node1&#45;&gt;Node10</title>
<path fill="none" stroke="midnightblue" d="M96.5926,-322.477C116.41,-316.269 142.135,-308.211 165.633,-300.85"/>
<polygon fill="midnightblue" stroke="midnightblue" points="166.701,-304.183 175.198,-297.854 164.609,-297.503 166.701,-304.183"/>
</g>
<!-- Node11 -->
<g id="node21" class="node"><title>Node11</title>
<a xlink:href="scriptstring__utils_8cpp.html#a7b8899fe6b4331426c65f665c02200bf" target="_top" xlink:title="StringFindLastOf0_Generic">
<polygon fill="white" stroke="black" points="162,-224.5 162,-245.5 296,-245.5 296,-224.5 162,-224.5"/>
<text text-anchor="middle" x="229" y="-232.5" font-family="Helvetica,sans-Serif" font-size="10.00">StringFindLastOf0_Generic</text>
</a>
</g>
<!-- Node1&#45;&gt;Node11 -->
<g id="edge20" class="edge"><title>Node1&#45;&gt;Node11</title>
<path fill="none" stroke="midnightblue" d="M73.6079,-322.362C90.755,-305.727 126.264,-273.545 162,-255 166.222,-252.809 170.722,-250.82 175.315,-249.022"/>
<polygon fill="midnightblue" stroke="midnightblue" points="176.594,-252.282 184.815,-245.599 174.221,-245.696 176.594,-252.282"/>
</g>
<!-- Node12 -->
<g id="node23" class="node"><title>Node12</title>
<a xlink:href="scriptstring__utils_8cpp.html#a9b8b11577c9b794a3041756cde09ddc0" target="_top" xlink:title="StringFindLastOf_Generic">
<polygon fill="white" stroke="black" points="164.5,-184.5 164.5,-205.5 293.5,-205.5 293.5,-184.5 164.5,-184.5"/>
<text text-anchor="middle" x="229" y="-192.5" font-family="Helvetica,sans-Serif" font-size="10.00">StringFindLastOf_Generic</text>
</a>
</g>
<!-- Node1&#45;&gt;Node12 -->
<g id="edge22" class="edge"><title>Node1&#45;&gt;Node12</title>
<path fill="none" stroke="midnightblue" d="M68.9243,-322.402C82.3744,-299.318 117.529,-244.226 162,-215 165.072,-212.981 168.354,-211.16 171.755,-209.518"/>
<polygon fill="midnightblue" stroke="midnightblue" points="173.15,-212.729 180.968,-205.578 170.397,-206.292 173.15,-212.729"/>
</g>
<!-- Node13 -->
<g id="node25" class="node"><title>Node13</title>
<a xlink:href="scriptstring__utils_8cpp.html#a9637d91f498c65f8a2b6fbfccd844a1e" target="_top" xlink:title="StringFindLastNotOf0\l_Generic">
<polygon fill="white" stroke="black" points="173.5,-132 173.5,-166 284.5,-166 284.5,-132 173.5,-132"/>
<text text-anchor="start" x="181.5" y="-153" font-family="Helvetica,sans-Serif" font-size="10.00">StringFindLastNotOf0</text>
<text text-anchor="middle" x="229" y="-140" font-family="Helvetica,sans-Serif" font-size="10.00">_Generic</text>
</a>
</g>
<!-- Node1&#45;&gt;Node13 -->
<g id="edge24" class="edge"><title>Node1&#45;&gt;Node13</title>
<path fill="none" stroke="midnightblue" d="M66.9718,-322.134C77.816,-293.901 110.597,-217.478 162,-175 163.515,-173.748 165.097,-172.552 166.732,-171.409"/>
<polygon fill="midnightblue" stroke="midnightblue" points="168.614,-174.361 175.287,-166.132 164.938,-168.403 168.614,-174.361"/>
</g>
<!-- Node14 -->
<g id="node27" class="node"><title>Node14</title>
<a xlink:href="scriptstring__utils_8cpp.html#ae283bd2117ea6a3a496efcf87a477e30" target="_top" xlink:title="StringFindLastNotOf\l_Generic">
<polygon fill="white" stroke="black" points="176,-80 176,-114 282,-114 282,-80 176,-80"/>
<text text-anchor="start" x="184" y="-101" font-family="Helvetica,sans-Serif" font-size="10.00">StringFindLastNotOf</text>
<text text-anchor="middle" x="229" y="-88" font-family="Helvetica,sans-Serif" font-size="10.00">_Generic</text>
</a>
</g>
<!-- Node1&#45;&gt;Node14 -->
<g id="edge26" class="edge"><title>Node1&#45;&gt;Node14</title>
<path fill="none" stroke="midnightblue" d="M65.1253,-322.17C72.3662,-288.042 99.1951,-181.534 162,-123 163.669,-121.445 165.441,-119.979 167.293,-118.598"/>
<polygon fill="midnightblue" stroke="midnightblue" points="169.351,-121.435 175.854,-113.071 165.554,-115.555 169.351,-121.435"/>
</g>
<!-- Node15 -->
<g id="node29" class="node"><title>Node15</title>
<a xlink:href="scriptstring__utils_8cpp.html#ad4602fdaa77d246e8d7d9cf6bc0cbfbf" target="_top" xlink:title="StringSplit_Generic">
<polygon fill="white" stroke="black" points="178.5,-40.5 178.5,-61.5 279.5,-61.5 279.5,-40.5 178.5,-40.5"/>
<text text-anchor="middle" x="229" y="-48.5" font-family="Helvetica,sans-Serif" font-size="10.00">StringSplit_Generic</text>
</a>
</g>
<!-- Node1&#45;&gt;Node15 -->
<g id="edge28" class="edge"><title>Node1&#45;&gt;Node15</title>
<path fill="none" stroke="midnightblue" d="M63.7454,-322.442C67.1004,-283.077 84.2469,-143.406 162,-71 164.281,-68.8762 166.778,-66.9773 169.425,-65.2794"/>
<polygon fill="midnightblue" stroke="midnightblue" points="171.152,-68.3248 178.308,-60.5122 167.842,-62.1568 171.152,-68.3248"/>
</g>
<!-- Node20 -->
<g id="node39" class="node"><title>Node20</title>
<a xlink:href="scriptstring__utils_8cpp.html#a10589c267c8e553692864791c10185cd" target="_top" xlink:title="StringJoin_Generic">
<polygon fill="white" stroke="black" points="179.5,-0.5 179.5,-21.5 278.5,-21.5 278.5,-0.5 179.5,-0.5"/>
<text text-anchor="middle" x="229" y="-8.5" font-family="Helvetica,sans-Serif" font-size="10.00">StringJoin_Generic</text>
</a>
</g>
<!-- Node1&#45;&gt;Node20 -->
<g id="edge38" class="edge"><title>Node1&#45;&gt;Node20</title>
<path fill="none" stroke="midnightblue" d="M65.1123,-322.37C74.9439,-273.885 117.625,-74.2063 162,-31 164.556,-28.5111 167.409,-26.3301 170.455,-24.419"/>
<polygon fill="midnightblue" stroke="midnightblue" points="172.224,-27.444 179.473,-19.7167 168.987,-21.2373 172.224,-27.444"/>
</g>
<!-- Node16 -->
<g id="node31" class="node"><title>Node16</title>
<a xlink:href="class_c_script_array.html#a54fe13adf1cdded2aec4ac0b5924891f" target="_top" xlink:title="CScriptArray::Resize">
<polygon fill="white" stroke="black" points="334,-80.5 334,-101.5 444,-101.5 444,-80.5 334,-80.5"/>
<text text-anchor="middle" x="389" y="-88.5" font-family="Helvetica,sans-Serif" font-size="10.00">CScriptArray::Resize</text>
</a>
</g>
<!-- Node15&#45;&gt;Node16 -->
<g id="edge30" class="edge"><title>Node15&#45;&gt;Node16</title>
<path fill="none" stroke="midnightblue" d="M271.038,-61.5095C291.26,-66.5651 315.696,-72.6739 337.069,-78.0173"/>
<polygon fill="midnightblue" stroke="midnightblue" points="336.415,-81.4614 346.965,-80.4913 338.113,-74.6704 336.415,-81.4614"/>
</g>
<!-- Node18 -->
<g id="node35" class="node"><title>Node18</title>
<a xlink:href="class_c_script_array.html#aceeebde2ef3248973a87add12d140806" target="_top" xlink:title="CScriptArray::GetSize">
<polygon fill="white" stroke="black" points="332,-0.5 332,-21.5 446,-21.5 446,-0.5 332,-0.5"/>
<text text-anchor="middle" x="389" y="-8.5" font-family="Helvetica,sans-Serif" font-size="10.00">CScriptArray::GetSize</text>
</a>
</g>
<!-- Node15&#45;&gt;Node18 -->
<g id="edge34" class="edge"><title>Node15&#45;&gt;Node18</title>
<path fill="none" stroke="midnightblue" d="M271.038,-40.4905C291.26,-35.4349 315.696,-29.3261 337.069,-23.9827"/>
<polygon fill="midnightblue" stroke="midnightblue" points="338.113,-27.3296 346.965,-21.5087 336.415,-20.5386 338.113,-27.3296"/>
</g>
<!-- Node19 -->
<g id="node37" class="node"><title>Node19</title>
<a xlink:href="class_c_script_array.html#ac179b031c789763b6d7cecb8c07157f5" target="_top" xlink:title="CScriptArray::At">
<polygon fill="white" stroke="black" points="344.5,-40.5 344.5,-61.5 433.5,-61.5 433.5,-40.5 344.5,-40.5"/>
<text text-anchor="middle" x="389" y="-48.5" font-family="Helvetica,sans-Serif" font-size="10.00">CScriptArray::At</text>
</a>
</g>
<!-- Node15&#45;&gt;Node19 -->
<g id="edge36" class="edge"><title>Node15&#45;&gt;Node19</title>
<path fill="none" stroke="midnightblue" d="M279.625,-51C296.998,-51 316.517,-51 334.205,-51"/>
<polygon fill="midnightblue" stroke="midnightblue" points="334.378,-54.5001 344.378,-51 334.378,-47.5001 334.378,-54.5001"/>
</g>
<!-- Node17 -->
<g id="node33" class="node"><title>Node17</title>
<a xlink:href="class_c_script_array.html#a7b0f5d403c859b4b3d3af2c6eb1f468c" target="_top" xlink:title="CScriptArray::CheckMaxSize">
<polygon fill="white" stroke="black" points="482,-80.5 482,-101.5 628,-101.5 628,-80.5 482,-80.5"/>
<text text-anchor="middle" x="555" y="-88.5" font-family="Helvetica,sans-Serif" font-size="10.00">CScriptArray::CheckMaxSize</text>
</a>
</g>
<!-- Node16&#45;&gt;Node17 -->
<g id="edge32" class="edge"><title>Node16&#45;&gt;Node17</title>
<path fill="none" stroke="midnightblue" d="M444.276,-91C453.141,-91 462.484,-91 471.829,-91"/>
<polygon fill="midnightblue" stroke="midnightblue" points="471.948,-94.5001 481.948,-91 471.948,-87.5001 471.948,-94.5001"/>
</g>
<!-- Node20&#45;&gt;Node18 -->
<g id="edge40" class="edge"><title>Node20&#45;&gt;Node18</title>
<path fill="none" stroke="midnightblue" d="M278.748,-11C292.257,-11 307.115,-11 321.429,-11"/>
<polygon fill="midnightblue" stroke="midnightblue" points="321.729,-14.5001 331.729,-11 321.729,-7.5001 321.729,-14.5001"/>
</g>
<!-- Node20&#45;&gt;Node19 -->
<g id="edge42" class="edge"><title>Node20&#45;&gt;Node19</title>
<path fill="none" stroke="midnightblue" d="M271.038,-21.5095C291.26,-26.5651 315.696,-32.6739 337.069,-38.0173"/>
<polygon fill="midnightblue" stroke="midnightblue" points="336.415,-41.4614 346.965,-40.4913 338.113,-34.6704 336.415,-41.4614"/>
</g>
</g>
</svg>
        <g id="navigator" transform="translate(0 0)" fill="#404254">
                <rect fill="#f2f5e9" fill-opacity="0.5" stroke="#606060" stroke-width=".5" x="0" y="0" width="60" height="60"/>
                <use id="zoomplus" xlink:href="#zoomPlus" x="17" y="9" onmousedown="handleZoom(evt,'in')"/>
                <use id="zoomminus" xlink:href="#zoomMin" x="42" y="9" onmousedown="handleZoom(evt,'out')"/>
                <use id="reset" xlink:href="#resetDef" x="30" y="36" onmousedown="handleReset()"/>
                <g id="arrowUp" xlink:href="#dirArrow" transform="translate(30 24)" onmousedown="handlePan(0,-1)">
                  <use xlink:href="#rim" fill="#404040">
                        <set attributeName="fill" to="#808080" begin="arrowUp.mouseover" end="arrowUp.mouseout"/>
                  </use>
                  <path fill="none" stroke="white" stroke-width="1.5" d="M0,-3.0v7 M-2.5,-0.5L0,-3.0L2.5,-0.5"/>
                </g>
                <g id="arrowRight" xlink:href="#dirArrow" transform="rotate(90) translate(36 -43)" onmousedown="handlePan(1,0)">
                  <use xlink:href="#rim" fill="#404040">
                        <set attributeName="fill" to="#808080" begin="arrowRight.mouseover" end="arrowRight.mouseout"/>
                  </use>
                  <path fill="none" stroke="white" stroke-width="1.5" d="M0,-3.0v7 M-2.5,-0.5L0,-3.0L2.5,-0.5"/>
                </g>
                <g id="arrowDown" xlink:href="#dirArrow" transform="rotate(180) translate(-30 -48)" onmousedown="handlePan(0,1)">
                  <use xlink:href="#rim" fill="#404040">
                        <set attributeName="fill" to="#808080" begin="arrowDown.mouseover" end="arrowDown.mouseout"/>
                  </use>
                  <path fill="none" stroke="white" stroke-width="1.5" d="M0,-3.0v7 M-2.5,-0.5L0,-3.0L2.5,-0.5"/>
                </g>
                <g id="arrowLeft" xlink:href="#dirArrow" transform="rotate(270) translate(-36 17)" onmousedown="handlePan(-1,0)">
                  <use xlink:href="#rim" fill="#404040">
                        <set attributeName="fill" to="#808080" begin="arrowLeft.mouseover" end="arrowLeft.mouseout"/>
                  </use>
                  <path fill="none" stroke="white" stroke-width="1.5" d="M0,-3.0v7 M-2.5,-0.5L0,-3.0L2.5,-0.5"/>
                </g>
        </g>
        <svg viewBox="0 0 15 15" width="100%" height="30px" preserveAspectRatio="xMaxYMin meet">
         <g id="arrow_out" transform="scale(0.3 0.3)">
          <a xlink:href="scriptstring__utils_8cpp_abcfcedc40ab1f8507fe73489ad15c68a_cgraph_org.svg" target="_base">
           <rect id="button" ry="5" rx="5" y="6" x="6" height="38" width="38"
                fill="#f2f5e9" fill-opacity="0.5" stroke="#606060" stroke-width="1.0"/>
           <path id="arrow"
             d="M 11.500037,31.436501 C 11.940474,20.09759 22.043105,11.32322 32.158766,21.979434 L 37.068811,17.246167 C 37.068811,17.246167 37.088388,32 37.088388,32 L 22.160133,31.978069 C 22.160133,31.978069 26.997745,27.140456 26.997745,27.140456 C 18.528582,18.264221 13.291696,25.230495 11.500037,31.436501 z"
             style="fill:#404040;"/>
          </a>
         </g>
        </svg>
</svg>
