<?xml version="1.0" encoding="UTF-8" standalone="no"?>
<!DOCTYPE svg PUBLIC "-//W3C//DTD SVG 1.1//EN"
 "http://www.w3.org/Graphics/SVG/1.1/DTD/svg11.dtd">
<!-- Generated by graphviz version 2.26.3 (20100126.1600)
 -->
<!-- Title: G Pages: 1 -->
<svg width="440pt" height="146pt"
 viewBox="0.00 0.00 440.00 146.00" xmlns="http://www.w3.org/2000/svg" xmlns:xlink="http://www.w3.org/1999/xlink">
<g id="graph1" class="graph" transform="scale(1 1) rotate(0) translate(4 142)">
<title>G</title>
<polygon fill="white" stroke="white" points="-4,5 -4,-142 437,-142 437,5 -4,5"/>
<!-- Node1 -->
<g id="node1" class="node"><title>Node1</title>
<polygon fill="#bfbfbf" stroke="black" points="107,-116.5 107,-137.5 411,-137.5 411,-116.5 107,-116.5"/>
<text text-anchor="middle" x="259" y="-124.5" font-family="Helvetica,sans-Serif" font-size="10.00">source/angelscript_addons/scriptstdstring/scriptstdstring_utils.cpp</text>
</g>
<!-- Node2 -->
<g id="node3" class="node"><title>Node2</title>
<polygon fill="white" stroke="#bfbfbf" points="0,-58.5 0,-79.5 52,-79.5 52,-58.5 0,-58.5"/>
<text text-anchor="middle" x="26" y="-66.5" font-family="Helvetica,sans-Serif" font-size="10.00">assert.h</text>
</g>
<!-- Node1&#45;&gt;Node2 -->
<g id="edge2" class="edge"><title>Node1&#45;&gt;Node2</title>
<path fill="none" stroke="midnightblue" d="M210.338,-116.468C172.306,-108.006 117.928,-95.4046 62.0276,-80.1629"/>
<polygon fill="midnightblue" stroke="midnightblue" points="62.8837,-76.7684 52.3135,-77.4914 61.0275,-83.5179 62.8837,-76.7684"/>
</g>
<!-- Node3 -->
<g id="node5" class="node"><title>Node3</title>
<a xlink:href="scriptstdstring_8h.html" target="_top" xlink:title="scriptstdstring.h">
<polygon fill="white" stroke="black" points="216,-58.5 216,-79.5 302,-79.5 302,-58.5 216,-58.5"/>
<text text-anchor="middle" x="259" y="-66.5" font-family="Helvetica,sans-Serif" font-size="10.00">scriptstdstring.h</text>
</a>
</g>
<!-- Node1&#45;&gt;Node3 -->
<g id="edge4" class="edge"><title>Node1&#45;&gt;Node3</title>
<path fill="none" stroke="midnightblue" d="M259,-116.362C259,-108.922 259,-98.7427 259,-89.7276"/>
<polygon fill="midnightblue" stroke="midnightblue" points="262.5,-89.5706 259,-79.5707 255.5,-89.5707 262.5,-89.5706"/>
</g>
<!-- Node6 -->
<g id="node11" class="node"><title>Node6</title>
<a xlink:href="scriptarray_8h.html" target="_top" xlink:title="../scriptarray/scriptarray.h">
<polygon fill="white" stroke="black" points="70,-58.5 70,-79.5 198,-79.5 198,-58.5 70,-58.5"/>
<text text-anchor="middle" x="134" y="-66.5" font-family="Helvetica,sans-Serif" font-size="10.00">../scriptarray/scriptarray.h</text>
</a>
</g>
<!-- Node1&#45;&gt;Node6 -->
<g id="edge10" class="edge"><title>Node1&#45;&gt;Node6</title>
<path fill="none" stroke="midnightblue" d="M236.363,-116.497C216.752,-107.397 188.154,-94.1273 166.167,-83.9253"/>
<polygon fill="midnightblue" stroke="midnightblue" points="167.435,-80.6554 156.891,-79.6212 164.488,-87.0051 167.435,-80.6554"/>
</g>
<!-- Node7 -->
<g id="node14" class="node"><title>Node7</title>
<polygon fill="white" stroke="#bfbfbf" points="320,-58.5 320,-79.5 366,-79.5 366,-58.5 320,-58.5"/>
<text text-anchor="middle" x="343" y="-66.5" font-family="Helvetica,sans-Serif" font-size="10.00">stdio.h</text>
</g>
<!-- Node1&#45;&gt;Node7 -->
<g id="edge14" class="edge"><title>Node1&#45;&gt;Node7</title>
<path fill="none" stroke="midnightblue" d="M274.407,-116.362C286.958,-107.696 304.892,-95.3126 319.275,-85.3819"/>
<polygon fill="midnightblue" stroke="midnightblue" points="321.45,-88.1327 327.691,-79.5707 317.473,-82.3725 321.45,-88.1327"/>
</g>
<!-- Node8 -->
<g id="node16" class="node"><title>Node8</title>
<polygon fill="white" stroke="#bfbfbf" points="383.5,-58.5 383.5,-79.5 432.5,-79.5 432.5,-58.5 383.5,-58.5"/>
<text text-anchor="middle" x="408" y="-66.5" font-family="Helvetica,sans-Serif" font-size="10.00">string.h</text>
</g>
<!-- Node1&#45;&gt;Node8 -->
<g id="edge16" class="edge"><title>Node1&#45;&gt;Node8</title>
<path fill="none" stroke="midnightblue" d="M285.983,-116.497C310.631,-106.902 347.188,-92.6719 373.859,-82.2896"/>
<polygon fill="midnightblue" stroke="midnightblue" points="375.149,-85.5435 383.198,-78.6543 372.61,-79.0203 375.149,-85.5435"/>
</g>
<!-- Node4 -->
<g id="node7" class="node"><title>Node4</title>
<polygon fill="white" stroke="#bfbfbf" points="124,-0.5 124,-21.5 196,-21.5 196,-0.5 124,-0.5"/>
<text text-anchor="middle" x="160" y="-8.5" font-family="Helvetica,sans-Serif" font-size="10.00">angelscript.h</text>
</g>
<!-- Node3&#45;&gt;Node4 -->
<g id="edge6" class="edge"><title>Node3&#45;&gt;Node4</title>
<path fill="none" stroke="midnightblue" d="M240.842,-58.3619C225.77,-49.532 204.113,-36.844 187.007,-26.8224"/>
<polygon fill="midnightblue" stroke="midnightblue" points="188.441,-23.6058 178.043,-21.5707 184.902,-29.6456 188.441,-23.6058"/>
</g>
<!-- Node5 -->
<g id="node9" class="node"><title>Node5</title>
<polygon fill="white" stroke="#bfbfbf" points="238.5,-0.5 238.5,-21.5 279.5,-21.5 279.5,-0.5 238.5,-0.5"/>
<text text-anchor="middle" x="259" y="-8.5" font-family="Helvetica,sans-Serif" font-size="10.00">string</text>
</g>
<!-- Node3&#45;&gt;Node5 -->
<g id="edge8" class="edge"><title>Node3&#45;&gt;Node5</title>
<path fill="none" stroke="midnightblue" d="M259,-58.3619C259,-50.9219 259,-40.7427 259,-31.7276"/>
<polygon fill="midnightblue" stroke="midnightblue" points="262.5,-31.5706 259,-21.5707 255.5,-31.5707 262.5,-31.5706"/>
</g>
<!-- Node6&#45;&gt;Node4 -->
<g id="edge12" class="edge"><title>Node6&#45;&gt;Node4</title>
<path fill="none" stroke="midnightblue" d="M138.769,-58.3619C142.214,-50.6766 146.969,-40.0686 151.106,-30.8399"/>
<polygon fill="midnightblue" stroke="midnightblue" points="154.365,-32.1275 155.261,-21.5707 147.977,-29.264 154.365,-32.1275"/>
</g>
</g>
</svg>
