<?xml version="1.0" encoding="UTF-8" standalone="no"?>
<!DOCTYPE svg PUBLIC "-//W3C//DTD SVG 1.1//EN"
 "http://www.w3.org/Graphics/SVG/1.1/DTD/svg11.dtd">
<!-- Generated by graphviz version 2.26.3 (20100126.1600)
 -->
<!-- Title: ScriptDictionaryDeleteAll_Generic Pages: 1 -->
<svg width="752pt" height="42pt"
 viewBox="0.00 0.00 752.00 42.00" xmlns="http://www.w3.org/2000/svg" xmlns:xlink="http://www.w3.org/1999/xlink">
<g id="graph1" class="graph" transform="scale(1 1) rotate(0) translate(4 38)">
<title>ScriptDictionaryDeleteAll_Generic</title>
<polygon fill="white" stroke="white" points="-4,5 -4,-38 749,-38 749,5 -4,5"/>
<!-- Node1 -->
<g id="node1" class="node"><title>Node1</title>
<polygon fill="#bfbfbf" stroke="black" points="0,-0 0,-34 126,-34 126,-0 0,-0"/>
<text text-anchor="start" x="8" y="-21" font-family="Helvetica,sans-Serif" font-size="10.00">ScriptDictionaryDeleteAll</text>
<text text-anchor="middle" x="63" y="-8" font-family="Helvetica,sans-Serif" font-size="10.00">_Generic</text>
</g>
<!-- Node2 -->
<g id="node3" class="node"><title>Node2</title>
<a xlink:href="scriptdictionary_8h.html#af8fc6fbf1a623e6c2ff14605df4e0570" target="_top" xlink:title="RegisterScriptDictionary\l_Generic">
<polygon fill="white" stroke="black" points="162.5,-0 162.5,-34 285.5,-34 285.5,-0 162.5,-0"/>
<text text-anchor="start" x="170.5" y="-21" font-family="Helvetica,sans-Serif" font-size="10.00">RegisterScriptDictionary</text>
<text text-anchor="middle" x="224" y="-8" font-family="Helvetica,sans-Serif" font-size="10.00">_Generic</text>
</a>
</g>
<!-- Node1&#45;&gt;Node2 -->
<g id="edge2" class="edge"><title>Node1&#45;&gt;Node2</title>
<path fill="none" stroke="midnightblue" d="M136.305,-17C145.005,-17 153.817,-17 162.331,-17"/>
<polygon fill="midnightblue" stroke="midnightblue" points="136.169,-13.5001 126.169,-17 136.169,-20.5001 136.169,-13.5001"/>
</g>
<!-- Node3 -->
<g id="node5" class="node"><title>Node3</title>
<a xlink:href="scriptdictionary_8h.html#abf884a3f2b4b07a009c5fc055b48f901" target="_top" xlink:title="RegisterScriptDictionary">
<polygon fill="white" stroke="black" points="322.5,-6.5 322.5,-27.5 445.5,-27.5 445.5,-6.5 322.5,-6.5"/>
<text text-anchor="middle" x="384" y="-14.5" font-family="Helvetica,sans-Serif" font-size="10.00">RegisterScriptDictionary</text>
</a>
</g>
<!-- Node2&#45;&gt;Node3 -->
<g id="edge4" class="edge"><title>Node2&#45;&gt;Node3</title>
<path fill="none" stroke="midnightblue" d="M296.061,-17C304.822,-17 313.712,-17 322.304,-17"/>
<polygon fill="midnightblue" stroke="midnightblue" points="295.86,-13.5001 285.86,-17 295.86,-20.5001 295.86,-13.5001"/>
</g>
<!-- Node4 -->
<g id="node7" class="node"><title>Node4</title>
<a xlink:href="class_script_engine.html#aec64d59067a79c9fe0b88c150c901147" target="_top" xlink:title="ScriptEngine::init">
<polygon fill="white" stroke="black" points="482.5,-6.5 482.5,-27.5 573.5,-27.5 573.5,-6.5 482.5,-6.5"/>
<text text-anchor="middle" x="528" y="-14.5" font-family="Helvetica,sans-Serif" font-size="10.00">ScriptEngine::init</text>
</a>
</g>
<!-- Node3&#45;&gt;Node4 -->
<g id="edge6" class="edge"><title>Node3&#45;&gt;Node4</title>
<path fill="none" stroke="midnightblue" d="M455.969,-17C464.909,-17 473.85,-17 482.24,-17"/>
<polygon fill="midnightblue" stroke="midnightblue" points="455.905,-13.5001 445.905,-17 455.905,-20.5001 455.905,-13.5001"/>
</g>
<!-- Node5 -->
<g id="node9" class="node"><title>Node5</title>
<a xlink:href="class_script_engine.html#a05631d095d3ed370791fb2e67344da32" target="_top" xlink:title="ScriptEngine::ScriptEngine">
<polygon fill="white" stroke="black" points="610,-6.5 610,-27.5 744,-27.5 744,-6.5 610,-6.5"/>
<text text-anchor="middle" x="677" y="-14.5" font-family="Helvetica,sans-Serif" font-size="10.00">ScriptEngine::ScriptEngine</text>
</a>
</g>
<!-- Node4&#45;&gt;Node5 -->
<g id="edge8" class="edge"><title>Node4&#45;&gt;Node5</title>
<path fill="none" stroke="midnightblue" d="M583.699,-17C592.218,-17 601.087,-17 609.822,-17"/>
<polygon fill="midnightblue" stroke="midnightblue" points="583.515,-13.5001 573.515,-17 583.514,-20.5001 583.515,-13.5001"/>
</g>
</g>
</svg>
