<?xml version="1.0" encoding="UTF-8" standalone="no"?>
<!DOCTYPE svg PUBLIC "-//W3C//DTD SVG 1.1//EN"
 "http://www.w3.org/Graphics/SVG/1.1/DTD/svg11.dtd">
<!-- Generated by graphviz version 2.26.3 (20100126.1600)
 -->
<!-- Title: RegisterScriptArray_Generic Pages: 1 -->
<svg width="546pt" height="42pt"
 viewBox="0.00 0.00 546.00 42.00" xmlns="http://www.w3.org/2000/svg" xmlns:xlink="http://www.w3.org/1999/xlink">
<g id="graph1" class="graph" transform="scale(1 1) rotate(0) translate(4 38)">
<title>RegisterScriptArray_Generic</title>
<polygon fill="white" stroke="white" points="-4,5 -4,-38 543,-38 543,5 -4,5"/>
<!-- Node1 -->
<g id="node1" class="node"><title>Node1</title>
<polygon fill="#bfbfbf" stroke="black" points="0,-0 0,-34 102,-34 102,-0 0,-0"/>
<text text-anchor="start" x="8" y="-21" font-family="Helvetica,sans-Serif" font-size="10.00">RegisterScriptArray</text>
<text text-anchor="middle" x="51" y="-8" font-family="Helvetica,sans-Serif" font-size="10.00">_Generic</text>
</g>
<!-- Node2 -->
<g id="node3" class="node"><title>Node2</title>
<a xlink:href="scriptarray_8h.html#ac97e4fe44bf13c876d66eadb481369da" target="_top" xlink:title="RegisterScriptArray">
<polygon fill="white" stroke="black" points="138,-6.5 138,-27.5 240,-27.5 240,-6.5 138,-6.5"/>
<text text-anchor="middle" x="189" y="-14.5" font-family="Helvetica,sans-Serif" font-size="10.00">RegisterScriptArray</text>
</a>
</g>
<!-- Node1&#45;&gt;Node2 -->
<g id="edge2" class="edge"><title>Node1&#45;&gt;Node2</title>
<path fill="none" stroke="midnightblue" d="M112.496,-17C120.872,-17 129.398,-17 137.571,-17"/>
<polygon fill="midnightblue" stroke="midnightblue" points="112.386,-13.5001 102.386,-17 112.386,-20.5001 112.386,-13.5001"/>
</g>
<!-- Node3 -->
<g id="node5" class="node"><title>Node3</title>
<a xlink:href="class_script_engine.html#aec64d59067a79c9fe0b88c150c901147" target="_top" xlink:title="ScriptEngine::init">
<polygon fill="white" stroke="black" points="276.5,-6.5 276.5,-27.5 367.5,-27.5 367.5,-6.5 276.5,-6.5"/>
<text text-anchor="middle" x="322" y="-14.5" font-family="Helvetica,sans-Serif" font-size="10.00">ScriptEngine::init</text>
</a>
</g>
<!-- Node2&#45;&gt;Node3 -->
<g id="edge4" class="edge"><title>Node2&#45;&gt;Node3</title>
<path fill="none" stroke="midnightblue" d="M250.183,-17C258.901,-17 267.742,-17 276.101,-17"/>
<polygon fill="midnightblue" stroke="midnightblue" points="250.041,-13.5001 240.041,-17 250.041,-20.5001 250.041,-13.5001"/>
</g>
<!-- Node4 -->
<g id="node7" class="node"><title>Node4</title>
<a xlink:href="class_script_engine.html#a05631d095d3ed370791fb2e67344da32" target="_top" xlink:title="ScriptEngine::ScriptEngine">
<polygon fill="white" stroke="black" points="404,-6.5 404,-27.5 538,-27.5 538,-6.5 404,-6.5"/>
<text text-anchor="middle" x="471" y="-14.5" font-family="Helvetica,sans-Serif" font-size="10.00">ScriptEngine::ScriptEngine</text>
</a>
</g>
<!-- Node3&#45;&gt;Node4 -->
<g id="edge6" class="edge"><title>Node3&#45;&gt;Node4</title>
<path fill="none" stroke="midnightblue" d="M377.699,-17C386.218,-17 395.087,-17 403.822,-17"/>
<polygon fill="midnightblue" stroke="midnightblue" points="377.515,-13.5001 367.515,-17 377.514,-20.5001 377.515,-13.5001"/>
</g>
</g>
</svg>
