<?xml version="1.0" encoding="UTF-8" standalone="no"?>
<!DOCTYPE svg PUBLIC "-//W3C//DTD SVG 1.1//EN"
 "http://www.w3.org/Graphics/SVG/1.1/DTD/svg11.dtd">
<!-- Generated by graphviz version 2.26.3 (20100126.1600)
 -->
<!-- Title: G Pages: 1 -->
<!--zoomable 710 -->
<svg id="main" version="1.1" xmlns="http://www.w3.org/2000/svg" xmlns:xlink="http://www.w3.org/1999/xlink" xml:space="preserve" onload="init(evt)">
        <defs>
                <circle id="rim" cx="0" cy="0" r="7"/>
                <circle id="rim2" cx="0" cy="0" r="3.5"/>
                <g id="zoomPlus">
                        <use xlink:href="#rim" fill="#404040">
                                <set attributeName="fill" to="#808080" begin="zoomplus.mouseover" end="zoomplus.mouseout"/>
                        </use>
                        <path d="M-4,0h8M0,-4v8" fill="none" stroke="white" stroke-width="1.5" pointer-events="none"/>
                </g>
                <g id="zoomMin">
                        <use xlink:href="#rim" fill="#404040">
                                <set attributeName="fill" to="#808080" begin="zoomminus.mouseover" end="zoomminus.mouseout"/>
                        </use>
                        <path d="M-4,0h8" fill="none" stroke="white" stroke-width="1.5" pointer-events="none"/>
                </g>
                <g id="dirArrow">
                        <path fill="none" stroke="white" stroke-width="1.5" d="M0,-3.0v7 M-2.5,-0.5L0,-3.0L2.5,-0.5"/>
                </g>
               <g id="resetDef">
                       <use xlink:href="#rim2" fill="#404040">
                               <set attributeName="fill" to="#808080" begin="reset.mouseover" end="reset.mouseout"/>
                       </use>
               </g>
        </defs>

<script type="text/javascript">
var viewWidth = 664;
var viewHeight = 710;
var sectionId = 'dynsection-4';
</script>
<script xlink:href="svgpan.js"/>
<svg id="graph" class="graph">
<g id="viewport">
<title>G</title>
<polygon fill="white" stroke="white" points="-4,5 -4,-706 661,-706 661,5 -4,5"/>
<!-- Node1 -->
<g id="node1" class="node"><title>Node1</title>
<polygon fill="#bfbfbf" stroke="black" points="0,-340.5 0,-361.5 162,-361.5 162,-340.5 0,-340.5"/>
<text text-anchor="middle" x="81" y="-348.5" font-family="Helvetica,sans-Serif" font-size="10.00">RegisterScriptDictionary_Generic</text>
</g>
<!-- Node2 -->
<g id="node3" class="node"><title>Node2</title>
<a xlink:href="scriptdictionary_8cpp.html#a1c9811cdaf34449862b9ef270ca343e6" target="_top" xlink:title="ScriptDictionaryFactory_Generic">
<polygon fill="white" stroke="black" points="231,-680.5 231,-701.5 389,-701.5 389,-680.5 231,-680.5"/>
<text text-anchor="middle" x="310" y="-688.5" font-family="Helvetica,sans-Serif" font-size="10.00">ScriptDictionaryFactory_Generic</text>
</a>
</g>
<!-- Node1&#45;&gt;Node2 -->
<g id="edge2" class="edge"><title>Node1&#45;&gt;Node2</title>
<path fill="none" stroke="midnightblue" d="M81.3083,-361.657C83.2384,-407.119 97.2079,-586.364 198,-671 204.869,-676.768 212.825,-681.119 221.267,-684.374"/>
<polygon fill="midnightblue" stroke="midnightblue" points="220.378,-687.767 230.971,-687.601 222.586,-681.124 220.378,-687.767"/>
</g>
<!-- Node3 -->
<g id="node5" class="node"><title>Node3</title>
<a xlink:href="scriptdictionary_8cpp.html#aab54137067511d9a2e5fb604ae4a73ed" target="_top" xlink:title="ScriptDictionaryAddRef_Generic">
<polygon fill="white" stroke="black" points="231,-640.5 231,-661.5 389,-661.5 389,-640.5 231,-640.5"/>
<text text-anchor="middle" x="310" y="-648.5" font-family="Helvetica,sans-Serif" font-size="10.00">ScriptDictionaryAddRef_Generic</text>
</a>
</g>
<!-- Node1&#45;&gt;Node3 -->
<g id="edge4" class="edge"><title>Node1&#45;&gt;Node3</title>
<path fill="none" stroke="midnightblue" d="M81.9258,-361.753C86.16,-403.821 107.573,-558.494 198,-631 204.942,-636.566 212.908,-640.792 221.324,-643.978"/>
<polygon fill="midnightblue" stroke="midnightblue" points="220.394,-647.357 230.986,-647.149 222.576,-640.706 220.394,-647.357"/>
</g>
<!-- Node5 -->
<g id="node9" class="node"><title>Node5</title>
<a xlink:href="scriptdictionary_8cpp.html#aaabc806051b7a1e9a3ac8b8a99c3e25f" target="_top" xlink:title="ScriptDictionaryRelease_Generic">
<polygon fill="white" stroke="black" points="229.5,-600.5 229.5,-621.5 390.5,-621.5 390.5,-600.5 229.5,-600.5"/>
<text text-anchor="middle" x="310" y="-608.5" font-family="Helvetica,sans-Serif" font-size="10.00">ScriptDictionaryRelease_Generic</text>
</a>
</g>
<!-- Node1&#45;&gt;Node5 -->
<g id="edge8" class="edge"><title>Node1&#45;&gt;Node5</title>
<path fill="none" stroke="midnightblue" d="M82.6843,-361.528C89.3483,-399.481 117.553,-530.23 198,-591 204.555,-595.952 211.936,-599.822 219.702,-602.832"/>
<polygon fill="midnightblue" stroke="midnightblue" points="218.741,-606.202 229.336,-606.092 220.985,-599.571 218.741,-606.202"/>
</g>
<!-- Node7 -->
<g id="node13" class="node"><title>Node7</title>
<a xlink:href="scriptdictionary_8cpp.html#aef35f34901e8de4c707947726e37490f" target="_top" xlink:title="ScriptDictionaryAssign_Generic">
<polygon fill="white" stroke="black" points="232.5,-560.5 232.5,-581.5 387.5,-581.5 387.5,-560.5 232.5,-560.5"/>
<text text-anchor="middle" x="310" y="-568.5" font-family="Helvetica,sans-Serif" font-size="10.00">ScriptDictionaryAssign_Generic</text>
</a>
</g>
<!-- Node1&#45;&gt;Node7 -->
<g id="edge12" class="edge"><title>Node1&#45;&gt;Node7</title>
<path fill="none" stroke="midnightblue" d="M83.8459,-361.883C93.3956,-396.076 127.725,-501.978 198,-551 205.495,-556.228 213.939,-560.22 222.744,-563.251"/>
<polygon fill="midnightblue" stroke="midnightblue" points="221.828,-566.631 232.413,-566.177 223.855,-559.931 221.828,-566.631"/>
</g>
<!-- Node8 -->
<g id="node15" class="node"><title>Node8</title>
<a xlink:href="scriptdictionary_8cpp.html#ad95853feefb36628efb10cd77d9a3571" target="_top" xlink:title="ScriptDictionarySet_Generic">
<polygon fill="white" stroke="black" points="240,-520.5 240,-541.5 380,-541.5 380,-520.5 240,-520.5"/>
<text text-anchor="middle" x="310" y="-528.5" font-family="Helvetica,sans-Serif" font-size="10.00">ScriptDictionarySet_Generic</text>
</a>
</g>
<!-- Node1&#45;&gt;Node8 -->
<g id="edge14" class="edge"><title>Node1&#45;&gt;Node8</title>
<path fill="none" stroke="midnightblue" d="M85.3935,-361.768C97.9924,-391.161 137.282,-473.097 198,-511 207.655,-517.027 218.637,-521.354 229.861,-524.441"/>
<polygon fill="midnightblue" stroke="midnightblue" points="229.215,-527.886 239.759,-526.846 230.868,-521.084 229.215,-527.886"/>
</g>
<!-- Node10 -->
<g id="node19" class="node"><title>Node10</title>
<a xlink:href="scriptdictionary_8cpp.html#aeedb4bd3f71a876e960eded70d26462d" target="_top" xlink:title="ScriptDictionaryGet_Generic">
<polygon fill="white" stroke="black" points="239.5,-400.5 239.5,-421.5 380.5,-421.5 380.5,-400.5 239.5,-400.5"/>
<text text-anchor="middle" x="310" y="-408.5" font-family="Helvetica,sans-Serif" font-size="10.00">ScriptDictionaryGet_Generic</text>
</a>
</g>
<!-- Node1&#45;&gt;Node10 -->
<g id="edge18" class="edge"><title>Node1&#45;&gt;Node10</title>
<path fill="none" stroke="midnightblue" d="M108.064,-361.571C131.55,-370.426 166.618,-382.884 198,-391 208.797,-393.792 220.279,-396.326 231.62,-398.579"/>
<polygon fill="midnightblue" stroke="midnightblue" points="231.047,-402.032 241.528,-400.486 232.37,-395.159 231.047,-402.032"/>
</g>
<!-- Node12 -->
<g id="node23" class="node"><title>Node12</title>
<a xlink:href="scriptdictionary_8cpp.html#a1695925854e93389c522a621b8160d64" target="_top" xlink:title="ScriptDictionarySetInt_Generic">
<polygon fill="white" stroke="black" points="234,-480.5 234,-501.5 386,-501.5 386,-480.5 234,-480.5"/>
<text text-anchor="middle" x="310" y="-488.5" font-family="Helvetica,sans-Serif" font-size="10.00">ScriptDictionarySetInt_Generic</text>
</a>
</g>
<!-- Node1&#45;&gt;Node12 -->
<g id="edge22" class="edge"><title>Node1&#45;&gt;Node12</title>
<path fill="none" stroke="midnightblue" d="M87.9652,-361.802C104.094,-385.835 146.582,-443.747 198,-471 206.074,-475.28 214.888,-478.666 223.911,-481.341"/>
<polygon fill="midnightblue" stroke="midnightblue" points="223.193,-484.772 233.758,-483.974 225.002,-478.01 223.193,-484.772"/>
</g>
<!-- Node13 -->
<g id="node26" class="node"><title>Node13</title>
<a xlink:href="scriptdictionary_8cpp.html#a8f882ca432f47eede39c8bd47f2fecec" target="_top" xlink:title="ScriptDictionaryGetInt_Generic">
<polygon fill="white" stroke="black" points="234,-360.5 234,-381.5 386,-381.5 386,-360.5 234,-360.5"/>
<text text-anchor="middle" x="310" y="-368.5" font-family="Helvetica,sans-Serif" font-size="10.00">ScriptDictionaryGetInt_Generic</text>
</a>
</g>
<!-- Node1&#45;&gt;Node13 -->
<g id="edge26" class="edge"><title>Node1&#45;&gt;Node13</title>
<path fill="none" stroke="midnightblue" d="M162.059,-358.079C181.981,-359.819 203.384,-361.689 223.55,-363.45"/>
<polygon fill="midnightblue" stroke="midnightblue" points="223.386,-366.949 233.652,-364.332 223.995,-359.975 223.386,-366.949"/>
</g>
<!-- Node14 -->
<g id="node29" class="node"><title>Node14</title>
<a xlink:href="scriptdictionary_8cpp.html#abe0dab2e5a653cc2ce3bfdf9a5c23332" target="_top" xlink:title="ScriptDictionarySetFlt_Generic">
<polygon fill="white" stroke="black" points="234,-440.5 234,-461.5 386,-461.5 386,-440.5 234,-440.5"/>
<text text-anchor="middle" x="310" y="-448.5" font-family="Helvetica,sans-Serif" font-size="10.00">ScriptDictionarySetFlt_Generic</text>
</a>
</g>
<!-- Node1&#45;&gt;Node14 -->
<g id="edge30" class="edge"><title>Node1&#45;&gt;Node14</title>
<path fill="none" stroke="midnightblue" d="M92.635,-361.506C112.612,-378.923 155.409,-413.581 198,-431 206.257,-434.377 215.086,-437.185 224.029,-439.519"/>
<polygon fill="midnightblue" stroke="midnightblue" points="223.214,-442.923 233.756,-441.871 224.859,-436.119 223.214,-442.923"/>
</g>
<!-- Node15 -->
<g id="node32" class="node"><title>Node15</title>
<a xlink:href="scriptdictionary_8cpp.html#ad794b33213ce2522b1a41d4a964f3b15" target="_top" xlink:title="ScriptDictionaryGetFlt_Generic">
<polygon fill="white" stroke="black" points="234,-320.5 234,-341.5 386,-341.5 386,-320.5 234,-320.5"/>
<text text-anchor="middle" x="310" y="-328.5" font-family="Helvetica,sans-Serif" font-size="10.00">ScriptDictionaryGetFlt_Generic</text>
</a>
</g>
<!-- Node1&#45;&gt;Node15 -->
<g id="edge34" class="edge"><title>Node1&#45;&gt;Node15</title>
<path fill="none" stroke="midnightblue" d="M162.059,-343.921C181.981,-342.181 203.384,-340.311 223.55,-338.55"/>
<polygon fill="midnightblue" stroke="midnightblue" points="223.995,-342.025 233.652,-337.668 223.386,-335.051 223.995,-342.025"/>
</g>
<!-- Node16 -->
<g id="node35" class="node"><title>Node16</title>
<a xlink:href="scriptdictionary_8cpp.html#aa4132bd1155173cbf3820d8f6a7558e4" target="_top" xlink:title="ScriptDictionaryExists_Generic">
<polygon fill="white" stroke="black" points="233.5,-280.5 233.5,-301.5 386.5,-301.5 386.5,-280.5 233.5,-280.5"/>
<text text-anchor="middle" x="310" y="-288.5" font-family="Helvetica,sans-Serif" font-size="10.00">ScriptDictionaryExists_Generic</text>
</a>
</g>
<!-- Node1&#45;&gt;Node16 -->
<g id="edge38" class="edge"><title>Node1&#45;&gt;Node16</title>
<path fill="none" stroke="midnightblue" d="M108.064,-340.429C131.55,-331.574 166.618,-319.116 198,-311 208.797,-308.208 220.279,-305.674 231.62,-303.421"/>
<polygon fill="midnightblue" stroke="midnightblue" points="232.37,-306.841 241.528,-301.514 231.047,-299.968 232.37,-306.841"/>
</g>
<!-- Node18 -->
<g id="node39" class="node"><title>Node18</title>
<a xlink:href="scriptdictionary_8cpp.html#aef6f305159ba0d3ebba59740eb09a89b" target="_top" xlink:title="ScriptDictionaryDelete_Generic">
<polygon fill="white" stroke="black" points="233,-240.5 233,-261.5 387,-261.5 387,-240.5 233,-240.5"/>
<text text-anchor="middle" x="310" y="-248.5" font-family="Helvetica,sans-Serif" font-size="10.00">ScriptDictionaryDelete_Generic</text>
</a>
</g>
<!-- Node1&#45;&gt;Node18 -->
<g id="edge42" class="edge"><title>Node1&#45;&gt;Node18</title>
<path fill="none" stroke="midnightblue" d="M92.635,-340.494C112.612,-323.077 155.409,-288.419 198,-271 205.97,-267.74 214.473,-265.011 223.097,-262.726"/>
<polygon fill="midnightblue" stroke="midnightblue" points="223.985,-266.112 232.863,-260.33 222.317,-259.313 223.985,-266.112"/>
</g>
<!-- Node20 -->
<g id="node43" class="node"><title>Node20</title>
<a xlink:href="scriptdictionary_8cpp.html#aaf6921d4e2760aabba018a54c71ae943" target="_top" xlink:title="ScriptDictionaryDeleteAll_Generic">
<polygon fill="white" stroke="black" points="227.5,-200.5 227.5,-221.5 392.5,-221.5 392.5,-200.5 227.5,-200.5"/>
<text text-anchor="middle" x="310" y="-208.5" font-family="Helvetica,sans-Serif" font-size="10.00">ScriptDictionaryDeleteAll_Generic</text>
</a>
</g>
<!-- Node1&#45;&gt;Node20 -->
<g id="edge46" class="edge"><title>Node1&#45;&gt;Node20</title>
<path fill="none" stroke="midnightblue" d="M87.9652,-340.198C104.094,-316.165 146.582,-258.253 198,-231 204.097,-227.768 210.616,-225.046 217.329,-222.755"/>
<polygon fill="midnightblue" stroke="midnightblue" points="218.745,-225.981 227.274,-219.696 216.687,-219.29 218.745,-225.981"/>
</g>
<!-- Node22 -->
<g id="node47" class="node"><title>Node22</title>
<a xlink:href="scriptdictionary_8cpp.html#a976f7086651459c20692e892385986a1" target="_top" xlink:title="ScriptDictionaryGetRefCount_Generic">
<polygon fill="white" stroke="black" points="218.5,-160.5 218.5,-181.5 401.5,-181.5 401.5,-160.5 218.5,-160.5"/>
<text text-anchor="middle" x="310" y="-168.5" font-family="Helvetica,sans-Serif" font-size="10.00">ScriptDictionaryGetRefCount_Generic</text>
</a>
</g>
<!-- Node1&#45;&gt;Node22 -->
<g id="edge50" class="edge"><title>Node1&#45;&gt;Node22</title>
<path fill="none" stroke="midnightblue" d="M85.3935,-340.232C97.9924,-310.839 137.282,-228.903 198,-191 201.436,-188.855 205.041,-186.925 208.764,-185.19"/>
<polygon fill="midnightblue" stroke="midnightblue" points="210.338,-188.327 218.238,-181.266 207.659,-181.859 210.338,-188.327"/>
</g>
<!-- Node24 -->
<g id="node51" class="node"><title>Node24</title>
<a xlink:href="scriptdictionary_8cpp.html#a4abd19f74d4be500c1fe9859bb6407ca" target="_top" xlink:title="ScriptDictionarySetGCFlag_Generic">
<polygon fill="white" stroke="black" points="223,-120.5 223,-141.5 397,-141.5 397,-120.5 223,-120.5"/>
<text text-anchor="middle" x="310" y="-128.5" font-family="Helvetica,sans-Serif" font-size="10.00">ScriptDictionarySetGCFlag_Generic</text>
</a>
</g>
<!-- Node1&#45;&gt;Node24 -->
<g id="edge54" class="edge"><title>Node1&#45;&gt;Node24</title>
<path fill="none" stroke="midnightblue" d="M83.8459,-340.117C93.3956,-305.924 127.725,-200.022 198,-151 202.826,-147.634 208.045,-144.78 213.501,-142.365"/>
<polygon fill="midnightblue" stroke="midnightblue" points="214.837,-145.601 222.878,-138.703 212.29,-139.081 214.837,-145.601"/>
</g>
<!-- Node26 -->
<g id="node55" class="node"><title>Node26</title>
<a xlink:href="scriptdictionary_8cpp.html#a0c20628a560e1c8e7bb794928dec5681" target="_top" xlink:title="ScriptDictionaryGetGCFlag_Generic">
<polygon fill="white" stroke="black" points="222.5,-80.5 222.5,-101.5 397.5,-101.5 397.5,-80.5 222.5,-80.5"/>
<text text-anchor="middle" x="310" y="-88.5" font-family="Helvetica,sans-Serif" font-size="10.00">ScriptDictionaryGetGCFlag_Generic</text>
</a>
</g>
<!-- Node1&#45;&gt;Node26 -->
<g id="edge58" class="edge"><title>Node1&#45;&gt;Node26</title>
<path fill="none" stroke="midnightblue" d="M82.6843,-340.472C89.3483,-302.519 117.553,-171.77 198,-111 202.695,-107.453 207.814,-104.461 213.194,-101.943"/>
<polygon fill="midnightblue" stroke="midnightblue" points="214.545,-105.172 222.468,-98.1372 211.888,-98.6959 214.545,-105.172"/>
</g>
<!-- Node28 -->
<g id="node59" class="node"><title>Node28</title>
<a xlink:href="scriptdictionary_8cpp.html#af070ba24ec08ade42b6f1a901ab677af" target="_top" xlink:title="ScriptDictionaryEnumReferences_Generic">
<polygon fill="white" stroke="black" points="209.5,-40.5 209.5,-61.5 410.5,-61.5 410.5,-40.5 209.5,-40.5"/>
<text text-anchor="middle" x="310" y="-48.5" font-family="Helvetica,sans-Serif" font-size="10.00">ScriptDictionaryEnumReferences_Generic</text>
</a>
</g>
<!-- Node1&#45;&gt;Node28 -->
<g id="edge62" class="edge"><title>Node1&#45;&gt;Node28</title>
<path fill="none" stroke="midnightblue" d="M81.9258,-340.247C86.16,-298.179 107.573,-143.506 198,-71 200.023,-69.3783 202.132,-67.8702 204.314,-66.4685"/>
<polygon fill="midnightblue" stroke="midnightblue" points="206.045,-69.511 213.063,-61.5736 202.627,-63.4022 206.045,-69.511"/>
</g>
<!-- Node30 -->
<g id="node63" class="node"><title>Node30</title>
<a xlink:href="scriptdictionary_8cpp.html#a4688305a4673ff723ed1a329763e7082" target="_top" xlink:title="ScriptDictionaryReleaseAllReferences_Generic">
<polygon fill="white" stroke="black" points="198.5,-0.5 198.5,-21.5 421.5,-21.5 421.5,-0.5 198.5,-0.5"/>
<text text-anchor="middle" x="310" y="-8.5" font-family="Helvetica,sans-Serif" font-size="10.00">ScriptDictionaryReleaseAllReferences_Generic</text>
</a>
</g>
<!-- Node1&#45;&gt;Node30 -->
<g id="edge66" class="edge"><title>Node1&#45;&gt;Node30</title>
<path fill="none" stroke="midnightblue" d="M81.3083,-340.343C83.2384,-294.881 97.2079,-115.636 198,-31 199.782,-29.5036 201.637,-28.1025 203.555,-26.7912"/>
<polygon fill="midnightblue" stroke="midnightblue" points="205.508,-29.7028 212.333,-21.5995 201.944,-23.6777 205.508,-29.7028"/>
</g>
<!-- Node4 -->
<g id="node7" class="node"><title>Node4</title>
<a xlink:href="class_c_script_dictionary.html#a1ec9cd54b6a9e88996facefa51b566b3" target="_top" xlink:title="CScriptDictionary::AddRef">
<polygon fill="white" stroke="black" points="490.5,-640.5 490.5,-661.5 623.5,-661.5 623.5,-640.5 490.5,-640.5"/>
<text text-anchor="middle" x="557" y="-648.5" font-family="Helvetica,sans-Serif" font-size="10.00">CScriptDictionary::AddRef</text>
</a>
</g>
<!-- Node3&#45;&gt;Node4 -->
<g id="edge6" class="edge"><title>Node3&#45;&gt;Node4</title>
<path fill="none" stroke="midnightblue" d="M389.172,-651C418.329,-651 451.288,-651 480.23,-651"/>
<polygon fill="midnightblue" stroke="midnightblue" points="480.287,-654.5 490.287,-651 480.287,-647.5 480.287,-654.5"/>
</g>
<!-- Node6 -->
<g id="node11" class="node"><title>Node6</title>
<a xlink:href="class_c_script_dictionary.html#a436cb89325b6d4cae13f4ddb8d3765e4" target="_top" xlink:title="CScriptDictionary::Release">
<polygon fill="white" stroke="black" points="489,-600.5 489,-621.5 625,-621.5 625,-600.5 489,-600.5"/>
<text text-anchor="middle" x="557" y="-608.5" font-family="Helvetica,sans-Serif" font-size="10.00">CScriptDictionary::Release</text>
</a>
</g>
<!-- Node5&#45;&gt;Node6 -->
<g id="edge10" class="edge"><title>Node5&#45;&gt;Node6</title>
<path fill="none" stroke="midnightblue" d="M390.535,-611C418.872,-611 450.655,-611 478.797,-611"/>
<polygon fill="midnightblue" stroke="midnightblue" points="478.987,-614.5 488.987,-611 478.987,-607.5 478.987,-614.5"/>
</g>
<!-- Node9 -->
<g id="node17" class="node"><title>Node9</title>
<a xlink:href="class_c_script_dictionary.html#a905213b8462a369ae9795c26dee0582f" target="_top" xlink:title="CScriptDictionary::Set">
<polygon fill="white" stroke="black" points="499.5,-480.5 499.5,-501.5 614.5,-501.5 614.5,-480.5 499.5,-480.5"/>
<text text-anchor="middle" x="557" y="-488.5" font-family="Helvetica,sans-Serif" font-size="10.00">CScriptDictionary::Set</text>
</a>
</g>
<!-- Node8&#45;&gt;Node9 -->
<g id="edge16" class="edge"><title>Node8&#45;&gt;Node9</title>
<path fill="none" stroke="midnightblue" d="M374.896,-520.49C410.021,-514.802 453.379,-507.781 488.975,-502.016"/>
<polygon fill="midnightblue" stroke="midnightblue" points="489.963,-505.402 499.275,-500.348 488.844,-498.492 489.963,-505.402"/>
</g>
<!-- Node11 -->
<g id="node21" class="node"><title>Node11</title>
<a xlink:href="class_c_script_dictionary.html#accb5ba59105971e53723c86326208cd9" target="_top" xlink:title="CScriptDictionary::Get">
<polygon fill="white" stroke="black" points="499,-360.5 499,-381.5 615,-381.5 615,-360.5 499,-360.5"/>
<text text-anchor="middle" x="557" y="-368.5" font-family="Helvetica,sans-Serif" font-size="10.00">CScriptDictionary::Get</text>
</a>
</g>
<!-- Node10&#45;&gt;Node11 -->
<g id="edge20" class="edge"><title>Node10&#45;&gt;Node11</title>
<path fill="none" stroke="midnightblue" d="M374.896,-400.49C409.891,-394.823 453.058,-387.833 488.58,-382.08"/>
<polygon fill="midnightblue" stroke="midnightblue" points="489.548,-385.469 498.86,-380.415 488.429,-378.559 489.548,-385.469"/>
</g>
<!-- Node12&#45;&gt;Node9 -->
<g id="edge24" class="edge"><title>Node12&#45;&gt;Node9</title>
<path fill="none" stroke="midnightblue" d="M386.124,-491C418.995,-491 457.144,-491 489.047,-491"/>
<polygon fill="midnightblue" stroke="midnightblue" points="489.171,-494.5 499.171,-491 489.171,-487.5 489.171,-494.5"/>
</g>
<!-- Node13&#45;&gt;Node11 -->
<g id="edge28" class="edge"><title>Node13&#45;&gt;Node11</title>
<path fill="none" stroke="midnightblue" d="M386.124,-371C418.867,-371 456.848,-371 488.675,-371"/>
<polygon fill="midnightblue" stroke="midnightblue" points="488.777,-374.5 498.777,-371 488.777,-367.5 488.777,-374.5"/>
</g>
<!-- Node14&#45;&gt;Node9 -->
<g id="edge32" class="edge"><title>Node14&#45;&gt;Node9</title>
<path fill="none" stroke="midnightblue" d="M374.896,-461.51C410.021,-467.198 453.379,-474.219 488.975,-479.984"/>
<polygon fill="midnightblue" stroke="midnightblue" points="488.844,-483.508 499.275,-481.652 489.963,-476.598 488.844,-483.508"/>
</g>
<!-- Node15&#45;&gt;Node11 -->
<g id="edge36" class="edge"><title>Node15&#45;&gt;Node11</title>
<path fill="none" stroke="midnightblue" d="M374.896,-341.51C409.891,-347.177 453.058,-354.167 488.58,-359.92"/>
<polygon fill="midnightblue" stroke="midnightblue" points="488.429,-363.441 498.86,-361.585 489.548,-356.531 488.429,-363.441"/>
</g>
<!-- Node17 -->
<g id="node37" class="node"><title>Node17</title>
<a xlink:href="class_c_script_dictionary.html#a493d556f4c4ddfa9a608dd8870432956" target="_top" xlink:title="CScriptDictionary::Exists">
<polygon fill="white" stroke="black" points="493,-280.5 493,-301.5 621,-301.5 621,-280.5 493,-280.5"/>
<text text-anchor="middle" x="557" y="-288.5" font-family="Helvetica,sans-Serif" font-size="10.00">CScriptDictionary::Exists</text>
</a>
</g>
<!-- Node16&#45;&gt;Node17 -->
<g id="edge40" class="edge"><title>Node16&#45;&gt;Node17</title>
<path fill="none" stroke="midnightblue" d="M386.798,-291C417.334,-291 452.337,-291 482.629,-291"/>
<polygon fill="midnightblue" stroke="midnightblue" points="482.708,-294.5 492.708,-291 482.708,-287.5 482.708,-294.5"/>
</g>
<!-- Node19 -->
<g id="node41" class="node"><title>Node19</title>
<a xlink:href="class_c_script_dictionary.html#acc20e8a7e61b682f1cd963923a3c04bb" target="_top" xlink:title="CScriptDictionary::Delete">
<polygon fill="white" stroke="black" points="493,-240.5 493,-261.5 621,-261.5 621,-240.5 493,-240.5"/>
<text text-anchor="middle" x="557" y="-248.5" font-family="Helvetica,sans-Serif" font-size="10.00">CScriptDictionary::Delete</text>
</a>
</g>
<!-- Node18&#45;&gt;Node19 -->
<g id="edge44" class="edge"><title>Node18&#45;&gt;Node19</title>
<path fill="none" stroke="midnightblue" d="M387.136,-251C417.658,-251 452.599,-251 482.823,-251"/>
<polygon fill="midnightblue" stroke="midnightblue" points="482.879,-254.5 492.879,-251 482.879,-247.5 482.879,-254.5"/>
</g>
<!-- Node21 -->
<g id="node45" class="node"><title>Node21</title>
<a xlink:href="class_c_script_dictionary.html#ae40e805d72bb0e80f993f3e8f61b268b" target="_top" xlink:title="CScriptDictionary::DeleteAll">
<polygon fill="white" stroke="black" points="487,-200.5 487,-221.5 627,-221.5 627,-200.5 487,-200.5"/>
<text text-anchor="middle" x="557" y="-208.5" font-family="Helvetica,sans-Serif" font-size="10.00">CScriptDictionary::DeleteAll</text>
</a>
</g>
<!-- Node20&#45;&gt;Node21 -->
<g id="edge48" class="edge"><title>Node20&#45;&gt;Node21</title>
<path fill="none" stroke="midnightblue" d="M392.591,-211C419.701,-211 449.775,-211 476.712,-211"/>
<polygon fill="midnightblue" stroke="midnightblue" points="476.869,-214.5 486.869,-211 476.869,-207.5 476.869,-214.5"/>
</g>
<!-- Node23 -->
<g id="node49" class="node"><title>Node23</title>
<a xlink:href="class_c_script_dictionary.html#a0f4e14c79b20131efdde5c81182600a0" target="_top" xlink:title="CScriptDictionary::GetRefCount">
<polygon fill="white" stroke="black" points="478,-160.5 478,-181.5 636,-181.5 636,-160.5 478,-160.5"/>
<text text-anchor="middle" x="557" y="-168.5" font-family="Helvetica,sans-Serif" font-size="10.00">CScriptDictionary::GetRefCount</text>
</a>
</g>
<!-- Node22&#45;&gt;Node23 -->
<g id="edge52" class="edge"><title>Node22&#45;&gt;Node23</title>
<path fill="none" stroke="midnightblue" d="M401.623,-171C423.194,-171 446.157,-171 467.628,-171"/>
<polygon fill="midnightblue" stroke="midnightblue" points="467.705,-174.5 477.705,-171 467.705,-167.5 467.705,-174.5"/>
</g>
<!-- Node25 -->
<g id="node53" class="node"><title>Node25</title>
<a xlink:href="class_c_script_dictionary.html#ae0cfa062e0d43819226ac0971fbd4025" target="_top" xlink:title="CScriptDictionary::SetGCFlag">
<polygon fill="white" stroke="black" points="482.5,-120.5 482.5,-141.5 631.5,-141.5 631.5,-120.5 482.5,-120.5"/>
<text text-anchor="middle" x="557" y="-128.5" font-family="Helvetica,sans-Serif" font-size="10.00">CScriptDictionary::SetGCFlag</text>
</a>
</g>
<!-- Node24&#45;&gt;Node25 -->
<g id="edge56" class="edge"><title>Node24&#45;&gt;Node25</title>
<path fill="none" stroke="midnightblue" d="M397.083,-131C421.389,-131 447.762,-131 471.949,-131"/>
<polygon fill="midnightblue" stroke="midnightblue" points="472.169,-134.5 482.169,-131 472.169,-127.5 472.169,-134.5"/>
</g>
<!-- Node27 -->
<g id="node57" class="node"><title>Node27</title>
<a xlink:href="class_c_script_dictionary.html#ad3d2ce948787251c245db2407803cc4a" target="_top" xlink:title="CScriptDictionary::GetGCFlag">
<polygon fill="white" stroke="black" points="482.5,-80.5 482.5,-101.5 631.5,-101.5 631.5,-80.5 482.5,-80.5"/>
<text text-anchor="middle" x="557" y="-88.5" font-family="Helvetica,sans-Serif" font-size="10.00">CScriptDictionary::GetGCFlag</text>
</a>
</g>
<!-- Node26&#45;&gt;Node27 -->
<g id="edge60" class="edge"><title>Node26&#45;&gt;Node27</title>
<path fill="none" stroke="midnightblue" d="M397.778,-91C421.923,-91 448.06,-91 472.043,-91"/>
<polygon fill="midnightblue" stroke="midnightblue" points="472.177,-94.5001 482.177,-91 472.177,-87.5001 472.177,-94.5001"/>
</g>
<!-- Node29 -->
<g id="node61" class="node"><title>Node29</title>
<a xlink:href="class_c_script_dictionary.html#a94affb998a7bade4f1bebd019acb0fa0" target="_top" xlink:title="CScriptDictionary::EnumReferences">
<polygon fill="white" stroke="black" points="469,-40.5 469,-61.5 645,-61.5 645,-40.5 469,-40.5"/>
<text text-anchor="middle" x="557" y="-48.5" font-family="Helvetica,sans-Serif" font-size="10.00">CScriptDictionary::EnumReferences</text>
</a>
</g>
<!-- Node28&#45;&gt;Node29 -->
<g id="edge64" class="edge"><title>Node28&#45;&gt;Node29</title>
<path fill="none" stroke="midnightblue" d="M410.821,-51C426.578,-51 442.845,-51 458.549,-51"/>
<polygon fill="midnightblue" stroke="midnightblue" points="458.775,-54.5001 468.775,-51 458.775,-47.5001 458.775,-54.5001"/>
</g>
<!-- Node31 -->
<g id="node65" class="node"><title>Node31</title>
<a xlink:href="class_c_script_dictionary.html#a6d659726db347b5284cfc35e0e194948" target="_top" xlink:title="CScriptDictionary::ReleaseAllReferences">
<polygon fill="white" stroke="black" points="458.5,-0.5 458.5,-21.5 655.5,-21.5 655.5,-0.5 458.5,-0.5"/>
<text text-anchor="middle" x="557" y="-8.5" font-family="Helvetica,sans-Serif" font-size="10.00">CScriptDictionary::ReleaseAllReferences</text>
</a>
</g>
<!-- Node30&#45;&gt;Node31 -->
<g id="edge68" class="edge"><title>Node30&#45;&gt;Node31</title>
<path fill="none" stroke="midnightblue" d="M421.577,-11C430.398,-11 439.301,-11 448.104,-11"/>
<polygon fill="midnightblue" stroke="midnightblue" points="448.381,-14.5001 458.381,-11 448.381,-7.5001 448.381,-14.5001"/>
</g>
</g>
</svg>
        <g id="navigator" transform="translate(0 0)" fill="#404254">
                <rect fill="#f2f5e9" fill-opacity="0.5" stroke="#606060" stroke-width=".5" x="0" y="0" width="60" height="60"/>
                <use id="zoomplus" xlink:href="#zoomPlus" x="17" y="9" onmousedown="handleZoom(evt,'in')"/>
                <use id="zoomminus" xlink:href="#zoomMin" x="42" y="9" onmousedown="handleZoom(evt,'out')"/>
                <use id="reset" xlink:href="#resetDef" x="30" y="36" onmousedown="handleReset()"/>
                <g id="arrowUp" xlink:href="#dirArrow" transform="translate(30 24)" onmousedown="handlePan(0,-1)">
                  <use xlink:href="#rim" fill="#404040">
                        <set attributeName="fill" to="#808080" begin="arrowUp.mouseover" end="arrowUp.mouseout"/>
                  </use>
                  <path fill="none" stroke="white" stroke-width="1.5" d="M0,-3.0v7 M-2.5,-0.5L0,-3.0L2.5,-0.5"/>
                </g>
                <g id="arrowRight" xlink:href="#dirArrow" transform="rotate(90) translate(36 -43)" onmousedown="handlePan(1,0)">
                  <use xlink:href="#rim" fill="#404040">
                        <set attributeName="fill" to="#808080" begin="arrowRight.mouseover" end="arrowRight.mouseout"/>
                  </use>
                  <path fill="none" stroke="white" stroke-width="1.5" d="M0,-3.0v7 M-2.5,-0.5L0,-3.0L2.5,-0.5"/>
                </g>
                <g id="arrowDown" xlink:href="#dirArrow" transform="rotate(180) translate(-30 -48)" onmousedown="handlePan(0,1)">
                  <use xlink:href="#rim" fill="#404040">
                        <set attributeName="fill" to="#808080" begin="arrowDown.mouseover" end="arrowDown.mouseout"/>
                  </use>
                  <path fill="none" stroke="white" stroke-width="1.5" d="M0,-3.0v7 M-2.5,-0.5L0,-3.0L2.5,-0.5"/>
                </g>
                <g id="arrowLeft" xlink:href="#dirArrow" transform="rotate(270) translate(-36 17)" onmousedown="handlePan(-1,0)">
                  <use xlink:href="#rim" fill="#404040">
                        <set attributeName="fill" to="#808080" begin="arrowLeft.mouseover" end="arrowLeft.mouseout"/>
                  </use>
                  <path fill="none" stroke="white" stroke-width="1.5" d="M0,-3.0v7 M-2.5,-0.5L0,-3.0L2.5,-0.5"/>
                </g>
        </g>
</svg>
