<?xml version="1.0" encoding="UTF-8" standalone="no"?>
<!DOCTYPE svg PUBLIC "-//W3C//DTD SVG 1.1//EN"
 "http://www.w3.org/Graphics/SVG/1.1/DTD/svg11.dtd">
<!-- Generated by graphviz version 2.26.3 (20100126.1600)
 -->
<!-- Title: G Pages: 1 -->
<!--zoomable 204 -->
<svg id="main" version="1.1" xmlns="http://www.w3.org/2000/svg" xmlns:xlink="http://www.w3.org/1999/xlink" xml:space="preserve" onload="init(evt)">
        <defs>
                <circle id="rim" cx="0" cy="0" r="7"/>
                <circle id="rim2" cx="0" cy="0" r="3.5"/>
                <g id="zoomPlus">
                        <use xlink:href="#rim" fill="#404040">
                                <set attributeName="fill" to="#808080" begin="zoomplus.mouseover" end="zoomplus.mouseout"/>
                        </use>
                        <path d="M-4,0h8M0,-4v8" fill="none" stroke="white" stroke-width="1.5" pointer-events="none"/>
                </g>
                <g id="zoomMin">
                        <use xlink:href="#rim" fill="#404040">
                                <set attributeName="fill" to="#808080" begin="zoomminus.mouseover" end="zoomminus.mouseout"/>
                        </use>
                        <path d="M-4,0h8" fill="none" stroke="white" stroke-width="1.5" pointer-events="none"/>
                </g>
                <g id="dirArrow">
                        <path fill="none" stroke="white" stroke-width="1.5" d="M0,-3.0v7 M-2.5,-0.5L0,-3.0L2.5,-0.5"/>
                </g>
               <g id="resetDef">
                       <use xlink:href="#rim2" fill="#404040">
                               <set attributeName="fill" to="#808080" begin="reset.mouseover" end="reset.mouseout"/>
                       </use>
               </g>
        </defs>

<script type="text/javascript">
var viewWidth = 764;
var viewHeight = 204;
var sectionId = 'dynsection-1';
</script>
<script xlink:href="svgpan.js"/>
<svg id="graph" class="graph">
<g id="viewport">
<title>G</title>
<polygon fill="white" stroke="white" points="-4,5 -4,-200 761,-200 761,5 -4,5"/>
<!-- Node1 -->
<g id="node1" class="node"><title>Node1</title>
<polygon fill="#bfbfbf" stroke="black" points="242,-174.5 242,-195.5 494,-195.5 494,-174.5 242,-174.5"/>
<text text-anchor="middle" x="368" y="-182.5" font-family="Helvetica,sans-Serif" font-size="10.00">source/angelscript_addons/scriptbuilder/scriptbuilder.h</text>
</g>
<!-- Node2 -->
<g id="node3" class="node"><title>Node2</title>
<a xlink:href="scriptbuilder_8cpp.html" target="_top" xlink:title="source/angelscript_addons/scriptbuilder/scriptbuilder.cpp">
<polygon fill="white" stroke="black" points="-0.5,-116.5 -0.5,-137.5 262.5,-137.5 262.5,-116.5 -0.5,-116.5"/>
<text text-anchor="middle" x="131" y="-124.5" font-family="Helvetica,sans-Serif" font-size="10.00">source/angelscript_addons/scriptbuilder/scriptbuilder.cpp</text>
</a>
</g>
<!-- Node1&#45;&gt;Node2 -->
<g id="edge2" class="edge"><title>Node1&#45;&gt;Node2</title>
<path fill="none" stroke="midnightblue" d="M315.192,-172.077C272.676,-161.672 213.667,-147.231 173.999,-137.523"/>
<polygon fill="midnightblue" stroke="midnightblue" points="314.536,-175.519 325.081,-174.497 316.2,-168.72 314.536,-175.519"/>
</g>
<!-- Node3 -->
<g id="node5" class="node"><title>Node3</title>
<a xlink:href="_script_engine_8h.html" target="_top" xlink:title="AngelScript interface to the game.">
<polygon fill="white" stroke="black" points="280,-116.5 280,-137.5 456,-137.5 456,-116.5 280,-116.5"/>
<text text-anchor="middle" x="368" y="-124.5" font-family="Helvetica,sans-Serif" font-size="10.00">source/main/scripting/ScriptEngine.h</text>
</a>
</g>
<!-- Node1&#45;&gt;Node3 -->
<g id="edge4" class="edge"><title>Node1&#45;&gt;Node3</title>
<path fill="none" stroke="midnightblue" d="M368,-164.191C368,-155.168 368,-144.994 368,-137.571"/>
<polygon fill="midnightblue" stroke="midnightblue" points="364.5,-164.362 368,-174.362 371.5,-164.362 364.5,-164.362"/>
</g>
<!-- Node8 -->
<g id="node16" class="node"><title>Node8</title>
<a xlink:href="_ogre_script_builder_8h.html" target="_top" xlink:title="source/main/scripting/OgreScriptBuilder.h">
<polygon fill="white" stroke="black" points="473.5,-116.5 473.5,-137.5 670.5,-137.5 670.5,-116.5 473.5,-116.5"/>
<text text-anchor="middle" x="572" y="-124.5" font-family="Helvetica,sans-Serif" font-size="10.00">source/main/scripting/OgreScriptBuilder.h</text>
</a>
</g>
<!-- Node1&#45;&gt;Node8 -->
<g id="edge16" class="edge"><title>Node1&#45;&gt;Node8</title>
<path fill="none" stroke="midnightblue" d="M414.851,-171.68C451.334,-161.307 501.276,-147.108 534.988,-137.523"/>
<polygon fill="midnightblue" stroke="midnightblue" points="413.604,-168.395 404.943,-174.497 415.519,-175.128 413.604,-168.395"/>
</g>
<!-- Node4 -->
<g id="node7" class="node"><title>Node4</title>
<a xlink:href="_main_thread_8cpp.html" target="_top" xlink:title="source/main/main_sim/MainThread.cpp">
<polygon fill="white" stroke="black" points="76,-58.5 76,-79.5 264,-79.5 264,-58.5 76,-58.5"/>
<text text-anchor="middle" x="170" y="-66.5" font-family="Helvetica,sans-Serif" font-size="10.00">source/main/main_sim/MainThread.cpp</text>
</a>
</g>
<!-- Node3&#45;&gt;Node4 -->
<g id="edge6" class="edge"><title>Node3&#45;&gt;Node4</title>
<path fill="none" stroke="midnightblue" d="M322.527,-113.68C287.117,-103.307 238.644,-89.1078 205.924,-79.5231"/>
<polygon fill="midnightblue" stroke="midnightblue" points="321.563,-117.044 332.144,-116.497 323.531,-110.327 321.563,-117.044"/>
</g>
<!-- Node5 -->
<g id="node9" class="node"><title>Node5</title>
<a xlink:href="_game_script_8h.html" target="_top" xlink:title="source/main/scripting/GameScript.h">
<polygon fill="white" stroke="black" points="281.5,-58.5 281.5,-79.5 454.5,-79.5 454.5,-58.5 281.5,-58.5"/>
<text text-anchor="middle" x="368" y="-66.5" font-family="Helvetica,sans-Serif" font-size="10.00">source/main/scripting/GameScript.h</text>
</a>
</g>
<!-- Node3&#45;&gt;Node5 -->
<g id="edge8" class="edge"><title>Node3&#45;&gt;Node5</title>
<path fill="none" stroke="midnightblue" d="M368,-106.191C368,-97.1684 368,-86.9941 368,-79.5707"/>
<polygon fill="midnightblue" stroke="midnightblue" points="364.5,-106.362 368,-116.362 371.5,-106.362 364.5,-106.362"/>
</g>
<!-- Node7 -->
<g id="node13" class="node"><title>Node7</title>
<a xlink:href="_script_engine_8cpp.html" target="_top" xlink:title="source/main/scripting/ScriptEngine.cpp">
<polygon fill="white" stroke="black" points="407.5,-0.5 407.5,-21.5 594.5,-21.5 594.5,-0.5 407.5,-0.5"/>
<text text-anchor="middle" x="501" y="-8.5" font-family="Helvetica,sans-Serif" font-size="10.00">source/main/scripting/ScriptEngine.cpp</text>
</a>
</g>
<!-- Node3&#45;&gt;Node7 -->
<g id="edge14" class="edge"><title>Node3&#45;&gt;Node7</title>
<path fill="none" stroke="midnightblue" d="M410.525,-112.514C428.289,-104.906 448.193,-94.1696 463,-80 480.587,-63.1697 492.089,-36.3853 497.465,-21.626"/>
<polygon fill="midnightblue" stroke="midnightblue" points="408.866,-109.411 400.922,-116.421 411.504,-115.895 408.866,-109.411"/>
</g>
<!-- Node6 -->
<g id="node11" class="node"><title>Node6</title>
<a xlink:href="_game_script_8cpp.html" target="_top" xlink:title="source/main/scripting/GameScript.cpp">
<polygon fill="white" stroke="black" points="207.5,-0.5 207.5,-21.5 390.5,-21.5 390.5,-0.5 207.5,-0.5"/>
<text text-anchor="middle" x="299" y="-8.5" font-family="Helvetica,sans-Serif" font-size="10.00">source/main/scripting/GameScript.cpp</text>
</a>
</g>
<!-- Node5&#45;&gt;Node6 -->
<g id="edge10" class="edge"><title>Node5&#45;&gt;Node6</title>
<path fill="none" stroke="midnightblue" d="M347.408,-51.6908C335.76,-41.8996 321.571,-29.973 311.575,-21.5707"/>
<polygon fill="midnightblue" stroke="midnightblue" points="345.437,-54.6066 355.344,-58.3619 349.942,-49.2481 345.437,-54.6066"/>
</g>
<!-- Node5&#45;&gt;Node7 -->
<g id="edge12" class="edge"><title>Node5&#45;&gt;Node7</title>
<path fill="none" stroke="midnightblue" d="M401.297,-54.4794C424.71,-44.2695 455.508,-30.8386 476.644,-21.6212"/>
<polygon fill="midnightblue" stroke="midnightblue" points="399.853,-51.291 392.085,-58.4966 402.651,-57.7075 399.853,-51.291"/>
</g>
<!-- Node8&#45;&gt;Node7 -->
<g id="edge20" class="edge"><title>Node8&#45;&gt;Node7</title>
<path fill="none" stroke="midnightblue" d="M558.165,-108.293C552.068,-99.8022 544.953,-89.5429 539,-80 526.55,-60.043 513.676,-35.7555 506.568,-21.9655"/>
<polygon fill="midnightblue" stroke="midnightblue" points="555.346,-110.369 564.058,-116.398 561.007,-106.252 555.346,-110.369"/>
</g>
<!-- Node9 -->
<g id="node18" class="node"><title>Node9</title>
<a xlink:href="_ogre_script_builder_8cpp.html" target="_top" xlink:title="source/main/scripting/OgreScriptBuilder.cpp">
<polygon fill="white" stroke="black" points="548,-58.5 548,-79.5 756,-79.5 756,-58.5 548,-58.5"/>
<text text-anchor="middle" x="652" y="-66.5" font-family="Helvetica,sans-Serif" font-size="10.00">source/main/scripting/OgreScriptBuilder.cpp</text>
</a>
</g>
<!-- Node8&#45;&gt;Node9 -->
<g id="edge18" class="edge"><title>Node8&#45;&gt;Node9</title>
<path fill="none" stroke="midnightblue" d="M595.092,-110.259C608.739,-100.364 625.605,-88.1361 637.42,-79.5707"/>
<polygon fill="midnightblue" stroke="midnightblue" points="592.715,-107.659 586.673,-116.362 596.824,-113.326 592.715,-107.659"/>
</g>
</g>
</svg>
        <g id="navigator" transform="translate(0 0)" fill="#404254">
                <rect fill="#f2f5e9" fill-opacity="0.5" stroke="#606060" stroke-width=".5" x="0" y="0" width="60" height="60"/>
                <use id="zoomplus" xlink:href="#zoomPlus" x="17" y="9" onmousedown="handleZoom(evt,'in')"/>
                <use id="zoomminus" xlink:href="#zoomMin" x="42" y="9" onmousedown="handleZoom(evt,'out')"/>
                <use id="reset" xlink:href="#resetDef" x="30" y="36" onmousedown="handleReset()"/>
                <g id="arrowUp" xlink:href="#dirArrow" transform="translate(30 24)" onmousedown="handlePan(0,-1)">
                  <use xlink:href="#rim" fill="#404040">
                        <set attributeName="fill" to="#808080" begin="arrowUp.mouseover" end="arrowUp.mouseout"/>
                  </use>
                  <path fill="none" stroke="white" stroke-width="1.5" d="M0,-3.0v7 M-2.5,-0.5L0,-3.0L2.5,-0.5"/>
                </g>
                <g id="arrowRight" xlink:href="#dirArrow" transform="rotate(90) translate(36 -43)" onmousedown="handlePan(1,0)">
                  <use xlink:href="#rim" fill="#404040">
                        <set attributeName="fill" to="#808080" begin="arrowRight.mouseover" end="arrowRight.mouseout"/>
                  </use>
                  <path fill="none" stroke="white" stroke-width="1.5" d="M0,-3.0v7 M-2.5,-0.5L0,-3.0L2.5,-0.5"/>
                </g>
                <g id="arrowDown" xlink:href="#dirArrow" transform="rotate(180) translate(-30 -48)" onmousedown="handlePan(0,1)">
                  <use xlink:href="#rim" fill="#404040">
                        <set attributeName="fill" to="#808080" begin="arrowDown.mouseover" end="arrowDown.mouseout"/>
                  </use>
                  <path fill="none" stroke="white" stroke-width="1.5" d="M0,-3.0v7 M-2.5,-0.5L0,-3.0L2.5,-0.5"/>
                </g>
                <g id="arrowLeft" xlink:href="#dirArrow" transform="rotate(270) translate(-36 17)" onmousedown="handlePan(-1,0)">
                  <use xlink:href="#rim" fill="#404040">
                        <set attributeName="fill" to="#808080" begin="arrowLeft.mouseover" end="arrowLeft.mouseout"/>
                  </use>
                  <path fill="none" stroke="white" stroke-width="1.5" d="M0,-3.0v7 M-2.5,-0.5L0,-3.0L2.5,-0.5"/>
                </g>
        </g>
</svg>
