<?xml version="1.0" encoding="UTF-8" standalone="no"?>
<!DOCTYPE svg PUBLIC "-//W3C//DTD SVG 1.1//EN"
 "http://www.w3.org/Graphics/SVG/1.1/DTD/svg11.dtd">
<!-- Generated by graphviz version 2.26.3 (20100126.1600)
 -->
<!-- Title: ScriptArrayTemplateCallback Pages: 1 -->
<svg width="906pt" height="94pt"
 viewBox="0.00 0.00 906.00 94.00" xmlns="http://www.w3.org/2000/svg" xmlns:xlink="http://www.w3.org/1999/xlink">
<g id="graph1" class="graph" transform="scale(1 1) rotate(0) translate(4 90)">
<title>ScriptArrayTemplateCallback</title>
<polygon fill="white" stroke="white" points="-4,5 -4,-90 903,-90 903,5 -4,5"/>
<!-- Node1 -->
<g id="node1" class="node"><title>Node1</title>
<polygon fill="#bfbfbf" stroke="black" points="0,-32.5 0,-53.5 144,-53.5 144,-32.5 0,-32.5"/>
<text text-anchor="middle" x="72" y="-40.5" font-family="Helvetica,sans-Serif" font-size="10.00">ScriptArrayTemplateCallback</text>
</g>
<!-- Node2 -->
<g id="node3" class="node"><title>Node2</title>
<a xlink:href="scriptarray_8cpp.html#af6d3517f646ed2ac73e8460382c09726" target="_top" xlink:title="RegisterScriptArray\l_Native">
<polygon fill="white" stroke="black" points="360,-52 360,-86 462,-86 462,-52 360,-52"/>
<text text-anchor="start" x="368" y="-73" font-family="Helvetica,sans-Serif" font-size="10.00">RegisterScriptArray</text>
<text text-anchor="middle" x="411" y="-60" font-family="Helvetica,sans-Serif" font-size="10.00">_Native</text>
</a>
</g>
<!-- Node1&#45;&gt;Node2 -->
<g id="edge2" class="edge"><title>Node1&#45;&gt;Node2</title>
<path fill="none" stroke="midnightblue" d="M154.386,-49.3187C218.448,-54.232 305.31,-60.894 359.745,-65.069"/>
<polygon fill="midnightblue" stroke="midnightblue" points="154.547,-45.8208 144.308,-48.5458 154.011,-52.8003 154.547,-45.8208"/>
</g>
<!-- Node6 -->
<g id="node11" class="node"><title>Node6</title>
<a xlink:href="scriptarray_8cpp.html#a4ac10996d6d7a1ed529978224d1a0d5e" target="_top" xlink:title="ScriptArrayTemplateCallback\l_Generic">
<polygon fill="white" stroke="black" points="180,-3 180,-37 324,-37 324,-3 180,-3"/>
<text text-anchor="start" x="188" y="-24" font-family="Helvetica,sans-Serif" font-size="10.00">ScriptArrayTemplateCallback</text>
<text text-anchor="middle" x="252" y="-11" font-family="Helvetica,sans-Serif" font-size="10.00">_Generic</text>
</a>
</g>
<!-- Node1&#45;&gt;Node6 -->
<g id="edge10" class="edge"><title>Node1&#45;&gt;Node6</title>
<path fill="none" stroke="midnightblue" d="M154.16,-32.5018C162.718,-31.4082 171.372,-30.3025 179.808,-29.2245"/>
<polygon fill="midnightblue" stroke="midnightblue" points="153.651,-29.0382 144.176,-33.7775 154.539,-35.9818 153.651,-29.0382"/>
</g>
<!-- Node3 -->
<g id="node5" class="node"><title>Node3</title>
<a xlink:href="scriptarray_8h.html#ac97e4fe44bf13c876d66eadb481369da" target="_top" xlink:title="RegisterScriptArray">
<polygon fill="white" stroke="black" points="498,-32.5 498,-53.5 600,-53.5 600,-32.5 498,-32.5"/>
<text text-anchor="middle" x="549" y="-40.5" font-family="Helvetica,sans-Serif" font-size="10.00">RegisterScriptArray</text>
</a>
</g>
<!-- Node2&#45;&gt;Node3 -->
<g id="edge4" class="edge"><title>Node2&#45;&gt;Node3</title>
<path fill="none" stroke="midnightblue" d="M472.22,-57.4659C480.685,-55.871 489.308,-54.2463 497.571,-52.6895"/>
<polygon fill="midnightblue" stroke="midnightblue" points="471.565,-54.0275 462.386,-59.3186 472.861,-60.9065 471.565,-54.0275"/>
</g>
<!-- Node4 -->
<g id="node7" class="node"><title>Node4</title>
<a xlink:href="class_script_engine.html#aec64d59067a79c9fe0b88c150c901147" target="_top" xlink:title="ScriptEngine::init">
<polygon fill="white" stroke="black" points="636.5,-32.5 636.5,-53.5 727.5,-53.5 727.5,-32.5 636.5,-32.5"/>
<text text-anchor="middle" x="682" y="-40.5" font-family="Helvetica,sans-Serif" font-size="10.00">ScriptEngine::init</text>
</a>
</g>
<!-- Node3&#45;&gt;Node4 -->
<g id="edge6" class="edge"><title>Node3&#45;&gt;Node4</title>
<path fill="none" stroke="midnightblue" d="M610.183,-43C618.901,-43 627.742,-43 636.101,-43"/>
<polygon fill="midnightblue" stroke="midnightblue" points="610.041,-39.5001 600.041,-43 610.041,-46.5001 610.041,-39.5001"/>
</g>
<!-- Node5 -->
<g id="node9" class="node"><title>Node5</title>
<a xlink:href="class_script_engine.html#a05631d095d3ed370791fb2e67344da32" target="_top" xlink:title="ScriptEngine::ScriptEngine">
<polygon fill="white" stroke="black" points="764,-32.5 764,-53.5 898,-53.5 898,-32.5 764,-32.5"/>
<text text-anchor="middle" x="831" y="-40.5" font-family="Helvetica,sans-Serif" font-size="10.00">ScriptEngine::ScriptEngine</text>
</a>
</g>
<!-- Node4&#45;&gt;Node5 -->
<g id="edge8" class="edge"><title>Node4&#45;&gt;Node5</title>
<path fill="none" stroke="midnightblue" d="M737.699,-43C746.218,-43 755.087,-43 763.822,-43"/>
<polygon fill="midnightblue" stroke="midnightblue" points="737.515,-39.5001 727.515,-43 737.514,-46.5001 737.515,-39.5001"/>
</g>
<!-- Node7 -->
<g id="node13" class="node"><title>Node7</title>
<a xlink:href="scriptarray_8cpp.html#a3f10cc670a493480c2a665a984710480" target="_top" xlink:title="RegisterScriptArray\l_Generic">
<polygon fill="white" stroke="black" points="360,-0 360,-34 462,-34 462,-0 360,-0"/>
<text text-anchor="start" x="368" y="-21" font-family="Helvetica,sans-Serif" font-size="10.00">RegisterScriptArray</text>
<text text-anchor="middle" x="411" y="-8" font-family="Helvetica,sans-Serif" font-size="10.00">_Generic</text>
</a>
</g>
<!-- Node6&#45;&gt;Node7 -->
<g id="edge12" class="edge"><title>Node6&#45;&gt;Node7</title>
<path fill="none" stroke="midnightblue" d="M334.208,-18.4489C342.86,-18.2857 351.469,-18.1232 359.624,-17.9694"/>
<polygon fill="midnightblue" stroke="midnightblue" points="333.989,-14.9523 324.057,-18.6404 334.121,-21.9511 333.989,-14.9523"/>
</g>
<!-- Node7&#45;&gt;Node3 -->
<g id="edge14" class="edge"><title>Node7&#45;&gt;Node3</title>
<path fill="none" stroke="midnightblue" d="M472.22,-28.5341C480.685,-30.129 489.308,-31.7537 497.571,-33.3105"/>
<polygon fill="midnightblue" stroke="midnightblue" points="472.861,-25.0935 462.386,-26.6814 471.565,-31.9725 472.861,-25.0935"/>
</g>
</g>
</svg>
