<?xml version="1.0" encoding="UTF-8" standalone="no"?>
<!DOCTYPE svg PUBLIC "-//W3C//DTD SVG 1.1//EN"
 "http://www.w3.org/Graphics/SVG/1.1/DTD/svg11.dtd">
<!-- Generated by graphviz version 2.26.3 (20100126.1600)
 -->
<!-- Title: ScriptAny_StoreInt_Generic Pages: 1 -->
<svg width="710pt" height="42pt"
 viewBox="0.00 0.00 710.00 42.00" xmlns="http://www.w3.org/2000/svg" xmlns:xlink="http://www.w3.org/1999/xlink">
<g id="graph1" class="graph" transform="scale(1 1) rotate(0) translate(4 38)">
<title>ScriptAny_StoreInt_Generic</title>
<polygon fill="white" stroke="white" points="-4,5 -4,-38 707,-38 707,5 -4,5"/>
<!-- Node1 -->
<g id="node1" class="node"><title>Node1</title>
<polygon fill="#bfbfbf" stroke="black" points="0.5,-0 0.5,-34 99.5,-34 99.5,-0 0.5,-0"/>
<text text-anchor="start" x="8.5" y="-21" font-family="Helvetica,sans-Serif" font-size="10.00">ScriptAny_StoreInt</text>
<text text-anchor="middle" x="50" y="-8" font-family="Helvetica,sans-Serif" font-size="10.00">_Generic</text>
</g>
<!-- Node2 -->
<g id="node3" class="node"><title>Node2</title>
<a xlink:href="scriptany_8h.html#ade7875aa9250cb75598a7bfa20ca8c2d" target="_top" xlink:title="RegisterScriptAny_Generic">
<polygon fill="white" stroke="black" points="136.5,-6.5 136.5,-27.5 271.5,-27.5 271.5,-6.5 136.5,-6.5"/>
<text text-anchor="middle" x="204" y="-14.5" font-family="Helvetica,sans-Serif" font-size="10.00">RegisterScriptAny_Generic</text>
</a>
</g>
<!-- Node1&#45;&gt;Node2 -->
<g id="edge2" class="edge"><title>Node1&#45;&gt;Node2</title>
<path fill="none" stroke="midnightblue" d="M109.643,-17C118.367,-17 127.405,-17 136.277,-17"/>
<polygon fill="midnightblue" stroke="midnightblue" points="109.574,-13.5001 99.5743,-17 109.574,-20.5001 109.574,-13.5001"/>
</g>
<!-- Node3 -->
<g id="node5" class="node"><title>Node3</title>
<a xlink:href="scriptany_8h.html#a13b8b1995d1ba5f1031f76ac76eea446" target="_top" xlink:title="RegisterScriptAny">
<polygon fill="white" stroke="black" points="308,-6.5 308,-27.5 404,-27.5 404,-6.5 308,-6.5"/>
<text text-anchor="middle" x="356" y="-14.5" font-family="Helvetica,sans-Serif" font-size="10.00">RegisterScriptAny</text>
</a>
</g>
<!-- Node2&#45;&gt;Node3 -->
<g id="edge4" class="edge"><title>Node2&#45;&gt;Node3</title>
<path fill="none" stroke="midnightblue" d="M281.611,-17C290.53,-17 299.419,-17 307.787,-17"/>
<polygon fill="midnightblue" stroke="midnightblue" points="281.555,-13.5001 271.555,-17 281.555,-20.5001 281.555,-13.5001"/>
</g>
<!-- Node4 -->
<g id="node7" class="node"><title>Node4</title>
<a xlink:href="class_script_engine.html#aec64d59067a79c9fe0b88c150c901147" target="_top" xlink:title="ScriptEngine::init">
<polygon fill="white" stroke="black" points="440.5,-6.5 440.5,-27.5 531.5,-27.5 531.5,-6.5 440.5,-6.5"/>
<text text-anchor="middle" x="486" y="-14.5" font-family="Helvetica,sans-Serif" font-size="10.00">ScriptEngine::init</text>
</a>
</g>
<!-- Node3&#45;&gt;Node4 -->
<g id="edge6" class="edge"><title>Node3&#45;&gt;Node4</title>
<path fill="none" stroke="midnightblue" d="M414.2,-17C422.955,-17 431.876,-17 440.318,-17"/>
<polygon fill="midnightblue" stroke="midnightblue" points="414.038,-13.5001 404.038,-17 414.038,-20.5001 414.038,-13.5001"/>
</g>
<!-- Node5 -->
<g id="node9" class="node"><title>Node5</title>
<a xlink:href="class_script_engine.html#a05631d095d3ed370791fb2e67344da32" target="_top" xlink:title="ScriptEngine::ScriptEngine">
<polygon fill="white" stroke="black" points="568,-6.5 568,-27.5 702,-27.5 702,-6.5 568,-6.5"/>
<text text-anchor="middle" x="635" y="-14.5" font-family="Helvetica,sans-Serif" font-size="10.00">ScriptEngine::ScriptEngine</text>
</a>
</g>
<!-- Node4&#45;&gt;Node5 -->
<g id="edge8" class="edge"><title>Node4&#45;&gt;Node5</title>
<path fill="none" stroke="midnightblue" d="M541.699,-17C550.218,-17 559.087,-17 567.822,-17"/>
<polygon fill="midnightblue" stroke="midnightblue" points="541.515,-13.5001 531.515,-17 541.514,-20.5001 541.515,-13.5001"/>
</g>
</g>
</svg>
