<?xml version="1.0" encoding="UTF-8" standalone="no"?>
<!DOCTYPE svg PUBLIC "-//W3C//DTD SVG 1.1//EN"
 "http://www.w3.org/Graphics/SVG/1.1/DTD/svg11.dtd">
<!-- Generated by graphviz version 2.26.3 (20100126.1600)
 -->
<!-- Title: StringCopyFactory_Generic Pages: 1 -->
<svg width="426pt" height="42pt"
 viewBox="0.00 0.00 426.00 42.00" xmlns="http://www.w3.org/2000/svg" xmlns:xlink="http://www.w3.org/1999/xlink">
<g id="graph1" class="graph" transform="scale(1 1) rotate(0) translate(4 38)">
<title>StringCopyFactory_Generic</title>
<polygon fill="white" stroke="white" points="-4,5 -4,-38 423,-38 423,5 -4,5"/>
<!-- Node1 -->
<g id="node1" class="node"><title>Node1</title>
<polygon fill="#bfbfbf" stroke="black" points="0.5,-6.5 0.5,-27.5 137.5,-27.5 137.5,-6.5 0.5,-6.5"/>
<text text-anchor="middle" x="69" y="-14.5" font-family="Helvetica,sans-Serif" font-size="10.00">StringCopyFactory_Generic</text>
</g>
<!-- Node2 -->
<g id="node3" class="node"><title>Node2</title>
<a xlink:href="scriptstring_8h.html#a6edb8684b477c47069a6024b2dd0e5cf" target="_top" xlink:title="RegisterScriptString\l_Generic">
<polygon fill="white" stroke="black" points="174,-0 174,-34 278,-34 278,-0 174,-0"/>
<text text-anchor="start" x="182" y="-21" font-family="Helvetica,sans-Serif" font-size="10.00">RegisterScriptString</text>
<text text-anchor="middle" x="226" y="-8" font-family="Helvetica,sans-Serif" font-size="10.00">_Generic</text>
</a>
</g>
<!-- Node1&#45;&gt;Node2 -->
<g id="edge2" class="edge"><title>Node1&#45;&gt;Node2</title>
<path fill="none" stroke="midnightblue" d="M148.059,-17C156.763,-17 165.458,-17 173.716,-17"/>
<polygon fill="midnightblue" stroke="midnightblue" points="147.863,-13.5001 137.862,-17 147.862,-20.5001 147.863,-13.5001"/>
</g>
<!-- Node3 -->
<g id="node5" class="node"><title>Node3</title>
<a xlink:href="scriptstring_8h.html#abb60da4c9ef614d9f0e6f76b8c19126e" target="_top" xlink:title="RegisterScriptString">
<polygon fill="white" stroke="black" points="314,-6.5 314,-27.5 418,-27.5 418,-6.5 314,-6.5"/>
<text text-anchor="middle" x="366" y="-14.5" font-family="Helvetica,sans-Serif" font-size="10.00">RegisterScriptString</text>
</a>
</g>
<!-- Node2&#45;&gt;Node3 -->
<g id="edge4" class="edge"><title>Node2&#45;&gt;Node3</title>
<path fill="none" stroke="midnightblue" d="M288.387,-17C296.885,-17 305.534,-17 313.826,-17"/>
<polygon fill="midnightblue" stroke="midnightblue" points="288.131,-13.5001 278.131,-17 288.131,-20.5001 288.131,-13.5001"/>
</g>
</g>
</svg>
