<?xml version="1.0" encoding="UTF-8" standalone="no"?>
<!DOCTYPE svg PUBLIC "-//W3C//DTD SVG 1.1//EN"
 "http://www.w3.org/Graphics/SVG/1.1/DTD/svg11.dtd">
<!-- Generated by graphviz version 2.26.3 (20100126.1600)
 -->
<!-- Title: Vector3InitConstructor_Generic Pages: 1 -->
<svg width="424pt" height="42pt"
 viewBox="0.00 0.00 424.00 42.00" xmlns="http://www.w3.org/2000/svg" xmlns:xlink="http://www.w3.org/1999/xlink">
<g id="graph1" class="graph" transform="scale(1 1) rotate(0) translate(4 38)">
<title>Vector3InitConstructor_Generic</title>
<polygon fill="white" stroke="white" points="-4,5 -4,-38 421,-38 421,5 -4,5"/>
<!-- Node1 -->
<g id="node1" class="node"><title>Node1</title>
<polygon fill="#bfbfbf" stroke="black" points="0.5,-0 0.5,-34 115.5,-34 115.5,-0 0.5,-0"/>
<text text-anchor="start" x="8.5" y="-21" font-family="Helvetica,sans-Serif" font-size="10.00">Vector3InitConstructor</text>
<text text-anchor="middle" x="58" y="-8" font-family="Helvetica,sans-Serif" font-size="10.00">_Generic</text>
</g>
<!-- Node2 -->
<g id="node3" class="node"><title>Node2</title>
<a xlink:href="scriptmath3d_8h.html#a49f9a179a43cdfcbdbc8989ce7e02076" target="_top" xlink:title="RegisterScriptMath3D\l_Generic">
<polygon fill="white" stroke="black" points="152.5,-0 152.5,-34 265.5,-34 265.5,-0 152.5,-0"/>
<text text-anchor="start" x="160.5" y="-21" font-family="Helvetica,sans-Serif" font-size="10.00">RegisterScriptMath3D</text>
<text text-anchor="middle" x="209" y="-8" font-family="Helvetica,sans-Serif" font-size="10.00">_Generic</text>
</a>
</g>
<!-- Node1&#45;&gt;Node2 -->
<g id="edge2" class="edge"><title>Node1&#45;&gt;Node2</title>
<path fill="none" stroke="midnightblue" d="M125.767,-17C134.579,-17 143.533,-17 152.142,-17"/>
<polygon fill="midnightblue" stroke="midnightblue" points="125.517,-13.5001 115.517,-17 125.517,-20.5001 125.517,-13.5001"/>
</g>
<!-- Node3 -->
<g id="node5" class="node"><title>Node3</title>
<a xlink:href="scriptmath3d_8h.html#a299c92b72ac02897678fa0e30a10b619" target="_top" xlink:title="RegisterScriptMath3D">
<polygon fill="white" stroke="black" points="302.5,-6.5 302.5,-27.5 415.5,-27.5 415.5,-6.5 302.5,-6.5"/>
<text text-anchor="middle" x="359" y="-14.5" font-family="Helvetica,sans-Serif" font-size="10.00">RegisterScriptMath3D</text>
</a>
</g>
<!-- Node2&#45;&gt;Node3 -->
<g id="edge4" class="edge"><title>Node2&#45;&gt;Node3</title>
<path fill="none" stroke="midnightblue" d="M275.916,-17C284.694,-17 293.622,-17 302.211,-17"/>
<polygon fill="midnightblue" stroke="midnightblue" points="275.709,-13.5001 265.709,-17 275.709,-20.5001 275.709,-13.5001"/>
</g>
</g>
</svg>
