<?xml version="1.0" encoding="UTF-8" standalone="no"?>
<!DOCTYPE svg PUBLIC "-//W3C//DTD SVG 1.1//EN"
 "http://www.w3.org/Graphics/SVG/1.1/DTD/svg11.dtd">
<!-- Generated by graphviz version 2.26.3 (20100126.1600)
 -->
<!-- Title: G Pages: 1 -->
<!--zoomable 204 -->
<svg id="main" version="1.1" xmlns="http://www.w3.org/2000/svg" xmlns:xlink="http://www.w3.org/1999/xlink" xml:space="preserve" onload="init(evt)">
        <defs>
                <circle id="rim" cx="0" cy="0" r="7"/>
                <circle id="rim2" cx="0" cy="0" r="3.5"/>
                <g id="zoomPlus">
                        <use xlink:href="#rim" fill="#404040">
                                <set attributeName="fill" to="#808080" begin="zoomplus.mouseover" end="zoomplus.mouseout"/>
                        </use>
                        <path d="M-4,0h8M0,-4v8" fill="none" stroke="white" stroke-width="1.5" pointer-events="none"/>
                </g>
                <g id="zoomMin">
                        <use xlink:href="#rim" fill="#404040">
                                <set attributeName="fill" to="#808080" begin="zoomminus.mouseover" end="zoomminus.mouseout"/>
                        </use>
                        <path d="M-4,0h8" fill="none" stroke="white" stroke-width="1.5" pointer-events="none"/>
                </g>
                <g id="dirArrow">
                        <path fill="none" stroke="white" stroke-width="1.5" d="M0,-3.0v7 M-2.5,-0.5L0,-3.0L2.5,-0.5"/>
                </g>
               <g id="resetDef">
                       <use xlink:href="#rim2" fill="#404040">
                               <set attributeName="fill" to="#808080" begin="reset.mouseover" end="reset.mouseout"/>
                       </use>
               </g>
        </defs>

<script type="text/javascript">
var viewWidth = 611;
var viewHeight = 204;
var sectionId = 'dynsection-1';
</script>
<script xlink:href="svgpan.js"/>
<svg id="graph" class="graph">
<g id="viewport">
<title>G</title>
<polygon fill="white" stroke="white" points="-4,5 -4,-200 608,-200 608,5 -4,5"/>
<!-- Node1 -->
<g id="node1" class="node"><title>Node1</title>
<polygon fill="#bfbfbf" stroke="black" points="130.5,-174.5 130.5,-195.5 409.5,-195.5 409.5,-174.5 130.5,-174.5"/>
<text text-anchor="middle" x="270" y="-182.5" font-family="Helvetica,sans-Serif" font-size="10.00">source/angelscript_addons/scriptdictionary/scriptdictionary.h</text>
</g>
<!-- Node2 -->
<g id="node3" class="node"><title>Node2</title>
<a xlink:href="scriptdictionary_8cpp.html" target="_top" xlink:title="source/angelscript_addons/scriptdictionary/scriptdictionary.cpp">
<polygon fill="white" stroke="black" points="0,-116.5 0,-137.5 290,-137.5 290,-116.5 0,-116.5"/>
<text text-anchor="middle" x="145" y="-124.5" font-family="Helvetica,sans-Serif" font-size="10.00">source/angelscript_addons/scriptdictionary/scriptdictionary.cpp</text>
</a>
</g>
<!-- Node1&#45;&gt;Node2 -->
<g id="edge2" class="edge"><title>Node1&#45;&gt;Node2</title>
<path fill="none" stroke="midnightblue" d="M238.117,-170.206C216.188,-160.031 187.579,-146.757 167.891,-137.621"/>
<polygon fill="midnightblue" stroke="midnightblue" points="236.819,-173.462 247.363,-174.497 239.766,-167.113 236.819,-173.462"/>
</g>
<!-- Node3 -->
<g id="node5" class="node"><title>Node3</title>
<a xlink:href="_script_engine_8h.html" target="_top" xlink:title="AngelScript interface to the game.">
<polygon fill="white" stroke="black" points="308,-116.5 308,-137.5 484,-137.5 484,-116.5 308,-116.5"/>
<text text-anchor="middle" x="396" y="-124.5" font-family="Helvetica,sans-Serif" font-size="10.00">source/main/scripting/ScriptEngine.h</text>
</a>
</g>
<!-- Node1&#45;&gt;Node3 -->
<g id="edge4" class="edge"><title>Node1&#45;&gt;Node3</title>
<path fill="none" stroke="midnightblue" d="M302.138,-170.206C324.243,-160.031 353.08,-146.757 372.926,-137.621"/>
<polygon fill="midnightblue" stroke="midnightblue" points="300.438,-167.136 292.818,-174.497 303.365,-173.494 300.438,-167.136"/>
</g>
<!-- Node4 -->
<g id="node7" class="node"><title>Node4</title>
<a xlink:href="_main_thread_8cpp.html" target="_top" xlink:title="source/main/main_sim/MainThread.cpp">
<polygon fill="white" stroke="black" points="104,-58.5 104,-79.5 292,-79.5 292,-58.5 104,-58.5"/>
<text text-anchor="middle" x="198" y="-66.5" font-family="Helvetica,sans-Serif" font-size="10.00">source/main/main_sim/MainThread.cpp</text>
</a>
</g>
<!-- Node3&#45;&gt;Node4 -->
<g id="edge6" class="edge"><title>Node3&#45;&gt;Node4</title>
<path fill="none" stroke="midnightblue" d="M350.527,-113.68C315.117,-103.307 266.644,-89.1078 233.924,-79.5231"/>
<polygon fill="midnightblue" stroke="midnightblue" points="349.563,-117.044 360.144,-116.497 351.531,-110.327 349.563,-117.044"/>
</g>
<!-- Node5 -->
<g id="node9" class="node"><title>Node5</title>
<a xlink:href="_game_script_8h.html" target="_top" xlink:title="source/main/scripting/GameScript.h">
<polygon fill="white" stroke="black" points="309.5,-58.5 309.5,-79.5 482.5,-79.5 482.5,-58.5 309.5,-58.5"/>
<text text-anchor="middle" x="396" y="-66.5" font-family="Helvetica,sans-Serif" font-size="10.00">source/main/scripting/GameScript.h</text>
</a>
</g>
<!-- Node3&#45;&gt;Node5 -->
<g id="edge8" class="edge"><title>Node3&#45;&gt;Node5</title>
<path fill="none" stroke="midnightblue" d="M396,-106.191C396,-97.1684 396,-86.9941 396,-79.5707"/>
<polygon fill="midnightblue" stroke="midnightblue" points="392.5,-106.362 396,-116.362 399.5,-106.362 392.5,-106.362"/>
</g>
<!-- Node7 -->
<g id="node13" class="node"><title>Node7</title>
<a xlink:href="_script_engine_8cpp.html" target="_top" xlink:title="source/main/scripting/ScriptEngine.cpp">
<polygon fill="white" stroke="black" points="416.5,-0.5 416.5,-21.5 603.5,-21.5 603.5,-0.5 416.5,-0.5"/>
<text text-anchor="middle" x="510" y="-8.5" font-family="Helvetica,sans-Serif" font-size="10.00">source/main/scripting/ScriptEngine.cpp</text>
</a>
</g>
<!-- Node3&#45;&gt;Node7 -->
<g id="edge14" class="edge"><title>Node3&#45;&gt;Node7</title>
<path fill="none" stroke="midnightblue" d="M443.512,-112.709C460.639,-105.41 478.745,-94.8477 491,-80 505.079,-62.9432 508.765,-36.2473 509.704,-21.563"/>
<polygon fill="midnightblue" stroke="midnightblue" points="442.14,-109.487 434.141,-116.435 444.726,-115.992 442.14,-109.487"/>
</g>
<!-- Node6 -->
<g id="node11" class="node"><title>Node6</title>
<a xlink:href="_game_script_8cpp.html" target="_top" xlink:title="source/main/scripting/GameScript.cpp">
<polygon fill="white" stroke="black" points="216.5,-0.5 216.5,-21.5 399.5,-21.5 399.5,-0.5 216.5,-0.5"/>
<text text-anchor="middle" x="308" y="-8.5" font-family="Helvetica,sans-Serif" font-size="10.00">source/main/scripting/GameScript.cpp</text>
</a>
</g>
<!-- Node5&#45;&gt;Node6 -->
<g id="edge10" class="edge"><title>Node5&#45;&gt;Node6</title>
<path fill="none" stroke="midnightblue" d="M371.453,-52.8215C356.296,-42.8312 337.282,-30.2993 324.038,-21.5707"/>
<polygon fill="midnightblue" stroke="midnightblue" points="369.584,-55.7811 379.859,-58.3619 373.436,-49.9364 369.584,-55.7811"/>
</g>
<!-- Node5&#45;&gt;Node7 -->
<g id="edge12" class="edge"><title>Node5&#45;&gt;Node7</title>
<path fill="none" stroke="midnightblue" d="M425.617,-53.9319C445.544,-43.7932 471.329,-30.6748 489.124,-21.6212"/>
<polygon fill="midnightblue" stroke="midnightblue" points="423.97,-50.8425 416.645,-58.4966 427.144,-57.0815 423.97,-50.8425"/>
</g>
</g>
</svg>
        <g id="navigator" transform="translate(0 0)" fill="#404254">
                <rect fill="#f2f5e9" fill-opacity="0.5" stroke="#606060" stroke-width=".5" x="0" y="0" width="60" height="60"/>
                <use id="zoomplus" xlink:href="#zoomPlus" x="17" y="9" onmousedown="handleZoom(evt,'in')"/>
                <use id="zoomminus" xlink:href="#zoomMin" x="42" y="9" onmousedown="handleZoom(evt,'out')"/>
                <use id="reset" xlink:href="#resetDef" x="30" y="36" onmousedown="handleReset()"/>
                <g id="arrowUp" xlink:href="#dirArrow" transform="translate(30 24)" onmousedown="handlePan(0,-1)">
                  <use xlink:href="#rim" fill="#404040">
                        <set attributeName="fill" to="#808080" begin="arrowUp.mouseover" end="arrowUp.mouseout"/>
                  </use>
                  <path fill="none" stroke="white" stroke-width="1.5" d="M0,-3.0v7 M-2.5,-0.5L0,-3.0L2.5,-0.5"/>
                </g>
                <g id="arrowRight" xlink:href="#dirArrow" transform="rotate(90) translate(36 -43)" onmousedown="handlePan(1,0)">
                  <use xlink:href="#rim" fill="#404040">
                        <set attributeName="fill" to="#808080" begin="arrowRight.mouseover" end="arrowRight.mouseout"/>
                  </use>
                  <path fill="none" stroke="white" stroke-width="1.5" d="M0,-3.0v7 M-2.5,-0.5L0,-3.0L2.5,-0.5"/>
                </g>
                <g id="arrowDown" xlink:href="#dirArrow" transform="rotate(180) translate(-30 -48)" onmousedown="handlePan(0,1)">
                  <use xlink:href="#rim" fill="#404040">
                        <set attributeName="fill" to="#808080" begin="arrowDown.mouseover" end="arrowDown.mouseout"/>
                  </use>
                  <path fill="none" stroke="white" stroke-width="1.5" d="M0,-3.0v7 M-2.5,-0.5L0,-3.0L2.5,-0.5"/>
                </g>
                <g id="arrowLeft" xlink:href="#dirArrow" transform="rotate(270) translate(-36 17)" onmousedown="handlePan(-1,0)">
                  <use xlink:href="#rim" fill="#404040">
                        <set attributeName="fill" to="#808080" begin="arrowLeft.mouseover" end="arrowLeft.mouseout"/>
                  </use>
                  <path fill="none" stroke="white" stroke-width="1.5" d="M0,-3.0v7 M-2.5,-0.5L0,-3.0L2.5,-0.5"/>
                </g>
        </g>
</svg>
