<?xml version="1.0" encoding="UTF-8" standalone="no"?>
<!DOCTYPE svg PUBLIC "-//W3C//DTD SVG 1.1//EN"
 "http://www.w3.org/Graphics/SVG/1.1/DTD/svg11.dtd">
<!-- Generated by graphviz version 2.26.3 (20100126.1600)
 -->
<!-- Title: source/angelscript_addons/scriptstring/scriptstring_utils.cpp Pages: 1 -->
<svg width="362pt" height="172pt"
 viewBox="0.00 0.00 362.00 172.00" xmlns="http://www.w3.org/2000/svg" xmlns:xlink="http://www.w3.org/1999/xlink">
<g id="graph1" class="graph" transform="scale(1 1) rotate(0) translate(4 168)">
<title>source/angelscript_addons/scriptstring/scriptstring_utils.cpp</title>
<polygon fill="white" stroke="white" points="-4,5 -4,-168 359,-168 359,5 -4,5"/>
<!-- Node1 -->
<g id="node1" class="node"><title>Node1</title>
<polygon fill="#bfbfbf" stroke="black" points="138,-116.5 138,-163.5 248,-163.5 248,-116.5 138,-116.5"/>
<text text-anchor="start" x="146" y="-150.5" font-family="Helvetica,sans-Serif" font-size="10.00">source/angelscript</text>
<text text-anchor="start" x="146" y="-137.5" font-family="Helvetica,sans-Serif" font-size="10.00">_addons/scriptstring</text>
<text text-anchor="middle" x="193" y="-124.5" font-family="Helvetica,sans-Serif" font-size="10.00">/scriptstring_utils.cpp</text>
</g>
<!-- Node2 -->
<g id="node3" class="node"><title>Node2</title>
<polygon fill="white" stroke="#bfbfbf" points="0,-58.5 0,-79.5 52,-79.5 52,-58.5 0,-58.5"/>
<text text-anchor="middle" x="26" y="-66.5" font-family="Helvetica,sans-Serif" font-size="10.00">assert.h</text>
</g>
<!-- Node1&#45;&gt;Node2 -->
<g id="edge2" class="edge"><title>Node1&#45;&gt;Node2</title>
<path fill="none" stroke="midnightblue" d="M137.855,-116.555C112.2,-105.648 82.4916,-93.0174 60.1425,-83.5157"/>
<polygon fill="midnightblue" stroke="midnightblue" points="61.3134,-80.2103 50.7411,-79.5187 58.5745,-86.6523 61.3134,-80.2103"/>
</g>
<!-- Node3 -->
<g id="node5" class="node"><title>Node3</title>
<a xlink:href="scriptstring_8h.html" target="_top" xlink:title="scriptstring.h">
<polygon fill="white" stroke="black" points="215.5,-58.5 215.5,-79.5 288.5,-79.5 288.5,-58.5 215.5,-58.5"/>
<text text-anchor="middle" x="252" y="-66.5" font-family="Helvetica,sans-Serif" font-size="10.00">scriptstring.h</text>
</a>
</g>
<!-- Node1&#45;&gt;Node3 -->
<g id="edge4" class="edge"><title>Node1&#45;&gt;Node3</title>
<path fill="none" stroke="midnightblue" d="M212.646,-116.358C220.47,-106.942 229.339,-96.2696 236.675,-87.4425"/>
<polygon fill="midnightblue" stroke="midnightblue" points="239.454,-89.5742 243.153,-79.6462 234.07,-85.1004 239.454,-89.5742"/>
</g>
<!-- Node6 -->
<g id="node11" class="node"><title>Node6</title>
<a xlink:href="scriptarray_8h.html" target="_top" xlink:title="../scriptarray/scriptarray.h">
<polygon fill="white" stroke="black" points="70,-58.5 70,-79.5 198,-79.5 198,-58.5 70,-58.5"/>
<text text-anchor="middle" x="134" y="-66.5" font-family="Helvetica,sans-Serif" font-size="10.00">../scriptarray/scriptarray.h</text>
</a>
</g>
<!-- Node1&#45;&gt;Node6 -->
<g id="edge10" class="edge"><title>Node1&#45;&gt;Node6</title>
<path fill="none" stroke="midnightblue" d="M173.354,-116.358C165.53,-106.942 156.661,-96.2696 149.325,-87.4425"/>
<polygon fill="midnightblue" stroke="midnightblue" points="151.93,-85.1004 142.847,-79.6462 146.546,-89.5742 151.93,-85.1004"/>
</g>
<!-- Node7 -->
<g id="node14" class="node"><title>Node7</title>
<polygon fill="white" stroke="#bfbfbf" points="305.5,-58.5 305.5,-79.5 354.5,-79.5 354.5,-58.5 305.5,-58.5"/>
<text text-anchor="middle" x="330" y="-66.5" font-family="Helvetica,sans-Serif" font-size="10.00">string.h</text>
</g>
<!-- Node1&#45;&gt;Node7 -->
<g id="edge14" class="edge"><title>Node1&#45;&gt;Node7</title>
<path fill="none" stroke="midnightblue" d="M238.619,-116.358C259.035,-105.778 282.514,-93.6096 300.56,-84.2571"/>
<polygon fill="midnightblue" stroke="midnightblue" points="302.189,-87.355 309.457,-79.6462 298.968,-81.1401 302.189,-87.355"/>
</g>
<!-- Node4 -->
<g id="node7" class="node"><title>Node4</title>
<polygon fill="white" stroke="#bfbfbf" points="120,-0.5 120,-21.5 192,-21.5 192,-0.5 120,-0.5"/>
<text text-anchor="middle" x="156" y="-8.5" font-family="Helvetica,sans-Serif" font-size="10.00">angelscript.h</text>
</g>
<!-- Node3&#45;&gt;Node4 -->
<g id="edge6" class="edge"><title>Node3&#45;&gt;Node4</title>
<path fill="none" stroke="midnightblue" d="M234.392,-58.3619C219.777,-49.532 198.776,-36.844 182.189,-26.8224"/>
<polygon fill="midnightblue" stroke="midnightblue" points="183.865,-23.7461 173.496,-21.5707 180.246,-29.7376 183.865,-23.7461"/>
</g>
<!-- Node5 -->
<g id="node9" class="node"><title>Node5</title>
<polygon fill="white" stroke="#bfbfbf" points="231.5,-0.5 231.5,-21.5 272.5,-21.5 272.5,-0.5 231.5,-0.5"/>
<text text-anchor="middle" x="252" y="-8.5" font-family="Helvetica,sans-Serif" font-size="10.00">string</text>
</g>
<!-- Node3&#45;&gt;Node5 -->
<g id="edge8" class="edge"><title>Node3&#45;&gt;Node5</title>
<path fill="none" stroke="midnightblue" d="M252,-58.3619C252,-50.9219 252,-40.7427 252,-31.7276"/>
<polygon fill="midnightblue" stroke="midnightblue" points="255.5,-31.5706 252,-21.5707 248.5,-31.5707 255.5,-31.5706"/>
</g>
<!-- Node6&#45;&gt;Node4 -->
<g id="edge12" class="edge"><title>Node6&#45;&gt;Node4</title>
<path fill="none" stroke="midnightblue" d="M138.035,-58.3619C140.919,-50.7584 144.888,-40.294 148.363,-31.1349"/>
<polygon fill="midnightblue" stroke="midnightblue" points="151.716,-32.1619 151.99,-21.5707 145.171,-29.6793 151.716,-32.1619"/>
</g>
</g>
</svg>
