<?xml version="1.0" encoding="UTF-8" standalone="no"?>
<!DOCTYPE svg PUBLIC "-//W3C//DTD SVG 1.1//EN"
 "http://www.w3.org/Graphics/SVG/1.1/DTD/svg11.dtd">
<!-- Generated by graphviz version 2.26.3 (20100126.1600)
 -->
<!-- Title: G Pages: 1 -->
<svg width="438pt" height="30pt"
 viewBox="0.00 0.00 438.00 30.00" xmlns="http://www.w3.org/2000/svg" xmlns:xlink="http://www.w3.org/1999/xlink">
<g id="graph1" class="graph" transform="scale(1 1) rotate(0) translate(4 26)">
<title>G</title>
<polygon fill="white" stroke="white" points="-4,5 -4,-26 435,-26 435,5 -4,5"/>
<!-- Node1 -->
<g id="node1" class="node"><title>Node1</title>
<polygon fill="#bfbfbf" stroke="black" points="0,-0.5 0,-21.5 110,-21.5 110,-0.5 0,-0.5"/>
<text text-anchor="middle" x="55" y="-8.5" font-family="Helvetica,sans-Serif" font-size="10.00">AddIntString_Generic</text>
</g>
<!-- Node2 -->
<g id="node3" class="node"><title>Node2</title>
<a xlink:href="scriptstring_8h.html#a6edb8684b477c47069a6024b2dd0e5cf" target="_top" xlink:title="RegisterScriptString_Generic">
<polygon fill="white" stroke="black" points="146.5,-0.5 146.5,-21.5 289.5,-21.5 289.5,-0.5 146.5,-0.5"/>
<text text-anchor="middle" x="218" y="-8.5" font-family="Helvetica,sans-Serif" font-size="10.00">RegisterScriptString_Generic</text>
</a>
</g>
<!-- Node1&#45;&gt;Node2 -->
<g id="edge2" class="edge"><title>Node1&#45;&gt;Node2</title>
<path fill="none" stroke="midnightblue" d="M120.45,-11C128.988,-11 137.77,-11 146.402,-11"/>
<polygon fill="midnightblue" stroke="midnightblue" points="120.184,-7.5001 110.184,-11 120.184,-14.5001 120.184,-7.5001"/>
</g>
<!-- Node3 -->
<g id="node5" class="node"><title>Node3</title>
<a xlink:href="scriptstring_8h.html#abb60da4c9ef614d9f0e6f76b8c19126e" target="_top" xlink:title="RegisterScriptString">
<polygon fill="white" stroke="black" points="326,-0.5 326,-21.5 430,-21.5 430,-0.5 326,-0.5"/>
<text text-anchor="middle" x="378" y="-8.5" font-family="Helvetica,sans-Serif" font-size="10.00">RegisterScriptString</text>
</a>
</g>
<!-- Node2&#45;&gt;Node3 -->
<g id="edge4" class="edge"><title>Node2&#45;&gt;Node3</title>
<path fill="none" stroke="midnightblue" d="M299.577,-11C308.446,-11 317.288,-11 325.669,-11"/>
<polygon fill="midnightblue" stroke="midnightblue" points="299.576,-7.5001 289.576,-11 299.576,-14.5001 299.576,-7.5001"/>
</g>
</g>
</svg>
