<?xml version="1.0" encoding="UTF-8" standalone="no"?>
<!DOCTYPE svg PUBLIC "-//W3C//DTD SVG 1.1//EN"
 "http://www.w3.org/Graphics/SVG/1.1/DTD/svg11.dtd">
<!-- Generated by graphviz version 2.26.3 (20100126.1600)
 -->
<!-- Title: RegisterStdStringUtils Pages: 1 -->
<!--zoomable 110 -->
<svg id="main" version="1.1" xmlns="http://www.w3.org/2000/svg" xmlns:xlink="http://www.w3.org/1999/xlink" xml:space="preserve" onload="init(evt)">
<style type="text/css"><![CDATA[
.edge:hover path { stroke: red; }
.edge:hover polygon { stroke: red; fill: red; }
]]></style>
<script type="text/javascript"><![CDATA[
var edges = document.getElementsByTagName('g');
if (edges && edges.length) {
  for (var i=0;i<edges.length;i++) {
    if (edges[i].id.substr(0,4)=='edge') {
      edges[i].setAttribute('class','edge');
    }
  }
}
]]></script>
        <defs>
                <circle id="rim" cx="0" cy="0" r="7"/>
                <circle id="rim2" cx="0" cy="0" r="3.5"/>
                <g id="zoomPlus">
                        <use xlink:href="#rim" fill="#404040">
                                <set attributeName="fill" to="#808080" begin="zoomplus.mouseover" end="zoomplus.mouseout"/>
                        </use>
                        <path d="M-4,0h8M0,-4v8" fill="none" stroke="white" stroke-width="1.5" pointer-events="none"/>
                </g>
                <g id="zoomMin">
                        <use xlink:href="#rim" fill="#404040">
                                <set attributeName="fill" to="#808080" begin="zoomminus.mouseover" end="zoomminus.mouseout"/>
                        </use>
                        <path d="M-4,0h8" fill="none" stroke="white" stroke-width="1.5" pointer-events="none"/>
                </g>
                <g id="dirArrow">
                        <path fill="none" stroke="white" stroke-width="1.5" d="M0,-3.0v7 M-2.5,-0.5L0,-3.0L2.5,-0.5"/>
                </g>
               <g id="resetDef">
                       <use xlink:href="#rim2" fill="#404040">
                               <set attributeName="fill" to="#808080" begin="reset.mouseover" end="reset.mouseout"/>
                       </use>
               </g>
        </defs>

<script type="text/javascript">
var viewWidth = 592;
var viewHeight = 110;
var sectionId = 'dynsection-1';
</script>
<script xlink:href="svgpan.js"/>
<svg id="graph" class="graph">
<g id="viewport">
<title>RegisterStdStringUtils</title>
<polygon fill="white" stroke="white" points="-4,5 -4,-106 589,-106 589,5 -4,5"/>
<!-- Node1 -->
<g id="node1" class="node"><title>Node1</title>
<polygon fill="#bfbfbf" stroke="black" points="0,-20.5 0,-41.5 114,-41.5 114,-20.5 0,-20.5"/>
<text text-anchor="middle" x="57" y="-28.5" font-family="Helvetica,sans-Serif" font-size="10.00">RegisterStdStringUtils</text>
</g>
<!-- Node2 -->
<g id="node3" class="node"><title>Node2</title>
<a xlink:href="scriptstdstring__utils_8cpp.html#af3198f0c162e4a7030ef00f1b9fdd217" target="_top" xlink:title="StringSplit_Generic">
<polygon fill="white" stroke="black" points="150.5,-40.5 150.5,-61.5 251.5,-61.5 251.5,-40.5 150.5,-40.5"/>
<text text-anchor="middle" x="201" y="-48.5" font-family="Helvetica,sans-Serif" font-size="10.00">StringSplit_Generic</text>
</a>
</g>
<!-- Node1&#45;&gt;Node2 -->
<g id="edge2" class="edge"><title>Node1&#45;&gt;Node2</title>
<path fill="none" stroke="midnightblue" d="M114.326,-38.962C122.895,-40.1521 131.753,-41.3824 140.387,-42.5816"/>
<polygon fill="midnightblue" stroke="midnightblue" points="140.003,-46.0617 150.389,-43.9707 140.966,-39.1282 140.003,-46.0617"/>
</g>
<!-- Node7 -->
<g id="node13" class="node"><title>Node7</title>
<a xlink:href="scriptstdstring__utils_8cpp.html#a41b2f8346d7bea93509e48973f114889" target="_top" xlink:title="StringJoin_Generic">
<polygon fill="white" stroke="black" points="151.5,-0.5 151.5,-21.5 250.5,-21.5 250.5,-0.5 151.5,-0.5"/>
<text text-anchor="middle" x="201" y="-8.5" font-family="Helvetica,sans-Serif" font-size="10.00">StringJoin_Generic</text>
</a>
</g>
<!-- Node1&#45;&gt;Node7 -->
<g id="edge12" class="edge"><title>Node1&#45;&gt;Node7</title>
<path fill="none" stroke="midnightblue" d="M114.326,-23.038C123.216,-21.8033 132.417,-20.5253 141.357,-19.2838"/>
<polygon fill="midnightblue" stroke="midnightblue" points="141.885,-22.7442 151.308,-17.9017 140.921,-15.8107 141.885,-22.7442"/>
</g>
<!-- Node3 -->
<g id="node5" class="node"><title>Node3</title>
<a xlink:href="class_c_script_array.html#a54fe13adf1cdded2aec4ac0b5924891f" target="_top" xlink:title="CScriptArray::Resize">
<polygon fill="white" stroke="black" points="290,-80.5 290,-101.5 400,-101.5 400,-80.5 290,-80.5"/>
<text text-anchor="middle" x="345" y="-88.5" font-family="Helvetica,sans-Serif" font-size="10.00">CScriptArray::Resize</text>
</a>
</g>
<!-- Node2&#45;&gt;Node3 -->
<g id="edge4" class="edge"><title>Node2&#45;&gt;Node3</title>
<path fill="none" stroke="midnightblue" d="M238.834,-61.5095C256.716,-66.4768 278.259,-72.4607 297.252,-77.7365"/>
<polygon fill="midnightblue" stroke="midnightblue" points="296.346,-81.1176 306.918,-80.4218 298.22,-74.373 296.346,-81.1176"/>
</g>
<!-- Node5 -->
<g id="node9" class="node"><title>Node5</title>
<a xlink:href="class_c_script_array.html#aceeebde2ef3248973a87add12d140806" target="_top" xlink:title="CScriptArray::GetSize">
<polygon fill="white" stroke="black" points="288,-0.5 288,-21.5 402,-21.5 402,-0.5 288,-0.5"/>
<text text-anchor="middle" x="345" y="-8.5" font-family="Helvetica,sans-Serif" font-size="10.00">CScriptArray::GetSize</text>
</a>
</g>
<!-- Node2&#45;&gt;Node5 -->
<g id="edge8" class="edge"><title>Node2&#45;&gt;Node5</title>
<path fill="none" stroke="midnightblue" d="M238.834,-40.4905C256.716,-35.5232 278.259,-29.5393 297.252,-24.2635"/>
<polygon fill="midnightblue" stroke="midnightblue" points="298.22,-27.627 306.918,-21.5782 296.346,-20.8824 298.22,-27.627"/>
</g>
<!-- Node6 -->
<g id="node11" class="node"><title>Node6</title>
<a xlink:href="class_c_script_array.html#ac179b031c789763b6d7cecb8c07157f5" target="_top" xlink:title="CScriptArray::At">
<polygon fill="white" stroke="black" points="300.5,-40.5 300.5,-61.5 389.5,-61.5 389.5,-40.5 300.5,-40.5"/>
<text text-anchor="middle" x="345" y="-48.5" font-family="Helvetica,sans-Serif" font-size="10.00">CScriptArray::At</text>
</a>
</g>
<!-- Node2&#45;&gt;Node6 -->
<g id="edge10" class="edge"><title>Node2&#45;&gt;Node6</title>
<path fill="none" stroke="midnightblue" d="M251.769,-51C264.168,-51 277.49,-51 290.073,-51"/>
<polygon fill="midnightblue" stroke="midnightblue" points="290.433,-54.5001 300.433,-51 290.433,-47.5001 290.433,-54.5001"/>
</g>
<!-- Node4 -->
<g id="node7" class="node"><title>Node4</title>
<a xlink:href="class_c_script_array.html#a7b0f5d403c859b4b3d3af2c6eb1f468c" target="_top" xlink:title="CScriptArray::CheckMaxSize">
<polygon fill="white" stroke="black" points="438,-80.5 438,-101.5 584,-101.5 584,-80.5 438,-80.5"/>
<text text-anchor="middle" x="511" y="-88.5" font-family="Helvetica,sans-Serif" font-size="10.00">CScriptArray::CheckMaxSize</text>
</a>
</g>
<!-- Node3&#45;&gt;Node4 -->
<g id="edge6" class="edge"><title>Node3&#45;&gt;Node4</title>
<path fill="none" stroke="midnightblue" d="M400.276,-91C409.141,-91 418.484,-91 427.829,-91"/>
<polygon fill="midnightblue" stroke="midnightblue" points="427.948,-94.5001 437.948,-91 427.948,-87.5001 427.948,-94.5001"/>
</g>
<!-- Node7&#45;&gt;Node5 -->
<g id="edge14" class="edge"><title>Node7&#45;&gt;Node5</title>
<path fill="none" stroke="midnightblue" d="M250.557,-11C259.305,-11 268.544,-11 277.683,-11"/>
<polygon fill="midnightblue" stroke="midnightblue" points="277.926,-14.5001 287.926,-11 277.926,-7.5001 277.926,-14.5001"/>
</g>
<!-- Node7&#45;&gt;Node6 -->
<g id="edge16" class="edge"><title>Node7&#45;&gt;Node6</title>
<path fill="none" stroke="midnightblue" d="M238.834,-21.5095C256.716,-26.4768 278.259,-32.4607 297.252,-37.7365"/>
<polygon fill="midnightblue" stroke="midnightblue" points="296.346,-41.1176 306.918,-40.4218 298.22,-34.373 296.346,-41.1176"/>
</g>
</g>
</svg>
        <g id="navigator" transform="translate(0 0)" fill="#404254">
                <rect fill="#f2f5e9" fill-opacity="0.5" stroke="#606060" stroke-width=".5" x="0" y="0" width="60" height="60"/>
                <use id="zoomplus" xlink:href="#zoomPlus" x="17" y="9" onmousedown="handleZoom(evt,'in')"/>
                <use id="zoomminus" xlink:href="#zoomMin" x="42" y="9" onmousedown="handleZoom(evt,'out')"/>
                <use id="reset" xlink:href="#resetDef" x="30" y="36" onmousedown="handleReset()"/>
                <g id="arrowUp" xlink:href="#dirArrow" transform="translate(30 24)" onmousedown="handlePan(0,-1)">
                  <use xlink:href="#rim" fill="#404040">
                        <set attributeName="fill" to="#808080" begin="arrowUp.mouseover" end="arrowUp.mouseout"/>
                  </use>
                  <path fill="none" stroke="white" stroke-width="1.5" d="M0,-3.0v7 M-2.5,-0.5L0,-3.0L2.5,-0.5"/>
                </g>
                <g id="arrowRight" xlink:href="#dirArrow" transform="rotate(90) translate(36 -43)" onmousedown="handlePan(1,0)">
                  <use xlink:href="#rim" fill="#404040">
                        <set attributeName="fill" to="#808080" begin="arrowRight.mouseover" end="arrowRight.mouseout"/>
                  </use>
                  <path fill="none" stroke="white" stroke-width="1.5" d="M0,-3.0v7 M-2.5,-0.5L0,-3.0L2.5,-0.5"/>
                </g>
                <g id="arrowDown" xlink:href="#dirArrow" transform="rotate(180) translate(-30 -48)" onmousedown="handlePan(0,1)">
                  <use xlink:href="#rim" fill="#404040">
                        <set attributeName="fill" to="#808080" begin="arrowDown.mouseover" end="arrowDown.mouseout"/>
                  </use>
                  <path fill="none" stroke="white" stroke-width="1.5" d="M0,-3.0v7 M-2.5,-0.5L0,-3.0L2.5,-0.5"/>
                </g>
                <g id="arrowLeft" xlink:href="#dirArrow" transform="rotate(270) translate(-36 17)" onmousedown="handlePan(-1,0)">
                  <use xlink:href="#rim" fill="#404040">
                        <set attributeName="fill" to="#808080" begin="arrowLeft.mouseover" end="arrowLeft.mouseout"/>
                  </use>
                  <path fill="none" stroke="white" stroke-width="1.5" d="M0,-3.0v7 M-2.5,-0.5L0,-3.0L2.5,-0.5"/>
                </g>
        </g>
        <svg viewBox="0 0 15 15" width="100%" height="30px" preserveAspectRatio="xMaxYMin meet">
         <g id="arrow_out" transform="scale(0.3 0.3)">
          <a xlink:href="scriptstdstring__utils_8cpp_a9eb22950e2421aeb4bc46bc742bcf625_cgraph_org.svg" target="_base">
           <rect id="button" ry="5" rx="5" y="6" x="6" height="38" width="38"
                fill="#f2f5e9" fill-opacity="0.5" stroke="#606060" stroke-width="1.0"/>
           <path id="arrow"
             d="M 11.500037,31.436501 C 11.940474,20.09759 22.043105,11.32322 32.158766,21.979434 L 37.068811,17.246167 C 37.068811,17.246167 37.088388,32 37.088388,32 L 22.160133,31.978069 C 22.160133,31.978069 26.997745,27.140456 26.997745,27.140456 C 18.528582,18.264221 13.291696,25.230495 11.500037,31.436501 z"
             style="fill:#404040;"/>
          </a>
         </g>
        </svg>
</svg>
