<?xml version="1.0" encoding="UTF-8" standalone="no"?>
<!DOCTYPE svg PUBLIC "-//W3C//DTD SVG 1.1//EN"
 "http://www.w3.org/Graphics/SVG/1.1/DTD/svg11.dtd">
<!-- Generated by graphviz version 2.26.3 (20100126.1600)
 -->
<!-- Title: ScriptDictionarySet_Generic Pages: 1 -->
<svg width="728pt" height="42pt"
 viewBox="0.00 0.00 728.00 42.00" xmlns="http://www.w3.org/2000/svg" xmlns:xlink="http://www.w3.org/1999/xlink">
<g id="graph1" class="graph" transform="scale(1 1) rotate(0) translate(4 38)">
<title>ScriptDictionarySet_Generic</title>
<polygon fill="white" stroke="white" points="-4,5 -4,-38 725,-38 725,5 -4,5"/>
<!-- Node1 -->
<g id="node1" class="node"><title>Node1</title>
<polygon fill="#bfbfbf" stroke="black" points="0.5,-0 0.5,-34 101.5,-34 101.5,-0 0.5,-0"/>
<text text-anchor="start" x="8.5" y="-21" font-family="Helvetica,sans-Serif" font-size="10.00">ScriptDictionarySet</text>
<text text-anchor="middle" x="51" y="-8" font-family="Helvetica,sans-Serif" font-size="10.00">_Generic</text>
</g>
<!-- Node2 -->
<g id="node3" class="node"><title>Node2</title>
<a xlink:href="scriptdictionary_8h.html#af8fc6fbf1a623e6c2ff14605df4e0570" target="_top" xlink:title="RegisterScriptDictionary\l_Generic">
<polygon fill="white" stroke="black" points="138.5,-0 138.5,-34 261.5,-34 261.5,-0 138.5,-0"/>
<text text-anchor="start" x="146.5" y="-21" font-family="Helvetica,sans-Serif" font-size="10.00">RegisterScriptDictionary</text>
<text text-anchor="middle" x="200" y="-8" font-family="Helvetica,sans-Serif" font-size="10.00">_Generic</text>
</a>
</g>
<!-- Node1&#45;&gt;Node2 -->
<g id="edge2" class="edge"><title>Node1&#45;&gt;Node2</title>
<path fill="none" stroke="midnightblue" d="M111.925,-17C120.623,-17 129.578,-17 138.291,-17"/>
<polygon fill="midnightblue" stroke="midnightblue" points="111.861,-13.5001 101.861,-17 111.861,-20.5001 111.861,-13.5001"/>
</g>
<!-- Node3 -->
<g id="node5" class="node"><title>Node3</title>
<a xlink:href="scriptdictionary_8h.html#abf884a3f2b4b07a009c5fc055b48f901" target="_top" xlink:title="RegisterScriptDictionary">
<polygon fill="white" stroke="black" points="298.5,-6.5 298.5,-27.5 421.5,-27.5 421.5,-6.5 298.5,-6.5"/>
<text text-anchor="middle" x="360" y="-14.5" font-family="Helvetica,sans-Serif" font-size="10.00">RegisterScriptDictionary</text>
</a>
</g>
<!-- Node2&#45;&gt;Node3 -->
<g id="edge4" class="edge"><title>Node2&#45;&gt;Node3</title>
<path fill="none" stroke="midnightblue" d="M272.061,-17C280.822,-17 289.712,-17 298.304,-17"/>
<polygon fill="midnightblue" stroke="midnightblue" points="271.86,-13.5001 261.86,-17 271.86,-20.5001 271.86,-13.5001"/>
</g>
<!-- Node4 -->
<g id="node7" class="node"><title>Node4</title>
<a xlink:href="class_script_engine.html#aec64d59067a79c9fe0b88c150c901147" target="_top" xlink:title="ScriptEngine::init">
<polygon fill="white" stroke="black" points="458.5,-6.5 458.5,-27.5 549.5,-27.5 549.5,-6.5 458.5,-6.5"/>
<text text-anchor="middle" x="504" y="-14.5" font-family="Helvetica,sans-Serif" font-size="10.00">ScriptEngine::init</text>
</a>
</g>
<!-- Node3&#45;&gt;Node4 -->
<g id="edge6" class="edge"><title>Node3&#45;&gt;Node4</title>
<path fill="none" stroke="midnightblue" d="M431.969,-17C440.909,-17 449.85,-17 458.24,-17"/>
<polygon fill="midnightblue" stroke="midnightblue" points="431.905,-13.5001 421.905,-17 431.905,-20.5001 431.905,-13.5001"/>
</g>
<!-- Node5 -->
<g id="node9" class="node"><title>Node5</title>
<a xlink:href="class_script_engine.html#a05631d095d3ed370791fb2e67344da32" target="_top" xlink:title="ScriptEngine::ScriptEngine">
<polygon fill="white" stroke="black" points="586,-6.5 586,-27.5 720,-27.5 720,-6.5 586,-6.5"/>
<text text-anchor="middle" x="653" y="-14.5" font-family="Helvetica,sans-Serif" font-size="10.00">ScriptEngine::ScriptEngine</text>
</a>
</g>
<!-- Node4&#45;&gt;Node5 -->
<g id="edge8" class="edge"><title>Node4&#45;&gt;Node5</title>
<path fill="none" stroke="midnightblue" d="M559.699,-17C568.218,-17 577.087,-17 585.822,-17"/>
<polygon fill="midnightblue" stroke="midnightblue" points="559.515,-13.5001 549.515,-17 559.514,-20.5001 559.515,-13.5001"/>
</g>
</g>
</svg>
