<?xml version="1.0" encoding="UTF-8" standalone="no"?>
<!DOCTYPE svg PUBLIC "-//W3C//DTD SVG 1.1//EN"
 "http://www.w3.org/Graphics/SVG/1.1/DTD/svg11.dtd">
<!-- Generated by graphviz version 2.26.3 (20100126.1600)
 -->
<!-- Title: ScriptAnyFactory_Generic Pages: 1 -->
<svg width="742pt" height="70pt"
 viewBox="0.00 0.00 742.00 70.00" xmlns="http://www.w3.org/2000/svg" xmlns:xlink="http://www.w3.org/1999/xlink">
<g id="graph1" class="graph" transform="scale(1 1) rotate(0) translate(4 66)">
<title>ScriptAnyFactory_Generic</title>
<polygon fill="white" stroke="white" points="-4,5 -4,-66 739,-66 739,5 -4,5"/>
<!-- Node1 -->
<g id="node1" class="node"><title>Node1</title>
<polygon fill="#bfbfbf" stroke="black" points="0.5,-20.5 0.5,-41.5 131.5,-41.5 131.5,-20.5 0.5,-20.5"/>
<text text-anchor="middle" x="66" y="-28.5" font-family="Helvetica,sans-Serif" font-size="10.00">ScriptAnyFactory_Generic</text>
</g>
<!-- Node2 -->
<g id="node3" class="node"><title>Node2</title>
<a xlink:href="scriptany_8h.html#a67b5ebe9ab40569dfd2c903d1f0c1a3c" target="_top" xlink:title="RegisterScriptAny_Native">
<polygon fill="white" stroke="black" points="171,-40.5 171,-61.5 301,-61.5 301,-40.5 171,-40.5"/>
<text text-anchor="middle" x="236" y="-48.5" font-family="Helvetica,sans-Serif" font-size="10.00">RegisterScriptAny_Native</text>
</a>
</g>
<!-- Node1&#45;&gt;Node2 -->
<g id="edge2" class="edge"><title>Node1&#45;&gt;Node2</title>
<path fill="none" stroke="midnightblue" d="M141.728,-39.9092C151.403,-41.0474 161.239,-42.2046 170.728,-43.321"/>
<polygon fill="midnightblue" stroke="midnightblue" points="142.067,-36.425 131.726,-38.7325 141.249,-43.377 142.067,-36.425"/>
</g>
<!-- Node6 -->
<g id="node11" class="node"><title>Node6</title>
<a xlink:href="scriptany_8h.html#ade7875aa9250cb75598a7bfa20ca8c2d" target="_top" xlink:title="RegisterScriptAny_Generic">
<polygon fill="white" stroke="black" points="168.5,-0.5 168.5,-21.5 303.5,-21.5 303.5,-0.5 168.5,-0.5"/>
<text text-anchor="middle" x="236" y="-8.5" font-family="Helvetica,sans-Serif" font-size="10.00">RegisterScriptAny_Generic</text>
</a>
</g>
<!-- Node1&#45;&gt;Node6 -->
<g id="edge10" class="edge"><title>Node1&#45;&gt;Node6</title>
<path fill="none" stroke="midnightblue" d="M141.715,-22.0924C150.632,-21.0433 159.688,-19.9779 168.482,-18.9432"/>
<polygon fill="midnightblue" stroke="midnightblue" points="141.249,-18.623 131.726,-23.2675 142.067,-25.575 141.249,-18.623"/>
</g>
<!-- Node3 -->
<g id="node5" class="node"><title>Node3</title>
<a xlink:href="scriptany_8h.html#a13b8b1995d1ba5f1031f76ac76eea446" target="_top" xlink:title="RegisterScriptAny">
<polygon fill="white" stroke="black" points="340,-20.5 340,-41.5 436,-41.5 436,-20.5 340,-20.5"/>
<text text-anchor="middle" x="388" y="-28.5" font-family="Helvetica,sans-Serif" font-size="10.00">RegisterScriptAny</text>
</a>
</g>
<!-- Node2&#45;&gt;Node3 -->
<g id="edge4" class="edge"><title>Node2&#45;&gt;Node3</title>
<path fill="none" stroke="midnightblue" d="M311.358,-41.0845C320.998,-39.8161 330.651,-38.546 339.697,-37.3556"/>
<polygon fill="midnightblue" stroke="midnightblue" points="310.802,-37.6274 301.344,-42.4021 311.715,-44.5676 310.802,-37.6274"/>
</g>
<!-- Node4 -->
<g id="node7" class="node"><title>Node4</title>
<a xlink:href="class_script_engine.html#aec64d59067a79c9fe0b88c150c901147" target="_top" xlink:title="ScriptEngine::init">
<polygon fill="white" stroke="black" points="472.5,-20.5 472.5,-41.5 563.5,-41.5 563.5,-20.5 472.5,-20.5"/>
<text text-anchor="middle" x="518" y="-28.5" font-family="Helvetica,sans-Serif" font-size="10.00">ScriptEngine::init</text>
</a>
</g>
<!-- Node3&#45;&gt;Node4 -->
<g id="edge6" class="edge"><title>Node3&#45;&gt;Node4</title>
<path fill="none" stroke="midnightblue" d="M446.2,-31C454.955,-31 463.876,-31 472.318,-31"/>
<polygon fill="midnightblue" stroke="midnightblue" points="446.038,-27.5001 436.038,-31 446.038,-34.5001 446.038,-27.5001"/>
</g>
<!-- Node5 -->
<g id="node9" class="node"><title>Node5</title>
<a xlink:href="class_script_engine.html#a05631d095d3ed370791fb2e67344da32" target="_top" xlink:title="ScriptEngine::ScriptEngine">
<polygon fill="white" stroke="black" points="600,-20.5 600,-41.5 734,-41.5 734,-20.5 600,-20.5"/>
<text text-anchor="middle" x="667" y="-28.5" font-family="Helvetica,sans-Serif" font-size="10.00">ScriptEngine::ScriptEngine</text>
</a>
</g>
<!-- Node4&#45;&gt;Node5 -->
<g id="edge8" class="edge"><title>Node4&#45;&gt;Node5</title>
<path fill="none" stroke="midnightblue" d="M573.699,-31C582.218,-31 591.087,-31 599.822,-31"/>
<polygon fill="midnightblue" stroke="midnightblue" points="573.515,-27.5001 563.515,-31 573.514,-34.5001 573.515,-27.5001"/>
</g>
<!-- Node6&#45;&gt;Node3 -->
<g id="edge12" class="edge"><title>Node6&#45;&gt;Node3</title>
<path fill="none" stroke="midnightblue" d="M313.611,-21.2119C322.53,-22.3855 331.419,-23.5551 339.787,-24.6562"/>
<polygon fill="midnightblue" stroke="midnightblue" points="313.926,-17.7233 303.555,-19.8888 313.013,-24.6635 313.926,-17.7233"/>
</g>
</g>
</svg>
