<?xml version="1.0" encoding="UTF-8" standalone="no"?>
<!DOCTYPE svg PUBLIC "-//W3C//DTD SVG 1.1//EN"
 "http://www.w3.org/Graphics/SVG/1.1/DTD/svg11.dtd">
<!-- Generated by graphviz version 2.26.3 (20100126.1600)
 -->
<!-- Title: G Pages: 1 -->
<svg width="480pt" height="30pt"
 viewBox="0.00 0.00 480.00 30.00" xmlns="http://www.w3.org/2000/svg" xmlns:xlink="http://www.w3.org/1999/xlink">
<g id="graph1" class="graph" transform="scale(1 1) rotate(0) translate(4 26)">
<title>G</title>
<polygon fill="white" stroke="white" points="-4,5 -4,-26 477,-26 477,5 -4,5"/>
<!-- Node1 -->
<g id="node1" class="node"><title>Node1</title>
<polygon fill="#bfbfbf" stroke="black" points="0,-0.5 0,-21.5 134,-21.5 134,-0.5 0,-0.5"/>
<text text-anchor="middle" x="67" y="-8.5" font-family="Helvetica,sans-Serif" font-size="10.00">Vector3DivAssign_Generic</text>
</g>
<!-- Node2 -->
<g id="node3" class="node"><title>Node2</title>
<a xlink:href="scriptmath3d_8h.html#a49f9a179a43cdfcbdbc8989ce7e02076" target="_top" xlink:title="RegisterScriptMath3D_Generic">
<polygon fill="white" stroke="black" points="170,-0.5 170,-21.5 322,-21.5 322,-0.5 170,-0.5"/>
<text text-anchor="middle" x="246" y="-8.5" font-family="Helvetica,sans-Serif" font-size="10.00">RegisterScriptMath3D_Generic</text>
</a>
</g>
<!-- Node1&#45;&gt;Node2 -->
<g id="edge2" class="edge"><title>Node1&#45;&gt;Node2</title>
<path fill="none" stroke="midnightblue" d="M144.341,-11C152.762,-11 161.33,-11 169.738,-11"/>
<polygon fill="midnightblue" stroke="midnightblue" points="144.162,-7.5001 134.162,-11 144.162,-14.5001 144.162,-7.5001"/>
</g>
<!-- Node3 -->
<g id="node5" class="node"><title>Node3</title>
<a xlink:href="scriptmath3d_8h.html#a299c92b72ac02897678fa0e30a10b619" target="_top" xlink:title="RegisterScriptMath3D">
<polygon fill="white" stroke="black" points="358.5,-0.5 358.5,-21.5 471.5,-21.5 471.5,-0.5 358.5,-0.5"/>
<text text-anchor="middle" x="415" y="-8.5" font-family="Helvetica,sans-Serif" font-size="10.00">RegisterScriptMath3D</text>
</a>
</g>
<!-- Node2&#45;&gt;Node3 -->
<g id="edge4" class="edge"><title>Node2&#45;&gt;Node3</title>
<path fill="none" stroke="midnightblue" d="M332.117,-11C341.003,-11 349.865,-11 358.31,-11"/>
<polygon fill="midnightblue" stroke="midnightblue" points="332.095,-7.5001 322.095,-11 332.095,-14.5001 332.095,-7.5001"/>
</g>
</g>
</svg>
