<?xml version="1.0" encoding="UTF-8" standalone="no"?>
<!DOCTYPE svg PUBLIC "-//W3C//DTD SVG 1.1//EN"
 "http://www.w3.org/Graphics/SVG/1.1/DTD/svg11.dtd">
<!-- Generated by graphviz version 2.26.3 (20100126.1600)
 -->
<!-- Title: RoR::RigEditor::BaseWheelAggregateData Pages: 1 -->
<svg width="170pt" height="142pt"
 viewBox="0.00 0.00 170.00 142.00" xmlns="http://www.w3.org/2000/svg" xmlns:xlink="http://www.w3.org/1999/xlink">
<g id="graph1" class="graph" transform="scale(1 1) rotate(0) translate(4 138)">
<title>RoR::RigEditor::BaseWheelAggregateData</title>
<polygon fill="white" stroke="white" points="-4,5 -4,-138 167,-138 167,5 -4,5"/>
<!-- Node1 -->
<g id="node1" class="node"><title>Node1</title>
<polygon fill="#bfbfbf" stroke="black" points="0,-1 0,-35 140,-35 140,-1 0,-1"/>
<text text-anchor="start" x="8" y="-22" font-family="Helvetica,sans-Serif" font-size="10.00">RoR::RigEditor::BaseWheel</text>
<text text-anchor="middle" x="70" y="-9" font-family="Helvetica,sans-Serif" font-size="10.00">AggregateData</text>
</g>
<!-- Node2 -->
<g id="node2" class="node"><title>Node2</title>
<a xlink:href="class_rig_def_1_1_node_1_1_ref.html" target="_top" xlink:title="RigDef::Node::Ref">
<polygon fill="white" stroke="black" points="21,-112.5 21,-133.5 119,-133.5 119,-112.5 21,-112.5"/>
<text text-anchor="middle" x="70" y="-120.5" font-family="Helvetica,sans-Serif" font-size="10.00">RigDef::Node::Ref</text>
</a>
</g>
<!-- Node2&#45;&gt;Node1 -->
<g id="edge2" class="edge"><title>Node2&#45;&gt;Node1</title>
<path fill="none" stroke="#9a32cd" stroke-dasharray="5,2" d="M70,-102.097C70,-82.4787 70,-53.4874 70,-35.1807"/>
<polygon fill="#9a32cd" stroke="#9a32cd" points="66.5001,-102.159 70,-112.159 73.5001,-102.159 66.5001,-102.159"/>
<text text-anchor="middle" x="116" y="-84.5" font-family="Helvetica,sans-Serif" font-size="10.00"> reference_arm_node</text>
<text text-anchor="middle" x="116" y="-71.5" font-family="Helvetica,sans-Serif" font-size="10.00">rigidity_node</text>
<text text-anchor="middle" x="116" y="-58.5" font-family="Helvetica,sans-Serif" font-size="10.00">axis_nodes</text>
</g>
</g>
</svg>
