<?xml version="1.0" encoding="UTF-8" standalone="no"?>
<!DOCTYPE svg PUBLIC "-//W3C//DTD SVG 1.1//EN"
 "http://www.w3.org/Graphics/SVG/1.1/DTD/svg11.dtd">
<!-- Generated by graphviz version 2.26.3 (20100126.1600)
 -->
<!-- Title: G Pages: 1 -->
<!--zoomable 230 -->
<svg id="main" version="1.1" xmlns="http://www.w3.org/2000/svg" xmlns:xlink="http://www.w3.org/1999/xlink" xml:space="preserve" onload="init(evt)">
        <defs>
                <circle id="rim" cx="0" cy="0" r="7"/>
                <circle id="rim2" cx="0" cy="0" r="3.5"/>
                <g id="zoomPlus">
                        <use xlink:href="#rim" fill="#404040">
                                <set attributeName="fill" to="#808080" begin="zoomplus.mouseover" end="zoomplus.mouseout"/>
                        </use>
                        <path d="M-4,0h8M0,-4v8" fill="none" stroke="white" stroke-width="1.5" pointer-events="none"/>
                </g>
                <g id="zoomMin">
                        <use xlink:href="#rim" fill="#404040">
                                <set attributeName="fill" to="#808080" begin="zoomminus.mouseover" end="zoomminus.mouseout"/>
                        </use>
                        <path d="M-4,0h8" fill="none" stroke="white" stroke-width="1.5" pointer-events="none"/>
                </g>
                <g id="dirArrow">
                        <path fill="none" stroke="white" stroke-width="1.5" d="M0,-3.0v7 M-2.5,-0.5L0,-3.0L2.5,-0.5"/>
                </g>
               <g id="resetDef">
                       <use xlink:href="#rim2" fill="#404040">
                               <set attributeName="fill" to="#808080" begin="reset.mouseover" end="reset.mouseout"/>
                       </use>
               </g>
        </defs>

<script type="text/javascript">
var viewWidth = 730;
var viewHeight = 230;
var sectionId = 'dynsection-0';
</script>
<script xlink:href="svgpan.js"/>
<svg id="graph" class="graph">
<g id="viewport">
<title>G</title>
<polygon fill="white" stroke="white" points="-4,5 -4,-226 727,-226 727,5 -4,5"/>
<!-- Node1 -->
<g id="node1" class="node"><title>Node1</title>
<polygon fill="#bfbfbf" stroke="black" points="0,-100.5 0,-121.5 90,-121.5 90,-100.5 0,-100.5"/>
<text text-anchor="middle" x="45" y="-108.5" font-family="Helvetica,sans-Serif" font-size="10.00">Vector3::Vector3</text>
</g>
<!-- Node2 -->
<g id="node3" class="node"><title>Node2</title>
<a xlink:href="struct_vector3.html#a1459be31b2432377aa1b6024018f866a" target="_top" xlink:title="Vector3::get_xyz">
<polygon fill="white" stroke="black" points="126.5,-200.5 126.5,-221.5 217.5,-221.5 217.5,-200.5 126.5,-200.5"/>
<text text-anchor="middle" x="172" y="-208.5" font-family="Helvetica,sans-Serif" font-size="10.00">Vector3::get_xyz</text>
</a>
</g>
<!-- Node1&#45;&gt;Node2 -->
<g id="edge2" class="edge"><title>Node1&#45;&gt;Node2</title>
<path fill="none" stroke="midnightblue" d="M60.1139,-129.462C75.301,-147.09 100.112,-173.491 126,-191 131.194,-194.513 137.105,-197.631 142.918,-200.3"/>
<polygon fill="midnightblue" stroke="midnightblue" points="62.5939,-126.974 53.4689,-121.59 57.245,-131.489 62.5939,-126.974"/>
</g>
<!-- Node6 -->
<g id="node11" class="node"><title>Node6</title>
<a xlink:href="struct_vector3.html#ad17e69aed6f4a3fbf508bac380fa5829" target="_top" xlink:title="Vector3::get_yzx">
<polygon fill="white" stroke="black" points="126.5,-160.5 126.5,-181.5 217.5,-181.5 217.5,-160.5 126.5,-160.5"/>
<text text-anchor="middle" x="172" y="-168.5" font-family="Helvetica,sans-Serif" font-size="10.00">Vector3::get_yzx</text>
</a>
</g>
<!-- Node1&#45;&gt;Node6 -->
<g id="edge10" class="edge"><title>Node1&#45;&gt;Node6</title>
<path fill="none" stroke="midnightblue" d="M74.8074,-126.151C90.0382,-133.783 108.917,-143.074 126,-151 132.794,-154.152 140.214,-157.443 147.073,-160.425"/>
<polygon fill="midnightblue" stroke="midnightblue" points="76.3501,-123.009 65.844,-121.641 73.2036,-129.262 76.3501,-123.009"/>
</g>
<!-- Node8 -->
<g id="node16" class="node"><title>Node8</title>
<a xlink:href="struct_vector3.html#a9bacb79db9bb8060d037d6f2fa7d19dd" target="_top" xlink:title="Vector3::get_zxy">
<polygon fill="white" stroke="black" points="126.5,-120.5 126.5,-141.5 217.5,-141.5 217.5,-120.5 126.5,-120.5"/>
<text text-anchor="middle" x="172" y="-128.5" font-family="Helvetica,sans-Serif" font-size="10.00">Vector3::get_zxy</text>
</a>
</g>
<!-- Node1&#45;&gt;Node8 -->
<g id="edge16" class="edge"><title>Node1&#45;&gt;Node8</title>
<path fill="none" stroke="midnightblue" d="M100.175,-119.689C108.845,-121.054 117.726,-122.453 126.156,-123.78"/>
<polygon fill="midnightblue" stroke="midnightblue" points="100.556,-116.206 90.133,-118.108 99.4668,-123.121 100.556,-116.206"/>
</g>
<!-- Node10 -->
<g id="node21" class="node"><title>Node10</title>
<a xlink:href="struct_vector3.html#a85f05b941a901054a7a55675fddee738" target="_top" xlink:title="Vector3::get_zyx">
<polygon fill="white" stroke="black" points="126.5,-80.5 126.5,-101.5 217.5,-101.5 217.5,-80.5 126.5,-80.5"/>
<text text-anchor="middle" x="172" y="-88.5" font-family="Helvetica,sans-Serif" font-size="10.00">Vector3::get_zyx</text>
</a>
</g>
<!-- Node1&#45;&gt;Node10 -->
<g id="edge22" class="edge"><title>Node1&#45;&gt;Node10</title>
<path fill="none" stroke="midnightblue" d="M100.175,-102.311C108.845,-100.946 117.726,-99.5471 126.156,-98.2196"/>
<polygon fill="midnightblue" stroke="midnightblue" points="99.4668,-98.8793 90.133,-103.892 100.556,-105.794 99.4668,-98.8793"/>
</g>
<!-- Node12 -->
<g id="node26" class="node"><title>Node12</title>
<a xlink:href="struct_vector3.html#a48bb47bc12ce24e32457625f3c73d5d6" target="_top" xlink:title="Vector3::get_yxz">
<polygon fill="white" stroke="black" points="126.5,-40.5 126.5,-61.5 217.5,-61.5 217.5,-40.5 126.5,-40.5"/>
<text text-anchor="middle" x="172" y="-48.5" font-family="Helvetica,sans-Serif" font-size="10.00">Vector3::get_yxz</text>
</a>
</g>
<!-- Node1&#45;&gt;Node12 -->
<g id="edge28" class="edge"><title>Node1&#45;&gt;Node12</title>
<path fill="none" stroke="midnightblue" d="M74.8074,-95.849C90.0382,-88.2173 108.917,-78.9263 126,-71 132.794,-67.848 140.214,-64.5567 147.073,-61.5753"/>
<polygon fill="midnightblue" stroke="midnightblue" points="73.2036,-92.7378 65.844,-100.359 76.3501,-98.9908 73.2036,-92.7378"/>
</g>
<!-- Node14 -->
<g id="node31" class="node"><title>Node14</title>
<a xlink:href="struct_vector3.html#a9a395540ef18a5c3b28e442dccd90986" target="_top" xlink:title="Vector3::get_xzy">
<polygon fill="white" stroke="black" points="126.5,-0.5 126.5,-21.5 217.5,-21.5 217.5,-0.5 126.5,-0.5"/>
<text text-anchor="middle" x="172" y="-8.5" font-family="Helvetica,sans-Serif" font-size="10.00">Vector3::get_xzy</text>
</a>
</g>
<!-- Node1&#45;&gt;Node14 -->
<g id="edge34" class="edge"><title>Node1&#45;&gt;Node14</title>
<path fill="none" stroke="midnightblue" d="M60.1139,-92.5383C75.301,-74.91 100.112,-48.5089 126,-31 131.194,-27.4874 137.105,-24.3686 142.918,-21.7"/>
<polygon fill="midnightblue" stroke="midnightblue" points="57.245,-90.511 53.4689,-100.41 62.5939,-95.0264 57.245,-90.511"/>
</g>
<!-- Node3 -->
<g id="node5" class="node"><title>Node3</title>
<a xlink:href="scriptmath3d_8cpp.html#a54d9c2e2b768aabc023c909c4f064386" target="_top" xlink:title="Vector3_get_xyz_Generic">
<polygon fill="white" stroke="black" points="254.5,-200.5 254.5,-221.5 383.5,-221.5 383.5,-200.5 254.5,-200.5"/>
<text text-anchor="middle" x="319" y="-208.5" font-family="Helvetica,sans-Serif" font-size="10.00">Vector3_get_xyz_Generic</text>
</a>
</g>
<!-- Node2&#45;&gt;Node3 -->
<g id="edge4" class="edge"><title>Node2&#45;&gt;Node3</title>
<path fill="none" stroke="midnightblue" d="M227.746,-211C236.465,-211 245.538,-211 254.433,-211"/>
<polygon fill="midnightblue" stroke="midnightblue" points="227.706,-207.5 217.706,-211 227.706,-214.5 227.706,-207.5"/>
</g>
<!-- Node4 -->
<g id="node7" class="node"><title>Node4</title>
<a xlink:href="scriptmath3d_8h.html#a49f9a179a43cdfcbdbc8989ce7e02076" target="_top" xlink:title="RegisterScriptMath3D_Generic">
<polygon fill="white" stroke="black" points="420,-100.5 420,-121.5 572,-121.5 572,-100.5 420,-100.5"/>
<text text-anchor="middle" x="496" y="-108.5" font-family="Helvetica,sans-Serif" font-size="10.00">RegisterScriptMath3D_Generic</text>
</a>
</g>
<!-- Node3&#45;&gt;Node4 -->
<g id="edge6" class="edge"><title>Node3&#45;&gt;Node4</title>
<path fill="none" stroke="midnightblue" d="M369.782,-197.133C374.671,-195.277 379.486,-193.233 384,-191 423.624,-171.399 464.469,-138.349 484.077,-121.524"/>
<polygon fill="midnightblue" stroke="midnightblue" points="368.606,-193.837 360.346,-200.472 370.941,-200.436 368.606,-193.837"/>
</g>
<!-- Node5 -->
<g id="node9" class="node"><title>Node5</title>
<a xlink:href="scriptmath3d_8h.html#a299c92b72ac02897678fa0e30a10b619" target="_top" xlink:title="RegisterScriptMath3D">
<polygon fill="white" stroke="black" points="608.5,-100.5 608.5,-121.5 721.5,-121.5 721.5,-100.5 608.5,-100.5"/>
<text text-anchor="middle" x="665" y="-108.5" font-family="Helvetica,sans-Serif" font-size="10.00">RegisterScriptMath3D</text>
</a>
</g>
<!-- Node4&#45;&gt;Node5 -->
<g id="edge8" class="edge"><title>Node4&#45;&gt;Node5</title>
<path fill="none" stroke="midnightblue" d="M582.117,-111C591.003,-111 599.865,-111 608.31,-111"/>
<polygon fill="midnightblue" stroke="midnightblue" points="582.095,-107.5 572.095,-111 582.095,-114.5 582.095,-107.5"/>
</g>
<!-- Node7 -->
<g id="node13" class="node"><title>Node7</title>
<a xlink:href="scriptmath3d_8cpp.html#a6bf4f784ed754652f4b19d33760af6ab" target="_top" xlink:title="Vector3_get_yzx_Generic">
<polygon fill="white" stroke="black" points="254.5,-160.5 254.5,-181.5 383.5,-181.5 383.5,-160.5 254.5,-160.5"/>
<text text-anchor="middle" x="319" y="-168.5" font-family="Helvetica,sans-Serif" font-size="10.00">Vector3_get_yzx_Generic</text>
</a>
</g>
<!-- Node6&#45;&gt;Node7 -->
<g id="edge12" class="edge"><title>Node6&#45;&gt;Node7</title>
<path fill="none" stroke="midnightblue" d="M227.746,-171C236.465,-171 245.538,-171 254.433,-171"/>
<polygon fill="midnightblue" stroke="midnightblue" points="227.706,-167.5 217.706,-171 227.706,-174.5 227.706,-167.5"/>
</g>
<!-- Node7&#45;&gt;Node4 -->
<g id="edge14" class="edge"><title>Node7&#45;&gt;Node4</title>
<path fill="none" stroke="midnightblue" d="M363.916,-157.465C370.663,-155.35 377.526,-153.151 384,-151 412.608,-141.496 445.013,-129.822 467.58,-121.545"/>
<polygon fill="midnightblue" stroke="midnightblue" points="362.687,-154.182 354.174,-160.49 364.762,-160.867 362.687,-154.182"/>
</g>
<!-- Node9 -->
<g id="node18" class="node"><title>Node9</title>
<a xlink:href="scriptmath3d_8cpp.html#ad83274d2b586a02e40e76cfd88fb3fc7" target="_top" xlink:title="Vector3_get_zxy_Generic">
<polygon fill="white" stroke="black" points="254.5,-120.5 254.5,-141.5 383.5,-141.5 383.5,-120.5 254.5,-120.5"/>
<text text-anchor="middle" x="319" y="-128.5" font-family="Helvetica,sans-Serif" font-size="10.00">Vector3_get_zxy_Generic</text>
</a>
</g>
<!-- Node8&#45;&gt;Node9 -->
<g id="edge18" class="edge"><title>Node8&#45;&gt;Node9</title>
<path fill="none" stroke="midnightblue" d="M227.746,-131C236.465,-131 245.538,-131 254.433,-131"/>
<polygon fill="midnightblue" stroke="midnightblue" points="227.706,-127.5 217.706,-131 227.706,-134.5 227.706,-127.5"/>
</g>
<!-- Node9&#45;&gt;Node4 -->
<g id="edge20" class="edge"><title>Node9&#45;&gt;Node4</title>
<path fill="none" stroke="midnightblue" d="M393.691,-122.56C402.331,-121.584 411.151,-120.587 419.81,-119.609"/>
<polygon fill="midnightblue" stroke="midnightblue" points="393.196,-119.094 383.652,-123.695 393.982,-126.05 393.196,-119.094"/>
</g>
<!-- Node11 -->
<g id="node23" class="node"><title>Node11</title>
<a xlink:href="scriptmath3d_8cpp.html#a4d3f2ff06f986bbfcdbcdce3f0c72025" target="_top" xlink:title="Vector3_get_zyx_Generic">
<polygon fill="white" stroke="black" points="254.5,-80.5 254.5,-101.5 383.5,-101.5 383.5,-80.5 254.5,-80.5"/>
<text text-anchor="middle" x="319" y="-88.5" font-family="Helvetica,sans-Serif" font-size="10.00">Vector3_get_zyx_Generic</text>
</a>
</g>
<!-- Node10&#45;&gt;Node11 -->
<g id="edge24" class="edge"><title>Node10&#45;&gt;Node11</title>
<path fill="none" stroke="midnightblue" d="M227.746,-91C236.465,-91 245.538,-91 254.433,-91"/>
<polygon fill="midnightblue" stroke="midnightblue" points="227.706,-87.5001 217.706,-91 227.706,-94.5001 227.706,-87.5001"/>
</g>
<!-- Node11&#45;&gt;Node4 -->
<g id="edge26" class="edge"><title>Node11&#45;&gt;Node4</title>
<path fill="none" stroke="midnightblue" d="M393.691,-99.4397C402.331,-100.416 411.151,-101.413 419.81,-102.391"/>
<polygon fill="midnightblue" stroke="midnightblue" points="393.982,-95.9504 383.652,-98.3054 393.196,-102.906 393.982,-95.9504"/>
</g>
<!-- Node13 -->
<g id="node28" class="node"><title>Node13</title>
<a xlink:href="scriptmath3d_8cpp.html#a323bed9c02b66fd15458718205ecec5f" target="_top" xlink:title="Vector3_get_yxz_Generic">
<polygon fill="white" stroke="black" points="254.5,-40.5 254.5,-61.5 383.5,-61.5 383.5,-40.5 254.5,-40.5"/>
<text text-anchor="middle" x="319" y="-48.5" font-family="Helvetica,sans-Serif" font-size="10.00">Vector3_get_yxz_Generic</text>
</a>
</g>
<!-- Node12&#45;&gt;Node13 -->
<g id="edge30" class="edge"><title>Node12&#45;&gt;Node13</title>
<path fill="none" stroke="midnightblue" d="M227.746,-51C236.465,-51 245.538,-51 254.433,-51"/>
<polygon fill="midnightblue" stroke="midnightblue" points="227.706,-47.5001 217.706,-51 227.706,-54.5001 227.706,-47.5001"/>
</g>
<!-- Node13&#45;&gt;Node4 -->
<g id="edge32" class="edge"><title>Node13&#45;&gt;Node4</title>
<path fill="none" stroke="midnightblue" d="M363.916,-64.5346C370.663,-66.6502 377.526,-68.8491 384,-71 412.608,-80.5044 445.013,-92.1781 467.58,-100.455"/>
<polygon fill="midnightblue" stroke="midnightblue" points="364.762,-61.1325 354.174,-61.51 362.687,-67.8177 364.762,-61.1325"/>
</g>
<!-- Node15 -->
<g id="node33" class="node"><title>Node15</title>
<a xlink:href="scriptmath3d_8cpp.html#a0ff3d1ab3cd6123f8cdc102d74c755f7" target="_top" xlink:title="Vector3_get_xzy_Generic">
<polygon fill="white" stroke="black" points="254.5,-0.5 254.5,-21.5 383.5,-21.5 383.5,-0.5 254.5,-0.5"/>
<text text-anchor="middle" x="319" y="-8.5" font-family="Helvetica,sans-Serif" font-size="10.00">Vector3_get_xzy_Generic</text>
</a>
</g>
<!-- Node14&#45;&gt;Node15 -->
<g id="edge36" class="edge"><title>Node14&#45;&gt;Node15</title>
<path fill="none" stroke="midnightblue" d="M227.746,-11C236.465,-11 245.538,-11 254.433,-11"/>
<polygon fill="midnightblue" stroke="midnightblue" points="227.706,-7.5001 217.706,-11 227.706,-14.5001 227.706,-7.5001"/>
</g>
<!-- Node15&#45;&gt;Node4 -->
<g id="edge38" class="edge"><title>Node15&#45;&gt;Node4</title>
<path fill="none" stroke="midnightblue" d="M369.782,-24.8665C374.671,-26.7228 379.486,-28.7669 384,-31 423.624,-50.6006 464.469,-83.6507 484.077,-100.476"/>
<polygon fill="midnightblue" stroke="midnightblue" points="370.941,-21.5641 360.346,-21.5283 368.606,-28.1633 370.941,-21.5641"/>
</g>
</g>
</svg>
        <g id="navigator" transform="translate(0 0)" fill="#404254">
                <rect fill="#f2f5e9" fill-opacity="0.5" stroke="#606060" stroke-width=".5" x="0" y="0" width="60" height="60"/>
                <use id="zoomplus" xlink:href="#zoomPlus" x="17" y="9" onmousedown="handleZoom(evt,'in')"/>
                <use id="zoomminus" xlink:href="#zoomMin" x="42" y="9" onmousedown="handleZoom(evt,'out')"/>
                <use id="reset" xlink:href="#resetDef" x="30" y="36" onmousedown="handleReset()"/>
                <g id="arrowUp" xlink:href="#dirArrow" transform="translate(30 24)" onmousedown="handlePan(0,-1)">
                  <use xlink:href="#rim" fill="#404040">
                        <set attributeName="fill" to="#808080" begin="arrowUp.mouseover" end="arrowUp.mouseout"/>
                  </use>
                  <path fill="none" stroke="white" stroke-width="1.5" d="M0,-3.0v7 M-2.5,-0.5L0,-3.0L2.5,-0.5"/>
                </g>
                <g id="arrowRight" xlink:href="#dirArrow" transform="rotate(90) translate(36 -43)" onmousedown="handlePan(1,0)">
                  <use xlink:href="#rim" fill="#404040">
                        <set attributeName="fill" to="#808080" begin="arrowRight.mouseover" end="arrowRight.mouseout"/>
                  </use>
                  <path fill="none" stroke="white" stroke-width="1.5" d="M0,-3.0v7 M-2.5,-0.5L0,-3.0L2.5,-0.5"/>
                </g>
                <g id="arrowDown" xlink:href="#dirArrow" transform="rotate(180) translate(-30 -48)" onmousedown="handlePan(0,1)">
                  <use xlink:href="#rim" fill="#404040">
                        <set attributeName="fill" to="#808080" begin="arrowDown.mouseover" end="arrowDown.mouseout"/>
                  </use>
                  <path fill="none" stroke="white" stroke-width="1.5" d="M0,-3.0v7 M-2.5,-0.5L0,-3.0L2.5,-0.5"/>
                </g>
                <g id="arrowLeft" xlink:href="#dirArrow" transform="rotate(270) translate(-36 17)" onmousedown="handlePan(-1,0)">
                  <use xlink:href="#rim" fill="#404040">
                        <set attributeName="fill" to="#808080" begin="arrowLeft.mouseover" end="arrowLeft.mouseout"/>
                  </use>
                  <path fill="none" stroke="white" stroke-width="1.5" d="M0,-3.0v7 M-2.5,-0.5L0,-3.0L2.5,-0.5"/>
                </g>
        </g>
</svg>
