<?xml version="1.0" encoding="UTF-8" standalone="no"?>
<!DOCTYPE svg PUBLIC "-//W3C//DTD SVG 1.1//EN"
 "http://www.w3.org/Graphics/SVG/1.1/DTD/svg11.dtd">
<!-- Generated by graphviz version 2.26.3 (20100126.1600)
 -->
<!-- Title: Profiler::Timer::avgms Pages: 1 -->
<svg width="256pt" height="70pt"
 viewBox="0.00 0.00 256.00 70.00" xmlns="http://www.w3.org/2000/svg" xmlns:xlink="http://www.w3.org/1999/xlink">
<g id="graph1" class="graph" transform="scale(1 1) rotate(0) translate(4 66)">
<title>Profiler::Timer::avgms</title>
<polygon fill="white" stroke="white" points="-4,5 -4,-66 253,-66 253,5 -4,5"/>
<!-- Node1 -->
<g id="node1" class="node"><title>Node1</title>
<polygon fill="#bfbfbf" stroke="black" points="0.5,-20.5 0.5,-41.5 113.5,-41.5 113.5,-20.5 0.5,-20.5"/>
<text text-anchor="middle" x="57" y="-28.5" font-family="Helvetica,sans-Serif" font-size="10.00">Profiler::Timer::avgms</text>
</g>
<!-- Node2 -->
<g id="node3" class="node"><title>Node2</title>
<a xlink:href="struct_profiler_1_1_timer.html#a3f708cc032c2acac2b3332cdf891dfdd" target="_top" xlink:title="Profiler::Timer::ms">
<polygon fill="white" stroke="black" points="150,-40.5 150,-61.5 248,-61.5 248,-40.5 150,-40.5"/>
<text text-anchor="middle" x="199" y="-48.5" font-family="Helvetica,sans-Serif" font-size="10.00">Profiler::Timer::ms</text>
</a>
</g>
<!-- Node1&#45;&gt;Node2 -->
<g id="edge2" class="edge"><title>Node1&#45;&gt;Node2</title>
<path fill="none" stroke="midnightblue" d="M113.53,-38.962C122.202,-40.1834 131.175,-41.4472 139.901,-42.6762"/>
<polygon fill="midnightblue" stroke="midnightblue" points="139.608,-46.1693 149.998,-44.0983 140.584,-39.2378 139.608,-46.1693"/>
</g>
<!-- Node3 -->
<g id="node5" class="node"><title>Node3</title>
<a xlink:href="namespace_profiler.html#aecacc25017df092609ea749085b21aeb" target="_top" xlink:title="Profiler::average">
<polygon fill="white" stroke="black" points="155,-0.5 155,-21.5 243,-21.5 243,-0.5 155,-0.5"/>
<text text-anchor="middle" x="199" y="-8.5" font-family="Helvetica,sans-Serif" font-size="10.00">Profiler::average</text>
</a>
</g>
<!-- Node1&#45;&gt;Node3 -->
<g id="edge4" class="edge"><title>Node1&#45;&gt;Node3</title>
<path fill="none" stroke="midnightblue" d="M113.53,-23.038C123.855,-21.5838 134.607,-20.0694 144.861,-18.6253"/>
<polygon fill="midnightblue" stroke="midnightblue" points="145.5,-22.0699 154.914,-17.2093 144.523,-15.1383 145.5,-22.0699"/>
</g>
</g>
</svg>
