<?xml version="1.0" encoding="UTF-8" standalone="no"?>
<!DOCTYPE svg PUBLIC "-//W3C//DTD SVG 1.1//EN"
 "http://www.w3.org/Graphics/SVG/1.1/DTD/svg11.dtd">
<!-- Generated by graphviz version 2.26.3 (20100126.1600)
 -->
<!-- Title: RigDef::Trigger::IsTriggerBlockerAnyType Pages: 1 -->
<svg width="1074pt" height="148pt"
 viewBox="0.00 0.00 1074.00 148.00" xmlns="http://www.w3.org/2000/svg" xmlns:xlink="http://www.w3.org/1999/xlink">
<g id="graph1" class="graph" transform="scale(1 1) rotate(0) translate(4 144)">
<title>RigDef::Trigger::IsTriggerBlockerAnyType</title>
<polygon fill="white" stroke="white" points="-4,5 -4,-144 1071,-144 1071,5 -4,5"/>
<!-- Node1 -->
<g id="node1" class="node"><title>Node1</title>
<polygon fill="#bfbfbf" stroke="black" points="0,-92 0,-126 128,-126 128,-92 0,-92"/>
<text text-anchor="start" x="8" y="-113" font-family="Helvetica,sans-Serif" font-size="10.00">RigDef::Trigger::IsTrigger</text>
<text text-anchor="middle" x="64" y="-100" font-family="Helvetica,sans-Serif" font-size="10.00">BlockerAnyType</text>
</g>
<!-- Node2 -->
<g id="node3" class="node"><title>Node2</title>
<a xlink:href="class_rig_spawner.html#a647a78efc082c2d22d7fd6de5fbfad2d" target="_top" xlink:title="RigSpawner::ProcessTrigger">
<polygon fill="white" stroke="black" points="168,-118.5 168,-139.5 310,-139.5 310,-118.5 168,-118.5"/>
<text text-anchor="middle" x="239" y="-126.5" font-family="Helvetica,sans-Serif" font-size="10.00">RigSpawner::ProcessTrigger</text>
</a>
</g>
<!-- Node1&#45;&gt;Node2 -->
<g id="edge2" class="edge"><title>Node1&#45;&gt;Node2</title>
<path fill="none" stroke="midnightblue" d="M138.253,-117.486C148.027,-118.603 158.027,-119.746 167.75,-120.857"/>
<polygon fill="midnightblue" stroke="midnightblue" points="138.503,-113.992 128.17,-116.334 137.708,-120.947 138.503,-113.992"/>
</g>
<!-- Node4 -->
<g id="node7" class="node"><title>Node4</title>
<a xlink:href="class_rig_def_1_1_parser.html#a250e1c8e47a6bdf7547fcfef37a68f10" target="_top" xlink:title="RigDef::Parser::ParseTriggers">
<polygon fill="white" stroke="black" points="164.5,-78.5 164.5,-99.5 313.5,-99.5 313.5,-78.5 164.5,-78.5"/>
<text text-anchor="middle" x="239" y="-86.5" font-family="Helvetica,sans-Serif" font-size="10.00">RigDef::Parser::ParseTriggers</text>
</a>
</g>
<!-- Node1&#45;&gt;Node4 -->
<g id="edge6" class="edge"><title>Node1&#45;&gt;Node4</title>
<path fill="none" stroke="midnightblue" d="M138.253,-100.514C146.93,-99.5223 155.784,-98.5104 164.465,-97.5183"/>
<polygon fill="midnightblue" stroke="midnightblue" points="137.708,-97.0534 128.17,-101.666 138.503,-104.008 137.708,-97.0534"/>
</g>
<!-- Node3 -->
<g id="node5" class="node"><title>Node3</title>
<a xlink:href="class_rig_spawner.html#a67da85dd09bd864df9dc924f6f2a7d49" target="_top" xlink:title="RigSpawner::SpawnRig">
<polygon fill="white" stroke="black" points="355.5,-118.5 355.5,-139.5 476.5,-139.5 476.5,-118.5 355.5,-118.5"/>
<text text-anchor="middle" x="416" y="-126.5" font-family="Helvetica,sans-Serif" font-size="10.00">RigSpawner::SpawnRig</text>
</a>
</g>
<!-- Node2&#45;&gt;Node3 -->
<g id="edge4" class="edge"><title>Node2&#45;&gt;Node3</title>
<path fill="none" stroke="midnightblue" d="M320.498,-129C332.257,-129 344.183,-129 355.437,-129"/>
<polygon fill="midnightblue" stroke="midnightblue" points="320.228,-125.5 310.228,-129 320.228,-132.5 320.228,-125.5"/>
</g>
<!-- Node5 -->
<g id="node9" class="node"><title>Node5</title>
<a xlink:href="class_rig_def_1_1_parser.html#a572673469cf88cdebbd30e04df5629ff" target="_top" xlink:title="RigDef::Parser::ParseLine">
<polygon fill="white" stroke="black" points="350.5,-78.5 350.5,-99.5 481.5,-99.5 481.5,-78.5 350.5,-78.5"/>
<text text-anchor="middle" x="416" y="-86.5" font-family="Helvetica,sans-Serif" font-size="10.00">RigDef::Parser::ParseLine</text>
</a>
</g>
<!-- Node4&#45;&gt;Node5 -->
<g id="edge8" class="edge"><title>Node4&#45;&gt;Node5</title>
<path fill="none" stroke="midnightblue" d="M323.61,-89C332.557,-89 341.558,-89 350.244,-89"/>
<polygon fill="midnightblue" stroke="midnightblue" points="323.551,-85.5001 313.551,-89 323.551,-92.5001 323.551,-85.5001"/>
</g>
<!-- Node6 -->
<g id="node11" class="node"><title>Node6</title>
<a xlink:href="class_beam.html#a866f7eb5e93d6c476fa1bd0a4b7dcdf5" target="_top" xlink:title="Beam::LoadTruck">
<polygon fill="white" stroke="black" points="552,-118.5 552,-139.5 646,-139.5 646,-118.5 552,-118.5"/>
<text text-anchor="middle" x="599" y="-126.5" font-family="Helvetica,sans-Serif" font-size="10.00">Beam::LoadTruck</text>
</a>
</g>
<!-- Node5&#45;&gt;Node6 -->
<g id="edge10" class="edge"><title>Node5&#45;&gt;Node6</title>
<path fill="none" stroke="midnightblue" d="M473.863,-101.648C499.003,-107.143 528.079,-113.498 551.873,-118.699"/>
<polygon fill="midnightblue" stroke="midnightblue" points="474.598,-98.2257 464.081,-99.5095 473.103,-105.064 474.598,-98.2257"/>
</g>
<!-- Node8 -->
<g id="node15" class="node"><title>Node8</title>
<a xlink:href="class_cache_system.html#ad640fd28c3075eb6310d8d8f3475cefb" target="_top" xlink:title="CacheSystem::fillTruckDetailInfo">
<polygon fill="white" stroke="black" points="518.5,-78.5 518.5,-99.5 679.5,-99.5 679.5,-78.5 518.5,-78.5"/>
<text text-anchor="middle" x="599" y="-86.5" font-family="Helvetica,sans-Serif" font-size="10.00">CacheSystem::fillTruckDetailInfo</text>
</a>
</g>
<!-- Node5&#45;&gt;Node8 -->
<g id="edge14" class="edge"><title>Node5&#45;&gt;Node8</title>
<path fill="none" stroke="midnightblue" d="M491.72,-89C500.477,-89 509.434,-89 518.255,-89"/>
<polygon fill="midnightblue" stroke="midnightblue" points="491.55,-85.5001 481.55,-89 491.55,-92.5001 491.55,-85.5001"/>
</g>
<!-- Node9 -->
<g id="node17" class="node"><title>Node9</title>
<a xlink:href="class_ro_r_1_1_rig_editor_1_1_main.html#a0ae39993d636eacc5dfe567c5f5ac4b9" target="_top" xlink:title="RoR::RigEditor::Main\l::LoadRigDefFile">
<polygon fill="white" stroke="black" points="544,-26 544,-60 654,-60 654,-26 544,-26"/>
<text text-anchor="start" x="552" y="-47" font-family="Helvetica,sans-Serif" font-size="10.00">RoR::RigEditor::Main</text>
<text text-anchor="middle" x="599" y="-34" font-family="Helvetica,sans-Serif" font-size="10.00">::LoadRigDefFile</text>
</a>
</g>
<!-- Node5&#45;&gt;Node9 -->
<g id="edge16" class="edge"><title>Node5&#45;&gt;Node9</title>
<path fill="none" stroke="midnightblue" d="M467.838,-75.9696C491.517,-70.0176 519.59,-62.9611 543.676,-56.9066"/>
<polygon fill="midnightblue" stroke="midnightblue" points="466.829,-72.6144 457.984,-78.4467 468.535,-79.4032 466.829,-72.6144"/>
</g>
<!-- Node7 -->
<g id="node13" class="node"><title>Node7</title>
<a xlink:href="class_beam.html#ac3b331240d6084f4a5116f6c862b65ad" target="_top" xlink:title="Beam::Beam">
<polygon fill="white" stroke="black" points="743,-118.5 743,-139.5 817,-139.5 817,-118.5 743,-118.5"/>
<text text-anchor="middle" x="780" y="-126.5" font-family="Helvetica,sans-Serif" font-size="10.00">Beam::Beam</text>
</a>
</g>
<!-- Node6&#45;&gt;Node7 -->
<g id="edge12" class="edge"><title>Node6&#45;&gt;Node7</title>
<path fill="none" stroke="midnightblue" d="M656.259,-129C684.567,-129 717.914,-129 742.853,-129"/>
<polygon fill="midnightblue" stroke="midnightblue" points="656.083,-125.5 646.083,-129 656.083,-132.5 656.083,-125.5"/>
</g>
<!-- Node10 -->
<g id="node19" class="node"><title>Node10</title>
<a xlink:href="class_ro_r_1_1_rig_editor_1_1_main.html#a35a10d6c23920802442d32fab1a8d470" target="_top" xlink:title="RoR::RigEditor::Main\l::NotifyFileSelectorEnded">
<polygon fill="white" stroke="black" points="716,-26 716,-60 844,-60 844,-26 716,-26"/>
<text text-anchor="start" x="724" y="-47" font-family="Helvetica,sans-Serif" font-size="10.00">RoR::RigEditor::Main</text>
<text text-anchor="middle" x="780" y="-34" font-family="Helvetica,sans-Serif" font-size="10.00">::NotifyFileSelectorEnded</text>
</a>
</g>
<!-- Node9&#45;&gt;Node10 -->
<g id="edge18" class="edge"><title>Node9&#45;&gt;Node10</title>
<path fill="none" stroke="midnightblue" d="M664.519,-43C681.24,-43 699.196,-43 715.848,-43"/>
<polygon fill="midnightblue" stroke="midnightblue" points="664.289,-39.5001 654.289,-43 664.289,-46.5001 664.289,-39.5001"/>
</g>
<!-- Node11 -->
<g id="node21" class="node"><title>Node11</title>
<a xlink:href="class_ro_r_1_1_rig_editor_1_1_main.html#a4f73e9dc5632524ca803864460b82bb5" target="_top" xlink:title="RoR::RigEditor::Main\l::CommandShowDialogOpenRigFile">
<polygon fill="white" stroke="black" points="886,-52 886,-86 1060,-86 1060,-52 886,-52"/>
<text text-anchor="start" x="894" y="-73" font-family="Helvetica,sans-Serif" font-size="10.00">RoR::RigEditor::Main</text>
<text text-anchor="middle" x="973" y="-60" font-family="Helvetica,sans-Serif" font-size="10.00">::CommandShowDialogOpenRigFile</text>
</a>
</g>
<!-- Node10&#45;&gt;Node11 -->
<g id="edge20" class="edge"><title>Node10&#45;&gt;Node11</title>
<path fill="none" stroke="midnightblue" d="M854.456,-53.0303C864.783,-54.4216 875.466,-55.8607 885.997,-57.2794"/>
<polygon fill="midnightblue" stroke="midnightblue" points="854.644,-49.5241 844.266,-51.6576 853.709,-56.4615 854.644,-49.5241"/>
</g>
<!-- Node12 -->
<g id="node23" class="node"><title>Node12</title>
<a xlink:href="class_ro_r_1_1_rig_editor_1_1_main.html#acb4af1361d9233f5ee2fa658536a7658" target="_top" xlink:title="RoR::RigEditor::Main\l::CommandShowDialogSaveRigFileAs">
<polygon fill="white" stroke="black" points="880.5,-0 880.5,-34 1065.5,-34 1065.5,-0 880.5,-0"/>
<text text-anchor="start" x="888.5" y="-21" font-family="Helvetica,sans-Serif" font-size="10.00">RoR::RigEditor::Main</text>
<text text-anchor="middle" x="973" y="-8" font-family="Helvetica,sans-Serif" font-size="10.00">::CommandShowDialogSaveRigFileAs</text>
</a>
</g>
<!-- Node10&#45;&gt;Node12 -->
<g id="edge22" class="edge"><title>Node10&#45;&gt;Node12</title>
<path fill="none" stroke="midnightblue" d="M854.223,-33.001C862.818,-31.8432 871.662,-30.6518 880.461,-29.4663"/>
<polygon fill="midnightblue" stroke="midnightblue" points="853.709,-29.5385 844.266,-34.3424 854.644,-36.4759 853.709,-29.5385"/>
</g>
</g>
</svg>
