<?xml version="1.0" encoding="UTF-8" standalone="no"?>
<!DOCTYPE svg PUBLIC "-//W3C//DTD SVG 1.1//EN"
 "http://www.w3.org/Graphics/SVG/1.1/DTD/svg11.dtd">
<!-- Generated by graphviz version 2.26.3 (20100126.1600)
 -->
<!-- Title: Profiler::Timer::Unpause Pages: 1 -->
<svg width="288pt" height="48pt"
 viewBox="0.00 0.00 288.00 48.00" xmlns="http://www.w3.org/2000/svg" xmlns:xlink="http://www.w3.org/1999/xlink">
<g id="graph1" class="graph" transform="scale(1 1) rotate(0) translate(4 44)">
<title>Profiler::Timer::Unpause</title>
<polygon fill="white" stroke="white" points="-4,5 -4,-44 285,-44 285,5 -4,5"/>
<!-- Node1 -->
<g id="node1" class="node"><title>Node1</title>
<polygon fill="#bfbfbf" stroke="black" points="0.5,-0.5 0.5,-21.5 123.5,-21.5 123.5,-0.5 0.5,-0.5"/>
<text text-anchor="middle" x="62" y="-8.5" font-family="Helvetica,sans-Serif" font-size="10.00">Profiler::Timer::Unpause</text>
</g>
<!-- Node1&#45;&gt;Node1 -->
<g id="edge2" class="edge"><title>Node1&#45;&gt;Node1</title>
<path fill="none" stroke="midnightblue" d="M36.8954,-21.7079C26.167,-30.6531 34.5352,-40 62,-40 79.5947,-40 89.3521,-36.164 91.2722,-31.0551"/>
<polygon fill="midnightblue" stroke="midnightblue" points="94.3735,-29.4159 87.1046,-21.7079 87.9802,-32.2665 94.3735,-29.4159"/>
</g>
<!-- Node2 -->
<g id="node4" class="node"><title>Node2</title>
<a xlink:href="struct_profiler_1_1_timer.html#ae56708deb9e2a771cd6f064ceb293106" target="_top" xlink:title="Profiler::Timer::getticks">
<polygon fill="white" stroke="black" points="160.5,-0.5 160.5,-21.5 279.5,-21.5 279.5,-0.5 160.5,-0.5"/>
<text text-anchor="middle" x="220" y="-8.5" font-family="Helvetica,sans-Serif" font-size="10.00">Profiler::Timer::getticks</text>
</a>
</g>
<!-- Node1&#45;&gt;Node2 -->
<g id="edge4" class="edge"><title>Node1&#45;&gt;Node2</title>
<path fill="none" stroke="midnightblue" d="M123.539,-11C132.353,-11 141.472,-11 150.427,-11"/>
<polygon fill="midnightblue" stroke="midnightblue" points="150.443,-14.5001 160.443,-11 150.443,-7.5001 150.443,-14.5001"/>
</g>
</g>
</svg>
