<?xml version="1.0" encoding="UTF-8" standalone="no"?>
<!DOCTYPE svg PUBLIC "-//W3C//DTD SVG 1.1//EN"
 "http://www.w3.org/Graphics/SVG/1.1/DTD/svg11.dtd">
<!-- Generated by graphviz version 2.26.3 (20100126.1600)
 -->
<!-- Title: G Pages: 1 -->
<svg width="444pt" height="30pt"
 viewBox="0.00 0.00 444.00 30.00" xmlns="http://www.w3.org/2000/svg" xmlns:xlink="http://www.w3.org/1999/xlink">
<g id="graph1" class="graph" transform="scale(1 1) rotate(0) translate(4 26)">
<title>G</title>
<polygon fill="white" stroke="white" points="-4,5 -4,-26 441,-26 441,5 -4,5"/>
<!-- Node1 -->
<g id="node1" class="node"><title>Node1</title>
<polygon fill="#bfbfbf" stroke="black" points="0,-0.5 0,-21.5 138,-21.5 138,-0.5 0,-0.5"/>
<text text-anchor="middle" x="69" y="-8.5" font-family="Helvetica,sans-Serif" font-size="10.00">ScopedTimer::ScopedTimer</text>
</g>
<!-- Node2 -->
<g id="node3" class="node"><title>Node2</title>
<a xlink:href="struct_profiler_1_1_timer.html#ad729d7ded76b8830b3e497c5692cab93" target="_top" xlink:title="Profiler::Timer::Start">
<polygon fill="white" stroke="black" points="174.5,-0.5 174.5,-21.5 279.5,-21.5 279.5,-0.5 174.5,-0.5"/>
<text text-anchor="middle" x="227" y="-8.5" font-family="Helvetica,sans-Serif" font-size="10.00">Profiler::Timer::Start</text>
</a>
</g>
<!-- Node1&#45;&gt;Node2 -->
<g id="edge2" class="edge"><title>Node1&#45;&gt;Node2</title>
<path fill="none" stroke="midnightblue" d="M138.301,-11C146.907,-11 155.67,-11 164.171,-11"/>
<polygon fill="midnightblue" stroke="midnightblue" points="164.383,-14.5001 174.383,-11 164.383,-7.5001 164.383,-14.5001"/>
</g>
<!-- Node3 -->
<g id="node5" class="node"><title>Node3</title>
<a xlink:href="struct_profiler_1_1_timer.html#ae56708deb9e2a771cd6f064ceb293106" target="_top" xlink:title="Profiler::Timer::getticks">
<polygon fill="white" stroke="black" points="316.5,-0.5 316.5,-21.5 435.5,-21.5 435.5,-0.5 316.5,-0.5"/>
<text text-anchor="middle" x="376" y="-8.5" font-family="Helvetica,sans-Serif" font-size="10.00">Profiler::Timer::getticks</text>
</a>
</g>
<!-- Node2&#45;&gt;Node3 -->
<g id="edge4" class="edge"><title>Node2&#45;&gt;Node3</title>
<path fill="none" stroke="midnightblue" d="M279.532,-11C288.176,-11 297.254,-11 306.239,-11"/>
<polygon fill="midnightblue" stroke="midnightblue" points="306.317,-14.5001 316.317,-11 306.316,-7.5001 306.317,-14.5001"/>
</g>
</g>
</svg>
