<?xml version="1.0" encoding="UTF-8" standalone="no"?>
<!DOCTYPE svg PUBLIC "-//W3C//DTD SVG 1.1//EN"
 "http://www.w3.org/Graphics/SVG/1.1/DTD/svg11.dtd">
<!-- Generated by graphviz version 2.26.3 (20100126.1600)
 -->
<!-- Title: G Pages: 1 -->
<!--zoomable 790 -->
<svg id="main" version="1.1" xmlns="http://www.w3.org/2000/svg" xmlns:xlink="http://www.w3.org/1999/xlink" xml:space="preserve" onload="init(evt)">
        <defs>
                <circle id="rim" cx="0" cy="0" r="7"/>
                <circle id="rim2" cx="0" cy="0" r="3.5"/>
                <g id="zoomPlus">
                        <use xlink:href="#rim" fill="#404040">
                                <set attributeName="fill" to="#808080" begin="zoomplus.mouseover" end="zoomplus.mouseout"/>
                        </use>
                        <path d="M-4,0h8M0,-4v8" fill="none" stroke="white" stroke-width="1.5" pointer-events="none"/>
                </g>
                <g id="zoomMin">
                        <use xlink:href="#rim" fill="#404040">
                                <set attributeName="fill" to="#808080" begin="zoomminus.mouseover" end="zoomminus.mouseout"/>
                        </use>
                        <path d="M-4,0h8" fill="none" stroke="white" stroke-width="1.5" pointer-events="none"/>
                </g>
                <g id="dirArrow">
                        <path fill="none" stroke="white" stroke-width="1.5" d="M0,-3.0v7 M-2.5,-0.5L0,-3.0L2.5,-0.5"/>
                </g>
               <g id="resetDef">
                       <use xlink:href="#rim2" fill="#404040">
                               <set attributeName="fill" to="#808080" begin="reset.mouseover" end="reset.mouseout"/>
                       </use>
               </g>
        </defs>

<script type="text/javascript">
var viewWidth = 700;
var viewHeight = 790;
var sectionId = 'dynsection-13';
</script>
<script xlink:href="svgpan.js"/>
<svg id="graph" class="graph">
<g id="viewport">
<title>G</title>
<polygon fill="white" stroke="white" points="-4,5 -4,-786 697,-786 697,5 -4,5"/>
<!-- Node1 -->
<g id="node1" class="node"><title>Node1</title>
<polygon fill="#bfbfbf" stroke="black" points="0.5,-380.5 0.5,-401.5 83.5,-401.5 83.5,-380.5 0.5,-380.5"/>
<text text-anchor="middle" x="42" y="-388.5" font-family="Helvetica,sans-Serif" font-size="10.00">Vector3::length</text>
</g>
<!-- Node2 -->
<g id="node3" class="node"><title>Node2</title>
<a xlink:href="scriptmath3d_8cpp.html#a562a5eb9f4c6ea7842fb67558343a979" target="_top" xlink:title="Vector3Length_Generic">
<polygon fill="white" stroke="black" points="153.5,-760.5 153.5,-781.5 272.5,-781.5 272.5,-760.5 153.5,-760.5"/>
<text text-anchor="middle" x="213" y="-768.5" font-family="Helvetica,sans-Serif" font-size="10.00">Vector3Length_Generic</text>
</a>
</g>
<!-- Node1&#45;&gt;Node2 -->
<g id="edge2" class="edge"><title>Node1&#45;&gt;Node2</title>
<path fill="none" stroke="midnightblue" d="M43.6154,-411.978C49.395,-481.46 71.3448,-702.42 120,-751 128.999,-759.985 140.998,-765.374 153.378,-768.518"/>
<polygon fill="midnightblue" stroke="midnightblue" points="47.0903,-411.525 42.7987,-401.838 40.1129,-412.087 47.0903,-411.525"/>
</g>
<!-- Node5 -->
<g id="node9" class="node"><title>Node5</title>
<a xlink:href="class_autopilot.html#a0430386d6b9ea546f642c316ba116606" target="_top" xlink:title="Autopilot::getRadioFix">
<polygon fill="white" stroke="black" points="156.5,-720.5 156.5,-741.5 269.5,-741.5 269.5,-720.5 156.5,-720.5"/>
<text text-anchor="middle" x="213" y="-728.5" font-family="Helvetica,sans-Serif" font-size="10.00">Autopilot::getRadioFix</text>
</a>
</g>
<!-- Node1&#45;&gt;Node5 -->
<g id="edge8" class="edge"><title>Node1&#45;&gt;Node5</title>
<path fill="none" stroke="midnightblue" d="M44.1962,-411.702C51.4045,-475.698 76.4108,-668.583 120,-711 129.824,-720.56 143.053,-726.023 156.448,-729.041"/>
<polygon fill="midnightblue" stroke="midnightblue" points="47.6608,-411.188 43.0901,-401.63 40.7026,-411.952 47.6608,-411.188"/>
</g>
<!-- Node6 -->
<g id="node11" class="node"><title>Node6</title>
<a xlink:href="class_camera_behavior_vehicle_spline.html#ae30aef518419478d4c3ad73879eae6cd" target="_top" xlink:title="CameraBehaviorVehicleSpline::update">
<polygon fill="white" stroke="black" points="121,-680.5 121,-701.5 305,-701.5 305,-680.5 121,-680.5"/>
<text text-anchor="middle" x="213" y="-688.5" font-family="Helvetica,sans-Serif" font-size="10.00">CameraBehaviorVehicleSpline::update</text>
</a>
</g>
<!-- Node1&#45;&gt;Node6 -->
<g id="edge10" class="edge"><title>Node1&#45;&gt;Node6</title>
<path fill="none" stroke="midnightblue" d="M44.973,-411.745C53.7756,-470.266 81.5156,-634.753 120,-671 123.967,-674.737 128.457,-677.842 133.269,-680.417"/>
<polygon fill="midnightblue" stroke="midnightblue" points="48.3873,-410.906 43.4674,-401.523 41.462,-411.926 48.3873,-410.906"/>
</g>
<!-- Node7 -->
<g id="node13" class="node"><title>Node7</title>
<a xlink:href="class_dust_pool.html#ab389d5a299b29f30bad7a6952a2b10ab" target="_top" xlink:title="DustPool::allocSparks">
<polygon fill="white" stroke="black" points="156,-640.5 156,-661.5 270,-661.5 270,-640.5 156,-640.5"/>
<text text-anchor="middle" x="213" y="-648.5" font-family="Helvetica,sans-Serif" font-size="10.00">DustPool::allocSparks</text>
</a>
</g>
<!-- Node1&#45;&gt;Node7 -->
<g id="edge12" class="edge"><title>Node1&#45;&gt;Node7</title>
<path fill="none" stroke="midnightblue" d="M45.9521,-411.538C56.4488,-463.974 86.5228,-600.787 120,-631 129.931,-639.963 142.888,-645.256 155.962,-648.304"/>
<polygon fill="midnightblue" stroke="midnightblue" points="49.3807,-410.834 44.0151,-401.699 42.5125,-412.186 49.3807,-410.834"/>
</g>
<!-- Node8 -->
<g id="node15" class="node"><title>Node8</title>
<a xlink:href="class_dust_pool.html#a76dc87c352994ef7a3a9ff1af95f9201" target="_top" xlink:title="DustPool::update">
<polygon fill="white" stroke="black" points="167,-600.5 167,-621.5 259,-621.5 259,-600.5 167,-600.5"/>
<text text-anchor="middle" x="213" y="-608.5" font-family="Helvetica,sans-Serif" font-size="10.00">DustPool::update</text>
</a>
</g>
<!-- Node1&#45;&gt;Node8 -->
<g id="edge14" class="edge"><title>Node1&#45;&gt;Node8</title>
<path fill="none" stroke="midnightblue" d="M43.7723,-411.821C48.4249,-452.788 64.7541,-543.956 120,-591 132.951,-602.028 150.535,-607.42 166.928,-609.925"/>
<polygon fill="midnightblue" stroke="midnightblue" points="47.2349,-411.274 42.747,-401.676 40.2703,-411.978 47.2349,-411.274"/>
</g>
<!-- Node9 -->
<g id="node17" class="node"><title>Node9</title>
<a xlink:href="class_airbrake.html#a251b70d3eb747ece151aeed49d252733" target="_top" xlink:title="Airbrake::applyForce">
<polygon fill="white" stroke="black" points="159.5,-560.5 159.5,-581.5 266.5,-581.5 266.5,-560.5 159.5,-560.5"/>
<text text-anchor="middle" x="213" y="-568.5" font-family="Helvetica,sans-Serif" font-size="10.00">Airbrake::applyForce</text>
</a>
</g>
<!-- Node1&#45;&gt;Node9 -->
<g id="edge16" class="edge"><title>Node1&#45;&gt;Node9</title>
<path fill="none" stroke="midnightblue" d="M45.9445,-411.458C53.7059,-445.909 74.3409,-515.232 120,-551 131.181,-559.759 145.345,-564.89 159.226,-567.842"/>
<polygon fill="midnightblue" stroke="midnightblue" points="49.3505,-410.647 43.8615,-401.585 42.5013,-412.092 49.3505,-410.647"/>
</g>
<!-- Node10 -->
<g id="node19" class="node"><title>Node10</title>
<a xlink:href="class_turboprop.html#a75b8a550ba405d5f99f52fd79e4534b3" target="_top" xlink:title="Turboprop::updateForces">
<polygon fill="white" stroke="black" points="150.5,-520.5 150.5,-541.5 275.5,-541.5 275.5,-520.5 150.5,-520.5"/>
<text text-anchor="middle" x="213" y="-528.5" font-family="Helvetica,sans-Serif" font-size="10.00">Turboprop::updateForces</text>
</a>
</g>
<!-- Node1&#45;&gt;Node10 -->
<g id="edge18" class="edge"><title>Node1&#45;&gt;Node10</title>
<path fill="none" stroke="midnightblue" d="M49.4333,-411.304C60.4736,-438.474 83.8688,-486.115 120,-511 128.977,-517.183 139.506,-521.507 150.191,-524.52"/>
<polygon fill="midnightblue" stroke="midnightblue" points="52.5732,-409.721 45.689,-401.668 46.0484,-412.257 52.5732,-409.721"/>
</g>
<!-- Node11 -->
<g id="node21" class="node"><title>Node11</title>
<a xlink:href="class_beam.html#a896d4c6db3a6a630353cfef781f04b10" target="_top" xlink:title="Beam::updateFlares">
<polygon fill="white" stroke="black" points="161,-480.5 161,-501.5 265,-501.5 265,-480.5 161,-480.5"/>
<text text-anchor="middle" x="213" y="-488.5" font-family="Helvetica,sans-Serif" font-size="10.00">Beam::updateFlares</text>
</a>
</g>
<!-- Node1&#45;&gt;Node11 -->
<g id="edge20" class="edge"><title>Node1&#45;&gt;Node11</title>
<path fill="none" stroke="midnightblue" d="M55.261,-410.033C69.205,-428.543 92.8632,-456.001 120,-471 132.43,-477.871 147.005,-482.382 160.879,-485.344"/>
<polygon fill="midnightblue" stroke="midnightblue" points="57.9452,-407.773 49.2235,-401.758 52.2905,-411.899 57.9452,-407.773"/>
</g>
<!-- Node16 -->
<g id="node31" class="node"><title>Node16</title>
<a xlink:href="class_beam.html#a4b831f16e858e2df6131f84d8e0b593e" target="_top" xlink:title="Beam::updateLabels">
<polygon fill="white" stroke="black" points="160,-440.5 160,-461.5 266,-461.5 266,-440.5 160,-440.5"/>
<text text-anchor="middle" x="213" y="-448.5" font-family="Helvetica,sans-Serif" font-size="10.00">Beam::updateLabels</text>
</a>
</g>
<!-- Node1&#45;&gt;Node16 -->
<g id="edge30" class="edge"><title>Node1&#45;&gt;Node16</title>
<path fill="none" stroke="midnightblue" d="M68.4074,-406.741C83.1625,-414.967 102.129,-424.621 120,-431 132.599,-435.497 146.535,-439.15 159.702,-442.044"/>
<polygon fill="midnightblue" stroke="midnightblue" points="69.7941,-403.503 59.3732,-401.591 66.3272,-409.584 69.7941,-403.503"/>
</g>
<!-- Node17 -->
<g id="node34" class="node"><title>Node17</title>
<a xlink:href="class_beam.html#ad56a124df39b9d8a2f681849906dbb7b" target="_top" xlink:title="Beam::navigateTo">
<polygon fill="white" stroke="black" points="165,-400.5 165,-421.5 261,-421.5 261,-400.5 165,-400.5"/>
<text text-anchor="middle" x="213" y="-408.5" font-family="Helvetica,sans-Serif" font-size="10.00">Beam::navigateTo</text>
</a>
</g>
<!-- Node1&#45;&gt;Node17 -->
<g id="edge34" class="edge"><title>Node1&#45;&gt;Node17</title>
<path fill="none" stroke="midnightblue" d="M93.9197,-397.072C116.508,-399.714 142.814,-402.791 164.947,-405.38"/>
<polygon fill="midnightblue" stroke="midnightblue" points="94.1702,-393.578 83.8313,-395.893 93.357,-400.531 94.1702,-393.578"/>
</g>
<!-- Node18 -->
<g id="node36" class="node"><title>Node18</title>
<a xlink:href="class_beam.html#ade4ffe1ab119440e6b0f6a8181f0c021" target="_top" xlink:title="Beam::updateDashBoards">
<polygon fill="white" stroke="black" points="147.5,-360.5 147.5,-381.5 278.5,-381.5 278.5,-360.5 147.5,-360.5"/>
<text text-anchor="middle" x="213" y="-368.5" font-family="Helvetica,sans-Serif" font-size="10.00">Beam::updateDashBoards</text>
</a>
</g>
<!-- Node1&#45;&gt;Node18 -->
<g id="edge36" class="edge"><title>Node1&#45;&gt;Node18</title>
<path fill="none" stroke="midnightblue" d="M93.9936,-384.919C110.787,-382.955 129.628,-380.751 147.28,-378.687"/>
<polygon fill="midnightblue" stroke="midnightblue" points="93.357,-381.469 83.8313,-386.107 94.1702,-388.422 93.357,-381.469"/>
</g>
<!-- Node19 -->
<g id="node38" class="node"><title>Node19</title>
<a xlink:href="class_beam.html#ad256fc99aa2ef3f2e34d1968762362ae" target="_top" xlink:title="Beam::calcFuseDrag">
<polygon fill="white" stroke="black" points="158.5,-320.5 158.5,-341.5 267.5,-341.5 267.5,-320.5 158.5,-320.5"/>
<text text-anchor="middle" x="213" y="-328.5" font-family="Helvetica,sans-Serif" font-size="10.00">Beam::calcFuseDrag</text>
</a>
</g>
<!-- Node1&#45;&gt;Node19 -->
<g id="edge38" class="edge"><title>Node1&#45;&gt;Node19</title>
<path fill="none" stroke="midnightblue" d="M68.4074,-375.259C83.1625,-367.033 102.129,-357.379 120,-351 132.132,-346.67 145.505,-343.121 158.236,-340.281"/>
<polygon fill="midnightblue" stroke="midnightblue" points="66.3272,-372.416 59.3732,-380.409 69.7941,-378.497 66.3272,-372.416"/>
</g>
<!-- Node20 -->
<g id="node40" class="node"><title>Node20</title>
<a xlink:href="class_beam.html#a7c5a8085b41f7422ba4bca24846e5eb0" target="_top" xlink:title="Beam::calcWheels">
<polygon fill="white" stroke="black" points="163.5,-280.5 163.5,-301.5 262.5,-301.5 262.5,-280.5 163.5,-280.5"/>
<text text-anchor="middle" x="213" y="-288.5" font-family="Helvetica,sans-Serif" font-size="10.00">Beam::calcWheels</text>
</a>
</g>
<!-- Node1&#45;&gt;Node20 -->
<g id="edge40" class="edge"><title>Node1&#45;&gt;Node20</title>
<path fill="none" stroke="midnightblue" d="M55.261,-371.967C69.205,-353.457 92.8632,-325.999 120,-311 133.153,-303.73 148.706,-299.101 163.292,-296.155"/>
<polygon fill="midnightblue" stroke="midnightblue" points="52.2905,-370.101 49.2235,-380.242 57.9452,-374.227 52.2905,-370.101"/>
</g>
<!-- Node21 -->
<g id="node42" class="node"><title>Node21</title>
<a xlink:href="class_beam.html#a7318cf1edaeb8e749a88e5bdc7d6cee4" target="_top" xlink:title="Beam::calcCommands">
<polygon fill="white" stroke="black" points="155,-240.5 155,-261.5 271,-261.5 271,-240.5 155,-240.5"/>
<text text-anchor="middle" x="213" y="-248.5" font-family="Helvetica,sans-Serif" font-size="10.00">Beam::calcCommands</text>
</a>
</g>
<!-- Node1&#45;&gt;Node21 -->
<g id="edge42" class="edge"><title>Node1&#45;&gt;Node21</title>
<path fill="none" stroke="midnightblue" d="M49.4333,-370.696C60.4736,-343.526 83.8688,-295.885 120,-271 130.201,-263.974 142.407,-259.349 154.568,-256.32"/>
<polygon fill="midnightblue" stroke="midnightblue" points="46.0484,-369.743 45.689,-380.332 52.5732,-372.279 46.0484,-369.743"/>
</g>
<!-- Node22 -->
<g id="node44" class="node"><title>Node22</title>
<a xlink:href="class_collisions.html#a7d672022c769ed5db3ea6aaf08117212" target="_top" xlink:title="Collisions::nodeCollision">
<polygon fill="white" stroke="black" points="151,-200.5 151,-221.5 275,-221.5 275,-200.5 151,-200.5"/>
<text text-anchor="middle" x="213" y="-208.5" font-family="Helvetica,sans-Serif" font-size="10.00">Collisions::nodeCollision</text>
</a>
</g>
<!-- Node1&#45;&gt;Node22 -->
<g id="edge44" class="edge"><title>Node1&#45;&gt;Node22</title>
<path fill="none" stroke="midnightblue" d="M45.9445,-370.542C53.7059,-336.091 74.3409,-266.768 120,-231 128.971,-223.973 139.862,-219.281 150.986,-216.176"/>
<polygon fill="midnightblue" stroke="midnightblue" points="42.5013,-369.908 43.8615,-380.415 49.3505,-371.353 42.5013,-369.908"/>
</g>
<!-- Node24 -->
<g id="node48" class="node"><title>Node24</title>
<a xlink:href="class_flex_airfoil.html#ab22acddd047ec2aa2d35c4b3bbd92642" target="_top" xlink:title="FlexAirfoil::updateForces">
<polygon fill="white" stroke="black" points="150.5,-160.5 150.5,-181.5 275.5,-181.5 275.5,-160.5 150.5,-160.5"/>
<text text-anchor="middle" x="213" y="-168.5" font-family="Helvetica,sans-Serif" font-size="10.00">FlexAirfoil::updateForces</text>
</a>
</g>
<!-- Node1&#45;&gt;Node24 -->
<g id="edge48" class="edge"><title>Node1&#45;&gt;Node24</title>
<path fill="none" stroke="midnightblue" d="M43.7723,-370.179C48.4249,-329.212 64.7541,-238.044 120,-191 128.55,-183.719 139.12,-178.895 150.033,-175.736"/>
<polygon fill="midnightblue" stroke="midnightblue" points="40.2703,-370.022 42.747,-380.324 47.2349,-370.726 40.2703,-370.022"/>
</g>
<!-- Node25 -->
<g id="node50" class="node"><title>Node25</title>
<a xlink:href="class_flex_obj.html#a92d59f68f826a717783fcdd5c3548819" target="_top" xlink:title="FlexObj::FlexObj">
<polygon fill="white" stroke="black" points="168,-120.5 168,-141.5 258,-141.5 258,-120.5 168,-120.5"/>
<text text-anchor="middle" x="213" y="-128.5" font-family="Helvetica,sans-Serif" font-size="10.00">FlexObj::FlexObj</text>
</a>
</g>
<!-- Node1&#45;&gt;Node25 -->
<g id="edge50" class="edge"><title>Node1&#45;&gt;Node25</title>
<path fill="none" stroke="midnightblue" d="M45.9521,-370.462C56.4488,-318.026 86.5228,-181.213 120,-151 132.873,-139.382 150.832,-133.93 167.538,-131.54"/>
<polygon fill="midnightblue" stroke="midnightblue" points="42.5125,-369.814 44.0151,-380.301 49.3807,-371.166 42.5125,-369.814"/>
</g>
<!-- Node26 -->
<g id="node52" class="node"><title>Node26</title>
<a xlink:href="class_flex_obj.html#a5f290cb0c00f483c0fc094476a9939fc" target="_top" xlink:title="FlexObj::updateVertices">
<polygon fill="white" stroke="black" points="152,-80.5 152,-101.5 274,-101.5 274,-80.5 152,-80.5"/>
<text text-anchor="middle" x="213" y="-88.5" font-family="Helvetica,sans-Serif" font-size="10.00">FlexObj::updateVertices</text>
</a>
</g>
<!-- Node1&#45;&gt;Node26 -->
<g id="edge52" class="edge"><title>Node1&#45;&gt;Node26</title>
<path fill="none" stroke="midnightblue" d="M44.973,-370.255C53.7756,-311.734 81.5156,-147.247 120,-111 128.776,-102.734 140.109,-97.556 151.828,-94.377"/>
<polygon fill="midnightblue" stroke="midnightblue" points="41.462,-370.074 43.4674,-380.477 48.3873,-371.094 41.462,-370.074"/>
</g>
<!-- Node27 -->
<g id="node54" class="node"><title>Node27</title>
<a xlink:href="class_flex_obj.html#a82bf6c23a4efef7632f26b13b7acce30" target="_top" xlink:title="FlexObj::updateShadowVertices">
<polygon fill="white" stroke="black" points="134.5,-40.5 134.5,-61.5 291.5,-61.5 291.5,-40.5 134.5,-40.5"/>
<text text-anchor="middle" x="213" y="-48.5" font-family="Helvetica,sans-Serif" font-size="10.00">FlexObj::updateShadowVertices</text>
</a>
</g>
<!-- Node1&#45;&gt;Node27 -->
<g id="edge54" class="edge"><title>Node1&#45;&gt;Node27</title>
<path fill="none" stroke="midnightblue" d="M44.1962,-370.298C51.4045,-306.302 76.4108,-113.417 120,-71 124.261,-66.8537 129.163,-63.478 134.441,-60.7382"/>
<polygon fill="midnightblue" stroke="midnightblue" points="40.7026,-370.048 43.0901,-380.37 47.6608,-370.812 40.7026,-370.048"/>
</g>
<!-- Node28 -->
<g id="node56" class="node"><title>Node28</title>
<a xlink:href="class_buoyance.html#a9871040a44dc3738d024e39b2b34b364" target="_top" xlink:title="Buoyance::computePressureForceSub">
<polygon fill="white" stroke="black" points="120.5,-0.5 120.5,-21.5 305.5,-21.5 305.5,-0.5 120.5,-0.5"/>
<text text-anchor="middle" x="213" y="-8.5" font-family="Helvetica,sans-Serif" font-size="10.00">Buoyance::computePressureForceSub</text>
</a>
</g>
<!-- Node1&#45;&gt;Node28 -->
<g id="edge56" class="edge"><title>Node1&#45;&gt;Node28</title>
<path fill="none" stroke="midnightblue" d="M43.6154,-370.022C49.395,-300.54 71.3448,-79.5802 120,-31 123.74,-27.266 127.998,-24.1529 132.586,-21.564"/>
<polygon fill="midnightblue" stroke="midnightblue" points="40.1129,-369.913 42.7987,-380.162 47.0903,-370.475 40.1129,-369.913"/>
</g>
<!-- Node3 -->
<g id="node5" class="node"><title>Node3</title>
<a xlink:href="scriptmath3d_8h.html#a49f9a179a43cdfcbdbc8989ce7e02076" target="_top" xlink:title="RegisterScriptMath3D_Generic">
<polygon fill="white" stroke="black" points="342,-760.5 342,-781.5 494,-781.5 494,-760.5 342,-760.5"/>
<text text-anchor="middle" x="418" y="-768.5" font-family="Helvetica,sans-Serif" font-size="10.00">RegisterScriptMath3D_Generic</text>
</a>
</g>
<!-- Node2&#45;&gt;Node3 -->
<g id="edge4" class="edge"><title>Node2&#45;&gt;Node3</title>
<path fill="none" stroke="midnightblue" d="M282.656,-771C301.7,-771 322.436,-771 341.823,-771"/>
<polygon fill="midnightblue" stroke="midnightblue" points="282.57,-767.5 272.57,-771 282.57,-774.5 282.57,-767.5"/>
</g>
<!-- Node4 -->
<g id="node7" class="node"><title>Node4</title>
<a xlink:href="scriptmath3d_8h.html#a299c92b72ac02897678fa0e30a10b619" target="_top" xlink:title="RegisterScriptMath3D">
<polygon fill="white" stroke="black" points="554.5,-760.5 554.5,-781.5 667.5,-781.5 667.5,-760.5 554.5,-760.5"/>
<text text-anchor="middle" x="611" y="-768.5" font-family="Helvetica,sans-Serif" font-size="10.00">RegisterScriptMath3D</text>
</a>
</g>
<!-- Node3&#45;&gt;Node4 -->
<g id="edge6" class="edge"><title>Node3&#45;&gt;Node4</title>
<path fill="none" stroke="midnightblue" d="M504.003,-771C521.104,-771 538.65,-771 554.458,-771"/>
<polygon fill="midnightblue" stroke="midnightblue" points="504.002,-767.5 494.002,-771 504.002,-774.5 504.002,-767.5"/>
</g>
<!-- Node12 -->
<g id="node23" class="node"><title>Node12</title>
<a xlink:href="class_beam.html#ac3b331240d6084f4a5116f6c862b65ad" target="_top" xlink:title="Beam::Beam">
<polygon fill="white" stroke="black" points="381,-480.5 381,-501.5 455,-501.5 455,-480.5 381,-480.5"/>
<text text-anchor="middle" x="418" y="-488.5" font-family="Helvetica,sans-Serif" font-size="10.00">Beam::Beam</text>
</a>
</g>
<!-- Node11&#45;&gt;Node12 -->
<g id="edge22" class="edge"><title>Node11&#45;&gt;Node12</title>
<path fill="none" stroke="midnightblue" d="M275.672,-491C310.021,-491 351.436,-491 380.713,-491"/>
<polygon fill="midnightblue" stroke="midnightblue" points="275.261,-487.5 265.261,-491 275.261,-494.5 275.261,-487.5"/>
</g>
<!-- Node13 -->
<g id="node25" class="node"><title>Node13</title>
<a xlink:href="class_beam_factory.html#aa51137347e36bdae6315a62534ddc9f1" target="_top" xlink:title="BeamFactory::updateVisual">
<polygon fill="white" stroke="black" points="349.5,-440.5 349.5,-461.5 486.5,-461.5 486.5,-440.5 349.5,-440.5"/>
<text text-anchor="middle" x="418" y="-448.5" font-family="Helvetica,sans-Serif" font-size="10.00">BeamFactory::updateVisual</text>
</a>
</g>
<!-- Node11&#45;&gt;Node13 -->
<g id="edge24" class="edge"><title>Node11&#45;&gt;Node13</title>
<path fill="none" stroke="midnightblue" d="M275.445,-478.816C303.734,-473.296 336.855,-466.833 364.048,-461.527"/>
<polygon fill="midnightblue" stroke="midnightblue" points="274.405,-475.452 265.261,-480.803 275.746,-482.323 274.405,-475.452"/>
</g>
<!-- Node14 -->
<g id="node27" class="node"><title>Node14</title>
<a xlink:href="class_ro_r_frame_listener.html#acd8647e188fb8e838689492965b86faf" target="_top" xlink:title="RoRFrameListener::frameStarted">
<polygon fill="white" stroke="black" points="530.5,-460.5 530.5,-481.5 691.5,-481.5 691.5,-460.5 530.5,-460.5"/>
<text text-anchor="middle" x="611" y="-468.5" font-family="Helvetica,sans-Serif" font-size="10.00">RoRFrameListener::frameStarted</text>
</a>
</g>
<!-- Node13&#45;&gt;Node14 -->
<g id="edge26" class="edge"><title>Node13&#45;&gt;Node14</title>
<path fill="none" stroke="midnightblue" d="M496.695,-459.155C507.82,-460.308 519.273,-461.495 530.433,-462.651"/>
<polygon fill="midnightblue" stroke="midnightblue" points="496.896,-455.657 486.588,-458.108 496.174,-462.62 496.896,-455.657"/>
</g>
<!-- Node15 -->
<g id="node29" class="node"><title>Node15</title>
<a xlink:href="class_preview_renderer.html#a5ea6b4611b45965e072266211dc60ba8" target="_top" xlink:title="PreviewRenderer::render">
<polygon fill="white" stroke="black" points="548.5,-420.5 548.5,-441.5 673.5,-441.5 673.5,-420.5 548.5,-420.5"/>
<text text-anchor="middle" x="611" y="-428.5" font-family="Helvetica,sans-Serif" font-size="10.00">PreviewRenderer::render</text>
</a>
</g>
<!-- Node13&#45;&gt;Node15 -->
<g id="edge28" class="edge"><title>Node13&#45;&gt;Node15</title>
<path fill="none" stroke="midnightblue" d="M496.633,-442.852C513.878,-441.064 531.911,-439.196 548.426,-437.484"/>
<polygon fill="midnightblue" stroke="midnightblue" points="496.174,-439.38 486.588,-443.892 496.896,-446.343 496.174,-439.38"/>
</g>
<!-- Node16&#45;&gt;Node13 -->
<g id="edge32" class="edge"><title>Node16&#45;&gt;Node13</title>
<path fill="none" stroke="midnightblue" d="M276.123,-451C299.305,-451 325.655,-451 349.303,-451"/>
<polygon fill="midnightblue" stroke="midnightblue" points="276.059,-447.5 266.059,-451 276.059,-454.5 276.059,-447.5"/>
</g>
<!-- Node23 -->
<g id="node46" class="node"><title>Node23</title>
<a xlink:href="class_beam.html#a406010888acacc4e279c04312d386d2c" target="_top" xlink:title="Beam::calcNodes">
<polygon fill="white" stroke="black" points="370.5,-200.5 370.5,-221.5 465.5,-221.5 465.5,-200.5 370.5,-200.5"/>
<text text-anchor="middle" x="418" y="-208.5" font-family="Helvetica,sans-Serif" font-size="10.00">Beam::calcNodes</text>
</a>
</g>
<!-- Node22&#45;&gt;Node23 -->
<g id="edge46" class="edge"><title>Node22&#45;&gt;Node23</title>
<path fill="none" stroke="midnightblue" d="M285.305,-211C313.566,-211 345.189,-211 370.474,-211"/>
<polygon fill="midnightblue" stroke="midnightblue" points="285.063,-207.5 275.063,-211 285.063,-214.5 285.063,-207.5"/>
</g>
</g>
</svg>
        <g id="navigator" transform="translate(0 0)" fill="#404254">
                <rect fill="#f2f5e9" fill-opacity="0.5" stroke="#606060" stroke-width=".5" x="0" y="0" width="60" height="60"/>
                <use id="zoomplus" xlink:href="#zoomPlus" x="17" y="9" onmousedown="handleZoom(evt,'in')"/>
                <use id="zoomminus" xlink:href="#zoomMin" x="42" y="9" onmousedown="handleZoom(evt,'out')"/>
                <use id="reset" xlink:href="#resetDef" x="30" y="36" onmousedown="handleReset()"/>
                <g id="arrowUp" xlink:href="#dirArrow" transform="translate(30 24)" onmousedown="handlePan(0,-1)">
                  <use xlink:href="#rim" fill="#404040">
                        <set attributeName="fill" to="#808080" begin="arrowUp.mouseover" end="arrowUp.mouseout"/>
                  </use>
                  <path fill="none" stroke="white" stroke-width="1.5" d="M0,-3.0v7 M-2.5,-0.5L0,-3.0L2.5,-0.5"/>
                </g>
                <g id="arrowRight" xlink:href="#dirArrow" transform="rotate(90) translate(36 -43)" onmousedown="handlePan(1,0)">
                  <use xlink:href="#rim" fill="#404040">
                        <set attributeName="fill" to="#808080" begin="arrowRight.mouseover" end="arrowRight.mouseout"/>
                  </use>
                  <path fill="none" stroke="white" stroke-width="1.5" d="M0,-3.0v7 M-2.5,-0.5L0,-3.0L2.5,-0.5"/>
                </g>
                <g id="arrowDown" xlink:href="#dirArrow" transform="rotate(180) translate(-30 -48)" onmousedown="handlePan(0,1)">
                  <use xlink:href="#rim" fill="#404040">
                        <set attributeName="fill" to="#808080" begin="arrowDown.mouseover" end="arrowDown.mouseout"/>
                  </use>
                  <path fill="none" stroke="white" stroke-width="1.5" d="M0,-3.0v7 M-2.5,-0.5L0,-3.0L2.5,-0.5"/>
                </g>
                <g id="arrowLeft" xlink:href="#dirArrow" transform="rotate(270) translate(-36 17)" onmousedown="handlePan(-1,0)">
                  <use xlink:href="#rim" fill="#404040">
                        <set attributeName="fill" to="#808080" begin="arrowLeft.mouseover" end="arrowLeft.mouseout"/>
                  </use>
                  <path fill="none" stroke="white" stroke-width="1.5" d="M0,-3.0v7 M-2.5,-0.5L0,-3.0L2.5,-0.5"/>
                </g>
        </g>
</svg>
