<?xml version="1.0" encoding="UTF-8" standalone="no"?>
<!DOCTYPE svg PUBLIC "-//W3C//DTD SVG 1.1//EN"
 "http://www.w3.org/Graphics/SVG/1.1/DTD/svg11.dtd">
<!-- Generated by graphviz version 2.26.3 (20100126.1600)
 -->
<!-- Title: RoR::FlexBodyCacheData Pages: 1 -->
<svg width="228pt" height="102pt"
 viewBox="0.00 0.00 228.00 102.00" xmlns="http://www.w3.org/2000/svg" xmlns:xlink="http://www.w3.org/1999/xlink">
<g id="graph1" class="graph" transform="scale(1 1) rotate(0) translate(4 98)">
<title>RoR::FlexBodyCacheData</title>
<polygon fill="white" stroke="white" points="-4,5 -4,-98 225,-98 225,5 -4,5"/>
<!-- Node1 -->
<g id="node1" class="node"><title>Node1</title>
<polygon fill="#bfbfbf" stroke="black" points="65,-0.5 65,-21.5 199,-21.5 199,-0.5 65,-0.5"/>
<text text-anchor="middle" x="132" y="-8.5" font-family="Helvetica,sans-Serif" font-size="10.00">RoR::FlexBodyCacheData</text>
</g>
<!-- Node2 -->
<g id="node2" class="node"><title>Node2</title>
<a xlink:href="struct_ro_r_1_1_flex_body_record_header.html" target="_top" xlink:title="RoR::FlexBodyRecordHeader">
<polygon fill="white" stroke="black" points="-0.5,-72.5 -0.5,-93.5 146.5,-93.5 146.5,-72.5 -0.5,-72.5"/>
<text text-anchor="middle" x="73" y="-80.5" font-family="Helvetica,sans-Serif" font-size="10.00">RoR::FlexBodyRecordHeader</text>
</a>
</g>
<!-- Node2&#45;&gt;Node1 -->
<g id="edge2" class="edge"><title>Node2&#45;&gt;Node1</title>
<path fill="none" stroke="#9a32cd" stroke-dasharray="5,2" d="M88.0908,-64.5841C99.2316,-50.9886 114.007,-32.9579 123.259,-21.6674"/>
<polygon fill="#9a32cd" stroke="#9a32cd" points="85.3367,-62.423 81.7057,-72.3762 90.7511,-66.8597 85.3367,-62.423"/>
<text text-anchor="middle" x="124.5" y="-44.5" font-family="Helvetica,sans-Serif" font-size="10.00"> header</text>
</g>
<!-- Node3 -->
<g id="node4" class="node"><title>Node3</title>
<a xlink:href="struct_locator__t.html" target="_top" xlink:title="Locator_t">
<polygon fill="white" stroke="black" points="163.5,-72.5 163.5,-93.5 220.5,-93.5 220.5,-72.5 163.5,-72.5"/>
<text text-anchor="middle" x="192" y="-80.5" font-family="Helvetica,sans-Serif" font-size="10.00">Locator_t</text>
</a>
</g>
<!-- Node3&#45;&gt;Node1 -->
<g id="edge4" class="edge"><title>Node3&#45;&gt;Node1</title>
<path fill="none" stroke="#9a32cd" stroke-dasharray="5,2" d="M176.653,-64.5841C165.324,-50.9886 150.298,-32.9579 140.89,-21.6674"/>
<polygon fill="#9a32cd" stroke="#9a32cd" points="174.056,-66.9346 183.147,-72.3762 179.434,-62.4533 174.056,-66.9346"/>
<text text-anchor="middle" x="186" y="-44.5" font-family="Helvetica,sans-Serif" font-size="10.00"> locators</text>
</g>
</g>
</svg>
