<?xml version="1.0" encoding="UTF-8" standalone="no"?>
<!DOCTYPE svg PUBLIC "-//W3C//DTD SVG 1.1//EN"
 "http://www.w3.org/Graphics/SVG/1.1/DTD/svg11.dtd">
<!-- Generated by graphviz version 2.26.3 (20100126.1600)
 -->
<!-- Title: G Pages: 1 -->
<svg width="154pt" height="248pt"
 viewBox="0.00 0.00 154.00 248.00" xmlns="http://www.w3.org/2000/svg" xmlns:xlink="http://www.w3.org/1999/xlink">
<g id="graph1" class="graph" transform="scale(1 1) rotate(0) translate(4 244)">
<title>G</title>
<polygon fill="white" stroke="white" points="-4,5 -4,-244 151,-244 151,5 -4,5"/>
<!-- Node1 -->
<g id="node1" class="node"><title>Node1</title>
<polygon fill="#bfbfbf" stroke="black" points="11,-0.5 11,-21.5 97,-21.5 97,-0.5 11,-0.5"/>
<text text-anchor="middle" x="54" y="-8.5" font-family="Helvetica,sans-Serif" font-size="10.00">RigDef::Wheel2</text>
</g>
<!-- Node2 -->
<g id="node2" class="node"><title>Node2</title>
<a xlink:href="struct_rig_def_1_1_base_wheel2.html" target="_top" xlink:title="RigDef::BaseWheel2">
<polygon fill="white" stroke="black" points="-0.5,-60.5 -0.5,-81.5 108.5,-81.5 108.5,-60.5 -0.5,-60.5"/>
<text text-anchor="middle" x="54" y="-68.5" font-family="Helvetica,sans-Serif" font-size="10.00">RigDef::BaseWheel2</text>
</a>
</g>
<!-- Node2&#45;&gt;Node1 -->
<g id="edge2" class="edge"><title>Node2&#45;&gt;Node1</title>
<path fill="none" stroke="midnightblue" d="M54,-50.2312C54,-40.5922 54,-29.5444 54,-21.6339"/>
<polygon fill="midnightblue" stroke="midnightblue" points="50.5001,-50.2732 54,-60.2732 57.5001,-50.2732 50.5001,-50.2732"/>
</g>
<!-- Node3 -->
<g id="node4" class="node"><title>Node3</title>
<a xlink:href="struct_rig_def_1_1_base_wheel.html" target="_top" xlink:title="RigDef::BaseWheel">
<polygon fill="white" stroke="black" points="2,-120.5 2,-141.5 106,-141.5 106,-120.5 2,-120.5"/>
<text text-anchor="middle" x="54" y="-128.5" font-family="Helvetica,sans-Serif" font-size="10.00">RigDef::BaseWheel</text>
</a>
</g>
<!-- Node3&#45;&gt;Node2 -->
<g id="edge4" class="edge"><title>Node3&#45;&gt;Node2</title>
<path fill="none" stroke="midnightblue" d="M54,-110.231C54,-100.592 54,-89.5444 54,-81.6339"/>
<polygon fill="midnightblue" stroke="midnightblue" points="50.5001,-110.273 54,-120.273 57.5001,-110.273 50.5001,-110.273"/>
</g>
<!-- Node4 -->
<g id="node6" class="node"><title>Node4</title>
<a xlink:href="class_rig_def_1_1_node_1_1_ref.html" target="_top" xlink:title="RigDef::Node::Ref">
<polygon fill="white" stroke="black" points="5,-218.5 5,-239.5 103,-239.5 103,-218.5 5,-218.5"/>
<text text-anchor="middle" x="54" y="-226.5" font-family="Helvetica,sans-Serif" font-size="10.00">RigDef::Node::Ref</text>
</a>
</g>
<!-- Node4&#45;&gt;Node3 -->
<g id="edge6" class="edge"><title>Node4&#45;&gt;Node3</title>
<path fill="none" stroke="#9a32cd" stroke-dasharray="5,2" d="M54,-207.957C54,-187.557 54,-157.443 54,-141.613"/>
<polygon fill="#9a32cd" stroke="#9a32cd" points="50.5001,-208.138 54,-218.138 57.5001,-208.138 50.5001,-208.138"/>
<text text-anchor="middle" x="100" y="-190.5" font-family="Helvetica,sans-Serif" font-size="10.00"> reference_arm_node</text>
<text text-anchor="middle" x="100" y="-177.5" font-family="Helvetica,sans-Serif" font-size="10.00">rigidity_node</text>
<text text-anchor="middle" x="100" y="-164.5" font-family="Helvetica,sans-Serif" font-size="10.00">nodes</text>
</g>
</g>
</svg>
