<?xml version="1.0" encoding="UTF-8" standalone="no"?>
<!DOCTYPE svg PUBLIC "-//W3C//DTD SVG 1.1//EN"
 "http://www.w3.org/Graphics/SVG/1.1/DTD/svg11.dtd">
<!-- Generated by graphviz version 2.26.3 (20100126.1600)
 -->
<!-- Title: RigDef::Trigger::SetCommandKeyTrigger Pages: 1 -->
<svg width="1096pt" height="148pt"
 viewBox="0.00 0.00 1096.00 148.00" xmlns="http://www.w3.org/2000/svg" xmlns:xlink="http://www.w3.org/1999/xlink">
<g id="graph1" class="graph" transform="scale(1 1) rotate(0) translate(4 144)">
<title>RigDef::Trigger::SetCommandKeyTrigger</title>
<polygon fill="white" stroke="white" points="-4,5 -4,-144 1093,-144 1093,5 -4,5"/>
<!-- Node1 -->
<g id="node1" class="node"><title>Node1</title>
<polygon fill="#bfbfbf" stroke="black" points="0.5,-72 0.5,-106 149.5,-106 149.5,-72 0.5,-72"/>
<text text-anchor="start" x="8.5" y="-93" font-family="Helvetica,sans-Serif" font-size="10.00">RigDef::Trigger::SetCommand</text>
<text text-anchor="middle" x="75" y="-80" font-family="Helvetica,sans-Serif" font-size="10.00">KeyTrigger</text>
</g>
<!-- Node2 -->
<g id="node3" class="node"><title>Node2</title>
<a xlink:href="class_rig_def_1_1_parser.html#a250e1c8e47a6bdf7547fcfef37a68f10" target="_top" xlink:title="RigDef::Parser::ParseTriggers">
<polygon fill="white" stroke="black" points="186.5,-78.5 186.5,-99.5 335.5,-99.5 335.5,-78.5 186.5,-78.5"/>
<text text-anchor="middle" x="261" y="-86.5" font-family="Helvetica,sans-Serif" font-size="10.00">RigDef::Parser::ParseTriggers</text>
</a>
</g>
<!-- Node1&#45;&gt;Node2 -->
<g id="edge2" class="edge"><title>Node1&#45;&gt;Node2</title>
<path fill="none" stroke="midnightblue" d="M159.61,-89C168.548,-89 177.59,-89 186.402,-89"/>
<polygon fill="midnightblue" stroke="midnightblue" points="159.582,-85.5001 149.582,-89 159.582,-92.5001 159.582,-85.5001"/>
</g>
<!-- Node3 -->
<g id="node5" class="node"><title>Node3</title>
<a xlink:href="class_rig_def_1_1_parser.html#a572673469cf88cdebbd30e04df5629ff" target="_top" xlink:title="RigDef::Parser::ParseLine">
<polygon fill="white" stroke="black" points="372.5,-78.5 372.5,-99.5 503.5,-99.5 503.5,-78.5 372.5,-78.5"/>
<text text-anchor="middle" x="438" y="-86.5" font-family="Helvetica,sans-Serif" font-size="10.00">RigDef::Parser::ParseLine</text>
</a>
</g>
<!-- Node2&#45;&gt;Node3 -->
<g id="edge4" class="edge"><title>Node2&#45;&gt;Node3</title>
<path fill="none" stroke="midnightblue" d="M345.61,-89C354.557,-89 363.558,-89 372.244,-89"/>
<polygon fill="midnightblue" stroke="midnightblue" points="345.551,-85.5001 335.551,-89 345.551,-92.5001 345.551,-85.5001"/>
</g>
<!-- Node4 -->
<g id="node7" class="node"><title>Node4</title>
<a xlink:href="class_beam.html#a866f7eb5e93d6c476fa1bd0a4b7dcdf5" target="_top" xlink:title="Beam::LoadTruck">
<polygon fill="white" stroke="black" points="574,-118.5 574,-139.5 668,-139.5 668,-118.5 574,-118.5"/>
<text text-anchor="middle" x="621" y="-126.5" font-family="Helvetica,sans-Serif" font-size="10.00">Beam::LoadTruck</text>
</a>
</g>
<!-- Node3&#45;&gt;Node4 -->
<g id="edge6" class="edge"><title>Node3&#45;&gt;Node4</title>
<path fill="none" stroke="midnightblue" d="M495.863,-101.648C521.003,-107.143 550.079,-113.498 573.873,-118.699"/>
<polygon fill="midnightblue" stroke="midnightblue" points="496.598,-98.2257 486.081,-99.5095 495.103,-105.064 496.598,-98.2257"/>
</g>
<!-- Node6 -->
<g id="node11" class="node"><title>Node6</title>
<a xlink:href="class_cache_system.html#ad640fd28c3075eb6310d8d8f3475cefb" target="_top" xlink:title="CacheSystem::fillTruckDetailInfo">
<polygon fill="white" stroke="black" points="540.5,-78.5 540.5,-99.5 701.5,-99.5 701.5,-78.5 540.5,-78.5"/>
<text text-anchor="middle" x="621" y="-86.5" font-family="Helvetica,sans-Serif" font-size="10.00">CacheSystem::fillTruckDetailInfo</text>
</a>
</g>
<!-- Node3&#45;&gt;Node6 -->
<g id="edge10" class="edge"><title>Node3&#45;&gt;Node6</title>
<path fill="none" stroke="midnightblue" d="M513.72,-89C522.477,-89 531.434,-89 540.255,-89"/>
<polygon fill="midnightblue" stroke="midnightblue" points="513.55,-85.5001 503.55,-89 513.55,-92.5001 513.55,-85.5001"/>
</g>
<!-- Node7 -->
<g id="node13" class="node"><title>Node7</title>
<a xlink:href="class_ro_r_1_1_rig_editor_1_1_main.html#a0ae39993d636eacc5dfe567c5f5ac4b9" target="_top" xlink:title="RoR::RigEditor::Main\l::LoadRigDefFile">
<polygon fill="white" stroke="black" points="566,-26 566,-60 676,-60 676,-26 566,-26"/>
<text text-anchor="start" x="574" y="-47" font-family="Helvetica,sans-Serif" font-size="10.00">RoR::RigEditor::Main</text>
<text text-anchor="middle" x="621" y="-34" font-family="Helvetica,sans-Serif" font-size="10.00">::LoadRigDefFile</text>
</a>
</g>
<!-- Node3&#45;&gt;Node7 -->
<g id="edge12" class="edge"><title>Node3&#45;&gt;Node7</title>
<path fill="none" stroke="midnightblue" d="M489.838,-75.9696C513.517,-70.0176 541.59,-62.9611 565.676,-56.9066"/>
<polygon fill="midnightblue" stroke="midnightblue" points="488.829,-72.6144 479.984,-78.4467 490.535,-79.4032 488.829,-72.6144"/>
</g>
<!-- Node5 -->
<g id="node9" class="node"><title>Node5</title>
<a xlink:href="class_beam.html#ac3b331240d6084f4a5116f6c862b65ad" target="_top" xlink:title="Beam::Beam">
<polygon fill="white" stroke="black" points="765,-118.5 765,-139.5 839,-139.5 839,-118.5 765,-118.5"/>
<text text-anchor="middle" x="802" y="-126.5" font-family="Helvetica,sans-Serif" font-size="10.00">Beam::Beam</text>
</a>
</g>
<!-- Node4&#45;&gt;Node5 -->
<g id="edge8" class="edge"><title>Node4&#45;&gt;Node5</title>
<path fill="none" stroke="midnightblue" d="M678.259,-129C706.567,-129 739.914,-129 764.853,-129"/>
<polygon fill="midnightblue" stroke="midnightblue" points="678.083,-125.5 668.083,-129 678.083,-132.5 678.083,-125.5"/>
</g>
<!-- Node8 -->
<g id="node15" class="node"><title>Node8</title>
<a xlink:href="class_ro_r_1_1_rig_editor_1_1_main.html#a35a10d6c23920802442d32fab1a8d470" target="_top" xlink:title="RoR::RigEditor::Main\l::NotifyFileSelectorEnded">
<polygon fill="white" stroke="black" points="738,-26 738,-60 866,-60 866,-26 738,-26"/>
<text text-anchor="start" x="746" y="-47" font-family="Helvetica,sans-Serif" font-size="10.00">RoR::RigEditor::Main</text>
<text text-anchor="middle" x="802" y="-34" font-family="Helvetica,sans-Serif" font-size="10.00">::NotifyFileSelectorEnded</text>
</a>
</g>
<!-- Node7&#45;&gt;Node8 -->
<g id="edge14" class="edge"><title>Node7&#45;&gt;Node8</title>
<path fill="none" stroke="midnightblue" d="M686.519,-43C703.24,-43 721.196,-43 737.848,-43"/>
<polygon fill="midnightblue" stroke="midnightblue" points="686.289,-39.5001 676.289,-43 686.289,-46.5001 686.289,-39.5001"/>
</g>
<!-- Node9 -->
<g id="node17" class="node"><title>Node9</title>
<a xlink:href="class_ro_r_1_1_rig_editor_1_1_main.html#a4f73e9dc5632524ca803864460b82bb5" target="_top" xlink:title="RoR::RigEditor::Main\l::CommandShowDialogOpenRigFile">
<polygon fill="white" stroke="black" points="908,-52 908,-86 1082,-86 1082,-52 908,-52"/>
<text text-anchor="start" x="916" y="-73" font-family="Helvetica,sans-Serif" font-size="10.00">RoR::RigEditor::Main</text>
<text text-anchor="middle" x="995" y="-60" font-family="Helvetica,sans-Serif" font-size="10.00">::CommandShowDialogOpenRigFile</text>
</a>
</g>
<!-- Node8&#45;&gt;Node9 -->
<g id="edge16" class="edge"><title>Node8&#45;&gt;Node9</title>
<path fill="none" stroke="midnightblue" d="M876.456,-53.0303C886.783,-54.4216 897.466,-55.8607 907.997,-57.2794"/>
<polygon fill="midnightblue" stroke="midnightblue" points="876.644,-49.5241 866.266,-51.6576 875.709,-56.4615 876.644,-49.5241"/>
</g>
<!-- Node10 -->
<g id="node19" class="node"><title>Node10</title>
<a xlink:href="class_ro_r_1_1_rig_editor_1_1_main.html#acb4af1361d9233f5ee2fa658536a7658" target="_top" xlink:title="RoR::RigEditor::Main\l::CommandShowDialogSaveRigFileAs">
<polygon fill="white" stroke="black" points="902.5,-0 902.5,-34 1087.5,-34 1087.5,-0 902.5,-0"/>
<text text-anchor="start" x="910.5" y="-21" font-family="Helvetica,sans-Serif" font-size="10.00">RoR::RigEditor::Main</text>
<text text-anchor="middle" x="995" y="-8" font-family="Helvetica,sans-Serif" font-size="10.00">::CommandShowDialogSaveRigFileAs</text>
</a>
</g>
<!-- Node8&#45;&gt;Node10 -->
<g id="edge18" class="edge"><title>Node8&#45;&gt;Node10</title>
<path fill="none" stroke="midnightblue" d="M876.223,-33.001C884.818,-31.8432 893.662,-30.6518 902.461,-29.4663"/>
<polygon fill="midnightblue" stroke="midnightblue" points="875.709,-29.5385 866.266,-34.3424 876.644,-36.4759 875.709,-29.5385"/>
</g>
</g>
</svg>
