<?xml version="1.0" encoding="UTF-8" standalone="no"?>
<!DOCTYPE svg PUBLIC "-//W3C//DTD SVG 1.1//EN"
 "http://www.w3.org/Graphics/SVG/1.1/DTD/svg11.dtd">
<!-- Generated by graphviz version 2.26.3 (20100126.1600)
 -->
<!-- Title: RoR::RigEditor::RigElementGuiPanelBase::GenericFieldSpec::SetWidgetsVisible Pages: 1 -->
<svg width="624pt" height="94pt"
 viewBox="0.00 0.00 624.00 94.00" xmlns="http://www.w3.org/2000/svg" xmlns:xlink="http://www.w3.org/1999/xlink">
<g id="graph1" class="graph" transform="scale(1 1) rotate(0) translate(4 90)">
<title>RoR::RigEditor::RigElementGuiPanelBase::GenericFieldSpec::SetWidgetsVisible</title>
<polygon fill="white" stroke="white" points="-4,5 -4,-90 621,-90 621,5 -4,5"/>
<!-- Node1 -->
<g id="node1" class="node"><title>Node1</title>
<polygon fill="#bfbfbf" stroke="black" points="0,-19.5 0,-66.5 162,-66.5 162,-19.5 0,-19.5"/>
<text text-anchor="start" x="8" y="-53.5" font-family="Helvetica,sans-Serif" font-size="10.00">RoR::RigEditor::RigElement</text>
<text text-anchor="start" x="8" y="-40.5" font-family="Helvetica,sans-Serif" font-size="10.00">GuiPanelBase::GenericFieldSpec</text>
<text text-anchor="middle" x="81" y="-27.5" font-family="Helvetica,sans-Serif" font-size="10.00">::SetWidgetsVisible</text>
</g>
<!-- Node2 -->
<g id="node3" class="node"><title>Node2</title>
<a xlink:href="class_ro_r_1_1_g_u_i_1_1_rig_editor_flex_body_wheels_panel.html#a95654376329f601e7ca90c81a7c36513" target="_top" xlink:title="RoR::GUI::RigEditorFlexBody\lWheelsPanel::SetNodeFieldsVisible">
<polygon fill="white" stroke="black" points="198,-52 198,-86 372,-86 372,-52 198,-52"/>
<text text-anchor="start" x="206" y="-73" font-family="Helvetica,sans-Serif" font-size="10.00">RoR::GUI::RigEditorFlexBody</text>
<text text-anchor="middle" x="285" y="-60" font-family="Helvetica,sans-Serif" font-size="10.00">WheelsPanel::SetNodeFieldsVisible</text>
</a>
</g>
<!-- Node1&#45;&gt;Node2 -->
<g id="edge2" class="edge"><title>Node1&#45;&gt;Node2</title>
<path fill="none" stroke="midnightblue" d="M172.409,-54.6502C180.821,-55.7222 189.329,-56.8067 197.703,-57.8739"/>
<polygon fill="midnightblue" stroke="midnightblue" points="172.575,-51.143 162.212,-53.3506 171.69,-58.0869 172.575,-51.143"/>
</g>
<!-- Node4 -->
<g id="node7" class="node"><title>Node4</title>
<a xlink:href="class_ro_r_1_1_g_u_i_1_1_rig_editor_mesh_wheels2_panel.html#af35cd033484b9bba6ae863e8df657ce5" target="_top" xlink:title="RoR::GUI::RigEditorMeshWheels2\lPanel::SetNodeFieldsVisible">
<polygon fill="white" stroke="black" points="200,-0 200,-34 370,-34 370,-0 200,-0"/>
<text text-anchor="start" x="208" y="-21" font-family="Helvetica,sans-Serif" font-size="10.00">RoR::GUI::RigEditorMeshWheels2</text>
<text text-anchor="middle" x="285" y="-8" font-family="Helvetica,sans-Serif" font-size="10.00">Panel::SetNodeFieldsVisible</text>
</a>
</g>
<!-- Node1&#45;&gt;Node4 -->
<g id="edge6" class="edge"><title>Node1&#45;&gt;Node4</title>
<path fill="none" stroke="midnightblue" d="M172.409,-31.3498C181.497,-30.1916 190.698,-29.0189 199.72,-27.8691"/>
<polygon fill="midnightblue" stroke="midnightblue" points="171.69,-27.9131 162.212,-32.6494 172.575,-34.857 171.69,-27.9131"/>
</g>
<!-- Node3 -->
<g id="node5" class="node"><title>Node3</title>
<a xlink:href="class_ro_r_1_1_g_u_i_1_1_rig_editor_flex_body_wheels_panel.html#a8af40ce06f55deb291cc16b01d227e55" target="_top" xlink:title="RoR::GUI::RigEditorFlexBody\lWheelsPanel::UpdateFlexBodyWheelsData">
<polygon fill="white" stroke="black" points="408.5,-52 408.5,-86 615.5,-86 615.5,-52 408.5,-52"/>
<text text-anchor="start" x="416.5" y="-73" font-family="Helvetica,sans-Serif" font-size="10.00">RoR::GUI::RigEditorFlexBody</text>
<text text-anchor="middle" x="512" y="-60" font-family="Helvetica,sans-Serif" font-size="10.00">WheelsPanel::UpdateFlexBodyWheelsData</text>
</a>
</g>
<!-- Node2&#45;&gt;Node3 -->
<g id="edge4" class="edge"><title>Node2&#45;&gt;Node3</title>
<path fill="none" stroke="midnightblue" d="M382.221,-69C390.892,-69 399.691,-69 408.412,-69"/>
<polygon fill="midnightblue" stroke="midnightblue" points="382.115,-65.5001 372.115,-69 382.115,-72.5001 382.115,-65.5001"/>
</g>
<!-- Node5 -->
<g id="node9" class="node"><title>Node5</title>
<a xlink:href="class_ro_r_1_1_g_u_i_1_1_rig_editor_mesh_wheels2_panel.html#aaaa01dcd8dd7f9ee300a825c735626a0" target="_top" xlink:title="RoR::GUI::RigEditorMeshWheels2\lPanel::UpdateMeshWheels2Data">
<polygon fill="white" stroke="black" points="427,-0 427,-34 597,-34 597,-0 427,-0"/>
<text text-anchor="start" x="435" y="-21" font-family="Helvetica,sans-Serif" font-size="10.00">RoR::GUI::RigEditorMeshWheels2</text>
<text text-anchor="middle" x="512" y="-8" font-family="Helvetica,sans-Serif" font-size="10.00">Panel::UpdateMeshWheels2Data</text>
</a>
</g>
<!-- Node4&#45;&gt;Node5 -->
<g id="edge8" class="edge"><title>Node4&#45;&gt;Node5</title>
<path fill="none" stroke="midnightblue" d="M380.233,-17C395.662,-17 411.555,-17 426.728,-17"/>
<polygon fill="midnightblue" stroke="midnightblue" points="380.172,-13.5001 370.172,-17 380.172,-20.5001 380.172,-13.5001"/>
</g>
</g>
</svg>
