<?xml version="1.0" encoding="UTF-8" standalone="no"?>
<!DOCTYPE svg PUBLIC "-//W3C//DTD SVG 1.1//EN"
 "http://www.w3.org/Graphics/SVG/1.1/DTD/svg11.dtd">
<!-- Generated by graphviz version 2.26.3 (20100126.1600)
 -->
<!-- Title: RoR::RigEditor::InputHandler::MouseButtonEvent::MiddleButtonDown Pages: 1 -->
<svg width="384pt" height="42pt"
 viewBox="0.00 0.00 384.00 42.00" xmlns="http://www.w3.org/2000/svg" xmlns:xlink="http://www.w3.org/1999/xlink">
<g id="graph1" class="graph" transform="scale(1 1) rotate(0) translate(4 38)">
<title>RoR::RigEditor::InputHandler::MouseButtonEvent::MiddleButtonDown</title>
<polygon fill="white" stroke="white" points="-4,5 -4,-38 381,-38 381,5 -4,5"/>
<!-- Node1 -->
<g id="node1" class="node"><title>Node1</title>
<polygon fill="#bfbfbf" stroke="black" points="0,-0 0,-34 194,-34 194,-0 0,-0"/>
<text text-anchor="start" x="8" y="-21" font-family="Helvetica,sans-Serif" font-size="10.00">RoR::RigEditor::InputHandler</text>
<text text-anchor="middle" x="97" y="-8" font-family="Helvetica,sans-Serif" font-size="10.00">::MouseButtonEvent::MiddleButtonDown</text>
</g>
<!-- Node2 -->
<g id="node3" class="node"><title>Node2</title>
<a xlink:href="class_ro_r_1_1_rig_editor_1_1_input_handler.html#ae83c6ed00f47725fc9b64eadae372119" target="_top" xlink:title="RoR::RigEditor::InputHandler\l::mousePressed">
<polygon fill="white" stroke="black" points="230.5,-0 230.5,-34 375.5,-34 375.5,-0 230.5,-0"/>
<text text-anchor="start" x="238.5" y="-21" font-family="Helvetica,sans-Serif" font-size="10.00">RoR::RigEditor::InputHandler</text>
<text text-anchor="middle" x="303" y="-8" font-family="Helvetica,sans-Serif" font-size="10.00">::mousePressed</text>
</a>
</g>
<!-- Node1&#45;&gt;Node2 -->
<g id="edge2" class="edge"><title>Node1&#45;&gt;Node2</title>
<path fill="none" stroke="midnightblue" d="M204.278,-17C213.139,-17 221.958,-17 230.471,-17"/>
<polygon fill="midnightblue" stroke="midnightblue" points="204.269,-13.5001 194.269,-17 204.269,-20.5001 204.269,-13.5001"/>
</g>
</g>
</svg>
